<?xml version="1.0" encoding="utf-8"?>
<!-- Generator: Adobe Illustrator 24.0.3, SVG Export Plug-In . SVG Version: 6.00 Build 0)  -->
<svg version="1.1" id="Layer_1" xmlns="http://www.w3.org/2000/svg" xmlns:xlink="http://www.w3.org/1999/xlink" x="0px" y="0px"
	 viewBox="0 0 150.5 156.3" style="enable-background:new 0 0 150.5 156.3;" xml:space="preserve">
<style type="text/css">
	.st0{fill:#6DB33F;}
</style>
<title>logo-batch</title>
<g>
	<g>
		<path class="st0" d="M7.3,110.3h58.2c4,0,7.3-3.3,7.3-7.3V89H58.2v6.8H14.6V57.9h43.6v6.8h14.5V50.6c0-4-3.3-7.3-7.3-7.3H7.3
			c-4,0-7.3,3.3-7.3,7.3v52.4C0,107.1,3.3,110.3,7.3,110.3z"/>
		<path class="st0" d="M143,43.4H84.8c-4,0-7.3,3.3-7.3,7.3v14.1h14.6v-6.8h43.7v37.9H92.1V89H77.6v14.1c0,4,3.3,7.3,7.3,7.3H143
			c4,0,7.3-3.3,7.3-7.3V50.6C150.3,46.6,147,43.4,143,43.4z"/>
		<path class="st0" d="M97,122H53.2v-6.8H38.7v14.1c0,4,3.3,7.3,7.3,7.3h58.3c4,0,7.3-3.3,7.3-7.3v-14.1H97V122z"/>
		<path class="st0" d="M53.2,31.7H97v6.8h14.6V24.4c0-4-3.3-7.3-7.3-7.3H46c-4,0-7.3,3.3-7.3,7.3v14.1h14.5V31.7z"/>
	</g>
	<path class="st0" d="M104.3,69.6H46c-4,0-7.3,3.3-7.3,7.3s3.3,7.3,7.3,7.3h58.3c4,0,7.3-3.3,7.3-7.3S108.3,69.6,104.3,69.6z"/>
</g>
</svg>
