<?xml version="1.0" encoding="utf-8"?>
<!-- Generator: Adobe Illustrator 24.0.3, SVG Export Plug-In . SVG Version: 6.00 Build 0)  -->
<svg version="1.1" id="Layer_1" xmlns="http://www.w3.org/2000/svg" xmlns:xlink="http://www.w3.org/1999/xlink" x="0px" y="0px"
	 viewBox="0 0 150.49 156.27" style="enable-background:new 0 0 150.49 156.27;" xml:space="preserve">
<style type="text/css">
	.st0{fill:#68BD45;}
</style>
<title>logo-batch</title>
<path class="st0" d="M148.76,65.13c0.16,1.73,0.25,3.5,0.25,5.37c0,17.81-20.77,61.09-62.57,61.09h-3.7v9.53L62.19,116.7
	l20.54-24.43v9.53h3.7c31.85,0,56.95-21.96,57.31-53.7C132.33,21.58,105.96,3,75.27,3C34.11,3,0.7,36.39,0.7,77.54
	c0,4.45,0.39,8.81,1.14,13.05c-0.2-1.92-0.3-3.91-0.3-6C1.53,66.78,22.3,23.5,64.1,23.5h3.7v-9.53l20.55,24.43L67.8,62.82v-9.53
	h-3.7c-31.88,0-57,22.01-57.31,53.79c11.45,26.48,37.81,45.01,68.48,45.01c41.15,0,74.53-33.37,74.53-74.55
	C149.79,73.32,149.44,69.17,148.76,65.13z"/>
</svg>
