<?xml version="1.0" encoding="utf-8"?>
<!-- Generator: Adobe Illustrator 24.0.3, SVG Export Plug-In . SVG Version: 6.00 Build 0)  -->
<svg version="1.1" id="Layer_1" xmlns="http://www.w3.org/2000/svg" xmlns:xlink="http://www.w3.org/1999/xlink" x="0px" y="0px"
	 viewBox="0 0 150.5 156.3" style="enable-background:new 0 0 150.5 156.3;" xml:space="preserve">
<style type="text/css">
	.st0{fill:#6DB33F;}
</style>
<title>logo-batch</title>
<g>
	<path class="st0" d="M90.5,129.6H24.9V14.7h84.7v68.2h9.5V6.7c0-3.7-3-6.7-6.7-6.7H22.1c-3.7,0-6.7,3-6.7,6.7v130.9
		c0,3.7,3,6.7,6.7,6.7h68.5V129.6z M62.9,5.7h8.7v2.9h-8.7C62.9,8.6,62.9,5.7,62.9,5.7z M67.2,140.8c-2.3,0-4.2-1.9-4.2-4.2
		s1.9-4.2,4.2-4.2s4.2,1.9,4.2,4.2S69.6,140.8,67.2,140.8z"/>
	<path class="st0" d="M129.2,87.7h-28.9c-2.8,0-5,2.2-5,5v58.6c0,2.8,2.2,5,5,5h28.9c2.8,0,5-2.2,5-5V92.7
		C134.2,89.9,132,87.7,129.2,87.7z M111.5,91.9h6.5v2.2h-6.5V91.9z M114.8,153.6c-1.8,0-3.2-1.4-3.2-3.2s1.4-3.2,3.2-3.2
		s3.2,1.4,3.2,3.2C117.9,152.2,116.5,153.6,114.8,153.6z M130.4,145.3H99.1V98.7h31.4V145.3z"/>
</g>
</svg>
