<?xml version="1.0" encoding="utf-8"?>
<!-- Generator: Adobe Illustrator 24.0.3, SVG Export Plug-In . SVG Version: 6.00 Build 0)  -->
<svg version="1.1" id="Layer_1" xmlns="http://www.w3.org/2000/svg" xmlns:xlink="http://www.w3.org/1999/xlink" x="0px" y="0px"
	 viewBox="0 0 150.49 156.27" style="enable-background:new 0 0 150.49 156.27;" xml:space="preserve">
<style type="text/css">
	.st0{fill:#68BD45;}
</style>
<title>logo-batch</title>
<path class="st0" d="M132.49,21.73c-3.36,0-6.34,1.63-8.2,4.14L83.43,1.23V1.19h-0.07L81.39,0l-1.98,1.19h-0.06v0.04l-40.87,24.6
	c-1.87-2.48-4.82-4.1-8.17-4.1c-5.64,0-10.22,4.58-10.22,10.22c0,5.65,4.58,10.22,10.22,10.22c5.64,0,10.21-4.57,10.21-10.22
	c0-1.57-0.36-3.04-0.99-4.37L79.35,3.61l0.01,18.33c-4.66,0.95-8.17,5.07-8.17,10.01c0,4.94,3.51,9.07,8.18,10.01l0.01,31.06
	c-4.67,0.94-8.19,5.07-8.19,10.01c0,2.08,0.62,4,1.69,5.61l-17.61,17.51c-1.63-1.1-3.6-1.75-5.72-1.75
	c-5.64,0-10.22,4.58-10.22,10.22c0,2.1,0.63,4.04,1.72,5.66l-17.32,17.22c-1.61-1.06-3.53-1.68-5.6-1.68
	c-5.64,0-10.22,4.58-10.22,10.22c0,5.64,4.58,10.22,10.22,10.22c5.64,0,10.21-4.58,10.21-10.22c0-2.1-0.63-4.04-1.71-5.66
	l17.32-17.22c1.61,1.06,3.53,1.68,5.6,1.68c5.64,0,10.22-4.57,10.22-10.22c0-2.05-0.61-3.95-1.65-5.55l17.64-17.53
	c1.62,1.08,3.56,1.71,5.66,1.71c2.46,0,4.71-0.87,6.47-2.31l17.39,17.38c-1.37,1.74-2.19,3.92-2.19,6.3
	c0,5.64,4.58,10.22,10.22,10.22c5.64,0,10.22-4.57,10.22-10.22c0-5.64-4.58-10.22-10.22-10.22c-2.53,0-4.83,0.92-6.62,2.44
	L89.32,89.5c1.44-1.76,2.3-4.01,2.3-6.46c0-4.94-3.51-9.06-8.16-10.01l-0.01-31.06c4.66-0.95,8.17-5.07,8.17-10.01
	c0-4.94-3.51-9.07-8.18-10.01L83.43,3.62l39.81,24c-0.62,1.31-0.97,2.78-0.97,4.33c0,5.65,4.58,10.22,10.22,10.22
	c5.64,0,10.21-4.57,10.21-10.22C142.71,26.31,138.13,21.73,132.49,21.73z M30.31,39.1c-3.94,0-7.16-3.21-7.16-7.15
	c0-3.94,3.21-7.15,7.16-7.15c3.94,0,7.15,3.21,7.15,7.15C37.46,35.9,34.26,39.1,30.31,39.1z M113.29,107.48
	c3.94,0,7.15,3.21,7.15,7.15c0,3.95-3.21,7.15-7.15,7.15c-3.94,0-7.15-3.21-7.15-7.15C106.14,110.69,109.34,107.48,113.29,107.48z
	 M132.49,39.1c-3.95,0-7.16-3.21-7.16-7.15c0-3.94,3.21-7.15,7.16-7.15c3.94,0,7.14,3.21,7.14,7.15
	C139.64,35.9,136.44,39.1,132.49,39.1z"/>
</svg>
