<svg id="Layer_1" data-name="Layer 1" xmlns="http://www.w3.org/2000/svg" viewBox="0 0 164.54 115.47"><defs><style>.cls-1{fill:#6db33f;}</style></defs><title>logo-integration</title><path class="cls-1" d="M100.67,2.53,51.74,51.46l-8.32-8.33V72.05H72.34L64,63.72,106.8,20.93l36.81,36.81L106.8,94.54l-8.17-8.18L86.36,98.63l14.31,14.31a8.69,8.69,0,0,0,12.27,0L162,63.87a8.69,8.69,0,0,0,0-12.27L112.94,2.53A8.71,8.71,0,0,0,100.67,2.53Z"/><path class="cls-1" d="M63.87,112.94,112.8,64l8.32,8.32V43.43H92.2l8.33,8.32L57.74,94.54,20.93,57.74,57.74,20.93l8.17,8.18L78.18,16.84,63.87,2.53a8.71,8.71,0,0,0-12.27,0L2.53,51.6a8.71,8.71,0,0,0,0,12.27L51.6,112.94A8.69,8.69,0,0,0,63.87,112.94Z"/></svg>