<?xml version="1.0" encoding="utf-8"?>
<!-- Generator: Adobe Illustrator 24.0.3, SVG Export Plug-In . SVG Version: 6.00 Build 0)  -->
<svg version="1.1" id="Layer_1" xmlns="http://www.w3.org/2000/svg" xmlns:xlink="http://www.w3.org/1999/xlink" x="0px" y="0px"
	 viewBox="0 0 150.5 156.3" style="enable-background:new 0 0 150.5 156.3;" xml:space="preserve">
<style type="text/css">
	.st0{fill-rule:evenodd;clip-rule:evenodd;fill:#6DB33F;}
</style>
<title>logo-batch</title>
<g>
	<path class="st0" d="M143.5,79.6c4.6-6,7.1-13.1,7-20.5c-0.4-21.5-23.1-38.5-50.7-37.9c-11.5,0.2-22,3.5-30.3,8.7
		c31.1,2,55.4,22.6,54.9,47.2c-0.1,6.9-2.2,13.3-5.8,19.1c0.1,0,0.2-0.1,0.3-0.1l25.3,10.9C144.2,107,135.6,89.7,143.5,79.6z"/>
	<path class="st0" d="M60.2,32.6C27.5,31.9,0.5,52.1,0,77.6c-0.2,8.9,2.9,17.2,8.3,24.4c9.3,12-0.8,32.6-0.8,32.6l30-12.9
		c6.5,2,13.5,3.2,20.9,3.4c32.7,0.6,59.7-19.5,60.2-45C119.1,54.5,92.9,33.2,60.2,32.6z M88.9,83.5c-2.4,2.4-6.3,2.4-8.8,0
		c-1.3-1.3-1.9-2.9-1.8-4.6l-4.4-2.1c-1.5,1.3-3.5,1.8-5.6,1.4c-0.5-0.1-1-0.3-1.5-0.5l-4.6,3.2c0.5,1.9,0.4,4-0.4,5.9
		c-0.2,0.6-0.5,1.1-0.9,1.5l4.3,5.1c2.9-0.8,6,0.6,7.1,3.5c1.2,3-0.3,6.4-3.3,7.6s-6.5-0.3-7.6-3.3c-0.7-1.7-0.5-3.5,0.3-4.9l-4.3-5
		c-2.2,1-4.8,1.1-7.2,0c-1.4-0.6-2.5-1.5-3.4-2.7L42.2,90c-0.1,1-0.3,2-0.9,2.9c-1.9,3.2-6,4.3-9.2,2.5c-3.2-1.9-4.3-6-2.5-9.2
		c1.9-3.2,6-4.3,9.2-2.5c0.9,0.5,1.6,1.2,2.1,2l4.2-1.3c-0.2-1.5,0-3.1,0.7-4.6c0.7-1.6,1.8-2.8,3.1-3.7l-1.2-3.5
		c-0.1,0-0.1,0-0.2,0c-4.2,0-7.6-3.4-7.6-7.6c0-4.2,3.4-7.6,7.6-7.6c4.2,0,7.6,3.4,7.6,7.6c0,2.5-1.2,4.7-3.1,6.1l1.2,3.5
		c1.4-0.1,2.8,0.1,4.1,0.7c1,0.4,1.8,1,2.6,1.7l3.7-2.6c-0.5-1.2-0.7-2.5-0.4-3.9c0.4-1.7,1.4-3.1,2.7-4l-0.8-3.1
		c-2.5-0.5-4.2-2.8-4-5.4c0.2-2.8,2.7-5,5.5-4.8c2.8,0.2,5,2.7,4.8,5.5c-0.1,1.5-0.8,2.7-1.8,3.6l0.8,3.1c0.2,0,0.4,0.1,0.7,0.1
		c3.4,0.7,5.6,4,5.1,7.4l4,1.9c2.4-2.4,6.3-2.4,8.8,0C91.3,77.1,91.3,81.1,88.9,83.5z"/>
</g>
</svg>
