<?xml version="1.0" encoding="utf-8"?>
<!-- Generator: Adobe Illustrator 24.0.3, SVG Export Plug-In . SVG Version: 6.00 Build 0)  -->
<svg version="1.1" id="Layer_1" xmlns="http://www.w3.org/2000/svg" xmlns:xlink="http://www.w3.org/1999/xlink" x="0px" y="0px"
	 viewBox="0 0 150.5 156.3" style="enable-background:new 0 0 150.5 156.3;" xml:space="preserve">
<style type="text/css">
	.st0{fill:#6DB33F;}
</style>
<path class="st0" d="M36.9,32.4c4.7-5.6,11.1-8.8,18.6-9.4l2.7-0.3c5.4-0.2,11.3-0.4,18-0.4c5.6,0,10.6,0.1,15.2,0.3
	c1.9-5.8,8.2-8.9,14-6.9c3.8,1.3,6.6,4.6,7.3,8.5c9.4,1.2,17,2.9,25.4,4.9V7l-0.9-0.2C119.7,2.6,106.4,0,75.4,0
	c-30.8,0-44,2.6-61.6,6.8L13,7v47.1c6-1.4,11.4-2.6,17.2-3.6C30.4,43.9,32.8,37.5,36.9,32.4z"/>
<path class="st0" d="M14.2,122.4l0.7,0.2c8.3,2,15.8,3.7,25,4.8c2.2-5.7,8.6-8.5,14.2-6.3c3.4,1.3,6,4.3,6.8,7.9
	c4.5,0.2,9.4,0.2,14.9,0.2c6.5,0,12.3-0.1,17.6-0.3l2.6-0.3c11.8-0.9,20-10.4,20-23.1c0-0.6,0-1.1-0.1-1.7
	c-10.5,1.5-22.6,2.4-40.5,2.4c-30.8,0-44.3-2.5-62.4-6.8V122L14.2,122.4z"/>
<path class="st0" d="M75.4,103.8c17.9,0,29.9-0.9,40.2-2.4c-2-11.3-11.7-19.6-23.2-19.7v0.1H59.8c-15.9,0-29-12.8-29.6-28.7
	c-5.5,1-10.7,2.2-16.3,3.5L13,56.8v40.1l0.9,0.2C31.4,101.3,44.7,103.8,75.4,103.8z"/>
<path class="st0" d="M137.9,35.1l-0.7-0.2c-8.3-2-15.8-3.7-25-4.8c-2.2,5.7-8.5,8.5-14.2,6.3c-3.5-1.3-6-4.3-6.8-7.9
	c-4.5-0.2-9.4-0.2-14.9-0.2c-6.5,0-12.3,0.1-17.6,0.3L56,28.8c-11,0.8-19,9.2-19.9,20.7c10.2-1.4,22.1-2.2,39.3-2.2
	c31,0,44.5,2.6,62.7,6.8v-19L137.9,35.1z"/>
<path class="st0" d="M121.9,105.6c0,7.4-2.4,14.3-6.8,19.5c-4.7,5.6-11.1,8.8-18.6,9.4l-2.7,0.3c-5.4,0.2-11.3,0.4-18,0.4
	c-5.6,0-10.6-0.1-15.2-0.3c-1.9,5.8-8.2,8.9-14,6.9c-3.8-1.3-6.6-4.6-7.3-8.5c-9.5-1.2-17.2-2.9-25.8-5l-0.6-0.1v21.1l0.9,0.2
	c17.6,4.2,30.8,6.8,61.6,6.8c30.9,0,44.3-2.6,61.8-6.8l0.9-0.2V99.5c-5.7,1.3-10.9,2.5-16.3,3.5
	C121.9,103.8,121.9,104.7,121.9,105.6z"/>
<path class="st0" d="M75.4,49.8c-17.4,0-29.2,0.8-39.4,2.3c0.1,13.1,10.6,23.7,23.5,23.8v-0.1l32.8,0c14.6,0,26.7,10.7,29.1,24.7
	c5.3-1,10.3-2.1,15.8-3.5l0.9-0.2V56.8l-0.9-0.2C119.7,52.3,106.4,49.8,75.4,49.8z"/>
</svg>
