<?xml version="1.0" encoding="utf-8"?>
<!-- Generator: Adobe Illustrator 24.0.3, SVG Export Plug-In . SVG Version: 6.00 Build 0)  -->
<svg version="1.1" id="Layer_1" xmlns="http://www.w3.org/2000/svg" xmlns:xlink="http://www.w3.org/1999/xlink" x="0px" y="0px"
	 viewBox="0 0 150.49 156.27" style="enable-background:new 0 0 150.49 156.27;" xml:space="preserve">
<style type="text/css">
	.st0{fill-rule:evenodd;clip-rule:evenodd;fill:#68BD45;}
</style>
<title>logo-batch</title>
<g>
	<path class="st0" d="M143.5,79.59c4.57-6.02,7.13-13.05,6.98-20.53c-0.42-21.5-23.11-38.49-50.68-37.94
		c-11.49,0.23-22,3.47-30.34,8.72c31.09,2.02,55.38,22.62,54.89,47.24c-0.14,6.87-2.19,13.34-5.75,19.13
		c0.1-0.03,0.21-0.05,0.32-0.09l25.3,10.9C144.22,107.01,135.65,89.67,143.5,79.59z"/>
	<path class="st0" d="M60.19,32.59C27.46,31.94,0.51,52.11,0.01,77.64c-0.17,8.88,2.88,17.23,8.29,24.38
		c9.32,11.98-0.85,32.57-0.85,32.57l30.04-12.94c6.48,2.04,13.51,3.24,20.88,3.38c32.73,0.64,59.68-19.52,60.18-45.05
		C119.06,54.45,92.93,33.24,60.19,32.59z M88.87,83.5c-2.41,2.44-6.35,2.45-8.78,0.04c-1.28-1.26-1.89-2.94-1.83-4.62l-4.43-2.14
		c-1.5,1.27-3.54,1.85-5.6,1.41c-0.51-0.11-1-0.29-1.46-0.51l-4.56,3.19c0.52,1.89,0.43,3.96-0.42,5.88
		c-0.24,0.55-0.54,1.06-0.87,1.53l4.34,5.07c2.88-0.85,5.99,0.64,7.12,3.49c1.19,3.02-0.29,6.44-3.31,7.64
		c-3.02,1.2-6.45-0.29-7.64-3.31c-0.66-1.68-0.49-3.48,0.29-4.95l-4.32-5.03c-2.19,0.99-4.77,1.08-7.15,0.03
		c-1.38-0.61-2.53-1.54-3.39-2.66l-4.7,1.46c-0.06,0.99-0.35,1.97-0.88,2.89c-1.86,3.24-6,4.34-9.24,2.47
		c-3.24-1.86-4.34-6-2.48-9.24c1.87-3.24,6.01-4.35,9.24-2.48c0.88,0.51,1.59,1.18,2.14,1.96l4.16-1.29
		c-0.2-1.53,0.01-3.13,0.68-4.64c0.7-1.57,1.79-2.83,3.13-3.72l-1.2-3.52c-0.07,0-0.14,0-0.2,0c-4.19-0.01-7.58-3.41-7.57-7.61
		c0-4.19,3.4-7.58,7.6-7.57c4.2,0.01,7.59,3.42,7.58,7.61c-0.01,2.5-1.22,4.72-3.09,6.1l1.2,3.52c1.36-0.09,2.76,0.14,4.09,0.73
		c0.98,0.43,1.83,1.01,2.56,1.71l3.72-2.61c-0.5-1.19-0.66-2.54-0.37-3.9c0.36-1.7,1.36-3.09,2.69-4l-0.84-3.12
		c-2.46-0.53-4.24-2.81-4.05-5.4c0.2-2.85,2.66-5,5.51-4.79c2.85,0.2,4.99,2.66,4.8,5.51c-0.11,1.46-0.79,2.72-1.83,3.59l0.83,3.11
		c0.22,0.03,0.44,0.06,0.66,0.1c3.39,0.74,5.59,3.98,5.07,7.37l4.01,1.93c2.42-2.42,6.34-2.43,8.77-0.02
		C91.27,77.14,91.29,81.07,88.87,83.5z"/>
</g>
</svg>
