<?xml version="1.0" encoding="utf-8"?>
<!-- Generator: Adobe Illustrator 24.0.3, SVG Export Plug-In . SVG Version: 6.00 Build 0)  -->
<svg version="1.1" id="Layer_1" xmlns="http://www.w3.org/2000/svg" xmlns:xlink="http://www.w3.org/1999/xlink" x="0px" y="0px"
	 viewBox="0 0 150.5 156.3" style="enable-background:new 0 0 150.5 156.3;" xml:space="preserve">
<style type="text/css">
	.st0{fill-rule:evenodd;clip-rule:evenodd;fill:#6DB33F;}
</style>
<title>logo-batch</title>
<g>
	<path class="st0" d="M75.4,13.3c0.6,0,1.2,0,1.8,0c23.1,0.4,44.1,8.7,57.6,22.8c8.4,8.8,13.1,19,13.7,29.8
		c1.2-3.3,1.8-6.7,1.9-10.3C151,31,123.7,10.6,89.4,10C79.2,9.8,69.6,11.4,61,14.4C65.8,13.6,70.6,13.3,75.4,13.3z"/>
	<path class="st0" d="M65.5,22.1c0.6,0,1.2,0,1.8,0c19.2,0.4,37.1,6.6,50.5,17.5c13.8,11.2,21.2,26,20.9,41.6c0,2.2-0.3,4.4-0.6,6.6
		c3.4-5.8,5.4-12.1,5.6-18.9c0.6-27.3-29.2-50-66.5-50.7c-13.9-0.3-26.9,2.6-37.7,7.6C47.5,23.5,56.3,22.1,65.5,22.1z"/>
	<path class="st0" d="M68.6,27.1C31.3,26.4,0.6,49.3,0,78.4c-0.2,10.1,3.3,19.6,9.4,27.8l0,0c10.6,13.7-1,37.1-1,37.1l34.2-14.8
		c7.4,2.3,15.4,3.7,23.8,3.9c37.3,0.7,68-22.3,68.6-51.4C135.7,52,105.9,27.8,68.6,27.1z M38.7,88.2c-4.6,0-8.3-3.7-8.3-8.3
		c0-4.6,3.7-8.3,8.3-8.3s8.3,3.7,8.3,8.3C47,84.4,43.3,88.2,38.7,88.2z M66.4,88.2c-4.6,0-8.3-3.7-8.3-8.3c0-4.6,3.7-8.3,8.3-8.3
		s8.3,3.7,8.3,8.3C74.8,84.4,71,88.2,66.4,88.2z M94.2,88.2c-4.6,0-8.3-3.7-8.3-8.3c0-4.6,3.7-8.3,8.3-8.3s8.3,3.7,8.3,8.3
		C102.5,84.4,98.8,88.2,94.2,88.2z"/>
</g>
</svg>
