<?xml version="1.0" encoding="utf-8"?>
<!-- Generator: Adobe Illustrator 24.0.3, SVG Export Plug-In . SVG Version: 6.00 Build 0)  -->
<svg version="1.1" id="Layer_1" xmlns="http://www.w3.org/2000/svg" xmlns:xlink="http://www.w3.org/1999/xlink" x="0px" y="0px"
	 viewBox="0 0 164.5 115.5" style="enable-background:new 0 0 164.5 115.5;" xml:space="preserve">
<style type="text/css">
	.st0{fill:#6DB33F;}
</style>
<title>logo-integration</title>
<path class="st0" d="M100.7,2.5L51.7,51.5l-8.3-8.3v28.9h28.9L64,63.7l42.8-42.8l36.8,36.8l-36.8,36.8l-8.2-8.2L86.4,98.6l14.3,14.3
	c3.4,3.4,8.9,3.4,12.3,0L162,63.9c3.4-3.4,3.4-8.9,0-12.3L112.9,2.5C109.5-0.8,104.1-0.8,100.7,2.5z"/>
<path class="st0" d="M63.9,112.9L112.8,64l8.3,8.3V43.4H92.2l8.3,8.3L57.7,94.5L20.9,57.7l36.8-36.8l8.2,8.2l12.3-12.3L63.9,2.5
	c-3.4-3.4-8.9-3.4-12.3,0L2.5,51.6c-3.4,3.4-3.4,8.9,0,12.3l49.1,49.1C55,116.3,60.5,116.3,63.9,112.9z"/>
</svg>
