<?xml version="1.0" encoding="utf-8"?>
<!-- Generator: Adobe Illustrator 24.0.3, SVG Export Plug-In . SVG Version: 6.00 Build 0)  -->
<svg version="1.1" id="Layer_1" xmlns="http://www.w3.org/2000/svg" xmlns:xlink="http://www.w3.org/1999/xlink" x="0px" y="0px"
	 viewBox="0 0 150.5 156.3" style="enable-background:new 0 0 150.5 156.3;" xml:space="preserve">
<style type="text/css">
	.st0{fill:#6DB33F;}
</style>
<title>logo-batch</title>
<path class="st0" d="M148.8,65.1c0.2,1.7,0.2,3.5,0.2,5.4c0,17.8-20.8,61.1-62.6,61.1h-3.7v9.5l-20.5-24.4l20.5-24.4v9.5h3.7
	c31.8,0,56.9-22,57.3-53.7C132.3,21.6,106,3,75.3,3C34.1,3,0.7,36.4,0.7,77.5c0,4.4,0.4,8.8,1.1,13.1c-0.2-1.9-0.3-3.9-0.3-6
	c0-17.8,20.8-61.1,62.6-61.1h3.7V14l20.5,24.4L67.8,62.8v-9.5h-3.7c-31.9,0-57,22-57.3,53.8c11.5,26.5,37.8,45,68.5,45
	c41.2,0,74.5-33.4,74.5-74.6C149.8,73.3,149.4,69.2,148.8,65.1z"/>
</svg>
