<?xml version="1.0" encoding="utf-8"?>
<!-- Generator: Adobe Illustrator 24.0.3, SVG Export Plug-In . SVG Version: 6.00 Build 0)  -->
<svg version="1.1" id="Layer_1" xmlns="http://www.w3.org/2000/svg" xmlns:xlink="http://www.w3.org/1999/xlink" x="0px" y="0px"
	 viewBox="0 0 150.49 156.27" style="enable-background:new 0 0 150.49 156.27;" xml:space="preserve">
<style type="text/css">
	.st0{fill-rule:evenodd;clip-rule:evenodd;fill:#68BD45;}
</style>
<title>logo-batch</title>
<g>
	<path class="st0" d="M75.44,13.28c0.61,0,1.22,0,1.83,0.02c23.09,0.43,44.09,8.74,57.62,22.8c8.43,8.77,13.12,19,13.71,29.76
		c1.16-3.28,1.82-6.72,1.89-10.26c0.53-24.58-26.82-45-61.09-45.62C79.22,9.8,69.58,11.4,61.04,14.37
		C65.75,13.65,70.57,13.28,75.44,13.28z"/>
	<path class="st0" d="M65.51,22.1c0.61,0,1.23,0,1.84,0.02c19.15,0.38,37.09,6.59,50.51,17.49c13.78,11.19,21.2,25.96,20.89,41.61
		c-0.04,2.24-0.26,4.44-0.61,6.6c3.44-5.78,5.42-12.14,5.56-18.87c0.58-27.31-29.21-50-66.52-50.7c-13.89-0.26-26.86,2.58-37.7,7.64
		C47.53,23.45,56.29,22.1,65.51,22.1z"/>
	<path class="st0" d="M68.63,27.08C31.3,26.35,0.58,49.35,0.01,78.45c-0.2,10.12,3.27,19.64,9.45,27.79l0,0
		c10.63,13.66-0.97,37.13-0.97,37.13l34.25-14.75c7.38,2.33,15.4,3.69,23.81,3.86c37.32,0.73,68.04-22.26,68.61-51.37
		C135.74,52.01,105.95,27.82,68.63,27.08z M38.69,88.15c-4.59,0-8.33-3.73-8.33-8.32c0-4.6,3.73-8.33,8.33-8.33
		c4.6,0,8.33,3.73,8.33,8.33C47.02,84.43,43.29,88.15,38.69,88.15z M66.44,88.15c-4.6,0-8.33-3.73-8.33-8.32
		c0-4.6,3.73-8.33,8.33-8.33c4.6,0,8.33,3.73,8.33,8.33C74.77,84.43,71.04,88.15,66.44,88.15z M94.19,88.15
		c-4.6,0-8.33-3.73-8.33-8.32c0-4.6,3.73-8.33,8.33-8.33c4.6,0,8.33,3.73,8.33,8.33C102.52,84.43,98.79,88.15,94.19,88.15z"/>
</g>
</svg>
