<svg xmlns="http://www.w3.org/2000/svg" viewBox="0 0 510 457.8"><defs><style>.cls-1{fill:#68bd45;}</style></defs><title>icon-spring-boot</title><g id="Layer_2" data-name="Layer 2"><g id="Layer_1-2" data-name="Layer 1"><path class="cls-1" d="M503.45,201.42,403,27.46C394.28,12.36,372.88,0,355.44,0H154.56C137.11,0,115.7,12.36,107,27.46L6.55,201.42c-8.73,15.12-8.73,39.83,0,54.94L107,430.33c8.72,15.1,30.13,27.47,47.58,27.47H355.44c17.44,0,38.84-12.37,47.58-27.47l100.43-174C512.18,241.25,512.18,216.54,503.45,201.42ZM233.3,96.2a20.71,20.71,0,1,1,41.42,0V219.93a20.71,20.71,0,1,1-41.42,0ZM254,360.33c-77.41,0-140.4-63-140.4-140.4a141,141,0,0,1,56.68-112.68,18.4,18.4,0,1,1,22,29.53,103.57,103.57,0,1,0,165.31,83.15,104.06,104.06,0,0,0-42.18-83.42,18.41,18.41,0,0,1,21.86-29.64,141.06,141.06,0,0,1,57.15,113.06C394.39,297.35,331.4,360.33,254,360.33Z"/></g></g></svg>