<?xml version="1.0" encoding="utf-8"?>
<!-- Generator: Adobe Illustrator 24.0.3, SVG Export Plug-In . SVG Version: 6.00 Build 0)  -->
<svg version="1.1" id="Layer_1" xmlns="http://www.w3.org/2000/svg" xmlns:xlink="http://www.w3.org/1999/xlink" x="0px" y="0px"
	 viewBox="0 0 150.49 156.27" style="enable-background:new 0 0 150.49 156.27;" xml:space="preserve">
<style type="text/css">
	.st0{fill:#68BD45;}
</style>
<title>logo-batch</title>
<g>
	<path class="st0" d="M90.54,129.57H24.89V14.71h84.67v68.23h9.48V6.66c0-3.68-2.98-6.66-6.66-6.66H22.07
		c-3.68,0-6.66,2.98-6.66,6.66v130.94c0,3.68,2.98,6.66,6.66,6.66h68.47V129.57z M62.88,5.67h8.71v2.89h-8.71V5.67z M67.23,140.77
		c-2.34,0-4.25-1.9-4.25-4.25s1.91-4.25,4.25-4.25s4.25,1.9,4.25,4.25S69.58,140.77,67.23,140.77z"/>
	<path class="st0" d="M129.19,87.67h-28.86c-2.76,0-4.99,2.24-4.99,5v58.61c0,2.76,2.23,5,4.99,5h28.86c2.76,0,5-2.24,5-5V92.66
		C134.19,89.9,131.96,87.67,129.19,87.67z M111.5,91.92h6.53v2.17h-6.53V91.92z M114.77,153.65c-1.76,0-3.19-1.42-3.19-3.18
		c0-1.76,1.43-3.19,3.19-3.19c1.76,0,3.19,1.43,3.19,3.19C117.95,152.22,116.53,153.65,114.77,153.65z M130.45,145.27H99.08v-46.6
		h31.37V145.27z"/>
</g>
</svg>
