<?xml version="1.0" encoding="utf-8"?>
<!-- Generator: Adobe Illustrator 24.0.3, SVG Export Plug-In . SVG Version: 6.00 Build 0)  -->
<svg version="1.1" id="Layer_1" xmlns="http://www.w3.org/2000/svg" xmlns:xlink="http://www.w3.org/1999/xlink" x="0px" y="0px"
	 viewBox="0 0 150.5 156.3" style="enable-background:new 0 0 150.5 156.3;" xml:space="preserve">
<style type="text/css">
	.st0{fill:#6DB33F;}
</style>
<title>logo-batch</title>
<path class="st0" d="M132.5,21.7c-3.4,0-6.3,1.6-8.2,4.1L83.4,1.2v0h-0.1l-2-1.2l-2,1.2h-0.1v0L38.5,25.8c-1.9-2.5-4.8-4.1-8.2-4.1
	c-5.6,0-10.2,4.6-10.2,10.2c0,5.7,4.6,10.2,10.2,10.2S40.5,37.6,40.5,32c0-1.6-0.4-3-1-4.4l39.8-24l0,18.3c-4.7,1-8.2,5.1-8.2,10
	s3.5,9.1,8.2,10l0,31.1c-4.7,0.9-8.2,5.1-8.2,10c0,2.1,0.6,4,1.7,5.6l-17.6,17.5c-1.6-1.1-3.6-1.8-5.7-1.8
	c-5.6,0-10.2,4.6-10.2,10.2c0,2.1,0.6,4,1.7,5.7l-17.3,17.2c-1.6-1.1-3.5-1.7-5.6-1.7c-5.6,0-10.2,4.6-10.2,10.2s4.6,10.2,10.2,10.2
	s10.2-4.6,10.2-10.2c0-2.1-0.6-4-1.7-5.7L44,123.2c1.6,1.1,3.5,1.7,5.6,1.7c5.6,0,10.2-4.6,10.2-10.2c0-2.1-0.6-3.9-1.7-5.6
	l17.6-17.5c1.6,1.1,3.6,1.7,5.7,1.7c2.5,0,4.7-0.9,6.5-2.3l17.4,17.4c-1.4,1.7-2.2,3.9-2.2,6.3c0,5.6,4.6,10.2,10.2,10.2
	s10.2-4.6,10.2-10.2c0-5.6-4.6-10.2-10.2-10.2c-2.5,0-4.8,0.9-6.6,2.4L89.3,89.5c1.4-1.8,2.3-4,2.3-6.5c0-4.9-3.5-9.1-8.2-10l0-31.1
	c4.7-1,8.2-5.1,8.2-10s-3.5-9.1-8.2-10l0-18.3l39.8,24c-0.6,1.3-1,2.8-1,4.3c0,5.6,4.6,10.2,10.2,10.2s10.2-4.6,10.2-10.2
	C142.7,26.3,138.1,21.7,132.5,21.7z M30.3,39.1c-3.9,0-7.2-3.2-7.2-7.1s3.2-7.1,7.2-7.1c3.9,0,7.1,3.2,7.1,7.1
	C37.5,35.9,34.3,39.1,30.3,39.1z M113.3,107.5c3.9,0,7.2,3.2,7.2,7.2c0,3.9-3.2,7.2-7.2,7.2s-7.2-3.2-7.2-7.2
	S109.3,107.5,113.3,107.5z M132.5,39.1c-3.9,0-7.2-3.2-7.2-7.1s3.2-7.1,7.2-7.1c3.9,0,7.1,3.2,7.1,7.1
	C139.6,35.9,136.4,39.1,132.5,39.1z"/>
</svg>
