<?xml version="1.0" encoding="utf-8"?>
<!-- Generator: Adobe Illustrator 24.0.3, SVG Export Plug-In . SVG Version: 6.00 Build 0)  -->
<svg version="1.1" id="Layer_1" xmlns="http://www.w3.org/2000/svg" xmlns:xlink="http://www.w3.org/1999/xlink" x="0px" y="0px"
	 viewBox="0 0 150.49 156.27" style="enable-background:new 0 0 150.49 156.27;" xml:space="preserve">
<style type="text/css">
	.st0{fill:#68BD45;}
</style>
<title>logo-batch</title>
<g>
	<g>
		<path class="st0" d="M7.28,110.33h58.2c4,0,7.27-3.27,7.27-7.27V88.96H58.2v6.81H14.55V57.9h43.64v6.82h14.55V50.63
			c0-4-3.27-7.27-7.28-7.27H7.28c-4,0-7.28,3.27-7.28,7.27v52.43C0,107.05,3.27,110.33,7.28,110.33z"/>
		<path class="st0" d="M143.01,43.36h-58.2c-4,0-7.27,3.27-7.27,7.27v14.09h14.55v-6.81h43.65v37.88H92.1v-6.82H77.55v14.09
			c0,4.01,3.27,7.27,7.28,7.27h58.19c4,0,7.28-3.27,7.28-7.27V50.63C150.29,46.63,147.02,43.36,143.01,43.36z"/>
		<path class="st0" d="M97.04,121.99H53.25v-6.82H38.71v14.09c0,4,3.27,7.27,7.28,7.27h58.33c4,0,7.28-3.27,7.28-7.27v-14.09H97.04
			V121.99z"/>
		<path class="st0" d="M53.25,31.69h43.79v6.82h14.55V24.42c0-4-3.27-7.27-7.28-7.27H45.98c-4,0-7.28,3.27-7.28,7.27v14.09h14.55
			V31.69z"/>
	</g>
	<path class="st0" d="M104.31,69.57H45.98c-4,0-7.27,3.27-7.27,7.27c0,4,3.27,7.27,7.27,7.27h58.34c4,0,7.27-3.27,7.27-7.27
		C111.59,72.84,108.31,69.57,104.31,69.57z"/>
</g>
</svg>
