<?xml version="1.0" encoding="utf-8"?>
<!-- Generator: Adobe Illustrator 24.0.3, SVG Export Plug-In . SVG Version: 6.00 Build 0)  -->
<svg version="1.1" id="Layer_1" xmlns="http://www.w3.org/2000/svg" xmlns:xlink="http://www.w3.org/1999/xlink" x="0px" y="0px"
	 viewBox="0 0 150.5 156.3" style="enable-background:new 0 0 150.5 156.3;" xml:space="preserve">
<style type="text/css">
	.st0{fill:#6DB33F;}
</style>
<title>logo-batch</title>
<g>
	<g>
		<g>
			<path class="st0" d="M140.2,94.8c0,5-4,9-9,9l0,0c-5,0-9-4-9-9V54.3c0-5,4-9,9-9l0,0c5,0,9,4,9,9V94.8z"/>
			<path class="st0" d="M28.4,94.8c0,5-4,9-9,9l0,0c-5,0-9-4-9-9V54.3c0-5,4-9,9-9l0,0c5,0,9,4,9,9V94.8z"/>
		</g>
		<path class="st0" d="M95.7,11.4l7.2-10.2c0.2-0.2-0.1-0.6-0.5-0.9c-0.4-0.3-0.9-0.4-1-0.2L94,10.7c-5.1-2-11.2-3.2-18.7-3.2
			c-7.5,0-13.7,1.2-18.8,3.1L49.1,0.1c-0.2-0.2-0.6-0.1-1,0.2c-0.4,0.3-0.6,0.7-0.5,0.9l7.2,10.1c-20.9,9.2-21.5,31.9-21.5,31.9h84
			C117.3,43.2,116.4,20.7,95.7,11.4z M56.8,29.9c-2.8,0-5.1-2.3-5.1-5.1c0-2.8,2.3-5,5.1-5s5.1,2.3,5.1,5
			C61.9,27.7,59.6,29.9,56.8,29.9z M93.7,29.9c-2.8,0-5.1-2.3-5.1-5.1c0-2.8,2.3-5,5.1-5s5.1,2.3,5.1,5
			C98.8,27.7,96.5,29.9,93.7,29.9z"/>
		<path class="st0" d="M117.6,48.2H32.9l0,71.4c0,2.8,2.3,5.1,5.1,5.1h10.9v22.5c0,5,4,9,9,9c5,0,9-4,9-9v-22.5h16.8v22.5
			c0,5,4,9,9,9c5,0,9-4,9-9v-22.5h10.9c2.8,0,5.1-2.3,5.1-5.1L117.6,48.2L117.6,48.2z"/>
	</g>
</g>
</svg>
