<?xml version="1.0" encoding="utf-8"?>
<!-- Generator: Adobe Illustrator 24.0.3, SVG Export Plug-In . SVG Version: 6.00 Build 0)  -->
<svg version="1.1" id="Layer_1" xmlns="http://www.w3.org/2000/svg" xmlns:xlink="http://www.w3.org/1999/xlink" x="0px" y="0px"
	 viewBox="0 0 150.5 156.3" style="enable-background:new 0 0 150.5 156.3;" xml:space="preserve">
<style type="text/css">
	.st0{fill:#6DB33F;}
</style>
<path class="st0" d="M140.5,24.6H92.4c-14.5,0-32.3,9.3-40.5,21.3L22.9,87.7l0,0L14,100.6c-8.2,0.5-14.4,7.6-13.9,15.8
	s7.6,14.4,15.8,13.9c7.9-0.5,14-7,13.9-14.9c0-1.5-0.3-3-0.7-4.4L38,98.1c4.8-7,17-13.4,25.5-13.4h21.9c5.1-0.5,8.7-5.1,8.2-10.1
	c-0.5-4.3-3.9-7.7-8.2-8.2H63.5c-1.2,0-2.5,0.2-3.8,0.3l7.2-10.4c4.8-7,17-13.4,25.5-13.4h48.2c5.1,0.4,9.5-3.4,9.9-8.5
	c0.4-5.1-3.4-9.5-8.5-9.9C141.5,24.5,141,24.5,140.5,24.6z"/>
<path class="st0" d="M109.9,64.9c-5.9,0-10.6,4.8-10.6,10.6c0,5.9,4.8,10.6,10.6,10.6s10.6-4.8,10.6-10.6
	C120.5,69.7,115.8,64.9,109.9,64.9C109.9,64.9,109.9,64.9,109.9,64.9z"/>
</svg>
