<?xml version="1.0" encoding="utf-8"?>
<!-- Generator: Adobe Illustrator 24.0.3, SVG Export Plug-In . SVG Version: 6.00 Build 0)  -->
<svg version="1.1" id="Layer_1" xmlns="http://www.w3.org/2000/svg" xmlns:xlink="http://www.w3.org/1999/xlink" x="0px" y="0px"
	 viewBox="0 0 150.49 156.27" style="enable-background:new 0 0 150.49 156.27;" xml:space="preserve">
<style type="text/css">
	.st0{fill:#68BD45;}
</style>
<title>logo-batch</title>
<g>
	<g>
		<g>
			<path class="st0" d="M140.17,94.76c0,4.98-4.04,9.01-9.01,9.01l0,0c-4.98,0-9.01-4.03-9.01-9.01V54.28
				c0-4.98,4.04-9.01,9.01-9.01l0,0c4.98,0,9.01,4.03,9.01,9.01V94.76z"/>
			<path class="st0" d="M28.41,94.76c0,4.98-4.03,9.01-9.01,9.01l0,0c-4.97,0-9.01-4.03-9.01-9.01V54.28c0-4.98,4.03-9.01,9.01-9.01
				l0,0c4.98,0,9.01,4.03,9.01,9.01V94.76z"/>
		</g>
		<path class="st0" d="M95.7,11.43l7.25-10.23c0.15-0.21-0.06-0.62-0.48-0.92c-0.41-0.29-0.87-0.36-1.03-0.15l-7.48,10.56
			c-5.06-1.98-11.2-3.21-18.68-3.24c-7.53-0.02-13.69,1.17-18.77,3.12l-7.4-10.44c-0.15-0.21-0.61-0.14-1.02,0.15
			c-0.42,0.29-0.63,0.7-0.48,0.92l7.16,10.11c-20.88,9.23-21.49,31.87-21.49,31.87h84.01C117.29,43.17,116.43,20.73,95.7,11.43z
			 M56.85,29.92c-2.79,0-5.06-2.26-5.06-5.06c0-2.79,2.27-5.05,5.06-5.05c2.79,0,5.06,2.26,5.06,5.05
			C61.91,27.66,59.64,29.92,56.85,29.92z M93.72,29.92c-2.79,0-5.06-2.26-5.06-5.06c0-2.79,2.27-5.05,5.06-5.05
			c2.79,0,5.06,2.26,5.06,5.05C98.78,27.66,96.51,29.92,93.72,29.92z"/>
		<path class="st0" d="M117.64,48.16H32.93l0.02,71.44c0,2.8,2.27,5.06,5.06,5.06h10.87v22.5c0,4.98,4.04,9.01,9.01,9.01
			c4.98,0,9.01-4.03,9.01-9.01v-22.5h16.75v22.5c0,4.98,4.04,9.01,9.01,9.01c4.98,0,9.01-4.03,9.01-9.01v-22.5h10.9
			c2.79,0,5.06-2.27,5.06-5.06V48.16z"/>
	</g>
</g>
</svg>
