<?xml version="1.0" encoding="utf-8"?>
<!-- Generator: Adobe Illustrator 24.0.3, SVG Export Plug-In . SVG Version: 6.00 Build 0)  -->
<svg version="1.1" id="Layer_1" xmlns="http://www.w3.org/2000/svg" xmlns:xlink="http://www.w3.org/1999/xlink" x="0px" y="0px"
	 viewBox="0 0 150.49 156.27" style="enable-background:new 0 0 150.49 156.27;" xml:space="preserve">
<style type="text/css">
	.st0{fill-rule:evenodd;clip-rule:evenodd;fill:#68BD45;}
</style>
<g>
	<g>
		<path class="st0" d="M110.15,66.07c-5.86,0-10.61,4.75-10.61,10.61c0,5.86,4.75,10.61,10.61,10.61s10.61-4.75,10.61-10.61
			C120.76,70.82,116.01,66.07,110.15,66.07z M142.38,24.76H91.43c-11.41,0-29.78,8.93-37.06,19.11
			c-5.47,7.64-35.27,51.34-39.92,58.16C6.43,102.28,0,108.84,0,116.92c0,8.23,6.67,14.91,14.91,14.91c8.23,0,14.91-6.67,14.91-14.91
			c0-1.7-0.3-3.33-0.83-4.86c0.87-1.22,7.61-10.66,10.91-14.92c3.53-4.56,15.58-11.58,21.42-11.58h24.32c6.34,0,8.69-5.59,8.69-8.69
			c0-3.1-2.38-9.26-8.11-9.26H60.74c-0.32,0-0.58-0.49-0.58-1.16c0.53-0.66,7.04-9.81,9.26-12.74c2.22-2.93,14.03-10.42,22-10.42
			h50.38c4.64,0,8.69-4.09,8.69-8.69S146.32,24.76,142.38,24.76z"/>
	</g>
</g>
</svg>
