<?xml version="1.0" encoding="utf-8"?>
<!-- Generator: Adobe Illustrator 24.0.3, SVG Export Plug-In . SVG Version: 6.00 Build 0)  -->
<svg version="1.1" id="Layer_1" xmlns="http://www.w3.org/2000/svg" xmlns:xlink="http://www.w3.org/1999/xlink" x="0px" y="0px"
	 viewBox="0 0 150.5 156.3" style="enable-background:new 0 0 150.5 156.3;" xml:space="preserve">
<style type="text/css">
	.st0{fill:#6DB33F;}
</style>
<title>logo-batch</title>
<g>
	<circle class="st0" cx="140.1" cy="49.9" r="10.3"/>
	<circle class="st0" cx="140.1" cy="105.1" r="10.3"/>
	<path class="st0" d="M95.8,39.2v9.2c8.2,1,15.3,5.3,20,11.6l8-4.6c-0.6-1.7-0.9-3.5-0.9-5.4c0-5.4,2.5-10.2,6.4-13.3
		c-5.7-5.2-12.5-9.2-20-11.6C108.2,32.1,102.8,37.7,95.8,39.2z"/>
	<path class="st0" d="M127.3,61.3l-8,4.6c1.5,3.6,2.4,7.5,2.4,11.6s-0.8,8-2.4,11.6l8,4.6c3.2-3.6,7.7-5.8,12.8-5.8
		c2.2,0,4.2,0.4,6.2,1.1c0.8-3.7,1.2-7.6,1.2-11.6s-0.4-7.8-1.2-11.6c-1.9,0.7-4,1.2-6.2,1.2C135,67.1,130.4,64.8,127.3,61.3z"/>
	<path class="st0" d="M123,105.1c0-1.9,0.3-3.7,0.9-5.4l-8-4.6c-4.7,6.3-11.9,10.6-20,11.6v9.2c7,1.4,12.4,7.1,13.5,14.2
		c7.5-2.4,14.3-6.4,20-11.6C125.4,115.3,123,110.5,123,105.1z"/>
	<circle class="st0" cx="92.3" cy="132.7" r="10.3"/>
	<path class="st0" d="M88.9,115.8v-9.2c-13.5-1.6-24.3-12.4-25.7-26c-15.5-5.3-29-14-36.4-20.2c7.8,5.1,21.4,9.1,36.8,11.2
		c2.5-12.2,12.7-21.7,25.3-23.2v-9.2c-7.2-1.5-12.9-7.5-13.7-15C54.1,29,28.3,40.2,0,15.5c0,55.4,29.5,107.4,75.2,115.9
		C75.8,123.7,81.5,117.4,88.9,115.8z"/>
	<ellipse class="st0" cx="92.3" cy="77.5" rx="22.4" ry="22.4"/>
	<circle class="st0" cx="92.3" cy="22.3" r="10.3"/>
</g>
</svg>
