<?xml version="1.0" encoding="utf-8"?>
<!-- Generator: Adobe Illustrator 24.0.3, SVG Export Plug-In . SVG Version: 6.00 Build 0)  -->
<svg version="1.1" id="Layer_1" xmlns="http://www.w3.org/2000/svg" xmlns:xlink="http://www.w3.org/1999/xlink" x="0px" y="0px"
	 viewBox="0 0 150.5 156.3" style="enable-background:new 0 0 150.5 156.3;" xml:space="preserve">
<style type="text/css">
	.st0{fill-rule:evenodd;clip-rule:evenodd;fill:#6DB33F;}
	.st1{fill:#FFFFFF;}
	.st2{fill-rule:evenodd;clip-rule:evenodd;fill:#FFFFFF;}
</style>
<path class="st0" d="M27.9,124.6C12.5,124.6,0,111.8,0,96.2C0,84.3,7.2,74.2,17.4,70c2.9-14.1,15.2-24.7,30-24.7
	c4.8,0,9.4,1.1,13.4,3.1c6.7-12,19.4-20.1,34-20.1c21.6,0,39,17.8,39,39.7c0,0.8,0,1.6-0.1,2.3c9.9,4.4,16.8,14.4,16.8,26
	c0,15.6-12.4,28.3-27.9,28.3H27.9z"/>
<rect x="82.3" y="105.2" class="st1" width="24.8" height="6.6"/>
<path class="st2" d="M75.7,83.7L50.3,98.3l-3.2-5.5l19.6-11.3L47,69l3.4-5.3l25.4,16.1L75.7,83.7z"/>
</svg>
