<?xml version="1.0" encoding="utf-8"?>
<!-- Generator: Adobe Illustrator 24.0.3, SVG Export Plug-In . SVG Version: 6.00 Build 0)  -->
<svg version="1.1" id="Layer_1" xmlns="http://www.w3.org/2000/svg" xmlns:xlink="http://www.w3.org/1999/xlink" x="0px" y="0px"
	 viewBox="0 0 150.49 156.27" style="enable-background:new 0 0 150.49 156.27;" xml:space="preserve">
<style type="text/css">
	.st0{fill-rule:evenodd;clip-rule:evenodd;fill:#68BD45;}
	.st1{fill:#FFFFFF;}
	.st2{fill-rule:evenodd;clip-rule:evenodd;fill:#FFFFFF;}
</style>
<path class="st0" d="M27.87,124.55C12.48,124.55,0,111.83,0,96.22c0-11.88,7.17-22.05,17.37-26.26c2.91-14.13,15.24-24.73,30-24.73
	c4.81,0,9.36,1.13,13.41,3.13c6.7-12.02,19.4-20.13,33.97-20.13c21.55,0,39.02,17.76,39.02,39.66c0,0.78-0.02,1.56-0.07,2.33
	c9.88,4.36,16.79,14.38,16.79,26c0,15.64-12.44,28.33-27.87,28.33H27.87z"/>
<rect x="82.31" y="105.24" class="st1" width="24.77" height="6.58"/>
<path class="st2" d="M75.68,83.65L50.31,98.28l-3.17-5.49l19.64-11.33l-19.75-12.5l3.39-5.35l25.37,16.06L75.68,83.65z"/>
</svg>
