<?xml version="1.0" encoding="utf-8"?>
<!-- Generator: Adobe Illustrator 24.0.3, SVG Export Plug-In . SVG Version: 6.00 Build 0)  -->
<svg version="1.1" id="Layer_1" xmlns="http://www.w3.org/2000/svg" xmlns:xlink="http://www.w3.org/1999/xlink" x="0px" y="0px"
	 viewBox="0 0 150.49 156.27" style="enable-background:new 0 0 150.49 156.27;" xml:space="preserve">
<style type="text/css">
	.st0{fill:#68BD45;}
</style>
<title>logo-batch</title>
<g>
	<circle class="st0" cx="140.14" cy="49.91" r="10.31"/>
	<circle class="st0" cx="140.14" cy="105.1" r="10.31"/>
	<path class="st0" d="M95.77,39.15v9.25c8.18,0.96,15.34,5.3,20.04,11.58l8.03-4.63c-0.57-1.71-0.89-3.54-0.89-5.44
		c0-5.38,2.49-10.19,6.37-13.34c-5.72-5.17-12.52-9.16-20.02-11.58C108.19,32.07,102.75,37.73,95.77,39.15z"/>
	<path class="st0" d="M127.29,61.29l-8.03,4.63c1.53,3.55,2.39,7.46,2.39,11.57c0,4.11-0.85,8.02-2.39,11.57l8.03,4.64
		c3.15-3.55,7.74-5.79,12.85-5.79c2.17,0,4.24,0.41,6.16,1.14c0.8-3.73,1.22-7.6,1.22-11.56c0-3.96-0.42-7.83-1.22-11.55
		c-1.91,0.74-3.99,1.15-6.16,1.15C135.03,67.09,130.44,64.85,127.29,61.29z"/>
	<path class="st0" d="M122.96,105.1c0-1.9,0.31-3.73,0.89-5.44l-8.03-4.64c-4.7,6.28-11.86,10.62-20.04,11.58v9.24
		c6.98,1.42,12.42,7.09,13.53,14.17c7.5-2.42,14.3-6.41,20.02-11.58C125.44,115.28,122.96,110.47,122.96,105.1z"/>
	<circle class="st0" cx="92.34" cy="132.68" r="10.31"/>
	<path class="st0" d="M88.9,115.84v-9.24c-13.54-1.59-24.29-12.44-25.71-26.03c-15.51-5.34-29.03-14.02-36.37-20.25
		c7.79,5.12,21.41,9.08,36.82,11.24C66.16,59.33,76.33,49.88,88.9,48.4v-9.25c-7.25-1.48-12.86-7.54-13.65-15.02
		C54.06,28.96,28.32,40.16,0,15.5c0,55.41,29.53,107.4,75.2,115.94C75.76,123.7,81.46,117.36,88.9,115.84z"/>
	
		<ellipse transform="matrix(0.7071 -0.7071 0.7071 0.7071 -27.7552 87.9907)" class="st0" cx="92.34" cy="77.5" rx="22.43" ry="22.43"/>
	<circle class="st0" cx="92.34" cy="22.32" r="10.31"/>
</g>
</svg>
