<svg id="Layer_1" data-name="Layer 1" xmlns="http://www.w3.org/2000/svg" viewBox="0 0 222.18 59.27"><defs><style>.cls-1{fill:#231f20;}</style></defs><title>Artifactory_BLACK_inline</title><path class="cls-1" d="M72.62,23.82h3.52V37.7a11.88,11.88,0,0,1-.25,3.37,6.27,6.27,0,0,1-4,4l-1.61-1.79a5.49,5.49,0,0,0,2-2.08,7.79,7.79,0,0,0,.35-3.17Z" transform="translate(-5 -5)"/><path class="cls-1" d="M77.95,23.87h9.34l-.4,2.8H81.42v3.94H85.8v2.83H81.42V41H77.95Z" transform="translate(-5 -5)"/><path class="cls-1" d="M86.5,28.85l3-.79A4.08,4.08,0,0,1,90,29.87a5.75,5.75,0,0,1,1.88-1.61,3,3,0,0,1,1.09-.2,2.57,2.57,0,0,1,1.24.27l-.92,2.92a1.87,1.87,0,0,0-1-.25,2.65,2.65,0,0,0-2,1.06v9H87V32.57A11.52,11.52,0,0,0,86.5,28.85Z" transform="translate(-5 -5)"/><path class="cls-1" d="M99.39,28.11A5.32,5.32,0,0,1,103.7,30a6.6,6.6,0,0,1,1.46,4.63,6.89,6.89,0,0,1-1.59,4.91,5.18,5.18,0,0,1-4.19,1.76c-3.44,0-5.7-2.58-5.7-6.57S96,28.11,99.39,28.11Zm0,2.45a1.79,1.79,0,0,0-1.71,1.29,9.05,9.05,0,0,0-.35,2.83,9,9,0,0,0,.42,3.2,1.84,1.84,0,0,0,1.69,1c1.44,0,2.06-1.29,2.06-4.29a5.9,5.9,0,0,0-.67-3.39A1.78,1.78,0,0,0,99.44,30.56Z" transform="translate(-5 -5)"/><path class="cls-1" d="M117.7,27.64l1.39,2.11a3.16,3.16,0,0,1-2.33.94,6.13,6.13,0,0,1-.87-.07,3.07,3.07,0,0,1,.74,2.08c0,2.18-2,3.77-4.68,3.77a4.05,4.05,0,0,1-.5,0c-.84.4-1.31.69-1.31,1,0,.17.2.3.55.3l1.78,0c1.93,0,2.95.32,3.84,1.14a3.46,3.46,0,0,1,1.09,2.7,3.6,3.6,0,0,1-1,2.63c-1.11,1.19-3,1.64-5,1.64-1.81,0-3.67-.3-4.81-1.36a3,3,0,0,1-1-2.25,2.54,2.54,0,0,1,.3-1.29h3.07a1.78,1.78,0,0,0-.15.82c0,1,.84,1.56,2.38,1.56a3.94,3.94,0,0,0,2.11-.42,1.6,1.6,0,0,0,.79-1.29,1.31,1.31,0,0,0-.6-1.14,4.18,4.18,0,0,0-1.73-.37c-.17,0-.64,0-1.41,0a9.73,9.73,0,0,1-3-.4,1.58,1.58,0,0,1-.72-.62,2.31,2.31,0,0,1-.25-1,1.67,1.67,0,0,1,.4-1.17,4.06,4.06,0,0,1,1.93-1,3.29,3.29,0,0,1-2.73-3.52c0-2.6,2.11-4.29,5.35-4.29a8.12,8.12,0,0,1,2.28.32,5.88,5.88,0,0,0,1.56.27A4,4,0,0,0,117.7,27.64Zm-6.49,2.92a1.76,1.76,0,0,0-2,1.88c0,1.29.79,1.81,2,1.81s2-.64,2-1.81A1.78,1.78,0,0,0,111.21,30.56Z" transform="translate(-5 -5)"/><path class="cls-1" d="M127.32,23.77h3.74L136.49,41h-3.72L131.56,37H126.5L125.29,41h-3.62Zm0,10.31h3.37s-.57-1.81-.94-3.47c-.17-.79-.69-3-.69-3s-.5,2-.82,3.32S127.72,32.94,127.34,34.08Z" transform="translate(-5 -5)"/><path class="cls-1" d="M136.37,28.85l3-.79a4.08,4.08,0,0,1,.52,1.81,5.75,5.75,0,0,1,1.88-1.61,3,3,0,0,1,1.09-.2,2.57,2.57,0,0,1,1.24.27l-.92,2.92a1.87,1.87,0,0,0-1-.25,2.65,2.65,0,0,0-2,1.06v9h-3.32V32.57A11.52,11.52,0,0,0,136.37,28.85Z" transform="translate(-5 -5)"/><path class="cls-1" d="M152,28.33l-.84,2.21H149V37c0,1.61.3,2,1.44,2a4.36,4.36,0,0,0,1.19-.25l.42,2a7,7,0,0,1-2.7.57c-1.69,0-3-.74-3.42-1.86a4.65,4.65,0,0,1-.22-2v-7h-1.26V28.38h1.26a22.37,22.37,0,0,1,.12-3l3.37-.84a37.4,37.4,0,0,0-.2,3.82Z" transform="translate(-5 -5)"/><path class="cls-1" d="M154.73,22.8a2,2,0,0,1,2,2.06,2,2,0,1,1-4.09,0A2.07,2.07,0,0,1,154.73,22.8ZM153,28.58l3.32-.52V41H153Z" transform="translate(-5 -5)"/><path class="cls-1" d="M165,25.53a2.79,2.79,0,0,0-1.36-.42,1.3,1.3,0,0,0-1.39,1.44v1.78h3.22l-.84,2.33h-2.35V41H159V30.66h-1.14V28.33h1.21a12.62,12.62,0,0,1-.12-1.71c0-2.5,1.49-3.94,4.09-3.94a5.74,5.74,0,0,1,3,.79Z" transform="translate(-5 -5)"/><path class="cls-1" d="M165.42,29.87a9.47,9.47,0,0,1,2.06-1,8.59,8.59,0,0,1,3.47-.74c2.13,0,3.59.79,4.09,2.21a6.44,6.44,0,0,1,.22,2.28l-.07,4.26v.22a2.59,2.59,0,0,0,1.19,2.6l-1.76,2a3.55,3.55,0,0,1-1.78-1.54,5.44,5.44,0,0,1-.77.67,4.39,4.39,0,0,1-2.55.69c-2.83,0-4.36-1.44-4.36-4,0-3,2.06-4.36,6.1-4.36.25,0,.4,0,.74,0v-.52c0-1.41-.27-1.88-1.49-1.88a7,7,0,0,0-3.67,1.44Zm6.52,5.63h-.15c-2.31,0-3.1.42-3.1,1.93a1.51,1.51,0,0,0,1.46,1.66,2.4,2.4,0,0,0,1.73-.87Z" transform="translate(-5 -5)"/><path class="cls-1" d="M186.06,29.44l-1.61,2.18a3.2,3.2,0,0,0-2-1c-1.49,0-2.16,1.29-2.16,4.26,0,1.66.2,2.65.64,3.2a1.92,1.92,0,0,0,1.49.72,3.4,3.4,0,0,0,2.28-1l.2-.17,1.51,2a5.27,5.27,0,0,1-1.17.94,5.94,5.94,0,0,1-3.1.79c-3.49,0-5.53-2.43-5.53-6.54,0-2.92,1.11-4.86,2.6-5.87a6,6,0,0,1,3.15-.94,5.85,5.85,0,0,1,2.45.57A5.62,5.62,0,0,1,186.06,29.44Z" transform="translate(-5 -5)"/><path class="cls-1" d="M194.32,28.33l-.84,2.21h-2.13V37c0,1.61.3,2,1.44,2a4.36,4.36,0,0,0,1.19-.25l.42,2a7,7,0,0,1-2.7.57c-1.69,0-3-.74-3.42-1.86a4.65,4.65,0,0,1-.22-2v-7h-1.26V28.38H188a22.37,22.37,0,0,1,.12-3l3.37-.84a37.4,37.4,0,0,0-.2,3.82Z" transform="translate(-5 -5)"/><path class="cls-1" d="M200.29,28.11A5.32,5.32,0,0,1,204.6,30a6.6,6.6,0,0,1,1.46,4.63,6.89,6.89,0,0,1-1.59,4.91,5.18,5.18,0,0,1-4.19,1.76c-3.44,0-5.7-2.58-5.7-6.57S196.87,28.11,200.29,28.11Zm0,2.45a1.79,1.79,0,0,0-1.71,1.29,9.05,9.05,0,0,0-.35,2.83,9,9,0,0,0,.42,3.2,1.84,1.84,0,0,0,1.69,1c1.44,0,2.06-1.29,2.06-4.29a5.9,5.9,0,0,0-.67-3.39A1.78,1.78,0,0,0,200.34,30.56Z" transform="translate(-5 -5)"/><path class="cls-1" d="M207,28.85l3-.79a4.08,4.08,0,0,1,.52,1.81,5.75,5.75,0,0,1,1.88-1.61,3,3,0,0,1,1.09-.2,2.57,2.57,0,0,1,1.24.27l-.92,2.92a1.87,1.87,0,0,0-1-.25,2.65,2.65,0,0,0-2,1.06v9h-3.32V32.57A11.52,11.52,0,0,0,207,28.85Z" transform="translate(-5 -5)"/><path class="cls-1" d="M214.62,28.58l3.39-.4,2.21,7.39c.22.77.67,2.63.67,2.63s.25-1.41.4-2c.2-.79.25-.92.5-1.76l1.91-6h3.49l-4.61,12.86c-.87,2.45-1.51,3.52-2.43,4.19a6.7,6.7,0,0,1-3.07,1.16l-1.14-2.18a7.44,7.44,0,0,0,2.06-.84,3.84,3.84,0,0,0,.94-1,7.59,7.59,0,0,0,.72-1.49h-.84c-.2-.59-.3-.84-.52-1.49s-.64-2-.67-2.08Z" transform="translate(-5 -5)"/><path class="cls-1" d="M28,50.94a23,23,0,1,1,23-23A23,23,0,0,1,28,50.94ZM28,9.07A18.9,18.9,0,1,0,46.86,28,18.92,18.92,0,0,0,28,9.07Z" transform="translate(-5 -5)"/><rect class="cls-1" x="0.31" y="55.19" width="45.67" height="4.07"/></svg>