<?xml version="1.0" encoding="UTF-8" standalone="no"?>
<svg width="16px" height="17px" viewBox="0 0 16 17" version="1.1" xmlns="http://www.w3.org/2000/svg" xmlns:xlink="http://www.w3.org/1999/xlink">
    <!-- Generator: Sketch 47.1 (45422) - http://www.bohemiancoding.com/sketch -->
    <title>download-icon</title>
    <desc>Created with Sketch.</desc>
    <defs></defs>
    <g id="Page-1" stroke="none" stroke-width="1" fill="none" fill-rule="evenodd">
        <g id="download-icon" fill-rule="nonzero" fill="#6DB33F">
            <g id="noun_1092953_cc">
                <g id="Group">
                    <path d="M7.29411765,0.154545455 L7.29411765,9.86883117 L4.56470588,7.46233766 L3.6,8.43376623 L7.52941176,11.8779221 C7.67058824,11.9883117 7.83529412,12.0545455 8,12.0545455 C8.16470588,12.0545455 8.35294118,11.9883117 8.47058824,11.8779221 L12.3764706,8.45584416 L11.4117647,7.48441558 L8.70588235,9.86883117 L8.70588235,0.154545455 L7.29411765,0.154545455 Z" id="Shape"></path>
                    <path d="M15.8352941,4.63636364 C15.8352941,3.90779221 15.2,3.31168831 14.4235294,3.31168831 L11.2941176,3.31168831 L11.2941176,4.63636364 L14.4235294,4.63636364 L14.4235294,15.5207792 L1.57647059,15.5207792 L1.57647059,4.63636364 L4.70588235,4.63636364 L4.70588235,3.31168831 L1.57647059,3.31168831 C0.8,3.31168831 0.164705882,3.90779221 0.164705882,4.63636364 L0.164705882,15.5207792 C0.164705882,16.2493506 0.8,16.8454545 1.57647059,16.8454545 L14.4235294,16.8454545 C15.2,16.8454545 15.8352941,16.2493506 15.8352941,15.5207792 L15.8352941,4.63636364 Z" id="Shape"></path>
                </g>
            </g>
        </g>
    </g>
</svg>