<?xml version="1.0" encoding="UTF-8" standalone="no"?>
<svg width="17px" height="17px" viewBox="0 0 17 17" version="1.1" xmlns="http://www.w3.org/2000/svg" xmlns:xlink="http://www.w3.org/1999/xlink" style="background: #FFFFFF;">
    <!-- Generator: Sketch 47.1 (45422) - http://www.bohemiancoding.com/sketch -->
    <title>Github-icon</title>
    <desc>Created with Sketch.</desc>
    <defs></defs>
    <g id="Page-1" stroke="none" stroke-width="1" fill="none" fill-rule="evenodd">
        <g id="Github-icon" fill="#6DB33F">
            <path d="M8.49921729,0 C3.8060714,0 0,3.80554959 0,8.5002609 C0,12.2557169 2.4352804,15.4413579 5.81294699,16.5653335 C6.23822094,16.6436048 6.39319807,16.3811351 6.39319807,16.1557138 C6.39319807,15.9542957 6.38589275,15.419442 6.38171828,14.7103042 C4.01740385,15.2237638 3.5185549,13.5706744 3.5185549,13.5706744 C3.13189478,12.5886307 2.57460327,12.3272046 2.57460327,12.3272046 C1.80284846,11.800178 2.63304583,11.8106142 2.63304583,11.8106142 C3.48620277,11.8706222 3.9349581,12.6867307 3.9349581,12.6867307 C4.69314589,13.9855121 5.92461402,13.6103318 6.40885233,13.3927377 C6.48607999,12.8437951 6.70576138,12.4691366 6.94840235,12.2567605 C5.0610209,12.0422972 3.07658307,11.3128089 3.07658307,8.05568004 C3.07658307,7.12790448 3.40793149,6.36867307 3.95165597,5.77485497 C3.86399214,5.55986985 3.57230118,4.69523313 4.03514534,3.52533841 C4.03514534,3.52533841 4.7484576,3.29678627 6.37232573,4.39675865 C7.05015501,4.20786396 7.77755609,4.11393843 8.5002609,4.11028577 C9.22244391,4.11393843 9.94932318,4.20786396 10.6281961,4.39675865 C12.2510206,3.29678627 12.9632892,3.52533841 12.9632892,3.52533841 C13.427177,4.69523313 13.135486,5.55986985 13.048344,5.77485497 C13.5931121,6.36867307 13.9218515,7.12790448 13.9218515,8.05568004 C13.9218515,11.3211578 11.9342828,12.0396881 10.0411615,12.249977 C10.3458977,12.5124467 10.6177599,13.0311243 10.6177599,13.8242733 C10.6177599,14.9602505 10.6073237,15.877068 10.6073237,16.1557138 C10.6073237,16.3832223 10.7607354,16.6477792 11.1917493,16.5648117 C14.5668068,15.4382271 17,12.2546733 17,8.5002609 C17,3.80554959 13.1939286,0 8.49921729,0" id="Fill-3"></path>
        </g>
    </g>
</svg>