<?xml version="1.0" encoding="UTF-8" standalone="no"?>
<svg width="452px" height="72px" viewBox="0 0 452 72" version="1.1" xmlns="http://www.w3.org/2000/svg" xmlns:xlink="http://www.w3.org/1999/xlink">
    <!-- Generator: Sketch 47.1 (45422) - http://www.bohemiancoding.com/sketch -->
    <title>spring-tools-logo </title>
    <desc>Created with Sketch.</desc>
    <defs>
        <linearGradient x1="81.6859533%" y1="86.3703204%" x2="-6.88988245%" y2="-20.5640809%" id="linearGradient-1">
            <stop stop-color="#086C38" offset="24.91%"></stop>
            <stop stop-color="#277A3B" offset="36.62%"></stop>
            <stop stop-color="#519B41" offset="63.63%"></stop>
            <stop stop-color="#69B343" offset="85.72%"></stop>
            <stop stop-color="#73BF44" offset="100%"></stop>
        </linearGradient>
    </defs>
    <g id="Page-1" stroke="none" stroke-width="1" fill="none" fill-rule="evenodd">
        <g id="spring-tools-logo-">
            <g id="Spring-Tools-4-Logo">
                <g id="Group">
                    <path d="M438.174408,56.6357402 L438.174408,48.358209 L419.121281,48.358209 L419.121281,41.714401 L434.908158,16.8818072 L446.557783,16.8818072 L446.557783,40.9519968 L451.674909,40.9519968 L451.674909,48.358209 L446.557783,48.358209 L446.557783,56.6357402 L438.174408,56.6357402 Z M438.174408,24.3969342 L427.504657,40.9519968 L438.283283,40.9519968 L438.174408,24.3969342 Z" id="Shape" fill="#77BC1F" fill-rule="nonzero"></path>
                    <path d="M406.65278,4.24768052 L406.65278,69.5966115" id="Shape" stroke="#FFFFFF" stroke-width="0.75"></path>
                    <g transform="translate(86.011256, 15.248084)" id="Shape" fill-rule="nonzero" fill="#FFFFFF">
                        <path d="M0.435500031,35.3973376 L4.2461253,30.0605083 C6.96800049,33.0012102 11.2141258,35.5062525 16.7667512,35.5062525 C22.4282516,35.5062525 24.7146268,32.6744655 24.7146268,30.0605083 C24.7146268,21.782977 1.63312512,26.9019766 1.63312512,12.307382 C1.63312512,5.77248891 7.40350053,0.762404195 16.1135011,0.65348931 C22.3193766,0.65348931 27.3276269,2.61395724 31.0293772,6.20814845 L27.0010019,11.4360629 C23.9525017,8.38644615 19.7063764,6.97055264 15.5691261,6.97055264 C11.4318758,6.97055264 8.81887563,8.93102057 8.81887563,11.8717225 C8.81887563,19.2779347 31.9003773,14.7035095 31.9003773,29.5159338 C31.9003773,36.1597418 27.2187519,41.714401 16.5490012,41.8233159 C9.25437566,41.714401 3.91950028,39.1004437 0.435500031,35.3973376 Z"></path>
                        <path d="M41.916878,36.922146 L41.916878,51.8434853 L35.7110025,51.8434853 L35.7110025,12.1984671 L41.916878,12.1984671 L41.916878,16.119403 C44.0943781,13.287616 47.3606284,11.4360629 51.1712536,11.4360629 C58.5747542,11.4360629 63.9096295,16.9907221 63.9096295,26.4663171 C63.9096295,35.9419121 58.5747542,41.6054861 51.1712536,41.6054861 C47.5783784,41.714401 44.3121281,40.0806777 41.916878,36.922146 Z M57.3771291,26.5752319 C57.3771291,21.0205728 54.2197538,17.099637 49.3203785,17.099637 C46.3807533,17.099637 43.3322531,18.8422751 41.916878,21.0205728 L41.916878,32.3477209 C43.3322531,34.4171037 46.3807533,36.1597418 49.3203785,36.1597418 C54.2197538,36.1597418 57.3771291,32.1298911 57.3771291,26.5752319 Z"></path>
                        <path d="M67.7202548,40.9519968 L67.7202548,12.1984671 L73.9261302,12.1984671 L73.9261302,16.4461476 C76.1036304,13.7232755 79.4787556,11.5449778 83.2893809,11.5449778 L83.2893809,17.7531263 C82.7450059,17.6442114 82.0917558,17.5352965 81.3296308,17.5352965 C78.7166306,17.5352965 75.2326303,19.2779347 73.9261302,21.3473175 L73.9261302,40.9519968 L67.7202548,40.9519968 Z"></path>
                        <path d="M87.5355062,4.79225494 C87.5355062,2.61395724 89.2775063,0.980233965 91.3461315,0.87131908 C93.5236316,0.87131908 95.1567568,2.61395724 95.1567568,4.68334006 C95.1567568,6.86163776 93.4147566,8.49536103 91.3461315,8.60427592 C89.2775063,8.7131908 87.5355062,6.97055264 87.5355062,4.79225494 Z M88.2976313,40.9519968 L88.2976313,12.1984671 L94.5035067,12.1984671 L94.5035067,40.9519968 L88.2976313,40.9519968 Z"></path>
                        <path d="M120.851259,40.9519968 L120.851259,22.9810407 C120.851259,18.5155305 118.564883,16.9907221 115.080883,16.9907221 C111.923508,16.9907221 109.092758,18.8422751 107.677383,20.9116579 L107.677383,40.9519968 L101.471507,40.9519968 L101.471507,12.1984671 L107.677383,12.1984671 L107.677383,16.119403 C109.528258,13.8321904 113.230008,11.4360629 117.802758,11.4360629 C124.008634,11.4360629 127.057134,14.8124244 127.057134,20.6938282 L127.057134,40.9519968 L120.851259,40.9519968 Z"></path>
                        <path d="M133.589634,48.2492941 L136.52926,43.6748689 C138.815635,46.397741 141.864135,47.377975 145.67476,47.377975 C149.812011,47.377975 154.167011,45.5264219 154.167011,39.5361033 L154.167011,36.0508269 C151.989511,38.882614 148.723261,40.8430819 144.912635,40.8430819 C137.61801,40.8430819 132.174259,35.5062525 132.174259,26.1395724 C132.174259,16.8818072 137.509135,11.4360629 144.912635,11.4360629 C148.505511,11.4360629 151.771761,13.0697862 154.167011,16.119403 L154.167011,12.0895522 L160.372886,12.0895522 L160.372886,39.3182735 C160.372886,49.6651876 152.751636,52.4969746 145.67476,52.4969746 C140.775385,52.6058895 137.073635,51.5167406 133.589634,48.2492941 Z M154.167011,31.5853167 L154.167011,20.9116579 C152.751636,18.7333602 149.703136,17.099637 146.76351,17.099637 C141.864135,17.099637 138.70676,20.802743 138.70676,26.3574022 C138.70676,31.9120613 141.864135,35.6151674 146.76351,35.6151674 C149.703136,35.3973376 152.751636,33.7636144 154.167011,31.5853167 Z"></path>
                        <polygon points="185.362014 40.9519968 185.362014 7.40621218 173.385763 7.40621218 173.385763 1.30697862 204.306265 1.30697862 204.306265 7.40621218 192.330014 7.40621218 192.330014 40.9519968"></polygon>
                        <path d="M199.62464,26.4663171 C199.62464,18.2977007 205.28614,11.4360629 214.322766,11.4360629 C223.577141,11.4360629 229.129767,18.2977007 229.129767,26.4663171 C229.129767,34.7438483 223.577141,41.6054861 214.322766,41.6054861 C205.28614,41.6054861 199.62464,34.7438483 199.62464,26.4663171 Z M222.706141,26.4663171 C222.706141,21.4562324 219.766516,16.9907221 214.431641,16.9907221 C209.096765,16.9907221 206.15714,21.4562324 206.15714,26.4663171 C206.15714,31.5853167 209.096765,36.0508269 214.431641,36.0508269 C219.766516,36.0508269 222.706141,31.5853167 222.706141,26.4663171 Z"></path>
                        <path d="M231.307267,26.4663171 C231.307267,18.2977007 236.968767,11.4360629 246.005393,11.4360629 C255.259769,11.4360629 260.812394,18.2977007 260.812394,26.4663171 C260.812394,34.7438483 255.259769,41.6054861 246.005393,41.6054861 C236.968767,41.6054861 231.307267,34.7438483 231.307267,26.4663171 Z M254.388769,26.4663171 C254.388769,21.4562324 251.449143,16.9907221 246.114268,16.9907221 C240.779393,16.9907221 237.839767,21.4562324 237.839767,26.4663171 C237.839767,31.5853167 240.779393,36.0508269 246.114268,36.0508269 C251.449143,36.0508269 254.388769,31.5853167 254.388769,26.4663171 Z"></path>
                        <polygon points="264.731894 40.8430819 264.731894 1.19806374 270.93777 1.19806374 270.93777 40.8430819"></polygon>
                    </g>
                    <g id="Shape" fill-rule="nonzero">
                        <path d="M59.2280042,19.6046793 L63.4741295,14.0500202 C63.6918795,13.7232755 63.6918795,13.287616 63.3652545,13.0697862 L59.4457542,9.14885034 C59.2280042,8.93102057 58.7925042,8.82210569 58.4658792,9.03993546 L52.9132538,13.3965309 C52.2600037,12.9608713 51.6067537,12.5252118 50.9535036,12.0895522 L52.8043787,5.33682937 C52.9132538,5.01008471 52.6955037,4.57442517 52.3688787,4.46551029 L47.1428783,2.28721259 C46.8162533,2.1782977 46.3807533,2.28721259 46.1630033,2.61395724 L42.896753,8.7131908 C42.134628,8.49536103 41.3725029,8.38644615 40.6103779,8.27753126 L39.7393778,1.30697862 C39.7393778,0.980233965 39.4127528,0.65348931 38.9772528,0.65348931 L33.4246274,0.65348931 C33.0980024,0.65348931 32.7713773,0.980233965 32.6625023,1.30697862 L31.7915023,8.27753126 C31.0293772,8.38644615 30.2672521,8.60427592 29.5051271,8.7131908 L26.1300019,2.61395724 C25.9122518,2.28721259 25.4767518,2.1782977 25.1501268,2.28721259 L19.9241264,4.46551029 C19.5975014,4.57442517 19.3797514,5.01008471 19.4886264,5.33682937 L21.3395015,12.0895522 C20.6862515,12.5252118 20.0330014,12.9608713 19.3797514,13.3965309 L13.827126,9.14885034 C13.500501,8.93102057 13.0650009,8.93102057 12.8472509,9.25776523 L8.92775063,13.1787011 C8.71000062,13.3965309 8.60112561,13.8321904 8.81887563,14.1589351 L13.1738759,19.7135942 C12.7383759,20.3670835 12.3028759,21.0205728 11.8673758,21.6740621 L5.11712536,19.8225091 C4.79050034,19.7135942 4.35500031,19.931424 4.2461253,20.2581686 L2.06862515,25.4860831 C1.95975014,25.8128278 2.06862515,26.2484873 2.39525017,26.4663171 L8.4922506,29.9515934 C8.27450059,30.7139976 8.16562558,31.4764018 8.05675057,32.238806 L1.08875008,33.1101251 C0.762125054,33.1101251 0.435500031,33.4368697 0.435500031,33.8725292 L0.435500031,39.4271884 C0.435500031,39.753933 0.762125054,40.0806777 1.08875008,40.1895926 L8.05675057,41.0609117 C8.16562558,41.8233159 8.3833756,42.58572 8.4922506,43.3481242 L2.39525017,46.8334006 C2.06862515,47.0512303 1.95975014,47.4868899 2.06862515,47.8136345 L4.2461253,53.041549 C4.35500031,53.3682937 4.79050034,53.5861234 5.11712536,53.4772086 L11.8673758,51.6256555 C12.3028759,52.2791448 12.7383759,52.9326341 13.1738759,53.5861234 L8.92775063,59.1407826 C8.71000062,59.4675272 8.71000062,59.9031868 9.03662564,60.1210165 L12.9561259,64.0419524 C13.1738759,64.2597822 13.718251,64.4776119 14.044876,64.4776119 L27.1098769,63.8241226 C29.9406271,64.8043566 32.9891273,65.2400161 36.1465026,65.2400161 C51.8245037,65.2400161 64.5628796,52.4969746 64.5628796,36.8132311 C64.6717546,30.0605083 62.6031294,24.2880194 59.2280042,19.6046793 Z" fill="url(#linearGradient-1)"></path>
                        <path d="M63.5830045,13.287616 C62.8208795,14.9213392 60.8611293,17.6442114 59.0102542,19.4957644 C55.5262539,23.1988705 50.9535036,25.8128278 46.3807533,27.3376361 C39.5216278,29.6248487 33.0980024,29.0802743 27.1098769,31.5853167 C16.3312512,36.2686567 15.3513761,49.229528 19.7063764,55.5465914 C19.7063764,55.5465914 21.9927516,55.1109318 21.9927516,55.1109318 C21.9927516,55.1109318 32.0092523,53.3682937 38.3240027,51.0810811 C47.4695034,47.7047196 57.4860041,39.3182735 60.8611293,29.6248487 C59.1191292,39.753933 50.8446286,49.5562727 41.699128,54.2396127 C37.0175026,56.6357402 27.1098769,60.7745058 12.3028759,62.6260589 C18.6176263,68.5074627 27.1098769,71.992739 36.4731276,71.992739 C56.179504,71.992739 72.1841301,55.9822509 72.1841301,36.2686567 C72.0752551,27.5554659 68.9178799,19.4957644 63.5830045,13.287616 Z" fill="#77BD43"></path>
                    </g>
                </g>
                <path d="M362.702703,53.1735155 L365.810216,48.0735457 C367.846172,50.0267256 371.918085,51.8713956 375.347065,51.8713956 C378.454578,51.8713956 379.954757,50.5692756 379.954757,48.8331156 C379.954757,44.1671858 363.667103,47.9650357 363.667103,37.005526 C363.667103,32.3395961 367.739017,28.2162162 374.918443,28.2162162 C379.63329,28.2162162 383.276581,29.8438662 386.062627,32.0140661 L383.169425,37.005526 C381.562091,35.269366 378.347422,33.7502261 375.025598,33.7502261 C372.453864,33.7502261 370.739374,34.943836 370.739374,36.571486 C370.739374,40.6948659 387.027027,37.222546 387.027027,48.5075857 C387.027027,53.6075555 382.740802,57.4054054 375.132754,57.4054054 C370.203596,57.4054054 365.595904,55.8862654 362.702703,53.1735155 Z" id="Shape" fill="#FFFFFF" fill-rule="nonzero"></path>
            </g>
        </g>
    </g>
</svg>