<?xml version="1.0" encoding="UTF-8" standalone="no"?>
<svg width="37px" height="37px" viewBox="0 0 37 37" version="1.1" xmlns="http://www.w3.org/2000/svg" xmlns:xlink="http://www.w3.org/1999/xlink">
    <!-- Generator: Sketch 47.1 (45422) - http://www.bohemiancoding.com/sketch -->
    <title>ST-icon</title>
    <desc>Created with Sketch.</desc>
    <defs>
        <linearGradient x1="81.6859533%" y1="86.3703204%" x2="-6.88988245%" y2="-20.5640809%" id="linearGradient-1">
            <stop stop-color="#086C38" offset="24.91%"></stop>
            <stop stop-color="#277A3B" offset="36.62%"></stop>
            <stop stop-color="#519B41" offset="63.63%"></stop>
            <stop stop-color="#69B343" offset="85.72%"></stop>
            <stop stop-color="#73BF44" offset="100%"></stop>
        </linearGradient>
    </defs>
    <g id="Page-1" stroke="none" stroke-width="1" fill="none" fill-rule="evenodd">
        <g id="ST-icon" fill-rule="nonzero">
            <g id="Group">
                <path d="M29.6140021,9.80233965 L31.7370648,7.02501008 C31.8459398,6.86163776 31.8459398,6.64380799 31.6826272,6.5348931 L29.7228771,4.57442517 C29.6140021,4.46551029 29.3962521,4.41105284 29.2329396,4.51996773 L26.4566269,6.69826543 C26.1300019,6.48043566 25.8033768,6.26260589 25.4767518,6.04477612 L26.4021894,2.66841468 C26.4566269,2.50504236 26.3477519,2.28721259 26.1844394,2.23275514 L23.5714392,1.14360629 C23.4081267,1.08914885 23.1903766,1.14360629 23.0815016,1.30697862 L21.4483765,4.3565954 C21.067314,4.24768052 20.6862515,4.19322307 20.3051889,4.13876563 L19.8696889,0.65348931 C19.8696889,0.490116983 19.7063764,0.326744655 19.4886264,0.326744655 L16.7123137,0.326744655 C16.5490012,0.326744655 16.3856887,0.490116983 16.3312512,0.65348931 L15.8957511,4.13876563 C15.5146886,4.19322307 15.1336261,4.30213796 14.7525635,4.3565954 L13.0650009,1.30697862 C12.9561259,1.14360629 12.7383759,1.08914885 12.5750634,1.14360629 L9.96206321,2.23275514 C9.7987507,2.28721259 9.68987569,2.50504236 9.74431319,2.66841468 L10.6697508,6.04477612 C10.3431257,6.26260589 10.0165007,6.48043566 9.68987569,6.69826543 L6.91356299,4.57442517 C6.75025048,4.46551029 6.53250046,4.46551029 6.42362546,4.62888261 L4.46387532,6.58935054 C4.35500031,6.69826543 4.30056281,6.9160952 4.40943781,7.07946753 L6.58693797,9.8567971 C6.36918795,10.1835418 6.15143794,10.5102864 5.93368792,10.8370311 L2.55856268,9.91125454 C2.39525017,9.8567971 2.17750015,9.96571198 2.12306265,10.1290843 L1.03431257,12.7430415 C0.97987507,12.9064139 1.03431257,13.1242436 1.19762509,13.2331585 L4.2461253,14.9757967 C4.13725029,15.3569988 4.08281279,15.7382009 4.02837529,16.119403 L0.544375039,16.5550625 C0.381062527,16.5550625 0.217750015,16.7184349 0.217750015,16.9362646 L0.217750015,19.7135942 C0.217750015,19.8769665 0.381062527,20.0403388 0.544375039,20.0947963 L4.02837529,20.5304558 C4.08281279,20.9116579 4.1916878,21.29286 4.2461253,21.6740621 L1.19762509,23.4167003 C1.03431257,23.5256152 0.97987507,23.7434449 1.03431257,23.9068173 L2.12306265,26.5207745 C2.17750015,26.6841468 2.39525017,26.7930617 2.55856268,26.7386043 L5.93368792,25.8128278 C6.15143794,26.1395724 6.36918795,26.4663171 6.58693797,26.7930617 L4.46387532,29.5703913 C4.35500031,29.7337636 4.35500031,29.9515934 4.51831282,30.0605083 L6.47806296,32.0209762 C6.58693797,32.1298911 6.85912549,32.238806 7.022438,32.238806 L13.5549385,31.9120613 C14.9703136,32.4021783 16.4945637,32.6200081 18.0732513,32.6200081 C25.9122518,32.6200081 32.2814398,26.2484873 32.2814398,18.4066156 C32.3358773,15.0302541 31.3015647,12.1440097 29.6140021,9.80233965 Z" id="Shape" fill="url(#linearGradient-1)"></path>
                <path d="M31.7915023,6.64380799 C31.4104397,7.46066962 30.4305647,8.82210569 29.5051271,9.74788221 C27.763127,11.5994353 25.4767518,12.9064139 23.1903766,13.6688181 C19.7608139,14.8124244 16.5490012,14.5401372 13.5549385,15.7926583 C8.16562558,18.1343284 7.67568805,24.614764 9.8531882,27.7732957 C9.8531882,27.7732957 10.9963758,27.5554659 10.9963758,27.5554659 C10.9963758,27.5554659 16.0046261,26.6841468 19.1620014,25.5405405 C23.7347517,23.8523598 28.743002,19.6591367 30.4305647,14.8124244 C29.5595646,19.8769665 25.4223143,24.7781363 20.849564,27.1198064 C18.5087513,28.3178701 13.5549385,30.3872529 6.15143794,31.3130294 C9.30881316,34.2537313 13.5549385,35.9963695 18.2365638,35.9963695 C28.089752,35.9963695 36.0920651,27.9911255 36.0920651,18.1343284 C36.0376276,13.777733 34.4589399,9.74788221 31.7915023,6.64380799 Z" id="Shape" fill="#77BD43"></path>
            </g>
        </g>
    </g>
</svg>