<?xml version="1.0" encoding="UTF-8" standalone="no"?>
<svg width="15px" height="17px" viewBox="0 0 15 17" version="1.1" xmlns="http://www.w3.org/2000/svg" xmlns:xlink="http://www.w3.org/1999/xlink">
    <!-- Generator: Sketch 47.1 (45422) - http://www.bohemiancoding.com/sketch -->
    <title>Stack-Overflow-icon</title>
    <desc>Created with Sketch.</desc>
    <defs></defs>
    <g id="Page-1" stroke="none" stroke-width="1" fill="none" fill-rule="evenodd">
        <g id="Stack-Overflow-icon" fill-rule="nonzero" fill="#6DB33F">
            <g id="Shape">
                <polygon points="12.0545455 15.4159091 12.0545455 10.9340909 13.5420455 10.9340909 13.5420455 16.9034091 0.115909091 16.9034091 0.115909091 10.9340909 1.60340909 10.9340909 1.60340909 15.4159091"></polygon>
                <path d="M3.24545455,10.5090909 L10.5477273,12.0352273 L10.8568182,10.5670455 L3.55454545,9.04090909 L3.24545455,10.5090909 Z M4.21136364,7.03181818 L10.9727273,10.1806818 L11.5909091,8.82840909 L4.82954545,5.66022727 L4.21136364,7.03181818 Z M6.08522727,3.70909091 L11.8227273,8.48068182 L12.7693182,7.34090909 L7.03181818,2.56931818 L6.08522727,3.70909091 Z M9.79431818,0.173863636 L8.59659091,1.0625 L13.0397727,7.05113636 L14.2375,6.1625 L9.79431818,0.173863636 Z M3.09090909,13.9090909 L10.5477273,13.9090909 L10.5477273,12.4215909 L3.09090909,12.4215909 L3.09090909,13.9090909 Z"></path>
            </g>
        </g>
    </g>
</svg>