<svg xmlns="http://www.w3.org/2000/svg" xmlns:xlink="http://www.w3.org/1999/xlink" width="1796.43" height="473.46" viewBox="0 0 1796.43 473.46"><defs><style>.a,.b,.i{fill:none;}.b,.i{stroke-linecap:round;stroke-miterlimit:10;stroke-width:6px;}.b{stroke:url(#a);}.c{fill:#67aa3c;}.d{fill:#77bc1f;}.e{fill:#4f9c40;}.f{opacity:0.7;}.g{clip-path:url(#b);}.h{fill:#8ec74a;}.i{stroke:#ccc;}.j{clip-path:url(#c);}.k{fill:#fff;}.l{clip-path:url(#d);}.m{clip-path:url(#e);}.n{clip-path:url(#f);}.o{clip-path:url(#g);}</style><linearGradient id="a" x1="1480.95" y1="237.18" x2="1796.43" y2="237.18" gradientTransform="matrix(1, 0, 0, -1, 0, 476)" gradientUnits="userSpaceOnUse"><stop offset="0.82" stop-color="#d0d0d0"/><stop offset="1" stop-color="#ccc" stop-opacity="0"/></linearGradient><clipPath id="b"><polygon class="a" points="1125.05 238.64 1207.47 75.93 1311.22 230 1228.79 392.71 1125.05 238.64"/></clipPath><clipPath id="c"><polygon class="a" points="1336.43 136.8 1295.01 23.95 1472.51 20.85 1513.93 133.7 1336.43 136.8"/></clipPath><clipPath id="d"><polygon class="a" points="658.56 238.64 740.99 75.93 844.73 230 762.3 392.71 658.56 238.64"/></clipPath><clipPath id="e"><polygon class="a" points="874.86 141.59 835.5 31.29 1010.76 28.23 1050.12 138.53 874.86 141.59"/></clipPath><clipPath id="f"><polygon class="a" points="195.33 238.64 277.76 75.93 381.5 230 299.07 392.71 195.33 238.64"/></clipPath><clipPath id="g"><polygon class="a" points="433.12 143.83 380.77 32.95 519.28 36.42 571.63 147.3 433.12 143.83"/></clipPath></defs><title>Asset 2</title><line class="b" x1="1483.95" y1="238.82" x2="1793.43" y2="238.82"/><polyline class="c" points="1220.28 0.02 1083.67 234.42 1225.45 472.33 1493 473.46 1629.28 235.51 1493.49 0 1220.3 0"/><polyline class="d" points="1220.28 0.02 1356.07 235.53 1629.28 235.51 1493.49 0 1220.3 0"/><polyline class="e" points="1220.28 0.02 1083.67 234.42 1225.45 472.33 1356.07 235.53 1220.3 0"/><line class="a" x1="1356.07" y1="235.53" x2="1220.28" y2="0.02"/><g class="f"><g class="g"><path class="h" d="M1169.35,288.09a83.45,83.45,0,0,0,12.91,15.08A120,120,0,0,0,1193.62,325q1.54,2.29,3.14,4.36c-7.14-2.72-13.59-8.19-19-16.26l-.37-.56c-5.59-8.49-9.56-19.1-12-30.88q1.87,3.32,4,6.42m14,12.9a181,181,0,0,1-7.57-23.88,161.08,161.08,0,0,0,10.39,18.45l.87,1.31a127.18,127.18,0,0,0,11,14.16,65.94,65.94,0,0,1-14.71-10m11.33,21.93a111.21,111.21,0,0,1-9.19-16.95,64,64,0,0,0,17.59,10.22,71.71,71.71,0,0,0,17.3,12.59,35.1,35.1,0,0,1-12.06,2.57,30.28,30.28,0,0,1-7.75-.82,72.87,72.87,0,0,1-5.85-7.62m-24.34-37a91.45,91.45,0,0,1-6.14-10.61,157.38,157.38,0,0,1-1.27-33.89,188.37,188.37,0,0,0,9.27,27.81,199,199,0,0,0,8,28.77A82.81,82.81,0,0,1,1170.4,286m19.82-12.6a9.76,9.76,0,0,1-1.48-4.68c-.25-3.71,1.31-6.82,3.49-6.94a3.54,3.54,0,0,1,3,1.85,9.66,9.66,0,0,1,1.47,4.68c.27,3.73-1.3,6.82-3.47,6.94a3.51,3.51,0,0,1-3-1.84m13.86,60.81a31.82,31.82,0,0,0,4.45.2,37.47,37.47,0,0,0,15.37-3.93,39.13,39.13,0,0,0,15.79,3.17,30.82,30.82,0,0,0,4.41-.43c-5.73,6.41-12.29,10.08-19.42,10.25s-14.11-3.17-20.59-9.26M1161.84,270a104,104,0,0,1-7.84-34,100.53,100.53,0,0,1,3.75-34.31,170.9,170.9,0,0,0,3.94,34.12,168.75,168.75,0,0,0,.14,34.22m46.85,48a52.21,52.21,0,0,0,14.55,1.73,50.92,50.92,0,0,0,14.31-2.43,56,56,0,0,1-13.85,10.06,61.53,61.53,0,0,1-15-9.36m-38.12-58.1a184.72,184.72,0,0,1-7.11-24.21,176.82,176.82,0,0,1,4.2-24.49c-.31,7.87-.25,16,.25,24.39a243.92,243.92,0,0,0,2.67,24.31m56.59,68.76a64.72,64.72,0,0,0,15.75-13.4,58.26,58.26,0,0,0,16.32-11c-3.22,10.12-7.3,18.7-12.09,25.23a29.78,29.78,0,0,1-7.64,1.19,36.62,36.62,0,0,1-12.33-2M1162.32,230a158.14,158.14,0,0,1-2.79-33.85,78.8,78.8,0,0,1,13.25-23.39,191.36,191.36,0,0,0-4.55,29.07,178.37,178.37,0,0,0-5.91,28.18m85,79.89a116.92,116.92,0,0,0,10-16,149.76,149.76,0,0,0,8.16-18.85,171.72,171.72,0,0,1-4.69,24.11,59.76,59.76,0,0,1-13.47,10.74M1170.9,193.78a170.27,170.27,0,0,1,4.69-24.17,59.73,59.73,0,0,1,13.46-10.74,116.05,116.05,0,0,0-10,16,147.5,147.5,0,0,0-8.16,18.9M1250.78,328a102.7,102.7,0,0,0,11.33-26.83A77.9,77.9,0,0,0,1276.37,279c-1,11.87-3.7,22.64-8.25,31.38s-10.38,14.59-17.33,17.72M1159.9,189.74c1-11.87,3.7-22.63,8.25-31.38s10.36-14.64,17.36-17.77a102.91,102.91,0,0,0-11.34,26.83,78,78,0,0,0-14.25,22.26M1263.51,296a189.9,189.9,0,0,0,4.54-29,177.12,177.12,0,0,0,5.95-28.16,158,158,0,0,1,2.76,33.75A78.65,78.65,0,0,1,1263.51,296m-86.46-131.47c3.21-10.12,7.3-18.71,12.09-25.23a29.23,29.23,0,0,1,7.63-1.2,36.63,36.63,0,0,1,12.33,2,64.77,64.77,0,0,0-15.75,13.41A58.08,58.08,0,0,0,1177,164.51m18.38,93.76c-6.62-9.83-6.32-36.07,7.25-43.85,6.44-3.69,14.43-.66,21.45-2.9,7.47-2.37,16-11.19,19.27-23.37,4.41,20.29,9.86,51.89,1.69,70.47-10.06,22.85-36.48,3.7-45.27,14.08a14.47,14.47,0,0,1,5.26-4.42c8.13-3.47,11.81-4.66,16.64-8.52,9.08-7.24,17.92-23.87,19.4-41.84-3.15,17.13-13.54,31.21-23.17,36.46-6.56,3.59-20.28,6.49-20.35,6.49l-.4-.51a11,11,0,0,1-1.78-2.08m73.17-.61a245.11,245.11,0,0,0-.24-24.53c-.5-8.36-1.41-16.5-2.67-24.33a183.84,183.84,0,0,1,7.13,24.28,174,174,0,0,1-4.22,24.57M1198.7,151.41a55.71,55.71,0,0,1,13.84-10.07,61.44,61.44,0,0,1,15,9.36A52.23,52.23,0,0,0,1213,149a50.69,50.69,0,0,0-14.3,2.44m39.44,6.22a65.77,65.77,0,0,1,14.7,10.05,180.22,180.22,0,0,1,7.57,23.87A160,160,0,0,0,1250,173.1l-.88-1.33a127,127,0,0,0-11-14.15M1278.51,267a170.85,170.85,0,0,0-3.92-34c.42-4.41.7-8.84.79-13.28a161.74,161.74,0,0,0-.89-20.9,103.94,103.94,0,0,1,7.78,33.87,100.53,100.53,0,0,1-3.75,34.31M1192.19,135.5c5.73-6.4,12.29-10.08,19.42-10.25s14.11,3.17,20.59,9.27a32,32,0,0,0-4.45-.21,37.28,37.28,0,0,0-15.36,3.95,38.91,38.91,0,0,0-15.79-3.18,31.78,31.78,0,0,0-4.41.42m81.11,91.79a187.8,187.8,0,0,0-9.28-27.87,198.34,198.34,0,0,0-8-28.77,82.64,82.64,0,0,1,9.86,12.07,91.67,91.67,0,0,1,6.17,10.67,152.24,152.24,0,0,1,1.61,26c-.05,2.63-.19,5.26-.36,7.88m-57.43-87.45a35.24,35.24,0,0,1,12.06-2.56,30.18,30.18,0,0,1,7.75.82,72.66,72.66,0,0,1,5.86,7.63,110.87,110.87,0,0,1,9.21,16.94,63.82,63.82,0,0,0-17.58-10.23,72,72,0,0,0-17.3-12.6m23.62-.57c7.14,2.72,13.58,8.18,19,16.22l.4.59c5.52,8.38,9.57,18.94,12,31q-1.89-3.38-4-6.52a83.4,83.4,0,0,0-12.9-15.07,119.9,119.9,0,0,0-11.34-21.81q-1.55-2.31-3.17-4.39m20.11,14.08c-6.57-9.75-14.55-15.88-23.42-18.09-7.64-8.47-16.08-13.19-24.74-13s-16.53,5.32-23.13,14.13c-8.76,2.7-16.1,9.42-21.52,19.82-5.52,10.59-8.44,24-9,38.73a103.59,103.59,0,0,0-5.58,41,107.8,107.8,0,0,0,10.45,40.57c2.31,14.67,6.83,27.89,13.59,38.18l.38.58c6.57,9.76,14.56,15.9,23.44,18.13,7.63,8.47,16.08,13.18,24.74,13s16.52-5.33,23.13-14.15c8.76-2.7,16.1-9.41,21.52-19.81,5.52-10.59,8.45-24,9-38.74a103.42,103.42,0,0,0,5.57-41,107.75,107.75,0,0,0-10.39-40.46c-2.35-15-7-28.16-13.65-38.29l-.4-.6"/></g></g><polygon class="a" points="1219.83 469.11 1084.2 233.63 1220.73 2.49 1354.29 235.53 1219.83 469.11"/><line class="i" x1="1215.79" y1="239.43" x2="1078.56" y2="239.43"/><g class="j"><path class="k" d="M1387.4,22.34c-22.82.4-39.77,13.89-41.41,32.33-21.48,2.19-32.48,19.66-24.48,41.38,8.41,22.92,34.29,40.41,58.13,40l96.69-1.69c20.79-.36,31.82-16.5,24.49-36.47-5.95-16.2-22.11-29.81-39.07-34.16q1.22,2.44,2.32,4.87c14.31,4.4,27.24,16.12,32.1,29.4,3.1,8.45,2.57,16.4-1.48,22.41s-11.16,9.39-20,9.54L1378,131.64c-21.62.38-44.41-15.27-51.89-35.63-7-19,2.44-34.89,21.91-36.89l2.66-.27.22-2.44c1.51-17.06,17.2-29.24,38.15-29.61,15.12-.26,31.83,5.71,45.65,15.42a28.32,28.32,0,0,0,2-3.35c-15.15-10.58-33.24-16.79-49.26-16.51"/><path class="k" d="M1384.9,122.65c-.83,0-1.12,0-1.36-.22s-.9-.77-2.26-4.5-1.22-4.32-1.05-4.54.36-.24,1.19-.26h2a2.4,2.4,0,0,1,1.39.21c.33.21.89.78,2.26,4.52s1.23,4.31,1.05,4.52-.36.25-1.22.26h-2m-1.66-12.34-3.66.06c-1.73,0-2.47.24-2.92.85-.65.82-.81,2.4.8,6.78s2.92,5.92,4.16,6.72a5.61,5.61,0,0,0,3.5.74l3.66-.06c1.73,0,2.47-.26,2.94-.86.62-.83.8-2.42-.8-6.78s-2.95-5.94-4.16-6.73a5.61,5.61,0,0,0-3.52-.74"/><polyline class="k" points="1399.7 108.33 1397.13 108.37 1393.9 109.77 1395.54 112.03 1397.5 111.26 1401.42 121.92 1404.67 121.87 1399.7 108.33"/><path class="k" d="M1413.93,114.25c-.62,0-.84,0-1-.16s-.67-.58-1.7-3.39-.92-3.25-.8-3.42.27-.18.9-.2h1.54a1.86,1.86,0,0,1,1,.16c.24.16.68.59,1.71,3.4s.92,3.25.79,3.4-.27.18-.91.2h-1.54m-1.25-9.29h-2.75c-1.3,0-1.85.18-2.19.64-.49.61-.61,1.81.6,5.1s2.2,4.46,3.13,5.06a4.26,4.26,0,0,0,2.63.56h2.75c1.3,0,1.87-.2,2.22-.64.47-.63.6-1.82-.6-5.11s-2.21-4.47-3.13-5.06a4.23,4.23,0,0,0-2.66-.56"/><polyline class="k" points="1424.31 100.32 1422.37 100.36 1419.93 101.42 1421.17 103.13 1422.65 102.55 1425.62 110.62 1428.08 110.58 1424.31 100.32"/><polyline class="k" points="1432.04 95.18 1430.25 95.21 1428.01 96.18 1429.15 97.75 1430.52 97.22 1433.24 104.64 1435.5 104.6 1432.04 95.18"/><path class="k" d="M1438.8,95.15c-.41,0-.55,0-.67-.1s-.44-.37-1.11-2.2-.6-2.12-.51-2.22.17-.12.58-.13h1a1.19,1.19,0,0,1,.68.11c.16.1.45.39,1.11,2.21s.6,2.12.51,2.22-.18.11-.6.12h-1m-.81-6h-1.79c-.85,0-1.21.12-1.43.42s-.4,1.18.39,3.32,1.43,2.9,2,3.29a2.79,2.79,0,0,0,1.72.37h1.79c.84,0,1.21-.13,1.44-.42s.4-1.19-.39-3.32-1.45-2.91-2-3.29a2.74,2.74,0,0,0-1.73-.37"/><path class="k" d="M1443,86.84c-.34,0-.46,0-.55-.09s-.36-.31-.92-1.83-.5-1.75-.43-1.84.14-.1.48-.11h.83a1,1,0,0,1,.56.09c.13.09.37.32.92,1.83s.5,1.75.43,1.84-.15.1-.49.11H1443m-.67-5h-1.48c-.7,0-1,.1-1.18.35s-.34,1,.32,2.75,1.19,2.4,1.69,2.72a2.28,2.28,0,0,0,1.42.3h1.48c.7,0,1-.11,1.19-.35s.32-1-.33-2.75-1.2-2.41-1.68-2.72a2.27,2.27,0,0,0-1.43-.3"/><path class="k" d="M1445.46,78.72c-.25,0-.33,0-.41-.07s-.26-.23-.66-1.32-.36-1.28-.31-1.34.1-.08.35-.08h.6a.67.67,0,0,1,.41.07c.09.06.26.23.67,1.33s.36,1.27.31,1.33-.1.08-.36.08h-.6m-.49-3.65h-1.08c-.51,0-.73.07-.85.25s-.24.71.23,2a3.64,3.64,0,0,0,1.23,2,1.6,1.6,0,0,0,1,.22h1.08c.51,0,.73-.07.87-.25s.24-.71-.24-2a3.7,3.7,0,0,0-1.23-2,1.66,1.66,0,0,0-1-.22"/><path class="k" d="M1439.19,28.25a23.17,23.17,0,0,1-2.54,10.59,28.32,28.32,0,0,1-2,3.35c-5.13,7.49-13.9,13-22.44,15.35-12.45,3.34-25.4,1-36.26,5.87-21,9.41-14.58,31.42-1.7,44.07a5.28,5.28,0,0,0,2.15.18c7.36-.13,31.5-3.13,42.78-8.84,17.56-8.89,24-25.19,25-31.23a1.42,1.42,0,0,1,1.28-.66,3,3,0,0,1,.81.11,2.73,2.73,0,0,1,2,1.76c.87,6.25,2.72,27.85-16.29,41.9-8.65,6.39-15.89,9.59-21.43,11.3-.92.28-.62,1,.54,1h.9l4.25-.06,4.28-.06c16.91-.3,41.83-1.82,48.31-16.37,4.33-10.6,1.37-24.08-4.85-37.87q-1.1-2.43-2.32-4.87c-6.23-12.44-14.72-24.89-22.53-35.48"/></g><path class="k" d="M1388.91,303.15a8.77,8.77,0,0,0-3.89-.78,16.85,16.85,0,0,0-6.4,1.4,23.22,23.22,0,0,0-6.12,3.76,18.51,18.51,0,0,0-4.34,5.18,9,9,0,0,0-1.32,5.15,5,5,0,0,0,2,3.71,7.83,7.83,0,0,0,4.89,1.35,16,16,0,0,0,4.73-.82,24.19,24.19,0,0,0,4.93-2.21l.73,1.57a30.32,30.32,0,0,1-6,2.69,19.15,19.15,0,0,1-5.75,1,9.71,9.71,0,0,1-6-1.64,6.1,6.1,0,0,1-2.5-4.53,11,11,0,0,1,1.6-6.27,21.89,21.89,0,0,1,5.29-6.25,28.79,28.79,0,0,1,7.51-4.54,20.94,20.94,0,0,1,7.86-1.71,11.06,11.06,0,0,1,4.7.9,6.59,6.59,0,0,1,3,2.55l-2.48,1.69A5.43,5.43,0,0,0,1388.91,303.15Z"/><path class="k" d="M1411.4,307.5a4.13,4.13,0,0,1,1.78,3.26,8.88,8.88,0,0,1-1.32,4.76,17.55,17.55,0,0,1-3.94,4.83,19.24,19.24,0,0,1-5.38,3.32,15.62,15.62,0,0,1-5.82,1.21,7.63,7.63,0,0,1-4.53-1.14,4.11,4.11,0,0,1-1.77-3.27,9.05,9.05,0,0,1,1.35-4.81,17.22,17.22,0,0,1,3.91-4.78,19.29,19.29,0,0,1,5.38-3.3,15.64,15.64,0,0,1,5.82-1.21A7.65,7.65,0,0,1,1411.4,307.5Zm-10,1.83a14.43,14.43,0,0,0-4.07,2.58,14.1,14.1,0,0,0-3,3.76,7.62,7.62,0,0,0-1.13,3.78,3.1,3.1,0,0,0,1.26,2.54,5.5,5.5,0,0,0,3.38.89,11.49,11.49,0,0,0,4.38-.94,14.41,14.41,0,0,0,4.07-2.58,14.21,14.21,0,0,0,3-3.79,7.54,7.54,0,0,0,1.11-3.75,3.1,3.1,0,0,0-1.26-2.54,5.51,5.51,0,0,0-3.38-.89,11.51,11.51,0,0,0-4.39.94Z"/><path class="k" d="M1439.2,308.06q1,1.9-.84,5.23l-6.19,11.29h-2.59l5.89-10.73q1.42-2.59.67-4.06t-3.53-1.45a11.37,11.37,0,0,0-5.89,1.78,14.65,14.65,0,0,0-4.65,4.64l-5.42,9.89h-2.55l10.08-18.38h2.55l-2.35,4.28a15.55,15.55,0,0,1,4.79-3.25,14.56,14.56,0,0,1,5.47-1.15Q1438.21,306.16,1439.2,308.06Z"/><path class="k" d="M1466,307.9q1,1.9-.84,5.23L1459,324.42h-2.59l5.89-10.73q1.42-2.59.67-4.06t-3.53-1.45a11.38,11.38,0,0,0-5.88,1.82,14.65,14.65,0,0,0-4.65,4.64l-5.42,9.89h-2.55L1451,306.15h2.55l-2.35,4.28a15.55,15.55,0,0,1,4.79-3.25,14.57,14.57,0,0,1,5.47-1.15Q1465,306,1466,307.9Z"/><path class="k" d="M1491.12,308.55q.94,2.7-1.77,7.3l-16.62.1q-1.35,3-.25,4.74t4.18,1.77a12.84,12.84,0,0,0,3.88-.65,16.31,16.31,0,0,0,3.8-1.81l.71,1.32a20,20,0,0,1-4.7,2.25,16.12,16.12,0,0,1-4.9.82,7.45,7.45,0,0,1-4.49-1.14,4.1,4.1,0,0,1-1.72-3.26,9.12,9.12,0,0,1,1.36-4.8,17.58,17.58,0,0,1,3.9-4.79,19.13,19.13,0,0,1,5.33-3.32,15.16,15.16,0,0,1,5.7-1.21Q1490.18,305.85,1491.12,308.55Zm-3,5.49q1.39-2.87.44-4.56t-4-1.67a11.84,11.84,0,0,0-6,1.75,14.34,14.34,0,0,0-4.82,4.57Z"/><path class="k" d="M1508.86,307.79a11.41,11.41,0,0,0-4.34.94,14.48,14.48,0,0,0-4.06,2.56,13.93,13.93,0,0,0-3,3.74,7.53,7.53,0,0,0-1.11,3.75,3.1,3.1,0,0,0,1.26,2.54,5.44,5.44,0,0,0,3.34.89,12.77,12.77,0,0,0,3.9-.65,14.65,14.65,0,0,0,3.72-1.84l.68,1.39a18,18,0,0,1-4.6,2.3,15.83,15.83,0,0,1-4.93.83,7.38,7.38,0,0,1-4.45-1.14,4.09,4.09,0,0,1-1.71-3.28,9.13,9.13,0,0,1,1.35-4.78,17.58,17.58,0,0,1,3.9-4.79,19.14,19.14,0,0,1,5.33-3.32,15.26,15.26,0,0,1,5.74-1.21,9.31,9.31,0,0,1,3.86.67,4.5,4.5,0,0,1,2.21,1.94l-2.31,1.59Q1512.4,307.77,1508.86,307.79Z"/><path class="k" d="M1525.95,322.75a13.24,13.24,0,0,1-5.16,1.4q-2.28,0-2.9-1.28t.8-3.88l6-10.94h-2.85l1-1.82h2.89l2.6-4.73h2.55l-2.6,4.73,6.49-.07-1,1.86h-6.47l-5.79,10.56q-1.87,3.4.87,3.39a10.48,10.48,0,0,0,3.85-1Z"/><path class="k" d="M1327.81,344.49l17.8-.11-1.19,2.17-15.18.09-4.81,8.77,13.58-.08-1.19,2.17-13.58.08-5.06,9.22,15.67-.1-1.19,2.17-18.3.11Z"/><path class="k" d="M1347.08,350.49h2.74l-2.17,16L1363,350.42h2.66l-18,18.43h-2.7Z"/><path class="k" d="M1383.94,352.9q.94,2.7-1.77,7.3l-16.62.1q-1.35,3-.25,4.74t4.18,1.77a12.83,12.83,0,0,0,3.88-.65,16.31,16.31,0,0,0,3.8-1.81l.71,1.32a20,20,0,0,1-4.7,2.25,16.15,16.15,0,0,1-4.9.82,7.46,7.46,0,0,1-4.49-1.14,4.1,4.1,0,0,1-1.72-3.26,9.11,9.11,0,0,1,1.36-4.8,17.57,17.57,0,0,1,3.9-4.79,19.12,19.12,0,0,1,5.33-3.32,15.16,15.16,0,0,1,5.7-1.21Q1383,350.2,1383.94,352.9Zm-3,5.49q1.39-2.87.44-4.56t-4-1.67a11.86,11.86,0,0,0-6,1.75,14.34,14.34,0,0,0-4.82,4.57Z"/><path class="k" d="M1399.66,351.23a12.69,12.69,0,0,1,5.06-1.17l-1.21,2.21a11.29,11.29,0,0,0-6,1.73,14.65,14.65,0,0,0-4.77,4.73l-5.39,9.82h-2.55l10.08-18.38h2.55l-2.35,4.28A16,16,0,0,1,1399.66,351.23Z"/><path class="k" d="M1402,374.27a8.84,8.84,0,0,1-4,1.11,4.27,4.27,0,0,1-3.42-1.24l2.14-1.83a3.28,3.28,0,0,0,2.39.82,5.66,5.66,0,0,0,2.61-.75,12.18,12.18,0,0,0,2.81-2.15l1.88-1.9,1.77-18.22h2.7l-1.81,15.74,15.2-15.85h2.63l-20.73,21.06A16.82,16.82,0,0,1,1402,374.27Z"/><path class="k" d="M1433.11,367a13.24,13.24,0,0,1-5.16,1.4q-2.28,0-2.9-1.28t.8-3.88l6-10.94H1429l1-1.82h2.89l2.6-4.73H1438l-2.6,4.73,6.49-.07-1,1.86h-6.47l-5.79,10.56q-1.86,3.4.87,3.39a10.48,10.48,0,0,0,3.85-1Z"/><path class="k" d="M1464.25,351.6q1,1.9-.84,5.23l-6.19,11.29h-2.59l5.89-10.73q1.42-2.59.67-4.06t-3.53-1.45a11.47,11.47,0,0,0-6.3,2,14.75,14.75,0,0,0-4.76,5.25l-4.94,9h-2.55l14.27-26h2.55l-6.58,12a14.6,14.6,0,0,1,10.34-4.47Q1463.26,349.7,1464.25,351.6Z"/><path class="k" d="M1476,349.69h2.55l-10.05,18.37H1466Zm6.1-6.49a1.25,1.25,0,0,1-.15,1.17,3.29,3.29,0,0,1-1.17,1.2,2.86,2.86,0,0,1-1.51.5,1,1,0,0,1-1-.48,1.26,1.26,0,0,1,.14-1.19,3.19,3.19,0,0,1,1.16-1.18,2.94,2.94,0,0,1,1.53-.48,1,1,0,0,1,1,.47Z"/><path class="k" d="M1502.9,351.36q1,1.9-.84,5.23l-6.19,11.29h-2.59l5.89-10.73q1.42-2.59.67-4.06t-3.53-1.45a11.39,11.39,0,0,0-5.89,1.78,14.66,14.66,0,0,0-4.65,4.64l-5.42,9.89h-2.55l10.08-18.38h2.55l-2.35,4.28a15.53,15.53,0,0,1,4.79-3.24,14.55,14.55,0,0,1,5.47-1.15Q1501.92,349.47,1502.9,351.36Z"/><path class="k" d="M1531.89,349.35l-9,16.45a16.91,16.91,0,0,1-3.78,4.67,17.1,17.1,0,0,1-5.16,3.09,16.55,16.55,0,0,1-5.82,1.1q-4.41,0-6.64-2.75l2.14-1.69a5.4,5.4,0,0,0,2.18,1.84,7.67,7.67,0,0,0,3.31.61,12.4,12.4,0,0,0,6.47-1.87,13,13,0,0,0,4.74-4.94l1.63-3a16.61,16.61,0,0,1-4.7,3,13.26,13.26,0,0,1-5.16,1.12,6.5,6.5,0,0,1-4.11-1.11,3.89,3.89,0,0,1-1.5-3.14,9.21,9.21,0,0,1,1.35-4.57,17,17,0,0,1,3.66-4.57,17.75,17.75,0,0,1,5-3.14,14,14,0,0,1,5.37-1.15,6.23,6.23,0,0,1,3.94,1,3.67,3.67,0,0,1,1.38,3l2.21-4Zm-14.14,14.85a14.23,14.23,0,0,0,3.91-2.49,13.35,13.35,0,0,0,2.86-3.55,7.15,7.15,0,0,0,1-3.57,3.05,3.05,0,0,0-1.19-2.46,5.07,5.07,0,0,0-3.2-.87,10.81,10.81,0,0,0-4.18.92,14.46,14.46,0,0,0-3.92,2.49,13.24,13.24,0,0,0-2.89,3.58,6.86,6.86,0,0,0-1,3.55,3.14,3.14,0,0,0,1.2,2.44,5.06,5.06,0,0,0,3.22.87,10.79,10.79,0,0,0,4.2-.9Z"/><path class="k" d="M1355,157a13.52,13.52,0,0,0-3.36-.54,3,3,0,0,0-2.07.55q-.58.54-.08,1.51a3.86,3.86,0,0,0,1.37,1.46,9.06,9.06,0,0,0,2,1q1.11.38,2.92.82a43.7,43.7,0,0,1,4.26,1.26,12.92,12.92,0,0,1,3.37,1.86,9.51,9.51,0,0,1,2.69,3.25,5,5,0,0,1,.69,3.36,3.19,3.19,0,0,1-1.8,2.19,8.59,8.59,0,0,1-3.89.76,17.91,17.91,0,0,1-5.43-.91,26.39,26.39,0,0,1-5.49-2.45l-.06-3.44A24.3,24.3,0,0,0,1355,170a13.54,13.54,0,0,0,4.24.84,3.37,3.37,0,0,0,2.38-.65,1.39,1.39,0,0,0,.07-1.76,3.92,3.92,0,0,0-1.38-1.49,8.57,8.57,0,0,0-2-.95q-1.12-.36-3-.81-2.53-.63-4.23-1.23a12.47,12.47,0,0,1-3.33-1.82,9.32,9.32,0,0,1-2.67-3.21,4.86,4.86,0,0,1-.67-3.21,3.09,3.09,0,0,1,1.73-2.13,8.39,8.39,0,0,1,3.86-.76,18.16,18.16,0,0,1,4.47.59A24.34,24.34,0,0,1,1359,155l.17,3.53A27.23,27.23,0,0,0,1355,157Z"/><path class="k" d="M1379,159a15,15,0,0,1,4.27,2.9,16.47,16.47,0,0,1,3.23,4.31,9.46,9.46,0,0,1,1.26,4.25,3.53,3.53,0,0,1-1.22,2.87,5.4,5.4,0,0,1-3.54,1,9.82,9.82,0,0,1-3.65-.7,12.64,12.64,0,0,1-3.43-2.06l4.43,8.47h-4l-11.48-22h4l1.39,2.65a2.86,2.86,0,0,1,1.22-2.07,5.08,5.08,0,0,1,2.89-.72A11.25,11.25,0,0,1,1379,159Zm3.89,10.61a4.15,4.15,0,0,0-.54-3.51,9.4,9.4,0,0,0-3.13-3.49,7.16,7.16,0,0,0-4-1.35q-2.07,0-2.66,1.36a4.1,4.1,0,0,0,.53,3.5,9.47,9.47,0,0,0,3.14,3.52,7.2,7.2,0,0,0,4.08,1.35,2.53,2.53,0,0,0,2.58-1.39Z"/><path class="k" d="M1392.37,158.75a4.59,4.59,0,0,1,2.91-.87l2,3.8q-2.64-.15-3.49,1.17t.32,3.54l4.06,7.77h-4L1385.74,158h4l1.62,3.1A3,3,0,0,1,1392.37,158.75Z"/><path class="k" d="M1398.51,151.75a4.51,4.51,0,0,1,1.53,1.69,1.88,1.88,0,0,1,.22,1.66,1.27,1.27,0,0,1-1.29.67,3.55,3.55,0,0,1-2-.66,4.44,4.44,0,0,1-1.52-1.66,1.93,1.93,0,0,1-.23-1.69,1.27,1.27,0,0,1,1.29-.67A3.56,3.56,0,0,1,1398.51,151.75Zm-.34,6.28h4l8.43,16.12h-4Z"/><path class="k" d="M1422.4,159.5a12,12,0,0,1,4,4.53l5.26,10.06h-4.05l-4.66-8.92a7,7,0,0,0-2.38-2.66,5.75,5.75,0,0,0-3.2-1q-2,0-2.48,1.33a4.17,4.17,0,0,0,.57,3.32l4.14,7.92h-4L1407.16,158h4l1.58,3q.08-3.11,4.28-3.18A9.48,9.48,0,0,1,1422.4,159.5Z"/><path class="k" d="M1442.88,157.93l7.62,14.58a7.23,7.23,0,0,1,1,4,3.37,3.37,0,0,1-1.66,2.63,7.73,7.73,0,0,1-4.08.93,18.38,18.38,0,0,1-8.11-2.12l.13-2.84a13.12,13.12,0,0,0,6,1.68q2.23,0,3-1.12t-.28-3l-1-1.9a2.62,2.62,0,0,1-1.18,1.89,5,5,0,0,1-2.75.65,10.51,10.51,0,0,1-4.35-1,14.28,14.28,0,0,1-4-2.74,15.39,15.39,0,0,1-3-4.05,8.61,8.61,0,0,1-1.16-4,3.38,3.38,0,0,1,1.19-2.7,5.1,5.1,0,0,1,3.33-1,9.29,9.29,0,0,1,3.42.66,11.58,11.58,0,0,1,3.16,1.86l-1.26-2.41Zm.49,11a3.94,3.94,0,0,0-.52-3.33,9,9,0,0,0-3-3.33A6.77,6.77,0,0,0,1436,161a2.4,2.4,0,0,0-2.49,1.3,4,4,0,0,0,.48,3.32,9.22,9.22,0,0,0,3,3.33,6.76,6.76,0,0,0,3.84,1.27,2.42,2.42,0,0,0,2.52-1.33Z"/><path class="k" d="M1467.83,157a10.22,10.22,0,0,0-3.55-.72,5,5,0,0,0-3.19.94,3.4,3.4,0,0,0-1.28,2.58,6.93,6.93,0,0,0,.92,3.6,12.9,12.9,0,0,0,2.84,3.6,14.68,14.68,0,0,0,4,2.59,10.37,10.37,0,0,0,4.18.94,5.67,5.67,0,0,0,2.76-.67,4.25,4.25,0,0,0,1.81-1.84l3.83,2.65a6.07,6.07,0,0,1-2.56,2.68,8.17,8.17,0,0,1-4.06,1,16.28,16.28,0,0,1-6.48-1.43,22.55,22.55,0,0,1-6.14-3.92,19.43,19.43,0,0,1-4.36-5.5,10,10,0,0,1-1.35-5.49,5.26,5.26,0,0,1,2.1-3.9,8.2,8.2,0,0,1,5.06-1.43,15.83,15.83,0,0,1,5,.89,21.66,21.66,0,0,1,5.15,2.43l-.87,3A16.31,16.31,0,0,0,1467.83,157Z"/><path class="k" d="M1473.59,151.62h4L1489.3,174h-4Z"/><path class="k" d="M1498.27,158.71a15.71,15.71,0,0,1,4.56,2.87,15,15,0,0,1,3.33,4.26,8.36,8.36,0,0,1,1.16,4.31,3.68,3.68,0,0,1-1.55,2.9,6.76,6.76,0,0,1-4,1,13.4,13.4,0,0,1-5.11-1,15.56,15.56,0,0,1-4.59-2.89,15.26,15.26,0,0,1-3.35-4.31,8.19,8.19,0,0,1-1.13-4.27,3.67,3.67,0,0,1,1.57-2.88,6.9,6.9,0,0,1,4-1A13.23,13.23,0,0,1,1498.27,158.71Zm-6,3.69q-.59,1.36.54,3.53a9.47,9.47,0,0,0,3.14,3.52,7.24,7.24,0,0,0,4.11,1.35,2.56,2.56,0,0,0,2.63-1.36q.59-1.36-.54-3.53a9.47,9.47,0,0,0-3.14-3.52,7.16,7.16,0,0,0-4-1.35q-2.16,0-2.74,1.37Z"/><path class="k" d="M1520.73,157.76l8.43,16.12h-4.05l-1.56-3q0,3.14-4.11,3.15a9.26,9.26,0,0,1-5.26-1.65,12,12,0,0,1-4-4.52l-5.28-10.09h4.05l4.68,8.95a7,7,0,0,0,2.33,2.65,5.5,5.5,0,0,0,3.12,1q1.9,0,2.34-1.33a4.3,4.3,0,0,0-.6-3.29l-4.16-8Z"/><path class="k" d="M1538.43,151.47l11.69,22.36h-4l-1.35-2.59a2.86,2.86,0,0,1-1.22,2.07,5.08,5.08,0,0,1-2.89.72,11.31,11.31,0,0,1-4.67-1,15.17,15.17,0,0,1-4.3-2.92,16.46,16.46,0,0,1-3.25-4.32,9.4,9.4,0,0,1-1.25-4.27,3.55,3.55,0,0,1,1.25-2.88,5.42,5.42,0,0,1,3.53-1,9.8,9.8,0,0,1,3.69.72,12.91,12.91,0,0,1,3.44,2.07l-4.65-8.89Zm4,17.89a4.15,4.15,0,0,0-.54-3.54,9.52,9.52,0,0,0-3.17-3.54,7.26,7.26,0,0,0-4.1-1.36q-2.07,0-2.65,1.38a4.25,4.25,0,0,0,.52,3.54,9.84,9.84,0,0,0,3.18,3.54,7.18,7.18,0,0,0,4.09,1.36,2.59,2.59,0,0,0,2.68-1.37Z"/><path class="k" d="M1394.51,187.62a20.85,20.85,0,0,1,6,3.74,19.07,19.07,0,0,1,4.3,5.45,10,10,0,0,1,1.38,5.44,5,5,0,0,1-2.1,3.76,8.77,8.77,0,0,1-5.2,1.37h-8.84l-11-21.09h9A17,17,0,0,1,1394.51,187.62Zm5.85,15.31a3.17,3.17,0,0,0,1.2-2.48,7.25,7.25,0,0,0-1-3.6,13.07,13.07,0,0,0-2.83-3.63,13.61,13.61,0,0,0-3.86-2.5,10.4,10.4,0,0,0-4.1-.88H1385l7.31,14h4.95a4.9,4.9,0,0,0,3.14-.91Z"/><path class="k" d="M1423.51,207.33l-1-2a2.58,2.58,0,0,1-1.39,1.6,6.34,6.34,0,0,1-2.84.55,9.17,9.17,0,0,1-3.38-.64,10,10,0,0,1-3-1.79,8.82,8.82,0,0,1-2-2.56q-1.18-2.26-.21-3.54t4-1.32h4.82l-.22-.42a5.31,5.31,0,0,0-2.11-2.2,6.3,6.3,0,0,0-3.19-.78,6.2,6.2,0,0,0-4.13,1.52L1406,193a10.12,10.12,0,0,1,2.74-1.53,10.85,10.85,0,0,1,3.48-.48,11.18,11.18,0,0,1,5.78,1.5,10.52,10.52,0,0,1,4,4.21l5.54,10.55Zm-3.32-3.63a1.69,1.69,0,0,0,.36-2l-.76-1.45h-4.17a3.34,3.34,0,0,0-2.12.47q-.51.47,0,1.52a3.89,3.89,0,0,0,1.64,1.63,5,5,0,0,0,2.46.6,3.54,3.54,0,0,0,2.64-.77Z"/><path class="k" d="M1441.19,206.29a5.22,5.22,0,0,1-3.53,1.18,7.8,7.8,0,0,1-4.13-1.21,8.91,8.91,0,0,1-3.24-3.6l-4.16-8h-2.32l-1.53-2.86h2.35l-2.32-4.43h4l2.32,4.43h4.73l1.5,2.86h-4.73l3.8,7.26a4.27,4.27,0,0,0,1.26,1.58,2.64,2.64,0,0,0,1.54.46,3.87,3.87,0,0,0,2-.67Z"/><path class="k" d="M1454.63,207.26l-1-2a2.58,2.58,0,0,1-1.39,1.6,6.34,6.34,0,0,1-2.84.55,9.18,9.18,0,0,1-3.38-.64,10,10,0,0,1-3-1.79,8.82,8.82,0,0,1-2.05-2.56q-1.18-2.26-.21-3.54t4-1.32h4.75l-.22-.42a5.31,5.31,0,0,0-2.11-2.2,6.3,6.3,0,0,0-3.19-.78,6.21,6.21,0,0,0-4.13,1.52L1437,193a10.12,10.12,0,0,1,2.74-1.53,10.84,10.84,0,0,1,3.48-.48,11.18,11.18,0,0,1,5.78,1.5,10.51,10.51,0,0,1,4,4.21l5.54,10.55Zm-3.32-3.63a1.69,1.69,0,0,0,.36-2l-.76-1.45h-4.17a3.34,3.34,0,0,0-2.12.47q-.51.47,0,1.52a3.89,3.89,0,0,0,1.64,1.63,5,5,0,0,0,2.46.6,3.54,3.54,0,0,0,2.59-.77Z"/><path class="k" d="M1459.8,186.13h14.93l1.81,3.53h-10.76l3,5.69h9.8l1.84,3.53h-9.8l4.36,8.35h-4.14Z"/><path class="k" d="M1477.17,184.83h4l11.69,22.36h-4Z"/><path class="k" d="M1501.85,191.92a15.71,15.71,0,0,1,4.57,2.87,15,15,0,0,1,3.33,4.26,8.36,8.36,0,0,1,1.16,4.31,3.68,3.68,0,0,1-1.55,2.9,6.76,6.76,0,0,1-4,1,13.4,13.4,0,0,1-5.11-1,15.56,15.56,0,0,1-4.59-2.89,15.25,15.25,0,0,1-3.35-4.31,8.18,8.18,0,0,1-1.13-4.27,3.67,3.67,0,0,1,1.57-2.88,6.9,6.9,0,0,1,4-1A13.23,13.23,0,0,1,1501.85,191.92Zm-6,3.69q-.59,1.36.54,3.53a9.47,9.47,0,0,0,3.14,3.52,7.24,7.24,0,0,0,4.11,1.35,2.56,2.56,0,0,0,2.63-1.36q.59-1.36-.54-3.53a9.46,9.46,0,0,0-3.14-3.52,7.16,7.16,0,0,0-4-1.35q-2.16,0-2.75,1.36Z"/><path class="k" d="M1505.92,191h4.13l10.46,12.16L1518,191h4.05l10.35,12.16L1530,191h4.05l2.43,16.13h-4.11l-9.9-11.35,2,11.37h-4.11Z"/><polyline class="c" points="753.83 0.02 617.21 234.42 758.99 472.33 1026.54 473.46 1162.82 235.51 1027.04 0 753.84 0"/><polyline class="d" points="753.83 0.02 889.62 235.53 1162.82 235.51 1027.04 0 753.84 0"/><polyline class="e" points="753.83 0.02 617.21 234.42 758.99 472.33 889.62 235.53 753.84 0"/><line class="a" x1="889.62" y1="235.53" x2="753.83" y2="0.02"/><g class="f"><g class="l"><path class="h" d="M702.86,288.09a83.45,83.45,0,0,0,12.91,15.08A120,120,0,0,0,727.13,325q1.54,2.29,3.14,4.36c-7.14-2.72-13.59-8.19-19-16.26l-.37-.56c-5.58-8.49-9.56-19.1-12-30.88q1.87,3.32,4,6.42m14,12.9a181,181,0,0,1-7.57-23.88,161.09,161.09,0,0,0,10.39,18.45l.87,1.31a127.17,127.17,0,0,0,11,14.16,65.94,65.94,0,0,1-14.71-10m11.33,21.93A111.21,111.21,0,0,1,719,306a64.13,64.13,0,0,0,17.59,10.2,71.7,71.7,0,0,0,17.3,12.59,35.1,35.1,0,0,1-12.06,2.57,30.28,30.28,0,0,1-7.75-.82,72.87,72.87,0,0,1-5.85-7.62m-24.34-37a91.45,91.45,0,0,1-6.14-10.61,157.38,157.38,0,0,1-1.26-33.9,188.36,188.36,0,0,0,9.27,27.81,199,199,0,0,0,8,28.77,82.81,82.81,0,0,1-9.86-12.07m19.82-12.6a9.76,9.76,0,0,1-1.48-4.68c-.25-3.71,1.31-6.82,3.49-6.94a3.54,3.54,0,0,1,3,1.85,9.66,9.66,0,0,1,1.47,4.68c.27,3.73-1.3,6.82-3.47,6.94a3.51,3.51,0,0,1-3-1.84m13.86,60.81a31.82,31.82,0,0,0,4.45.2,37.35,37.35,0,0,0,15.37-3.93,39.13,39.13,0,0,0,15.79,3.17,30.82,30.82,0,0,0,4.41-.43c-5.73,6.41-12.29,10.08-19.42,10.25s-14.11-3.17-20.59-9.26m-42.31-64.22a104,104,0,0,1-7.84-34,100.53,100.53,0,0,1,3.75-34.31,170.21,170.21,0,0,0,4,34.13,168.39,168.39,0,0,0,.14,34.21m46.89,48a52.21,52.21,0,0,0,14.55,1.73,50.92,50.92,0,0,0,14.31-2.43,56,56,0,0,1-13.85,10.06,61.53,61.53,0,0,1-15-9.36m-38.12-58.1A184.73,184.73,0,0,1,697,235.69a176.83,176.83,0,0,1,4.2-24.49c-.31,7.87-.25,16,.25,24.39a243.92,243.92,0,0,0,2.67,24.31m56.59,68.76a64.72,64.72,0,0,0,15.75-13.4,58.07,58.07,0,0,0,16.31-11c-3.21,10.12-7.3,18.71-12.09,25.23a29.78,29.78,0,0,1-7.64,1.19,36.62,36.62,0,0,1-12.33-2m-64.88-98.69A157.83,157.83,0,0,1,693,196.09a78.66,78.66,0,0,1,13.25-23.4,191.36,191.36,0,0,0-4.55,29.07,178.37,178.37,0,0,0-5.91,28.18m85,79.89a116.92,116.92,0,0,0,10-16A149.76,149.76,0,0,0,799,275a171.72,171.72,0,0,1-4.69,24.11,59.5,59.5,0,0,1-13.47,10.74M704.36,193.72A170.27,170.27,0,0,1,709,169.55a59.73,59.73,0,0,1,13.46-10.75,116.05,116.05,0,0,0-10,16,147.5,147.5,0,0,0-8.16,18.9m80,134.3a102.7,102.7,0,0,0,11.33-26.83A77.9,77.9,0,0,0,809.88,279c-1,11.87-3.7,22.64-8.25,31.38S791.25,325,784.3,328.1M693.41,189.68c1-11.87,3.7-22.63,8.25-31.38S712,143.72,719,140.59a102.91,102.91,0,0,0-11.34,26.83,78,78,0,0,0-14.25,22.26M797,295.94a189.9,189.9,0,0,0,4.54-29,177.12,177.12,0,0,0,5.95-28.14,158,158,0,0,1,2.76,33.75A78.65,78.65,0,0,1,797,295.94M710.56,164.47c3.21-10.12,7.3-18.71,12.09-25.23a29.23,29.23,0,0,1,7.63-1.2,36.63,36.63,0,0,1,12.33,2,64.77,64.77,0,0,0-15.75,13.41,58.08,58.08,0,0,0-16.31,11.05m18.38,93.76c-6.62-9.83-6.32-36.07,7.25-43.85,6.44-3.69,14.43-.66,21.44-2.91,7.47-2.37,16-11.19,19.28-23.37,4.41,20.29,9.86,51.89,1.69,70.47-10.06,22.85-36.48,3.7-45.27,14.08a14.48,14.48,0,0,1,5.26-4.42c8.12-3.48,11.81-4.66,16.64-8.52,9.08-7.24,17.92-23.87,19.4-41.84-3.11,17.1-13.51,31.18-23.11,36.44-6.56,3.59-20.28,6.49-20.35,6.49l-.4-.51a11,11,0,0,1-1.78-2.08m73.17-.61a245.11,245.11,0,0,0-.24-24.53c-.5-8.36-1.41-16.5-2.67-24.33a183.84,183.84,0,0,1,7.13,24.28,174,174,0,0,1-4.22,24.57M732.24,151.38a55.71,55.71,0,0,1,13.84-10.07,61.44,61.44,0,0,1,15,9.36,52.23,52.23,0,0,0-14.57-1.73,50.69,50.69,0,0,0-14.3,2.44m39.44,6.22a65.77,65.77,0,0,1,14.7,10.05,180.53,180.53,0,0,1,7.57,23.87,160,160,0,0,0-10.4-18.45l-.88-1.33a127,127,0,0,0-11-14.15M812,267a170.85,170.85,0,0,0-3.92-34c.42-4.41.7-8.84.79-13.28a161.74,161.74,0,0,0-.89-20.9,103.94,103.94,0,0,1,7.78,33.87A100.65,100.65,0,0,1,812,267M725.7,135.5c5.73-6.4,12.29-10.08,19.42-10.25s14.11,3.17,20.59,9.27a32,32,0,0,0-4.45-.21,37.28,37.28,0,0,0-15.36,3.95,38.91,38.91,0,0,0-15.79-3.18,31.78,31.78,0,0,0-4.41.42m81.11,91.79a187.8,187.8,0,0,0-9.28-27.87,198.34,198.34,0,0,0-8-28.77,82.64,82.64,0,0,1,9.86,12.07,91.67,91.67,0,0,1,6.17,10.67,152.24,152.24,0,0,1,1.61,26c-.05,2.63-.19,5.26-.36,7.88m-57.43-87.45a35.24,35.24,0,0,1,12.06-2.56,30.18,30.18,0,0,1,7.75.82,72.66,72.66,0,0,1,5.86,7.63,110.87,110.87,0,0,1,9.21,16.94,63.82,63.82,0,0,0-17.58-10.23,72,72,0,0,0-17.3-12.6m23.62-.57c7.14,2.72,13.58,8.18,19,16.22l.4.59c5.52,8.38,9.57,18.94,12,31q-1.9-3.38-4-6.53a83.41,83.41,0,0,0-12.9-15.07,119.9,119.9,0,0,0-11.34-21.81q-1.55-2.31-3.17-4.39m20.11,14.08c-6.57-9.75-14.55-15.88-23.42-18.09-7.64-8.47-16.08-13.19-24.75-13s-16.52,5.33-23.12,14.14c-8.76,2.7-16.1,9.42-21.52,19.82-5.52,10.59-8.44,24-9,38.73a103.53,103.53,0,0,0-5.57,41,107.72,107.72,0,0,0,10.45,40.57c2.31,14.67,6.83,27.89,13.59,38.18l.38.58c6.57,9.76,14.56,15.9,23.44,18.13,7.63,8.47,16.08,13.18,24.74,13s16.52-5.33,23.13-14.15c8.76-2.7,16.1-9.41,21.52-19.81,5.52-10.59,8.45-24,9-38.74a103.42,103.42,0,0,0,5.57-41,107.75,107.75,0,0,0-10.39-40.46c-2.35-15-7-28.16-13.65-38.29l-.4-.6"/></g></g><line class="i" x1="752.78" y1="239.43" x2="615.55" y2="239.43"/><g class="m"><path class="k" d="M926.62,130.12a6.86,6.86,0,0,1-3.56-1c-2.77-1.63-4.19-4.66-3.16-6.76a3.56,3.56,0,0,1,3.3-1.85,6.86,6.86,0,0,1,3.56,1c2.77,1.63,4.18,4.66,3.16,6.76a3.56,3.56,0,0,1-3.3,1.85m.35-12.57-1-.41c-16.57-6.34-27.45-35.65-5-45.55,9.85-4.34,21.5-2.26,32.75-5.24,12-3.18,23.8-12.76,25.6-25,13.83,19.33,33,49.62,24.84,68.71-5,11.78-20.06,13.92-35.42,14.18-3.63.06-7.27,0-10.81,0s-7-.09-10.26,0c-1.6,0-3.13.08-4.59.17,0,0-3.47.25-6.84.87,0,0,1.16-.57,2.67-1.17,12.39-4.87,18.69-5.92,25.75-10.23,13.23-8.1,23.12-25.39,20.05-43.14,0,17.12-13.36,32.08-28.14,38.32-10.12,4.27-29.62,8.58-29.63,8.58m-.18-87.86c-21.53.38-36.49,11.7-41,28.28a55.4,55.4,0,0,1,27.62,9.24c-8.87-4.35-17.09-6.14-25.12-6-23.11.4-35.49,18.56-27.64,40.55s32.94,39.5,56.06,39.1l96.49-1.68c20.39-.36,31.31-16.37,24.39-35.78-5.59-15.67-21.1-28.74-37.61-33-5.35-10.41-13-22.14-22.2-35.12A36.23,36.23,0,0,1,975.27,46C960.76,35.67,943.4,29.39,926.8,29.68"/></g><path class="k" d="M898.18,175a13.92,13.92,0,0,0-3.46-.55,3.13,3.13,0,0,0-2.13.56q-.6.56-.08,1.55a4,4,0,0,0,1.41,1.5,9.32,9.32,0,0,0,2.08,1q1.14.39,3,.85a45,45,0,0,1,4.39,1.29,13.31,13.31,0,0,1,3.47,1.92,9.8,9.8,0,0,1,2.77,3.35,5.15,5.15,0,0,1,.71,3.46,3.28,3.28,0,0,1-1.85,2.26,8.84,8.84,0,0,1-4,.79,18.45,18.45,0,0,1-5.59-.93,27.18,27.18,0,0,1-5.65-2.52l-.07-3.54a25,25,0,0,0,5,2.38,13.94,13.94,0,0,0,4.37.86,3.47,3.47,0,0,0,2.45-.67,1.43,1.43,0,0,0,.07-1.82,4,4,0,0,0-1.42-1.53,8.82,8.82,0,0,0-2.09-1q-1.15-.37-3-.83-2.6-.65-4.36-1.26a12.82,12.82,0,0,1-3.43-1.87A9.59,9.59,0,0,1,888,177a5,5,0,0,1-.69-3.31,3.18,3.18,0,0,1,1.78-2.19,8.64,8.64,0,0,1,4-.79,18.71,18.71,0,0,1,4.6.61,25.07,25.07,0,0,1,4.65,1.67l.18,3.63A28.06,28.06,0,0,0,898.18,175Z"/><path class="k" d="M922.84,177a15.45,15.45,0,0,1,4.4,3,17,17,0,0,1,3.32,4.43,9.73,9.73,0,0,1,1.3,4.38,3.63,3.63,0,0,1-1.26,3,5.56,5.56,0,0,1-3.65,1.06,10.12,10.12,0,0,1-3.75-.72,13,13,0,0,1-3.53-2.12l4.56,8.72h-4.14l-11.82-22.61h4.14l1.43,2.73a2.94,2.94,0,0,1,1.26-2.13,5.23,5.23,0,0,1,3-.74A11.58,11.58,0,0,1,922.84,177Zm4,10.92a4.28,4.28,0,0,0-.55-3.62,9.68,9.68,0,0,0-3.22-3.59,7.37,7.37,0,0,0-4.17-1.39q-2.13,0-2.74,1.4t.54,3.6a9.75,9.75,0,0,0,3.23,3.63,7.42,7.42,0,0,0,4.2,1.39q2.12,0,2.72-1.42Z"/><path class="k" d="M936.64,176.75a4.72,4.72,0,0,1,3-.89l2,3.91q-2.72-.15-3.59,1.2t.33,3.65l4.18,8h-4.14L929.78,176h4.14l1.67,3.19A3.07,3.07,0,0,1,936.64,176.75Z"/><path class="k" d="M942.95,169.55a4.64,4.64,0,0,1,1.58,1.74,1.93,1.93,0,0,1,.22,1.71,1.31,1.31,0,0,1-1.33.69,3.66,3.66,0,0,1-2-.68,4.57,4.57,0,0,1-1.56-1.7,2,2,0,0,1-.24-1.74,1.31,1.31,0,0,1,1.33-.69A3.66,3.66,0,0,1,942.95,169.55ZM942.6,176h4.14l8.68,16.59h-4.14Z"/><path class="k" d="M967.51,177.52a12.34,12.34,0,0,1,4.13,4.66l5.42,10.36h-4.17l-4.8-9.18a7.16,7.16,0,0,0-2.45-2.74,5.92,5.92,0,0,0-3.3-1q-2.05,0-2.55,1.37a4.29,4.29,0,0,0,.59,3.41l4.27,8.16h-4.14L951.86,176H956l1.62,3.1q.08-3.2,4.41-3.27A9.76,9.76,0,0,1,967.51,177.52Z"/><path class="k" d="M988.63,175.91l7.85,15a7.45,7.45,0,0,1,1,4.09,3.46,3.46,0,0,1-1.71,2.71,8,8,0,0,1-4.2,1,18.91,18.91,0,0,1-8.34-2.19l.13-2.92a13.5,13.5,0,0,0,6.22,1.73q2.29,0,3-1.16t-.29-3.14l-1-2a2.7,2.7,0,0,1-1.21,1.94,5.15,5.15,0,0,1-2.83.67,10.83,10.83,0,0,1-4.47-1,14.72,14.72,0,0,1-4.15-2.82,15.87,15.87,0,0,1-3.14-4.17,8.87,8.87,0,0,1-1.19-4.11,3.48,3.48,0,0,1,1.22-2.78,5.25,5.25,0,0,1,3.43-1,9.57,9.57,0,0,1,3.52.68,12,12,0,0,1,3.25,1.92l-1.3-2.48Zm.5,11.29a4,4,0,0,0-.53-3.43,9.23,9.23,0,0,0-3-3.42,7,7,0,0,0-4-1.31,2.47,2.47,0,0,0-2.57,1.34,4.11,4.11,0,0,0,.5,3.41,9.49,9.49,0,0,0,3.08,3.42,7,7,0,0,0,4,1.31,2.49,2.49,0,0,0,2.52-1.33Z"/><path class="k" d="M1014.32,174.92a10.52,10.52,0,0,0-3.65-.74,5.16,5.16,0,0,0-3.29,1,3.5,3.5,0,0,0-1.32,2.66,7.13,7.13,0,0,0,1,3.71,13.28,13.28,0,0,0,2.92,3.7,15.1,15.1,0,0,0,4.1,2.66,10.66,10.66,0,0,0,4.3,1,5.84,5.84,0,0,0,2.84-.69,4.37,4.37,0,0,0,1.86-1.9L1027,189a6.24,6.24,0,0,1-2.64,2.75,8.41,8.41,0,0,1-4.18,1,16.76,16.76,0,0,1-6.67-1.48,23.19,23.19,0,0,1-6.32-4,20,20,0,0,1-4.49-5.66,10.3,10.3,0,0,1-1.39-5.65,5.41,5.41,0,0,1,2.16-4,8.43,8.43,0,0,1,5.21-1.47,16.3,16.3,0,0,1,5.17.92,22.3,22.3,0,0,1,5.26,2.57l-.89,3A16.76,16.76,0,0,0,1014.32,174.92Z"/><path class="k" d="M1020.25,169.41h4.14l12,23h-4.14Z"/><path class="k" d="M1045.65,176.71a16.16,16.16,0,0,1,4.7,3,15.49,15.49,0,0,1,3.42,4.39,8.61,8.61,0,0,1,1.19,4.44,3.79,3.79,0,0,1-1.59,3,7,7,0,0,1-4.11,1.06,13.79,13.79,0,0,1-5.26-1,16,16,0,0,1-4.72-3,15.7,15.7,0,0,1-3.45-4.43,8.43,8.43,0,0,1-1.17-4.39,3.78,3.78,0,0,1,1.62-3,7.1,7.1,0,0,1,4.16-1.07A13.61,13.61,0,0,1,1045.65,176.71Zm-6.19,3.8q-.61,1.4.56,3.63a9.75,9.75,0,0,0,3.23,3.63,7.45,7.45,0,0,0,4.23,1.39,2.63,2.63,0,0,0,2.71-1.4q.61-1.4-.56-3.63a9.75,9.75,0,0,0-3.23-3.63,7.37,7.37,0,0,0-4.17-1.39q-2.15,0-2.72,1.4Z"/><path class="k" d="M1068.77,175.73l8.68,16.59h-4.17l-1.61-3.07q0,3.23-4.23,3.24a9.53,9.53,0,0,1-5.41-1.7,12.34,12.34,0,0,1-4.09-4.65l-5.43-10.38h4.17l4.83,9.24a7.2,7.2,0,0,0,2.4,2.73,5.66,5.66,0,0,0,3.21,1q2,0,2.41-1.37a4.42,4.42,0,0,0-.62-3.38l-4.28-8.19Z"/><path class="k" d="M1087,169.26l12,23h-4.14l-1.4-2.67a2.94,2.94,0,0,1-1.26,2.13,5.23,5.23,0,0,1-3,.74,11.64,11.64,0,0,1-4.81-1.06,15.61,15.61,0,0,1-4.42-3,16.94,16.94,0,0,1-3.35-4.45,9.68,9.68,0,0,1-1.29-4.39,3.65,3.65,0,0,1,1.28-3,5.57,5.57,0,0,1,3.63-1.06,10.07,10.07,0,0,1,3.79.74,13.3,13.3,0,0,1,3.54,2.13l-4.78-9.15Zm4.13,18.42q.62-1.41-.55-3.65a9.8,9.8,0,0,0-3.26-3.64,7.47,7.47,0,0,0-4.22-1.4q-2.13,0-2.73,1.42a4.38,4.38,0,0,0,.54,3.65,10.12,10.12,0,0,0,3.27,3.64,7.39,7.39,0,0,0,4.21,1.4Q1090.51,189.09,1091.12,187.68Z"/><path class="k" d="M897.51,303.31a8.77,8.77,0,0,0-3.89-.78,16.86,16.86,0,0,0-6.4,1.4,23.25,23.25,0,0,0-6.12,3.76,18.5,18.5,0,0,0-4.34,5.18,9.06,9.06,0,0,0-1.32,5.15,5,5,0,0,0,2,3.71,7.82,7.82,0,0,0,4.89,1.35,16,16,0,0,0,4.73-.82A24.17,24.17,0,0,0,892,320l.73,1.57a30.35,30.35,0,0,1-6,2.69,19.17,19.17,0,0,1-5.75,1,9.71,9.71,0,0,1-6-1.64,6.09,6.09,0,0,1-2.5-4.53,11,11,0,0,1,1.6-6.27,21.9,21.9,0,0,1,5.29-6.25,28.79,28.79,0,0,1,7.51-4.54,20.93,20.93,0,0,1,7.86-1.71,11.07,11.07,0,0,1,4.7.9,6.6,6.6,0,0,1,3,2.55L900,305.51A5.44,5.44,0,0,0,897.51,303.31Z"/><path class="k" d="M920,307.67a4.13,4.13,0,0,1,1.78,3.26,8.89,8.89,0,0,1-1.32,4.76,17.52,17.52,0,0,1-3.94,4.83,19.24,19.24,0,0,1-5.38,3.32,15.63,15.63,0,0,1-5.82,1.21,7.63,7.63,0,0,1-4.53-1.14,4.11,4.11,0,0,1-1.77-3.27,9.05,9.05,0,0,1,1.35-4.81,17.22,17.22,0,0,1,3.91-4.78,19.29,19.29,0,0,1,5.38-3.3,15.64,15.64,0,0,1,5.82-1.21A7.64,7.64,0,0,1,920,307.67Zm-10,1.83a14.44,14.44,0,0,0-4.07,2.58,14.1,14.1,0,0,0-3,3.76,7.62,7.62,0,0,0-1.13,3.78,3.1,3.1,0,0,0,1.26,2.54,5.5,5.5,0,0,0,3.38.89,11.5,11.5,0,0,0,4.38-.94,14.41,14.41,0,0,0,4.07-2.58,14.21,14.21,0,0,0,3-3.79A7.53,7.53,0,0,0,919,312a3.1,3.1,0,0,0-1.26-2.54,5.5,5.5,0,0,0-3.38-.89,11.51,11.51,0,0,0-4.39.93Z"/><path class="k" d="M945.3,307.51a4.13,4.13,0,0,1,1.78,3.26,8.88,8.88,0,0,1-1.32,4.76,17.55,17.55,0,0,1-3.94,4.83,19.24,19.24,0,0,1-5.38,3.32,15.62,15.62,0,0,1-5.82,1.21,7.63,7.63,0,0,1-4.53-1.14,4.11,4.11,0,0,1-1.77-3.27,9.05,9.05,0,0,1,1.35-4.81,17.22,17.22,0,0,1,3.91-4.78,19.29,19.29,0,0,1,5.38-3.3,15.64,15.64,0,0,1,5.82-1.21A7.65,7.65,0,0,1,945.3,307.51Zm-10,1.83a14.43,14.43,0,0,0-4.07,2.58,14.1,14.1,0,0,0-3,3.76,7.62,7.62,0,0,0-1.13,3.78,3.1,3.1,0,0,0,1.26,2.54,5.51,5.51,0,0,0,3.38.89,11.49,11.49,0,0,0,4.38-.94,14.41,14.41,0,0,0,4.07-2.58,14.21,14.21,0,0,0,3-3.79,7.54,7.54,0,0,0,1.11-3.75,3.1,3.1,0,0,0-1.26-2.54,5.51,5.51,0,0,0-3.38-.89,11.5,11.5,0,0,0-4.39.94Z"/><path class="k" d="M962.87,307.37a12.69,12.69,0,0,1,5.06-1.17l-1.21,2.21a11.29,11.29,0,0,0-6,1.73,14.64,14.64,0,0,0-4.77,4.73l-5.39,9.82H948l10.08-18.38h2.55l-2.35,4.28A16,16,0,0,1,962.87,307.37Z"/><path class="k" d="M996.24,298.48l-14.27,26h-2.55l2.31-4.21a17.71,17.71,0,0,1-5,3.23,13.82,13.82,0,0,1-5.42,1.17,7,7,0,0,1-4.37-1.16,4,4,0,0,1-1.6-3.31,9.83,9.83,0,0,1,1.44-4.83,17.84,17.84,0,0,1,3.87-4.81,19.19,19.19,0,0,1,5.23-3.32,14.54,14.54,0,0,1,5.63-1.24,6.52,6.52,0,0,1,4.18,1.13,3.88,3.88,0,0,1,1.45,3.21l6.52-11.89Zm-18.92,23.24a15,15,0,0,0,4.1-2.59,13.92,13.92,0,0,0,3-3.76,7.48,7.48,0,0,0,1.1-3.76,3.27,3.27,0,0,0-1.25-2.6,5.27,5.27,0,0,0-3.36-.92,11.29,11.29,0,0,0-4.4,1,15.49,15.49,0,0,0-4.13,2.63,13.92,13.92,0,0,0-3.06,3.78,7.34,7.34,0,0,0-1.09,3.75,3.19,3.19,0,0,0,1.29,2.56,5.46,5.46,0,0,0,3.39.9,11.39,11.39,0,0,0,4.41-1Z"/><path class="k" d="M1001.59,306.06h2.55l-10.08,18.38h-2.55Zm6.1-6.49a1.25,1.25,0,0,1-.15,1.17,3.28,3.28,0,0,1-1.17,1.2,2.86,2.86,0,0,1-1.51.5,1,1,0,0,1-1-.48,1.26,1.26,0,0,1,.14-1.19,3.2,3.2,0,0,1,1.16-1.18,3,3,0,0,1,1.53-.48,1,1,0,0,1,1,.47Z"/><path class="k" d="M1028.51,307.73q1,1.9-.84,5.23l-6.19,11.29h-2.59l5.89-10.73q1.42-2.59.67-4.06t-3.53-1.45a11.38,11.38,0,0,0-5.89,1.78,14.65,14.65,0,0,0-4.65,4.64l-5.42,9.89h-2.55l10.1-18.32h2.55l-2.35,4.28a15.53,15.53,0,0,1,4.79-3.25,14.57,14.57,0,0,1,5.47-1.15Q1027.51,305.83,1028.51,307.73Z"/><path class="k" d="M1042.68,324.13l1.66-3.09a14.84,14.84,0,0,1-9.21,3.24,5.92,5.92,0,0,1-3.16-.7,2.57,2.57,0,0,1-1.29-2,4.83,4.83,0,0,1,.72-2.84,9.12,9.12,0,0,1,4.05-3.77,13.92,13.92,0,0,1,6.25-1.4h6.7l.77-1.4q1.19-2.17.44-3.36t-3.46-1.17a17.93,17.93,0,0,0-7.64,2.25l-.26-1.61a32.19,32.19,0,0,1,4.89-1.94,16.59,16.59,0,0,1,4.52-.64q3.61,0,4.68,1.63t-.51,4.6l-6.64,12.17Zm-.88-3a12.52,12.52,0,0,0,4.25-3.22l1.38-2.52H1041a11,11,0,0,0-4.44.83,5.58,5.58,0,0,0-2.7,2.43q-.9,1.65-.14,2.64a3.51,3.51,0,0,0,2.93,1,12.2,12.2,0,0,0,5.15-1.15Z"/><path class="k" d="M1064.64,322.73a13.24,13.24,0,0,1-5.16,1.39q-2.28,0-2.9-1.27t.81-3.89l6-10.94h-2.85l1-1.82h2.89l2.6-4.73h2.55l-2.6,4.73,6.49-.07-1,1.86H1066l-5.79,10.56q-1.87,3.4.87,3.39a10.48,10.48,0,0,0,3.85-1Z"/><path class="k" d="M1093.61,308.14q.94,2.7-1.77,7.3l-16.62.1q-1.35,3-.25,4.74t4.18,1.77a12.83,12.83,0,0,0,3.88-.65,16.3,16.3,0,0,0,3.79-1.81l.72,1.32a20,20,0,0,1-4.7,2.25,16.13,16.13,0,0,1-4.9.82,7.45,7.45,0,0,1-4.49-1.14,4.1,4.1,0,0,1-1.72-3.26,9.12,9.12,0,0,1,1.36-4.8A17.58,17.58,0,0,1,1077,310a19.14,19.14,0,0,1,5.33-3.32,15.17,15.17,0,0,1,5.7-1.21Q1092.67,305.43,1093.61,308.14Zm-3,5.49q1.39-2.87.44-4.56t-4-1.67a11.84,11.84,0,0,0-6,1.75,14.34,14.34,0,0,0-4.82,4.57Z"/><path class="k" d="M886.29,368.78l.42-6.5-14.76.09-6.7,6.54h-2.82l25.43-24.59h2.74l-1.46,24.44Zm-12.12-8.59,12.71-.08.88-13.22Z"/><path class="k" d="M920.07,352.09q1,1.9-.84,5.23L913,368.61h-2.59l5.89-10.73q1.42-2.59.67-4.06t-3.53-1.45a11.38,11.38,0,0,0-5.89,1.78,14.66,14.66,0,0,0-4.65,4.64l-5.42,9.89H895l10.08-18.38h2.55l-2.35,4.28a15.55,15.55,0,0,1,4.79-3.24,14.56,14.56,0,0,1,5.47-1.15Q919.08,350.19,920.07,352.09Z"/><path class="k" d="M921.2,374.37a8.84,8.84,0,0,1-4,1.11,4.27,4.27,0,0,1-3.42-1.24l2.14-1.83a3.28,3.28,0,0,0,2.39.82,5.65,5.65,0,0,0,2.61-.75,12.2,12.2,0,0,0,2.81-2.15l1.88-1.9,1.77-18.22h2.7L928.27,366l15.24-15.84h2.63l-20.73,21.06A16.84,16.84,0,0,1,921.2,374.37Z"/><path class="k" d="M952.3,367.12a13.25,13.25,0,0,1-5.16,1.4q-2.28,0-2.9-1.28t.8-3.88l6-10.94h-2.85l1-1.82h2.89l2.6-4.73h2.55l-2.6,4.73,6.49-.08-1,1.86h-6.47l-5.79,10.56q-1.87,3.4.87,3.39a10.47,10.47,0,0,0,3.85-1Z"/><path class="k" d="M983.45,351.7q1,1.9-.84,5.23l-6.19,11.29h-2.59l5.89-10.73q1.42-2.59.67-4.06T976.86,352a11.47,11.47,0,0,0-6.3,2,14.76,14.76,0,0,0-4.76,5.25l-4.94,9h-2.55l14.27-26h2.55l-6.58,12a14.61,14.61,0,0,1,10.34-4.47Q982.46,349.8,983.45,351.7Z"/><path class="k" d="M995.2,349.8h2.55l-10.08,18.38h-2.55Zm6.1-6.49a1.25,1.25,0,0,1-.15,1.17,3.28,3.28,0,0,1-1.17,1.2,2.86,2.86,0,0,1-1.51.5,1,1,0,0,1-1-.48,1.26,1.26,0,0,1,.14-1.19,3.19,3.19,0,0,1,1.16-1.18,3,3,0,0,1,1.53-.48,1,1,0,0,1,1,.46Z"/><path class="k" d="M1022.1,351.47q1,1.9-.84,5.23l-6.2,11.3h-2.59l5.89-10.73q1.42-2.59.67-4.06t-3.53-1.45a11.38,11.38,0,0,0-5.89,1.78,14.66,14.66,0,0,0-4.65,4.64l-5.42,9.89H997l10.08-18.38h2.55l-2.35,4.28a15.55,15.55,0,0,1,4.79-3.24,14.56,14.56,0,0,1,5.47-1.15Q1021.11,349.57,1022.1,351.47Z"/><path class="k" d="M1051.09,349.45l-9,16.45a16.9,16.9,0,0,1-3.78,4.67,17.1,17.1,0,0,1-5.16,3.09,16.55,16.55,0,0,1-5.82,1.1q-4.42,0-6.64-2.75l2.14-1.69a5.4,5.4,0,0,0,2.18,1.84,7.67,7.67,0,0,0,3.31.61,12.39,12.39,0,0,0,6.47-1.87,13,13,0,0,0,4.72-4.9l1.63-3a16.6,16.6,0,0,1-4.7,3,13.25,13.25,0,0,1-5.16,1.12,6.49,6.49,0,0,1-4.11-1.11,3.89,3.89,0,0,1-1.5-3.14,9.2,9.2,0,0,1,1.35-4.57,17.06,17.06,0,0,1,3.66-4.57,17.74,17.74,0,0,1,5-3.14,14,14,0,0,1,5.37-1.15,6.23,6.23,0,0,1,3.94,1,3.67,3.67,0,0,1,1.38,3l2.21-4Zm-14.14,14.85a14.22,14.22,0,0,0,3.91-2.49,13.34,13.34,0,0,0,2.86-3.55,7.15,7.15,0,0,0,1-3.57,3.05,3.05,0,0,0-1.19-2.46,5.07,5.07,0,0,0-3.2-.87,10.81,10.81,0,0,0-4.18.92,14.49,14.49,0,0,0-3.92,2.49,13.23,13.23,0,0,0-2.89,3.58,6.85,6.85,0,0,0-1,3.55,3.14,3.14,0,0,0,1.2,2.44,5.06,5.06,0,0,0,3.22.87,10.8,10.8,0,0,0,4.19-.9Z"/><polyline class="c" points="288.78 0.02 152.16 234.42 293.94 472.33 561.49 473.46 697.78 235.51 561.99 0 288.8 0"/><polyline class="d" points="288.78 0.02 424.57 235.53 697.78 235.51 561.99 0 288.8 0"/><polyline class="e" points="288.78 0.02 152.16 234.42 293.94 472.33 424.57 235.53 288.8 0"/><line class="a" x1="424.57" y1="235.53" x2="288.78" y2="0.02"/><g class="f"><g class="n"><path class="h" d="M239.63,288.09a83.35,83.35,0,0,0,12.88,15.07A120.08,120.08,0,0,0,263.9,325q1.54,2.29,3.14,4.37c-7.15-2.73-13.6-8.2-19-16.26l-.37-.56c-5.59-8.49-9.56-19.1-12-30.88q1.87,3.32,4,6.42m14,12.9a180.3,180.3,0,0,1-7.57-23.88,161.09,161.09,0,0,0,10.41,18.46l.87,1.31a127.08,127.08,0,0,0,11,14.16,65.78,65.78,0,0,1-14.7-10M265,323a111.29,111.29,0,0,1-9.23-17,63.94,63.94,0,0,0,17.59,10.22,71.76,71.76,0,0,0,17.3,12.6,35.27,35.27,0,0,1-12.06,2.57,30.8,30.8,0,0,1-7.75-.82A73,73,0,0,1,265,323m-24.34-37a91.36,91.36,0,0,1-6.16-10.64,157.13,157.13,0,0,1-1.27-33.89,188.51,188.51,0,0,0,9.26,27.8,199,199,0,0,0,8,28.78,82.74,82.74,0,0,1-9.86-12.07m19.86-12.62a9.74,9.74,0,0,1-1.48-4.68c-.25-3.71,1.31-6.82,3.49-6.94a3.52,3.52,0,0,1,3,1.84,9.69,9.69,0,0,1,1.47,4.68c.27,3.73-1.3,6.82-3.48,6.94a3.5,3.5,0,0,1-3-1.84m13.86,60.8a31.87,31.87,0,0,0,4.45.21,37.34,37.34,0,0,0,15.36-3.94A39.13,39.13,0,0,0,310,333.55a30.88,30.88,0,0,0,4.41-.42c-5.73,6.4-12.29,10.07-19.42,10.25s-14.11-3.17-20.59-9.27m-42.26-64.2a104,104,0,0,1-7.84-34A100.41,100.41,0,0,1,228,201.6,170.39,170.39,0,0,0,232,235.72a168.45,168.45,0,0,0,.14,34.22M279,318a52.64,52.64,0,0,0,14.54,1.7,50.9,50.9,0,0,0,14.3-2.44A56,56,0,0,1,294,327.33,61.53,61.53,0,0,1,279,318m-38.12-58.1a184.73,184.73,0,0,1-7.11-24.21,176.06,176.06,0,0,1,4.2-24.49q-.48,11.79.24,24.38c.49,8.38,1.42,16.49,2.67,24.32m56.59,68.76a64.72,64.72,0,0,0,15.75-13.4,58.26,58.26,0,0,0,16.32-11.06c-3.21,10.12-7.3,18.71-12.09,25.23a29.75,29.75,0,0,1-7.63,1.2,36.62,36.62,0,0,1-12.33-2m-64.87-98.69a158.07,158.07,0,0,1-2.78-33.85,78.64,78.64,0,0,1,13.25-23.39,190.71,190.71,0,0,0-4.55,29.1,178.92,178.92,0,0,0-5.92,28.17m85,79.89a116.13,116.13,0,0,0,10-16A147.79,147.79,0,0,0,335.7,275,171,171,0,0,1,331,299.11a59.5,59.5,0,0,1-13.5,10.72M241.12,193.71a170.93,170.93,0,0,1,4.7-24.16,59.2,59.2,0,0,1,13.46-10.74,116.75,116.75,0,0,0-10,16,148.46,148.46,0,0,0-8.16,18.9m80,134.29a103.16,103.16,0,0,0,11.33-26.83A78.07,78.07,0,0,0,346.65,279c-1,11.87-3.7,22.64-8.25,31.38S328,324.92,321.07,328M230.18,189.68c1-11.87,3.7-22.63,8.25-31.38s10.38-14.59,17.33-17.72c-4.55,7.22-8.39,16.32-11.34,26.84a77.88,77.88,0,0,0-14.25,22.26m103.6,106.25a189.17,189.17,0,0,0,4.54-29,176.59,176.59,0,0,0,6-28.16A157.57,157.57,0,0,1,347,272.52a78.65,78.65,0,0,1-13.25,23.39M247.33,164.47c3.21-10.12,7.3-18.71,12.09-25.23a29.54,29.54,0,0,1,7.64-1.19,36.36,36.36,0,0,1,12.33,2,64.77,64.77,0,0,0-15.75,13.41,58.08,58.08,0,0,0-16.32,11m18.39,93.77c-6.62-9.83-6.33-36.07,7.25-43.85,6.44-3.69,14.43-.66,21.44-2.91,7.47-2.37,16-11.19,19.28-23.37,4.4,20.28,9.86,51.89,1.69,70.47-10.06,22.85-36.48,3.7-45.27,14.08a14.47,14.47,0,0,1,5.26-4.43c8.13-3.47,11.82-4.66,16.65-8.51,9.08-7.24,17.92-23.87,19.4-41.84-3.15,17.13-13.54,31.21-23.17,36.46-6.56,3.59-20.28,6.48-20.35,6.49l-.4-.51a11,11,0,0,1-1.78-2.08m73.18-.61a244.08,244.08,0,0,0-.24-24.54c-.5-8.36-1.41-16.49-2.66-24.32A183.82,183.82,0,0,1,343.11,233a174.79,174.79,0,0,1-4.22,24.57M269,151.37a55.93,55.93,0,0,1,13.85-10.06,61.5,61.5,0,0,1,15,9.35,52,52,0,0,0-14.55-1.73A50.71,50.71,0,0,0,269,151.36m39.44,6.22a65.94,65.94,0,0,1,14.7,10.06,180.84,180.84,0,0,1,7.57,23.87,160,160,0,0,0-10.4-18.45l-.88-1.33a127.18,127.18,0,0,0-11-14.15M348.81,267a170.85,170.85,0,0,0-3.92-34c.42-4.41.69-8.85.79-13.28a161.75,161.75,0,0,0-.89-20.9,104,104,0,0,1,7.78,33.87A100.65,100.65,0,0,1,348.82,267M262.51,135.5c5.73-6.41,12.29-10.08,19.42-10.25s14.11,3.17,20.59,9.27a32,32,0,0,0-4.45-.21,37.29,37.29,0,0,0-15.37,3.94,39,39,0,0,0-15.79-3.18,31.72,31.72,0,0,0-4.41.43m81.11,91.78a187.3,187.3,0,0,0-9.28-27.87,198,198,0,0,0-8-28.77,82.64,82.64,0,0,1,9.86,12.07,91.78,91.78,0,0,1,6.17,10.67,152.63,152.63,0,0,1,1.61,26c-.06,2.63-.19,5.26-.36,7.88m-57.42-87.44a35.07,35.07,0,0,1,12.06-2.56,29.68,29.68,0,0,1,7.75.82,72.58,72.58,0,0,1,5.86,7.63,110.91,110.91,0,0,1,9.21,16.94,63.73,63.73,0,0,0-17.58-10.23,71.91,71.91,0,0,0-17.3-12.6m23.62-.57c7.14,2.71,13.58,8.17,19,16.22l.4.59c5.52,8.37,9.57,18.94,12,31q-1.89-3.38-4-6.52a83.49,83.49,0,0,0-12.91-15.07A119.79,119.79,0,0,0,313,143.67q-1.55-2.31-3.17-4.39m20.11,14.08c-6.57-9.75-14.55-15.88-23.42-18.09-7.64-8.47-16.08-13.19-24.75-13s-16.52,5.33-23.12,14.14c-8.76,2.7-16.11,9.41-21.52,19.82-5.52,10.59-8.44,24-9,38.73a103.5,103.5,0,0,0-5.58,41A107.76,107.76,0,0,0,233,276.53c2.31,14.68,6.83,27.9,13.59,38.19l.38.58c6.58,9.7,14.58,15.87,23.43,18.08,7.64,8.47,16.09,13.18,24.74,13s16.53-5.32,23.13-14.14c8.76-2.7,16.1-9.41,21.52-19.81,5.52-10.59,8.45-24,9-38.74a103.51,103.51,0,0,0,5.57-41,107.79,107.79,0,0,0-10.39-40.46c-2.36-15-7-28.16-13.65-38.29l-.4-.6"/></g></g><polygon class="a" points="290.11 469.11 154.48 233.63 291.01 2.49 424.57 235.53 290.11 469.11"/><line class="i" x1="280.88" y1="240.33" x2="3" y2="240.33"/><path class="k" d="M494.65,301.8q1.37,1.62-.21,4.49a10.7,10.7,0,0,1-3.31,3.66,11.82,11.82,0,0,1-4.73,2q2.74.33,3.47,2t-.65,4.16A11.88,11.88,0,0,1,484,323a17.87,17.87,0,0,1-8,1.8l-11.26.07,13.46-24.55,11.15-.07Q493.28,300.18,494.65,301.8Zm-11.76,19.51a8.37,8.37,0,0,0,3.8-3.5q1.21-2.21,0-3.43t-4.61-1.2l-8.41,0-5.16,9.4,8.41,0A13.65,13.65,0,0,0,482.89,321.31Zm5.34-11.43a7.92,7.92,0,0,0,3.34-3.25q1.11-2,.17-3.15T488,302.42l-8.41,0-4.73,8.63,8.41,0a10.73,10.73,0,0,0,5-1.17Z"/><path class="k" d="M520.67,306.17l-10.08,18.38H508l2.4-4.38a15.62,15.62,0,0,1-4.76,3.31,13.83,13.83,0,0,1-5.37,1.19q-3.54,0-4.49-1.88t.88-5.23l6.19-11.29h2.59L499.57,317q-1.42,2.6-.68,4t3.44,1.43a11,11,0,0,0,6.13-2,14.89,14.89,0,0,0,4.68-5.22l4.94-9Z"/><path class="k" d="M530,306.11h2.55l-10,18.36H520Zm6.1-6.49a1.25,1.25,0,0,1-.15,1.17,3.29,3.29,0,0,1-1.17,1.2,2.86,2.86,0,0,1-1.51.5,1,1,0,0,1-1-.48,1.26,1.26,0,0,1,.14-1.19,3.2,3.2,0,0,1,1.16-1.18,2.94,2.94,0,0,1,1.53-.48,1,1,0,0,1,1,.46Z"/><path class="k" d="M546.25,298.39h2.55l-14.29,26H532Z"/><path class="k" d="M576.51,298.21l-14.27,26h-2.55L562,320a17.71,17.71,0,0,1-5,3.23,13.82,13.82,0,0,1-5.42,1.17,7,7,0,0,1-4.37-1.16,4,4,0,0,1-1.6-3.31,9.85,9.85,0,0,1,1.44-4.83,17.85,17.85,0,0,1,3.87-4.81,19.2,19.2,0,0,1,5.23-3.32,14.54,14.54,0,0,1,5.62-1.22,6.52,6.52,0,0,1,4.18,1.13,3.88,3.88,0,0,1,1.45,3.21l6.52-11.89Zm-18.92,23.24a15,15,0,0,0,4.1-2.59,13.92,13.92,0,0,0,3-3.76,7.48,7.48,0,0,0,1.1-3.76,3.27,3.27,0,0,0-1.25-2.6,5.27,5.27,0,0,0-3.36-.92,11.28,11.28,0,0,0-4.4,1,15.49,15.49,0,0,0-4.13,2.63,13.92,13.92,0,0,0-3.06,3.78A7.34,7.34,0,0,0,548.5,319a3.19,3.19,0,0,0,1.29,2.56,5.46,5.46,0,0,0,3.39.91,11.4,11.4,0,0,0,4.39-1Z"/><path class="k" d="M422.34,368.78l.42-6.5-14.76.09-6.7,6.54h-2.82l25.43-24.59h2.74l-1.46,24.44Zm-12.12-8.59,12.71-.08.88-13.22Z"/><path class="k" d="M456.11,352.09q1,1.9-.84,5.23l-6.19,11.29h-2.59l5.89-10.73q1.42-2.59.67-4.06t-3.54-1.43a11.38,11.38,0,0,0-5.89,1.78,14.66,14.66,0,0,0-4.65,4.64l-5.46,9.9H431L441,350.33h2.55l-2.35,4.28a15.55,15.55,0,0,1,4.79-3.24,14.56,14.56,0,0,1,5.47-1.15Q455.13,350.19,456.11,352.09Z"/><path class="k" d="M457.24,374.37a8.84,8.84,0,0,1-4,1.11,4.27,4.27,0,0,1-3.42-1.24l2.14-1.83a3.28,3.28,0,0,0,2.39.82,5.65,5.65,0,0,0,2.61-.75,12.2,12.2,0,0,0,2.81-2.15l1.88-1.9,1.77-18.22h2.7L464.31,366l15.2-15.84h2.63l-20.73,21.05A16.84,16.84,0,0,1,457.24,374.37Z"/><path class="k" d="M488.35,367.12a13.25,13.25,0,0,1-5.16,1.4q-2.28,0-2.9-1.28t.8-3.88l6-10.94h-2.85l1-1.82h2.89l2.6-4.73h2.55l-2.6,4.73,6.49-.08-1,1.86H489.7l-5.79,10.56q-1.87,3.4.87,3.39a10.47,10.47,0,0,0,3.85-1Z"/><path class="k" d="M519.51,351.7q1,1.9-.84,5.23l-6.19,11.29h-2.59l5.89-10.73q1.42-2.59.67-4.06T512.9,352a11.47,11.47,0,0,0-6.3,2,14.76,14.76,0,0,0-4.76,5.25l-4.94,9h-2.55l14.27-26h2.55l-6.58,12a14.61,14.61,0,0,1,10.34-4.47Q518.51,349.8,519.51,351.7Z"/><path class="k" d="M531.25,349.8h2.55l-10.08,18.38h-2.55Zm6.1-6.49a1.25,1.25,0,0,1-.15,1.17,3.28,3.28,0,0,1-1.17,1.2,2.86,2.86,0,0,1-1.51.5,1,1,0,0,1-1-.48,1.26,1.26,0,0,1,.14-1.19,3.19,3.19,0,0,1,1.16-1.18,3,3,0,0,1,1.53-.48,1,1,0,0,1,1,.46Z"/><path class="k" d="M558.14,351.47q1,1.9-.84,5.23L551.11,368h-2.6l5.89-10.73q1.42-2.59.67-4.06t-3.56-1.44a11.38,11.38,0,0,0-5.89,1.78,14.66,14.66,0,0,0-4.65,4.64l-5.42,9.89H533l10.08-18.38h2.55l-2.31,4.3a15.55,15.55,0,0,1,4.79-3.24,14.56,14.56,0,0,1,5.47-1.15Q557.15,349.57,558.14,351.47Z"/><path class="k" d="M587.13,349.45l-9,16.45a16.9,16.9,0,0,1-3.78,4.67,17.1,17.1,0,0,1-5.16,3.09,16.55,16.55,0,0,1-5.82,1.1q-4.42,0-6.64-2.75l2.14-1.69a5.4,5.4,0,0,0,2.18,1.84,7.67,7.67,0,0,0,3.31.61,12.39,12.39,0,0,0,6.47-1.87,13,13,0,0,0,4.68-4.9l1.63-3a16.6,16.6,0,0,1-4.7,3,13.25,13.25,0,0,1-5.16,1.12,6.49,6.49,0,0,1-4.07-1.12,3.89,3.89,0,0,1-1.5-3.14,9.2,9.2,0,0,1,1.35-4.57,17.06,17.06,0,0,1,3.66-4.57,17.74,17.74,0,0,1,5-3.14,14,14,0,0,1,5.37-1.15,6.23,6.23,0,0,1,3.94,1,3.67,3.67,0,0,1,1.38,3l2.21-4ZM573,364.3a14.22,14.22,0,0,0,3.91-2.49,13.34,13.34,0,0,0,2.86-3.55,7.15,7.15,0,0,0,1-3.57,3,3,0,0,0-1.19-2.46,5.07,5.07,0,0,0-3.2-.87,10.81,10.81,0,0,0-4.18.92,14.49,14.49,0,0,0-3.92,2.49,13.23,13.23,0,0,0-2.89,3.58,6.85,6.85,0,0,0-1,3.55,3.14,3.14,0,0,0,1.2,2.44,5.06,5.06,0,0,0,3.22.87,10.8,10.8,0,0,0,4.19-.9Z"/><g class="o"><path class="k" d="M486.75,113c15.5.39,22.81-10.55,16.28-24.38-3.75-7.94-11.6-15.6-21-20.49-2.91-1.52-4.7-4.32-4-6.26.42-1.16,1.64-1.75,3.18-1.71a7.91,7.91,0,0,1,3.38.94C497.33,67.74,508,78.1,513,88.88c8.85,18.74-1,33.58-22.07,33s-45.34-16.22-54.19-35c-5-10.7-4.12-20.76,2.5-26.91a3.56,3.56,0,0,1,2.57-.81,8.59,8.59,0,0,1,4.86,1.9c2.58,2,3.44,4.8,1.92,6.22-5,4.6-5.63,11.84-1.85,19.86,6.53,13.83,24.46,25.4,40,25.79M477.28,93a9.93,9.93,0,0,1-8-5.15l-14.15-30c-1.31-2.77.15-5,3.26-4.88a9.93,9.93,0,0,1,8,5.16l14.15,30c1.31,2.76-.15,5-3.25,4.87m0-57.6L422.75,34c-4.74-.12-9.15,2.73-9.78,6.33l-7.39,41.45c-.64,3.6,2.19,9.59,6.28,13.31L459,137.91c4.09,3.72,11.32,6.86,16.06,7l54.56,1.37c4.73.12,9.13-2.73,9.78-6.33l7.38-41.45c.64-3.6-2.18-9.58-6.28-13.31L493.37,42.34c-4.1-3.72-11.33-6.86-16.06-7"/></g><path class="k" d="M439.51,175a13.93,13.93,0,0,0-3.46-.55,3.13,3.13,0,0,0-2.13.56q-.6.56-.08,1.55a4,4,0,0,0,1.41,1.5,9.33,9.33,0,0,0,2.08,1q1.14.39,3,.85a45,45,0,0,1,4.39,1.29,13.29,13.29,0,0,1,3.47,1.92,9.8,9.8,0,0,1,2.77,3.35,5.15,5.15,0,0,1,.71,3.46,3.28,3.28,0,0,1-1.85,2.26,8.84,8.84,0,0,1-4,.79,18.45,18.45,0,0,1-5.59-.94,27.2,27.2,0,0,1-5.65-2.52l-.07-3.54a25,25,0,0,0,5,2.38,13.94,13.94,0,0,0,4.37.86,3.47,3.47,0,0,0,2.45-.67,1.43,1.43,0,0,0,.07-1.82A4,4,0,0,0,445,185.2a8.83,8.83,0,0,0-2.09-1q-1.15-.37-3-.83-2.6-.65-4.36-1.26a12.83,12.83,0,0,1-3.43-1.87,9.59,9.59,0,0,1-2.75-3.3,5,5,0,0,1-.69-3.31,3.18,3.18,0,0,1,1.78-2.19,8.64,8.64,0,0,1,4-.79,18.71,18.71,0,0,1,4.6.61,25.06,25.06,0,0,1,4.65,1.67l.18,3.63A28,28,0,0,0,439.51,175Z"/><path class="k" d="M464.15,177a15.45,15.45,0,0,1,4.4,3,17,17,0,0,1,3.32,4.43,9.73,9.73,0,0,1,1.3,4.38,3.63,3.63,0,0,1-1.26,3,5.56,5.56,0,0,1-3.65,1.06,10.11,10.11,0,0,1-3.75-.72A13,13,0,0,1,461,190l4.56,8.72H461.4l-11.82-22.61h4.14l1.43,2.73a2.94,2.94,0,0,1,1.26-2.13,5.23,5.23,0,0,1,3-.74A11.58,11.58,0,0,1,464.15,177Zm4,10.92a4.28,4.28,0,0,0-.55-3.62,9.68,9.68,0,0,0-3.22-3.59,7.37,7.37,0,0,0-4.17-1.39q-2.13,0-2.74,1.4t.54,3.6a9.75,9.75,0,0,0,3.23,3.63,7.41,7.41,0,0,0,4.2,1.39,2.71,2.71,0,0,0,2.71-1.44Z"/><path class="k" d="M477.94,176.73a4.72,4.72,0,0,1,3-.89l2,3.91q-2.72-.15-3.59,1.2t.33,3.65l4.18,8h-4.14L471.09,176h4.14l1.67,3.19A3.07,3.07,0,0,1,477.94,176.73Z"/><path class="k" d="M484.26,169.53a4.64,4.64,0,0,1,1.58,1.74,1.93,1.93,0,0,1,.22,1.71,1.31,1.31,0,0,1-1.33.69,3.65,3.65,0,0,1-2-.68,4.57,4.57,0,0,1-1.56-1.7,2,2,0,0,1-.24-1.74,1.31,1.31,0,0,1,1.33-.69A3.66,3.66,0,0,1,484.26,169.53Zm-.35,6.47h4.14l8.68,16.59h-4.14Z"/><path class="k" d="M508.86,177.5a12.33,12.33,0,0,1,4.13,4.66l5.42,10.36h-4.17l-4.8-9.18A7.15,7.15,0,0,0,507,180.6a5.92,5.92,0,0,0-3.3-1q-2.05,0-2.55,1.37a4.29,4.29,0,0,0,.59,3.41l4.26,8.16h-4.14L493.17,176h4.14l1.62,3.1q.08-3.2,4.41-3.27A9.75,9.75,0,0,1,508.86,177.5Z"/><path class="k" d="M529.93,175.89l7.85,15a7.44,7.44,0,0,1,1,4.11,3.47,3.47,0,0,1-1.71,2.71,8,8,0,0,1-4.2,1,18.92,18.92,0,0,1-8.34-2.19l.13-2.92a13.5,13.5,0,0,0,6.22,1.73q2.29,0,3-1.16t-.29-3.14l-1-2a2.7,2.7,0,0,1-1.21,1.94,5.15,5.15,0,0,1-2.83.67,10.82,10.82,0,0,1-4.47-1,14.71,14.71,0,0,1-4.15-2.82,15.88,15.88,0,0,1-3.14-4.17,8.88,8.88,0,0,1-1.19-4.11,3.48,3.48,0,0,1,1.22-2.78,5.25,5.25,0,0,1,3.43-1,9.57,9.57,0,0,1,3.52.68,11.94,11.94,0,0,1,3.25,1.92l-1.3-2.48Zm.5,11.29a4.05,4.05,0,0,0-.53-3.43,9.23,9.23,0,0,0-3-3.42,7,7,0,0,0-4-1.31,2.47,2.47,0,0,0-2.56,1.34,4.1,4.1,0,0,0,.49,3.41,9.49,9.49,0,0,0,3.08,3.42,7,7,0,0,0,4,1.31,2.49,2.49,0,0,0,2.52-1.33Z"/><path class="k" d="M556.36,172.16a9.3,9.3,0,0,1,4.13,4,4.26,4.26,0,0,1,.58,3.09,2.51,2.51,0,0,1-2,1.73,10.55,10.55,0,0,1,7.61,5.48q1.46,2.79.08,4.39t-5.2,1.61H551.43l-11.35-21.71H550A13.64,13.64,0,0,1,556.36,172.16Zm.26,6.71q.57-.72-.1-2a4.49,4.49,0,0,0-1.94-1.92,6,6,0,0,0-2.93-.65h-5.41l2.76,5.27h5.41a2.74,2.74,0,0,0,2.21-.7Zm5.41,9.21q.74-.78,0-2.17a4.82,4.82,0,0,0-2.24-2.09,7.68,7.68,0,0,0-3.56-.72h-5.41l3,5.74h5.41a3.76,3.76,0,0,0,2.8-.76Z"/><path class="k" d="M577.76,176.71a16.17,16.17,0,0,1,4.7,3,15.48,15.48,0,0,1,3.42,4.39,8.6,8.6,0,0,1,1.19,4.44,3.79,3.79,0,0,1-1.59,3,7,7,0,0,1-4.11,1.06,13.79,13.79,0,0,1-5.26-1,16,16,0,0,1-4.72-3,15.71,15.71,0,0,1-3.45-4.43,8.42,8.42,0,0,1-1.17-4.39,3.78,3.78,0,0,1,1.62-3,7.11,7.11,0,0,1,4.16-1.07A13.61,13.61,0,0,1,577.76,176.71Zm-6.18,3.8q-.61,1.4.56,3.63a9.75,9.75,0,0,0,3.23,3.63,7.45,7.45,0,0,0,4.23,1.39,2.63,2.63,0,0,0,2.71-1.4q.61-1.4-.56-3.63a9.75,9.75,0,0,0-3.24-3.63,7.37,7.37,0,0,0-4.17-1.39q-2.15,0-2.76,1.4Z"/><path class="k" d="M597.75,176.67a16.15,16.15,0,0,1,4.7,3,15.48,15.48,0,0,1,3.42,4.39,8.61,8.61,0,0,1,1.19,4.44,3.79,3.79,0,0,1-1.59,3,7,7,0,0,1-4.11,1.06,13.8,13.8,0,0,1-5.26-1,16,16,0,0,1-4.72-3,15.7,15.7,0,0,1-3.45-4.43,8.43,8.43,0,0,1-1.17-4.39,3.78,3.78,0,0,1,1.62-3,7.1,7.1,0,0,1,4.16-1.06A13.61,13.61,0,0,1,597.75,176.67Zm-6.19,3.8q-.61,1.4.56,3.63a9.74,9.74,0,0,0,3.23,3.63,7.45,7.45,0,0,0,4.23,1.39,2.63,2.63,0,0,0,2.71-1.4q.61-1.4-.56-3.63a9.75,9.75,0,0,0-3.23-3.63,7.37,7.37,0,0,0-4.17-1.39q-2.16,0-2.76,1.4Z"/><path class="k" d="M623.25,191.27a5.37,5.37,0,0,1-3.63,1.22,8,8,0,0,1-4.25-1.25,9.17,9.17,0,0,1-3.34-3.7l-4.28-8.19h-2.39l-1.57-2.95h2.42l-2.38-4.56h4.11l2.38,4.56h4.87l1.54,2.95h-4.87l3.91,7.47a4.4,4.4,0,0,0,1.3,1.63,2.72,2.72,0,0,0,1.59.48,4,4,0,0,0,2.06-.69Z"/></svg>