<svg xmlns="http://www.w3.org/2000/svg" xmlns:xlink="http://www.w3.org/1999/xlink" width="2036.83" height="473.46" viewBox="0 0 2036.83 473.46"><defs><style>.a,.c,.l{fill:none;}.b{fill:#34302d;}.c,.l{stroke-linecap:round;stroke-miterlimit:10;stroke-width:6px;}.c{stroke:url(#a);}.d{fill:#67aa3c;}.e{fill:#77bc1f;}.f{fill:#4f9c40;}.g{fill:#5c943e;}.h{opacity:0.7;}.i{isolation:isolate;}.j{clip-path:url(#b);}.k{fill:#8ec74a;}.l{stroke:#ccc;}.m{clip-path:url(#c);}.n{fill:#fff;}.o{clip-path:url(#d);}.p{clip-path:url(#e);}.q{clip-path:url(#f);}.r{clip-path:url(#g);}</style><linearGradient id="a" x1="1721.35" y1="238.82" x2="2036.83" y2="238.82" gradientUnits="userSpaceOnUse"><stop offset="0.82" stop-color="#d0d0d0"/><stop offset="1" stop-color="#ccc" stop-opacity="0"/></linearGradient><clipPath id="b" transform="translate(-10.09)"><polygon class="a" points="1375.54 238.64 1457.96 75.93 1561.71 230 1479.28 392.71 1375.54 238.64"/></clipPath><clipPath id="c" transform="translate(-10.09)"><polygon class="a" points="1586.92 136.8 1545.5 23.95 1723 20.85 1764.42 133.7 1586.92 136.8"/></clipPath><clipPath id="d" transform="translate(-10.09)"><polygon class="a" points="909.05 238.64 991.48 75.93 1095.22 230 1012.79 392.71 909.05 238.64"/></clipPath><clipPath id="e" transform="translate(-10.09)"><polygon class="a" points="1125.35 141.59 1085.99 31.29 1261.25 28.23 1300.61 138.53 1125.35 141.59"/></clipPath><clipPath id="f" transform="translate(-10.09)"><polygon class="a" points="445.82 238.64 528.25 75.93 631.99 230 549.56 392.71 445.82 238.64"/></clipPath><clipPath id="g" transform="translate(-10.09)"><polygon class="a" points="683.61 143.83 631.26 32.95 769.77 36.42 822.12 147.3 683.61 143.83"/></clipPath></defs><title>Asset 1</title><path class="b" d="M44.53,328.22,34.21,346.59l.06,9.55-3.82,0-.06-9.39-10.7-18.41,3.9,0,8.69,14.16,8.35-14.26Z" transform="translate(-10.09)"/><path class="b" d="M60.64,336.16a9.74,9.74,0,0,1,3.85,3.74,11.79,11.79,0,0,1,.07,11,9.69,9.69,0,0,1-3.8,3.81,12.31,12.31,0,0,1-11.23.07,9.73,9.73,0,0,1-3.84-3.74A11.83,11.83,0,0,1,45.62,340a9.74,9.74,0,0,1,3.8-3.79,12.32,12.32,0,0,1,11.23-.07ZM51.38,339a6.6,6.6,0,0,0-2.49,2.66,8.09,8.09,0,0,0-.87,3.85,8.29,8.29,0,0,0,.92,3.9,6.44,6.44,0,0,0,2.52,2.63,7.64,7.64,0,0,0,7.32,0,6.43,6.43,0,0,0,2.49-2.66,8.29,8.29,0,0,0,.87-3.91,8.09,8.09,0,0,0-.92-3.84A6.61,6.61,0,0,0,58.71,339a7,7,0,0,0-3.65-.93A7.08,7.08,0,0,0,51.38,339Z" transform="translate(-10.09)"/><path class="b" d="M89.63,334.75l.13,21.06-3.74,0,0-4.46q-2,4.51-7.77,4.63a7.54,7.54,0,0,1-5.75-2.13,8.32,8.32,0,0,1-2.11-6l-.08-13,3.74,0,.07,12A5.71,5.71,0,0,0,75.58,351a5.32,5.32,0,0,0,4,1.47,5.92,5.92,0,0,0,4.67-2.12,7.83,7.83,0,0,0,1.7-5.25l-.06-10.35Z" transform="translate(-10.09)"/><path class="b" d="M103.49,335.76a8.76,8.76,0,0,1,4.53-1.24l0,3.58a6.77,6.77,0,0,0-7.44,6.53l.07,11.11-3.7,0-.13-21.06,3.7,0,0,4.54A7.62,7.62,0,0,1,103.49,335.76Z" transform="translate(-10.09)"/><path class="b" d="M143.66,355.47l-3-6.75-14.69.09-2.86,6.79-4,0,12.21-27.94,4,0,12.51,27.79Zm-16.19-10.13,11.7-.07-6-13.5Z" transform="translate(-10.09)"/><path class="b" d="M168.34,335.5a9.3,9.3,0,0,1,3.61,3.76,12.79,12.79,0,0,1,.09,11.09,9.09,9.09,0,0,1-3.52,3.76,10.2,10.2,0,0,1-5.23,1.37,9.6,9.6,0,0,1-4.7-1.09,8,8,0,0,1-3.2-3.17l.07,11.9-3.7,0-.18-28.78,3.7,0,0,4.18a8,8,0,0,1,3.14-3.2,9.41,9.41,0,0,1,4.63-1.14A10.2,10.2,0,0,1,168.34,335.5Zm-2.23,15.78a6.57,6.57,0,0,0,2.49-2.68,8.2,8.2,0,0,0,.87-3.87,8,8,0,0,0-.94-3.82,6.76,6.76,0,0,0-2.52-2.65,6.9,6.9,0,0,0-3.63-.93,7,7,0,0,0-3.64,1,6.7,6.7,0,0,0-2.51,2.68,8.56,8.56,0,0,0,0,7.7,6.73,6.73,0,0,0,2.54,2.63,7.42,7.42,0,0,0,7.28,0Z" transform="translate(-10.09)"/><path class="b" d="M195.33,335.33a9.3,9.3,0,0,1,3.61,3.76,12.79,12.79,0,0,1,.09,11.09,9.09,9.09,0,0,1-3.52,3.76,10.2,10.2,0,0,1-5.23,1.37,9.6,9.6,0,0,1-4.7-1.09,8,8,0,0,1-3.2-3.17l.07,11.9-3.7,0-.18-28.78,3.7,0,0,4.18a8,8,0,0,1,3.14-3.2,9.41,9.41,0,0,1,4.63-1.14A10.2,10.2,0,0,1,195.33,335.33Zm-2.23,15.78a6.57,6.57,0,0,0,2.49-2.68,8.2,8.2,0,0,0,.87-3.87,8,8,0,0,0-.94-3.82,6.76,6.76,0,0,0-2.52-2.65,6.9,6.9,0,0,0-3.63-.93,7,7,0,0,0-3.64,1,6.7,6.7,0,0,0-2.51,2.68,8.56,8.56,0,0,0,0,7.7,6.73,6.73,0,0,0,2.54,2.63,7.42,7.42,0,0,0,7.28,0Z" transform="translate(-10.09)"/><path class="b" d="M137.75,286.56v9.49a2.37,2.37,0,0,1-2.37,2.37H17.22a7.12,7.12,0,1,1,0-14.24H135.38A2.37,2.37,0,0,1,137.75,286.56Zm-2.37-26H34.19V170H183.11v17a2.37,2.37,0,0,0,2.37,2.37H195a2.37,2.37,0,0,0,2.37-2.37V162.91a7.12,7.12,0,0,0-7.12-7.12H27.07a7.12,7.12,0,0,0-7.12,7.12V267.76a7.12,7.12,0,0,0,7.12,7.12H135.38a2.37,2.37,0,0,0,2.37-2.37V263a2.37,2.37,0,0,0-2.37-2.37ZM211.6,206v90.2a2.37,2.37,0,0,1-2.37,2.37H154.46a2.37,2.37,0,0,1-2.37-2.37V206a2.37,2.37,0,0,1,2.37-2.37h54.76A2.37,2.37,0,0,1,211.6,206s0,0,0,.07Zm-26.11,84.6a3.66,3.66,0,1,0-3.66,3.66,3.66,3.66,0,0,0,3.66-3.66Zm19-73.59a2.37,2.37,0,0,0-2.37-2.37H161.56a2.37,2.37,0,0,0-2.37,2.37v62a2.37,2.37,0,0,0,2.37,2.37h40.57A2.37,2.37,0,0,0,204.5,279V217Z" transform="translate(-10.09)"/><line class="c" x1="1724.35" y1="238.82" x2="2033.83" y2="238.82"/><polyline class="d" points="1460.68 0.02 1324.07 234.42 1465.85 472.33 1733.4 473.46 1869.68 235.51 1733.89 0 1460.7 0"/><polyline class="e" points="1460.68 0.02 1596.47 235.53 1869.68 235.51 1733.89 0 1460.7 0"/><polyline class="f" points="1460.68 0.02 1324.07 234.42 1465.85 472.33 1596.47 235.53 1460.7 0"/><line class="g" x1="1596.47" y1="235.53" x2="1460.68" y2="0.02"/><g class="h"><g class="i"><g class="j"><path class="k" d="M1419.84,288.09a83.45,83.45,0,0,0,12.91,15.08A120,120,0,0,0,1444.11,325q1.54,2.29,3.14,4.36c-7.14-2.72-13.59-8.19-19-16.26l-.37-.56c-5.59-8.49-9.56-19.1-12-30.88q1.87,3.32,4,6.42m14,12.9a181,181,0,0,1-7.57-23.88,161.09,161.09,0,0,0,10.39,18.45l.87,1.31a127.17,127.17,0,0,0,11,14.16,65.94,65.94,0,0,1-14.71-10m11.33,21.93A111.21,111.21,0,0,1,1436,306a64,64,0,0,0,17.59,10.22,71.71,71.71,0,0,0,17.3,12.59,35.1,35.1,0,0,1-12.06,2.57,30.28,30.28,0,0,1-7.75-.82,72.88,72.88,0,0,1-5.85-7.62m-24.34-37a91.45,91.45,0,0,1-6.14-10.61,157.38,157.38,0,0,1-1.27-33.89,188.36,188.36,0,0,0,9.27,27.81,199,199,0,0,0,8,28.77,82.81,82.81,0,0,1-9.86-12.07m19.82-12.6a9.76,9.76,0,0,1-1.48-4.68c-.25-3.71,1.31-6.82,3.49-6.94a3.54,3.54,0,0,1,3,1.85,9.66,9.66,0,0,1,1.47,4.68c.27,3.73-1.3,6.82-3.47,6.94a3.51,3.51,0,0,1-3-1.84m13.86,60.81a31.82,31.82,0,0,0,4.45.2,37.47,37.47,0,0,0,15.37-3.93,39.13,39.13,0,0,0,15.79,3.17,30.82,30.82,0,0,0,4.41-.43c-5.73,6.41-12.29,10.08-19.42,10.25s-14.11-3.17-20.59-9.26m-42.26-64.21a104,104,0,0,1-7.84-34,100.53,100.53,0,0,1,3.75-34.31,170.89,170.89,0,0,0,3.94,34.12,168.75,168.75,0,0,0,.14,34.22M1459.17,318a52.21,52.21,0,0,0,14.55,1.73,50.92,50.92,0,0,0,14.31-2.43,56,56,0,0,1-13.85,10.06,61.53,61.53,0,0,1-15-9.36m-38.12-58.1a184.73,184.73,0,0,1-7.11-24.21,176.83,176.83,0,0,1,4.2-24.49c-.31,7.87-.25,16,.25,24.39s1.41,16.49,2.67,24.31m56.59,68.76a64.72,64.72,0,0,0,15.75-13.4,58.26,58.26,0,0,0,16.32-11c-3.22,10.12-7.3,18.7-12.09,25.23a29.78,29.78,0,0,1-7.64,1.19,36.62,36.62,0,0,1-12.33-2m-64.86-98.68a158.14,158.14,0,0,1-2.79-33.85,78.8,78.8,0,0,1,13.25-23.39,191.36,191.36,0,0,0-4.55,29.07,178.38,178.38,0,0,0-5.91,28.18m85,79.89a116.91,116.91,0,0,0,10-16,149.75,149.75,0,0,0,8.16-18.85,171.72,171.72,0,0,1-4.69,24.11,59.76,59.76,0,0,1-13.47,10.74m-76.42-116.12a170.28,170.28,0,0,1,4.69-24.17,59.73,59.73,0,0,1,13.46-10.74,116.05,116.05,0,0,0-10,16,147.5,147.5,0,0,0-8.16,18.9M1501.27,328a102.7,102.7,0,0,0,11.33-26.83A77.9,77.9,0,0,0,1526.86,279c-1,11.87-3.7,22.64-8.25,31.38s-10.38,14.59-17.33,17.72m-90.89-138.36c1-11.87,3.7-22.63,8.25-31.38S1429,143.72,1436,140.59a102.91,102.91,0,0,0-11.34,26.83,78.05,78.05,0,0,0-14.25,22.26M1514,295.95a189.9,189.9,0,0,0,4.54-29,177.12,177.12,0,0,0,5.95-28.16,158,158,0,0,1,2.76,33.75A78.65,78.65,0,0,1,1514,295.95m-86.46-131.47c3.21-10.12,7.3-18.71,12.09-25.23a29.23,29.23,0,0,1,7.63-1.2,36.63,36.63,0,0,1,12.33,2,64.77,64.77,0,0,0-15.75,13.41,58.08,58.08,0,0,0-16.31,11.05m18.38,93.76c-6.62-9.83-6.32-36.07,7.25-43.85,6.44-3.69,14.43-.66,21.45-2.9,7.47-2.37,16-11.19,19.27-23.37,4.41,20.29,9.86,51.89,1.69,70.47-10.06,22.85-36.48,3.7-45.27,14.08a14.47,14.47,0,0,1,5.26-4.42c8.13-3.47,11.81-4.66,16.64-8.52,9.08-7.24,17.92-23.87,19.4-41.84-3.15,17.13-13.54,31.21-23.17,36.46-6.56,3.59-20.28,6.49-20.35,6.49l-.4-.51a11,11,0,0,1-1.78-2.08m73.17-.61a245.14,245.14,0,0,0-.24-24.53c-.5-8.36-1.41-16.5-2.67-24.33a183.83,183.83,0,0,1,7.13,24.28,174,174,0,0,1-4.22,24.57m-69.88-106.25a55.71,55.71,0,0,1,13.84-10.07,61.44,61.44,0,0,1,15,9.36,52.23,52.23,0,0,0-14.56-1.73,50.69,50.69,0,0,0-14.3,2.44m39.44,6.22a65.77,65.77,0,0,1,14.7,10.05,180.2,180.2,0,0,1,7.57,23.87,160,160,0,0,0-10.4-18.45l-.88-1.33a127,127,0,0,0-11-14.15M1529,267.05a170.85,170.85,0,0,0-3.92-34c.42-4.41.7-8.84.79-13.28a161.75,161.75,0,0,0-.89-20.9,103.94,103.94,0,0,1,7.78,33.87,100.53,100.53,0,0,1-3.75,34.31M1442.68,135.5c5.73-6.4,12.29-10.08,19.42-10.25s14.11,3.17,20.59,9.27a32,32,0,0,0-4.45-.21,37.28,37.28,0,0,0-15.36,3.95,38.91,38.91,0,0,0-15.79-3.18,31.78,31.78,0,0,0-4.41.42m81.11,91.79a187.79,187.79,0,0,0-9.28-27.87,198.33,198.33,0,0,0-8-28.77,82.64,82.64,0,0,1,9.86,12.07,91.67,91.67,0,0,1,6.17,10.67,152.24,152.24,0,0,1,1.61,26c-.05,2.63-.19,5.26-.36,7.88m-57.43-87.45a35.24,35.24,0,0,1,12.06-2.56,30.18,30.18,0,0,1,7.75.82,72.66,72.66,0,0,1,5.86,7.63,110.87,110.87,0,0,1,9.21,16.94,63.82,63.82,0,0,0-17.58-10.23,72,72,0,0,0-17.3-12.6m23.62-.57c7.14,2.72,13.58,8.18,19,16.22l.4.59c5.52,8.38,9.57,18.94,12,31q-1.89-3.38-4-6.52a83.4,83.4,0,0,0-12.9-15.07,119.9,119.9,0,0,0-11.34-21.81q-1.55-2.31-3.17-4.39m20.11,14.08c-6.57-9.75-14.55-15.88-23.42-18.09-7.64-8.47-16.08-13.19-24.74-13s-16.53,5.32-23.13,14.13c-8.76,2.7-16.1,9.42-21.52,19.82-5.52,10.59-8.44,24-9,38.73a103.59,103.59,0,0,0-5.58,41,107.8,107.8,0,0,0,10.45,40.57c2.31,14.67,6.83,27.89,13.59,38.18l.38.58c6.57,9.76,14.56,15.9,23.44,18.13,7.63,8.47,16.08,13.18,24.74,13s16.52-5.33,23.13-14.15c8.76-2.7,16.1-9.41,21.52-19.81,5.52-10.59,8.45-24,9-38.74a103.42,103.42,0,0,0,5.57-41,107.75,107.75,0,0,0-10.39-40.46c-2.35-15-7-28.16-13.65-38.29l-.4-.6" transform="translate(-10.09)"/></g></g></g><polygon class="a" points="1460.23 469.11 1324.6 233.63 1461.13 2.49 1594.69 235.53 1460.23 469.11"/><line class="l" x1="1456.19" y1="239.43" x2="1318.96" y2="239.43"/><g class="i"><g class="m"><path class="n" d="M1637.89,22.34c-22.82.4-39.77,13.89-41.41,32.33C1575,56.86,1564,74.33,1572,96.05c8.41,22.92,34.29,40.41,58.13,40l96.69-1.69c20.79-.36,31.82-16.5,24.49-36.47-5.95-16.2-22.11-29.81-39.07-34.16q1.22,2.44,2.32,4.87C1728.87,73,1741.8,84.72,1746.66,98c3.1,8.45,2.57,16.4-1.48,22.41s-11.16,9.39-20,9.54l-96.69,1.69c-21.62.38-44.41-15.27-51.89-35.63-7-19,2.44-34.89,21.91-36.89l2.66-.27.22-2.44c1.51-17.06,17.2-29.24,38.15-29.61,15.12-.26,31.83,5.71,45.65,15.42a28.33,28.33,0,0,0,2-3.35c-15.15-10.58-33.24-16.79-49.26-16.51" transform="translate(-10.09)"/><path class="n" d="M1635.39,122.65c-.83,0-1.12,0-1.36-.22s-.9-.77-2.26-4.5-1.22-4.32-1.05-4.54.36-.24,1.19-.26l2,0a2.4,2.4,0,0,1,1.39.21c.33.21.89.78,2.26,4.52s1.23,4.31,1.05,4.52-.36.25-1.22.26l-2,0m-1.66-12.34-3.66.06c-1.73,0-2.47.24-2.92.85-.65.82-.81,2.4.8,6.78s2.92,5.92,4.16,6.72a5.61,5.61,0,0,0,3.5.74l3.66-.06c1.73,0,2.47-.26,2.94-.86.62-.83.8-2.42-.8-6.78s-2.95-5.94-4.16-6.73a5.61,5.61,0,0,0-3.52-.74" transform="translate(-10.09)"/><polyline class="n" points="1640.1 108.33 1637.53 108.37 1634.3 109.77 1635.94 112.03 1637.9 111.26 1641.82 121.92 1645.07 121.87 1640.1 108.33"/><path class="n" d="M1664.42,114.25c-.62,0-.84,0-1-.16s-.67-.58-1.7-3.39-.92-3.25-.8-3.42.27-.18.9-.2l1.54,0a1.86,1.86,0,0,1,1,.16c.24.16.68.59,1.71,3.4s.92,3.25.79,3.4-.27.18-.91.2l-1.54,0m-1.25-9.29-2.75,0c-1.3,0-1.85.18-2.19.64-.49.61-.61,1.81.6,5.1s2.2,4.46,3.13,5.06a4.26,4.26,0,0,0,2.63.56l2.75,0c1.3,0,1.87-.2,2.22-.64.47-.63.6-1.82-.6-5.11s-2.21-4.47-3.13-5.06a4.23,4.23,0,0,0-2.66-.56" transform="translate(-10.09)"/><polyline class="n" points="1664.71 100.32 1662.77 100.36 1660.33 101.42 1661.57 103.13 1663.05 102.55 1666.02 110.62 1668.48 110.58 1664.71 100.32"/><polyline class="n" points="1672.44 95.18 1670.65 95.21 1668.41 96.18 1669.55 97.75 1670.92 97.22 1673.64 104.64 1675.9 104.6 1672.44 95.18"/><path class="n" d="M1689.29,95.15c-.41,0-.55,0-.67-.1s-.44-.37-1.11-2.2-.6-2.12-.51-2.22.17-.12.58-.13l1,0a1.19,1.19,0,0,1,.68.11c.16.1.45.39,1.11,2.21s.6,2.12.51,2.22-.18.11-.6.12l-1,0m-.81-6-1.79,0c-.85,0-1.21.12-1.43.42s-.4,1.18.39,3.32,1.43,2.9,2,3.29a2.79,2.79,0,0,0,1.72.37l1.79,0c.84,0,1.21-.13,1.44-.42s.4-1.19-.39-3.32-1.45-2.91-2-3.29a2.74,2.74,0,0,0-1.73-.37" transform="translate(-10.09)"/><path class="n" d="M1693.53,86.84c-.34,0-.46,0-.55-.09s-.36-.31-.92-1.83-.5-1.75-.43-1.84.14-.1.48-.11h.83a1,1,0,0,1,.56.09c.13.09.37.32.92,1.83s.5,1.75.43,1.84-.15.1-.49.11h-.83m-.67-5-1.48,0c-.7,0-1,.1-1.18.35s-.34,1,.32,2.75,1.19,2.4,1.69,2.72a2.28,2.28,0,0,0,1.42.3l1.48,0c.7,0,1-.11,1.19-.35s.32-1-.33-2.75-1.2-2.41-1.68-2.72a2.27,2.27,0,0,0-1.43-.3" transform="translate(-10.09)"/><path class="n" d="M1695.95,78.72c-.25,0-.33,0-.41-.07s-.26-.23-.66-1.32-.36-1.28-.31-1.34.1-.08.35-.08h.6a.67.67,0,0,1,.41.07c.09.06.26.23.67,1.33s.36,1.27.31,1.33-.1.08-.36.08h-.6m-.49-3.65-1.08,0c-.51,0-.73.07-.85.25s-.24.71.23,2a3.64,3.64,0,0,0,1.23,2,1.6,1.6,0,0,0,1,.22l1.08,0c.51,0,.73-.07.87-.25s.24-.71-.24-2a3.7,3.7,0,0,0-1.23-2,1.66,1.66,0,0,0-1-.22" transform="translate(-10.09)"/><path class="n" d="M1689.68,28.25a23.17,23.17,0,0,1-2.54,10.59,28.33,28.33,0,0,1-2,3.35c-5.13,7.49-13.9,13-22.44,15.35-12.45,3.34-25.4,1-36.26,5.87-21,9.41-14.58,31.42-1.7,44.07a5.28,5.28,0,0,0,2.15.18c7.36-.13,31.5-3.13,42.78-8.84,17.56-8.89,24-25.19,25-31.23a1.42,1.42,0,0,1,1.28-.66,3,3,0,0,1,.81.11,2.73,2.73,0,0,1,2,1.76c.87,6.25,2.72,27.85-16.29,41.9-8.65,6.39-15.89,9.59-21.43,11.3-.92.28-.62,1,.54,1h0l.9,0,4.25-.06,4.28-.06c16.91-.3,41.83-1.82,48.31-16.37,4.33-10.6,1.37-24.08-4.85-37.87q-1.1-2.43-2.32-4.87c-6.23-12.44-14.72-24.89-22.53-35.48" transform="translate(-10.09)"/></g></g><path class="n" d="M1639.4,303.15a8.77,8.77,0,0,0-3.89-.78,16.85,16.85,0,0,0-6.4,1.4,23.22,23.22,0,0,0-6.12,3.76,18.51,18.51,0,0,0-4.34,5.18,9.05,9.05,0,0,0-1.32,5.15,5,5,0,0,0,2,3.71,7.83,7.83,0,0,0,4.89,1.35,16,16,0,0,0,4.73-.82,24.19,24.19,0,0,0,4.93-2.21l.73,1.57a30.32,30.32,0,0,1-6,2.69,19.15,19.15,0,0,1-5.75,1,9.71,9.71,0,0,1-6-1.64,6.1,6.1,0,0,1-2.5-4.53,11,11,0,0,1,1.6-6.27,21.89,21.89,0,0,1,5.29-6.25,28.79,28.79,0,0,1,7.51-4.54,20.94,20.94,0,0,1,7.86-1.71,11.06,11.06,0,0,1,4.7.9,6.59,6.59,0,0,1,3,2.55l-2.48,1.69A5.43,5.43,0,0,0,1639.4,303.15Z" transform="translate(-10.09)"/><path class="n" d="M1661.89,307.5a4.13,4.13,0,0,1,1.78,3.26,8.88,8.88,0,0,1-1.32,4.76,17.55,17.55,0,0,1-3.94,4.83,19.24,19.24,0,0,1-5.38,3.32,15.62,15.62,0,0,1-5.82,1.21,7.63,7.63,0,0,1-4.53-1.14,4.11,4.11,0,0,1-1.77-3.27,9.05,9.05,0,0,1,1.35-4.81,17.22,17.22,0,0,1,3.91-4.78,19.29,19.29,0,0,1,5.38-3.3,15.64,15.64,0,0,1,5.82-1.21A7.65,7.65,0,0,1,1661.89,307.5Zm-10,1.83a14.43,14.43,0,0,0-4.07,2.58,14.1,14.1,0,0,0-3,3.76,7.62,7.62,0,0,0-1.13,3.78,3.1,3.1,0,0,0,1.26,2.54,5.5,5.5,0,0,0,3.38.89,11.49,11.49,0,0,0,4.38-.94,14.41,14.41,0,0,0,4.07-2.58,14.21,14.21,0,0,0,3-3.79,7.54,7.54,0,0,0,1.11-3.75,3.1,3.1,0,0,0-1.26-2.54,5.51,5.51,0,0,0-3.38-.89A11.51,11.51,0,0,0,1651.86,309.33Z" transform="translate(-10.09)"/><path class="n" d="M1689.69,308.06q1,1.9-.84,5.23l-6.19,11.29-2.59,0,5.89-10.73q1.42-2.59.67-4.06t-3.53-1.45a11.37,11.37,0,0,0-5.89,1.78,14.65,14.65,0,0,0-4.65,4.64l-5.42,9.89-2.55,0,10.08-18.38,2.55,0-2.35,4.28a15.55,15.55,0,0,1,4.79-3.25,14.56,14.56,0,0,1,5.47-1.15Q1688.7,306.16,1689.69,308.06Z" transform="translate(-10.09)"/><path class="n" d="M1716.47,307.9q1,1.9-.84,5.23l-6.19,11.29-2.59,0,5.89-10.73q1.42-2.59.67-4.06t-3.53-1.45A11.38,11.38,0,0,0,1704,310a14.65,14.65,0,0,0-4.65,4.64l-5.42,9.89-2.55,0,10.08-18.38,2.55,0-2.35,4.28a15.55,15.55,0,0,1,4.79-3.25,14.57,14.57,0,0,1,5.47-1.15Q1715.48,306,1716.47,307.9Z" transform="translate(-10.09)"/><path class="n" d="M1741.61,308.55q.94,2.7-1.77,7.3l-16.62.1q-1.35,2.95-.25,4.74t4.18,1.77a12.84,12.84,0,0,0,3.88-.65,16.31,16.31,0,0,0,3.8-1.81l.71,1.32a20,20,0,0,1-4.7,2.25,16.12,16.12,0,0,1-4.9.82,7.45,7.45,0,0,1-4.49-1.14,4.1,4.1,0,0,1-1.72-3.26,9.12,9.12,0,0,1,1.36-4.8,17.58,17.58,0,0,1,3.9-4.79,19.13,19.13,0,0,1,5.33-3.32,15.16,15.16,0,0,1,5.7-1.21Q1740.67,305.85,1741.61,308.55Zm-3,5.49q1.39-2.87.44-4.56t-4-1.67a11.84,11.84,0,0,0-6,1.75,14.34,14.34,0,0,0-4.82,4.57Z" transform="translate(-10.09)"/><path class="n" d="M1759.35,307.79a11.41,11.41,0,0,0-4.34.94,14.48,14.48,0,0,0-4.06,2.56,13.93,13.93,0,0,0-3,3.74,7.53,7.53,0,0,0-1.11,3.75,3.1,3.1,0,0,0,1.26,2.54,5.44,5.44,0,0,0,3.34.89,12.77,12.77,0,0,0,3.9-.65,14.65,14.65,0,0,0,3.72-1.84l.68,1.39a18.05,18.05,0,0,1-4.6,2.3,15.83,15.83,0,0,1-4.93.83,7.38,7.38,0,0,1-4.45-1.14,4.09,4.09,0,0,1-1.71-3.28,9.13,9.13,0,0,1,1.35-4.78,17.58,17.58,0,0,1,3.9-4.79,19.14,19.14,0,0,1,5.33-3.32,15.26,15.26,0,0,1,5.74-1.21,9.31,9.31,0,0,1,3.86.67,4.5,4.5,0,0,1,2.21,1.94l-2.31,1.59Q1762.89,307.77,1759.35,307.79Z" transform="translate(-10.09)"/><path class="n" d="M1776.44,322.75a13.24,13.24,0,0,1-5.16,1.4q-2.28,0-2.9-1.28t.8-3.88l6-10.94-2.85,0,1-1.82,2.89,0,2.6-4.73,2.55,0-2.6,4.73,6.49-.07-1,1.86-6.47,0-5.79,10.56q-1.87,3.4.87,3.39a10.48,10.48,0,0,0,3.85-1Z" transform="translate(-10.09)"/><path class="n" d="M1578.3,344.49l17.8-.11-1.19,2.17-15.18.09-4.81,8.77,13.58-.08-1.19,2.17-13.58.08-5.06,9.22,15.67-.1-1.19,2.17-18.3.11Z" transform="translate(-10.09)"/><path class="n" d="M1597.57,350.49l2.74,0-2.17,16,15.33-16.07,2.66,0-18,18.43-2.7,0Z" transform="translate(-10.09)"/><path class="n" d="M1634.43,352.9q.94,2.7-1.77,7.3l-16.62.1q-1.35,2.95-.25,4.74t4.18,1.77a12.83,12.83,0,0,0,3.88-.65,16.31,16.31,0,0,0,3.8-1.81l.71,1.32a20,20,0,0,1-4.7,2.25,16.15,16.15,0,0,1-4.9.82,7.46,7.46,0,0,1-4.49-1.14,4.1,4.1,0,0,1-1.72-3.26,9.11,9.11,0,0,1,1.36-4.8,17.57,17.57,0,0,1,3.9-4.79,19.12,19.12,0,0,1,5.33-3.32,15.16,15.16,0,0,1,5.7-1.21Q1633.49,350.2,1634.43,352.9Zm-3,5.49q1.39-2.87.44-4.56t-4-1.67a11.86,11.86,0,0,0-6,1.75,14.34,14.34,0,0,0-4.82,4.57Z" transform="translate(-10.09)"/><path class="n" d="M1650.15,351.23a12.69,12.69,0,0,1,5.06-1.17l-1.21,2.21a11.29,11.29,0,0,0-6,1.73,14.65,14.65,0,0,0-4.77,4.73l-5.39,9.82-2.55,0,10.08-18.38,2.55,0-2.35,4.28A16,16,0,0,1,1650.15,351.23Z" transform="translate(-10.09)"/><path class="n" d="M1652.49,374.27a8.84,8.84,0,0,1-4,1.11,4.27,4.27,0,0,1-3.42-1.24l2.14-1.83a3.28,3.28,0,0,0,2.39.82,5.66,5.66,0,0,0,2.61-.75,12.18,12.18,0,0,0,2.81-2.15l1.88-1.9,1.77-18.22,2.7,0-1.81,15.74L1674.76,350l2.63,0-20.73,21.06A16.82,16.82,0,0,1,1652.49,374.27Z" transform="translate(-10.09)"/><path class="n" d="M1683.6,367a13.24,13.24,0,0,1-5.16,1.4q-2.28,0-2.9-1.28t.8-3.88l6-10.94-2.85,0,1-1.82,2.89,0,2.6-4.73,2.55,0-2.6,4.73,6.49-.07-1,1.86-6.47,0-5.79,10.56q-1.86,3.4.87,3.39a10.48,10.48,0,0,0,3.85-1Z" transform="translate(-10.09)"/><path class="n" d="M1714.74,351.6q1,1.9-.84,5.23l-6.19,11.29-2.59,0,5.89-10.73q1.42-2.59.67-4.06t-3.53-1.45a11.47,11.47,0,0,0-6.3,2,14.75,14.75,0,0,0-4.76,5.25l-4.94,9-2.55,0,14.27-26,2.55,0-6.58,12a14.6,14.6,0,0,1,10.34-4.47Q1713.75,349.7,1714.74,351.6Z" transform="translate(-10.09)"/><path class="n" d="M1726.5,349.69l2.55,0L1719,368.06l-2.55,0Zm6.1-6.49a1.25,1.25,0,0,1-.15,1.17,3.29,3.29,0,0,1-1.17,1.2,2.86,2.86,0,0,1-1.51.5,1,1,0,0,1-1-.48,1.26,1.26,0,0,1,.14-1.19,3.19,3.19,0,0,1,1.16-1.18,2.94,2.94,0,0,1,1.53-.48A1,1,0,0,1,1732.6,343.21Z" transform="translate(-10.09)"/><path class="n" d="M1753.39,351.36q1,1.9-.84,5.23l-6.19,11.29-2.59,0,5.89-10.73q1.42-2.59.67-4.06t-3.53-1.45a11.39,11.39,0,0,0-5.89,1.78,14.66,14.66,0,0,0-4.65,4.64l-5.42,9.89-2.55,0,10.08-18.38,2.55,0-2.35,4.28a15.53,15.53,0,0,1,4.79-3.24,14.55,14.55,0,0,1,5.47-1.15Q1752.41,349.47,1753.39,351.36Z" transform="translate(-10.09)"/><path class="n" d="M1782.38,349.35l-9,16.45a16.91,16.91,0,0,1-3.78,4.67,17.1,17.1,0,0,1-5.16,3.09,16.55,16.55,0,0,1-5.82,1.1q-4.41,0-6.64-2.75l2.14-1.69a5.4,5.4,0,0,0,2.18,1.84,7.67,7.67,0,0,0,3.31.61,12.4,12.4,0,0,0,6.47-1.87,13,13,0,0,0,4.74-4.94l1.63-3a16.61,16.61,0,0,1-4.7,3,13.26,13.26,0,0,1-5.16,1.12,6.5,6.5,0,0,1-4.11-1.11,3.89,3.89,0,0,1-1.5-3.14,9.21,9.21,0,0,1,1.35-4.57,17,17,0,0,1,3.66-4.57,17.75,17.75,0,0,1,5-3.14,14,14,0,0,1,5.37-1.15,6.23,6.23,0,0,1,3.94,1,3.67,3.67,0,0,1,1.38,3l2.21-4Zm-14.14,14.85a14.23,14.23,0,0,0,3.91-2.49,13.35,13.35,0,0,0,2.86-3.55,7.15,7.15,0,0,0,1-3.57,3.05,3.05,0,0,0-1.19-2.46,5.07,5.07,0,0,0-3.2-.87,10.81,10.81,0,0,0-4.18.92,14.46,14.46,0,0,0-3.92,2.49,13.24,13.24,0,0,0-2.89,3.58,6.86,6.86,0,0,0-1,3.55,3.14,3.14,0,0,0,1.2,2.44,5.06,5.06,0,0,0,3.22.87A10.79,10.79,0,0,0,1768.25,364.21Z" transform="translate(-10.09)"/><path class="n" d="M1605.5,157a13.52,13.52,0,0,0-3.36-.54,3,3,0,0,0-2.07.55q-.58.54-.08,1.51a3.86,3.86,0,0,0,1.37,1.46,9.06,9.06,0,0,0,2,1q1.11.38,2.92.82a43.7,43.7,0,0,1,4.26,1.26,12.92,12.92,0,0,1,3.37,1.86,9.51,9.51,0,0,1,2.69,3.25,5,5,0,0,1,.69,3.36,3.19,3.19,0,0,1-1.8,2.19,8.59,8.59,0,0,1-3.89.76,17.91,17.91,0,0,1-5.43-.91,26.39,26.39,0,0,1-5.49-2.45l-.06-3.44a24.3,24.3,0,0,0,4.89,2.31,13.54,13.54,0,0,0,4.24.84,3.37,3.37,0,0,0,2.38-.65,1.39,1.39,0,0,0,.07-1.76,3.92,3.92,0,0,0-1.38-1.49,8.57,8.57,0,0,0-2-.95q-1.12-.36-3-.81-2.53-.63-4.23-1.23a12.47,12.47,0,0,1-3.33-1.82,9.32,9.32,0,0,1-2.67-3.21,4.86,4.86,0,0,1-.67-3.21,3.09,3.09,0,0,1,1.73-2.13,8.39,8.39,0,0,1,3.86-.76,18.16,18.16,0,0,1,4.47.59,24.34,24.34,0,0,1,4.51,1.62l.17,3.53A27.23,27.23,0,0,0,1605.5,157Z" transform="translate(-10.09)"/><path class="n" d="M1629.46,159a15,15,0,0,1,4.27,2.9,16.47,16.47,0,0,1,3.23,4.31,9.46,9.46,0,0,1,1.26,4.25,3.53,3.53,0,0,1-1.22,2.87,5.4,5.4,0,0,1-3.54,1,9.82,9.82,0,0,1-3.65-.7,12.64,12.64,0,0,1-3.43-2.06l4.43,8.47h-4l-11.48-22h4l1.39,2.65a2.86,2.86,0,0,1,1.22-2.07,5.08,5.08,0,0,1,2.89-.72A11.25,11.25,0,0,1,1629.46,159Zm3.89,10.61a4.15,4.15,0,0,0-.54-3.51,9.4,9.4,0,0,0-3.13-3.49,7.16,7.16,0,0,0-4-1.35q-2.07,0-2.66,1.36a4.1,4.1,0,0,0,.53,3.5,9.47,9.47,0,0,0,3.14,3.52,7.2,7.2,0,0,0,4.08,1.35A2.53,2.53,0,0,0,1633.35,169.6Z" transform="translate(-10.09)"/><path class="n" d="M1642.86,158.75a4.59,4.59,0,0,1,2.91-.87l2,3.8q-2.64-.15-3.49,1.17t.32,3.54l4.06,7.77h-4l-8.43-16.12h4l1.62,3.1A3,3,0,0,1,1642.86,158.75Z" transform="translate(-10.09)"/><path class="n" d="M1649,151.75a4.51,4.51,0,0,1,1.53,1.69,1.88,1.88,0,0,1,.22,1.66,1.27,1.27,0,0,1-1.29.67,3.55,3.55,0,0,1-2-.66,4.44,4.44,0,0,1-1.52-1.66,1.93,1.93,0,0,1-.23-1.69,1.27,1.27,0,0,1,1.29-.67A3.56,3.56,0,0,1,1649,151.75Zm-.34,6.28h4l8.43,16.12h-4Z" transform="translate(-10.09)"/><path class="n" d="M1672.89,159.5a12,12,0,0,1,4,4.53l5.26,10.06h-4.05l-4.66-8.92a7,7,0,0,0-2.38-2.66,5.75,5.75,0,0,0-3.2-1q-2,0-2.48,1.33a4.17,4.17,0,0,0,.57,3.32l4.14,7.92h-4L1657.65,158h4l1.58,3q.08-3.11,4.28-3.18A9.48,9.48,0,0,1,1672.89,159.5Z" transform="translate(-10.09)"/><path class="n" d="M1693.37,157.93l7.62,14.58a7.23,7.23,0,0,1,1,4,3.37,3.37,0,0,1-1.66,2.63,7.73,7.73,0,0,1-4.08.93,18.38,18.38,0,0,1-8.11-2.12l.13-2.84a13.12,13.12,0,0,0,6,1.68q2.23,0,3-1.12t-.28-3l-1-1.9a2.62,2.62,0,0,1-1.18,1.89,5,5,0,0,1-2.75.65,10.51,10.51,0,0,1-4.35-1,14.28,14.28,0,0,1-4-2.74,15.39,15.39,0,0,1-3-4.05,8.61,8.61,0,0,1-1.16-4,3.38,3.38,0,0,1,1.19-2.7,5.1,5.1,0,0,1,3.33-1,9.29,9.29,0,0,1,3.42.66,11.58,11.58,0,0,1,3.16,1.86l-1.26-2.41Zm.49,11a3.94,3.94,0,0,0-.52-3.33,9,9,0,0,0-3-3.33,6.77,6.77,0,0,0-3.84-1.27,2.4,2.4,0,0,0-2.49,1.3,4,4,0,0,0,.48,3.32,9.22,9.22,0,0,0,3,3.33,6.76,6.76,0,0,0,3.84,1.27A2.42,2.42,0,0,0,1693.85,168.89Z" transform="translate(-10.09)"/><path class="n" d="M1718.32,157a10.22,10.22,0,0,0-3.55-.72,5,5,0,0,0-3.19.94,3.4,3.4,0,0,0-1.28,2.58,6.93,6.93,0,0,0,.92,3.6,12.9,12.9,0,0,0,2.84,3.6,14.68,14.68,0,0,0,4,2.59,10.37,10.37,0,0,0,4.18.94,5.67,5.67,0,0,0,2.76-.67,4.25,4.25,0,0,0,1.81-1.84l3.83,2.65a6.07,6.07,0,0,1-2.56,2.68,8.17,8.17,0,0,1-4.06,1,16.28,16.28,0,0,1-6.48-1.43,22.55,22.55,0,0,1-6.14-3.92,19.43,19.43,0,0,1-4.36-5.5,10,10,0,0,1-1.35-5.49,5.26,5.26,0,0,1,2.1-3.9,8.2,8.2,0,0,1,5.06-1.43,15.83,15.83,0,0,1,5,.89A21.66,21.66,0,0,1,1723,156l-.87,3A16.31,16.31,0,0,0,1718.32,157Z" transform="translate(-10.09)"/><path class="n" d="M1724.08,151.62h4L1739.79,174h-4Z" transform="translate(-10.09)"/><path class="n" d="M1748.76,158.71a15.71,15.71,0,0,1,4.56,2.87,15,15,0,0,1,3.33,4.26,8.36,8.36,0,0,1,1.16,4.31,3.68,3.68,0,0,1-1.55,2.9,6.76,6.76,0,0,1-4,1,13.4,13.4,0,0,1-5.11-1,15.56,15.56,0,0,1-4.59-2.89,15.26,15.26,0,0,1-3.35-4.31,8.19,8.19,0,0,1-1.13-4.27,3.67,3.67,0,0,1,1.57-2.88,6.9,6.9,0,0,1,4-1A13.23,13.23,0,0,1,1748.76,158.71Zm-6,3.69q-.59,1.36.54,3.53a9.47,9.47,0,0,0,3.14,3.52,7.24,7.24,0,0,0,4.11,1.35,2.56,2.56,0,0,0,2.63-1.36q.59-1.36-.54-3.53a9.47,9.47,0,0,0-3.14-3.52,7.16,7.16,0,0,0-4-1.35Q1743.34,161,1742.76,162.41Z" transform="translate(-10.09)"/><path class="n" d="M1771.22,157.76l8.43,16.12h-4.05l-1.56-3q0,3.14-4.11,3.15a9.26,9.26,0,0,1-5.26-1.65,12,12,0,0,1-4-4.52l-5.28-10.09h4.05l4.68,8.95a7,7,0,0,0,2.33,2.65,5.5,5.5,0,0,0,3.12,1q1.9,0,2.34-1.33a4.3,4.3,0,0,0-.6-3.29l-4.16-8Z" transform="translate(-10.09)"/><path class="n" d="M1788.92,151.47l11.69,22.36h-4l-1.35-2.59a2.86,2.86,0,0,1-1.22,2.07,5.08,5.08,0,0,1-2.89.72,11.31,11.31,0,0,1-4.67-1,15.17,15.17,0,0,1-4.3-2.92,16.46,16.46,0,0,1-3.25-4.32,9.4,9.4,0,0,1-1.25-4.27,3.55,3.55,0,0,1,1.25-2.88,5.42,5.42,0,0,1,3.53-1,9.8,9.8,0,0,1,3.69.72,12.91,12.91,0,0,1,3.44,2.07l-4.65-8.89Zm4,17.89a4.15,4.15,0,0,0-.54-3.54,9.52,9.52,0,0,0-3.17-3.54,7.26,7.26,0,0,0-4.1-1.36q-2.07,0-2.65,1.38a4.25,4.25,0,0,0,.52,3.54,9.84,9.84,0,0,0,3.18,3.54,7.18,7.18,0,0,0,4.09,1.36A2.59,2.59,0,0,0,1792.93,169.37Z" transform="translate(-10.09)"/><path class="n" d="M1645,187.62a20.85,20.85,0,0,1,6,3.74,19.07,19.07,0,0,1,4.3,5.45,10,10,0,0,1,1.38,5.44,5,5,0,0,1-2.1,3.76,8.77,8.77,0,0,1-5.2,1.37l-8.84,0-11-21.09,9,0A17,17,0,0,1,1645,187.62Zm5.85,15.31a3.17,3.17,0,0,0,1.2-2.48,7.25,7.25,0,0,0-1-3.6,13.07,13.07,0,0,0-2.83-3.63,13.61,13.61,0,0,0-3.86-2.5,10.4,10.4,0,0,0-4.1-.88h-4.79l7.31,14h4.95A4.9,4.9,0,0,0,1650.87,202.93Z" transform="translate(-10.09)"/><path class="n" d="M1674,207.33l-1-2a2.58,2.58,0,0,1-1.39,1.6,6.34,6.34,0,0,1-2.84.55,9.17,9.17,0,0,1-3.38-.64,10,10,0,0,1-3-1.79,8.82,8.82,0,0,1-2-2.56q-1.18-2.26-.21-3.54t4-1.32H1669l-.22-.42a5.31,5.31,0,0,0-2.11-2.2,6.3,6.3,0,0,0-3.19-.78,6.2,6.2,0,0,0-4.13,1.52l-2.87-2.71a10.12,10.12,0,0,1,2.74-1.53,10.85,10.85,0,0,1,3.48-.48,11.18,11.18,0,0,1,5.78,1.5,10.52,10.52,0,0,1,4,4.21l5.54,10.55Zm-3.32-3.63a1.69,1.69,0,0,0,.36-2l-.76-1.45h-4.17a3.34,3.34,0,0,0-2.12.47q-.51.47,0,1.52a3.89,3.89,0,0,0,1.64,1.63,5,5,0,0,0,2.46.6A3.54,3.54,0,0,0,1670.73,203.7Z" transform="translate(-10.09)"/><path class="n" d="M1691.68,206.29a5.22,5.22,0,0,1-3.53,1.18,7.8,7.8,0,0,1-4.13-1.21,8.91,8.91,0,0,1-3.24-3.6l-4.16-8h-2.32l-1.53-2.86h2.35l-2.32-4.43h4l2.32,4.43h4.73l1.5,2.86h-4.73l3.8,7.26a4.27,4.27,0,0,0,1.26,1.58,2.64,2.64,0,0,0,1.54.46,3.87,3.87,0,0,0,2-.67Z" transform="translate(-10.09)"/><path class="n" d="M1705.12,207.26l-1-2a2.58,2.58,0,0,1-1.39,1.6,6.34,6.34,0,0,1-2.84.55,9.18,9.18,0,0,1-3.38-.64,10,10,0,0,1-3-1.79,8.82,8.82,0,0,1-2.05-2.56q-1.18-2.26-.21-3.54t4-1.32H1700l-.22-.42a5.31,5.31,0,0,0-2.11-2.2,6.3,6.3,0,0,0-3.19-.78,6.21,6.21,0,0,0-4.13,1.52l-2.87-2.71a10.12,10.12,0,0,1,2.74-1.53,10.84,10.84,0,0,1,3.48-.48,11.18,11.18,0,0,1,5.78,1.5,10.51,10.51,0,0,1,4,4.21l5.54,10.55Zm-3.32-3.63a1.69,1.69,0,0,0,.36-2l-.76-1.45h-4.17a3.34,3.34,0,0,0-2.12.47q-.51.47,0,1.52a3.89,3.89,0,0,0,1.64,1.63,5,5,0,0,0,2.46.6A3.54,3.54,0,0,0,1701.8,203.63Z" transform="translate(-10.09)"/><path class="n" d="M1710.29,186.13l14.93,0,1.81,3.53-10.76,0,3,5.69,9.8,0,1.84,3.53-9.8,0,4.36,8.35h-4.14Z" transform="translate(-10.09)"/><path class="n" d="M1727.66,184.83h4l11.69,22.36h-4Z" transform="translate(-10.09)"/><path class="n" d="M1752.34,191.92a15.71,15.71,0,0,1,4.57,2.87,15,15,0,0,1,3.33,4.26,8.36,8.36,0,0,1,1.16,4.31,3.68,3.68,0,0,1-1.55,2.9,6.76,6.76,0,0,1-4,1,13.4,13.4,0,0,1-5.11-1,15.56,15.56,0,0,1-4.59-2.89,15.25,15.25,0,0,1-3.35-4.31,8.18,8.18,0,0,1-1.13-4.27,3.67,3.67,0,0,1,1.57-2.88,6.9,6.9,0,0,1,4-1A13.23,13.23,0,0,1,1752.34,191.92Zm-6,3.69q-.59,1.36.54,3.53a9.47,9.47,0,0,0,3.14,3.52,7.24,7.24,0,0,0,4.11,1.35,2.56,2.56,0,0,0,2.63-1.36q.59-1.36-.54-3.53a9.46,9.46,0,0,0-3.14-3.52,7.16,7.16,0,0,0-4-1.35Q1746.92,194.26,1746.33,195.61Z" transform="translate(-10.09)"/><path class="n" d="M1756.41,191l4.13,0L1771,203.16,1768.51,191h4.05l10.35,12.16L1780.51,191h4.05l2.43,16.13h-4.11l-9.9-11.35,2,11.37h-4.11Z" transform="translate(-10.09)"/><polyline class="d" points="994.23 0.02 857.61 234.42 999.39 472.33 1266.94 473.46 1403.22 235.51 1267.44 0 994.24 0"/><polyline class="e" points="994.23 0.02 1130.02 235.53 1403.22 235.51 1267.44 0 994.24 0"/><polyline class="f" points="994.23 0.02 857.61 234.42 999.39 472.33 1130.02 235.53 994.24 0"/><line class="g" x1="1130.02" y1="235.53" x2="994.23" y2="0.02"/><g class="h"><g class="i"><g class="o"><path class="k" d="M953.35,288.09a83.45,83.45,0,0,0,12.91,15.08A120,120,0,0,0,977.62,325q1.54,2.29,3.14,4.36c-7.14-2.72-13.59-8.19-19-16.26l-.37-.56c-5.58-8.49-9.56-19.1-12-30.88q1.87,3.32,4,6.42m14,12.9a181,181,0,0,1-7.57-23.88,161.09,161.09,0,0,0,10.39,18.45l.87,1.31a127.17,127.17,0,0,0,11,14.16,65.94,65.94,0,0,1-14.71-10m11.33,21.93A111.21,111.21,0,0,1,969.51,306,64.13,64.13,0,0,0,987.1,316.2a71.7,71.7,0,0,0,17.3,12.59,35.1,35.1,0,0,1-12.06,2.57,30.28,30.28,0,0,1-7.75-.82,72.88,72.88,0,0,1-5.85-7.62m-24.34-37a91.45,91.45,0,0,1-6.14-10.61A157.38,157.38,0,0,1,947,241.41a188.36,188.36,0,0,0,9.27,27.81,199,199,0,0,0,8,28.77,82.81,82.81,0,0,1-9.86-12.07m19.82-12.6a9.76,9.76,0,0,1-1.48-4.68c-.25-3.71,1.31-6.82,3.49-6.94a3.54,3.54,0,0,1,3,1.85,9.66,9.66,0,0,1,1.47,4.68c.27,3.73-1.3,6.82-3.47,6.94a3.51,3.51,0,0,1-3-1.84m13.86,60.81a31.82,31.82,0,0,0,4.45.2,37.35,37.35,0,0,0,15.37-3.93,39.13,39.13,0,0,0,15.79,3.17,30.82,30.82,0,0,0,4.41-.43c-5.73,6.41-12.29,10.08-19.42,10.25s-14.11-3.17-20.59-9.26M945.8,269.92a104,104,0,0,1-7.84-34,100.53,100.53,0,0,1,3.75-34.31,170.21,170.21,0,0,0,3.95,34.13,168.39,168.39,0,0,0,.14,34.21M992.69,318a52.21,52.21,0,0,0,14.55,1.73,50.92,50.92,0,0,0,14.31-2.43,56,56,0,0,1-13.85,10.06,61.53,61.53,0,0,1-15-9.36m-38.12-58.1a184.73,184.73,0,0,1-7.11-24.21,176.83,176.83,0,0,1,4.2-24.49c-.31,7.87-.25,16,.25,24.39s1.41,16.49,2.67,24.31m56.59,68.76a64.72,64.72,0,0,0,15.75-13.4,58.07,58.07,0,0,0,16.31-11.05c-3.21,10.12-7.3,18.71-12.09,25.23a29.78,29.78,0,0,1-7.64,1.19,36.62,36.62,0,0,1-12.33-2M946.3,229.94a157.83,157.83,0,0,1-2.78-33.85,78.66,78.66,0,0,1,13.25-23.4,191.36,191.36,0,0,0-4.55,29.07,178.37,178.37,0,0,0-5.91,28.18m85,79.89a116.91,116.91,0,0,0,10-16,149.75,149.75,0,0,0,8.16-18.85,171.72,171.72,0,0,1-4.69,24.11,59.5,59.5,0,0,1-13.47,10.74M954.85,193.72a170.27,170.27,0,0,1,4.69-24.17A59.73,59.73,0,0,1,973,158.8a116.05,116.05,0,0,0-10,16,147.5,147.5,0,0,0-8.16,18.9M1034.79,328a102.7,102.7,0,0,0,11.33-26.83A77.9,77.9,0,0,0,1060.37,279c-1,11.87-3.7,22.64-8.25,31.38s-10.38,14.59-17.33,17.72M943.9,189.68c1-11.87,3.7-22.63,8.25-31.38s10.38-14.58,17.34-17.71a102.91,102.91,0,0,0-11.34,26.83,78,78,0,0,0-14.25,22.26m103.61,106.26a189.9,189.9,0,0,0,4.54-29A177.12,177.12,0,0,0,1058,238.8a158,158,0,0,1,2.76,33.75,78.65,78.65,0,0,1-13.25,23.39M961.05,164.47c3.21-10.12,7.3-18.71,12.09-25.23a29.23,29.23,0,0,1,7.63-1.2,36.63,36.63,0,0,1,12.33,2,64.77,64.77,0,0,0-15.75,13.41,58.08,58.08,0,0,0-16.31,11.05m18.38,93.76c-6.62-9.83-6.32-36.07,7.25-43.85,6.44-3.69,14.43-.66,21.44-2.91,7.47-2.37,16-11.19,19.28-23.37,4.41,20.29,9.86,51.89,1.69,70.47-10.06,22.85-36.48,3.7-45.27,14.08a14.48,14.48,0,0,1,5.26-4.42c8.12-3.48,11.81-4.66,16.64-8.52,9.08-7.24,17.92-23.87,19.4-41.84C1022,235,1011.6,249.08,1002,254.34c-6.56,3.59-20.28,6.49-20.35,6.49l-.4-.51a11,11,0,0,1-1.78-2.08m73.17-.61a245.14,245.14,0,0,0-.24-24.53c-.5-8.36-1.41-16.5-2.67-24.33a183.84,183.84,0,0,1,7.13,24.28,174,174,0,0,1-4.22,24.57M982.73,151.38a55.71,55.71,0,0,1,13.84-10.07,61.44,61.44,0,0,1,15,9.36A52.23,52.23,0,0,0,997,148.94a50.69,50.69,0,0,0-14.3,2.44m39.44,6.22a65.77,65.77,0,0,1,14.7,10.05,180.52,180.52,0,0,1,7.57,23.87,160,160,0,0,0-10.4-18.45l-.88-1.33a127,127,0,0,0-11-14.15m40.38,109.45a170.85,170.85,0,0,0-3.92-34c.42-4.41.7-8.84.79-13.28a161.75,161.75,0,0,0-.89-20.9,103.94,103.94,0,0,1,7.78,33.87,100.65,100.65,0,0,1-3.75,34.31M976.19,135.5c5.73-6.4,12.29-10.08,19.42-10.25s14.11,3.17,20.59,9.27a32,32,0,0,0-4.45-.21,37.28,37.28,0,0,0-15.36,3.95,38.91,38.91,0,0,0-15.79-3.18,31.78,31.78,0,0,0-4.41.42m81.11,91.79a187.79,187.79,0,0,0-9.28-27.87,198.33,198.33,0,0,0-8-28.77,82.64,82.64,0,0,1,9.86,12.07,91.66,91.66,0,0,1,6.17,10.67,152.24,152.24,0,0,1,1.61,26c-.05,2.63-.19,5.26-.36,7.88m-57.43-87.45a35.24,35.24,0,0,1,12.06-2.56,30.18,30.18,0,0,1,7.75.82,72.66,72.66,0,0,1,5.86,7.63,110.87,110.87,0,0,1,9.21,16.94,63.82,63.82,0,0,0-17.58-10.23,72,72,0,0,0-17.3-12.6m23.62-.57c7.14,2.72,13.58,8.18,19,16.22l.4.59c5.52,8.38,9.57,18.94,12,31q-1.9-3.38-4-6.53a83.41,83.41,0,0,0-12.9-15.07,119.9,119.9,0,0,0-11.34-21.81q-1.55-2.31-3.17-4.39m20.11,14.08c-6.57-9.75-14.55-15.88-23.42-18.09-7.64-8.47-16.08-13.19-24.75-13s-16.52,5.33-23.12,14.14c-8.76,2.7-16.1,9.42-21.52,19.82-5.52,10.59-8.44,24-9,38.73a103.53,103.53,0,0,0-5.57,41,107.72,107.72,0,0,0,10.45,40.57c2.31,14.67,6.83,27.89,13.59,38.18l.38.58c6.57,9.76,14.56,15.9,23.44,18.13,7.63,8.47,16.08,13.18,24.74,13s16.52-5.33,23.13-14.15c8.76-2.7,16.1-9.41,21.52-19.81,5.52-10.59,8.45-24,9-38.74a103.42,103.42,0,0,0,5.57-41,107.75,107.75,0,0,0-10.39-40.46c-2.35-15-7-28.16-13.65-38.29l-.4-.6" transform="translate(-10.09)"/></g></g></g><line class="l" x1="993.18" y1="239.43" x2="855.95" y2="239.43"/><g class="i"><g class="p"><path class="n" d="M1177.11,130.12a6.86,6.86,0,0,1-3.56-1c-2.77-1.63-4.19-4.66-3.16-6.76a3.56,3.56,0,0,1,3.3-1.85,6.86,6.86,0,0,1,3.56,1c2.77,1.63,4.18,4.66,3.16,6.76a3.56,3.56,0,0,1-3.3,1.85m.35-12.57-1-.41c-16.57-6.34-27.45-35.65-5-45.55,9.85-4.34,21.5-2.26,32.75-5.24,12-3.18,23.8-12.76,25.6-25.05,13.83,19.33,33,49.62,24.84,68.71-5,11.78-20.06,13.92-35.42,14.18-3.63.06-7.27,0-10.81,0s-7-.09-10.26,0c-1.6,0-3.13.08-4.59.17,0,0-3.47.25-6.84.87,0,0,1.16-.57,2.67-1.17,12.39-4.87,18.69-5.92,25.75-10.23,13.23-8.1,23.12-25.39,20.05-43.14,0,17.12-13.36,32.08-28.14,38.32-10.12,4.27-29.62,8.58-29.63,8.58m-.18-87.86c-21.53.38-36.49,11.7-41,28.28,9.29.35,19,3.64,27.62,9.24-8.87-4.35-17.09-6.14-25.12-6-23.11.4-35.49,18.56-27.64,40.55s32.94,39.5,56.06,39.1l96.49-1.68c20.39-.36,31.31-16.37,24.39-35.78-5.59-15.67-21.1-28.74-37.61-33-5.35-10.41-13-22.14-22.2-35.12A36.23,36.23,0,0,1,1225.76,46c-14.51-10.33-31.87-16.61-48.47-16.32" transform="translate(-10.09)"/></g></g><path class="n" d="M1148.67,175a13.92,13.92,0,0,0-3.46-.55,3.13,3.13,0,0,0-2.13.56q-.6.56-.08,1.55a4,4,0,0,0,1.41,1.5,9.32,9.32,0,0,0,2.08,1q1.14.39,3,.85a45,45,0,0,1,4.39,1.29,13.31,13.31,0,0,1,3.47,1.92,9.8,9.8,0,0,1,2.77,3.35,5.15,5.15,0,0,1,.71,3.46,3.28,3.28,0,0,1-1.85,2.26,8.84,8.84,0,0,1-4,.79,18.45,18.45,0,0,1-5.59-.93,27.18,27.18,0,0,1-5.65-2.52l-.07-3.54a25,25,0,0,0,5,2.38,13.94,13.94,0,0,0,4.37.86,3.47,3.47,0,0,0,2.45-.67,1.43,1.43,0,0,0,.07-1.82,4,4,0,0,0-1.42-1.53,8.82,8.82,0,0,0-2.09-1q-1.15-.37-3-.83-2.6-.65-4.36-1.26a12.82,12.82,0,0,1-3.43-1.87,9.59,9.59,0,0,1-2.75-3.3,5,5,0,0,1-.69-3.31,3.18,3.18,0,0,1,1.78-2.19,8.64,8.64,0,0,1,4-.79,18.71,18.71,0,0,1,4.6.61,25.07,25.07,0,0,1,4.65,1.67l.18,3.63A28.06,28.06,0,0,0,1148.67,175Z" transform="translate(-10.09)"/><path class="n" d="M1173.33,177a15.45,15.45,0,0,1,4.4,3,17,17,0,0,1,3.32,4.43,9.73,9.73,0,0,1,1.3,4.38,3.63,3.63,0,0,1-1.26,3,5.56,5.56,0,0,1-3.65,1.06,10.12,10.12,0,0,1-3.75-.72,13,13,0,0,1-3.53-2.12l4.56,8.72h-4.14l-11.82-22.61h4.14l1.43,2.73a2.94,2.94,0,0,1,1.26-2.13,5.23,5.23,0,0,1,3-.74A11.58,11.58,0,0,1,1173.33,177Zm4,10.92a4.28,4.28,0,0,0-.55-3.62,9.68,9.68,0,0,0-3.22-3.59,7.37,7.37,0,0,0-4.17-1.39q-2.13,0-2.74,1.4t.54,3.6a9.75,9.75,0,0,0,3.23,3.63,7.42,7.42,0,0,0,4.2,1.39Q1176.74,189.34,1177.34,187.92Z" transform="translate(-10.09)"/><path class="n" d="M1187.13,176.75a4.72,4.72,0,0,1,3-.89l2,3.91q-2.72-.15-3.59,1.2t.33,3.65l4.18,8h-4.14L1180.27,176h4.14l1.67,3.19A3.07,3.07,0,0,1,1187.13,176.75Z" transform="translate(-10.09)"/><path class="n" d="M1193.44,169.55a4.64,4.64,0,0,1,1.58,1.74,1.93,1.93,0,0,1,.22,1.71,1.31,1.31,0,0,1-1.33.69,3.66,3.66,0,0,1-2-.68,4.57,4.57,0,0,1-1.56-1.7,2,2,0,0,1-.24-1.74,1.31,1.31,0,0,1,1.33-.69A3.66,3.66,0,0,1,1193.44,169.55Zm-.35,6.46h4.14l8.68,16.59h-4.14Z" transform="translate(-10.09)"/><path class="n" d="M1218,177.52a12.34,12.34,0,0,1,4.13,4.66l5.42,10.36h-4.17l-4.8-9.18a7.16,7.16,0,0,0-2.45-2.74,5.92,5.92,0,0,0-3.3-1q-2.05,0-2.55,1.37a4.29,4.29,0,0,0,.59,3.41l4.27,8.16H1211L1202.35,176h4.14l1.62,3.1q.08-3.2,4.41-3.27A9.76,9.76,0,0,1,1218,177.52Z" transform="translate(-10.09)"/><path class="n" d="M1239.12,175.91l7.85,15A7.45,7.45,0,0,1,1248,195a3.46,3.46,0,0,1-1.71,2.71,8,8,0,0,1-4.2,1,18.91,18.91,0,0,1-8.34-2.19l.13-2.92a13.5,13.5,0,0,0,6.22,1.73q2.29,0,3-1.16t-.29-3.14l-1-2a2.7,2.7,0,0,1-1.21,1.94,5.15,5.15,0,0,1-2.83.67,10.83,10.83,0,0,1-4.47-1,14.72,14.72,0,0,1-4.15-2.82,15.87,15.87,0,0,1-3.14-4.17,8.87,8.87,0,0,1-1.19-4.11,3.48,3.48,0,0,1,1.22-2.78,5.25,5.25,0,0,1,3.43-1,9.57,9.57,0,0,1,3.52.68,12,12,0,0,1,3.25,1.92l-1.3-2.48Zm.5,11.29a4.05,4.05,0,0,0-.53-3.43,9.23,9.23,0,0,0-3-3.42,7,7,0,0,0-4-1.31,2.47,2.47,0,0,0-2.57,1.34,4.11,4.11,0,0,0,.5,3.41,9.49,9.49,0,0,0,3.08,3.42,7,7,0,0,0,4,1.31A2.49,2.49,0,0,0,1239.62,187.19Z" transform="translate(-10.09)"/><path class="n" d="M1264.81,174.92a10.52,10.52,0,0,0-3.65-.74,5.16,5.16,0,0,0-3.29,1,3.5,3.5,0,0,0-1.32,2.66,7.13,7.13,0,0,0,1,3.71,13.28,13.28,0,0,0,2.92,3.7,15.1,15.1,0,0,0,4.1,2.66,10.66,10.66,0,0,0,4.3,1,5.84,5.84,0,0,0,2.84-.69,4.37,4.37,0,0,0,1.86-1.9l3.94,2.72a6.24,6.24,0,0,1-2.64,2.75,8.41,8.41,0,0,1-4.18,1,16.76,16.76,0,0,1-6.67-1.48,23.19,23.19,0,0,1-6.32-4,20,20,0,0,1-4.49-5.66,10.3,10.3,0,0,1-1.39-5.65,5.41,5.41,0,0,1,2.16-4,8.43,8.43,0,0,1,5.21-1.47,16.3,16.3,0,0,1,5.17.92,22.3,22.3,0,0,1,5.26,2.57l-.89,3A16.76,16.76,0,0,0,1264.81,174.92Z" transform="translate(-10.09)"/><path class="n" d="M1270.74,169.41h4.14l12,23h-4.14Z" transform="translate(-10.09)"/><path class="n" d="M1296.14,176.71a16.16,16.16,0,0,1,4.7,3,15.49,15.49,0,0,1,3.42,4.39,8.61,8.61,0,0,1,1.19,4.44,3.79,3.79,0,0,1-1.59,3,7,7,0,0,1-4.11,1.06,13.79,13.79,0,0,1-5.26-1,16,16,0,0,1-4.72-3,15.7,15.7,0,0,1-3.45-4.43,8.43,8.43,0,0,1-1.17-4.39,3.78,3.78,0,0,1,1.62-3,7.1,7.1,0,0,1,4.16-1.07A13.61,13.61,0,0,1,1296.14,176.71Zm-6.19,3.8q-.61,1.4.56,3.63a9.75,9.75,0,0,0,3.23,3.63,7.45,7.45,0,0,0,4.23,1.39,2.63,2.63,0,0,0,2.71-1.4q.61-1.4-.56-3.63a9.75,9.75,0,0,0-3.23-3.63,7.37,7.37,0,0,0-4.17-1.39Q1290.57,179.11,1290,180.51Z" transform="translate(-10.09)"/><path class="n" d="M1319.26,175.73l8.68,16.59h-4.17l-1.61-3.07q0,3.23-4.23,3.24a9.53,9.53,0,0,1-5.41-1.7,12.34,12.34,0,0,1-4.09-4.65L1303,175.76h4.17L1312,185a7.2,7.2,0,0,0,2.4,2.73,5.66,5.66,0,0,0,3.21,1q2,0,2.41-1.37a4.42,4.42,0,0,0-.62-3.38l-4.28-8.19Z" transform="translate(-10.09)"/><path class="n" d="M1337.48,169.26l12,23h-4.14l-1.4-2.67a2.94,2.94,0,0,1-1.26,2.13,5.23,5.23,0,0,1-3,.74,11.64,11.64,0,0,1-4.81-1.06,15.61,15.61,0,0,1-4.42-3,16.94,16.94,0,0,1-3.35-4.45,9.68,9.68,0,0,1-1.29-4.39,3.65,3.65,0,0,1,1.28-3,5.57,5.57,0,0,1,3.63-1.06,10.07,10.07,0,0,1,3.79.74,13.3,13.3,0,0,1,3.54,2.13l-4.78-9.15Zm4.13,18.42q.62-1.41-.55-3.65a9.8,9.8,0,0,0-3.26-3.64,7.47,7.47,0,0,0-4.22-1.4q-2.13,0-2.73,1.42a4.38,4.38,0,0,0,.54,3.65,10.12,10.12,0,0,0,3.27,3.64,7.39,7.39,0,0,0,4.21,1.4Q1341,189.09,1341.61,187.68Z" transform="translate(-10.09)"/><path class="n" d="M1148,303.31a8.77,8.77,0,0,0-3.89-.78,16.86,16.86,0,0,0-6.4,1.4,23.25,23.25,0,0,0-6.12,3.76,18.5,18.5,0,0,0-4.34,5.18,9.06,9.06,0,0,0-1.32,5.15,5,5,0,0,0,2,3.71,7.82,7.82,0,0,0,4.89,1.35,16,16,0,0,0,4.73-.82,24.17,24.17,0,0,0,4.93-2.21l.73,1.57a30.35,30.35,0,0,1-6,2.69,19.17,19.17,0,0,1-5.75,1,9.71,9.71,0,0,1-6-1.64,6.09,6.09,0,0,1-2.5-4.53,11,11,0,0,1,1.6-6.27,21.9,21.9,0,0,1,5.29-6.25,28.79,28.79,0,0,1,7.51-4.54,20.93,20.93,0,0,1,7.86-1.71,11.07,11.07,0,0,1,4.7.9,6.6,6.6,0,0,1,3,2.55l-2.48,1.69A5.44,5.44,0,0,0,1148,303.31Z" transform="translate(-10.09)"/><path class="n" d="M1170.45,307.67a4.13,4.13,0,0,1,1.78,3.26,8.89,8.89,0,0,1-1.32,4.76,17.52,17.52,0,0,1-3.94,4.83,19.24,19.24,0,0,1-5.38,3.32,15.63,15.63,0,0,1-5.82,1.21,7.63,7.63,0,0,1-4.53-1.14,4.11,4.11,0,0,1-1.77-3.27,9.05,9.05,0,0,1,1.35-4.81,17.22,17.22,0,0,1,3.91-4.78,19.29,19.29,0,0,1,5.38-3.3,15.64,15.64,0,0,1,5.82-1.21A7.64,7.64,0,0,1,1170.45,307.67Zm-10,1.83a14.44,14.44,0,0,0-4.07,2.58,14.1,14.1,0,0,0-3,3.76,7.62,7.62,0,0,0-1.13,3.78,3.1,3.1,0,0,0,1.26,2.54,5.5,5.5,0,0,0,3.38.89,11.5,11.5,0,0,0,4.38-.94,14.41,14.41,0,0,0,4.07-2.58,14.21,14.21,0,0,0,3-3.79,7.53,7.53,0,0,0,1.11-3.75,3.1,3.1,0,0,0-1.26-2.54,5.5,5.5,0,0,0-3.38-.89A11.51,11.51,0,0,0,1160.42,309.49Z" transform="translate(-10.09)"/><path class="n" d="M1195.79,307.51a4.13,4.13,0,0,1,1.78,3.26,8.88,8.88,0,0,1-1.32,4.76,17.55,17.55,0,0,1-3.94,4.83,19.24,19.24,0,0,1-5.38,3.32,15.62,15.62,0,0,1-5.82,1.21,7.63,7.63,0,0,1-4.53-1.14,4.11,4.11,0,0,1-1.77-3.27,9.05,9.05,0,0,1,1.35-4.81,17.22,17.22,0,0,1,3.91-4.78,19.29,19.29,0,0,1,5.38-3.3,15.64,15.64,0,0,1,5.82-1.21A7.65,7.65,0,0,1,1195.79,307.51Zm-10,1.83a14.43,14.43,0,0,0-4.07,2.58,14.1,14.1,0,0,0-3,3.76,7.62,7.62,0,0,0-1.13,3.78,3.1,3.1,0,0,0,1.26,2.54,5.51,5.51,0,0,0,3.38.89,11.49,11.49,0,0,0,4.38-.94,14.41,14.41,0,0,0,4.07-2.58,14.21,14.21,0,0,0,3-3.79,7.54,7.54,0,0,0,1.11-3.75,3.1,3.1,0,0,0-1.26-2.54,5.51,5.51,0,0,0-3.38-.89A11.5,11.5,0,0,0,1185.76,309.34Z" transform="translate(-10.09)"/><path class="n" d="M1213.36,307.37a12.69,12.69,0,0,1,5.06-1.17l-1.21,2.21a11.29,11.29,0,0,0-6,1.73,14.64,14.64,0,0,0-4.77,4.73l-5.39,9.82-2.55,0,10.08-18.38,2.55,0-2.35,4.28A16,16,0,0,1,1213.36,307.37Z" transform="translate(-10.09)"/><path class="n" d="M1246.73,298.48l-14.27,26-2.55,0,2.31-4.21a17.71,17.71,0,0,1-5,3.23,13.82,13.82,0,0,1-5.42,1.17,7,7,0,0,1-4.37-1.16,4,4,0,0,1-1.6-3.31,9.83,9.83,0,0,1,1.44-4.83,17.84,17.84,0,0,1,3.87-4.81,19.19,19.19,0,0,1,5.23-3.32A14.54,14.54,0,0,1,1232,306a6.52,6.52,0,0,1,4.18,1.13,3.88,3.88,0,0,1,1.45,3.21l6.52-11.89Zm-18.92,23.24a15,15,0,0,0,4.1-2.59,13.92,13.92,0,0,0,3-3.76,7.48,7.48,0,0,0,1.1-3.76,3.27,3.27,0,0,0-1.25-2.6,5.27,5.27,0,0,0-3.36-.92,11.29,11.29,0,0,0-4.4,1,15.49,15.49,0,0,0-4.13,2.63,13.92,13.92,0,0,0-3.06,3.78,7.34,7.34,0,0,0-1.09,3.75,3.19,3.19,0,0,0,1.29,2.56,5.46,5.46,0,0,0,3.39.9A11.39,11.39,0,0,0,1227.81,321.71Z" transform="translate(-10.09)"/><path class="n" d="M1252.08,306.06l2.55,0-10.08,18.38-2.55,0Zm6.1-6.49a1.25,1.25,0,0,1-.15,1.17,3.28,3.28,0,0,1-1.17,1.2,2.86,2.86,0,0,1-1.51.5,1,1,0,0,1-1-.48,1.26,1.26,0,0,1,.14-1.19,3.2,3.2,0,0,1,1.16-1.18,3,3,0,0,1,1.53-.48A1,1,0,0,1,1258.18,299.58Z" transform="translate(-10.09)"/><path class="n" d="M1279,307.73q1,1.9-.84,5.23l-6.19,11.29-2.59,0,5.89-10.73q1.42-2.59.67-4.06t-3.53-1.45a11.38,11.38,0,0,0-5.89,1.78,14.65,14.65,0,0,0-4.65,4.64l-5.42,9.89-2.55,0L1264,306l2.55,0-2.35,4.28a15.53,15.53,0,0,1,4.79-3.25,14.57,14.57,0,0,1,5.47-1.15Q1278,305.83,1279,307.73Z" transform="translate(-10.09)"/><path class="n" d="M1293.17,324.13l1.66-3.09a14.84,14.84,0,0,1-9.21,3.24,5.92,5.92,0,0,1-3.16-.7,2.57,2.57,0,0,1-1.29-2,4.83,4.83,0,0,1,.72-2.84,9.12,9.12,0,0,1,4.05-3.77,13.92,13.92,0,0,1,6.25-1.4l6.7,0,.77-1.4q1.19-2.17.44-3.36t-3.46-1.17a17.93,17.93,0,0,0-7.64,2.25l-.26-1.61a32.19,32.19,0,0,1,4.89-1.94,16.59,16.59,0,0,1,4.52-.64q3.61,0,4.68,1.63t-.51,4.6l-6.64,12.17Zm-.88-3a12.52,12.52,0,0,0,4.25-3.22l1.38-2.52-6.43,0a11,11,0,0,0-4.44.83,5.58,5.58,0,0,0-2.7,2.43q-.9,1.65-.14,2.64a3.51,3.51,0,0,0,2.93,1A12.2,12.2,0,0,0,1292.29,321.14Z" transform="translate(-10.09)"/><path class="n" d="M1315.13,322.73a13.24,13.24,0,0,1-5.16,1.39q-2.28,0-2.9-1.27t.81-3.89l6-10.94-2.85,0,1-1.82,2.89,0,2.6-4.73,2.55,0-2.6,4.73,6.49-.07-1,1.86-6.47,0-5.79,10.56q-1.87,3.4.87,3.39a10.48,10.48,0,0,0,3.85-1Z" transform="translate(-10.09)"/><path class="n" d="M1344.1,308.14q.94,2.7-1.77,7.3l-16.62.1q-1.35,2.95-.25,4.74t4.18,1.77a12.83,12.83,0,0,0,3.88-.65,16.3,16.3,0,0,0,3.79-1.81l.72,1.32a20,20,0,0,1-4.7,2.25,16.13,16.13,0,0,1-4.9.82,7.45,7.45,0,0,1-4.49-1.14,4.1,4.1,0,0,1-1.72-3.26,9.12,9.12,0,0,1,1.36-4.8,17.58,17.58,0,0,1,3.9-4.79,19.14,19.14,0,0,1,5.33-3.32,15.17,15.17,0,0,1,5.7-1.21Q1343.16,305.43,1344.1,308.14Zm-3,5.49q1.39-2.87.44-4.56t-4-1.67a11.84,11.84,0,0,0-6,1.75,14.34,14.34,0,0,0-4.82,4.57Z" transform="translate(-10.09)"/><path class="n" d="M1136.78,368.78l.42-6.5-14.76.09-6.7,6.54-2.82,0,25.43-24.59,2.74,0-1.46,24.44Zm-12.12-8.59,12.71-.08.88-13.22Z" transform="translate(-10.09)"/><path class="n" d="M1170.56,352.09q1,1.9-.84,5.23l-6.19,11.29-2.59,0,5.89-10.73q1.42-2.59.67-4.06t-3.53-1.45a11.38,11.38,0,0,0-5.89,1.78,14.66,14.66,0,0,0-4.65,4.64l-5.42,9.89-2.55,0,10.08-18.38,2.55,0-2.35,4.28a15.55,15.55,0,0,1,4.79-3.24,14.56,14.56,0,0,1,5.47-1.15Q1169.57,350.19,1170.56,352.09Z" transform="translate(-10.09)"/><path class="n" d="M1171.69,374.37a8.84,8.84,0,0,1-4,1.11,4.27,4.27,0,0,1-3.42-1.24l2.14-1.83a3.28,3.28,0,0,0,2.39.82,5.65,5.65,0,0,0,2.61-.75,12.2,12.2,0,0,0,2.81-2.15l1.88-1.9,1.77-18.22,2.7,0-1.81,15.74L1194,350.11l2.63,0-20.73,21.06A16.84,16.84,0,0,1,1171.69,374.37Z" transform="translate(-10.09)"/><path class="n" d="M1202.79,367.12a13.25,13.25,0,0,1-5.16,1.4q-2.28,0-2.9-1.28t.8-3.88l6-10.94-2.85,0,1-1.82,2.89,0,2.6-4.73,2.55,0-2.6,4.73,6.49-.08-1,1.86-6.47,0-5.79,10.56q-1.87,3.4.87,3.39a10.47,10.47,0,0,0,3.85-1Z" transform="translate(-10.09)"/><path class="n" d="M1233.94,351.7q1,1.9-.84,5.23l-6.19,11.29-2.59,0,5.89-10.73q1.42-2.59.67-4.06t-3.53-1.45a11.47,11.47,0,0,0-6.3,2,14.76,14.76,0,0,0-4.76,5.25l-4.94,9-2.55,0,14.27-26,2.55,0-6.58,12a14.61,14.61,0,0,1,10.34-4.47Q1232.95,349.8,1233.94,351.7Z" transform="translate(-10.09)"/><path class="n" d="M1245.69,349.8l2.55,0-10.08,18.38-2.55,0Zm6.1-6.49a1.25,1.25,0,0,1-.15,1.17,3.28,3.28,0,0,1-1.17,1.2,2.86,2.86,0,0,1-1.51.5,1,1,0,0,1-1-.48,1.26,1.26,0,0,1,.14-1.19,3.19,3.19,0,0,1,1.16-1.18,3,3,0,0,1,1.53-.48A1,1,0,0,1,1251.79,343.31Z" transform="translate(-10.09)"/><path class="n" d="M1272.59,351.47q1,1.9-.84,5.23L1265.55,368l-2.59,0,5.89-10.73q1.42-2.59.67-4.06t-3.53-1.45a11.38,11.38,0,0,0-5.89,1.78,14.66,14.66,0,0,0-4.65,4.64l-5.42,9.89-2.55,0,10.08-18.38,2.55,0-2.35,4.28a15.55,15.55,0,0,1,4.79-3.24,14.56,14.56,0,0,1,5.47-1.15Q1271.6,349.57,1272.59,351.47Z" transform="translate(-10.09)"/><path class="n" d="M1301.58,349.45l-9,16.45a16.9,16.9,0,0,1-3.78,4.67,17.1,17.1,0,0,1-5.16,3.09,16.55,16.55,0,0,1-5.82,1.1q-4.42,0-6.64-2.75l2.14-1.69a5.4,5.4,0,0,0,2.18,1.84,7.67,7.67,0,0,0,3.31.61,12.39,12.39,0,0,0,6.47-1.87A13,13,0,0,0,1290,366l1.63-3a16.6,16.6,0,0,1-4.7,3,13.25,13.25,0,0,1-5.16,1.12,6.49,6.49,0,0,1-4.11-1.11,3.89,3.89,0,0,1-1.5-3.14,9.2,9.2,0,0,1,1.35-4.57,17.06,17.06,0,0,1,3.66-4.57,17.74,17.74,0,0,1,5-3.14,14,14,0,0,1,5.37-1.15,6.23,6.23,0,0,1,3.94,1,3.67,3.67,0,0,1,1.38,3l2.21-4Zm-14.14,14.85a14.22,14.22,0,0,0,3.91-2.49,13.34,13.34,0,0,0,2.86-3.55,7.15,7.15,0,0,0,1-3.57,3.05,3.05,0,0,0-1.19-2.46,5.07,5.07,0,0,0-3.2-.87,10.81,10.81,0,0,0-4.18.92,14.49,14.49,0,0,0-3.92,2.49,13.23,13.23,0,0,0-2.89,3.58,6.85,6.85,0,0,0-1,3.55,3.14,3.14,0,0,0,1.2,2.44,5.06,5.06,0,0,0,3.22.87A10.8,10.8,0,0,0,1287.44,364.31Z" transform="translate(-10.09)"/><polyline class="d" points="529.18 0.02 392.56 234.42 534.34 472.33 801.89 473.46 938.18 235.51 802.39 0 529.2 0"/><polyline class="e" points="529.18 0.02 664.97 235.53 938.18 235.51 802.39 0 529.2 0"/><polyline class="f" points="529.18 0.02 392.56 234.42 534.34 472.33 664.97 235.53 529.2 0"/><line class="g" x1="664.97" y1="235.53" x2="529.18" y2="0.02"/><g class="h"><g class="i"><g class="q"><path class="k" d="M490.12,288.09A83.35,83.35,0,0,0,503,303.16,120.08,120.08,0,0,0,514.39,325q1.54,2.29,3.14,4.37c-7.15-2.73-13.6-8.2-19-16.26l-.37-.56c-5.59-8.49-9.56-19.1-12-30.88q1.87,3.32,4,6.42m14,12.9a180.3,180.3,0,0,1-7.57-23.88A161.09,161.09,0,0,0,507,295.57l.87,1.31a127.08,127.08,0,0,0,11,14.16,65.78,65.78,0,0,1-14.7-10m11.33,21.93A111.29,111.29,0,0,1,506.27,306a63.94,63.94,0,0,0,17.59,10.22,71.76,71.76,0,0,0,17.3,12.6,35.27,35.27,0,0,1-12.06,2.57,30.8,30.8,0,0,1-7.75-.82,73,73,0,0,1-5.85-7.62m-24.34-37A91.36,91.36,0,0,1,485,275.31a157.13,157.13,0,0,1-1.27-33.89,188.51,188.51,0,0,0,9.26,27.8A199,199,0,0,0,501,298a82.74,82.74,0,0,1-9.86-12.07M511,273.31a9.74,9.74,0,0,1-1.48-4.68c-.25-3.71,1.31-6.82,3.49-6.94a3.52,3.52,0,0,1,3,1.84,9.69,9.69,0,0,1,1.47,4.68c.27,3.73-1.3,6.82-3.48,6.94a3.5,3.5,0,0,1-3-1.84m13.86,60.8a31.87,31.87,0,0,0,4.45.21,37.34,37.34,0,0,0,15.36-3.94,39.13,39.13,0,0,0,15.79,3.17,30.88,30.88,0,0,0,4.41-.42c-5.73,6.4-12.29,10.07-19.42,10.25s-14.11-3.17-20.59-9.27m-42.26-64.2a104,104,0,0,1-7.84-34,100.41,100.41,0,0,1,3.75-34.31,170.39,170.39,0,0,0,3.94,34.12,168.45,168.45,0,0,0,.14,34.22M529.46,318A52.64,52.64,0,0,0,544,319.7a50.9,50.9,0,0,0,14.3-2.44,56,56,0,0,1-13.84,10.07,61.53,61.53,0,0,1-15-9.36m-38.12-58.1a184.73,184.73,0,0,1-7.11-24.21,176.06,176.06,0,0,1,4.2-24.49c-.32,7.86-.25,16,.24,24.38s1.42,16.49,2.67,24.32m56.59,68.76a64.72,64.72,0,0,0,15.75-13.4A58.26,58.26,0,0,0,580,304.17c-3.21,10.12-7.3,18.71-12.09,25.23a29.75,29.75,0,0,1-7.63,1.2,36.62,36.62,0,0,1-12.33-2m-64.87-98.69a158.07,158.07,0,0,1-2.78-33.85,78.64,78.64,0,0,1,13.25-23.39A190.71,190.71,0,0,0,489,201.77a178.92,178.92,0,0,0-5.92,28.17m85,79.89a116.13,116.13,0,0,0,10-16A147.79,147.79,0,0,0,586.19,275a171,171,0,0,1-4.69,24.11A59.5,59.5,0,0,1,568,309.83M491.61,193.71a170.93,170.93,0,0,1,4.7-24.16,59.2,59.2,0,0,1,13.46-10.74,116.75,116.75,0,0,0-10,16,148.46,148.46,0,0,0-8.16,18.9M571.56,328a103.16,103.16,0,0,0,11.33-26.83A78.07,78.07,0,0,0,597.14,279c-1,11.87-3.7,22.64-8.25,31.38S578.51,324.92,571.56,328M480.67,189.68c1-11.87,3.7-22.63,8.25-31.38s10.38-14.59,17.33-17.72c-4.55,7.22-8.39,16.32-11.34,26.84a77.88,77.88,0,0,0-14.25,22.26m103.6,106.25a189.17,189.17,0,0,0,4.54-29,176.59,176.59,0,0,0,5.95-28.16,157.57,157.57,0,0,1,2.76,33.75,78.65,78.65,0,0,1-13.25,23.39M497.82,164.47c3.21-10.12,7.3-18.71,12.09-25.23a29.54,29.54,0,0,1,7.64-1.19,36.36,36.36,0,0,1,12.33,2,64.77,64.77,0,0,0-15.75,13.41,58.08,58.08,0,0,0-16.32,11m18.39,93.77c-6.62-9.83-6.33-36.07,7.25-43.85,6.44-3.69,14.43-.66,21.44-2.91,7.47-2.37,16-11.19,19.28-23.37,4.4,20.28,9.86,51.89,1.69,70.47-10.06,22.85-36.48,3.7-45.27,14.08a14.47,14.47,0,0,1,5.26-4.43c8.13-3.47,11.82-4.66,16.65-8.51,9.08-7.24,17.92-23.87,19.4-41.84-3.15,17.13-13.54,31.21-23.17,36.46-6.56,3.59-20.28,6.48-20.35,6.49l-.4-.51a11,11,0,0,1-1.78-2.08m73.18-.61a244.08,244.08,0,0,0-.24-24.54c-.5-8.36-1.41-16.49-2.66-24.32A183.83,183.83,0,0,1,593.6,233a174.79,174.79,0,0,1-4.22,24.57M519.5,151.37a55.93,55.93,0,0,1,13.85-10.06,61.5,61.5,0,0,1,15,9.35,52,52,0,0,0-14.55-1.73,50.71,50.71,0,0,0-14.31,2.43m39.44,6.22a65.94,65.94,0,0,1,14.7,10.06,180.84,180.84,0,0,1,7.57,23.87,160,160,0,0,0-10.4-18.45l-.88-1.33a127.18,127.18,0,0,0-11-14.15m40.38,109.46a170.85,170.85,0,0,0-3.92-34c.42-4.41.69-8.85.79-13.28a161.75,161.75,0,0,0-.89-20.9,104,104,0,0,1,7.78,33.87,100.65,100.65,0,0,1-3.75,34.31M513,135.5c5.73-6.41,12.29-10.08,19.42-10.25s14.11,3.17,20.59,9.27a32,32,0,0,0-4.45-.21,37.29,37.29,0,0,0-15.37,3.94,39,39,0,0,0-15.79-3.18,31.72,31.72,0,0,0-4.41.43m81.11,91.78a187.3,187.3,0,0,0-9.28-27.87,198,198,0,0,0-8-28.77,82.64,82.64,0,0,1,9.86,12.07,91.78,91.78,0,0,1,6.17,10.67,152.63,152.63,0,0,1,1.61,26c-.06,2.63-.19,5.26-.36,7.88m-57.42-87.44a35.07,35.07,0,0,1,12.06-2.56,29.68,29.68,0,0,1,7.75.82,72.58,72.58,0,0,1,5.86,7.63,110.91,110.91,0,0,1,9.21,16.94,63.73,63.73,0,0,0-17.58-10.23,71.91,71.91,0,0,0-17.3-12.6m23.62-.57c7.14,2.71,13.58,8.17,19,16.22l.4.59c5.52,8.37,9.57,18.94,12,31q-1.89-3.38-4-6.52a83.49,83.49,0,0,0-12.91-15.07,119.79,119.79,0,0,0-11.34-21.8q-1.55-2.31-3.17-4.39m20.11,14.08c-6.57-9.75-14.55-15.88-23.42-18.09-7.64-8.47-16.08-13.19-24.75-13s-16.52,5.33-23.12,14.14c-8.76,2.7-16.11,9.41-21.52,19.82-5.52,10.59-8.44,24-9,38.73a103.5,103.5,0,0,0-5.58,41,107.76,107.76,0,0,0,10.45,40.57c2.31,14.68,6.83,27.9,13.59,38.19l.38.58C504,325,512,331.17,520.85,333.38c7.64,8.47,16.09,13.18,24.74,13s16.53-5.32,23.13-14.14c8.76-2.7,16.1-9.41,21.52-19.81,5.52-10.59,8.45-24,9-38.74a103.51,103.51,0,0,0,5.57-41,107.79,107.79,0,0,0-10.39-40.46c-2.36-15-7-28.16-13.65-38.29l-.4-.6" transform="translate(-10.09)"/></g></g></g><polygon class="a" points="530.51 469.11 394.88 233.63 531.41 2.49 664.97 235.53 530.51 469.11"/><line class="l" x1="521.28" y1="240.33" x2="243.4" y2="240.33"/><path class="n" d="M745.14,301.8q1.37,1.62-.21,4.49a10.7,10.7,0,0,1-3.31,3.66,11.82,11.82,0,0,1-4.73,2q2.74.33,3.47,2t-.65,4.16a11.88,11.88,0,0,1-5.24,4.93,17.87,17.87,0,0,1-8,1.8l-11.26.07,13.46-24.55,11.15-.07Q743.77,300.18,745.14,301.8Zm-11.76,19.51a8.37,8.37,0,0,0,3.8-3.5q1.21-2.21,0-3.43t-4.61-1.2l-8.41.05-5.16,9.4,8.41-.05A13.65,13.65,0,0,0,733.38,321.31Zm5.34-11.43a7.92,7.92,0,0,0,3.34-3.25q1.11-2,.17-3.15t-3.78-1.06l-8.41.05-4.73,8.63,8.41-.05A10.73,10.73,0,0,0,738.72,309.88Z" transform="translate(-10.09)"/><path class="n" d="M771.16,306.17l-10.08,18.38-2.59,0,2.4-4.38a15.62,15.62,0,0,1-4.76,3.31,13.83,13.83,0,0,1-5.37,1.19q-3.54,0-4.49-1.88t.88-5.23l6.19-11.29,2.59,0L750.06,317q-1.42,2.6-.68,4t3.44,1.43a11,11,0,0,0,6.13-2,14.89,14.89,0,0,0,4.68-5.22l4.94-9Z" transform="translate(-10.09)"/><path class="n" d="M780.48,306.11l2.55,0L773,324.47l-2.55,0Zm6.1-6.49a1.25,1.25,0,0,1-.15,1.17,3.29,3.29,0,0,1-1.17,1.2,2.86,2.86,0,0,1-1.51.5,1,1,0,0,1-1-.48,1.26,1.26,0,0,1,.14-1.19,3.2,3.2,0,0,1,1.16-1.18,2.94,2.94,0,0,1,1.53-.48A1,1,0,0,1,786.58,299.62Z" transform="translate(-10.09)"/><path class="n" d="M796.74,298.39l2.55,0L785,324.4l-2.55,0Z" transform="translate(-10.09)"/><path class="n" d="M827,298.21l-14.27,26-2.55,0,2.31-4.21a17.71,17.71,0,0,1-5,3.23,13.82,13.82,0,0,1-5.42,1.17,7,7,0,0,1-4.37-1.16,4,4,0,0,1-1.6-3.31,9.85,9.85,0,0,1,1.44-4.83,17.85,17.85,0,0,1,3.87-4.81,19.2,19.2,0,0,1,5.23-3.32,14.54,14.54,0,0,1,5.62-1.22,6.52,6.52,0,0,1,4.18,1.13,3.88,3.88,0,0,1,1.45,3.21l6.52-11.89Zm-18.92,23.24a15,15,0,0,0,4.1-2.59,13.92,13.92,0,0,0,3-3.76,7.48,7.48,0,0,0,1.1-3.76,3.27,3.27,0,0,0-1.25-2.6,5.27,5.27,0,0,0-3.36-.92,11.28,11.28,0,0,0-4.4,1,15.49,15.49,0,0,0-4.13,2.63,13.92,13.92,0,0,0-3.06,3.78,7.34,7.34,0,0,0-1.09,3.75,3.19,3.19,0,0,0,1.29,2.56,5.46,5.46,0,0,0,3.39.91A11.4,11.4,0,0,0,808.06,321.44Z" transform="translate(-10.09)"/><path class="n" d="M672.83,368.78l.42-6.5-14.76.09-6.7,6.54-2.82,0,25.43-24.59,2.74,0-1.46,24.44Zm-12.12-8.59,12.71-.08.88-13.22Z" transform="translate(-10.09)"/><path class="n" d="M706.6,352.09q1,1.9-.84,5.23l-6.19,11.29-2.59,0,5.89-10.73q1.42-2.59.67-4.06T700,352.39a11.38,11.38,0,0,0-5.89,1.78,14.66,14.66,0,0,0-4.65,4.64L684,368.71l-2.55,0,10.08-18.38,2.55,0-2.35,4.28a15.55,15.55,0,0,1,4.79-3.24,14.56,14.56,0,0,1,5.47-1.15Q705.62,350.19,706.6,352.09Z" transform="translate(-10.09)"/><path class="n" d="M707.73,374.37a8.84,8.84,0,0,1-4,1.11,4.27,4.27,0,0,1-3.42-1.24l2.14-1.83a3.28,3.28,0,0,0,2.39.82,5.65,5.65,0,0,0,2.61-.75,12.2,12.2,0,0,0,2.81-2.15l1.88-1.9,1.77-18.22,2.7,0-1.81,15.74L730,350.11l2.63,0L711.9,371.16A16.84,16.84,0,0,1,707.73,374.37Z" transform="translate(-10.09)"/><path class="n" d="M738.84,367.12a13.25,13.25,0,0,1-5.16,1.4q-2.28,0-2.9-1.28t.8-3.88l6-10.94-2.85,0,1-1.82,2.89,0,2.6-4.73,2.55,0-2.6,4.73,6.49-.08-1,1.86-6.47,0-5.79,10.56q-1.87,3.4.87,3.39a10.47,10.47,0,0,0,3.85-1Z" transform="translate(-10.09)"/><path class="n" d="M770,351.7q1,1.9-.84,5.23l-6.19,11.29-2.59,0,5.89-10.73q1.42-2.59.67-4.06T763.39,352a11.47,11.47,0,0,0-6.3,2,14.76,14.76,0,0,0-4.76,5.25l-4.94,9-2.55,0,14.27-26,2.55,0-6.58,12a14.61,14.61,0,0,1,10.34-4.47Q769,349.8,770,351.7Z" transform="translate(-10.09)"/><path class="n" d="M781.74,349.8l2.55,0-10.08,18.38-2.55,0Zm6.1-6.49a1.25,1.25,0,0,1-.15,1.17,3.28,3.28,0,0,1-1.17,1.2,2.86,2.86,0,0,1-1.51.5,1,1,0,0,1-1-.48,1.26,1.26,0,0,1,.14-1.19,3.19,3.19,0,0,1,1.16-1.18,3,3,0,0,1,1.53-.48A1,1,0,0,1,787.83,343.31Z" transform="translate(-10.09)"/><path class="n" d="M808.63,351.47q1,1.9-.84,5.23L801.6,368,799,368l5.89-10.73q1.42-2.59.67-4.06T802,351.77a11.38,11.38,0,0,0-5.89,1.78,14.66,14.66,0,0,0-4.65,4.64l-5.42,9.89-2.55,0,10.08-18.38,2.55,0L793.81,354a15.55,15.55,0,0,1,4.79-3.24,14.56,14.56,0,0,1,5.47-1.15Q807.64,349.57,808.63,351.47Z" transform="translate(-10.09)"/><path class="n" d="M837.62,349.45l-9,16.45a16.9,16.9,0,0,1-3.78,4.67,17.1,17.1,0,0,1-5.16,3.09,16.55,16.55,0,0,1-5.82,1.1q-4.42,0-6.64-2.75l2.14-1.69a5.4,5.4,0,0,0,2.18,1.84,7.67,7.67,0,0,0,3.31.61,12.39,12.39,0,0,0,6.47-1.87A13,13,0,0,0,826,366l1.63-3a16.6,16.6,0,0,1-4.7,3,13.25,13.25,0,0,1-5.16,1.12A6.49,6.49,0,0,1,813.7,366a3.89,3.89,0,0,1-1.5-3.14,9.2,9.2,0,0,1,1.35-4.57,17.06,17.06,0,0,1,3.66-4.57,17.74,17.74,0,0,1,5-3.14,14,14,0,0,1,5.37-1.15,6.23,6.23,0,0,1,3.94,1,3.67,3.67,0,0,1,1.38,3l2.21-4Zm-14.14,14.85a14.22,14.22,0,0,0,3.91-2.49,13.34,13.34,0,0,0,2.86-3.55,7.15,7.15,0,0,0,1-3.57,3.05,3.05,0,0,0-1.19-2.46,5.07,5.07,0,0,0-3.2-.87,10.81,10.81,0,0,0-4.18.92,14.49,14.49,0,0,0-3.92,2.49,13.23,13.23,0,0,0-2.89,3.58,6.85,6.85,0,0,0-1,3.55,3.14,3.14,0,0,0,1.2,2.44,5.06,5.06,0,0,0,3.22.87A10.8,10.8,0,0,0,823.48,364.31Z" transform="translate(-10.09)"/><g class="i"><g class="r"><path class="n" d="M737.24,113c15.5.39,22.81-10.55,16.28-24.38-3.75-7.94-11.6-15.6-21-20.49-2.91-1.52-4.7-4.32-4-6.26.42-1.16,1.64-1.75,3.18-1.71a7.91,7.91,0,0,1,3.38.94c12.74,6.64,23.37,17,28.45,27.78,8.85,18.74-1.05,33.58-22.07,33s-45.34-16.22-54.19-35c-5.05-10.7-4.12-20.76,2.5-26.91a3.56,3.56,0,0,1,2.57-.81,8.59,8.59,0,0,1,4.86,1.9c2.58,2,3.44,4.8,1.92,6.22-5,4.6-5.63,11.84-1.85,19.86,6.53,13.83,24.46,25.4,40,25.79M727.77,93a9.93,9.93,0,0,1-8-5.15l-14.15-30c-1.31-2.77.15-5,3.26-4.88a9.93,9.93,0,0,1,8,5.16l14.15,30c1.31,2.76-.15,5-3.25,4.87m0-57.6L673.24,34c-4.74-.12-9.15,2.73-9.78,6.33l-7.39,41.45c-.64,3.6,2.19,9.59,6.28,13.31l47.18,42.82c4.09,3.72,11.32,6.86,16.06,7l54.56,1.37c4.73.12,9.13-2.73,9.78-6.33l7.38-41.45c.64-3.6-2.18-9.58-6.28-13.31L743.86,42.34c-4.1-3.72-11.33-6.86-16.06-7" transform="translate(-10.09)"/></g></g><path class="n" d="M690,175a13.93,13.93,0,0,0-3.46-.55,3.13,3.13,0,0,0-2.13.56q-.6.56-.08,1.55a4,4,0,0,0,1.41,1.5,9.33,9.33,0,0,0,2.08,1q1.14.39,3,.85a45,45,0,0,1,4.39,1.29,13.29,13.29,0,0,1,3.47,1.92,9.8,9.8,0,0,1,2.77,3.35,5.15,5.15,0,0,1,.71,3.46,3.28,3.28,0,0,1-1.85,2.26,8.84,8.84,0,0,1-4,.79,18.45,18.45,0,0,1-5.59-.94,27.2,27.2,0,0,1-5.65-2.52l-.07-3.54a25,25,0,0,0,5,2.38,13.94,13.94,0,0,0,4.37.86,3.47,3.47,0,0,0,2.45-.67,1.43,1.43,0,0,0,.07-1.82,4,4,0,0,0-1.42-1.53,8.83,8.83,0,0,0-2.09-1q-1.15-.37-3-.83-2.6-.65-4.36-1.26a12.83,12.83,0,0,1-3.43-1.87,9.59,9.59,0,0,1-2.75-3.3,5,5,0,0,1-.69-3.31,3.18,3.18,0,0,1,1.78-2.19,8.64,8.64,0,0,1,4-.79,18.71,18.71,0,0,1,4.6.61,25.06,25.06,0,0,1,4.65,1.67l.18,3.63A28,28,0,0,0,690,175Z" transform="translate(-10.09)"/><path class="n" d="M714.64,177a15.45,15.45,0,0,1,4.4,3,17,17,0,0,1,3.32,4.43,9.73,9.73,0,0,1,1.3,4.38,3.63,3.63,0,0,1-1.26,3,5.56,5.56,0,0,1-3.65,1.06,10.11,10.11,0,0,1-3.75-.72,13,13,0,0,1-3.53-2.12l4.56,8.72h-4.14l-11.82-22.61h4.14l1.43,2.73a2.94,2.94,0,0,1,1.26-2.13,5.23,5.23,0,0,1,3-.74A11.58,11.58,0,0,1,714.64,177Zm4,10.92a4.28,4.28,0,0,0-.55-3.62,9.68,9.68,0,0,0-3.22-3.59,7.37,7.37,0,0,0-4.17-1.39q-2.13,0-2.74,1.4t.54,3.6a9.75,9.75,0,0,0,3.23,3.63,7.41,7.41,0,0,0,4.2,1.39Q718,189.31,718.64,187.9Z" transform="translate(-10.09)"/><path class="n" d="M728.43,176.73a4.72,4.72,0,0,1,3-.89l2,3.91q-2.72-.15-3.59,1.2t.33,3.65l4.18,8h-4.14L721.58,176h4.14l1.67,3.19A3.07,3.07,0,0,1,728.43,176.73Z" transform="translate(-10.09)"/><path class="n" d="M734.75,169.53a4.64,4.64,0,0,1,1.58,1.74,1.93,1.93,0,0,1,.22,1.71,1.31,1.31,0,0,1-1.33.69,3.65,3.65,0,0,1-2-.68,4.57,4.57,0,0,1-1.56-1.7,2,2,0,0,1-.24-1.74,1.31,1.31,0,0,1,1.33-.69A3.66,3.66,0,0,1,734.75,169.53ZM734.4,176h4.14l8.68,16.59h-4.14Z" transform="translate(-10.09)"/><path class="n" d="M759.35,177.5a12.33,12.33,0,0,1,4.13,4.66l5.42,10.36h-4.17l-4.8-9.18a7.15,7.15,0,0,0-2.45-2.74,5.92,5.92,0,0,0-3.3-1q-2.05,0-2.55,1.37a4.29,4.29,0,0,0,.59,3.41l4.26,8.16h-4.14L743.66,176h4.14l1.62,3.1q.08-3.2,4.41-3.27A9.75,9.75,0,0,1,759.35,177.5Z" transform="translate(-10.09)"/><path class="n" d="M780.42,175.89l7.85,15a7.44,7.44,0,0,1,1.05,4.11,3.47,3.47,0,0,1-1.71,2.71,8,8,0,0,1-4.2,1,18.92,18.92,0,0,1-8.34-2.19l.13-2.92a13.5,13.5,0,0,0,6.22,1.73q2.29,0,3-1.16t-.29-3.14l-1-2a2.7,2.7,0,0,1-1.21,1.94,5.15,5.15,0,0,1-2.83.67,10.82,10.82,0,0,1-4.47-1,14.71,14.71,0,0,1-4.15-2.82,15.88,15.88,0,0,1-3.14-4.17,8.88,8.88,0,0,1-1.19-4.11,3.48,3.48,0,0,1,1.22-2.78,5.25,5.25,0,0,1,3.43-1,9.57,9.57,0,0,1,3.52.68,11.94,11.94,0,0,1,3.25,1.92l-1.3-2.48Zm.5,11.29a4.05,4.05,0,0,0-.53-3.43,9.23,9.23,0,0,0-3-3.42,7,7,0,0,0-4-1.31,2.47,2.47,0,0,0-2.56,1.34,4.1,4.1,0,0,0,.49,3.41,9.49,9.49,0,0,0,3.08,3.42,7,7,0,0,0,4,1.31A2.49,2.49,0,0,0,780.92,187.17Z" transform="translate(-10.09)"/><path class="n" d="M806.85,172.16a9.3,9.3,0,0,1,4.13,4,4.26,4.26,0,0,1,.58,3.09,2.51,2.51,0,0,1-1.95,1.73,10.55,10.55,0,0,1,7.61,5.48q1.46,2.79.08,4.39t-5.2,1.61l-10.18,0-11.35-21.71,9.9,0A13.64,13.64,0,0,1,806.85,172.16Zm.26,6.71q.57-.72-.1-2a4.49,4.49,0,0,0-1.94-1.92,6,6,0,0,0-2.93-.65h-5.41l2.76,5.27h5.41A2.74,2.74,0,0,0,807.11,178.87Zm5.41,9.21q.74-.78,0-2.17a4.82,4.82,0,0,0-2.24-2.09,7.68,7.68,0,0,0-3.56-.72h-5.41l3,5.74h5.41A3.76,3.76,0,0,0,812.52,188.08Z" transform="translate(-10.09)"/><path class="n" d="M828.25,176.71a16.17,16.17,0,0,1,4.7,3,15.48,15.48,0,0,1,3.42,4.39,8.6,8.6,0,0,1,1.19,4.44,3.79,3.79,0,0,1-1.59,3,7,7,0,0,1-4.11,1.06,13.79,13.79,0,0,1-5.26-1,16,16,0,0,1-4.72-3,15.71,15.71,0,0,1-3.45-4.43,8.42,8.42,0,0,1-1.17-4.39,3.78,3.78,0,0,1,1.62-3,7.11,7.11,0,0,1,4.16-1.07A13.61,13.61,0,0,1,828.25,176.71Zm-6.18,3.8q-.61,1.4.56,3.63a9.75,9.75,0,0,0,3.23,3.63,7.45,7.45,0,0,0,4.23,1.39,2.63,2.63,0,0,0,2.71-1.4q.61-1.4-.56-3.63A9.75,9.75,0,0,0,829,180.5a7.37,7.37,0,0,0-4.17-1.39Q822.68,179.11,822.07,180.51Z" transform="translate(-10.09)"/><path class="n" d="M848.24,176.67a16.15,16.15,0,0,1,4.7,3,15.48,15.48,0,0,1,3.42,4.39,8.61,8.61,0,0,1,1.19,4.44,3.79,3.79,0,0,1-1.59,3,7,7,0,0,1-4.11,1.06,13.8,13.8,0,0,1-5.26-1,16,16,0,0,1-4.72-3,15.7,15.7,0,0,1-3.45-4.43,8.43,8.43,0,0,1-1.17-4.39,3.78,3.78,0,0,1,1.62-3,7.1,7.1,0,0,1,4.16-1.06A13.61,13.61,0,0,1,848.24,176.67Zm-6.19,3.8q-.61,1.4.56,3.63a9.74,9.74,0,0,0,3.23,3.63,7.45,7.45,0,0,0,4.23,1.39,2.63,2.63,0,0,0,2.71-1.4q.61-1.4-.56-3.63a9.75,9.75,0,0,0-3.23-3.63,7.37,7.37,0,0,0-4.17-1.39Q842.66,179.07,842.06,180.47Z" transform="translate(-10.09)"/><path class="n" d="M873.74,191.27a5.37,5.37,0,0,1-3.63,1.22,8,8,0,0,1-4.25-1.25,9.17,9.17,0,0,1-3.34-3.7l-4.28-8.19h-2.39l-1.57-2.95h2.42l-2.38-4.56h4.11l2.38,4.56h4.87l1.54,2.95h-4.87l3.91,7.47a4.4,4.4,0,0,0,1.3,1.63,2.72,2.72,0,0,0,1.59.48,4,4,0,0,0,2.06-.69Z" transform="translate(-10.09)"/></svg>