<svg xmlns="http://www.w3.org/2000/svg" width="1053.26" height="489.81" viewBox="0 0 1053.26 489.81"><defs><style>.a,.b,.d,.f,.h{fill:none;}.a,.b{stroke:#999;}.a,.d,.f,.h{stroke-miterlimit:10;}.b{stroke-linejoin:round;}.c{fill:#ededed;}.d{stroke:#ccc;}.d,.f{stroke-width:2px;}.e{fill:#e1f2da;}.f,.h{stroke:#c3e5b5;}.g{fill:#68bd45;}.h{stroke-width:1.54px;}.i{fill:#6cb245;}</style></defs><title>Asset 1</title><line class="a" x1="737.49" y1="54.89" x2="737.49" y2="438.35"/><line class="a" x1="402.73" y1="44.57" x2="714.23" y2="44.57"/><line class="a" x1="372.59" y1="68.39" x2="372.59" y2="433.85"/><line class="a" x1="397.23" y1="433.77" x2="732.23" y2="433.77"/><polyline class="b" points="94.25 177.53 142.06 177.53 142.06 382.64 97.34 382.64"/><line class="a" x1="373.23" y1="140.39" x2="738.23" y2="140.39"/><line class="a" x1="98.73" y1="279.37" x2="837.7" y2="279.37"/><polyline class="b" points="896.23 360.81 837.23 360.81 837.23 198.91 913.23 198.91"/><rect class="c" x="1" y="339.13" width="112.48" height="86.48" rx="3.11" ry="3.11"/><rect class="d" x="1" y="339.13" width="112.48" height="86.48" rx="3.11" ry="3.11"/><path d="M31.6,384.82v-10h1.13v3.86a3,3,0,0,1,2.44-1.28c1.89,0,3.23,1.5,3.23,3.81S37.06,385,35.17,385a3,3,0,0,1-2.44-1.26v1.08Zm3.28-.83c1.47,0,2.34-1.18,2.34-2.79s-.87-2.8-2.34-2.8a2.69,2.69,0,0,0-2.16,1.17v3.29A2.67,2.67,0,0,0,34.88,384Z"/><path d="M40.22,384.82v-7.25h1.13v1.17a3.08,3.08,0,0,1,2.42-1.32v1.15a2,2,0,0,0-.45,0,2.65,2.65,0,0,0-2,1.16v5.13Z"/><path d="M44.75,381.19A3.59,3.59,0,1,1,48.34,385,3.55,3.55,0,0,1,44.75,381.19Zm6,0a2.44,2.44,0,1,0-2.4,2.8A2.52,2.52,0,0,0,50.74,381.19Z"/><path d="M60,384.82,58.13,379l-1.89,5.82H55.12l-2.31-7.25H54l1.77,5.78,1.91-5.78h1l1.9,5.78,1.77-5.78h1.17l-2.31,7.25Z"/><path d="M64.13,383.86l.58-.81a3.28,3.28,0,0,0,2.38,1c1.11,0,1.71-.52,1.71-1.24,0-1.75-4.48-.68-4.48-3.36,0-1.12,1-2.08,2.7-2.08a3.67,3.67,0,0,1,2.69,1l-.52.78a2.82,2.82,0,0,0-2.16-.92c-1,0-1.6.5-1.6,1.14,0,1.59,4.48.54,4.48,3.36,0,1.21-1,2.19-2.85,2.19A3.85,3.85,0,0,1,64.13,383.86Z"/><path d="M71.32,381.19a3.62,3.62,0,0,1,3.57-3.79c2.19,0,3.48,1.71,3.48,3.88v.29H72.5a2.55,2.55,0,0,0,2.61,2.5,3.17,3.17,0,0,0,2.23-.92l.54.74A3.94,3.94,0,0,1,75,385,3.59,3.59,0,0,1,71.32,381.19Zm3.55-2.87a2.42,2.42,0,0,0-2.37,2.42h4.75A2.35,2.35,0,0,0,74.87,378.32Z"/><path d="M80.18,384.82v-7.25h1.13v1.17a3.08,3.08,0,0,1,2.42-1.32v1.15a2,2,0,0,0-.45,0,2.65,2.65,0,0,0-2,1.16v5.13Z"/><rect class="c" x="1.01" y="236.32" width="112.48" height="86.48" rx="3.11" ry="3.11"/><rect class="d" x="1.01" y="236.32" width="112.48" height="86.48" rx="3.11" ry="3.11"/><path d="M44.85,282v-4.92c0-.92-.4-1.5-1.33-1.5a2.53,2.53,0,0,0-1.92,1.11V282H40.47v-4.92c0-.92-.39-1.5-1.33-1.5a2.53,2.53,0,0,0-1.9,1.13V282H36.1v-7.25h1.13v1.05a3.13,3.13,0,0,1,2.34-1.23,1.86,1.86,0,0,1,1.95,1.35,3.05,3.05,0,0,1,2.43-1.35c1.32,0,2,.74,2,2.19V282Z"/><path d="M47.8,278.38a3.59,3.59,0,1,1,3.58,3.81A3.55,3.55,0,0,1,47.8,278.38Zm6,0a2.44,2.44,0,1,0-2.4,2.8A2.52,2.52,0,0,0,53.79,278.38Z"/><path d="M56.8,282V272h1.13v3.86a3,3,0,0,1,2.44-1.28c1.89,0,3.23,1.5,3.23,3.81s-1.33,3.79-3.23,3.79a3,3,0,0,1-2.44-1.26V282Zm3.28-.83c1.47,0,2.34-1.18,2.34-2.79s-.87-2.8-2.34-2.8a2.69,2.69,0,0,0-2.16,1.17V280A2.67,2.67,0,0,0,60.09,281.18Z"/><path d="M65.23,273a.76.76,0,1,1,1.51,0,.76.76,0,0,1-1.51,0Zm.19,9v-7.25h1.13V282Z"/><path d="M68.8,282V272h1.13v10Z"/><path d="M71.76,278.38a3.62,3.62,0,0,1,3.57-3.79c2.19,0,3.48,1.71,3.48,3.88v.29H72.94a2.55,2.55,0,0,0,2.61,2.5,3.17,3.17,0,0,0,2.23-.92l.54.74a3.94,3.94,0,0,1-2.88,1.11A3.59,3.59,0,0,1,71.76,278.38Zm3.55-2.87a2.42,2.42,0,0,0-2.37,2.42H77.7A2.35,2.35,0,0,0,75.31,275.51Z"/><rect class="c" x="1.01" y="137.65" width="112.48" height="86.48" rx="3.11" ry="3.11"/><rect class="d" x="1.01" y="137.65" width="112.48" height="86.48" rx="3.11" ry="3.11"/><path d="M49,183.34v-10H50.1v10Z"/><path d="M51.93,179.71a3.59,3.59,0,1,1,3.58,3.81A3.55,3.55,0,0,1,51.93,179.71Zm6,0a2.44,2.44,0,1,0-2.4,2.8A2.52,2.52,0,0,0,57.91,179.71Z"/><path d="M61.72,183.34v-8.89H58.56v-1.11h7.59v1.11H63v8.89Z"/><rect class="e" x="175.68" y="236.01" width="112.48" height="86.48" rx="3.11" ry="3.11"/><rect class="f" x="175.68" y="236.01" width="112.48" height="86.48" rx="3.11" ry="3.11"/><path d="M229,258.43l-.88-2.22h-5l-.88,2.22h-1.43l4-10h1.54l4,10Zm-3.37-8.71-2.13,5.38h4.25Z"/><path d="M231.72,258.43v-10h4a3,3,0,1,1,0,6H233v4Zm5.86-7a1.86,1.86,0,0,0-2-1.91H233v3.81h2.63A1.86,1.86,0,0,0,237.58,251.44Z"/><path d="M240.52,258.43v-10h1.25v10Z"/><path d="M203.71,267.35a5,5,0,0,1,5.14-5.17,4.77,4.77,0,0,1,3.88,1.88l-1,.62a3.69,3.69,0,0,0-2.9-1.38,4.08,4.08,0,0,0,0,8.14,4,4,0,0,0,2.69-1.08v-2h-3.44V267.2h4.68v3.61a5.21,5.21,0,0,1-3.93,1.73A5,5,0,0,1,203.71,267.35Z"/><path d="M219.3,272.35v-.83a3.13,3.13,0,0,1-2.4,1,2.41,2.41,0,0,1-2.54-2.4,2.37,2.37,0,0,1,2.54-2.38,3,3,0,0,1,2.4,1v-1.3c0-1-.78-1.53-1.83-1.53a2.88,2.88,0,0,0-2.22,1l-.52-.78a3.79,3.79,0,0,1,2.89-1.2c1.53,0,2.81.69,2.81,2.45v5Zm0-1.53v-1.36a2.43,2.43,0,0,0-2-.9,1.59,1.59,0,1,0,0,3.17A2.43,2.43,0,0,0,219.3,270.82Z"/><path d="M222.9,270.83v-4.74h-1.2v-1h1.2v-2H224v2h1.47v1H224v4.5c0,.54.24.93.73.93a1.08,1.08,0,0,0,.76-.3l.33.84a1.84,1.84,0,0,1-1.35.46A1.48,1.48,0,0,1,222.9,270.83Z"/><path d="M226.66,268.72a3.62,3.62,0,0,1,3.57-3.79c2.19,0,3.48,1.71,3.48,3.88v.29h-5.86a2.55,2.55,0,0,0,2.61,2.5,3.17,3.17,0,0,0,2.23-.92l.54.74a3.94,3.94,0,0,1-2.88,1.11A3.59,3.59,0,0,1,226.66,268.72Zm3.55-2.87a2.42,2.42,0,0,0-2.37,2.42h4.75A2.35,2.35,0,0,0,230.22,265.85Z"/><path d="M241.8,272.35l-1.89-5.82L238,272.35h-1.12l-2.31-7.25h1.17l1.77,5.78,1.91-5.78h1l1.9,5.78,1.77-5.78h1.17l-2.31,7.25Z"/><path d="M251.07,272.35v-.83a3.13,3.13,0,0,1-2.4,1,2.41,2.41,0,0,1-2.53-2.4,2.37,2.37,0,0,1,2.53-2.38,3,3,0,0,1,2.4,1v-1.3c0-1-.78-1.53-1.83-1.53a2.88,2.88,0,0,0-2.22,1l-.52-.78a3.79,3.79,0,0,1,2.89-1.2c1.53,0,2.81.69,2.81,2.45v5Zm0-1.53v-1.36a2.43,2.43,0,0,0-2-.9,1.59,1.59,0,1,0,0,3.17A2.43,2.43,0,0,0,251.07,270.82Z"/><path d="M254.22,274.16a1.72,1.72,0,0,0,.62.12,1,1,0,0,0,1.08-.76l.48-1.09-3-7.32h1.21L257,271l2.4-5.94h1.23L257,273.82a2.15,2.15,0,0,1-2.13,1.47,3.68,3.68,0,0,1-.83-.1Z"/><path class="g" d="M247,294.47a54.86,54.86,0,0,0-2.32-9,13.14,13.14,0,0,1-1.52,2.7,14.29,14.29,0,0,0-22.51,2.62,9.46,9.46,0,0,1,5.84,2.45,9.87,9.87,0,0,0-5.52-1.63,10.11,10.11,0,1,0,0,20.22h23.31A8.92,8.92,0,0,0,247,294.47Zm-21.78,14.29a1.22,1.22,0,1,1-.18-1.72A1.22,1.22,0,0,1,225.23,308.77Zm19.39-4.28c-3.53,4.7-11.06,3.11-15.89,3.34,0,0-.85,0-1.72.19,0,0,.33-.14.74-.28,3.39-1.17,5-1.41,7.06-2.47,3.87-2,7.73-6.3,8.51-10.79-1.47,4.32-6,8-10,9.54a68.66,68.66,0,0,1-7.85,2l-.2-.11c-3.44-1.67-3.53-9.11,2.71-11.51,2.74-1.05,5.35-.47,8.31-1.18,3.15-.75,6.81-3.11,8.29-6.21C246.21,292,248.21,299.71,244.62,304.49Z"/><rect class="e" x="316.35" y="1" width="112.48" height="86.48" rx="3.11" ry="3.11"/><rect class="f" x="316.35" y="1" width="112.48" height="86.48" rx="3.11" ry="3.11"/><path d="M348.22,23.42v-10h1.13v3.86A3,3,0,0,1,351.79,16c1.89,0,3.22,1.5,3.22,3.81s-1.33,3.79-3.22,3.79a3,3,0,0,1-2.44-1.26v1.08Zm3.28-.83c1.47,0,2.34-1.18,2.34-2.79S353,17,351.51,17a2.69,2.69,0,0,0-2.16,1.17v3.29A2.67,2.67,0,0,0,351.51,22.59Z"/><path d="M356.85,23.42V16.17H358v1.17A3.08,3.08,0,0,1,360.39,16v1.15a2,2,0,0,0-.45,0,2.65,2.65,0,0,0-2,1.16v5.13Z"/><path d="M361.38,19.79A3.62,3.62,0,0,1,364.95,16c2.19,0,3.48,1.71,3.48,3.88v.29h-5.86a2.55,2.55,0,0,0,2.61,2.5,3.17,3.17,0,0,0,2.23-.92l.54.74a3.94,3.94,0,0,1-2.88,1.11A3.59,3.59,0,0,1,361.38,19.79Zm3.55-2.87a2.42,2.42,0,0,0-2.37,2.42h4.75A2.35,2.35,0,0,0,364.93,16.92Z"/><path d="M374.77,23.42v-.83a3.13,3.13,0,0,1-2.4,1,2.41,2.41,0,0,1-2.53-2.4,2.37,2.37,0,0,1,2.53-2.38,3,3,0,0,1,2.4,1V18.5c0-1-.78-1.53-1.83-1.53a2.88,2.88,0,0,0-2.22,1l-.52-.78a3.79,3.79,0,0,1,2.89-1.2c1.53,0,2.81.69,2.81,2.45v5Zm0-1.53V20.53a2.43,2.43,0,0,0-2-.9,1.59,1.59,0,1,0,0,3.17A2.43,2.43,0,0,0,374.77,21.89Z"/><path d="M383.08,23.42l-2.61-3.25-1.2,1.18v2.07h-1.12v-10h1.13V20l3.81-3.86h1.43l-3.21,3.29,3.22,4Z"/><path d="M385.39,19.79A3.62,3.62,0,0,1,389,16c2.19,0,3.48,1.71,3.48,3.88v.29h-5.86a2.55,2.55,0,0,0,2.61,2.5,3.17,3.17,0,0,0,2.23-.92l.54.74a3.94,3.94,0,0,1-2.88,1.11A3.59,3.59,0,0,1,385.39,19.79Zm3.55-2.87a2.42,2.42,0,0,0-2.37,2.42h4.75A2.35,2.35,0,0,0,388.95,16.92Z"/><path d="M394.26,23.42V16.17h1.13v1.17A3.08,3.08,0,0,1,397.8,16v1.15a2,2,0,0,0-.45,0,2.65,2.65,0,0,0-2,1.16v5.13Z"/><path d="M343.73,37.34V36.26a3,3,0,0,1-2.44,1.26c-1.89,0-3.22-1.44-3.22-3.79s1.32-3.81,3.22-3.81a3,3,0,0,1,2.44,1.28V27.33h1.13v10Zm0-2V32.09a2.72,2.72,0,0,0-2.17-1.17c-1.45,0-2.32,1.2-2.32,2.8s.87,2.79,2.32,2.79A2.69,2.69,0,0,0,343.73,35.37Z"/><path d="M351.64,37.34v-.83a3.13,3.13,0,0,1-2.4,1,2.41,2.41,0,0,1-2.53-2.4,2.37,2.37,0,0,1,2.53-2.38,3,3,0,0,1,2.4,1v-1.3c0-1-.78-1.53-1.83-1.53a2.88,2.88,0,0,0-2.22,1l-.52-.78a3.79,3.79,0,0,1,2.89-1.2c1.53,0,2.81.69,2.81,2.45v5Zm0-1.53V34.44a2.43,2.43,0,0,0-2-.9,1.59,1.59,0,1,0,0,3.17A2.43,2.43,0,0,0,351.64,35.81Z"/><path d="M354.38,36.38l.58-.81a3.28,3.28,0,0,0,2.38,1c1.11,0,1.71-.52,1.71-1.24,0-1.75-4.48-.68-4.48-3.36,0-1.12,1-2.08,2.7-2.08A3.67,3.67,0,0,1,360,31l-.52.78a2.82,2.82,0,0,0-2.16-.92c-1,0-1.6.5-1.6,1.14,0,1.59,4.48.54,4.48,3.36,0,1.21-1,2.19-2.85,2.19A3.85,3.85,0,0,1,354.38,36.38Z"/><path d="M366.89,37.34V32.57c0-1.28-.66-1.65-1.63-1.65A2.85,2.85,0,0,0,363.11,32v5.29H362v-10h1.13v3.81a3.6,3.6,0,0,1,2.59-1.23A2,2,0,0,1,368,32.22v5.12Z"/><path d="M370.27,37.34v-10h1.13v3.86a3,3,0,0,1,2.44-1.28c1.89,0,3.23,1.5,3.23,3.81s-1.33,3.79-3.23,3.79a3,3,0,0,1-2.44-1.26v1.08Zm3.28-.83c1.47,0,2.34-1.18,2.34-2.79s-.87-2.8-2.34-2.8a2.69,2.69,0,0,0-2.16,1.17v3.29A2.67,2.67,0,0,0,373.55,36.51Z"/><path d="M378.47,33.71a3.59,3.59,0,1,1,7.17,0,3.59,3.59,0,1,1-7.17,0Zm6,0a2.43,2.43,0,1,0-4.81,0,2.44,2.44,0,1,0,4.81,0Z"/><path d="M392,37.34v-.83a3.13,3.13,0,0,1-2.4,1,2.41,2.41,0,0,1-2.54-2.4,2.37,2.37,0,0,1,2.54-2.38,3,3,0,0,1,2.4,1v-1.3c0-1-.78-1.53-1.83-1.53a2.88,2.88,0,0,0-2.22,1l-.52-.78a3.79,3.79,0,0,1,2.89-1.2c1.53,0,2.81.69,2.81,2.45v5Zm0-1.53V34.44a2.43,2.43,0,0,0-2-.9,1.59,1.59,0,1,0,0,3.17A2.43,2.43,0,0,0,392,35.81Z"/><path d="M395.38,37.34V30.09h1.13v1.17a3.08,3.08,0,0,1,2.42-1.32V31.1a2,2,0,0,0-.45,0,2.65,2.65,0,0,0-2,1.16v5.13Z"/><path d="M405.57,37.34V36.26a3,3,0,0,1-2.44,1.26c-1.89,0-3.22-1.44-3.22-3.79s1.32-3.81,3.22-3.81a3,3,0,0,1,2.44,1.28V27.33h1.13v10Zm0-2V32.09a2.72,2.72,0,0,0-2.17-1.17c-1.45,0-2.32,1.2-2.32,2.8s.87,2.79,2.32,2.79A2.69,2.69,0,0,0,405.57,35.37Z"/><path class="g" d="M387.56,59.47a54.86,54.86,0,0,0-2.32-9,13.14,13.14,0,0,1-1.52,2.7,14.29,14.29,0,0,0-22.51,2.62A9.46,9.46,0,0,1,367,58.29a9.87,9.87,0,0,0-5.52-1.63,10.11,10.11,0,0,0,0,20.22h23.31a8.92,8.92,0,0,0,2.72-17.41ZM365.78,73.76A1.22,1.22,0,1,1,365.6,72,1.22,1.22,0,0,1,365.78,73.76Zm19.39-4.28c-3.53,4.7-11.06,3.11-15.89,3.34,0,0-.85,0-1.72.19,0,0,.33-.14.74-.28,3.39-1.17,5-1.41,7.06-2.47,3.87-2,7.73-6.3,8.51-10.79-1.47,4.32-6,8-10,9.54A68.66,68.66,0,0,1,366,71l-.2-.11c-3.44-1.67-3.53-9.11,2.71-11.51,2.74-1.05,5.35-.47,8.31-1.18,3.15-.75,6.81-3.11,8.29-6.21C386.76,57,388.76,64.7,385.17,69.48Z"/><rect class="e" x="681.26" y="1" width="112.48" height="86.48" rx="3.11" ry="3.11"/><rect class="f" x="681.26" y="1" width="112.48" height="86.48" rx="3.11" ry="3.11"/><path d="M714.51,22.46l.58-.81a3.28,3.28,0,0,0,2.38,1c1.11,0,1.71-.52,1.71-1.24,0-1.75-4.48-.68-4.48-3.36,0-1.12,1-2.08,2.7-2.08a3.67,3.67,0,0,1,2.69,1l-.53.78a2.82,2.82,0,0,0-2.16-.92c-1,0-1.6.5-1.6,1.14,0,1.59,4.48.54,4.48,3.36,0,1.21-1,2.19-2.85,2.19A3.85,3.85,0,0,1,714.51,22.46Z"/><path d="M721.69,19.79A3.62,3.62,0,0,1,725.26,16c2.19,0,3.48,1.71,3.48,3.88v.29h-5.87a2.55,2.55,0,0,0,2.61,2.5,3.16,3.16,0,0,0,2.23-.92l.54.74a3.93,3.93,0,0,1-2.88,1.11A3.59,3.59,0,0,1,721.69,19.79Zm3.55-2.87a2.42,2.42,0,0,0-2.37,2.42h4.75A2.35,2.35,0,0,0,725.25,16.92Z"/><path d="M730.56,23.42V16.17h1.13v1.17A3.08,3.08,0,0,1,734.1,16v1.15a2,2,0,0,0-.45,0,2.65,2.65,0,0,0-2,1.16v5.13Z"/><path d="M737.44,23.42l-3-7.25h1.21l2.42,5.94,2.4-5.94h1.23l-3,7.25Z"/><path d="M742.66,14.39a.76.76,0,1,1,1.52,0,.76.76,0,0,1-1.52,0Zm.2,9V16.17H744v7.25Z"/><path d="M745.81,19.79A3.58,3.58,0,0,1,749.43,16a3.1,3.1,0,0,1,2.66,1.26l-.75.69a2.15,2.15,0,0,0-1.84-.95,2.52,2.52,0,0,0-2.5,2.79,2.54,2.54,0,0,0,2.5,2.8,2.18,2.18,0,0,0,1.84-.94l.75.69a3.1,3.1,0,0,1-2.66,1.26A3.58,3.58,0,0,1,745.81,19.79Z"/><path d="M753.24,19.79A3.62,3.62,0,0,1,756.81,16c2.19,0,3.48,1.71,3.48,3.88v.29h-5.87a2.55,2.55,0,0,0,2.61,2.5,3.16,3.16,0,0,0,2.23-.92l.54.74a3.93,3.93,0,0,1-2.88,1.11A3.59,3.59,0,0,1,753.24,19.79Zm3.55-2.87a2.42,2.42,0,0,0-2.37,2.42h4.75A2.35,2.35,0,0,0,756.79,16.92Z"/><path d="M714.09,37.34V30.09h1.13v1.17a3.08,3.08,0,0,1,2.42-1.32V31.1a2,2,0,0,0-.45,0,2.65,2.65,0,0,0-2,1.16v5.13Z"/><path d="M718.62,33.71a3.62,3.62,0,0,1,3.57-3.79c2.19,0,3.48,1.71,3.48,3.88v.29H719.8a2.55,2.55,0,0,0,2.61,2.5,3.16,3.16,0,0,0,2.23-.92l.54.74a3.93,3.93,0,0,1-2.88,1.11A3.59,3.59,0,0,1,718.62,33.71Zm3.55-2.87a2.42,2.42,0,0,0-2.37,2.42h4.75A2.35,2.35,0,0,0,722.17,30.84Z"/><path d="M727.47,39.2l.57-.84a2.77,2.77,0,0,0,2.36,1,2.07,2.07,0,0,0,2.32-2.17v-1a3,3,0,0,1-2.43,1.29c-1.89,0-3.22-1.41-3.22-3.75s1.32-3.76,3.22-3.76a3,3,0,0,1,2.43,1.28v-1.1h1.13v7c0,2.4-1.68,3.15-3.45,3.15A3.7,3.7,0,0,1,727.47,39.2Zm5.25-3.95V32.09a2.67,2.67,0,0,0-2.16-1.17c-1.46,0-2.33,1.16-2.33,2.76s.87,2.76,2.33,2.76A2.68,2.68,0,0,0,732.72,35.25Z"/><path d="M735.9,28.31a.76.76,0,1,1,1.52,0,.76.76,0,0,1-1.52,0Zm.2,9V30.09h1.13v7.25Z"/><path d="M738.84,36.38l.58-.81a3.28,3.28,0,0,0,2.38,1c1.11,0,1.71-.52,1.71-1.24,0-1.75-4.48-.68-4.48-3.36,0-1.12,1-2.08,2.7-2.08a3.67,3.67,0,0,1,2.69,1l-.53.78a2.82,2.82,0,0,0-2.16-.92c-1,0-1.6.5-1.6,1.14,0,1.59,4.48.54,4.48,3.36,0,1.21-1,2.19-2.85,2.19A3.85,3.85,0,0,1,738.84,36.38Z"/><path d="M746.67,35.82V31.08h-1.2v-1h1.2v-2h1.13v2h1.47v1h-1.47v4.5c0,.54.24.93.74.93a1.08,1.08,0,0,0,.76-.3l.33.84a1.84,1.84,0,0,1-1.35.46A1.48,1.48,0,0,1,746.67,35.82Z"/><path d="M750.85,37.34V30.09H752v1.17a3.08,3.08,0,0,1,2.42-1.32V31.1a2,2,0,0,0-.45,0,2.65,2.65,0,0,0-2,1.16v5.13Z"/><path d="M755.58,39.15a1.72,1.72,0,0,0,.61.12,1,1,0,0,0,1.08-.76l.48-1.09-3-7.32h1.21L758.35,36l2.4-5.94H762l-3.63,8.71a2.15,2.15,0,0,1-2.13,1.47,3.68,3.68,0,0,1-.83-.1Z"/><path class="g" d="M752.46,59.47a54.86,54.86,0,0,0-2.32-9,13.14,13.14,0,0,1-1.52,2.7,14.29,14.29,0,0,0-22.51,2.62A9.46,9.46,0,0,1,732,58.29a9.87,9.87,0,0,0-5.52-1.63,10.11,10.11,0,1,0,0,20.22h23.31a8.92,8.92,0,0,0,2.72-17.41ZM730.68,73.76A1.22,1.22,0,1,1,730.5,72,1.22,1.22,0,0,1,730.68,73.76Zm19.39-4.28c-3.53,4.7-11.06,3.11-15.89,3.34,0,0-.85,0-1.72.19,0,0,.33-.14.74-.28,3.39-1.17,5-1.41,7.06-2.47,3.87-2,7.73-6.3,8.51-10.79-1.47,4.32-6,8-10,9.54a68.66,68.66,0,0,1-7.85,2l-.2-.11c-3.44-1.67-3.53-9.11,2.71-11.51,2.74-1.05,5.35-.47,8.31-1.18,3.15-.75,6.81-3.11,8.29-6.21C751.67,57,753.67,64.7,750.08,69.48Z"/><rect class="e" x="316.35" y="390.54" width="112.48" height="86.48" rx="3.11" ry="3.11"/><rect class="h" x="316.35" y="390.54" width="112.48" height="86.48" rx="3.11" ry="3.11"/><path d="M353,409.33a3.58,3.58,0,0,1,3.61-3.79,3.1,3.1,0,0,1,2.65,1.26l-.75.69a2.15,2.15,0,0,0-1.84-.95,2.81,2.81,0,0,0,0,5.59,2.18,2.18,0,0,0,1.84-.94l.75.69a3.1,3.1,0,0,1-2.65,1.26A3.58,3.58,0,0,1,353,409.33Z"/><path d="M360.46,409.33a3.59,3.59,0,1,1,3.58,3.81A3.55,3.55,0,0,1,360.46,409.33Zm6,0a2.44,2.44,0,1,0-2.4,2.8A2.52,2.52,0,0,0,366.45,409.33Z"/><path d="M374.35,413v-4.74c0-1.27-.65-1.68-1.62-1.68a2.8,2.8,0,0,0-2.15,1.13V413h-1.12v-7.25h1.13v1.05a3.59,3.59,0,0,1,2.58-1.23,2.06,2.06,0,0,1,2.31,2.34V413Z"/><path d="M378,413V406.7h-1.2v-1H378v-.55a2.18,2.18,0,0,1,3.19-2.1l-.29.85a1.14,1.14,0,0,0-.64-.18c-.74,0-1.14.51-1.14,1.42v.55h1.47v1h-1.47V413Zm3.73-9a.76.76,0,1,1,1.52,0,.76.76,0,0,1-1.52,0Zm.19,9v-7.25h1.13V413Z"/><path d="M385.35,414.82l.57-.84a2.76,2.76,0,0,0,2.35,1,2.07,2.07,0,0,0,2.33-2.17v-1a3,3,0,0,1-2.43,1.29c-1.89,0-3.22-1.41-3.22-3.75s1.32-3.76,3.22-3.76a3,3,0,0,1,2.43,1.28v-1.1h1.13v7c0,2.4-1.68,3.15-3.45,3.15A3.7,3.7,0,0,1,385.35,414.82Zm5.25-3.95v-3.17a2.67,2.67,0,0,0-2.16-1.17c-1.45,0-2.32,1.16-2.32,2.76s.87,2.76,2.32,2.76A2.68,2.68,0,0,0,390.6,410.87Z"/><path d="M343.73,426.88V425.8a3,3,0,0,1-2.44,1.26c-1.89,0-3.22-1.44-3.22-3.79s1.32-3.81,3.22-3.81a3,3,0,0,1,2.44,1.28v-3.86h1.13v10Zm0-2v-3.29a2.72,2.72,0,0,0-2.17-1.17c-1.45,0-2.32,1.2-2.32,2.8s.87,2.79,2.32,2.79A2.69,2.69,0,0,0,343.73,424.91Z"/><path d="M351.64,426.88v-.83a3.13,3.13,0,0,1-2.4,1,2.41,2.41,0,0,1-2.53-2.4,2.37,2.37,0,0,1,2.53-2.38,3,3,0,0,1,2.4,1V422c0-1-.78-1.53-1.83-1.53a2.88,2.88,0,0,0-2.22,1l-.52-.78a3.79,3.79,0,0,1,2.89-1.2c1.53,0,2.81.69,2.81,2.45v5Zm0-1.53V424a2.43,2.43,0,0,0-2-.9,1.59,1.59,0,1,0,0,3.17A2.43,2.43,0,0,0,351.64,425.35Z"/><path d="M354.38,425.92l.58-.81a3.28,3.28,0,0,0,2.38,1c1.11,0,1.71-.52,1.71-1.24,0-1.75-4.48-.68-4.48-3.36,0-1.12,1-2.08,2.7-2.08a3.67,3.67,0,0,1,2.69,1l-.52.78a2.82,2.82,0,0,0-2.16-.92c-1,0-1.6.5-1.6,1.14,0,1.59,4.48.54,4.48,3.36,0,1.21-1,2.19-2.85,2.19A3.85,3.85,0,0,1,354.38,425.92Z"/><path d="M366.89,426.88v-4.77c0-1.28-.66-1.65-1.63-1.65a2.85,2.85,0,0,0-2.15,1.13v5.29H362v-10h1.13v3.81a3.6,3.6,0,0,1,2.59-1.23,2,2,0,0,1,2.31,2.31v5.12Z"/><path d="M370.27,426.88v-10h1.13v3.86a3,3,0,0,1,2.44-1.28c1.89,0,3.23,1.5,3.23,3.81s-1.33,3.79-3.23,3.79a3,3,0,0,1-2.44-1.26v1.08Zm3.28-.83c1.47,0,2.34-1.18,2.34-2.79s-.87-2.8-2.34-2.8a2.69,2.69,0,0,0-2.16,1.17v3.29A2.67,2.67,0,0,0,373.55,426.05Z"/><path d="M378.47,423.25a3.59,3.59,0,1,1,3.58,3.81A3.55,3.55,0,0,1,378.47,423.25Zm6,0a2.44,2.44,0,1,0-2.4,2.8A2.52,2.52,0,0,0,384.46,423.25Z"/><path d="M392,426.88v-.83a3.13,3.13,0,0,1-2.4,1,2.41,2.41,0,0,1-2.54-2.4,2.37,2.37,0,0,1,2.54-2.38,3,3,0,0,1,2.4,1V422c0-1-.78-1.53-1.83-1.53a2.88,2.88,0,0,0-2.22,1l-.52-.78a3.79,3.79,0,0,1,2.89-1.2c1.53,0,2.81.69,2.81,2.45v5Zm0-1.53V424a2.43,2.43,0,0,0-2-.9,1.59,1.59,0,1,0,0,3.17A2.43,2.43,0,0,0,392,425.35Z"/><path d="M395.38,426.88v-7.25h1.13v1.17a3.08,3.08,0,0,1,2.42-1.32v1.15a2,2,0,0,0-.45,0,2.65,2.65,0,0,0-2,1.16v5.13Z"/><path d="M405.57,426.88V425.8a3,3,0,0,1-2.44,1.26c-1.89,0-3.22-1.44-3.22-3.79s1.32-3.81,3.22-3.81a3,3,0,0,1,2.44,1.28v-3.86h1.13v10Zm0-2v-3.29a2.72,2.72,0,0,0-2.17-1.17c-1.45,0-2.32,1.2-2.32,2.8s.87,2.79,2.32,2.79A2.69,2.69,0,0,0,405.57,424.91Z"/><path class="g" d="M387.79,449a54.86,54.86,0,0,0-2.32-9,13.14,13.14,0,0,1-1.52,2.7,14.29,14.29,0,0,0-22.51,2.62,9.46,9.46,0,0,1,5.84,2.45,9.87,9.87,0,0,0-5.52-1.63,10.11,10.11,0,1,0,0,20.22h23.31A8.92,8.92,0,0,0,387.79,449ZM366,463.3a1.22,1.22,0,1,1-.18-1.72A1.22,1.22,0,0,1,366,463.3ZM385.41,459c-3.53,4.7-11.06,3.11-15.89,3.34,0,0-.85,0-1.72.19,0,0,.33-.14.74-.28,3.39-1.17,5-1.41,7.06-2.47,3.87-2,7.73-6.3,8.51-10.79-1.47,4.32-6,8-10,9.54a68.44,68.44,0,0,1-7.85,2l-.21-.11c-3.44-1.67-3.53-9.11,2.71-11.51,2.74-1.05,5.35-.47,8.31-1.18,3.15-.75,6.81-3.11,8.29-6.21C387,446.52,389,454.24,385.41,459Z"/><rect class="e" x="465.19" y="81.48" width="175.84" height="86.48" rx="3.89" ry="3.89"/><rect class="f" x="465.19" y="81.48" width="175.84" height="86.48" rx="3.89" ry="3.89"/><rect class="e" x="474.26" y="90.55" width="175.84" height="86.48" rx="3.89" ry="3.89"/><rect class="f" x="474.26" y="90.55" width="175.84" height="86.48" rx="3.89" ry="3.89"/><rect class="e" x="484.53" y="101.44" width="175.84" height="86.48" rx="3.89" ry="3.89"/><rect class="f" x="484.53" y="101.44" width="175.84" height="86.48" rx="3.89" ry="3.89"/><path d="M517.69,71.28V66.36c0-.92-.4-1.5-1.33-1.5A2.53,2.53,0,0,0,514.44,66v5.31h-1.12V66.36c0-.92-.39-1.5-1.33-1.5a2.53,2.53,0,0,0-1.9,1.13v5.29h-1.12V64h1.13v1.05a3.13,3.13,0,0,1,2.34-1.23,1.86,1.86,0,0,1,1.95,1.35,3.05,3.05,0,0,1,2.43-1.35c1.32,0,2,.74,2,2.19v5.23Z"/><path d="M520.87,62.25a.76.76,0,1,1,1.51,0,.76.76,0,0,1-1.51,0Zm.19,9V64h1.13v7.25Z"/><path d="M524,67.65a3.58,3.58,0,0,1,3.61-3.79,3.1,3.1,0,0,1,2.66,1.26l-.75.69a2.15,2.15,0,0,0-1.85-.95,2.81,2.81,0,0,0,0,5.59,2.19,2.19,0,0,0,1.85-.94l.75.69a3.1,3.1,0,0,1-2.66,1.26A3.58,3.58,0,0,1,524,67.65Z"/><path d="M531.87,71.28V64H533v1.17a3.08,3.08,0,0,1,2.42-1.32V65a2,2,0,0,0-.45,0,2.65,2.65,0,0,0-2,1.16v5.13Z"/><path d="M536.4,67.65A3.59,3.59,0,1,1,540,71.46,3.55,3.55,0,0,1,536.4,67.65Zm6,0a2.44,2.44,0,1,0-2.4,2.8A2.52,2.52,0,0,0,542.38,67.65Z"/><path d="M544.77,70.32l.58-.81a3.28,3.28,0,0,0,2.38,1c1.11,0,1.71-.52,1.71-1.24,0-1.75-4.48-.68-4.48-3.36,0-1.12,1-2.08,2.7-2.08a3.67,3.67,0,0,1,2.69,1l-.53.78a2.82,2.82,0,0,0-2.16-.92c-1,0-1.6.5-1.6,1.14,0,1.59,4.48.54,4.48,3.36,0,1.21-1,2.19-2.85,2.19A3.85,3.85,0,0,1,544.77,70.32Z"/><path d="M552,67.65a3.62,3.62,0,0,1,3.57-3.79c2.19,0,3.48,1.71,3.48,3.88V68h-5.87a2.55,2.55,0,0,0,2.61,2.5,3.16,3.16,0,0,0,2.23-.92l.54.74a3.93,3.93,0,0,1-2.88,1.11A3.59,3.59,0,0,1,552,67.65Zm3.55-2.87a2.42,2.42,0,0,0-2.37,2.42h4.75A2.35,2.35,0,0,0,555.51,64.79Z"/><path d="M560.82,71.28V64h1.13v1.17a3.08,3.08,0,0,1,2.42-1.32V65a2,2,0,0,0-.45,0,2.65,2.65,0,0,0-2,1.16v5.13Z"/><path d="M567.7,71.28l-3-7.25h1.21L568.32,70l2.4-5.94h1.23l-3,7.25Z"/><path d="M572.92,62.25a.76.76,0,1,1,1.52,0,.76.76,0,0,1-1.52,0Zm.2,9V64h1.13v7.25Z"/><path d="M576.07,67.65a3.58,3.58,0,0,1,3.61-3.79,3.1,3.1,0,0,1,2.66,1.26l-.75.69a2.15,2.15,0,0,0-1.84-.95,2.81,2.81,0,0,0,0,5.59,2.18,2.18,0,0,0,1.84-.94l.75.69a3.1,3.1,0,0,1-2.66,1.26A3.58,3.58,0,0,1,576.07,67.65Z"/><path d="M583.5,67.65a3.62,3.62,0,0,1,3.57-3.79c2.19,0,3.48,1.71,3.48,3.88V68h-5.87a2.55,2.55,0,0,0,2.61,2.5,3.16,3.16,0,0,0,2.23-.92l.54.74a3.93,3.93,0,0,1-2.88,1.11A3.59,3.59,0,0,1,583.5,67.65Zm3.55-2.87a2.42,2.42,0,0,0-2.37,2.42h4.75A2.35,2.35,0,0,0,587.05,64.79Z"/><path d="M591.73,70.32l.58-.81a3.28,3.28,0,0,0,2.38,1c1.11,0,1.71-.52,1.71-1.24,0-1.75-4.48-.68-4.48-3.36,0-1.12,1-2.08,2.7-2.08a3.67,3.67,0,0,1,2.69,1l-.53.78a2.82,2.82,0,0,0-2.16-.92c-1,0-1.6.5-1.6,1.14,0,1.59,4.48.54,4.48,3.36,0,1.21-1,2.19-2.85,2.19A3.85,3.85,0,0,1,591.73,70.32Z"/><path class="g" d="M628.38,140.55a54.86,54.86,0,0,0-2.32-9,13.14,13.14,0,0,1-1.52,2.7A14.29,14.29,0,0,0,602,136.91a9.46,9.46,0,0,1,5.84,2.45,9.87,9.87,0,0,0-5.52-1.63,10.11,10.11,0,0,0,0,20.22h23.31a8.92,8.92,0,0,0,2.72-17.41ZM606.6,154.84a1.22,1.22,0,1,1-.18-1.72A1.22,1.22,0,0,1,606.6,154.84ZM626,150.56c-3.53,4.7-11.06,3.11-15.89,3.34,0,0-.85,0-1.72.19,0,0,.33-.14.74-.28,3.39-1.17,5-1.41,7.06-2.47,3.87-2,7.73-6.3,8.51-10.79-1.47,4.32-6,8-10,9.54a68.66,68.66,0,0,1-7.85,2l-.2-.11c-3.44-1.67-3.53-9.11,2.71-11.51,2.74-1.05,5.35-.47,8.31-1.18,3.15-.75,6.81-3.11,8.29-6.21C627.58,138.06,629.58,145.78,626,150.56Z"/><path class="g" d="M585.81,143.14,579,131.32a4.14,4.14,0,0,0-3.23-1.87H562.11a4.14,4.14,0,0,0-3.23,1.87l-6.82,11.82a4.13,4.13,0,0,0,0,3.73l6.82,11.82a4.14,4.14,0,0,0,3.23,1.87h13.64a4.14,4.14,0,0,0,3.23-1.87l6.82-11.82A4.13,4.13,0,0,0,585.81,143.14ZM567.46,136a1.41,1.41,0,1,1,2.81,0v8.4a1.41,1.41,0,1,1-2.81,0Zm1.41,17.94a9.54,9.54,0,0,1-5.69-17.19,1.25,1.25,0,1,1,1.49,2,7,7,0,1,0,11.23,5.65,7.07,7.07,0,0,0-2.87-5.67,1.25,1.25,0,0,1,1.49-2,9.54,9.54,0,0,1-5.65,17.22Z"/><path class="i" d="M545.62,145.89c0-2.85-1.58-5.52-4.47-7.61-.37-3.54-1.89-6.25-4.36-7.67s-5.57-1.39-8.82.06c-3.25-1.46-6.36-1.49-8.82-.06s-4,4.14-4.36,7.7c-2.77,2-4.46,4.68-4.46,7.58s1.7,5.58,4.49,7.6c.36,3.42,1.81,6.23,4.34,7.68s5.68,1.32,8.82-.08c3.14,1.4,6.3,1.54,8.82.09s4-4.25,4.34-7.66C544,151.43,545.62,148.75,545.62,145.89Zm-5.19-6.61a19.06,19.06,0,0,1-.55,5.25,26.65,26.65,0,0,0-2-4.35,27,27,0,0,0-2.75-3.92,19.07,19.07,0,0,1,4.81,2.15l.47.31C540.42,138.9,540.43,139.09,540.44,139.28Zm0,13.79-.47.31a19.08,19.08,0,0,1-4.82,2.15,26.66,26.66,0,0,0,2.76-3.92,27,27,0,0,0,2-4.33A18.69,18.69,0,0,1,540.4,153.07Zm-3.22-1.86a25.73,25.73,0,0,1-3.44,4.68,26.32,26.32,0,0,1-11.53,0,26.31,26.31,0,0,1-5.77-10,26.31,26.31,0,0,1,5.76-10,26.31,26.31,0,0,1,11.54,0,26.31,26.31,0,0,1,5.77,10A25.82,25.82,0,0,1,537.18,151.21Zm-4.45,5.69a18.71,18.71,0,0,1-4.76,3.34,18.71,18.71,0,0,1-4.77-3.35,26.66,26.66,0,0,0,4.77.43A27,27,0,0,0,532.74,156.9Zm-16.67-9.62a27,27,0,0,0,2,4.33,26.63,26.63,0,0,0,2.75,3.91,18.72,18.72,0,0,1-5.29-2.45A18.71,18.71,0,0,1,516.07,147.27Zm-.55-8c0-.19,0-.38,0-.56a18.72,18.72,0,0,1,5.28-2.45,27,27,0,0,0-2.74,3.91,26.63,26.63,0,0,0-2,4.35A19.09,19.09,0,0,1,515.51,139.28ZM528,131.55l.5.25a19.07,19.07,0,0,1,4.27,3.1,27,27,0,0,0-4.77-.42,26.64,26.64,0,0,0-4.78.43,19.07,19.07,0,0,1,4.27-3.1Zm8.43-.25a8.5,8.5,0,0,1,3.88,6.4,20.55,20.55,0,0,0-6.12-2.51,20.56,20.56,0,0,0-5.23-4.05A8.5,8.5,0,0,1,536.4,131.3Zm-16.85,0a8.5,8.5,0,0,1,7.48-.16,20.56,20.56,0,0,0-5.24,4.06,20.64,20.64,0,0,0-6.12,2.52C516.11,134.75,517.46,132.5,519.55,131.3Zm-8.43,14.6a8.54,8.54,0,0,1,3.6-6.56,20.55,20.55,0,0,0,.9,6.57,20.64,20.64,0,0,0-.88,6.56A8.55,8.55,0,0,1,511.12,145.89Zm8.43,14.6a8.55,8.55,0,0,1-3.88-6.42,20.65,20.65,0,0,0,6.13,2.52,20.64,20.64,0,0,0,5.25,4A8.55,8.55,0,0,1,519.55,160.49Zm16.85,0a8.55,8.55,0,0,1-7.5.15,20.64,20.64,0,0,0,5.24-4,20.55,20.55,0,0,0,6.14-2.51A8.54,8.54,0,0,1,536.4,160.49Zm4.81-8a20.63,20.63,0,0,0-.88-6.56,20.56,20.56,0,0,0,.9-6.57,8.5,8.5,0,0,1,3.6,6.56C544.83,148.3,543.56,150.6,541.21,152.47Z"/><circle class="i" cx="527.98" cy="145.89" r="4.05"/><path d="M517.69,218.47v-4.92c0-.92-.4-1.5-1.33-1.5a2.53,2.53,0,0,0-1.92,1.11v5.31h-1.12v-4.92c0-.92-.39-1.5-1.33-1.5a2.53,2.53,0,0,0-1.9,1.13v5.29h-1.12v-7.25h1.13v1.05a3.13,3.13,0,0,1,2.34-1.23,1.86,1.86,0,0,1,1.95,1.35,3.05,3.05,0,0,1,2.43-1.35c1.32,0,2,.74,2,2.19v5.23Z"/><path d="M520.87,209.44a.76.76,0,1,1,1.51,0,.76.76,0,0,1-1.51,0Zm.19,9v-7.25h1.13v7.25Z"/><path d="M524,214.84a3.58,3.58,0,0,1,3.61-3.79,3.1,3.1,0,0,1,2.66,1.26l-.75.69a2.15,2.15,0,0,0-1.85-.95,2.81,2.81,0,0,0,0,5.59,2.19,2.19,0,0,0,1.85-.94l.75.69a3.1,3.1,0,0,1-2.66,1.26A3.58,3.58,0,0,1,524,214.84Z"/><path d="M531.87,218.47v-7.25H533v1.17a3.08,3.08,0,0,1,2.42-1.32v1.16a2,2,0,0,0-.45,0,2.65,2.65,0,0,0-2,1.16v5.13Z"/><path d="M536.4,214.84a3.59,3.59,0,1,1,3.58,3.81A3.55,3.55,0,0,1,536.4,214.84Zm6,0a2.44,2.44,0,1,0-2.4,2.8A2.52,2.52,0,0,0,542.38,214.84Z"/><path d="M544.77,217.51l.58-.81a3.28,3.28,0,0,0,2.38,1c1.11,0,1.71-.52,1.71-1.24,0-1.75-4.48-.68-4.48-3.36,0-1.12,1-2.08,2.7-2.08a3.67,3.67,0,0,1,2.69,1l-.53.78a2.82,2.82,0,0,0-2.16-.92c-1,0-1.6.5-1.6,1.14,0,1.59,4.48.54,4.48,3.36,0,1.21-1,2.19-2.85,2.19A3.85,3.85,0,0,1,544.77,217.51Z"/><path d="M552,214.84a3.62,3.62,0,0,1,3.57-3.79c2.19,0,3.48,1.71,3.48,3.88v.29h-5.87a2.55,2.55,0,0,0,2.61,2.5,3.16,3.16,0,0,0,2.23-.92l.54.74a3.93,3.93,0,0,1-2.88,1.11A3.59,3.59,0,0,1,552,214.84Zm3.55-2.87a2.42,2.42,0,0,0-2.37,2.42h4.75A2.35,2.35,0,0,0,555.51,212Z"/><path d="M560.82,218.47v-7.25h1.13v1.17a3.08,3.08,0,0,1,2.42-1.32v1.16a2,2,0,0,0-.45,0,2.65,2.65,0,0,0-2,1.16v5.13Z"/><path d="M567.7,218.47l-3-7.25h1.21l2.42,5.94,2.4-5.94h1.23l-3,7.25Z"/><path d="M572.92,209.44a.76.76,0,1,1,1.52,0,.76.76,0,0,1-1.52,0Zm.2,9v-7.25h1.13v7.25Z"/><path d="M576.07,214.84a3.58,3.58,0,0,1,3.61-3.79,3.1,3.1,0,0,1,2.66,1.26l-.75.69a2.15,2.15,0,0,0-1.84-.95,2.81,2.81,0,0,0,0,5.59,2.18,2.18,0,0,0,1.84-.94l.75.69a3.1,3.1,0,0,1-2.66,1.26A3.58,3.58,0,0,1,576.07,214.84Z"/><path d="M583.5,214.84a3.62,3.62,0,0,1,3.57-3.79c2.19,0,3.48,1.71,3.48,3.88v.29h-5.87a2.55,2.55,0,0,0,2.61,2.5,3.16,3.16,0,0,0,2.23-.92l.54.74a3.93,3.93,0,0,1-2.88,1.11A3.59,3.59,0,0,1,583.5,214.84Zm3.55-2.87a2.42,2.42,0,0,0-2.37,2.42h4.75A2.35,2.35,0,0,0,587.05,212Z"/><path d="M591.73,217.51l.58-.81a3.28,3.28,0,0,0,2.38,1c1.11,0,1.71-.52,1.71-1.24,0-1.75-4.48-.68-4.48-3.36,0-1.12,1-2.08,2.7-2.08a3.67,3.67,0,0,1,2.69,1l-.53.78a2.82,2.82,0,0,0-2.16-.92c-1,0-1.6.5-1.6,1.14,0,1.59,4.48.54,4.48,3.36,0,1.21-1,2.19-2.85,2.19A3.85,3.85,0,0,1,591.73,217.51Z"/><rect class="e" x="465.19" y="227.87" width="175.84" height="86.48" rx="3.89" ry="3.89"/><rect class="f" x="465.19" y="227.87" width="175.84" height="86.48" rx="3.89" ry="3.89"/><rect class="e" x="474.26" y="236.95" width="175.84" height="86.48" rx="3.89" ry="3.89"/><rect class="f" x="474.26" y="236.95" width="175.84" height="86.48" rx="3.89" ry="3.89"/><rect class="e" x="484.53" y="247.83" width="175.84" height="86.48" rx="3.89" ry="3.89"/><rect class="f" x="484.53" y="247.83" width="175.84" height="86.48" rx="3.89" ry="3.89"/><path class="g" d="M628.38,286.94a54.86,54.86,0,0,0-2.32-9,13.14,13.14,0,0,1-1.52,2.7A14.29,14.29,0,0,0,602,283.3a9.46,9.46,0,0,1,5.84,2.45,9.87,9.87,0,0,0-5.52-1.63,10.11,10.11,0,0,0,0,20.22h23.31a8.92,8.92,0,0,0,2.72-17.41ZM606.6,301.23a1.22,1.22,0,1,1-.18-1.72A1.22,1.22,0,0,1,606.6,301.23ZM626,297c-3.53,4.7-11.06,3.11-15.89,3.34,0,0-.85,0-1.72.19,0,0,.33-.14.74-.28,3.39-1.17,5-1.41,7.06-2.47,3.87-2,7.73-6.3,8.51-10.79-1.47,4.32-6,8-10,9.54a68.66,68.66,0,0,1-7.85,2l-.2-.11c-3.44-1.67-3.53-9.11,2.71-11.51,2.74-1.05,5.35-.47,8.31-1.18,3.15-.75,6.81-3.11,8.29-6.21C627.58,284.45,629.58,292.17,626,297Z"/><path class="g" d="M585.81,289.53,579,277.71a4.14,4.14,0,0,0-3.23-1.87H562.11a4.14,4.14,0,0,0-3.23,1.87l-6.82,11.82a4.13,4.13,0,0,0,0,3.73l6.82,11.82a4.14,4.14,0,0,0,3.23,1.87h13.64a4.14,4.14,0,0,0,3.23-1.87l6.82-11.82A4.13,4.13,0,0,0,585.81,289.53Zm-18.35-7.15a1.41,1.41,0,1,1,2.81,0v8.4a1.41,1.41,0,1,1-2.81,0Zm1.41,17.94a9.54,9.54,0,0,1-5.69-17.19,1.25,1.25,0,1,1,1.49,2,7,7,0,1,0,11.23,5.65,7.07,7.07,0,0,0-2.87-5.67,1.25,1.25,0,0,1,1.49-2,9.54,9.54,0,0,1-5.65,17.22Z"/><path class="i" d="M545.62,292.28c0-2.85-1.58-5.52-4.47-7.61-.37-3.54-1.89-6.25-4.36-7.67s-5.57-1.39-8.82.06c-3.25-1.46-6.36-1.49-8.82-.06s-4,4.14-4.36,7.7c-2.77,2-4.46,4.68-4.46,7.58s1.7,5.58,4.49,7.6c.36,3.42,1.81,6.23,4.34,7.68s5.68,1.32,8.82-.08c3.14,1.4,6.3,1.54,8.82.09s4-4.25,4.34-7.66C544,297.82,545.62,295.14,545.62,292.28Zm-5.19-6.61a19.06,19.06,0,0,1-.55,5.25,26.65,26.65,0,0,0-2-4.35,27,27,0,0,0-2.75-3.92,19.07,19.07,0,0,1,4.81,2.15l.47.31C540.42,285.29,540.43,285.48,540.44,285.67Zm0,13.79-.47.31a19.08,19.08,0,0,1-4.82,2.15,26.66,26.66,0,0,0,2.76-3.92,27,27,0,0,0,2-4.33A18.69,18.69,0,0,1,540.4,299.46Zm-3.22-1.86a25.73,25.73,0,0,1-3.44,4.68,26.32,26.32,0,0,1-11.53,0,26.31,26.31,0,0,1-5.77-10,26.31,26.31,0,0,1,5.76-10,26.31,26.31,0,0,1,11.54,0,26.31,26.31,0,0,1,5.77,10A25.82,25.82,0,0,1,537.18,297.6Zm-4.45,5.69a18.71,18.71,0,0,1-4.76,3.34,18.71,18.71,0,0,1-4.77-3.35,26.66,26.66,0,0,0,4.77.43A27,27,0,0,0,532.74,303.29Zm-16.67-9.62a27,27,0,0,0,2,4.33,26.63,26.63,0,0,0,2.75,3.91,18.72,18.72,0,0,1-5.29-2.45A18.71,18.71,0,0,1,516.07,293.66Zm-.55-8c0-.19,0-.38,0-.56a18.72,18.72,0,0,1,5.28-2.45,27,27,0,0,0-2.74,3.91,26.63,26.63,0,0,0-2,4.35A19.09,19.09,0,0,1,515.51,285.67ZM528,277.94l.5.25a19.07,19.07,0,0,1,4.27,3.1,27,27,0,0,0-4.77-.42,26.64,26.64,0,0,0-4.78.43,19.07,19.07,0,0,1,4.27-3.1Zm8.43-.25a8.5,8.5,0,0,1,3.88,6.4,20.55,20.55,0,0,0-6.12-2.51,20.56,20.56,0,0,0-5.23-4.05A8.5,8.5,0,0,1,536.4,277.69Zm-16.85,0a8.5,8.5,0,0,1,7.48-.16,20.56,20.56,0,0,0-5.24,4.06,20.64,20.64,0,0,0-6.12,2.52C516.11,281.14,517.46,278.89,519.55,277.69Zm-8.43,14.6a8.54,8.54,0,0,1,3.6-6.56,20.55,20.55,0,0,0,.9,6.57,20.64,20.64,0,0,0-.88,6.56A8.55,8.55,0,0,1,511.12,292.28Zm8.43,14.6a8.55,8.55,0,0,1-3.88-6.42A20.65,20.65,0,0,0,521.8,303a20.64,20.64,0,0,0,5.25,4A8.55,8.55,0,0,1,519.55,306.88Zm16.85,0a8.55,8.55,0,0,1-7.5.15,20.64,20.64,0,0,0,5.24-4,20.55,20.55,0,0,0,6.14-2.51A8.54,8.54,0,0,1,536.4,306.88Zm4.81-8a20.63,20.63,0,0,0-.88-6.56,20.56,20.56,0,0,0,.9-6.57,8.5,8.5,0,0,1,3.6,6.56C544.83,294.7,543.56,297,541.21,298.86Z"/><circle class="i" cx="527.98" cy="292.28" r="4.05"/><path d="M517.49,372.69v-4.92c0-.92-.4-1.5-1.33-1.5a2.53,2.53,0,0,0-1.92,1.11v5.31h-1.12v-4.92c0-.92-.39-1.5-1.33-1.5a2.53,2.53,0,0,0-1.9,1.13v5.29h-1.12v-7.25h1.13v1.05a3.13,3.13,0,0,1,2.34-1.23,1.86,1.86,0,0,1,1.95,1.35,3.05,3.05,0,0,1,2.43-1.35c1.32,0,2,.74,2,2.19v5.23Z"/><path d="M520.67,363.67a.76.76,0,1,1,1.51,0,.76.76,0,0,1-1.51,0Zm.19,9v-7.25H522v7.25Z"/><path d="M523.82,369.07a3.58,3.58,0,0,1,3.61-3.79,3.1,3.1,0,0,1,2.66,1.26l-.75.69a2.15,2.15,0,0,0-1.85-.95,2.81,2.81,0,0,0,0,5.59,2.19,2.19,0,0,0,1.85-.94l.75.69a3.1,3.1,0,0,1-2.66,1.26A3.58,3.58,0,0,1,523.82,369.07Z"/><path d="M531.66,372.69v-7.25h1.13v1.17a3.08,3.08,0,0,1,2.42-1.32v1.15a2,2,0,0,0-.45,0,2.65,2.65,0,0,0-2,1.16v5.13Z"/><path d="M536.19,369.07a3.59,3.59,0,1,1,3.58,3.81A3.55,3.55,0,0,1,536.19,369.07Zm6,0a2.44,2.44,0,1,0-2.4,2.8A2.52,2.52,0,0,0,542.18,369.07Z"/><path d="M544.56,371.73l.58-.81a3.28,3.28,0,0,0,2.38,1c1.11,0,1.71-.52,1.71-1.24,0-1.75-4.48-.68-4.48-3.36,0-1.12,1-2.08,2.7-2.08a3.67,3.67,0,0,1,2.69,1l-.53.78a2.82,2.82,0,0,0-2.16-.92c-1,0-1.6.5-1.6,1.14,0,1.59,4.48.54,4.48,3.36,0,1.21-1,2.19-2.85,2.19A3.85,3.85,0,0,1,544.56,371.73Z"/><path d="M551.75,369.07a3.62,3.62,0,0,1,3.57-3.79c2.19,0,3.48,1.71,3.48,3.88v.29h-5.87a2.55,2.55,0,0,0,2.61,2.5,3.16,3.16,0,0,0,2.23-.92l.54.74a3.93,3.93,0,0,1-2.88,1.11A3.59,3.59,0,0,1,551.75,369.07Zm3.55-2.87a2.42,2.42,0,0,0-2.37,2.42h4.75A2.35,2.35,0,0,0,555.3,366.2Z"/><path d="M560.61,372.69v-7.25h1.13v1.17a3.08,3.08,0,0,1,2.42-1.32v1.15a2,2,0,0,0-.45,0,2.65,2.65,0,0,0-2,1.16v5.13Z"/><path d="M567.5,372.69l-3-7.25h1.21l2.42,5.94,2.4-5.94h1.23l-3,7.25Z"/><path d="M572.72,363.67a.76.76,0,1,1,1.52,0,.76.76,0,0,1-1.52,0Zm.2,9v-7.25H574v7.25Z"/><path d="M575.87,369.07a3.58,3.58,0,0,1,3.61-3.79,3.1,3.1,0,0,1,2.66,1.26l-.75.69a2.15,2.15,0,0,0-1.84-.95,2.81,2.81,0,0,0,0,5.59,2.18,2.18,0,0,0,1.84-.94l.75.69a3.1,3.1,0,0,1-2.66,1.26A3.58,3.58,0,0,1,575.87,369.07Z"/><path d="M583.29,369.07a3.62,3.62,0,0,1,3.57-3.79c2.19,0,3.48,1.71,3.48,3.88v.29h-5.87a2.55,2.55,0,0,0,2.61,2.5,3.16,3.16,0,0,0,2.23-.92l.54.74a3.93,3.93,0,0,1-2.88,1.11A3.59,3.59,0,0,1,583.29,369.07Zm3.55-2.87a2.42,2.42,0,0,0-2.37,2.42h4.75A2.35,2.35,0,0,0,586.85,366.2Z"/><path d="M591.53,371.73l.58-.81a3.28,3.28,0,0,0,2.38,1c1.11,0,1.71-.52,1.71-1.24,0-1.75-4.48-.68-4.48-3.36,0-1.12,1-2.08,2.7-2.08a3.67,3.67,0,0,1,2.69,1l-.53.78a2.82,2.82,0,0,0-2.16-.92c-1,0-1.6.5-1.6,1.14,0,1.59,4.48.54,4.48,3.36,0,1.21-1,2.19-2.85,2.19A3.85,3.85,0,0,1,591.53,371.73Z"/><rect class="e" x="465.19" y="382.37" width="175.84" height="86.48" rx="3.89" ry="3.89"/><rect class="f" x="465.19" y="382.37" width="175.84" height="86.48" rx="3.89" ry="3.89"/><rect class="e" x="474.26" y="391.44" width="175.84" height="86.48" rx="3.89" ry="3.89"/><rect class="f" x="474.26" y="391.44" width="175.84" height="86.48" rx="3.89" ry="3.89"/><rect class="e" x="484.53" y="402.33" width="175.84" height="86.48" rx="3.89" ry="3.89"/><rect class="f" x="484.53" y="402.33" width="175.84" height="86.48" rx="3.89" ry="3.89"/><path class="g" d="M628.38,441.43a54.86,54.86,0,0,0-2.32-9,13.14,13.14,0,0,1-1.52,2.7A14.29,14.29,0,0,0,602,437.8a9.46,9.46,0,0,1,5.84,2.45,9.87,9.87,0,0,0-5.52-1.63,10.11,10.11,0,0,0,0,20.22h23.31a8.92,8.92,0,0,0,2.72-17.41ZM606.6,455.73a1.22,1.22,0,1,1-.18-1.72A1.22,1.22,0,0,1,606.6,455.73ZM626,451.45c-3.53,4.7-11.06,3.11-15.89,3.34,0,0-.85,0-1.72.19,0,0,.33-.14.74-.28,3.39-1.17,5-1.41,7.06-2.47,3.87-2,7.73-6.3,8.51-10.79-1.47,4.32-6,8-10,9.54a68.66,68.66,0,0,1-7.85,2l-.2-.11c-3.44-1.67-3.53-9.11,2.71-11.51,2.74-1.05,5.35-.47,8.31-1.18,3.15-.75,6.81-3.11,8.29-6.21C627.58,438.94,629.58,446.67,626,451.45Z"/><path class="g" d="M585.81,444,579,432.21a4.14,4.14,0,0,0-3.23-1.87H562.11a4.14,4.14,0,0,0-3.23,1.87L552.06,444a4.13,4.13,0,0,0,0,3.73l6.82,11.82a4.14,4.14,0,0,0,3.23,1.87h13.64a4.14,4.14,0,0,0,3.23-1.87l6.82-11.82A4.13,4.13,0,0,0,585.81,444Zm-18.35-7.15a1.41,1.41,0,1,1,2.81,0v8.4a1.41,1.41,0,1,1-2.81,0Zm1.41,17.94a9.54,9.54,0,0,1-5.69-17.19,1.25,1.25,0,1,1,1.49,2,7,7,0,1,0,11.23,5.65,7.07,7.07,0,0,0-2.87-5.67,1.25,1.25,0,0,1,1.49-2,9.54,9.54,0,0,1-5.65,17.22Z"/><path class="i" d="M545.62,446.78c0-2.85-1.58-5.52-4.47-7.61-.37-3.54-1.89-6.25-4.36-7.67s-5.57-1.39-8.82.06c-3.25-1.46-6.36-1.49-8.82-.06s-4,4.14-4.36,7.7c-2.77,2-4.46,4.68-4.46,7.58s1.7,5.58,4.49,7.6c.36,3.42,1.81,6.23,4.34,7.68s5.68,1.32,8.82-.08c3.14,1.4,6.3,1.54,8.82.09s4-4.25,4.34-7.66C544,452.31,545.62,449.63,545.62,446.78Zm-5.19-6.61a19.06,19.06,0,0,1-.55,5.25,26.65,26.65,0,0,0-2-4.35,27,27,0,0,0-2.75-3.92,19.07,19.07,0,0,1,4.81,2.15l.47.31C540.42,439.79,540.43,440,540.44,440.17Zm0,13.79-.47.31a19.08,19.08,0,0,1-4.82,2.15,26.66,26.66,0,0,0,2.76-3.92,27,27,0,0,0,2-4.33A18.69,18.69,0,0,1,540.4,454Zm-3.22-1.86a25.73,25.73,0,0,1-3.44,4.68,26.32,26.32,0,0,1-11.53,0,26.31,26.31,0,0,1-5.77-10,26.31,26.31,0,0,1,5.76-10,26.31,26.31,0,0,1,11.54,0,26.31,26.31,0,0,1,5.77,10A25.82,25.82,0,0,1,537.18,452.09Zm-4.45,5.69a18.71,18.71,0,0,1-4.76,3.34,18.71,18.71,0,0,1-4.77-3.35,26.66,26.66,0,0,0,4.77.43A27,27,0,0,0,532.74,457.78Zm-16.67-9.62a27,27,0,0,0,2,4.33,26.63,26.63,0,0,0,2.75,3.91,18.72,18.72,0,0,1-5.29-2.45A18.71,18.71,0,0,1,516.07,448.16Zm-.55-8c0-.19,0-.38,0-.56a18.72,18.72,0,0,1,5.28-2.45,27,27,0,0,0-2.74,3.91,26.63,26.63,0,0,0-2,4.35A19.09,19.09,0,0,1,515.51,440.17ZM528,432.43l.5.25a19.07,19.07,0,0,1,4.27,3.1,27,27,0,0,0-4.77-.42,26.64,26.64,0,0,0-4.78.43,19.07,19.07,0,0,1,4.27-3.1Zm8.43-.25a8.5,8.5,0,0,1,3.88,6.4,20.55,20.55,0,0,0-6.12-2.51,20.56,20.56,0,0,0-5.23-4.05A8.5,8.5,0,0,1,536.4,432.18Zm-16.85,0A8.5,8.5,0,0,1,527,432a20.56,20.56,0,0,0-5.24,4.06,20.64,20.64,0,0,0-6.12,2.52C516.11,435.64,517.46,433.39,519.55,432.18Zm-8.43,14.6a8.54,8.54,0,0,1,3.6-6.56,20.55,20.55,0,0,0,.9,6.57,20.64,20.64,0,0,0-.88,6.56A8.55,8.55,0,0,1,511.12,446.78Zm8.43,14.6a8.55,8.55,0,0,1-3.88-6.42,20.65,20.65,0,0,0,6.13,2.52,20.64,20.64,0,0,0,5.25,4A8.55,8.55,0,0,1,519.55,461.38Zm16.85,0a8.55,8.55,0,0,1-7.5.15,20.64,20.64,0,0,0,5.24-4,20.55,20.55,0,0,0,6.14-2.51A8.54,8.54,0,0,1,536.4,461.38Zm4.81-8a20.63,20.63,0,0,0-.88-6.56,20.56,20.56,0,0,0,.9-6.57,8.5,8.5,0,0,1,3.6,6.56C544.83,449.19,543.56,451.48,541.21,453.35Z"/><circle class="i" cx="527.98" cy="446.78" r="4.05"/><rect class="e" x="681.26" y="390.17" width="112.48" height="86.48" rx="3.11" ry="3.11"/><rect class="f" x="681.26" y="390.17" width="112.48" height="86.48" rx="3.11" ry="3.11"/><path d="M708.83,412.59v-1.08a3,3,0,0,1-2.45,1.26c-1.89,0-3.22-1.44-3.22-3.79s1.32-3.81,3.22-3.81a3,3,0,0,1,2.45,1.28v-3.86H710v10Zm0-2v-3.29a2.72,2.72,0,0,0-2.17-1.17c-1.46,0-2.33,1.2-2.33,2.8s.87,2.79,2.33,2.79A2.7,2.7,0,0,0,708.83,410.63Z"/><path d="M712,403.56a.76.76,0,1,1,1.52,0,.76.76,0,0,1-1.52,0Zm.2,9v-7.25h1.13v7.25Z"/><path d="M715,411.63l.58-.81a3.28,3.28,0,0,0,2.38,1c1.11,0,1.71-.52,1.71-1.24,0-1.75-4.48-.68-4.48-3.36,0-1.12,1-2.08,2.7-2.08a3.67,3.67,0,0,1,2.69,1L720,407a2.82,2.82,0,0,0-2.16-.92c-1,0-1.6.5-1.6,1.14,0,1.59,4.48.54,4.48,3.36,0,1.21-1,2.19-2.85,2.19A3.85,3.85,0,0,1,715,411.63Z"/><path d="M722.78,411.08v-4.74h-1.2v-1h1.2v-2h1.13v2h1.47v1H723.9v4.5c0,.54.24.93.74.93a1.08,1.08,0,0,0,.76-.3l.33.84a1.84,1.84,0,0,1-1.35.46A1.48,1.48,0,0,1,722.78,411.08Z"/><path d="M727,412.59v-7.25h1.13v1.17a3.08,3.08,0,0,1,2.42-1.32v1.16a2,2,0,0,0-.45,0,2.65,2.65,0,0,0-2,1.16v5.13Z"/><path d="M731.72,403.56a.76.76,0,1,1,1.52,0,.76.76,0,0,1-1.52,0Zm.2,9v-7.25H733v7.25Z"/><path d="M735.29,412.59v-10h1.13v3.86a3,3,0,0,1,2.44-1.28c1.89,0,3.23,1.5,3.23,3.81s-1.33,3.79-3.23,3.79a3,3,0,0,1-2.44-1.26v1.08Zm3.29-.83c1.47,0,2.34-1.18,2.34-2.79s-.87-2.8-2.34-2.8a2.69,2.69,0,0,0-2.16,1.17v3.29A2.66,2.66,0,0,0,738.58,411.77Z"/><path d="M748.8,412.59v-1a3.54,3.54,0,0,1-2.58,1.2,2,2,0,0,1-2.31-2.31v-5.12H745v4.77c0,1.27.64,1.65,1.62,1.65a2.77,2.77,0,0,0,2.14-1.09v-5.33h1.13v7.25Z"/><path d="M752.4,411.08v-4.74h-1.2v-1h1.2v-2h1.13v2H755v1h-1.47v4.5c0,.54.24.93.74.93a1.08,1.08,0,0,0,.76-.3l.33.84a1.84,1.84,0,0,1-1.35.46A1.48,1.48,0,0,1,752.4,411.08Z"/><path d="M756.17,409a3.62,3.62,0,0,1,3.57-3.79c2.19,0,3.48,1.71,3.48,3.88v.29h-5.87a2.55,2.55,0,0,0,2.61,2.5,3.16,3.16,0,0,0,2.23-.92l.54.74a3.93,3.93,0,0,1-2.88,1.11A3.59,3.59,0,0,1,756.17,409Zm3.55-2.87a2.42,2.42,0,0,0-2.37,2.42h4.75A2.35,2.35,0,0,0,759.72,406.1Z"/><path d="M770.28,412.59v-1.08a3,3,0,0,1-2.45,1.26c-1.89,0-3.22-1.44-3.22-3.79s1.32-3.81,3.22-3.81a3,3,0,0,1,2.45,1.28v-3.86h1.13v10Zm0-2v-3.29a2.72,2.72,0,0,0-2.17-1.17c-1.46,0-2.33,1.2-2.33,2.8s.87,2.79,2.33,2.79A2.7,2.7,0,0,0,770.28,410.63Z"/><path d="M716.38,425v-4.74h-1.2v-1h1.2v-2h1.13v2H719v1H717.5v4.5c0,.54.24.93.74.93a1.08,1.08,0,0,0,.76-.3l.33.84a1.84,1.84,0,0,1-1.35.46A1.48,1.48,0,0,1,716.38,425Z"/><path d="M720.56,426.51v-7.25h1.13v1.17a3.08,3.08,0,0,1,2.42-1.32v1.16a2,2,0,0,0-.45,0,2.65,2.65,0,0,0-2,1.16v5.13Z"/><path d="M730,426.51v-.83a3.13,3.13,0,0,1-2.4,1,2.41,2.41,0,0,1-2.54-2.4,2.37,2.37,0,0,1,2.54-2.38,3,3,0,0,1,2.4,1v-1.3c0-1-.78-1.53-1.83-1.53a2.88,2.88,0,0,0-2.22,1l-.52-.78a3.79,3.79,0,0,1,2.89-1.2c1.53,0,2.8.69,2.8,2.45v5Zm0-1.53v-1.36a2.42,2.42,0,0,0-2-.9,1.59,1.59,0,1,0,0,3.17A2.42,2.42,0,0,0,730,425Z"/><path d="M733,422.88a3.58,3.58,0,0,1,3.61-3.79,3.1,3.1,0,0,1,2.66,1.26l-.75.69a2.15,2.15,0,0,0-1.84-.95,2.81,2.81,0,0,0,0,5.59,2.18,2.18,0,0,0,1.84-.94l.75.69a3.1,3.1,0,0,1-2.66,1.26A3.58,3.58,0,0,1,733,422.88Z"/><path d="M740.65,417.48a.76.76,0,1,1,1.52,0,.76.76,0,0,1-1.52,0Zm.2,9v-7.25H742v7.25Z"/><path d="M749.11,426.51v-4.74c0-1.27-.64-1.68-1.62-1.68a2.8,2.8,0,0,0-2.14,1.13v5.29h-1.12v-7.25h1.13v1.05a3.59,3.59,0,0,1,2.58-1.23,2.06,2.06,0,0,1,2.31,2.34v5.08Z"/><path d="M752.47,428.37l.57-.84a2.77,2.77,0,0,0,2.36,1,2.07,2.07,0,0,0,2.32-2.17v-1a3,3,0,0,1-2.43,1.29c-1.89,0-3.22-1.41-3.22-3.75s1.32-3.76,3.22-3.76a3,3,0,0,1,2.43,1.28v-1.1h1.13v7c0,2.4-1.68,3.15-3.45,3.15A3.7,3.7,0,0,1,752.47,428.37Zm5.25-3.95v-3.17a2.67,2.67,0,0,0-2.16-1.17c-1.46,0-2.33,1.16-2.33,2.76s.87,2.76,2.33,2.76A2.68,2.68,0,0,0,757.71,424.43Z"/><path class="g" d="M752.46,448.64a54.86,54.86,0,0,0-2.32-9,13.14,13.14,0,0,1-1.52,2.7A14.29,14.29,0,0,0,726.11,445a9.46,9.46,0,0,1,5.84,2.45,9.87,9.87,0,0,0-5.52-1.63,10.11,10.11,0,1,0,0,20.22h23.31a8.92,8.92,0,0,0,2.72-17.41Zm-21.78,14.29a1.22,1.22,0,1,1-.18-1.72A1.22,1.22,0,0,1,730.68,462.93Zm19.39-4.28c-3.53,4.7-11.06,3.11-15.89,3.34,0,0-.85,0-1.72.19,0,0,.33-.14.74-.28,3.39-1.17,5-1.41,7.06-2.47,3.87-2,7.73-6.3,8.51-10.79-1.47,4.32-6,8-10,9.54a68.44,68.44,0,0,1-7.85,2l-.21-.11c-3.44-1.67-3.53-9.11,2.71-11.51,2.74-1.05,5.35-.47,8.31-1.18,3.15-.75,6.81-3.11,8.29-6.21C751.67,446.15,753.67,453.87,750.08,458.65Z"/><rect class="e" x="876.42" y="156.91" width="175.84" height="86.48" rx="3.89" ry="3.89"/><rect class="f" x="876.42" y="156.91" width="175.84" height="86.48" rx="3.89" ry="3.89"/><path d="M917.44,181.34v-4.92c0-.92-.4-1.5-1.33-1.5a2.54,2.54,0,0,0-1.92,1.11v5.31h-1.12v-4.92c0-.92-.39-1.5-1.33-1.5a2.53,2.53,0,0,0-1.91,1.13v5.29H908.7v-7.25h1.13v1.05a3.13,3.13,0,0,1,2.34-1.23,1.86,1.86,0,0,1,2,1.35,3,3,0,0,1,2.43-1.35c1.32,0,2,.74,2,2.19v5.23Z"/><path d="M920.4,177.71a3.62,3.62,0,0,1,3.57-3.79c2.19,0,3.48,1.71,3.48,3.88v.29h-5.87a2.55,2.55,0,0,0,2.61,2.5,3.16,3.16,0,0,0,2.23-.92l.54.74a3.93,3.93,0,0,1-2.88,1.11A3.59,3.59,0,0,1,920.4,177.71Zm3.55-2.87a2.42,2.42,0,0,0-2.37,2.42h4.75A2.35,2.35,0,0,0,924,174.84Z"/><path d="M928.63,180.38l.58-.81a3.28,3.28,0,0,0,2.38,1c1.11,0,1.71-.52,1.71-1.24,0-1.75-4.48-.68-4.48-3.36,0-1.12,1-2.08,2.7-2.08a3.67,3.67,0,0,1,2.69,1l-.53.78a2.82,2.82,0,0,0-2.16-.92c-1,0-1.6.5-1.6,1.14,0,1.59,4.48.54,4.48,3.36,0,1.21-1,2.19-2.85,2.19A3.85,3.85,0,0,1,928.63,180.38Z"/><path d="M935.61,180.38l.58-.81a3.28,3.28,0,0,0,2.38,1c1.11,0,1.71-.52,1.71-1.24,0-1.75-4.48-.68-4.48-3.36,0-1.12,1-2.08,2.7-2.08a3.67,3.67,0,0,1,2.69,1l-.53.78a2.82,2.82,0,0,0-2.16-.92c-1,0-1.6.5-1.6,1.14,0,1.59,4.48.54,4.48,3.36,0,1.21-1,2.19-2.85,2.19A3.85,3.85,0,0,1,935.61,180.38Z"/><path d="M947.74,181.34v-.83a3.13,3.13,0,0,1-2.4,1,2.41,2.41,0,0,1-2.54-2.4,2.37,2.37,0,0,1,2.54-2.38,3,3,0,0,1,2.4,1v-1.3c0-1-.78-1.53-1.83-1.53a2.88,2.88,0,0,0-2.22,1l-.52-.78a3.79,3.79,0,0,1,2.89-1.2c1.53,0,2.8.69,2.8,2.45v5Zm0-1.53v-1.36a2.42,2.42,0,0,0-2-.9,1.59,1.59,0,1,0,0,3.17A2.42,2.42,0,0,0,947.74,179.81Z"/><path d="M951.1,183.2l.57-.84a2.77,2.77,0,0,0,2.36,1,2.07,2.07,0,0,0,2.32-2.17v-1a3,3,0,0,1-2.43,1.29c-1.89,0-3.22-1.41-3.22-3.75s1.32-3.76,3.22-3.76a3,3,0,0,1,2.43,1.28v-1.1h1.13v7c0,2.4-1.68,3.15-3.45,3.15A3.7,3.7,0,0,1,951.1,183.2Zm5.25-3.95v-3.17a2.67,2.67,0,0,0-2.16-1.17c-1.46,0-2.33,1.16-2.33,2.76s.87,2.76,2.33,2.76A2.68,2.68,0,0,0,956.35,179.25Z"/><path d="M959.31,177.71a3.62,3.62,0,0,1,3.57-3.79c2.19,0,3.48,1.71,3.48,3.88v.29h-5.87a2.55,2.55,0,0,0,2.61,2.5,3.16,3.16,0,0,0,2.23-.92l.54.74a3.93,3.93,0,0,1-2.88,1.11A3.59,3.59,0,0,1,959.31,177.71Zm3.55-2.87a2.42,2.42,0,0,0-2.37,2.42h4.75A2.35,2.35,0,0,0,962.86,174.84Z"/><path d="M972,181.34v-10h1.13v3.86a3,3,0,0,1,2.44-1.28c1.89,0,3.23,1.5,3.23,3.81s-1.33,3.79-3.23,3.79a3,3,0,0,1-2.44-1.26v1.08Zm3.29-.83c1.47,0,2.34-1.18,2.34-2.79s-.87-2.8-2.34-2.8a2.69,2.69,0,0,0-2.16,1.17v3.29A2.66,2.66,0,0,0,975.33,180.51Z"/><path d="M980.67,181.34v-7.25h1.13v1.17a3.08,3.08,0,0,1,2.42-1.32v1.16a2,2,0,0,0-.45,0,2.65,2.65,0,0,0-2,1.16v5.13Z"/><path d="M985.2,177.71a3.59,3.59,0,1,1,3.58,3.81A3.55,3.55,0,0,1,985.2,177.71Zm6,0a2.44,2.44,0,1,0-2.4,2.8A2.52,2.52,0,0,0,991.18,177.71Z"/><path d="M999.13,181.34l-2.61-3.25-1.2,1.18v2.07H994.2v-10h1.13v6.62l3.81-3.86h1.42l-3.21,3.29,3.23,4Z"/><path d="M1001.44,177.71a3.62,3.62,0,0,1,3.57-3.79c2.19,0,3.48,1.71,3.48,3.88v.29h-5.87a2.55,2.55,0,0,0,2.61,2.5,3.16,3.16,0,0,0,2.23-.92l.54.74a3.93,3.93,0,0,1-2.88,1.11A3.59,3.59,0,0,1,1001.44,177.71Zm3.55-2.87a2.42,2.42,0,0,0-2.37,2.42h4.75A2.35,2.35,0,0,0,1005,174.84Z"/><path d="M1010.31,181.34v-7.25h1.13v1.17a3.08,3.08,0,0,1,2.42-1.32v1.16a2,2,0,0,0-.45,0,2.65,2.65,0,0,0-2,1.16v5.13Z"/><path d="M1014.63,180.38l.58-.81a3.28,3.28,0,0,0,2.38,1c1.11,0,1.71-.52,1.71-1.24,0-1.75-4.48-.68-4.48-3.36,0-1.12,1-2.08,2.7-2.08a3.67,3.67,0,0,1,2.69,1l-.53.78a2.82,2.82,0,0,0-2.16-.92c-1,0-1.6.5-1.6,1.14,0,1.59,4.48.54,4.48,3.36,0,1.21-1,2.19-2.85,2.19A3.85,3.85,0,0,1,1014.63,180.38Z"/><path class="i" d="M921.86,210.9c0-2.64-1.46-5.11-4.14-7-.34-3.28-1.75-5.79-4-7.1s-5.16-1.29-8.17.06c-3-1.35-5.89-1.38-8.17-.06s-3.7,3.83-4,7.13c-2.57,1.87-4.13,4.33-4.13,7s1.57,5.16,4.15,7c.33,3.17,1.68,5.76,4,7.11s5.26,1.22,8.17-.08c2.91,1.3,5.83,1.43,8.17.08s3.68-3.93,4-7.09C920.39,216,921.86,213.54,921.86,210.9Zm-4.8-6.12a17.65,17.65,0,0,1-.51,4.86,24.67,24.67,0,0,0-1.87-4,25,25,0,0,0-2.54-3.63,17.66,17.66,0,0,1,4.46,2l.43.29C917,204.43,917.06,204.6,917.06,204.78Zm0,12.76-.43.29a17.66,17.66,0,0,1-4.47,2,24.68,24.68,0,0,0,2.56-3.63,25,25,0,0,0,1.87-4A17.31,17.31,0,0,1,917,217.54Zm-3-1.72a23.82,23.82,0,0,1-3.19,4.33,24.36,24.36,0,0,1-10.68,0,24.36,24.36,0,0,1-5.34-9.24,24.36,24.36,0,0,1,5.34-9.25,24.36,24.36,0,0,1,10.69,0,24.35,24.35,0,0,1,5.34,9.26A23.91,23.91,0,0,1,914.05,215.82Zm-4.12,5.27a17.32,17.32,0,0,1-4.41,3.1,17.32,17.32,0,0,1-4.41-3.1,24.68,24.68,0,0,0,4.41.4A25,25,0,0,0,909.93,221.09Zm-15.43-8.91a25,25,0,0,0,1.87,4,24.66,24.66,0,0,0,2.55,3.62,17.33,17.33,0,0,1-4.89-2.27A17.32,17.32,0,0,1,894.5,212.17Zm-.51-7.4c0-.18,0-.35,0-.52a17.33,17.33,0,0,1,4.88-2.27,25,25,0,0,0-2.54,3.62,24.65,24.65,0,0,0-1.87,4A17.67,17.67,0,0,1,894,204.78Zm11.54-7.16.47.23a17.65,17.65,0,0,1,3.95,2.87,25,25,0,0,0-4.42-.39,24.67,24.67,0,0,0-4.42.4,17.66,17.66,0,0,1,4-2.87Zm7.8-.23a7.87,7.87,0,0,1,3.59,5.92,19,19,0,0,0-5.67-2.32,19,19,0,0,0-4.84-3.75A7.87,7.87,0,0,1,913.33,197.38Zm-15.6,0a7.87,7.87,0,0,1,6.92-.15A19,19,0,0,0,899.8,201a19.11,19.11,0,0,0-5.66,2.33A7.88,7.88,0,0,1,897.73,197.38Zm-7.8,13.51a7.91,7.91,0,0,1,3.33-6.07,19,19,0,0,0,.83,6.08,19.11,19.11,0,0,0-.81,6.07A7.92,7.92,0,0,1,889.92,210.9Zm7.8,13.51a7.91,7.91,0,0,1-3.59-5.94,19.11,19.11,0,0,0,5.68,2.34,19.1,19.1,0,0,0,4.86,3.75A7.92,7.92,0,0,1,897.73,224.41Zm15.6,0a7.91,7.91,0,0,1-6.94.14,19.1,19.1,0,0,0,4.85-3.74,19,19,0,0,0,5.68-2.32A7.91,7.91,0,0,1,913.33,224.41Zm4.45-7.43a19.1,19.1,0,0,0-.81-6.07,19,19,0,0,0,.83-6.08,7.2,7.2,0,0,1,0,12.16Z"/><circle class="i" cx="905.53" cy="210.9" r="3.75"/><path class="g" d="M954.61,197.21l-12,12.2-2-2.07v7.21h7.1l-2-2.07,10.5-10.67,9,9.17-9,9.17-2-2-3,3.06,3.51,3.57a2.11,2.11,0,0,0,3,0l12-12.23a2.19,2.19,0,0,0,0-3.06l-12-12.23A2.11,2.11,0,0,0,954.61,197.21Z"/><path class="g" d="M945.58,224.73l12-12.2,2,2.07V207.4h-7.1l2,2.07-10.51,10.67L935,211l9-9.17,2,2,3-3.06-3.51-3.57a2.11,2.11,0,0,0-3,0l-12,12.23a2.19,2.19,0,0,0,0,3.06l12,12.23A2.11,2.11,0,0,0,945.58,224.73Z"/><path class="g" d="M1038.37,206.89h-9a1.12,1.12,0,0,1-1.13-1.13v-9a1.12,1.12,0,0,0-1.13-1.12h-3.37a1.12,1.12,0,0,0-1.13,1.12v9a1.12,1.12,0,0,1-1.13,1.13h-3.37a1.12,1.12,0,0,1-1.13-1.13v-9a1.12,1.12,0,0,0-1.12-1.12h-3.37a1.12,1.12,0,0,0-1.13,1.12v25.87a1.12,1.12,0,0,0,1.13,1.13h25.86a1.12,1.12,0,0,0,1.12-1.13V208a1.12,1.12,0,0,0-1.12-1.12m-4.5,9.55a1.69,1.69,0,0,1-1.69,1.69h-2.25a1.68,1.68,0,0,1-1.68-1.69v-2.25a1.68,1.68,0,0,1,1.68-1.69h2.25a1.68,1.68,0,0,1,1.69,1.69Z"/><path class="g" d="M986.67,196.08h0a2,2,0,0,0-1.43-.6,2,2,0,0,0-1.42.6h0a2.07,2.07,0,0,0-.59,1.45,2,2,0,0,0,.59,1.45h0a2,2,0,0,0,1.42.59,2,2,0,0,0,1.43-.59h0a2,2,0,0,0,.59-1.45,2.06,2.06,0,0,0-.59-1.45Zm-1.43,28.09h0a2,2,0,0,0,1.43-.6h0a2,2,0,0,0,.59-1.44,2.06,2.06,0,0,0-.59-1.45h0a2,2,0,0,0-1.43-.6,2,2,0,0,0-1.42.6h0a2.07,2.07,0,0,0-.59,1.45,2,2,0,0,0,.59,1.44h0a2,2,0,0,0,1.42.6Zm11-6.22h0a2,2,0,0,0,1.23-1l0-.07h0a2.05,2.05,0,0,0,.16-1.49,2,2,0,0,0-.94-1.25l0,0a2,2,0,0,0-2.73.77,2.07,2.07,0,0,0,.74,2.81h0a2,2,0,0,0,1.53.2h0Zm-8.92-10.23h0a2.88,2.88,0,0,0-4.13,0,3,3,0,0,0-.85,2.1,3,3,0,0,0,.85,2.11,2.89,2.89,0,0,0,4.13,0,3,3,0,0,0,.85-2.11,3,3,0,0,0-.85-2.1Zm-1.16-3.5h0a5.51,5.51,0,0,1,3,1.59h0c.13.13.25.27.37.42l2-1.19a4.46,4.46,0,0,1,2-5.2l0,0a4.26,4.26,0,0,1,3.26-.43,4.36,4.36,0,0,1,2.64,2.06h0a4.49,4.49,0,0,1,.44,3.35,4.38,4.38,0,0,1-2,2.69l-.28.17h0a4.3,4.3,0,0,1-3,.28,4.35,4.35,0,0,1-2.11-1.31l-2,1.18a5.72,5.72,0,0,1,.36,2,5.8,5.8,0,0,1-.36,2l2,1.18a4.28,4.28,0,0,1,2.11-1.32,4.23,4.23,0,0,1,3.3.44l.07,0h0a4.41,4.41,0,0,1,2,2.66,4.48,4.48,0,0,1-.44,3.35l0,.07h0a4.39,4.39,0,0,1-2.6,2,4.31,4.31,0,0,1-3.3-.44h0a4.46,4.46,0,0,1-2-5.2l-2-1.18c-.12.14-.24.28-.37.41h0a5.48,5.48,0,0,1-3,1.59v2.37a4.3,4.3,0,0,1,2.17,1.2h0a4.47,4.47,0,0,1,0,6.25h0a4.29,4.29,0,0,1-6.15,0h0a4.46,4.46,0,0,1,0-6.25h0a4.3,4.3,0,0,1,2.17-1.2v-2.37a5.47,5.47,0,0,1-3-1.59h0a5.72,5.72,0,0,1,0-8h0a5.5,5.5,0,0,1,3-1.59v-2.36a4.38,4.38,0,0,1-2.17-1.2h0a4.47,4.47,0,0,1,0-6.25h0a4.29,4.29,0,0,1,6.15,0h0a4.47,4.47,0,0,1,0,6.25h0a4.37,4.37,0,0,1-2.17,1.2Zm11.31-1.57,0,0a2,2,0,0,0-1.21-.93,2,2,0,0,0-1.54.2h0a2,2,0,0,0-.94,1.25,2.09,2.09,0,0,0,.2,1.56h0a2,2,0,0,0,1.22.94,2,2,0,0,0,1.53-.2h0a2,2,0,0,0,.91-1.23,2.09,2.09,0,0,0-.2-1.56h0"/><rect class="e" x="876.42" y="317.48" width="175.84" height="86.48" rx="3.89" ry="3.89"/><rect class="f" x="876.42" y="317.48" width="175.84" height="86.48" rx="3.89" ry="3.89"/><path d="M936.83,341.91v-1.08a3,3,0,0,1-2.45,1.26c-1.89,0-3.22-1.44-3.22-3.79s1.32-3.81,3.22-3.81a3,3,0,0,1,2.45,1.28V331.9H938v10Zm0-2v-3.29a2.72,2.72,0,0,0-2.17-1.17c-1.46,0-2.33,1.2-2.33,2.8s.87,2.79,2.33,2.79A2.7,2.7,0,0,0,936.83,339.94Z"/><path d="M944.73,341.91v-.83a3.13,3.13,0,0,1-2.4,1,2.41,2.41,0,0,1-2.54-2.4,2.37,2.37,0,0,1,2.54-2.38,3,3,0,0,1,2.4,1V337c0-1-.78-1.53-1.83-1.53a2.88,2.88,0,0,0-2.22,1l-.52-.78a3.79,3.79,0,0,1,2.89-1.2c1.53,0,2.8.69,2.8,2.45v5Zm0-1.53V339a2.42,2.42,0,0,0-2-.9,1.59,1.59,0,1,0,0,3.17A2.42,2.42,0,0,0,944.73,340.38Z"/><path d="M948.34,340.4v-4.74h-1.2v-1h1.2v-2h1.13v2h1.47v1h-1.47v4.5c0,.54.24.93.74.93a1.08,1.08,0,0,0,.76-.3l.33.84a1.84,1.84,0,0,1-1.35.46A1.48,1.48,0,0,1,948.34,340.4Z"/><path d="M957,341.91v-.83a3.13,3.13,0,0,1-2.4,1,2.41,2.41,0,0,1-2.54-2.4,2.37,2.37,0,0,1,2.54-2.38,3,3,0,0,1,2.4,1V337c0-1-.78-1.53-1.83-1.53a2.88,2.88,0,0,0-2.22,1l-.52-.78a3.79,3.79,0,0,1,2.89-1.2c1.53,0,2.8.69,2.8,2.45v5Zm0-1.53V339a2.42,2.42,0,0,0-2-.9,1.59,1.59,0,1,0,0,3.17A2.42,2.42,0,0,0,957,340.38Z"/><path d="M960.43,341.91v-10h1.13v3.86a3,3,0,0,1,2.44-1.28c1.89,0,3.23,1.5,3.23,3.81s-1.33,3.79-3.23,3.79a3,3,0,0,1-2.44-1.26v1.08Zm3.29-.83c1.47,0,2.34-1.18,2.34-2.79s-.87-2.8-2.34-2.8a2.69,2.69,0,0,0-2.16,1.17v3.29A2.66,2.66,0,0,0,963.71,341.08Z"/><path d="M973.58,341.91v-.83a3.13,3.13,0,0,1-2.4,1,2.41,2.41,0,0,1-2.54-2.4,2.37,2.37,0,0,1,2.54-2.38,3,3,0,0,1,2.4,1V337c0-1-.78-1.53-1.83-1.53a2.88,2.88,0,0,0-2.22,1l-.52-.78a3.79,3.79,0,0,1,2.89-1.2c1.53,0,2.8.69,2.8,2.45v5Zm0-1.53V339a2.42,2.42,0,0,0-2-.9,1.59,1.59,0,1,0,0,3.17A2.42,2.42,0,0,0,973.58,340.38Z"/><path d="M976.33,340.95l.58-.81a3.28,3.28,0,0,0,2.38,1c1.11,0,1.71-.52,1.71-1.24,0-1.75-4.48-.68-4.48-3.36,0-1.12,1-2.08,2.7-2.08a3.67,3.67,0,0,1,2.69,1l-.53.78a2.82,2.82,0,0,0-2.16-.92c-1,0-1.6.5-1.6,1.14,0,1.59,4.48.54,4.48,3.36,0,1.21-1,2.19-2.85,2.19A3.85,3.85,0,0,1,976.33,340.95Z"/><path d="M983.51,338.28a3.62,3.62,0,0,1,3.57-3.79c2.19,0,3.48,1.71,3.48,3.88v.29H984.7a2.55,2.55,0,0,0,2.61,2.5,3.16,3.16,0,0,0,2.23-.92l.54.74a3.93,3.93,0,0,1-2.88,1.11A3.59,3.59,0,0,1,983.51,338.28Zm3.55-2.87a2.42,2.42,0,0,0-2.37,2.42h4.75A2.35,2.35,0,0,0,987.07,335.41Z"/><path d="M991.75,340.95l.58-.81a3.28,3.28,0,0,0,2.38,1c1.11,0,1.71-.52,1.71-1.24,0-1.75-4.48-.68-4.48-3.36,0-1.12,1-2.08,2.7-2.08a3.67,3.67,0,0,1,2.69,1l-.53.78a2.82,2.82,0,0,0-2.16-.92c-1,0-1.6.5-1.6,1.14,0,1.59,4.48.54,4.48,3.36,0,1.21-1,2.19-2.85,2.19A3.85,3.85,0,0,1,991.75,340.95Z"/><path class="i" d="M939.91,371.47c0-2.51-1.39-4.87-3.94-6.71-.32-3.13-1.67-5.51-3.84-6.77s-4.91-1.23-7.78.06c-2.87-1.28-5.61-1.31-7.78-.06s-3.53,3.65-3.85,6.79c-2.45,1.78-3.94,4.12-3.94,6.69s1.5,4.92,4,6.7c.31,3,1.6,5.49,3.83,6.78s5,1.16,7.78-.07c2.77,1.24,5.56,1.36,7.78.08s3.51-3.75,3.82-6.76C938.51,376.35,939.91,374,939.91,371.47Zm-4.57-5.83a16.82,16.82,0,0,1-.49,4.63,23.51,23.51,0,0,0-1.78-3.84,23.86,23.86,0,0,0-2.42-3.46,16.82,16.82,0,0,1,4.25,1.89l.41.28C935.31,365.3,935.33,365.47,935.33,365.63Zm0,12.16-.41.28a16.83,16.83,0,0,1-4.26,1.9,23.51,23.51,0,0,0,2.43-3.46,23.83,23.83,0,0,0,1.78-3.82A16.49,16.49,0,0,1,935.3,377.79Zm-2.84-1.64a22.7,22.7,0,0,1-3,4.13,23.21,23.21,0,0,1-10.17,0,23.21,23.21,0,0,1-5.09-8.81,23.21,23.21,0,0,1,5.08-8.82,23.21,23.21,0,0,1,10.18,0,23.2,23.2,0,0,1,5.09,8.82A22.78,22.78,0,0,1,932.46,376.16Zm-3.92,5a16.5,16.5,0,0,1-4.2,2.95,16.51,16.51,0,0,1-4.21-3,23.52,23.52,0,0,0,4.21.38A23.82,23.82,0,0,0,928.54,381.17Zm-14.7-8.49a23.83,23.83,0,0,0,1.78,3.82A23.49,23.49,0,0,0,918,380a16.51,16.51,0,0,1-4.66-2.16A16.5,16.5,0,0,1,913.83,372.68Zm-.49-7c0-.17,0-.33,0-.5A16.51,16.51,0,0,1,918,363a23.82,23.82,0,0,0-2.42,3.45,23.49,23.49,0,0,0-1.78,3.84A16.84,16.84,0,0,1,913.35,365.64Zm11-6.82.44.22a16.82,16.82,0,0,1,3.76,2.73,23.83,23.83,0,0,0-4.21-.37,23.5,23.5,0,0,0-4.21.38A16.82,16.82,0,0,1,923.9,359Zm7.43-.22a7.5,7.5,0,0,1,3.42,5.64,18.12,18.12,0,0,0-5.4-2.21,18.14,18.14,0,0,0-4.61-3.57A7.5,7.5,0,0,1,931.77,358.59Zm-14.87,0a7.5,7.5,0,0,1,6.6-.14,18.13,18.13,0,0,0-4.62,3.58,18.21,18.21,0,0,0-5.4,2.22A7.51,7.51,0,0,1,916.91,358.59Zm-7.43,12.88a7.53,7.53,0,0,1,3.18-5.78,18.13,18.13,0,0,0,.79,5.79,18.21,18.21,0,0,0-.77,5.78A7.54,7.54,0,0,1,909.47,371.47Zm7.43,12.88a7.54,7.54,0,0,1-3.42-5.66,18.21,18.21,0,0,0,5.41,2.23,18.2,18.2,0,0,0,4.63,3.57A7.54,7.54,0,0,1,916.91,384.34Zm14.87,0a7.54,7.54,0,0,1-6.62.13,18.2,18.2,0,0,0,4.62-3.56,18.13,18.13,0,0,0,5.41-2.21A7.53,7.53,0,0,1,931.77,384.34Zm4.24-7.08a18.19,18.19,0,0,0-.77-5.79,18.14,18.14,0,0,0,.79-5.8,6.86,6.86,0,0,1,0,11.58Z"/><circle class="i" cx="924.34" cy="371.47" r="3.57"/><path class="g" d="M970.56,358.78l-11.14,11.31-1.9-1.92v6.68h6.58l-1.9-1.92L972,363l8.38,8.51L972,380l-1.86-1.89L967.3,381l3.26,3.31a2,2,0,0,0,2.79,0L984.53,373a2,2,0,0,0,0-2.84l-11.17-11.34A2,2,0,0,0,970.56,358.78Z"/><path class="g" d="M962.18,384.3,973.32,373l1.9,1.92v-6.68h-6.58l1.9,1.92L960.78,380l-8.38-8.51,8.38-8.51,1.86,1.89,2.79-2.84-3.26-3.31a2,2,0,0,0-2.79,0l-11.17,11.35a2,2,0,0,0,0,2.84l11.17,11.34A2,2,0,0,0,962.18,384.3Z"/><path class="g" d="M1019.91,363.06c0,1.94-5.49,3.51-12.26,3.51s-12.27-1.57-12.27-3.51,5.49-3.5,12.27-3.5S1019.91,361.12,1019.91,363.06Zm-12.26,5.06c-4.9,0-10.08-.85-12.27-2.63v3.76c0,1.94,5.49,3.51,12.27,3.51s12.26-1.57,12.26-3.51v-3.76C1017.72,367.28,1012.54,368.12,1007.64,368.12Zm0,6.09c-4.9,0-10.08-.84-12.27-2.63v3.76c0,1.94,5.49,3.51,12.27,3.51s12.26-1.58,12.26-3.51v-3.76C1017.72,373.37,1012.54,374.22,1007.64,374.22Zm0,6.1c-4.9,0-10.08-.85-12.27-2.64v3.76c0,1.94,5.49,3.51,12.27,3.51s12.26-1.58,12.26-3.51v-3.76C1017.72,379.47,1012.54,380.32,1007.64,380.32Z"/></svg>