<svg xmlns="http://www.w3.org/2000/svg" xmlns:xlink="http://www.w3.org/1999/xlink" width="2036.83" height="473.46" viewBox="0 0 2036.83 473.46"><defs><style>.a,.f,.g{fill:none;}.a,.g{stroke-linecap:round;stroke-miterlimit:10;stroke-width:6px;}.a{stroke:url(#a);}.b{fill:#b2b2b2;}.c{fill:#a7a7a7;}.d{fill:#828282;}.e{fill:#7a7a7a;}.g{stroke:#ccc;}.h{fill:#34302d;}</style><linearGradient id="a" x1="1721.35" y1="238.82" x2="2036.83" y2="238.82" gradientUnits="userSpaceOnUse"><stop offset="0.82" stop-color="#d0d0d0"/><stop offset="1" stop-color="#ccc" stop-opacity="0"/></linearGradient></defs><title>Asset 1</title><line class="a" x1="1724.35" y1="238.82" x2="2033.83" y2="238.82"/><polyline class="b" points="1460.68 0.02 1324.07 234.42 1465.85 472.33 1733.4 473.46 1869.68 235.51 1733.89 0 1460.7 0"/><polyline class="c" points="1460.68 0.02 1596.47 235.53 1869.68 235.51 1733.89 0 1460.7 0"/><polyline class="d" points="1460.68 0.02 1324.07 234.42 1465.85 472.33 1596.47 235.53 1460.7 0"/><line class="e" x1="1596.47" y1="235.53" x2="1460.68" y2="0.02"/><polygon class="f" points="1460.23 469.11 1324.6 233.63 1461.13 2.49 1594.69 235.53 1460.23 469.11"/><line class="g" x1="1456.19" y1="239.43" x2="1318.96" y2="239.43"/><path d="M1639.4,303.15a8.77,8.77,0,0,0-3.89-.78,16.85,16.85,0,0,0-6.4,1.4,23.22,23.22,0,0,0-6.12,3.76,18.51,18.51,0,0,0-4.34,5.18,9.05,9.05,0,0,0-1.32,5.15,5,5,0,0,0,2,3.71,7.83,7.83,0,0,0,4.89,1.35,16,16,0,0,0,4.73-.82,24.19,24.19,0,0,0,4.93-2.21l.73,1.57a30.32,30.32,0,0,1-6,2.69,19.15,19.15,0,0,1-5.75,1,9.71,9.71,0,0,1-6-1.64,6.1,6.1,0,0,1-2.5-4.53,11,11,0,0,1,1.6-6.27,21.89,21.89,0,0,1,5.29-6.25,28.79,28.79,0,0,1,7.51-4.54,20.94,20.94,0,0,1,7.86-1.71,11.06,11.06,0,0,1,4.7.9,6.59,6.59,0,0,1,3,2.55l-2.48,1.69A5.43,5.43,0,0,0,1639.4,303.15Z" transform="translate(-10.09)"/><path d="M1661.89,307.5a4.13,4.13,0,0,1,1.78,3.26,8.88,8.88,0,0,1-1.32,4.76,17.55,17.55,0,0,1-3.94,4.83,19.24,19.24,0,0,1-5.38,3.32,15.62,15.62,0,0,1-5.82,1.21,7.63,7.63,0,0,1-4.53-1.14,4.11,4.11,0,0,1-1.77-3.27,9.05,9.05,0,0,1,1.35-4.81,17.22,17.22,0,0,1,3.91-4.78,19.29,19.29,0,0,1,5.38-3.3,15.64,15.64,0,0,1,5.82-1.21A7.65,7.65,0,0,1,1661.89,307.5Zm-10,1.83a14.43,14.43,0,0,0-4.07,2.58,14.1,14.1,0,0,0-3,3.76,7.62,7.62,0,0,0-1.13,3.78,3.1,3.1,0,0,0,1.26,2.54,5.5,5.5,0,0,0,3.38.89,11.49,11.49,0,0,0,4.38-.94,14.41,14.41,0,0,0,4.07-2.58,14.21,14.21,0,0,0,3-3.79,7.54,7.54,0,0,0,1.11-3.75,3.1,3.1,0,0,0-1.26-2.54,5.51,5.51,0,0,0-3.38-.89A11.51,11.51,0,0,0,1651.86,309.33Z" transform="translate(-10.09)"/><path d="M1689.69,308.06q1,1.9-.84,5.23l-6.19,11.29-2.59,0,5.89-10.73q1.42-2.59.67-4.06t-3.53-1.45a11.37,11.37,0,0,0-5.89,1.78,14.65,14.65,0,0,0-4.65,4.64l-5.42,9.89-2.55,0,10.08-18.38,2.55,0-2.35,4.28a15.55,15.55,0,0,1,4.79-3.25,14.56,14.56,0,0,1,5.47-1.15Q1688.7,306.16,1689.69,308.06Z" transform="translate(-10.09)"/><path d="M1716.47,307.9q1,1.9-.84,5.23l-6.19,11.29-2.59,0,5.89-10.73q1.42-2.59.67-4.06t-3.53-1.45A11.38,11.38,0,0,0,1704,310a14.65,14.65,0,0,0-4.65,4.64l-5.42,9.89-2.55,0,10.08-18.38,2.55,0-2.35,4.28a15.55,15.55,0,0,1,4.79-3.25,14.57,14.57,0,0,1,5.47-1.15Q1715.48,306,1716.47,307.9Z" transform="translate(-10.09)"/><path d="M1741.61,308.55q.94,2.7-1.77,7.3l-16.62.1q-1.35,2.95-.25,4.74t4.18,1.77a12.84,12.84,0,0,0,3.88-.65,16.31,16.31,0,0,0,3.8-1.81l.71,1.32a20,20,0,0,1-4.7,2.25,16.12,16.12,0,0,1-4.9.82,7.45,7.45,0,0,1-4.49-1.14,4.1,4.1,0,0,1-1.72-3.26,9.12,9.12,0,0,1,1.36-4.8,17.58,17.58,0,0,1,3.9-4.79,19.13,19.13,0,0,1,5.33-3.32,15.16,15.16,0,0,1,5.7-1.21Q1740.67,305.85,1741.61,308.55Zm-3,5.49q1.39-2.87.44-4.56t-4-1.67a11.84,11.84,0,0,0-6,1.75,14.34,14.34,0,0,0-4.82,4.57Z" transform="translate(-10.09)"/><path d="M1759.35,307.79a11.41,11.41,0,0,0-4.34.94,14.48,14.48,0,0,0-4.06,2.56,13.93,13.93,0,0,0-3,3.74,7.53,7.53,0,0,0-1.11,3.75,3.1,3.1,0,0,0,1.26,2.54,5.44,5.44,0,0,0,3.34.89,12.77,12.77,0,0,0,3.9-.65,14.65,14.65,0,0,0,3.72-1.84l.68,1.39a18.05,18.05,0,0,1-4.6,2.3,15.83,15.83,0,0,1-4.93.83,7.38,7.38,0,0,1-4.45-1.14,4.09,4.09,0,0,1-1.71-3.28,9.13,9.13,0,0,1,1.35-4.78,17.58,17.58,0,0,1,3.9-4.79,19.14,19.14,0,0,1,5.33-3.32,15.26,15.26,0,0,1,5.74-1.21,9.31,9.31,0,0,1,3.86.67,4.5,4.5,0,0,1,2.21,1.94l-2.31,1.59Q1762.89,307.77,1759.35,307.79Z" transform="translate(-10.09)"/><path d="M1776.44,322.75a13.24,13.24,0,0,1-5.16,1.4q-2.28,0-2.9-1.28t.8-3.88l6-10.94-2.85,0,1-1.82,2.89,0,2.6-4.73,2.55,0-2.6,4.73,6.49-.07-1,1.86-6.47,0-5.79,10.56q-1.87,3.4.87,3.39a10.48,10.48,0,0,0,3.85-1Z" transform="translate(-10.09)"/><polyline class="b" points="994.23 0.02 857.61 234.42 999.39 472.33 1266.94 473.46 1403.22 235.51 1267.44 0 994.24 0"/><polyline class="c" points="994.23 0.02 1130.02 235.53 1403.22 235.51 1267.44 0 994.24 0"/><polyline class="d" points="994.23 0.02 857.61 234.42 999.39 472.33 1130.02 235.53 994.24 0"/><line class="e" x1="1130.02" y1="235.53" x2="994.23" y2="0.02"/><line class="g" x1="993.18" y1="239.43" x2="855.95" y2="239.43"/><path d="M1148,303.31a8.77,8.77,0,0,0-3.89-.78,16.86,16.86,0,0,0-6.4,1.4,23.25,23.25,0,0,0-6.12,3.76,18.5,18.5,0,0,0-4.34,5.18,9.06,9.06,0,0,0-1.32,5.15,5,5,0,0,0,2,3.71,7.82,7.82,0,0,0,4.89,1.35,16,16,0,0,0,4.73-.82,24.17,24.17,0,0,0,4.93-2.21l.73,1.57a30.35,30.35,0,0,1-6,2.69,19.17,19.17,0,0,1-5.75,1,9.71,9.71,0,0,1-6-1.64,6.09,6.09,0,0,1-2.5-4.53,11,11,0,0,1,1.6-6.27,21.9,21.9,0,0,1,5.29-6.25,28.79,28.79,0,0,1,7.51-4.54,20.93,20.93,0,0,1,7.86-1.71,11.07,11.07,0,0,1,4.7.9,6.6,6.6,0,0,1,3,2.55l-2.48,1.69A5.44,5.44,0,0,0,1148,303.31Z" transform="translate(-10.09)"/><path d="M1170.45,307.67a4.13,4.13,0,0,1,1.78,3.26,8.89,8.89,0,0,1-1.32,4.76,17.52,17.52,0,0,1-3.94,4.83,19.24,19.24,0,0,1-5.38,3.32,15.63,15.63,0,0,1-5.82,1.21,7.63,7.63,0,0,1-4.53-1.14,4.11,4.11,0,0,1-1.77-3.27,9.05,9.05,0,0,1,1.35-4.81,17.22,17.22,0,0,1,3.91-4.78,19.29,19.29,0,0,1,5.38-3.3,15.64,15.64,0,0,1,5.82-1.21A7.64,7.64,0,0,1,1170.45,307.67Zm-10,1.83a14.44,14.44,0,0,0-4.07,2.58,14.1,14.1,0,0,0-3,3.76,7.62,7.62,0,0,0-1.13,3.78,3.1,3.1,0,0,0,1.26,2.54,5.5,5.5,0,0,0,3.38.89,11.5,11.5,0,0,0,4.38-.94,14.41,14.41,0,0,0,4.07-2.58,14.21,14.21,0,0,0,3-3.79,7.53,7.53,0,0,0,1.11-3.75,3.1,3.1,0,0,0-1.26-2.54,5.5,5.5,0,0,0-3.38-.89A11.51,11.51,0,0,0,1160.42,309.49Z" transform="translate(-10.09)"/><path d="M1195.79,307.51a4.13,4.13,0,0,1,1.78,3.26,8.88,8.88,0,0,1-1.32,4.76,17.55,17.55,0,0,1-3.94,4.83,19.24,19.24,0,0,1-5.38,3.32,15.62,15.62,0,0,1-5.82,1.21,7.63,7.63,0,0,1-4.53-1.14,4.11,4.11,0,0,1-1.77-3.27,9.05,9.05,0,0,1,1.35-4.81,17.22,17.22,0,0,1,3.91-4.78,19.29,19.29,0,0,1,5.38-3.3,15.64,15.64,0,0,1,5.82-1.21A7.65,7.65,0,0,1,1195.79,307.51Zm-10,1.83a14.43,14.43,0,0,0-4.07,2.58,14.1,14.1,0,0,0-3,3.76,7.62,7.62,0,0,0-1.13,3.78,3.1,3.1,0,0,0,1.26,2.54,5.51,5.51,0,0,0,3.38.89,11.49,11.49,0,0,0,4.38-.94,14.41,14.41,0,0,0,4.07-2.58,14.21,14.21,0,0,0,3-3.79,7.54,7.54,0,0,0,1.11-3.75,3.1,3.1,0,0,0-1.26-2.54,5.51,5.51,0,0,0-3.38-.89A11.5,11.5,0,0,0,1185.76,309.34Z" transform="translate(-10.09)"/><path d="M1213.36,307.37a12.69,12.69,0,0,1,5.06-1.17l-1.21,2.21a11.29,11.29,0,0,0-6,1.73,14.64,14.64,0,0,0-4.77,4.73l-5.39,9.82-2.55,0,10.08-18.38,2.55,0-2.35,4.28A16,16,0,0,1,1213.36,307.37Z" transform="translate(-10.09)"/><path d="M1246.73,298.48l-14.27,26-2.55,0,2.31-4.21a17.71,17.71,0,0,1-5,3.23,13.82,13.82,0,0,1-5.42,1.17,7,7,0,0,1-4.37-1.16,4,4,0,0,1-1.6-3.31,9.83,9.83,0,0,1,1.44-4.83,17.84,17.84,0,0,1,3.87-4.81,19.19,19.19,0,0,1,5.23-3.32A14.54,14.54,0,0,1,1232,306a6.52,6.52,0,0,1,4.18,1.13,3.88,3.88,0,0,1,1.45,3.21l6.52-11.89Zm-18.92,23.24a15,15,0,0,0,4.1-2.59,13.92,13.92,0,0,0,3-3.76,7.48,7.48,0,0,0,1.1-3.76,3.27,3.27,0,0,0-1.25-2.6,5.27,5.27,0,0,0-3.36-.92,11.29,11.29,0,0,0-4.4,1,15.49,15.49,0,0,0-4.13,2.63,13.92,13.92,0,0,0-3.06,3.78,7.34,7.34,0,0,0-1.09,3.75,3.19,3.19,0,0,0,1.29,2.56,5.46,5.46,0,0,0,3.39.9A11.39,11.39,0,0,0,1227.81,321.71Z" transform="translate(-10.09)"/><path d="M1252.08,306.06l2.55,0-10.08,18.38-2.55,0Zm6.1-6.49a1.25,1.25,0,0,1-.15,1.17,3.28,3.28,0,0,1-1.17,1.2,2.86,2.86,0,0,1-1.51.5,1,1,0,0,1-1-.48,1.26,1.26,0,0,1,.14-1.19,3.2,3.2,0,0,1,1.16-1.18,3,3,0,0,1,1.53-.48A1,1,0,0,1,1258.18,299.58Z" transform="translate(-10.09)"/><path d="M1279,307.73q1,1.9-.84,5.23l-6.19,11.29-2.59,0,5.89-10.73q1.42-2.59.67-4.06t-3.53-1.45a11.38,11.38,0,0,0-5.89,1.78,14.65,14.65,0,0,0-4.65,4.64l-5.42,9.89-2.55,0L1264,306l2.55,0-2.35,4.28a15.53,15.53,0,0,1,4.79-3.25,14.57,14.57,0,0,1,5.47-1.15Q1278,305.83,1279,307.73Z" transform="translate(-10.09)"/><path d="M1293.17,324.13l1.66-3.09a14.84,14.84,0,0,1-9.21,3.24,5.92,5.92,0,0,1-3.16-.7,2.57,2.57,0,0,1-1.29-2,4.83,4.83,0,0,1,.72-2.84,9.12,9.12,0,0,1,4.05-3.77,13.92,13.92,0,0,1,6.25-1.4l6.7,0,.77-1.4q1.19-2.17.44-3.36t-3.46-1.17a17.93,17.93,0,0,0-7.64,2.25l-.26-1.61a32.19,32.19,0,0,1,4.89-1.94,16.59,16.59,0,0,1,4.52-.64q3.61,0,4.68,1.63t-.51,4.6l-6.64,12.17Zm-.88-3a12.52,12.52,0,0,0,4.25-3.22l1.38-2.52-6.43,0a11,11,0,0,0-4.44.83,5.58,5.58,0,0,0-2.7,2.43q-.9,1.65-.14,2.64a3.51,3.51,0,0,0,2.93,1A12.2,12.2,0,0,0,1292.29,321.14Z" transform="translate(-10.09)"/><path d="M1315.13,322.73a13.24,13.24,0,0,1-5.16,1.39q-2.28,0-2.9-1.27t.81-3.89l6-10.94-2.85,0,1-1.82,2.89,0,2.6-4.73,2.55,0-2.6,4.73,6.49-.07-1,1.86-6.47,0-5.79,10.56q-1.87,3.4.87,3.39a10.48,10.48,0,0,0,3.85-1Z" transform="translate(-10.09)"/><path d="M1344.1,308.14q.94,2.7-1.77,7.3l-16.62.1q-1.35,2.95-.25,4.74t4.18,1.77a12.83,12.83,0,0,0,3.88-.65,16.3,16.3,0,0,0,3.79-1.81l.72,1.32a20,20,0,0,1-4.7,2.25,16.13,16.13,0,0,1-4.9.82,7.45,7.45,0,0,1-4.49-1.14,4.1,4.1,0,0,1-1.72-3.26,9.12,9.12,0,0,1,1.36-4.8,17.58,17.58,0,0,1,3.9-4.79,19.14,19.14,0,0,1,5.33-3.32,15.17,15.17,0,0,1,5.7-1.21Q1343.16,305.43,1344.1,308.14Zm-3,5.49q1.39-2.87.44-4.56t-4-1.67a11.84,11.84,0,0,0-6,1.75,14.34,14.34,0,0,0-4.82,4.57Z" transform="translate(-10.09)"/><polyline class="b" points="529.18 0.02 392.56 234.42 534.34 472.33 801.89 473.46 938.18 235.51 802.39 0 529.2 0"/><polyline class="c" points="529.18 0.02 664.97 235.53 938.18 235.51 802.39 0 529.2 0"/><polyline class="d" points="529.18 0.02 392.56 234.42 534.34 472.33 664.97 235.53 529.2 0"/><line class="e" x1="664.97" y1="235.53" x2="529.18" y2="0.02"/><line class="g" x1="521.28" y1="240.33" x2="243.4" y2="240.33"/><path d="M745.14,301.8q1.37,1.62-.21,4.49a10.7,10.7,0,0,1-3.31,3.66,11.82,11.82,0,0,1-4.73,2q2.74.33,3.47,2t-.65,4.16a11.88,11.88,0,0,1-5.24,4.93,17.87,17.87,0,0,1-8,1.8l-11.26.07,13.46-24.55,11.15-.07Q743.77,300.18,745.14,301.8Zm-11.76,19.51a8.37,8.37,0,0,0,3.8-3.5q1.21-2.21,0-3.43t-4.61-1.2l-8.41.05-5.16,9.4,8.41-.05A13.65,13.65,0,0,0,733.38,321.31Zm5.34-11.43a7.92,7.92,0,0,0,3.34-3.25q1.11-2,.17-3.15t-3.78-1.06l-8.41.05-4.73,8.63,8.41-.05A10.73,10.73,0,0,0,738.72,309.88Z" transform="translate(-10.09)"/><path d="M771.16,306.17l-10.08,18.38-2.59,0,2.4-4.38a15.62,15.62,0,0,1-4.76,3.31,13.83,13.83,0,0,1-5.37,1.19q-3.54,0-4.49-1.88t.88-5.23l6.19-11.29,2.59,0L750.06,317q-1.42,2.6-.68,4t3.44,1.43a11,11,0,0,0,6.13-2,14.89,14.89,0,0,0,4.68-5.22l4.94-9Z" transform="translate(-10.09)"/><path d="M780.48,306.11l2.55,0L773,324.47l-2.55,0Zm6.1-6.49a1.25,1.25,0,0,1-.15,1.17,3.29,3.29,0,0,1-1.17,1.2,2.86,2.86,0,0,1-1.51.5,1,1,0,0,1-1-.48,1.26,1.26,0,0,1,.14-1.19,3.2,3.2,0,0,1,1.16-1.18,2.94,2.94,0,0,1,1.53-.48A1,1,0,0,1,786.58,299.62Z" transform="translate(-10.09)"/><path d="M796.74,298.39l2.55,0L785,324.4l-2.55,0Z" transform="translate(-10.09)"/><path d="M827,298.21l-14.27,26-2.55,0,2.31-4.21a17.71,17.71,0,0,1-5,3.23,13.82,13.82,0,0,1-5.42,1.17,7,7,0,0,1-4.37-1.16,4,4,0,0,1-1.6-3.31,9.85,9.85,0,0,1,1.44-4.83,17.85,17.85,0,0,1,3.87-4.81,19.2,19.2,0,0,1,5.23-3.32,14.54,14.54,0,0,1,5.62-1.22,6.52,6.52,0,0,1,4.18,1.13,3.88,3.88,0,0,1,1.45,3.21l6.52-11.89Zm-18.92,23.24a15,15,0,0,0,4.1-2.59,13.92,13.92,0,0,0,3-3.76,7.48,7.48,0,0,0,1.1-3.76,3.27,3.27,0,0,0-1.25-2.6,5.27,5.27,0,0,0-3.36-.92,11.28,11.28,0,0,0-4.4,1,15.49,15.49,0,0,0-4.13,2.63,13.92,13.92,0,0,0-3.06,3.78,7.34,7.34,0,0,0-1.09,3.75,3.19,3.19,0,0,0,1.29,2.56,5.46,5.46,0,0,0,3.39.91A11.4,11.4,0,0,0,808.06,321.44Z" transform="translate(-10.09)"/><path class="h" d="M44.53,328.22,34.21,346.6l.06,9.55-3.82,0-.06-9.39-10.7-18.41,3.9,0,8.69,14.16,8.35-14.26Z" transform="translate(-10.09)"/><path class="h" d="M60.64,336.16a9.74,9.74,0,0,1,3.85,3.74,10.93,10.93,0,0,1,1.41,5.5,11,11,0,0,1-1.34,5.54,9.7,9.7,0,0,1-3.8,3.81,12.32,12.32,0,0,1-11.23.07,9.73,9.73,0,0,1-3.85-3.74A11.83,11.83,0,0,1,45.62,340a9.73,9.73,0,0,1,3.8-3.79,12.31,12.31,0,0,1,11.23-.07ZM51.38,339a6.61,6.61,0,0,0-2.49,2.66,8.09,8.09,0,0,0-.87,3.85,8.29,8.29,0,0,0,.92,3.9,6.43,6.43,0,0,0,2.52,2.63,7.2,7.2,0,0,0,3.69.91,7.12,7.12,0,0,0,3.64-1,6.44,6.44,0,0,0,2.49-2.66,8.29,8.29,0,0,0,.87-3.91,8.09,8.09,0,0,0-.92-3.84A6.61,6.61,0,0,0,58.71,339a7,7,0,0,0-3.65-.93A7.08,7.08,0,0,0,51.38,339Z" transform="translate(-10.09)"/><path class="h" d="M89.63,334.75l.13,21.06-3.74,0,0-4.46q-2,4.51-7.77,4.63a7.54,7.54,0,0,1-5.75-2.13,8.32,8.32,0,0,1-2.11-6l-.08-13,3.74,0,.07,12A5.71,5.71,0,0,0,75.58,351a5.32,5.32,0,0,0,4,1.47,5.92,5.92,0,0,0,4.66-2.12,7.83,7.83,0,0,0,1.7-5.25l-.06-10.35Z" transform="translate(-10.09)"/><path class="h" d="M103.49,335.76a8.76,8.76,0,0,1,4.53-1.24l0,3.58a6.77,6.77,0,0,0-7.44,6.53l.07,11.11-3.7,0-.13-21.06,3.7,0,0,4.54A7.62,7.62,0,0,1,103.49,335.76Z" transform="translate(-10.09)"/><path class="h" d="M143.66,355.48l-3-6.75-14.69.09-2.86,6.79-4,0,12.21-27.94,4,0,12.51,27.79Zm-16.19-10.13,11.7-.07-6-13.5Z" transform="translate(-10.09)"/><path class="h" d="M168.34,335.5a9.3,9.3,0,0,1,3.61,3.76,12.79,12.79,0,0,1,.09,11.09,9.09,9.09,0,0,1-3.52,3.76,10.2,10.2,0,0,1-5.23,1.37,9.6,9.6,0,0,1-4.7-1.09,8,8,0,0,1-3.2-3.16l.07,11.9-3.7,0-.18-28.78,3.7,0,0,4.18a8,8,0,0,1,3.14-3.2,9.41,9.41,0,0,1,4.63-1.14A10.2,10.2,0,0,1,168.34,335.5Zm-2.23,15.78a6.57,6.57,0,0,0,2.49-2.68,8.2,8.2,0,0,0,.87-3.87,8,8,0,0,0-.94-3.82,6.76,6.76,0,0,0-2.52-2.65,6.9,6.9,0,0,0-3.63-.93,7,7,0,0,0-3.64,1,6.71,6.71,0,0,0-2.51,2.68,8.56,8.56,0,0,0,0,7.7,6.73,6.73,0,0,0,2.54,2.63,7.42,7.42,0,0,0,7.28,0Z" transform="translate(-10.09)"/><path class="h" d="M195.33,335.33a9.3,9.3,0,0,1,3.61,3.76,12.79,12.79,0,0,1,.09,11.09,9.09,9.09,0,0,1-3.52,3.76,10.2,10.2,0,0,1-5.23,1.37,9.6,9.6,0,0,1-4.7-1.09,8,8,0,0,1-3.2-3.16l.07,11.9-3.7,0-.18-28.78,3.7,0,0,4.18a8,8,0,0,1,3.15-3.2,9.41,9.41,0,0,1,4.63-1.14A10.2,10.2,0,0,1,195.33,335.33Zm-2.23,15.78a6.57,6.57,0,0,0,2.49-2.68,8.2,8.2,0,0,0,.87-3.87,8,8,0,0,0-.94-3.82,6.76,6.76,0,0,0-2.52-2.65,6.9,6.9,0,0,0-3.63-.93,7,7,0,0,0-3.64,1,6.71,6.71,0,0,0-2.51,2.68,8.56,8.56,0,0,0,0,7.7,6.73,6.73,0,0,0,2.54,2.63,7.42,7.42,0,0,0,7.28,0Z" transform="translate(-10.09)"/><path class="h" d="M137.75,286.56v9.49a2.37,2.37,0,0,1-2.37,2.37H17.22a7.12,7.12,0,1,1,0-14.24H135.38A2.37,2.37,0,0,1,137.75,286.56Zm-2.37-26H34.19V170H183.11v17a2.37,2.37,0,0,0,2.37,2.37H195a2.37,2.37,0,0,0,2.37-2.37V162.91a7.12,7.12,0,0,0-7.12-7.12H27.07a7.12,7.12,0,0,0-7.12,7.12V267.76a7.12,7.12,0,0,0,7.12,7.12H135.38a2.37,2.37,0,0,0,2.37-2.37V263a2.37,2.37,0,0,0-2.37-2.37ZM211.6,206v90.2a2.37,2.37,0,0,1-2.37,2.37H154.46a2.37,2.37,0,0,1-2.37-2.37V206a2.37,2.37,0,0,1,2.37-2.37h54.76A2.37,2.37,0,0,1,211.6,206s0,0,0,.07Zm-26.11,84.6a3.66,3.66,0,1,0-3.66,3.66,3.66,3.66,0,0,0,3.66-3.66Zm19-73.59a2.37,2.37,0,0,0-2.37-2.37H161.56a2.37,2.37,0,0,0-2.37,2.37v62a2.37,2.37,0,0,0,2.37,2.37h40.57A2.37,2.37,0,0,0,204.5,279V217Z" transform="translate(-10.09)"/></svg>