<svg xmlns="http://www.w3.org/2000/svg" xmlns:xlink="http://www.w3.org/1999/xlink" width="1796.43" height="473.46" viewBox="0 0 1796.43 473.46"><defs><style>.a,.e,.f{fill:none;}.a,.f{stroke-linecap:round;stroke-miterlimit:10;stroke-width:6px;}.a{stroke:url(#a);}.b{fill:#b2b2b2;}.c{fill:#a7a7a7;}.d{fill:#828282;}.f{stroke:#ccc;}</style><linearGradient id="a" x1="1480.95" y1="237.18" x2="1796.43" y2="237.18" gradientTransform="matrix(1, 0, 0, -1, 0, 476)" gradientUnits="userSpaceOnUse"><stop offset="0.82" stop-color="#d0d0d0"/><stop offset="1" stop-color="#ccc" stop-opacity="0"/></linearGradient></defs><title>Asset 1</title><line class="a" x1="1483.95" y1="238.82" x2="1793.43" y2="238.82"/><polyline class="b" points="1220.28 0.02 1083.67 234.42 1225.45 472.33 1493 473.46 1629.28 235.51 1493.49 0 1220.3 0"/><polyline class="c" points="1220.28 0.02 1356.07 235.53 1629.28 235.51 1493.49 0 1220.3 0"/><polyline class="d" points="1220.28 0.02 1083.67 234.42 1225.45 472.33 1356.07 235.53 1220.3 0"/><line class="e" x1="1356.07" y1="235.53" x2="1220.28" y2="0.02"/><polygon class="e" points="1219.83 469.11 1084.2 233.63 1220.73 2.49 1354.29 235.53 1219.83 469.11"/><line class="f" x1="1215.79" y1="239.43" x2="1078.56" y2="239.43"/><path d="M1388.91,303.15a8.77,8.77,0,0,0-3.89-.78,16.85,16.85,0,0,0-6.4,1.4,23.22,23.22,0,0,0-6.12,3.76,18.51,18.51,0,0,0-4.34,5.18,9,9,0,0,0-1.32,5.15,5,5,0,0,0,2,3.71,7.83,7.83,0,0,0,4.89,1.35,16,16,0,0,0,4.73-.82,24.19,24.19,0,0,0,4.93-2.21l.73,1.57a30.32,30.32,0,0,1-6,2.69,19.15,19.15,0,0,1-5.75,1,9.71,9.71,0,0,1-6-1.64,6.1,6.1,0,0,1-2.5-4.53,11,11,0,0,1,1.6-6.27,21.89,21.89,0,0,1,5.29-6.25,28.79,28.79,0,0,1,7.51-4.54,20.94,20.94,0,0,1,7.86-1.71,11.06,11.06,0,0,1,4.7.9,6.59,6.59,0,0,1,3,2.55l-2.48,1.69A5.43,5.43,0,0,0,1388.91,303.15Z"/><path d="M1411.4,307.5a4.13,4.13,0,0,1,1.78,3.26,8.88,8.88,0,0,1-1.32,4.76,17.55,17.55,0,0,1-3.94,4.83,19.24,19.24,0,0,1-5.38,3.32,15.62,15.62,0,0,1-5.82,1.21,7.63,7.63,0,0,1-4.53-1.14,4.11,4.11,0,0,1-1.77-3.27,9.05,9.05,0,0,1,1.35-4.81,17.22,17.22,0,0,1,3.91-4.78,19.29,19.29,0,0,1,5.38-3.3,15.64,15.64,0,0,1,5.82-1.21A7.65,7.65,0,0,1,1411.4,307.5Zm-10,1.83a14.43,14.43,0,0,0-4.07,2.58,14.1,14.1,0,0,0-3,3.76,7.62,7.62,0,0,0-1.13,3.78,3.1,3.1,0,0,0,1.26,2.54,5.5,5.5,0,0,0,3.38.89,11.49,11.49,0,0,0,4.38-.94,14.41,14.41,0,0,0,4.07-2.58,14.21,14.21,0,0,0,3-3.79,7.54,7.54,0,0,0,1.11-3.75,3.1,3.1,0,0,0-1.26-2.54,5.51,5.51,0,0,0-3.38-.89,11.51,11.51,0,0,0-4.39.94Z"/><path d="M1439.2,308.06q1,1.9-.84,5.23l-6.19,11.29h-2.59l5.89-10.73q1.42-2.59.67-4.06t-3.53-1.45a11.37,11.37,0,0,0-5.89,1.78,14.65,14.65,0,0,0-4.65,4.64l-5.42,9.89h-2.55l10.08-18.38h2.55l-2.35,4.28a15.55,15.55,0,0,1,4.79-3.25,14.56,14.56,0,0,1,5.47-1.15Q1438.21,306.16,1439.2,308.06Z"/><path d="M1466,307.9q1,1.9-.84,5.23L1459,324.42h-2.59l5.89-10.73q1.42-2.59.67-4.06t-3.53-1.45a11.38,11.38,0,0,0-5.88,1.82,14.65,14.65,0,0,0-4.65,4.64l-5.42,9.89h-2.55L1451,306.15h2.55l-2.35,4.28a15.55,15.55,0,0,1,4.79-3.25,14.57,14.57,0,0,1,5.47-1.15Q1465,306,1466,307.9Z"/><path d="M1491.12,308.55q.94,2.7-1.77,7.3l-16.62.1q-1.35,3-.25,4.74t4.18,1.77a12.84,12.84,0,0,0,3.88-.65,16.31,16.31,0,0,0,3.8-1.81l.71,1.32a20,20,0,0,1-4.7,2.25,16.12,16.12,0,0,1-4.9.82,7.45,7.45,0,0,1-4.49-1.14,4.1,4.1,0,0,1-1.72-3.26,9.12,9.12,0,0,1,1.36-4.8,17.58,17.58,0,0,1,3.9-4.79,19.13,19.13,0,0,1,5.33-3.32,15.16,15.16,0,0,1,5.7-1.21Q1490.18,305.85,1491.12,308.55Zm-3,5.49q1.39-2.87.44-4.56t-4-1.67a11.84,11.84,0,0,0-6,1.75,14.34,14.34,0,0,0-4.82,4.57Z"/><path d="M1508.86,307.79a11.41,11.41,0,0,0-4.34.94,14.48,14.48,0,0,0-4.06,2.56,13.93,13.93,0,0,0-3,3.74,7.53,7.53,0,0,0-1.11,3.75,3.1,3.1,0,0,0,1.26,2.54,5.44,5.44,0,0,0,3.34.89,12.77,12.77,0,0,0,3.9-.65,14.65,14.65,0,0,0,3.72-1.84l.68,1.39a18,18,0,0,1-4.6,2.3,15.83,15.83,0,0,1-4.93.83,7.38,7.38,0,0,1-4.45-1.14,4.09,4.09,0,0,1-1.71-3.28,9.13,9.13,0,0,1,1.35-4.78,17.58,17.58,0,0,1,3.9-4.79,19.14,19.14,0,0,1,5.33-3.32,15.26,15.26,0,0,1,5.74-1.21,9.31,9.31,0,0,1,3.86.67,4.5,4.5,0,0,1,2.21,1.94l-2.31,1.59Q1512.4,307.77,1508.86,307.79Z"/><path d="M1525.95,322.75a13.24,13.24,0,0,1-5.16,1.4q-2.28,0-2.9-1.28t.8-3.88l6-10.94h-2.85l1-1.82h2.89l2.6-4.73h2.55l-2.6,4.73,6.49-.07-1,1.86h-6.47l-5.79,10.56q-1.87,3.4.87,3.39a10.48,10.48,0,0,0,3.85-1Z"/><polyline class="b" points="753.83 0.02 617.21 234.42 758.99 472.33 1026.54 473.46 1162.82 235.51 1027.04 0 753.84 0"/><polyline class="c" points="753.83 0.02 889.62 235.53 1162.82 235.51 1027.04 0 753.84 0"/><polyline class="d" points="753.83 0.02 617.21 234.42 758.99 472.33 889.62 235.53 753.84 0"/><line class="e" x1="889.62" y1="235.53" x2="753.83" y2="0.02"/><line class="f" x1="752.78" y1="239.43" x2="615.55" y2="239.43"/><path d="M897.51,303.31a8.77,8.77,0,0,0-3.89-.78,16.86,16.86,0,0,0-6.4,1.4,23.25,23.25,0,0,0-6.12,3.76,18.5,18.5,0,0,0-4.34,5.18,9.06,9.06,0,0,0-1.32,5.15,5,5,0,0,0,2,3.71,7.82,7.82,0,0,0,4.89,1.35,16,16,0,0,0,4.73-.82A24.17,24.17,0,0,0,892,320l.73,1.57a30.35,30.35,0,0,1-6,2.69,19.17,19.17,0,0,1-5.75,1,9.71,9.71,0,0,1-6-1.64,6.09,6.09,0,0,1-2.5-4.53,11,11,0,0,1,1.6-6.27,21.9,21.9,0,0,1,5.29-6.25,28.79,28.79,0,0,1,7.51-4.54,20.93,20.93,0,0,1,7.86-1.71,11.07,11.07,0,0,1,4.7.9,6.6,6.6,0,0,1,3,2.55L900,305.51A5.44,5.44,0,0,0,897.51,303.31Z"/><path d="M920,307.67a4.13,4.13,0,0,1,1.78,3.26,8.89,8.89,0,0,1-1.32,4.76,17.52,17.52,0,0,1-3.94,4.83,19.24,19.24,0,0,1-5.38,3.32,15.63,15.63,0,0,1-5.82,1.21,7.63,7.63,0,0,1-4.53-1.14,4.11,4.11,0,0,1-1.77-3.27,9.05,9.05,0,0,1,1.35-4.81,17.22,17.22,0,0,1,3.91-4.78,19.29,19.29,0,0,1,5.38-3.3,15.64,15.64,0,0,1,5.82-1.21A7.64,7.64,0,0,1,920,307.67Zm-10,1.83a14.44,14.44,0,0,0-4.07,2.58,14.1,14.1,0,0,0-3,3.76,7.62,7.62,0,0,0-1.13,3.78,3.1,3.1,0,0,0,1.26,2.54,5.5,5.5,0,0,0,3.38.89,11.5,11.5,0,0,0,4.38-.94,14.41,14.41,0,0,0,4.07-2.58,14.21,14.21,0,0,0,3-3.79A7.53,7.53,0,0,0,919,312a3.1,3.1,0,0,0-1.26-2.54,5.5,5.5,0,0,0-3.38-.89,11.51,11.51,0,0,0-4.39.93Z"/><path d="M945.3,307.51a4.13,4.13,0,0,1,1.78,3.26,8.88,8.88,0,0,1-1.32,4.76,17.55,17.55,0,0,1-3.94,4.83,19.24,19.24,0,0,1-5.38,3.32,15.62,15.62,0,0,1-5.82,1.21,7.63,7.63,0,0,1-4.53-1.14,4.11,4.11,0,0,1-1.77-3.27,9.05,9.05,0,0,1,1.35-4.81,17.22,17.22,0,0,1,3.91-4.78,19.29,19.29,0,0,1,5.38-3.3,15.64,15.64,0,0,1,5.82-1.21A7.65,7.65,0,0,1,945.3,307.51Zm-10,1.83a14.43,14.43,0,0,0-4.07,2.58,14.1,14.1,0,0,0-3,3.76,7.62,7.62,0,0,0-1.13,3.78,3.1,3.1,0,0,0,1.26,2.54,5.51,5.51,0,0,0,3.38.89,11.49,11.49,0,0,0,4.38-.94,14.41,14.41,0,0,0,4.07-2.58,14.21,14.21,0,0,0,3-3.79,7.54,7.54,0,0,0,1.11-3.75,3.1,3.1,0,0,0-1.26-2.54,5.51,5.51,0,0,0-3.38-.89,11.5,11.5,0,0,0-4.39.94Z"/><path d="M962.87,307.37a12.69,12.69,0,0,1,5.06-1.17l-1.21,2.21a11.29,11.29,0,0,0-6,1.73,14.64,14.64,0,0,0-4.77,4.73l-5.39,9.82H948l10.08-18.38h2.55l-2.35,4.28A16,16,0,0,1,962.87,307.37Z"/><path d="M996.24,298.48l-14.27,26h-2.55l2.31-4.21a17.71,17.71,0,0,1-5,3.23,13.82,13.82,0,0,1-5.42,1.17,7,7,0,0,1-4.37-1.16,4,4,0,0,1-1.6-3.31,9.83,9.83,0,0,1,1.44-4.83,17.84,17.84,0,0,1,3.87-4.81,19.19,19.19,0,0,1,5.23-3.32,14.54,14.54,0,0,1,5.63-1.24,6.52,6.52,0,0,1,4.18,1.13,3.88,3.88,0,0,1,1.45,3.21l6.52-11.89Zm-18.92,23.24a15,15,0,0,0,4.1-2.59,13.92,13.92,0,0,0,3-3.76,7.48,7.48,0,0,0,1.1-3.76,3.27,3.27,0,0,0-1.25-2.6,5.27,5.27,0,0,0-3.36-.92,11.29,11.29,0,0,0-4.4,1,15.49,15.49,0,0,0-4.13,2.63,13.92,13.92,0,0,0-3.06,3.78,7.34,7.34,0,0,0-1.09,3.75,3.19,3.19,0,0,0,1.29,2.56,5.46,5.46,0,0,0,3.39.9,11.39,11.39,0,0,0,4.41-1Z"/><path d="M1001.59,306.06h2.55l-10.08,18.38h-2.55Zm6.1-6.49a1.25,1.25,0,0,1-.15,1.17,3.28,3.28,0,0,1-1.17,1.2,2.86,2.86,0,0,1-1.51.5,1,1,0,0,1-1-.48,1.26,1.26,0,0,1,.14-1.19,3.2,3.2,0,0,1,1.16-1.18,3,3,0,0,1,1.53-.48,1,1,0,0,1,1,.47Z"/><path d="M1028.51,307.73q1,1.9-.84,5.23l-6.19,11.29h-2.59l5.89-10.73q1.42-2.59.67-4.06t-3.53-1.45a11.38,11.38,0,0,0-5.89,1.78,14.65,14.65,0,0,0-4.65,4.64l-5.42,9.89h-2.55l10.1-18.32h2.55l-2.35,4.28a15.53,15.53,0,0,1,4.79-3.25,14.57,14.57,0,0,1,5.47-1.15Q1027.51,305.83,1028.51,307.73Z"/><path d="M1042.68,324.13l1.66-3.09a14.84,14.84,0,0,1-9.21,3.24,5.92,5.92,0,0,1-3.16-.7,2.57,2.57,0,0,1-1.29-2,4.83,4.83,0,0,1,.72-2.84,9.12,9.12,0,0,1,4.05-3.77,13.92,13.92,0,0,1,6.25-1.4h6.7l.77-1.4q1.19-2.17.44-3.36t-3.46-1.17a17.93,17.93,0,0,0-7.64,2.25l-.26-1.61a32.19,32.19,0,0,1,4.89-1.94,16.59,16.59,0,0,1,4.52-.64q3.61,0,4.68,1.63t-.51,4.6l-6.64,12.17Zm-.88-3a12.52,12.52,0,0,0,4.25-3.22l1.38-2.52H1041a11,11,0,0,0-4.44.83,5.58,5.58,0,0,0-2.7,2.43q-.9,1.65-.14,2.64a3.51,3.51,0,0,0,2.93,1,12.2,12.2,0,0,0,5.15-1.15Z"/><path d="M1064.64,322.73a13.24,13.24,0,0,1-5.16,1.39q-2.28,0-2.9-1.27t.81-3.89l6-10.94h-2.85l1-1.82h2.89l2.6-4.73h2.55l-2.6,4.73,6.49-.07-1,1.86H1066l-5.79,10.56q-1.87,3.4.87,3.39a10.48,10.48,0,0,0,3.85-1Z"/><path d="M1093.61,308.14q.94,2.7-1.77,7.3l-16.62.1q-1.35,3-.25,4.74t4.18,1.77a12.83,12.83,0,0,0,3.88-.65,16.3,16.3,0,0,0,3.79-1.81l.72,1.32a20,20,0,0,1-4.7,2.25,16.13,16.13,0,0,1-4.9.82,7.45,7.45,0,0,1-4.49-1.14,4.1,4.1,0,0,1-1.72-3.26,9.12,9.12,0,0,1,1.36-4.8A17.58,17.58,0,0,1,1077,310a19.14,19.14,0,0,1,5.33-3.32,15.17,15.17,0,0,1,5.7-1.21Q1092.67,305.43,1093.61,308.14Zm-3,5.49q1.39-2.87.44-4.56t-4-1.67a11.84,11.84,0,0,0-6,1.75,14.34,14.34,0,0,0-4.82,4.57Z"/><polyline class="b" points="288.78 0.02 152.16 234.42 293.94 472.33 561.49 473.46 697.78 235.51 561.99 0 288.8 0"/><polyline class="c" points="288.78 0.02 424.57 235.53 697.78 235.51 561.99 0 288.8 0"/><polyline class="d" points="288.78 0.02 152.16 234.42 293.94 472.33 424.57 235.53 288.8 0"/><line class="e" x1="424.57" y1="235.53" x2="288.78" y2="0.02"/><line class="f" x1="280.88" y1="240.33" x2="3" y2="240.33"/><path d="M494.65,301.8q1.37,1.62-.21,4.49a10.7,10.7,0,0,1-3.31,3.66,11.82,11.82,0,0,1-4.73,2q2.74.33,3.47,2t-.65,4.16A11.88,11.88,0,0,1,484,323a17.87,17.87,0,0,1-8,1.8l-11.26.07,13.46-24.55,11.15-.07Q493.28,300.18,494.65,301.8Zm-11.76,19.51a8.37,8.37,0,0,0,3.8-3.5q1.21-2.21,0-3.43t-4.61-1.2l-8.41,0-5.16,9.4,8.41,0A13.65,13.65,0,0,0,482.89,321.31Zm5.34-11.43a7.92,7.92,0,0,0,3.34-3.25q1.11-2,.17-3.15T488,302.42l-8.41,0-4.73,8.63,8.41,0a10.73,10.73,0,0,0,5-1.17Z"/><path d="M520.67,306.17l-10.08,18.38H508l2.4-4.38a15.62,15.62,0,0,1-4.76,3.31,13.83,13.83,0,0,1-5.37,1.19q-3.54,0-4.49-1.88t.88-5.23l6.19-11.29h2.59L499.57,317q-1.42,2.6-.68,4t3.44,1.43a11,11,0,0,0,6.13-2,14.89,14.89,0,0,0,4.68-5.22l4.94-9Z"/><path d="M530,306.11h2.55l-10,18.36H520Zm6.1-6.49a1.25,1.25,0,0,1-.15,1.17,3.29,3.29,0,0,1-1.17,1.2,2.86,2.86,0,0,1-1.51.5,1,1,0,0,1-1-.48,1.26,1.26,0,0,1,.14-1.19,3.2,3.2,0,0,1,1.16-1.18,2.94,2.94,0,0,1,1.53-.48,1,1,0,0,1,1,.46Z"/><path d="M546.25,298.39h2.55l-14.29,26H532Z"/><path d="M576.51,298.21l-14.27,26h-2.55L562,320a17.71,17.71,0,0,1-5,3.23,13.82,13.82,0,0,1-5.42,1.17,7,7,0,0,1-4.37-1.16,4,4,0,0,1-1.6-3.31,9.85,9.85,0,0,1,1.44-4.83,17.85,17.85,0,0,1,3.87-4.81,19.2,19.2,0,0,1,5.23-3.32,14.54,14.54,0,0,1,5.62-1.22,6.52,6.52,0,0,1,4.18,1.13,3.88,3.88,0,0,1,1.45,3.21l6.52-11.89Zm-18.92,23.24a15,15,0,0,0,4.1-2.59,13.92,13.92,0,0,0,3-3.76,7.48,7.48,0,0,0,1.1-3.76,3.27,3.27,0,0,0-1.25-2.6,5.27,5.27,0,0,0-3.36-.92,11.28,11.28,0,0,0-4.4,1,15.49,15.49,0,0,0-4.13,2.63,13.92,13.92,0,0,0-3.06,3.78A7.34,7.34,0,0,0,548.5,319a3.19,3.19,0,0,0,1.29,2.56,5.46,5.46,0,0,0,3.39.91,11.4,11.4,0,0,0,4.39-1Z"/></svg>