<svg xmlns="http://www.w3.org/2000/svg" width="247.1" height="163.42" viewBox="0 0 247.1 163.42"><defs><style>.a{fill:#68bd45;}</style></defs><title>Asset 1</title><path class="a" d="M128.62,6.43c34.42,0,66.23,24.1,74,56.07l.89,3.66,3.62,1a46.2,46.2,0,0,1,33.55,44.39,44.88,44.88,0,0,1-13.43,32.2A46,46,0,0,1,194.72,157H60.11C30,157,6.43,133.9,6.43,104.42c0-27.56,21.08-50.14,49-52.53l3.8-.32,1.53-3.5C71.57,23.55,99.46,6.43,128.62,6.43m0-6.43C96.87,0,66.56,19,54.92,45.49,24.15,48.11,0,73,0,104.42c0,33.2,26.91,59,60.11,59H194.72c28.93,0,52.38-22.93,52.38-51.86A52.59,52.59,0,0,0,208.86,61C200.1,24.87,164.92,0,128.62,0Z"/><path class="a" d="M78.2,126.48c2.4,0,3.56.28,4.5,1.16C84,128.79,85,131.07,85,137.41S84,146,82.69,147.19c-.94.84-2.09,1.16-4.5,1.16H73.11c-2.4,0-3.53-.31-4.47-1.16-1.31-1.19-2.34-3.47-2.34-9.78s1-8.62,2.34-9.78c.94-.87,2.06-1.16,4.47-1.16Zm-4,4c-1.16,0-1.53.12-1.78.34s-.84,1.16-.84,6.56.5,6.25.84,6.53.62.34,1.78.34h2.84c1.19,0,1.53-.09,1.81-.34s.84-1.12.84-6.53-.5-6.25-.84-6.56-.62-.34-1.81-.34Z"/><path class="a" d="M97.45,143.65V128.21l-3.1,1.06L93.23,126,98.4,124H102v19.61Z"/><path class="a" d="M121.64,119.53c1.81,0,2.68.21,3.39.87,1,.87,1.76,2.59,1.76,7.36s-.8,6.47-1.76,7.36c-.71.63-1.58.87-3.39.87H117.8c-1.81,0-2.66-.24-3.36-.87-1-.89-1.76-2.61-1.76-7.36s.78-6.49,1.76-7.36c.71-.66,1.55-.87,3.36-.87Zm-3,3c-.87,0-1.15.09-1.34.26s-.63.87-.63,4.94.38,4.7.63,4.91.47.26,1.34.26h2.14c.89,0,1.15-.07,1.36-.26s.63-.85.63-4.91-.38-4.7-.63-4.94-.47-.26-1.36-.26Z"/><path class="a" d="M136.66,128V116.31l-2.35.8-.85-2.5,3.92-1.46h2.71V128Z"/><path class="a" d="M150.24,119.58V108.84l-2.16.74-.78-2.3,3.6-1.34h2.49v13.64Z"/><path class="a" d="M164.69,97.36a2.91,2.91,0,0,1,2.2.57c.63.57,1.15,1.68,1.15,4.79s-.52,4.21-1.15,4.79a3,3,0,0,1-2.2.57H162.2a2.94,2.94,0,0,1-2.19-.57c-.64-.58-1.15-1.7-1.15-4.79s.5-4.22,1.15-4.79a2.87,2.87,0,0,1,2.19-.57Zm-1.94,2c-.57,0-.75.06-.87.17s-.41.57-.41,3.21.24,3.06.41,3.2.31.17.87.17h1.39c.58,0,.75,0,.89-.17s.41-.55.41-3.2-.24-3.06-.41-3.21-.31-.17-.89-.17Z"/><path class="a" d="M174.44,87a2.41,2.41,0,0,1,1.82.47c.52.47,1,1.39,1,4s-.43,3.48-1,4a2.47,2.47,0,0,1-1.82.47h-2.07a2.43,2.43,0,0,1-1.81-.47c-.53-.48-1-1.41-1-4s.42-3.5,1-4a2.38,2.38,0,0,1,1.81-.47Zm-1.61,1.63c-.47,0-.62.05-.72.14s-.34.47-.34,2.66.2,2.53.34,2.65.25.14.72.14H174c.48,0,.62,0,.74-.14s.34-.46.34-2.65-.2-2.53-.34-2.66-.25-.14-.74-.14Z"/><path class="a" d="M181.48,77.33a1.76,1.76,0,0,1,1.33.34c.38.34.69,1,.69,2.88s-.31,2.53-.69,2.88a1.8,1.8,0,0,1-1.33.34H180a1.77,1.77,0,0,1-1.32-.34c-.39-.35-.69-1-.69-2.88s.3-2.54.69-2.88a1.73,1.73,0,0,1,1.32-.34Zm-1.17,1.19c-.34,0-.45,0-.53.1s-.25.34-.25,1.94.15,1.84.25,1.93.18.1.53.1h.84c.35,0,.45,0,.53-.1s.25-.33.25-1.93-.15-1.84-.25-1.94-.18-.1-.53-.1Z"/><path class="a" d="M197.26,9.82c-7.09,20.56-32,36.66-52.15,41.46-18.91,4.5-35.65.8-53.14,7.54-33.86,13-36.12,44.84-24.73,63.38.89,1.45,44.92-2.06,66.56-11.33,28.8-12.34,46-35.64,50.45-44.31a3,3,0,0,1,3.17-.74,2.52,2.52,0,0,1,1.9,2.58,93.09,93.09,0,0,1-43.81,59.87c-15.2,9-26.86,13.39-35.38,15.71-1.43.39-1.36,1.45.27,1.44,20.85-.16,68.42,2.89,88.24-22.29C221.56,92.57,209.42,44.42,197.26,9.82Z"/></svg>