<svg xmlns="http://www.w3.org/2000/svg" width="244.11" height="161.44" viewBox="0 0 244.11 161.44"><defs><style>.a{fill:#77bc1f;}</style></defs><title>Asset 1</title><path class="a" d="M208.36,61c-2.28-15.29-7-32.54-13.39-51.64A75.79,75.79,0,0,1,186.19,25,82.37,82.37,0,0,0,56.42,40.1,54.57,54.57,0,0,1,90.09,54.25a56.91,56.91,0,0,0-31.81-9.38,58.28,58.28,0,0,0,0,116.57h134.4A51.42,51.42,0,0,0,208.36,61ZM82.79,143.47a7,7,0,1,1-1-9.91A7,7,0,0,1,82.79,143.47Zm111.83-24.68c-20.34,27.09-63.76,18-91.61,19.26,0,0-4.93.28-9.9,1.1,0,0,1.88-.8,4.28-1.63,19.55-6.76,28.8-8.12,40.69-14.23,22.32-11.44,44.55-36.35,49.06-62.23-8.5,24.9-34.35,46.32-57.88,55C113.14,122,84,127.8,84,127.81l-1.18-.63C63,117.54,62.45,74.63,98.43,60.8c15.78-6.07,30.87-2.73,47.92-6.8,18.19-4.32,39.25-18,47.81-35.79C203.77,46.69,215.3,91.24,194.62,118.79Z"/></svg>