<?xml version="1.0" encoding="utf-8"?>
<!-- Generator: Adobe Illustrator 22.0.1, SVG Export Plug-In . SVG Version: 6.00 Build 0)  -->
<svg version="1.1" id="Layer_1" xmlns="http://www.w3.org/2000/svg" xmlns:xlink="http://www.w3.org/1999/xlink" x="0px" y="0px"
	 viewBox="0 0 471 68.3" style="enable-background:new 0 0 471 68.3;" xml:space="preserve">
<style type="text/css">
	.st0{fill:white;}
</style>
<path class="st0" d="M35.3,43.1c-0.5-0.4-0.9-1-0.9-1.8c0-1.2,1-2.2,2.2-2.2c0.6,0,1.1,0.2,1.4,0.4c2.2,1.8,4.6,2.7,7.5,2.7
	c2.9,0,4.7-1.4,4.7-3.4v-0.1c0-1.9-1.1-2.9-6-4.1c-5.7-1.4-8.9-3-8.9-8v-0.1c0-4.6,3.8-7.7,9.1-7.7c3.4,0,6.1,0.9,8.5,2.5
	c0.5,0.3,1,1,1,1.9c0,1.2-1,2.2-2.2,2.2c-0.5,0-0.8-0.1-1.2-0.3c-2.1-1.3-4-2-6.1-2c-2.7,0-4.3,1.4-4.3,3.2v0.1c0,2.1,1.2,3,6.4,4.2
	c5.6,1.4,8.5,3.4,8.5,7.8v0.1c0,5-3.9,8-9.5,8C41.7,46.5,38.3,45.4,35.3,43.1z M58,28.1c0-1.3,1-2.3,2.3-2.3c1.3,0,2.3,1,2.3,2.3
	v1.3c1.5-2.1,3.6-3.8,6.9-3.8c4.7,0,9.3,3.7,9.3,10.4v0.1c0,6.7-4.6,10.4-9.3,10.4c-3.4,0-5.4-1.7-6.9-3.5v7.1c0,1.3-1,2.3-2.3,2.3
	c-1.3,0-2.3-1-2.3-2.3V28.1z M74.1,36.1L74.1,36.1c0-4-2.6-6.5-5.8-6.5s-5.9,2.6-5.9,6.4v0.1c0,3.8,2.7,6.4,5.9,6.4
	C71.5,42.5,74.1,40.1,74.1,36.1z M81.6,28.1c0-1.3,1-2.3,2.3-2.3s2.3,1,2.3,2.3v2.1c1.1-2.5,3-4.4,5.1-4.4c1.4,0,2.3,1,2.3,2.3
	c0,1.2-0.8,2-1.8,2.2c-3.3,0.6-5.5,3.1-5.5,7.8V44c0,1.3-1,2.3-2.3,2.3c-1.3,0-2.3-1-2.3-2.3V28.1z M95.4,20.6
	c0-1.4,1.1-2.2,2.6-2.2c1.5,0,2.6,0.9,2.6,2.2v0.2c0,1.4-1.1,2.3-2.6,2.3c-1.5,0-2.6-0.9-2.6-2.3V20.6z M95.7,28.1
	c0-1.3,1-2.3,2.3-2.3s2.3,1,2.3,2.3V44c0,1.3-1,2.3-2.3,2.3c-1.3,0-2.3-1-2.3-2.3V28.1z M104.5,28.1c0-1.3,1-2.3,2.3-2.3
	c1.3,0,2.3,1,2.3,2.3v1c1.3-1.9,3.2-3.5,6.3-3.5c4.5,0,7.2,3,7.2,7.7V44c0,1.3-1,2.3-2.3,2.3c-1.3,0-2.3-1-2.3-2.3v-9.3
	c0-3.1-1.6-4.9-4.3-4.9c-2.7,0-4.5,1.9-4.5,5V44c0,1.3-1,2.3-2.3,2.3c-1.3,0-2.3-1-2.3-2.3V28.1z M127.4,50.5
	c-0.8-0.3-1.3-1-1.3-1.8c0-1,0.9-1.9,1.9-1.9c0.3,0,0.6,0.1,0.8,0.2c1.8,1,3.8,1.6,6.2,1.6c4.1,0,6.4-2.1,6.4-6.2v-1.6
	c-1.7,2.2-3.8,3.7-7.1,3.7c-4.7,0-9.1-3.5-9.1-9.4V35c0-5.9,4.5-9.4,9.1-9.4c3.4,0,5.5,1.6,7,3.4v-1c0-1.3,1-2.3,2.3-2.3
	c1.3,0,2.3,1,2.3,2.3V42c0,3.4-0.9,5.9-2.6,7.6c-1.8,1.8-4.6,2.7-8.3,2.7C132.3,52.3,129.8,51.7,127.4,50.5z M141.4,35.1L141.4,35.1
	c0-3.4-2.7-5.6-5.9-5.6s-5.7,2.2-5.7,5.5v0.1c0,3.3,2.6,5.5,5.7,5.5C138.7,40.6,141.4,38.3,141.4,35.1z M149.2,32.9L149.2,32.9
	c0-7.6,5.8-13.9,14-13.9s13.9,6.2,13.9,13.7v0.1c0,7.5-5.8,13.8-14,13.8C154.9,46.6,149.2,40.4,149.2,32.9z M172.2,32.9L172.2,32.9
	c0-5.3-3.8-9.6-9.1-9.6c-5.3,0-9,4.2-9,9.4v0.1c0,5.2,3.8,9.4,9.1,9.4C168.5,42.2,172.2,38,172.2,32.9z M180.3,28.1
	c0-1.3,1-2.3,2.3-2.3c1.3,0,2.3,1,2.3,2.3v1c1.3-1.9,3.2-3.5,6.3-3.5c4.5,0,7.2,3,7.2,7.7V44c0,1.3-1,2.3-2.3,2.3
	c-1.3,0-2.3-1-2.3-2.3v-9.3c0-3.1-1.6-4.9-4.3-4.9c-2.7,0-4.5,1.9-4.5,5V44c0,1.3-1,2.3-2.3,2.3c-1.3,0-2.3-1-2.3-2.3V28.1z
	 M211.3,46.6c-5.8,0-10.3-4.2-10.3-10.4v-0.1c0-5.8,4.1-10.5,9.8-10.5c6.4,0,9.6,5.3,9.6,9.9c0,1.3-1,2.2-2.2,2.2h-12.6
	c0.5,3.3,2.8,5.1,5.8,5.1c1.9,0,3.5-0.7,4.8-1.8c0.3-0.3,0.6-0.4,1.2-0.4c1,0,1.8,0.8,1.8,1.9c0,0.6-0.3,1.1-0.6,1.4
	C216.7,45.5,214.4,46.6,211.3,46.6z M215.8,34.6c-0.3-3-2.1-5.3-5.1-5.3c-2.8,0-4.8,2.2-5.2,5.3H215.8z M308.7,67.3H40.3
	c-18.3,0-33.1-14.9-33.1-33.1c0-18.3,14.9-33.1,33.1-33.1h268.4c18.3,0,33.1,14.9,33.1,33.1C341.8,52.4,327,67.3,308.7,67.3z
	 M40.3,2.7C23,2.7,8.9,16.8,8.9,34.2S23,65.6,40.3,65.6h268.4c17.4,0,31.5-14.1,31.5-31.5S326.1,2.7,308.7,2.7H40.3z"/>
<g>
	<g>
		<g>
			<g>
				<g>
					<path class="st0" d="M396.9,28.9h-3.1v-3h3.1V28.9z M396.9,45.7h-3.1V31.1h3.1V45.7z"/>
				</g>
				<g>
					<g>
						<path class="st0" d="M414.6,31.1l-4.3,12.7c-0.7,2.1-2,2.3-3.1,2.3c-1.6,0-2.5-0.7-3.1-2.3l-3.6-10.5h-1.4v-2.2h3.7l3.7,11.8
							c0.2,0.5,0.3,0.8,0.7,0.8c0.5,0,0.6-0.3,0.7-0.8l3.7-11.8H414.6z"/>
						<path class="st0" d="M422.1,31.1c4,0,6.7,2.6,6.7,6.4v2.3c0,3.7-2.8,6.4-6.7,6.4c-4,0-6.7-2.6-6.7-6.4v-2.3
							C415.4,33.7,418.2,31.1,422.1,31.1 M422.1,43.7c2.4,0,3.8-1.8,3.8-3.9v-2.3c0-2.1-1.5-3.9-3.8-3.9c-2.5,0-3.8,1.8-3.8,3.9v2.3
							C418.3,41.9,419.7,43.7,422.1,43.7"/>
						<path class="st0" d="M453.3,31.5c-1.5-0.4-3.9-0.7-5.7-0.7c-4,0-6.5,2.5-6.5,6.6v1.6c0,4.1,2.5,6.7,6.5,6.7c0.1,0,0.8,0,1.1,0
							v-2.5c-0.1,0-1,0-1.1,0c-2.2,0-3.7-1.7-3.7-4.2v-1.6c0-2.5,1.5-4.2,3.7-4.2c1,0,2.5,0.1,3,0.2l0.2,0l0,12.2h3.1V32
							C453.8,31.8,453.8,31.7,453.3,31.5"/>
						<rect x="456.8" y="25.9" class="st0" width="3.1" height="19.8"/>
						<path class="st0" d="M383.2,25.9h-5.4v19.8h3.2v-17h1.9c0.4,0,0.7,0,1.1,0c2.8,0.1,4.1,1.1,4.1,3.3c0,0.1,0,0.1,0,0.2
							c0,2-1.1,3.3-4.1,3.3c-0.3,0-0.6,0-0.9,0c0,0.8,0,2.2,0,2.7c0.3,0,0.6,0,0.9,0c4.3,0,7.4-1.7,7.4-6c0-0.1,0-0.2,0-0.3
							C391.4,27.6,388,25.9,383.2,25.9"/>
						<path class="st0" d="M434.3,27.9v3.2h5v2.4h-5V42c0,1.3,0.9,1.4,2.1,1.4h2.9v2.4h-3.9c-2.9,0-4.2-1.2-4.2-3.8V28.3L434.3,27.9
							z"/>
					</g>
				</g>
			</g>
			<path class="st0" d="M461.2,44.4c0-0.7,0.6-1.3,1.3-1.3c0.7,0,1.3,0.6,1.3,1.3c0,0.7-0.6,1.3-1.3,1.3
				C461.8,45.7,461.2,45.2,461.2,44.4z M462.5,43.3c-0.6,0-1.1,0.5-1.1,1.1s0.5,1.1,1.1,1.1c0.6,0,1.1-0.5,1.1-1.1
				S463.1,43.3,462.5,43.3z M462.2,45.1h-0.1v-1.4h0.4c0.4,0,0.5,0.2,0.5,0.4c0,0.2-0.1,0.3-0.3,0.4l0.4,0.6h-0.2l-0.3-0.5l-0.3,0
				V45.1z M462.5,44.5c0.2,0,0.4-0.1,0.4-0.3c0-0.2-0.1-0.3-0.4-0.3h-0.2v0.6L462.5,44.5z"/>
		</g>
	</g>
	<g>
		<path class="st0" d="M356.7,45.7V35.6h1.1v3.9c0.6-0.8,1.5-1.3,2.5-1.3c1.9,0,3.3,1.5,3.3,3.8c0,2.4-1.3,3.8-3.3,3.8
			c-1,0-1.9-0.5-2.5-1.3v1.1H356.7z M360.1,44.9c1.5,0,2.3-1.2,2.3-2.8c0-1.6-0.9-2.8-2.3-2.8c-0.9,0-1.8,0.5-2.2,1.2v3.3
			C358.3,44.4,359.2,44.9,360.1,44.9z"/>
		<path class="st0" d="M365.2,47.6c0.2,0.1,0.4,0.1,0.6,0.1c0.5,0,0.8-0.2,1.1-0.8l0.5-1.1l-3.1-7.4h1.2l2.4,6l2.4-6h1.2l-3.7,8.8
			c-0.4,1.1-1.2,1.5-2.2,1.5c-0.2,0-0.6,0-0.8-0.1L365.2,47.6z"/>
	</g>
</g>
<g>
	<path class="st0" d="M242,27.9h-5.9c-0.6,0-1.1-0.5-1.1-1.1s0.5-1.1,1.1-1.1h14.2c0.6,0,1.1,0.5,1.1,1.1s-0.5,1.1-1.1,1.1h-5.9
		v17.3c0,0.6-0.5,1.2-1.2,1.2c-0.6,0-1.2-0.5-1.2-1.2V27.9z"/>
	<path class="st0" d="M252.9,36L252.9,36c0-5.7,4.2-10.6,10.5-10.6c6.2,0,10.4,4.9,10.4,10.5V36c0,5.6-4.2,10.6-10.5,10.6
		S252.9,41.7,252.9,36z M271.4,36L271.4,36c0-4.7-3.4-8.5-8.1-8.5c-4.7,0-8,3.7-8,8.4V36c0,4.6,3.4,8.4,8.1,8.4
		C268.1,44.4,271.4,40.7,271.4,36z"/>
	<path class="st0" d="M278,37.6V26.8c0-0.6,0.5-1.2,1.1-1.2c0.6,0,1.2,0.5,1.2,1.2v10.7c0,4.4,2.4,6.9,6.3,6.9
		c3.8,0,6.2-2.3,6.2-6.7V26.8c0-0.6,0.5-1.2,1.2-1.2c0.6,0,1.1,0.5,1.1,1.2v10.7c0,6-3.4,9.1-8.5,9.1C281.5,46.5,278,43.4,278,37.6z
		"/>
	<path class="st0" d="M300.2,26.9c0-0.6,0.5-1.2,1.1-1.2h7.7c2.5,0,4.5,0.8,5.8,2c1,1,1.6,2.4,1.6,4v0.1c0,3.4-2.3,5.3-5.5,5.9
		l5.1,6.5c0.2,0.3,0.4,0.5,0.4,0.8c0,0.6-0.6,1.1-1.2,1.1c-0.5,0-0.8-0.3-1.1-0.6l-5.8-7.5h-5.9v6.9c0,0.6-0.5,1.2-1.2,1.2
		c-0.6,0-1.1-0.5-1.1-1.2V26.9z M308.8,36.2c3.1,0,5.3-1.6,5.3-4.2v-0.1c0-2.5-1.9-4-5.2-4h-6.3v8.3H308.8z"/>
</g>
</svg>
