<svg xmlns="http://www.w3.org/2000/svg" viewBox="0 0 569.28 72.78"><g id="Layer_2" data-name="Layer 2"><g id="Dieline_-_DO_NOT_PRINT" data-name="Dieline - DO NOT PRINT"><path d="M396.55,0H36.39a36.39,36.39,0,0,0,0,72.78H396.55a36.39,36.39,0,0,0,0-72.78Zm33.63,36.39A33.67,33.67,0,0,1,396.55,70H36.39a33.63,33.63,0,0,1,0-67.26H396.55A33.66,33.66,0,0,1,430.18,36.39Z" fill="#01b7a8"/><path d="M42.9,32.58C37.33,31.26,36,30.27,36,28V28c0-1.9,1.73-3.43,4.7-3.43a12,12,0,0,1,6.66,2.19,2.41,2.41,0,0,0,1.32.37,2.36,2.36,0,0,0,2.39-2.36,2.28,2.28,0,0,0-1.11-2A16,16,0,0,0,40.8,20c-5.74,0-9.88,3.42-9.88,8.38v.08c0,5.33,3.47,7.15,9.63,8.64,5.37,1.24,6.53,2.35,6.53,4.42v.08c0,2.15-2,3.63-5.13,3.63a12.51,12.51,0,0,1-8.09-3A2.4,2.4,0,1,0,31,46.13a18,18,0,0,0,10.86,3.64c6.07,0,10.33-3.23,10.33-8.64v-.08C52.16,36.26,49,34.07,42.9,32.58Z" fill="#01b7a8"/><path d="M67.94,27.09a8.73,8.73,0,0,0-7.44,4.09V29.81A2.5,2.5,0,0,0,58,27.29a2.48,2.48,0,0,0-2.48,2.52V53.69a2.5,2.5,0,0,0,5,0V46a8.92,8.92,0,0,0,7.44,3.84c5.16,0,10.12-4.09,10.12-11.32v-.08C78.06,31.14,73.06,27.09,67.94,27.09Zm5,11.4c0,4.3-2.81,7-6.24,7s-6.36-2.81-6.36-7v-.08c0-4.17,3-7,6.36-7s6.24,2.76,6.24,7Z" fill="#01b7a8"/><path d="M91.65,27.25c-2.19,0-4.34,2.07-5.5,4.8V29.81a2.5,2.5,0,0,0-2.52-2.52,2.48,2.48,0,0,0-2.48,2.52V47.08a2.46,2.46,0,0,0,2.48,2.48,2.49,2.49,0,0,0,2.52-2.48V40.64c0-5.17,2.44-7.89,6-8.51a2.35,2.35,0,0,0,2-2.4A2.32,2.32,0,0,0,91.65,27.25Z" fill="#01b7a8"/><path d="M98.92,19.24a2.56,2.56,0,0,0-2.85,2.44v.25a2.88,2.88,0,0,0,5.7,0v-.25A2.56,2.56,0,0,0,98.92,19.24Z" fill="#01b7a8"/><path d="M98.92,27.29a2.47,2.47,0,0,0-2.48,2.52V47.08a2.5,2.5,0,0,0,5,0V29.81A2.51,2.51,0,0,0,98.92,27.29Z" fill="#01b7a8"/><path d="M117.71,27.09a7.87,7.87,0,0,0-6.81,3.8V29.81a2.51,2.51,0,0,0-2.52-2.52,2.47,2.47,0,0,0-2.48,2.52V47.08a2.5,2.5,0,0,0,5,0V37c0-3.38,2-5.41,4.91-5.41s4.67,1.94,4.67,5.33V47.08A2.46,2.46,0,0,0,123,49.56a2.44,2.44,0,0,0,2.48-2.48V35.43C125.48,30.39,122.63,27.09,117.71,27.09Z" fill="#01b7a8"/><path d="M148.36,27.29a2.49,2.49,0,0,0-2.48,2.48v1a9.38,9.38,0,0,0-7.64-3.72,9.83,9.83,0,0,0-9.91,10.24v.09a9.8,9.8,0,0,0,9.91,10.2,9.1,9.1,0,0,0,7.68-4v1.7c0,4.37-2.43,6.69-6.89,6.69a13.34,13.34,0,0,1-6.7-1.74,2,2,0,0,0-.9-.2,2.11,2.11,0,0,0-2.11,2.06,2,2,0,0,0,1.4,2,18.75,18.75,0,0,0,8.43,1.95c3.92,0,7-.95,9-2.94,1.82-1.81,2.77-4.54,2.77-8.22V29.81A2.5,2.5,0,0,0,148.36,27.29ZM146,37.38c0,3.55-2.94,6-6.41,6a5.93,5.93,0,0,1-6.19-6v-.09a5.89,5.89,0,0,1,6.19-6,6.1,6.1,0,0,1,6.41,6Z" fill="#01b7a8"/><path d="M169.55,19.94a14.82,14.82,0,0,0-15.16,15V35a15.12,15.12,0,0,0,30.24-.08v-.09A14.68,14.68,0,0,0,169.55,19.94Zm9.75,15c0,5.62-4,10.16-9.75,10.16s-9.83-4.63-9.83-10.24v-.09c0-5.61,4-10.2,9.75-10.2s9.83,4.67,9.83,10.29Z" fill="#01b7a8"/><path d="M200,27.09a7.89,7.89,0,0,0-6.81,3.8V29.81a2.51,2.51,0,0,0-2.52-2.52,2.48,2.48,0,0,0-2.48,2.52V47.08a2.5,2.5,0,0,0,5,0V37c0-3.38,2-5.41,4.91-5.41s4.67,1.94,4.67,5.33V47.08a2.47,2.47,0,0,0,2.52,2.48,2.43,2.43,0,0,0,2.48-2.48V35.43C207.72,30.39,204.87,27.09,200,27.09Z" fill="#01b7a8"/><path d="M221.15,27.09c-6.24,0-10.66,5.12-10.66,11.36v.08a10.88,10.88,0,0,0,11.19,11.32A11.22,11.22,0,0,0,229.53,47a2.19,2.19,0,0,0,.66-1.53,2,2,0,0,0-2-2,1.85,1.85,0,0,0-1.28.45,7.84,7.84,0,0,1-5.16,1.9,6.08,6.08,0,0,1-6.28-5.53h13.67a2.34,2.34,0,0,0,2.35-2.4C231.51,32.79,228.09,27.09,221.15,27.09Zm-5.71,9.83c.46-3.39,2.61-5.74,5.66-5.74,3.31,0,5.21,2.52,5.54,5.74Z" fill="#01b7a8"/><path d="M256.88,20.44H248A2.52,2.52,0,0,0,245.47,23V47a2.55,2.55,0,0,0,5.09,0v-7h5.74c6.36,0,11.56-3.39,11.56-9.87V30.1C267.86,24.28,263.65,20.44,256.88,20.44Zm5.82,9.87c0,3-2.39,5.16-6.24,5.16h-5.9V25.07h5.9c3.8,0,6.24,1.77,6.24,5.16Z" fill="#01b7a8"/><path d="M273.19,19a2.47,2.47,0,0,0-2.48,2.48V47.08a2.5,2.5,0,0,0,5,0V21.47A2.49,2.49,0,0,0,273.19,19Z" fill="#01b7a8"/><path d="M288.85,27.25a18.76,18.76,0,0,0-7,1.28,2.19,2.19,0,0,0-1.37,2,2.08,2.08,0,0,0,2.11,2.06,2.85,2.85,0,0,0,.78-.12,13,13,0,0,1,4.84-.87c3.51,0,5.41,1.65,5.41,4.75v.54a18.13,18.13,0,0,0-5.87-.91c-5.33,0-9,2.31-9,7v.09c0,4.37,3.63,6.73,7.72,6.73a8.89,8.89,0,0,0,7.11-3.18v.82A2.26,2.26,0,0,0,296,49.56a2.38,2.38,0,0,0,2.43-2.4V36.42c0-2.85-.74-5.16-2.35-6.73S292.11,27.25,288.85,27.25Zm4.83,14.26c0,2.76-2.52,4.66-5.82,4.66-2.4,0-4.26-1.19-4.26-3.3v-.08c0-2.28,1.9-3.64,5.12-3.64a13.74,13.74,0,0,1,5,.87Z" fill="#01b7a8"/><path d="M312.11,31.84a2.15,2.15,0,1,0,0-4.3h-3.93V23.83a2.5,2.5,0,0,0-5,0v3.71h-.82a2.15,2.15,0,0,0,0,4.3h.82V43.32c0,4.79,2.6,6.41,6.28,6.41a10,10,0,0,0,3.43-.58,2.16,2.16,0,0,0,1.32-1.94,2.11,2.11,0,0,0-2.1-2.07c-.17,0-.67.12-1.24.12-1.7,0-2.69-.78-2.69-2.72V31.84Z" fill="#01b7a8"/><path d="M327,27.71h-3.89v-1.2c0-2.27,1-3.3,2.89-3.3a8.45,8.45,0,0,1,1,.08,2.08,2.08,0,0,0,.37-4.13,13.81,13.81,0,0,0-2.52-.21A6.61,6.61,0,0,0,320,20.69a7.38,7.38,0,0,0-1.77,5.37v1.61h-.87a2.11,2.11,0,0,0-2.11,2.1,2.08,2.08,0,0,0,2.11,2.07h.87V47.08a2.5,2.5,0,0,0,5,0V31.84H327a2.08,2.08,0,0,0,2.1-2.07A2.05,2.05,0,0,0,327,27.71Z" fill="#01b7a8"/><path d="M340.57,27.09a11.4,11.4,0,0,0-11.65,11.4v.08a11.28,11.28,0,0,0,11.56,11.28,11.4,11.4,0,0,0,11.69-11.36v-.08A11.29,11.29,0,0,0,340.57,27.09Zm6.61,11.48c0,3.76-2.57,6.9-6.61,6.9a6.73,6.73,0,0,1-6.66-7v-.08c0-3.8,2.57-6.94,6.57-6.94a6.74,6.74,0,0,1,6.7,7Z" fill="#01b7a8"/><path d="M365.68,27.25c-2.19,0-4.34,2.07-5.49,4.8V29.81a2.51,2.51,0,0,0-2.52-2.52,2.47,2.47,0,0,0-2.48,2.52V47.08a2.45,2.45,0,0,0,2.48,2.48,2.5,2.5,0,0,0,2.52-2.48V40.64c0-5.17,2.43-7.89,6-8.51a2.36,2.36,0,0,0,2-2.4A2.33,2.33,0,0,0,365.68,27.25Z" fill="#01b7a8"/><path d="M395.71,27.09a8.78,8.78,0,0,0-7.35,3.84,6.93,6.93,0,0,0-6.53-3.84c-3.34,0-5.24,1.82-6.65,3.76v-1a2.5,2.5,0,0,0-2.52-2.52,2.48,2.48,0,0,0-2.48,2.52V47.08a2.5,2.5,0,0,0,5,0V37c0-3.34,1.9-5.41,4.67-5.41s4.42,1.9,4.42,5.29V47.08a2.5,2.5,0,0,0,5,0V37c0-3.51,1.94-5.41,4.67-5.41s4.42,1.86,4.42,5.33V47.08a2.46,2.46,0,0,0,2.52,2.48,2.43,2.43,0,0,0,2.47-2.48V35.43C403.35,30.1,400.46,27.09,395.71,27.09Z" fill="#01b7a8"/><rect x="490.94" y="27.19" width="3.42" height="3.31" fill="#01b7a8"/><rect x="490.94" y="32.92" width="3.43" height="16.44" fill="#01b7a8"/><path d="M506.69,46.12c-.17.56-.27.9-.79.9s-.61-.33-.78-.9L501,32.92h-4.1v2.42h1.57l4,11.79a3.31,3.31,0,0,0,3.44,2.61c1.19,0,2.65-.29,3.47-2.62l4.77-14.2h-3.27Z" fill="#01b7a8"/><path d="M522.59,32.92c-4.44,0-7.54,2.93-7.54,7.12v2.59c0,4.18,3.1,7.11,7.54,7.11s7.53-2.93,7.53-7.11V40C530.12,35.85,527,32.92,522.59,32.92Zm4.29,9.71A4.2,4.2,0,0,1,522.59,47a4.15,4.15,0,0,1-4.3-4.41V40a4.11,4.11,0,0,1,4.3-4.41A4.19,4.19,0,0,1,526.88,40Z" fill="#01b7a8"/><path d="M557.48,33.45a29.07,29.07,0,0,0-6.35-.76c-4.5,0-7.29,2.84-7.29,7.41v1.81c0,4.57,2.79,7.45,7.29,7.45.11,0,.91,0,1.27,0V46.57l-1.27,0c-2.44,0-4.09-1.88-4.09-4.69V40.1c0-2.8,1.65-4.69,4.09-4.69a24.3,24.3,0,0,1,3.36.21l.19,0v13.7h3.43V34C558.11,33.73,558.11,33.61,557.48,33.45Z" fill="#01b7a8"/><rect x="561.41" y="27.19" width="3.43" height="22.18" fill="#01b7a8"/><path d="M479,27.19h-6V49.36h3.56V30.27h2.09c.45,0,.82,0,1.2,0,3.09.06,4.61,1.28,4.61,3.69v.26c0,2.22-1.22,3.69-4.59,3.69h-1c0,.85,0,2.43,0,3,.35,0,.67,0,1,0,4.83,0,8.25-1.9,8.25-6.67,0-.09,0-.19,0-.29C488.12,29.05,484.4,27.19,479,27.19Z" fill="#01b7a8"/><path d="M536.2,45.16V35.58h5.58V32.92H536.2V29.38l-3.47.48v15.3c0,2.91,1.45,4.2,4.68,4.2h4.38V46.7h-3.24C537.16,46.7,536.2,46.66,536.2,45.16Z" fill="#01b7a8"/><path d="M567.84,46.48a1.44,1.44,0,1,0,1.44,1.45A1.44,1.44,0,0,0,567.84,46.48Zm0,2.67a1.23,1.23,0,1,1,1.23-1.23A1.23,1.23,0,0,1,567.84,49.15Z" fill="#01b7a8"/><path d="M568.39,47.6c0-.29-.2-.47-.59-.47h-.44v1.56h.17v-.58l.37,0,.37.61h.2l-.4-.65A.46.46,0,0,0,568.39,47.6Zm-.58.35h-.29v-.68h.27c.29,0,.43.11.43.33S568.07,47.94,567.81,48Z" fill="#01b7a8"/><path d="M453.29,40.71a3.49,3.49,0,0,0-2.84,1.48V37.71h-1.31V49.34h1.31V48.08a3.51,3.51,0,0,0,2.84,1.47c2.19,0,3.75-1.67,3.75-4.41S455.48,40.71,453.29,40.71ZM453,48.38a3.09,3.09,0,0,1-2.51-1.32V43.24A3.1,3.1,0,0,1,453,41.88c1.7,0,2.72,1.39,2.72,3.26S454.66,48.38,453,48.38Z" fill="#01b7a8"/><path d="M462.12,47.82l-2.81-6.9H457.9l3.53,8.51-.56,1.27a1.21,1.21,0,0,1-1.26.89,1.91,1.91,0,0,1-.71-.14l-.21,1.19a4.19,4.19,0,0,0,.95.12,2.51,2.51,0,0,0,2.48-1.71l4.22-10.13h-1.43Z" fill="#01b7a8"/></g></g></svg>