<svg xmlns="http://www.w3.org/2000/svg" width="49.15" height="59.66" viewBox="0 0 49.15 59.66"><defs><style>.a{fill:#fff;}</style></defs><title>Asset 1</title><path class="a" d="M32.53,51.17c-1.87-.56-2.67-.91-2.67-1.82v0c0-.67.65-1.21,1.55-1.21a5.72,5.72,0,0,1,3.32,1.37l1.45-2.3a7,7,0,0,0-4.73-1.76A4.13,4.13,0,0,0,27,49.59v0c0,1.84,1.69,3.42,4.22,4.24,2,.64,2.58,1,2.58,1.78v0c0,.81-.91,1.29-1.85,1.29a5.65,5.65,0,0,1-3.8-1.68l-1.47,2.32a7.73,7.73,0,0,0,5.22,2,4.5,4.5,0,0,0,4.68-4.29v0C36.57,53.3,35.1,51.93,32.53,51.17Z"/><polygon class="a" points="41.91 57.05 41.91 53.76 47.32 53.76 47.32 51.31 41.91 51.31 41.91 48.02 48.2 48.02 48.2 45.57 39.12 45.57 39.12 59.5 48.2 59.5 48.2 57.05 41.91 57.05 41.91 57.05"/><polygon class="a" points="8.39 45.57 8.39 54.35 2.82 45.57 0.01 45.57 0.01 59.5 2.79 59.5 2.79 50.32 8.61 59.5 11.17 59.5 11.17 45.57 8.39 45.57"/><polygon class="a" points="22.71 45.57 19.62 50.62 16.52 45.57 13.18 45.57 18.23 53.47 18.23 59.5 21.05 59.5 21.05 53.41 26.08 45.57 22.71 45.57"/><path class="a" d="M0,25.55H1v8.08H6.1v.94H0Z"/><path class="a" d="M8.76,25.55h1v9h-1Z"/><path class="a" d="M12.52,33.26l.64-.75a4.29,4.29,0,0,0,3.09,1.28c1.21,0,2-.65,2-1.54v0c0-.84-.45-1.32-2.34-1.72-2.08-.45-3-1.12-3-2.6v0c0-1.41,1.24-2.46,3-2.46A4.71,4.71,0,0,1,19,26.53l-.59.79a3.94,3.94,0,0,0-2.6-1c-1.18,0-1.93.64-1.93,1.45v0c0,.85.47,1.33,2.45,1.75s2.94,1.17,2.94,2.55v0c0,1.55-1.29,2.55-3.08,2.55A5.33,5.33,0,0,1,12.52,33.26Z"/><path class="a" d="M24.25,26.49h-3v-.94h7.09v.94h-3v8.08h-1Z"/><path class="a" d="M30.91,25.55h6.52v.93h-5.5v3.08h4.92v.93H31.93v3.15H37.5v.93H30.91Z"/><path class="a" d="M40.24,25.55h3.14A4.5,4.5,0,0,1,48.17,30v0a4.51,4.51,0,0,1-4.79,4.51H40.24Zm1,.94v7.14h2.11a3.49,3.49,0,0,0,3.73-3.54v0a3.51,3.51,0,0,0-3.73-3.57Z"/><rect class="a" x="0.01" y="19.82" width="48.18" height="0.46"/><rect class="a" x="0.01" y="39.83" width="48.18" height="0.46"/><path class="a" d="M.09,0H5.82c3.35,0,5.37,2,5.37,4.85v0c0,3.25-2.52,4.94-5.67,4.94H3.17V14H.09ZM5.62,7.08A2.18,2.18,0,0,0,8.07,5v0c0-1.38-1-2.12-2.51-2.12H3.17V7.08Z"/><path class="a" d="M11.21,0h3.41l3.67,9.89L22,0h3.33L19.61,14.14H16.88Z"/><path class="a" d="M30.37,2.85H26.1V0H37.73V2.85H33.45V14H30.37Z"/><path class="a" d="M39.07,0h3.08V11.23h7V14H39.07Z"/></svg>