<?xml version="1.0" encoding="utf-8"?>
<!-- Generator: Adobe Illustrator 21.1.0, SVG Export Plug-In . SVG Version: 6.00 Build 0)  -->
<svg version="1.1" id="Layer_1" xmlns="http://www.w3.org/2000/svg" xmlns:xlink="http://www.w3.org/1999/xlink" x="0px" y="0px"
	 viewBox="0 0 342.8 48.5" style="enable-background:new 0 0 342.8 48.5;" xml:space="preserve">
<style type="text/css">
	.st0{fill:url(#SVGID_1_);}
	.st1{opacity:0.5;}
	.st2{fill:#FFFFFF;}
</style>
<linearGradient id="SVGID_1_" gradientUnits="userSpaceOnUse" x1="168.3044" y1="556.1635" x2="93.3051" y2="426.2529" gradientTransform="matrix(1 0 0 1 0 -467)">
	<stop  offset="0" style="stop-color:#99C479"/>
	<stop  offset="0.11" style="stop-color:#7DBC85"/>
	<stop  offset="0.27" style="stop-color:#5DB392"/>
	<stop  offset="0.4" style="stop-color:#4AAE9A"/>
	<stop  offset="0.49" style="stop-color:#43AC9D"/>
	<stop  offset="1" style="stop-color:#33348C"/>
</linearGradient>
<path class="st0" d="M20.4,30.1c-0.6-0.5-0.8-1.3-0.3-2c0.3-0.4,0.7-0.6,1.2-0.6c0.3,0,0.6,0.1,0.9,0.3c1.3,1.1,3.1,1.8,4.8,1.8
	c1.9,0,3-0.9,3-2.2l0,0c0-1.2-0.7-1.9-3.9-2.6c-3.7-0.9-5.7-2-5.7-5.1l0,0c0-3,2.5-5,5.9-5c2-0.1,3.9,0.4,5.5,1.5
	c0.4,0.3,0.7,0.7,0.7,1.2c0,0.8-0.6,1.4-1.4,1.4l0,0c-0.3,0-0.6-0.1-0.8-0.2c-1.2-0.8-2.6-1.3-4-1.3c-1.8,0-2.8,0.9-2.8,2l0,0
	c0,1.3,0.8,1.9,4.1,2.7c3.6,0.9,5.5,2.2,5.5,5l0,0c0,3.2-2.5,5.1-6.1,5.1C24.5,32.1,22.2,31.4,20.4,30.1z M35,20.3
	c0-0.8,0.6-1.5,1.4-1.5l0,0c0.8,0,1.5,0.7,1.5,1.5l0,0v0.8c1-1.5,2.6-2.4,4.4-2.4c3,0,6,2.4,6,6.7l0,0c0,4.3-3,6.7-6,6.7
	c-1.8,0-3.4-0.8-4.4-2.3v4.6c0,0.8-0.7,1.5-1.5,1.5S35,35.3,35,34.5V20.3z M45.4,25.5L45.4,25.5c0.2-2.1-1.4-4-3.5-4.2
	c-0.1,0-0.1,0-0.2,0c-2.2,0.1-3.9,1.9-3.8,4v0.1l0,0c-0.2,2.2,1.5,4,3.6,4.2c0.1,0,0.1,0,0.2,0C43.7,29.7,45.4,28.1,45.4,25.5
	L45.4,25.5z M50.2,20.3c0-0.8,0.6-1.5,1.4-1.5l0,0c0.8,0,1.5,0.7,1.5,1.5l0,0v1.3c0.7-1.6,2-2.9,3.3-2.9c0.8-0.1,1.4,0.5,1.5,1.3
	c0,0.1,0,0.1,0,0.2c0,0.7-0.5,1.3-1.2,1.4c-2.1,0.4-3.6,2-3.6,5.1v3.8c0,0.8-0.7,1.5-1.5,1.5s-1.5-0.6-1.5-1.4l0,0L50.2,20.3z
	 M59.1,15.5c0.2-0.9,1.1-1.6,2-1.4c0.7,0.1,1.3,0.7,1.4,1.4v0.1c-0.1,0.9-1,1.6-1.9,1.5c-0.8-0.1-1.4-0.7-1.5-1.5V15.5z M59.3,20.3
	c0-0.8,0.6-1.5,1.4-1.5l0,0c0.8,0,1.5,0.7,1.5,1.5l0,0v10.3c0,0.8-0.7,1.5-1.5,1.5s-1.5-0.7-1.5-1.5L59.3,20.3z M65,20.3
	c0-0.8,0.6-1.5,1.4-1.5l0,0c0.8,0,1.5,0.7,1.5,1.5l0,0V21c0.9-1.4,2.4-2.3,4.1-2.3c2.9,0,4.6,2,4.6,5v6.9c0,0.8-0.6,1.5-1.4,1.5
	c0,0,0,0-0.1,0c-0.8,0-1.5-0.7-1.5-1.5l0,0v-6c0-2-1-3.2-2.8-3.2S68,22.7,68,24.7v6c0,0.8-0.7,1.5-1.5,1.5S65,31.5,65,30.7l0,0V20.3
	z M79.8,34.8c-0.5-0.2-0.8-0.6-0.8-1.2c0-0.7,0.6-1.2,1.3-1.2c0.2,0,0.4,0,0.5,0.1c1.2,0.7,2.6,1,4,1c2.7,0,4.1-1.4,4.1-4v-1
	c-1,1.5-2.7,2.4-4.6,2.4c-3.2,0-5.9-2.5-5.9-5.8c0-0.1,0-0.2,0-0.3l0,0c-0.1-3.2,2.4-6,5.6-6.1c0.1,0,0.2,0,0.3,0
	c1.8,0,3.5,0.8,4.6,2.2v-0.6c0-0.8,0.7-1.5,1.5-1.5s1.5,0.7,1.5,1.5v9c0.1,1.8-0.5,3.5-1.7,4.9c-1.5,1.3-3.4,1.9-5.3,1.8
	C83.1,36,81.3,35.6,79.8,34.8z M88.8,24.8L88.8,24.8c0-2-1.7-3.6-3.7-3.6H85c-1.9-0.1-3.6,1.4-3.7,3.3c0,0.1,0,0.2,0,0.2l0,0
	c0,2,1.5,3.6,3.5,3.6c0.1,0,0.1,0,0.2,0c2,0.1,3.7-1.4,3.8-3.4C88.8,24.9,88.8,24.9,88.8,24.8L88.8,24.8z M93.8,23.4L93.8,23.4
	c0-5,4-9,9-9s9,4,9,9l0,0c0,5-4,9-9,9S93.8,28.4,93.8,23.4z M108.7,23.4L108.7,23.4c0.1-3.3-2.4-6-5.7-6.1c-0.1,0-0.1,0-0.2,0
	c-3.2,0-5.8,2.6-5.8,5.8c0,0.1,0,0.2,0,0.2l0,0c-0.1,3.2,2.4,6,5.7,6.1c0.1,0,0.1,0,0.2,0c3.2,0,5.8-2.6,5.8-5.8
	C108.7,23.6,108.7,23.5,108.7,23.4z M114,20.3c0-0.8,0.6-1.5,1.4-1.5l0,0c0.8,0,1.5,0.7,1.5,1.5l0,0V21c0.9-1.4,2.4-2.3,4.1-2.3
	c2.9,0,4.6,2,4.6,5v6.9c0,0.8-0.6,1.5-1.4,1.5c0,0,0,0-0.1,0c-0.8,0-1.5-0.6-1.5-1.4l0,0v-6c0-2-1-3.2-2.8-3.2s-2.9,1.2-2.9,3.2v6
	c0,0.8-0.7,1.5-1.5,1.5s-1.5-0.7-1.5-1.5L114,20.3z M134,32.3c-3.6,0.1-6.6-2.7-6.7-6.3c0-0.1,0-0.3,0-0.4l0,0
	c-0.2-3.6,2.6-6.6,6.1-6.8c0.1,0,0.2,0,0.2,0c3.4,0,6.2,2.7,6.2,6.1c0,0.1,0,0.2,0,0.3c0,0.8-0.6,1.4-1.3,1.4c0,0,0,0-0.1,0h-8.1
	c0.2,1.9,1.8,3.4,3.7,3.3c1.1,0,2.2-0.4,3.1-1.1c0.2-0.2,0.5-0.3,0.8-0.3c0.6,0,1.2,0.5,1.2,1.2c0,0,0,0,0,0.1
	c0,0.3-0.1,0.7-0.4,0.9C137.4,31.8,135.7,32.4,134,32.3L134,32.3z M137,24.6c-0.2-1.9-1.3-3.4-3.3-3.4s-3.1,1.4-3.4,3.4H137z
	 M148.2,16.3c0-0.8,0.7-1.5,1.5-1.5c0,0,0,0,0.1,0h5.3c4,0,6.5,2.3,6.5,5.7l0,0c0,3.9-3.1,5.9-6.9,5.9h-3.4v4.2
	c-0.1,0.8-0.8,1.4-1.7,1.3c-0.7-0.1-1.2-0.6-1.3-1.3L148.2,16.3z M154.7,23.7c2.3,0,3.7-1.3,3.7-3.1l0,0c0-2-1.4-3.1-3.7-3.1h-3.5
	v6.2H154.7z M163.1,15.4c0-0.8,0.6-1.5,1.4-1.5l0,0c0.8,0,1.5,0.7,1.5,1.5l0,0v15.2c0,0.8-0.7,1.5-1.5,1.5s-1.5-0.7-1.5-1.5
	L163.1,15.4z M167.9,28.3L167.9,28.3c0-2.8,2.2-4.2,5.4-4.2c1.2,0,2.4,0.2,3.5,0.5v-0.3c0-1.9-1.1-2.9-3.2-2.9c-1,0-2,0.2-2.9,0.5
	c-0.2,0-0.3,0.1-0.5,0.1c-0.7,0-1.2-0.5-1.2-1.2l0,0c0-0.5,0.3-1,0.8-1.2c1.3-0.5,2.8-0.8,4.2-0.8c1.6-0.1,3.1,0.4,4.3,1.5
	c1,1.1,1.5,2.5,1.4,4v6.4c0,0.8-0.6,1.4-1.4,1.4l0,0c-0.7,0.1-1.4-0.5-1.4-1.2v-0.5c-1,1.2-2.6,1.9-4.2,1.9
	C170.1,32.3,167.9,30.9,167.9,28.3L167.9,28.3z M176.8,27.3v-0.9c-1-0.4-2-0.5-3-0.5c-1.9,0-3.1,0.8-3.1,2.2l0,0c0,1.2,1.1,2,2.5,2
	C175.3,30.1,176.8,29,176.8,27.3L176.8,27.3z M182.4,28.4v-6.9H182c-0.7,0-1.3-0.6-1.3-1.3s0.6-1.3,1.3-1.3l0,0h0.5v-2.2
	c0-0.8,0.7-1.5,1.5-1.5s1.5,0.7,1.5,1.5V19h2.3c0.7,0,1.3,0.6,1.3,1.3s-0.6,1.3-1.3,1.3l0,0h-2.3V28c-0.1,0.8,0.4,1.5,1.2,1.6
	c0.1,0,0.3,0,0.4,0c0.2,0,0.5,0,0.7-0.1c0.7,0,1.2,0.5,1.2,1.2c0,0.5-0.3,1-0.8,1.2c-0.6,0.2-1.3,0.3-2,0.3
	C184,32.2,182.4,31.2,182.4,28.4z M191.4,21.6h-0.5c-0.7,0-1.2-0.5-1.2-1.2l0,0c0-0.7,0.6-1.2,1.2-1.2h0.5v-1
	c-0.1-1.2,0.3-2.3,1.1-3.2c0.8-0.7,1.9-1.1,2.9-1c0.5,0,1,0,1.5,0.1c0.7,0.1,1.1,0.8,1,1.4s-0.6,1-1.2,1c-0.2,0-0.4,0-0.6,0
	c-1.1,0-1.7,0.6-1.7,2v0.7h2.3c0.7,0,1.2,0.5,1.2,1.2l0,0c0,0.7-0.6,1.2-1.2,1.2l0,0h-2.3v9.1c0,0.8-0.7,1.5-1.5,1.5
	s-1.5-0.7-1.5-1.5V21.6z M197.8,25.6L197.8,25.6c0.1-3.8,3.4-6.8,7.2-6.7c3.6,0.1,6.5,3,6.7,6.7l0,0c0,3.7-3.1,6.8-6.8,6.8
	c-0.1,0-0.1,0-0.2,0c-3.7,0.1-6.8-2.9-6.8-6.6C197.8,25.7,197.8,25.6,197.8,25.6L197.8,25.6z M208.6,25.6L208.6,25.6
	c0.1-2.2-1.6-4.1-3.8-4.2c-0.1,0-0.1,0-0.2,0c-2.2,0-3.9,1.7-3.9,3.9c0,0.1,0,0.1,0,0.2l0,0c-0.1,2.2,1.6,4.1,3.8,4.2
	c0.1,0,0.1,0,0.2,0c2.2,0,3.9-1.7,3.9-3.9C208.7,25.7,208.7,25.6,208.6,25.6L208.6,25.6z M213.4,20.4c0-0.8,0.6-1.5,1.4-1.5l0,0
	c0.8,0,1.5,0.7,1.5,1.5l0,0v1.3c0.7-1.6,2-2.9,3.3-2.9c0.8-0.1,1.4,0.5,1.5,1.3c0,0.1,0,0.1,0,0.2c0,0.7-0.5,1.3-1.2,1.4
	c-2.1,0.4-3.6,2-3.6,5.1v3.8c0,0.8-0.7,1.5-1.5,1.5l0,0c-0.8,0-1.5-0.6-1.5-1.4l0,0V20.4H213.4z M222.3,20.4c0-0.8,0.6-1.5,1.4-1.5
	l0,0c0.8,0,1.5,0.7,1.5,1.5l0,0V21c0.8-1.4,2.4-2.2,4-2.2c1.6-0.1,3.2,0.8,3.9,2.3c1-1.4,2.6-2.3,4.4-2.3c2.8,0,4.6,1.8,4.6,5v6.9
	c0,0.8-0.6,1.5-1.4,1.5c0,0,0,0-0.1,0c-0.8,0-1.5-0.6-1.5-1.4l0,0v-6c0-2.1-1-3.2-2.6-3.2s-2.8,1.1-2.8,3.1v6c0,0.8-0.7,1.5-1.5,1.5
	s-1.5-0.7-1.5-1.5v-6.1c0-2-1-3.1-2.6-3.1s-2.8,1.2-2.8,3.2v6c0,0.8-0.7,1.5-1.5,1.5s-1.5-0.7-1.5-1.5L222.3,20.4z M238,45.6H23.6
	C11.8,45.6,2.2,36,2.2,24.2S11.8,2.8,23.6,2.8H238c11.8,0,21.4,9.6,21.4,21.4C259.4,36.1,249.8,45.6,238,45.6L238,45.6z M23.6,3.9
	C12.4,3.9,3.3,13,3.3,24.3s9.1,20.3,20.3,20.3H238c11.2,0,20.3-9.1,20.3-20.3s-9-20.4-20.3-20.4H23.6z"/>
<g class="st1">
	<path class="st2" d="M296.1,20.7h-2v-2h2V20.7z M296.1,32h-2v-9.8h2V32z"/>
	<path class="st2" d="M307.9,22.2l-2.8,8.5c-0.5,1.4-1.4,1.6-2.1,1.6c-1,0-1.7-0.5-2-1.6l-2.4-7h-0.9v-1.4h2.4l2.4,7.9
		c0.1,0.3,0.2,0.5,0.5,0.5s0.4-0.2,0.5-0.5l2.5-7.9L307.9,22.2L307.9,22.2z"/>
	<path class="st2" d="M312.9,22.2c2.6,0,4.5,1.7,4.5,4.2V28c0,2.5-1.8,4.2-4.5,4.2c-2.6,0-4.5-1.7-4.5-4.2v-1.5
		C308.4,23.9,310.3,22.2,312.9,22.2 M312.9,30.6c1.6,0,2.6-1.2,2.6-2.6v-1.5c0-1.4-1-2.6-2.6-2.6c-1.7,0-2.6,1.2-2.6,2.6V28
		C310.4,29.4,311.3,30.6,312.9,30.6"/>
	<path class="st2" d="M333.7,22.5c-1-0.3-2.6-0.5-3.8-0.5c-2.7,0-4.3,1.7-4.3,4.4v1.1c0,2.7,1.7,4.4,4.3,4.4c0.1,0,0.5,0,0.8,0v-1.6
		c-0.1,0-0.7,0-0.8,0c-1.5,0-2.4-1.1-2.4-2.8v-1.1c0-1.7,1-2.8,2.4-2.8c0.7,0,1.7,0.1,2,0.1h0.1v8.2h2v-9.1
		C334.1,22.7,334.1,22.6,333.7,22.5"/>
	<rect x="336" y="18.8" class="st2" width="2" height="13.2"/>
	<path class="st2" d="M287,18.8h-3.6V32h2.1V20.6h1.2c0.3,0,0.5,0,0.7,0c1.8,0,2.7,0.8,2.7,2.2c0,0.1,0,0.1,0,0.2
		c0,1.3-0.7,2.2-2.7,2.2c-0.2,0-0.4,0-0.6,0c0,0.5,0,1.4,0,1.8c0.2,0,0.4,0,0.6,0c2.9,0,4.9-1.1,4.9-4c0-0.1,0-0.1,0-0.2
		C292.4,19.9,290.2,18.8,287,18.8"/>
	<path class="st2" d="M321,20.1v2.1h3.3v1.6H321v5.7c0,0.9,0.6,0.9,1.4,0.9h1.9V32h-2.6c-1.9,0-2.8-0.8-2.8-2.5v-9.1L321,20.1z"/>
	<path class="st2" d="M339,31.1c0-0.5,0.4-0.9,0.9-0.9s0.9,0.4,0.9,0.9s-0.4,0.9-0.9,0.9S339,31.6,339,31.1z M339.9,30.4
		c-0.4,0-0.7,0.3-0.7,0.7s0.3,0.7,0.7,0.7c0.4,0,0.7-0.3,0.7-0.7S340.3,30.4,339.9,30.4z M339.7,31.6L339.7,31.6l-0.1-0.9h0.3
		c0.2,0,0.3,0.1,0.3,0.3c0,0.1-0.1,0.2-0.2,0.3l0.2,0.4h-0.1l-0.2-0.4h-0.2L339.7,31.6L339.7,31.6z M339.8,31.1
		c0.2,0,0.2-0.1,0.2-0.2s-0.1-0.2-0.3-0.2h-0.2v0.4L339.8,31.1z"/>
	<path class="st2" d="M269.2,32v-7h0.8v2.7c0.4-0.6,1-0.9,1.7-0.9c1.3,0,2.2,1,2.2,2.6S273,32,271.7,32c-0.7,0-1.3-0.4-1.7-0.9V32
		H269.2z M271.5,31.4c1,0,1.6-0.8,1.6-1.9s-0.6-1.9-1.6-1.9c-0.6,0-1.2,0.4-1.5,0.8v2.3C270.2,31,270.8,31.4,271.5,31.4z"/>
	<path class="st2" d="M275,33.2c0.1,0.1,0.3,0.1,0.4,0.1c0.3,0,0.6-0.1,0.7-0.5l0.3-0.8l-2.1-5.1h0.8l1.7,4.1l1.7-4.1h0.9l-2.5,6
		c-0.3,0.7-0.8,1-1.5,1c-0.2,0-0.4,0-0.6-0.1L275,33.2z"/>
</g>
</svg>
