<svg xmlns="http://www.w3.org/2000/svg" viewBox="0 0 618.7 284.41">
    <title>apache-kakfa</title>
    <g id="Layer_2" data-name="Layer 2">
        <g id="svg869">
            <path id="path879"
                  fill="#FFF"
                  d="M35.26,282.69A40.53,40.53,0,0,1,12.14,261.5c-3.35-7.18-4.14-19.18-1.81-27.22,3.14-10.79,13.38-21.83,23.6-25.47L39,207V190.87l-5.43-1.72c-10.85-3.41-22.19-13-28-23.71-7.36-13.52-7.36-33.36,0-46.88,5.82-10.69,17.16-20.3,28-23.71L39,93.13V77l-5-1.78c-10.22-3.64-20.46-14.68-23.6-25.47-2.35-8.1-1.54-20,1.89-27.49s12-16,19.47-19.53C36.81.3,38.64,0,48,0S59.1.3,64.22,2.7c7.5,3.52,16.07,12.11,19.47,19.53s4.25,19.39,1.89,27.49C82.44,60.52,72.2,71.55,61.94,75.2L56.88,77l.29,7.89.29,7.89,5.25,1.34c7,1.79,12,4.45,18.83,10l5.67,4.62,4.12-2.29c2.27-1.26,5.63-3.23,7.47-4.37l3.33-2.08.17-10.5c.14-9.11.51-11.25,2.86-16.26,3.48-7.43,12.1-16.05,19.53-19.53,5.12-2.4,6.95-2.7,16.27-2.7s11.14.3,16.26,2.7c7.43,3.48,16.05,12.1,19.53,19.53,2.4,5.12,2.71,7,2.71,16.27s-.31,11.15-2.71,16.27c-3.48,7.43-12.1,16-19.53,19.53-5.12,2.4-6.94,2.7-16.26,2.7-11.85,0-16.77-1.61-24.64-8.06L112,116.42l-7.56,4.29L96.91,125l.77,4c1,5.19,1,20.95,0,25.7l-.79,3.71,7.68,4.49,7.68,4.5,4.19-3.43c7.75-6.36,12.72-8,24.53-8,9.32,0,11.14.3,16.26,2.7,7.43,3.48,16.05,12.1,19.53,19.53,2.4,5.12,2.71,7,2.71,16.27s-.31,11.15-2.71,16.27c-3.48,7.43-12.1,16-19.53,19.53-5.12,2.4-6.94,2.7-16.26,2.7s-11.15-.3-16.27-2.7c-7.43-3.48-16-12.1-19.53-19.53-2.41-5.14-2.7-6.93-2.7-16.46v-10.7l-7.13-4.05a70.1,70.1,0,0,0-7.77-4.06c-.35,0-3.12,2-6.16,4.5-6.66,5.43-11.71,8.1-18.69,9.88l-5.25,1.34-.29,7.89L56.88,207l5.06,1.8c10.27,3.65,20.5,14.68,23.64,25.48,2.36,8.1,1.54,20-1.89,27.49s-12,16-19.47,19.48c-7.71,3.55-21.17,4.22-29,1.44Zm20-20.57c11.72-5,14.46-21.05,5.09-29.81A18,18,0,0,0,30,245.5a17.53,17.53,0,0,0,17.78,18,22.37,22.37,0,0,0,7.5-1.34Zm93-51c11.72-5,14.46-21.05,5.09-29.81A18,18,0,0,0,123,194.5a17.53,17.53,0,0,0,17.78,18,22.37,22.37,0,0,0,7.5-1.34Zm-88.72-42.3c6.61-2.25,14.51-10.15,16.76-16.76C80.06,141,77.59,130,69.52,121.93c-11.44-11.44-28.69-11.44-40.13,0-8.07,8.08-10.53,19-6.76,30.13,2.16,6.33,10.19,14.53,16.35,16.7a34.5,34.5,0,0,0,20.54.06Zm88.72-62.7c11.72-5,14.46-21.05,5.09-29.81A18,18,0,0,0,123,89.5a17.53,17.53,0,0,0,17.78,18A22.37,22.37,0,0,0,148.24,106.12Zm-93-51c11.72-5,14.46-21,5.09-29.81A18,18,0,0,0,30,38.5a17.53,17.53,0,0,0,17.78,18A22.37,22.37,0,0,0,55.24,55.12ZM311.69,212.41c-17-4-28.73-20.94-28.73-41.41,0-22.94,14.06-40.27,34.21-42.16a33.46,33.46,0,0,1,22.6,6.13l5.07,3.48.31-3.72.31-3.73,9.25-.29,9.25-.29v81.16l-9.25-.29-9.25-.29-.32-3.25c-.17-1.79-.51-3.25-.76-3.25a33,33,0,0,0-4.6,3c-7.37,5.34-18.2,7.23-28.09,4.9Zm19.37-17c9.62-3.22,15.25-12.21,15.21-24.31,0-8.19-1.95-13.52-6.61-18.39s-8.41-6.49-15.28-6.58c-8.63-.11-14.73,3.72-18.91,11.89-5.86,11.46-3.14,27.14,5.91,34a21.19,21.19,0,0,0,19.68,3.35Zm203.62,16.72c-14.45-3.89-25.72-18.89-27.35-36.42-1.76-19,7.08-36.34,22.34-43.81,4.77-2.33,7-2.79,13.74-2.82,9.31,0,15.31,1.88,22.11,7.07l4.44,3.39v-9.07l9.25.29,9.25.29v80l-9.25.29-9.25.29v-8.1l-5.38,3.57C555.21,213.27,545.3,214.94,534.68,212.08Zm20.78-16.69c9.49-2.61,16.4-15,15.13-27.08-1-9.39-5.21-16.53-11.79-19.89-8.49-4.33-17.21-3.29-24.06,2.88-5.75,5.18-8,10.79-8,19.86C526.73,189.13,539.39,199.8,555.46,195.39ZM213,142V72.5h19V156l12.76-12.73,12.76-12.74h12.24c6.73,0,12.24.25,12.24.55s-7.66,8.06-17,17.25l-17,16.7,18.59,23,18.58,23-11.26.28c-6.19.16-11.8.08-12.46-.17s-7.06-7.9-14.22-17c-9.94-12.63-13.27-16.23-14.08-15.25-.63.75-1.18,7.68-1.35,16.71L231.46,211l-9.25.29-9.25.29Zm171.66,68.79c-.36-.36-.66-14.54-.66-31.5V148.5h-6v-18h6l0-15.75c0-28.19,2.46-36,12.86-41.46,4.42-2.3,6.6-2.79,12.58-2.79,4,0,8.65.49,10.39,1.1L423,72.7V92.32l-4-1.91c-4-1.93-9.63-2.49-11.64-1.14-3,2-3.75,6.18-4.21,23.48l-.46,17.75H423v18H403v63h-8.84c-4.86,0-9.13-.3-9.5-.67ZM437,142V72.5h19V156l12.76-12.73,12.76-12.74h12.24c6.73,0,12.24.36,12.24.8s-7.65,8.13-17,17.08l-17,16.27,18.49,22.88C500.63,200.12,509,210.66,509,211s-5.39.54-12,.54H485l-13.25-16.94c-10.16-13-13.55-16.69-14.53-15.88S456,183.94,456,195.62V211.5H437Zm165.31,68c-3.32-1.45-6.31-6-6.31-9.52a11.51,11.51,0,0,1,19.31-8.61c5.63,5.22,4.08,15.27-2.79,18.15-4.24,1.76-6.11,1.76-10.21,0Zm10.34-2.47c3.78-2.3,5.11-6.81,3.3-11.18-1.23-3-5.42-5.89-8.45-5.89s-7.23,2.92-8.46,5.89C595.31,205.3,604.27,212.66,612.61,207.57ZM604,200c0-6.91.78-7.76,5.06-5.46,2.29,1.22,2.57,4.78.44,5.6-1.26.48-1.17,1,.57,3.46,2.44,3.43.64,4-2.13.65L606,202l0,2.25c0,1.24-.48,2.25-1,2.25S604,203.67,604,200Zm4.5-2.5a2,2,0,0,0-1.25-1.75c-.75-.25-1.25.46-1.25,1.75s.5,2,1.25,1.75A2,2,0,0,0,608.46,197.5ZM246,97.12c0-1.84,11.26-23.72,11.86-23,1.67,1.94,10.43,22.45,9.84,23-1.15,1.15-3.73-.56-4.69-3.1-.85-2.23-1.54-2.53-5.87-2.53-4.5,0-5,.24-6.14,3-.76,1.83-2,3-3.13,3S246,97.33,246,97.12Zm14-9.87c-.06-2.13-2.64-6.08-3.29-5A28.85,28.85,0,0,0,255,85.86c-.95,2.49-.83,2.64,2,2.64C258.71,88.5,259.94,88,259.92,87.25ZM272,86V74.5l4.25,0c4.86,0,6,.56,7.68,3.82s-.29,8-3.81,8.76c-5,1.08-5.12,1.24-5.12,5.87,0,3.36-.39,4.53-1.5,4.53S272,95.56,272,86Zm7.8-2.7c1.69-1.69,1.49-4.47-.39-5.19C276,76.79,275,77.45,275,81c0,2.7.41,3.5,1.8,3.5A4.87,4.87,0,0,0,279.76,83.3Zm4.18,13.45c0-1.29,10.29-23.25,10.92-23.25S304.57,93.44,305.21,96c.13.54-.55,1.14-1.53,1.32-1.23.24-2.1-.59-2.85-2.73-1-2.87-1.4-3.08-5.95-3.08-4.4,0-5,.29-6.42,3s-4.48,4.21-4.52,2.25ZM298,88a20.19,20.19,0,0,0-1.62-3.67c-1.69-3.27-2.33-2.94-3.83,2-.61,2-.34,2.25,2.38,2.25C296.58,88.5,298,88.25,298,88Zm15.09,8.29c-8.43-4.34-8.43-16.93,0-21.29C318.3,72.24,325,73.7,325,77.57c0,1.67-.33,1.83-1.94,1a10,10,0,0,0-10.18.85c-1.76,1.43-2.34,2.91-2.34,6,0,6.79,4.46,9.71,11.71,7.67,2.16-.61,2.75-.44,2.75.8,0,3.34-7.22,4.78-11.91,2.38Zm16.57.59c-.36-.36-.66-5.54-.66-11.5,0-10.16.12-10.83,2-10.83,1.66,0,2,.67,2,4v4h10v-4c0-2.89.41-4,1.5-4,1.24,0,1.5,1.94,1.5,11.5s-.26,11.5-1.5,11.5S343,96.22,343,92V86.5H333V92c0,3.92-.39,5.5-1.34,5.5a3.26,3.26,0,0,1-2-.67Zm22,0c-.36-.36-.66-5.54-.66-11.5V74.5h6.5c5.11,0,6.5.32,6.5,1.5s-1.17,1.5-4.5,1.5c-4.14,0-4.5.2-4.5,2.5s.36,2.5,4.5,2.5c3.83,0,4.5.3,4.5,2s-.67,2-4.5,2c-4.48,0-4.5,0-4.5,3.5s0,3.5,4.5,3.5c3.83,0,4.5.3,4.5,2s-.67,2-5.84,2c-3.21,0-6.13-.3-6.5-.67Z"/>

        </g>
    </g>
</svg>