<?xml version="1.0" encoding="utf-8"?>
<!-- Generator: Adobe Illustrator 24.0.1, SVG Export Plug-In . SVG Version: 6.00 Build 0)  -->
<svg version="1.1" id="Layer_1" xmlns="http://www.w3.org/2000/svg" xmlns:xlink="http://www.w3.org/1999/xlink" x="0px" y="0px"
	 viewBox="0 0 263.1 283.8" style="enable-background:new 0 0 263.1 283.8;" xml:space="preserve">
<style type="text/css">
	.st0{fill:#191E1E;}
	.st1{fill:#FFFFFF;}
	.st2{clip-path:url(#SVGID_2_);}
</style>
<g>
	<g id="Layer_1_1_">
		<path class="st0" d="M231.3,199.7L231.3,199.7c-0.9,0-1.7,0.8-1.7,1.7l0,0c0,0.9,0.8,1.7,1.7,1.7l0,0c0.9,0,1.7-0.8,1.7-1.7l0,0
			C232.9,200.4,232.2,199.7,231.3,199.7z"/>
		<path class="st0" d="M231.3,212.6L231.3,212.6c-0.9,0-1.7,0.8-1.7,1.7l0,0c0,0.9,0.8,1.7,1.7,1.7l0,0c0.9,0,1.7-0.8,1.7-1.7l0,0
			C232.9,213.3,232.2,212.6,231.3,212.6z"/>
		<path class="st0" d="M235,209.5c0.5,0,0.9-0.2,1.2-0.6c-0.1-0.9-0.3-1.8-0.5-2.7c-0.2-0.1-0.5-0.1-0.7-0.1c-0.9,0-1.7,0.8-1.7,1.7
			C233.3,208.7,234.1,209.5,235,209.5L235,209.5z"/>
		<path class="st0" d="M231.3,225.5L231.3,225.5c-0.9,0-1.7,0.8-1.7,1.7l0,0c0,0.9,0.8,1.7,1.7,1.7l0,0c0.9,0,1.7-0.8,1.7-1.7l0,0
			C232.9,226.3,232.2,225.5,231.3,225.5z"/>
		<path class="st0" d="M235,219.1c-0.9,0-1.7,0.7-1.7,1.7c0,0.9,0.7,1.7,1.7,1.7c0.5,0,1-0.2,1.3-0.6c0.1-0.6,0.2-1.2,0.2-1.8
			C236.2,219.4,235.6,219,235,219.1z"/>
		<path class="st0" d="M223.8,186.8L223.8,186.8c-0.9,0-1.7,0.8-1.7,1.7l0,0c0,0.9,0.8,1.7,1.7,1.7l0,0c0.9,0,1.7-0.8,1.7-1.7l0,0
			C225.5,187.5,224.7,186.8,223.8,186.8z"/>
		<path class="st0" d="M223.8,199.7L223.8,199.7c-0.9,0-1.7,0.8-1.7,1.7l0,0c0,0.9,0.8,1.7,1.7,1.7l0,0c0.9,0,1.7-0.8,1.7-1.7l0,0
			C225.5,200.4,224.7,199.7,223.8,199.7z"/>
		<circle class="st0" cx="227.5" cy="194.9" r="1.7"/>
		<path class="st0" d="M223.8,212.6L223.8,212.6c-0.9,0-1.7,0.8-1.7,1.7l0,0c0,0.9,0.8,1.7,1.7,1.7l0,0c0.9,0,1.7-0.8,1.7-1.7l0,0
			C225.5,213.3,224.7,212.6,223.8,212.6z"/>
		<circle class="st0" cx="227.5" cy="207.8" r="1.7"/>
		<path class="st0" d="M223.8,225.5L223.8,225.5c-0.9,0-1.7,0.8-1.7,1.7l0,0c0,0.9,0.8,1.7,1.7,1.7l0,0c0.9,0,1.7-0.8,1.7-1.7l0,0
			C225.5,226.3,224.7,225.5,223.8,225.5z"/>
		<circle class="st0" cx="227.5" cy="220.7" r="1.7"/>
		<path class="st0" d="M223.8,238.4L223.8,238.4c-0.9,0-1.7,0.8-1.7,1.7l0,0c0,0.9,0.8,1.7,1.7,1.7l0,0c0.9,0,1.7-0.8,1.7-1.7l0,0
			C225.5,239.2,224.7,238.4,223.8,238.4z"/>
		<circle class="st0" cx="227.5" cy="233.6" r="1.7"/>
		<path class="st0" d="M216.4,186.8L216.4,186.8c-0.9,0-1.7,0.8-1.7,1.7l0,0c0,0.9,0.8,1.7,1.7,1.7l0,0c0.9,0,1.7-0.8,1.7-1.7l0,0
			C218,187.5,217.3,186.8,216.4,186.8z"/>
		<path class="st0" d="M220.1,183.7c0.9,0,1.7-0.7,1.7-1.7c-0.6-0.6-1.1-1.1-1.7-1.7c-0.9,0.1-1.6,0.9-1.6,1.8
			C218.6,183,219.2,183.6,220.1,183.7L220.1,183.7z"/>
		<path class="st0" d="M216.4,199.7L216.4,199.7c-0.9,0-1.7,0.8-1.7,1.7l0,0c0,0.9,0.8,1.7,1.7,1.7l0,0c0.9,0,1.7-0.8,1.7-1.7l0,0
			C218,200.4,217.3,199.7,216.4,199.7z"/>
		<circle class="st0" cx="220.1" cy="194.9" r="1.7"/>
		<path class="st0" d="M216.4,212.6L216.4,212.6c-0.9,0-1.7,0.8-1.7,1.7l0,0c0,0.9,0.8,1.7,1.7,1.7l0,0c0.9,0,1.7-0.8,1.7-1.7l0,0
			l0,0C218,213.3,217.3,212.6,216.4,212.6z"/>
		<circle class="st0" cx="220.1" cy="207.8" r="1.7"/>
		<path class="st0" d="M216.4,225.5L216.4,225.5c-0.9,0-1.7,0.8-1.7,1.7l0,0c0,0.9,0.8,1.7,1.7,1.7l0,0c0.9,0,1.7-0.8,1.7-1.7l0,0
			C218,226.3,217.3,225.5,216.4,225.5L216.4,225.5z"/>
		<circle class="st0" cx="220.1" cy="220.7" r="1.7"/>
		<path class="st0" d="M216.4,238.4L216.4,238.4c-0.9,0-1.7,0.8-1.7,1.7l0,0c0,0.9,0.8,1.7,1.7,1.7l0,0c0.9,0,1.6-0.8,1.6-1.7l0,0
			C218,239.2,217.3,238.4,216.4,238.4z"/>
		<circle class="st0" cx="220.1" cy="233.6" r="1.7"/>
		<path class="st0" d="M216.4,251.3L216.4,251.3c-0.9,0-1.7,0.8-1.7,1.7l0,0c0,0.7,0.4,1.3,1,1.5l0.7-0.6l1.1-0.9l0.5-0.5
			C217.8,251.8,217.1,251.3,216.4,251.3z"/>
		<path class="st0" d="M220.1,244.9c-0.9,0-1.7,0.7-1.7,1.7s0.7,1.7,1.7,1.7s1.7-0.7,1.7-1.7c0,0,0,0,0,0
			C221.8,245.6,221,244.9,220.1,244.9z"/>
		<path class="st0" d="M208.9,173.9L208.9,173.9c-0.9,0-1.7,0.8-1.7,1.7l0,0c0,0.9,0.8,1.7,1.7,1.7l0,0c0.9,0,1.7-0.8,1.7-1.7l0,0
			C210.6,174.6,209.8,173.9,208.9,173.9z"/>
		<path class="st0" d="M208.9,186.8L208.9,186.8c-0.9,0-1.7,0.8-1.7,1.7l0,0c0,0.9,0.8,1.7,1.7,1.7l0,0c0.9,0,1.7-0.8,1.7-1.7l0,0
			C210.6,187.5,209.8,186.8,208.9,186.8z"/>
		<circle class="st0" cx="212.6" cy="182" r="1.7"/>
		<path class="st0" d="M216.4,177.2L216.4,177.2c0.1,0,0.2,0,0.3,0l-0.3-0.2c-0.6-0.5-1.1-0.9-1.7-1.4
			C214.7,176.5,215.4,177.2,216.4,177.2z"/>
		<path class="st0" d="M208.9,199.7L208.9,199.7c-0.9,0-1.7,0.8-1.7,1.7l0,0c0,0.9,0.8,1.6,1.7,1.6l0,0c0.9,0,1.7-0.8,1.7-1.7l0,0
			C210.6,200.4,209.8,199.7,208.9,199.7z"/>
		<circle class="st0" cx="212.6" cy="194.9" r="1.7"/>
		<path class="st0" d="M208.9,212.6L208.9,212.6c-0.9,0-1.7,0.8-1.7,1.7l0,0c0,0.9,0.7,1.7,1.6,1.7c0,0,0,0,0,0l0,0
			c0.9,0,1.7-0.8,1.7-1.7l0,0C210.6,213.4,209.9,212.6,208.9,212.6C208.9,212.6,208.9,212.6,208.9,212.6z"/>
		<circle class="st0" cx="212.6" cy="207.8" r="1.7"/>
		<path class="st0" d="M208.9,225.5L208.9,225.5c-0.9,0-1.7,0.8-1.7,1.7l0,0c0,0.9,0.8,1.7,1.7,1.7l0,0c0.9,0,1.7-0.8,1.7-1.7l0,0
			C210.6,226.3,209.8,225.5,208.9,225.5z"/>
		<circle class="st0" cx="212.6" cy="220.7" r="1.7"/>
		<path class="st0" d="M208.9,238.4L208.9,238.4c-0.9,0-1.7,0.8-1.7,1.7l0,0c0,0.9,0.8,1.7,1.7,1.7l0,0c0.9,0,1.7-0.8,1.7-1.7l0,0
			C210.6,239.2,209.8,238.4,208.9,238.4z"/>
		<circle class="st0" cx="212.6" cy="233.6" r="1.7"/>
		<path class="st0" d="M208.9,251.3L208.9,251.3c-0.9,0-1.7,0.8-1.7,1.7l0,0c0,0.9,0.8,1.7,1.7,1.7l0,0c0.9,0,1.7-0.8,1.7-1.7l0,0
			C210.6,252.1,209.8,251.3,208.9,251.3z"/>
		<path class="st0" d="M212.6,244.9c-0.9,0-1.7,0.7-1.7,1.7s0.7,1.7,1.7,1.7s1.7-0.7,1.7-1.7c0,0,0,0,0,0
			C214.3,245.6,213.6,244.9,212.6,244.9z"/>
		<path class="st0" d="M201.4,173.9L201.4,173.9c-0.9,0-1.7,0.8-1.7,1.7l0,0c0,0.9,0.8,1.7,1.7,1.7l0,0c0.9,0,1.7-0.8,1.7-1.7l0,0
			C203.1,174.6,202.4,173.9,201.4,173.9z"/>
		<path class="st0" d="M205.2,170.8c0.7,0,1.3-0.4,1.5-1c-0.9-0.6-1.9-1.2-2.8-1.8c-0.6,0.7-0.5,1.8,0.2,2.4
			C204.4,170.6,204.8,170.8,205.2,170.8L205.2,170.8z"/>
		<path class="st0" d="M201.4,186.8L201.4,186.8c-0.9,0-1.7,0.8-1.7,1.7l0,0c0,0.9,0.8,1.7,1.7,1.7l0,0c0.9,0,1.7-0.8,1.7-1.7l0,0
			C203.1,187.5,202.4,186.8,201.4,186.8z"/>
		<circle class="st0" cx="205.2" cy="182" r="1.7"/>
		<path class="st0" d="M201.4,199.7L201.4,199.7c-0.9,0-1.7,0.8-1.7,1.7l0,0c0,0.9,0.8,1.7,1.7,1.7l0,0c0.9,0,1.7-0.8,1.7-1.7l0,0
			C203.1,200.4,202.4,199.7,201.4,199.7z"/>
		<circle class="st0" cx="205.2" cy="194.9" r="1.7"/>
		<path class="st0" d="M201.4,212.6L201.4,212.6c-0.9,0-1.7,0.8-1.7,1.7l0,0c0,0.9,0.8,1.7,1.7,1.7l0,0c0.9,0,1.7-0.8,1.7-1.7l0,0
			l0,0C203.1,213.3,202.4,212.6,201.4,212.6z"/>
		<circle class="st0" cx="205.2" cy="207.8" r="1.7"/>
		<path class="st0" d="M201.4,225.5L201.4,225.5c-0.9,0-1.7,0.8-1.7,1.7l0,0c0,0.9,0.8,1.7,1.7,1.7l0,0c0.9,0,1.7-0.8,1.7-1.7l0,0
			C203.1,226.3,202.4,225.5,201.4,225.5L201.4,225.5z"/>
		<circle class="st0" cx="205.2" cy="220.7" r="1.7"/>
		<path class="st0" d="M201.4,238.4L201.4,238.4c-0.9,0-1.7,0.8-1.7,1.7l0,0c0,0.9,0.8,1.7,1.7,1.7l0,0c0.9,0,1.7-0.8,1.7-1.7l0,0
			C203.1,239.2,202.4,238.4,201.4,238.4z"/>
		<circle class="st0" cx="205.2" cy="233.6" r="1.7"/>
		<path class="st0" d="M201.4,251.3L201.4,251.3c-0.9,0-1.7,0.8-1.7,1.7l0,0c0,0.9,0.8,1.7,1.7,1.7l0,0c0.9,0,1.7-0.8,1.7-1.7l0,0
			C203.1,252.1,202.4,251.3,201.4,251.3z"/>
		<path class="st0" d="M205.2,244.9c-0.9,0-1.7,0.7-1.7,1.7s0.7,1.7,1.7,1.7s1.7-0.7,1.7-1.7c0,0,0,0,0,0
			C206.8,245.6,206.1,244.9,205.2,244.9z"/>
		<circle class="st0" cx="205.2" cy="259.5" r="1.7"/>
		<path class="st0" d="M194,173.9L194,173.9c-0.9,0-1.7,0.8-1.7,1.7l0,0c0,0.9,0.8,1.7,1.7,1.7l0,0c0.9,0,1.7-0.8,1.7-1.7l0,0
			C195.7,174.6,194.9,173.9,194,173.9z"/>
		<circle class="st0" cx="197.7" cy="169.1" r="1.7"/>
		<path class="st0" d="M194,186.8L194,186.8c-0.9,0-1.7,0.8-1.7,1.7l0,0c0,0.9,0.8,1.7,1.7,1.7l0,0c0.9,0,1.7-0.8,1.7-1.7l0,0
			C195.7,187.5,194.9,186.8,194,186.8z"/>
		<circle class="st0" cx="197.7" cy="182" r="1.7"/>
		<path class="st0" d="M194,199.7L194,199.7c-0.9,0-1.7,0.8-1.7,1.7l0,0c0,0.9,0.8,1.6,1.7,1.6l0,0c0.9,0,1.7-0.8,1.7-1.7l0,0
			C195.7,200.4,194.9,199.7,194,199.7z"/>
		<circle class="st0" cx="197.7" cy="194.9" r="1.7"/>
		<path class="st0" d="M194,212.6L194,212.6c-0.9,0-1.7,0.8-1.7,1.7l0,0c0,0.9,0.7,1.7,1.6,1.7c0,0,0,0,0,0l0,0
			c0.9,0,1.7-0.8,1.7-1.7l0,0C195.7,213.4,195,212.6,194,212.6C194,212.6,194,212.6,194,212.6z"/>
		<circle class="st0" cx="197.7" cy="207.8" r="1.7"/>
		<path class="st0" d="M194,225.5L194,225.5c-0.9,0-1.7,0.8-1.7,1.7l0,0c0,0.9,0.8,1.7,1.7,1.7l0,0c0.9,0,1.7-0.8,1.7-1.7l0,0
			C195.7,226.3,194.9,225.5,194,225.5z"/>
		<circle class="st0" cx="197.7" cy="220.7" r="1.7"/>
		<path class="st0" d="M194,238.4L194,238.4c-0.9,0-1.7,0.8-1.7,1.7l0,0c0,0.9,0.8,1.7,1.7,1.7l0,0c0.9,0,1.7-0.8,1.7-1.7l0,0
			C195.7,239.2,194.9,238.4,194,238.4z"/>
		<circle class="st0" cx="197.7" cy="233.6" r="1.7"/>
		<path class="st0" d="M194,251.3L194,251.3c-0.9,0-1.7,0.8-1.7,1.7l0,0c0,0.9,0.8,1.7,1.7,1.7l0,0c0.9,0,1.7-0.8,1.7-1.7l0,0
			C195.7,252.1,194.9,251.3,194,251.3z"/>
		<path class="st0" d="M197.7,244.9c-0.9,0-1.7,0.7-1.7,1.7s0.7,1.7,1.7,1.7s1.7-0.7,1.7-1.7c0,0,0,0,0,0
			C199.4,245.6,198.6,244.9,197.7,244.9z"/>
		<path class="st0" d="M201.4,264.2c-0.6,0-1.1,0.3-1.4,0.8L201.4,264.2L201.4,264.2L201.4,264.2z"/>
		<path class="st0" d="M194,264.2L194,264.2c-0.9,0-1.7,0.8-1.7,1.7l0,0c0,0.9,0.8,1.7,1.7,1.7h0l0,0c0.9,0,1.7-0.8,1.7-1.7l0,0
			C195.7,265,194.9,264.2,194,264.2L194,264.2z"/>
		<circle class="st0" cx="197.7" cy="259.5" r="1.7"/>
		<path class="st0" d="M186.5,160.9L186.5,160.9c-0.9,0-1.7,0.8-1.7,1.7l0,0c0,0.9,0.8,1.7,1.7,1.7l0,0c0.9,0,1.7-0.8,1.7-1.7l0,0
			C188.2,161.7,187.5,160.9,186.5,160.9L186.5,160.9z"/>
		<path class="st0" d="M186.5,173.9L186.5,173.9c-0.9,0-1.7,0.8-1.7,1.7l0,0c0,0.9,0.8,1.7,1.7,1.7l0,0c0.9,0,1.7-0.8,1.7-1.7l0,0
			C188.2,174.6,187.5,173.9,186.5,173.9z"/>
		<circle class="st0" cx="190.3" cy="169.1" r="1.7"/>
		<path class="st0" d="M194,164.3L194,164.3c0.6,0,1.2-0.4,1.5-0.9l-1.5-0.7h-0.1l-1.5-0.7c-0.1,0.2-0.2,0.5-0.2,0.7l0,0
			C192.3,163.6,193.1,164.3,194,164.3z"/>
		<path class="st0" d="M186.5,186.8L186.5,186.8c-0.9,0-1.7,0.8-1.7,1.7l0,0c0,0.9,0.8,1.7,1.7,1.7l0,0c0.9,0,1.7-0.8,1.7-1.7l0,0
			C188.2,187.5,187.5,186.8,186.5,186.8z"/>
		<circle class="st0" cx="190.3" cy="182" r="1.7"/>
		<path class="st0" d="M186.5,199.7L186.5,199.7c-0.9,0-1.7,0.8-1.7,1.7l0,0c0,0.9,0.8,1.7,1.7,1.7l0,0c0.9,0,1.7-0.8,1.7-1.7l0,0
			C188.2,200.4,187.5,199.7,186.5,199.7z"/>
		<circle class="st0" cx="190.3" cy="194.9" r="1.7"/>
		<path class="st0" d="M186.5,212.6L186.5,212.6c-0.9,0-1.7,0.8-1.7,1.7l0,0c0,0.9,0.8,1.7,1.7,1.7l0,0c0.9,0,1.7-0.8,1.7-1.7l0,0
			l0,0C188.2,213.3,187.5,212.6,186.5,212.6z"/>
		<circle class="st0" cx="190.3" cy="207.8" r="1.7"/>
		<path class="st0" d="M186.5,225.5L186.5,225.5c-0.9,0-1.7,0.8-1.7,1.7l0,0c0,0.9,0.8,1.7,1.7,1.7l0,0c0.9,0,1.7-0.8,1.7-1.7l0,0
			C188.2,226.3,187.5,225.5,186.5,225.5L186.5,225.5z"/>
		<circle class="st0" cx="190.3" cy="220.7" r="1.7"/>
		<path class="st0" d="M186.5,238.4L186.5,238.4c-0.9,0-1.7,0.8-1.7,1.7l0,0c0,0.9,0.8,1.7,1.7,1.7l0,0c0.9,0,1.7-0.8,1.7-1.7l0,0
			C188.2,239.2,187.5,238.4,186.5,238.4z"/>
		<circle class="st0" cx="190.3" cy="233.6" r="1.7"/>
		<path class="st0" d="M186.5,251.3L186.5,251.3c-0.9,0-1.7,0.8-1.7,1.7l0,0c0,0.9,0.8,1.7,1.7,1.7l0,0c0.9,0,1.7-0.8,1.7-1.7l0,0
			C188.2,252.1,187.5,251.3,186.5,251.3z"/>
		<path class="st0" d="M190.3,244.9c-0.9,0-1.7,0.7-1.7,1.7s0.7,1.7,1.7,1.7s1.7-0.7,1.7-1.7c0,0,0,0,0,0
			C191.9,245.6,191.2,244.9,190.3,244.9z"/>
		<path class="st0" d="M186.5,264.2L186.5,264.2c-0.9,0-1.7,0.8-1.7,1.7l0,0c0,0.9,0.8,1.7,1.7,1.7l0,0c0.9,0,1.7-0.8,1.7-1.7l0,0
			C188.2,265,187.5,264.2,186.5,264.2z"/>
		<circle class="st0" cx="190.3" cy="259.5" r="1.7"/>
		<path class="st0" d="M179.1,160.9L179.1,160.9c-0.9,0-1.7,0.8-1.7,1.7l0,0c0,0.9,0.8,1.7,1.7,1.7l0,0c0.9,0,1.7-0.8,1.7-1.7l0,0
			C180.8,161.7,180,160.9,179.1,160.9z"/>
		<path class="st0" d="M182.8,157.9l-1.1-0.4C182,157.7,182.4,157.8,182.8,157.9L182.8,157.9z"/>
		<path class="st0" d="M179.1,173.9L179.1,173.9c-0.9,0-1.7,0.8-1.7,1.7l0,0c0,0.9,0.8,1.7,1.7,1.7l0,0c0.9,0,1.7-0.8,1.7-1.7l0,0
			C180.8,174.6,180,173.9,179.1,173.9z"/>
		<circle class="st0" cx="182.8" cy="169.1" r="1.7"/>
		<path class="st0" d="M179.1,186.8L179.1,186.8c-0.9,0-1.7,0.8-1.7,1.7l0,0c0,0.9,0.8,1.7,1.7,1.7l0,0c0.9,0,1.7-0.8,1.7-1.7l0,0
			C180.8,187.5,180,186.8,179.1,186.8z"/>
		<circle class="st0" cx="182.8" cy="182" r="1.7"/>
		<path class="st0" d="M179.1,199.7L179.1,199.7c-0.9,0-1.7,0.8-1.7,1.7l0,0c0,0.9,0.8,1.7,1.7,1.7l0,0c0.9,0,1.7-0.8,1.7-1.7l0,0
			C180.8,200.4,180,199.7,179.1,199.7z"/>
		<circle class="st0" cx="182.8" cy="194.9" r="1.7"/>
		<path class="st0" d="M179.1,212.6L179.1,212.6c-0.9,0-1.7,0.8-1.7,1.7l0,0c0,0.9,0.8,1.7,1.7,1.7l0,0c0.9,0,1.7-0.8,1.7-1.7l0,0
			C180.8,213.3,180,212.6,179.1,212.6z"/>
		<circle class="st0" cx="182.8" cy="207.8" r="1.7"/>
		<path class="st0" d="M179.1,225.5L179.1,225.5c-0.9,0-1.7,0.8-1.7,1.7l0,0c0,0.9,0.8,1.7,1.7,1.7l0,0c0.9,0,1.7-0.8,1.7-1.7l0,0
			C180.8,226.3,180,225.5,179.1,225.5z"/>
		<circle class="st0" cx="182.8" cy="220.7" r="1.7"/>
		<path class="st0" d="M179.1,238.4L179.1,238.4c-0.9,0-1.7,0.8-1.7,1.7l0,0c0,0.9,0.8,1.7,1.7,1.7l0,0c0.9,0,1.7-0.8,1.7-1.7l0,0
			C180.8,239.2,180,238.4,179.1,238.4z"/>
		<circle class="st0" cx="182.8" cy="233.6" r="1.7"/>
		<path class="st0" d="M179.1,251.3L179.1,251.3c-0.9,0-1.7,0.7-1.7,1.7l0,0c0,0.9,0.8,1.7,1.7,1.7l0,0c0.9,0,1.7-0.8,1.7-1.7l0,0
			C180.8,252.1,180,251.3,179.1,251.3z"/>
		<path class="st0" d="M182.8,244.9c-0.9,0-1.7,0.7-1.7,1.7s0.7,1.7,1.7,1.7s1.7-0.7,1.7-1.7c0,0,0,0,0,0
			C184.5,245.6,183.7,244.9,182.8,244.9z"/>
		<path class="st0" d="M179.1,264.2L179.1,264.2c-0.9,0-1.7,0.8-1.7,1.7l0,0c0,0.9,0.8,1.7,1.7,1.7l0,0c0.9,0,1.7-0.8,1.7-1.7l0,0
			C180.8,265,180,264.2,179.1,264.2z"/>
		<circle class="st0" cx="182.8" cy="259.5" r="1.7"/>
		<path class="st0" d="M182.8,270.7c-0.9,0-1.7,0.7-1.7,1.7c0,0.4,0.1,0.7,0.3,1c1-0.4,2-0.7,3-1.1
			C184.4,271.4,183.7,270.7,182.8,270.7z"/>
		<path class="st0" d="M171.6,160.9L171.6,160.9c-0.9,0-1.7,0.8-1.7,1.7l0,0c0,0.9,0.8,1.7,1.7,1.7l0,0c0.9,0,1.7-0.8,1.7-1.7l0,0
			C173.3,161.7,172.6,160.9,171.6,160.9z"/>
		<path class="st0" d="M174.2,154.9c-0.7,0.6-0.8,1.7-0.2,2.4s1.7,0.8,2.4,0.2c0.4-0.3,0.6-0.8,0.6-1.3c0-0.1,0-0.3,0-0.4
			L174.2,154.9z"/>
		<path class="st0" d="M171.6,173.9L171.6,173.9c-0.9,0-1.7,0.8-1.7,1.7l0,0c0,0.9,0.8,1.7,1.7,1.7l0,0c0.9,0,1.7-0.8,1.7-1.7l0,0
			C173.3,174.6,172.6,173.9,171.6,173.9z"/>
		<circle class="st0" cx="175.4" cy="169.1" r="1.7"/>
		<path class="st0" d="M171.6,186.8L171.6,186.8c-0.9,0-1.7,0.8-1.7,1.7l0,0c0,0.9,0.8,1.7,1.7,1.7l0,0c0.9,0,1.7-0.8,1.7-1.7l0,0
			C173.3,187.5,172.6,186.8,171.6,186.8z"/>
		<circle class="st0" cx="175.4" cy="182" r="1.7"/>
		<path class="st0" d="M171.6,199.7L171.6,199.7c-0.9,0-1.7,0.8-1.7,1.7l0,0c0,0.9,0.8,1.7,1.7,1.7l0,0c0.9,0,1.7-0.8,1.7-1.7l0,0
			C173.3,200.4,172.6,199.7,171.6,199.7z"/>
		<circle class="st0" cx="175.4" cy="194.9" r="1.7"/>
		<path class="st0" d="M171.6,212.6L171.6,212.6c-0.9,0-1.7,0.8-1.7,1.7l0,0c0,0.9,0.8,1.7,1.7,1.7l0,0c0.9,0,1.7-0.8,1.7-1.7l0,0
			C173.3,213.3,172.6,212.6,171.6,212.6z"/>
		<circle class="st0" cx="175.4" cy="207.8" r="1.7"/>
		<path class="st0" d="M171.6,225.5L171.6,225.5c-0.9,0-1.7,0.8-1.7,1.7l0,0c0,0.9,0.8,1.7,1.7,1.7l0,0c0.9,0,1.7-0.8,1.7-1.7l0,0
			C173.3,226.3,172.6,225.5,171.6,225.5z"/>
		<circle class="st0" cx="175.4" cy="220.7" r="1.7"/>
		<path class="st0" d="M171.6,238.4L171.6,238.4c-0.9,0-1.7,0.8-1.7,1.7l0,0c0,0.9,0.8,1.7,1.7,1.7l0,0c0.9,0,1.7-0.8,1.7-1.7l0,0
			C173.3,239.2,172.6,238.4,171.6,238.4z"/>
		<circle class="st0" cx="175.4" cy="233.6" r="1.7"/>
		<path class="st0" d="M171.6,251.3L171.6,251.3c-0.9,0-1.7,0.8-1.7,1.7l0,0c0,0.9,0.8,1.7,1.7,1.7l0,0c0.9,0,1.7-0.8,1.7-1.7l0,0
			C173.3,252.1,172.6,251.3,171.6,251.3z"/>
		<path class="st0" d="M175.4,244.9c-0.9,0-1.7,0.7-1.7,1.7s0.7,1.7,1.7,1.7s1.7-0.7,1.7-1.7c0,0,0,0,0,0
			C177,245.6,176.3,244.9,175.4,244.9z"/>
		<path class="st0" d="M171.6,264.2L171.6,264.2c-0.9,0-1.7,0.8-1.7,1.7l0,0c0,0.9,0.8,1.7,1.7,1.7l0,0c0.9,0,1.7-0.8,1.7-1.7l0,0
			C173.3,265,172.6,264.2,171.6,264.2z"/>
		<circle class="st0" cx="175.4" cy="259.5" r="1.7"/>
		<path class="st0" d="M175.4,270.7c-0.9,0-1.7,0.8-1.7,1.7s0.8,1.7,1.7,1.7c0.9,0,1.7-0.8,1.7-1.7l0,0
			C177,271.5,176.3,270.7,175.4,270.7z"/>
		<path class="st0" d="M164.2,160.9L164.2,160.9c-0.9,0-1.7,0.8-1.7,1.7l0,0c0,0.9,0.8,1.7,1.7,1.7l0,0c0.9,0,1.7-0.8,1.7-1.7l0,0
			C165.9,161.7,165.1,160.9,164.2,160.9z"/>
		<circle class="st0" cx="167.9" cy="156.2" r="1.7"/>
		<path class="st0" d="M164.2,173.9L164.2,173.9c-0.9,0-1.7,0.8-1.7,1.7l0,0c0,0.9,0.8,1.7,1.7,1.7l0,0c0.9,0,1.7-0.8,1.7-1.7l0,0
			C165.8,174.6,165.1,173.9,164.2,173.9z"/>
		<circle class="st0" cx="167.9" cy="169.1" r="1.7"/>
		<path class="st0" d="M164.2,186.8L164.2,186.8c-0.9,0-1.7,0.8-1.7,1.7l0,0c0,0.9,0.8,1.7,1.7,1.7l0,0c0.9,0,1.7-0.8,1.7-1.7l0,0
			C165.8,187.5,165.1,186.8,164.2,186.8z"/>
		<circle class="st0" cx="167.9" cy="182" r="1.7"/>
		<path class="st0" d="M164.2,199.7L164.2,199.7c-0.9,0-1.7,0.8-1.7,1.7l0,0c0,0.9,0.8,1.7,1.7,1.7l0,0c0.9,0,1.7-0.8,1.7-1.7l0,0
			C165.8,200.4,165.1,199.7,164.2,199.7z"/>
		<circle class="st0" cx="167.9" cy="194.9" r="1.7"/>
		<path class="st0" d="M164.2,212.6L164.2,212.6c-0.9,0-1.7,0.8-1.7,1.7l0,0c0,0.9,0.8,1.7,1.7,1.7l0,0c0.9,0,1.7-0.8,1.7-1.7l0,0
			C165.8,213.3,165.1,212.6,164.2,212.6z"/>
		<circle class="st0" cx="167.9" cy="207.8" r="1.7"/>
		<path class="st0" d="M164.2,225.5L164.2,225.5c-0.9,0-1.7,0.8-1.7,1.7l0,0c0,0.9,0.8,1.7,1.7,1.7l0,0c0.9,0,1.7-0.8,1.7-1.7l0,0
			C165.9,226.3,165.1,225.5,164.2,225.5z"/>
		<circle class="st0" cx="167.9" cy="220.7" r="1.7"/>
		<path class="st0" d="M164.2,238.4L164.2,238.4c-0.9,0-1.7,0.8-1.7,1.7l0,0c0,0.9,0.8,1.7,1.7,1.7l0,0c0.9,0,1.7-0.8,1.7-1.7l0,0
			C165.8,239.2,165.1,238.4,164.2,238.4z"/>
		<circle class="st0" cx="167.9" cy="233.6" r="1.7"/>
		<path class="st0" d="M164.2,251.3L164.2,251.3c-0.9,0-1.7,0.8-1.7,1.7l0,0c0,0.9,0.8,1.7,1.7,1.7l0,0c0.9,0,1.7-0.8,1.7-1.7l0,0
			C165.8,252.1,165.1,251.3,164.2,251.3z"/>
		<path class="st0" d="M167.9,244.9c-0.9,0-1.7,0.7-1.7,1.7s0.7,1.7,1.7,1.7s1.7-0.7,1.7-1.7c0,0,0,0,0,0
			C169.6,245.6,168.8,244.9,167.9,244.9z"/>
		<path class="st0" d="M164.2,264.2L164.2,264.2c-0.9,0-1.7,0.8-1.7,1.7l0,0c0,0.9,0.8,1.7,1.7,1.7l0,0c0.9,0,1.7-0.8,1.7-1.7l0,0
			C165.8,265,165.1,264.2,164.2,264.2z"/>
		<circle class="st0" cx="167.9" cy="259.5" r="1.7"/>
		<path class="st0" d="M164.2,277.1L164.2,277.1c-0.9,0-1.7,0.8-1.7,1.7l0,0c0,0,0,0.1,0,0.1l0.7-0.1l1-0.2l1.6-0.4
			C165.5,277.6,164.9,277.2,164.2,277.1z"/>
		<path class="st0" d="M167.9,270.7c-0.9,0-1.7,0.8-1.7,1.7s0.8,1.7,1.7,1.7c0.9,0,1.7-0.8,1.7-1.7l0,0
			C169.6,271.5,168.8,270.7,167.9,270.7z"/>
		<path class="st0" d="M156.7,160.9L156.7,160.9c-0.9,0-1.7,0.8-1.7,1.7l0,0l0,0c0,0.9,0.8,1.7,1.7,1.7l0,0c0.9,0,1.7-0.8,1.7-1.7
			l0,0C158.4,161.7,157.6,160.9,156.7,160.9z"/>
		<circle class="st0" cx="160.4" cy="156.2" r="1.7"/>
		<path class="st0" d="M156.7,173.9L156.7,173.9c-0.9,0-1.7,0.8-1.7,1.7l0,0c0,0.9,0.8,1.7,1.7,1.7l0,0c0.9,0,1.7-0.8,1.7-1.7l0,0
			C158.4,174.6,157.6,173.9,156.7,173.9z"/>
		<circle class="st0" cx="160.4" cy="169.1" r="1.7"/>
		<path class="st0" d="M156.7,186.8L156.7,186.8c-0.9,0-1.7,0.8-1.7,1.7l0,0c0,0.9,0.8,1.7,1.7,1.7l0,0c0.9,0,1.7-0.8,1.7-1.7l0,0
			C158.4,187.5,157.6,186.8,156.7,186.8z"/>
		<circle class="st0" cx="160.4" cy="182" r="1.7"/>
		<path class="st0" d="M156.7,199.7L156.7,199.7c-0.9,0-1.7,0.8-1.7,1.7l0,0c0,0.9,0.8,1.7,1.7,1.7l0,0c0.9,0,1.7-0.8,1.7-1.7l0,0
			C158.4,200.4,157.6,199.7,156.7,199.7z"/>
		<circle class="st0" cx="160.4" cy="194.9" r="1.7"/>
		<path class="st0" d="M156.7,212.6L156.7,212.6c-0.9,0-1.7,0.8-1.7,1.7l0,0c0,0.9,0.8,1.7,1.7,1.7l0,0l0,0c0.9,0,1.7-0.8,1.7-1.7
			l0,0C158.4,213.3,157.6,212.6,156.7,212.6z"/>
		<circle class="st0" cx="160.4" cy="207.8" r="1.7"/>
		<path class="st0" d="M156.7,225.5L156.7,225.5c-0.9,0-1.7,0.8-1.7,1.7l0,0l0,0c0,0.9,0.8,1.7,1.7,1.7l0,0c0.9,0,1.7-0.8,1.7-1.7
			l0,0C158.4,226.3,157.6,225.5,156.7,225.5z"/>
		<circle class="st0" cx="160.4" cy="220.7" r="1.7"/>
		<path class="st0" d="M156.7,238.4L156.7,238.4c-0.9,0-1.7,0.7-1.7,1.7c0,0,0,0,0,0l0,0c0,0.9,0.8,1.7,1.7,1.7l0,0
			c0.9,0,1.7-0.8,1.7-1.7l0,0C158.4,239.2,157.6,238.4,156.7,238.4z"/>
		<circle class="st0" cx="160.4" cy="233.6" r="1.7"/>
		<path class="st0" d="M156.7,251.3L156.7,251.3c-0.9,0-1.7,0.7-1.7,1.7c0,0,0,0,0,0l0,0c0,0.9,0.8,1.7,1.7,1.7l0,0
			c0.9,0,1.7-0.7,1.7-1.6c0,0,0,0,0,0l0,0C158.4,252.1,157.6,251.3,156.7,251.3z"/>
		<path class="st0" d="M160.4,244.9c-0.9,0-1.7,0.7-1.7,1.7s0.7,1.7,1.7,1.7s1.7-0.7,1.7-1.7c0,0,0,0,0,0
			C162.1,245.6,161.4,244.9,160.4,244.9z"/>
		<path class="st0" d="M156.7,264.2L156.7,264.2c-0.9,0-1.7,0.8-1.7,1.7l0,0c0,0.9,0.8,1.7,1.7,1.7l0,0c0.9,0,1.7-0.8,1.7-1.7l0,0
			C158.4,265,157.6,264.2,156.7,264.2z"/>
		<circle class="st0" cx="160.4" cy="259.5" r="1.7"/>
		<path class="st0" d="M156.7,277.1L156.7,277.1c-0.9,0-1.7,0.8-1.7,1.7l0,0c0,0.7,0.4,1.2,1,1.5l0.7-0.1l1.2-0.2
			c0.3-0.3,0.5-0.7,0.5-1.1l0,0C158.4,277.9,157.7,277.1,156.7,277.1C156.7,277.1,156.7,277.1,156.7,277.1z"/>
		<path class="st0" d="M160.4,270.7c-0.9,0-1.7,0.8-1.7,1.7s0.8,1.7,1.7,1.7c0.9,0,1.7-0.8,1.7-1.7l0,0
			C162.1,271.5,161.4,270.7,160.4,270.7z"/>
		<path class="st0" d="M149.3,149.1l-1.5-0.2c-0.1,0.2-0.2,0.5-0.2,0.8l0,0c0,0.9,0.8,1.7,1.7,1.7l0,0c0.9,0,1.7-0.8,1.7-1.7l0,0
			c0-0.1,0-0.2,0-0.3L149.3,149.1z"/>
		<path class="st0" d="M149.3,160.9L149.3,160.9c-0.9,0-1.7,0.8-1.7,1.7l0,0c0,0.9,0.8,1.7,1.7,1.7l0,0c0.9,0,1.7-0.8,1.7-1.7l0,0
			C150.9,161.7,150.2,160.9,149.3,160.9z"/>
		<circle class="st0" cx="153" cy="156.2" r="1.7"/>
		<path class="st0" d="M156.7,151.4L156.7,151.4c0.5,0,1-0.3,1.3-0.7l-1.3-0.3l-1.6-0.3C155.3,150.9,156,151.4,156.7,151.4z"/>
		<path class="st0" d="M149.3,173.9L149.3,173.9c-0.9,0-1.7,0.8-1.7,1.7l0,0c0,0.9,0.8,1.7,1.7,1.7l0,0c0.9,0,1.7-0.8,1.7-1.7l0,0
			C150.9,174.6,150.2,173.9,149.3,173.9z"/>
		<circle class="st0" cx="153" cy="169.1" r="1.7"/>
		<path class="st0" d="M149.3,186.8L149.3,186.8c-0.9,0-1.7,0.8-1.7,1.7l0,0c0,0.9,0.8,1.7,1.7,1.7l0,0c0.9,0,1.7-0.8,1.7-1.7l0,0
			C150.9,187.5,150.2,186.8,149.3,186.8z"/>
		<circle class="st0" cx="153" cy="182" r="1.7"/>
		<path class="st0" d="M149.3,199.7L149.3,199.7c-0.9,0-1.7,0.8-1.7,1.7l0,0c0,0.9,0.8,1.7,1.7,1.7l0,0c0.9,0,1.7-0.8,1.7-1.7l0,0
			C150.9,200.4,150.2,199.7,149.3,199.7z"/>
		<circle class="st0" cx="153" cy="194.9" r="1.7"/>
		<path class="st0" d="M149.3,212.6L149.3,212.6c-0.9,0-1.7,0.8-1.7,1.7l0,0c0,0.9,0.8,1.7,1.7,1.7l0,0c0.9,0,1.7-0.8,1.7-1.7l0,0
			C150.9,213.3,150.2,212.6,149.3,212.6z"/>
		<circle class="st0" cx="153" cy="207.8" r="1.7"/>
		<path class="st0" d="M149.3,225.5L149.3,225.5c-0.9,0-1.7,0.8-1.7,1.7l0,0c0,0.9,0.8,1.7,1.7,1.7l0,0c0.9,0,1.7-0.8,1.7-1.7l0,0
			C150.9,226.3,150.2,225.5,149.3,225.5z"/>
		<circle class="st0" cx="153" cy="220.7" r="1.7"/>
		<path class="st0" d="M149.3,238.4L149.3,238.4c-0.9,0-1.7,0.8-1.7,1.7l0,0c0,0.9,0.8,1.7,1.7,1.7l0,0c0.9,0,1.7-0.8,1.7-1.7l0,0
			C150.9,239.2,150.2,238.4,149.3,238.4z"/>
		<circle class="st0" cx="153" cy="233.6" r="1.7"/>
		<path class="st0" d="M149.3,251.3L149.3,251.3c-0.9,0-1.7,0.8-1.7,1.7l0,0c0,0.9,0.8,1.7,1.7,1.7l0,0c0.9,0,1.7-0.8,1.7-1.7l0,0
			C150.9,252.1,150.2,251.3,149.3,251.3z"/>
		<path class="st0" d="M153,244.9c-0.9,0-1.7,0.7-1.7,1.7s0.7,1.7,1.7,1.7s1.7-0.7,1.7-1.7c0,0,0,0,0,0
			C154.7,245.6,153.9,244.9,153,244.9z"/>
		<path class="st0" d="M149.3,264.2L149.3,264.2c-0.9,0-1.7,0.8-1.7,1.7l0,0c0,0.9,0.8,1.7,1.7,1.7l0,0c0.9,0,1.7-0.8,1.7-1.7l0,0
			C150.9,265,150.2,264.2,149.3,264.2z"/>
		<circle class="st0" cx="153" cy="259.5" r="1.7"/>
		<path class="st0" d="M149.3,277.1L149.3,277.1c-0.9,0-1.7,0.8-1.7,1.7l0,0c0,0.9,0.8,1.7,1.7,1.7l0,0c0.9,0,1.7-0.8,1.7-1.7l0,0
			C150.9,277.9,150.2,277.1,149.3,277.1z"/>
		<path class="st0" d="M153,270.7c-0.9,0-1.7,0.8-1.7,1.7s0.8,1.7,1.7,1.7c0.9,0,1.7-0.8,1.7-1.7l0,0
			C154.7,271.5,153.9,270.7,153,270.7z"/>
		<path class="st0" d="M142.5,148.2l-0.7-0.1h-0.3c-0.8,0.1-1.4,0.8-1.4,1.6l0,0c0,0.9,0.8,1.7,1.7,1.7l0,0l0,0
			c0.9,0,1.7-0.8,1.7-1.7l0,0C143.5,149.1,143.1,148.5,142.5,148.2z"/>
		<path class="st0" d="M141.8,160.9L141.8,160.9c-0.9,0-1.7,0.8-1.7,1.7l0,0l0,0c0,0.9,0.8,1.7,1.7,1.7l0,0c0.9,0,1.7-0.8,1.7-1.7
			l0,0C143.5,161.7,142.7,160.9,141.8,160.9z"/>
		<path class="st0" d="M145.5,154.5c-0.9,0-1.7,0.8-1.7,1.7s0.8,1.7,1.7,1.7c0.9,0,1.7-0.8,1.7-1.7
			C147.2,155.2,146.5,154.5,145.5,154.5C145.5,154.5,145.5,154.5,145.5,154.5z"/>
		<path class="st0" d="M141.8,173.9L141.8,173.9c-0.9,0-1.7,0.8-1.7,1.7l0,0c0,0.9,0.8,1.7,1.7,1.7l0,0c0.9,0,1.7-0.8,1.7-1.7l0,0
			C143.5,174.6,142.7,173.9,141.8,173.9z"/>
		<path class="st0" d="M145.5,167.4c-0.9,0-1.7,0.8-1.7,1.7s0.8,1.7,1.7,1.7c0.9,0,1.7-0.8,1.7-1.7
			C147.2,168.2,146.5,167.4,145.5,167.4C145.5,167.4,145.5,167.4,145.5,167.4z"/>
		<path class="st0" d="M141.8,186.8L141.8,186.8c-0.9,0-1.7,0.8-1.7,1.7l0,0c0,0.9,0.8,1.7,1.7,1.7l0,0c0.9,0,1.7-0.8,1.7-1.7l0,0
			C143.5,187.5,142.7,186.8,141.8,186.8z"/>
		<path class="st0" d="M145.5,180.3c-0.9,0-1.7,0.8-1.7,1.7s0.8,1.7,1.7,1.7s1.7-0.8,1.7-1.7c0,0,0,0,0,0
			C147.2,181.1,146.5,180.3,145.5,180.3C145.5,180.3,145.5,180.3,145.5,180.3z"/>
		<path class="st0" d="M141.8,199.7L141.8,199.7c-0.9,0-1.7,0.8-1.7,1.7l0,0c0,0.9,0.8,1.7,1.7,1.7l0,0c0.9,0,1.7-0.8,1.7-1.7l0,0
			C143.5,200.4,142.7,199.7,141.8,199.7z"/>
		<path class="st0" d="M145.5,193.2c-0.9,0-1.7,0.8-1.7,1.7s0.8,1.7,1.7,1.7c0.9,0,1.7-0.8,1.7-1.7S146.5,193.2,145.5,193.2
			L145.5,193.2z"/>
		<path class="st0" d="M141.8,212.6L141.8,212.6c-0.9,0-1.7,0.8-1.7,1.7l0,0c0,0.9,0.8,1.7,1.7,1.7l0,0l0,0c0.9,0,1.7-0.8,1.7-1.7
			l0,0C143.5,213.3,142.7,212.6,141.8,212.6z"/>
		<path class="st0" d="M145.5,206.1c-0.9,0-1.7,0.8-1.7,1.7s0.8,1.7,1.7,1.7c0.9,0,1.7-0.8,1.7-1.7
			C147.2,206.9,146.5,206.1,145.5,206.1C145.5,206.1,145.5,206.1,145.5,206.1z"/>
		<path class="st0" d="M141.8,225.5L141.8,225.5c-0.9,0-1.7,0.8-1.7,1.7l0,0l0,0c0,0.9,0.8,1.7,1.7,1.7l0,0c0.9,0,1.7-0.8,1.7-1.7
			l0,0C143.5,226.3,142.7,225.5,141.8,225.5z"/>
		<path class="st0" d="M145.5,219.1c-0.9,0-1.7,0.8-1.7,1.7s0.8,1.7,1.7,1.7c0.9,0,1.7-0.8,1.7-1.7
			C147.2,219.8,146.5,219,145.5,219.1C145.5,219,145.5,219,145.5,219.1z"/>
		<path class="st0" d="M141.8,238.4L141.8,238.4c-0.9,0-1.7,0.8-1.7,1.7l0,0c0,0.9,0.8,1.7,1.7,1.7l0,0c0.9,0,1.7-0.8,1.7-1.7l0,0
			C143.5,239.2,142.7,238.4,141.8,238.4z"/>
		<path class="st0" d="M145.5,232c-0.9,0-1.7,0.8-1.7,1.7s0.8,1.7,1.7,1.7c0.9,0,1.7-0.8,1.7-1.7C147.2,232.8,146.5,232,145.5,232
			C145.5,232,145.5,232,145.5,232z"/>
		<path class="st0" d="M141.8,251.3L141.8,251.3c-0.9,0-1.7,0.8-1.7,1.7l0,0c0,0.9,0.8,1.7,1.7,1.7l0,0c0.9,0,1.7-0.8,1.7-1.7l0,0
			C143.5,252.1,142.7,251.3,141.8,251.3z"/>
		<path class="st0" d="M145.5,244.9c-0.9,0-1.7,0.8-1.7,1.7s0.8,1.7,1.7,1.7s1.7-0.8,1.7-1.7c0,0,0,0,0,0
			C147.2,245.6,146.5,244.9,145.5,244.9C145.5,244.9,145.5,244.9,145.5,244.9z"/>
		<path class="st0" d="M141.8,264.2L141.8,264.2c-0.9,0-1.7,0.8-1.7,1.7l0,0c0,0.9,0.8,1.7,1.7,1.7l0,0c0.9,0,1.7-0.8,1.7-1.7l0,0
			C143.5,265,142.7,264.2,141.8,264.2z"/>
		<path class="st0" d="M145.5,257.8c-0.9,0-1.7,0.8-1.7,1.7s0.8,1.7,1.7,1.7c0.9,0,1.7-0.8,1.7-1.7S146.5,257.8,145.5,257.8
			L145.5,257.8z"/>
		<path class="st0" d="M141.8,277.1L141.8,277.1c-0.9,0-1.7,0.8-1.7,1.7l0,0c0,0.9,0.8,1.7,1.7,1.7l0,0l0,0c0.9,0,1.7-0.8,1.7-1.7
			l0,0C143.5,277.9,142.7,277.1,141.8,277.1z"/>
		<path class="st0" d="M145.5,270.7c-0.9,0-1.7,0.8-1.7,1.7s0.8,1.7,1.7,1.7c0.9,0,1.7-0.8,1.7-1.7
			C147.2,271.5,146.5,270.7,145.5,270.7C145.5,270.7,145.5,270.7,145.5,270.7z"/>
		<path class="st0" d="M134.4,148L134.4,148c-0.9,0-1.7,0.8-1.7,1.7l0,0c0,0.9,0.8,1.7,1.7,1.7l0,0c0.9,0,1.7-0.8,1.7-1.7l0,0
			C136,148.8,135.3,148,134.4,148z"/>
		<path class="st0" d="M134.4,160.9L134.4,160.9c-0.9,0-1.7,0.8-1.7,1.7l0,0c0,0.9,0.8,1.7,1.7,1.7l0,0c0.9,0,1.7-0.8,1.7-1.7l0,0
			C136,161.7,135.3,160.9,134.4,160.9z"/>
		<circle class="st0" cx="138.1" cy="156.2" r="1.7"/>
		<path class="st0" d="M134.4,173.9L134.4,173.9c-0.9,0-1.7,0.8-1.7,1.7l0,0c0,0.9,0.8,1.7,1.7,1.7l0,0c0.9,0,1.7-0.8,1.7-1.7l0,0
			C136,174.6,135.3,173.9,134.4,173.9z"/>
		<circle class="st0" cx="138.1" cy="169.1" r="1.7"/>
		<path class="st0" d="M134.4,186.8L134.4,186.8c-0.9,0-1.7,0.8-1.7,1.7l0,0c0,0.9,0.8,1.7,1.7,1.7l0,0c0.9,0,1.7-0.8,1.7-1.7l0,0
			C136,187.5,135.3,186.8,134.4,186.8z"/>
		<circle class="st0" cx="138.1" cy="182" r="1.7"/>
		<path class="st0" d="M134.4,199.7L134.4,199.7c-0.9,0-1.7,0.8-1.7,1.7l0,0c0,0.9,0.8,1.7,1.7,1.7l0,0c0.9,0,1.7-0.8,1.7-1.7l0,0
			C136,200.4,135.3,199.7,134.4,199.7z"/>
		<circle class="st0" cx="138.1" cy="194.9" r="1.7"/>
		<path class="st0" d="M134.4,212.6L134.4,212.6c-0.9,0-1.7,0.8-1.7,1.7l0,0c0,0.9,0.8,1.7,1.7,1.7l0,0c0.9,0,1.7-0.8,1.7-1.7l0,0
			C136,213.3,135.3,212.6,134.4,212.6z"/>
		<circle class="st0" cx="138.1" cy="207.8" r="1.7"/>
		<path class="st0" d="M134.4,225.5L134.4,225.5c-0.9,0-1.7,0.8-1.7,1.7l0,0c0,0.9,0.8,1.7,1.7,1.7l0,0c0.9,0,1.7-0.8,1.7-1.7l0,0
			C136,226.3,135.3,225.5,134.4,225.5z"/>
		<circle class="st0" cx="138.1" cy="220.7" r="1.7"/>
		<path class="st0" d="M134.4,238.4L134.4,238.4c-0.9,0-1.7,0.8-1.7,1.7l0,0c0,0.9,0.8,1.7,1.7,1.7l0,0c0.9,0,1.7-0.8,1.6-1.7l0,0
			C136,239.2,135.3,238.4,134.4,238.4z"/>
		<circle class="st0" cx="138.1" cy="233.6" r="1.7"/>
		<path class="st0" d="M134.4,251.3L134.4,251.3c-0.9,0-1.7,0.8-1.7,1.7l0,0c0,0.9,0.8,1.7,1.7,1.7l0,0c0.9,0,1.7-0.8,1.6-1.7l0,0
			C136,252.1,135.3,251.3,134.4,251.3z"/>
		<path class="st0" d="M138.1,244.9c-0.9,0-1.7,0.7-1.7,1.7s0.7,1.7,1.7,1.7s1.7-0.7,1.7-1.7c0,0,0,0,0,0
			C139.8,245.6,139,244.9,138.1,244.9z"/>
		<path class="st0" d="M134.4,264.2L134.4,264.2c-0.9,0-1.7,0.8-1.7,1.7l0,0c0,0.9,0.8,1.7,1.7,1.7l0,0c0.9,0,1.7-0.8,1.7-1.7l0,0
			C136,265,135.3,264.2,134.4,264.2z"/>
		<circle class="st0" cx="138.1" cy="259.5" r="1.7"/>
		<path class="st0" d="M134.4,277.1L134.4,277.1c-0.9,0-1.7,0.8-1.7,1.7l0,0c0,0.9,0.8,1.7,1.7,1.7l0,0c0.9,0,1.7-0.8,1.7-1.7l0,0
			C136,277.9,135.3,277.1,134.4,277.1z"/>
		<path class="st0" d="M138.1,270.7c-0.9,0-1.7,0.8-1.7,1.7s0.8,1.7,1.7,1.7c0.9,0,1.7-0.8,1.7-1.7l0,0
			C139.8,271.5,139,270.7,138.1,270.7z"/>
		<path class="st0" d="M126.9,148L126.9,148c-0.9,0-1.7,0.8-1.7,1.7l0,0c0,0.9,0.8,1.7,1.7,1.7c0,0,0,0,0,0l0,0
			c0.9,0,1.7-0.8,1.7-1.7l0,0C128.6,148.8,127.8,148,126.9,148z"/>
		<path class="st0" d="M126.9,160.9L126.9,160.9c-0.9,0-1.7,0.8-1.7,1.7l0,0l0,0c0,0.9,0.8,1.7,1.7,1.7l0,0c0.9,0,1.7-0.8,1.7-1.7
			l0,0C128.6,161.7,127.8,160.9,126.9,160.9z"/>
		<circle class="st0" cx="130.6" cy="156.2" r="1.7"/>
		<path class="st0" d="M126.9,173.9L126.9,173.9c-0.9,0-1.7,0.8-1.7,1.7l0,0c0,0.9,0.8,1.7,1.7,1.7l0,0c0.9,0,1.7-0.8,1.7-1.7l0,0
			C128.6,174.6,127.8,173.9,126.9,173.9z"/>
		<circle class="st0" cx="130.6" cy="169.1" r="1.7"/>
		<path class="st0" d="M126.9,186.8L126.9,186.8c-0.9,0-1.7,0.8-1.7,1.7l0,0c0,0.9,0.8,1.7,1.7,1.7l0,0c0.9,0,1.7-0.8,1.7-1.7l0,0
			C128.6,187.5,127.8,186.8,126.9,186.8z"/>
		<circle class="st0" cx="130.6" cy="182" r="1.7"/>
		<path class="st0" d="M126.9,199.7L126.9,199.7c-0.9,0-1.7,0.8-1.7,1.7l0,0c0,0.9,0.8,1.6,1.7,1.6l0,0c0.9,0,1.7-0.8,1.7-1.7l0,0
			C128.6,200.4,127.8,199.7,126.9,199.7z"/>
		<circle class="st0" cx="130.6" cy="194.9" r="1.7"/>
		<path class="st0" d="M126.9,212.6L126.9,212.6c-0.9,0-1.7,0.8-1.7,1.7l0,0c0,0.9,0.7,1.7,1.6,1.7c0,0,0,0,0,0l0,0
			c0.9,0,1.7-0.8,1.7-1.7l0,0C128.6,213.4,127.9,212.6,126.9,212.6C126.9,212.6,126.9,212.6,126.9,212.6z"/>
		<circle class="st0" cx="130.6" cy="207.8" r="1.7"/>
		<path class="st0" d="M126.9,225.5L126.9,225.5c-0.9,0-1.7,0.8-1.7,1.7l0,0l0,0c0,0.9,0.8,1.7,1.7,1.7l0,0c0.9,0,1.7-0.8,1.7-1.7
			l0,0C128.6,226.3,127.8,225.5,126.9,225.5z"/>
		<circle class="st0" cx="130.6" cy="220.7" r="1.7"/>
		<path class="st0" d="M126.9,238.4L126.9,238.4c-0.9,0-1.7,0.8-1.7,1.7l0,0c0,0.9,0.8,1.7,1.7,1.7l0,0c0.9,0,1.7-0.8,1.7-1.7l0,0
			C128.6,239.2,127.8,238.4,126.9,238.4z"/>
		<circle class="st0" cx="130.6" cy="233.6" r="1.7"/>
		<path class="st0" d="M126.9,251.3L126.9,251.3c-0.9,0-1.7,0.8-1.7,1.7l0,0c0,0.9,0.8,1.7,1.7,1.7l0,0c0.9,0,1.7-0.8,1.7-1.7l0,0
			C128.6,252.1,127.8,251.3,126.9,251.3z"/>
		<path class="st0" d="M130.6,244.9c-0.9,0-1.7,0.8-1.7,1.7s0.8,1.7,1.7,1.7s1.7-0.8,1.7-1.7c0,0,0,0,0,0
			C132.3,245.6,131.6,244.9,130.6,244.9C130.6,244.9,130.6,244.9,130.6,244.9z"/>
		<path class="st0" d="M126.9,264.2L126.9,264.2c-0.9,0-1.7,0.8-1.7,1.7l0,0c0,0.9,0.8,1.7,1.7,1.7l0,0c0.9,0,1.7-0.8,1.7-1.7l0,0
			C128.6,265,127.8,264.2,126.9,264.2z"/>
		<circle class="st0" cx="130.6" cy="259.5" r="1.7"/>
		<path class="st0" d="M126.9,277.1L126.9,277.1c-0.9,0-1.7,0.8-1.7,1.7l0,0c0,0.9,0.8,1.7,1.7,1.7c0,0,0,0,0,0l0,0
			c0.9,0,1.7-0.8,1.7-1.7l0,0C128.6,277.9,127.8,277.1,126.9,277.1z"/>
		<path class="st0" d="M130.6,270.7c-0.9,0-1.7,0.8-1.7,1.7s0.8,1.7,1.7,1.7c0.9,0,1.7-0.8,1.7-1.7
			C132.3,271.5,131.6,270.7,130.6,270.7C130.6,270.7,130.6,270.7,130.6,270.7z"/>
		<path class="st0" d="M119.4,148L119.4,148c-0.9,0-1.7,0.8-1.7,1.7l0,0c0,0.9,0.8,1.7,1.7,1.7l0,0c0.9,0,1.7-0.8,1.7-1.7l0,0
			C121.1,148.8,120.4,148,119.4,148z"/>
		<path class="st0" d="M119.4,160.9L119.4,160.9c-0.9,0-1.7,0.8-1.7,1.7l0,0c0,0.9,0.8,1.7,1.7,1.7l0,0c0.9,0,1.7-0.8,1.7-1.7l0,0
			C121.1,161.7,120.4,160.9,119.4,160.9z"/>
		<circle class="st0" cx="123.2" cy="156.2" r="1.7"/>
		<path class="st0" d="M119.4,173.9L119.4,173.9c-0.9,0-1.7,0.8-1.7,1.7l0,0c0,0.9,0.8,1.7,1.7,1.7l0,0c0.9,0,1.7-0.8,1.7-1.7l0,0
			C121.1,174.6,120.4,173.9,119.4,173.9z"/>
		<circle class="st0" cx="123.2" cy="169.1" r="1.7"/>
		<path class="st0" d="M119.4,186.8L119.4,186.8c-0.9,0-1.7,0.8-1.7,1.7l0,0c0,0.9,0.8,1.7,1.7,1.7l0,0c0.9,0,1.7-0.8,1.7-1.7l0,0
			C121.1,187.5,120.4,186.8,119.4,186.8z"/>
		<circle class="st0" cx="123.2" cy="182" r="1.7"/>
		<path class="st0" d="M119.4,199.7L119.4,199.7c-0.9,0-1.7,0.8-1.7,1.7l0,0c0,0.9,0.8,1.7,1.7,1.7l0,0c0.9,0,1.7-0.8,1.7-1.7l0,0
			C121.1,200.4,120.4,199.7,119.4,199.7z"/>
		<circle class="st0" cx="123.2" cy="194.9" r="1.7"/>
		<path class="st0" d="M119.4,212.6L119.4,212.6c-0.9,0-1.7,0.8-1.7,1.7l0,0c0,0.9,0.8,1.7,1.7,1.7l0,0c0.9,0,1.7-0.8,1.7-1.7l0,0
			C121.1,213.3,120.4,212.6,119.4,212.6z"/>
		<circle class="st0" cx="123.2" cy="207.8" r="1.7"/>
		<path class="st0" d="M119.4,225.5L119.4,225.5c-0.9,0-1.7,0.8-1.7,1.7l0,0c0,0.9,0.8,1.7,1.7,1.7l0,0c0.9,0,1.7-0.8,1.7-1.7l0,0
			C121.1,226.3,120.4,225.5,119.4,225.5z"/>
		<circle class="st0" cx="123.2" cy="220.7" r="1.7"/>
		<path class="st0" d="M119.4,238.4L119.4,238.4c-0.9,0-1.7,0.8-1.7,1.7l0,0c0,0.9,0.8,1.7,1.7,1.7l0,0c0.9,0,1.7-0.8,1.7-1.7l0,0
			C121.1,239.2,120.4,238.4,119.4,238.4z"/>
		<circle class="st0" cx="123.2" cy="233.6" r="1.7"/>
		<path class="st0" d="M119.4,251.3L119.4,251.3c-0.9,0-1.7,0.8-1.7,1.7l0,0c0,0.9,0.8,1.7,1.7,1.7l0,0c0.9,0,1.7-0.8,1.7-1.7l0,0
			C121.1,252.1,120.4,251.3,119.4,251.3z"/>
		<path class="st0" d="M123.2,244.9c-0.9,0-1.7,0.7-1.7,1.7c0,0.9,0.7,1.7,1.7,1.7c0.9,0,1.7-0.7,1.7-1.7c0,0,0,0,0,0
			C124.8,245.6,124.1,244.9,123.2,244.9z"/>
		<path class="st0" d="M119.4,264.2L119.4,264.2c-0.9,0-1.7,0.8-1.7,1.7l0,0c0,0.9,0.8,1.7,1.7,1.7l0,0c0.9,0,1.7-0.8,1.7-1.7l0,0
			C121.1,265,120.4,264.2,119.4,264.2z"/>
		<circle class="st0" cx="123.2" cy="259.5" r="1.7"/>
		<path class="st0" d="M119.4,277.1L119.4,277.1c-0.9,0-1.7,0.8-1.7,1.7l0,0c0,0.9,0.8,1.7,1.7,1.7l0,0c0.9,0,1.7-0.8,1.7-1.7l0,0
			C121.1,277.9,120.4,277.1,119.4,277.1z"/>
		<path class="st0" d="M123.2,270.7c-0.9,0-1.7,0.8-1.7,1.7c0,0.9,0.8,1.7,1.7,1.7s1.7-0.8,1.7-1.7l0,0
			C124.8,271.5,124.1,270.7,123.2,270.7z"/>
		<path class="st0" d="M122.4,283.8h1.4c-0.2-0.1-0.5-0.2-0.7-0.1C122.9,283.6,122.7,283.7,122.4,283.8z"/>
		<path class="st0" d="M112,148L112,148c-0.9,0-1.7,0.8-1.7,1.7l0,0c0,0.9,0.7,1.7,1.7,1.7c0,0,0,0,0,0l0,0c0.9,0,1.7-0.8,1.7-1.7
			l0,0C113.7,148.8,113,148,112,148C112,148,112,148,112,148z"/>
		<path class="st0" d="M112,160.9L112,160.9c-0.9,0-1.7,0.8-1.7,1.7l0,0l0,0c0,0.9,0.8,1.7,1.7,1.7l0,0c0.9,0,1.7-0.8,1.7-1.7l0,0
			C113.7,161.7,112.9,160.9,112,160.9z"/>
		<circle class="st0" cx="115.7" cy="156.2" r="1.7"/>
		<path class="st0" d="M112,173.9L112,173.9c-0.9,0-1.7,0.8-1.7,1.7l0,0c0,0.9,0.8,1.7,1.7,1.7l0,0c0.9,0,1.7-0.8,1.7-1.7l0,0
			C113.7,174.6,112.9,173.9,112,173.9z"/>
		<circle class="st0" cx="115.7" cy="169.1" r="1.7"/>
		<path class="st0" d="M112,186.8L112,186.8c-0.9,0-1.7,0.8-1.7,1.7l0,0c0,0.9,0.8,1.7,1.7,1.7l0,0c0.9,0,1.7-0.8,1.7-1.7l0,0
			C113.7,187.5,112.9,186.8,112,186.8z"/>
		<circle class="st0" cx="115.7" cy="182" r="1.7"/>
		<path class="st0" d="M112,199.7L112,199.7c-0.9,0-1.7,0.8-1.7,1.7l0,0c0,0.9,0.8,1.6,1.7,1.6l0,0c0.9,0,1.7-0.8,1.7-1.7l0,0
			C113.7,200.4,112.9,199.7,112,199.7z"/>
		<circle class="st0" cx="115.7" cy="194.9" r="1.7"/>
		<path class="st0" d="M112,212.6L112,212.6c-0.9,0-1.7,0.8-1.7,1.7l0,0c0,0.9,0.7,1.7,1.6,1.7c0,0,0,0,0,0l0,0
			c0.9,0,1.7-0.8,1.7-1.7l0,0C113.7,213.4,113,212.6,112,212.6C112,212.6,112,212.6,112,212.6z"/>
		<circle class="st0" cx="115.7" cy="207.8" r="1.7"/>
		<path class="st0" d="M112,225.5L112,225.5c-0.9,0-1.7,0.8-1.7,1.7l0,0l0,0c0,0.9,0.8,1.7,1.7,1.7l0,0c0.9,0,1.7-0.8,1.7-1.7l0,0
			C113.7,226.3,112.9,225.5,112,225.5z"/>
		<circle class="st0" cx="115.7" cy="220.7" r="1.7"/>
		<path class="st0" d="M112,238.4L112,238.4c-0.9,0-1.7,0.8-1.7,1.7l0,0c0,0.9,0.8,1.7,1.7,1.7l0,0c0.9,0,1.7-0.8,1.7-1.7l0,0
			C113.7,239.2,112.9,238.4,112,238.4z"/>
		<circle class="st0" cx="115.7" cy="233.6" r="1.7"/>
		<path class="st0" d="M112,251.3L112,251.3c-0.9,0-1.7,0.7-1.7,1.7l0,0c0,0.9,0.8,1.7,1.7,1.7l0,0c0.9,0,1.7-0.8,1.7-1.7l0,0
			C113.7,252.1,112.9,251.3,112,251.3z"/>
		<path class="st0" d="M115.7,244.9c-0.9,0-1.7,0.8-1.7,1.7c0,0.9,0.8,1.7,1.7,1.7c0.9,0,1.7-0.8,1.7-1.7c0,0,0,0,0,0
			C117.4,245.6,116.6,244.9,115.7,244.9z"/>
		<path class="st0" d="M112,264.2L112,264.2c-0.9,0-1.7,0.8-1.7,1.7l0,0c0,0.9,0.8,1.7,1.7,1.7l0,0c0.9,0,1.7-0.8,1.7-1.7l0,0
			C113.7,265,112.9,264.2,112,264.2C112,264.2,112,264.2,112,264.2z"/>
		<circle class="st0" cx="115.7" cy="259.5" r="1.7"/>
		<path class="st0" d="M112,277.1L112,277.1c-0.9,0-1.7,0.8-1.7,1.7l0,0c0,0.9,0.8,1.7,1.7,1.7c0,0,0,0,0,0l0,0
			c0.9,0,1.7-0.8,1.7-1.7l0,0C113.7,277.9,112.9,277.1,112,277.1z"/>
		<path class="st0" d="M115.7,270.7c-0.9,0-1.7,0.8-1.7,1.7s0.8,1.7,1.7,1.7c0.9,0,1.7-0.8,1.7-1.7
			C117.4,271.5,116.6,270.7,115.7,270.7C115.7,270.7,115.7,270.7,115.7,270.7z"/>
		<path class="st0" d="M115,283.8h1.5c-0.2-0.1-0.5-0.2-0.8-0.2C115.5,283.6,115.2,283.7,115,283.8z"/>
		<path class="st0" d="M104.5,148L104.5,148c-0.9,0-1.7,0.8-1.7,1.7l0,0c0,0.9,0.8,1.7,1.7,1.7l0,0c0.9,0,1.7-0.8,1.7-1.7l0,0
			C106.2,148.8,105.5,148,104.5,148z"/>
		<path class="st0" d="M104.5,160.9L104.5,160.9c-0.9,0-1.7,0.8-1.7,1.7l0,0c0,0.9,0.8,1.7,1.7,1.7l0,0c0.9,0,1.7-0.8,1.7-1.7l0,0
			C106.2,161.7,105.5,160.9,104.5,160.9z"/>
		<circle class="st0" cx="108.3" cy="156.2" r="1.7"/>
		<path class="st0" d="M104.5,173.9L104.5,173.9c-0.9,0-1.7,0.8-1.7,1.7l0,0c0,0.9,0.8,1.7,1.7,1.7l0,0c0.9,0,1.7-0.8,1.7-1.7l0,0
			C106.2,174.6,105.5,173.9,104.5,173.9z"/>
		<circle class="st0" cx="108.3" cy="169.1" r="1.7"/>
		<path class="st0" d="M104.5,186.8L104.5,186.8c-0.9,0-1.7,0.8-1.7,1.7l0,0c0,0.9,0.8,1.7,1.7,1.7l0,0c0.9,0,1.7-0.8,1.7-1.7l0,0
			C106.2,187.5,105.5,186.8,104.5,186.8z"/>
		<circle class="st0" cx="108.3" cy="182" r="1.7"/>
		<path class="st0" d="M104.5,199.7L104.5,199.7c-0.9,0-1.7,0.8-1.7,1.7l0,0c0,0.9,0.8,1.7,1.7,1.7l0,0c0.9,0,1.7-0.8,1.7-1.7l0,0
			C106.2,200.4,105.5,199.7,104.5,199.7z"/>
		<circle class="st0" cx="108.3" cy="194.9" r="1.7"/>
		<path class="st0" d="M104.5,212.6L104.5,212.6c-0.9,0-1.7,0.8-1.7,1.7l0,0c0,0.9,0.8,1.7,1.7,1.7l0,0c0.9,0,1.7-0.8,1.7-1.7l0,0
			C106.2,213.3,105.5,212.6,104.5,212.6z"/>
		<circle class="st0" cx="108.3" cy="207.8" r="1.7"/>
		<path class="st0" d="M104.5,225.5L104.5,225.5c-0.9,0-1.7,0.8-1.7,1.7l0,0c0,0.9,0.8,1.7,1.7,1.7l0,0c0.9,0,1.7-0.8,1.7-1.7l0,0
			C106.2,226.3,105.5,225.5,104.5,225.5z"/>
		<circle class="st0" cx="108.3" cy="220.7" r="1.7"/>
		<path class="st0" d="M104.5,238.4L104.5,238.4c-0.9,0-1.7,0.8-1.7,1.7l0,0c0,0.9,0.8,1.7,1.7,1.7l0,0c0.9,0,1.7-0.8,1.7-1.7l0,0
			C106.2,239.2,105.5,238.4,104.5,238.4z"/>
		<circle class="st0" cx="108.3" cy="233.6" r="1.7"/>
		<path class="st0" d="M104.5,251.3L104.5,251.3c-0.9,0-1.7,0.8-1.7,1.7l0,0c0,0.9,0.8,1.7,1.7,1.7l0,0c0.9,0,1.7-0.8,1.7-1.7l0,0
			C106.2,252.1,105.5,251.3,104.5,251.3z"/>
		<path class="st0" d="M108.3,244.9c-0.9,0-1.7,0.7-1.7,1.7c0,0.9,0.7,1.7,1.7,1.7c0.9,0,1.7-0.7,1.7-1.7c0,0,0,0,0,0
			C109.9,245.6,109.2,244.9,108.3,244.9z"/>
		<path class="st0" d="M104.5,264.2L104.5,264.2c-0.9,0-1.7,0.8-1.7,1.7l0,0c0,0.9,0.8,1.7,1.7,1.7l0,0c0.9,0,1.7-0.8,1.7-1.7l0,0
			C106.2,265,105.5,264.2,104.5,264.2z"/>
		<circle class="st0" cx="108.3" cy="259.5" r="1.7"/>
		<path class="st0" d="M104.5,277.1L104.5,277.1c-0.9,0-1.7,0.8-1.7,1.7l0,0c0,0.9,0.8,1.7,1.7,1.7l0,0c0.9,0,1.7-0.8,1.7-1.7l0,0
			C106.2,277.9,105.5,277.1,104.5,277.1z"/>
		<path class="st0" d="M108.3,270.7c-0.9,0-1.7,0.8-1.7,1.7c0,0.9,0.8,1.7,1.7,1.7s1.7-0.8,1.7-1.7l0,0
			C109.9,271.5,109.2,270.7,108.3,270.7z"/>
		<path class="st0" d="M97.1,148L97.1,148c-0.9,0-1.7,0.8-1.7,1.7l0,0c0,0.9,0.8,1.7,1.7,1.7l0,0c0.9,0,1.7-0.8,1.7-1.7l0,0
			C98.8,148.8,98,148,97.1,148z"/>
		<path class="st0" d="M97.1,160.9L97.1,160.9c-0.9,0-1.7,0.8-1.7,1.7l0,0c0,0.9,0.8,1.7,1.7,1.7l0,0c0.9,0,1.7-0.8,1.7-1.7l0,0
			C98.8,161.7,98,160.9,97.1,160.9z"/>
		<path class="st0" d="M100.8,154.5c-0.9,0-1.7,0.8-1.7,1.7s0.8,1.7,1.7,1.7c0.9,0,1.7-0.8,1.7-1.7
			C102.5,155.2,101.7,154.5,100.8,154.5C100.8,154.5,100.8,154.5,100.8,154.5z"/>
		<path class="st0" d="M97.1,173.9L97.1,173.9c-0.9,0-1.7,0.8-1.7,1.7l0,0c0,0.9,0.8,1.7,1.7,1.7l0,0c0.9,0,1.7-0.8,1.7-1.7l0,0
			C98.8,174.6,98,173.9,97.1,173.9z"/>
		<path class="st0" d="M100.8,167.4c-0.9,0-1.7,0.8-1.7,1.7s0.8,1.7,1.7,1.7c0.9,0,1.7-0.8,1.7-1.7
			C102.5,168.2,101.7,167.4,100.8,167.4C100.8,167.4,100.8,167.4,100.8,167.4z"/>
		<path class="st0" d="M97.1,186.8L97.1,186.8c-0.9,0-1.7,0.8-1.7,1.7l0,0c0,0.9,0.8,1.7,1.7,1.7l0,0c0.9,0,1.7-0.8,1.7-1.7l0,0
			C98.8,187.5,98,186.8,97.1,186.8z"/>
		<path class="st0" d="M100.8,180.3c-0.9,0-1.7,0.8-1.7,1.7c0,0.9,0.8,1.7,1.7,1.7c0.9,0,1.7-0.8,1.7-1.7c0,0,0,0,0,0
			C102.5,181.1,101.7,180.3,100.8,180.3z"/>
		<path class="st0" d="M97.1,199.7L97.1,199.7c-0.9,0-1.7,0.8-1.7,1.7l0,0c0,0.9,0.8,1.6,1.7,1.6l0,0c0.9,0,1.7-0.8,1.7-1.7l0,0
			C98.7,200.4,98,199.7,97.1,199.7z"/>
		<path class="st0" d="M100.8,193.2c-0.9,0-1.7,0.8-1.7,1.7c0,0.9,0.8,1.7,1.7,1.7c0.9,0,1.7-0.8,1.7-1.7S101.7,193.2,100.8,193.2
			C100.8,193.2,100.8,193.2,100.8,193.2z"/>
		<path class="st0" d="M97.1,212.6L97.1,212.6c-0.9,0-1.7,0.8-1.7,1.7l0,0c0,0.9,0.7,1.7,1.6,1.7c0,0,0,0,0,0l0,0
			c0.9,0,1.7-0.8,1.7-1.7l0,0C98.8,213.4,98,212.6,97.1,212.6C97.1,212.6,97.1,212.6,97.1,212.6z"/>
		<path class="st0" d="M100.8,206.1c-0.9,0-1.7,0.8-1.7,1.7s0.8,1.7,1.7,1.7c0.9,0,1.7-0.8,1.7-1.7
			C102.5,206.9,101.7,206.1,100.8,206.1C100.8,206.1,100.8,206.1,100.8,206.1z"/>
		<path class="st0" d="M97.1,225.5L97.1,225.5c-0.9,0-1.7,0.8-1.7,1.7l0,0c0,0.9,0.8,1.7,1.7,1.7l0,0c0.9,0,1.7-0.8,1.7-1.7l0,0
			C98.8,226.3,98,225.5,97.1,225.5z"/>
		<path class="st0" d="M100.8,219.1c-0.9,0-1.7,0.8-1.7,1.7s0.8,1.7,1.7,1.7c0.9,0,1.7-0.8,1.7-1.7
			C102.5,219.8,101.7,219,100.8,219.1C100.8,219,100.8,219,100.8,219.1z"/>
		<path class="st0" d="M97.1,238.4L97.1,238.4c-0.9,0-1.7,0.8-1.7,1.7l0,0c0,0.9,0.8,1.7,1.7,1.7l0,0c0.9,0,1.7-0.8,1.7-1.7l0,0
			C98.8,239.2,98,238.4,97.1,238.4z"/>
		<path class="st0" d="M100.8,232c-0.9,0-1.7,0.8-1.7,1.7s0.8,1.7,1.7,1.7c0.9,0,1.7-0.8,1.7-1.7C102.5,232.8,101.7,232,100.8,232
			C100.8,232,100.8,232,100.8,232z"/>
		<path class="st0" d="M97.1,251.3L97.1,251.3c-0.9,0-1.7,0.7-1.7,1.7l0,0c0,0.9,0.8,1.7,1.7,1.7l0,0c0.9,0,1.7-0.8,1.7-1.7l0,0
			C98.8,252.1,98,251.3,97.1,251.3z"/>
		<path class="st0" d="M100.8,244.9c-0.9,0-1.7,0.8-1.7,1.7c0,0.9,0.8,1.7,1.7,1.7c0.9,0,1.7-0.8,1.7-1.7c0,0,0,0,0,0
			C102.5,245.6,101.7,244.9,100.8,244.9z"/>
		<path class="st0" d="M97.1,264.2L97.1,264.2c-0.9,0-1.7,0.8-1.7,1.7l0,0c0,0.9,0.8,1.7,1.7,1.7l0,0c0.9,0,1.7-0.8,1.7-1.7l0,0
			C98.8,265,98,264.2,97.1,264.2z"/>
		<path class="st0" d="M100.8,257.8c-0.9,0-1.7,0.8-1.7,1.7c0,0.9,0.8,1.7,1.7,1.7c0.9,0,1.7-0.8,1.7-1.7S101.7,257.8,100.8,257.8
			C100.8,257.8,100.8,257.8,100.8,257.8z"/>
		<path class="st0" d="M97.1,277.1L97.1,277.1c-0.9,0-1.7,0.8-1.7,1.7l0,0c0,0.9,0.8,1.7,1.7,1.7l0,0c0.9,0,1.7-0.8,1.7-1.7l0,0
			C98.8,277.9,98,277.1,97.1,277.1z"/>
		<path class="st0" d="M100.8,270.7c-0.9,0-1.7,0.8-1.7,1.7s0.8,1.7,1.7,1.7c0.9,0,1.7-0.8,1.7-1.7
			C102.5,271.5,101.7,270.7,100.8,270.7C100.8,270.7,100.8,270.7,100.8,270.7z"/>
		<path class="st0" d="M89.6,148.7l-1.5,0.2c-0.1,0.2-0.2,0.5-0.2,0.8l0,0c0,0.9,0.8,1.7,1.7,1.7l0,0c0.9,0,1.7-0.8,1.7-1.7l0,0
			c0-0.4-0.2-0.9-0.5-1.2L89.6,148.7z"/>
		<path class="st0" d="M89.6,160.9L89.6,160.9c-0.9,0-1.7,0.8-1.7,1.7l0,0c0,0.9,0.8,1.7,1.7,1.7l0,0c0.9,0,1.7-0.8,1.7-1.7l0,0
			C91.3,161.7,90.5,160.9,89.6,160.9z"/>
		<path class="st0" d="M93.3,154.5c-0.9,0-1.7,0.7-1.7,1.6c0,0.9,0.7,1.7,1.6,1.7s1.7-0.7,1.7-1.6c0,0,0,0,0,0
			C95,155.3,94.3,154.5,93.3,154.5z"/>
		<path class="st0" d="M89.6,173.9L89.6,173.9c-0.9,0-1.7,0.8-1.7,1.7l0,0c0,0.9,0.8,1.7,1.7,1.7l0,0c0.9,0,1.7-0.8,1.7-1.7l0,0
			C91.3,174.6,90.5,173.9,89.6,173.9z"/>
		<path class="st0" d="M93.3,167.4c-0.9,0-1.7,0.7-1.7,1.6c0,0.9,0.7,1.7,1.6,1.7s1.7-0.7,1.7-1.6c0,0,0,0,0,0
			C95,168.2,94.3,167.4,93.3,167.4z"/>
		<path class="st0" d="M89.6,186.8L89.6,186.8c-0.9,0-1.7,0.8-1.7,1.7l0,0c0,0.9,0.8,1.7,1.7,1.7l0,0c0.9,0,1.7-0.8,1.7-1.7l0,0
			C91.3,187.5,90.5,186.8,89.6,186.8z"/>
		<path class="st0" d="M93.3,180.3c-0.9,0-1.7,0.7-1.7,1.6c0,0.9,0.7,1.7,1.6,1.7c0.9,0,1.7-0.7,1.7-1.6c0,0,0,0,0,0
			C95,181.1,94.3,180.3,93.3,180.3z"/>
		<path class="st0" d="M89.6,199.7L89.6,199.7c-0.9,0-1.7,0.8-1.7,1.7l0,0c0,0.9,0.8,1.6,1.7,1.6l0,0c0.9,0,1.7-0.8,1.7-1.7l0,0
			C91.3,200.4,90.5,199.7,89.6,199.7z"/>
		<path class="st0" d="M93.3,193.2c-0.9,0-1.7,0.7-1.7,1.6c0,0.9,0.7,1.7,1.6,1.7c0.9,0,1.7-0.7,1.7-1.6c0,0,0,0,0,0
			C95,194,94.3,193.2,93.3,193.2z"/>
		<path class="st0" d="M89.6,212.6L89.6,212.6c-0.9,0-1.7,0.8-1.7,1.7l0,0c0,0.9,0.7,1.7,1.6,1.7c0,0,0,0,0,0l0,0
			c0.9,0,1.7-0.8,1.7-1.7l0,0C91.3,213.4,90.6,212.6,89.6,212.6C89.6,212.6,89.6,212.6,89.6,212.6z"/>
		<path class="st0" d="M93.3,206.1c-0.9,0-1.7,0.7-1.7,1.6c0,0.9,0.7,1.7,1.6,1.7s1.7-0.7,1.7-1.6c0,0,0,0,0,0
			C95,206.9,94.3,206.2,93.3,206.1z"/>
		<path class="st0" d="M89.6,225.5L89.6,225.5c-0.9,0-1.7,0.8-1.7,1.7l0,0c0,0.9,0.8,1.7,1.7,1.7l0,0c0.9,0,1.7-0.8,1.7-1.7l0,0
			C91.3,226.3,90.5,225.5,89.6,225.5z"/>
		<path class="st0" d="M93.3,219.1c-0.9,0-1.7,0.7-1.7,1.6c0,0.9,0.7,1.7,1.6,1.7s1.7-0.7,1.7-1.6c0,0,0,0,0,0
			C95,219.8,94.3,219.1,93.3,219.1z"/>
		<path class="st0" d="M89.6,238.4L89.6,238.4c-0.9,0-1.7,0.8-1.7,1.7l0,0c0,0.9,0.8,1.7,1.7,1.7l0,0c0.9,0,1.7-0.8,1.7-1.7l0,0
			C91.3,239.2,90.5,238.4,89.6,238.4z"/>
		<path class="st0" d="M93.3,232c-0.9,0-1.7,0.7-1.7,1.7c0,0.9,0.7,1.7,1.7,1.7s1.7-0.7,1.7-1.7c0,0,0,0,0-0.1
			C95,232.7,94.3,232,93.3,232z"/>
		<path class="st0" d="M89.6,251.3L89.6,251.3c-0.9,0-1.7,0.7-1.7,1.7l0,0c0,0.9,0.8,1.7,1.7,1.7l0,0c0.9,0,1.7-0.8,1.7-1.7l0,0
			C91.3,252.1,90.5,251.3,89.6,251.3z"/>
		<path class="st0" d="M93.3,244.9c-0.9,0-1.7,0.7-1.7,1.6c0,0.9,0.7,1.7,1.6,1.7c0.9,0,1.7-0.7,1.7-1.6c0,0,0,0,0,0
			C95,245.6,94.3,244.9,93.3,244.9z"/>
		<path class="st0" d="M89.6,264.2L89.6,264.2c-0.9,0-1.7,0.8-1.7,1.7l0,0c0,0.9,0.8,1.7,1.7,1.7l0,0c0.9,0,1.7-0.8,1.7-1.7l0,0
			C91.3,265,90.5,264.2,89.6,264.2z"/>
		<path class="st0" d="M93.3,257.8c-0.9,0-1.7,0.7-1.7,1.6c0,0.9,0.7,1.7,1.6,1.7c0.9,0,1.7-0.7,1.7-1.6c0,0,0,0,0,0
			C95,258.6,94.3,257.8,93.3,257.8z"/>
		<path class="st0" d="M89.6,277.1L89.6,277.1c-0.9,0-1.7,0.8-1.7,1.7l0,0c0,0.9,0.8,1.7,1.7,1.7l0,0c0.9,0,1.7-0.8,1.7-1.7l0,0
			C91.3,277.9,90.5,277.1,89.6,277.1z"/>
		<path class="st0" d="M93.3,270.7c-0.9,0-1.7,0.7-1.7,1.6c0,0.9,0.7,1.7,1.6,1.7s1.7-0.7,1.7-1.6c0,0,0,0,0,0
			C95,271.5,94.3,270.7,93.3,270.7z"/>
		<path class="st0" d="M83.2,149.7l-1.1,0.2l-1.6,0.3c0.2,0.7,0.9,1.2,1.6,1.2l0,0c0.9,0,1.7-0.8,1.7-1.7l0,0c0,0,0-0.1,0-0.1
			L83.2,149.7z"/>
		<path class="st0" d="M82.2,160.9L82.2,160.9c-0.9,0-1.7,0.8-1.7,1.7l0,0c0,0.9,0.8,1.7,1.7,1.7l0,0c0.9,0,1.7-0.8,1.7-1.7l0,0
			C83.9,161.7,83.1,160.9,82.2,160.9z"/>
		<circle class="st0" cx="85.9" cy="156.2" r="1.7"/>
		<path class="st0" d="M82.2,173.9L82.2,173.9c-0.9,0-1.7,0.8-1.7,1.7l0,0c0,0.9,0.8,1.7,1.7,1.7l0,0c0.9,0,1.7-0.8,1.7-1.7l0,0
			C83.8,174.6,83.1,173.9,82.2,173.9z"/>
		<circle class="st0" cx="85.9" cy="169.1" r="1.7"/>
		<path class="st0" d="M82.2,186.8L82.2,186.8c-0.9,0-1.7,0.8-1.7,1.7l0,0c0,0.9,0.8,1.7,1.7,1.7l0,0c0.9,0,1.7-0.8,1.7-1.7l0,0
			C83.8,187.5,83.1,186.8,82.2,186.8z"/>
		<circle class="st0" cx="85.9" cy="182" r="1.7"/>
		<path class="st0" d="M82.2,199.7L82.2,199.7c-0.9,0-1.7,0.8-1.7,1.7l0,0c0,0.9,0.8,1.6,1.7,1.6l0,0c0.9,0,1.7-0.8,1.7-1.7l0,0
			C83.8,200.4,83.1,199.7,82.2,199.7z"/>
		<circle class="st0" cx="85.9" cy="194.9" r="1.7"/>
		<path class="st0" d="M82.2,212.6L82.2,212.6c-0.9,0-1.7,0.8-1.7,1.7l0,0c0,0.9,0.7,1.7,1.6,1.7c0,0,0,0,0,0l0,0
			c0.9,0,1.7-0.8,1.7-1.7l0,0C83.9,213.4,83.1,212.6,82.2,212.6C82.2,212.6,82.2,212.6,82.2,212.6z"/>
		<circle class="st0" cx="85.9" cy="207.8" r="1.7"/>
		<path class="st0" d="M82.2,225.5L82.2,225.5c-0.9,0-1.7,0.8-1.7,1.7l0,0c0,0.9,0.8,1.7,1.7,1.7l0,0c0.9,0,1.7-0.8,1.7-1.7l0,0
			C83.9,226.3,83.1,225.5,82.2,225.5z"/>
		<circle class="st0" cx="85.9" cy="220.7" r="1.7"/>
		<path class="st0" d="M82.2,238.4L82.2,238.4c-0.9,0-1.7,0.8-1.7,1.7l0,0c0,0.9,0.8,1.7,1.7,1.7l0,0c0.9,0,1.7-0.8,1.7-1.7l0,0
			C83.8,239.2,83.1,238.4,82.2,238.4z"/>
		<circle class="st0" cx="85.9" cy="233.6" r="1.7"/>
		<path class="st0" d="M82.2,251.3L82.2,251.3c-0.9,0-1.7,0.7-1.7,1.7l0,0c0,0.9,0.8,1.7,1.7,1.7l0,0c0.9,0,1.7-0.8,1.7-1.7l0,0
			C83.8,252.1,83.1,251.3,82.2,251.3z"/>
		<path class="st0" d="M85.9,244.9c-0.9,0-1.7,0.7-1.7,1.7c0,0.9,0.7,1.7,1.7,1.7c0.9,0,1.7-0.7,1.7-1.7c0,0,0,0,0,0
			C87.6,245.6,86.8,244.9,85.9,244.9z"/>
		<path class="st0" d="M82.2,264.2L82.2,264.2c-0.9,0-1.7,0.8-1.7,1.7l0,0c0,0.9,0.8,1.7,1.7,1.7l0,0c0.9,0,1.7-0.8,1.7-1.7l0,0
			C83.8,265,83.1,264.2,82.2,264.2z"/>
		<circle class="st0" cx="85.9" cy="259.5" r="1.7"/>
		<path class="st0" d="M82.2,277.1L82.2,277.1c-0.9,0-1.7,0.8-1.7,1.7l0,0c0,0.6,0.4,1.2,0.9,1.5l0.8,0.1h0.2
			c0.9-0.1,1.5-0.8,1.5-1.7l0,0C83.8,277.9,83.1,277.1,82.2,277.1z"/>
		<path class="st0" d="M85.9,270.7c-0.9,0-1.7,0.8-1.7,1.7c0,0.9,0.8,1.7,1.7,1.7s1.7-0.8,1.7-1.7l0,0
			C87.6,271.5,86.8,270.7,85.9,270.7z"/>
		<path class="st0" d="M74.7,160.9L74.7,160.9c-0.9,0-1.7,0.7-1.7,1.7c0,0,0,0,0,0l0,0c0,0.9,0.8,1.7,1.7,1.7l0,0
			c0.9,0,1.7-0.8,1.7-1.7l0,0C76.4,161.7,75.6,161,74.7,160.9z"/>
		<circle class="st0" cx="78.4" cy="156.2" r="1.7"/>
		<path class="st0" d="M74.7,173.9L74.7,173.9c-0.9,0-1.7,0.7-1.7,1.6c0,0,0,0,0,0l0,0c0,0.9,0.8,1.7,1.7,1.7l0,0
			c0.9,0,1.7-0.8,1.7-1.7l0,0C76.4,174.6,75.6,173.9,74.7,173.9z"/>
		<circle class="st0" cx="78.4" cy="169.1" r="1.7"/>
		<path class="st0" d="M74.7,186.8L74.7,186.8c-0.9,0-1.7,0.7-1.7,1.6c0,0,0,0,0,0l0,0c0,0.9,0.8,1.7,1.7,1.7l0,0
			c0.9,0,1.7-0.8,1.7-1.7l0,0C76.4,187.5,75.6,186.8,74.7,186.8z"/>
		<circle class="st0" cx="78.4" cy="182" r="1.7"/>
		<path class="st0" d="M74.7,199.7L74.7,199.7c-0.9,0-1.7,0.7-1.7,1.6c0,0,0,0,0,0l0,0c0,0.9,0.8,1.7,1.7,1.6l0,0
			c0.9,0,1.7-0.8,1.7-1.7l0,0C76.4,200.4,75.6,199.7,74.7,199.7z"/>
		<circle class="st0" cx="78.4" cy="194.9" r="1.7"/>
		<path class="st0" d="M74.7,212.6L74.7,212.6c-0.9,0-1.7,0.7-1.7,1.6c0,0,0,0,0,0l0,0c0,0.9,0.7,1.7,1.6,1.7c0,0,0,0,0.1,0l0,0
			c0.9,0,1.7-0.8,1.7-1.7l0,0l0,0C76.4,213.4,75.7,212.6,74.7,212.6C74.7,212.6,74.7,212.6,74.7,212.6z"/>
		<circle class="st0" cx="78.4" cy="207.8" r="1.7"/>
		<path class="st0" d="M74.7,225.5L74.7,225.5c-0.9,0-1.7,0.7-1.7,1.7c0,0,0,0,0,0l0,0c0,0.9,0.8,1.7,1.7,1.7l0,0
			c0.9,0,1.7-0.8,1.7-1.7l0,0C76.4,226.3,75.6,225.5,74.7,225.5z"/>
		<circle class="st0" cx="78.4" cy="220.7" r="1.7"/>
		<path class="st0" d="M74.7,238.4L74.7,238.4c-0.9,0-1.7,0.7-1.7,1.6c0,0,0,0,0,0l0,0c0,0.9,0.8,1.7,1.7,1.7l0,0
			c0.9,0,1.7-0.8,1.7-1.7l0,0C76.4,239.2,75.6,238.4,74.7,238.4z"/>
		<circle class="st0" cx="78.4" cy="233.6" r="1.7"/>
		<path class="st0" d="M74.7,251.3L74.7,251.3c-0.9,0-1.7,0.7-1.7,1.6c0,0,0,0,0,0l0,0c0,0.9,0.8,1.7,1.7,1.7l0,0
			c0.9,0,1.7-0.7,1.7-1.7c0,0,0,0,0,0l0,0C76.4,252.1,75.6,251.3,74.7,251.3z"/>
		<path class="st0" d="M78.4,244.9c-0.9,0-1.7,0.7-1.7,1.7c0,0.9,0.7,1.7,1.7,1.7c0.9,0,1.7-0.7,1.7-1.7c0,0,0,0,0,0
			C80.1,245.6,79.4,244.9,78.4,244.9z"/>
		<path class="st0" d="M74.7,264.2L74.7,264.2c-0.9,0-1.7,0.7-1.7,1.6c0,0,0,0,0,0l0,0c0,0.9,0.8,1.7,1.7,1.7l0,0
			c0.9,0,1.7-0.8,1.7-1.7l0,0C76.4,265,75.6,264.3,74.7,264.2z"/>
		<circle class="st0" cx="78.4" cy="259.5" r="1.7"/>
		<path class="st0" d="M74.7,277.1L74.7,277.1c-0.8,0-1.5,0.6-1.7,1.4l1.2,0.3l0.4,0.1l1.6,0.4c0-0.1,0.1-0.3,0.1-0.5l0,0
			C76.4,277.9,75.6,277.1,74.7,277.1z"/>
		<path class="st0" d="M78.4,270.7c-0.9,0-1.7,0.8-1.7,1.7c0,0.9,0.8,1.7,1.7,1.7s1.7-0.8,1.7-1.7l0,0
			C80.1,271.5,79.4,270.7,78.4,270.7z"/>
		<path class="st0" d="M67.3,160.9L67.3,160.9c-0.9,0-1.7,0.8-1.7,1.7l0,0c0,0.9,0.8,1.7,1.7,1.7l0,0c0.9,0,1.7-0.8,1.7-1.7l0,0
			C68.9,161.7,68.2,160.9,67.3,160.9z"/>
		<circle class="st0" cx="71" cy="156.2" r="1.7"/>
		<path class="st0" d="M67.3,173.9L67.3,173.9c-0.9,0-1.7,0.8-1.7,1.7l0,0c0,0.9,0.8,1.7,1.7,1.7l0,0c0.9,0,1.7-0.8,1.7-1.7l0,0
			C68.9,174.6,68.2,173.9,67.3,173.9z"/>
		<circle class="st0" cx="71" cy="169.1" r="1.7"/>
		<path class="st0" d="M67.3,186.8L67.3,186.8c-0.9,0-1.7,0.8-1.7,1.7l0,0c0,0.9,0.8,1.7,1.7,1.7l0,0c0.9,0,1.7-0.8,1.7-1.7l0,0
			C68.9,187.5,68.2,186.8,67.3,186.8z"/>
		<circle class="st0" cx="71" cy="182" r="1.7"/>
		<path class="st0" d="M67.3,199.7L67.3,199.7c-0.9,0-1.7,0.8-1.7,1.7l0,0c0,0.9,0.8,1.6,1.7,1.6l0,0c0.9,0,1.7-0.8,1.7-1.7l0,0
			C68.9,200.4,68.2,199.7,67.3,199.7z"/>
		<circle class="st0" cx="71" cy="194.9" r="1.7"/>
		<path class="st0" d="M67.3,212.6L67.3,212.6c-0.9,0-1.7,0.8-1.7,1.7l0,0c0,0.9,0.7,1.7,1.6,1.7c0,0,0,0,0,0l0,0
			c0.9,0,1.7-0.8,1.7-1.7l0,0C69,213.4,68.2,212.6,67.3,212.6C67.3,212.6,67.3,212.6,67.3,212.6z"/>
		<circle class="st0" cx="71" cy="207.8" r="1.7"/>
		<path class="st0" d="M67.3,225.5L67.3,225.5c-0.9,0-1.7,0.8-1.7,1.7l0,0c0,0.9,0.8,1.7,1.7,1.7l0,0c0.9,0,1.7-0.8,1.7-1.7l0,0
			C68.9,226.3,68.2,225.5,67.3,225.5z"/>
		<circle class="st0" cx="71" cy="220.7" r="1.7"/>
		<path class="st0" d="M67.3,238.4L67.3,238.4c-0.9,0-1.7,0.8-1.7,1.7l0,0c0,0.9,0.8,1.7,1.7,1.7l0,0c0.9,0,1.7-0.8,1.7-1.7l0,0
			C68.9,239.2,68.2,238.4,67.3,238.4z"/>
		<circle class="st0" cx="71" cy="233.6" r="1.7"/>
		<path class="st0" d="M67.3,251.3L67.3,251.3c-0.9,0-1.7,0.7-1.7,1.7l0,0c0,0.9,0.8,1.7,1.7,1.7l0,0c0.9,0,1.7-0.8,1.7-1.7l0,0
			C68.9,252.1,68.2,251.3,67.3,251.3z"/>
		<path class="st0" d="M71,244.9c-0.9,0-1.7,0.7-1.7,1.7c0,0.9,0.7,1.7,1.7,1.7c0.9,0,1.7-0.7,1.7-1.7c0,0,0,0,0,0
			C72.7,245.6,71.9,244.9,71,244.9z"/>
		<path class="st0" d="M67.3,264.2L67.3,264.2c-0.9,0-1.7,0.8-1.7,1.7l0,0c0,0.9,0.8,1.7,1.7,1.7l0,0c0.9,0,1.7-0.8,1.7-1.7l0,0
			C68.9,265,68.2,264.2,67.3,264.2z"/>
		<circle class="st0" cx="71" cy="259.5" r="1.7"/>
		<path class="st0" d="M71,270.7c-0.9,0-1.7,0.8-1.7,1.7c0,0.9,0.8,1.7,1.7,1.7s1.7-0.8,1.7-1.7l0,0C72.7,271.5,71.9,270.7,71,270.7
			z"/>
		<path class="st0" d="M59.8,160.9L59.8,160.9c-0.9,0-1.7,0.8-1.7,1.7l0,0c0,0.9,0.8,1.7,1.7,1.7l0,0c0.9,0,1.7-0.8,1.7-1.7l0,0
			C61.5,161.7,60.7,160.9,59.8,160.9L59.8,160.9z"/>
		<circle class="st0" cx="63.5" cy="156.2" r="1.7"/>
		<path class="st0" d="M59.8,173.9L59.8,173.9c-0.9,0-1.7,0.8-1.7,1.7l0,0c0,0.9,0.8,1.7,1.7,1.7l0,0c0.9,0,1.7-0.8,1.7-1.7l0,0
			C61.5,174.6,60.7,173.9,59.8,173.9z"/>
		<circle class="st0" cx="63.5" cy="169.1" r="1.7"/>
		<path class="st0" d="M59.8,186.8L59.8,186.8c-0.9,0-1.7,0.8-1.7,1.7l0,0c0,0.9,0.8,1.7,1.7,1.7l0,0c0.9,0,1.7-0.8,1.7-1.7l0,0
			C61.5,187.5,60.7,186.8,59.8,186.8z"/>
		<circle class="st0" cx="63.5" cy="182" r="1.7"/>
		<path class="st0" d="M59.8,199.7L59.8,199.7c-0.9,0-1.7,0.8-1.7,1.7l0,0c0,0.9,0.8,1.6,1.7,1.6l0,0c0.9,0,1.7-0.8,1.7-1.7l0,0
			C61.5,200.4,60.7,199.7,59.8,199.7z"/>
		<circle class="st0" cx="63.5" cy="194.9" r="1.7"/>
		<path class="st0" d="M59.8,212.6L59.8,212.6c-0.9,0-1.7,0.8-1.7,1.7l0,0c0,0.9,0.7,1.7,1.6,1.7c0,0,0,0,0,0l0,0
			c0.9,0,1.7-0.8,1.7-1.7l0,0l0,0C61.5,213.4,60.8,212.6,59.8,212.6C59.8,212.6,59.8,212.6,59.8,212.6z"/>
		<circle class="st0" cx="63.5" cy="207.8" r="1.7"/>
		<path class="st0" d="M59.8,225.5L59.8,225.5c-0.9,0-1.7,0.8-1.7,1.7l0,0c0,0.9,0.8,1.7,1.7,1.7l0,0c0.9,0,1.7-0.8,1.7-1.7l0,0
			C61.5,226.3,60.7,225.5,59.8,225.5L59.8,225.5z"/>
		<circle class="st0" cx="63.5" cy="220.7" r="1.7"/>
		<path class="st0" d="M59.8,238.4L59.8,238.4c-0.9,0-1.7,0.8-1.7,1.7l0,0c0,0.9,0.8,1.7,1.7,1.7l0,0c0.9,0,1.7-0.8,1.7-1.7l0,0
			C61.5,239.2,60.7,238.4,59.8,238.4z"/>
		<circle class="st0" cx="63.5" cy="233.6" r="1.7"/>
		<path class="st0" d="M59.8,251.3L59.8,251.3c-0.9,0-1.7,0.7-1.7,1.7l0,0c0,0.9,0.8,1.7,1.7,1.7l0,0c0.9,0,1.7-0.8,1.7-1.7l0,0
			C61.5,252.1,60.7,251.3,59.8,251.3z"/>
		<path class="st0" d="M63.5,244.9c-0.9,0-1.7,0.7-1.7,1.7c0,0.9,0.7,1.7,1.7,1.7s1.7-0.7,1.7-1.7c0,0,0,0,0,0
			C65.2,245.6,64.5,244.9,63.5,244.9z"/>
		<path class="st0" d="M59.8,264.2L59.8,264.2c-0.9,0-1.7,0.8-1.7,1.7l0,0c0,0.9,0.8,1.7,1.7,1.7l0,0c0.9,0,1.7-0.8,1.7-1.7l0,0
			C61.5,265,60.7,264.2,59.8,264.2z"/>
		<circle class="st0" cx="63.5" cy="259.5" r="1.7"/>
		<path class="st0" d="M63.5,270.7c-0.9,0-1.7,0.8-1.7,1.7c0,0.9,0.8,1.7,1.7,1.7c0.9,0,1.7-0.8,1.7-1.7l0,0
			C65.2,271.5,64.5,270.7,63.5,270.7z"/>
		<path class="st0" d="M52.3,160.9L52.3,160.9c-0.9,0-1.7,0.8-1.7,1.7l0,0c0,0.9,0.8,1.7,1.7,1.7l0,0c0.9,0,1.7-0.8,1.7-1.7l0,0
			C54,161.7,53.3,161,52.3,160.9z"/>
		<path class="st0" d="M57.8,156.2c-1,0.3-2,0.7-2.9,1c0.6,0.7,1.7,0.8,2.4,0.1C57.5,157.1,57.7,156.7,57.8,156.2z"/>
		<path class="st0" d="M52.3,173.9L52.3,173.9c-0.9,0-1.7,0.8-1.7,1.7l0,0c0,0.9,0.8,1.7,1.7,1.7l0,0c0.9,0,1.7-0.8,1.7-1.7l0,0
			C54,174.6,53.3,173.9,52.3,173.9z"/>
		<circle class="st0" cx="56.1" cy="169.1" r="1.7"/>
		<path class="st0" d="M52.3,186.8L52.3,186.8c-0.9,0-1.7,0.8-1.7,1.7l0,0c0,0.9,0.8,1.7,1.7,1.7l0,0c0.9,0,1.7-0.8,1.7-1.7l0,0
			C54,187.5,53.3,186.8,52.3,186.8z"/>
		<circle class="st0" cx="56.1" cy="182" r="1.7"/>
		<path class="st0" d="M52.3,199.7L52.3,199.7c-0.9,0-1.7,0.8-1.7,1.7l0,0c0,0.9,0.8,1.6,1.7,1.6l0,0c0.9,0,1.6-0.7,1.7-1.6l0,0
			C54,200.4,53.3,199.7,52.3,199.7z"/>
		<circle class="st0" cx="56.1" cy="194.9" r="1.7"/>
		<path class="st0" d="M52.3,212.6L52.3,212.6c-0.9,0-1.7,0.8-1.7,1.7l0,0c0,0.9,0.7,1.7,1.6,1.7c0,0,0,0,0,0l0,0
			c0.9,0,1.7-0.8,1.7-1.7c0,0,0,0,0,0l0,0C54,213.4,53.3,212.6,52.3,212.6z"/>
		<circle class="st0" cx="56.1" cy="207.8" r="1.7"/>
		<path class="st0" d="M52.3,225.5L52.3,225.5c-0.9,0-1.7,0.8-1.7,1.7l0,0c0,0.9,0.8,1.7,1.7,1.7l0,0c0.9,0,1.7-0.8,1.7-1.7l0,0
			C54,226.3,53.3,225.5,52.3,225.5z"/>
		<circle class="st0" cx="56.1" cy="220.7" r="1.7"/>
		<path class="st0" d="M52.3,238.4L52.3,238.4c-0.9,0-1.7,0.8-1.7,1.7l0,0c0,0.9,0.8,1.7,1.7,1.7l0,0c0.9,0,1.7-0.8,1.7-1.7l0,0
			C54,239.2,53.3,238.4,52.3,238.4z"/>
		<circle class="st0" cx="56.1" cy="233.6" r="1.7"/>
		<path class="st0" d="M52.3,251.3L52.3,251.3c-0.9,0-1.7,0.7-1.7,1.7l0,0c0,0.9,0.8,1.7,1.7,1.7l0,0c0.9,0,1.7-0.8,1.7-1.7l0,0
			C54,252.1,53.3,251.3,52.3,251.3z"/>
		<path class="st0" d="M56.1,244.9c-0.9,0-1.7,0.7-1.7,1.7c0,0.9,0.7,1.7,1.7,1.7s1.7-0.7,1.7-1.7c0,0,0,0,0,0
			C57.8,245.6,57,244.9,56.1,244.9z"/>
		<path class="st0" d="M52.3,264.2L52.3,264.2c-0.9,0-1.7,0.8-1.7,1.7l0,0c0,0.9,0.8,1.7,1.7,1.7l0,0c0.9,0,1.7-0.8,1.7-1.7l0,0
			C54,265,53.3,264.3,52.3,264.2z"/>
		<circle class="st0" cx="56.1" cy="259.5" r="1.7"/>
		<path class="st0" d="M56.1,270.7c-0.9,0-1.7,0.8-1.7,1.7c0,0.2,0,0.3,0.1,0.5c0.8,0.3,1.7,0.6,2.5,0.9c0.8-0.5,1-1.6,0.5-2.3
			C57.2,271,56.6,270.7,56.1,270.7L56.1,270.7z"/>
		<path class="st0" d="M45.6,161.1l-0.7,0.3c-0.5,0.2-1.1,0.5-1.6,0.7c-0.1,0.2-0.1,0.3-0.1,0.5l0,0c0,0.9,0.8,1.7,1.7,1.7l0,0
			c0.9,0,1.7-0.8,1.7-1.7l0,0C46.6,162,46.2,161.3,45.6,161.1z"/>
		<path class="st0" d="M44.9,173.9L44.9,173.9c-0.9,0-1.7,0.8-1.7,1.7l0,0c0,0.9,0.8,1.7,1.7,1.7l0,0c0.9,0,1.7-0.8,1.7-1.7l0,0
			C46.6,174.6,45.8,173.9,44.9,173.9z"/>
		<path class="st0" d="M48.6,167.4c-0.9,0-1.7,0.8-1.7,1.7c0,0.9,0.8,1.7,1.7,1.7s1.7-0.8,1.7-1.7l0,0
			C50.3,168.2,49.5,167.4,48.6,167.4z"/>
		<path class="st0" d="M44.9,186.8L44.9,186.8c-0.9,0-1.7,0.8-1.7,1.7l0,0c0,0.9,0.8,1.7,1.7,1.7l0,0c0.9,0,1.7-0.8,1.7-1.7l0,0
			C46.6,187.5,45.8,186.8,44.9,186.8z"/>
		<path class="st0" d="M48.6,180.3c-0.9,0-1.7,0.7-1.7,1.7c0,0.9,0.7,1.7,1.7,1.7s1.7-0.7,1.7-1.7c0,0,0,0,0,0
			C50.3,181.1,49.6,180.3,48.6,180.3C48.6,180.3,48.6,180.3,48.6,180.3z"/>
		<path class="st0" d="M44.9,199.7L44.9,199.7c-0.9,0-1.7,0.8-1.7,1.7l0,0c0,0.9,0.8,1.6,1.7,1.6l0,0c0.9,0,1.7-0.8,1.7-1.7l0,0
			C46.6,200.4,45.8,199.7,44.9,199.7z"/>
		<path class="st0" d="M48.6,193.2c-0.9,0-1.7,0.7-1.7,1.7c0,0.9,0.7,1.7,1.7,1.7s1.7-0.7,1.7-1.7c0,0,0,0,0,0
			C50.3,194,49.5,193.2,48.6,193.2z"/>
		<path class="st0" d="M44.9,212.6L44.9,212.6c-0.9,0-1.7,0.8-1.7,1.7l0,0c0,0.9,0.7,1.7,1.6,1.7c0,0,0,0,0,0l0,0
			c0.9,0,1.7-0.8,1.7-1.7l0,0l0,0C46.6,213.4,45.9,212.6,44.9,212.6C44.9,212.6,44.9,212.6,44.9,212.6z"/>
		<path class="st0" d="M48.6,206.1c-0.9,0-1.7,0.8-1.7,1.7c0,0.9,0.8,1.7,1.7,1.7s1.7-0.8,1.7-1.7l0,0
			C50.3,206.9,49.5,206.1,48.6,206.1z"/>
		<path class="st0" d="M44.9,225.5L44.9,225.5c-0.9,0-1.7,0.8-1.7,1.7l0,0c0,0.9,0.8,1.7,1.7,1.7l0,0c0.9,0,1.7-0.8,1.7-1.7l0,0
			C46.6,226.3,45.8,225.5,44.9,225.5L44.9,225.5z"/>
		<path class="st0" d="M48.6,219.1c-0.9,0-1.7,0.8-1.7,1.7c0,0.9,0.8,1.7,1.7,1.7s1.7-0.8,1.7-1.7l0,0
			C50.3,219.8,49.5,219.1,48.6,219.1z"/>
		<path class="st0" d="M44.9,238.4L44.9,238.4c-0.9,0-1.7,0.8-1.7,1.7l0,0c0,0.9,0.8,1.7,1.7,1.7l0,0c0.9,0,1.7-0.8,1.7-1.7l0,0
			C46.6,239.2,45.8,238.4,44.9,238.4z"/>
		<path class="st0" d="M48.6,232c-0.9,0-1.7,0.8-1.7,1.7c0,0.9,0.8,1.7,1.7,1.7s1.7-0.8,1.7-1.7l0,0C50.3,232.8,49.5,232,48.6,232z"
			/>
		<path class="st0" d="M44.9,251.3L44.9,251.3c-0.9,0-1.7,0.7-1.7,1.7l0,0c0,0.9,0.8,1.7,1.7,1.7l0,0c0.9,0,1.7-0.8,1.7-1.7l0,0
			C46.6,252.1,45.8,251.3,44.9,251.3z"/>
		<path class="st0" d="M48.6,244.9c-0.9,0-1.7,0.7-1.7,1.7c0,0.9,0.7,1.7,1.7,1.7s1.7-0.7,1.7-1.7c0,0,0,0,0,0
			C50.3,245.6,49.5,244.9,48.6,244.9z"/>
		<path class="st0" d="M44.9,264.2L44.9,264.2c-0.9,0-1.7,0.8-1.7,1.7l0,0c0,0.9,0.8,1.7,1.7,1.7l0,0c0.9,0,1.7-0.8,1.7-1.7l0,0
			C46.6,265,45.8,264.2,44.9,264.2z"/>
		<path class="st0" d="M48.6,257.8c-0.9,0-1.7,0.7-1.7,1.7s0.7,1.7,1.7,1.7s1.7-0.7,1.7-1.7c0,0,0,0,0,0
			C50.3,258.5,49.5,257.8,48.6,257.8z"/>
		<path class="st0" d="M37.4,173.9L37.4,173.9c-0.9,0-1.7,0.8-1.7,1.7l0,0c0,0.9,0.8,1.7,1.7,1.7l0,0c0.9,0,1.7-0.8,1.7-1.7l0,0
			C39.1,174.6,38.4,173.9,37.4,173.9z"/>
		<path class="st0" d="M41.2,167.4c-0.9,0-1.7,0.8-1.7,1.7c0,0.9,0.8,1.7,1.7,1.7s1.7-0.8,1.7-1.7l0,0
			C42.8,168.2,42.1,167.4,41.2,167.4z"/>
		<path class="st0" d="M37.4,186.8L37.4,186.8c-0.9,0-1.7,0.8-1.7,1.7l0,0c0,0.9,0.8,1.7,1.7,1.7l0,0c0.9,0,1.7-0.8,1.7-1.7l0,0
			C39.1,187.5,38.4,186.8,37.4,186.8z"/>
		<path class="st0" d="M41.2,180.3c-0.9,0-1.7,0.7-1.7,1.7c0,0.9,0.7,1.7,1.7,1.7s1.7-0.7,1.7-1.7c0,0,0,0,0,0
			C42.9,181.1,42.1,180.3,41.2,180.3z"/>
		<path class="st0" d="M37.4,199.7L37.4,199.7c-0.9,0-1.7,0.8-1.7,1.7l0,0c0,0.9,0.8,1.6,1.7,1.6l0,0c0.9,0,1.7-0.8,1.7-1.7l0,0
			C39.1,200.4,38.4,199.7,37.4,199.7z"/>
		<path class="st0" d="M41.2,193.2c-0.9-0.1-1.7,0.6-1.8,1.6c-0.1,0.9,0.6,1.7,1.6,1.8c0.1,0,0.2,0,0.3,0c0.9-0.1,1.6-0.9,1.6-1.8
			C42.7,193.9,42,193.3,41.2,193.2z"/>
		<path class="st0" d="M37.4,212.6L37.4,212.6c-0.9,0-1.7,0.8-1.7,1.7l0,0c0,0.9,0.7,1.7,1.6,1.7c0,0,0,0,0,0l0,0
			c0.9,0,1.7-0.8,1.7-1.7l0,0C39.1,213.4,38.4,212.6,37.4,212.6C37.5,212.6,37.5,212.6,37.4,212.6z"/>
		<path class="st0" d="M41.2,206.1c-0.9,0-1.7,0.8-1.7,1.7c0,0.9,0.8,1.7,1.7,1.7s1.7-0.8,1.7-1.7l0,0
			C42.8,206.9,42.1,206.1,41.2,206.1z"/>
		<path class="st0" d="M37.4,225.5L37.4,225.5c-0.9,0-1.7,0.8-1.7,1.7l0,0c0,0.9,0.8,1.7,1.7,1.7l0,0c0.9,0,1.7-0.8,1.7-1.7l0,0
			C39.1,226.3,38.4,225.5,37.4,225.5z"/>
		<path class="st0" d="M41.2,219.1c-0.9,0-1.7,0.8-1.7,1.7c0,0.9,0.8,1.7,1.7,1.7s1.7-0.8,1.7-1.7l0,0
			C42.8,219.8,42.1,219.1,41.2,219.1z"/>
		<path class="st0" d="M37.4,238.4L37.4,238.4c-0.9,0-1.7,0.8-1.7,1.7l0,0c0,0.9,0.8,1.7,1.7,1.7l0,0c0.9,0,1.7-0.8,1.7-1.7l0,0
			C39.1,239.2,38.4,238.4,37.4,238.4z"/>
		<path class="st0" d="M41.2,232c-0.9,0-1.7,0.8-1.7,1.7c0,0.9,0.8,1.7,1.7,1.7s1.7-0.8,1.7-1.7l0,0C42.8,232.8,42.1,232,41.2,232z"
			/>
		<path class="st0" d="M37.4,251.3L37.4,251.3c-0.9,0-1.7,0.7-1.7,1.7l0,0c0,0.9,0.8,1.7,1.7,1.7l0,0c0.9,0,1.7-0.8,1.7-1.7l0,0
			C39.1,252.1,38.4,251.3,37.4,251.3z"/>
		<path class="st0" d="M41.2,244.9c-0.9,0-1.7,0.7-1.7,1.7c0,0.9,0.7,1.7,1.7,1.7s1.7-0.7,1.7-1.7c0,0,0,0,0,0
			C42.8,245.6,42.1,244.9,41.2,244.9z"/>
		<path class="st0" d="M37.4,264.2L37.4,264.2c-0.4,0-0.7,0.1-1,0.3l1,0.5c0.5,0.3,1,0.5,1.5,0.8l0.2,0.1c0,0,0-0.1,0-0.1l0,0
			C39.1,265,38.4,264.2,37.4,264.2z"/>
		<path class="st0" d="M41.2,257.8c-0.9-0.1-1.7,0.6-1.8,1.6s0.6,1.7,1.6,1.8c0.1,0,0.2,0,0.3,0c0.9-0.1,1.6-0.9,1.6-1.8
			C42.7,258.5,42,257.8,41.2,257.8z"/>
		<path class="st0" d="M30,173.9L30,173.9c-0.9,0-1.7,0.8-1.7,1.7l0,0c0,0.9,0.8,1.7,1.7,1.7l0,0c0.9,0,1.7-0.8,1.7-1.7l0,0
			C31.7,174.6,30.9,173.9,30,173.9C30,173.9,30,173.9,30,173.9z"/>
		<path class="st0" d="M33.7,167.4c-0.2,0-0.3,0-0.5,0.1l-0.7,0.4c-0.3,0.3-0.5,0.7-0.5,1.2c0,0.9,0.8,1.7,1.7,1.7s1.7-0.8,1.7-1.7
			S34.6,167.4,33.7,167.4C33.7,167.4,33.7,167.4,33.7,167.4z"/>
		<path class="st0" d="M30,186.8L30,186.8c-0.9,0-1.7,0.8-1.7,1.7l0,0c0,0.9,0.8,1.7,1.7,1.7l0,0c0.9,0,1.7-0.8,1.7-1.7l0,0
			C31.7,187.5,30.9,186.8,30,186.8C30,186.8,30,186.8,30,186.8z"/>
		<circle class="st0" cx="33.7" cy="182" r="1.7"/>
		<path class="st0" d="M30,199.7L30,199.7c-0.9,0-1.7,0.8-1.7,1.7l0,0c0,0.9,0.8,1.6,1.7,1.6l0,0c0.9,0,1.7-0.8,1.7-1.7l0,0
			C31.7,200.4,30.9,199.7,30,199.7z"/>
		<circle class="st0" cx="33.7" cy="194.9" r="1.7"/>
		<path class="st0" d="M30,212.6L30,212.6c-0.9,0-1.7,0.8-1.7,1.7l0,0c0,0.9,0.7,1.7,1.6,1.7c0,0,0,0,0,0l0,0c0.9,0,1.7-0.8,1.7-1.7
			l0,0C31.7,213.4,31,212.6,30,212.6C30,212.6,30,212.6,30,212.6z"/>
		<circle class="st0" cx="33.7" cy="207.8" r="1.7"/>
		<path class="st0" d="M30,225.5L30,225.5c-0.9,0-1.7,0.8-1.7,1.7l0,0l0,0c0,0.9,0.8,1.7,1.7,1.7l0,0c0.9,0,1.7-0.8,1.7-1.7l0,0
			C31.7,226.3,30.9,225.5,30,225.5z"/>
		<circle class="st0" cx="33.7" cy="220.7" r="1.7"/>
		<path class="st0" d="M30,238.4L30,238.4c-0.9,0-1.7,0.8-1.7,1.7l0,0c0,0.9,0.8,1.7,1.7,1.7l0,0c0.9,0,1.7-0.8,1.7-1.7l0,0
			C31.7,239.2,30.9,238.4,30,238.4C30,238.4,30,238.4,30,238.4z"/>
		<circle class="st0" cx="33.7" cy="233.6" r="1.7"/>
		<path class="st0" d="M30,251.3L30,251.3c-0.9,0-1.7,0.7-1.7,1.7l0,0c0,0.9,0.8,1.7,1.7,1.7c0,0,0,0,0,0l0,0c0.9,0,1.7-0.8,1.7-1.7
			c0,0,0,0,0,0l0,0C31.7,252.1,30.9,251.3,30,251.3z"/>
		<path class="st0" d="M33.7,244.9c-0.9,0-1.7,0.7-1.7,1.7c0,0.9,0.7,1.7,1.7,1.7s1.7-0.7,1.7-1.7c0,0,0,0,0,0
			C35.4,245.6,34.6,244.9,33.7,244.9z"/>
		<circle class="st0" cx="33.7" cy="259.5" r="1.7"/>
		<path class="st0" d="M22.5,186.8L22.5,186.8c-0.9,0-1.7,0.8-1.7,1.7l0,0c0,0.9,0.8,1.7,1.7,1.7l0,0c0.9,0,1.7-0.8,1.7-1.7l0,0
			C24.2,187.5,23.5,186.8,22.5,186.8z"/>
		<circle class="st0" cx="26.3" cy="182" r="1.7"/>
		<path class="st0" d="M22.5,199.7L22.5,199.7c-0.9,0-1.7,0.8-1.7,1.7l0,0c0,0.9,0.8,1.6,1.7,1.6l0,0c0.9,0,1.7-0.8,1.7-1.7l0,0
			C24.2,200.4,23.4,199.7,22.5,199.7z"/>
		<circle class="st0" cx="26.3" cy="194.9" r="1.7"/>
		<path class="st0" d="M22.5,212.6L22.5,212.6c-0.9,0-1.7,0.8-1.7,1.7l0,0c0,0.9,0.7,1.7,1.6,1.7c0,0,0,0,0,0l0,0
			c0.9,0,1.7-0.8,1.7-1.7l0,0C24.2,213.4,23.5,212.6,22.5,212.6C22.6,212.6,22.5,212.6,22.5,212.6z"/>
		<circle class="st0" cx="26.3" cy="207.8" r="1.7"/>
		<path class="st0" d="M22.5,225.5L22.5,225.5c-0.9,0-1.7,0.8-1.7,1.7l0,0c0,0.9,0.8,1.7,1.7,1.7l0,0c0.9,0,1.7-0.8,1.7-1.7l0,0
			C24.2,226.3,23.5,225.5,22.5,225.5z"/>
		<circle class="st0" cx="26.3" cy="220.7" r="1.7"/>
		<path class="st0" d="M22.5,238.4L22.5,238.4c-0.9,0-1.7,0.8-1.7,1.7l0,0c0,0.9,0.8,1.7,1.7,1.7l0,0c0.9,0,1.7-0.8,1.7-1.7l0,0
			C24.2,239.2,23.5,238.4,22.5,238.4z"/>
		<circle class="st0" cx="26.3" cy="233.6" r="1.7"/>
		<path class="st0" d="M22.5,251.3L22.5,251.3c-0.9,0-1.7,0.7-1.7,1.7l0,0c0,0.9,0.8,1.7,1.7,1.7l0,0c0.9,0,1.7-0.8,1.7-1.7l0,0
			C24.2,252.1,23.5,251.3,22.5,251.3z"/>
		<path class="st0" d="M26.3,244.9c-0.9,0-1.7,0.7-1.7,1.7c0,0.9,0.7,1.7,1.7,1.7c0.9,0,1.7-0.7,1.7-1.7c0,0,0,0,0,0
			C27.9,245.6,27.2,244.9,26.3,244.9z"/>
		<path class="st0" d="M26.3,257.8c-0.1,0-0.3,0-0.4,0.1c0.7,0.5,1.4,1,2.1,1.5C27.9,258.5,27.1,257.8,26.3,257.8z"/>
		<path class="st0" d="M15.1,186.8L15.1,186.8c-0.9,0-1.7,0.8-1.7,1.7l0,0c0,0.9,0.8,1.7,1.7,1.7l0,0c0.9,0,1.7-0.8,1.7-1.7l0,0
			C16.8,187.5,16,186.8,15.1,186.8z"/>
		<circle class="st0" cx="18.8" cy="182" r="1.7"/>
		<path class="st0" d="M15.1,199.7L15.1,199.7c-0.9,0-1.7,0.8-1.7,1.7l0,0c0,0.9,0.8,1.6,1.7,1.6l0,0c0.9,0,1.7-0.8,1.7-1.7l0,0
			C16.7,200.4,16,199.7,15.1,199.7z"/>
		<circle class="st0" cx="18.8" cy="194.9" r="1.7"/>
		<path class="st0" d="M15.1,212.6L15.1,212.6c-0.9,0-1.7,0.8-1.7,1.7l0,0c0,0.9,0.7,1.7,1.6,1.7c0,0,0,0,0,0l0,0
			c0.9,0,1.7-0.8,1.7-1.7l0,0C16.8,213.4,16,212.6,15.1,212.6C15.1,212.6,15.1,212.6,15.1,212.6z"/>
		<circle class="st0" cx="18.8" cy="207.8" r="1.7"/>
		<path class="st0" d="M15.1,225.5L15.1,225.5c-0.9,0-1.7,0.8-1.7,1.7l0,0l0,0c0,0.9,0.8,1.7,1.7,1.7l0,0c0.9,0,1.7-0.8,1.7-1.7l0,0
			C16.8,226.3,16,225.5,15.1,225.5z"/>
		<circle class="st0" cx="18.8" cy="220.7" r="1.7"/>
		<path class="st0" d="M15.1,238.4L15.1,238.4c-0.9,0-1.7,0.8-1.7,1.7l0,0c0,0.9,0.8,1.7,1.7,1.7l0,0c0.9,0,1.7-0.8,1.7-1.7l0,0
			C16.8,239.2,16,238.4,15.1,238.4z"/>
		<circle class="st0" cx="18.8" cy="233.6" r="1.7"/>
		<path class="st0" d="M18.8,244.9c-0.9,0-1.7,0.8-1.7,1.7s0.8,1.7,1.7,1.7c0.9,0,1.7-0.8,1.7-1.7c0,0,0,0,0,0
			C20.5,245.6,19.7,244.9,18.8,244.9C18.8,244.9,18.8,244.9,18.8,244.9z"/>
		<path class="st0" d="M9.2,188.4c-0.4,0.5-0.8,1.1-1.1,1.6C8.8,189.8,9.3,189.2,9.2,188.4L9.2,188.4L9.2,188.4L9.2,188.4z"/>
		<path class="st0" d="M7.6,199.7L7.6,199.7c-0.9,0-1.7,0.8-1.7,1.7l0,0c0,0.9,0.8,1.6,1.7,1.6l0,0c0.9,0,1.7-0.8,1.7-1.7l0,0
			C9.3,200.4,8.5,199.7,7.6,199.7z"/>
		<circle class="st0" cx="11.4" cy="194.9" r="1.7"/>
		<path class="st0" d="M7.6,212.6L7.6,212.6c-0.9,0-1.7,0.8-1.7,1.7l0,0c0,0.9,0.7,1.7,1.6,1.7c0,0,0,0,0,0l0,0
			c0.9,0,1.7-0.8,1.7-1.7l0,0C9.3,213.4,8.6,212.6,7.6,212.6C7.6,212.6,7.6,212.6,7.6,212.6z"/>
		<circle class="st0" cx="11.4" cy="207.8" r="1.7"/>
		<path class="st0" d="M7.6,225.5L7.6,225.5c-0.9,0-1.7,0.8-1.7,1.7l0,0c0,0.9,0.8,1.7,1.7,1.7l0,0c0.9,0,1.7-0.8,1.7-1.7l0,0
			C9.3,226.3,8.5,225.5,7.6,225.5z"/>
		<circle class="st0" cx="11.4" cy="220.7" r="1.7"/>
		<path class="st0" d="M7.6,238.4L7.6,238.4c-0.2,0-0.3,0-0.5,0.1c0.2,0.3,0.3,0.5,0.5,0.8l0.5,0.8c0.2,0.4,0.5,0.7,0.7,1.1
			c0.3-0.3,0.4-0.7,0.4-1.1l0,0C9.3,239.2,8.5,238.4,7.6,238.4C7.6,238.4,7.6,238.4,7.6,238.4z"/>
		<circle class="st0" cx="11.4" cy="233.6" r="1.7"/>
		<path class="st0" d="M11.8,244.9c0.4,0.5,0.8,0.9,1.2,1.4C12.9,245.7,12.5,245.1,11.8,244.9z"/>
		<path class="st0" d="M4.4,196.5c0.7-0.2,1.2-0.9,1.2-1.6c0-0.2,0-0.4-0.1-0.5C5.1,195.1,4.7,195.8,4.4,196.5z"/>
		<path class="st0" d="M0.2,212.6L0.2,212.6c-0.1,0.6-0.1,1.1-0.2,1.7s0,1.1,0,1.7h0.2l0,0c0.9,0,1.7-0.8,1.7-1.7l0,0
			C1.8,213.3,1.1,212.6,0.2,212.6z"/>
		<circle class="st0" cx="3.9" cy="207.8" r="1.7"/>
		<path class="st0" d="M1.8,227.1c0-0.3-0.1-0.5-0.2-0.7C1.7,226.6,1.8,226.9,1.8,227.1z"/>
		<circle class="st0" cx="3.9" cy="220.7" r="1.7"/>
		<path class="st0" d="M3.9,232H3.7c0.4,1,0.9,1.9,1.4,2.9c0.4-0.3,0.6-0.8,0.6-1.2C5.6,232.7,4.8,232,3.9,232z"/>
		<polygon class="st1" points="160.3,1.1 159.9,156.6 261.5,215.3 262,59.8 		"/>
		<path class="st0" d="M261.5,216.4c-0.2,0-0.4,0-0.5-0.1l-101.6-58.7c-0.3-0.2-0.5-0.6-0.5-0.9l0.4-155.5c0-0.4,0.2-0.7,0.5-0.9
			c0.3-0.2,0.8-0.2,1.1,0l101.6,58.7c0.4,0.2,0.6,0.6,0.5,1l-0.4,155.5c0,0.4-0.2,0.8-0.5,1C261.9,216.4,261.7,216.4,261.5,216.4z
			 M161,156l99.5,57.4l0.4-153L161.4,3L161,156z"/>
		<polygon class="st1" points="135.1,15.6 134.7,171.1 236.3,229.8 236.8,74.3 		"/>
		<path class="st0" d="M236.3,230.9c-0.2,0-0.4,0-0.5-0.1l-101.6-58.7c-0.4-0.2-0.6-0.6-0.6-1L134,15.6c0-0.4,0.2-0.8,0.6-1
			c0.3-0.2,0.8-0.2,1.1,0l101.7,58.7c0.4,0.2,0.6,0.6,0.5,1l-0.4,155.5c0,0.4-0.2,0.8-0.5,1C236.7,230.9,236.5,230.9,236.3,230.9z
			 M135.8,170.5l99.5,57.4l0.4-153l-99.5-57.4L135.8,170.5z"/>
		<polygon class="st1" points="109.8,30.2 109.4,185.7 211,244.4 211.5,88.9 		"/>
		<path class="st0" d="M211,245.5c-0.2,0-0.4-0.1-0.6-0.1l-101.6-58.7c-0.3-0.2-0.5-0.6-0.5-0.9l0.4-155.5c0-0.6,0.5-1.1,1.1-1.1
			c0.2,0,0.4,0.1,0.5,0.1L212,88c0.3,0.2,0.5,0.6,0.5,0.9l-0.4,155.5C212.1,245,211.6,245.5,211,245.5L211,245.5z M110.4,185.1
			l99.5,57.4l0.4-153l-99.4-57.4L110.4,185.1z"/>
		<path class="st0" d="M159.4,189.8l-0.1,21.6c0.1-0.1,0.2-0.3,0.4-0.4v0.4c0.8-0.8,1.5-1.6,2.2-2.4c0.1-0.1,0.2-0.2,0.3-0.3
			s0.1-0.2,0.2-0.3c0.7-0.9,1.4-1.9,1.9-2.9v-0.1c0.4-0.6,0.7-1.2,1-1.9h15.1l0.1-34.2l-0.1-15.7h-10.2"/>
		<path class="st0" d="M159.8,212.5c-0.1,0-0.2,0-0.3-0.1c-0.2,0-0.3,0-0.5-0.1c-0.4-0.2-0.7-0.6-0.7-1l0.1-21.6
			c0-0.6,0.5-1.1,1.1-1.1c0,0,0,0,0,0l0,0c0.6,0,1.1,0.5,1.1,1.1c0,0,0,0,0,0V209l0.6-0.7l0.2-0.2l0.1-0.1c0.1-0.1,0.1-0.2,0.2-0.3
			c0.7-0.9,1.3-1.8,1.8-2.7c0,0,0-0.1,0.1-0.1c0.3-0.6,0.6-1.2,0.9-1.8c0.2-0.4,0.6-0.7,1-0.6h14l0.1-33.1l-0.1-14.6h-9.1
			c-0.6,0-1.1-0.5-1.1-1.1c0-0.6,0.5-1.1,1.1-1.1h10.2c0.6,0,1.1,0.5,1.1,1.1l0.1,15.7l-0.1,34.2c0,0.6-0.5,1.1-1.1,1.1H166
			c-0.2,0.4-0.4,0.9-0.7,1.3l-0.1,0.1c-0.6,1-1.3,2-2,2.9l-0.2,0.3l-0.2,0.2l-0.1,0.1c-0.7,0.9-1.4,1.7-2.2,2.5
			C160.3,212.4,160,212.5,159.8,212.5z"/>
		<path class="st0" d="M170.3,153.7v-14l-19.2-11.1l-10.6,6.2c-4.4-1.5-9-2.6-13.6-3.2v-8.7H99.8v8.8c-4.6,0.7-9.1,1.8-13.5,3.2
			l-10.7-6.2l-19,11.1v14H46.6l-0.1,34.2l0.1,15.7h15.1v-0.1l0,0v0.1c1.4,3,3.3,5.6,5.7,7.9V211c0.1,0.1,0.3,0.3,0.4,0.4l0.1-21.7
			l8.2,4.7l10.6-6.2v7.4l0,0c0,4,2.6,8,7.9,11.1c1.2,0.7,2.5,1.3,3.9,1.9l0.2,0.1c0.2,0.1,0.4,0.1,0.7,0.2c0.8,0.3,1.6,0.6,2.4,0.8
			c0.4,0.1,0.9,0.2,1.4,0.3l0.8,0.2l0.7,0.2c0.9,0.2,1.8,0.3,2.7,0.5l1,0.1l0.7,0.1l1,0.1c0.9,0.1,1.8,0.1,2.7,0.1h1.6
			c0.4,0,0.8,0,1.2,0c1,0,2-0.1,3-0.2l0.3-0.1l0.8-0.1c0.8-0.1,1.6-0.2,2.3-0.3c0.3-0.1,0.6-0.2,1-0.2c0.9-0.2,1.8-0.4,2.7-0.7
			c0.5-0.1,1-0.2,1.4-0.4s0.7-0.3,1.1-0.4s0.7-0.2,1.1-0.4c1.3-0.5,2.5-1.1,3.7-1.8l0.3-0.2c0.2-0.1,0.5-0.3,0.7-0.5s0.7-0.4,1-0.6
			s0.5-0.4,0.8-0.6s0.6-0.4,0.8-0.7l0.2-0.1c0.1-0.1,0.2-0.2,0.3-0.3c0.4-0.4,0.8-0.8,1.1-1.2c0.1-0.1,0.2-0.2,0.2-0.3
			s0.1-0.2,0.2-0.3c0.2-0.3,0.4-0.6,0.6-0.9c0.1-0.1,0.2-0.3,0.3-0.4s0.1-0.1,0.1-0.2c0.1-0.3,0.3-0.6,0.4-0.9
			c0.1-0.2,0.2-0.3,0.2-0.5s0-0.1,0.1-0.2c0.1-0.3,0.2-0.5,0.2-0.8c0.1-0.2,0.1-0.4,0.2-0.5s0-0.1,0-0.1c0-0.3,0.1-0.6,0.1-0.9
			c0-0.2,0.1-0.4,0.1-0.6v-0.2v-7.4c0.2-0.1,0.3-0.1,0.5-0.1l10.7,6.2l8-4.6"/>
		<path class="st0" d="M67.8,212.5c-0.1,0-0.2,0-0.3,0c-0.3,0-0.6-0.1-0.9-0.3c-2.3-2.2-4.2-4.8-5.6-7.6H46.6
			c-0.6,0-1.1-0.5-1.1-1.1c0,0,0,0,0,0l-0.1-15.7l0.1-34.2c0-0.6,0.5-1.1,1.1-1.1h8.9v-13c0-0.4,0.2-0.7,0.5-0.9l19.1-11
			c0.3-0.2,0.8-0.2,1.1,0l10.3,5.9c4-1.3,8.1-2.3,12.3-3v-7.8c0-0.6,0.5-1.1,1.1-1.1h27.1c0.6,0,1.1,0.5,1.1,1.1v7.8
			c4.2,0.7,8.3,1.7,12.4,3l10.2-5.9c0.3-0.2,0.8-0.2,1.1,0l19.2,11.1c0.3,0.2,0.5,0.6,0.5,0.9v14c0,0.6-0.5,1.1-1.1,1.1c0,0,0,0,0,0
			l0,0c-0.6,0-1.1-0.5-1.1-1.1v-13.4l-18.1-10.4l-10.1,5.9c-0.3,0.2-0.6,0.2-0.9,0.1c-4.4-1.4-8.9-2.5-13.4-3.2
			c-0.5-0.1-0.9-0.5-0.9-1.1v-7.7h-24.9v7.7c0,0.5-0.4,1-0.9,1.1c-4.5,0.7-9,1.7-13.3,3.2c-0.3,0.1-0.6,0.1-0.9-0.1l-10.1-5.9
			l-18,10.4v13.4c0,0.6-0.5,1.1-1.1,1.1h-8.9l-0.1,33.1l0.1,14.6h13.5c0.2-0.1,0.3-0.1,0.5-0.1c0.6,0,1,0.4,1.1,1
			c1,2.1,2.3,4.1,3.9,5.8v-19.4c0-0.4,0.2-0.7,0.6-0.9c0.3-0.2,0.8-0.2,1.1,0l7.7,4.4l10.1-5.9c0.3-0.2,0.8-0.2,1.1,0
			c0.3,0.2,0.5,0.6,0.5,0.9v7.3c0,3.8,2.6,7.4,7.4,10.1c1.2,0.7,2.4,1.3,3.7,1.8l0.2,0.1l0.3,0.1l0.3,0.1h0.1
			c0.7,0.3,1.4,0.5,2.2,0.7l0.8,0.2l0.7,0.2l0.5,0.1l0.3,0.1l0.3,0.1c0.8,0.2,1.7,0.3,2.6,0.5l0.5,0.1l1.5,0.2
			c0.2,0,0.4,0.1,0.5,0.1c0.8,0.1,1.7,0.1,2.6,0.1h2c0.2,0,0.5,0,0.7,0c1,0,2-0.1,2.9-0.2h0.1h0.2l0.4-0.1l0.7-0.1
			c0.6-0.1,1.3-0.2,1.9-0.3l0.4-0.1l0.5-0.1c1-0.2,1.9-0.4,2.6-0.6l0.7-0.2c0.2,0,0.5-0.1,0.7-0.2s0.4-0.1,0.6-0.2l0.5-0.2l1-0.4
			c1.2-0.5,2.4-1.1,3.6-1.7l0.3-0.2c0.1-0.1,0.2-0.2,0.4-0.2l0.5-0.3c0.2-0.2,0.5-0.3,0.7-0.5s0.4-0.3,0.5-0.4l0.3-0.3
			c0.2-0.2,0.4-0.3,0.6-0.5l0.1-0.1l0.1-0.1c0.1-0.1,0.1-0.1,0.2-0.2c0.4-0.4,0.8-0.8,1.1-1.1c0.1-0.1,0.1-0.1,0.2-0.2l0.1-0.1
			l0.1-0.2c0.2-0.3,0.4-0.6,0.6-0.9l0.2-0.2c0,0,0-0.1,0.1-0.1c0-0.1,0-0.1,0.1-0.2c0.1-0.3,0.2-0.5,0.4-0.8c0-0.1,0.1-0.2,0.1-0.3
			c0-0.1,0.1-0.1,0.1-0.2c0-0.1,0-0.1,0.1-0.2c0.1-0.2,0.1-0.4,0.2-0.6v-0.1c0-0.1,0-0.2,0.1-0.3c0-0.1,0-0.1,0.1-0.2
			c0,0,0-0.1,0-0.1c0-0.2,0.1-0.4,0.1-0.6v-0.1c0-0.1,0-0.2,0-0.3c0-0.1,0-0.1,0-0.2v-0.2v-7.4c0-0.5,0.3-0.9,0.8-1l0.3-0.1l0.2-0.1
			c0.3-0.1,0.6-0.1,0.9,0.1l10.1,5.8l7.4-4.3c0.5-0.3,1.2-0.1,1.5,0.4c0.3,0.5,0.1,1.2-0.4,1.5c0,0,0,0,0,0l-8,4.6
			c-0.3,0.2-0.8,0.2-1.1,0l-9.5-5.5v6.1c0,0.2,0,0.4-0.1,0.5c0,0,0,0.1,0,0.2v0.1c0,0.3-0.1,0.5-0.1,0.8c0,0,0,0.1,0,0.1
			c0,0.2-0.1,0.3-0.1,0.5l-0.1,0.2c-0.1,0.3-0.2,0.6-0.3,0.9c0,0,0,0.1-0.1,0.2c-0.1,0.1-0.1,0.3-0.2,0.4c0,0,0,0.1-0.1,0.1
			c-0.1,0.3-0.3,0.6-0.4,0.9c0,0.1-0.1,0.1-0.1,0.2c-0.1,0.1-0.1,0.2-0.2,0.3l-0.1,0.1c-0.2,0.3-0.4,0.7-0.7,1l-0.2,0.3l-0.2,0.2
			c-0.4,0.5-0.8,0.9-1.3,1.4c-0.1,0.1-0.2,0.2-0.3,0.3l-0.1,0.1c-0.3,0.2-0.5,0.4-0.8,0.6l-0.3,0.3l-0.6,0.5
			c-0.3,0.2-0.5,0.4-0.8,0.6l-0.4,0.3l-0.5,0.3l-0.3,0.2c-1.3,0.7-2.6,1.3-3.9,1.9c-0.4,0.1-0.7,0.3-1.1,0.4l-0.4,0.2l-0.7,0.3
			c-0.3,0.1-0.6,0.2-0.9,0.2l-0.6,0.1c-0.8,0.2-1.7,0.5-2.8,0.7l-0.4,0.1c-0.2,0.1-0.4,0.1-0.6,0.2c-0.7,0.1-1.3,0.2-2,0.3L119,212
			l-0.5,0.1h-0.1h-0.2c-1,0.1-2,0.2-3.1,0.2h-2.8c-0.9,0-1.8-0.1-2.7-0.1l-0.6-0.1l-1.4-0.2l-0.6-0.1c-0.9-0.1-1.8-0.3-2.7-0.5
			l-0.4-0.1l-0.3-0.1l-0.5-0.1l-0.7-0.2l-1-0.2c-0.8-0.2-1.6-0.5-2.3-0.8l-0.1-0.1l-0.3-0.1l-0.4-0.1l-0.2-0.1
			c-1.4-0.5-2.7-1.2-4-1.9c-5.5-3.2-8.5-7.4-8.5-12v-5.4l-9,5.2c-0.3,0.2-0.8,0.2-1.1,0l-6.4-3.8l-0.1,19.8c0,0.4-0.3,0.8-0.7,1
			C68,212.5,67.9,212.5,67.8,212.5z"/>
		<path class="st0" d="M140.7,187.5c-0.8,0.3-1.6,0.5-2.5,0.8s-1.9,0.6-2.9,0.8l-1.7,0.4c-0.8,0.2-1.6,0.3-2.4,0.5
			c-1.5,0.3-2.9,0.6-4.4,0.8l-0.1,34.2h0.2v0.2c0.8-0.1,1.5-0.2,2.2-0.4c1.3-0.2,2.6-0.5,3.8-0.8c0.4-0.1,0.8-0.1,1.2-0.2
			c1.8-0.4,3.6-0.9,5.3-1.5l1.1-0.3v-0.2l0,0L140.7,187.5z"/>
		<path class="st0" d="M127,226.3c-0.3,0-0.5-0.1-0.7-0.3l-0.1-0.1l-0.1-0.1c-0.2-0.2-0.4-0.5-0.4-0.8l0.1-34.2c0-0.5,0.4-1,0.9-1.1
			c1.5-0.2,3-0.5,4.4-0.8l0.4-0.1c0.6-0.1,1.3-0.3,1.9-0.4s1.1-0.3,1.6-0.4c1-0.2,1.9-0.5,2.9-0.8l0.5-0.2c0.6-0.2,1.3-0.4,1.9-0.6
			c0.6-0.2,1.2,0.1,1.4,0.7c0,0.1,0.1,0.2,0.1,0.3l-0.1,34.2c0,0.1,0,0.2,0,0.3c0,0.5-0.3,0.9-0.8,1l-1.1,0.4
			c-1.7,0.5-3.4,1-5.4,1.5l-0.7,0.1l-0.5,0.1l-0.2,0.1c-1.2,0.3-2.4,0.6-3.7,0.8l-2.3,0.4L127,226.3z M128,191.8l-0.1,32.2l1.2-0.2
			c1.2-0.2,2.4-0.5,3.6-0.8h0.2l0.5-0.1l0.6-0.1c1.9-0.5,3.6-0.9,5.2-1.5l0.3-0.1l0.1-32.2l-0.5,0.1l-0.5,0.2c-1,0.3-2,0.6-3,0.8
			l-1.7,0.4c-0.7,0.1-1.3,0.3-2,0.4l-0.4,0.1C130.4,191.3,129.2,191.6,128,191.8z"/>
		<polygon class="st0" points="151.4,193.9 151.3,228.1 140.6,222 140.7,187.8 		"/>
		<path class="st0" d="M151.3,229.2c-0.2,0-0.4-0.1-0.6-0.1l-10.7-6.2c-0.3-0.2-0.5-0.6-0.5-0.9l0.1-34.2c0-0.4,0.2-0.7,0.6-0.9
			c0.3-0.2,0.8-0.2,1.1,0l10.7,6.2c0.4,0.2,0.6,0.6,0.5,1l-0.1,34.2C152.3,228.8,151.9,229.3,151.3,229.2L151.3,229.2z M141.7,221.3
			l8.5,4.9l0.1-31.7l-8.5-4.9L141.7,221.3z"/>
		<polygon class="st1" points="170.4,182.9 170.3,217.1 151.3,228.1 151.4,193.9 		"/>
		<path class="st0" d="M151.3,229.2c-0.6,0-1.1-0.5-1.1-1.1l0.1-34.2c0-0.4,0.2-0.7,0.5-0.9l19-11.1c0.3-0.2,0.8-0.2,1.1,0
			c0.4,0.2,0.6,0.6,0.5,1l-0.1,34.2c0,0.4-0.2,0.7-0.6,0.9l-19,11.1C151.6,229.2,151.4,229.2,151.3,229.2z M152.4,194.6l-0.1,31.7
			l16.9-9.8l0.1-31.7L152.4,194.6z"/>
		<polygon class="st1" points="75.9,193.9 75.8,228.1 56.6,217.1 56.7,182.9 		"/>
		<path class="st0" d="M75.8,229.2c-0.2,0-0.4-0.1-0.6-0.1L56,218c-0.3-0.2-0.5-0.6-0.5-0.9l0.1-34.2c0-0.4,0.2-0.7,0.5-0.9
			c0.3-0.2,0.8-0.2,1.1,0L76.4,193c0.3,0.2,0.5,0.6,0.6,0.9l-0.1,34.2c0,0.4-0.2,0.8-0.6,1C76.1,229.2,76,229.2,75.8,229.2z
			 M57.7,216.4l17,9.8l0.1-31.7l-17-9.8L57.7,216.4z"/>
		<polygon class="st0" points="86.5,187.8 86.4,222 75.8,228.1 75.9,193.9 		"/>
		<path class="st0" d="M75.8,229.2c-0.2,0-0.4-0.1-0.6-0.1c-0.3-0.2-0.5-0.6-0.5-0.9l0.1-34.2c0-0.4,0.2-0.7,0.6-0.9l10.6-6.2
			c0.5-0.3,1.2-0.1,1.5,0.4c0.1,0.2,0.1,0.4,0.1,0.6L87.5,222c0,0.4-0.2,0.7-0.5,0.9l-10.6,6.2C76.1,229.2,76,229.2,75.8,229.2z
			 M77,194.6l-0.1,31.7l8.4-4.9l0.1-31.7L77,194.6z"/>
		<path class="st0" d="M100.1,191c-1.6-0.2-3.1-0.5-4.6-0.8c-1.9-0.4-3.7-0.8-5.5-1.4c-1.2-0.3-2.3-0.7-3.5-1.1l-0.1,34.2
			c1.1,0.4,2.3,0.7,3.5,1.1c1.8,0.5,3.6,1,5.5,1.3c1.5,0.3,3.1,0.6,4.6,0.8l0.2-25.5L100.1,191z"/>
		<path class="st0" d="M100,226.3h-0.2c-1.6-0.2-3.2-0.5-4.7-0.8c-1.9-0.4-3.8-0.9-5.6-1.4c-1.2-0.4-2.4-0.7-3.5-1.1
			c-0.4-0.1-0.7-0.5-0.7-1l0.1-34.2c0-0.3,0.2-0.7,0.5-0.9c0.3-0.2,0.7-0.3,1-0.1c1.1,0.4,2.3,0.7,3.4,1.1c1.8,0.5,3.6,0.9,5.4,1.3
			c1.5,0.3,3,0.6,4.6,0.8c0.5,0.1,0.9,0.5,0.9,1.1v8.7l-0.2,25.5c0,0.3-0.1,0.6-0.4,0.8C100.5,226.2,100.2,226.3,100,226.3z
			 M87.5,221.2c0.9,0.3,1.8,0.6,2.7,0.8c1.8,0.5,3.6,0.9,5.4,1.3c1.1,0.2,2.2,0.4,3.3,0.6l0.1-24.2v-7.8c-1.3-0.2-2.5-0.4-3.8-0.7
			c-1.9-0.4-3.8-0.9-5.6-1.4l-2.1-0.6L87.5,221.2z"/>
		<polygon class="st1" points="127.1,199.8 127,233.9 100,233.9 100.1,199.8 		"/>
		<path class="st0" d="M127,235h-27c-0.6,0-1-0.4-1.1-1l0.1-34.2c0-0.6,0.5-1.1,1.1-1.1h27c0.3,0,0.6,0.1,0.8,0.3
			c0.2,0.2,0.3,0.5,0.3,0.8l-0.1,34.2C128.1,234.6,127.6,235,127,235z M101.1,232.8H126l0.1-32h-24.9L101.1,232.8z"/>
		<path class="st1" d="M140.8,187.8c-4.5,1.5-9.1,2.7-13.8,3.3l-0.1,8.7h-26.4v-8.7c-4.7-0.7-9.4-1.8-13.9-3.3L75.9,194l-18.7-10.8
			l10.6-6.2c-2.4-2.3-4.4-5-5.8-8l-15-0.1l-0.1-15.3h15c1.4-3,3.3-5.7,5.7-8L57,139.4l18.6-10.8l10.6,6.1c4.5-1.5,9.1-2.6,13.8-3.3
			l0.1-8.7h26.3v8.7c4.7,0.7,9.4,1.8,13.9,3.3l10.7-6.1l18.7,10.8l-10.6,6.1c2.4,2.3,4.4,5,5.8,8l15,0.1l0.1,15.3h-15
			c-1.4,3-3.3,5.7-5.7,8l10.6,6.2l-18.6,10.8L140.8,187.8z M94.6,172.3c10.5,6.1,27.6,6.1,38,0s10.4-15.9-0.1-22s-27.6-6.1-38,0
			S84,166.2,94.6,172.3"/>
		<path class="st0" d="M126.9,200.9h-26.3c-0.6,0-1.1-0.5-1.1-1.1c0,0,0,0,0,0v-7.8c-4.3-0.7-8.6-1.7-12.7-3.1l-10.2,5.9
			c-0.3,0.2-0.8,0.2-1.1,0l-18.7-10.8c-0.3-0.2-0.5-0.6-0.5-0.9c0-0.4,0.2-0.7,0.5-0.9l9.3-5.4c-1.9-2-3.5-4.2-4.7-6.7L47,170
			c-0.6,0-1.1-0.5-1.1-1.1c0,0,0,0,0,0l-0.1-15.3c0-0.6,0.5-1.1,1.1-1.1c0,0,0,0,0,0h14.3c1.2-2.5,2.7-4.7,4.6-6.7l-9.4-5.5
			c-0.3-0.2-0.5-0.6-0.5-0.9c0-0.4,0.2-0.7,0.5-0.9L75,127.7c0.3-0.2,0.8-0.2,1.1,0l10.2,5.9c4.1-1.4,8.3-2.4,12.6-3.1l0.1-7.8
			c0-0.6,0.5-1.1,1.1-1.1h26.3c0.6,0,1.1,0.5,1.1,1.1v7.7c4.3,0.7,8.5,1.7,12.7,3.1l10.3-5.9c0.3-0.2,0.8-0.2,1.1,0l18.7,10.8
			c0.3,0.2,0.5,0.6,0.6,0.9c0,0.4-0.2,0.8-0.6,1l-9.3,5.4c1.9,2,3.5,4.2,4.7,6.7l14.4,0.1c0.6,0,1.1,0.5,1.1,1.1l0.1,15.3
			c0,0.6-0.5,1.1-1.1,1.1c0,0,0,0,0,0h-14.3c-1.2,2.5-2.7,4.7-4.6,6.7l9.4,5.5c0.3,0.2,0.5,0.6,0.5,0.9c0,0.4-0.2,0.7-0.5,0.9
			L152,194.9c-0.3,0.2-0.8,0.2-1.1,0l-10.2-5.9c-4.1,1.4-8.4,2.4-12.7,3.1l-0.1,7.8C127.9,200.4,127.5,200.9,126.9,200.9z
			 M101.6,198.8h24.2l0.1-7.6c0-0.5,0.4-1,0.9-1.1c4.6-0.7,9.2-1.8,13.7-3.3c0.3-0.1,0.6-0.1,0.9,0.1l10.1,5.8l16.4-9.5l-8.9-5.2
			c-0.3-0.2-0.5-0.5-0.5-0.8c0-0.3,0.1-0.7,0.3-0.9c2.3-2.2,4.1-4.8,5.4-7.7c0.2-0.4,0.6-0.6,1-0.6H179l-0.1-13.1l-14-0.1
			c-0.4,0-0.8-0.3-1-0.6c-1.4-2.9-3.2-5.5-5.6-7.7c-0.4-0.4-0.4-1.1,0-1.5c0.1-0.1,0.2-0.1,0.2-0.2l9-5.2l-16.5-9.6l-10.1,5.8
			c-0.3,0.2-0.6,0.2-0.9,0.1c-4.5-1.5-9-2.6-13.7-3.3c-0.5-0.1-0.9-0.5-0.9-1.1l-0.1-7.6h-24.2l-0.1,7.6c0,0.5-0.4,1-0.9,1.1
			c-4.6,0.7-9.2,1.8-13.6,3.3c-0.3,0.1-0.6,0.1-0.9-0.1l-10.1-5.8l-16.4,9.5l8.9,5.3c0.3,0.2,0.5,0.5,0.5,0.8c0,0.3-0.1,0.7-0.3,0.9
			c-2.3,2.2-4.1,4.8-5.4,7.7c-0.2,0.4-0.6,0.7-1,0.6H48l0.1,13.1l14,0.1c0.4,0,0.8,0.2,1,0.6c1.4,2.9,3.2,5.5,5.6,7.7
			c0.2,0.2,0.4,0.6,0.3,0.9c0,0.3-0.2,0.6-0.5,0.8l-8.9,5.2l16.5,9.5l10.1-5.8c0.3-0.2,0.6-0.2,0.9-0.1c4.5,1.5,9,2.6,13.7,3.3
			c0.5,0.1,0.9,0.5,0.9,1.1L101.6,198.8z M113.6,177.9c-7.1,0-14.2-1.6-19.6-4.7l0,0c-5.4-3.1-8.5-7.4-8.5-12s2.9-8.8,8.3-11.9
			c10.7-6.2,28.3-6.2,39.1,0c5.4,3.1,8.5,7.4,8.5,12s-3,8.8-8.3,11.9S120.7,177.9,113.6,177.9L113.6,177.9z M95.1,171.4
			c10.2,5.9,26.8,5.9,36.9,0c4.7-2.7,7.3-6.3,7.2-10s-2.6-7.4-7.4-10.1c-10.2-5.9-26.8-5.9-36.9,0c-4.7,2.7-7.3,6.3-7.2,10
			S90.3,168.6,95.1,171.4z"/>
		<path class="st0" d="M94.6,172.3c10.5,6.1,27.6,6.1,38,0s10.4-15.9-0.1-22s-27.6-6.1-38,0S84.1,166.2,94.6,172.3"/>
		<g>
			<defs>
				<rect id="SVGID_1_" x="121.9" y="137.3" width="11.8" height="47.2"/>
			</defs>
			<clipPath id="SVGID_2_">
				<use xlink:href="#SVGID_1_"  style="overflow:visible;"/>
			</clipPath>
			<g class="st2">
				<path class="st1" d="M94.6,172.3c10.5,6.1,27.6,6.1,38,0s10.4-15.9-0.1-22s-27.6-6.1-38,0S84.1,166.2,94.6,172.3"/>
				<path class="st0" d="M113.7,177.9c-7.1,0-14.2-1.6-19.6-4.7l0,0c-5.5-3.1-8.5-7.4-8.5-12s3-8.8,8.3-11.9
					c10.8-6.2,28.3-6.2,39.1,0c5.4,3.1,8.5,7.4,8.5,12s-2.9,8.8-8.3,11.9S120.8,177.9,113.7,177.9z M113.5,146.8
					c-6.7,0-13.3,1.5-18.4,4.4c-4.7,2.7-7.3,6.3-7.3,10s2.6,7.4,7.4,10.1l0,0c10.2,5.9,26.8,5.9,36.9,0c4.7-2.7,7.2-6.3,7.2-10
					s-2.6-7.4-7.4-10.1C126.9,148.3,120.2,146.8,113.5,146.8z"/>
			</g>
		</g>
		<g>
			<polyline class="st0" points="180.6,72.3 180.5,107.6 211.2,125.3 180.6,72.3 			"/>
		</g>
		<circle class="st0" cx="9" cy="58.1" r="3"/>
		<circle class="st0" cx="29.3" cy="58.1" r="3"/>
		<circle class="st0" cx="70" cy="58.1" r="2.9"/>
		<circle class="st0" cx="90.3" cy="58.1" r="2.9"/>
		<circle class="st0" cx="49.6" cy="58.1" r="3"/>
		<circle class="st0" cx="9" cy="78.5" r="2.9"/>
		<circle class="st0" cx="29.3" cy="78.5" r="2.9"/>
		<circle class="st0" cx="70" cy="78.5" r="2.9"/>
		<circle class="st0" cx="90.3" cy="78.5" r="2.9"/>
		<circle class="st0" cx="49.6" cy="78.5" r="2.9"/>
		<circle class="st0" cx="9" cy="98.8" r="2.9"/>
		<circle class="st0" cx="29.3" cy="98.8" r="2.9"/>
		<circle class="st0" cx="70" cy="98.8" r="2.9"/>
		<circle class="st0" cx="90.3" cy="98.8" r="2.9"/>
		<circle class="st0" cx="49.6" cy="98.8" r="2.9"/>
		<circle class="st0" cx="9" cy="119.1" r="2.9"/>
		<circle class="st0" cx="29.3" cy="119.1" r="2.9"/>
		<circle class="st0" cx="70" cy="119.1" r="2.9"/>
		<circle class="st0" cx="90.3" cy="119.1" r="2.9"/>
		<circle class="st0" cx="49.6" cy="119.1" r="2.9"/>
		<circle class="st0" cx="9" cy="139.5" r="2.9"/>
		<circle class="st0" cx="29.3" cy="139.5" r="2.9"/>
		<circle class="st0" cx="70" cy="139.5" r="2.9"/>
		<circle class="st0" cx="90.3" cy="139.5" r="2.9"/>
		<circle class="st0" cx="49.6" cy="139.5" r="2.9"/>
	</g>
</g>
</svg>
