<svg xmlns="http://www.w3.org/2000/svg" viewBox="0 0 745 338.14"><defs><style>.cls-1{fill:#ebf2f2;}.cls-2{fill:#6db33f;}.cls-3{fill:none;stroke:#000;stroke-miterlimit:10;stroke-width:1.5px;}</style></defs><title>batch-diagram2</title><g id="Layer_2" data-name="Layer 2"><g id="Layer_1-2" data-name="Layer 1"><rect class="cls-1" width="745" height="338.14" rx="6.21"/><rect class="cls-2" x="291.27" y="62.5" width="161.91" height="57.51"/><rect class="cls-2" x="325.97" y="197.7" width="92.51" height="57.51"/><rect class="cls-2" x="54.58" y="62.5" width="139.23" height="57.51"/><rect class="cls-2" x="570.6" y="62.5" width="119.81" height="57.51"/><rect class="cls-2" x="570.6" y="140.32" width="119.81" height="57.51"/><rect class="cls-2" x="570.6" y="225.35" width="119.81" height="57.51"/><rect class="cls-2" x="86.37" y="153.65" width="107.45" height="57.51"/><rect class="cls-2" x="435.43" y="197.7" width="92.51" height="57.51"/><rect class="cls-2" x="217.15" y="197.7" width="92.51" height="57.51"/><path d="M339.27,95.05V85h5.27a2.59,2.59,0,0,1,2.88,2.55,2.23,2.23,0,0,1-1.73,2.3,2.42,2.42,0,0,1,1.92,2.46,2.63,2.63,0,0,1-2.91,2.7Zm6-7.08a1.08,1.08,0,0,0-1.17-1.1H341.4v2.18h2.67A1.07,1.07,0,0,0,345.24,88Zm.2,4.08a1.17,1.17,0,0,0-1.29-1.17H341.4V93.2h2.75C345,93.2,345.44,92.77,345.44,92.05Z"/><path d="M353.52,95.05V94.3a3,3,0,0,1-2.29.93,2.41,2.41,0,0,1-2.52-2.4,2.31,2.31,0,0,1,2.52-2.34,3,3,0,0,1,2.29.88v-1c0-.74-.63-1.22-1.59-1.22a3,3,0,0,0-2.11.86l-.72-1.28a4.73,4.73,0,0,1,3.16-1.14c1.65,0,3.17.66,3.17,2.75v4.68Zm0-1.74v-.9a1.89,1.89,0,0,0-1.53-.63c-.75,0-1.36.39-1.36,1.09s.61,1.07,1.36,1.07A1.89,1.89,0,0,0,353.52,93.31Z"/><path d="M357.69,93.25V89.47h-1.2V87.8h1.2v-2h1.92v2h1.47v1.67h-1.47v3.27c0,.45.24.79.66.79a1,1,0,0,0,.66-.21l.41,1.44a2.34,2.34,0,0,1-1.59.47A1.81,1.81,0,0,1,357.69,93.25Z"/><path d="M361.92,91.42a3.68,3.68,0,0,1,3.84-3.8,3.38,3.38,0,0,1,2.87,1.31l-1.25,1.17a1.75,1.75,0,0,0-1.53-.78,2.11,2.11,0,0,0,0,4.21,1.82,1.82,0,0,0,1.53-.78l1.25,1.16a3.36,3.36,0,0,1-2.87,1.32A3.68,3.68,0,0,1,361.92,91.42Z"/><path d="M374.78,95.05V90.64c0-1-.53-1.32-1.35-1.32a2.11,2.11,0,0,0-1.65.85v4.88h-1.91V85h1.91v3.71a3.32,3.32,0,0,1,2.55-1.13,2.08,2.08,0,0,1,2.35,2.28v5.15Z"/><path d="M381.56,94.25l.93-1.63a2.28,2.28,0,0,0,1.59.72,1.49,1.49,0,0,0,1.56-1.61V85h2.13v6.72a3.19,3.19,0,0,1-3.53,3.47A3.7,3.7,0,0,1,381.56,94.25Z"/><path d="M389.24,91.42a3.83,3.83,0,1,1,3.82,3.81A3.67,3.67,0,0,1,389.24,91.42Zm5.68,0a1.87,1.87,0,1,0-1.86,2.11A1.91,1.91,0,0,0,394.92,91.42Z"/><path d="M398.31,95.05V85h1.91v3.69a2.8,2.8,0,0,1,2.23-1.11c1.85,0,3.21,1.44,3.21,3.81s-1.38,3.8-3.21,3.8a2.8,2.8,0,0,1-2.23-1.11v.93Zm3.54-1.52a2.12,2.12,0,0,0,0-4.21,2.09,2.09,0,0,0-1.63.84v2.56A2.09,2.09,0,0,0,401.85,93.53Z"/><path d="M78,81.35a5.08,5.08,0,0,1,5.32-5.18,4.58,4.58,0,0,1,4.19,2.45l-1.83.9a2.72,2.72,0,0,0-2.36-1.46,3.29,3.29,0,0,0,0,6.57,2.69,2.69,0,0,0,2.36-1.45l1.83.88a4.6,4.6,0,0,1-4.19,2.46A5.08,5.08,0,0,1,78,81.35Z"/><path d="M88.25,82.71a3.84,3.84,0,1,1,3.83,3.81A3.67,3.67,0,0,1,88.25,82.71Zm5.69,0a1.87,1.87,0,1,0-1.86,2.12A1.92,1.92,0,0,0,93.94,82.71Z"/><path d="M102.22,86.34V82a1.18,1.18,0,0,0-1.34-1.35,2.06,2.06,0,0,0-1.65.86v4.87h-1.9V79.1h1.9V80a3.34,3.34,0,0,1,2.54-1.12,2.1,2.1,0,0,1,2.35,2.31v5.11Z"/><path d="M106.43,86.34V80.76h-1.2V79.1h1.2v-.39a2.33,2.33,0,0,1,2.45-2.52,3.1,3.1,0,0,1,1.38.3l-.39,1.38a1,1,0,0,0-.62-.18c-.54,0-.9.36-.9,1v.39h1.47v1.66h-1.47v5.58Zm4.29-9.16a1.14,1.14,0,0,1,1.14-1.13,1.14,1.14,0,1,1,0,2.27A1.15,1.15,0,0,1,110.72,77.18Zm.2,9.16V79.1h1.9v7.24Z"/><path d="M114.56,88.2l.86-1.38a2.85,2.85,0,0,0,2.26.9,1.77,1.77,0,0,0,2-1.83v-.73a2.82,2.82,0,0,1-2.24,1.14c-1.81,0-3.19-1.28-3.19-3.69s1.36-3.69,3.19-3.69A2.79,2.79,0,0,1,119.68,80V79.1h1.92v6.75c0,2.76-2.13,3.43-3.92,3.43A4.38,4.38,0,0,1,114.56,88.2Zm5.12-4.42V81.44a2.09,2.09,0,0,0-1.64-.83,2,2,0,0,0,0,4A2.14,2.14,0,0,0,119.68,83.78Z"/><path d="M128.38,86.34v-.91a3.42,3.42,0,0,1-2.55,1.09,2.07,2.07,0,0,1-2.34-2.28V79.1h1.9v4.39a1.17,1.17,0,0,0,1.34,1.34,2.14,2.14,0,0,0,1.65-.83V79.1h1.9v7.24Z"/><path d="M132.17,86.34V79.1h1.91v1a3.1,3.1,0,0,1,2.31-1.17v1.86a2.58,2.58,0,0,0-.53,0,2.39,2.39,0,0,0-1.78.83v4.78Z"/><path d="M141.92,86.34v-.75a3,3,0,0,1-2.29.93,2.41,2.41,0,0,1-2.52-2.4,2.32,2.32,0,0,1,2.52-2.34,3,3,0,0,1,2.29.89v-1c0-.73-.63-1.21-1.59-1.21a3,3,0,0,0-2.11.85l-.72-1.27a4.73,4.73,0,0,1,3.16-1.14c1.65,0,3.17.66,3.17,2.74v4.68Zm0-1.74v-.9a1.89,1.89,0,0,0-1.53-.63c-.75,0-1.36.39-1.36,1.1s.61,1.06,1.36,1.06A1.89,1.89,0,0,0,141.92,84.6Z"/><path d="M146.09,84.54V80.76h-1.2V79.1h1.2v-2H148v2h1.47v1.66H148V84c0,.45.24.8.66.8a1,1,0,0,0,.66-.21l.41,1.44a2.4,2.4,0,0,1-1.59.46A1.81,1.81,0,0,1,146.09,84.54Z"/><path d="M150.59,77.18a1.14,1.14,0,0,1,1.14-1.13,1.14,1.14,0,1,1,0,2.27A1.15,1.15,0,0,1,150.59,77.18Zm.2,9.16V79.1h1.9v7.24Z"/><path d="M154.12,82.71a3.83,3.83,0,1,1,3.82,3.81A3.67,3.67,0,0,1,154.12,82.71Zm5.68,0a1.87,1.87,0,1,0-1.86,2.12A1.91,1.91,0,0,0,159.8,82.71Z"/><path d="M168.08,86.34V82a1.17,1.17,0,0,0-1.33-1.35,2,2,0,0,0-1.65.86v4.87h-1.91V79.1h1.91V80a3.32,3.32,0,0,1,2.53-1.12A2.11,2.11,0,0,1,170,81.23v5.11Z"/><path d="M102.47,102.93l1.16-1.62a4.36,4.36,0,0,0,3.18,1.35c1.17,0,1.74-.54,1.74-1.11,0-1.77-5.76-.55-5.76-4.32,0-1.66,1.44-3,3.79-3a5.59,5.59,0,0,1,3.9,1.39l-1.18,1.56a4.29,4.29,0,0,0-2.91-1.09c-.92,0-1.43.4-1.43,1,0,1.59,5.75.53,5.75,4.26,0,1.83-1.31,3.21-4,3.21A5.68,5.68,0,0,1,102.47,102.93Z"/><path d="M111.64,100.71a3.68,3.68,0,0,1,3.75-3.79c2.16,0,3.63,1.62,3.63,4v.42h-5.39a2,2,0,0,0,2.09,1.68,3.07,3.07,0,0,0,1.93-.72l.84,1.23a4.51,4.51,0,0,1-3,1A3.66,3.66,0,0,1,111.64,100.71Zm3.75-2.28A1.75,1.75,0,0,0,113.6,100h3.57A1.67,1.67,0,0,0,115.39,98.43Z"/><path d="M120.4,104.34V97.1h1.9v1a3.1,3.1,0,0,1,2.31-1.17v1.86a2.4,2.4,0,0,0-.52,0,2.43,2.43,0,0,0-1.79.83v4.78Z"/><path d="M127.67,104.34l-2.91-7.24h2l1.89,5,1.89-5h2.06l-2.91,7.24Z"/><path d="M133,100.71a3.68,3.68,0,0,1,3.75-3.79c2.16,0,3.63,1.62,3.63,4v.42H135a2,2,0,0,0,2.09,1.68,3.07,3.07,0,0,0,1.93-.72l.84,1.23a4.51,4.51,0,0,1-3,1A3.66,3.66,0,0,1,133,100.71Zm3.75-2.28A1.75,1.75,0,0,0,135,100h3.57A1.67,1.67,0,0,0,136.78,98.43Z"/><path d="M141.79,104.34V97.1h1.9v1A3.1,3.1,0,0,1,146,96.92v1.86a2.4,2.4,0,0,0-.52,0,2.43,2.43,0,0,0-1.79.83v4.78Z"/><path d="M595.19,94.54v-7l-2.82,7h-.93l-2.82-7v7h-2.13v-10h3l2.43,6,2.43-6h3v10Z"/><path d="M598.8,90.91a3.69,3.69,0,0,1,3.75-3.8c2.16,0,3.63,1.62,3.63,4v.42H600.8a1.94,1.94,0,0,0,2.08,1.68,3.1,3.1,0,0,0,1.94-.72l.84,1.23a4.52,4.52,0,0,1-3,1A3.67,3.67,0,0,1,598.8,90.91Zm3.75-2.28a1.74,1.74,0,0,0-1.78,1.6h3.57A1.68,1.68,0,0,0,602.55,88.63Z"/><path d="M607.94,92.74V89h-1.2V87.29h1.2v-2h1.92v2h1.47V89h-1.47v3.27c0,.45.24.79.66.79a1,1,0,0,0,.66-.21l.4,1.44a2.3,2.3,0,0,1-1.59.47A1.81,1.81,0,0,1,607.94,92.74Z"/><path d="M612.63,94.54V87.29h1.91v1a3.13,3.13,0,0,1,2.31-1.17V89a2.66,2.66,0,0,0-.53,0,2.42,2.42,0,0,0-1.78.82v4.79Z"/><path d="M617.84,85.37A1.14,1.14,0,1,1,619,86.51,1.15,1.15,0,0,1,617.84,85.37Zm.19,9.17V87.29h1.91v7.25Z"/><path d="M621.36,90.91a3.68,3.68,0,0,1,3.84-3.8,3.36,3.36,0,0,1,2.86,1.31l-1.24,1.17a1.76,1.76,0,0,0-1.53-.78,2.11,2.11,0,0,0,0,4.21,1.84,1.84,0,0,0,1.53-.78l1.24,1.16a3.33,3.33,0,0,1-2.86,1.32A3.68,3.68,0,0,1,621.36,90.91Z"/><path d="M628.68,93.59l.83-1.33a4.15,4.15,0,0,0,2.5,1c.83,0,1.21-.33,1.21-.78,0-1.2-4.3-.23-4.3-3.08,0-1.21,1.07-2.28,3-2.28a4.59,4.59,0,0,1,2.92,1l-.76,1.31a3,3,0,0,0-2.14-.84c-.69,0-1.15.31-1.15.72,0,1.08,4.29.18,4.29,3.1,0,1.32-1.12,2.33-3.13,2.33A4.86,4.86,0,0,1,628.68,93.59Z"/><path d="M639.68,93.13l1.15-1.62A4.42,4.42,0,0,0,644,92.86c1.17,0,1.74-.54,1.74-1.11,0-1.77-5.76-.56-5.76-4.32,0-1.67,1.44-3.05,3.8-3.05a5.52,5.52,0,0,1,3.89,1.4l-1.18,1.56a4.3,4.3,0,0,0-2.91-1.1c-.91,0-1.42.41-1.42,1,0,1.59,5.74.52,5.74,4.26,0,1.83-1.31,3.21-4,3.21A5.72,5.72,0,0,1,639.68,93.13Z"/><path d="M649.47,92.74V89h-1.2V87.29h1.2v-2h1.92v2h1.47V89h-1.47v3.27c0,.45.24.79.66.79a1,1,0,0,0,.66-.21l.41,1.44a2.34,2.34,0,0,1-1.59.47A1.81,1.81,0,0,1,649.47,92.74Z"/><path d="M653.7,90.91a3.83,3.83,0,1,1,3.82,3.81A3.67,3.67,0,0,1,653.7,90.91Zm5.69,0A1.87,1.87,0,1,0,657.52,93,1.91,1.91,0,0,0,659.39,90.91Z"/><path d="M662.77,94.54V87.29h1.91v1A3.13,3.13,0,0,1,667,87.11V89a2.55,2.55,0,0,0-.52,0,2.46,2.46,0,0,0-1.79.82v4.79Z"/><path d="M667.71,90.91a3.69,3.69,0,0,1,3.75-3.8c2.16,0,3.63,1.62,3.63,4v.42h-5.38a1.94,1.94,0,0,0,2.08,1.68,3.07,3.07,0,0,0,1.93-.72l.84,1.23a4.5,4.5,0,0,1-3,1A3.67,3.67,0,0,1,667.71,90.91Zm3.75-2.28a1.72,1.72,0,0,0-1.78,1.6h3.56A1.67,1.67,0,0,0,671.46,88.63Z"/><path d="M594.25,172.35v-10h3.94c3.14,0,5.31,2,5.31,5s-2.17,5-5.31,5Zm7.08-5a2.93,2.93,0,0,0-3.14-3.14h-1.81v6.26h1.81A3,3,0,0,0,601.33,167.36Z"/><path d="M609.32,172.35v-.75a3,3,0,0,1-2.29.93,2.41,2.41,0,0,1-2.52-2.4,2.32,2.32,0,0,1,2.52-2.34,3,3,0,0,1,2.29.89v-1c0-.73-.63-1.21-1.59-1.21a3,3,0,0,0-2.11.85l-.72-1.27a4.73,4.73,0,0,1,3.16-1.14c1.65,0,3.17.66,3.17,2.74v4.68Zm0-1.74v-.9a1.89,1.89,0,0,0-1.53-.63c-.75,0-1.36.39-1.36,1.1s.61,1.06,1.36,1.06A1.89,1.89,0,0,0,609.32,170.61Z"/><path d="M612.49,171.41l.82-1.34a4.14,4.14,0,0,0,2.51,1c.82,0,1.21-.33,1.21-.78,0-1.2-4.3-.22-4.3-3.07,0-1.22,1.06-2.28,3-2.28a4.61,4.61,0,0,1,2.92,1l-.76,1.3a3.09,3.09,0,0,0-2.15-.84c-.69,0-1.14.32-1.14.72,0,1.08,4.29.18,4.29,3.11,0,1.32-1.12,2.32-3.13,2.32A4.89,4.89,0,0,1,612.49,171.41Z"/><path d="M625.18,172.35v-4.41c0-1-.53-1.32-1.35-1.32a2.09,2.09,0,0,0-1.65.86v4.87h-1.91v-10h1.91v3.7a3.35,3.35,0,0,1,2.55-1.12,2.08,2.08,0,0,1,2.35,2.28v5.14Z"/><path d="M629,172.35v-10h1.91V166a2.77,2.77,0,0,1,2.23-1.11c1.85,0,3.21,1.44,3.21,3.81s-1.38,3.79-3.21,3.79a2.8,2.8,0,0,1-2.23-1.11v.93Zm3.54-1.51a2.13,2.13,0,0,0,0-4.22,2.09,2.09,0,0,0-1.63.84V170A2.13,2.13,0,0,0,632.51,170.84Z"/><path d="M637.3,168.72a3.83,3.83,0,1,1,3.82,3.81A3.67,3.67,0,0,1,637.3,168.72Zm5.68,0a1.87,1.87,0,1,0-1.86,2.12A1.91,1.91,0,0,0,643,168.72Z"/><path d="M650.72,172.35v-.75a3,3,0,0,1-2.29.93,2.41,2.41,0,0,1-2.52-2.4,2.32,2.32,0,0,1,2.52-2.34,3,3,0,0,1,2.29.89v-1c0-.73-.63-1.21-1.59-1.21a3,3,0,0,0-2.11.85l-.72-1.27a4.73,4.73,0,0,1,3.16-1.14c1.65,0,3.17.66,3.17,2.74v4.68Zm0-1.74v-.9a1.89,1.89,0,0,0-1.53-.63c-.75,0-1.36.39-1.36,1.1s.61,1.06,1.36,1.06A1.89,1.89,0,0,0,650.72,170.61Z"/><path d="M654.52,172.35v-7.24h1.9v1a3.1,3.1,0,0,1,2.31-1.17v1.86a2.4,2.4,0,0,0-.52,0,2.43,2.43,0,0,0-1.79.83v4.78Z"/><path d="M664.9,172.35v-.93a2.82,2.82,0,0,1-2.24,1.11c-1.83,0-3.21-1.38-3.21-3.79s1.37-3.81,3.21-3.81A2.78,2.78,0,0,1,664.9,166v-3.69h1.92v10Zm0-2.34v-2.56a2.09,2.09,0,0,0-1.65-.83,2.13,2.13,0,0,0,0,4.22A2.09,2.09,0,0,0,664.9,170Z"/><path d="M586.61,247.78l1.16-1.62a4.36,4.36,0,0,0,3.18,1.35c1.17,0,1.74-.54,1.74-1.11,0-1.77-5.76-.55-5.76-4.32,0-1.66,1.44-3,3.79-3a5.59,5.59,0,0,1,3.9,1.39L593.44,242a4.29,4.29,0,0,0-2.91-1.09c-.92,0-1.43.4-1.43,1,0,1.59,5.75.53,5.75,4.26,0,1.83-1.31,3.21-4,3.21A5.68,5.68,0,0,1,586.61,247.78Z"/><path d="M598.15,248.26V252h-1.91V242h1.91v.91a2.8,2.8,0,0,1,2.23-1.09c1.86,0,3.21,1.38,3.21,3.79s-1.35,3.81-3.21,3.81A2.76,2.76,0,0,1,598.15,248.26Zm3.46-2.7a1.88,1.88,0,0,0-1.83-2.1,2.11,2.11,0,0,0-1.63.83v2.56a2.18,2.18,0,0,0,1.63.83A1.89,1.89,0,0,0,601.61,245.56Z"/><path d="M605,249.19V242h1.9v1a3.1,3.1,0,0,1,2.31-1.17v1.86a2.4,2.4,0,0,0-.52,0,2.43,2.43,0,0,0-1.79.83v4.78Z"/><path d="M610.19,240a1.14,1.14,0,0,1,1.14-1.13,1.14,1.14,0,1,1,0,2.27A1.15,1.15,0,0,1,610.19,240Zm.2,9.16V242h1.9v7.24Z"/><path d="M619.07,249.19v-4.38a1.17,1.17,0,0,0-1.33-1.35,2,2,0,0,0-1.65.86v4.87h-1.91V242h1.91v.94a3.32,3.32,0,0,1,2.53-1.12,2.11,2.11,0,0,1,2.36,2.31v5.11Z"/><path d="M622.72,251.05l.85-1.38a2.87,2.87,0,0,0,2.27.9,1.77,1.77,0,0,0,2-1.83V248a2.82,2.82,0,0,1-2.23,1.14c-1.82,0-3.2-1.28-3.2-3.69s1.37-3.69,3.2-3.69a2.76,2.76,0,0,1,2.23,1.11V242h1.92v6.75c0,2.76-2.13,3.43-3.91,3.43A4.35,4.35,0,0,1,622.72,251.05Zm5.11-4.42v-2.34a2.05,2.05,0,0,0-1.63-.83,2,2,0,0,0,0,4A2.1,2.1,0,0,0,627.83,246.63Z"/><path d="M635.05,244.2a5.08,5.08,0,0,1,5.32-5.18,4.58,4.58,0,0,1,4.19,2.45l-1.83.9a2.72,2.72,0,0,0-2.36-1.46,3.29,3.29,0,0,0,0,6.57,2.69,2.69,0,0,0,2.36-1.45l1.83.88a4.6,4.6,0,0,1-4.19,2.46A5.08,5.08,0,0,1,635.05,244.2Z"/><path d="M645.79,249.19v-10h1.9v10Z"/><path d="M649.12,245.56a3.83,3.83,0,1,1,3.82,3.81A3.67,3.67,0,0,1,649.12,245.56Zm5.68,0a1.87,1.87,0,1,0-1.86,2.12A1.91,1.91,0,0,0,654.8,245.56Z"/><path d="M663.08,249.19v-.91a3.39,3.39,0,0,1-2.55,1.09,2.07,2.07,0,0,1-2.34-2.28V242h1.91v4.39c0,1,.52,1.34,1.33,1.34a2.13,2.13,0,0,0,1.65-.83V242H665v7.24Z"/><path d="M671.86,249.19v-.93a2.82,2.82,0,0,1-2.24,1.11c-1.83,0-3.21-1.38-3.21-3.79s1.37-3.81,3.21-3.81a2.78,2.78,0,0,1,2.24,1.11v-3.69h1.92v10Zm0-2.34v-2.56a2.09,2.09,0,0,0-1.65-.83,2.13,2.13,0,0,0,0,4.22A2.09,2.09,0,0,0,671.86,246.85Z"/><path d="M597.26,267.19v-10h4c3.13,0,5.31,2,5.31,5s-2.18,5-5.31,5Zm7.08-5a2.93,2.93,0,0,0-3.13-3.14h-1.82v6.26h1.82A3,3,0,0,0,604.34,262.2Z"/><path d="M612.34,267.19v-.75a3,3,0,0,1-2.3.93,2.42,2.42,0,0,1-2.52-2.4,2.32,2.32,0,0,1,2.52-2.34,3,3,0,0,1,2.3.89v-1c0-.73-.63-1.21-1.59-1.21a3.06,3.06,0,0,0-2.12.85l-.72-1.27a4.77,4.77,0,0,1,3.17-1.14c1.65,0,3.16.66,3.16,2.74v4.68Zm0-1.74v-.9a1.92,1.92,0,0,0-1.53-.63c-.75,0-1.37.39-1.37,1.1s.62,1.06,1.37,1.06A1.92,1.92,0,0,0,612.34,265.45Z"/><path d="M616.51,265.39v-3.78h-1.2V260h1.2v-2h1.92v2h1.47v1.66h-1.47v3.27c0,.45.24.8.66.8a1.1,1.1,0,0,0,.66-.21l.4,1.44a2.36,2.36,0,0,1-1.59.46A1.81,1.81,0,0,1,616.51,265.39Z"/><path d="M625.55,267.19v-.75a3,3,0,0,1-2.29.93,2.41,2.41,0,0,1-2.52-2.4,2.32,2.32,0,0,1,2.52-2.34,3,3,0,0,1,2.29.89v-1c0-.73-.63-1.21-1.59-1.21a3,3,0,0,0-2.11.85l-.72-1.27a4.73,4.73,0,0,1,3.16-1.14c1.65,0,3.17.66,3.17,2.74v4.68Zm0-1.74v-.9a1.89,1.89,0,0,0-1.53-.63c-.75,0-1.36.39-1.36,1.1s.61,1.06,1.36,1.06A1.89,1.89,0,0,0,625.55,265.45Z"/><path d="M633.23,267.19v-10h7.08v1.87h-4.95v2.12h4.85v1.87h-4.85v4.14Z"/><path d="M641.75,267.19v-10h1.91v10Z"/><path d="M645.08,263.56a3.84,3.84,0,1,1,3.83,3.81A3.67,3.67,0,0,1,645.08,263.56Zm5.69,0a1.87,1.87,0,1,0-1.86,2.12A1.92,1.92,0,0,0,650.77,263.56Z"/><path d="M660.52,267.19,659,262.26l-1.53,4.93h-2L653.21,260h2l1.35,4.87,1.59-4.87h1.7l1.59,4.87,1.35-4.87h2l-2.21,7.24Z"/><path d="M115.42,176.09l1.16-1.62a4.4,4.4,0,0,0,3.18,1.35c1.17,0,1.74-.54,1.74-1.11,0-1.77-5.76-.56-5.76-4.32,0-1.67,1.44-3,3.79-3a5.55,5.55,0,0,1,3.9,1.4l-1.18,1.56a4.3,4.3,0,0,0-2.91-1.1c-.92,0-1.43.41-1.43,1,0,1.59,5.75.52,5.75,4.26,0,1.83-1.31,3.21-4,3.21A5.72,5.72,0,0,1,115.42,176.09Z"/><path d="M124.59,173.87a3.69,3.69,0,0,1,3.75-3.8c2.16,0,3.63,1.62,3.63,4v.42h-5.39a2,2,0,0,0,2.09,1.68,3.07,3.07,0,0,0,1.93-.72l.84,1.23a4.51,4.51,0,0,1-3,1A3.67,3.67,0,0,1,124.59,173.87Zm3.75-2.28a1.74,1.74,0,0,0-1.79,1.6h3.57A1.67,1.67,0,0,0,128.34,171.59Z"/><path d="M133.35,177.5v-7.25h1.9v1a3.13,3.13,0,0,1,2.31-1.17v1.86a2.49,2.49,0,0,0-.52,0,2.46,2.46,0,0,0-1.79.82v4.79Z"/><path d="M140.62,177.5l-2.91-7.25h2l1.89,5,1.89-5h2.06l-2.91,7.25Z"/><path d="M146.25,168.33a1.14,1.14,0,1,1,1.14,1.14A1.15,1.15,0,0,1,146.25,168.33Zm.19,9.17v-7.25h1.91v7.25Z"/><path d="M149.77,173.87a3.68,3.68,0,0,1,3.84-3.8,3.38,3.38,0,0,1,2.87,1.31l-1.25,1.17a1.75,1.75,0,0,0-1.53-.78,2.11,2.11,0,0,0,0,4.21,1.82,1.82,0,0,0,1.53-.78l1.25,1.16a3.36,3.36,0,0,1-2.87,1.32A3.68,3.68,0,0,1,149.77,173.87Z"/><path d="M157.26,173.87a3.69,3.69,0,0,1,3.75-3.8c2.16,0,3.63,1.62,3.63,4v.42h-5.39a2,2,0,0,0,2.09,1.68,3.07,3.07,0,0,0,1.93-.72l.84,1.23a4.51,4.51,0,0,1-3,1A3.67,3.67,0,0,1,157.26,173.87Zm3.75-2.28a1.74,1.74,0,0,0-1.79,1.6h3.57A1.67,1.67,0,0,0,161,171.59Z"/><path d="M107.63,195.5v-10h4c3.13,0,5.31,2,5.31,5s-2.18,5-5.31,5Zm7.08-5a2.92,2.92,0,0,0-3.13-3.13h-1.82v6.25h1.82A3,3,0,0,0,114.71,190.5Z"/><path d="M118.16,186.33a1.14,1.14,0,0,1,1.14-1.12,1.12,1.12,0,0,1,1.14,1.12,1.14,1.14,0,0,1-1.14,1.14A1.15,1.15,0,0,1,118.16,186.33Zm.2,9.17v-7.25h1.9v7.25Z"/><path d="M121.52,194.55l.83-1.33a4.15,4.15,0,0,0,2.5,1c.83,0,1.22-.33,1.22-.78,0-1.2-4.31-.23-4.31-3.08,0-1.21,1.07-2.28,3-2.28a4.64,4.64,0,0,1,2.93,1l-.77,1.31a3,3,0,0,0-2.14-.84c-.69,0-1.14.31-1.14.72,0,1.08,4.29.18,4.29,3.1,0,1.32-1.13,2.33-3.14,2.33A4.86,4.86,0,0,1,121.52,194.55Z"/><path d="M128.84,191.87a3.68,3.68,0,0,1,3.84-3.8,3.38,3.38,0,0,1,2.87,1.31l-1.25,1.17a1.75,1.75,0,0,0-1.53-.78,2.11,2.11,0,0,0,0,4.21,1.82,1.82,0,0,0,1.53-.78l1.25,1.16a3.36,3.36,0,0,1-2.87,1.32A3.68,3.68,0,0,1,128.84,191.87Z"/><path d="M136.33,191.87a3.83,3.83,0,1,1,3.82,3.81A3.67,3.67,0,0,1,136.33,191.87Zm5.68,0a1.87,1.87,0,1,0-1.86,2.11A1.91,1.91,0,0,0,142,191.87Z"/><path d="M147.28,195.5l-2.91-7.25h2l1.89,5,1.89-5h2.05l-2.91,7.25Z"/><path d="M152.63,191.87a3.69,3.69,0,0,1,3.75-3.8c2.16,0,3.63,1.62,3.63,4v.42h-5.38a1.94,1.94,0,0,0,2.08,1.68,3.1,3.1,0,0,0,1.94-.72l.84,1.23a4.52,4.52,0,0,1-3,1A3.67,3.67,0,0,1,152.63,191.87Zm3.75-2.28a1.74,1.74,0,0,0-1.78,1.6h3.57A1.68,1.68,0,0,0,156.38,189.59Z"/><path d="M161.39,195.5v-7.25h1.91v1a3.13,3.13,0,0,1,2.31-1.17v1.86a2.66,2.66,0,0,0-.53,0,2.42,2.42,0,0,0-1.78.82v4.79Z"/><path d="M166.82,196.62a1.57,1.57,0,0,0,.6.12,1,1,0,0,0,1-.52l.27-.62-2.94-7.35h2l1.89,5,1.89-5h2l-3.4,8.43a2.63,2.63,0,0,1-2.75,1.76,5.22,5.22,0,0,1-.94-.11Z"/><path d="M339.27,221.32v-10h5.27a2.59,2.59,0,0,1,2.88,2.55,2.22,2.22,0,0,1-1.73,2.29,2.42,2.42,0,0,1,1.92,2.46,2.63,2.63,0,0,1-2.91,2.7Zm6-7.08a1.07,1.07,0,0,0-1.17-1.09H341.4v2.17h2.67A1.07,1.07,0,0,0,345.24,214.24Zm.2,4.08a1.17,1.17,0,0,0-1.29-1.17H341.4v2.33h2.75A1.13,1.13,0,0,0,345.44,218.32Z"/><path d="M353.52,221.32v-.75a3,3,0,0,1-2.29.93,2.41,2.41,0,0,1-2.52-2.4,2.32,2.32,0,0,1,2.52-2.34,3,3,0,0,1,2.29.89v-1c0-.73-.63-1.21-1.59-1.21a3,3,0,0,0-2.11.85L349.1,215a4.73,4.73,0,0,1,3.16-1.14c1.65,0,3.17.66,3.17,2.74v4.68Zm0-1.74v-.9a1.89,1.89,0,0,0-1.53-.63c-.75,0-1.36.39-1.36,1.1s.61,1.06,1.36,1.06A1.89,1.89,0,0,0,353.52,219.58Z"/><path d="M357.69,219.52v-3.78h-1.2v-1.66h1.2v-2h1.92v2h1.47v1.66h-1.47V219c0,.45.24.79.66.79a1.05,1.05,0,0,0,.66-.2l.41,1.44a2.4,2.4,0,0,1-1.59.46A1.81,1.81,0,0,1,357.69,219.52Z"/><path d="M361.92,217.69a3.67,3.67,0,0,1,3.84-3.79,3.37,3.37,0,0,1,2.87,1.3l-1.25,1.17a1.75,1.75,0,0,0-1.53-.78,2.11,2.11,0,0,0,0,4.21,1.81,1.81,0,0,0,1.53-.77l1.25,1.15a3.33,3.33,0,0,1-2.87,1.32A3.68,3.68,0,0,1,361.92,217.69Z"/><path d="M374.78,221.32v-4.41c0-1-.53-1.32-1.35-1.32a2.09,2.09,0,0,0-1.65.86v4.87h-1.91v-10h1.91V215a3.35,3.35,0,0,1,2.55-1.12,2.08,2.08,0,0,1,2.35,2.28v5.14Z"/><path d="M381.56,220.53l.93-1.64a2.24,2.24,0,0,0,1.59.72,1.49,1.49,0,0,0,1.56-1.6v-6.69h2.13V218a3.18,3.18,0,0,1-3.53,3.46A3.73,3.73,0,0,1,381.56,220.53Z"/><path d="M389.24,217.69a3.83,3.83,0,1,1,3.82,3.81A3.67,3.67,0,0,1,389.24,217.69Zm5.68,0a1.87,1.87,0,1,0-1.86,2.11A1.91,1.91,0,0,0,394.92,217.69Z"/><path d="M398.31,221.32v-10h1.91V215a2.77,2.77,0,0,1,2.23-1.11c1.85,0,3.21,1.44,3.21,3.81s-1.38,3.79-3.21,3.79a2.8,2.8,0,0,1-2.23-1.11v.93Zm3.54-1.52a1.87,1.87,0,0,0,1.85-2.09,1.89,1.89,0,0,0-1.85-2.12,2.09,2.09,0,0,0-1.63.84V219A2.12,2.12,0,0,0,401.85,219.8Z"/><path d="M356.46,239.32l-1.76-6.87L353,239.32H350.7l-2.87-10h2.39l1.75,7.23,1.91-7.23h1.66l1.89,7.23,1.74-7.23h2.4l-2.85,10Z"/><path d="M361.47,235.69a3.83,3.83,0,1,1,3.82,3.81A3.67,3.67,0,0,1,361.47,235.69Zm5.68,0a1.92,1.92,0,0,0-1.86-2.1,2.12,2.12,0,1,0,1.86,2.1Z"/><path d="M370.54,239.32v-7.24h1.91v1a3.08,3.08,0,0,1,2.31-1.17v1.86a2.58,2.58,0,0,0-.53,0,2.39,2.39,0,0,0-1.78.83v4.78Z"/><path d="M380.64,239.32l-1.92-2.79-.87.93v1.86h-1.91v-10h1.91v6l2.74-3.22h2.34l-2.87,3.28,3,4Z"/><path d="M383.41,235.69a3.69,3.69,0,0,1,3.75-3.79c2.16,0,3.63,1.62,3.63,4v.43h-5.38a1.94,1.94,0,0,0,2.08,1.68,3.18,3.18,0,0,0,1.94-.72l.83,1.23a4.49,4.49,0,0,1-3,1A3.67,3.67,0,0,1,383.41,235.69Zm3.75-2.28a1.74,1.74,0,0,0-1.78,1.61h3.56A1.67,1.67,0,0,0,387.16,233.41Z"/><path d="M392.17,239.32v-7.24h1.91v1a3.08,3.08,0,0,1,2.31-1.17v1.86a2.58,2.58,0,0,0-.53,0,2.39,2.39,0,0,0-1.78.83v4.78Z"/><path d="M448.74,221.32v-10H454a2.58,2.58,0,0,1,2.88,2.55,2.22,2.22,0,0,1-1.72,2.29,2.43,2.43,0,0,1,1.92,2.46,2.64,2.64,0,0,1-2.91,2.7Zm6-7.08a1.07,1.07,0,0,0-1.17-1.09h-2.67v2.17h2.67A1.07,1.07,0,0,0,454.71,214.24Zm.19,4.08a1.17,1.17,0,0,0-1.29-1.17h-2.74v2.33h2.74A1.13,1.13,0,0,0,454.9,218.32Z"/><path d="M463,221.32v-.75a3,3,0,0,1-2.3.93,2.42,2.42,0,0,1-2.52-2.4,2.32,2.32,0,0,1,2.52-2.34,3,3,0,0,1,2.3.89v-1c0-.73-.63-1.21-1.59-1.21a3.06,3.06,0,0,0-2.12.85l-.72-1.27a4.77,4.77,0,0,1,3.17-1.14c1.65,0,3.16.66,3.16,2.74v4.68Zm0-1.74v-.9a1.92,1.92,0,0,0-1.53-.63c-.75,0-1.37.39-1.37,1.1s.62,1.06,1.37,1.06A1.92,1.92,0,0,0,463,219.58Z"/><path d="M467.16,219.52v-3.78H466v-1.66h1.2v-2h1.92v2h1.47v1.66h-1.47V219c0,.45.24.79.66.79a1.1,1.1,0,0,0,.66-.2l.4,1.44a2.36,2.36,0,0,1-1.59.46A1.81,1.81,0,0,1,467.16,219.52Z"/><path d="M471.39,217.69a3.67,3.67,0,0,1,3.84-3.79,3.37,3.37,0,0,1,2.86,1.3l-1.24,1.17a1.76,1.76,0,0,0-1.53-.78,2.11,2.11,0,0,0,0,4.21,1.83,1.83,0,0,0,1.53-.77l1.24,1.15a3.32,3.32,0,0,1-2.86,1.32A3.67,3.67,0,0,1,471.39,217.69Z"/><path d="M484.24,221.32v-4.41c0-1-.52-1.32-1.35-1.32a2.11,2.11,0,0,0-1.65.86v4.87h-1.9v-10h1.9V215a3.38,3.38,0,0,1,2.55-1.12,2.09,2.09,0,0,1,2.36,2.28v5.14Z"/><path d="M491,220.53l.93-1.64a2.24,2.24,0,0,0,1.59.72,1.48,1.48,0,0,0,1.56-1.6v-6.69h2.13V218a3.18,3.18,0,0,1-3.52,3.46A3.74,3.74,0,0,1,491,220.53Z"/><path d="M498.7,217.69a3.84,3.84,0,1,1,3.83,3.81A3.67,3.67,0,0,1,498.7,217.69Zm5.69,0a1.87,1.87,0,1,0-1.86,2.11A1.92,1.92,0,0,0,504.39,217.69Z"/><path d="M507.78,221.32v-10h1.9V215a2.78,2.78,0,0,1,2.24-1.11c1.84,0,3.21,1.44,3.21,3.81s-1.38,3.79-3.21,3.79a2.82,2.82,0,0,1-2.24-1.11v.93Zm3.54-1.52a1.87,1.87,0,0,0,1.84-2.09,1.89,1.89,0,0,0-1.84-2.12,2.11,2.11,0,0,0-1.64.84V219A2.14,2.14,0,0,0,511.32,219.8Z"/><path d="M465.92,239.32l-1.75-6.87-1.74,6.87h-2.27l-2.86-10h2.38l1.76,7.23,1.9-7.23H465l1.89,7.23,1.74-7.23H471l-2.85,10Z"/><path d="M470.93,235.69a3.84,3.84,0,1,1,3.83,3.81A3.67,3.67,0,0,1,470.93,235.69Zm5.69,0a1.87,1.87,0,1,0-1.86,2.11A1.92,1.92,0,0,0,476.62,235.69Z"/><path d="M480,239.32v-7.24h1.9v1a3.1,3.1,0,0,1,2.31-1.17v1.86a2.4,2.4,0,0,0-.52,0,2.43,2.43,0,0,0-1.79.83v4.78Z"/><path d="M490.1,239.32l-1.92-2.79-.87.93v1.86h-1.9v-10h1.9v6l2.75-3.22h2.34l-2.87,3.28,3,4Z"/><path d="M492.88,235.69a3.68,3.68,0,0,1,3.75-3.79c2.16,0,3.63,1.62,3.63,4v.43h-5.39A2,2,0,0,0,497,238a3.13,3.13,0,0,0,1.93-.72l.84,1.23a4.51,4.51,0,0,1-3,1A3.66,3.66,0,0,1,492.88,235.69Zm3.75-2.28a1.75,1.75,0,0,0-1.79,1.61h3.57A1.67,1.67,0,0,0,496.63,233.41Z"/><path d="M501.64,239.32v-7.24h1.9v1a3.1,3.1,0,0,1,2.31-1.17v1.86a2.4,2.4,0,0,0-.52,0,2.43,2.43,0,0,0-1.79.83v4.78Z"/><path d="M230.46,221.32v-10h5.26a2.58,2.58,0,0,1,2.88,2.55,2.22,2.22,0,0,1-1.72,2.29,2.43,2.43,0,0,1,1.92,2.46,2.64,2.64,0,0,1-2.91,2.7Zm6-7.08a1.07,1.07,0,0,0-1.17-1.09h-2.67v2.17h2.67A1.07,1.07,0,0,0,236.43,214.24Zm.19,4.08a1.17,1.17,0,0,0-1.29-1.17h-2.74v2.33h2.74A1.13,1.13,0,0,0,236.62,218.32Z"/><path d="M244.71,221.32v-.75a3,3,0,0,1-2.3.93,2.42,2.42,0,0,1-2.52-2.4,2.32,2.32,0,0,1,2.52-2.34,3,3,0,0,1,2.3.89v-1c0-.73-.63-1.21-1.59-1.21a3.06,3.06,0,0,0-2.12.85l-.72-1.27a4.77,4.77,0,0,1,3.17-1.14c1.65,0,3.16.66,3.16,2.74v4.68Zm0-1.74v-.9a1.92,1.92,0,0,0-1.53-.63c-.75,0-1.37.39-1.37,1.1s.62,1.06,1.37,1.06A1.92,1.92,0,0,0,244.71,219.58Z"/><path d="M248.88,219.52v-3.78h-1.2v-1.66h1.2v-2h1.92v2h1.47v1.66H250.8V219c0,.45.24.79.66.79a1.1,1.1,0,0,0,.66-.2l.4,1.44a2.36,2.36,0,0,1-1.59.46A1.81,1.81,0,0,1,248.88,219.52Z"/><path d="M253.11,217.69A3.67,3.67,0,0,1,257,213.9a3.37,3.37,0,0,1,2.86,1.3l-1.24,1.17a1.76,1.76,0,0,0-1.53-.78,2.11,2.11,0,0,0,0,4.21,1.83,1.83,0,0,0,1.53-.77l1.24,1.15A3.32,3.32,0,0,1,257,221.5,3.67,3.67,0,0,1,253.11,217.69Z"/><path d="M266,221.32v-4.41c0-1-.52-1.32-1.35-1.32a2.11,2.11,0,0,0-1.65.86v4.87h-1.9v-10H263V215a3.38,3.38,0,0,1,2.55-1.12,2.09,2.09,0,0,1,2.36,2.28v5.14Z"/><path d="M272.74,220.53l.93-1.64a2.24,2.24,0,0,0,1.59.72,1.48,1.48,0,0,0,1.56-1.6v-6.69H279V218a3.18,3.18,0,0,1-3.52,3.46A3.74,3.74,0,0,1,272.74,220.53Z"/><path d="M280.42,217.69a3.84,3.84,0,1,1,3.83,3.81A3.67,3.67,0,0,1,280.42,217.69Zm5.69,0a1.87,1.87,0,1,0-1.86,2.11A1.92,1.92,0,0,0,286.11,217.69Z"/><path d="M289.5,221.32v-10h1.9V215a2.78,2.78,0,0,1,2.24-1.11c1.84,0,3.21,1.44,3.21,3.81s-1.38,3.79-3.21,3.79a2.82,2.82,0,0,1-2.24-1.11v.93ZM293,219.8a1.87,1.87,0,0,0,1.84-2.09,1.89,1.89,0,0,0-1.84-2.12,2.11,2.11,0,0,0-1.64.84V219A2.14,2.14,0,0,0,293,219.8Z"/><path d="M247.64,239.32l-1.75-6.87-1.74,6.87h-2.27l-2.86-10h2.38l1.76,7.23,1.9-7.23h1.67l1.89,7.23,1.74-7.23h2.4l-2.85,10Z"/><path d="M252.65,235.69a3.84,3.84,0,1,1,3.83,3.81A3.67,3.67,0,0,1,252.65,235.69Zm5.69,0a1.87,1.87,0,1,0-1.86,2.11A1.92,1.92,0,0,0,258.34,235.69Z"/><path d="M261.73,239.32v-7.24h1.9v1a3.1,3.1,0,0,1,2.31-1.17v1.86a2.4,2.4,0,0,0-.52,0,2.43,2.43,0,0,0-1.79.83v4.78Z"/><path d="M271.82,239.32l-1.92-2.79-.87.93v1.86h-1.9v-10H269v6l2.75-3.22h2.34l-2.87,3.28,3,4Z"/><path d="M274.6,235.69a3.68,3.68,0,0,1,3.75-3.79c2.16,0,3.63,1.62,3.63,4v.43h-5.39a2,2,0,0,0,2.09,1.68,3.13,3.13,0,0,0,1.93-.72l.84,1.23a4.51,4.51,0,0,1-3,1A3.66,3.66,0,0,1,274.6,235.69Zm3.75-2.28a1.75,1.75,0,0,0-1.79,1.61h3.57A1.67,1.67,0,0,0,278.35,233.41Z"/><path d="M283.36,239.32v-7.24h1.9v1a3.1,3.1,0,0,1,2.31-1.17v1.86a2.4,2.4,0,0,0-.52,0,2.43,2.43,0,0,0-1.79.83v4.78Z"/><line class="cls-3" x1="372.22" y1="120.01" x2="372.22" y2="192.31"/><polygon points="368.48 191.22 372.22 197.7 375.96 191.22 368.48 191.22"/><polyline class="cls-3" points="372.22 158.85 481.69 158.85 481.69 192.31"/><polygon points="477.95 191.22 481.69 197.7 485.43 191.22 477.95 191.22"/><polyline class="cls-3" points="372.22 158.85 262.75 158.85 262.75 192.31"/><polygon points="259.01 191.22 262.75 197.7 266.49 191.22 259.01 191.22"/><line class="cls-3" x1="291.27" y1="91.25" x2="199.2" y2="91.25"/><polygon points="200.29 87.51 193.81 91.25 200.29 94.99 200.29 87.51"/><polyline class="cls-3" points="216.38 91.25 216.38 182.41 199.2 182.41"/><polygon points="200.29 178.66 193.81 182.41 200.29 186.15 200.29 178.66"/><line class="cls-3" x1="453.17" y1="91.25" x2="565.22" y2="91.25"/><polygon points="564.13 94.99 570.61 91.25 564.13 87.51 564.13 94.99"/><polyline class="cls-3" points="570.61 254.1 546.66 254.1 546.66 106.63 458.56 106.63"/><polygon points="459.65 102.89 453.17 106.63 459.65 110.37 459.65 102.89"/><line class="cls-3" x1="630.51" y1="139.49" x2="630.51" y2="125.39"/><polygon points="634.25 126.48 630.51 120 626.77 126.48 634.25 126.48"/></g></g></svg>