<svg xmlns="http://www.w3.org/2000/svg" viewBox="0 0 745 340.53"><defs><style>.cls-1{fill:#ebf2f2;}.cls-2{fill:#6db33f;}.cls-3{fill:none;stroke:#000;stroke-miterlimit:10;stroke-width:2px;}</style></defs><title>batch-diagram1</title><g id="Layer_2" data-name="Layer 2"><g id="Layer_1-2" data-name="Layer 1"><rect class="cls-1" width="745" height="340.53" rx="6.21"/><rect class="cls-2" x="43.82" y="242.59" width="454.99" height="38.42"/><rect class="cls-2" x="45.12" y="113.7" width="118.25" height="47.64"/><path d="M60.42,140.82l.93-1.63a2.28,2.28,0,0,0,1.59.72,1.49,1.49,0,0,0,1.56-1.61v-6.69h2.13v6.72a3.19,3.19,0,0,1-3.53,3.47A3.7,3.7,0,0,1,60.42,140.82Z"/><path d="M68.1,138a3.83,3.83,0,1,1,3.82,3.81A3.67,3.67,0,0,1,68.1,138Zm5.68,0a1.87,1.87,0,1,0-1.86,2.11A1.91,1.91,0,0,0,73.78,138Z"/><path d="M77.17,141.62v-10h1.91v3.69a2.8,2.8,0,0,1,2.23-1.11c1.85,0,3.21,1.44,3.21,3.81s-1.38,3.8-3.21,3.8a2.8,2.8,0,0,1-2.23-1.11v.93Zm3.54-1.52a2.12,2.12,0,0,0,0-4.21,2.09,2.09,0,0,0-1.63.84v2.56A2.09,2.09,0,0,0,80.71,140.1Z"/><path d="M86,141.62v-10h2.13v8.13h4.23v1.88Z"/><path d="M98.05,141.62v-.75a3,3,0,0,1-2.29.93,2.41,2.41,0,0,1-2.52-2.4,2.31,2.31,0,0,1,2.52-2.34,3,3,0,0,1,2.29.88v-1c0-.74-.63-1.22-1.59-1.22a3,3,0,0,0-2.11.86l-.72-1.28a4.73,4.73,0,0,1,3.16-1.14c1.65,0,3.17.66,3.17,2.75v4.68Zm0-1.74V139a1.89,1.89,0,0,0-1.53-.63c-.75,0-1.36.39-1.36,1.09s.61,1.07,1.36,1.07A1.89,1.89,0,0,0,98.05,139.88Z"/><path d="M106.74,141.62v-.92a3.39,3.39,0,0,1-2.55,1.1,2.07,2.07,0,0,1-2.34-2.28v-5.15h1.9v4.4a1.17,1.17,0,0,0,1.34,1.33,2.14,2.14,0,0,0,1.65-.82v-4.91h1.9v7.25Z"/><path d="M115.42,141.62v-4.38c0-1-.52-1.35-1.33-1.35a2.07,2.07,0,0,0-1.65.85v4.88h-1.91v-7.25h1.91v.95a3.29,3.29,0,0,1,2.53-1.13,2.11,2.11,0,0,1,2.36,2.31v5.12Z"/><path d="M118.75,138a3.68,3.68,0,0,1,3.84-3.8,3.38,3.38,0,0,1,2.87,1.31l-1.25,1.17a1.75,1.75,0,0,0-1.53-.78,2.11,2.11,0,0,0,0,4.21,1.82,1.82,0,0,0,1.53-.78l1.25,1.16a3.36,3.36,0,0,1-2.87,1.32A3.68,3.68,0,0,1,118.75,138Z"/><path d="M131.61,141.62v-4.41c0-1-.53-1.32-1.35-1.32a2.11,2.11,0,0,0-1.65.85v4.88H126.7v-10h1.91v3.71a3.32,3.32,0,0,1,2.55-1.13,2.08,2.08,0,0,1,2.35,2.28v5.15Z"/><path d="M134.94,138a3.69,3.69,0,0,1,3.75-3.8c2.16,0,3.63,1.62,3.63,4v.42h-5.39a2,2,0,0,0,2.09,1.68,3.07,3.07,0,0,0,1.93-.72l.84,1.23a4.51,4.51,0,0,1-3,1A3.67,3.67,0,0,1,134.94,138Zm3.75-2.28a1.74,1.74,0,0,0-1.79,1.6h3.57A1.67,1.67,0,0,0,138.69,135.71Z"/><path d="M143.7,141.62v-7.25h1.9v1a3.13,3.13,0,0,1,2.31-1.17v1.86a2.49,2.49,0,0,0-.52,0,2.46,2.46,0,0,0-1.79.82v4.79Z"/><rect class="cls-2" x="212.83" y="113.7" width="118.25" height="47.64"/><path d="M259.7,140.82l.93-1.63a2.28,2.28,0,0,0,1.59.72,1.48,1.48,0,0,0,1.56-1.61v-6.69h2.13v6.72a3.19,3.19,0,0,1-3.52,3.47A3.71,3.71,0,0,1,259.7,140.82Z"/><path d="M267.38,138a3.84,3.84,0,1,1,3.83,3.81A3.67,3.67,0,0,1,267.38,138Zm5.69,0a1.87,1.87,0,1,0-1.86,2.11A1.91,1.91,0,0,0,273.07,138Z"/><path d="M276.46,141.62v-10h1.9v3.69a2.81,2.81,0,0,1,2.24-1.11c1.84,0,3.21,1.44,3.21,3.81s-1.38,3.8-3.21,3.8a2.82,2.82,0,0,1-2.24-1.11v.93ZM280,140.1a2.12,2.12,0,0,0,0-4.21,2.11,2.11,0,0,0-1.64.84v2.56A2.11,2.11,0,0,0,280,140.1Z"/><rect class="cls-2" x="380.55" y="113.7" width="118.25" height="47.64"/><path d="M424.54,140.21l1.16-1.62a4.4,4.4,0,0,0,3.18,1.35c1.17,0,1.74-.54,1.74-1.11,0-1.77-5.76-.56-5.76-4.32,0-1.67,1.44-3,3.79-3a5.55,5.55,0,0,1,3.9,1.4l-1.18,1.56a4.3,4.3,0,0,0-2.91-1.1c-.92,0-1.43.41-1.43,1,0,1.59,5.75.52,5.75,4.26,0,1.83-1.31,3.21-4,3.21A5.72,5.72,0,0,1,424.54,140.21Z"/><path d="M434.34,139.82V136h-1.2v-1.67h1.2v-2h1.92v2h1.47V136h-1.47v3.27c0,.45.24.79.66.79a1,1,0,0,0,.66-.21l.4,1.44a2.3,2.3,0,0,1-1.59.47A1.81,1.81,0,0,1,434.34,139.82Z"/><path d="M438.57,138a3.69,3.69,0,0,1,3.75-3.8c2.16,0,3.63,1.62,3.63,4v.42h-5.39a2,2,0,0,0,2.09,1.68,3.07,3.07,0,0,0,1.93-.72l.84,1.23a4.51,4.51,0,0,1-3,1A3.67,3.67,0,0,1,438.57,138Zm3.75-2.28a1.74,1.74,0,0,0-1.79,1.6h3.57A1.67,1.67,0,0,0,442.32,135.71Z"/><path d="M449.23,140.69v3.69h-1.9v-10h1.9v.92a2.8,2.8,0,0,1,2.24-1.1c1.86,0,3.21,1.38,3.21,3.8s-1.35,3.81-3.21,3.81A2.78,2.78,0,0,1,449.23,140.69Zm3.47-2.7a1.88,1.88,0,0,0-1.83-2.1,2.16,2.16,0,0,0-1.64.82v2.57a2.19,2.19,0,0,0,1.64.82A1.88,1.88,0,0,0,452.7,138Z"/><rect class="cls-2" x="566.65" y="113.7" width="134.54" height="47.64"/><path d="M586,141.62v-10h2.13v10Z"/><path d="M590.48,139.82V136h-1.2v-1.67h1.2v-2h1.92v2h1.47V136H592.4v3.27c0,.45.24.79.66.79a1,1,0,0,0,.66-.21l.41,1.44a2.34,2.34,0,0,1-1.59.47A1.81,1.81,0,0,1,590.48,139.82Z"/><path d="M594.71,138a3.69,3.69,0,0,1,3.75-3.8c2.16,0,3.63,1.62,3.63,4v.42h-5.38a1.94,1.94,0,0,0,2.08,1.68,3.1,3.1,0,0,0,1.94-.72l.84,1.23a4.52,4.52,0,0,1-3,1A3.67,3.67,0,0,1,594.71,138Zm3.75-2.28a1.74,1.74,0,0,0-1.78,1.6h3.57A1.68,1.68,0,0,0,598.46,135.71Z"/><path d="M612.46,141.62V137c0-.67-.3-1.15-1.08-1.15a1.92,1.92,0,0,0-1.5.84v4.89H608V137c0-.67-.3-1.15-1.08-1.15a2,2,0,0,0-1.5.85v4.88h-1.91v-7.25h1.91v.95a3.15,3.15,0,0,1,2.37-1.13,1.93,1.93,0,0,1,2,1.32,3.07,3.07,0,0,1,2.49-1.32,1.94,1.94,0,0,1,2.13,2.19v5.24Z"/><path d="M616.3,141.62v-10H621a3.23,3.23,0,1,1,0,6.45h-2.55v3.56Zm5.86-6.78a1.34,1.34,0,0,0-1.47-1.35h-2.26v2.7h2.26A1.35,1.35,0,0,0,622.16,134.84Z"/><path d="M625.61,141.62v-7.25h1.91v1a3.13,3.13,0,0,1,2.31-1.17v1.86a2.66,2.66,0,0,0-.53,0,2.42,2.42,0,0,0-1.78.82v4.79Z"/><path d="M630.55,138a3.83,3.83,0,1,1,3.82,3.81A3.67,3.67,0,0,1,630.55,138Zm5.68,0a1.87,1.87,0,1,0-1.86,2.11A1.91,1.91,0,0,0,636.23,138Z"/><path d="M639.16,138a3.68,3.68,0,0,1,3.84-3.8,3.37,3.37,0,0,1,2.86,1.31l-1.24,1.17a1.76,1.76,0,0,0-1.53-.78,2.11,2.11,0,0,0,0,4.21,1.84,1.84,0,0,0,1.53-.78l1.24,1.16A3.35,3.35,0,0,1,643,141.8,3.68,3.68,0,0,1,639.16,138Z"/><path d="M646.64,138a3.69,3.69,0,0,1,3.75-3.8c2.16,0,3.63,1.62,3.63,4v.42h-5.38a1.94,1.94,0,0,0,2.08,1.68,3.1,3.1,0,0,0,1.94-.72l.84,1.23a4.52,4.52,0,0,1-3,1A3.67,3.67,0,0,1,646.64,138Zm3.75-2.28a1.74,1.74,0,0,0-1.78,1.6h3.57A1.68,1.68,0,0,0,650.39,135.71Z"/><path d="M654.77,140.67l.83-1.33a4.15,4.15,0,0,0,2.5,1c.83,0,1.22-.33,1.22-.78,0-1.2-4.31-.23-4.31-3.08,0-1.21,1.07-2.28,3-2.28a4.64,4.64,0,0,1,2.93,1l-.77,1.31a3,3,0,0,0-2.14-.84c-.69,0-1.14.31-1.14.72,0,1.08,4.29.18,4.29,3.1,0,1.32-1.13,2.33-3.14,2.33A4.86,4.86,0,0,1,654.77,140.67Z"/><path d="M661.93,140.67l.82-1.33a4.2,4.2,0,0,0,2.51,1c.82,0,1.21-.33,1.21-.78,0-1.2-4.3-.23-4.3-3.08,0-1.21,1.06-2.28,3-2.28a4.61,4.61,0,0,1,2.92,1l-.76,1.31a3,3,0,0,0-2.15-.84c-.69,0-1.14.31-1.14.72,0,1.08,4.29.18,4.29,3.1,0,1.32-1.12,2.33-3.13,2.33A4.84,4.84,0,0,1,661.93,140.67Z"/><path d="M669.25,138a3.83,3.83,0,1,1,3.82,3.81A3.67,3.67,0,0,1,669.25,138Zm5.68,0a1.87,1.87,0,1,0-1.86,2.11A1.91,1.91,0,0,0,674.93,138Z"/><path d="M678.32,141.62v-7.25h1.91v1a3.13,3.13,0,0,1,2.31-1.17v1.86a2.66,2.66,0,0,0-.53,0,2.42,2.42,0,0,0-1.78.82v4.79Z"/><rect class="cls-2" x="566.65" y="183.06" width="134.54" height="47.64"/><path d="M599.49,211V201h2.13v10Z"/><path d="M603.93,209.17v-3.78h-1.2v-1.66h1.2v-2h1.92v2h1.47v1.66h-1.47v3.27c0,.45.24.8.66.8a1,1,0,0,0,.66-.21l.41,1.44a2.4,2.4,0,0,1-1.59.46A1.81,1.81,0,0,1,603.93,209.17Z"/><path d="M608.16,207.34a3.69,3.69,0,0,1,3.75-3.79c2.16,0,3.63,1.62,3.63,4V208h-5.38a1.94,1.94,0,0,0,2.08,1.68,3.1,3.1,0,0,0,1.94-.72l.84,1.23a4.54,4.54,0,0,1-3,1A3.67,3.67,0,0,1,608.16,207.34Zm3.75-2.28a1.74,1.74,0,0,0-1.78,1.61h3.56A1.67,1.67,0,0,0,611.91,205.06Z"/><path d="M625.9,211V206.4c0-.68-.29-1.16-1.08-1.16a2,2,0,0,0-1.5.84V211H621.4V206.4c0-.68-.29-1.16-1.08-1.16a1.92,1.92,0,0,0-1.49.86V211h-1.91v-7.24h1.91v.94a3.18,3.18,0,0,1,2.36-1.12,1.9,1.9,0,0,1,2,1.32,3.1,3.1,0,0,1,2.49-1.32,1.93,1.93,0,0,1,2.13,2.19V211Z"/><path d="M636.69,211l-1.75-6.87L633.19,211h-2.26l-2.86-10h2.38l1.75,7.23,1.91-7.23h1.66l1.89,7.23L639.4,201h2.4L639,211Z"/><path d="M642.32,211v-7.24h1.9v1a3.1,3.1,0,0,1,2.31-1.17v1.86a2.4,2.4,0,0,0-.52,0,2.43,2.43,0,0,0-1.79.83V211Z"/><path d="M647.52,201.81a1.14,1.14,0,0,1,1.14-1.13,1.14,1.14,0,1,1,0,2.27A1.15,1.15,0,0,1,647.52,201.81Zm.2,9.16v-7.24h1.9V211Z"/><path d="M651.88,209.17v-3.78h-1.19v-1.66h1.19v-2h1.92v2h1.47v1.66H653.8v3.27c0,.45.24.8.66.8a1,1,0,0,0,.66-.21l.41,1.44a2.4,2.4,0,0,1-1.59.46A1.82,1.82,0,0,1,651.88,209.17Z"/><path d="M656.11,207.34a3.69,3.69,0,0,1,3.75-3.79c2.16,0,3.63,1.62,3.63,4V208h-5.38a2,2,0,0,0,2.08,1.68,3.1,3.1,0,0,0,1.94-.72l.84,1.23a4.52,4.52,0,0,1-3,1A3.67,3.67,0,0,1,656.11,207.34Zm3.75-2.28a1.74,1.74,0,0,0-1.78,1.61h3.57A1.68,1.68,0,0,0,659.86,205.06Z"/><path d="M664.87,211v-7.24h1.91v1a3.1,3.1,0,0,1,2.31-1.17v1.86a2.54,2.54,0,0,0-.52,0,2.43,2.43,0,0,0-1.79.83V211Z"/><rect class="cls-2" x="566.65" y="44.35" width="134.54" height="47.64"/><path d="M595.72,72.26v-10h2.13v10Z"/><path d="M600.16,70.46V66.68H599V65h1.2V63h1.92v2h1.47v1.67h-1.47V70c0,.45.24.79.66.79a1,1,0,0,0,.66-.21l.4,1.44a2.3,2.3,0,0,1-1.59.47A1.81,1.81,0,0,1,600.16,70.46Z"/><path d="M604.39,68.63a3.69,3.69,0,0,1,3.75-3.8c2.16,0,3.63,1.62,3.63,4v.42h-5.39a2,2,0,0,0,2.09,1.68,3.07,3.07,0,0,0,1.93-.72l.84,1.23a4.51,4.51,0,0,1-3,1A3.67,3.67,0,0,1,604.39,68.63Zm3.75-2.28a1.74,1.74,0,0,0-1.79,1.6h3.57A1.67,1.67,0,0,0,608.14,66.35Z"/><path d="M622.13,72.26V67.68c0-.67-.3-1.15-1.08-1.15a1.93,1.93,0,0,0-1.5.84v4.89h-1.92V67.68c0-.67-.3-1.15-1.08-1.15a2,2,0,0,0-1.5.85v4.88h-1.9V65h1.9V66a3.15,3.15,0,0,1,2.37-1.13,1.92,1.92,0,0,1,2,1.32,3.07,3.07,0,0,1,2.49-1.32A1.93,1.93,0,0,1,624.05,67v5.24Z"/><path d="M631.63,72.26l-2-3.56H628.1v3.56H626v-10h4.68A3.12,3.12,0,0,1,634,65.48a2.88,2.88,0,0,1-2.19,3l2.25,3.81Zm.21-6.78a1.36,1.36,0,0,0-1.5-1.35H628.1v2.7h2.24A1.36,1.36,0,0,0,631.84,65.48Z"/><path d="M634.66,68.63a3.69,3.69,0,0,1,3.75-3.8c2.16,0,3.63,1.62,3.63,4v.42h-5.39a2,2,0,0,0,2.09,1.68,3.07,3.07,0,0,0,1.93-.72l.84,1.23a4.51,4.51,0,0,1-3,1A3.67,3.67,0,0,1,634.66,68.63Zm3.75-2.28a1.74,1.74,0,0,0-1.79,1.6h3.57A1.67,1.67,0,0,0,638.41,66.35Z"/><path d="M647.77,72.26v-.75a3,3,0,0,1-2.3.93A2.42,2.42,0,0,1,643,70a2.32,2.32,0,0,1,2.52-2.34,3,3,0,0,1,2.3.88v-1c0-.74-.63-1.22-1.59-1.22a3.07,3.07,0,0,0-2.12.86L643.34,66a4.77,4.77,0,0,1,3.17-1.14c1.65,0,3.16.66,3.16,2.75v4.68Zm0-1.74v-.9a1.92,1.92,0,0,0-1.53-.63c-.75,0-1.37.39-1.37,1.09s.62,1.07,1.37,1.07A1.92,1.92,0,0,0,647.77,70.52Z"/><path d="M656.54,72.26v-.93a2.8,2.8,0,0,1-2.23,1.11c-1.83,0-3.21-1.38-3.21-3.8s1.36-3.81,3.21-3.81a2.8,2.8,0,0,1,2.23,1.11V62.25h1.92v10Zm0-2.34V67.35a2.05,2.05,0,0,0-1.65-.82,2.13,2.13,0,0,0,0,4.21A2.05,2.05,0,0,0,656.54,69.92Z"/><path d="M659.89,68.63a3.69,3.69,0,0,1,3.75-3.8c2.16,0,3.63,1.62,3.63,4v.42h-5.39A2,2,0,0,0,664,70.92a3.07,3.07,0,0,0,1.93-.72l.84,1.23a4.51,4.51,0,0,1-3,1A3.67,3.67,0,0,1,659.89,68.63Zm3.75-2.28a1.74,1.74,0,0,0-1.79,1.6h3.57A1.67,1.67,0,0,0,663.64,66.35Z"/><path d="M668.65,72.26V65h1.9v1a3.13,3.13,0,0,1,2.31-1.17v1.86a2.49,2.49,0,0,0-.52,0,2.46,2.46,0,0,0-1.79.82v4.79Z"/><path d="M341.39,124v-6.78l-1.55,1.58-1.14-1.19,2.94-3h1.74V124Z"/><path d="M507.12,108.42v-6.78l-1.55,1.58L504.43,102l2.95-3h1.73v9.34Z"/><path d="M507.12,169.52v-6.78l-1.55,1.58-1.14-1.19,2.95-3h1.73v9.35Z"/><path d="M553.08,72.26V65.48l-1.56,1.58-1.13-1.19,2.94-3h1.74v9.34Z"/><path d="M553.08,128.74V122l-1.56,1.58-1.13-1.19,2.94-3h1.74v9.34Z"/><path d="M520.05,128.74V122l-1.55,1.58-1.14-1.19,2.94-3H522v9.34Z"/><path d="M553.08,210v-6.78l-1.56,1.59-1.13-1.19,2.94-3h1.74V210Z"/><path d="M222.72,265.1l.93-1.64a2.24,2.24,0,0,0,1.59.72,1.48,1.48,0,0,0,1.56-1.6v-6.69h2.13v6.72a3.18,3.18,0,0,1-3.52,3.46A3.74,3.74,0,0,1,222.72,265.1Z"/><path d="M230.4,262.26a3.84,3.84,0,1,1,3.83,3.81A3.67,3.67,0,0,1,230.4,262.26Zm5.69,0a1.87,1.87,0,1,0-1.86,2.12A1.92,1.92,0,0,0,236.09,262.26Z"/><path d="M239.48,265.89v-10h1.9v3.69a2.78,2.78,0,0,1,2.24-1.11c1.84,0,3.21,1.44,3.21,3.81s-1.38,3.79-3.21,3.79a2.82,2.82,0,0,1-2.24-1.11v.93Zm3.54-1.51a2.13,2.13,0,0,0,0-4.22,2.11,2.11,0,0,0-1.64.84v2.57A2.15,2.15,0,0,0,243,264.38Z"/><path d="M254,265.89l-2-3.55h-1.56v3.55h-2.13v-10H253a3.11,3.11,0,0,1,3.36,3.22,2.87,2.87,0,0,1-2.19,3l2.25,3.81Zm.21-6.78a1.36,1.36,0,0,0-1.5-1.35h-2.24v2.7h2.24A1.36,1.36,0,0,0,254.18,259.11Z"/><path d="M257,262.26a3.68,3.68,0,0,1,3.75-3.79c2.16,0,3.63,1.62,3.63,4v.42H259a2,2,0,0,0,2.09,1.68,3.07,3.07,0,0,0,1.93-.72l.84,1.23a4.51,4.51,0,0,1-3,1A3.66,3.66,0,0,1,257,262.26Zm3.75-2.28a1.75,1.75,0,0,0-1.79,1.61h3.57A1.67,1.67,0,0,0,260.75,260Z"/><path d="M267.66,265v3.69h-1.9v-10h1.9v.91a2.82,2.82,0,0,1,2.24-1.09c1.86,0,3.21,1.38,3.21,3.79s-1.35,3.81-3.21,3.81A2.78,2.78,0,0,1,267.66,265Zm3.47-2.7a1.88,1.88,0,0,0-1.83-2.1,2.13,2.13,0,0,0-1.64.83v2.56a2.2,2.2,0,0,0,1.64.83A1.89,1.89,0,0,0,271.13,262.26Z"/><path d="M274,262.26a3.83,3.83,0,1,1,3.82,3.81A3.67,3.67,0,0,1,274,262.26Zm5.68,0a1.87,1.87,0,1,0-1.86,2.12A1.91,1.91,0,0,0,279.72,262.26Z"/><path d="M282.48,265l.83-1.34a4.09,4.09,0,0,0,2.5,1c.83,0,1.22-.33,1.22-.78,0-1.2-4.31-.22-4.31-3.07,0-1.22,1.07-2.28,3-2.28a4.64,4.64,0,0,1,2.93,1l-.77,1.3a3.07,3.07,0,0,0-2.14-.84c-.69,0-1.14.32-1.14.72,0,1.08,4.29.18,4.29,3.11,0,1.32-1.13,2.32-3.14,2.32A4.91,4.91,0,0,1,282.48,265Z"/><path d="M290.07,256.73a1.14,1.14,0,0,1,1.14-1.13,1.14,1.14,0,1,1,0,2.27A1.15,1.15,0,0,1,290.07,256.73Zm.2,9.16v-7.24h1.9v7.24Z"/><path d="M294.44,264.09v-3.78h-1.2v-1.66h1.2v-2h1.92v2h1.47v1.66h-1.47v3.27c0,.45.24.8.66.8a1.1,1.1,0,0,0,.66-.21l.4,1.44a2.36,2.36,0,0,1-1.59.46A1.81,1.81,0,0,1,294.44,264.09Z"/><path d="M298.67,262.26a3.83,3.83,0,1,1,3.82,3.81A3.67,3.67,0,0,1,298.67,262.26Zm5.68,0a1.87,1.87,0,1,0-1.86,2.12A1.91,1.91,0,0,0,304.35,262.26Z"/><path d="M307.74,265.89v-7.24h1.91v1a3.1,3.1,0,0,1,2.31-1.17v1.86a2.58,2.58,0,0,0-.53-.05,2.39,2.39,0,0,0-1.78.83v4.78Z"/><path d="M313.17,267a1.78,1.78,0,0,0,.6.12,1,1,0,0,0,1-.53l.27-.61-2.94-7.35h2l1.89,5,1.89-5H320l-3.4,8.43a2.64,2.64,0,0,1-2.75,1.75,5.18,5.18,0,0,1-.94-.1Z"/><line class="cls-3" x1="104.24" y1="191.58" x2="104.24" y2="221.24"/><polygon points="97.26 193.62 104.24 181.53 111.22 193.62 97.26 193.62"/><polygon points="97.26 219.19 104.24 231.28 111.22 219.19 97.26 219.19"/><line class="cls-3" x1="271.96" y1="191.58" x2="271.96" y2="221.24"/><polygon points="264.98 193.62 271.96 181.53 278.94 193.62 264.98 193.62"/><polygon points="264.98 219.19 271.96 231.28 278.94 219.19 264.98 219.19"/><line class="cls-3" x1="439.68" y1="191.58" x2="439.68" y2="221.24"/><polygon points="432.69 193.62 439.68 181.53 446.66 193.62 432.69 193.62"/><polygon points="432.69 219.19 439.68 231.28 446.66 219.19 432.69 219.19"/><line class="cls-3" x1="168.67" y1="137.53" x2="206.32" y2="137.53"/><line class="cls-3" x1="336.79" y1="137.53" x2="374.44" y2="137.53"/><line class="cls-3" x1="504.23" y1="137.53" x2="560.38" y2="137.53"/><line class="cls-3" x1="504.23" y1="127.53" x2="560.38" y2="83.32"/><line class="cls-3" x1="560.38" y1="191.62" x2="504.23" y2="147.41"/></g></g></svg>