<svg xmlns="http://www.w3.org/2000/svg" xmlns:xlink="http://www.w3.org/1999/xlink" viewBox="0 0 263.07 283.83"><defs><style>.cls-1{fill:none;}.cls-2{isolation:isolate;}.cls-3{fill:#010101;}.cls-4{fill:#fff;}.cls-5{clip-path:url(#clip-path);}.cls-6{mix-blend-mode:multiply;}.cls-7{fill:#231f20;}</style><clipPath id="clip-path"><rect class="cls-1" x="121.9" y="137.29" width="11.85" height="47.22"/></clipPath></defs><title>batch</title><g class="cls-2"><g id="Layer_1" data-name="Layer 1"><path class="cls-3" d="M231.26,199.68h0a1.68,1.68,0,0,0-1.68,1.68h0a1.68,1.68,0,0,0,1.68,1.68h0a1.68,1.68,0,0,0,1.68-1.68h0A1.68,1.68,0,0,0,231.26,199.68Z"/><path class="cls-3" d="M231.26,212.59h0a1.68,1.68,0,0,0-1.68,1.68h0a1.69,1.69,0,0,0,1.68,1.69h0a1.69,1.69,0,0,0,1.68-1.69h0A1.68,1.68,0,0,0,231.26,212.59Z"/><path class="cls-3" d="M235,209.5a1.63,1.63,0,0,0,1.23-.55c-.14-.88-.32-1.77-.53-2.66a1.79,1.79,0,0,0-.7-.15,1.68,1.68,0,0,0,0,3.36Z"/><path class="cls-3" d="M231.26,225.5h0a1.69,1.69,0,0,0-1.68,1.69h0a1.68,1.68,0,0,0,1.68,1.68h0a1.68,1.68,0,0,0,1.68-1.68h0A1.69,1.69,0,0,0,231.26,225.5Z"/><path class="cls-3" d="M235,219.05a1.68,1.68,0,1,0,1.27,2.77c.1-.6.17-1.21.24-1.81A1.66,1.66,0,0,0,235,219.05Z"/><path class="cls-3" d="M223.81,186.77h0a1.68,1.68,0,0,0-1.68,1.68h0a1.68,1.68,0,0,0,1.68,1.68h0a1.68,1.68,0,0,0,1.68-1.68h0A1.68,1.68,0,0,0,223.81,186.77Z"/><path class="cls-3" d="M223.81,199.68h0a1.68,1.68,0,0,0-1.68,1.68h0a1.68,1.68,0,0,0,1.68,1.68h0a1.68,1.68,0,0,0,1.68-1.68h0A1.68,1.68,0,0,0,223.81,199.68Z"/><circle class="cls-3" cx="227.54" cy="194.91" r="1.68"/><path class="cls-3" d="M223.81,212.59h0a1.68,1.68,0,0,0-1.68,1.68h0a1.69,1.69,0,0,0,1.68,1.69h0a1.69,1.69,0,0,0,1.68-1.69h0A1.68,1.68,0,0,0,223.81,212.59Z"/><circle class="cls-3" cx="227.54" cy="207.82" r="1.68"/><path class="cls-3" d="M223.81,225.5h0a1.69,1.69,0,0,0-1.68,1.69h0a1.68,1.68,0,0,0,1.68,1.68h0a1.68,1.68,0,0,0,1.68-1.68h0A1.69,1.69,0,0,0,223.81,225.5Z"/><circle class="cls-3" cx="227.54" cy="220.73" r="1.68"/><path class="cls-3" d="M223.81,238.42h0a1.68,1.68,0,0,0-1.68,1.68h0a1.68,1.68,0,0,0,1.68,1.68h0a1.68,1.68,0,0,0,1.68-1.68h0A1.68,1.68,0,0,0,223.81,238.42Z"/><circle class="cls-3" cx="227.54" cy="233.64" r="1.68"/><path class="cls-3" d="M216.35,186.77h0a1.68,1.68,0,0,0-1.68,1.68h0a1.68,1.68,0,0,0,1.68,1.68h0a1.69,1.69,0,0,0,1.69-1.68h0A1.69,1.69,0,0,0,216.35,186.77Z"/><path class="cls-3" d="M220.08,183.68a1.69,1.69,0,0,0,1.68-1.67c-.55-.57-1.11-1.13-1.69-1.7a1.69,1.69,0,0,0,0,3.37Z"/><path class="cls-3" d="M216.35,199.68h0a1.68,1.68,0,0,0-1.68,1.68h0a1.68,1.68,0,0,0,1.68,1.68h0a1.69,1.69,0,0,0,1.69-1.68h0A1.69,1.69,0,0,0,216.35,199.68Z"/><circle class="cls-3" cx="220.08" cy="194.91" r="1.68"/><path class="cls-3" d="M216.35,212.59h0a1.68,1.68,0,0,0-1.68,1.68h0a1.69,1.69,0,0,0,1.68,1.69h0a1.69,1.69,0,0,0,1.69-1.69h0A1.69,1.69,0,0,0,216.35,212.59Z"/><circle class="cls-3" cx="220.08" cy="207.82" r="1.68"/><path class="cls-3" d="M216.35,225.5h0a1.69,1.69,0,0,0-1.68,1.69h0a1.68,1.68,0,0,0,1.68,1.68h0a1.69,1.69,0,0,0,1.69-1.68h0A1.69,1.69,0,0,0,216.35,225.5Z"/><circle class="cls-3" cx="220.08" cy="220.73" r="1.68"/><path class="cls-3" d="M216.35,238.42h0a1.68,1.68,0,0,0-1.68,1.68h0a1.68,1.68,0,0,0,1.68,1.68h0A1.69,1.69,0,0,0,218,240.1h0A1.69,1.69,0,0,0,216.35,238.42Z"/><circle class="cls-3" cx="220.08" cy="233.64" r="1.68"/><path class="cls-3" d="M216.35,251.33h0a1.68,1.68,0,0,0-1.68,1.68h0a1.69,1.69,0,0,0,1,1.53l.69-.59,1.1-.94.51-.46A1.67,1.67,0,0,0,216.35,251.33Z"/><path class="cls-3" d="M220.08,244.87a1.69,1.69,0,1,0,1.68,1.68A1.68,1.68,0,0,0,220.08,244.87Z"/><path class="cls-3" d="M208.9,173.86h0a1.68,1.68,0,0,0-1.68,1.68h0a1.68,1.68,0,0,0,1.68,1.68h0a1.68,1.68,0,0,0,1.68-1.68h0A1.68,1.68,0,0,0,208.9,173.86Z"/><path class="cls-3" d="M208.9,186.77h0a1.68,1.68,0,0,0-1.68,1.68h0a1.68,1.68,0,0,0,1.68,1.68h0a1.68,1.68,0,0,0,1.68-1.68h0A1.68,1.68,0,0,0,208.9,186.77Z"/><circle class="cls-3" cx="212.63" cy="181.99" r="1.68"/><path class="cls-3" d="M216.35,177.22h0a1.53,1.53,0,0,0,.3,0l-.3-.25c-.55-.47-1.11-.93-1.68-1.4A1.68,1.68,0,0,0,216.35,177.22Z"/><path class="cls-3" d="M208.9,199.68h0a1.68,1.68,0,0,0-1.68,1.68h0A1.68,1.68,0,0,0,208.9,203h0a1.68,1.68,0,0,0,1.68-1.68h0A1.68,1.68,0,0,0,208.9,199.68Z"/><circle class="cls-3" cx="212.63" cy="194.91" r="1.68"/><path class="cls-3" d="M208.9,212.59h0a1.68,1.68,0,0,0-1.68,1.68h0A1.69,1.69,0,0,0,208.9,216h0a1.69,1.69,0,0,0,1.68-1.69h0A1.68,1.68,0,0,0,208.9,212.59Z"/><circle class="cls-3" cx="212.63" cy="207.82" r="1.68"/><path class="cls-3" d="M208.9,225.5h0a1.69,1.69,0,0,0-1.68,1.69h0a1.68,1.68,0,0,0,1.68,1.68h0a1.68,1.68,0,0,0,1.68-1.68h0A1.69,1.69,0,0,0,208.9,225.5Z"/><circle class="cls-3" cx="212.63" cy="220.73" r="1.68"/><path class="cls-3" d="M208.9,238.42h0a1.68,1.68,0,0,0-1.68,1.68h0a1.68,1.68,0,0,0,1.68,1.68h0a1.68,1.68,0,0,0,1.68-1.68h0A1.68,1.68,0,0,0,208.9,238.42Z"/><circle class="cls-3" cx="212.63" cy="233.64" r="1.68"/><path class="cls-3" d="M208.9,251.33h0a1.68,1.68,0,0,0-1.68,1.68h0a1.68,1.68,0,0,0,1.68,1.68h0a1.68,1.68,0,0,0,1.68-1.68h0A1.68,1.68,0,0,0,208.9,251.33Z"/><path class="cls-3" d="M212.63,244.87a1.69,1.69,0,1,0,1.68,1.68A1.69,1.69,0,0,0,212.63,244.87Z"/><path class="cls-3" d="M201.44,173.86h0a1.68,1.68,0,0,0-1.68,1.68h0a1.68,1.68,0,0,0,1.68,1.68h0a1.69,1.69,0,0,0,1.69-1.68h0A1.69,1.69,0,0,0,201.44,173.86Z"/><path class="cls-3" d="M205.17,170.76a1.67,1.67,0,0,0,1.53-1c-.92-.59-1.85-1.19-2.81-1.77a1.67,1.67,0,0,0,1.28,2.76Z"/><path class="cls-3" d="M201.44,186.77h0a1.68,1.68,0,0,0-1.68,1.68h0a1.68,1.68,0,0,0,1.68,1.68h0a1.69,1.69,0,0,0,1.69-1.68h0A1.69,1.69,0,0,0,201.44,186.77Z"/><circle class="cls-3" cx="205.17" cy="181.99" r="1.68"/><path class="cls-3" d="M201.44,199.68h0a1.68,1.68,0,0,0-1.68,1.68h0a1.68,1.68,0,0,0,1.68,1.68h0a1.69,1.69,0,0,0,1.69-1.68h0A1.69,1.69,0,0,0,201.44,199.68Z"/><circle class="cls-3" cx="205.17" cy="194.91" r="1.68"/><path class="cls-3" d="M201.44,212.59h0a1.68,1.68,0,0,0-1.68,1.68h0a1.69,1.69,0,0,0,1.68,1.69h0a1.69,1.69,0,0,0,1.69-1.69h0A1.69,1.69,0,0,0,201.44,212.59Z"/><circle class="cls-3" cx="205.17" cy="207.82" r="1.68"/><path class="cls-3" d="M201.44,225.5h0a1.69,1.69,0,0,0-1.68,1.69h0a1.68,1.68,0,0,0,1.68,1.68h0a1.69,1.69,0,0,0,1.69-1.68h0A1.69,1.69,0,0,0,201.44,225.5Z"/><circle class="cls-3" cx="205.17" cy="220.73" r="1.68"/><path class="cls-3" d="M201.44,238.42h0a1.68,1.68,0,0,0-1.68,1.68h0a1.68,1.68,0,0,0,1.68,1.68h0a1.69,1.69,0,0,0,1.69-1.68h0A1.69,1.69,0,0,0,201.44,238.42Z"/><circle class="cls-3" cx="205.17" cy="233.64" r="1.68"/><path class="cls-3" d="M201.44,251.33h0a1.68,1.68,0,0,0-1.68,1.68h0a1.68,1.68,0,0,0,1.68,1.68h0a1.69,1.69,0,0,0,1.69-1.68h0A1.69,1.69,0,0,0,201.44,251.33Z"/><path class="cls-3" d="M205.17,244.87a1.69,1.69,0,1,0,1.68,1.68A1.68,1.68,0,0,0,205.17,244.87Z"/><circle class="cls-3" cx="205.17" cy="259.47" r="1.68"/><path class="cls-3" d="M194,173.86h0a1.68,1.68,0,0,0-1.68,1.68h0a1.68,1.68,0,0,0,1.68,1.68h0a1.68,1.68,0,0,0,1.68-1.68h0A1.68,1.68,0,0,0,194,173.86Z"/><circle class="cls-3" cx="197.72" cy="169.08" r="1.68"/><path class="cls-3" d="M194,186.77h0a1.68,1.68,0,0,0-1.68,1.68h0a1.68,1.68,0,0,0,1.68,1.68h0a1.68,1.68,0,0,0,1.68-1.68h0A1.68,1.68,0,0,0,194,186.77Z"/><circle class="cls-3" cx="197.72" cy="181.99" r="1.68"/><path class="cls-3" d="M194,199.68h0a1.68,1.68,0,0,0-1.68,1.68h0A1.68,1.68,0,0,0,194,203h0a1.68,1.68,0,0,0,1.68-1.68h0A1.68,1.68,0,0,0,194,199.68Z"/><circle class="cls-3" cx="197.72" cy="194.91" r="1.68"/><path class="cls-3" d="M194,212.59h0a1.68,1.68,0,0,0-1.68,1.68h0A1.69,1.69,0,0,0,194,216h0a1.69,1.69,0,0,0,1.68-1.69h0A1.68,1.68,0,0,0,194,212.59Z"/><circle class="cls-3" cx="197.72" cy="207.82" r="1.68"/><path class="cls-3" d="M194,225.5h0a1.69,1.69,0,0,0-1.68,1.69h0a1.68,1.68,0,0,0,1.68,1.68h0a1.68,1.68,0,0,0,1.68-1.68h0A1.69,1.69,0,0,0,194,225.5Z"/><circle class="cls-3" cx="197.72" cy="220.73" r="1.68"/><path class="cls-3" d="M194,238.42h0a1.68,1.68,0,0,0-1.68,1.68h0a1.68,1.68,0,0,0,1.68,1.68h0a1.68,1.68,0,0,0,1.68-1.68h0A1.68,1.68,0,0,0,194,238.42Z"/><circle class="cls-3" cx="197.72" cy="233.64" r="1.68"/><path class="cls-3" d="M194,251.33h0a1.68,1.68,0,0,0-1.68,1.68h0a1.68,1.68,0,0,0,1.68,1.68h0a1.68,1.68,0,0,0,1.68-1.68h0A1.68,1.68,0,0,0,194,251.33Z"/><path class="cls-3" d="M197.72,244.87a1.69,1.69,0,1,0,1.68,1.68A1.69,1.69,0,0,0,197.72,244.87Z"/><path class="cls-3" d="M201.44,264.24a1.66,1.66,0,0,0-1.42.8l1.42-.79h0Z"/><path class="cls-3" d="M194,264.24h0a1.68,1.68,0,0,0-1.68,1.68h0A1.68,1.68,0,0,0,194,267.6h0a1.68,1.68,0,0,0,1.68-1.68h0A1.68,1.68,0,0,0,194,264.24Z"/><circle class="cls-3" cx="197.72" cy="259.47" r="1.68"/><path class="cls-3" d="M186.53,160.94h0a1.69,1.69,0,0,0-1.68,1.69h0a1.68,1.68,0,0,0,1.68,1.68h0a1.69,1.69,0,0,0,1.69-1.68h0A1.69,1.69,0,0,0,186.53,160.94Z"/><path class="cls-3" d="M186.53,173.86h0a1.68,1.68,0,0,0-1.68,1.68h0a1.68,1.68,0,0,0,1.68,1.68h0a1.69,1.69,0,0,0,1.69-1.68h0A1.69,1.69,0,0,0,186.53,173.86Z"/><circle class="cls-3" cx="190.26" cy="169.08" r="1.68"/><path class="cls-3" d="M194,164.31h0a1.67,1.67,0,0,0,1.49-.92l-1.49-.73-.06,0-1.46-.71a1.65,1.65,0,0,0-.16.71h0A1.68,1.68,0,0,0,194,164.31Z"/><path class="cls-3" d="M186.53,186.77h0a1.68,1.68,0,0,0-1.68,1.68h0a1.68,1.68,0,0,0,1.68,1.68h0a1.69,1.69,0,0,0,1.69-1.68h0A1.69,1.69,0,0,0,186.53,186.77Z"/><circle class="cls-3" cx="190.26" cy="181.99" r="1.68"/><path class="cls-3" d="M186.53,199.68h0a1.68,1.68,0,0,0-1.68,1.68h0a1.68,1.68,0,0,0,1.68,1.68h0a1.69,1.69,0,0,0,1.69-1.68h0A1.69,1.69,0,0,0,186.53,199.68Z"/><circle class="cls-3" cx="190.26" cy="194.91" r="1.68"/><path class="cls-3" d="M186.53,212.59h0a1.69,1.69,0,0,0-1.68,1.68h0a1.69,1.69,0,0,0,1.68,1.69h0a1.69,1.69,0,0,0,1.69-1.69h0A1.69,1.69,0,0,0,186.53,212.59Z"/><circle class="cls-3" cx="190.26" cy="207.82" r="1.68"/><path class="cls-3" d="M186.53,225.5h0a1.69,1.69,0,0,0-1.68,1.69h0a1.68,1.68,0,0,0,1.68,1.68h0a1.69,1.69,0,0,0,1.69-1.68h0A1.69,1.69,0,0,0,186.53,225.5Z"/><circle class="cls-3" cx="190.26" cy="220.73" r="1.68"/><path class="cls-3" d="M186.53,238.42h0a1.68,1.68,0,0,0-1.68,1.68h0a1.68,1.68,0,0,0,1.68,1.68h0a1.69,1.69,0,0,0,1.69-1.68h0A1.69,1.69,0,0,0,186.53,238.42Z"/><circle class="cls-3" cx="190.26" cy="233.64" r="1.68"/><path class="cls-3" d="M186.53,251.33h0a1.68,1.68,0,0,0-1.68,1.68h0a1.68,1.68,0,0,0,1.68,1.68h0a1.69,1.69,0,0,0,1.69-1.68h0A1.69,1.69,0,0,0,186.53,251.33Z"/><path class="cls-3" d="M190.26,244.87a1.69,1.69,0,1,0,1.68,1.68A1.68,1.68,0,0,0,190.26,244.87Z"/><path class="cls-3" d="M186.53,264.24h0a1.68,1.68,0,0,0-1.68,1.68h0a1.68,1.68,0,0,0,1.68,1.68h0a1.69,1.69,0,0,0,1.69-1.68h0A1.69,1.69,0,0,0,186.53,264.24Z"/><circle class="cls-3" cx="190.26" cy="259.47" r="1.68"/><path class="cls-3" d="M179.08,160.94h0a1.69,1.69,0,0,0-1.68,1.69h0a1.68,1.68,0,0,0,1.68,1.68h0a1.68,1.68,0,0,0,1.68-1.68h0A1.69,1.69,0,0,0,179.08,160.94Z"/><path class="cls-3" d="M182.82,157.85l-1.08-.39a1.67,1.67,0,0,0,1.07.39Z"/><path class="cls-3" d="M179.08,173.86h0a1.68,1.68,0,0,0-1.68,1.68h0a1.68,1.68,0,0,0,1.68,1.68h0a1.68,1.68,0,0,0,1.68-1.68h0A1.68,1.68,0,0,0,179.08,173.86Z"/><circle class="cls-3" cx="182.81" cy="169.08" r="1.68"/><path class="cls-3" d="M179.08,186.77h0a1.68,1.68,0,0,0-1.68,1.68h0a1.68,1.68,0,0,0,1.68,1.68h0a1.68,1.68,0,0,0,1.68-1.68h0A1.68,1.68,0,0,0,179.08,186.77Z"/><circle class="cls-3" cx="182.81" cy="181.99" r="1.68"/><path class="cls-3" d="M179.08,199.68h0a1.68,1.68,0,0,0-1.68,1.68h0a1.68,1.68,0,0,0,1.68,1.68h0a1.68,1.68,0,0,0,1.68-1.68h0A1.68,1.68,0,0,0,179.08,199.68Z"/><circle class="cls-3" cx="182.81" cy="194.91" r="1.68"/><path class="cls-3" d="M179.08,212.59h0a1.68,1.68,0,0,0-1.68,1.68h0a1.69,1.69,0,0,0,1.68,1.69h0a1.69,1.69,0,0,0,1.68-1.69h0A1.68,1.68,0,0,0,179.08,212.59Z"/><circle class="cls-3" cx="182.81" cy="207.82" r="1.68"/><path class="cls-3" d="M179.08,225.5h0a1.69,1.69,0,0,0-1.68,1.69h0a1.68,1.68,0,0,0,1.68,1.68h0a1.68,1.68,0,0,0,1.68-1.68h0A1.69,1.69,0,0,0,179.08,225.5Z"/><circle class="cls-3" cx="182.81" cy="220.73" r="1.68"/><path class="cls-3" d="M179.08,238.42h0a1.68,1.68,0,0,0-1.68,1.68h0a1.68,1.68,0,0,0,1.68,1.68h0a1.68,1.68,0,0,0,1.68-1.68h0A1.68,1.68,0,0,0,179.08,238.42Z"/><circle class="cls-3" cx="182.81" cy="233.64" r="1.68"/><path class="cls-3" d="M179.08,251.33h0A1.68,1.68,0,0,0,177.4,253h0a1.68,1.68,0,0,0,1.68,1.68h0a1.68,1.68,0,0,0,1.68-1.68h0A1.68,1.68,0,0,0,179.08,251.33Z"/><path class="cls-3" d="M182.81,244.87a1.69,1.69,0,1,0,1.68,1.68A1.69,1.69,0,0,0,182.81,244.87Z"/><path class="cls-3" d="M179.08,264.24h0a1.68,1.68,0,0,0-1.68,1.68h0a1.68,1.68,0,0,0,1.68,1.68h0a1.68,1.68,0,0,0,1.68-1.68h0A1.68,1.68,0,0,0,179.08,264.24Z"/><circle class="cls-3" cx="182.81" cy="259.47" r="1.68"/><path class="cls-3" d="M182.81,270.7a1.67,1.67,0,0,0-1.34,2.69c1-.36,2-.73,3-1.11A1.68,1.68,0,0,0,182.81,270.7Z"/><path class="cls-3" d="M171.63,160.94h0a1.69,1.69,0,0,0-1.68,1.69h0a1.68,1.68,0,0,0,1.68,1.68h0a1.68,1.68,0,0,0,1.68-1.68h0A1.69,1.69,0,0,0,171.63,160.94Z"/><path class="cls-3" d="M174.25,154.91a1.68,1.68,0,1,0,2.78,1.26,1.58,1.58,0,0,0,0-.38Z"/><path class="cls-3" d="M171.63,173.86h0a1.68,1.68,0,0,0-1.68,1.68h0a1.68,1.68,0,0,0,1.68,1.68h0a1.68,1.68,0,0,0,1.68-1.68h0A1.68,1.68,0,0,0,171.63,173.86Z"/><circle class="cls-3" cx="175.35" cy="169.08" r="1.68"/><path class="cls-3" d="M171.63,186.77h0a1.68,1.68,0,0,0-1.68,1.68h0a1.68,1.68,0,0,0,1.68,1.68h0a1.68,1.68,0,0,0,1.68-1.68h0A1.68,1.68,0,0,0,171.63,186.77Z"/><circle class="cls-3" cx="175.35" cy="181.99" r="1.68"/><path class="cls-3" d="M171.63,199.68h0a1.68,1.68,0,0,0-1.68,1.68h0a1.68,1.68,0,0,0,1.68,1.68h0a1.68,1.68,0,0,0,1.68-1.68h0A1.68,1.68,0,0,0,171.63,199.68Z"/><circle class="cls-3" cx="175.35" cy="194.91" r="1.68"/><path class="cls-3" d="M171.63,212.59h0a1.69,1.69,0,0,0-1.68,1.68h0a1.69,1.69,0,0,0,1.68,1.69h0a1.69,1.69,0,0,0,1.68-1.69h0A1.69,1.69,0,0,0,171.63,212.59Z"/><circle class="cls-3" cx="175.35" cy="207.82" r="1.68"/><path class="cls-3" d="M171.63,225.5h0a1.69,1.69,0,0,0-1.68,1.69h0a1.68,1.68,0,0,0,1.68,1.68h0a1.68,1.68,0,0,0,1.68-1.68h0A1.69,1.69,0,0,0,171.63,225.5Z"/><circle class="cls-3" cx="175.35" cy="220.73" r="1.68"/><path class="cls-3" d="M171.63,238.42h0a1.68,1.68,0,0,0-1.68,1.68h0a1.68,1.68,0,0,0,1.68,1.68h0a1.68,1.68,0,0,0,1.68-1.68h0A1.68,1.68,0,0,0,171.63,238.42Z"/><circle class="cls-3" cx="175.35" cy="233.64" r="1.68"/><path class="cls-3" d="M171.63,251.33h0a1.68,1.68,0,0,0-1.68,1.68h0a1.68,1.68,0,0,0,1.68,1.68h0a1.68,1.68,0,0,0,1.68-1.68h0A1.68,1.68,0,0,0,171.63,251.33Z"/><path class="cls-3" d="M175.35,244.87a1.69,1.69,0,1,0,1.68,1.68A1.68,1.68,0,0,0,175.35,244.87Z"/><path class="cls-3" d="M171.63,264.24h0a1.68,1.68,0,0,0-1.68,1.68h0a1.68,1.68,0,0,0,1.68,1.68h0a1.68,1.68,0,0,0,1.68-1.68h0A1.68,1.68,0,0,0,171.63,264.24Z"/><circle class="cls-3" cx="175.35" cy="259.47" r="1.68"/><path class="cls-3" d="M175.35,270.7a1.68,1.68,0,1,0,1.68,1.68A1.68,1.68,0,0,0,175.35,270.7Z"/><path class="cls-3" d="M164.17,160.94h0a1.69,1.69,0,0,0-1.68,1.69h0a1.68,1.68,0,0,0,1.68,1.68h0a1.68,1.68,0,0,0,1.68-1.68h0A1.69,1.69,0,0,0,164.17,160.94Z"/><circle class="cls-3" cx="167.9" cy="156.17" r="1.68"/><path class="cls-3" d="M164.17,173.86h0a1.68,1.68,0,0,0-1.68,1.68h0a1.68,1.68,0,0,0,1.68,1.68h0a1.68,1.68,0,0,0,1.68-1.68h0A1.68,1.68,0,0,0,164.17,173.86Z"/><circle class="cls-3" cx="167.9" cy="169.08" r="1.68"/><path class="cls-3" d="M164.17,186.77h0a1.68,1.68,0,0,0-1.68,1.68h0a1.68,1.68,0,0,0,1.68,1.68h0a1.68,1.68,0,0,0,1.68-1.68h0A1.68,1.68,0,0,0,164.17,186.77Z"/><circle class="cls-3" cx="167.9" cy="181.99" r="1.68"/><path class="cls-3" d="M164.17,199.68h0a1.68,1.68,0,0,0-1.68,1.68h0a1.68,1.68,0,0,0,1.68,1.68h0a1.68,1.68,0,0,0,1.68-1.68h0A1.68,1.68,0,0,0,164.17,199.68Z"/><circle class="cls-3" cx="167.9" cy="194.91" r="1.68"/><path class="cls-3" d="M164.17,212.59h0a1.68,1.68,0,0,0-1.68,1.68h0a1.69,1.69,0,0,0,1.68,1.69h0a1.69,1.69,0,0,0,1.68-1.69h0A1.68,1.68,0,0,0,164.17,212.59Z"/><circle class="cls-3" cx="167.9" cy="207.82" r="1.68"/><path class="cls-3" d="M164.17,225.5h0a1.69,1.69,0,0,0-1.68,1.69h0a1.68,1.68,0,0,0,1.68,1.68h0a1.68,1.68,0,0,0,1.68-1.68h0A1.69,1.69,0,0,0,164.17,225.5Z"/><circle class="cls-3" cx="167.9" cy="220.73" r="1.68"/><path class="cls-3" d="M164.17,238.42h0a1.68,1.68,0,0,0-1.68,1.68h0a1.68,1.68,0,0,0,1.68,1.68h0a1.68,1.68,0,0,0,1.68-1.68h0A1.68,1.68,0,0,0,164.17,238.42Z"/><circle class="cls-3" cx="167.9" cy="233.64" r="1.68"/><path class="cls-3" d="M164.17,251.33h0a1.68,1.68,0,0,0-1.68,1.68h0a1.68,1.68,0,0,0,1.68,1.68h0a1.68,1.68,0,0,0,1.68-1.68h0A1.68,1.68,0,0,0,164.17,251.33Z"/><path class="cls-3" d="M167.9,244.87a1.69,1.69,0,1,0,1.68,1.68A1.68,1.68,0,0,0,167.9,244.87Z"/><path class="cls-3" d="M164.17,264.24h0a1.68,1.68,0,0,0-1.68,1.68h0a1.68,1.68,0,0,0,1.68,1.68h0a1.68,1.68,0,0,0,1.68-1.68h0A1.68,1.68,0,0,0,164.17,264.24Z"/><circle class="cls-3" cx="167.9" cy="259.47" r="1.68"/><path class="cls-3" d="M164.17,277.15h0a1.68,1.68,0,0,0-1.68,1.68h0c0,.05,0,.1,0,.15l.68-.15,1-.24,1.55-.39A1.67,1.67,0,0,0,164.17,277.15Z"/><path class="cls-3" d="M167.9,270.7a1.68,1.68,0,1,0,1.68,1.68A1.68,1.68,0,0,0,167.9,270.7Z"/><path class="cls-3" d="M156.72,160.94h0a1.69,1.69,0,0,0-1.69,1.69h0a1.69,1.69,0,0,0,1.69,1.68h0a1.68,1.68,0,0,0,1.68-1.68h0A1.69,1.69,0,0,0,156.72,160.94Z"/><circle class="cls-3" cx="160.44" cy="156.17" r="1.68"/><path class="cls-3" d="M156.72,173.86h0a1.69,1.69,0,0,0-1.69,1.68h0a1.69,1.69,0,0,0,1.69,1.68h0a1.68,1.68,0,0,0,1.68-1.68h0A1.68,1.68,0,0,0,156.72,173.86Z"/><circle class="cls-3" cx="160.44" cy="169.08" r="1.68"/><path class="cls-3" d="M156.72,186.77h0a1.69,1.69,0,0,0-1.69,1.68h0a1.69,1.69,0,0,0,1.69,1.68h0a1.68,1.68,0,0,0,1.68-1.68h0A1.68,1.68,0,0,0,156.72,186.77Z"/><circle class="cls-3" cx="160.44" cy="181.99" r="1.68"/><path class="cls-3" d="M156.72,199.68h0a1.69,1.69,0,0,0-1.69,1.68h0a1.69,1.69,0,0,0,1.69,1.68h0a1.68,1.68,0,0,0,1.68-1.68h0A1.68,1.68,0,0,0,156.72,199.68Z"/><circle class="cls-3" cx="160.44" cy="194.91" r="1.68"/><path class="cls-3" d="M156.72,212.59h0a1.69,1.69,0,0,0-1.69,1.68h0a1.69,1.69,0,0,0,1.69,1.69h0a1.69,1.69,0,0,0,1.68-1.69h0A1.69,1.69,0,0,0,156.72,212.59Z"/><circle class="cls-3" cx="160.44" cy="207.82" r="1.68"/><path class="cls-3" d="M156.72,225.5h0a1.69,1.69,0,0,0-1.69,1.69h0a1.69,1.69,0,0,0,1.69,1.68h0a1.68,1.68,0,0,0,1.68-1.68h0A1.69,1.69,0,0,0,156.72,225.5Z"/><circle class="cls-3" cx="160.44" cy="220.73" r="1.68"/><path class="cls-3" d="M156.72,238.42h0A1.69,1.69,0,0,0,155,240.1h0a1.69,1.69,0,0,0,1.69,1.68h0a1.68,1.68,0,0,0,1.68-1.68h0A1.68,1.68,0,0,0,156.72,238.42Z"/><circle class="cls-3" cx="160.44" cy="233.64" r="1.68"/><path class="cls-3" d="M156.72,251.33h0A1.69,1.69,0,0,0,155,253h0a1.69,1.69,0,0,0,1.69,1.68h0A1.68,1.68,0,0,0,158.4,253h0A1.68,1.68,0,0,0,156.72,251.33Z"/><path class="cls-3" d="M160.44,244.87a1.69,1.69,0,1,0,1.68,1.68A1.68,1.68,0,0,0,160.44,244.87Z"/><path class="cls-3" d="M156.72,264.24h0a1.69,1.69,0,0,0-1.69,1.68h0a1.69,1.69,0,0,0,1.69,1.68h0a1.68,1.68,0,0,0,1.68-1.68h0A1.68,1.68,0,0,0,156.72,264.24Z"/><circle class="cls-3" cx="160.44" cy="259.47" r="1.68"/><path class="cls-3" d="M156.72,277.15h0a1.69,1.69,0,0,0-1.69,1.68h0a1.71,1.71,0,0,0,1,1.52l.73-.14,1.22-.23a1.68,1.68,0,0,0,.46-1.15h0A1.69,1.69,0,0,0,156.72,277.15Z"/><path class="cls-3" d="M160.44,270.7a1.68,1.68,0,1,0,1.68,1.68A1.68,1.68,0,0,0,160.44,270.7Z"/><path class="cls-3" d="M149.26,149.13l-1.46-.23a1.61,1.61,0,0,0-.22.81h0a1.69,1.69,0,0,0,1.68,1.69h0a1.69,1.69,0,0,0,1.68-1.69h0a1.66,1.66,0,0,0,0-.32Z"/><path class="cls-3" d="M149.26,160.94h0a1.69,1.69,0,0,0-1.68,1.69h0a1.68,1.68,0,0,0,1.68,1.68h0a1.68,1.68,0,0,0,1.68-1.68h0A1.69,1.69,0,0,0,149.26,160.94Z"/><circle class="cls-3" cx="152.99" cy="156.17" r="1.68"/><path class="cls-3" d="M156.72,151.4h0a1.66,1.66,0,0,0,1.33-.68l-1.33-.27-1.62-.31A1.68,1.68,0,0,0,156.72,151.4Z"/><path class="cls-3" d="M149.26,173.86h0a1.68,1.68,0,0,0-1.68,1.68h0a1.68,1.68,0,0,0,1.68,1.68h0a1.68,1.68,0,0,0,1.68-1.68h0A1.68,1.68,0,0,0,149.26,173.86Z"/><circle class="cls-3" cx="152.99" cy="169.08" r="1.68"/><path class="cls-3" d="M149.26,186.77h0a1.68,1.68,0,0,0-1.68,1.68h0a1.68,1.68,0,0,0,1.68,1.68h0a1.68,1.68,0,0,0,1.68-1.68h0A1.68,1.68,0,0,0,149.26,186.77Z"/><circle class="cls-3" cx="152.99" cy="181.99" r="1.68"/><path class="cls-3" d="M149.26,199.68h0a1.68,1.68,0,0,0-1.68,1.68h0a1.68,1.68,0,0,0,1.68,1.68h0a1.68,1.68,0,0,0,1.68-1.68h0A1.68,1.68,0,0,0,149.26,199.68Z"/><circle class="cls-3" cx="152.99" cy="194.91" r="1.68"/><path class="cls-3" d="M149.26,212.59h0a1.68,1.68,0,0,0-1.68,1.68h0a1.69,1.69,0,0,0,1.68,1.69h0a1.69,1.69,0,0,0,1.68-1.69h0A1.68,1.68,0,0,0,149.26,212.59Z"/><circle class="cls-3" cx="152.99" cy="207.82" r="1.68"/><path class="cls-3" d="M149.26,225.5h0a1.69,1.69,0,0,0-1.68,1.69h0a1.68,1.68,0,0,0,1.68,1.68h0a1.68,1.68,0,0,0,1.68-1.68h0A1.69,1.69,0,0,0,149.26,225.5Z"/><circle class="cls-3" cx="152.99" cy="220.73" r="1.68"/><path class="cls-3" d="M149.26,238.42h0a1.68,1.68,0,0,0-1.68,1.68h0a1.68,1.68,0,0,0,1.68,1.68h0a1.68,1.68,0,0,0,1.68-1.68h0A1.68,1.68,0,0,0,149.26,238.42Z"/><circle class="cls-3" cx="152.99" cy="233.64" r="1.68"/><path class="cls-3" d="M149.26,251.33h0a1.68,1.68,0,0,0-1.68,1.68h0a1.68,1.68,0,0,0,1.68,1.68h0a1.68,1.68,0,0,0,1.68-1.68h0A1.68,1.68,0,0,0,149.26,251.33Z"/><path class="cls-3" d="M153,244.87a1.69,1.69,0,1,0,1.68,1.68A1.68,1.68,0,0,0,153,244.87Z"/><path class="cls-3" d="M149.26,264.24h0a1.68,1.68,0,0,0-1.68,1.68h0a1.68,1.68,0,0,0,1.68,1.68h0a1.68,1.68,0,0,0,1.68-1.68h0A1.68,1.68,0,0,0,149.26,264.24Z"/><circle class="cls-3" cx="152.99" cy="259.47" r="1.68"/><path class="cls-3" d="M149.26,277.15h0a1.68,1.68,0,0,0-1.68,1.68h0a1.69,1.69,0,0,0,1.68,1.69h0a1.69,1.69,0,0,0,1.68-1.69h0A1.68,1.68,0,0,0,149.26,277.15Z"/><path class="cls-3" d="M153,270.7a1.68,1.68,0,1,0,1.68,1.68A1.68,1.68,0,0,0,153,270.7Z"/><path class="cls-3" d="M142.5,148.18l-.69-.08-.28,0a1.68,1.68,0,0,0-1.41,1.65h0a1.69,1.69,0,0,0,1.69,1.69h0a1.69,1.69,0,0,0,1.68-1.69h0A1.69,1.69,0,0,0,142.5,148.18Z"/><path class="cls-3" d="M141.81,160.94h0a1.69,1.69,0,0,0-1.69,1.69h0a1.69,1.69,0,0,0,1.69,1.68h0a1.68,1.68,0,0,0,1.68-1.68h0A1.69,1.69,0,0,0,141.81,160.94Z"/><path class="cls-3" d="M145.53,154.49a1.68,1.68,0,1,0,1.69,1.68A1.68,1.68,0,0,0,145.53,154.49Z"/><path class="cls-3" d="M141.81,173.86h0a1.69,1.69,0,0,0-1.69,1.68h0a1.69,1.69,0,0,0,1.69,1.68h0a1.68,1.68,0,0,0,1.68-1.68h0A1.68,1.68,0,0,0,141.81,173.86Z"/><path class="cls-3" d="M145.53,167.4a1.68,1.68,0,1,0,1.69,1.68A1.68,1.68,0,0,0,145.53,167.4Z"/><path class="cls-3" d="M141.81,186.77h0a1.69,1.69,0,0,0-1.69,1.68h0a1.69,1.69,0,0,0,1.69,1.68h0a1.68,1.68,0,0,0,1.68-1.68h0A1.68,1.68,0,0,0,141.81,186.77Z"/><path class="cls-3" d="M145.53,180.31a1.69,1.69,0,1,0,1.69,1.68A1.68,1.68,0,0,0,145.53,180.31Z"/><path class="cls-3" d="M141.81,199.68h0a1.69,1.69,0,0,0-1.69,1.68h0a1.69,1.69,0,0,0,1.69,1.68h0a1.68,1.68,0,0,0,1.68-1.68h0A1.68,1.68,0,0,0,141.81,199.68Z"/><path class="cls-3" d="M145.53,193.22a1.69,1.69,0,1,0,1.69,1.69A1.69,1.69,0,0,0,145.53,193.22Z"/><path class="cls-3" d="M141.81,212.59h0a1.69,1.69,0,0,0-1.69,1.68h0a1.69,1.69,0,0,0,1.69,1.69h0a1.69,1.69,0,0,0,1.68-1.69h0A1.68,1.68,0,0,0,141.81,212.59Z"/><path class="cls-3" d="M145.53,206.14a1.68,1.68,0,1,0,1.69,1.68A1.68,1.68,0,0,0,145.53,206.14Z"/><path class="cls-3" d="M141.81,225.5h0a1.69,1.69,0,0,0-1.69,1.69h0a1.69,1.69,0,0,0,1.69,1.68h0a1.68,1.68,0,0,0,1.68-1.68h0A1.69,1.69,0,0,0,141.81,225.5Z"/><path class="cls-3" d="M145.53,219.05a1.68,1.68,0,1,0,1.69,1.68A1.68,1.68,0,0,0,145.53,219.05Z"/><path class="cls-3" d="M141.81,238.42h0a1.69,1.69,0,0,0-1.69,1.68h0a1.69,1.69,0,0,0,1.69,1.68h0a1.68,1.68,0,0,0,1.68-1.68h0A1.68,1.68,0,0,0,141.81,238.42Z"/><path class="cls-3" d="M145.53,232a1.68,1.68,0,1,0,1.69,1.68A1.68,1.68,0,0,0,145.53,232Z"/><path class="cls-3" d="M141.81,251.33h0a1.69,1.69,0,0,0-1.69,1.68h0a1.69,1.69,0,0,0,1.69,1.68h0a1.68,1.68,0,0,0,1.68-1.68h0A1.68,1.68,0,0,0,141.81,251.33Z"/><path class="cls-3" d="M145.53,244.87a1.69,1.69,0,1,0,1.69,1.68A1.68,1.68,0,0,0,145.53,244.87Z"/><path class="cls-3" d="M141.81,264.24h0a1.69,1.69,0,0,0-1.69,1.68h0a1.69,1.69,0,0,0,1.69,1.68h0a1.68,1.68,0,0,0,1.68-1.68h0A1.68,1.68,0,0,0,141.81,264.24Z"/><path class="cls-3" d="M145.53,257.78a1.69,1.69,0,1,0,1.69,1.69A1.69,1.69,0,0,0,145.53,257.78Z"/><path class="cls-3" d="M141.81,277.15h0a1.69,1.69,0,0,0-1.69,1.68h0a1.69,1.69,0,0,0,1.69,1.69h0a1.69,1.69,0,0,0,1.68-1.69h0A1.68,1.68,0,0,0,141.81,277.15Z"/><path class="cls-3" d="M145.53,270.7a1.68,1.68,0,1,0,1.69,1.68A1.68,1.68,0,0,0,145.53,270.7Z"/><path class="cls-3" d="M134.35,148h0a1.68,1.68,0,0,0-1.68,1.68h0a1.69,1.69,0,0,0,1.68,1.69h0a1.69,1.69,0,0,0,1.68-1.69h0A1.68,1.68,0,0,0,134.35,148Z"/><path class="cls-3" d="M134.35,160.94h0a1.69,1.69,0,0,0-1.68,1.69h0a1.68,1.68,0,0,0,1.68,1.68h0a1.68,1.68,0,0,0,1.68-1.68h0A1.69,1.69,0,0,0,134.35,160.94Z"/><circle class="cls-3" cx="138.08" cy="156.17" r="1.68"/><path class="cls-3" d="M134.35,173.86h0a1.68,1.68,0,0,0-1.68,1.68h0a1.68,1.68,0,0,0,1.68,1.68h0a1.68,1.68,0,0,0,1.68-1.68h0A1.68,1.68,0,0,0,134.35,173.86Z"/><circle class="cls-3" cx="138.08" cy="169.08" r="1.68"/><path class="cls-3" d="M134.35,186.77h0a1.68,1.68,0,0,0-1.68,1.68h0a1.68,1.68,0,0,0,1.68,1.68h0a1.68,1.68,0,0,0,1.68-1.68h0A1.68,1.68,0,0,0,134.35,186.77Z"/><circle class="cls-3" cx="138.08" cy="181.99" r="1.68"/><path class="cls-3" d="M134.35,199.68h0a1.68,1.68,0,0,0-1.68,1.68h0a1.68,1.68,0,0,0,1.68,1.68h0a1.68,1.68,0,0,0,1.68-1.68h0A1.68,1.68,0,0,0,134.35,199.68Z"/><circle class="cls-3" cx="138.08" cy="194.91" r="1.68"/><path class="cls-3" d="M134.35,212.59h0a1.68,1.68,0,0,0-1.68,1.68h0a1.69,1.69,0,0,0,1.68,1.69h0a1.69,1.69,0,0,0,1.68-1.69h0A1.68,1.68,0,0,0,134.35,212.59Z"/><circle class="cls-3" cx="138.08" cy="207.82" r="1.68"/><path class="cls-3" d="M134.35,225.5h0a1.69,1.69,0,0,0-1.68,1.69h0a1.68,1.68,0,0,0,1.68,1.68h0a1.68,1.68,0,0,0,1.68-1.68h0A1.69,1.69,0,0,0,134.35,225.5Z"/><circle class="cls-3" cx="138.08" cy="220.73" r="1.68"/><path class="cls-3" d="M134.35,238.42h0a1.68,1.68,0,0,0-1.68,1.68h0a1.68,1.68,0,0,0,1.68,1.68h0A1.68,1.68,0,0,0,136,240.1h0A1.68,1.68,0,0,0,134.35,238.42Z"/><circle class="cls-3" cx="138.08" cy="233.64" r="1.68"/><path class="cls-3" d="M134.35,251.33h0a1.68,1.68,0,0,0-1.68,1.68h0a1.68,1.68,0,0,0,1.68,1.68h0A1.68,1.68,0,0,0,136,253h0A1.68,1.68,0,0,0,134.35,251.33Z"/><path class="cls-3" d="M138.08,244.87a1.69,1.69,0,1,0,1.68,1.68A1.68,1.68,0,0,0,138.08,244.87Z"/><path class="cls-3" d="M134.35,264.24h0a1.68,1.68,0,0,0-1.68,1.68h0a1.68,1.68,0,0,0,1.68,1.68h0a1.68,1.68,0,0,0,1.68-1.68h0A1.68,1.68,0,0,0,134.35,264.24Z"/><circle class="cls-3" cx="138.08" cy="259.47" r="1.68"/><path class="cls-3" d="M134.35,277.15h0a1.68,1.68,0,0,0-1.68,1.68h0a1.69,1.69,0,0,0,1.68,1.69h0a1.69,1.69,0,0,0,1.68-1.69h0A1.68,1.68,0,0,0,134.35,277.15Z"/><path class="cls-3" d="M138.08,270.7a1.68,1.68,0,1,0,1.68,1.68A1.68,1.68,0,0,0,138.08,270.7Z"/><path class="cls-3" d="M126.9,148h0a1.69,1.69,0,0,0-1.69,1.68h0a1.69,1.69,0,0,0,1.69,1.69h0a1.69,1.69,0,0,0,1.68-1.69h0A1.68,1.68,0,0,0,126.9,148Z"/><path class="cls-3" d="M126.9,160.94h0a1.69,1.69,0,0,0-1.69,1.69h0a1.69,1.69,0,0,0,1.69,1.68h0a1.68,1.68,0,0,0,1.68-1.68h0A1.69,1.69,0,0,0,126.9,160.94Z"/><circle class="cls-3" cx="130.62" cy="156.17" r="1.68"/><path class="cls-3" d="M126.9,173.86h0a1.69,1.69,0,0,0-1.69,1.68h0a1.69,1.69,0,0,0,1.69,1.68h0a1.68,1.68,0,0,0,1.68-1.68h0A1.68,1.68,0,0,0,126.9,173.86Z"/><circle class="cls-3" cx="130.62" cy="169.08" r="1.68"/><path class="cls-3" d="M126.9,186.77h0a1.69,1.69,0,0,0-1.69,1.68h0a1.69,1.69,0,0,0,1.69,1.68h0a1.68,1.68,0,0,0,1.68-1.68h0A1.68,1.68,0,0,0,126.9,186.77Z"/><circle class="cls-3" cx="130.62" cy="181.99" r="1.68"/><path class="cls-3" d="M126.9,199.68h0a1.69,1.69,0,0,0-1.69,1.68h0A1.69,1.69,0,0,0,126.9,203h0a1.68,1.68,0,0,0,1.68-1.68h0A1.68,1.68,0,0,0,126.9,199.68Z"/><circle class="cls-3" cx="130.62" cy="194.91" r="1.68"/><path class="cls-3" d="M126.9,212.59h0a1.69,1.69,0,0,0-1.69,1.68h0A1.69,1.69,0,0,0,126.9,216h0a1.69,1.69,0,0,0,1.68-1.69h0A1.68,1.68,0,0,0,126.9,212.59Z"/><circle class="cls-3" cx="130.62" cy="207.82" r="1.68"/><path class="cls-3" d="M126.9,225.5h0a1.69,1.69,0,0,0-1.69,1.69h0a1.69,1.69,0,0,0,1.69,1.68h0a1.68,1.68,0,0,0,1.68-1.68h0A1.69,1.69,0,0,0,126.9,225.5Z"/><circle class="cls-3" cx="130.62" cy="220.73" r="1.68"/><path class="cls-3" d="M126.9,238.42h0a1.69,1.69,0,0,0-1.69,1.68h0a1.69,1.69,0,0,0,1.69,1.68h0a1.68,1.68,0,0,0,1.68-1.68h0A1.68,1.68,0,0,0,126.9,238.42Z"/><circle class="cls-3" cx="130.62" cy="233.64" r="1.68"/><path class="cls-3" d="M126.9,251.33h0a1.69,1.69,0,0,0-1.69,1.68h0a1.69,1.69,0,0,0,1.69,1.68h0a1.68,1.68,0,0,0,1.68-1.68h0A1.68,1.68,0,0,0,126.9,251.33Z"/><path class="cls-3" d="M130.62,244.87a1.69,1.69,0,1,0,1.69,1.68A1.68,1.68,0,0,0,130.62,244.87Z"/><path class="cls-3" d="M126.9,264.24h0a1.69,1.69,0,0,0-1.69,1.68h0a1.69,1.69,0,0,0,1.69,1.68h0a1.68,1.68,0,0,0,1.68-1.68h0A1.68,1.68,0,0,0,126.9,264.24Z"/><circle class="cls-3" cx="130.62" cy="259.47" r="1.68"/><path class="cls-3" d="M126.9,277.15h0a1.69,1.69,0,0,0-1.69,1.68h0a1.69,1.69,0,0,0,1.69,1.69h0a1.69,1.69,0,0,0,1.68-1.69h0A1.68,1.68,0,0,0,126.9,277.15Z"/><path class="cls-3" d="M130.62,270.7a1.68,1.68,0,1,0,1.69,1.68A1.68,1.68,0,0,0,130.62,270.7Z"/><path class="cls-3" d="M119.44,148h0a1.68,1.68,0,0,0-1.68,1.68h0a1.69,1.69,0,0,0,1.68,1.69h0a1.69,1.69,0,0,0,1.68-1.69h0A1.68,1.68,0,0,0,119.44,148Z"/><path class="cls-3" d="M119.44,160.94h0a1.69,1.69,0,0,0-1.68,1.69h0a1.68,1.68,0,0,0,1.68,1.68h0a1.68,1.68,0,0,0,1.68-1.68h0A1.69,1.69,0,0,0,119.44,160.94Z"/><circle class="cls-3" cx="123.17" cy="156.17" r="1.68"/><path class="cls-3" d="M119.44,173.86h0a1.68,1.68,0,0,0-1.68,1.68h0a1.68,1.68,0,0,0,1.68,1.68h0a1.68,1.68,0,0,0,1.68-1.68h0A1.68,1.68,0,0,0,119.44,173.86Z"/><circle class="cls-3" cx="123.17" cy="169.08" r="1.68"/><path class="cls-3" d="M119.44,186.77h0a1.68,1.68,0,0,0-1.68,1.68h0a1.68,1.68,0,0,0,1.68,1.68h0a1.68,1.68,0,0,0,1.68-1.68h0A1.68,1.68,0,0,0,119.44,186.77Z"/><circle class="cls-3" cx="123.17" cy="181.99" r="1.68"/><path class="cls-3" d="M119.44,199.68h0a1.68,1.68,0,0,0-1.68,1.68h0a1.68,1.68,0,0,0,1.68,1.68h0a1.68,1.68,0,0,0,1.68-1.68h0A1.68,1.68,0,0,0,119.44,199.68Z"/><circle class="cls-3" cx="123.17" cy="194.91" r="1.68"/><path class="cls-3" d="M119.44,212.59h0a1.68,1.68,0,0,0-1.68,1.68h0a1.69,1.69,0,0,0,1.68,1.69h0a1.69,1.69,0,0,0,1.68-1.69h0A1.68,1.68,0,0,0,119.44,212.59Z"/><circle class="cls-3" cx="123.17" cy="207.82" r="1.68"/><path class="cls-3" d="M119.44,225.5h0a1.69,1.69,0,0,0-1.68,1.69h0a1.68,1.68,0,0,0,1.68,1.68h0a1.68,1.68,0,0,0,1.68-1.68h0A1.69,1.69,0,0,0,119.44,225.5Z"/><circle class="cls-3" cx="123.17" cy="220.73" r="1.68"/><path class="cls-3" d="M119.44,238.42h0a1.68,1.68,0,0,0-1.68,1.68h0a1.68,1.68,0,0,0,1.68,1.68h0a1.68,1.68,0,0,0,1.68-1.68h0A1.68,1.68,0,0,0,119.44,238.42Z"/><circle class="cls-3" cx="123.17" cy="233.64" r="1.68"/><path class="cls-3" d="M119.44,251.33h0a1.68,1.68,0,0,0-1.68,1.68h0a1.68,1.68,0,0,0,1.68,1.68h0a1.68,1.68,0,0,0,1.68-1.68h0A1.68,1.68,0,0,0,119.44,251.33Z"/><path class="cls-3" d="M123.17,244.87a1.69,1.69,0,1,0,1.68,1.68A1.68,1.68,0,0,0,123.17,244.87Z"/><path class="cls-3" d="M119.44,264.24h0a1.68,1.68,0,0,0-1.68,1.68h0a1.68,1.68,0,0,0,1.68,1.68h0a1.68,1.68,0,0,0,1.68-1.68h0A1.68,1.68,0,0,0,119.44,264.24Z"/><circle class="cls-3" cx="123.17" cy="259.47" r="1.68"/><path class="cls-3" d="M119.44,277.15h0a1.68,1.68,0,0,0-1.68,1.68h0a1.69,1.69,0,0,0,1.68,1.69h0a1.69,1.69,0,0,0,1.68-1.69h0A1.68,1.68,0,0,0,119.44,277.15Z"/><path class="cls-3" d="M123.17,270.7a1.68,1.68,0,1,0,1.68,1.68A1.68,1.68,0,0,0,123.17,270.7Z"/><path class="cls-3" d="M122.44,283.78l1.42,0a1.58,1.58,0,0,0-.69-.15A1.63,1.63,0,0,0,122.44,283.78Z"/><path class="cls-3" d="M112,148h0a1.69,1.69,0,0,0-1.69,1.68h0A1.69,1.69,0,0,0,112,151.4h0a1.69,1.69,0,0,0,1.68-1.69h0A1.68,1.68,0,0,0,112,148Z"/><path class="cls-3" d="M112,160.94h0a1.69,1.69,0,0,0-1.69,1.69h0a1.69,1.69,0,0,0,1.69,1.68h0a1.68,1.68,0,0,0,1.68-1.68h0A1.69,1.69,0,0,0,112,160.94Z"/><circle class="cls-3" cx="115.71" cy="156.17" r="1.68"/><path class="cls-3" d="M112,173.86h0a1.69,1.69,0,0,0-1.69,1.68h0a1.69,1.69,0,0,0,1.69,1.68h0a1.68,1.68,0,0,0,1.68-1.68h0A1.68,1.68,0,0,0,112,173.86Z"/><circle class="cls-3" cx="115.71" cy="169.08" r="1.68"/><path class="cls-3" d="M112,186.77h0a1.69,1.69,0,0,0-1.69,1.68h0a1.69,1.69,0,0,0,1.69,1.68h0a1.68,1.68,0,0,0,1.68-1.68h0A1.68,1.68,0,0,0,112,186.77Z"/><circle class="cls-3" cx="115.71" cy="181.99" r="1.68"/><path class="cls-3" d="M112,199.68h0a1.69,1.69,0,0,0-1.69,1.68h0A1.69,1.69,0,0,0,112,203h0a1.68,1.68,0,0,0,1.68-1.68h0A1.68,1.68,0,0,0,112,199.68Z"/><circle class="cls-3" cx="115.71" cy="194.91" r="1.68"/><path class="cls-3" d="M112,212.59h0a1.69,1.69,0,0,0-1.69,1.68h0A1.69,1.69,0,0,0,112,216h0a1.69,1.69,0,0,0,1.68-1.69h0A1.68,1.68,0,0,0,112,212.59Z"/><circle class="cls-3" cx="115.71" cy="207.82" r="1.68"/><path class="cls-3" d="M112,225.5h0a1.69,1.69,0,0,0-1.69,1.69h0a1.69,1.69,0,0,0,1.69,1.68h0a1.68,1.68,0,0,0,1.68-1.68h0A1.69,1.69,0,0,0,112,225.5Z"/><circle class="cls-3" cx="115.71" cy="220.73" r="1.68"/><path class="cls-3" d="M112,238.42h0a1.69,1.69,0,0,0-1.69,1.68h0a1.69,1.69,0,0,0,1.69,1.68h0a1.68,1.68,0,0,0,1.68-1.68h0A1.68,1.68,0,0,0,112,238.42Z"/><circle class="cls-3" cx="115.71" cy="233.64" r="1.68"/><path class="cls-3" d="M112,251.33h0A1.69,1.69,0,0,0,110.3,253h0a1.69,1.69,0,0,0,1.69,1.68h0a1.68,1.68,0,0,0,1.68-1.68h0A1.68,1.68,0,0,0,112,251.33Z"/><path class="cls-3" d="M115.71,244.87a1.69,1.69,0,1,0,1.69,1.68A1.69,1.69,0,0,0,115.71,244.87Z"/><path class="cls-3" d="M112,264.24h0a1.69,1.69,0,0,0-1.69,1.68h0A1.69,1.69,0,0,0,112,267.6h0a1.68,1.68,0,0,0,1.68-1.68h0A1.68,1.68,0,0,0,112,264.24Z"/><circle class="cls-3" cx="115.71" cy="259.47" r="1.68"/><path class="cls-3" d="M112,277.15h0a1.69,1.69,0,0,0-1.69,1.68h0a1.69,1.69,0,0,0,1.69,1.69h0a1.69,1.69,0,0,0,1.68-1.69h0A1.68,1.68,0,0,0,112,277.15Z"/><path class="cls-3" d="M115.71,270.7a1.68,1.68,0,1,0,1.69,1.68A1.68,1.68,0,0,0,115.71,270.7Z"/><path class="cls-3" d="M115,283.78l1.49,0a1.66,1.66,0,0,0-.77-.19A1.59,1.59,0,0,0,115,283.78Z"/><path class="cls-3" d="M104.53,148h0a1.68,1.68,0,0,0-1.68,1.68h0a1.69,1.69,0,0,0,1.68,1.69h0a1.69,1.69,0,0,0,1.68-1.69h0A1.68,1.68,0,0,0,104.53,148Z"/><path class="cls-3" d="M104.53,160.94h0a1.69,1.69,0,0,0-1.68,1.69h0a1.68,1.68,0,0,0,1.68,1.68h0a1.68,1.68,0,0,0,1.68-1.68h0A1.69,1.69,0,0,0,104.53,160.94Z"/><circle class="cls-3" cx="108.26" cy="156.17" r="1.68"/><path class="cls-3" d="M104.53,173.86h0a1.68,1.68,0,0,0-1.68,1.68h0a1.68,1.68,0,0,0,1.68,1.68h0a1.68,1.68,0,0,0,1.68-1.68h0A1.68,1.68,0,0,0,104.53,173.86Z"/><circle class="cls-3" cx="108.26" cy="169.08" r="1.68"/><path class="cls-3" d="M104.53,186.77h0a1.68,1.68,0,0,0-1.68,1.68h0a1.68,1.68,0,0,0,1.68,1.68h0a1.68,1.68,0,0,0,1.68-1.68h0A1.68,1.68,0,0,0,104.53,186.77Z"/><circle class="cls-3" cx="108.26" cy="181.99" r="1.68"/><path class="cls-3" d="M104.53,199.68h0a1.68,1.68,0,0,0-1.68,1.68h0a1.68,1.68,0,0,0,1.68,1.68h0a1.68,1.68,0,0,0,1.68-1.68h0A1.68,1.68,0,0,0,104.53,199.68Z"/><circle class="cls-3" cx="108.26" cy="194.91" r="1.68"/><path class="cls-3" d="M104.53,212.59h0a1.68,1.68,0,0,0-1.68,1.68h0a1.69,1.69,0,0,0,1.68,1.69h0a1.69,1.69,0,0,0,1.68-1.69h0A1.68,1.68,0,0,0,104.53,212.59Z"/><circle class="cls-3" cx="108.26" cy="207.82" r="1.68"/><path class="cls-3" d="M104.53,225.5h0a1.69,1.69,0,0,0-1.68,1.69h0a1.68,1.68,0,0,0,1.68,1.68h0a1.68,1.68,0,0,0,1.68-1.68h0A1.69,1.69,0,0,0,104.53,225.5Z"/><circle class="cls-3" cx="108.26" cy="220.73" r="1.68"/><path class="cls-3" d="M104.53,238.42h0a1.68,1.68,0,0,0-1.68,1.68h0a1.68,1.68,0,0,0,1.68,1.68h0a1.68,1.68,0,0,0,1.68-1.68h0A1.68,1.68,0,0,0,104.53,238.42Z"/><circle class="cls-3" cx="108.26" cy="233.64" r="1.68"/><path class="cls-3" d="M104.53,251.33h0a1.68,1.68,0,0,0-1.68,1.68h0a1.68,1.68,0,0,0,1.68,1.68h0a1.68,1.68,0,0,0,1.68-1.68h0A1.68,1.68,0,0,0,104.53,251.33Z"/><path class="cls-3" d="M108.26,244.87a1.69,1.69,0,1,0,1.68,1.68A1.68,1.68,0,0,0,108.26,244.87Z"/><path class="cls-3" d="M104.53,264.24h0a1.68,1.68,0,0,0-1.68,1.68h0a1.68,1.68,0,0,0,1.68,1.68h0a1.68,1.68,0,0,0,1.68-1.68h0A1.68,1.68,0,0,0,104.53,264.24Z"/><circle class="cls-3" cx="108.26" cy="259.47" r="1.68"/><path class="cls-3" d="M104.53,277.15h0a1.68,1.68,0,0,0-1.68,1.68h0a1.69,1.69,0,0,0,1.68,1.69h0a1.69,1.69,0,0,0,1.68-1.69h0A1.68,1.68,0,0,0,104.53,277.15Z"/><path class="cls-3" d="M108.26,270.7a1.68,1.68,0,1,0,1.68,1.68A1.68,1.68,0,0,0,108.26,270.7Z"/><path class="cls-3" d="M97.08,148h0a1.68,1.68,0,0,0-1.68,1.68h0a1.69,1.69,0,0,0,1.68,1.69h0a1.69,1.69,0,0,0,1.68-1.69h0A1.68,1.68,0,0,0,97.08,148Z"/><path class="cls-3" d="M97.08,160.94h0a1.69,1.69,0,0,0-1.68,1.69h0a1.68,1.68,0,0,0,1.68,1.68h0a1.68,1.68,0,0,0,1.68-1.68h0A1.69,1.69,0,0,0,97.08,160.94Z"/><path class="cls-3" d="M100.8,154.49a1.68,1.68,0,1,0,1.69,1.68A1.68,1.68,0,0,0,100.8,154.49Z"/><path class="cls-3" d="M97.08,173.86h0a1.68,1.68,0,0,0-1.68,1.68h0a1.68,1.68,0,0,0,1.68,1.68h0a1.68,1.68,0,0,0,1.68-1.68h0A1.68,1.68,0,0,0,97.08,173.86Z"/><path class="cls-3" d="M100.8,167.4a1.68,1.68,0,1,0,1.69,1.68A1.68,1.68,0,0,0,100.8,167.4Z"/><path class="cls-3" d="M97.08,186.77h0a1.68,1.68,0,0,0-1.68,1.68h0a1.68,1.68,0,0,0,1.68,1.68h0a1.68,1.68,0,0,0,1.68-1.68h0A1.68,1.68,0,0,0,97.08,186.77Z"/><path class="cls-3" d="M100.8,180.31a1.69,1.69,0,1,0,1.69,1.68A1.69,1.69,0,0,0,100.8,180.31Z"/><path class="cls-3" d="M97.08,199.68h0a1.68,1.68,0,0,0-1.68,1.68h0A1.68,1.68,0,0,0,97.08,203h0a1.68,1.68,0,0,0,1.68-1.68h0A1.68,1.68,0,0,0,97.08,199.68Z"/><path class="cls-3" d="M100.8,193.22a1.69,1.69,0,1,0,1.69,1.69A1.69,1.69,0,0,0,100.8,193.22Z"/><path class="cls-3" d="M97.08,212.59h0a1.68,1.68,0,0,0-1.68,1.68h0A1.69,1.69,0,0,0,97.08,216h0a1.69,1.69,0,0,0,1.68-1.69h0A1.68,1.68,0,0,0,97.08,212.59Z"/><path class="cls-3" d="M100.8,206.14a1.68,1.68,0,1,0,1.69,1.68A1.68,1.68,0,0,0,100.8,206.14Z"/><path class="cls-3" d="M97.08,225.5h0a1.69,1.69,0,0,0-1.68,1.69h0a1.68,1.68,0,0,0,1.68,1.68h0a1.68,1.68,0,0,0,1.68-1.68h0A1.69,1.69,0,0,0,97.08,225.5Z"/><path class="cls-3" d="M100.8,219.05a1.68,1.68,0,1,0,1.69,1.68A1.68,1.68,0,0,0,100.8,219.05Z"/><path class="cls-3" d="M97.08,238.42h0a1.68,1.68,0,0,0-1.68,1.68h0a1.68,1.68,0,0,0,1.68,1.68h0a1.68,1.68,0,0,0,1.68-1.68h0A1.68,1.68,0,0,0,97.08,238.42Z"/><path class="cls-3" d="M100.8,232a1.68,1.68,0,1,0,1.69,1.68A1.68,1.68,0,0,0,100.8,232Z"/><path class="cls-3" d="M97.08,251.33h0A1.68,1.68,0,0,0,95.4,253h0a1.68,1.68,0,0,0,1.68,1.68h0A1.68,1.68,0,0,0,98.76,253h0A1.68,1.68,0,0,0,97.08,251.33Z"/><path class="cls-3" d="M100.8,244.87a1.69,1.69,0,1,0,1.69,1.68A1.69,1.69,0,0,0,100.8,244.87Z"/><path class="cls-3" d="M97.08,264.24h0a1.68,1.68,0,0,0-1.68,1.68h0a1.68,1.68,0,0,0,1.68,1.68h0a1.68,1.68,0,0,0,1.68-1.68h0A1.68,1.68,0,0,0,97.08,264.24Z"/><path class="cls-3" d="M100.8,257.78a1.69,1.69,0,1,0,1.69,1.69A1.69,1.69,0,0,0,100.8,257.78Z"/><path class="cls-3" d="M97.08,277.15h0a1.68,1.68,0,0,0-1.68,1.68h0a1.69,1.69,0,0,0,1.68,1.69h0a1.69,1.69,0,0,0,1.68-1.69h0A1.68,1.68,0,0,0,97.08,277.15Z"/><path class="cls-3" d="M100.8,270.7a1.68,1.68,0,1,0,1.69,1.68A1.68,1.68,0,0,0,100.8,270.7Z"/><path class="cls-3" d="M89.62,148.68l-1.47.23a1.67,1.67,0,0,0-.21.8h0a1.69,1.69,0,0,0,1.68,1.69h0a1.69,1.69,0,0,0,1.68-1.69h0a1.63,1.63,0,0,0-.49-1.18Z"/><path class="cls-3" d="M89.62,160.94h0a1.69,1.69,0,0,0-1.68,1.69h0a1.68,1.68,0,0,0,1.68,1.68h0a1.68,1.68,0,0,0,1.68-1.68h0A1.69,1.69,0,0,0,89.62,160.94Z"/><path class="cls-3" d="M93.35,154.49A1.68,1.68,0,1,0,95,156.17,1.68,1.68,0,0,0,93.35,154.49Z"/><path class="cls-3" d="M89.62,173.86h0a1.68,1.68,0,0,0-1.68,1.68h0a1.68,1.68,0,0,0,1.68,1.68h0a1.68,1.68,0,0,0,1.68-1.68h0A1.68,1.68,0,0,0,89.62,173.86Z"/><path class="cls-3" d="M93.35,167.4A1.68,1.68,0,1,0,95,169.08,1.68,1.68,0,0,0,93.35,167.4Z"/><path class="cls-3" d="M89.62,186.77h0a1.68,1.68,0,0,0-1.68,1.68h0a1.68,1.68,0,0,0,1.68,1.68h0a1.68,1.68,0,0,0,1.68-1.68h0A1.68,1.68,0,0,0,89.62,186.77Z"/><path class="cls-3" d="M93.35,180.31A1.69,1.69,0,1,0,95,182,1.68,1.68,0,0,0,93.35,180.31Z"/><path class="cls-3" d="M89.62,199.68h0a1.68,1.68,0,0,0-1.68,1.68h0A1.68,1.68,0,0,0,89.62,203h0a1.68,1.68,0,0,0,1.68-1.68h0A1.68,1.68,0,0,0,89.62,199.68Z"/><path class="cls-3" d="M93.35,193.22A1.69,1.69,0,1,0,95,194.91,1.69,1.69,0,0,0,93.35,193.22Z"/><path class="cls-3" d="M89.62,212.59h0a1.68,1.68,0,0,0-1.68,1.68h0A1.69,1.69,0,0,0,89.62,216h0a1.69,1.69,0,0,0,1.68-1.69h0A1.68,1.68,0,0,0,89.62,212.59Z"/><path class="cls-3" d="M93.35,206.14A1.68,1.68,0,1,0,95,207.82,1.68,1.68,0,0,0,93.35,206.14Z"/><path class="cls-3" d="M89.62,225.5h0a1.69,1.69,0,0,0-1.68,1.69h0a1.68,1.68,0,0,0,1.68,1.68h0a1.68,1.68,0,0,0,1.68-1.68h0A1.69,1.69,0,0,0,89.62,225.5Z"/><path class="cls-3" d="M93.35,219.05A1.68,1.68,0,1,0,95,220.73,1.68,1.68,0,0,0,93.35,219.05Z"/><path class="cls-3" d="M89.62,238.42h0a1.68,1.68,0,0,0-1.68,1.68h0a1.68,1.68,0,0,0,1.68,1.68h0a1.68,1.68,0,0,0,1.68-1.68h0A1.68,1.68,0,0,0,89.62,238.42Z"/><path class="cls-3" d="M93.35,232A1.68,1.68,0,1,0,95,233.64,1.68,1.68,0,0,0,93.35,232Z"/><path class="cls-3" d="M89.62,251.33h0A1.68,1.68,0,0,0,87.94,253h0a1.68,1.68,0,0,0,1.68,1.68h0A1.68,1.68,0,0,0,91.3,253h0A1.68,1.68,0,0,0,89.62,251.33Z"/><path class="cls-3" d="M93.35,244.87A1.69,1.69,0,1,0,95,246.55,1.68,1.68,0,0,0,93.35,244.87Z"/><path class="cls-3" d="M89.62,264.24h0a1.68,1.68,0,0,0-1.68,1.68h0a1.68,1.68,0,0,0,1.68,1.68h0a1.68,1.68,0,0,0,1.68-1.68h0A1.68,1.68,0,0,0,89.62,264.24Z"/><path class="cls-3" d="M93.35,257.78A1.69,1.69,0,1,0,95,259.47,1.69,1.69,0,0,0,93.35,257.78Z"/><path class="cls-3" d="M89.62,277.15h0a1.68,1.68,0,0,0-1.68,1.68h0a1.69,1.69,0,0,0,1.68,1.69h0a1.69,1.69,0,0,0,1.68-1.69h0A1.68,1.68,0,0,0,89.62,277.15Z"/><path class="cls-3" d="M93.35,270.7A1.68,1.68,0,1,0,95,272.38,1.68,1.68,0,0,0,93.35,270.7Z"/><path class="cls-3" d="M83.24,149.71l-1.07.2-1.6.3a1.67,1.67,0,0,0,1.6,1.19h0a1.69,1.69,0,0,0,1.68-1.69h0s0-.07,0-.11Z"/><path class="cls-3" d="M82.17,160.94h0a1.69,1.69,0,0,0-1.68,1.69h0a1.68,1.68,0,0,0,1.68,1.68h0a1.68,1.68,0,0,0,1.68-1.68h0A1.69,1.69,0,0,0,82.17,160.94Z"/><circle class="cls-3" cx="85.9" cy="156.17" r="1.68"/><path class="cls-3" d="M82.17,173.86h0a1.68,1.68,0,0,0-1.68,1.68h0a1.68,1.68,0,0,0,1.68,1.68h0a1.68,1.68,0,0,0,1.68-1.68h0A1.68,1.68,0,0,0,82.17,173.86Z"/><circle class="cls-3" cx="85.9" cy="169.08" r="1.68"/><path class="cls-3" d="M82.17,186.77h0a1.68,1.68,0,0,0-1.68,1.68h0a1.68,1.68,0,0,0,1.68,1.68h0a1.68,1.68,0,0,0,1.68-1.68h0A1.68,1.68,0,0,0,82.17,186.77Z"/><circle class="cls-3" cx="85.9" cy="181.99" r="1.68"/><path class="cls-3" d="M82.17,199.68h0a1.68,1.68,0,0,0-1.68,1.68h0A1.68,1.68,0,0,0,82.17,203h0a1.68,1.68,0,0,0,1.68-1.68h0A1.68,1.68,0,0,0,82.17,199.68Z"/><circle class="cls-3" cx="85.9" cy="194.91" r="1.68"/><path class="cls-3" d="M82.17,212.59h0a1.68,1.68,0,0,0-1.68,1.68h0A1.69,1.69,0,0,0,82.17,216h0a1.69,1.69,0,0,0,1.68-1.69h0A1.68,1.68,0,0,0,82.17,212.59Z"/><circle class="cls-3" cx="85.9" cy="207.82" r="1.68"/><path class="cls-3" d="M82.17,225.5h0a1.69,1.69,0,0,0-1.68,1.69h0a1.68,1.68,0,0,0,1.68,1.68h0a1.68,1.68,0,0,0,1.68-1.68h0A1.69,1.69,0,0,0,82.17,225.5Z"/><circle class="cls-3" cx="85.9" cy="220.73" r="1.68"/><path class="cls-3" d="M82.17,238.42h0a1.68,1.68,0,0,0-1.68,1.68h0a1.68,1.68,0,0,0,1.68,1.68h0a1.68,1.68,0,0,0,1.68-1.68h0A1.68,1.68,0,0,0,82.17,238.42Z"/><circle class="cls-3" cx="85.9" cy="233.64" r="1.68"/><path class="cls-3" d="M82.17,251.33h0A1.68,1.68,0,0,0,80.49,253h0a1.68,1.68,0,0,0,1.68,1.68h0A1.68,1.68,0,0,0,83.85,253h0A1.68,1.68,0,0,0,82.17,251.33Z"/><path class="cls-3" d="M85.9,244.87a1.69,1.69,0,1,0,1.68,1.68A1.69,1.69,0,0,0,85.9,244.87Z"/><path class="cls-3" d="M82.17,264.24h0a1.68,1.68,0,0,0-1.68,1.68h0a1.68,1.68,0,0,0,1.68,1.68h0a1.68,1.68,0,0,0,1.68-1.68h0A1.68,1.68,0,0,0,82.17,264.24Z"/><circle class="cls-3" cx="85.9" cy="259.47" r="1.68"/><path class="cls-3" d="M82.17,277.15h0a1.68,1.68,0,0,0-1.68,1.68h0a1.67,1.67,0,0,0,.92,1.5l.76.14.16,0a1.68,1.68,0,0,0,1.52-1.67h0A1.68,1.68,0,0,0,82.17,277.15Z"/><path class="cls-3" d="M85.9,270.7a1.68,1.68,0,1,0,1.68,1.68A1.69,1.69,0,0,0,85.9,270.7Z"/><path class="cls-3" d="M74.71,160.94h0A1.69,1.69,0,0,0,73,162.63h0a1.68,1.68,0,0,0,1.68,1.68h0a1.69,1.69,0,0,0,1.69-1.68h0A1.69,1.69,0,0,0,74.71,160.94Z"/><circle class="cls-3" cx="78.44" cy="156.17" r="1.68"/><path class="cls-3" d="M74.71,173.86h0A1.68,1.68,0,0,0,73,175.54h0a1.68,1.68,0,0,0,1.68,1.68h0a1.69,1.69,0,0,0,1.69-1.68h0A1.69,1.69,0,0,0,74.71,173.86Z"/><circle class="cls-3" cx="78.44" cy="169.08" r="1.68"/><path class="cls-3" d="M74.71,186.77h0A1.68,1.68,0,0,0,73,188.45h0a1.68,1.68,0,0,0,1.68,1.68h0a1.69,1.69,0,0,0,1.69-1.68h0A1.69,1.69,0,0,0,74.71,186.77Z"/><circle class="cls-3" cx="78.44" cy="181.99" r="1.68"/><path class="cls-3" d="M74.71,199.68h0A1.68,1.68,0,0,0,73,201.36h0A1.68,1.68,0,0,0,74.71,203h0a1.69,1.69,0,0,0,1.69-1.68h0A1.69,1.69,0,0,0,74.71,199.68Z"/><circle class="cls-3" cx="78.44" cy="194.91" r="1.68"/><path class="cls-3" d="M74.71,212.59h0A1.68,1.68,0,0,0,73,214.27h0A1.69,1.69,0,0,0,74.71,216h0a1.69,1.69,0,0,0,1.69-1.69h0A1.69,1.69,0,0,0,74.71,212.59Z"/><circle class="cls-3" cx="78.44" cy="207.82" r="1.68"/><path class="cls-3" d="M74.71,225.5h0A1.69,1.69,0,0,0,73,227.19h0a1.68,1.68,0,0,0,1.68,1.68h0a1.69,1.69,0,0,0,1.69-1.68h0A1.69,1.69,0,0,0,74.71,225.5Z"/><circle class="cls-3" cx="78.44" cy="220.73" r="1.68"/><path class="cls-3" d="M74.71,238.42h0A1.68,1.68,0,0,0,73,240.1h0a1.68,1.68,0,0,0,1.68,1.68h0a1.69,1.69,0,0,0,1.69-1.68h0A1.69,1.69,0,0,0,74.71,238.42Z"/><circle class="cls-3" cx="78.44" cy="233.64" r="1.68"/><path class="cls-3" d="M74.71,251.33h0A1.68,1.68,0,0,0,73,253h0a1.68,1.68,0,0,0,1.68,1.68h0A1.69,1.69,0,0,0,76.4,253h0A1.69,1.69,0,0,0,74.71,251.33Z"/><path class="cls-3" d="M78.44,244.87a1.69,1.69,0,1,0,1.68,1.68A1.68,1.68,0,0,0,78.44,244.87Z"/><path class="cls-3" d="M74.71,264.24h0A1.68,1.68,0,0,0,73,265.92h0a1.68,1.68,0,0,0,1.68,1.68h0a1.69,1.69,0,0,0,1.69-1.68h0A1.69,1.69,0,0,0,74.71,264.24Z"/><circle class="cls-3" cx="78.44" cy="259.47" r="1.68"/><path class="cls-3" d="M74.71,277.15h0a1.68,1.68,0,0,0-1.65,1.38l1.24.3.41.09,1.62.36a1.69,1.69,0,0,0,.07-.45h0A1.69,1.69,0,0,0,74.71,277.15Z"/><path class="cls-3" d="M78.44,270.7a1.68,1.68,0,1,0,1.68,1.68A1.68,1.68,0,0,0,78.44,270.7Z"/><path class="cls-3" d="M67.26,160.94h0a1.69,1.69,0,0,0-1.68,1.69h0a1.68,1.68,0,0,0,1.68,1.68h0a1.68,1.68,0,0,0,1.68-1.68h0A1.69,1.69,0,0,0,67.26,160.94Z"/><circle class="cls-3" cx="70.99" cy="156.17" r="1.68"/><path class="cls-3" d="M67.26,173.86h0a1.68,1.68,0,0,0-1.68,1.68h0a1.68,1.68,0,0,0,1.68,1.68h0a1.68,1.68,0,0,0,1.68-1.68h0A1.68,1.68,0,0,0,67.26,173.86Z"/><circle class="cls-3" cx="70.99" cy="169.08" r="1.68"/><path class="cls-3" d="M67.26,186.77h0a1.68,1.68,0,0,0-1.68,1.68h0a1.68,1.68,0,0,0,1.68,1.68h0a1.68,1.68,0,0,0,1.68-1.68h0A1.68,1.68,0,0,0,67.26,186.77Z"/><circle class="cls-3" cx="70.99" cy="181.99" r="1.68"/><path class="cls-3" d="M67.26,199.68h0a1.68,1.68,0,0,0-1.68,1.68h0A1.68,1.68,0,0,0,67.26,203h0a1.68,1.68,0,0,0,1.68-1.68h0A1.68,1.68,0,0,0,67.26,199.68Z"/><circle class="cls-3" cx="70.99" cy="194.91" r="1.68"/><path class="cls-3" d="M67.26,212.59h0a1.68,1.68,0,0,0-1.68,1.68h0A1.69,1.69,0,0,0,67.26,216h0a1.69,1.69,0,0,0,1.68-1.69h0A1.68,1.68,0,0,0,67.26,212.59Z"/><circle class="cls-3" cx="70.99" cy="207.82" r="1.68"/><path class="cls-3" d="M67.26,225.5h0a1.69,1.69,0,0,0-1.68,1.69h0a1.68,1.68,0,0,0,1.68,1.68h0a1.68,1.68,0,0,0,1.68-1.68h0A1.69,1.69,0,0,0,67.26,225.5Z"/><circle class="cls-3" cx="70.99" cy="220.73" r="1.68"/><path class="cls-3" d="M67.26,238.42h0a1.68,1.68,0,0,0-1.68,1.68h0a1.68,1.68,0,0,0,1.68,1.68h0a1.68,1.68,0,0,0,1.68-1.68h0A1.68,1.68,0,0,0,67.26,238.42Z"/><circle class="cls-3" cx="70.99" cy="233.64" r="1.68"/><path class="cls-3" d="M67.26,251.33h0A1.68,1.68,0,0,0,65.58,253h0a1.68,1.68,0,0,0,1.68,1.68h0A1.68,1.68,0,0,0,68.94,253h0A1.68,1.68,0,0,0,67.26,251.33Z"/><path class="cls-3" d="M71,244.87a1.69,1.69,0,1,0,1.68,1.68A1.69,1.69,0,0,0,71,244.87Z"/><path class="cls-3" d="M67.26,264.24h0a1.68,1.68,0,0,0-1.68,1.68h0a1.68,1.68,0,0,0,1.68,1.68h0a1.68,1.68,0,0,0,1.68-1.68h0A1.68,1.68,0,0,0,67.26,264.24Z"/><circle class="cls-3" cx="70.99" cy="259.47" r="1.68"/><path class="cls-3" d="M71,270.7a1.68,1.68,0,1,0,1.68,1.68A1.69,1.69,0,0,0,71,270.7Z"/><path class="cls-3" d="M59.8,160.94h0a1.69,1.69,0,0,0-1.68,1.69h0a1.68,1.68,0,0,0,1.68,1.68h0a1.69,1.69,0,0,0,1.69-1.68h0A1.69,1.69,0,0,0,59.8,160.94Z"/><circle class="cls-3" cx="63.53" cy="156.17" r="1.68"/><path class="cls-3" d="M59.8,173.86h0a1.68,1.68,0,0,0-1.68,1.68h0a1.68,1.68,0,0,0,1.68,1.68h0a1.69,1.69,0,0,0,1.69-1.68h0A1.69,1.69,0,0,0,59.8,173.86Z"/><circle class="cls-3" cx="63.53" cy="169.08" r="1.68"/><path class="cls-3" d="M59.8,186.77h0a1.68,1.68,0,0,0-1.68,1.68h0a1.68,1.68,0,0,0,1.68,1.68h0a1.69,1.69,0,0,0,1.69-1.68h0A1.69,1.69,0,0,0,59.8,186.77Z"/><circle class="cls-3" cx="63.53" cy="181.99" r="1.68"/><path class="cls-3" d="M59.8,199.68h0a1.68,1.68,0,0,0-1.68,1.68h0A1.68,1.68,0,0,0,59.8,203h0a1.69,1.69,0,0,0,1.69-1.68h0A1.69,1.69,0,0,0,59.8,199.68Z"/><circle class="cls-3" cx="63.53" cy="194.91" r="1.68"/><path class="cls-3" d="M59.8,212.59h0a1.68,1.68,0,0,0-1.68,1.68h0A1.69,1.69,0,0,0,59.8,216h0a1.69,1.69,0,0,0,1.69-1.69h0A1.69,1.69,0,0,0,59.8,212.59Z"/><circle class="cls-3" cx="63.53" cy="207.82" r="1.68"/><path class="cls-3" d="M59.8,225.5h0a1.69,1.69,0,0,0-1.68,1.69h0a1.68,1.68,0,0,0,1.68,1.68h0a1.69,1.69,0,0,0,1.69-1.68h0A1.69,1.69,0,0,0,59.8,225.5Z"/><circle class="cls-3" cx="63.53" cy="220.73" r="1.68"/><path class="cls-3" d="M59.8,238.42h0a1.68,1.68,0,0,0-1.68,1.68h0a1.68,1.68,0,0,0,1.68,1.68h0a1.69,1.69,0,0,0,1.69-1.68h0A1.69,1.69,0,0,0,59.8,238.42Z"/><circle class="cls-3" cx="63.53" cy="233.64" r="1.68"/><path class="cls-3" d="M59.8,251.33h0A1.68,1.68,0,0,0,58.12,253h0a1.68,1.68,0,0,0,1.68,1.68h0A1.69,1.69,0,0,0,61.49,253h0A1.69,1.69,0,0,0,59.8,251.33Z"/><path class="cls-3" d="M63.53,244.87a1.69,1.69,0,1,0,1.68,1.68A1.68,1.68,0,0,0,63.53,244.87Z"/><path class="cls-3" d="M59.8,264.24h0a1.68,1.68,0,0,0-1.68,1.68h0a1.68,1.68,0,0,0,1.68,1.68h0a1.69,1.69,0,0,0,1.69-1.68h0A1.69,1.69,0,0,0,59.8,264.24Z"/><circle class="cls-3" cx="63.53" cy="259.47" r="1.68"/><path class="cls-3" d="M63.53,270.7a1.68,1.68,0,1,0,1.68,1.68A1.68,1.68,0,0,0,63.53,270.7Z"/><path class="cls-3" d="M52.35,160.94h0a1.69,1.69,0,0,0-1.68,1.69h0a1.68,1.68,0,0,0,1.68,1.68h0A1.68,1.68,0,0,0,54,162.63h0A1.69,1.69,0,0,0,52.35,160.94Z"/><path class="cls-3" d="M57.75,156.24c-1,.33-2,.7-2.92,1a1.67,1.67,0,0,0,2.92-1Z"/><path class="cls-3" d="M52.35,173.86h0a1.68,1.68,0,0,0-1.68,1.68h0a1.68,1.68,0,0,0,1.68,1.68h0A1.68,1.68,0,0,0,54,175.54h0A1.68,1.68,0,0,0,52.35,173.86Z"/><circle class="cls-3" cx="56.08" cy="169.08" r="1.68"/><path class="cls-3" d="M52.35,186.77h0a1.68,1.68,0,0,0-1.68,1.68h0a1.68,1.68,0,0,0,1.68,1.68h0A1.68,1.68,0,0,0,54,188.45h0A1.68,1.68,0,0,0,52.35,186.77Z"/><circle class="cls-3" cx="56.08" cy="181.99" r="1.68"/><path class="cls-3" d="M52.35,199.68h0a1.68,1.68,0,0,0-1.68,1.68h0A1.68,1.68,0,0,0,52.35,203h0A1.68,1.68,0,0,0,54,201.36h0A1.68,1.68,0,0,0,52.35,199.68Z"/><circle class="cls-3" cx="56.08" cy="194.91" r="1.68"/><path class="cls-3" d="M52.35,212.59h0a1.68,1.68,0,0,0-1.68,1.68h0A1.69,1.69,0,0,0,52.35,216h0A1.69,1.69,0,0,0,54,214.27h0A1.68,1.68,0,0,0,52.35,212.59Z"/><circle class="cls-3" cx="56.08" cy="207.82" r="1.68"/><path class="cls-3" d="M52.35,225.5h0a1.69,1.69,0,0,0-1.68,1.69h0a1.68,1.68,0,0,0,1.68,1.68h0A1.68,1.68,0,0,0,54,227.19h0A1.69,1.69,0,0,0,52.35,225.5Z"/><circle class="cls-3" cx="56.08" cy="220.73" r="1.68"/><path class="cls-3" d="M52.35,238.42h0a1.68,1.68,0,0,0-1.68,1.68h0a1.68,1.68,0,0,0,1.68,1.68h0A1.68,1.68,0,0,0,54,240.1h0A1.68,1.68,0,0,0,52.35,238.42Z"/><circle class="cls-3" cx="56.08" cy="233.64" r="1.68"/><path class="cls-3" d="M52.35,251.33h0A1.68,1.68,0,0,0,50.67,253h0a1.68,1.68,0,0,0,1.68,1.68h0A1.68,1.68,0,0,0,54,253h0A1.68,1.68,0,0,0,52.35,251.33Z"/><path class="cls-3" d="M56.08,244.87a1.69,1.69,0,1,0,1.68,1.68A1.69,1.69,0,0,0,56.08,244.87Z"/><path class="cls-3" d="M52.35,264.24h0a1.68,1.68,0,0,0-1.68,1.68h0a1.68,1.68,0,0,0,1.68,1.68h0A1.68,1.68,0,0,0,54,265.92h0A1.68,1.68,0,0,0,52.35,264.24Z"/><circle class="cls-3" cx="56.08" cy="259.47" r="1.68"/><path class="cls-3" d="M56.08,270.7a1.69,1.69,0,0,0-1.69,1.68,1.85,1.85,0,0,0,.08.48c.84.32,1.69.62,2.54.92a1.68,1.68,0,0,0-.93-3.08Z"/><path class="cls-3" d="M45.56,161.08l-.67.3c-.52.24-1.06.47-1.58.72a1.51,1.51,0,0,0-.1.53h0a1.68,1.68,0,0,0,1.68,1.68h0a1.69,1.69,0,0,0,1.69-1.68h0A1.68,1.68,0,0,0,45.56,161.08Z"/><path class="cls-3" d="M44.89,173.86h0a1.68,1.68,0,0,0-1.68,1.68h0a1.68,1.68,0,0,0,1.68,1.68h0a1.69,1.69,0,0,0,1.69-1.68h0A1.69,1.69,0,0,0,44.89,173.86Z"/><path class="cls-3" d="M48.62,167.4a1.68,1.68,0,1,0,1.68,1.68A1.68,1.68,0,0,0,48.62,167.4Z"/><path class="cls-3" d="M44.89,186.77h0a1.68,1.68,0,0,0-1.68,1.68h0a1.68,1.68,0,0,0,1.68,1.68h0a1.69,1.69,0,0,0,1.69-1.68h0A1.69,1.69,0,0,0,44.89,186.77Z"/><path class="cls-3" d="M48.62,180.31A1.69,1.69,0,1,0,50.3,182,1.68,1.68,0,0,0,48.62,180.31Z"/><path class="cls-3" d="M44.89,199.68h0a1.68,1.68,0,0,0-1.68,1.68h0A1.68,1.68,0,0,0,44.89,203h0a1.69,1.69,0,0,0,1.69-1.68h0A1.69,1.69,0,0,0,44.89,199.68Z"/><path class="cls-3" d="M48.62,193.22a1.69,1.69,0,1,0,1.68,1.69A1.69,1.69,0,0,0,48.62,193.22Z"/><path class="cls-3" d="M44.89,212.59h0a1.69,1.69,0,0,0-1.68,1.68h0A1.69,1.69,0,0,0,44.89,216h0a1.69,1.69,0,0,0,1.69-1.69h0A1.69,1.69,0,0,0,44.89,212.59Z"/><path class="cls-3" d="M48.62,206.14a1.68,1.68,0,1,0,1.68,1.68A1.68,1.68,0,0,0,48.62,206.14Z"/><path class="cls-3" d="M44.89,225.5h0a1.69,1.69,0,0,0-1.68,1.69h0a1.68,1.68,0,0,0,1.68,1.68h0a1.69,1.69,0,0,0,1.69-1.68h0A1.69,1.69,0,0,0,44.89,225.5Z"/><path class="cls-3" d="M48.62,219.05a1.68,1.68,0,1,0,1.68,1.68A1.68,1.68,0,0,0,48.62,219.05Z"/><path class="cls-3" d="M44.89,238.42h0a1.68,1.68,0,0,0-1.68,1.68h0a1.68,1.68,0,0,0,1.68,1.68h0a1.69,1.69,0,0,0,1.69-1.68h0A1.69,1.69,0,0,0,44.89,238.42Z"/><path class="cls-3" d="M48.62,232a1.68,1.68,0,1,0,1.68,1.68A1.68,1.68,0,0,0,48.62,232Z"/><path class="cls-3" d="M44.89,251.33h0A1.68,1.68,0,0,0,43.21,253h0a1.68,1.68,0,0,0,1.68,1.68h0A1.69,1.69,0,0,0,46.58,253h0A1.69,1.69,0,0,0,44.89,251.33Z"/><path class="cls-3" d="M48.62,244.87a1.69,1.69,0,1,0,1.68,1.68A1.68,1.68,0,0,0,48.62,244.87Z"/><path class="cls-3" d="M44.89,264.24h0a1.68,1.68,0,0,0-1.68,1.68h0a1.68,1.68,0,0,0,1.68,1.68h0a1.69,1.69,0,0,0,1.69-1.68h0A1.69,1.69,0,0,0,44.89,264.24Z"/><path class="cls-3" d="M48.62,257.78a1.69,1.69,0,1,0,1.68,1.69A1.69,1.69,0,0,0,48.62,257.78Z"/><path class="cls-3" d="M37.44,173.86h0a1.68,1.68,0,0,0-1.68,1.68h0a1.68,1.68,0,0,0,1.68,1.68h0a1.68,1.68,0,0,0,1.68-1.68h0A1.68,1.68,0,0,0,37.44,173.86Z"/><path class="cls-3" d="M41.17,167.4a1.68,1.68,0,1,0,1.68,1.68A1.69,1.69,0,0,0,41.17,167.4Z"/><path class="cls-3" d="M37.44,186.77h0a1.68,1.68,0,0,0-1.68,1.68h0a1.68,1.68,0,0,0,1.68,1.68h0a1.68,1.68,0,0,0,1.68-1.68h0A1.68,1.68,0,0,0,37.44,186.77Z"/><path class="cls-3" d="M41.17,180.31A1.69,1.69,0,1,0,42.85,182,1.69,1.69,0,0,0,41.17,180.31Z"/><path class="cls-3" d="M37.44,199.68h0a1.68,1.68,0,0,0-1.68,1.68h0A1.68,1.68,0,0,0,37.44,203h0a1.68,1.68,0,0,0,1.68-1.68h0A1.68,1.68,0,0,0,37.44,199.68Z"/><path class="cls-3" d="M41.17,193.22a1.69,1.69,0,1,0,0,3.37,1.69,1.69,0,0,0,0-3.37Z"/><path class="cls-3" d="M37.44,212.59h0a1.68,1.68,0,0,0-1.68,1.68h0A1.69,1.69,0,0,0,37.44,216h0a1.69,1.69,0,0,0,1.68-1.69h0A1.68,1.68,0,0,0,37.44,212.59Z"/><path class="cls-3" d="M41.17,206.14a1.68,1.68,0,1,0,1.68,1.68A1.69,1.69,0,0,0,41.17,206.14Z"/><path class="cls-3" d="M37.44,225.5h0a1.69,1.69,0,0,0-1.68,1.69h0a1.68,1.68,0,0,0,1.68,1.68h0a1.68,1.68,0,0,0,1.68-1.68h0A1.69,1.69,0,0,0,37.44,225.5Z"/><path class="cls-3" d="M41.17,219.05a1.68,1.68,0,1,0,1.68,1.68A1.69,1.69,0,0,0,41.17,219.05Z"/><path class="cls-3" d="M37.44,238.42h0a1.68,1.68,0,0,0-1.68,1.68h0a1.68,1.68,0,0,0,1.68,1.68h0a1.68,1.68,0,0,0,1.68-1.68h0A1.68,1.68,0,0,0,37.44,238.42Z"/><path class="cls-3" d="M41.17,232a1.68,1.68,0,1,0,1.68,1.68A1.69,1.69,0,0,0,41.17,232Z"/><path class="cls-3" d="M37.44,251.33h0A1.68,1.68,0,0,0,35.76,253h0a1.68,1.68,0,0,0,1.68,1.68h0A1.68,1.68,0,0,0,39.12,253h0A1.68,1.68,0,0,0,37.44,251.33Z"/><path class="cls-3" d="M41.17,244.87a1.69,1.69,0,1,0,1.68,1.68A1.69,1.69,0,0,0,41.17,244.87Z"/><path class="cls-3" d="M37.44,264.24h0a1.7,1.7,0,0,0-1,.33l1,.55c.49.26,1,.54,1.47.8l.2.11s0-.07,0-.11h0A1.68,1.68,0,0,0,37.44,264.24Z"/><path class="cls-3" d="M41.17,257.78a1.69,1.69,0,1,0,0,3.37,1.69,1.69,0,0,0,0-3.37Z"/><path class="cls-3" d="M30,173.86h0a1.69,1.69,0,0,0-1.69,1.68h0A1.69,1.69,0,0,0,30,177.22h0a1.68,1.68,0,0,0,1.68-1.68h0A1.68,1.68,0,0,0,30,173.86Z"/><path class="cls-3" d="M33.71,167.4a1.64,1.64,0,0,0-.5.09l-.69.4a1.71,1.71,0,0,0-.49,1.19,1.68,1.68,0,1,0,1.68-1.68Z"/><path class="cls-3" d="M30,186.77h0a1.69,1.69,0,0,0-1.69,1.68h0A1.69,1.69,0,0,0,30,190.13h0a1.68,1.68,0,0,0,1.68-1.68h0A1.68,1.68,0,0,0,30,186.77Z"/><circle class="cls-3" cx="33.71" cy="181.99" r="1.68"/><path class="cls-3" d="M30,199.68h0a1.69,1.69,0,0,0-1.69,1.68h0A1.69,1.69,0,0,0,30,203h0a1.68,1.68,0,0,0,1.68-1.68h0A1.68,1.68,0,0,0,30,199.68Z"/><circle class="cls-3" cx="33.71" cy="194.91" r="1.68"/><path class="cls-3" d="M30,212.59h0a1.69,1.69,0,0,0-1.69,1.68h0A1.69,1.69,0,0,0,30,216h0a1.69,1.69,0,0,0,1.68-1.69h0A1.69,1.69,0,0,0,30,212.59Z"/><circle class="cls-3" cx="33.71" cy="207.82" r="1.68"/><path class="cls-3" d="M30,225.5h0a1.69,1.69,0,0,0-1.69,1.69h0A1.69,1.69,0,0,0,30,228.87h0a1.68,1.68,0,0,0,1.68-1.68h0A1.69,1.69,0,0,0,30,225.5Z"/><circle class="cls-3" cx="33.71" cy="220.73" r="1.68"/><path class="cls-3" d="M30,238.42h0a1.69,1.69,0,0,0-1.69,1.68h0A1.69,1.69,0,0,0,30,241.78h0a1.68,1.68,0,0,0,1.68-1.68h0A1.68,1.68,0,0,0,30,238.42Z"/><circle class="cls-3" cx="33.71" cy="233.64" r="1.68"/><path class="cls-3" d="M30,251.33h0A1.69,1.69,0,0,0,28.3,253h0A1.69,1.69,0,0,0,30,254.69h0A1.68,1.68,0,0,0,31.67,253h0A1.68,1.68,0,0,0,30,251.33Z"/><path class="cls-3" d="M33.71,244.87a1.69,1.69,0,1,0,1.68,1.68A1.68,1.68,0,0,0,33.71,244.87Z"/><circle class="cls-3" cx="33.71" cy="259.47" r="1.68"/><path class="cls-3" d="M23.43,174.12l-.9.7-.88.72-.7.57a1.69,1.69,0,0,0,1.58,1.11h0a1.68,1.68,0,0,0,1.68-1.68h0A1.68,1.68,0,0,0,23.43,174.12Z"/><path class="cls-3" d="M22.53,186.77h0a1.68,1.68,0,0,0-1.68,1.68h0a1.68,1.68,0,0,0,1.68,1.68h0a1.68,1.68,0,0,0,1.68-1.68h0A1.68,1.68,0,0,0,22.53,186.77Z"/><circle class="cls-3" cx="26.26" cy="181.99" r="1.68"/><path class="cls-3" d="M22.53,199.68h0a1.68,1.68,0,0,0-1.68,1.68h0A1.68,1.68,0,0,0,22.53,203h0a1.68,1.68,0,0,0,1.68-1.68h0A1.68,1.68,0,0,0,22.53,199.68Z"/><circle class="cls-3" cx="26.26" cy="194.91" r="1.68"/><path class="cls-3" d="M22.53,212.59h0a1.68,1.68,0,0,0-1.68,1.68h0A1.69,1.69,0,0,0,22.53,216h0a1.69,1.69,0,0,0,1.68-1.69h0A1.68,1.68,0,0,0,22.53,212.59Z"/><circle class="cls-3" cx="26.26" cy="207.82" r="1.68"/><path class="cls-3" d="M22.53,225.5h0a1.69,1.69,0,0,0-1.68,1.69h0a1.68,1.68,0,0,0,1.68,1.68h0a1.68,1.68,0,0,0,1.68-1.68h0A1.69,1.69,0,0,0,22.53,225.5Z"/><circle class="cls-3" cx="26.26" cy="220.73" r="1.68"/><path class="cls-3" d="M22.53,238.42h0a1.68,1.68,0,0,0-1.68,1.68h0a1.68,1.68,0,0,0,1.68,1.68h0a1.68,1.68,0,0,0,1.68-1.68h0A1.68,1.68,0,0,0,22.53,238.42Z"/><circle class="cls-3" cx="26.26" cy="233.64" r="1.68"/><path class="cls-3" d="M22.53,251.33h0A1.68,1.68,0,0,0,20.85,253h0a1.68,1.68,0,0,0,1.68,1.68h0A1.68,1.68,0,0,0,24.21,253h0A1.68,1.68,0,0,0,22.53,251.33Z"/><path class="cls-3" d="M26.26,244.87a1.69,1.69,0,1,0,1.68,1.68A1.68,1.68,0,0,0,26.26,244.87Z"/><path class="cls-3" d="M26.26,257.78a2,2,0,0,0-.43.06c.69.5,1.38,1,2.1,1.48A1.68,1.68,0,0,0,26.26,257.78Z"/><path class="cls-3" d="M15.08,186.77h0a1.69,1.69,0,0,0-1.69,1.68h0a1.69,1.69,0,0,0,1.69,1.68h0a1.68,1.68,0,0,0,1.68-1.68h0A1.68,1.68,0,0,0,15.08,186.77Z"/><circle class="cls-3" cx="18.8" cy="181.99" r="1.68"/><path class="cls-3" d="M15.08,199.68h0a1.69,1.69,0,0,0-1.69,1.68h0A1.69,1.69,0,0,0,15.08,203h0a1.68,1.68,0,0,0,1.68-1.68h0A1.68,1.68,0,0,0,15.08,199.68Z"/><circle class="cls-3" cx="18.8" cy="194.91" r="1.68"/><path class="cls-3" d="M15.08,212.59h0a1.69,1.69,0,0,0-1.69,1.68h0A1.69,1.69,0,0,0,15.08,216h0a1.69,1.69,0,0,0,1.68-1.69h0A1.69,1.69,0,0,0,15.08,212.59Z"/><circle class="cls-3" cx="18.8" cy="207.82" r="1.68"/><path class="cls-3" d="M15.08,225.5h0a1.69,1.69,0,0,0-1.69,1.69h0a1.69,1.69,0,0,0,1.69,1.68h0a1.68,1.68,0,0,0,1.68-1.68h0A1.69,1.69,0,0,0,15.08,225.5Z"/><circle class="cls-3" cx="18.8" cy="220.73" r="1.68"/><path class="cls-3" d="M15.08,238.42h0a1.69,1.69,0,0,0-1.69,1.68h0a1.69,1.69,0,0,0,1.69,1.68h0a1.68,1.68,0,0,0,1.68-1.68h0A1.68,1.68,0,0,0,15.08,238.42Z"/><circle class="cls-3" cx="18.8" cy="233.64" r="1.68"/><path class="cls-3" d="M18.8,244.87a1.69,1.69,0,1,0,1.69,1.68A1.68,1.68,0,0,0,18.8,244.87Z"/><path class="cls-3" d="M9.25,188.45c-.39.53-.76,1.06-1.12,1.6a1.68,1.68,0,0,0,1.17-1.6h0v-.07Z"/><path class="cls-3" d="M7.62,199.68h0a1.68,1.68,0,0,0-1.68,1.68h0A1.68,1.68,0,0,0,7.62,203h0a1.68,1.68,0,0,0,1.68-1.68h0A1.68,1.68,0,0,0,7.62,199.68Z"/><circle class="cls-3" cx="11.35" cy="194.91" r="1.68"/><path class="cls-3" d="M7.62,212.59h0a1.68,1.68,0,0,0-1.68,1.68h0A1.69,1.69,0,0,0,7.62,216h0a1.69,1.69,0,0,0,1.68-1.69h0A1.68,1.68,0,0,0,7.62,212.59Z"/><circle class="cls-3" cx="11.35" cy="207.82" r="1.68"/><path class="cls-3" d="M7.62,225.5h0a1.69,1.69,0,0,0-1.68,1.69h0a1.68,1.68,0,0,0,1.68,1.68h0a1.68,1.68,0,0,0,1.68-1.68h0A1.69,1.69,0,0,0,7.62,225.5Z"/><circle class="cls-3" cx="11.35" cy="220.73" r="1.68"/><path class="cls-3" d="M7.62,238.42h0a1.64,1.64,0,0,0-.5.08c.16.27.33.53.5.8l.54.8c.24.36.48.72.74,1.08a1.65,1.65,0,0,0,.4-1.08h0A1.68,1.68,0,0,0,7.62,238.42Z"/><circle class="cls-3" cx="11.35" cy="233.64" r="1.68"/><path class="cls-3" d="M11.81,244.94c.39.47.79.94,1.2,1.4A1.69,1.69,0,0,0,11.81,244.94Z"/><path class="cls-3" d="M4.4,196.5a1.67,1.67,0,0,0,1.18-1.59,1.56,1.56,0,0,0-.1-.53C5.1,195.09,4.74,195.79,4.4,196.5Z"/><path class="cls-3" d="M.17,212.59H.08c0,.56,0,1.12-.06,1.67s0,1.12,0,1.67l.15,0h0a1.69,1.69,0,0,0,1.68-1.69h0A1.68,1.68,0,0,0,.17,212.59Z"/><circle class="cls-3" cx="3.89" cy="207.82" r="1.68"/><path class="cls-3" d="M1.84,227.09a1.68,1.68,0,0,0-.22-.74C1.69,226.6,1.76,226.85,1.84,227.09Z"/><circle class="cls-3" cx="3.89" cy="220.73" r="1.68"/><path class="cls-3" d="M3.89,232l-.23,0c.42,1,.88,1.93,1.37,2.89a1.65,1.65,0,0,0,.55-1.23A1.69,1.69,0,0,0,3.89,232Z"/><polygon class="cls-4" points="160.34 1.09 159.9 156.58 261.54 215.26 261.98 59.77 160.34 1.09"/><path d="M261.54,216.35a1.18,1.18,0,0,1-.55-.14L159.35,157.52a1.07,1.07,0,0,1-.54-.94l.44-155.49a1.09,1.09,0,0,1,.54-.94,1.07,1.07,0,0,1,1.09,0L262.52,58.83a1.09,1.09,0,0,1,.55,1l-.44,155.48a1.1,1.1,0,0,1-.55,1A1.14,1.14,0,0,1,261.54,216.35ZM161,156l99.46,57.42.44-153L161.43,3Z"/><polygon class="cls-4" points="135.12 15.65 134.68 171.14 236.32 229.82 236.76 74.33 135.12 15.65"/><path d="M236.32,230.91a1,1,0,0,1-.54-.15L134.14,172.08a1.09,1.09,0,0,1-.55-1L134,15.65a1.1,1.1,0,0,1,.55-1,1.09,1.09,0,0,1,1.09,0L237.31,73.39a1.06,1.06,0,0,1,.54,1l-.44,155.48a1.12,1.12,0,0,1-.54,1A1.18,1.18,0,0,1,236.32,230.91Zm-100.55-60.4,99.47,57.42.43-153L136.21,17.54Z"/><polygon class="cls-4" points="109.83 30.21 109.39 185.69 211.03 244.38 211.47 88.89 109.83 30.21"/><path d="M211,245.47a1.08,1.08,0,0,1-.55-.15L108.84,186.64a1.1,1.1,0,0,1-.54-.95l.44-155.48a1.1,1.1,0,0,1,1.64-.95L212,88a1.07,1.07,0,0,1,.54.94l-.44,155.49a1.09,1.09,0,0,1-1.09,1.09Zm-100.55-60.4,99.46,57.42.44-153L110.92,32.1Z"/><path d="M159.45,189.8l-.06,21.56c.14-.14.25-.29.38-.42v.45a30.32,30.32,0,0,0,2.16-2.43c.08-.1.19-.19.27-.3s.13-.21.21-.32a24.43,24.43,0,0,0,1.93-2.87l0-.05c.35-.63.67-1.25,1-1.89h15.06l.1-34.2-.06-15.66H170.27"/><path d="M159.77,212.49a1,1,0,0,1-.3-.05,1,1,0,0,1-.5-.08,1.09,1.09,0,0,1-.67-1l.06-21.56a1.08,1.08,0,0,1,1.09-1.08h0a1.08,1.08,0,0,1,1.08,1.09l0,19.19.59-.71.18-.2.08-.09a3.17,3.17,0,0,1,.21-.31,25.27,25.27,0,0,0,1.84-2.74.61.61,0,0,1,.07-.1c.32-.59.62-1.17.88-1.75a1.07,1.07,0,0,1,1-.65h14l.09-33.11-.06-14.57h-9.07a1.09,1.09,0,0,1,0-2.18h10.16a1.1,1.1,0,0,1,1.09,1.09l.06,15.66-.09,34.2a1.1,1.1,0,0,1-1.09,1.09H166c-.22.45-.45.89-.7,1.33l-.09.14a24.8,24.8,0,0,1-2,2.91l-.22.34-.2.23-.08.08a31,31,0,0,1-2.24,2.52A1.14,1.14,0,0,1,159.77,212.49Z"/><path d="M170.27,153.66l0-14-19.19-11.08-10.63,6.17a80.33,80.33,0,0,0-13.59-3.25l0-8.74H99.8l0,8.76a80.23,80.23,0,0,0-13.48,3.23l-10.69-6.17-19,11.07,0,14H46.58l-.1,34.2.11,15.66H61.68v-.12h0v.12a25.84,25.84,0,0,0,5.65,7.86V211c.14.15.27.3.42.45l.06-21.71L76,194.44l10.61-6.17v7.35h0c0,4,2.63,8,7.92,11.08a28.82,28.82,0,0,0,3.87,1.86l.22.07c.22.09.45.15.67.23.78.28,1.55.56,2.36.8.45.12.91.22,1.36.33l.76.19.69.16c.87.18,1.76.34,2.66.47l1,.11.66.07,1,.11c.88.07,1.77.12,2.65.14h1.55c.41,0,.81,0,1.21,0,1,0,2-.1,3-.2l.33-.05.79-.11c.77-.09,1.55-.18,2.31-.32.33-.06.64-.17,1-.24.92-.19,1.8-.42,2.69-.67.47-.13,1-.21,1.43-.36s.72-.27,1.08-.41.7-.25,1.05-.39a28.64,28.64,0,0,0,3.74-1.78l.33-.19c.25-.15.46-.31.69-.46s.66-.43,1-.65.51-.39.76-.59.56-.45.82-.68l.16-.13c.11-.1.18-.2.28-.3a16.28,16.28,0,0,0,1.14-1.23c.07-.09.17-.17.25-.26s.11-.19.18-.28a11,11,0,0,0,.63-.94c.08-.13.19-.26.27-.39s.06-.14.09-.2a9.37,9.37,0,0,0,.4-.85c.07-.16.16-.32.22-.48s0-.11.05-.17a7.32,7.32,0,0,0,.23-.8c.05-.18.12-.36.16-.54s0-.1,0-.15a7.89,7.89,0,0,0,.09-.85c0-.18.06-.36.07-.55v-.24l0-7.36c.16-.06.33-.09.49-.14l10.67,6.16,8-4.63"/><path d="M67.75,212.51a1.1,1.1,0,0,1-.31,0,1.12,1.12,0,0,1-.88-.31A27.35,27.35,0,0,1,61,204.61H46.59a1.08,1.08,0,0,1-1.09-1.08l-.11-15.66.1-34.21a1.09,1.09,0,0,1,1.09-1.09h8.85l0-13a1.12,1.12,0,0,1,.55-.94L75.06,127.6a1.11,1.11,0,0,1,1.09,0l10.27,5.93a80.58,80.58,0,0,1,12.27-3l0-7.82a1.09,1.09,0,0,1,1.09-1.09h27.06a1.1,1.1,0,0,1,1.09,1.09l0,7.81a81.69,81.69,0,0,1,12.38,3l10.2-5.93a1.11,1.11,0,0,1,1.09,0l19.2,11.08a1.07,1.07,0,0,1,.54.95l0,14a1.08,1.08,0,0,1-1.09,1.08h0a1.09,1.09,0,0,1-1.09-1.09l0-13.4-18.1-10.45L141,135.66a1.07,1.07,0,0,1-.89.09,80.56,80.56,0,0,0-13.41-3.2,1.1,1.1,0,0,1-.93-1.07l0-7.65H100.89l0,7.66a1.1,1.1,0,0,1-.93,1.08,79.17,79.17,0,0,0-13.29,3.18,1.09,1.09,0,0,1-.9-.08l-10.14-5.86-18,10.44,0,13.42a1.09,1.09,0,0,1-1.09,1.09H47.67l-.1,33.11.11,14.56h13.5a1.06,1.06,0,0,1,.5-.12,1.1,1.1,0,0,1,1.08,1,23.87,23.87,0,0,0,3.91,5.84l0-19.4a1.08,1.08,0,0,1,.55-.94,1.07,1.07,0,0,1,1.09,0L76,193.18l10.06-5.85a1.08,1.08,0,0,1,1.1,0,1.07,1.07,0,0,1,.54.95l0,7.34c0,3.79,2.61,7.38,7.38,10.14a27.24,27.24,0,0,0,3.72,1.78l.2.07.32.11.34.11.13,0c.74.26,1.43.52,2.16.73l.85.21.73.17.48.12.35.08.32.08c.84.18,1.72.33,2.6.46l.52.06,1.49.16c.18,0,.36.05.54.06.85.07,1.72.12,2.59.14h2c.24,0,.48,0,.73,0,1,0,2-.1,2.91-.2h.11l.22,0,.39-.06.72-.09c.64-.08,1.28-.16,1.91-.27l.42-.11.51-.13c1-.19,1.87-.44,2.62-.65l.68-.17c.24,0,.49-.1.71-.17s.39-.14.57-.22l.48-.18,1-.38a27.39,27.39,0,0,0,3.6-1.71l.32-.19a3.22,3.22,0,0,0,.36-.24l.49-.33c.25-.16.49-.31.72-.48s.35-.27.52-.41l.34-.27c.22-.17.43-.34.63-.52l.13-.11.09-.09a1.8,1.8,0,0,1,.19-.2c.4-.4.75-.77,1.06-1.14.05-.07.12-.13.18-.2l.08-.1.14-.21a7.88,7.88,0,0,0,.57-.85l.17-.24a.83.83,0,0,1,.08-.12,1.3,1.3,0,0,1,.08-.17c.13-.26.24-.51.35-.76,0-.1.09-.19.13-.28a.8.8,0,0,0,.08-.16.9.9,0,0,1,.05-.16,6.09,6.09,0,0,0,.17-.61l0-.1a2.76,2.76,0,0,1,.08-.27,1.66,1.66,0,0,0,.06-.21s0-.06,0-.12a4.53,4.53,0,0,0,.07-.62v-.14c0-.09,0-.19,0-.29a1.23,1.23,0,0,0,0-.19v-.21l0-7.37a1.08,1.08,0,0,1,.75-1l.3-.09.18-.05a1.07,1.07,0,0,1,.89.09l10.13,5.84,7.41-4.31a1.11,1.11,0,0,1,1.5.4,1.09,1.09,0,0,1-.4,1.49l-8,4.63a1.08,1.08,0,0,1-1.1,0l-9.52-5.5,0,6.08a5.29,5.29,0,0,1-.05.54s0,.11,0,.17v.13a8,8,0,0,1-.1.82s0,.08,0,.14a3.09,3.09,0,0,1-.12.46l-.05.17a8.92,8.92,0,0,1-.26.89s0,.11-.05.18a3.39,3.39,0,0,1-.18.39s0,.09-.07.14a10.08,10.08,0,0,1-.44.94,2.14,2.14,0,0,1-.1.22,2.11,2.11,0,0,1-.21.31l-.08.12c-.21.34-.43.68-.68,1l-.21.31-.21.23c-.41.48-.81.91-1.27,1.36a3.43,3.43,0,0,1-.3.32l-.14.12c-.26.23-.5.43-.75.62l-.33.27-.61.48c-.26.19-.54.37-.82.55l-.43.29-.49.32-.33.19a28.8,28.8,0,0,1-3.9,1.85c-.35.15-.71.28-1.07.41l-.42.16-.7.26a9.36,9.36,0,0,1-.91.24l-.57.13c-.79.23-1.74.48-2.77.69l-.36.09a6.45,6.45,0,0,1-.63.16c-.66.12-1.34.2-2,.28l-.66.09-.49.07-.12,0-.22,0c-1,.1-2,.17-3.06.2h-2.82c-.92,0-1.83-.07-2.72-.14l-.62-.07-1.45-.16-.61-.07c-.92-.13-1.85-.29-2.73-.48l-.44-.1-.27-.07-.54-.13-.69-.17-1-.23c-.8-.23-1.56-.51-2.3-.78l-.13-.05-.26-.08-.43-.15-.23-.08a29.75,29.75,0,0,1-4-1.92c-5.48-3.16-8.49-7.44-8.47-12v-5.45l-9,5.21a1.08,1.08,0,0,1-1.1,0L68.9,191.6l-.06,19.82a1.09,1.09,0,0,1-.67,1A1.25,1.25,0,0,1,67.75,212.51Z"/><path d="M140.73,187.51c-.81.28-1.63.52-2.46.77s-1.92.56-2.9.82l-1.68.42c-.78.19-1.57.34-2.36.5-1.47.3-2.93.6-4.45.83l-.09,34.2.22,0v.22c.75-.12,1.5-.24,2.24-.38,1.3-.23,2.55-.52,3.81-.81.39-.09.78-.15,1.16-.24,1.82-.45,3.6-.94,5.32-1.49l1.05-.34v-.25h0Z"/><path d="M127,226.32a1.09,1.09,0,0,1-.71-.26l-.08-.08-.14-.11a1.05,1.05,0,0,1-.38-.83l.09-34.2a1.09,1.09,0,0,1,.93-1.07c1.53-.23,3.05-.54,4.39-.81l.41-.09c.64-.13,1.28-.26,1.92-.41s1.1-.27,1.65-.42c1-.25,1.92-.52,2.87-.81l.54-.16c.63-.19,1.26-.38,1.87-.59a1.09,1.09,0,0,1,1.45,1l-.1,34.2a1.06,1.06,0,0,1,0,.31,1.09,1.09,0,0,1-.75,1l-1.05.35c-1.69.54-3.45,1-5.41,1.51l-.68.14-.48.1-.21.05c-1.18.27-2.4.55-3.66.78l-2.26.38Zm1-34.54-.09,32.2,1.17-.2c1.21-.22,2.41-.49,3.57-.76l.2,0,.54-.12.6-.13c1.9-.46,3.62-.94,5.25-1.46l.33-.11.09-32.15-.5.15-.54.16c-1,.3-2,.58-3,.84l-1.7.43c-.66.15-1.32.29-2,.42l-.4.08C130.45,191.32,129.23,191.57,128,191.78Z"/><polygon points="151.35 193.93 151.26 228.13 140.59 221.97 140.68 187.77 151.35 193.93"/><path d="M151.26,229.22a1.08,1.08,0,0,1-.55-.15L140,222.91a1.06,1.06,0,0,1-.54-.95l.09-34.2a1.1,1.1,0,0,1,.55-.94,1.11,1.11,0,0,1,1.09,0L151.9,193a1.07,1.07,0,0,1,.54,1l-.09,34.2a1.11,1.11,0,0,1-1.09,1.09Zm-9.58-7.88,8.49,4.9.09-31.68-8.49-4.9Z"/><polygon class="cls-4" points="170.4 182.86 170.31 217.06 151.26 228.13 151.35 193.93 170.4 182.86"/><path d="M151.26,229.22a1.11,1.11,0,0,1-1.1-1.1l.1-34.2a1.11,1.11,0,0,1,.54-.94l19-11.07a1.13,1.13,0,0,1,1.1,0,1.07,1.07,0,0,1,.54,1l-.09,34.2a1.09,1.09,0,0,1-.55.94l-19,11.07A1.08,1.08,0,0,1,151.26,229.22Zm1.18-34.66-.09,31.67,16.87-9.8.09-31.67Z"/><polygon class="cls-4" points="75.86 193.94 75.77 228.14 56.57 217.06 56.67 182.86 75.86 193.94"/><path d="M75.77,229.23a1.08,1.08,0,0,1-.55-.15L56,218a1.1,1.1,0,0,1-.54-.95l.1-34.2a1.1,1.1,0,0,1,.54-.94,1.11,1.11,0,0,1,1.09,0L76.41,193a1.08,1.08,0,0,1,.55.94l-.1,34.2a1.1,1.1,0,0,1-.55,1A1.14,1.14,0,0,1,75.77,229.23Zm-18.11-12.8,17,9.82.09-31.68-17-9.82Z"/><polygon points="86.49 187.77 86.39 221.97 75.77 228.14 75.86 193.94 86.49 187.77"/><path d="M75.77,229.23a1.08,1.08,0,0,1-.55-.15,1.07,1.07,0,0,1-.54-.94l.09-34.2a1.08,1.08,0,0,1,.55-.94l10.62-6.18a1.1,1.1,0,0,1,1.64,1l-.1,34.2a1.1,1.1,0,0,1-.54.94l-10.62,6.17A1.08,1.08,0,0,1,75.77,229.23ZM77,194.57l-.08,31.67,8.43-4.9.09-31.67Z"/><path d="M100.08,191c-1.57-.24-3.11-.51-4.63-.82q-2.82-.58-5.49-1.35c-1.18-.33-2.34-.7-3.47-1.08l-.1,34.2c1.13.38,2.29.74,3.47,1.08,1.78.51,3.62,1,5.49,1.34,1.52.32,3.06.59,4.63.82l.15-25.46Z"/><path d="M100,226.3h-.16c-1.57-.23-3.15-.51-4.69-.83-1.89-.39-3.76-.85-5.57-1.36-1.21-.35-2.4-.72-3.52-1.1a1.09,1.09,0,0,1-.74-1l.09-34.2a1.12,1.12,0,0,1,.46-.88,1.1,1.1,0,0,1,1-.15c1.11.38,2.26.74,3.41,1.07,1.77.5,3.59.95,5.42,1.33,1.5.31,3,.58,4.57.8a1.1,1.1,0,0,1,.93,1.08l0,8.74-.15,25.47a1.07,1.07,0,0,1-.38.82A1.09,1.09,0,0,1,100,226.3Zm-12.5-5.12c.87.28,1.77.56,2.68.82,1.75.5,3.57.94,5.41,1.33,1.1.22,2.21.43,3.32.61L99,199.75l0-7.8c-1.27-.2-2.53-.43-3.76-.68-1.88-.39-3.76-.85-5.57-1.37l-2.09-.62Z"/><polygon class="cls-4" points="127.14 199.75 127.04 233.95 100.03 233.95 100.13 199.75 127.14 199.75"/><path d="M127,235H100A1.09,1.09,0,0,1,98.94,234l.09-34.2a1.1,1.1,0,0,1,1.1-1.09h27a1.12,1.12,0,0,1,.77.32,1.14,1.14,0,0,1,.32.78l-.1,34.19A1.09,1.09,0,0,1,127,235Zm-25.92-2.18H126l.09-32H101.21Z"/><path class="cls-4" d="M140.8,187.8A76.88,76.88,0,0,1,127,191.14l-.09,8.71H100.53l0-8.68a81.22,81.22,0,0,1-13.88-3.32L75.94,194l-18.71-10.8L67.79,177A26.91,26.91,0,0,1,62,169l-15-.08-.08-15.26h15a25.63,25.63,0,0,1,5.65-8L57,139.41l18.56-10.79,10.64,6.15A76.62,76.62,0,0,1,100,131.45l.09-8.72h26.34l0,8.69a78.11,78.11,0,0,1,13.88,3.31l10.69-6.11,18.7,10.8-10.57,6.15a26.18,26.18,0,0,1,5.78,8l15,.07.09,15.26h-15a25.71,25.71,0,0,1-5.67,8l10.56,6.2-18.56,10.79ZM94.55,172.3c10.51,6.07,27.55,6.07,38,0s10.39-15.94-.13-22-27.55-6.07-38,0-10.38,15.94.13,22"/><path d="M126.88,200.94H100.53a1.08,1.08,0,0,1-1.09-1.08l0-7.76A82.19,82.19,0,0,1,86.72,189L76.48,194.9a1.09,1.09,0,0,1-1.09,0L56.69,184.1a1.1,1.1,0,0,1-.55-.95,1.09,1.09,0,0,1,.54-.94L66,176.78a27.41,27.41,0,0,1-4.72-6.69L47,170a1.08,1.08,0,0,1-1.09-1.08l-.09-15.26a1.09,1.09,0,0,1,1.1-1.1H61.19a26.48,26.48,0,0,1,4.6-6.69l-9.36-5.52a1.09,1.09,0,0,1-.54-.94,1.08,1.08,0,0,1,.55-.94L75,127.68a1.07,1.07,0,0,1,1.09,0l10.22,5.9a76.54,76.54,0,0,1,12.62-3.07l.08-7.79a1.09,1.09,0,0,1,1.09-1.08h26.34a1.09,1.09,0,0,1,1.09,1.09l0,7.75a78.78,78.78,0,0,1,12.67,3.06l10.27-5.86a1,1,0,0,1,1.08,0l18.71,10.8a1.08,1.08,0,0,1,.55.94,1.1,1.1,0,0,1-.55,1L161,145.81a26.89,26.89,0,0,1,4.72,6.69l14.35.07a1.09,1.09,0,0,1,1.08,1.09l.09,15.26A1.09,1.09,0,0,1,180.1,170H165.8a26.34,26.34,0,0,1-4.62,6.7l9.36,5.5a1.07,1.07,0,0,1,.54.94,1.09,1.09,0,0,1-.54.94L152,194.88a1.08,1.08,0,0,1-1.1,0L140.68,189A78.62,78.62,0,0,1,128,192.08l-.07,7.78A1.1,1.1,0,0,1,126.88,200.94Zm-25.26-2.18h24.17l.08-7.63a1.09,1.09,0,0,1,.93-1.07,76.49,76.49,0,0,0,13.65-3.29,1.1,1.1,0,0,1,.9.09l10.07,5.81,16.4-9.53-8.94-5.25a1.06,1.06,0,0,1-.53-.8,1.08,1.08,0,0,1,.31-.92,24.41,24.41,0,0,0,5.44-7.69,1.11,1.11,0,0,1,1-.65H179l-.07-13.08-14-.07a1.09,1.09,0,0,1-1-.65,25.53,25.53,0,0,0-5.55-7.68,1.08,1.08,0,0,1,.21-1.72l9-5.2-16.53-9.55-10.15,5.8a1.07,1.07,0,0,1-.89.09,76.81,76.81,0,0,0-13.69-3.27,1.09,1.09,0,0,1-.93-1.07l-.05-7.6H101.18l-.07,7.63a1.11,1.11,0,0,1-.94,1.07,76.12,76.12,0,0,0-13.62,3.27,1.05,1.05,0,0,1-.9-.08l-10.1-5.83-16.4,9.53,8.95,5.28a1.09,1.09,0,0,1,.53.8,1.12,1.12,0,0,1-.32.92,24.6,24.6,0,0,0-5.42,7.67,1.07,1.07,0,0,1-1,.65H48l.08,13.09,14,.07a1.09,1.09,0,0,1,1,.64,26,26,0,0,0,5.55,7.69,1.08,1.08,0,0,1,.32.91,1.09,1.09,0,0,1-.53.81l-8.93,5.19,16.53,9.54,10.12-5.78a1.07,1.07,0,0,1,.89-.09,81.47,81.47,0,0,0,13.7,3.27,1.1,1.1,0,0,1,.93,1.07Zm11.95-20.83c-7.08,0-14.16-1.56-19.57-4.69h0c-5.45-3.14-8.46-7.4-8.46-12s2.95-8.79,8.34-11.92c10.74-6.24,28.28-6.24,39.09,0,5.45,3.15,8.46,7.41,8.47,12s-3,8.78-8.34,11.91S120.65,177.93,113.57,177.93Zm-18.48-6.58c10.21,5.9,26.77,5.9,36.91,0,4.68-2.72,7.26-6.28,7.25-10s-2.62-7.35-7.37-10.1c-10.21-5.89-26.77-5.89-36.91,0-4.68,2.72-7.26,6.28-7.25,10s2.62,7.36,7.37,10.1Z"/><path d="M94.64,172.3c10.52,6.07,27.56,6.07,38,0s10.39-15.94-.12-22-27.56-6.07-38,0-10.39,15.94.12,22"/><g class="cls-5"><path class="cls-4" d="M94.64,172.3c10.52,6.07,27.56,6.07,38,0s10.39-15.94-.12-22-27.56-6.07-38,0-10.39,15.94.12,22"/><path d="M113.67,177.93c-7.08,0-14.17-1.56-19.57-4.69h0c-5.46-3.14-8.46-7.4-8.47-12s3-8.79,8.34-11.92c10.75-6.24,28.28-6.24,39.1,0,5.45,3.15,8.46,7.41,8.46,12s-2.95,8.78-8.34,11.91S120.75,177.93,113.67,177.93Zm-.18-31.12c-6.68,0-13.35,1.48-18.42,4.42-4.68,2.72-7.26,6.28-7.26,10s2.63,7.36,7.38,10.1h0c10.21,5.9,26.76,5.9,36.91,0,4.68-2.72,7.25-6.28,7.25-10s-2.62-7.35-7.38-10.1C126.87,148.29,120.18,146.81,113.49,146.81Z"/></g><g class="cls-6"><polyline class="cls-3" points="180.59 72.29 180.49 107.58 211.21 125.31 180.59 72.29"/></g><circle class="cls-7" cx="8.97" cy="58.13" r="2.95"/><circle class="cls-7" cx="29.3" cy="58.13" r="2.95"/><circle class="cls-7" cx="69.97" cy="58.13" r="2.95"/><circle class="cls-7" cx="90.31" cy="58.13" r="2.95"/><circle class="cls-7" cx="49.64" cy="58.13" r="2.95"/><circle class="cls-7" cx="8.97" cy="78.47" r="2.95"/><circle class="cls-7" cx="29.3" cy="78.47" r="2.95"/><circle class="cls-7" cx="69.97" cy="78.47" r="2.95"/><circle class="cls-7" cx="90.31" cy="78.47" r="2.95"/><circle class="cls-7" cx="49.64" cy="78.47" r="2.95"/><circle class="cls-7" cx="8.97" cy="98.8" r="2.95"/><circle class="cls-7" cx="29.3" cy="98.8" r="2.95"/><circle class="cls-7" cx="69.97" cy="98.8" r="2.95"/><circle class="cls-7" cx="90.31" cy="98.8" r="2.95"/><circle class="cls-7" cx="49.64" cy="98.8" r="2.95"/><circle class="cls-7" cx="8.97" cy="119.14" r="2.95"/><circle class="cls-7" cx="29.3" cy="119.14" r="2.95"/><circle class="cls-7" cx="69.97" cy="119.14" r="2.95"/><circle class="cls-7" cx="90.31" cy="119.14" r="2.95"/><circle class="cls-7" cx="49.64" cy="119.14" r="2.95"/><circle class="cls-7" cx="8.97" cy="139.47" r="2.95"/><circle class="cls-7" cx="29.3" cy="139.47" r="2.95"/><circle class="cls-7" cx="69.97" cy="139.47" r="2.95"/><circle class="cls-7" cx="90.31" cy="139.47" r="2.95"/><circle class="cls-7" cx="49.64" cy="139.47" r="2.95"/></g></g></svg>