<svg id="Layer_1" data-name="Layer 1" xmlns="http://www.w3.org/2000/svg" viewBox="0 0 745 425.49"><defs><style>.cls-1{fill:#ebf2f2;}.cls-2,.cls-3{fill:none;stroke:#c4cecd;}.cls-2,.cls-3,.cls-4{stroke-miterlimit:10;stroke-width:2px;}.cls-3{stroke-dasharray:7.08 7.08;}.cls-4,.cls-6{fill:#fff;}.cls-4{stroke:#6db33f;}.cls-5{fill:#68bd45;}.cls-7{fill:#98afae;}</style></defs><title>cloud-diagram</title><rect class="cls-1" width="745" height="425.49" rx="6.21"/><line class="cls-2" x1="394.11" y1="342.8" x2="578.61" y2="342.8"/><line class="cls-2" x1="394.11" y1="73.67" x2="603.91" y2="73.67"/><line class="cls-2" x1="131.85" y1="243.28" x2="685.68" y2="243.28"/><line class="cls-2" x1="718.91" y1="243.28" x2="712.91" y2="243.28"/><line class="cls-3" x1="705.83" y1="243.28" x2="695.21" y2="243.28"/><line class="cls-2" x1="691.68" y1="243.28" x2="685.68" y2="243.28"/><line class="cls-2" x1="342.97" y1="147.56" x2="629.76" y2="147.56"/><rect class="cls-4" x="182.63" y="217.46" width="110.17" height="53.7"/><path d="M235.15,241.74l-.92-2.58h-3.55l-.91,2.58h-1.6l3.47-9.32h1.65l3.47,9.32Zm-1.32-3.89-.87-2.52c-.07-.17-.16-.44-.27-.8s-.19-.63-.23-.8a13.63,13.63,0,0,1-.5,1.71l-.84,2.41Z"/><path d="M243.94,235.26a2.71,2.71,0,0,1-.95,2.23,4.19,4.19,0,0,1-2.71.78h-1v3.47h-1.52v-9.28h2.68a4,4,0,0,1,2.6.71A2.54,2.54,0,0,1,243.94,235.26ZM239.31,237h.81a2.8,2.8,0,0,0,1.71-.41,1.72,1.72,0,0,0,.06-2.46,2.43,2.43,0,0,0-1.52-.39h-1.06Z"/><path d="M245.6,241.74v-9.28h1.51v9.28Z"/><path d="M233.19,252.3h3.42V257a9.62,9.62,0,0,1-1.61.39,10.93,10.93,0,0,1-1.67.12,4.2,4.2,0,0,1-3.25-1.25,5,5,0,0,1-1.14-3.52,4.7,4.7,0,0,1,1.29-3.51,4.85,4.85,0,0,1,3.54-1.27,7,7,0,0,1,2.76.56l-.53,1.27a5.35,5.35,0,0,0-2.26-.52,3,3,0,0,0-2.35.93,3.58,3.58,0,0,0-.87,2.55,3.8,3.8,0,0,0,.78,2.59,2.83,2.83,0,0,0,2.24.88,7.42,7.42,0,0,0,1.57-.18v-2.39h-1.92Z"/><path d="M242.87,257.34l-.3-1h0a2.75,2.75,0,0,1-1,.87,3.12,3.12,0,0,1-1.32.24,2.22,2.22,0,0,1-1.61-.56,2.1,2.1,0,0,1-.59-1.58,1.85,1.85,0,0,1,.81-1.64,4.62,4.62,0,0,1,2.46-.6l1.21,0v-.38a1.39,1.39,0,0,0-.31-1,1.27,1.27,0,0,0-1-.34,3.52,3.52,0,0,0-1,.16,8,8,0,0,0-1,.38l-.48-1.07a5,5,0,0,1,1.25-.45,5.46,5.46,0,0,1,1.28-.16,3.11,3.11,0,0,1,2,.58,2.32,2.32,0,0,1,.68,1.84v4.73Zm-2.22-1a1.88,1.88,0,0,0,1.31-.45,1.67,1.67,0,0,0,.49-1.27V254l-.9,0a3.13,3.13,0,0,0-1.54.36,1.07,1.07,0,0,0-.48,1,1,1,0,0,0,.28.73A1.22,1.22,0,0,0,240.65,256.32Z"/><path d="M248.44,256.26a3.75,3.75,0,0,0,1.09-.17v1.12a3.24,3.24,0,0,1-.63.18,4.45,4.45,0,0,1-.81.08c-1.42,0-2.12-.75-2.12-2.24v-3.78h-1v-.66l1-.55.5-1.48h.92v1.56h2v1.13h-2v3.76a1,1,0,0,0,.27.79A1,1,0,0,0,248.44,256.26Z"/><path d="M253.81,257.47a3.36,3.36,0,0,1-2.56-1,3.61,3.61,0,0,1-.93-2.63,4,4,0,0,1,.86-2.71,3,3,0,0,1,2.35-1,2.88,2.88,0,0,1,2.2.85,3.2,3.2,0,0,1,.81,2.32v.8h-4.68a2.3,2.3,0,0,0,.55,1.58,2,2,0,0,0,1.47.54,5.22,5.22,0,0,0,1.15-.11,6.33,6.33,0,0,0,1.16-.39V257a4.67,4.67,0,0,1-1.11.37A6.91,6.91,0,0,1,253.81,257.47Zm-.28-6.15a1.51,1.51,0,0,0-1.14.45,2.22,2.22,0,0,0-.51,1.32h3.19a2,2,0,0,0-.42-1.32A1.43,1.43,0,0,0,253.53,251.32Z"/><path d="M263.79,257.34l-.9-3.28c-.11-.34-.31-1.15-.6-2.42h-.06c-.24,1.15-.44,2-.58,2.44l-.94,3.26h-1.65l-2-7h1.52l.9,3.46c.2.85.34,1.58.43,2.19h0c0-.31.11-.66.2-1.06s.16-.7.22-.9l1.07-3.69h1.64l1,3.69c.07.21.14.53.24,1a7.14,7.14,0,0,1,.17,1h.05a18.88,18.88,0,0,1,.44-2.18l.91-3.46h1.5l-2,7Z"/><path d="M272.85,257.34l-.3-1h-.05a2.75,2.75,0,0,1-1,.87,3.12,3.12,0,0,1-1.32.24,2.22,2.22,0,0,1-1.61-.56,2.09,2.09,0,0,1-.58-1.58,1.84,1.84,0,0,1,.8-1.64,4.62,4.62,0,0,1,2.46-.6l1.21,0v-.38a1.39,1.39,0,0,0-.31-1,1.27,1.27,0,0,0-1-.34,3.52,3.52,0,0,0-1,.16,7.24,7.24,0,0,0-.95.38l-.49-1.07a5,5,0,0,1,1.25-.45,5.48,5.48,0,0,1,1.29-.16,3.1,3.1,0,0,1,2,.58,2.32,2.32,0,0,1,.68,1.84v4.73Zm-2.22-1a1.88,1.88,0,0,0,1.31-.45,1.67,1.67,0,0,0,.49-1.27V254l-.9,0a3.13,3.13,0,0,0-1.54.36,1.07,1.07,0,0,0-.48,1,1,1,0,0,0,.28.73A1.22,1.22,0,0,0,270.63,256.32Z"/><path d="M274.74,250.32h1.62l1.43,4a7.09,7.09,0,0,1,.43,1.6h.06a5.31,5.31,0,0,1,.2-.85c.11-.33.64-1.91,1.62-4.73h1.61l-3,7.95a2.86,2.86,0,0,1-2.73,2.19,4,4,0,0,1-1-.11v-1.18a3.57,3.57,0,0,0,.77.08A1.58,1.58,0,0,0,277.3,258l.26-.66Z"/><polyline class="cls-2" points="131.85 177.2 158.44 177.2 158.44 309.35 131.85 309.35"/><line class="cls-2" x1="342.97" y1="67.73" x2="342.97" y2="330.48"/><line class="cls-2" x1="629.76" y1="67.73" x2="629.76" y2="347.38"/><rect class="cls-4" x="282.46" y="46.81" width="121.02" height="53.7"/><path d="M332.84,60.52h2.55a4.81,4.81,0,0,1,2.55.52,1.8,1.8,0,0,1,.79,1.63,2,2,0,0,1-.38,1.25,1.71,1.71,0,0,1-1.12.62v.06a2.27,2.27,0,0,1,1.33.67,2.07,2.07,0,0,1,.42,1.36,2.2,2.2,0,0,1-.8,1.81,3.51,3.51,0,0,1-2.24.65h-3.1Zm1.4,3.54h1.35a2.38,2.38,0,0,0,1.29-.27,1.11,1.11,0,0,0,.4-.95,1,1,0,0,0-.44-.87,2.7,2.7,0,0,0-1.38-.27h-1.22Zm0,1.14v2.71h1.49a2.23,2.23,0,0,0,1.33-.33,1.25,1.25,0,0,0,.45-1.07,1.13,1.13,0,0,0-.46-1,2.46,2.46,0,0,0-1.39-.32Z"/><path d="M343.73,62.49a3.23,3.23,0,0,1,.68.06l-.13,1.28a3.08,3.08,0,0,0-.61-.07,1.76,1.76,0,0,0-1.34.54,2,2,0,0,0-.51,1.4v3.39h-1.38V62.61h1.08l.18,1.14h.07a2.57,2.57,0,0,1,.84-.92A2.07,2.07,0,0,1,343.73,62.49Z"/><path d="M348.26,69.21a3.17,3.17,0,0,1-2.36-.88,3.35,3.35,0,0,1-.85-2.43,3.68,3.68,0,0,1,.79-2.5,2.74,2.74,0,0,1,2.17-.91,2.67,2.67,0,0,1,2,.78,3,3,0,0,1,.74,2.15v.74h-4.32a2.13,2.13,0,0,0,.51,1.45,1.79,1.79,0,0,0,1.36.51A5.17,5.17,0,0,0,349.4,68a5.31,5.31,0,0,0,1.06-.36v1.12a4.53,4.53,0,0,1-1,.34A6.84,6.84,0,0,1,348.26,69.21ZM348,63.54A1.36,1.36,0,0,0,347,64a2,2,0,0,0-.47,1.22h2.94A1.8,1.8,0,0,0,349,64,1.3,1.3,0,0,0,348,63.54Z"/><path d="M356.22,69.09l-.27-.9h-.05a2.68,2.68,0,0,1-.94.8,2.89,2.89,0,0,1-1.22.22,2,2,0,0,1-1.49-.52,1.92,1.92,0,0,1-.54-1.46,1.73,1.73,0,0,1,.74-1.51,4.32,4.32,0,0,1,2.27-.55l1.12,0v-.35a1.3,1.3,0,0,0-.29-.92,1.16,1.16,0,0,0-.9-.31,3.31,3.31,0,0,0-.95.14,7.68,7.68,0,0,0-.88.35l-.45-1a4.33,4.33,0,0,1,1.16-.42,5,5,0,0,1,1.18-.15,2.82,2.82,0,0,1,1.87.54,2.13,2.13,0,0,1,.63,1.7v4.36Zm-2.05-.94a1.73,1.73,0,0,0,1.21-.42,1.51,1.51,0,0,0,.45-1.17V66L355,66a2.87,2.87,0,0,0-1.42.33,1,1,0,0,0-.44.89.89.89,0,0,0,.26.67A1.14,1.14,0,0,0,354.17,68.15Z"/><path d="M360.28,65.67l.78-1L363,62.61h1.59L362,65.39l2.78,3.7h-1.62l-2.08-2.84-.76.62v2.22H359V60h1.36v4.45l-.07,1.25Z"/><path d="M368.46,69.21a3.18,3.18,0,0,1-2.37-.88,3.39,3.39,0,0,1-.85-2.43,3.73,3.73,0,0,1,.79-2.5,2.77,2.77,0,0,1,2.18-.91,2.65,2.65,0,0,1,2,.78,3,3,0,0,1,.75,2.15v.74h-4.32a2.13,2.13,0,0,0,.51,1.45,1.76,1.76,0,0,0,1.35.51,5.1,5.1,0,0,0,1.07-.11,5.39,5.39,0,0,0,1.07-.36v1.12a4.53,4.53,0,0,1-1,.34A6.93,6.93,0,0,1,368.46,69.21Zm-.25-5.67a1.36,1.36,0,0,0-1,.41,2,2,0,0,0-.48,1.22h2.95a1.8,1.8,0,0,0-.39-1.22A1.31,1.31,0,0,0,368.21,63.54Z"/><path d="M375.65,62.49a3.27,3.27,0,0,1,.69.06l-.14,1.28a3,3,0,0,0-.61-.07,1.76,1.76,0,0,0-1.34.54,2,2,0,0,0-.51,1.4v3.39h-1.38V62.61h1.08l.18,1.14h.07a2.76,2.76,0,0,1,.84-.92A2.07,2.07,0,0,1,375.65,62.49Z"/><path d="M334.88,83.61a2.26,2.26,0,0,1-1.89-.88,4.81,4.81,0,0,1,0-5,2.28,2.28,0,0,1,1.91-.89,2.22,2.22,0,0,1,1.94,1h.07a9.72,9.72,0,0,1-.1-1.11V74.37h1.39v9.12h-1.08l-.24-.85h-.07A2.19,2.19,0,0,1,334.88,83.61Zm.37-1.12a1.5,1.5,0,0,0,1.24-.47,2.53,2.53,0,0,0,.4-1.55v-.2a3,3,0,0,0-.4-1.74,1.49,1.49,0,0,0-1.25-.51,1.26,1.26,0,0,0-1.12.59,3,3,0,0,0-.39,1.68,3,3,0,0,0,.38,1.64A1.26,1.26,0,0,0,335.25,82.49Z"/><path d="M344.05,83.49l-.28-.9h0a2.7,2.7,0,0,1-1,.8,2.83,2.83,0,0,1-1.22.22,2,2,0,0,1-1.49-.52,1.91,1.91,0,0,1-.53-1.46,1.71,1.71,0,0,1,.74-1.51,4.38,4.38,0,0,1,2.27-.56l1.12,0v-.35a1.3,1.3,0,0,0-.29-.92,1.19,1.19,0,0,0-.9-.31,3.43,3.43,0,0,0-1,.14,8.48,8.48,0,0,0-.88.35l-.44-1a4.26,4.26,0,0,1,1.15-.42,5.17,5.17,0,0,1,1.19-.15,2.79,2.79,0,0,1,1.86.54,2.13,2.13,0,0,1,.63,1.7v4.36ZM342,82.55a1.69,1.69,0,0,0,1.2-.42,1.51,1.51,0,0,0,.46-1.17V80.4l-.84,0a2.8,2.8,0,0,0-1.41.33,1,1,0,0,0-.44.89.88.88,0,0,0,.25.67A1.17,1.17,0,0,0,342,82.55Z"/><path d="M351.13,81.65a1.69,1.69,0,0,1-.69,1.45,3.29,3.29,0,0,1-2,.51,4.67,4.67,0,0,1-2.08-.39V82a5.1,5.1,0,0,0,2.12.52c.85,0,1.27-.25,1.27-.76a.55.55,0,0,0-.14-.41,1.4,1.4,0,0,0-.46-.34,7,7,0,0,0-.9-.4,4.14,4.14,0,0,1-1.51-.87,1.61,1.61,0,0,1-.4-1.12,1.49,1.49,0,0,1,.68-1.3,3.2,3.2,0,0,1,1.82-.46,5.15,5.15,0,0,1,2.16.47l-.44,1a4.79,4.79,0,0,0-1.77-.43c-.72,0-1.09.21-1.09.62a.64.64,0,0,0,.29.52,6.46,6.46,0,0,0,1.24.58,5.46,5.46,0,0,1,1.16.56,1.6,1.6,0,0,1,.54.6A1.67,1.67,0,0,1,351.13,81.65Z"/><path d="M358.14,83.49h-1.38v-4a1.74,1.74,0,0,0-.31-1.12,1.15,1.15,0,0,0-.95-.37,1.52,1.52,0,0,0-1.28.52,2.83,2.83,0,0,0-.41,1.73v3.22h-1.37V74.37h1.37v2.32a10.08,10.08,0,0,1-.07,1.19h.09a1.89,1.89,0,0,1,.78-.73,2.58,2.58,0,0,1,1.17-.26,2.09,2.09,0,0,1,2.36,2.38Z"/><path d="M363.18,76.89a2.26,2.26,0,0,1,1.89.88,4.81,4.81,0,0,1,0,5,2.48,2.48,0,0,1-3.81,0h-.09l-.26.77h-1V74.37h1.38v2.17c0,.16,0,.4,0,.72s0,.51,0,.6h.06A2.2,2.2,0,0,1,363.18,76.89ZM362.83,78a1.38,1.38,0,0,0-1.2.49,2.8,2.8,0,0,0-.38,1.64v.09a3,3,0,0,0,.38,1.71,1.37,1.37,0,0,0,1.22.53A1.23,1.23,0,0,0,364,81.9a3.06,3.06,0,0,0,.38-1.67C364.34,78.75,363.83,78,362.83,78Z"/><path d="M372.92,80.24a3.52,3.52,0,0,1-.82,2.48,2.92,2.92,0,0,1-2.26.89,3.16,3.16,0,0,1-1.61-.41A2.79,2.79,0,0,1,367.16,82a4,4,0,0,1-.38-1.78,3.51,3.51,0,0,1,.81-2.46,2.94,2.94,0,0,1,2.28-.89,2.84,2.84,0,0,1,2.23.91A3.53,3.53,0,0,1,372.92,80.24Zm-4.72,0c0,1.49.55,2.24,1.66,2.24s1.64-.75,1.64-2.24S371,78,369.85,78a1.42,1.42,0,0,0-1.26.57A2.94,2.94,0,0,0,368.2,80.24Z"/><path d="M378.38,83.49l-.28-.9h-.05a2.59,2.59,0,0,1-.94.8,2.86,2.86,0,0,1-1.22.22,2,2,0,0,1-1.49-.52,1.92,1.92,0,0,1-.54-1.46,1.72,1.72,0,0,1,.75-1.51,4.35,4.35,0,0,1,2.27-.56l1.11,0v-.35a1.26,1.26,0,0,0-.29-.92,1.16,1.16,0,0,0-.9-.31,3.31,3.31,0,0,0-.95.14,8.48,8.48,0,0,0-.88.35l-.44-1a4.26,4.26,0,0,1,1.15-.42,5.09,5.09,0,0,1,1.18-.15,2.8,2.8,0,0,1,1.87.54,2.13,2.13,0,0,1,.63,1.7v4.36Zm-2.06-.94a1.71,1.71,0,0,0,1.21-.42A1.51,1.51,0,0,0,378,81V80.4l-.83,0a2.8,2.8,0,0,0-1.41.33,1,1,0,0,0-.45.89.89.89,0,0,0,.26.67A1.14,1.14,0,0,0,376.32,82.55Z"/><path d="M384.39,76.89a3.17,3.17,0,0,1,.68.06l-.13,1.28a3.08,3.08,0,0,0-.61-.07,1.76,1.76,0,0,0-1.34.54,2,2,0,0,0-.51,1.4v3.39H381.1V77h1.08l.18,1.14h.07a2.76,2.76,0,0,1,.84-.92A2.07,2.07,0,0,1,384.39,76.89Z"/><path d="M388.28,83.61a2.26,2.26,0,0,1-1.89-.88,4.81,4.81,0,0,1,0-5,2.28,2.28,0,0,1,1.9-.89,2.24,2.24,0,0,1,1.95,1h.07a7.85,7.85,0,0,1-.1-1.11V74.37h1.38v9.12h-1.08l-.24-.85h-.06A2.19,2.19,0,0,1,388.28,83.61Zm.37-1.12a1.5,1.5,0,0,0,1.24-.47,2.53,2.53,0,0,0,.39-1.55v-.2a3,3,0,0,0-.39-1.74,1.5,1.5,0,0,0-1.25-.51,1.24,1.24,0,0,0-1.12.59,3,3,0,0,0-.39,1.68,2.91,2.91,0,0,0,.38,1.64A1.26,1.26,0,0,0,388.65,82.49Z"/><rect class="cls-4" x="428.17" y="212.3" width="110.17" height="53.7"/><rect class="cls-4" x="434.17" y="218.3" width="110.17" height="53.7"/><rect class="cls-4" x="440.17" y="224.3" width="110.17" height="53.7"/><path d="M458.67,255.06,456,247.31h-.05c.07,1.15.11,2.23.11,3.24v4.51h-1.38v-9.28h2.14l2.58,7.38h0l2.65-7.38h2.15v9.28h-1.46v-4.59q0-.69,0-1.8t.06-1.35h-.05L460,255.06Z"/><path d="M466.22,246.18a.8.8,0,0,1,.22-.61.81.81,0,0,1,.62-.22.76.76,0,0,1,.83.83.78.78,0,0,1-.22.6.8.8,0,0,1-.61.22.81.81,0,0,1-.62-.22A.78.78,0,0,1,466.22,246.18Zm1.58,8.88h-1.49v-7h1.49Z"/><path d="M472.57,255.19a3.11,3.11,0,0,1-2.43-.93,4.74,4.74,0,0,1,0-5.39,3.21,3.21,0,0,1,2.51-1,4.65,4.65,0,0,1,2,.41l-.45,1.2a4.42,4.42,0,0,0-1.57-.37c-1.21,0-1.82.81-1.82,2.42a2.83,2.83,0,0,0,.46,1.77,1.55,1.55,0,0,0,1.33.6,3.81,3.81,0,0,0,1.88-.5v1.3a2.86,2.86,0,0,1-.85.34A5,5,0,0,1,472.57,255.19Z"/><path d="M479.54,247.92a3.73,3.73,0,0,1,.74.06l-.15,1.39a2.84,2.84,0,0,0-.66-.08,1.92,1.92,0,0,0-1.45.59,2.1,2.1,0,0,0-.55,1.51v3.67H476v-7h1.17l.19,1.24h.08a2.84,2.84,0,0,1,.91-1A2.2,2.2,0,0,1,479.54,247.92Z"/><path d="M487.61,251.54a3.8,3.8,0,0,1-.88,2.68,3.14,3.14,0,0,1-2.45,1,3.41,3.41,0,0,1-1.74-.44,3,3,0,0,1-1.17-1.28,4.35,4.35,0,0,1-.4-1.93,3.83,3.83,0,0,1,.87-2.67,3.18,3.18,0,0,1,2.47-1,3.06,3.06,0,0,1,2.41,1A3.74,3.74,0,0,1,487.61,251.54Zm-5.11,0q0,2.43,1.8,2.43c1.19,0,1.78-.81,1.78-2.43s-.6-2.41-1.79-2.41a1.51,1.51,0,0,0-1.36.63A3.08,3.08,0,0,0,482.5,251.54Z"/><path d="M493.85,253.06a1.84,1.84,0,0,1-.75,1.58,3.54,3.54,0,0,1-2.14.55,5,5,0,0,1-2.26-.43v-1.28a5.59,5.59,0,0,0,2.31.57c.91,0,1.37-.28,1.37-.83a.68.68,0,0,0-.15-.45,1.84,1.84,0,0,0-.5-.37,10.15,10.15,0,0,0-1-.43,4.42,4.42,0,0,1-1.64-.94,1.72,1.72,0,0,1-.43-1.22,1.6,1.6,0,0,1,.73-1.4,3.44,3.44,0,0,1,2-.49,5.47,5.47,0,0,1,2.34.5l-.48,1.12a5.22,5.22,0,0,0-1.91-.47c-.79,0-1.18.22-1.18.67a.67.67,0,0,0,.31.56,6.88,6.88,0,0,0,1.34.63,5.62,5.62,0,0,1,1.26.62,1.78,1.78,0,0,1,.59.64A1.8,1.8,0,0,1,493.85,253.06Z"/><path d="M498.33,255.19a3.39,3.39,0,0,1-2.56-1,3.59,3.59,0,0,1-.92-2.63,4,4,0,0,1,.85-2.7,3,3,0,0,1,2.36-1,2.91,2.91,0,0,1,2.2.84,3.25,3.25,0,0,1,.8,2.32v.81h-4.68a2.3,2.3,0,0,0,.56,1.57,1.89,1.89,0,0,0,1.46.55,5.3,5.3,0,0,0,1.16-.12,6.25,6.25,0,0,0,1.15-.39v1.21a4.2,4.2,0,0,1-1.1.37A6.94,6.94,0,0,1,498.33,255.19Zm-.27-6.15a1.52,1.52,0,0,0-1.14.46,2.07,2.07,0,0,0-.51,1.31h3.18a1.91,1.91,0,0,0-.41-1.32A1.44,1.44,0,0,0,498.06,249Z"/><path d="M506.12,247.92a3.73,3.73,0,0,1,.74.06l-.14,1.39a2.84,2.84,0,0,0-.66-.08,1.91,1.91,0,0,0-1.45.59,2.1,2.1,0,0,0-.56,1.51v3.67h-1.49v-7h1.17l.2,1.24H504a2.84,2.84,0,0,1,.91-1A2.22,2.22,0,0,1,506.12,247.92Z"/><path d="M509.57,255.06l-2.66-7h1.57l1.43,4.08a8.34,8.34,0,0,1,.44,1.67h0a11.46,11.46,0,0,1,.45-1.67l1.43-4.08h1.58l-2.68,7Z"/><path d="M514.64,246.18a.77.77,0,0,1,.85-.83.76.76,0,0,1,.83.83.78.78,0,0,1-.22.6.8.8,0,0,1-.61.22.85.85,0,0,1-.63-.22A.82.82,0,0,1,514.64,246.18Zm1.59,8.88h-1.5v-7h1.5Z"/><path d="M521,255.19a3.08,3.08,0,0,1-2.42-.93,4.7,4.7,0,0,1,0-5.39,3.19,3.19,0,0,1,2.5-1,4.59,4.59,0,0,1,2,.41l-.45,1.2a4.42,4.42,0,0,0-1.56-.37c-1.21,0-1.82.81-1.82,2.42a2.9,2.9,0,0,0,.45,1.77,1.58,1.58,0,0,0,1.33.6,3.82,3.82,0,0,0,1.89-.5v1.3a3,3,0,0,1-.85.34A5.07,5.07,0,0,1,521,255.19Z"/><path d="M527.47,255.19a3.39,3.39,0,0,1-2.56-1,3.59,3.59,0,0,1-.92-2.63,4,4,0,0,1,.85-2.7,3,3,0,0,1,2.36-1,2.87,2.87,0,0,1,2.19.84,3.21,3.21,0,0,1,.81,2.32v.81h-4.68a2.3,2.3,0,0,0,.56,1.57,1.89,1.89,0,0,0,1.46.55,5.3,5.3,0,0,0,1.16-.12,6.25,6.25,0,0,0,1.15-.39v1.21a4.2,4.2,0,0,1-1.1.37A6.94,6.94,0,0,1,527.47,255.19ZM527.2,249a1.49,1.49,0,0,0-1.14.46,2.07,2.07,0,0,0-.51,1.31h3.18a1.91,1.91,0,0,0-.41-1.32A1.44,1.44,0,0,0,527.2,249Z"/><path d="M536.42,253.06a1.84,1.84,0,0,1-.75,1.58,3.58,3.58,0,0,1-2.15.55,5,5,0,0,1-2.25-.43v-1.28a5.51,5.51,0,0,0,2.3.57c.92,0,1.38-.28,1.38-.83a.68.68,0,0,0-.15-.45,1.84,1.84,0,0,0-.5-.37c-.24-.12-.56-.27-1-.43a4.57,4.57,0,0,1-1.65-.94,1.76,1.76,0,0,1-.42-1.22,1.62,1.62,0,0,1,.72-1.4,3.5,3.5,0,0,1,2-.49,5.47,5.47,0,0,1,2.34.5l-.48,1.12a5.27,5.27,0,0,0-1.91-.47c-.79,0-1.18.22-1.18.67a.67.67,0,0,0,.31.56,6.88,6.88,0,0,0,1.34.63,5.62,5.62,0,0,1,1.26.62,1.88,1.88,0,0,1,.59.64A1.93,1.93,0,0,1,536.42,253.06Z"/><rect class="cls-4" x="428.17" y="312.97" width="110.17" height="53.7"/><rect class="cls-4" x="434.17" y="318.97" width="110.17" height="53.7"/><rect class="cls-4" x="440.17" y="324.97" width="110.17" height="53.7"/><path d="M458.67,355.73,456,348h-.05c.07,1.15.11,2.23.11,3.24v4.51h-1.38v-9.28h2.14l2.58,7.38h0l2.65-7.38h2.15v9.28h-1.46v-4.59q0-.69,0-1.8t.06-1.35h-.05L460,355.73Z"/><path d="M466.22,346.85a.79.79,0,0,1,.22-.61.81.81,0,0,1,.62-.22.8.8,0,0,1,.61.22.79.79,0,0,1,.22.61.78.78,0,0,1-.22.6.8.8,0,0,1-.61.22.81.81,0,0,1-.62-.22A.78.78,0,0,1,466.22,346.85Zm1.58,8.88h-1.49v-7h1.49Z"/><path d="M472.57,355.86a3.11,3.11,0,0,1-2.43-.93,4.74,4.74,0,0,1,0-5.39,3.22,3.22,0,0,1,2.51-1,4.65,4.65,0,0,1,2,.42l-.45,1.2a4.42,4.42,0,0,0-1.57-.37c-1.21,0-1.82.8-1.82,2.42a2.83,2.83,0,0,0,.46,1.77,1.55,1.55,0,0,0,1.33.59,3.8,3.8,0,0,0,1.88-.49v1.3a2.86,2.86,0,0,1-.85.34A5.66,5.66,0,0,1,472.57,355.86Z"/><path d="M479.54,348.58a3.64,3.64,0,0,1,.74.07l-.15,1.39a2.84,2.84,0,0,0-.66-.08,1.92,1.92,0,0,0-1.45.59,2.1,2.1,0,0,0-.55,1.51v3.67H476v-7h1.17l.19,1.24h.08a2.84,2.84,0,0,1,.91-1A2.21,2.21,0,0,1,479.54,348.58Z"/><path d="M487.61,352.21a3.8,3.8,0,0,1-.88,2.68,3.14,3.14,0,0,1-2.45,1,3.32,3.32,0,0,1-1.74-.45,2.88,2.88,0,0,1-1.17-1.27,4.38,4.38,0,0,1-.4-1.93,3.83,3.83,0,0,1,.87-2.67,3.19,3.19,0,0,1,2.47-1,3.09,3.09,0,0,1,2.41,1A3.78,3.78,0,0,1,487.61,352.21Zm-5.11,0q0,2.43,1.8,2.43c1.19,0,1.78-.81,1.78-2.43s-.6-2.41-1.79-2.41a1.51,1.51,0,0,0-1.36.63A3.06,3.06,0,0,0,482.5,352.21Z"/><path d="M493.85,353.73a1.84,1.84,0,0,1-.75,1.58,3.54,3.54,0,0,1-2.14.55,5,5,0,0,1-2.26-.43v-1.28a5.59,5.59,0,0,0,2.31.57c.91,0,1.37-.28,1.37-.84a.67.67,0,0,0-.15-.44,1.84,1.84,0,0,0-.5-.37,8.12,8.12,0,0,0-1-.43,4.42,4.42,0,0,1-1.64-.94,1.72,1.72,0,0,1-.43-1.22,1.59,1.59,0,0,1,.73-1.4,3.44,3.44,0,0,1,2-.5,5.47,5.47,0,0,1,2.34.51l-.48,1.12a5.22,5.22,0,0,0-1.91-.47c-.79,0-1.18.22-1.18.67a.67.67,0,0,0,.31.56,6.88,6.88,0,0,0,1.34.63,5.62,5.62,0,0,1,1.26.62,1.78,1.78,0,0,1,.59.64A1.8,1.8,0,0,1,493.85,353.73Z"/><path d="M498.33,355.86a3.39,3.39,0,0,1-2.56-1,3.59,3.59,0,0,1-.92-2.63,4,4,0,0,1,.85-2.7,3,3,0,0,1,2.36-1,2.91,2.91,0,0,1,2.2.85,3.25,3.25,0,0,1,.8,2.32v.81h-4.68a2.3,2.3,0,0,0,.56,1.57,1.92,1.92,0,0,0,1.46.55,5.3,5.3,0,0,0,1.16-.12,6.25,6.25,0,0,0,1.15-.39v1.21a4.2,4.2,0,0,1-1.1.37A6.94,6.94,0,0,1,498.33,355.86Zm-.27-6.15a1.51,1.51,0,0,0-1.14.45,2.12,2.12,0,0,0-.51,1.32h3.18a1.91,1.91,0,0,0-.41-1.32A1.44,1.44,0,0,0,498.06,349.71Z"/><path d="M506.12,348.58a3.64,3.64,0,0,1,.74.07l-.14,1.39a2.84,2.84,0,0,0-.66-.08,1.91,1.91,0,0,0-1.45.59,2.1,2.1,0,0,0-.56,1.51v3.67h-1.49v-7h1.17l.2,1.24H504a2.84,2.84,0,0,1,.91-1A2.23,2.23,0,0,1,506.12,348.58Z"/><path d="M509.57,355.73l-2.66-7h1.57l1.43,4.08a8.34,8.34,0,0,1,.44,1.67h0a11.46,11.46,0,0,1,.45-1.67l1.43-4.08h1.58l-2.68,7Z"/><path d="M514.64,346.85a.82.82,0,0,1,.22-.61.85.85,0,0,1,.63-.22.8.8,0,0,1,.61.22.79.79,0,0,1,.22.61.78.78,0,0,1-.22.6.8.8,0,0,1-.61.22.85.85,0,0,1-.63-.22A.82.82,0,0,1,514.64,346.85Zm1.59,8.88h-1.5v-7h1.5Z"/><path d="M521,355.86a3.08,3.08,0,0,1-2.42-.93,4.7,4.7,0,0,1,0-5.39,3.2,3.2,0,0,1,2.5-1,4.59,4.59,0,0,1,2,.42l-.45,1.2a4.42,4.42,0,0,0-1.56-.37c-1.21,0-1.82.8-1.82,2.42a2.9,2.9,0,0,0,.45,1.77,1.57,1.57,0,0,0,1.33.59,3.81,3.81,0,0,0,1.89-.49v1.3a3,3,0,0,1-.85.34A5.77,5.77,0,0,1,521,355.86Z"/><path d="M527.47,355.86a3.39,3.39,0,0,1-2.56-1,3.59,3.59,0,0,1-.92-2.63,4,4,0,0,1,.85-2.7,3,3,0,0,1,2.36-1,2.88,2.88,0,0,1,2.19.85,3.21,3.21,0,0,1,.81,2.32v.81h-4.68a2.3,2.3,0,0,0,.56,1.57,1.92,1.92,0,0,0,1.46.55,5.3,5.3,0,0,0,1.16-.12,6.25,6.25,0,0,0,1.15-.39v1.21a4.2,4.2,0,0,1-1.1.37A6.94,6.94,0,0,1,527.47,355.86Zm-.27-6.15a1.48,1.48,0,0,0-1.14.45,2.12,2.12,0,0,0-.51,1.32h3.18a1.91,1.91,0,0,0-.41-1.32A1.44,1.44,0,0,0,527.2,349.71Z"/><path d="M536.42,353.73a1.84,1.84,0,0,1-.75,1.58,3.58,3.58,0,0,1-2.15.55,5,5,0,0,1-2.25-.43v-1.28a5.51,5.51,0,0,0,2.3.57q1.38,0,1.38-.84a.67.67,0,0,0-.15-.44,1.84,1.84,0,0,0-.5-.37,8.93,8.93,0,0,0-1-.43,4.57,4.57,0,0,1-1.65-.94,1.76,1.76,0,0,1-.42-1.22,1.6,1.6,0,0,1,.72-1.4,3.5,3.5,0,0,1,2-.5,5.47,5.47,0,0,1,2.34.51l-.48,1.12a5.27,5.27,0,0,0-1.91-.47c-.79,0-1.18.22-1.18.67a.67.67,0,0,0,.31.56,6.88,6.88,0,0,0,1.34.63,5.62,5.62,0,0,1,1.26.62,1.88,1.88,0,0,1,.59.64A1.93,1.93,0,0,1,536.42,353.73Z"/><rect class="cls-4" x="428.17" y="116.71" width="110.17" height="53.7"/><rect class="cls-4" x="434.17" y="122.71" width="110.17" height="53.7"/><rect class="cls-4" x="440.17" y="128.71" width="110.17" height="53.7"/><path d="M458.67,159.47,456,151.72h-.05c.07,1.15.11,2.23.11,3.24v4.51h-1.38v-9.28h2.14l2.58,7.38h0l2.65-7.38h2.15v9.28h-1.46v-4.59q0-.69,0-1.8t.06-1.35h-.05L460,159.47Z"/><path d="M466.22,150.59a.83.83,0,0,1,.22-.62.85.85,0,0,1,.62-.21.84.84,0,0,1,.61.21.83.83,0,0,1,.22.62.84.84,0,1,1-1.67,0Zm1.58,8.88h-1.49v-7h1.49Z"/><path d="M472.57,159.6a3.11,3.11,0,0,1-2.43-.93,4.74,4.74,0,0,1,0-5.39,3.22,3.22,0,0,1,2.51-1,4.65,4.65,0,0,1,2,.42l-.45,1.2a4.42,4.42,0,0,0-1.57-.37c-1.21,0-1.82.8-1.82,2.42a2.85,2.85,0,0,0,.46,1.77,1.55,1.55,0,0,0,1.33.59,3.8,3.8,0,0,0,1.88-.49v1.3a2.86,2.86,0,0,1-.85.34A5.66,5.66,0,0,1,472.57,159.6Z"/><path d="M479.54,152.32a3,3,0,0,1,.74.07l-.15,1.39a2.84,2.84,0,0,0-.66-.08,2,2,0,0,0-1.45.58,2.12,2.12,0,0,0-.55,1.52v3.67H476v-7h1.17l.19,1.24h.08a2.84,2.84,0,0,1,.91-1A2.21,2.21,0,0,1,479.54,152.32Z"/><path d="M487.61,156a3.82,3.82,0,0,1-.88,2.68,3.14,3.14,0,0,1-2.45,1,3.32,3.32,0,0,1-1.74-.45,2.88,2.88,0,0,1-1.17-1.27A4.38,4.38,0,0,1,481,156a3.83,3.83,0,0,1,.87-2.67,3.19,3.19,0,0,1,2.47-1,3.09,3.09,0,0,1,2.41,1A3.78,3.78,0,0,1,487.61,156Zm-5.11,0q0,2.43,1.8,2.43c1.19,0,1.78-.81,1.78-2.43s-.6-2.41-1.79-2.41a1.53,1.53,0,0,0-1.36.62A3.12,3.12,0,0,0,482.5,156Z"/><path d="M493.85,157.47a1.84,1.84,0,0,1-.75,1.58,3.61,3.61,0,0,1-2.14.55,5,5,0,0,1-2.26-.43v-1.29a5.61,5.61,0,0,0,2.31.58c.91,0,1.37-.28,1.37-.84a.67.67,0,0,0-.15-.44,1.84,1.84,0,0,0-.5-.37,8.12,8.12,0,0,0-1-.43,4.42,4.42,0,0,1-1.64-.94,1.72,1.72,0,0,1-.43-1.22,1.59,1.59,0,0,1,.73-1.4,3.44,3.44,0,0,1,2-.5,5.62,5.62,0,0,1,2.34.5l-.48,1.13a5.22,5.22,0,0,0-1.91-.47c-.79,0-1.18.22-1.18.67a.67.67,0,0,0,.31.56,6.88,6.88,0,0,0,1.34.63,6.17,6.17,0,0,1,1.26.61,1.89,1.89,0,0,1,.59.65A1.8,1.8,0,0,1,493.85,157.47Z"/><path d="M498.33,159.6a3.39,3.39,0,0,1-2.56-1,3.59,3.59,0,0,1-.92-2.63,4,4,0,0,1,.85-2.7,3,3,0,0,1,2.36-1,2.88,2.88,0,0,1,2.2.85,3.24,3.24,0,0,1,.8,2.32v.81h-4.68a2.3,2.3,0,0,0,.56,1.57,1.92,1.92,0,0,0,1.46.55,5.3,5.3,0,0,0,1.16-.12,6.25,6.25,0,0,0,1.15-.39v1.21a4.6,4.6,0,0,1-1.1.37A6.94,6.94,0,0,1,498.33,159.6Zm-.27-6.15a1.51,1.51,0,0,0-1.14.45,2.1,2.1,0,0,0-.51,1.32h3.18a1.91,1.91,0,0,0-.41-1.32A1.44,1.44,0,0,0,498.06,153.45Z"/><path d="M506.12,152.32a3,3,0,0,1,.74.07l-.14,1.39a2.84,2.84,0,0,0-.66-.08,1.94,1.94,0,0,0-1.45.58,2.13,2.13,0,0,0-.56,1.52v3.67h-1.49v-7h1.17l.2,1.24H504a2.84,2.84,0,0,1,.91-1A2.23,2.23,0,0,1,506.12,152.32Z"/><path d="M509.57,159.47l-2.66-7h1.57l1.43,4.08a8.45,8.45,0,0,1,.44,1.66h0a11.8,11.8,0,0,1,.45-1.66l1.43-4.08h1.58l-2.68,7Z"/><path d="M514.64,150.59a.87.87,0,0,1,.22-.62.89.89,0,0,1,.63-.21.84.84,0,0,1,.61.21.83.83,0,0,1,.22.62.76.76,0,0,1-.83.82.76.76,0,0,1-.85-.82Zm1.59,8.88h-1.5v-7h1.5Z"/><path d="M521,159.6a3.08,3.08,0,0,1-2.42-.93,4.7,4.7,0,0,1,0-5.39,3.2,3.2,0,0,1,2.5-1,4.59,4.59,0,0,1,2,.42l-.45,1.2a4.42,4.42,0,0,0-1.56-.37c-1.21,0-1.82.8-1.82,2.42a2.92,2.92,0,0,0,.45,1.77,1.57,1.57,0,0,0,1.33.59,3.81,3.81,0,0,0,1.89-.49v1.3a3,3,0,0,1-.85.34A5.77,5.77,0,0,1,521,159.6Z"/><path d="M527.47,159.6a3.39,3.39,0,0,1-2.56-1A3.59,3.59,0,0,1,524,156a4,4,0,0,1,.85-2.7,3,3,0,0,1,2.36-1,2.84,2.84,0,0,1,2.19.85,3.2,3.2,0,0,1,.81,2.32v.81h-4.68a2.3,2.3,0,0,0,.56,1.57,1.92,1.92,0,0,0,1.46.55,5.3,5.3,0,0,0,1.16-.12,6.25,6.25,0,0,0,1.15-.39v1.21a4.6,4.6,0,0,1-1.1.37A6.94,6.94,0,0,1,527.47,159.6Zm-.27-6.15a1.48,1.48,0,0,0-1.14.45,2.1,2.1,0,0,0-.51,1.32h3.18a1.91,1.91,0,0,0-.41-1.32A1.44,1.44,0,0,0,527.2,153.45Z"/><path d="M536.42,157.47a1.84,1.84,0,0,1-.75,1.58,3.65,3.65,0,0,1-2.15.55,5,5,0,0,1-2.25-.43v-1.29a5.53,5.53,0,0,0,2.3.58q1.38,0,1.38-.84a.67.67,0,0,0-.15-.44,1.84,1.84,0,0,0-.5-.37,8.93,8.93,0,0,0-1-.43,4.57,4.57,0,0,1-1.65-.94,1.76,1.76,0,0,1-.42-1.22,1.6,1.6,0,0,1,.72-1.4,3.5,3.5,0,0,1,2-.5,5.62,5.62,0,0,1,2.34.5l-.48,1.13a5.27,5.27,0,0,0-1.91-.47c-.79,0-1.18.22-1.18.67a.67.67,0,0,0,.31.56,6.88,6.88,0,0,0,1.34.63,6.17,6.17,0,0,1,1.26.61,2,2,0,0,1,.59.65A1.93,1.93,0,0,1,536.42,157.47Z"/><rect class="cls-4" x="574.67" y="46.81" width="120.13" height="53.7"/><path d="M631.83,66.76a2.17,2.17,0,0,1-.83,1.8,3.62,3.62,0,0,1-2.28.65,5.46,5.46,0,0,1-2.38-.45V67.43a6.37,6.37,0,0,0,1.25.44,5.57,5.57,0,0,0,1.23.15,1.94,1.94,0,0,0,1.22-.31,1,1,0,0,0,.4-.85,1.09,1.09,0,0,0-.36-.82,6,6,0,0,0-1.5-.79,3.91,3.91,0,0,1-1.66-1.08,2.32,2.32,0,0,1-.48-1.47,2,2,0,0,1,.77-1.68,3.12,3.12,0,0,1,2-.62,6,6,0,0,1,2.45.54l-.45,1.14a5.34,5.34,0,0,0-2-.48,1.56,1.56,0,0,0-1,.3,1,1,0,0,0-.35.78,1.15,1.15,0,0,0,.14.57,1.46,1.46,0,0,0,.47.45,7.46,7.46,0,0,0,1.16.56A6.25,6.25,0,0,1,631,65a2.1,2.1,0,0,1,.64.77A2.23,2.23,0,0,1,631.83,66.76Z"/><path d="M636,69.21a3.14,3.14,0,0,1-2.36-.88,3.35,3.35,0,0,1-.86-2.43,3.73,3.73,0,0,1,.79-2.5,2.77,2.77,0,0,1,2.18-.91,2.69,2.69,0,0,1,2,.78,3,3,0,0,1,.74,2.15v.74h-4.32a2.13,2.13,0,0,0,.51,1.45,1.76,1.76,0,0,0,1.35.51,5.1,5.1,0,0,0,1.07-.11,5.39,5.39,0,0,0,1.07-.36v1.12a4.53,4.53,0,0,1-1,.34A6.93,6.93,0,0,1,636,69.21Zm-.25-5.67a1.36,1.36,0,0,0-1,.41,2,2,0,0,0-.48,1.22h2.95a1.8,1.8,0,0,0-.39-1.22A1.3,1.3,0,0,0,635.74,63.54Z"/><path d="M643.18,62.49a3.27,3.27,0,0,1,.69.06l-.14,1.28a3,3,0,0,0-.61-.07,1.78,1.78,0,0,0-1.34.54,2,2,0,0,0-.51,1.4v3.39h-1.38V62.61H641l.18,1.14h.07a2.69,2.69,0,0,1,.85-.92A2,2,0,0,1,643.18,62.49Z"/><path d="M646.36,69.09l-2.46-6.48h1.46l1.31,3.77a7.51,7.51,0,0,1,.42,1.53h0a10.68,10.68,0,0,1,.41-1.53l1.32-3.77h1.47l-2.48,6.48Z"/><path d="M651.05,60.89a.7.7,0,0,1,.78-.76.69.69,0,0,1,.76.76.74.74,0,0,1-.2.56.77.77,0,0,1-.56.2.8.8,0,0,1-.58-.2A.78.78,0,0,1,651.05,60.89Zm1.46,8.2h-1.38V62.61h1.38Z"/><path d="M656.91,69.21a2.86,2.86,0,0,1-2.24-.86,3.57,3.57,0,0,1-.76-2.46,3.65,3.65,0,0,1,.8-2.52,3,3,0,0,1,2.31-.88,4.43,4.43,0,0,1,1.85.38L658.45,64a4.07,4.07,0,0,0-1.44-.34c-1.12,0-1.68.75-1.68,2.23a2.66,2.66,0,0,0,.42,1.64,1.42,1.42,0,0,0,1.22.55,3.43,3.43,0,0,0,1.74-.46v1.2a2.4,2.4,0,0,1-.78.31A4.29,4.29,0,0,1,656.91,69.21Z"/><path d="M662.89,69.21a3.18,3.18,0,0,1-2.37-.88,3.35,3.35,0,0,1-.85-2.43,3.68,3.68,0,0,1,.79-2.5,2.75,2.75,0,0,1,2.17-.91,2.66,2.66,0,0,1,2,.78,3,3,0,0,1,.75,2.15v.74h-4.32a2.13,2.13,0,0,0,.51,1.45,1.76,1.76,0,0,0,1.35.51A5.17,5.17,0,0,0,664,68a5.11,5.11,0,0,0,1.06-.36v1.12a4.22,4.22,0,0,1-1,.34A6.72,6.72,0,0,1,662.89,69.21Zm-.26-5.67a1.39,1.39,0,0,0-1,.41,2,2,0,0,0-.47,1.22h2.94a1.75,1.75,0,0,0-.38-1.22A1.32,1.32,0,0,0,662.63,63.54Z"/><path d="M630,76.89a3.1,3.1,0,0,1,.68.06l-.13,1.28a3.08,3.08,0,0,0-.61-.07,1.76,1.76,0,0,0-1.34.54,2,2,0,0,0-.51,1.4v3.39h-1.38V77h1.08l.18,1.14h.07a2.76,2.76,0,0,1,.84-.92A2.07,2.07,0,0,1,630,76.89Z"/><path d="M634.57,83.61a3.18,3.18,0,0,1-2.37-.88,3.35,3.35,0,0,1-.85-2.43,3.68,3.68,0,0,1,.79-2.5,2.75,2.75,0,0,1,2.17-.91,2.66,2.66,0,0,1,2,.78,3,3,0,0,1,.75,2.15v.74h-4.32a2.13,2.13,0,0,0,.51,1.45,1.76,1.76,0,0,0,1.35.51,5.17,5.17,0,0,0,1.07-.11,5.31,5.31,0,0,0,1.06-.36v1.12a4.22,4.22,0,0,1-1,.34A6.72,6.72,0,0,1,634.57,83.61Zm-.26-5.67a1.39,1.39,0,0,0-1,.41,2,2,0,0,0-.47,1.21h2.94a1.79,1.79,0,0,0-.38-1.21A1.32,1.32,0,0,0,634.31,77.94Z"/><path d="M643.94,77v.76l-1.1.2a2,2,0,0,1,.25.51,2.13,2.13,0,0,1,.1.63,1.92,1.92,0,0,1-.69,1.57,2.87,2.87,0,0,1-1.91.58,3.15,3.15,0,0,1-.56-.05.79.79,0,0,0-.45.65.36.36,0,0,0,.21.33,1.91,1.91,0,0,0,.77.11h1.13a2.49,2.49,0,0,1,1.63.46,1.6,1.6,0,0,1,.55,1.32,1.92,1.92,0,0,1-.91,1.7,4.84,4.84,0,0,1-2.62.59,3.55,3.55,0,0,1-2-.47,1.49,1.49,0,0,1-.7-1.33,1.46,1.46,0,0,1,.38-1,2,2,0,0,1,1.06-.56,1.06,1.06,0,0,1-.46-.38,1,1,0,0,1-.18-.55.92.92,0,0,1,.21-.61,2.3,2.3,0,0,1,.61-.5,1.81,1.81,0,0,1-.82-.71,2,2,0,0,1-.31-1.14,2.07,2.07,0,0,1,.66-1.64,2.86,2.86,0,0,1,1.9-.58c.18,0,.37,0,.58,0a3.88,3.88,0,0,1,.45.08Zm-5.09,7.49a.76.76,0,0,0,.4.68,2.23,2.23,0,0,0,1.13.24,3.38,3.38,0,0,0,1.68-.32,1,1,0,0,0,.55-.85.64.64,0,0,0-.3-.6,2.46,2.46,0,0,0-1.13-.18h-1a1.44,1.44,0,0,0-.94.28A.9.9,0,0,0,638.85,84.5Zm.59-5.39a1.32,1.32,0,0,0,.32.94,1.22,1.22,0,0,0,.9.32c.79,0,1.19-.42,1.19-1.27a1.49,1.49,0,0,0-.29-1,1.13,1.13,0,0,0-.9-.34,1.16,1.16,0,0,0-.91.34A1.43,1.43,0,0,0,639.44,79.11Z"/><path d="M644.88,75.29a.77.77,0,0,1,.2-.56.77.77,0,0,1,.58-.2.7.7,0,0,1,.77.76.78.78,0,0,1-.2.56.81.81,0,0,1-.57.2.82.82,0,0,1-.58-.2A.78.78,0,0,1,644.88,75.29Zm1.46,8.2H645V77h1.38Z"/><path d="M652.48,81.65a1.69,1.69,0,0,1-.69,1.45,3.29,3.29,0,0,1-2,.51,4.73,4.73,0,0,1-2.08-.39V82a5.11,5.11,0,0,0,2.13.52c.85,0,1.27-.25,1.27-.76a.6.6,0,0,0-.14-.41,1.52,1.52,0,0,0-.46-.34,8.49,8.49,0,0,0-.9-.4,4,4,0,0,1-1.51-.87,1.57,1.57,0,0,1-.4-1.12,1.48,1.48,0,0,1,.67-1.3,3.26,3.26,0,0,1,1.83-.46,5.15,5.15,0,0,1,2.16.47l-.45,1a4.75,4.75,0,0,0-1.76-.43c-.73,0-1.09.21-1.09.62a.63.63,0,0,0,.28.52,6.79,6.79,0,0,0,1.24.58,5.35,5.35,0,0,1,1.17.56,1.57,1.57,0,0,1,.71,1.41Z"/><path d="M656.21,82.49a3.46,3.46,0,0,0,1-.15v1a2.24,2.24,0,0,1-.58.17,3.74,3.74,0,0,1-.75.07c-1.31,0-2-.69-2-2.06v-3.5H653v-.61l1-.5.46-1.37h.85V77h1.85v1H655.3v3.47a1,1,0,0,0,.25.74A.92.92,0,0,0,656.21,82.49Z"/><path d="M661.62,76.89a3.23,3.23,0,0,1,.68.06l-.13,1.28a3.08,3.08,0,0,0-.61-.07,1.76,1.76,0,0,0-1.34.54,2,2,0,0,0-.51,1.4v3.39h-1.38V77h1.08l.18,1.14h.07a2.57,2.57,0,0,1,.84-.92A2,2,0,0,1,661.62,76.89Z"/><path d="M662.34,77h1.5l1.32,3.67a6.65,6.65,0,0,1,.39,1.48h.05a6.43,6.43,0,0,1,.2-.78c.09-.31.58-1.76,1.48-4.37h1.49L666,84.35a2.62,2.62,0,0,1-2.52,2,3.8,3.8,0,0,1-.89-.1V85.18a3,3,0,0,0,.71.07,1.45,1.45,0,0,0,1.4-1.15l.24-.61Z"/><rect class="cls-4" x="574.67" y="315.95" width="120.13" height="53.7"/><path d="M628,333.86a4.25,4.25,0,0,1-1.18,3.24,4.7,4.7,0,0,1-3.39,1.12H621v-8.56h2.65a4.33,4.33,0,0,1,3.18,1.1A4.11,4.11,0,0,1,628,333.86Zm-1.48,0c0-2-1-3.07-2.87-3.07h-1.22v6.22h1Q626.5,337.05,626.5,333.9Z"/><path d="M629.41,330a.7.7,0,0,1,.78-.77.76.76,0,0,1,.57.2.88.88,0,0,1,0,1.12.81.81,0,0,1-.57.2.82.82,0,0,1-.58-.2A.77.77,0,0,1,629.41,330Zm1.46,8.19h-1.38v-6.48h1.38Z"/><path d="M637,336.38a1.68,1.68,0,0,1-.69,1.45,3.29,3.29,0,0,1-2,.51,4.73,4.73,0,0,1-2.08-.39v-1.19a5.13,5.13,0,0,0,2.13.53c.85,0,1.27-.26,1.27-.77a.62.62,0,0,0-.14-.41,1.7,1.7,0,0,0-.46-.34,8.49,8.49,0,0,0-.9-.4,4,4,0,0,1-1.51-.87,1.57,1.57,0,0,1-.4-1.12,1.45,1.45,0,0,1,.67-1.29,3.18,3.18,0,0,1,1.83-.46,5.14,5.14,0,0,1,2.16.46l-.45,1a4.79,4.79,0,0,0-1.76-.44c-.73,0-1.09.21-1.09.62a.62.62,0,0,0,.28.52,6.79,6.79,0,0,0,1.24.58,5.77,5.77,0,0,1,1.17.57,1.76,1.76,0,0,1,.54.59A1.7,1.7,0,0,1,637,336.38Z"/><path d="M640.74,337.23a3.48,3.48,0,0,0,1-.16v1a2.89,2.89,0,0,1-.59.16,3.57,3.57,0,0,1-.74.07c-1.31,0-2-.69-2-2.06v-3.49h-.88v-.61l.94-.51.47-1.37h.85v1.44h1.85v1.05h-1.85v3.46a1,1,0,0,0,.25.74A.92.92,0,0,0,640.74,337.23Z"/><path d="M646.15,331.63a4.21,4.21,0,0,1,.68.05L646.7,333a2.48,2.48,0,0,0-.61-.07,1.76,1.76,0,0,0-1.34.54,2,2,0,0,0-.51,1.4v3.38h-1.38v-6.48h1.08l.18,1.15h.07A2.41,2.41,0,0,1,645,332,2,2,0,0,1,646.15,331.63Z"/><path d="M647.77,330a.7.7,0,0,1,.78-.77.76.76,0,0,1,.57.2.88.88,0,0,1,0,1.12.81.81,0,0,1-.57.2.82.82,0,0,1-.58-.2A.77.77,0,0,1,647.77,330Zm1.46,8.19h-1.38v-6.48h1.38Z"/><path d="M654.33,331.63a2.26,2.26,0,0,1,1.89.87,4.81,4.81,0,0,1,0,4.95,2.5,2.5,0,0,1-3.82,0h-.09l-.25.76h-1v-9.11h1.37v2.16c0,.16,0,.4,0,.72s0,.52,0,.6h0A2.21,2.21,0,0,1,654.33,331.63Zm-.36,1.12a1.41,1.41,0,0,0-1.2.49,2.9,2.9,0,0,0-.38,1.64V335a3.06,3.06,0,0,0,.38,1.72,1.4,1.4,0,0,0,1.22.53,1.25,1.25,0,0,0,1.11-.58,3,3,0,0,0,.38-1.68C655.48,333.49,655,332.75,654,332.75Z"/><path d="M662.89,338.22l-.2-.85h-.07a1.91,1.91,0,0,1-.82.71,2.73,2.73,0,0,1-1.21.26,2.32,2.32,0,0,1-1.75-.59,2.4,2.4,0,0,1-.58-1.77v-4.24h1.39v4a1.78,1.78,0,0,0,.3,1.12,1.19,1.19,0,0,0,1,.37,1.54,1.54,0,0,0,1.27-.52,2.89,2.89,0,0,0,.41-1.74v-3.23H664v6.48Z"/><path d="M668.17,337.23a3.48,3.48,0,0,0,1-.16v1a2.77,2.77,0,0,1-.58.16,3.74,3.74,0,0,1-.75.07c-1.31,0-2-.69-2-2.06v-3.49H665v-.61l1-.51.46-1.37h.85v1.44h1.85v1.05h-1.85v3.46a1,1,0,0,0,.25.74A.92.92,0,0,0,668.17,337.23Z"/><path d="M673.12,338.34a3.1,3.1,0,0,1-2.36-.88,3.35,3.35,0,0,1-.86-2.43,3.73,3.73,0,0,1,.79-2.5,2.76,2.76,0,0,1,2.18-.9,2.68,2.68,0,0,1,2,.77,3,3,0,0,1,.75,2.15v.74h-4.32a2.12,2.12,0,0,0,.51,1.45,1.76,1.76,0,0,0,1.35.51,5.1,5.1,0,0,0,1.07-.11,5.39,5.39,0,0,0,1.07-.36v1.12a4.53,4.53,0,0,1-1,.34A6,6,0,0,1,673.12,338.34Zm-.25-5.67a1.39,1.39,0,0,0-1,.41,2,2,0,0,0-.48,1.22h2.95a1.82,1.82,0,0,0-.39-1.22A1.35,1.35,0,0,0,672.87,332.67Z"/><path d="M679.21,338.34a2.24,2.24,0,0,1-1.89-.88,3.9,3.9,0,0,1-.68-2.47,4,4,0,0,1,.69-2.48,2.49,2.49,0,0,1,3.85.06h.07a7.74,7.74,0,0,1-.1-1.1v-2.36h1.38v9.11h-1.08l-.24-.85h-.06A2.19,2.19,0,0,1,679.21,338.34Zm.37-1.11a1.48,1.48,0,0,0,1.23-.48,2.46,2.46,0,0,0,.4-1.55V335a2.86,2.86,0,0,0-.4-1.74,1.45,1.45,0,0,0-1.24-.52,1.27,1.27,0,0,0-1.12.59,3,3,0,0,0-.4,1.68,2.88,2.88,0,0,0,.39,1.64A1.27,1.27,0,0,0,679.58,337.23Z"/><path d="M623.28,351.63a3.55,3.55,0,0,0,1-.16v1a2.89,2.89,0,0,1-.59.16,3.67,3.67,0,0,1-.75.07c-1.3,0-2-.69-2-2.06v-3.49h-.89v-.61l.95-.51.47-1.37h.85v1.44h1.84v1.05h-1.84v3.46a1,1,0,0,0,.25.74A.88.88,0,0,0,623.28,351.63Z"/><path d="M628.69,346a3.27,3.27,0,0,1,.69.06l-.14,1.29a2.43,2.43,0,0,0-.61-.07,1.78,1.78,0,0,0-1.34.54,1.93,1.93,0,0,0-.51,1.4v3.38H625.4v-6.48h1.08l.18,1.14h.07a2.69,2.69,0,0,1,.85-.92A2,2,0,0,1,628.69,346Z"/><path d="M634.45,352.62l-.27-.9h0a2.83,2.83,0,0,1-.94.81,3.07,3.07,0,0,1-1.22.21,2,2,0,0,1-1.49-.52,1.91,1.91,0,0,1-.54-1.45,1.72,1.72,0,0,1,.75-1.52,4.25,4.25,0,0,1,2.26-.55l1.12,0v-.34a1.27,1.27,0,0,0-.29-.93,1.16,1.16,0,0,0-.9-.31,3,3,0,0,0-1,.15,6.17,6.17,0,0,0-.88.34l-.45-1a4.45,4.45,0,0,1,1.16-.42,5.09,5.09,0,0,1,1.18-.15,2.8,2.8,0,0,1,1.87.54,2.13,2.13,0,0,1,.63,1.7v4.36Zm-2.05-.93a1.73,1.73,0,0,0,1.21-.42,1.53,1.53,0,0,0,.45-1.18v-.56l-.83,0a3,3,0,0,0-1.42.33,1,1,0,0,0-.44.89.87.87,0,0,0,.26.67A1.09,1.09,0,0,0,632.4,351.69Z"/><path d="M639.79,352.74a2.83,2.83,0,0,1-2.23-.86,3.57,3.57,0,0,1-.77-2.46,3.65,3.65,0,0,1,.8-2.52,3,3,0,0,1,2.31-.88,4.25,4.25,0,0,1,1.85.39l-.42,1.1a4.31,4.31,0,0,0-1.44-.34c-1.12,0-1.68.75-1.68,2.24a2.65,2.65,0,0,0,.42,1.63,1.44,1.44,0,0,0,1.23.55,3.49,3.49,0,0,0,1.74-.46v1.21a3.17,3.17,0,0,1-.79.31A5,5,0,0,1,639.79,352.74Z"/><path d="M642.86,344.43a.7.7,0,0,1,.78-.77.73.73,0,0,1,.56.2.85.85,0,0,1,0,1.12.77.77,0,0,1-.56.2.82.82,0,0,1-.58-.2A.77.77,0,0,1,642.86,344.43Zm1.46,8.19h-1.38v-6.48h1.38Z"/><path d="M651.81,352.62h-1.39v-4a1.76,1.76,0,0,0-.3-1.12,1.15,1.15,0,0,0-1-.37,1.5,1.5,0,0,0-1.28.52,2.82,2.82,0,0,0-.41,1.72v3.23h-1.37v-6.48h1.07l.2.85h.07a1.81,1.81,0,0,1,.83-.71,2.78,2.78,0,0,1,1.2-.26,2.09,2.09,0,0,1,2.33,2.38Z"/><path d="M659,346.14v.76l-1.11.2a2,2,0,0,1,.25.51,1.89,1.89,0,0,1,.1.63,2,2,0,0,1-.69,1.58,2.91,2.91,0,0,1-1.9.57,3.27,3.27,0,0,1-.57-.05.79.79,0,0,0-.44.65.35.35,0,0,0,.2.33,1.75,1.75,0,0,0,.77.11h1.13a2.53,2.53,0,0,1,1.63.46,1.6,1.6,0,0,1,.56,1.32,1.94,1.94,0,0,1-.91,1.7,4.78,4.78,0,0,1-2.63.6,3.66,3.66,0,0,1-2-.47,1.54,1.54,0,0,1-.7-1.34,1.41,1.41,0,0,1,.38-1,2,2,0,0,1,1.06-.57,1.05,1.05,0,0,1-.46-.38,1,1,0,0,1-.17-.55.92.92,0,0,1,.2-.61,2.51,2.51,0,0,1,.61-.5,1.79,1.79,0,0,1-.82-.7,2.08,2.08,0,0,1-.31-1.15,2,2,0,0,1,.66-1.63,2.81,2.81,0,0,1,1.9-.59c.18,0,.38,0,.58,0a3.88,3.88,0,0,1,.45.08Zm-5.1,7.49a.76.76,0,0,0,.41.69,2.17,2.17,0,0,0,1.12.24,3.37,3.37,0,0,0,1.68-.33,1,1,0,0,0,.55-.85.64.64,0,0,0-.3-.6,2.41,2.41,0,0,0-1.12-.18h-1a1.46,1.46,0,0,0-.94.28A.9.9,0,0,0,653.92,353.63Zm.6-5.39a1.3,1.3,0,0,0,.31.94,1.19,1.19,0,0,0,.9.33c.8,0,1.19-.43,1.19-1.28a1.45,1.45,0,0,0-.29-1,1.13,1.13,0,0,0-.9-.34,1.16,1.16,0,0,0-.91.34A1.46,1.46,0,0,0,654.52,348.24Z"/><path class="cls-5" d="M317.51,71.33a37.83,37.83,0,0,0-1.59-6.12,9.43,9.43,0,0,1-1,1.85,9.77,9.77,0,0,0-15.39,1.79,6.42,6.42,0,0,1,4,1.68,6.7,6.7,0,0,0-3.77-1.11,6.91,6.91,0,1,0,0,13.82h15.94a6.1,6.1,0,0,0,1.86-11.91Zm-14.89,9.78a.84.84,0,0,1-1.3-1.06.84.84,0,0,1,1.18-.12A.85.85,0,0,1,302.62,81.11Zm13.26-2.93c-2.41,3.21-7.56,2.13-10.86,2.28,0,0-.59,0-1.18.13l.51-.19a36.42,36.42,0,0,0,4.82-1.69c2.65-1.35,5.29-4.31,5.82-7.38-1,3-4.07,5.5-6.86,6.53a47.71,47.71,0,0,1-5.37,1.39l-.14-.08c-2.34-1.14-2.41-6.23,1.85-7.87,1.87-.72,3.66-.32,5.68-.8a8.85,8.85,0,0,0,5.67-4.24C317,69.63,318.33,74.91,315.88,78.18Z"/><path class="cls-5" d="M614.14,70.21a37.71,37.71,0,0,0-1.58-6.12,9.35,9.35,0,0,1-1,1.84,9.77,9.77,0,0,0-15.39,1.79,6.5,6.5,0,0,1,4,1.68,6.78,6.78,0,0,0-3.77-1.11,6.91,6.91,0,1,0,0,13.82h15.94a6.09,6.09,0,0,0,1.85-11.9ZM599.26,80a.84.84,0,0,1-1.18.12.83.83,0,0,1-.12-1.17.82.82,0,0,1,1.17-.12A.83.83,0,0,1,599.26,80Zm13.25-2.93c-2.41,3.22-7.56,2.13-10.86,2.29a11.55,11.55,0,0,0-1.17.13,4.83,4.83,0,0,1,.51-.19,40.22,40.22,0,0,0,4.82-1.69c2.65-1.36,5.28-4.31,5.82-7.38-1,3-4.08,5.49-6.87,6.52a45.52,45.52,0,0,1-5.36,1.39l-.14-.07c-2.35-1.14-2.42-6.23,1.85-7.87,1.87-.72,3.66-.32,5.68-.81a8.85,8.85,0,0,0,5.67-4.24C613.6,68.51,615,73.79,612.51,77.05Z"/><path class="cls-5" d="M609.48,339.37a36.9,36.9,0,0,0-1.59-6.13,8.28,8.28,0,0,1-1,1.85,9.76,9.76,0,0,0-15.38,1.79,6.5,6.5,0,0,1,4,1.68,6.73,6.73,0,0,0-3.77-1.11,6.91,6.91,0,0,0,0,13.82h15.93a6.09,6.09,0,0,0,1.86-11.9Zm-14.89,9.77a.84.84,0,0,1-1.3-1.05.84.84,0,1,1,1.3,1.05Zm13.26-2.93c-2.41,3.21-7.56,2.13-10.86,2.29a11.55,11.55,0,0,0-1.17.13s.22-.1.5-.2a38.41,38.41,0,0,0,4.83-1.68c2.64-1.36,5.28-4.31,5.81-7.38-1,2.95-4.07,5.49-6.86,6.52a45.52,45.52,0,0,1-5.36,1.39l-.14-.07c-2.35-1.14-2.42-6.23,1.85-7.87,1.87-.72,3.66-.33,5.68-.81a8.88,8.88,0,0,0,5.67-4.24C608.94,337.67,610.3,343,607.85,346.21Z"/><rect class="cls-4" x="282.46" y="312.89" width="121.02" height="53.7"/><path d="M332.84,326.61h2.55a4.83,4.83,0,0,1,2.55.51,1.8,1.8,0,0,1,.79,1.63,2,2,0,0,1-.38,1.25,1.71,1.71,0,0,1-1.12.62v.06a2.27,2.27,0,0,1,1.33.67,2.07,2.07,0,0,1,.42,1.36,2.2,2.2,0,0,1-.8,1.81,3.51,3.51,0,0,1-2.24.65h-3.1Zm1.4,3.53h1.35a2.38,2.38,0,0,0,1.29-.27,1.11,1.11,0,0,0,.4-.95,1,1,0,0,0-.44-.87,2.7,2.7,0,0,0-1.38-.27h-1.22Zm0,1.14V334h1.49a2.23,2.23,0,0,0,1.33-.33,1.25,1.25,0,0,0,.45-1.07,1.13,1.13,0,0,0-.46-1,2.46,2.46,0,0,0-1.39-.32Z"/><path d="M343.73,328.57a3.23,3.23,0,0,1,.68.06l-.13,1.29a2.48,2.48,0,0,0-.61-.07,1.76,1.76,0,0,0-1.34.53,2,2,0,0,0-.51,1.4v3.39h-1.38v-6.48h1.08l.18,1.14h.07a2.57,2.57,0,0,1,.84-.92A2.07,2.07,0,0,1,343.73,328.57Z"/><path d="M348.26,335.29a3.17,3.17,0,0,1-2.36-.88,3.35,3.35,0,0,1-.85-2.43,3.68,3.68,0,0,1,.79-2.5,2.74,2.74,0,0,1,2.17-.91,2.67,2.67,0,0,1,2,.78,3,3,0,0,1,.74,2.15v.74h-4.32a2.13,2.13,0,0,0,.51,1.45,1.79,1.79,0,0,0,1.36.51,5.17,5.17,0,0,0,1.07-.11,5.31,5.31,0,0,0,1.06-.36v1.12a4.53,4.53,0,0,1-1,.34A6,6,0,0,1,348.26,335.29Zm-.25-5.67A1.39,1.39,0,0,0,347,330a2,2,0,0,0-.47,1.22h2.94A1.82,1.82,0,0,0,349,330,1.3,1.3,0,0,0,348,329.62Z"/><path d="M356.22,335.17l-.27-.9h-.05a2.68,2.68,0,0,1-.94.8,2.89,2.89,0,0,1-1.22.22,2,2,0,0,1-1.49-.52,1.92,1.92,0,0,1-.54-1.46,1.73,1.73,0,0,1,.74-1.51,4.32,4.32,0,0,1,2.27-.55l1.12,0v-.35a1.3,1.3,0,0,0-.29-.92,1.16,1.16,0,0,0-.9-.31,3.31,3.31,0,0,0-.95.14,7.68,7.68,0,0,0-.88.35l-.45-1a4.33,4.33,0,0,1,1.16-.42,5,5,0,0,1,1.18-.15,2.82,2.82,0,0,1,1.87.54,2.13,2.13,0,0,1,.63,1.7v4.36Zm-2.05-.94a1.73,1.73,0,0,0,1.21-.42,1.51,1.51,0,0,0,.45-1.17v-.56l-.83,0a2.87,2.87,0,0,0-1.42.33,1,1,0,0,0-.44.89.89.89,0,0,0,.26.67A1.14,1.14,0,0,0,354.17,334.23Z"/><path d="M360.28,331.75l.78-1,1.95-2.09h1.59L362,331.47l2.78,3.7h-1.62l-2.08-2.84-.76.62v2.22H359v-9.12h1.36v4.45l-.07,1.25Z"/><path d="M368.46,335.29a3.18,3.18,0,0,1-2.37-.88,3.39,3.39,0,0,1-.85-2.43,3.73,3.73,0,0,1,.79-2.5,2.77,2.77,0,0,1,2.18-.91,2.65,2.65,0,0,1,2,.78,3,3,0,0,1,.75,2.15v.74h-4.32a2.13,2.13,0,0,0,.51,1.45,1.76,1.76,0,0,0,1.35.51,5.1,5.1,0,0,0,1.07-.11,5.39,5.39,0,0,0,1.07-.36v1.12a4.53,4.53,0,0,1-1,.34A6,6,0,0,1,368.46,335.29Zm-.25-5.67a1.39,1.39,0,0,0-1,.41,2,2,0,0,0-.48,1.22h2.95a1.82,1.82,0,0,0-.39-1.22A1.31,1.31,0,0,0,368.21,329.62Z"/><path d="M375.65,328.57a3.27,3.27,0,0,1,.69.06l-.14,1.29a2.43,2.43,0,0,0-.61-.07,1.76,1.76,0,0,0-1.34.53,2,2,0,0,0-.51,1.4v3.39h-1.38v-6.48h1.08l.18,1.14h.07a2.76,2.76,0,0,1,.84-.92A2.07,2.07,0,0,1,375.65,328.57Z"/><path d="M334.88,349.69a2.24,2.24,0,0,1-1.89-.88,4.81,4.81,0,0,1,0-4.95,2.28,2.28,0,0,1,1.91-.89,2.22,2.22,0,0,1,1.94.95h.07a9.72,9.72,0,0,1-.1-1.11v-2.36h1.39v9.12h-1.08l-.24-.85h-.07A2.19,2.19,0,0,1,334.88,349.69Zm.37-1.12a1.5,1.5,0,0,0,1.24-.47,2.53,2.53,0,0,0,.4-1.55v-.2a3,3,0,0,0-.4-1.74,1.49,1.49,0,0,0-1.25-.51,1.26,1.26,0,0,0-1.12.59,3,3,0,0,0-.39,1.68,3,3,0,0,0,.38,1.64A1.26,1.26,0,0,0,335.25,348.57Z"/><path d="M344.05,349.57l-.28-.9h0a2.7,2.7,0,0,1-1,.8,2.83,2.83,0,0,1-1.22.22,2,2,0,0,1-1.49-.52,1.91,1.91,0,0,1-.53-1.46,1.71,1.71,0,0,1,.74-1.51,4.29,4.29,0,0,1,2.27-.55l1.12,0v-.35a1.3,1.3,0,0,0-.29-.92,1.19,1.19,0,0,0-.9-.31,3.43,3.43,0,0,0-1,.14,8.48,8.48,0,0,0-.88.35l-.44-1a4.26,4.26,0,0,1,1.15-.42,5.17,5.17,0,0,1,1.19-.15,2.79,2.79,0,0,1,1.86.54,2.13,2.13,0,0,1,.63,1.7v4.36Zm-2.05-.94a1.69,1.69,0,0,0,1.2-.42,1.51,1.51,0,0,0,.46-1.17v-.56l-.84,0a2.8,2.8,0,0,0-1.41.33,1,1,0,0,0-.44.89.88.88,0,0,0,.25.67A1.17,1.17,0,0,0,342,348.63Z"/><path d="M351.13,347.73a1.69,1.69,0,0,1-.69,1.45,3.29,3.29,0,0,1-2,.51,4.67,4.67,0,0,1-2.08-.39v-1.19a5.1,5.1,0,0,0,2.12.52c.85,0,1.27-.25,1.27-.76a.55.55,0,0,0-.14-.41,1.4,1.4,0,0,0-.46-.34,7,7,0,0,0-.9-.4,4.14,4.14,0,0,1-1.51-.87,1.61,1.61,0,0,1-.4-1.12,1.49,1.49,0,0,1,.68-1.3,3.2,3.2,0,0,1,1.82-.46,5.15,5.15,0,0,1,2.16.47l-.44,1a4.79,4.79,0,0,0-1.77-.43c-.72,0-1.09.21-1.09.62a.64.64,0,0,0,.29.52,6.46,6.46,0,0,0,1.24.58,5.46,5.46,0,0,1,1.16.56,1.6,1.6,0,0,1,.54.6A1.67,1.67,0,0,1,351.13,347.73Z"/><path d="M358.14,349.57h-1.38v-4a1.74,1.74,0,0,0-.31-1.12,1.15,1.15,0,0,0-.95-.37,1.52,1.52,0,0,0-1.28.52,2.83,2.83,0,0,0-.41,1.73v3.22h-1.37v-9.12h1.37v2.32a10.08,10.08,0,0,1-.07,1.19h.09a2,2,0,0,1,.78-.73,2.58,2.58,0,0,1,1.17-.26,2.09,2.09,0,0,1,2.36,2.38Z"/><path d="M363.18,343a2.26,2.26,0,0,1,1.89.88,4.81,4.81,0,0,1,0,4.95,2.48,2.48,0,0,1-3.81,0h-.09l-.26.77h-1v-9.12h1.38v2.17c0,.16,0,.4,0,.72s0,.51,0,.6h.06A2.2,2.2,0,0,1,363.18,343Zm-.35,1.13a1.38,1.38,0,0,0-1.2.49,2.8,2.8,0,0,0-.38,1.64v.09a3,3,0,0,0,.38,1.71,1.37,1.37,0,0,0,1.22.53A1.23,1.23,0,0,0,364,348a3.06,3.06,0,0,0,.38-1.67C364.34,344.83,363.83,344.1,362.83,344.1Z"/><path d="M372.92,346.32a3.52,3.52,0,0,1-.82,2.48,2.92,2.92,0,0,1-2.26.89,3.16,3.16,0,0,1-1.61-.41,2.79,2.79,0,0,1-1.07-1.18,4,4,0,0,1-.38-1.78,3.51,3.51,0,0,1,.81-2.46,2.94,2.94,0,0,1,2.28-.89,2.84,2.84,0,0,1,2.23.91A3.53,3.53,0,0,1,372.92,346.32Zm-4.72,0c0,1.49.55,2.24,1.66,2.24s1.64-.75,1.64-2.24-.55-2.22-1.65-2.22a1.42,1.42,0,0,0-1.26.57A2.94,2.94,0,0,0,368.2,346.32Z"/><path d="M378.38,349.57l-.28-.9h-.05a2.59,2.59,0,0,1-.94.8,2.86,2.86,0,0,1-1.22.22,2,2,0,0,1-1.49-.52,1.92,1.92,0,0,1-.54-1.46,1.72,1.72,0,0,1,.75-1.51,4.26,4.26,0,0,1,2.27-.55l1.11,0v-.35a1.26,1.26,0,0,0-.29-.92,1.16,1.16,0,0,0-.9-.31,3.31,3.31,0,0,0-.95.14,8.48,8.48,0,0,0-.88.35l-.44-1a4.26,4.26,0,0,1,1.15-.42,5.09,5.09,0,0,1,1.18-.15,2.8,2.8,0,0,1,1.87.54,2.13,2.13,0,0,1,.63,1.7v4.36Zm-2.06-.94a1.71,1.71,0,0,0,1.21-.42A1.51,1.51,0,0,0,378,347v-.56l-.83,0a2.8,2.8,0,0,0-1.41.33,1,1,0,0,0-.45.89.89.89,0,0,0,.26.67A1.14,1.14,0,0,0,376.32,348.63Z"/><path d="M384.39,343a3.17,3.17,0,0,1,.68.06l-.13,1.28a3.08,3.08,0,0,0-.61-.07,1.76,1.76,0,0,0-1.34.54,2,2,0,0,0-.51,1.4v3.39H381.1v-6.48h1.08l.18,1.14h.07a2.76,2.76,0,0,1,.84-.92A2.07,2.07,0,0,1,384.39,343Z"/><path d="M388.28,349.69a2.24,2.24,0,0,1-1.89-.88,4.81,4.81,0,0,1,0-4.95,2.28,2.28,0,0,1,1.9-.89,2.24,2.24,0,0,1,1.95.95h.07a7.85,7.85,0,0,1-.1-1.11v-2.36h1.38v9.12h-1.08l-.24-.85h-.06A2.19,2.19,0,0,1,388.28,349.69Zm.37-1.12a1.5,1.5,0,0,0,1.24-.47,2.53,2.53,0,0,0,.39-1.55v-.2a3,3,0,0,0-.39-1.74,1.5,1.5,0,0,0-1.25-.51,1.24,1.24,0,0,0-1.12.59,3,3,0,0,0-.39,1.68,2.91,2.91,0,0,0,.38,1.64A1.26,1.26,0,0,0,388.65,348.57Z"/><path class="cls-5" d="M317.51,337.41a38.09,38.09,0,0,0-1.59-6.12,9.43,9.43,0,0,1-1,1.85,9.77,9.77,0,0,0-15.39,1.79,6.42,6.42,0,0,1,4,1.68,6.7,6.7,0,0,0-3.77-1.11,6.91,6.91,0,1,0,0,13.82h15.94a6.1,6.1,0,0,0,1.86-11.91Zm-14.89,9.78a.84.84,0,1,1-.12-1.18A.85.85,0,0,1,302.62,347.19Zm13.26-2.93c-2.41,3.21-7.56,2.13-10.86,2.28,0,0-.59,0-1.18.13l.51-.19a36.42,36.42,0,0,0,4.82-1.69c2.65-1.35,5.29-4.31,5.82-7.38-1,3-4.07,5.5-6.86,6.53a47.71,47.71,0,0,1-5.37,1.39l-.14-.07c-2.34-1.15-2.41-6.24,1.85-7.88,1.87-.72,3.66-.32,5.68-.8a8.85,8.85,0,0,0,5.67-4.24C317,335.71,318.33,341,315.88,344.26Z"/><path class="cls-5" d="M219.1,242a36.81,36.81,0,0,0-1.59-6.12,8.87,8.87,0,0,1-1,1.84,9.76,9.76,0,0,0-15.38,1.79,6.5,6.5,0,0,1,4,1.68,6.81,6.81,0,0,0-3.77-1.11,6.91,6.91,0,0,0,0,13.82h15.93A6.09,6.09,0,0,0,219.1,242Zm-14.89,9.77a.84.84,0,1,1-.12-1.17A.83.83,0,0,1,204.21,251.75Zm13.26-2.92c-2.41,3.21-7.56,2.12-10.86,2.28a11.59,11.59,0,0,0-1.18.13s.23-.1.51-.19a39.84,39.84,0,0,0,4.83-1.69c2.64-1.36,5.28-4.31,5.81-7.38-1,3-4.07,5.49-6.86,6.52a45.52,45.52,0,0,1-5.36,1.39l-.14-.07c-2.35-1.14-2.42-6.23,1.85-7.87,1.87-.72,3.66-.32,5.68-.81a8.9,8.9,0,0,0,5.67-4.24C218.56,240.28,219.92,245.56,217.47,248.83Z"/><rect class="cls-6" x="33.09" y="151.61" width="99.68" height="53.7"/><path d="M80.9,183.32V174h1.52v9.28Z"/><path d="M90.74,179.8a3.8,3.8,0,0,1-.88,2.68,3.15,3.15,0,0,1-2.46,1,3.37,3.37,0,0,1-1.74-.45,2.92,2.92,0,0,1-1.16-1.27,4.38,4.38,0,0,1-.4-1.93,3.83,3.83,0,0,1,.87-2.67,3.19,3.19,0,0,1,2.47-1,3.06,3.06,0,0,1,2.41,1A3.74,3.74,0,0,1,90.74,179.8Zm-5.11,0q0,2.43,1.8,2.43c1.18,0,1.78-.81,1.78-2.43s-.6-2.41-1.79-2.41a1.54,1.54,0,0,0-1.37.63A3.14,3.14,0,0,0,85.63,179.8Z"/><path d="M95.63,183.32H94.11v-8H91.38V174h7v1.3H95.63Z"/><rect class="cls-6" x="33.09" y="217.46" width="99.68" height="53.7"/><path d="M75.42,249.4l-2.7-7.76h0c.08,1.16.11,2.23.11,3.24v4.52H71.4v-9.29h2.14l2.58,7.39h0l2.65-7.39H81v9.29H79.5v-4.59c0-.47,0-1.07,0-1.81s0-1.19.06-1.34h0l-2.78,7.74Z"/><path d="M89.27,245.87a3.84,3.84,0,0,1-.88,2.69,3.16,3.16,0,0,1-2.45,1,3.41,3.41,0,0,1-1.74-.44A2.89,2.89,0,0,1,83,247.8a4.22,4.22,0,0,1-.41-1.93,3.76,3.76,0,0,1,.88-2.66,3.15,3.15,0,0,1,2.46-1,3.09,3.09,0,0,1,2.42,1A3.78,3.78,0,0,1,89.27,245.87Zm-5.1,0c0,1.62.59,2.43,1.79,2.43s1.78-.81,1.78-2.43-.6-2.4-1.79-2.4a1.5,1.5,0,0,0-1.36.62A3.16,3.16,0,0,0,84.17,245.87Z"/><path d="M94.38,242.25a2.42,2.42,0,0,1,2.05.95,4.28,4.28,0,0,1,.73,2.67,4.35,4.35,0,0,1-.74,2.69,2.48,2.48,0,0,1-2.07,1,2.45,2.45,0,0,1-2.06-1h-.11l-.27.84H90.79v-9.88h1.5v2.35c0,.17,0,.43,0,.77s0,.56,0,.65h.07A2.37,2.37,0,0,1,94.38,242.25ZM94,243.47a1.51,1.51,0,0,0-1.3.53,3,3,0,0,0-.4,1.77v.1a3.29,3.29,0,0,0,.4,1.86,1.51,1.51,0,0,0,1.33.57,1.33,1.33,0,0,0,1.2-.63,3.32,3.32,0,0,0,.41-1.81C95.63,244.26,95.08,243.47,94,243.47Z"/><path d="M98.61,240.51a.8.8,0,0,1,.22-.61.81.81,0,0,1,.62-.22.83.83,0,0,1,.62.22.84.84,0,0,1,.22.61.82.82,0,0,1-.22.6.83.83,0,0,1-.62.22.81.81,0,0,1-.62-.22A.78.78,0,0,1,98.61,240.51Zm1.58,8.89H98.7v-7h1.49Z"/><path d="M103.62,249.4h-1.49v-9.88h1.49Z"/><path d="M108.62,249.52a3.43,3.43,0,0,1-2.56-1,3.66,3.66,0,0,1-.92-2.63,4,4,0,0,1,.86-2.71,3,3,0,0,1,2.35-1,2.91,2.91,0,0,1,2.2.84,3.26,3.26,0,0,1,.8,2.33v.8h-4.68a2.33,2.33,0,0,0,.56,1.57,1.89,1.89,0,0,0,1.46.55,5.3,5.3,0,0,0,1.16-.12,5,5,0,0,0,1.15-.39v1.22a4.57,4.57,0,0,1-1.1.36A6.17,6.17,0,0,1,108.62,249.52Zm-.27-6.14a1.51,1.51,0,0,0-1.14.45,2.15,2.15,0,0,0-.51,1.31h3.19a2,2,0,0,0-.42-1.32A1.47,1.47,0,0,0,108.35,243.38Z"/><path class="cls-7" d="M63.52,175.48a1.72,1.72,0,0,0-1.72,1.72,1.7,1.7,0,0,0,.86,1.48v7.11h1.72v-7.11a1.72,1.72,0,0,0-.86-3.2Z"/><path class="cls-7" d="M58.65,172.34l-1.21-1.22a8.61,8.61,0,0,0,0,12.16l1.21-1.22A6.88,6.88,0,0,1,58.65,172.34Z"/><path class="cls-7" d="M69.59,171.12l-1.21,1.22a6.88,6.88,0,0,1,0,9.72l1.21,1.22a8.59,8.59,0,0,0,0-12.16Z"/><path class="cls-7" d="M59.87,173.55a5.17,5.17,0,0,0,0,7.3l1.22-1.22a3.43,3.43,0,0,1,0-4.86Z"/><path class="cls-7" d="M67.16,173.55,66,174.77a3.45,3.45,0,0,1,0,4.86l1.21,1.22a5.17,5.17,0,0,0,0-7.3Z"/><path class="cls-7" d="M62.76,239.08A1.72,1.72,0,0,0,61,237.36H54.17a1.72,1.72,0,0,0-1.72,1.72v13.75a1.72,1.72,0,0,0,1.72,1.72H61a1.72,1.72,0,0,0,1.72-1.72Zm-1.72,12H54.17V240.79H61Z"/><circle class="cls-6" cx="57.61" cy="252.75" r="0.7"/><rect class="cls-6" x="33.09" y="280.61" width="99.68" height="53.7"/><path d="M70.22,303.35H73a5.26,5.26,0,0,1,2.77.55,2,2,0,0,1,.85,1.77,2.13,2.13,0,0,1-.42,1.35,1.86,1.86,0,0,1-1.2.68v.06a2.41,2.41,0,0,1,1.43.73,2.18,2.18,0,0,1,.46,1.47,2.39,2.39,0,0,1-.87,2,3.76,3.76,0,0,1-2.43.71H70.22Zm1.52,3.83H73.2a2.52,2.52,0,0,0,1.39-.3,1.16,1.16,0,0,0,.44-1,1,1,0,0,0-.48-.94,2.87,2.87,0,0,0-1.5-.29H71.74Zm0,1.23v2.94h1.61a2.39,2.39,0,0,0,1.44-.36,1.37,1.37,0,0,0,.48-1.16,1.21,1.21,0,0,0-.49-1.07,2.64,2.64,0,0,0-1.5-.35Z"/><path d="M82,305.48a3.73,3.73,0,0,1,.74.06l-.14,1.39a2.84,2.84,0,0,0-.66-.07,1.9,1.9,0,0,0-1.45.58,2.13,2.13,0,0,0-.56,1.52v3.67H78.45v-7h1.17l.2,1.23h.07a2.72,2.72,0,0,1,.91-1A2.15,2.15,0,0,1,82,305.48Z"/><path d="M90.09,309.1a3.87,3.87,0,0,1-.88,2.69,3.18,3.18,0,0,1-2.46,1,3.31,3.31,0,0,1-1.74-.44A3,3,0,0,1,83.85,311a4.32,4.32,0,0,1-.41-1.93,3.78,3.78,0,0,1,.88-2.66,3.16,3.16,0,0,1,2.47-1,3.11,3.11,0,0,1,2.41,1A3.78,3.78,0,0,1,90.09,309.1Zm-5.11,0c0,1.62.6,2.43,1.79,2.43s1.78-.81,1.78-2.43-.6-2.4-1.79-2.4a1.53,1.53,0,0,0-1.36.62A3.16,3.16,0,0,0,85,309.1Z"/><path d="M97.36,312.63l-.9-3.28c-.11-.35-.31-1.15-.6-2.42H95.8c-.24,1.15-.44,2-.58,2.43l-.93,3.27H92.63l-2-7h1.52l.9,3.46c.2.85.34,1.58.43,2.19h0c0-.31.11-.66.2-1.06s.16-.7.22-.9L95,305.61h1.64l1,3.69a9.74,9.74,0,0,1,.24.95,7.14,7.14,0,0,1,.17,1h0a18.88,18.88,0,0,1,.44-2.18l.91-3.46H101l-2,7Z"/><path d="M106.75,310.63a1.82,1.82,0,0,1-.75,1.57,3.58,3.58,0,0,1-2.15.55,5.13,5.13,0,0,1-2.25-.42V311a5.51,5.51,0,0,0,2.3.57c.92,0,1.38-.28,1.38-.83a.68.68,0,0,0-.15-.45,1.84,1.84,0,0,0-.5-.36,8.93,8.93,0,0,0-1-.43,4.57,4.57,0,0,1-1.64-.94,1.73,1.73,0,0,1-.43-1.22,1.6,1.6,0,0,1,.72-1.4,3.5,3.5,0,0,1,2-.5,5.62,5.62,0,0,1,2.34.5l-.48,1.12a5.27,5.27,0,0,0-1.91-.47c-.79,0-1.18.23-1.18.68a.68.68,0,0,0,.31.56,6.46,6.46,0,0,0,1.34.62,6.09,6.09,0,0,1,1.26.62,1.87,1.87,0,0,1,.59.64A2,2,0,0,1,106.75,310.63Z"/><path d="M111.23,312.75a3.37,3.37,0,0,1-2.56-.95,3.62,3.62,0,0,1-.92-2.63,4,4,0,0,1,.85-2.71,3,3,0,0,1,2.36-1,2.89,2.89,0,0,1,2.19.84,3.24,3.24,0,0,1,.81,2.33v.8h-4.68a2.32,2.32,0,0,0,.55,1.57,1.92,1.92,0,0,0,1.47.55,6.09,6.09,0,0,0,1.16-.11,5.65,5.65,0,0,0,1.15-.4v1.22a5.09,5.09,0,0,1-1.1.37A7.08,7.08,0,0,1,111.23,312.75Zm-.27-6.14a1.48,1.48,0,0,0-1.14.45,2.09,2.09,0,0,0-.51,1.31h3.18a1.84,1.84,0,0,0-.42-1.31A1.42,1.42,0,0,0,111,306.61Z"/><path d="M119,305.48a3.73,3.73,0,0,1,.74.06l-.14,1.39a2.84,2.84,0,0,0-.66-.07,1.9,1.9,0,0,0-1.45.58A2.13,2.13,0,0,0,117,309v3.67h-1.49v-7h1.17l.19,1.23h.08a2.72,2.72,0,0,1,.91-1A2.15,2.15,0,0,1,119,305.48Z"/><path class="cls-7" d="M60.43,302.09h-12A1.48,1.48,0,0,0,47,303.57v9a1.48,1.48,0,0,0,1.48,1.48h12a1.48,1.48,0,0,0,1.48-1.48v-9A1.48,1.48,0,0,0,60.43,302.09Zm-12,10.51v-6.49h12v6.49Z"/><circle class="cls-6" cx="49.87" cy="304.02" r="0.7"/></svg>