<?xml version="1.0" encoding="utf-8"?>
<!-- Generator: Adobe Illustrator 24.0.1, SVG Export Plug-In . SVG Version: 6.00 Build 0)  -->
<svg version="1.1" id="Layer_1" xmlns="http://www.w3.org/2000/svg" xmlns:xlink="http://www.w3.org/1999/xlink" x="0px" y="0px"
	 viewBox="0 0 271 239" style="enable-background:new 0 0 271 239;" xml:space="preserve">
<style type="text/css">
	.st0{fill:#191E1E;}
	.st1{fill:none;stroke:#191E1E;stroke-width:2;stroke-miterlimit:10;}
	.st2{fill:#FFFFFF;stroke:#191E1E;stroke-width:2;stroke-miterlimit:10;}
</style>
<title>cloud</title>
<g id="Layer_2_1_">
	<g id="Layer_1-2">
		<path class="st0" d="M267.4,192L267.4,192c-0.9,0-1.7,0.8-1.7,1.7l0,0c0,0.9,0.8,1.7,1.7,1.7l0,0c0.9,0,1.7-0.8,1.7-1.7l0,0
			C269.1,192.8,268.3,192,267.4,192z"/>
		<path class="st0" d="M269.5,187.6c0.1,0.3,0.2,0.5,0.4,0.8C269.7,188.1,269.6,187.8,269.5,187.6z"/>
		<path class="st0" d="M260,179.1L260,179.1c-0.9,0-1.7,0.8-1.7,1.7l0,0c0,0.9,0.8,1.7,1.7,1.7l0,0c0.9,0,1.7-0.8,1.7-1.7l0,0
			C261.7,179.9,260.9,179.1,260,179.1z"/>
		<path class="st0" d="M260,192L260,192c-0.9,0-1.7,0.8-1.7,1.7l0,0c0,0.9,0.8,1.7,1.7,1.7l0,0c0.9,0,1.7-0.8,1.7-1.7l0,0
			C261.7,192.8,260.9,192,260,192z"/>
		<circle class="st0" cx="263.7" cy="187.3" r="1.7"/>
		<path class="st0" d="M260,205L260,205c-0.9,0-1.7,0.8-1.7,1.7l0,0c0,0.9,0.8,1.7,1.7,1.7l0,0c0.9,0,1.7-0.8,1.7-1.7l0,0
			C261.7,205.8,260.9,205,260,205z"/>
		<circle class="st0" cx="263.7" cy="200.2" r="1.7"/>
		<path class="st0" d="M252.5,179.1L252.5,179.1c-0.9,0-1.7,0.8-1.7,1.7l0,0c0,0.9,0.8,1.7,1.7,1.7l0,0c0.9,0,1.7-0.8,1.7-1.7l0,0
			C254.2,179.9,253.4,179.1,252.5,179.1z"/>
		<path class="st0" d="M252.5,192L252.5,192c-0.9,0-1.7,0.8-1.7,1.7l0,0c0,0.9,0.8,1.7,1.7,1.7l0,0c0.9,0,1.7-0.8,1.7-1.7l0,0
			C254.2,192.8,253.4,192,252.5,192z"/>
		<circle class="st0" cx="256.2" cy="187.3" r="1.7"/>
		<path class="st0" d="M252.5,205L252.5,205c-0.9,0-1.7,0.8-1.7,1.7l0,0c0,0.9,0.8,1.7,1.7,1.7l0,0c0.9,0,1.7-0.8,1.7-1.7l0,0
			C254.2,205.8,253.4,205,252.5,205z"/>
		<circle class="st0" cx="256.2" cy="200.2" r="1.7"/>
		<circle class="st0" cx="256.2" cy="213.1" r="1.7"/>
		<path class="st0" d="M245,179.1L245,179.1c-0.9,0-1.7,0.8-1.7,1.7l0,0c0,0.9,0.8,1.7,1.7,1.7l0,0c0.9,0,1.7-0.8,1.7-1.7l0,0
			C246.7,179.9,245.9,179.1,245,179.1z"/>
		<path class="st0" d="M248.8,172.7c-0.9,0-1.7,0.7-1.7,1.7s0.7,1.7,1.7,1.7c0.9,0,1.7-0.7,1.7-1.7c0,0,0,0,0,0
			C250.5,173.4,249.7,172.7,248.8,172.7z"/>
		<path class="st0" d="M245,192L245,192c-0.9,0-1.7,0.8-1.7,1.7l0,0c0,0.9,0.8,1.7,1.7,1.7l0,0c0.9,0,1.7-0.8,1.7-1.7l0,0
			C246.7,192.8,245.9,192,245,192z"/>
		<path class="st0" d="M248.8,185.6c-0.9,0-1.7,0.8-1.7,1.7s0.8,1.7,1.7,1.7s1.7-0.8,1.7-1.7v0C250.4,186.3,249.7,185.6,248.8,185.6
			z"/>
		<path class="st0" d="M245,205L245,205c-0.9,0-1.7,0.8-1.7,1.7l0,0c0,0.9,0.8,1.7,1.7,1.7l0,0c0.9,0,1.7-0.8,1.7-1.7l0,0
			C246.7,205.8,245.9,205,245,205z"/>
		<path class="st0" d="M248.8,198.5c-0.9,0-1.7,0.8-1.7,1.7s0.8,1.7,1.7,1.7s1.7-0.8,1.7-1.7v0C250.4,199.3,249.7,198.5,248.8,198.5
			z"/>
		<path class="st0" d="M245,217.9L245,217.9c-0.9,0-1.7,0.8-1.7,1.7l0,0c0,0.9,0.8,1.7,1.7,1.7l0,0c0.9,0,1.7-0.8,1.7-1.7l0,0
			C246.7,218.6,245.9,217.9,245,217.9z"/>
		<path class="st0" d="M248.8,211.4c-0.9,0-1.7,0.8-1.7,1.7s0.8,1.7,1.7,1.7s1.7-0.8,1.7-1.7v0C250.4,212.2,249.7,211.4,248.8,211.4
			z"/>
		<path class="st0" d="M237.6,166.2L237.6,166.2c-0.9,0-1.7,0.8-1.7,1.7l0,0c0,0.9,0.8,1.7,1.7,1.7l0,0c0.9,0,1.7-0.8,1.7-1.7l0,0
			C239.3,167,238.5,166.2,237.6,166.2z"/>
		<path class="st0" d="M237.6,179.1L237.6,179.1c-0.9,0-1.7,0.8-1.7,1.7l0,0c0,0.9,0.8,1.7,1.7,1.7l0,0c0.9,0,1.7-0.8,1.7-1.7l0,0
			C239.3,179.9,238.5,179.1,237.6,179.1z"/>
		<circle class="st0" cx="241.3" cy="174.4" r="1.7"/>
		<path class="st0" d="M237.6,192L237.6,192c-0.9,0-1.7,0.8-1.7,1.7l0,0c0,0.9,0.8,1.7,1.7,1.7l0,0c0.9,0,1.7-0.8,1.7-1.7l0,0
			C239.3,192.8,238.5,192,237.6,192z"/>
		<circle class="st0" cx="241.3" cy="187.3" r="1.7"/>
		<path class="st0" d="M237.6,205L237.6,205c-0.9,0-1.7,0.8-1.7,1.7l0,0c0,0.9,0.8,1.7,1.7,1.7l0,0c0.9,0,1.7-0.8,1.7-1.7l0,0
			C239.3,205.8,238.5,205,237.6,205z"/>
		<circle class="st0" cx="241.3" cy="200.2" r="1.7"/>
		<path class="st0" d="M237.6,217.9L237.6,217.9c-0.9,0-1.7,0.8-1.7,1.7l0,0c0,0.9,0.8,1.7,1.7,1.7l0,0c0.9,0,1.7-0.8,1.7-1.7l0,0
			C239.3,218.6,238.5,217.9,237.6,217.9z"/>
		<circle class="st0" cx="241.3" cy="213.1" r="1.7"/>
		<path class="st0" d="M230.1,166.2L230.1,166.2c-0.9,0-1.7,0.8-1.7,1.7l0,0c0,0.9,0.8,1.7,1.7,1.7l0,0c0.9,0,1.7-0.8,1.7-1.7l0,0
			C231.8,167,231.1,166.2,230.1,166.2z"/>
		<path class="st0" d="M230.1,179.1L230.1,179.1c-0.9,0-1.7,0.8-1.7,1.7l0,0c0,0.9,0.8,1.7,1.7,1.7l0,0c0.9,0,1.7-0.8,1.7-1.7l0,0
			C231.8,179.9,231.1,179.1,230.1,179.1z"/>
		<circle class="st0" cx="233.9" cy="174.4" r="1.7"/>
		<path class="st0" d="M230.1,192L230.1,192c-0.9,0-1.7,0.8-1.7,1.7l0,0c0,0.9,0.8,1.7,1.7,1.7l0,0c0.9,0,1.7-0.8,1.7-1.7l0,0
			C231.8,192.8,231.1,192,230.1,192z"/>
		<circle class="st0" cx="233.9" cy="187.3" r="1.7"/>
		<path class="st0" d="M230.1,205L230.1,205c-0.9,0-1.7,0.8-1.7,1.7l0,0c0,0.9,0.8,1.7,1.7,1.7l0,0c0.9,0,1.7-0.8,1.7-1.7l0,0
			C231.8,205.8,231.1,205,230.1,205z"/>
		<circle class="st0" cx="233.9" cy="200.2" r="1.7"/>
		<path class="st0" d="M230.1,217.9L230.1,217.9c-0.9,0-1.7,0.8-1.7,1.7l0,0c0,0.9,0.8,1.7,1.7,1.7l0,0c0.9,0,1.7-0.8,1.7-1.7l0,0
			C231.8,218.6,231.1,217.9,230.1,217.9z"/>
		<circle class="st0" cx="233.9" cy="213.1" r="1.7"/>
		<path class="st0" d="M222.7,166.2L222.7,166.2c-0.9,0-1.7,0.8-1.7,1.7l0,0c0,0.9,0.8,1.7,1.7,1.7l0,0c0.9,0,1.7-0.8,1.7-1.7l0,0
			C224.4,167,223.6,166.2,222.7,166.2z"/>
		<circle class="st0" cx="226.4" cy="161.4" r="1.7"/>
		<path class="st0" d="M222.7,179.1L222.7,179.1c-0.9,0-1.7,0.8-1.7,1.7l0,0c0,0.9,0.8,1.7,1.7,1.7l0,0c0.9,0,1.7-0.8,1.7-1.7l0,0
			C224.4,179.9,223.6,179.1,222.7,179.1z"/>
		<circle class="st0" cx="226.4" cy="174.4" r="1.7"/>
		<path class="st0" d="M222.7,192L222.7,192c-0.9,0-1.7,0.8-1.7,1.7l0,0c0,0.9,0.8,1.7,1.7,1.7l0,0c0.9,0,1.7-0.8,1.7-1.7l0,0
			C224.4,192.8,223.6,192,222.7,192z"/>
		<circle class="st0" cx="226.4" cy="187.3" r="1.7"/>
		<path class="st0" d="M222.7,205L222.7,205c-0.9,0-1.7,0.8-1.7,1.7l0,0c0,0.9,0.8,1.7,1.7,1.7l0,0c0.9,0,1.7-0.8,1.7-1.7l0,0
			C224.4,205.8,223.6,205,222.7,205z"/>
		<circle class="st0" cx="226.4" cy="200.2" r="1.7"/>
		<path class="st0" d="M222.7,217.9L222.7,217.9c-0.9,0-1.7,0.8-1.7,1.7l0,0c0,0.9,0.8,1.7,1.7,1.7l0,0c0.9,0,1.7-0.8,1.7-1.7l0,0
			C224.4,218.6,223.6,217.9,222.7,217.9z"/>
		<circle class="st0" cx="226.4" cy="213.1" r="1.7"/>
		<path class="st0" d="M215.2,153.3L215.2,153.3c-0.9,0-1.7,0.8-1.7,1.7l0,0c0,0.9,0.8,1.7,1.7,1.7l0,0c0.9,0,1.7-0.8,1.7-1.7l0,0
			C216.9,154.1,216.2,153.3,215.2,153.3z"/>
		<path class="st0" d="M215.2,166.2L215.2,166.2c-0.9,0-1.7,0.8-1.7,1.7l0,0c0,0.9,0.8,1.7,1.7,1.7l0,0c0.9,0,1.7-0.8,1.7-1.7l0,0
			C216.9,167,216.2,166.2,215.2,166.2z"/>
		<circle class="st0" cx="218.9" cy="161.4" r="1.7"/>
		<path class="st0" d="M215.2,179.1L215.2,179.1c-0.9,0-1.7,0.8-1.7,1.7l0,0c0,0.9,0.8,1.7,1.7,1.7l0,0c0.9,0,1.7-0.8,1.7-1.7l0,0
			C216.9,179.9,216.2,179.1,215.2,179.1z"/>
		<circle class="st0" cx="218.9" cy="174.4" r="1.7"/>
		<path class="st0" d="M215.2,192L215.2,192c-0.9,0-1.7,0.8-1.7,1.7l0,0c0,0.9,0.8,1.7,1.7,1.7l0,0l0,0c0.9,0,1.7-0.8,1.7-1.7l0,0
			C216.9,192.8,216.2,192,215.2,192z"/>
		<circle class="st0" cx="218.9" cy="187.3" r="1.7"/>
		<path class="st0" d="M215.2,205L215.2,205c-0.9,0-1.7,0.8-1.7,1.7l0,0c0,0.9,0.8,1.7,1.7,1.7l0,0c0.9,0,1.7-0.8,1.7-1.7l0,0
			C216.9,205.8,216.2,205,215.2,205z"/>
		<circle class="st0" cx="218.9" cy="200.2" r="1.7"/>
		<path class="st0" d="M215.2,217.9L215.2,217.9c-0.9,0-1.7,0.8-1.7,1.7l0,0l0,0c0,0.9,0.8,1.7,1.7,1.7l0,0c0.9,0,1.7-0.8,1.7-1.7
			l0,0C216.9,218.6,216.2,217.9,215.2,217.9z"/>
		<circle class="st0" cx="218.9" cy="213.1" r="1.7"/>
		<path class="st0" d="M207.8,153.3L207.8,153.3c-0.9,0-1.7,0.8-1.7,1.7l0,0c0,0.9,0.8,1.7,1.7,1.7l0,0c0.9,0,1.7-0.8,1.7-1.7l0,0
			C209.4,154.1,208.7,153.3,207.8,153.3z"/>
		<path class="st0" d="M207.8,166.2L207.8,166.2c-0.9,0-1.7,0.8-1.7,1.7l0,0c0,0.9,0.8,1.7,1.7,1.7l0,0c0.9,0,1.7-0.8,1.7-1.7l0,0
			C209.4,167,208.7,166.2,207.8,166.2z"/>
		<circle class="st0" cx="211.5" cy="161.4" r="1.7"/>
		<path class="st0" d="M207.8,179.1L207.8,179.1c-0.9,0-1.7,0.8-1.7,1.7l0,0c0,0.9,0.8,1.7,1.7,1.7l0,0c0.9,0,1.7-0.8,1.7-1.7l0,0
			C209.4,179.9,208.7,179.1,207.8,179.1z"/>
		<circle class="st0" cx="211.5" cy="174.4" r="1.7"/>
		<path class="st0" d="M207.8,192L207.8,192c-0.9,0-1.7,0.8-1.7,1.7l0,0c0,0.9,0.8,1.7,1.7,1.7l0,0c0.9,0,1.7-0.8,1.7-1.7l0,0
			C209.4,192.8,208.7,192,207.8,192z"/>
		<circle class="st0" cx="211.5" cy="187.3" r="1.7"/>
		<path class="st0" d="M207.8,205L207.8,205c-0.9,0-1.7,0.8-1.7,1.7l0,0c0,0.9,0.8,1.7,1.7,1.7l0,0c0.9,0,1.7-0.8,1.7-1.7l0,0
			C209.4,205.8,208.7,205,207.8,205z"/>
		<circle class="st0" cx="211.5" cy="200.2" r="1.7"/>
		<path class="st0" d="M207.8,217.9L207.8,217.9c-0.9,0-1.7,0.8-1.7,1.7l0,0c0,0.9,0.8,1.7,1.7,1.7l0,0c0.9,0,1.7-0.8,1.7-1.7l0,0
			C209.5,218.6,208.7,217.9,207.8,217.9z"/>
		<circle class="st0" cx="211.5" cy="213.1" r="1.7"/>
		<path class="st0" d="M200.3,153.3L200.3,153.3c-0.9,0-1.7,0.8-1.7,1.7l0,0c0,0.9,0.8,1.7,1.7,1.7l0,0c0.9,0,1.7-0.7,1.7-1.7l0,0
			C202,154.1,201.3,153.3,200.3,153.3C200.3,153.3,200.3,153.3,200.3,153.3z"/>
		<path class="st0" d="M204,146.9c-0.9,0-1.7,0.8-1.7,1.7s0.8,1.7,1.7,1.7c0.9,0,1.7-0.8,1.7-1.7C205.7,147.6,204.9,146.8,204,146.9
			C204,146.8,204,146.8,204,146.9z"/>
		<path class="st0" d="M200.3,166.2L200.3,166.2c-0.9,0-1.7,0.8-1.7,1.7l0,0c0,0.9,0.8,1.7,1.7,1.7l0,0c0.9,0,1.7-0.8,1.7-1.7l0,0
			C202,167,201.2,166.2,200.3,166.2z"/>
		<circle class="st0" cx="204" cy="161.4" r="1.7"/>
		<path class="st0" d="M200.3,179.1L200.3,179.1c-0.9,0-1.7,0.8-1.7,1.7l0,0c0,0.9,0.8,1.7,1.7,1.7l0,0c0.9,0,1.7-0.8,1.7-1.7l0,0
			C202,179.9,201.2,179.1,200.3,179.1z"/>
		<circle class="st0" cx="204" cy="174.4" r="1.7"/>
		<path class="st0" d="M200.3,192L200.3,192c-0.9,0-1.7,0.8-1.7,1.7l0,0c0,0.9,0.8,1.7,1.7,1.7l0,0l0,0c0.9,0,1.7-0.8,1.7-1.7l0,0
			C202,192.8,201.2,192,200.3,192z"/>
		<circle class="st0" cx="204" cy="187.3" r="1.7"/>
		<path class="st0" d="M200.3,205L200.3,205c-0.9,0-1.7,0.8-1.7,1.7l0,0c0,0.9,0.8,1.7,1.7,1.7l0,0c0.9,0,1.7-0.8,1.7-1.7l0,0
			C202,205.8,201.2,205,200.3,205z"/>
		<circle class="st0" cx="204" cy="200.2" r="1.7"/>
		<path class="st0" d="M200.3,217.9L200.3,217.9c-0.9,0-1.7,0.8-1.7,1.7l0,0l0,0c0,0.9,0.8,1.7,1.7,1.7l0,0c0.9,0,1.7-0.8,1.7-1.7
			l0,0C202,218.6,201.2,217.9,200.3,217.9z"/>
		<circle class="st0" cx="204" cy="213.1" r="1.7"/>
		<path class="st0" d="M192.9,140.4L192.9,140.4c-0.9,0-1.7,0.8-1.7,1.7l0,0c0,0.9,0.8,1.7,1.7,1.7l0,0c0.9,0,1.7-0.8,1.7-1.7l0,0
			C194.5,141.2,193.8,140.4,192.9,140.4z"/>
		<path class="st0" d="M192.9,153.3L192.9,153.3c-0.9,0-1.7,0.8-1.7,1.7l0,0c0,0.9,0.8,1.7,1.7,1.7l0,0c0.9,0,1.7-0.8,1.7-1.7l0,0
			C194.5,154.1,193.8,153.3,192.9,153.3z"/>
		<path class="st0" d="M196.6,146.9c-0.9,0-1.7,0.8-1.7,1.7s0.8,1.7,1.7,1.7s1.7-0.8,1.7-1.7v0C198.3,147.6,197.5,146.9,196.6,146.9
			z"/>
		<path class="st0" d="M192.9,166.2L192.9,166.2c-0.9,0-1.7,0.8-1.7,1.7l0,0c0,0.9,0.8,1.7,1.7,1.7l0,0c0.9,0,1.7-0.8,1.7-1.7l0,0
			C194.5,167,193.8,166.2,192.9,166.2z"/>
		<path class="st0" d="M196.6,159.8c-0.9,0-1.7,0.7-1.7,1.7s0.7,1.7,1.7,1.7s1.7-0.7,1.7-1.7c0,0,0,0,0,0
			C198.3,160.5,197.5,159.8,196.6,159.8z"/>
		<path class="st0" d="M192.9,179.1L192.9,179.1c-0.9,0-1.7,0.8-1.7,1.7l0,0c0,0.9,0.8,1.7,1.7,1.7l0,0c0.9,0,1.7-0.8,1.7-1.7l0,0
			C194.5,179.9,193.8,179.1,192.9,179.1z"/>
		<path class="st0" d="M196.6,172.7c-0.9,0-1.7,0.7-1.7,1.7s0.7,1.7,1.7,1.7c0.9,0,1.7-0.7,1.7-1.7c0,0,0,0,0,0
			C198.3,173.4,197.5,172.7,196.6,172.7z"/>
		<path class="st0" d="M192.9,192L192.9,192c-0.9,0-1.7,0.8-1.7,1.7l0,0c0,0.9,0.8,1.7,1.7,1.7l0,0c0.9,0,1.7-0.8,1.7-1.7l0,0
			C194.5,192.8,193.8,192,192.9,192z"/>
		<path class="st0" d="M196.6,185.6c-0.9,0-1.7,0.8-1.7,1.7s0.8,1.7,1.7,1.7s1.7-0.8,1.7-1.7v0C198.3,186.3,197.5,185.6,196.6,185.6
			z"/>
		<path class="st0" d="M192.9,205L192.9,205c-0.9,0-1.7,0.8-1.7,1.7l0,0c0,0.9,0.8,1.7,1.7,1.7l0,0c0.9,0,1.7-0.8,1.7-1.7l0,0
			C194.5,205.8,193.8,205,192.9,205z"/>
		<path class="st0" d="M196.6,198.5c-0.9,0-1.7,0.8-1.7,1.7s0.8,1.7,1.7,1.7s1.7-0.8,1.7-1.7v0C198.3,199.3,197.5,198.5,196.6,198.5
			z"/>
		<path class="st0" d="M192.9,217.9L192.9,217.9c-0.9,0-1.7,0.8-1.7,1.7l0,0c0,0.9,0.8,1.7,1.7,1.7l0,0c0.9,0,1.7-0.8,1.7-1.7l0,0
			C194.5,218.6,193.8,217.9,192.9,217.9z"/>
		<path class="st0" d="M196.6,211.4c-0.9,0-1.7,0.8-1.7,1.7s0.8,1.7,1.7,1.7s1.7-0.8,1.7-1.7v0C198.3,212.2,197.5,211.4,196.6,211.4
			z"/>
		<path class="st0" d="M185.4,140.4L185.4,140.4c-0.9,0-1.7,0.8-1.7,1.7l0,0l0,0c0,0.9,0.8,1.7,1.7,1.7l0,0c0.9,0,1.7-0.8,1.7-1.7
			l0,0C187.1,141.2,186.3,140.4,185.4,140.4z"/>
		<path class="st0" d="M185.4,153.3L185.4,153.3c-0.9,0-1.7,0.8-1.7,1.7l0,0c0,0.9,0.8,1.7,1.7,1.7l0,0c0.9,0,1.7-0.8,1.7-1.7l0,0
			C187.1,154.1,186.3,153.3,185.4,153.3z"/>
		<path class="st0" d="M189.1,146.9c-0.9,0-1.7,0.8-1.7,1.7s0.8,1.7,1.7,1.7c0.9,0,1.7-0.8,1.7-1.7
			C190.8,147.6,190.1,146.8,189.1,146.9C189.1,146.8,189.1,146.8,189.1,146.9z"/>
		<path class="st0" d="M185.4,166.2L185.4,166.2c-0.9,0-1.7,0.8-1.7,1.7l0,0c0,0.9,0.8,1.7,1.7,1.7l0,0c0.9,0,1.7-0.8,1.7-1.7l0,0
			C187.1,167,186.3,166.2,185.4,166.2z"/>
		<circle class="st0" cx="189.1" cy="161.4" r="1.7"/>
		<path class="st0" d="M185.4,179.1L185.4,179.1c-0.9,0-1.7,0.8-1.7,1.7l0,0c0,0.9,0.8,1.7,1.7,1.7l0,0c0.9,0,1.7-0.8,1.7-1.7l0,0
			C187.1,179.9,186.3,179.1,185.4,179.1z"/>
		<circle class="st0" cx="189.1" cy="174.4" r="1.7"/>
		<path class="st0" d="M185.4,192L185.4,192c-0.9,0-1.7,0.8-1.7,1.7l0,0c0,0.9,0.8,1.7,1.7,1.7l0,0l0,0c0.9,0,1.7-0.8,1.7-1.7l0,0
			C187.1,192.8,186.3,192,185.4,192z"/>
		<circle class="st0" cx="189.1" cy="187.3" r="1.7"/>
		<path class="st0" d="M185.4,205L185.4,205c-0.9,0-1.7,0.8-1.7,1.7l0,0c0,0.9,0.8,1.7,1.7,1.7l0,0c0.9,0,1.7-0.8,1.7-1.7l0,0
			C187.1,205.8,186.3,205,185.4,205z"/>
		<circle class="st0" cx="189.1" cy="200.2" r="1.7"/>
		<circle class="st0" cx="189.1" cy="213.1" r="1.7"/>
		<path class="st0" d="M178,140.4L178,140.4c-0.9,0-1.7,0.8-1.7,1.7l0,0c0,0.9,0.8,1.7,1.7,1.7l0,0c0.9,0,1.7-0.8,1.7-1.7l0,0
			C179.7,141.2,178.9,140.4,178,140.4z"/>
		<circle class="st0" cx="181.7" cy="135.6" r="1.7"/>
		<path class="st0" d="M178,153.3L178,153.3c-0.9,0-1.7,0.8-1.7,1.7l0,0c0,0.9,0.8,1.7,1.7,1.7l0,0c0.9,0,1.7-0.8,1.7-1.7l0,0
			C179.7,154.1,178.9,153.3,178,153.3z"/>
		<path class="st0" d="M181.7,146.9c-0.9,0-1.7,0.8-1.7,1.7s0.8,1.7,1.7,1.7s1.7-0.8,1.7-1.7v0C183.4,147.6,182.6,146.9,181.7,146.9
			z"/>
		<path class="st0" d="M178,166.2L178,166.2c-0.9,0-1.7,0.8-1.7,1.7l0,0c0,0.9,0.8,1.7,1.7,1.7l0,0c0.9,0,1.7-0.8,1.7-1.7l0,0
			C179.7,167,178.9,166.2,178,166.2z"/>
		<circle class="st0" cx="181.7" cy="161.4" r="1.7"/>
		<path class="st0" d="M178,179.1L178,179.1c-0.9,0-1.7,0.8-1.7,1.7l0,0c0,0.9,0.8,1.7,1.7,1.7l0,0c0.9,0,1.7-0.8,1.7-1.7l0,0
			C179.7,179.9,178.9,179.1,178,179.1z"/>
		<circle class="st0" cx="181.7" cy="174.4" r="1.7"/>
		<path class="st0" d="M178,192L178,192c-0.9,0-1.7,0.8-1.7,1.7l0,0c0,0.9,0.8,1.7,1.7,1.7l0,0c0.9,0,1.7-0.8,1.7-1.7l0,0
			C179.7,192.8,178.9,192,178,192z"/>
		<circle class="st0" cx="181.7" cy="187.3" r="1.7"/>
		<path class="st0" d="M178,205L178,205c-0.9,0-1.7,0.8-1.7,1.7l0,0c0,0.9,0.8,1.7,1.7,1.7l0,0c0.9,0,1.7-0.8,1.7-1.7l0,0
			C179.7,205.8,178.9,205,178,205z"/>
		<circle class="st0" cx="181.7" cy="200.2" r="1.7"/>
		<circle class="st0" cx="181.7" cy="213.1" r="1.7"/>
		<path class="st0" d="M170.5,127.5L170.5,127.5c-0.9,0-1.7,0.8-1.7,1.7l0,0c0,0.9,0.8,1.7,1.7,1.7l0,0l0,0c0.9,0,1.7-0.8,1.7-1.7
			l0,0C172.2,128.2,171.4,127.5,170.5,127.5z"/>
		<path class="st0" d="M170.5,140.4L170.5,140.4c-0.9,0-1.7,0.8-1.7,1.7l0,0c0,0.9,0.8,1.7,1.7,1.7l0,0c0.9,0,1.7-0.8,1.7-1.7l0,0
			C172.2,141.2,171.4,140.4,170.5,140.4z"/>
		<circle class="st0" cx="174.2" cy="135.6" r="1.7"/>
		<path class="st0" d="M170.5,153.3L170.5,153.3c-0.9,0-1.7,0.8-1.7,1.7l0,0c0,0.9,0.8,1.7,1.7,1.7l0,0c0.9,0,1.7-0.8,1.7-1.7l0,0
			C172.2,154.1,171.4,153.3,170.5,153.3z"/>
		<path class="st0" d="M174.2,146.9c-0.9,0-1.7,0.8-1.7,1.7s0.8,1.7,1.7,1.7c0.9,0,1.7-0.8,1.7-1.7
			C175.9,147.6,175.2,146.8,174.2,146.9C174.2,146.8,174.2,146.8,174.2,146.9z"/>
		<path class="st0" d="M170.5,166.2L170.5,166.2c-0.9,0-1.7,0.8-1.7,1.7l0,0c0,0.9,0.8,1.7,1.7,1.7l0,0c0.9,0,1.7-0.8,1.7-1.7l0,0
			C172.2,167,171.4,166.2,170.5,166.2z"/>
		<circle class="st0" cx="174.2" cy="161.4" r="1.7"/>
		<path class="st0" d="M170.5,179.1L170.5,179.1c-0.9,0-1.7,0.8-1.7,1.7l0,0c0,0.9,0.8,1.7,1.7,1.7l0,0c0.9,0,1.7-0.8,1.7-1.7l0,0
			C172.2,179.9,171.4,179.1,170.5,179.1z"/>
		<circle class="st0" cx="174.2" cy="174.4" r="1.7"/>
		<path class="st0" d="M170.5,192L170.5,192c-0.9,0-1.7,0.8-1.7,1.7l0,0c0,0.9,0.8,1.7,1.7,1.7l0,0l0,0c0.9,0,1.7-0.8,1.7-1.7l0,0
			C172.2,192.8,171.4,192,170.5,192z"/>
		<circle class="st0" cx="174.2" cy="187.3" r="1.7"/>
		<path class="st0" d="M170.5,205L170.5,205c-0.9,0-1.7,0.8-1.7,1.7l0,0c0,0.9,0.8,1.7,1.7,1.7l0,0c0.9,0,1.7-0.8,1.7-1.7l0,0
			C172.2,205.8,171.4,205,170.5,205z"/>
		<circle class="st0" cx="174.2" cy="200.2" r="1.7"/>
		<path class="st0" d="M163,127.5L163,127.5c-0.9,0-1.7,0.8-1.7,1.7l0,0c0,0.9,0.8,1.7,1.7,1.7l0,0c0.9,0,1.7-0.8,1.7-1.7l0,0
			C164.7,128.2,163.9,127.5,163,127.5z"/>
		<path class="st0" d="M163,140.4L163,140.4c-0.9,0-1.7,0.8-1.7,1.7l0,0c0,0.9,0.8,1.7,1.7,1.7l0,0c0.9,0,1.7-0.8,1.7-1.7l0,0
			C164.7,141.2,163.9,140.4,163,140.4z"/>
		<circle class="st0" cx="166.8" cy="135.6" r="1.7"/>
		<path class="st0" d="M163,153.3L163,153.3c-0.9,0-1.7,0.8-1.7,1.7l0,0c0,0.9,0.8,1.7,1.7,1.7l0,0c0.9,0,1.7-0.8,1.7-1.7l0,0
			C164.7,154.1,163.9,153.3,163,153.3z"/>
		<path class="st0" d="M166.8,146.9c-0.9,0-1.7,0.8-1.7,1.7s0.8,1.7,1.7,1.7s1.7-0.8,1.7-1.7v0C168.4,147.6,167.7,146.9,166.8,146.9
			z"/>
		<path class="st0" d="M163,166.2L163,166.2c-0.9,0-1.7,0.8-1.7,1.7l0,0c0,0.9,0.8,1.7,1.7,1.7l0,0c0.9,0,1.7-0.8,1.7-1.7l0,0
			C164.7,167,163.9,166.2,163,166.2z"/>
		<circle class="st0" cx="166.8" cy="161.4" r="1.7"/>
		<path class="st0" d="M163,179.1L163,179.1c-0.9,0-1.7,0.8-1.7,1.7l0,0c0,0.9,0.8,1.7,1.7,1.7l0,0c0.9,0,1.7-0.8,1.7-1.7l0,0
			C164.7,179.9,163.9,179.1,163,179.1z"/>
		<circle class="st0" cx="166.8" cy="174.4" r="1.7"/>
		<path class="st0" d="M163,192L163,192c-0.9,0-1.7,0.8-1.7,1.7l0,0c0,0.9,0.8,1.7,1.7,1.7l0,0c0.9,0,1.7-0.8,1.7-1.7l0,0
			C164.7,192.8,163.9,192,163,192z"/>
		<circle class="st0" cx="166.8" cy="187.3" r="1.7"/>
		<circle class="st0" cx="166.8" cy="200.2" r="1.7"/>
		<path class="st0" d="M155.6,127.5L155.6,127.5c-0.9,0-1.7,0.8-1.7,1.7l0,0c0,0.9,0.8,1.7,1.7,1.7l0,0c0.9,0,1.7-0.8,1.7-1.7l0,0
			C157.3,128.2,156.5,127.5,155.6,127.5z"/>
		<path class="st0" d="M159.3,121c-0.9,0-1.7,0.8-1.7,1.7s0.8,1.7,1.7,1.7c0.9,0,1.7-0.8,1.7-1.7v0C161,121.8,160.2,121,159.3,121z"
			/>
		<path class="st0" d="M155.6,140.4L155.6,140.4c-0.9,0-1.7,0.8-1.7,1.7l0,0c0,0.9,0.8,1.7,1.7,1.7l0,0c0.9,0,1.7-0.8,1.7-1.7l0,0
			C157.3,141.2,156.5,140.4,155.6,140.4z"/>
		<circle class="st0" cx="159.3" cy="135.6" r="1.7"/>
		<path class="st0" d="M155.6,153.3L155.6,153.3c-0.9,0-1.7,0.8-1.7,1.7l0,0c0,0.9,0.8,1.7,1.7,1.7l0,0c0.9,0,1.7-0.8,1.7-1.7l0,0
			C157.3,154.1,156.5,153.3,155.6,153.3z"/>
		<path class="st0" d="M159.3,146.9c-0.9,0-1.7,0.8-1.7,1.7s0.8,1.7,1.7,1.7s1.7-0.8,1.7-1.7v0C161,147.6,160.2,146.9,159.3,146.9z"
			/>
		<path class="st0" d="M155.6,166.2L155.6,166.2c-0.9,0-1.7,0.8-1.7,1.7l0,0c0,0.9,0.8,1.7,1.7,1.7l0,0c0.9,0,1.7-0.8,1.7-1.7l0,0
			C157.3,167,156.5,166.2,155.6,166.2z"/>
		<circle class="st0" cx="159.3" cy="161.4" r="1.7"/>
		<path class="st0" d="M155.6,179.1L155.6,179.1c-0.9,0-1.7,0.8-1.7,1.7l0,0c0,0.9,0.8,1.7,1.7,1.7l0,0c0.9,0,1.7-0.8,1.7-1.7l0,0
			C157.3,179.9,156.5,179.1,155.6,179.1z"/>
		<circle class="st0" cx="159.3" cy="174.4" r="1.7"/>
		<path class="st0" d="M155.6,192L155.6,192c-0.9,0-1.7,0.8-1.7,1.7l0,0c0,0.9,0.8,1.7,1.7,1.7l0,0c0.9,0,1.7-0.8,1.7-1.7l0,0
			C157.3,192.8,156.5,192,155.6,192z"/>
		<circle class="st0" cx="159.3" cy="187.3" r="1.7"/>
		<circle class="st0" cx="159.3" cy="200.2" r="1.7"/>
		<path class="st0" d="M148.1,114.6L148.1,114.6c-0.9,0-1.7,0.8-1.7,1.7l0,0c0,0.9,0.8,1.7,1.7,1.7l0,0c0.9,0,1.7-0.8,1.7-1.7l0,0
			C149.8,115.3,149.1,114.6,148.1,114.6z"/>
		<path class="st0" d="M148.1,127.5L148.1,127.5c-0.9,0-1.7,0.8-1.7,1.7l0,0c0,0.9,0.8,1.7,1.7,1.7l0,0c0.9,0,1.7-0.8,1.7-1.7l0,0
			l0,0C149.8,128.2,149.1,127.5,148.1,127.5z"/>
		<path class="st0" d="M151.9,121c-0.9,0-1.7,0.8-1.7,1.7s0.8,1.7,1.7,1.7c0.9,0,1.7-0.8,1.7-1.7v0C153.5,121.8,152.8,121,151.9,121
			z"/>
		<path class="st0" d="M148.1,140.4L148.1,140.4c-0.9,0-1.7,0.8-1.7,1.7l0,0c0,0.9,0.8,1.7,1.7,1.7l0,0c0.9,0,1.7-0.8,1.7-1.7l0,0
			C149.8,141.1,149.1,140.4,148.1,140.4z"/>
		<circle class="st0" cx="151.9" cy="135.6" r="1.7"/>
		<path class="st0" d="M148.1,153.3L148.1,153.3c-0.9,0-1.7,0.8-1.7,1.7l0,0c0,0.9,0.8,1.7,1.7,1.7l0,0c0.9,0,1.7-0.8,1.7-1.7l0,0
			C149.8,154.1,149.1,153.3,148.1,153.3z"/>
		<path class="st0" d="M151.9,146.9c-0.9,0-1.7,0.8-1.7,1.7s0.8,1.7,1.7,1.7s1.7-0.8,1.7-1.7v0C153.5,147.6,152.8,146.9,151.9,146.9
			z"/>
		<path class="st0" d="M148.1,166.2L148.1,166.2c-0.9,0-1.7,0.8-1.7,1.7l0,0c0,0.9,0.8,1.7,1.7,1.7l0,0c0.9,0,1.7-0.8,1.7-1.7l0,0
			C149.8,167,149.1,166.2,148.1,166.2z"/>
		<circle class="st0" cx="151.9" cy="161.4" r="1.7"/>
		<path class="st0" d="M148.1,179.1L148.1,179.1c-0.9,0-1.7,0.8-1.7,1.7l0,0c0,0.9,0.8,1.7,1.7,1.7l0,0c0.9,0,1.7-0.8,1.7-1.7l0,0
			C149.8,179.9,149.1,179.1,148.1,179.1z"/>
		<circle class="st0" cx="151.9" cy="174.4" r="1.7"/>
		<path class="st0" d="M148.1,192L148.1,192c-0.9,0-1.7,0.8-1.7,1.7l0,0c0,0.9,0.8,1.7,1.7,1.7l0,0c0.9,0,1.7-0.8,1.7-1.7l0,0
			C149.8,192.8,149.1,192,148.1,192z"/>
		<circle class="st0" cx="151.9" cy="187.3" r="1.7"/>
		<path class="st0" d="M140.7,114.6L140.7,114.6c-0.9,0-1.7,0.8-1.7,1.7l0,0c0,0.9,0.8,1.7,1.7,1.7l0,0c0.9,0,1.7-0.8,1.7-1.7l0,0
			C142.4,115.3,141.6,114.6,140.7,114.6z"/>
		<path class="st0" d="M140.7,127.5L140.7,127.5c-0.9,0-1.7,0.8-1.7,1.7l0,0c0,0.9,0.8,1.7,1.7,1.7l0,0c0.9,0,1.7-0.8,1.7-1.7l0,0
			C142.4,128.2,141.6,127.5,140.7,127.5z"/>
		<path class="st0" d="M144.4,121c-0.9,0-1.7,0.8-1.7,1.7s0.8,1.7,1.7,1.7c0.9,0,1.7-0.8,1.7-1.7v0C146.1,121.8,145.3,121,144.4,121
			z"/>
		<path class="st0" d="M140.7,140.4L140.7,140.4c-0.9,0-1.7,0.8-1.7,1.7l0,0c0,0.9,0.8,1.7,1.7,1.7l0,0c0.9,0,1.7-0.8,1.7-1.7l0,0
			C142.4,141.2,141.6,140.4,140.7,140.4z"/>
		<path class="st0" d="M144.4,133.9c-0.9,0-1.7,0.8-1.7,1.7s0.8,1.7,1.7,1.7s1.7-0.8,1.7-1.7v0C146.1,134.7,145.3,133.9,144.4,133.9
			z"/>
		<path class="st0" d="M140.7,153.3L140.7,153.3c-0.9,0-1.7,0.8-1.7,1.7c0,0,0,0,0,0l0,0c0,0.9,0.8,1.7,1.7,1.7l0,0
			c0.9,0,1.7-0.8,1.7-1.7l0,0C142.4,154.1,141.6,153.3,140.7,153.3C140.7,153.3,140.7,153.3,140.7,153.3z"/>
		<path class="st0" d="M144.4,146.9c-0.9,0-1.7,0.8-1.7,1.7s0.8,1.7,1.7,1.7s1.7-0.8,1.7-1.7v0C146.1,147.6,145.3,146.9,144.4,146.9
			z"/>
		<path class="st0" d="M140.7,166.2L140.7,166.2c-0.9,0-1.7,0.8-1.7,1.7l0,0c0,0.9,0.8,1.7,1.7,1.7l0,0c0.9,0,1.7-0.8,1.7-1.7l0,0
			C142.4,167,141.6,166.2,140.7,166.2z"/>
		<path class="st0" d="M144.4,159.8c-0.9,0-1.7,0.7-1.7,1.7s0.7,1.7,1.7,1.7s1.7-0.7,1.7-1.7c0,0,0,0,0,0
			C146.1,160.5,145.3,159.8,144.4,159.8z"/>
		<path class="st0" d="M140.7,179.1L140.7,179.1c-0.9,0-1.7,0.8-1.7,1.7l0,0c0,0.9,0.8,1.7,1.7,1.7l0,0c0.9,0,1.7-0.8,1.7-1.7l0,0
			C142.4,179.9,141.6,179.1,140.7,179.1z"/>
		<path class="st0" d="M144.4,172.7c-0.9,0-1.7,0.7-1.7,1.7s0.7,1.7,1.7,1.7c0.9,0,1.7-0.7,1.7-1.7c0,0,0,0,0,0
			C146.1,173.4,145.3,172.7,144.4,172.7z"/>
		<path class="st0" d="M144.4,185.6c-0.9,0-1.7,0.8-1.7,1.7s0.8,1.7,1.7,1.7s1.7-0.8,1.7-1.7v0C146.1,186.3,145.3,185.6,144.4,185.6
			z"/>
		<path class="st0" d="M133.2,114.6L133.2,114.6c-0.9,0-1.7,0.8-1.7,1.7l0,0c0,0.9,0.8,1.7,1.7,1.7l0,0c0.9,0,1.7-0.8,1.7-1.7l0,0
			C134.9,115.3,134.1,114.6,133.2,114.6z"/>
		<circle class="st0" cx="136.9" cy="109.8" r="1.7"/>
		<path class="st0" d="M133.2,127.5L133.2,127.5c-0.9,0-1.7,0.8-1.7,1.7l0,0c0,0.9,0.8,1.7,1.7,1.7l0,0c0.9,0,1.7-0.8,1.7-1.7l0,0
			l0,0C134.9,128.2,134.1,127.5,133.2,127.5z"/>
		<path class="st0" d="M137,121c-0.9,0-1.7,0.8-1.7,1.7s0.8,1.7,1.7,1.7c0.9,0,1.7-0.8,1.7-1.7v0C138.7,121.8,137.9,121,137,121z"/>
		<path class="st0" d="M133.2,140.4L133.2,140.4c-0.9,0-1.7,0.8-1.7,1.7l0,0c0,0.9,0.8,1.7,1.7,1.7l0,0c0.9,0,1.7-0.8,1.7-1.7l0,0
			C134.9,141.1,134.2,140.4,133.2,140.4L133.2,140.4z"/>
		<circle class="st0" cx="136.9" cy="135.6" r="1.7"/>
		<path class="st0" d="M133.2,153.3L133.2,153.3c-0.9,0-1.7,0.8-1.7,1.7l0,0c0,0.9,0.8,1.7,1.7,1.7l0,0c0.9,0,1.7-0.8,1.7-1.7l0,0
			C134.9,154.1,134.1,153.3,133.2,153.3z"/>
		<path class="st0" d="M137,146.9c-0.9,0-1.7,0.8-1.7,1.7s0.8,1.7,1.7,1.7s1.7-0.8,1.7-1.7v0C138.7,147.6,137.9,146.9,137,146.9z"/>
		<path class="st0" d="M133.2,166.2L133.2,166.2c-0.9,0-1.7,0.8-1.7,1.7l0,0c0,0.9,0.8,1.7,1.7,1.7l0,0c0.9,0,1.7-0.8,1.7-1.7l0,0
			C134.9,167,134.1,166.2,133.2,166.2z"/>
		<circle class="st0" cx="136.9" cy="161.4" r="1.7"/>
		<path class="st0" d="M133.2,179.1L133.2,179.1c-0.9,0-1.7,0.8-1.7,1.7l0,0c0,0.9,0.8,1.7,1.7,1.7l0,0c0.9,0,1.7-0.8,1.7-1.7l0,0
			C134.9,179.9,134.1,179.1,133.2,179.1z"/>
		<circle class="st0" cx="136.9" cy="174.4" r="1.7"/>
		<circle class="st0" cx="136.9" cy="187.3" r="1.7"/>
		<path class="st0" d="M125.8,101.7L125.8,101.7c-0.9,0-1.7,0.8-1.7,1.7l0,0l0,0c0,0.9,0.8,1.7,1.7,1.7l0,0l0,0
			c0.9,0,1.7-0.8,1.7-1.7l0,0l0,0C127.4,102.4,126.7,101.7,125.8,101.7L125.8,101.7z"/>
		<path class="st0" d="M125.8,114.6L125.8,114.6c-0.9,0-1.7,0.8-1.7,1.7l0,0l0,0c0,0.9,0.8,1.7,1.7,1.7l0,0l0,0
			c0.9,0,1.7-0.8,1.7-1.7l0,0l0,0C127.4,115.3,126.7,114.6,125.8,114.6L125.8,114.6z"/>
		<circle class="st0" cx="129.5" cy="109.8" r="1.7"/>
		<path class="st0" d="M125.8,127.5L125.8,127.5c-0.9,0-1.7,0.8-1.7,1.7l0,0l0,0c0,0.9,0.8,1.7,1.7,1.7l0,0c0.9,0,1.7-0.8,1.7-1.7
			l0,0C127.4,128.2,126.7,127.5,125.8,127.5L125.8,127.5z"/>
		<path class="st0" d="M129.5,121c-0.9,0-1.7,0.8-1.7,1.7c0,0.9,0.8,1.7,1.7,1.7c0.9,0,1.7-0.8,1.7-1.7v0
			C131.2,121.8,130.4,121,129.5,121z"/>
		<path class="st0" d="M125.8,140.4L125.8,140.4c-0.9,0-1.7,0.8-1.7,1.7l0,0c0,0.9,0.8,1.7,1.7,1.7l0,0c0.9,0,1.7-0.8,1.7-1.7l0,0
			C127.5,141.2,126.7,140.4,125.8,140.4z"/>
		<circle class="st0" cx="129.5" cy="135.6" r="1.7"/>
		<path class="st0" d="M125.8,153.3L125.8,153.3c-0.9,0-1.7,0.8-1.7,1.7l0,0c0,0.9,0.8,1.7,1.7,1.7l0,0c0.9,0,1.7-0.8,1.7-1.7l0,0
			C127.4,154.1,126.7,153.3,125.8,153.3z"/>
		<path class="st0" d="M129.5,146.9c-0.9,0-1.7,0.8-1.7,1.7c0,0.9,0.8,1.7,1.7,1.7s1.7-0.8,1.7-1.7v0
			C131.2,147.6,130.4,146.9,129.5,146.9z"/>
		<path class="st0" d="M125.8,166.2L125.8,166.2c-0.9,0-1.7,0.8-1.7,1.7l0,0c0,0.9,0.8,1.7,1.7,1.7l0,0c0.9,0,1.7-0.8,1.7-1.7l0,0
			C127.4,167,126.7,166.2,125.8,166.2z"/>
		<circle class="st0" cx="129.5" cy="161.4" r="1.7"/>
		<path class="st0" d="M125.8,179.1L125.8,179.1c-0.9,0-1.7,0.8-1.7,1.7l0,0c0,0.9,0.8,1.7,1.7,1.7l0,0c0.9,0,1.7-0.8,1.7-1.7l0,0
			C127.4,179.9,126.7,179.1,125.8,179.1z"/>
		<circle class="st0" cx="129.5" cy="174.4" r="1.7"/>
		<path class="st0" d="M118.3,101.7L118.3,101.7c-0.9,0-1.7,0.8-1.7,1.7l0,0l0,0c0,0.9,0.8,1.7,1.7,1.7l0,0l0,0
			c0.9,0,1.7-0.8,1.7-1.7l0,0C120,102.4,119.2,101.7,118.3,101.7z"/>
		<path class="st0" d="M118.3,114.6L118.3,114.6c-0.9,0-1.7,0.8-1.7,1.7l0,0l0,0c0,0.9,0.8,1.7,1.7,1.7l0,0l0,0
			c0.9,0,1.7-0.8,1.7-1.7l0,0C120,115.3,119.2,114.6,118.3,114.6z"/>
		<circle class="st0" cx="122" cy="109.8" r="1.7"/>
		<path class="st0" d="M118.3,127.5L118.3,127.5c-0.9,0-1.7,0.8-1.7,1.7l0,0l0,0c0,0.9,0.8,1.7,1.7,1.7l0,0c0.9,0,1.7-0.8,1.7-1.7
			l0,0l0,0C120,128.2,119.2,127.5,118.3,127.5z"/>
		<path class="st0" d="M122,121c-0.9,0-1.7,0.8-1.7,1.7s0.8,1.7,1.7,1.7s1.7-0.8,1.7-1.7S122.9,121,122,121L122,121z"/>
		<path class="st0" d="M118.3,140.4L118.3,140.4c-0.9,0-1.7,0.8-1.7,1.7l0,0c0,0.9,0.8,1.7,1.7,1.7l0,0c0.9,0,1.7-0.8,1.7-1.7l0,0
			C120,141.1,119.2,140.4,118.3,140.4C118.3,140.4,118.3,140.4,118.3,140.4z"/>
		<circle class="st0" cx="122" cy="135.6" r="1.7"/>
		<path class="st0" d="M118.3,153.3L118.3,153.3c-0.9,0-1.7,0.8-1.7,1.7l0,0c0,0.9,0.8,1.7,1.7,1.7l0,0c0.9,0,1.7-0.7,1.7-1.7l0,0
			C120,154.1,119.2,153.3,118.3,153.3C118.3,153.3,118.3,153.3,118.3,153.3z"/>
		<path class="st0" d="M122,146.9c-0.9,0-1.7,0.8-1.7,1.7c0,0.9,0.8,1.7,1.7,1.7s1.7-0.8,1.7-1.7l0,0
			C123.7,147.6,122.9,146.9,122,146.9z"/>
		<path class="st0" d="M118.3,166.2L118.3,166.2c-0.9,0-1.7,0.8-1.7,1.7l0,0c0,0.9,0.8,1.7,1.7,1.7l0,0c0.9,0,1.7-0.8,1.7-1.7l0,0
			C120,167,119.2,166.2,118.3,166.2z"/>
		<circle class="st0" cx="122" cy="161.4" r="1.7"/>
		<circle class="st0" cx="122" cy="174.4" r="1.7"/>
		<path class="st0" d="M110.9,101.7L110.9,101.7c-0.9,0-1.7,0.8-1.7,1.7l0,0l0,0c0,0.9,0.8,1.7,1.7,1.7l0,0l0,0
			c0.9,0,1.7-0.8,1.7-1.7l0,0l0,0C112.5,102.4,111.8,101.7,110.9,101.7L110.9,101.7z"/>
		<path class="st0" d="M114.6,95.2c-0.9,0-1.7,0.7-1.7,1.7c0,0.9,0.7,1.7,1.7,1.7c0.9,0,1.7-0.7,1.7-1.7c0,0,0,0,0,0
			C116.3,96,115.5,95.2,114.6,95.2z"/>
		<path class="st0" d="M110.9,114.6L110.9,114.6c-0.9,0-1.7,0.8-1.7,1.7l0,0l0,0c0,0.9,0.8,1.7,1.7,1.7l0,0l0,0
			c0.9,0,1.7-0.8,1.7-1.7l0,0l0,0C112.5,115.3,111.8,114.6,110.9,114.6L110.9,114.6z"/>
		<circle class="st0" cx="114.6" cy="109.8" r="1.7"/>
		<path class="st0" d="M110.9,127.5L110.9,127.5c-0.9,0-1.7,0.8-1.7,1.7l0,0l0,0c0,0.9,0.8,1.7,1.7,1.7l0,0c0.9,0,1.7-0.8,1.7-1.7
			l0,0C112.5,128.2,111.8,127.5,110.9,127.5L110.9,127.5z"/>
		<path class="st0" d="M114.6,121c-0.9,0-1.7,0.8-1.7,1.7s0.8,1.7,1.7,1.7s1.7-0.8,1.7-1.7C116.3,121.8,115.5,121,114.6,121z"/>
		<path class="st0" d="M110.9,140.4L110.9,140.4c-0.9,0-1.7,0.8-1.7,1.7l0,0c0,0.9,0.8,1.7,1.7,1.7l0,0c0.9,0,1.7-0.8,1.7-1.7l0,0
			C112.5,141.2,111.8,140.4,110.9,140.4z"/>
		<circle class="st0" cx="114.6" cy="135.6" r="1.7"/>
		<path class="st0" d="M110.9,153.3L110.9,153.3c-0.9,0-1.7,0.8-1.7,1.7l0,0c0,0.9,0.8,1.7,1.7,1.7l0,0c0.9,0,1.7-0.8,1.7-1.7l0,0
			C112.5,154.1,111.8,153.3,110.9,153.3z"/>
		<path class="st0" d="M114.6,146.9c-0.9,0-1.7,0.8-1.7,1.7c0,0.9,0.8,1.7,1.7,1.7s1.7-0.8,1.7-1.7l0,0
			C116.3,147.6,115.5,146.9,114.6,146.9z"/>
		<path class="st0" d="M110.9,166.2L110.9,166.2c-0.9,0-1.7,0.8-1.7,1.7l0,0c0,0.9,0.8,1.7,1.7,1.7l0,0c0.9,0,1.7-0.8,1.7-1.7l0,0
			C112.5,167,111.8,166.2,110.9,166.2z"/>
		<circle class="st0" cx="114.6" cy="161.4" r="1.7"/>
		<circle class="st0" cx="114.6" cy="174.4" r="1.7"/>
		<path class="st0" d="M103.4,101.7L103.4,101.7c-0.9,0-1.7,0.8-1.7,1.7l0,0l0,0c0,0.9,0.8,1.7,1.7,1.7l0,0c0.9,0,1.7-0.8,1.7-1.7
			l0,0l0,0C105.1,102.4,104.3,101.7,103.4,101.7z"/>
		<path class="st0" d="M107.1,95.2c-0.9,0-1.7,0.7-1.7,1.7c0,0.9,0.7,1.7,1.7,1.7c0.9,0,1.7-0.7,1.7-1.7c0,0,0,0,0,0
			C108.8,96,108.1,95.2,107.1,95.2L107.1,95.2z"/>
		<path class="st0" d="M103.4,114.6L103.4,114.6c-0.9,0-1.7,0.8-1.7,1.7l0,0l0,0c0,0.9,0.8,1.7,1.7,1.7l0,0l0,0
			c0.9,0,1.7-0.8,1.7-1.7l0,0l0,0C105.1,115.3,104.3,114.6,103.4,114.6L103.4,114.6z"/>
		<circle class="st0" cx="107.1" cy="109.8" r="1.7"/>
		<path class="st0" d="M103.4,127.5L103.4,127.5c-0.9,0-1.7,0.8-1.7,1.7l0,0l0,0c0,0.9,0.8,1.7,1.7,1.7l0,0c0.9,0,1.7-0.8,1.7-1.7
			l0,0C105.1,128.2,104.3,127.5,103.4,127.5L103.4,127.5z"/>
		<path class="st0" d="M107.1,121c-0.9,0-1.7,0.8-1.7,1.7s0.8,1.7,1.7,1.7s1.7-0.8,1.7-1.7S108.1,121,107.1,121L107.1,121z"/>
		<path class="st0" d="M103.4,140.4L103.4,140.4c-0.9,0-1.7,0.8-1.7,1.7l0,0c0,0.9,0.8,1.7,1.7,1.7l0,0c0.9,0,1.7-0.8,1.7-1.7l0,0
			C105.1,141.2,104.3,140.4,103.4,140.4z"/>
		<circle class="st0" cx="107.1" cy="135.6" r="1.7"/>
		<path class="st0" d="M103.4,153.3L103.4,153.3c-0.9,0-1.7,0.8-1.7,1.7l0,0c0,0.9,0.8,1.7,1.7,1.7l0,0c0.9,0,1.7-0.8,1.7-1.7l0,0
			C105.1,154.1,104.3,153.3,103.4,153.3z"/>
		<path class="st0" d="M107.1,146.9c-0.9,0-1.7,0.8-1.7,1.7c0,0.9,0.8,1.7,1.7,1.7s1.7-0.8,1.7-1.7l0,0
			C108.8,147.6,108.1,146.9,107.1,146.9z"/>
		<path class="st0" d="M103.4,166.2L103.4,166.2c-0.9,0-1.7,0.8-1.7,1.7l0,0c0,0.9,0.8,1.7,1.7,1.7l0,0c0.9,0,1.7-0.8,1.7-1.7l0,0
			C105.1,167,104.3,166.2,103.4,166.2z"/>
		<circle class="st0" cx="107.1" cy="161.4" r="1.7"/>
		<path class="st0" d="M96,101.7L96,101.7c-0.9,0-1.7,0.8-1.7,1.7l0,0l0,0c0,0.9,0.8,1.7,1.7,1.7l0,0c0.9,0,1.7-0.8,1.7-1.7l0,0l0,0
			C97.7,102.4,96.9,101.7,96,101.7z"/>
		<path class="st0" d="M99.7,95.2c-0.9,0-1.7,0.7-1.7,1.7c0,0.9,0.7,1.7,1.7,1.7c0.9,0,1.7-0.7,1.7-1.7c0,0,0,0,0,0
			C101.4,96,100.6,95.2,99.7,95.2L99.7,95.2z"/>
		<path class="st0" d="M96,114.6L96,114.6c-0.9,0-1.7,0.8-1.7,1.7l0,0l0,0c0,0.9,0.8,1.7,1.7,1.7l0,0l0,0c0.9,0,1.7-0.8,1.7-1.7l0,0
			l0,0C97.7,115.3,96.9,114.6,96,114.6L96,114.6z"/>
		<path class="st0" d="M99.7,108.1c-0.9,0-1.7,0.7-1.7,1.7c0,0.9,0.7,1.7,1.7,1.7c0.9,0,1.7-0.7,1.7-1.7c0,0,0,0,0,0
			C101.4,108.9,100.6,108.1,99.7,108.1z"/>
		<path class="st0" d="M96,127.5L96,127.5c-0.9,0-1.7,0.8-1.7,1.7l0,0l0,0c0,0.9,0.8,1.7,1.7,1.7l0,0c0.9,0,1.7-0.8,1.7-1.7l0,0
			C97.7,128.2,96.9,127.5,96,127.5L96,127.5z"/>
		<path class="st0" d="M99.7,121c-0.9,0-1.7,0.8-1.7,1.7s0.8,1.7,1.7,1.7s1.7-0.8,1.7-1.7S100.6,121,99.7,121L99.7,121z"/>
		<path class="st0" d="M96,140.4L96,140.4c-0.9,0-1.7,0.8-1.7,1.7l0,0c0,0.9,0.8,1.7,1.7,1.7l0,0c0.9,0,1.7-0.8,1.7-1.7l0,0
			C97.7,141.2,96.9,140.4,96,140.4z"/>
		<path class="st0" d="M99.7,133.9c-0.9,0-1.7,0.8-1.7,1.7c0,0.9,0.8,1.7,1.7,1.7s1.7-0.8,1.7-1.7l0,0
			C101.4,134.7,100.6,133.9,99.7,133.9z"/>
		<path class="st0" d="M96,153.3L96,153.3c-0.9,0-1.7,0.7-1.7,1.6c0,0,0,0,0,0.1l0,0c0,0.9,0.8,1.7,1.7,1.7c0,0,0,0,0,0l0,0
			c0.9,0,1.6-0.8,1.6-1.7l0,0C97.6,154.1,96.9,153.3,96,153.3z"/>
		<path class="st0" d="M99.7,146.9c-0.9,0-1.7,0.8-1.7,1.7c0,0.9,0.8,1.7,1.7,1.7s1.7-0.8,1.7-1.7l0,0
			C101.4,147.6,100.6,146.9,99.7,146.9z"/>
		<path class="st0" d="M99.7,159.8c-0.9,0-1.7,0.7-1.7,1.7c0,0.9,0.7,1.7,1.7,1.7c0.9,0,1.7-0.7,1.7-1.7c0,0,0,0,0,0
			C101.4,160.5,100.6,159.8,99.7,159.8z"/>
		<path class="st0" d="M88.5,101.7L88.5,101.7c-0.9,0-1.7,0.8-1.7,1.7l0,0c0,0.9,0.8,1.7,1.7,1.7l0,0c0.9,0,1.7-0.8,1.7-1.7l0,0l0,0
			C90.2,102.4,89.4,101.7,88.5,101.7z"/>
		<path class="st0" d="M92.2,95.2c-0.9,0-1.7,0.7-1.7,1.7c0,0.9,0.7,1.7,1.7,1.7c0.9,0,1.7-0.7,1.7-1.7c0,0,0,0,0,0
			C93.9,96,93.1,95.2,92.2,95.2L92.2,95.2z"/>
		<path class="st0" d="M88.5,114.6L88.5,114.6c-0.9,0-1.7,0.8-1.7,1.7l0,0c0,0.9,0.8,1.7,1.7,1.7l0,0c0.9,0,1.7-0.8,1.7-1.7l0,0l0,0
			C90.2,115.3,89.4,114.6,88.5,114.6L88.5,114.6z"/>
		<path class="st0" d="M92.2,108.1c-0.9,0-1.7,0.7-1.7,1.7c0,0.9,0.7,1.7,1.7,1.7c0.9,0,1.7-0.7,1.7-1.7c0,0,0,0,0,0
			C93.9,108.9,93.1,108.1,92.2,108.1z"/>
		<path class="st0" d="M88.5,127.5L88.5,127.5c-0.9,0-1.7,0.8-1.7,1.7l0,0c0,0.9,0.8,1.7,1.7,1.7c0,0,0,0,0,0l0,0
			c0.9,0,1.7-0.8,1.7-1.7l0,0C90.2,128.2,89.4,127.5,88.5,127.5L88.5,127.5z"/>
		<path class="st0" d="M92.2,121c-0.9,0-1.7,0.8-1.7,1.7s0.8,1.7,1.7,1.7s1.7-0.8,1.7-1.7S93.1,121,92.2,121L92.2,121z"/>
		<path class="st0" d="M88.5,140.4L88.5,140.4c-0.9,0-1.7,0.8-1.7,1.7l0,0l0,0c0,0.9,0.8,1.7,1.7,1.7l0,0c0.9,0,1.7-0.8,1.7-1.7l0,0
			C90.2,141.2,89.4,140.4,88.5,140.4z"/>
		<path class="st0" d="M92.2,133.9c-0.9,0-1.7,0.8-1.7,1.7c0,0.9,0.8,1.7,1.7,1.7s1.7-0.8,1.7-1.7l0,0
			C93.9,134.7,93.1,133.9,92.2,133.9z"/>
		<path class="st0" d="M88.5,153.3L88.5,153.3c-0.9,0-1.7,0.8-1.7,1.7l0,0l0,0c0,0.9,0.8,1.7,1.7,1.7l0,0c0.9,0,1.7-0.8,1.7-1.7l0,0
			C90.2,154.1,89.4,153.3,88.5,153.3C88.5,153.3,88.5,153.3,88.5,153.3z"/>
		<path class="st0" d="M92.2,146.9c-0.9,0-1.7,0.8-1.7,1.7c0,0.9,0.8,1.7,1.7,1.7s1.7-0.8,1.7-1.7l0,0
			C93.9,147.6,93.1,146.9,92.2,146.9z"/>
		<path class="st0" d="M92.2,159.8c-0.9,0-1.7,0.7-1.7,1.7c0,0.9,0.7,1.7,1.7,1.7c0.9,0,1.7-0.7,1.7-1.7c0,0,0,0,0,0
			C93.9,160.5,93.1,159.8,92.2,159.8z"/>
		<path class="st0" d="M81,101.7L81,101.7c-0.9,0-1.7,0.8-1.7,1.7l0,0l0,0c0,0.9,0.8,1.7,1.7,1.7l0,0c0.9,0,1.7-0.8,1.7-1.7l0,0l0,0
			C82.7,102.4,81.9,101.7,81,101.7z"/>
		<path class="st0" d="M84.8,95.2c-0.9,0-1.7,0.7-1.7,1.7c0,0.9,0.7,1.7,1.7,1.7c0.9,0,1.7-0.7,1.7-1.7c0,0,0,0,0,0
			C86.4,96,85.7,95.2,84.8,95.2L84.8,95.2z"/>
		<path class="st0" d="M81,114.6L81,114.6c-0.9,0-1.7,0.8-1.7,1.7l0,0l0,0c0,0.9,0.8,1.7,1.7,1.7l0,0l0,0c0.9,0,1.7-0.8,1.7-1.7l0,0
			l0,0C82.7,115.3,81.9,114.6,81,114.6L81,114.6z"/>
		<circle class="st0" cx="84.8" cy="109.8" r="1.7"/>
		<path class="st0" d="M81,127.5L81,127.5c-0.9,0-1.7,0.8-1.7,1.7l0,0l0,0c0,0.9,0.8,1.7,1.7,1.7l0,0c0.9,0,1.7-0.8,1.7-1.7l0,0
			C82.7,128.2,81.9,127.5,81,127.5L81,127.5z"/>
		<path class="st0" d="M84.8,121c-0.9,0-1.7,0.8-1.7,1.7s0.8,1.7,1.7,1.7s1.7-0.8,1.7-1.7S85.7,121,84.8,121L84.8,121z"/>
		<path class="st0" d="M81,140.4L81,140.4c-0.9,0-1.7,0.8-1.7,1.7l0,0c0,0.9,0.8,1.7,1.7,1.7l0,0c0.9,0,1.7-0.8,1.7-1.7l0,0
			C82.7,141.2,81.9,140.4,81,140.4z"/>
		<circle class="st0" cx="84.8" cy="135.6" r="1.7"/>
		<path class="st0" d="M81,153.3L81,153.3c-0.9,0-1.6,0.8-1.6,1.7l0,0c0,0.9,0.7,1.6,1.6,1.7l0,0c0.9,0,1.7-0.7,1.7-1.6c0,0,0,0,0,0
			l0,0C82.7,154.1,82,153.3,81,153.3C81,153.3,81,153.3,81,153.3z"/>
		<path class="st0" d="M84.8,146.9c-0.9,0-1.7,0.8-1.7,1.7c0,0.9,0.8,1.7,1.7,1.7s1.7-0.8,1.7-1.7l0,0
			C86.4,147.6,85.7,146.9,84.8,146.9z"/>
		<path class="st0" d="M73.6,101.7L73.6,101.7c-0.9,0-1.7,0.8-1.7,1.7l0,0c0,0.9,0.8,1.7,1.7,1.7l0,0c0.9,0,1.7-0.8,1.7-1.7l0,0l0,0
			C75.3,102.4,74.5,101.7,73.6,101.7z"/>
		<path class="st0" d="M77.3,95.2c-0.9,0.1-1.6,0.9-1.6,1.8c0.1,0.8,0.7,1.5,1.6,1.6c0.9,0.1,1.7-0.6,1.8-1.6s-0.6-1.7-1.6-1.8
			C77.5,95.2,77.4,95.2,77.3,95.2z"/>
		<path class="st0" d="M73.6,114.6L73.6,114.6c-0.9,0-1.7,0.8-1.7,1.7l0,0c0,0.9,0.8,1.7,1.7,1.7l0,0c0.9,0,1.7-0.8,1.7-1.7l0,0l0,0
			C75.3,115.3,74.5,114.6,73.6,114.6L73.6,114.6z"/>
		<circle class="st0" cx="77.3" cy="109.8" r="1.7"/>
		<path class="st0" d="M73.6,127.5L73.6,127.5c-0.9,0-1.7,0.8-1.7,1.7l0,0c0,0.9,0.8,1.7,1.7,1.7c0,0,0,0,0,0l0,0
			c0.9,0,1.7-0.8,1.7-1.7l0,0C75.3,128.2,74.5,127.5,73.6,127.5L73.6,127.5z"/>
		<path class="st0" d="M77.3,121c-0.9,0-1.7,0.8-1.7,1.7c0,0.9,0.8,1.7,1.7,1.7c0.9,0,1.7-0.7,1.7-1.6C79,121.8,78.3,121,77.3,121
			C77.3,121,77.3,121,77.3,121z"/>
		<path class="st0" d="M73.6,140.4L73.6,140.4c-0.9,0-1.7,0.8-1.7,1.7l0,0l0,0c0,0.9,0.8,1.7,1.7,1.7l0,0c0.9,0,1.7-0.8,1.7-1.7l0,0
			C75.3,141.2,74.5,140.4,73.6,140.4z"/>
		<circle class="st0" cx="77.3" cy="135.6" r="1.7"/>
		<path class="st0" d="M77.3,146.9c-0.9,0-1.7,0.8-1.7,1.7s0.8,1.7,1.7,1.7c0.9,0,1.7-0.8,1.7-1.7C79,147.6,78.2,146.8,77.3,146.9
			C77.3,146.8,77.3,146.8,77.3,146.9z"/>
		<path class="st0" d="M66.1,101.7L66.1,101.7c-0.9,0-1.7,0.8-1.7,1.7l0,0l0,0c0,0.9,0.8,1.7,1.7,1.7l0,0c0.9,0,1.7-0.8,1.7-1.7l0,0
			l0,0C67.8,102.4,67.1,101.7,66.1,101.7z"/>
		<path class="st0" d="M69.9,95.2c-0.9,0-1.7,0.7-1.7,1.7c0,0.9,0.7,1.7,1.7,1.7c0.9,0,1.7-0.7,1.7-1.7c0,0,0,0,0,0
			C71.5,96,70.8,95.2,69.9,95.2L69.9,95.2z"/>
		<path class="st0" d="M66.1,114.6L66.1,114.6c-0.9,0-1.7,0.8-1.7,1.7l0,0l0,0c0,0.9,0.8,1.7,1.7,1.7l0,0l0,0c0.9,0,1.7-0.8,1.7-1.7
			l0,0l0,0C67.8,115.3,67.1,114.6,66.1,114.6L66.1,114.6z"/>
		<circle class="st0" cx="69.9" cy="109.8" r="1.7"/>
		<path class="st0" d="M66.1,127.5L66.1,127.5c-0.9,0-1.7,0.8-1.7,1.7l0,0l0,0c0,0.9,0.8,1.7,1.7,1.7l0,0c0.9,0,1.7-0.8,1.7-1.7l0,0
			C67.8,128.2,67.1,127.5,66.1,127.5L66.1,127.5z"/>
		<path class="st0" d="M69.9,121c-0.9,0-1.7,0.8-1.7,1.7s0.8,1.7,1.7,1.7s1.7-0.8,1.7-1.7S70.8,121,69.9,121L69.9,121z"/>
		<path class="st0" d="M66.1,140.4L66.1,140.4c-0.9,0-1.7,0.8-1.7,1.7l0,0c0,0.9,0.8,1.7,1.7,1.7l0,0c0.9,0,1.7-0.8,1.7-1.7l0,0
			C67.8,141.2,67.1,140.4,66.1,140.4z"/>
		<circle class="st0" cx="69.9" cy="135.6" r="1.7"/>
		<path class="st0" d="M69.9,146.9c-0.9,0-1.7,0.8-1.7,1.7c0,0.9,0.8,1.7,1.7,1.7s1.7-0.8,1.7-1.7l0,0
			C71.5,147.6,70.8,146.9,69.9,146.9z"/>
		<path class="st0" d="M58.7,101.7L58.7,101.7c-0.9,0-1.7,0.8-1.7,1.7l0,0c0,0.9,0.8,1.7,1.7,1.7l0,0c0.9,0,1.7-0.8,1.7-1.7l0,0l0,0
			C60.3,102.4,59.6,101.7,58.7,101.7z"/>
		<path class="st0" d="M62.4,95.2c-0.9,0.1-1.6,0.9-1.6,1.8c0.1,0.8,0.7,1.5,1.6,1.6c0.9,0.1,1.7-0.6,1.8-1.6s-0.6-1.7-1.6-1.8
			C62.6,95.2,62.5,95.2,62.4,95.2z"/>
		<path class="st0" d="M58.7,114.6L58.7,114.6c-0.9,0-1.7,0.8-1.7,1.7l0,0c0,0.9,0.8,1.7,1.7,1.7l0,0c0.9,0,1.7-0.8,1.7-1.7l0,0l0,0
			C60.4,115.3,59.6,114.6,58.7,114.6C58.7,114.6,58.7,114.6,58.7,114.6z"/>
		<circle class="st0" cx="62.4" cy="109.8" r="1.7"/>
		<path class="st0" d="M58.7,127.5L58.7,127.5c-0.9,0-1.7,0.8-1.7,1.7l0,0c0,0.9,0.8,1.7,1.7,1.7l0,0l0,0c0.9,0,1.7-0.8,1.7-1.7l0,0
			C60.4,128.2,59.6,127.5,58.7,127.5C58.7,127.5,58.7,127.5,58.7,127.5z"/>
		<path class="st0" d="M62.4,121c-0.9,0-1.7,0.8-1.7,1.7c0,0.9,0.8,1.7,1.7,1.7c0.9,0,1.7-0.8,1.7-1.7C64.1,121.8,63.3,121,62.4,121
			C62.4,121,62.4,121,62.4,121z"/>
		<path class="st0" d="M58.7,140.4L58.7,140.4c-0.9,0-1.7,0.8-1.7,1.7l0,0c0,0.9,0.8,1.7,1.7,1.7l0,0c0.9,0,1.7-0.8,1.7-1.7l0,0
			C60.4,141.1,59.6,140.4,58.7,140.4L58.7,140.4z"/>
		<circle class="st0" cx="62.4" cy="135.6" r="1.7"/>
		<path class="st0" d="M51.2,101.7L51.2,101.7c-0.9,0-1.7,0.8-1.7,1.7l0,0l0,0c0,0.9,0.8,1.7,1.7,1.7l0,0c0.9,0,1.7-0.8,1.7-1.7l0,0
			l0,0C52.9,102.4,52.1,101.7,51.2,101.7z"/>
		<path class="st0" d="M51.2,114.6L51.2,114.6c-0.9,0-1.7,0.8-1.7,1.7l0,0l0,0c0,0.9,0.8,1.7,1.7,1.7l0,0l0,0c0.9,0,1.7-0.8,1.7-1.7
			l0,0l0,0C52.9,115.3,52.1,114.6,51.2,114.6L51.2,114.6z"/>
		<circle class="st0" cx="55" cy="109.8" r="1.7"/>
		<path class="st0" d="M51.2,127.5L51.2,127.5c-0.9,0-1.7,0.8-1.7,1.7l0,0l0,0c0,0.9,0.8,1.7,1.7,1.7l0,0c0.9,0,1.7-0.8,1.7-1.7l0,0
			C52.9,128.2,52.1,127.5,51.2,127.5L51.2,127.5z"/>
		<path class="st0" d="M55,121c-0.9,0-1.7,0.8-1.7,1.7s0.8,1.7,1.7,1.7s1.7-0.8,1.7-1.7S55.9,121,55,121L55,121z"/>
		<circle class="st0" cx="55" cy="135.6" r="1.7"/>
		<path class="st0" d="M43.8,114.6L43.8,114.6c-0.9,0-1.7,0.8-1.7,1.7l0,0c0,0.9,0.8,1.7,1.7,1.7l0,0c0.9,0,1.7-0.8,1.7-1.7l0,0l0,0
			C45.5,115.3,44.7,114.6,43.8,114.6L43.8,114.6z"/>
		<path class="st0" d="M47.5,108.1c-0.9,0-1.7,0.8-1.7,1.7c0,0.9,0.8,1.7,1.7,1.7s1.7-0.8,1.7-1.7C49.2,108.9,48.4,108.1,47.5,108.1
			L47.5,108.1z"/>
		<path class="st0" d="M43.8,127.5L43.8,127.5c-0.9,0-1.7,0.8-1.7,1.7l0,0c0,0.9,0.8,1.7,1.7,1.7l0,0l0,0c0.9,0,1.7-0.8,1.7-1.7l0,0
			C45.5,128.2,44.7,127.5,43.8,127.5L43.8,127.5z"/>
		<path class="st0" d="M47.5,121c-0.9,0-1.7,0.8-1.7,1.7c0,0.9,0.8,1.7,1.7,1.7c0.9,0,1.7-0.8,1.7-1.7C49.2,121.8,48.4,121,47.5,121
			C47.5,121,47.5,121,47.5,121z"/>
		<path class="st0" d="M47.5,133.9c-0.9,0-1.7,0.8-1.7,1.7s0.8,1.7,1.7,1.7c0.9,0,1.7-0.8,1.7-1.7C49.2,134.7,48.4,133.9,47.5,133.9
			C47.5,133.9,47.5,133.9,47.5,133.9z"/>
		<path class="st0" d="M40,121c-0.9,0-1.7,0.8-1.7,1.7s0.8,1.7,1.7,1.7s1.7-0.8,1.7-1.7S40.9,121,40,121L40,121z"/>
		<path class="st1" d="M218.1,92.7l-26.7,15.9L218.1,92.7c-8.4-31.7-30.6-62.4-55.4-76.7c-16-9.2-31-10.7-42.3-4
			c-2.7-3.1-5.9-5.8-9.4-7.9c-6.2-3.6-11.9-3.9-15.9-1.5L69.6,17.3l0,0c-4,2.3-6.5,7.2-6.5,14.1l-12.7,7.4c0.2-0.1,0.3-0.2,0.5-0.3
			c-7.5,4.1-12,13.2-12,25.8c-0.1,25.2,17.7,56,39.6,68.6l117.5,67.3c9,3.5,16.8,3,22.7-0.8c-0.2,0.2-0.5,0.4-0.7,0.5l25.5-14.8
			c7.2-4.2,11.6-13.1,11.7-25.4C255.2,135.6,239,106.2,218.1,92.7z"/>
		<path class="st0" d="M67.3,18.5L94.7,2.6c4.3-2.5,10.3-2.2,17,1.7c3.5,2,5.4,5.3,8.6,8.9l-25,16.1c-3.2-3.5-6.8-6.6-10.9-9.1
			C77.7,16.3,71.7,16,67.3,18.5z"/>
		<path class="st0" d="M172.6,67.2c8.4,12.7,14.8,26.7,18.9,41.4l26.4-16.3c-3.9-14.4-10.2-28-18.5-40.3L172.6,67.2z"/>
		<path class="st0" d="M211.5,127.4c10.7,14.4,17.1,31.8,17,47.7c0,12.4-4.6,21.3-11.8,25.4l26.7-14.8c7.2-4.2,11.6-13.1,11.7-25.5
			c0-15.8-7-33.9-17.7-48.3L211.5,127.4z"/>
		<path class="st1" d="M195.3,199.8c19.2,7.2,33.5-3.6,32.7-26.2c0.1-23.3-15.8-51.7-36-64.7l-0.5-0.3l-0.2-0.7
			c-8.1-31-29.8-61.3-54.1-75.3c-15.5-9-30-10.3-41-3.9l-0.9,0.5c-3-3.2-7.6-8.6-11.2-10.5c-12.2-6.4-21.6-0.5-21.1,13.1"/>
		<path class="st2" d="M69.6,17.3L69.6,17.3L69.6,17.3z"/>
		<path class="st2" d="M218.6,199.5l-0.8,0.5v0.1C218.2,199.8,218.4,199.6,218.6,199.5z"/>
		<path class="st2" d="M228,173.6c0.1-23.3-15.8-51.7-36-64.7l-0.5-0.3l-0.2-0.7c-8.1-31-29.8-61.3-54.1-75.3
			c-15.5-9-30-10.3-41-3.9l-0.9,0.5c-3-3.2-7.6-8.6-11.2-10.5c-5.7-3-10.7-3.3-14.5-1.4l0,0l-0.3,0.2c-4,2.2-6.5,7.1-6.3,14
			l-12.6,7.3c0.2-0.1,0.3-0.2,0.5-0.3c-7.5,4.1-12,13.2-12,25.8c-0.1,25.2,17.7,56,39.6,68.6L196,200.3c8.6,3.4,16.2,3,22-0.3l0,0
			C224.9,195.7,228.4,186,228,173.6z"/>
		<path class="st1" d="M96.1,55.8c-16.7-8.8-31.4-9-41.7-2.1c-2.8-3.1-6.1-5.7-9.8-7.7c-12-6.3-21.3-0.5-20.9,13
			c0.1,1.7,0.3,3.5,0.6,5.2C10.1,63,0.4,73.5,1,92.1c0.9,24.4,19.1,53.5,40.8,64.9l117.6,61.7c19,7.1,33.1-3.6,32.3-25.9
			c-0.8-23.6-18-51.6-38.7-63.8C144,99.2,121.6,69.3,96.1,55.8"/>
		<circle class="st0" cx="7.8" cy="154.7" r="2.9"/>
		<circle class="st0" cx="28.2" cy="154.7" r="2.9"/>
		<circle class="st0" cx="68.8" cy="154.7" r="2.9"/>
		<circle class="st0" cx="89.2" cy="154.7" r="2.9"/>
		<circle class="st0" cx="48.5" cy="154.7" r="2.9"/>
		<circle class="st0" cx="7.8" cy="175.1" r="2.9"/>
		<circle class="st0" cx="28.2" cy="175.1" r="2.9"/>
		<circle class="st0" cx="68.8" cy="175.1" r="2.9"/>
		<circle class="st0" cx="89.2" cy="175.1" r="2.9"/>
		<circle class="st0" cx="48.5" cy="175.1" r="2.9"/>
		<circle class="st0" cx="7.8" cy="195.4" r="2.9"/>
		<circle class="st0" cx="28.2" cy="195.4" r="2.9"/>
		<circle class="st0" cx="68.8" cy="195.4" r="2.9"/>
		<circle class="st0" cx="89.2" cy="195.4" r="2.9"/>
		<circle class="st0" cx="48.5" cy="195.4" r="2.9"/>
		<circle class="st0" cx="7.8" cy="215.7" r="2.9"/>
		<circle class="st0" cx="28.2" cy="215.7" r="2.9"/>
		<circle class="st0" cx="68.8" cy="215.7" r="2.9"/>
		<circle class="st0" cx="89.2" cy="215.7" r="2.9"/>
		<circle class="st0" cx="48.5" cy="215.7" r="2.9"/>
		<circle class="st0" cx="7.8" cy="236.1" r="2.9"/>
		<circle class="st0" cx="28.2" cy="236.1" r="2.9"/>
		<circle class="st0" cx="68.8" cy="236.1" r="2.9"/>
		<circle class="st0" cx="89.2" cy="236.1" r="2.9"/>
		<circle class="st0" cx="48.5" cy="236.1" r="2.9"/>
		<g>
			<path class="st1" d="M257.1,94.4c0.1-20.7-14.5-45.9-32.5-56.3"/>
		</g>
		<g>
			<path class="st1" d="M244.2,86.9c0-12.5-8.7-27.7-19.6-33.9"/>
		</g>
		<g>
			<path class="st1" d="M270,101.8c0.1-28.9-20.2-64-45.4-78.6"/>
		</g>
	</g>
</g>
</svg>
