<svg id="Layer_1" data-name="Layer 1" xmlns="http://www.w3.org/2000/svg" viewBox="0 0 745 415.25"><defs><style>.cls-1{fill:#ebf2f2;}.cls-2,.cls-3{fill:none;stroke:#c4cecd;}.cls-2,.cls-3,.cls-4{stroke-miterlimit:10;}.cls-3{stroke-dasharray:7.08 7.08;}.cls-4,.cls-7{fill:#fff;}.cls-4{stroke:#6db33f;}.cls-5{fill:#333;}.cls-6{fill:#68bd45;}.cls-8{fill:#98afae;}</style></defs><title>diagram-cloud</title><rect class="cls-1" width="745" height="415.25" rx="6.21"/><line class="cls-2" x1="399.74" y1="337.68" x2="638.38" y2="337.68"/><line class="cls-2" x1="399.74" y1="68.54" x2="617.53" y2="68.54"/><line class="cls-2" x1="135.48" y1="238.16" x2="679.3" y2="238.16"/><line class="cls-2" x1="712.53" y1="238.16" x2="706.53" y2="238.16"/><line class="cls-3" x1="699.45" y1="238.16" x2="688.84" y2="238.16"/><line class="cls-2" x1="685.3" y1="238.16" x2="679.3" y2="238.16"/><line class="cls-2" x1="348.59" y1="142.44" x2="638.38" y2="142.44"/><rect class="cls-4" x="196.26" y="212.34" width="120.17" height="53.7"/><path class="cls-5" d="M249.31,236.38l-1-2.78h-3.82l-1,2.78h-1.73l3.74-10h1.78l3.74,10Zm-1.43-4.19-.93-2.72c-.07-.18-.17-.47-.29-.86s-.2-.68-.25-.86a14.54,14.54,0,0,1-.54,1.84l-.9,2.6Z"/><path class="cls-5" d="M258.78,229.4a2.91,2.91,0,0,1-1,2.4,4.5,4.5,0,0,1-2.92.84h-1v3.74h-1.63v-10H255a4.35,4.35,0,0,1,2.8.77A2.75,2.75,0,0,1,258.78,229.4Zm-5,1.86h.87a3.16,3.16,0,0,0,1.85-.43,1.6,1.6,0,0,0,.58-1.37,1.58,1.58,0,0,0-.52-1.29,2.62,2.62,0,0,0-1.64-.42h-1.14Z"/><path class="cls-5" d="M260.56,236.38v-10h1.63v10Z"/><path class="cls-5" d="M247.2,247.76h3.68v5a10,10,0,0,1-1.74.42,12.5,12.5,0,0,1-1.79.12,4.49,4.49,0,0,1-3.5-1.34,5.4,5.4,0,0,1-1.23-3.79A5,5,0,0,1,244,244.4a5.2,5.2,0,0,1,3.82-1.36,7.51,7.51,0,0,1,3,.6l-.58,1.36a5.81,5.81,0,0,0-2.43-.56,3.28,3.28,0,0,0-2.53,1,3.87,3.87,0,0,0-.93,2.74,4.1,4.1,0,0,0,.84,2.79,3,3,0,0,0,2.41,1,8,8,0,0,0,1.69-.19v-2.58H247.2Z"/><path class="cls-5" d="M257.63,253.18l-.32-1.06h-.06a2.9,2.9,0,0,1-1.1.94,3.41,3.41,0,0,1-1.42.25,2.42,2.42,0,0,1-1.74-.6,2.24,2.24,0,0,1-.63-1.7,2,2,0,0,1,.87-1.76,4.92,4.92,0,0,1,2.65-.65l1.3,0v-.41a1.51,1.51,0,0,0-.34-1.08,1.36,1.36,0,0,0-1-.36,3.78,3.78,0,0,0-1.11.17,10.49,10.49,0,0,0-1,.4l-.51-1.14a5.21,5.21,0,0,1,1.34-.49,6.34,6.34,0,0,1,1.38-.17,3.28,3.28,0,0,1,2.18.63,2.46,2.46,0,0,1,.74,2v5.1Zm-2.4-1.1a2,2,0,0,0,1.41-.49,1.77,1.77,0,0,0,.53-1.37v-.65l-1,0a3.28,3.28,0,0,0-1.65.38,1.13,1.13,0,0,0-.52,1,1,1,0,0,0,.3.79A1.31,1.31,0,0,0,255.23,252.08Z"/><path class="cls-5" d="M263.62,252a4,4,0,0,0,1.18-.19V253a3.63,3.63,0,0,1-.69.2,4.94,4.94,0,0,1-.87.07q-2.28,0-2.28-2.4v-4.08h-1v-.71l1.1-.59.55-1.59h1v1.68h2.15v1.21h-2.15v4a1.16,1.16,0,0,0,.29.86A1.09,1.09,0,0,0,263.62,252Z"/><path class="cls-5" d="M269.4,253.31a3.7,3.7,0,0,1-2.76-1,3.94,3.94,0,0,1-1-2.84,4.32,4.32,0,0,1,.92-2.91,3.18,3.18,0,0,1,2.54-1.06,3.09,3.09,0,0,1,2.36.91,3.47,3.47,0,0,1,.87,2.5v.87h-5a2.48,2.48,0,0,0,.6,1.69,2,2,0,0,0,1.58.59,6.07,6.07,0,0,0,1.24-.12,7.65,7.65,0,0,0,1.25-.42v1.3a5.06,5.06,0,0,1-1.19.4A7.15,7.15,0,0,1,269.4,253.31Zm-.29-6.61a1.63,1.63,0,0,0-1.23.48,2.33,2.33,0,0,0-.55,1.42h3.43a2.1,2.1,0,0,0-.45-1.42A1.54,1.54,0,0,0,269.11,246.7Z"/><path class="cls-5" d="M280.16,253.18l-1-3.53c-.12-.37-.33-1.24-.64-2.6h-.06q-.41,1.84-.63,2.61l-1,3.52h-1.78l-2.12-7.56h1.65l1,3.72c.22.92.37,1.71.46,2.37h.05c0-.33.11-.72.2-1.15s.18-.75.25-1l1.14-4h1.77l1.11,4c.07.22.16.56.26,1a8.71,8.71,0,0,1,.18,1.07H281a19.11,19.11,0,0,1,.47-2.35l1-3.72h1.61L282,253.18Z"/><path class="cls-5" d="M289.91,253.18l-.32-1.06h0a3,3,0,0,1-1.1.94,3.44,3.44,0,0,1-1.42.25,2.39,2.39,0,0,1-1.74-.6,2.24,2.24,0,0,1-.63-1.7,2,2,0,0,1,.87-1.76,4.91,4.91,0,0,1,2.64-.65l1.31,0v-.41a1.51,1.51,0,0,0-.34-1.08,1.36,1.36,0,0,0-1.05-.36,3.68,3.68,0,0,0-1.11.17,10.49,10.49,0,0,0-1,.4l-.52-1.14a5.28,5.28,0,0,1,1.35-.49,6.34,6.34,0,0,1,1.38-.17,3.28,3.28,0,0,1,2.18.63,2.46,2.46,0,0,1,.73,2v5.1Zm-2.39-1.1a2,2,0,0,0,1.41-.49,1.77,1.77,0,0,0,.53-1.37v-.65l-1,0a3.35,3.35,0,0,0-1.66.38,1.15,1.15,0,0,0-.51,1,1,1,0,0,0,.3.79A1.31,1.31,0,0,0,287.52,252.08Z"/><path class="cls-5" d="M292,245.62h1.75l1.53,4.28a7.88,7.88,0,0,1,.47,1.73h.05a9.43,9.43,0,0,1,.23-.92q.16-.53,1.74-5.09h1.73l-3.23,8.56a3.08,3.08,0,0,1-2.94,2.36,4.48,4.48,0,0,1-1-.12v-1.27a3.46,3.46,0,0,0,.83.09,1.69,1.69,0,0,0,1.63-1.35l.28-.71Z"/><polyline class="cls-2" points="145.48 172.08 172.07 172.08 172.07 304.23 145.48 304.23"/><line class="cls-2" x1="348.59" y1="62.61" x2="348.59" y2="325.36"/><line class="cls-2" x1="638.38" y1="62.61" x2="638.38" y2="337.68"/><rect class="cls-4" x="288.09" y="41.69" width="131.02" height="53.7"/><path class="cls-5" d="M343.42,62.2a2.5,2.5,0,0,1-1,2.09,4.14,4.14,0,0,1-2.65.76,6.38,6.38,0,0,1-2.78-.53V63a7.75,7.75,0,0,0,1.45.5,5.87,5.87,0,0,0,1.43.19,2.34,2.34,0,0,0,1.44-.37,1.23,1.23,0,0,0,.46-1,1.21,1.21,0,0,0-.43-1,6.33,6.33,0,0,0-1.75-.93,4.62,4.62,0,0,1-1.92-1.26,2.63,2.63,0,0,1-.56-1.71,2.4,2.4,0,0,1,.88-2,3.7,3.7,0,0,1,2.39-.72,7,7,0,0,1,2.86.63l-.52,1.34a6.12,6.12,0,0,0-2.38-.56,1.81,1.81,0,0,0-1.2.34,1.11,1.11,0,0,0-.41.91,1.3,1.3,0,0,0,.16.67,1.69,1.69,0,0,0,.54.52,8.62,8.62,0,0,0,1.35.65,7.23,7.23,0,0,1,1.62.86,2.5,2.5,0,0,1,.75.89A2.7,2.7,0,0,1,343.42,62.2Z"/><path class="cls-5" d="M348.27,65.05a3.63,3.63,0,0,1-2.75-1,3.88,3.88,0,0,1-1-2.83,4.33,4.33,0,0,1,.92-2.92A3.22,3.22,0,0,1,348,57.21a3.11,3.11,0,0,1,2.36.91,3.48,3.48,0,0,1,.87,2.51v.86h-5a2.56,2.56,0,0,0,.6,1.7,2.08,2.08,0,0,0,1.58.59,6.15,6.15,0,0,0,1.25-.13,6.05,6.05,0,0,0,1.24-.42v1.31a5.34,5.34,0,0,1-1.19.39A7.09,7.09,0,0,1,348.27,65.05ZM348,58.43a1.6,1.6,0,0,0-1.23.49,2.34,2.34,0,0,0-.55,1.41h3.43a2.06,2.06,0,0,0-.45-1.42A1.54,1.54,0,0,0,348,58.43Z"/><path class="cls-5" d="M356.66,57.21a4.23,4.23,0,0,1,.8.07l-.15,1.5a2.84,2.84,0,0,0-.72-.08,2.06,2.06,0,0,0-1.56.63,2.26,2.26,0,0,0-.6,1.63v3.95h-1.6V57.35h1.26l.21,1.33h.08a3,3,0,0,1,1-1.07A2.37,2.37,0,0,1,356.66,57.21Z"/><path class="cls-5" d="M360.38,64.91l-2.87-7.56h1.69l1.54,4.4a9.16,9.16,0,0,1,.48,1.79h0a11.48,11.48,0,0,1,.48-1.79l1.54-4.4H365l-2.89,7.56Z"/><path class="cls-5" d="M365.84,55.35a.9.9,0,0,1,.24-.67,1.08,1.08,0,0,1,1.33,0,.9.9,0,0,1,.24.67.84.84,0,0,1-.24.64,1,1,0,0,1-1.33,0A.84.84,0,0,1,365.84,55.35Zm1.7,9.56h-1.6V57.35h1.6Z"/><path class="cls-5" d="M372.68,65.05a3.35,3.35,0,0,1-2.61-1,5.09,5.09,0,0,1,0-5.81,3.47,3.47,0,0,1,2.7-1,5,5,0,0,1,2.15.45L374.48,59a5,5,0,0,0-1.68-.4c-1.31,0-2,.87-2,2.61a3.16,3.16,0,0,0,.49,1.91,1.69,1.69,0,0,0,1.43.64,4.13,4.13,0,0,0,2-.53v1.4a3.21,3.21,0,0,1-.92.36A5.64,5.64,0,0,1,372.68,65.05Z"/><path class="cls-5" d="M379.65,65.05a3.67,3.67,0,0,1-2.76-1,3.92,3.92,0,0,1-1-2.83,4.33,4.33,0,0,1,.92-2.92,3.22,3.22,0,0,1,2.54-1.06,3.11,3.11,0,0,1,2.36.91,3.48,3.48,0,0,1,.87,2.51v.86h-5a2.56,2.56,0,0,0,.6,1.7,2.08,2.08,0,0,0,1.58.59,5.77,5.77,0,0,0,2.49-.55v1.31a5.34,5.34,0,0,1-1.19.39A7.09,7.09,0,0,1,379.65,65.05Zm-.29-6.62a1.6,1.6,0,0,0-1.23.49,2.28,2.28,0,0,0-.55,1.41H381a2.06,2.06,0,0,0-.45-1.42A1.54,1.54,0,0,0,379.36,58.43Z"/><path class="cls-5" d="M341.32,74a4.32,4.32,0,0,1,.8.07l-.16,1.5a2.76,2.76,0,0,0-.71-.08,2.06,2.06,0,0,0-1.56.63,2.26,2.26,0,0,0-.6,1.63v3.95h-1.61V74.15h1.26l.21,1.33H339a2.89,2.89,0,0,1,1-1.07A2.34,2.34,0,0,1,341.32,74Z"/><path class="cls-5" d="M346.61,81.85a3.67,3.67,0,0,1-2.76-1,3.92,3.92,0,0,1-1-2.83,4.33,4.33,0,0,1,.92-2.92A3.22,3.22,0,0,1,346.32,74a3.11,3.11,0,0,1,2.36.91,3.48,3.48,0,0,1,.87,2.51v.86h-5a2.56,2.56,0,0,0,.6,1.7,2.08,2.08,0,0,0,1.58.59,5.77,5.77,0,0,0,2.49-.55v1.31a5.52,5.52,0,0,1-1.19.39A7.09,7.09,0,0,1,346.61,81.85Zm-.29-6.62a1.6,1.6,0,0,0-1.23.49,2.28,2.28,0,0,0-.55,1.41H348a2.12,2.12,0,0,0-.45-1.42A1.54,1.54,0,0,0,346.32,75.23Z"/><path class="cls-5" d="M357.55,74.15V75l-1.29.24a1.91,1.91,0,0,1,.29.59,2.45,2.45,0,0,1-.69,2.58,3.38,3.38,0,0,1-2.22.67,3.2,3.2,0,0,1-.65-.06.91.91,0,0,0-.52.75.41.41,0,0,0,.24.39,2,2,0,0,0,.89.13h1.32a2.91,2.91,0,0,1,1.9.54,1.86,1.86,0,0,1,.65,1.53,2.24,2.24,0,0,1-1.06,2,5.64,5.64,0,0,1-3.06.69,4.27,4.27,0,0,1-2.36-.54,1.78,1.78,0,0,1-.81-1.56,1.61,1.61,0,0,1,.44-1.17,2.29,2.29,0,0,1,1.23-.66,1.25,1.25,0,0,1-.53-.44,1.13,1.13,0,0,1-.21-.64,1.08,1.08,0,0,1,.24-.72,2.73,2.73,0,0,1,.71-.58,2.11,2.11,0,0,1-.95-.83,2.44,2.44,0,0,1-.37-1.33,2.39,2.39,0,0,1,.78-1.91,3.26,3.26,0,0,1,2.21-.68,5.16,5.16,0,0,1,.67,0,4.29,4.29,0,0,1,.53.09Zm-5.94,8.74a.9.9,0,0,0,.47.8,2.64,2.64,0,0,0,1.32.28,4,4,0,0,0,2-.38,1.12,1.12,0,0,0,.64-1,.74.74,0,0,0-.35-.7,2.8,2.8,0,0,0-1.31-.21h-1.21A1.7,1.7,0,0,0,352,82,1.06,1.06,0,0,0,351.61,82.89Zm.69-6.29a1.48,1.48,0,0,0,.37,1.09,1.35,1.35,0,0,0,1.05.38c.93,0,1.39-.49,1.39-1.49a1.66,1.66,0,0,0-.34-1.13,1.3,1.3,0,0,0-1-.4,1.37,1.37,0,0,0-1.06.39A1.68,1.68,0,0,0,352.3,76.6Z"/><path class="cls-5" d="M358.65,72.15a.94.94,0,0,1,.23-.67,1,1,0,0,1,.68-.23.8.8,0,0,1,.89.9.88.88,0,0,1-.23.64.89.89,0,0,1-.66.24.92.92,0,0,1-.68-.24A.88.88,0,0,1,358.65,72.15Zm1.7,9.56h-1.61V74.15h1.61Z"/><path class="cls-5" d="M367.52,79.56a2,2,0,0,1-.81,1.7,3.9,3.9,0,0,1-2.31.59,5.4,5.4,0,0,1-2.43-.46V80a6,6,0,0,0,2.48.62c1,0,1.49-.3,1.49-.9a.72.72,0,0,0-.17-.48,2,2,0,0,0-.54-.39,10.23,10.23,0,0,0-1-.47,4.88,4.88,0,0,1-1.77-1,1.85,1.85,0,0,1-.46-1.31,1.73,1.73,0,0,1,.78-1.51,3.69,3.69,0,0,1,2.13-.54,6,6,0,0,1,2.52.54l-.52,1.21a5.7,5.7,0,0,0-2.05-.5c-.85,0-1.28.24-1.28.72a.71.71,0,0,0,.34.6,7,7,0,0,0,1.44.68,6.37,6.37,0,0,1,1.36.66,2.07,2.07,0,0,1,.63.7A2,2,0,0,1,367.52,79.56Z"/><path class="cls-5" d="M371.86,80.55a3.67,3.67,0,0,0,1.17-.19v1.21a2.78,2.78,0,0,1-.68.2,4.94,4.94,0,0,1-.87.08c-1.53,0-2.29-.8-2.29-2.41V75.37h-1v-.71l1.11-.59.54-1.6h1v1.68H373v1.22h-2.15v4a1.11,1.11,0,0,0,.29.86A1,1,0,0,0,371.86,80.55Z"/><path class="cls-5" d="M378.17,74a4.32,4.32,0,0,1,.8.07l-.16,1.5a2.71,2.71,0,0,0-.71-.08,2.06,2.06,0,0,0-1.56.63,2.26,2.26,0,0,0-.6,1.63v3.95h-1.6V74.15h1.25l.21,1.33h.09a2.89,2.89,0,0,1,1-1.07A2.37,2.37,0,0,1,378.17,74Z"/><path class="cls-5" d="M379,74.15h1.75l1.54,4.29a8.4,8.4,0,0,1,.47,1.72h.05a6.72,6.72,0,0,1,.23-.91c.11-.36.68-2.06,1.73-5.1h1.74l-3.23,8.57a3.07,3.07,0,0,1-2.94,2.35,4.42,4.42,0,0,1-1-.11V83.69a4,4,0,0,0,.82.08,1.7,1.7,0,0,0,1.64-1.35l.28-.71Z"/><rect class="cls-4" x="439.8" y="207.18" width="110.17" height="53.7"/><rect class="cls-4" x="445.8" y="213.18" width="110.17" height="53.7"/><rect class="cls-4" x="451.8" y="219.18" width="110.17" height="53.7"/><path class="cls-5" d="M467.49,250.7l-2.9-8.35h-.06c.08,1.24.12,2.41.12,3.49v4.86h-1.48v-10h2.3l2.78,7.95h0l2.85-7.95h2.32v10h-1.58v-4.94c0-.5,0-1.15,0-1.94s.05-1.28.07-1.45h-.06l-3,8.33Z"/><path class="cls-5" d="M475.61,241.14a.9.9,0,0,1,.24-.67,1.08,1.08,0,0,1,1.33,0,.9.9,0,0,1,.24.67.84.84,0,0,1-.24.64,1,1,0,0,1-1.33,0A.84.84,0,0,1,475.61,241.14Zm1.7,9.56h-1.6v-7.56h1.6Z"/><path class="cls-5" d="M482.45,250.84a3.34,3.34,0,0,1-2.61-1,5.09,5.09,0,0,1,0-5.81,3.47,3.47,0,0,1,2.7-1,5,5,0,0,1,2.15.45l-.48,1.29a5,5,0,0,0-1.69-.4c-1.3,0-2,.87-2,2.61a3.16,3.16,0,0,0,.49,1.91,1.68,1.68,0,0,0,1.43.64,4.13,4.13,0,0,0,2-.53v1.4a3.21,3.21,0,0,1-.92.36A5.64,5.64,0,0,1,482.45,250.84Z"/><path class="cls-5" d="M490,243a4.32,4.32,0,0,1,.8.07l-.16,1.5a2.81,2.81,0,0,0-.71-.08,2,2,0,0,0-1.56.63,2.26,2.26,0,0,0-.6,1.63v3.95h-1.61v-7.56h1.26l.21,1.33h.08a3,3,0,0,1,1-1.07A2.4,2.4,0,0,1,490,243Z"/><path class="cls-5" d="M498.65,246.91a4.1,4.1,0,0,1-.95,2.89,3.4,3.4,0,0,1-2.64,1,3.65,3.65,0,0,1-1.88-.48,3.26,3.26,0,0,1-1.25-1.37,4.71,4.71,0,0,1-.43-2.08,4.07,4.07,0,0,1,.94-2.87,3.43,3.43,0,0,1,2.66-1,3.36,3.36,0,0,1,2.6,1.06A4.1,4.1,0,0,1,498.65,246.91Zm-5.5,0c0,1.74.65,2.62,1.94,2.62s1.91-.88,1.91-2.62-.64-2.59-1.93-2.59a1.63,1.63,0,0,0-1.46.67A3.32,3.32,0,0,0,493.15,246.91Z"/><path class="cls-5" d="M505.37,248.55a2,2,0,0,1-.81,1.7,3.9,3.9,0,0,1-2.31.59,5.4,5.4,0,0,1-2.43-.46V249a6,6,0,0,0,2.49.62c1,0,1.48-.3,1.48-.9a.77.77,0,0,0-.16-.48,2,2,0,0,0-.54-.39,10.57,10.57,0,0,0-1-.47,4.88,4.88,0,0,1-1.77-1,1.85,1.85,0,0,1-.46-1.31,1.73,1.73,0,0,1,.78-1.51,3.73,3.73,0,0,1,2.13-.54,6.08,6.08,0,0,1,2.53.54l-.52,1.21a5.79,5.79,0,0,0-2.06-.5c-.85,0-1.27.24-1.27.72a.72.72,0,0,0,.33.6,7,7,0,0,0,1.44.68,6.37,6.37,0,0,1,1.36.66,1.88,1.88,0,0,1,.63.7A2,2,0,0,1,505.37,248.55Z"/><path class="cls-5" d="M510.2,250.84a3.64,3.64,0,0,1-2.76-1,3.92,3.92,0,0,1-1-2.83,4.28,4.28,0,0,1,.93-2.92A3.2,3.2,0,0,1,509.9,243a3.15,3.15,0,0,1,2.37.91,3.48,3.48,0,0,1,.87,2.51v.86h-5a2.51,2.51,0,0,0,.59,1.7,2.1,2.1,0,0,0,1.58.59,6.15,6.15,0,0,0,1.25-.13,6.05,6.05,0,0,0,1.24-.42v1.31a5.34,5.34,0,0,1-1.19.39A7.06,7.06,0,0,1,510.2,250.84Zm-.3-6.62a1.57,1.57,0,0,0-1.22.49,2.22,2.22,0,0,0-.55,1.41h3.43a2.12,2.12,0,0,0-.45-1.42A1.57,1.57,0,0,0,509.9,244.22Z"/><path class="cls-5" d="M518.59,243a4.32,4.32,0,0,1,.8.07l-.16,1.5a2.81,2.81,0,0,0-.71-.08,2,2,0,0,0-1.56.63,2.26,2.26,0,0,0-.6,1.63v3.95h-1.61v-7.56H516l.21,1.33h.08a3,3,0,0,1,1-1.07A2.4,2.4,0,0,1,518.59,243Z"/><path class="cls-5" d="M522.3,250.7l-2.87-7.56h1.69l1.54,4.4a7.93,7.93,0,0,1,.48,1.79h.06a12.32,12.32,0,0,1,.47-1.79l1.54-4.4h1.71L524,250.7Z"/><path class="cls-5" d="M527.76,241.14a.9.9,0,0,1,.24-.67.94.94,0,0,1,.67-.23.82.82,0,0,1,.9.9.84.84,0,0,1-.24.64.86.86,0,0,1-.66.24.9.9,0,0,1-.67-.24A.84.84,0,0,1,527.76,241.14Zm1.71,9.56h-1.61v-7.56h1.61Z"/><path class="cls-5" d="M534.6,250.84a3.35,3.35,0,0,1-2.61-1,4.22,4.22,0,0,1-.89-2.88A4.16,4.16,0,0,1,532,244a3.47,3.47,0,0,1,2.69-1,5,5,0,0,1,2.15.45l-.48,1.29a5,5,0,0,0-1.68-.4c-1.31,0-2,.87-2,2.61a3.16,3.16,0,0,0,.48,1.91,1.7,1.7,0,0,0,1.44.64,4.18,4.18,0,0,0,2-.53v1.4a3.45,3.45,0,0,1-.92.36A5.74,5.74,0,0,1,534.6,250.84Z"/><path class="cls-5" d="M541.58,250.84a3.64,3.64,0,0,1-2.76-1,3.92,3.92,0,0,1-1-2.83,4.28,4.28,0,0,1,.93-2.92,3.2,3.2,0,0,1,2.53-1.06,3.15,3.15,0,0,1,2.37.91,3.48,3.48,0,0,1,.87,2.51v.86h-5a2.51,2.51,0,0,0,.59,1.7,2.1,2.1,0,0,0,1.58.59,6.15,6.15,0,0,0,1.25-.13,6.05,6.05,0,0,0,1.24-.42v1.31a5.34,5.34,0,0,1-1.19.39A7.06,7.06,0,0,1,541.58,250.84Zm-.3-6.62a1.57,1.57,0,0,0-1.22.49,2.22,2.22,0,0,0-.55,1.41h3.43a2.12,2.12,0,0,0-.45-1.42A1.57,1.57,0,0,0,541.28,244.22Z"/><path class="cls-5" d="M551.21,248.55a2,2,0,0,1-.81,1.7,3.86,3.86,0,0,1-2.31.59,5.38,5.38,0,0,1-2.42-.46V249a5.92,5.92,0,0,0,2.48.62c1,0,1.48-.3,1.48-.9a.71.71,0,0,0-.16-.48,2,2,0,0,0-.54-.39,9.6,9.6,0,0,0-1-.47,4.88,4.88,0,0,1-1.77-1,1.9,1.9,0,0,1-.46-1.31,1.72,1.72,0,0,1,.79-1.51,3.68,3.68,0,0,1,2.12-.54,6.08,6.08,0,0,1,2.53.54l-.52,1.21a5.75,5.75,0,0,0-2.06-.5c-.85,0-1.27.24-1.27.72a.72.72,0,0,0,.33.6,6.92,6.92,0,0,0,1.45.68,6.9,6.9,0,0,1,1.36.66,1.84,1.84,0,0,1,.83,1.64Z"/><rect class="cls-4" x="439.8" y="307.85" width="110.17" height="53.7"/><rect class="cls-4" x="445.8" y="313.85" width="110.17" height="53.7"/><rect class="cls-4" x="451.8" y="319.85" width="110.17" height="53.7"/><path class="cls-5" d="M467.49,351.37l-2.9-8.35h-.06c.08,1.24.12,2.41.12,3.49v4.86h-1.48v-10h2.3l2.78,7.95h0l2.85-7.95h2.32v10h-1.58v-4.94c0-.5,0-1.15,0-1.94s.05-1.28.07-1.45h-.06l-3,8.33Z"/><path class="cls-5" d="M475.61,341.81a.9.9,0,0,1,.24-.67,1.08,1.08,0,0,1,1.33,0,.9.9,0,0,1,.24.67.84.84,0,0,1-.24.64,1,1,0,0,1-1.33,0A.84.84,0,0,1,475.61,341.81Zm1.7,9.56h-1.6v-7.56h1.6Z"/><path class="cls-5" d="M482.45,351.51a3.34,3.34,0,0,1-2.61-1,5.09,5.09,0,0,1,0-5.81,3.44,3.44,0,0,1,2.7-1,5,5,0,0,1,2.15.45l-.48,1.29a5,5,0,0,0-1.69-.4c-1.3,0-2,.87-2,2.61a3.16,3.16,0,0,0,.49,1.91,1.71,1.71,0,0,0,1.43.64,4,4,0,0,0,2-.54V351a3.21,3.21,0,0,1-.92.36A5.64,5.64,0,0,1,482.45,351.51Z"/><path class="cls-5" d="M490,343.67a4.32,4.32,0,0,1,.8.07l-.16,1.5a2.81,2.81,0,0,0-.71-.08,2,2,0,0,0-1.56.63,2.26,2.26,0,0,0-.6,1.63v3.95h-1.61v-7.56h1.26l.21,1.33h.08a3,3,0,0,1,1-1.07A2.4,2.4,0,0,1,490,343.67Z"/><path class="cls-5" d="M498.65,347.58a4.1,4.1,0,0,1-.95,2.89,3.4,3.4,0,0,1-2.64,1,3.65,3.65,0,0,1-1.88-.48,3.23,3.23,0,0,1-1.25-1.38,4.64,4.64,0,0,1-.43-2.07,4.07,4.07,0,0,1,.94-2.87,3.43,3.43,0,0,1,2.66-1,3.36,3.36,0,0,1,2.6,1.06A4.1,4.1,0,0,1,498.65,347.58Zm-5.5,0c0,1.74.65,2.61,1.94,2.61s1.91-.87,1.91-2.61-.64-2.59-1.93-2.59a1.63,1.63,0,0,0-1.46.67A3.32,3.32,0,0,0,493.15,347.58Z"/><path class="cls-5" d="M505.37,349.22a2,2,0,0,1-.81,1.7,3.9,3.9,0,0,1-2.31.59,5.54,5.54,0,0,1-2.43-.46v-1.39a6,6,0,0,0,2.49.62c1,0,1.48-.3,1.48-.9a.77.77,0,0,0-.16-.48,2,2,0,0,0-.54-.39,10.57,10.57,0,0,0-1-.47,4.88,4.88,0,0,1-1.77-1,1.85,1.85,0,0,1-.46-1.31,1.73,1.73,0,0,1,.78-1.51,3.73,3.73,0,0,1,2.13-.54,6.08,6.08,0,0,1,2.53.54l-.52,1.21a5.79,5.79,0,0,0-2.06-.5c-.85,0-1.27.24-1.27.72a.72.72,0,0,0,.33.6,7,7,0,0,0,1.44.68,6.37,6.37,0,0,1,1.36.66,1.81,1.81,0,0,1,.63.7A2,2,0,0,1,505.37,349.22Z"/><path class="cls-5" d="M510.2,351.51a3.67,3.67,0,0,1-2.76-1,3.93,3.93,0,0,1-1-2.84,4.27,4.27,0,0,1,.93-2.91,3.2,3.2,0,0,1,2.53-1.06,3.15,3.15,0,0,1,2.37.91,3.47,3.47,0,0,1,.87,2.5V348h-5a2.46,2.46,0,0,0,.59,1.69,2.07,2.07,0,0,0,1.58.6,6.15,6.15,0,0,0,1.25-.13,7.57,7.57,0,0,0,1.24-.42V351a4.91,4.91,0,0,1-1.19.4A7.06,7.06,0,0,1,510.2,351.51Zm-.3-6.62a1.57,1.57,0,0,0-1.22.49,2.22,2.22,0,0,0-.55,1.41h3.43a2.12,2.12,0,0,0-.45-1.42A1.57,1.57,0,0,0,509.9,344.89Z"/><path class="cls-5" d="M518.59,343.67a4.32,4.32,0,0,1,.8.07l-.16,1.5a2.81,2.81,0,0,0-.71-.08,2,2,0,0,0-1.56.63,2.26,2.26,0,0,0-.6,1.63v3.95h-1.61v-7.56H516l.21,1.33h.08a3,3,0,0,1,1-1.07A2.4,2.4,0,0,1,518.59,343.67Z"/><path class="cls-5" d="M522.3,351.37l-2.87-7.56h1.69l1.54,4.4a7.93,7.93,0,0,1,.48,1.79h.06a12.32,12.32,0,0,1,.47-1.79l1.54-4.4h1.71L524,351.37Z"/><path class="cls-5" d="M527.76,341.81a.9.9,0,0,1,.24-.67.94.94,0,0,1,.67-.23.82.82,0,0,1,.9.9.84.84,0,0,1-.24.64.86.86,0,0,1-.66.24.9.9,0,0,1-.67-.24A.84.84,0,0,1,527.76,341.81Zm1.71,9.56h-1.61v-7.56h1.61Z"/><path class="cls-5" d="M534.6,351.51a3.35,3.35,0,0,1-2.61-1,4.22,4.22,0,0,1-.89-2.88,4.16,4.16,0,0,1,.94-2.93,3.43,3.43,0,0,1,2.69-1,5,5,0,0,1,2.15.45l-.48,1.29a5,5,0,0,0-1.68-.4c-1.31,0-2,.87-2,2.61a3.16,3.16,0,0,0,.48,1.91,1.73,1.73,0,0,0,1.44.64,4.09,4.09,0,0,0,2-.54V351a3.45,3.45,0,0,1-.92.36A5.74,5.74,0,0,1,534.6,351.51Z"/><path class="cls-5" d="M541.58,351.51a3.67,3.67,0,0,1-2.76-1,3.93,3.93,0,0,1-1-2.84,4.27,4.27,0,0,1,.93-2.91,3.2,3.2,0,0,1,2.53-1.06,3.15,3.15,0,0,1,2.37.91,3.47,3.47,0,0,1,.87,2.5V348h-5a2.46,2.46,0,0,0,.59,1.69,2.07,2.07,0,0,0,1.58.6,6.15,6.15,0,0,0,1.25-.13,7.57,7.57,0,0,0,1.24-.42V351a4.91,4.91,0,0,1-1.19.4A7.06,7.06,0,0,1,541.58,351.51Zm-.3-6.62a1.57,1.57,0,0,0-1.22.49,2.22,2.22,0,0,0-.55,1.41h3.43a2.12,2.12,0,0,0-.45-1.42A1.57,1.57,0,0,0,541.28,344.89Z"/><path class="cls-5" d="M551.21,349.22a2,2,0,0,1-.81,1.7,3.86,3.86,0,0,1-2.31.59,5.52,5.52,0,0,1-2.42-.46v-1.39a5.92,5.92,0,0,0,2.48.62c1,0,1.48-.3,1.48-.9a.71.71,0,0,0-.16-.48,2,2,0,0,0-.54-.39,9.6,9.6,0,0,0-1-.47,4.88,4.88,0,0,1-1.77-1,1.9,1.9,0,0,1-.46-1.31,1.72,1.72,0,0,1,.79-1.51,3.68,3.68,0,0,1,2.12-.54,6.08,6.08,0,0,1,2.53.54l-.52,1.21a5.75,5.75,0,0,0-2.06-.5c-.85,0-1.27.24-1.27.72a.72.72,0,0,0,.33.6,6.92,6.92,0,0,0,1.45.68,6.9,6.9,0,0,1,1.36.66,2,2,0,0,1,.63.7A2.07,2.07,0,0,1,551.21,349.22Z"/><rect class="cls-4" x="439.8" y="111.59" width="110.17" height="53.7"/><rect class="cls-4" x="445.8" y="117.59" width="110.17" height="53.7"/><rect class="cls-4" x="451.8" y="123.59" width="110.17" height="53.7"/><path class="cls-5" d="M467.49,155.11l-2.9-8.35h-.06c.08,1.24.12,2.41.12,3.49v4.86h-1.48v-10h2.3l2.78,7.95h0l2.85-7.95h2.32v10h-1.58v-4.94c0-.5,0-1.15,0-1.94s.05-1.28.07-1.45h-.06l-3,8.33Z"/><path class="cls-5" d="M475.61,145.55a.9.9,0,0,1,.24-.67,1.08,1.08,0,0,1,1.33,0,.9.9,0,0,1,.24.67.84.84,0,0,1-.24.64,1,1,0,0,1-1.33,0A.84.84,0,0,1,475.61,145.55Zm1.7,9.56h-1.6v-7.56h1.6Z"/><path class="cls-5" d="M482.45,155.25a3.34,3.34,0,0,1-2.61-1,5.09,5.09,0,0,1,0-5.81,3.44,3.44,0,0,1,2.7-1,5,5,0,0,1,2.15.45l-.48,1.29a4.76,4.76,0,0,0-1.69-.4c-1.3,0-2,.87-2,2.61a3.18,3.18,0,0,0,.49,1.91,1.71,1.71,0,0,0,1.43.64,4,4,0,0,0,2-.54v1.4a3.23,3.23,0,0,1-.92.37A5.64,5.64,0,0,1,482.45,155.25Z"/><path class="cls-5" d="M490,147.41a4.32,4.32,0,0,1,.8.07l-.16,1.5a2.81,2.81,0,0,0-.71-.08,2.07,2.07,0,0,0-1.56.62,2.29,2.29,0,0,0-.6,1.64v4h-1.61v-7.56h1.26l.21,1.33h.08a3,3,0,0,1,1-1.07A2.4,2.4,0,0,1,490,147.41Z"/><path class="cls-5" d="M498.65,151.32a4.11,4.11,0,0,1-.95,2.89,3.4,3.4,0,0,1-2.64,1,3.65,3.65,0,0,1-1.88-.48,3.23,3.23,0,0,1-1.25-1.38,4.67,4.67,0,0,1-.43-2.07,4.11,4.11,0,0,1,.94-2.88,3.46,3.46,0,0,1,2.66-1,3.33,3.33,0,0,1,2.6,1.06A4.1,4.1,0,0,1,498.65,151.32Zm-5.5,0c0,1.74.65,2.61,1.94,2.61s1.91-.87,1.91-2.61-.64-2.6-1.93-2.6a1.65,1.65,0,0,0-1.46.67A3.38,3.38,0,0,0,493.15,151.32Z"/><path class="cls-5" d="M505.37,153a2,2,0,0,1-.81,1.7,3.9,3.9,0,0,1-2.31.59,5.54,5.54,0,0,1-2.43-.46V153.4a6,6,0,0,0,2.49.62c1,0,1.48-.3,1.48-.9a.77.77,0,0,0-.16-.48,1.79,1.79,0,0,0-.54-.39,8.66,8.66,0,0,0-1-.47,4.88,4.88,0,0,1-1.77-1,1.87,1.87,0,0,1-.46-1.31,1.73,1.73,0,0,1,.78-1.51,3.73,3.73,0,0,1,2.13-.54,6.08,6.08,0,0,1,2.53.54l-.52,1.21a5.79,5.79,0,0,0-2.06-.5c-.85,0-1.27.24-1.27.72a.72.72,0,0,0,.33.6,7,7,0,0,0,1.44.68,6.37,6.37,0,0,1,1.36.66,1.81,1.81,0,0,1,.63.7A2,2,0,0,1,505.37,153Z"/><path class="cls-5" d="M510.2,155.25a3.67,3.67,0,0,1-2.76-1,3.93,3.93,0,0,1-1-2.84,4.27,4.27,0,0,1,.93-2.91,3.2,3.2,0,0,1,2.53-1.06,3.15,3.15,0,0,1,2.37.91,3.47,3.47,0,0,1,.87,2.5v.87h-5a2.46,2.46,0,0,0,.59,1.69,2.06,2.06,0,0,0,1.58.59,6.17,6.17,0,0,0,1.25-.12,7.57,7.57,0,0,0,1.24-.42v1.3a4.91,4.91,0,0,1-1.19.4A7.06,7.06,0,0,1,510.2,155.25Zm-.3-6.62a1.6,1.6,0,0,0-1.22.48,2.28,2.28,0,0,0-.55,1.42h3.43a2.12,2.12,0,0,0-.45-1.42A1.57,1.57,0,0,0,509.9,148.63Z"/><path class="cls-5" d="M518.59,147.41a4.32,4.32,0,0,1,.8.07l-.16,1.5a2.81,2.81,0,0,0-.71-.08,2.07,2.07,0,0,0-1.56.62,2.29,2.29,0,0,0-.6,1.64v4h-1.61v-7.56H516l.21,1.33h.08a3,3,0,0,1,1-1.07A2.4,2.4,0,0,1,518.59,147.41Z"/><path class="cls-5" d="M522.3,155.11l-2.87-7.56h1.69l1.54,4.39a8.12,8.12,0,0,1,.48,1.8h.06a12.68,12.68,0,0,1,.47-1.8l1.54-4.39h1.71L524,155.11Z"/><path class="cls-5" d="M527.76,145.55a.9.9,0,0,1,.24-.67.94.94,0,0,1,.67-.23.82.82,0,0,1,.9.9.84.84,0,0,1-.24.64.86.86,0,0,1-.66.24.9.9,0,0,1-.67-.24A.84.84,0,0,1,527.76,145.55Zm1.71,9.56h-1.61v-7.56h1.61Z"/><path class="cls-5" d="M534.6,155.25a3.35,3.35,0,0,1-2.61-1,4.22,4.22,0,0,1-.89-2.88,4.16,4.16,0,0,1,.94-2.93,3.43,3.43,0,0,1,2.69-1,5,5,0,0,1,2.15.45l-.48,1.29a4.76,4.76,0,0,0-1.68-.4c-1.31,0-2,.87-2,2.61a3.18,3.18,0,0,0,.48,1.91,1.73,1.73,0,0,0,1.44.64,4.09,4.09,0,0,0,2-.54v1.4a3.48,3.48,0,0,1-.92.37A5.74,5.74,0,0,1,534.6,155.25Z"/><path class="cls-5" d="M541.58,155.25a3.67,3.67,0,0,1-2.76-1,3.93,3.93,0,0,1-1-2.84,4.27,4.27,0,0,1,.93-2.91,3.2,3.2,0,0,1,2.53-1.06,3.15,3.15,0,0,1,2.37.91,3.47,3.47,0,0,1,.87,2.5v.87h-5a2.46,2.46,0,0,0,.59,1.69,2.06,2.06,0,0,0,1.58.59,6.17,6.17,0,0,0,1.25-.12,7.57,7.57,0,0,0,1.24-.42v1.3a4.91,4.91,0,0,1-1.19.4A7.06,7.06,0,0,1,541.58,155.25Zm-.3-6.62a1.6,1.6,0,0,0-1.22.48,2.28,2.28,0,0,0-.55,1.42h3.43a2.12,2.12,0,0,0-.45-1.42A1.57,1.57,0,0,0,541.28,148.63Z"/><path class="cls-5" d="M551.21,153a2,2,0,0,1-.81,1.7,3.86,3.86,0,0,1-2.31.59,5.52,5.52,0,0,1-2.42-.46V153.4a5.92,5.92,0,0,0,2.48.62c1,0,1.48-.3,1.48-.9a.71.71,0,0,0-.16-.48,1.79,1.79,0,0,0-.54-.39,8,8,0,0,0-1-.47,4.88,4.88,0,0,1-1.77-1,1.92,1.92,0,0,1-.46-1.31,1.72,1.72,0,0,1,.79-1.51,3.68,3.68,0,0,1,2.12-.54,6.08,6.08,0,0,1,2.53.54l-.52,1.21a5.75,5.75,0,0,0-2.06-.5c-.85,0-1.27.24-1.27.72a.72.72,0,0,0,.33.6,6.92,6.92,0,0,0,1.45.68,6.9,6.9,0,0,1,1.36.66,2,2,0,0,1,.63.7A2.07,2.07,0,0,1,551.21,153Z"/><rect class="cls-4" x="571.26" y="41.69" width="136.27" height="53.7"/><path class="cls-5" d="M629.8,59.82a5,5,0,0,1-1.38,3.78,5.51,5.51,0,0,1-4,1.31h-2.79v-10h3.09a5.13,5.13,0,0,1,3.71,1.28A4.82,4.82,0,0,1,629.8,59.82Zm-1.73,0c0-2.39-1.11-3.59-3.35-3.59H623.3v7.26h1.16Q628.08,63.54,628.07,59.87Z"/><path class="cls-5" d="M631.47,55.35a.9.9,0,1,1,1.8,0A.88.88,0,0,1,633,56a.89.89,0,0,1-.66.24.91.91,0,0,1-.68-.24A.88.88,0,0,1,631.47,55.35Zm1.7,9.56h-1.61V57.35h1.61Z"/><path class="cls-5" d="M640.34,62.76a2,2,0,0,1-.81,1.7,3.9,3.9,0,0,1-2.31.59,5.4,5.4,0,0,1-2.43-.46V63.2a6,6,0,0,0,2.48.62c1,0,1.49-.3,1.49-.9a.72.72,0,0,0-.17-.48,2,2,0,0,0-.54-.39,10.23,10.23,0,0,0-1-.47,4.79,4.79,0,0,1-1.77-1,1.85,1.85,0,0,1-.46-1.31,1.73,1.73,0,0,1,.78-1.51,3.69,3.69,0,0,1,2.13-.54,6,6,0,0,1,2.52.54L639.69,59a5.7,5.7,0,0,0-2.06-.5c-.84,0-1.27.24-1.27.72a.72.72,0,0,0,.33.6,7.49,7.49,0,0,0,1.45.68,6.62,6.62,0,0,1,1.36.66,2.07,2.07,0,0,1,.63.7A2,2,0,0,1,640.34,62.76Z"/><path class="cls-5" d="M644.68,63.75a3.67,3.67,0,0,0,1.17-.19v1.21a2.78,2.78,0,0,1-.68.2,4.94,4.94,0,0,1-.87.08c-1.53,0-2.29-.8-2.29-2.41V58.57h-1v-.71l1.11-.59.54-1.6h1v1.68h2.15v1.22h-2.15v4a1.11,1.11,0,0,0,.29.86A1,1,0,0,0,644.68,63.75Z"/><path class="cls-5" d="M651,57.21a4.32,4.32,0,0,1,.8.07l-.16,1.5a2.76,2.76,0,0,0-.71-.08,2.06,2.06,0,0,0-1.56.63,2.26,2.26,0,0,0-.6,1.63v3.95h-1.61V57.35h1.26l.21,1.33h.09a2.89,2.89,0,0,1,1-1.07A2.34,2.34,0,0,1,651,57.21Z"/><path class="cls-5" d="M652.88,55.35a.9.9,0,0,1,.24-.67.94.94,0,0,1,.67-.23.82.82,0,0,1,.9.9.84.84,0,0,1-.24.64.86.86,0,0,1-.66.24.9.9,0,0,1-.67-.24A.84.84,0,0,1,652.88,55.35Zm1.71,9.56H653V57.35h1.61Z"/><path class="cls-5" d="M660.54,57.21a2.64,2.64,0,0,1,2.2,1,4.59,4.59,0,0,1,.79,2.88,4.64,4.64,0,0,1-.8,2.89,2.91,2.91,0,0,1-4.45,0h-.11l-.29.89h-1.21V54.27h1.61V56.8q0,.29,0,.84c0,.37,0,.6,0,.7h.07A2.56,2.56,0,0,1,660.54,57.21Zm-.42,1.32a1.64,1.64,0,0,0-1.4.57,3.35,3.35,0,0,0-.44,1.91v.11a3.57,3.57,0,0,0,.44,2,1.64,1.64,0,0,0,1.43.62,1.44,1.44,0,0,0,1.29-.68,3.54,3.54,0,0,0,.44-2C661.88,59.39,661.3,58.53,660.12,58.53Z"/><path class="cls-5" d="M670.52,64.91l-.23-1h-.08a2.27,2.27,0,0,1-1,.83,3.24,3.24,0,0,1-1.41.3,2.75,2.75,0,0,1-2.05-.69,2.78,2.78,0,0,1-.68-2.07V57.35h1.62V62a2.09,2.09,0,0,0,.35,1.31,1.4,1.4,0,0,0,1.12.43,1.74,1.74,0,0,0,1.48-.61,3.27,3.27,0,0,0,.48-2V57.35h1.61v7.56Z"/><path class="cls-5" d="M676.68,63.75a3.78,3.78,0,0,0,1.18-.19v1.21a3,3,0,0,1-.69.2,4.94,4.94,0,0,1-.87.08c-1.53,0-2.29-.8-2.29-2.41V58.57h-1v-.71l1.11-.59.55-1.6h1v1.68h2.15v1.22h-2.15v4a1.11,1.11,0,0,0,.29.86A1,1,0,0,0,676.68,63.75Z"/><path class="cls-5" d="M682.46,65.05a3.64,3.64,0,0,1-2.76-1,3.92,3.92,0,0,1-1-2.83,4.28,4.28,0,0,1,.92-2.92,3.2,3.2,0,0,1,2.53-1.06,3.15,3.15,0,0,1,2.37.91,3.48,3.48,0,0,1,.87,2.51v.86h-5a2.51,2.51,0,0,0,.59,1.7,2.1,2.1,0,0,0,1.58.59,6.07,6.07,0,0,0,1.25-.13,5.86,5.86,0,0,0,1.24-.42v1.31a5.34,5.34,0,0,1-1.19.39A7.06,7.06,0,0,1,682.46,65.05Zm-.3-6.62a1.57,1.57,0,0,0-1.22.49,2.28,2.28,0,0,0-.55,1.41h3.43a2.12,2.12,0,0,0-.45-1.42A1.56,1.56,0,0,0,682.16,58.43Z"/><path class="cls-5" d="M689.56,65.05a2.63,2.63,0,0,1-2.21-1,5.63,5.63,0,0,1,0-5.77,2.68,2.68,0,0,1,2.23-1,2.62,2.62,0,0,1,2.27,1.1h.08a9,9,0,0,1-.11-1.28V54.27h1.61V64.91h-1.26l-.28-1h-.07A2.59,2.59,0,0,1,689.56,65.05Zm.43-1.3a1.78,1.78,0,0,0,1.45-.56,2.94,2.94,0,0,0,.46-1.81v-.22a3.39,3.39,0,0,0-.46-2,1.74,1.74,0,0,0-1.46-.6,1.5,1.5,0,0,0-1.31.68,3.58,3.58,0,0,0-.45,2,3.41,3.41,0,0,0,.44,1.92A1.5,1.5,0,0,0,690,63.75Z"/><path class="cls-5" d="M624.31,80.55a3.69,3.69,0,0,0,1.18-.19v1.21a3,3,0,0,1-.69.2,4.94,4.94,0,0,1-.87.08c-1.52,0-2.28-.8-2.28-2.41V75.37h-1v-.71l1.1-.59.55-1.6h1v1.68h2.16v1.22h-2.16v4a1.14,1.14,0,0,0,.29.86A1.05,1.05,0,0,0,624.31,80.55Z"/><path class="cls-5" d="M630.63,74a4.32,4.32,0,0,1,.8.07l-.16,1.5a2.81,2.81,0,0,0-.71-.08,2,2,0,0,0-1.56.63,2.26,2.26,0,0,0-.6,1.63v3.95h-1.61V74.15h1.26l.21,1.33h.08a3,3,0,0,1,1-1.07A2.4,2.4,0,0,1,630.63,74Z"/><path class="cls-5" d="M637.35,81.71l-.32-1H637a3.09,3.09,0,0,1-1.1.94,3.58,3.58,0,0,1-1.42.25,2.42,2.42,0,0,1-1.74-.6,2.25,2.25,0,0,1-.63-1.71,2,2,0,0,1,.87-1.76,5,5,0,0,1,2.65-.65l1.3,0v-.4a1.52,1.52,0,0,0-.34-1.09,1.35,1.35,0,0,0-1-.36,3.5,3.5,0,0,0-1.12.18,7,7,0,0,0-1,.4l-.52-1.15a5.61,5.61,0,0,1,1.34-.49,6.34,6.34,0,0,1,1.38-.17,3.26,3.26,0,0,1,2.18.63,2.47,2.47,0,0,1,.74,2v5.09ZM635,80.62a2,2,0,0,0,1.4-.49,1.78,1.78,0,0,0,.53-1.37V78.1l-1,0a3.39,3.39,0,0,0-1.65.38,1.15,1.15,0,0,0-.52,1,1,1,0,0,0,.3.78A1.27,1.27,0,0,0,635,80.62Z"/><path class="cls-5" d="M643.58,81.85a3.32,3.32,0,0,1-2.61-1A5.09,5.09,0,0,1,641,75a3.47,3.47,0,0,1,2.7-1,5,5,0,0,1,2.15.45l-.48,1.29a5,5,0,0,0-1.69-.4c-1.31,0-2,.87-2,2.61a3.09,3.09,0,0,0,.49,1.91,1.68,1.68,0,0,0,1.43.64,4.06,4.06,0,0,0,2-.54v1.41a3.21,3.21,0,0,1-.92.36A5.64,5.64,0,0,1,643.58,81.85Z"/><path class="cls-5" d="M647.15,72.15a.9.9,0,0,1,.24-.67.94.94,0,0,1,.67-.23.82.82,0,0,1,.9.9.84.84,0,0,1-.24.64.86.86,0,0,1-.66.24.9.9,0,0,1-.67-.24A.84.84,0,0,1,647.15,72.15Zm1.71,9.56h-1.61V74.15h1.61Z"/><path class="cls-5" d="M657.59,81.71H656V77.06a2,2,0,0,0-.35-1.3,1.36,1.36,0,0,0-1.12-.43,1.78,1.78,0,0,0-1.49.6,3.34,3.34,0,0,0-.47,2v3.77h-1.61V74.15h1.26l.23,1h.08a2.2,2.2,0,0,1,1-.83,3.18,3.18,0,0,1,1.39-.3c1.82,0,2.72.93,2.72,2.77Z"/><path class="cls-5" d="M666,74.15V75l-1.3.24a2.17,2.17,0,0,1,.3.59,2.55,2.55,0,0,1,.11.74,2.29,2.29,0,0,1-.8,1.84,3.43,3.43,0,0,1-2.23.67,3.2,3.2,0,0,1-.65-.06.91.91,0,0,0-.52.75.41.41,0,0,0,.24.39,2,2,0,0,0,.89.13h1.32a2.89,2.89,0,0,1,1.9.54,1.83,1.83,0,0,1,.65,1.53,2.24,2.24,0,0,1-1.06,2,5.59,5.59,0,0,1-3.06.69,4.27,4.27,0,0,1-2.36-.54,1.78,1.78,0,0,1-.81-1.56,1.65,1.65,0,0,1,.44-1.17,2.33,2.33,0,0,1,1.23-.66,1.25,1.25,0,0,1-.53-.44,1.18,1.18,0,0,1,0-1.36,2.63,2.63,0,0,1,.72-.58,2.14,2.14,0,0,1-1-.83,2.71,2.71,0,0,1,.41-3.24,3.28,3.28,0,0,1,2.21-.68,5.45,5.45,0,0,1,.68,0l.53.09Zm-6,8.74a.9.9,0,0,0,.47.8,2.64,2.64,0,0,0,1.32.28,4,4,0,0,0,1.95-.38,1.13,1.13,0,0,0,.65-1,.74.74,0,0,0-.36-.7,2.77,2.77,0,0,0-1.3-.21h-1.22a1.7,1.7,0,0,0-1.1.33A1.06,1.06,0,0,0,660.06,82.89Zm.7-6.29a1.52,1.52,0,0,0,.36,1.09,1.35,1.35,0,0,0,1,.38c.93,0,1.39-.49,1.39-1.49a1.66,1.66,0,0,0-.34-1.13,1.3,1.3,0,0,0-1.05-.4,1.38,1.38,0,0,0-1.06.39A1.68,1.68,0,0,0,660.76,76.6Z"/><path class="cls-6" d="M323.13,66.21a36.81,36.81,0,0,0-1.59-6.12,8.44,8.44,0,0,1-1,1.84,9.76,9.76,0,0,0-15.38,1.8,6.45,6.45,0,0,1,4,1.68,6.74,6.74,0,0,0-3.77-1.12,6.92,6.92,0,0,0,0,13.83h15.93a6.1,6.1,0,0,0,1.86-11.91ZM308.24,76a.83.83,0,0,1-1.17.13.84.84,0,1,1,1.05-1.3A.83.83,0,0,1,308.24,76Zm13.26-2.92c-2.41,3.21-7.56,2.13-10.86,2.28a11.25,11.25,0,0,0-1.17.13l.5-.19a36.65,36.65,0,0,0,4.83-1.69c2.64-1.35,5.28-4.31,5.81-7.38-1,3-4.07,5.49-6.86,6.53a47.75,47.75,0,0,1-5.36,1.39l-.14-.08c-2.35-1.14-2.42-6.23,1.85-7.87,1.87-.72,3.66-.32,5.68-.8a8.91,8.91,0,0,0,5.67-4.25C322.59,64.51,324,69.79,321.5,73.06Z"/><path class="cls-6" d="M606.74,65.09A37.92,37.92,0,0,0,605.15,59a9.15,9.15,0,0,1-1,1.85,9.77,9.77,0,0,0-15.39,1.79,6.48,6.48,0,0,1,4,1.68,6.7,6.7,0,0,0-3.77-1.11,6.91,6.91,0,0,0,0,13.82h15.94a6.1,6.1,0,0,0,1.86-11.9Zm-14.89,9.77a.84.84,0,0,1-1.18.12.84.84,0,0,1,1.05-1.3A.84.84,0,0,1,591.85,74.86Zm13.26-2.93c-2.42,3.22-7.56,2.13-10.87,2.29a11.55,11.55,0,0,0-1.17.13s.22-.1.51-.2a38.17,38.17,0,0,0,4.82-1.68c2.65-1.36,5.28-4.31,5.82-7.38-1,3-4.07,5.49-6.86,6.52A45.49,45.49,0,0,1,592,73l-.14-.07c-2.35-1.14-2.41-6.23,1.85-7.87,1.87-.72,3.66-.33,5.68-.81A8.85,8.85,0,0,0,605.05,60C606.19,63.39,607.56,68.67,605.11,71.93Z"/><rect class="cls-4" x="288.09" y="307.77" width="131.02" height="53.7"/><path class="cls-5" d="M341.91,322.83a2.72,2.72,0,0,0-2.22,1,4.34,4.34,0,0,0-.8,2.76,4.29,4.29,0,0,0,.77,2.78,2.75,2.75,0,0,0,2.25.94,6.26,6.26,0,0,0,1.23-.12c.39-.09.81-.2,1.24-.33v1.4a7.48,7.48,0,0,1-2.67.45,4.28,4.28,0,0,1-3.37-1.33,5.6,5.6,0,0,1-1.18-3.81,6.16,6.16,0,0,1,.57-2.73,4.21,4.21,0,0,1,1.65-1.79,5.08,5.08,0,0,1,2.54-.62,6.39,6.39,0,0,1,2.83.64l-.59,1.36a9.54,9.54,0,0,0-1.07-.42A3.83,3.83,0,0,0,341.91,322.83Z"/><path class="cls-5" d="M352.85,327.78a4.11,4.11,0,0,1-1,2.89,3.4,3.4,0,0,1-2.64,1,3.65,3.65,0,0,1-1.88-.48,3.23,3.23,0,0,1-1.25-1.38,4.67,4.67,0,0,1-.43-2.07,4.11,4.11,0,0,1,.94-2.88,3.46,3.46,0,0,1,2.66-1,3.33,3.33,0,0,1,2.6,1.06A4.06,4.06,0,0,1,352.85,327.78Zm-5.5,0c0,1.74.65,2.61,1.94,2.61s1.91-.87,1.91-2.61-.64-2.6-1.93-2.6a1.65,1.65,0,0,0-1.46.67A3.38,3.38,0,0,0,347.35,327.78Z"/><path class="cls-5" d="M361.14,331.57h-1.61v-4.65a2,2,0,0,0-.35-1.3,1.37,1.37,0,0,0-1.12-.44,1.78,1.78,0,0,0-1.49.61,3.27,3.27,0,0,0-.47,2v3.77h-1.61V324h1.26l.22,1h.08a2.22,2.22,0,0,1,1-.83,3.18,3.18,0,0,1,1.39-.3,2.43,2.43,0,0,1,2.72,2.77Z"/><path class="cls-5" d="M367,325.23h-1.85v6.34H363.5v-6.34h-1.24v-.76l1.24-.49v-.49a2.76,2.76,0,0,1,.63-2,2.57,2.57,0,0,1,1.92-.64,5,5,0,0,1,1.67.28l-.42,1.21a4,4,0,0,0-1.14-.19,1,1,0,0,0-.8.34,1.78,1.78,0,0,0-.25,1V324H367Zm1.19-3.22a.9.9,0,0,1,.24-.67,1.08,1.08,0,0,1,1.33,0,.9.9,0,0,1,.23.67.84.84,0,0,1-.23.64,1,1,0,0,1-1.33,0A.84.84,0,0,1,368.15,322Zm1.7,9.56h-1.6V324h1.6Z"/><path class="cls-5" d="M378.33,324v.88l-1.29.24a1.91,1.91,0,0,1,.29.59,2.45,2.45,0,0,1-.69,2.58,3.42,3.42,0,0,1-2.22.67,3.37,3.37,0,0,1-.66-.06.93.93,0,0,0-.52.75.41.41,0,0,0,.25.39,2,2,0,0,0,.89.13h1.32a2.91,2.91,0,0,1,1.9.54,1.86,1.86,0,0,1,.65,1.53,2.27,2.27,0,0,1-1.06,2,5.64,5.64,0,0,1-3.06.69,4.27,4.27,0,0,1-2.36-.54,1.77,1.77,0,0,1-.82-1.56,1.65,1.65,0,0,1,.44-1.17,2.36,2.36,0,0,1,1.24-.66,1.27,1.27,0,0,1-.53-.45,1.13,1.13,0,0,1,0-1.35,2.73,2.73,0,0,1,.71-.58,2.11,2.11,0,0,1-.95-.83,2.35,2.35,0,0,1-.37-1.33,2.39,2.39,0,0,1,.78-1.91,3.25,3.25,0,0,1,2.21-.68,5.29,5.29,0,0,1,.67.05,4.67,4.67,0,0,1,.53.09Zm-5.94,8.74a.9.9,0,0,0,.47.8,2.63,2.63,0,0,0,1.31.28,4,4,0,0,0,2-.38,1.12,1.12,0,0,0,.64-1,.75.75,0,0,0-.35-.7,2.82,2.82,0,0,0-1.31-.21h-1.22a1.67,1.67,0,0,0-1.09.33A1.06,1.06,0,0,0,372.39,332.75Zm.69-6.29a1.48,1.48,0,0,0,.37,1.09,1.35,1.35,0,0,0,1.05.38c.92,0,1.39-.49,1.39-1.49a1.76,1.76,0,0,0-.34-1.14,1.59,1.59,0,0,0-2.11,0A1.68,1.68,0,0,0,373.08,326.46Z"/><path class="cls-5" d="M342.56,346.22a2,2,0,0,1-.8,1.7,3.9,3.9,0,0,1-2.31.59,5.54,5.54,0,0,1-2.43-.46v-1.39a6,6,0,0,0,2.48.62c1,0,1.48-.3,1.48-.9a.71.71,0,0,0-.16-.48,1.79,1.79,0,0,0-.54-.39,8,8,0,0,0-1-.47,4.82,4.82,0,0,1-1.76-1,1.87,1.87,0,0,1-.46-1.31,1.73,1.73,0,0,1,.78-1.51,3.69,3.69,0,0,1,2.13-.54,6,6,0,0,1,2.52.54l-.52,1.21a5.7,5.7,0,0,0-2.06-.5c-.84,0-1.27.24-1.27.72a.72.72,0,0,0,.33.6,7.19,7.19,0,0,0,1.45.68,6.62,6.62,0,0,1,1.36.66,2,2,0,0,1,.63.7A2,2,0,0,1,342.56,346.22Z"/><path class="cls-5" d="M347.39,348.51a3.7,3.7,0,0,1-2.76-1,3.93,3.93,0,0,1-1-2.84,4.32,4.32,0,0,1,.92-2.91,3.22,3.22,0,0,1,2.54-1.06,3.13,3.13,0,0,1,2.36.91,3.47,3.47,0,0,1,.87,2.5V345h-5a2.46,2.46,0,0,0,.6,1.69,2,2,0,0,0,1.58.59,6.07,6.07,0,0,0,1.24-.12,7.65,7.65,0,0,0,1.25-.42V348a5.06,5.06,0,0,1-1.19.4A7.09,7.09,0,0,1,347.39,348.51Zm-.29-6.62a1.63,1.63,0,0,0-1.23.48,2.33,2.33,0,0,0-.55,1.42h3.43a2.12,2.12,0,0,0-.45-1.42A1.54,1.54,0,0,0,347.1,341.89Z"/><path class="cls-5" d="M355.78,340.67a4.23,4.23,0,0,1,.8.07l-.16,1.5a2.71,2.71,0,0,0-.71-.08,2.09,2.09,0,0,0-1.56.62,2.29,2.29,0,0,0-.6,1.64v3.95H352v-7.56h1.25l.22,1.33h.08a3,3,0,0,1,1-1.07A2.29,2.29,0,0,1,355.78,340.67Z"/><path class="cls-5" d="M359.5,348.37l-2.88-7.56h1.7l1.54,4.39a9.42,9.42,0,0,1,.48,1.8h.05a11.8,11.8,0,0,1,.48-1.8l1.54-4.39h1.71l-2.89,7.56Z"/><path class="cls-5" d="M368.36,348.51a3.67,3.67,0,0,1-2.76-1,3.93,3.93,0,0,1-1-2.84,4.27,4.27,0,0,1,.93-2.91,3.2,3.2,0,0,1,2.53-1.06,3.15,3.15,0,0,1,2.37.91,3.47,3.47,0,0,1,.87,2.5V345h-5a2.46,2.46,0,0,0,.59,1.69,2.06,2.06,0,0,0,1.58.59,6.17,6.17,0,0,0,1.25-.12,7.57,7.57,0,0,0,1.24-.42V348a4.91,4.91,0,0,1-1.19.4A7.06,7.06,0,0,1,368.36,348.51Zm-.3-6.62a1.6,1.6,0,0,0-1.22.48,2.28,2.28,0,0,0-.55,1.42h3.43a2.12,2.12,0,0,0-.45-1.42A1.57,1.57,0,0,0,368.06,341.89Z"/><path class="cls-5" d="M376.75,340.67a4.32,4.32,0,0,1,.8.07l-.16,1.5a2.81,2.81,0,0,0-.71-.08,2.07,2.07,0,0,0-1.56.62,2.29,2.29,0,0,0-.6,1.64v3.95h-1.61v-7.56h1.26l.21,1.33h.08a3,3,0,0,1,1-1.07A2.32,2.32,0,0,1,376.75,340.67Z"/><path class="cls-6" d="M323.13,332.29a36.81,36.81,0,0,0-1.59-6.12,8.21,8.21,0,0,1-1,1.84,9.76,9.76,0,0,0-15.38,1.8,6.45,6.45,0,0,1,4,1.68,6.74,6.74,0,0,0-3.77-1.12,6.92,6.92,0,0,0,0,13.83h15.93a6.1,6.1,0,0,0,1.86-11.91Zm-14.89,9.77a.83.83,0,0,1-1.17.13.84.84,0,1,1,1.05-1.3A.83.83,0,0,1,308.24,342.06Zm13.26-2.92c-2.41,3.21-7.56,2.13-10.86,2.28,0,0-.59,0-1.17.13l.5-.19a36.65,36.65,0,0,0,4.83-1.69c2.64-1.35,5.28-4.31,5.81-7.38-1,3-4.07,5.5-6.86,6.53a47.75,47.75,0,0,1-5.36,1.39l-.14-.08c-2.35-1.14-2.42-6.23,1.85-7.87,1.87-.72,3.66-.32,5.68-.8a8.88,8.88,0,0,0,5.67-4.25C322.59,330.59,324,335.87,321.5,339.14Z"/><path class="cls-6" d="M231.72,236.86a36.9,36.9,0,0,0-1.59-6.13,8.28,8.28,0,0,1-1,1.85,9.76,9.76,0,0,0-15.38,1.79,6.5,6.5,0,0,1,4,1.68,6.7,6.7,0,0,0-3.77-1.11,6.91,6.91,0,0,0,0,13.82h15.93a6.09,6.09,0,0,0,1.86-11.9Zm-14.89,9.77a.83.83,0,1,1-.12-1.18A.84.84,0,0,1,216.83,246.63Zm13.26-2.93c-2.41,3.22-7.56,2.13-10.86,2.29a11.55,11.55,0,0,0-1.17.13s.22-.1.5-.2a38.41,38.41,0,0,0,4.83-1.68c2.65-1.36,5.28-4.31,5.82-7.38-1,2.95-4.08,5.49-6.87,6.52a45.52,45.52,0,0,1-5.36,1.39l-.14-.07c-2.35-1.14-2.42-6.23,1.85-7.87,1.87-.72,3.66-.33,5.68-.81a8.88,8.88,0,0,0,5.67-4.24C231.18,235.16,232.55,240.44,230.09,243.7Z"/><rect class="cls-7" x="34.72" y="146.49" width="111.67" height="53.7"/><rect class="cls-7" x="34.72" y="212.34" width="111.67" height="53.7"/><rect class="cls-7" x="34.72" y="275.49" width="111.67" height="53.7"/><path class="cls-8" d="M63.24,232.58a2.06,2.06,0,0,0-2.06-2.06H52.93a2.06,2.06,0,0,0-2.06,2.06v16.5a2.06,2.06,0,0,0,2.06,2.06h8.25a2.06,2.06,0,0,0,2.06-2.06ZM61.18,247H52.93V234.64h8.25Z"/><circle class="cls-7" cx="57.06" cy="248.99" r="0.84"/><path class="cls-5" d="M79.78,245l-2.89-8.34h-.06q.12,1.86.12,3.48V245H75.46V235h2.31l2.77,8h0l2.86-8h2.31v10H84.18v-4.94c0-.5,0-1.14,0-1.94s0-1.28.06-1.45h0l-3,8.33Z"/><path class="cls-5" d="M94.71,241.24a4.14,4.14,0,0,1-.95,2.89,3.42,3.42,0,0,1-2.65,1,3.62,3.62,0,0,1-1.87-.48A3.2,3.2,0,0,1,88,243.32a4.72,4.72,0,0,1-.44-2.08,4.09,4.09,0,0,1,1-2.87,3.39,3.39,0,0,1,2.65-1,3.34,3.34,0,0,1,2.6,1A4.1,4.1,0,0,1,94.71,241.24Zm-5.5,0c0,1.75.64,2.62,1.93,2.62s1.92-.87,1.92-2.62-.65-2.59-1.93-2.59a1.63,1.63,0,0,0-1.47.67A3.45,3.45,0,0,0,89.21,241.24Z"/><path class="cls-5" d="M100.21,237.34a2.62,2.62,0,0,1,2.2,1,5.63,5.63,0,0,1,0,5.77,2.91,2.91,0,0,1-4.45,0h-.11l-.29.89h-1.2V234.4H98v2.53c0,.18,0,.46,0,.83s0,.6,0,.7H98A2.55,2.55,0,0,1,100.21,237.34Zm-.42,1.31a1.64,1.64,0,0,0-1.4.57,3.37,3.37,0,0,0-.44,1.91v.11a3.55,3.55,0,0,0,.44,2,1.64,1.64,0,0,0,1.43.62,1.44,1.44,0,0,0,1.29-.68,3.52,3.52,0,0,0,.44-2C101.55,239.51,101,238.65,99.79,238.65Z"/><path class="cls-5" d="M104.76,235.47a.86.86,0,0,1,.24-.66,1,1,0,0,1,1.33,0,.86.86,0,0,1,.24.66.88.88,0,0,1-.24.65,1.08,1.08,0,0,1-1.33,0A.88.88,0,0,1,104.76,235.47Zm1.7,9.56h-1.6v-7.56h1.6Z"/><path class="cls-5" d="M110.16,245h-1.61V234.4h1.61Z"/><path class="cls-5" d="M115.55,245.17a3.64,3.64,0,0,1-2.76-1,3.91,3.91,0,0,1-1-2.83,4.24,4.24,0,0,1,.93-2.91,3.16,3.16,0,0,1,2.53-1.06,3.11,3.11,0,0,1,2.37.91,3.46,3.46,0,0,1,.87,2.5v.87h-5a2.5,2.5,0,0,0,.59,1.69,2.1,2.1,0,0,0,1.58.59,5.51,5.51,0,0,0,1.25-.13,6.05,6.05,0,0,0,1.24-.42v1.31a4.88,4.88,0,0,1-1.19.39A7.06,7.06,0,0,1,115.55,245.17Zm-.3-6.62A1.57,1.57,0,0,0,114,239a2.22,2.22,0,0,0-.55,1.41h3.43a2.13,2.13,0,0,0-.45-1.42A1.57,1.57,0,0,0,115.25,238.55Z"/><path class="cls-5" d="M75.63,179V169h1.64v10Z"/><path class="cls-5" d="M86.23,175.17a4.14,4.14,0,0,1-1,2.89,3.41,3.41,0,0,1-2.65,1,3.62,3.62,0,0,1-1.87-.48,3.2,3.2,0,0,1-1.25-1.37,4.72,4.72,0,0,1-.44-2.08,4.07,4.07,0,0,1,1-2.87,3.41,3.41,0,0,1,2.66-1,3.32,3.32,0,0,1,2.59,1.06A4.06,4.06,0,0,1,86.23,175.17Zm-5.5,0c0,1.74.64,2.62,1.93,2.62s1.92-.88,1.92-2.62-.65-2.59-1.93-2.59a1.64,1.64,0,0,0-1.47.67A3.41,3.41,0,0,0,80.73,175.17Z"/><path class="cls-5" d="M91.49,179H89.86v-8.59H86.92V169h7.51v1.4H91.49Z"/><path class="cls-8" d="M57.05,169.76A2.07,2.07,0,0,0,55,171.83a2,2,0,0,0,1,1.77v8.54h2.06V173.6a2,2,0,0,0,1-1.77A2.07,2.07,0,0,0,57.05,169.76Z"/><path class="cls-8" d="M51.22,166l-1.46-1.46a10.33,10.33,0,0,0,0,14.59l1.46-1.46A8.26,8.26,0,0,1,51.22,166Z"/><path class="cls-8" d="M64.34,164.53,62.89,166a8.27,8.27,0,0,1,0,11.67l1.45,1.46a10.3,10.3,0,0,0,0-14.59Z"/><path class="cls-8" d="M52.68,167.45a6.19,6.19,0,0,0,0,8.75l1.46-1.46a4.12,4.12,0,0,1,0-5.83Z"/><path class="cls-8" d="M61.43,167.45,60,168.91a4.12,4.12,0,0,1,0,5.83l1.46,1.46a6.19,6.19,0,0,0,0-8.75Z"/><path class="cls-5" d="M75.46,298.27h3a5.68,5.68,0,0,1,3,.6,2.11,2.11,0,0,1,.91,1.9,2.31,2.31,0,0,1-.45,1.46,2,2,0,0,1-1.3.73V303a2.54,2.54,0,0,1,1.55.78,2.37,2.37,0,0,1,.5,1.58,2.56,2.56,0,0,1-.94,2.11,4,4,0,0,1-2.62.77H75.46Zm1.64,4.13h1.57a2.79,2.79,0,0,0,1.5-.32,1.27,1.27,0,0,0,.47-1.11,1.11,1.11,0,0,0-.51-1,3.19,3.19,0,0,0-1.62-.31H77.1Zm0,1.33v3.16h1.73a2.57,2.57,0,0,0,1.55-.39,1.45,1.45,0,0,0,.53-1.24,1.32,1.32,0,0,0-.54-1.16,2.81,2.81,0,0,0-1.62-.37Z"/><path class="cls-5" d="M88.16,300.57a3.6,3.6,0,0,1,.8.07l-.16,1.49a3.22,3.22,0,0,0-.71-.08,2.06,2.06,0,0,0-1.56.63,2.26,2.26,0,0,0-.6,1.63v4h-1.6V300.7h1.25L85.8,302h.08a3.1,3.1,0,0,1,1-1.08A2.36,2.36,0,0,1,88.16,300.57Z"/><path class="cls-5" d="M96.86,304.47a4.13,4.13,0,0,1-1,2.89,3.4,3.4,0,0,1-2.65,1,3.62,3.62,0,0,1-1.87-.48,3.14,3.14,0,0,1-1.25-1.37,4.72,4.72,0,0,1-.44-2.08,4.15,4.15,0,0,1,.94-2.87,3.42,3.42,0,0,1,2.66-1,3.34,3.34,0,0,1,2.6,1.05A4.1,4.1,0,0,1,96.86,304.47Zm-5.5,0c0,1.75.64,2.62,1.93,2.62s1.91-.87,1.91-2.62-.64-2.59-1.92-2.59a1.63,1.63,0,0,0-1.47.67A3.45,3.45,0,0,0,91.36,304.47Z"/><path class="cls-5" d="M104.69,308.27l-1-3.53c-.12-.38-.34-1.24-.65-2.61H103c-.26,1.23-.47,2.11-.63,2.62l-1,3.52H99.6l-2.12-7.57h1.64l1,3.73c.22.92.37,1.71.46,2.37h0c0-.34.12-.72.21-1.15s.18-.75.24-1l1.15-4H104l1.11,4c.07.23.15.57.26,1a8.71,8.71,0,0,1,.18,1.07h0a21.74,21.74,0,0,1,.48-2.35l1-3.73h1.61l-2.13,7.57Z"/><path class="cls-5" d="M114.8,306.11a2,2,0,0,1-.81,1.7,3.81,3.81,0,0,1-2.31.59,5.35,5.35,0,0,1-2.42-.46v-1.38a5.9,5.9,0,0,0,2.48.61c1,0,1.48-.3,1.48-.89a.7.7,0,0,0-.16-.48,2,2,0,0,0-.54-.4,8.17,8.17,0,0,0-1-.46,4.87,4.87,0,0,1-1.77-1,1.88,1.88,0,0,1-.46-1.31,1.74,1.74,0,0,1,.78-1.51,3.82,3.82,0,0,1,2.13-.53,6.08,6.08,0,0,1,2.53.54l-.52,1.21a5.58,5.58,0,0,0-2.06-.51c-.85,0-1.27.24-1.27.73a.74.74,0,0,0,.33.6,7.49,7.49,0,0,0,1.45.68,6.9,6.9,0,0,1,1.36.66,1.92,1.92,0,0,1,.62.69A2,2,0,0,1,114.8,306.11Z"/><path class="cls-5" d="M119.63,308.4a3.64,3.64,0,0,1-2.76-1,3.91,3.91,0,0,1-1-2.83,4.24,4.24,0,0,1,.93-2.91,3.16,3.16,0,0,1,2.53-1.06,3.11,3.11,0,0,1,2.37.91,3.46,3.46,0,0,1,.87,2.5v.87h-5a2.48,2.48,0,0,0,.59,1.69,2.1,2.1,0,0,0,1.58.59A5.45,5.45,0,0,0,121,307a5.86,5.86,0,0,0,1.24-.42v1.31a4.91,4.91,0,0,1-1.19.4A8,8,0,0,1,119.63,308.4Zm-.3-6.62a1.6,1.6,0,0,0-1.22.49,2.31,2.31,0,0,0-.55,1.42H121a2.1,2.1,0,0,0-.45-1.42A1.57,1.57,0,0,0,119.33,301.78Z"/><path class="cls-5" d="M128,300.57a3.6,3.6,0,0,1,.8.07l-.16,1.49a3.36,3.36,0,0,0-.71-.08,2.06,2.06,0,0,0-1.56.63,2.26,2.26,0,0,0-.6,1.63v4h-1.61V300.7h1.26l.21,1.34h.08a3.1,3.1,0,0,1,1-1.08A2.39,2.39,0,0,1,128,300.57Z"/><path class="cls-8" d="M64.23,295.77H49.88a1.78,1.78,0,0,0-1.78,1.77v10.84a1.78,1.78,0,0,0,1.78,1.78H64.23A1.78,1.78,0,0,0,66,308.38V297.54A1.78,1.78,0,0,0,64.23,295.77ZM49.88,308.38v-7.79H64.23v7.79Z"/><circle class="cls-7" cx="51.56" cy="298.09" r="0.84"/></svg>