<?xml version="1.0" encoding="utf-8"?>
<!-- Generator: Adobe Illustrator 24.1.0, SVG Export Plug-In . SVG Version: 6.00 Build 0)  -->
<svg version="1.1" id="Layer_1" xmlns="http://www.w3.org/2000/svg" xmlns:xlink="http://www.w3.org/1999/xlink" x="0px" y="0px"
	 viewBox="0 0 745 415.2" style="enable-background:new 0 0 745 415.2;" xml:space="preserve">
<style type="text/css">
	.st0{fill:#262A2D;}
	.st1{fill:#1B1F23;stroke:#6DB33F;stroke-miterlimit:10;}
	.st2{fill:#FFFFFF;}
	.st3{fill:none;stroke:#FFFFFF;stroke-miterlimit:10;}
	.st4{fill:none;stroke:#FFFFFF;stroke-miterlimit:10;stroke-dasharray:7.08,7.08;}
	.st5{fill:#68BD45;}
	.st6{fill:#1B1F23;}
	.st7{fill:#BBBCBE;}
</style>
<path class="st0" d="M6.2,0h732.6c3.4,0,6.2,2.8,6.2,6.2V409c0,3.4-2.8,6.2-6.2,6.2H6.2c-3.4,0-6.2-2.8-6.2-6.2V6.2
	C0,2.8,2.8,0,6.2,0z"/>
<rect x="196.3" y="212.3" class="st1" width="120.2" height="53.7"/>
<g>
	<path class="st2" d="M249.3,236.4l-1-2.8h-3.8l-1,2.8h-1.7l3.7-10h1.8l3.7,10H249.3z M247.9,232.2l-0.9-2.7
		c-0.1-0.2-0.2-0.5-0.3-0.9s-0.2-0.7-0.2-0.9c-0.1,0.6-0.3,1.2-0.5,1.8l-0.9,2.6H247.9z"/>
	<path class="st2" d="M258.8,229.4c0.1,0.9-0.3,1.8-1,2.4c-0.8,0.6-1.9,0.9-2.9,0.8h-1v3.7h-1.6v-10h2.8c1-0.1,2,0.2,2.8,0.8
		C258.5,227.7,258.8,228.5,258.8,229.4z M253.8,231.3h0.9c0.6,0,1.3-0.1,1.9-0.4c0.4-0.3,0.6-0.8,0.6-1.4c0-0.5-0.2-1-0.5-1.3
		c-0.5-0.3-1.1-0.5-1.6-0.4h-1.1V231.3z"/>
	<path class="st2" d="M260.6,236.4v-10h1.6v10H260.6z"/>
	<path class="st2" d="M247.2,247.8h3.7v5c-0.6,0.2-1.1,0.3-1.7,0.4c-0.6,0.1-1.2,0.1-1.8,0.1c-1.3,0.1-2.6-0.4-3.5-1.3
		c-0.9-1.1-1.3-2.4-1.2-3.8c-0.1-1.4,0.4-2.8,1.4-3.8c1-1,2.4-1.4,3.8-1.4c1,0,2.1,0.2,3,0.6l-0.6,1.4c-0.8-0.4-1.6-0.6-2.4-0.6
		c-0.9,0-1.9,0.3-2.5,1c-0.7,0.8-1,1.7-0.9,2.7c-0.1,1,0.2,2,0.8,2.8c0.6,0.7,1.5,1.1,2.4,1c0.6,0,1.1-0.1,1.7-0.2v-2.6h-2.1V247.8z
		"/>
	<path class="st2" d="M257.6,253.2l-0.3-1.1h-0.1c-0.3,0.4-0.7,0.7-1.1,0.9c-0.5,0.2-0.9,0.3-1.4,0.2c-0.6,0-1.3-0.2-1.7-0.6
		c-0.4-0.5-0.7-1.1-0.6-1.7c0-0.7,0.3-1.4,0.9-1.8c0.8-0.5,1.7-0.7,2.6-0.6h1.3v-0.4c0-0.4-0.1-0.8-0.3-1.1c-0.3-0.3-0.6-0.4-1-0.4
		c-0.4,0-0.8,0.1-1.1,0.2c-0.3,0.1-0.7,0.2-1,0.4l-0.5-1.1c0.4-0.2,0.9-0.4,1.3-0.5c0.5-0.1,0.9-0.2,1.4-0.2
		c0.8-0.1,1.6,0.2,2.2,0.6c0.5,0.5,0.8,1.3,0.7,2v5.1L257.6,253.2z M255.2,252.1c0.5,0,1-0.2,1.4-0.5c0.4-0.4,0.6-0.9,0.5-1.4v-0.6
		h-1c-0.6,0-1.1,0.1-1.6,0.4c-0.3,0.2-0.5,0.6-0.5,1c0,0.3,0.1,0.6,0.3,0.8C254.6,252,254.9,252.1,255.2,252.1L255.2,252.1z"/>
	<path class="st2" d="M263.6,252c0.4,0,0.8-0.1,1.2-0.2v1.2c-0.2,0.1-0.5,0.2-0.7,0.2c-0.3,0-0.6,0.1-0.9,0.1
		c-1.5,0-2.3-0.8-2.3-2.4v-4.1h-1v-0.7l1.1-0.6l0.5-1.6h1v1.7h2.1v1.2h-2.1v4c0,0.3,0.1,0.6,0.3,0.9
		C263.1,251.9,263.3,252,263.6,252z"/>
	<path class="st2" d="M269.4,253.3c-1,0.1-2-0.3-2.8-1c-0.7-0.8-1.1-1.8-1-2.8c-0.1-1,0.3-2.1,0.9-2.9c0.6-0.7,1.6-1.1,2.5-1.1
		c0.9,0,1.7,0.3,2.4,0.9c0.6,0.7,0.9,1.6,0.9,2.5v0.9h-5c0,0.6,0.2,1.2,0.6,1.7c0.4,0.4,1,0.6,1.6,0.6c0.4,0,0.8,0,1.2-0.1
		c0.4-0.1,0.8-0.2,1.2-0.4v1.3c-0.4,0.2-0.8,0.3-1.2,0.4C270.3,253.3,269.9,253.3,269.4,253.3z M269.1,246.7c-0.5,0-0.9,0.2-1.2,0.5
		c-0.3,0.4-0.5,0.9-0.5,1.4h3.4c0-0.5-0.1-1-0.5-1.4C270,246.9,269.6,246.7,269.1,246.7z"/>
	<path class="st2" d="M280.2,253.2l-1-3.5c-0.1-0.4-0.3-1.2-0.6-2.6h-0.1c-0.3,1.2-0.5,2.1-0.6,2.6l-1,3.5H275l-2.1-7.6h1.6l1,3.7
		c0.2,0.9,0.4,1.7,0.5,2.4h0c0-0.3,0.1-0.7,0.2-1.1s0.2-0.8,0.2-1l1.1-4h1.8l1.1,4c0.1,0.2,0.2,0.6,0.3,1c0.1,0.4,0.1,0.7,0.2,1.1h0
		c0.1-0.8,0.3-1.6,0.5-2.4l1-3.7h1.6l-2.1,7.6H280.2z"/>
	<path class="st2" d="M289.9,253.2l-0.3-1.1l0,0c-0.3,0.4-0.7,0.7-1.1,0.9c-0.5,0.2-0.9,0.3-1.4,0.2c-0.6,0-1.3-0.2-1.7-0.6
		c-0.4-0.5-0.7-1.1-0.6-1.7c0-0.7,0.3-1.4,0.9-1.8c0.8-0.5,1.7-0.7,2.6-0.6h1.3v-0.4c0-0.4-0.1-0.8-0.3-1.1c-0.3-0.3-0.7-0.4-1-0.4
		c-0.4,0-0.8,0.1-1.1,0.2c-0.3,0.1-0.7,0.2-1,0.4l-0.5-1.1c0.4-0.2,0.9-0.4,1.4-0.5c0.5-0.1,0.9-0.2,1.4-0.2
		c0.8-0.1,1.6,0.2,2.2,0.6c0.5,0.5,0.8,1.3,0.7,2v5.1L289.9,253.2z M287.5,252.1c0.5,0,1-0.2,1.4-0.5c0.4-0.4,0.6-0.9,0.5-1.4v-0.6
		h-1c-0.6,0-1.1,0.1-1.7,0.4c-0.3,0.2-0.5,0.6-0.5,1c0,0.3,0.1,0.6,0.3,0.8C286.8,252,287.2,252.1,287.5,252.1L287.5,252.1z"/>
	<path class="st2" d="M292,245.6h1.8l1.5,4.3c0.2,0.6,0.4,1.1,0.5,1.7h0c0.1-0.3,0.1-0.6,0.2-0.9c0.1-0.4,0.7-2.1,1.7-5.1h1.7
		l-3.2,8.6c-0.3,1.4-1.5,2.3-2.9,2.4c-0.3,0-0.7,0-1-0.1v-1.3c0.3,0.1,0.6,0.1,0.8,0.1c0.8,0,1.5-0.6,1.6-1.4l0.3-0.7L292,245.6z"/>
</g>
<g>
	<line class="st3" x1="399.7" y1="337.7" x2="638.4" y2="337.7"/>
	<g>
		<line class="st3" x1="399.7" y1="68.5" x2="617.5" y2="68.5"/>
		<line class="st3" x1="135.5" y1="238.2" x2="679.3" y2="238.2"/>
		<line class="st3" x1="712.5" y1="238.2" x2="706.5" y2="238.2"/>
		<line class="st4" x1="699.5" y1="238.2" x2="688.8" y2="238.2"/>
		<line class="st3" x1="685.3" y1="238.2" x2="679.3" y2="238.2"/>
		<line class="st3" x1="348.6" y1="142.4" x2="638.4" y2="142.4"/>
		<polyline class="st3" points="145.5,172.1 172.1,172.1 172.1,304.2 145.5,304.2 		"/>
		<line class="st3" x1="348.6" y1="62.6" x2="348.6" y2="325.4"/>
		<line class="st3" x1="638.4" y1="62.6" x2="638.4" y2="337.7"/>
	</g>
</g>
<rect x="288.1" y="41.7" class="st1" width="131" height="53.7"/>
<g>
	<path class="st2" d="M343.4,62.2c0,0.8-0.3,1.6-1,2.1c-0.8,0.5-1.7,0.8-2.6,0.8c-1,0-1.9-0.1-2.8-0.5V63c0.5,0.2,1,0.4,1.5,0.5
		c0.5,0.1,0.9,0.2,1.4,0.2c0.5,0,1-0.1,1.4-0.4c0.3-0.2,0.5-0.6,0.5-1c0-0.4-0.1-0.8-0.4-1c-0.5-0.4-1.1-0.7-1.8-0.9
		c-0.7-0.3-1.4-0.7-1.9-1.3c-0.4-0.5-0.6-1.1-0.6-1.7c0-0.8,0.3-1.5,0.9-2c0.7-0.5,1.5-0.8,2.4-0.7c1,0,2,0.2,2.9,0.6l-0.5,1.3
		c-0.7-0.3-1.6-0.5-2.4-0.6c-0.4,0-0.9,0.1-1.2,0.3c-0.3,0.2-0.4,0.6-0.4,0.9c0,0.2,0,0.5,0.2,0.7c0.1,0.2,0.3,0.4,0.5,0.5
		c0.4,0.3,0.9,0.5,1.4,0.7c0.6,0.2,1.1,0.5,1.6,0.9c0.3,0.2,0.6,0.5,0.8,0.9C343.3,61.3,343.4,61.8,343.4,62.2z"/>
	<path class="st2" d="M348.3,65.1c-1,0.1-2-0.3-2.8-1c-0.7-0.8-1.1-1.8-1-2.8c-0.1-1.1,0.3-2.1,0.9-2.9c0.6-0.7,1.6-1.1,2.6-1.1
		c0.9,0,1.7,0.3,2.4,0.9c0.6,0.7,0.9,1.6,0.9,2.5v0.9h-5c0,0.6,0.2,1.2,0.6,1.7c0.4,0.4,1,0.6,1.6,0.6c0.4,0,0.8,0,1.2-0.1
		c0.4-0.1,0.8-0.2,1.2-0.4v1.3c-0.4,0.2-0.8,0.3-1.2,0.4C349.2,65,348.8,65.1,348.3,65.1z M348,58.4c-0.5,0-0.9,0.2-1.2,0.5
		c-0.3,0.4-0.5,0.9-0.5,1.4h3.4c0-0.5-0.1-1-0.5-1.4C348.9,58.6,348.5,58.4,348,58.4z"/>
	<path class="st2" d="M356.7,57.2c0.3,0,0.5,0,0.8,0.1l-0.1,1.5c-0.2-0.1-0.5-0.1-0.7-0.1c-0.6,0-1.2,0.2-1.6,0.6
		c-0.4,0.4-0.6,1-0.6,1.6v3.9h-1.6v-7.6h1.3l0.2,1.3h0.1c0.2-0.4,0.6-0.8,1-1.1C355.8,57.4,356.2,57.2,356.7,57.2z"/>
	<path class="st2" d="M360.4,64.9l-2.9-7.6h1.7l1.5,4.4c0.2,0.6,0.4,1.2,0.5,1.8l0,0c0.1-0.6,0.3-1.2,0.5-1.8l1.5-4.4h1.8l-2.9,7.6
		H360.4z"/>
	<path class="st2" d="M365.8,55.3c0-0.2,0.1-0.5,0.2-0.7c0.4-0.3,0.9-0.3,1.3,0c0.2,0.2,0.3,0.4,0.2,0.7c0,0.2-0.1,0.5-0.2,0.6
		c-0.4,0.3-1,0.3-1.3,0C365.9,55.8,365.8,55.6,365.8,55.3z M367.5,64.9h-1.6v-7.6h1.6V64.9z"/>
	<path class="st2" d="M372.7,65.1c-1,0.1-1.9-0.3-2.6-1c-1.2-1.7-1.2-4.1,0-5.8c0.7-0.7,1.7-1.1,2.7-1c0.7,0,1.5,0.1,2.1,0.5
		l-0.4,1.3c-0.5-0.2-1.1-0.4-1.7-0.4c-1.3,0-2,0.9-2,2.6c0,0.7,0.1,1.3,0.5,1.9c0.3,0.4,0.9,0.7,1.4,0.6c0.7,0,1.4-0.2,2-0.5v1.4
		c-0.3,0.2-0.6,0.3-0.9,0.4C373.4,65,373.1,65.1,372.7,65.1z"/>
	<path class="st2" d="M379.6,65.1c-1,0.1-2-0.3-2.8-1c-0.7-0.8-1.1-1.8-1-2.8c-0.1-1.1,0.3-2.1,0.9-2.9c0.6-0.7,1.6-1.1,2.5-1.1
		c0.9,0,1.7,0.3,2.4,0.9c0.6,0.7,0.9,1.6,0.9,2.5v0.9h-5c0,0.6,0.2,1.2,0.6,1.7c0.4,0.4,1,0.6,1.6,0.6c0.9,0,1.7-0.2,2.5-0.5v1.3
		c-0.4,0.2-0.8,0.3-1.2,0.4C380.6,65,380.1,65.1,379.6,65.1z M379.4,58.4c-0.5,0-0.9,0.2-1.2,0.5c-0.3,0.4-0.5,0.9-0.5,1.4h3.4
		c0-0.5-0.1-1-0.5-1.4C380.2,58.6,379.8,58.4,379.4,58.4z"/>
	<path class="st2" d="M341.3,74c0.3,0,0.5,0,0.8,0.1l-0.2,1.5c-0.2-0.1-0.5-0.1-0.7-0.1c-0.6,0-1.2,0.2-1.6,0.6
		c-0.4,0.4-0.6,1-0.6,1.6v3.9h-1.6v-7.5h1.3l0.2,1.3h0c0.2-0.4,0.6-0.8,1-1.1C340.4,74.1,340.8,74,341.3,74z"/>
	<path class="st2" d="M346.6,81.8c-1,0.1-2-0.3-2.8-1c-0.7-0.8-1.1-1.8-1-2.8c-0.1-1.1,0.3-2.1,0.9-2.9c0.6-0.7,1.6-1.1,2.6-1.1
		c0.9,0,1.7,0.3,2.4,0.9c0.6,0.7,0.9,1.6,0.9,2.5v0.9h-5c0,0.6,0.2,1.2,0.6,1.7c0.4,0.4,1,0.6,1.6,0.6c0.9,0,1.7-0.2,2.5-0.6v1.3
		c-0.4,0.2-0.8,0.3-1.2,0.4C347.6,81.8,347.1,81.9,346.6,81.8z M346.3,75.2c-0.5,0-0.9,0.2-1.2,0.5c-0.3,0.4-0.5,0.9-0.5,1.4h3.5
		c0-0.5-0.1-1-0.5-1.4C347.2,75.4,346.8,75.2,346.3,75.2L346.3,75.2z"/>
	<path class="st2" d="M357.5,74.2V75l-1.3,0.2c0.1,0.2,0.2,0.4,0.3,0.6c0.3,0.9,0,1.9-0.7,2.6c-0.6,0.5-1.4,0.7-2.2,0.7
		c-0.2,0-0.4,0-0.6-0.1c-0.3,0.1-0.5,0.4-0.5,0.8c0,0.2,0.1,0.3,0.2,0.4c0.3,0.1,0.6,0.2,0.9,0.1h1.3c0.7,0,1.3,0.1,1.9,0.5
		c0.4,0.4,0.7,0.9,0.6,1.5c0,0.8-0.4,1.6-1.1,2c-0.9,0.5-2,0.8-3.1,0.7c-0.8,0.1-1.6-0.1-2.4-0.5c-0.5-0.3-0.8-0.9-0.8-1.6
		c0-0.4,0.1-0.9,0.4-1.2c0.3-0.3,0.8-0.6,1.2-0.7c-0.2-0.1-0.4-0.2-0.5-0.4c-0.1-0.2-0.2-0.4-0.2-0.6c0-0.3,0.1-0.5,0.2-0.7
		c0.2-0.2,0.4-0.4,0.7-0.6c-0.4-0.2-0.7-0.5-1-0.8c-0.2-0.4-0.4-0.9-0.4-1.3c0-0.7,0.2-1.4,0.8-1.9c0.6-0.5,1.4-0.7,2.2-0.7
		c0.2,0,0.4,0,0.7,0c0.2,0,0.4,0,0.5,0.1L357.5,74.2z M351.6,82.9c0,0.3,0.2,0.6,0.5,0.8c0.4,0.2,0.9,0.3,1.3,0.3
		c0.7,0,1.4-0.1,2-0.4c0.4-0.2,0.6-0.6,0.6-1c0-0.3-0.1-0.6-0.4-0.7c-0.4-0.2-0.9-0.2-1.3-0.2h-1.2c-0.4,0-0.8,0.1-1.2,0.3
		C351.7,82.2,351.6,82.5,351.6,82.9z M352.3,76.6c0,0.4,0.1,0.8,0.4,1.1c0.3,0.3,0.7,0.4,1,0.4c0.9,0,1.4-0.5,1.4-1.5
		c0-0.4-0.1-0.8-0.3-1.1c-0.3-0.3-0.6-0.4-1-0.4c-0.4,0-0.8,0.1-1.1,0.4C352.4,75.8,352.3,76.2,352.3,76.6z"/>
	<path class="st2" d="M358.6,72.2c0-0.2,0.1-0.5,0.2-0.7c0.2-0.2,0.4-0.2,0.7-0.2c0.4-0.1,0.8,0.3,0.9,0.7c0,0.1,0,0.1,0,0.2
		c0,0.2-0.1,0.5-0.2,0.6c-0.2,0.2-0.4,0.3-0.7,0.2c-0.2,0-0.5-0.1-0.7-0.2C358.7,72.6,358.6,72.4,358.6,72.2z M360.4,81.7h-1.6v-7.6
		h1.6V81.7z"/>
	<path class="st2" d="M367.5,79.6c0,0.7-0.3,1.3-0.8,1.7c-0.7,0.4-1.5,0.6-2.3,0.6c-0.8,0-1.7-0.1-2.4-0.5V80
		c0.8,0.4,1.6,0.6,2.5,0.6c1,0,1.5-0.3,1.5-0.9c0-0.2-0.1-0.3-0.2-0.5c-0.2-0.2-0.3-0.3-0.5-0.4c-0.3-0.2-0.7-0.3-1-0.5
		c-0.7-0.2-1.3-0.5-1.8-1c-0.3-0.4-0.5-0.8-0.5-1.3c0-0.6,0.3-1.2,0.8-1.5c0.6-0.4,1.4-0.6,2.1-0.5c0.9,0,1.7,0.2,2.5,0.5l-0.5,1.2
		c-0.6-0.3-1.3-0.5-2-0.5c-0.9,0-1.3,0.2-1.3,0.7c0,0.2,0.1,0.5,0.3,0.6c0.5,0.3,0.9,0.5,1.4,0.7c0.5,0.2,0.9,0.4,1.4,0.7
		c0.3,0.2,0.5,0.4,0.6,0.7C367.5,78.9,367.5,79.2,367.5,79.6z"/>
	<path class="st2" d="M371.9,80.6c0.4,0,0.8-0.1,1.2-0.2v1.2c-0.2,0.1-0.4,0.2-0.7,0.2c-0.3,0.1-0.6,0.1-0.9,0.1
		c-1.5,0-2.3-0.8-2.3-2.4v-4.1h-1v-0.7l1.1-0.6l0.5-1.6h1v1.7h2.2v1.2h-2.1v4c0,0.3,0.1,0.6,0.3,0.9
		C371.3,80.4,371.6,80.5,371.9,80.6z"/>
	<path class="st2" d="M378.2,74c0.3,0,0.5,0,0.8,0.1l-0.2,1.5c-0.2-0.1-0.5-0.1-0.7-0.1c-0.6,0-1.2,0.2-1.6,0.6
		c-0.4,0.4-0.6,1-0.6,1.6v3.9h-1.6v-7.5h1.2l0.2,1.3h0.1c0.2-0.4,0.6-0.8,1-1.1C377.3,74.2,377.7,74,378.2,74z"/>
	<path class="st2" d="M379,74.2h1.8l1.5,4.3c0.2,0.6,0.4,1.1,0.5,1.7h0c0.1-0.3,0.1-0.6,0.2-0.9c0.1-0.4,0.7-2.1,1.7-5.1h1.7
		l-3.2,8.6c-0.3,1.4-1.5,2.3-2.9,2.3c-0.3,0-0.7,0-1-0.1v-1.3c0.3,0.1,0.5,0.1,0.8,0.1c0.8,0,1.5-0.6,1.6-1.3l0.3-0.7L379,74.2z"/>
</g>
<rect x="439.8" y="207.2" class="st1" width="110.2" height="53.7"/>
<rect x="445.8" y="213.2" class="st1" width="110.2" height="53.7"/>
<rect x="451.8" y="219.2" class="st1" width="110.2" height="53.7"/>
<g>
	<path class="st2" d="M467.5,250.7l-2.9-8.4h-0.1c0.1,1.2,0.1,2.4,0.1,3.5v4.9h-1.5v-10h2.3l2.8,7.9l0,0l2.9-7.9h2.3v10h-1.6v-4.9
		c0-0.5,0-1.1,0-1.9s0-1.3,0.1-1.4h-0.1l-3,8.3H467.5z"/>
	<path class="st2" d="M475.6,241.1c0-0.2,0.1-0.5,0.2-0.7c0.4-0.3,0.9-0.3,1.3,0c0.2,0.2,0.3,0.4,0.2,0.7c0,0.2-0.1,0.5-0.2,0.6
		c-0.4,0.3-1,0.3-1.3,0C475.7,241.6,475.6,241.4,475.6,241.1z M477.3,250.7h-1.6v-7.6h1.6V250.7z"/>
	<path class="st2" d="M482.5,250.8c-1,0.1-1.9-0.3-2.6-1c-1.2-1.7-1.2-4.1,0-5.8c0.7-0.7,1.7-1.1,2.7-1c0.7,0,1.5,0.1,2.1,0.4
		l-0.5,1.3c-0.5-0.2-1.1-0.4-1.7-0.4c-1.3,0-2,0.9-2,2.6c0,0.7,0.1,1.3,0.5,1.9c0.3,0.4,0.9,0.7,1.4,0.6c0.7,0,1.4-0.2,2-0.5v1.4
		c-0.3,0.2-0.6,0.3-0.9,0.4C483.2,250.8,482.8,250.8,482.5,250.8z"/>
	<path class="st2" d="M490,243c0.3,0,0.5,0,0.8,0.1l-0.2,1.5c-0.2-0.1-0.5-0.1-0.7-0.1c-0.6,0-1.2,0.2-1.6,0.6
		c-0.4,0.4-0.6,1-0.6,1.6v3.9h-1.6v-7.6h1.3l0.2,1.3h0.1c0.2-0.4,0.6-0.8,1-1.1C489.1,243.1,489.5,243,490,243z"/>
	<path class="st2" d="M498.6,246.9c0.1,1-0.3,2.1-1,2.9c-0.7,0.7-1.7,1.1-2.6,1c-0.7,0-1.3-0.2-1.9-0.5c-0.5-0.3-1-0.8-1.2-1.4
		c-0.3-0.7-0.4-1.4-0.4-2.1c-0.1-1,0.3-2.1,0.9-2.9c0.7-0.7,1.7-1.1,2.7-1c1,0,1.9,0.3,2.6,1.1C498.4,244.9,498.7,245.9,498.6,246.9
		z M493.1,246.9c0,1.7,0.6,2.6,1.9,2.6s1.9-0.9,1.9-2.6s-0.6-2.6-1.9-2.6c-0.6,0-1.1,0.2-1.5,0.7
		C493.3,245.6,493.1,246.2,493.1,246.9z"/>
	<path class="st2" d="M505.4,248.6c0,0.7-0.3,1.3-0.8,1.7c-0.7,0.4-1.5,0.6-2.3,0.6c-0.8,0-1.7-0.1-2.4-0.5V249
		c0.8,0.4,1.6,0.6,2.5,0.6c1,0,1.5-0.3,1.5-0.9c0-0.2-0.1-0.3-0.2-0.5c-0.2-0.2-0.3-0.3-0.5-0.4c-0.3-0.2-0.7-0.3-1-0.5
		c-0.7-0.2-1.3-0.5-1.8-1c-0.3-0.4-0.5-0.8-0.5-1.3c0-0.6,0.3-1.2,0.8-1.5c0.6-0.4,1.4-0.6,2.1-0.5c0.9,0,1.7,0.2,2.5,0.5l-0.5,1.2
		c-0.7-0.3-1.3-0.5-2.1-0.5c-0.9,0-1.3,0.2-1.3,0.7c0,0.2,0.1,0.5,0.3,0.6c0.5,0.3,0.9,0.5,1.4,0.7c0.5,0.2,0.9,0.4,1.4,0.7
		c0.3,0.2,0.5,0.4,0.6,0.7C505.3,247.9,505.4,248.2,505.4,248.6z"/>
	<path class="st2" d="M510.2,250.8c-1,0.1-2-0.3-2.8-1c-0.7-0.8-1.1-1.8-1-2.8c-0.1-1.1,0.3-2.1,0.9-2.9c0.6-0.7,1.6-1.1,2.5-1.1
		c0.9,0,1.7,0.3,2.4,0.9c0.6,0.7,0.9,1.6,0.9,2.5v0.9h-5c0,0.6,0.2,1.2,0.6,1.7c0.4,0.4,1,0.6,1.6,0.6c0.4,0,0.8,0,1.2-0.1
		c0.4-0.1,0.8-0.2,1.2-0.4v1.3c-0.4,0.2-0.8,0.3-1.2,0.4C511.1,250.8,510.7,250.8,510.2,250.8z M509.9,244.2c-0.5,0-0.9,0.2-1.2,0.5
		c-0.3,0.4-0.5,0.9-0.5,1.4h3.4c0-0.5-0.1-1-0.5-1.4C510.8,244.4,510.4,244.2,509.9,244.2L509.9,244.2z"/>
	<path class="st2" d="M518.6,243c0.3,0,0.5,0,0.8,0.1l-0.2,1.5c-0.2-0.1-0.5-0.1-0.7-0.1c-0.6,0-1.2,0.2-1.6,0.6
		c-0.4,0.4-0.6,1-0.6,1.6v3.9h-1.6v-7.6h1.2l0.2,1.3h0.1c0.2-0.4,0.6-0.8,1-1.1C517.7,243.1,518.1,243,518.6,243z"/>
	<path class="st2" d="M522.3,250.7l-2.9-7.6h1.7l1.5,4.4c0.2,0.6,0.4,1.2,0.5,1.8h0.1c0.1-0.6,0.3-1.2,0.5-1.8l1.5-4.4h1.7l-2.9,7.6
		H522.3z"/>
	<path class="st2" d="M527.8,241.1c0-0.2,0.1-0.5,0.2-0.7c0.2-0.2,0.4-0.2,0.7-0.2c0.5,0,0.9,0.3,0.9,0.7c0,0.1,0,0.1,0,0.2
		c0,0.2-0.1,0.5-0.2,0.6c-0.2,0.2-0.4,0.3-0.7,0.2c-0.2,0-0.5-0.1-0.7-0.2C527.8,241.6,527.7,241.4,527.8,241.1z M529.5,250.7h-1.6
		v-7.6h1.6V250.7z"/>
	<path class="st2" d="M534.6,250.8c-1,0.1-1.9-0.3-2.6-1c-0.6-0.8-1-1.8-0.9-2.9c-0.1-1.1,0.2-2.1,0.9-3c0.7-0.7,1.7-1.1,2.7-1
		c0.7,0,1.5,0.1,2.2,0.4l-0.5,1.3c-0.5-0.2-1.1-0.4-1.7-0.4c-1.3,0-2,0.9-2,2.6c0,0.7,0.1,1.3,0.5,1.9c0.3,0.4,0.9,0.7,1.4,0.6
		c0.7,0,1.4-0.2,2-0.5v1.4c-0.3,0.2-0.6,0.3-0.9,0.4C535.3,250.8,535,250.8,534.6,250.8z"/>
	<path class="st2" d="M541.6,250.8c-1,0.1-2-0.3-2.8-1c-0.7-0.8-1.1-1.8-1-2.8c-0.1-1.1,0.3-2.1,0.9-2.9c0.6-0.7,1.6-1.1,2.5-1.1
		c0.9,0,1.7,0.3,2.4,0.9c0.6,0.7,0.9,1.6,0.9,2.5v0.9h-5c0,0.6,0.2,1.2,0.6,1.7c0.4,0.4,1,0.6,1.6,0.6c0.4,0,0.8,0,1.2-0.1
		c0.4-0.1,0.8-0.2,1.2-0.4v1.3c-0.4,0.2-0.8,0.3-1.2,0.4C542.5,250.8,542.1,250.9,541.6,250.8z M541.3,244.2c-0.5,0-0.9,0.2-1.2,0.5
		c-0.3,0.4-0.5,0.9-0.5,1.4h3.4c0-0.5-0.1-1-0.5-1.4C542.2,244.4,541.7,244.2,541.3,244.2z"/>
	<path class="st2" d="M551.2,248.6c0,0.7-0.3,1.3-0.8,1.7c-0.7,0.4-1.5,0.6-2.3,0.6c-0.8,0-1.7-0.1-2.4-0.5V249
		c0.8,0.4,1.6,0.6,2.5,0.6c1,0,1.5-0.3,1.5-0.9c0-0.2,0-0.3-0.2-0.5c-0.2-0.2-0.3-0.3-0.5-0.4c-0.3-0.2-0.7-0.3-1-0.5
		c-0.7-0.2-1.3-0.5-1.8-1c-0.3-0.4-0.5-0.8-0.5-1.3c0-0.6,0.3-1.2,0.8-1.5c0.6-0.4,1.4-0.6,2.1-0.5c0.9,0,1.7,0.2,2.5,0.5l-0.5,1.2
		c-0.6-0.3-1.3-0.5-2.1-0.5c-0.8,0-1.3,0.2-1.3,0.7c0,0.2,0.1,0.5,0.3,0.6c0.5,0.3,0.9,0.5,1.5,0.7c0.5,0.2,0.9,0.4,1.4,0.7
		C551,247.3,551.3,247.9,551.2,248.6L551.2,248.6z"/>
</g>
<rect x="439.8" y="307.9" class="st1" width="110.2" height="53.7"/>
<rect x="445.8" y="313.9" class="st1" width="110.2" height="53.7"/>
<rect x="451.8" y="319.9" class="st1" width="110.2" height="53.7"/>
<g>
	<path class="st2" d="M467.5,351.4l-2.9-8.4h-0.1c0.1,1.2,0.1,2.4,0.1,3.5v4.9h-1.5v-10h2.3l2.8,8l0,0l2.9-8h2.3v10h-1.6v-4.9
		c0-0.5,0-1.1,0-1.9s0-1.3,0.1-1.5h-0.1l-3,8.3L467.5,351.4z"/>
	<path class="st2" d="M475.6,341.8c0-0.2,0.1-0.5,0.2-0.7c0.4-0.3,0.9-0.3,1.3,0c0.2,0.2,0.3,0.4,0.2,0.7c0,0.2-0.1,0.5-0.2,0.6
		c-0.4,0.3-1,0.3-1.3,0C475.7,342.3,475.6,342,475.6,341.8z M477.3,351.4h-1.6v-7.6h1.6V351.4z"/>
	<path class="st2" d="M482.5,351.5c-1,0.1-1.9-0.3-2.6-1c-1.2-1.7-1.2-4.1,0-5.8c0.7-0.7,1.7-1.1,2.7-1c0.7,0,1.5,0.1,2.1,0.5
		l-0.5,1.3c-0.5-0.2-1.1-0.4-1.7-0.4c-1.3,0-2,0.9-2,2.6c0,0.7,0.1,1.3,0.5,1.9c0.3,0.4,0.9,0.7,1.4,0.6c0.7,0,1.4-0.2,2-0.5v1.3
		c-0.3,0.2-0.6,0.3-0.9,0.4C483.2,351.4,482.8,351.5,482.5,351.5z"/>
	<path class="st2" d="M490,343.7c0.3,0,0.5,0,0.8,0.1l-0.2,1.5c-0.2-0.1-0.5-0.1-0.7-0.1c-0.6,0-1.2,0.2-1.6,0.6
		c-0.4,0.4-0.6,1-0.6,1.6v4h-1.6v-7.6h1.3l0.2,1.3h0.1c0.2-0.4,0.6-0.8,1-1.1C489.1,343.8,489.5,343.7,490,343.7z"/>
	<path class="st2" d="M498.6,347.6c0.1,1-0.3,2.1-1,2.9c-0.7,0.7-1.7,1.1-2.6,1c-0.7,0-1.3-0.2-1.9-0.5c-0.5-0.3-1-0.8-1.2-1.4
		c-0.3-0.6-0.4-1.4-0.4-2.1c-0.1-1,0.3-2.1,0.9-2.9c0.7-0.7,1.7-1.1,2.7-1c1,0,1.9,0.3,2.6,1.1C498.4,345.5,498.7,346.5,498.6,347.6
		z M493.1,347.6c0,1.7,0.6,2.6,1.9,2.6s1.9-0.9,1.9-2.6s-0.6-2.6-1.9-2.6c-0.6,0-1.1,0.2-1.5,0.7
		C493.3,346.2,493.1,346.9,493.1,347.6z"/>
	<path class="st2" d="M505.4,349.2c0,0.7-0.3,1.3-0.8,1.7c-0.7,0.4-1.5,0.6-2.3,0.6c-0.8,0-1.7-0.1-2.4-0.5v-1.4
		c0.8,0.4,1.6,0.6,2.5,0.6c1,0,1.5-0.3,1.5-0.9c0-0.2-0.1-0.3-0.2-0.5c-0.2-0.2-0.3-0.3-0.5-0.4c-0.3-0.2-0.7-0.3-1-0.5
		c-0.7-0.2-1.3-0.5-1.8-1c-0.3-0.4-0.5-0.8-0.5-1.3c0-0.6,0.3-1.2,0.8-1.5c0.6-0.4,1.4-0.6,2.1-0.5c0.9,0,1.7,0.2,2.5,0.5l-0.5,1.2
		c-0.7-0.3-1.3-0.5-2.1-0.5c-0.9,0-1.3,0.2-1.3,0.7c0,0.2,0.1,0.5,0.3,0.6c0.5,0.3,0.9,0.5,1.4,0.7c0.5,0.2,0.9,0.4,1.4,0.7
		c0.3,0.2,0.5,0.4,0.6,0.7C505.3,348.6,505.4,348.9,505.4,349.2z"/>
	<path class="st2" d="M510.2,351.5c-1,0.1-2-0.3-2.8-1c-0.7-0.8-1.1-1.8-1-2.8c-0.1-1.1,0.3-2.1,0.9-2.9c0.6-0.7,1.6-1.1,2.5-1.1
		c0.9,0,1.7,0.3,2.4,0.9c0.6,0.7,0.9,1.6,0.9,2.5v0.9h-5c0,0.6,0.2,1.2,0.6,1.7c0.4,0.4,1,0.6,1.6,0.6c0.4,0,0.8,0,1.2-0.1
		c0.4-0.1,0.8-0.2,1.2-0.4v1.3c-0.4,0.2-0.8,0.3-1.2,0.4C511.1,351.5,510.7,351.5,510.2,351.5z M509.9,344.9c-0.5,0-0.9,0.2-1.2,0.5
		c-0.3,0.4-0.5,0.9-0.5,1.4h3.4c0-0.5-0.1-1-0.5-1.4C510.8,345,510.4,344.9,509.9,344.9L509.9,344.9z"/>
	<path class="st2" d="M518.6,343.7c0.3,0,0.5,0,0.8,0.1l-0.2,1.5c-0.2-0.1-0.5-0.1-0.7-0.1c-0.6,0-1.2,0.2-1.6,0.6
		c-0.4,0.4-0.6,1-0.6,1.6v4h-1.6v-7.6h1.2l0.2,1.3h0.1c0.2-0.4,0.6-0.8,1-1.1C517.7,343.8,518.1,343.7,518.6,343.7z"/>
	<path class="st2" d="M522.3,351.4l-2.9-7.6h1.7l1.5,4.4c0.2,0.6,0.4,1.2,0.5,1.8h0.1c0.1-0.6,0.3-1.2,0.5-1.8l1.5-4.4h1.7l-2.9,7.6
		H522.3z"/>
	<path class="st2" d="M527.8,341.8c0-0.2,0.1-0.5,0.2-0.7c0.2-0.2,0.4-0.2,0.7-0.2c0.5,0,0.9,0.3,0.9,0.7c0,0.1,0,0.1,0,0.2
		c0,0.2-0.1,0.5-0.2,0.6c-0.2,0.2-0.4,0.3-0.7,0.2c-0.2,0-0.5-0.1-0.7-0.2C527.8,342.3,527.7,342,527.8,341.8z M529.5,351.4h-1.6
		v-7.6h1.6V351.4z"/>
	<path class="st2" d="M534.6,351.5c-1,0.1-1.9-0.3-2.6-1c-0.6-0.8-1-1.8-0.9-2.9c-0.1-1.1,0.3-2.1,0.9-2.9c0.7-0.7,1.7-1.1,2.7-1
		c0.7,0,1.5,0.1,2.2,0.5l-0.5,1.3c-0.5-0.2-1.1-0.4-1.7-0.4c-1.3,0-2,0.9-2,2.6c0,0.7,0.1,1.3,0.5,1.9c0.3,0.4,0.9,0.7,1.4,0.6
		c0.7,0,1.4-0.2,2-0.5v1.3c-0.3,0.2-0.6,0.3-0.9,0.4C535.4,351.4,535,351.5,534.6,351.5z"/>
	<path class="st2" d="M541.6,351.5c-1,0.1-2-0.3-2.8-1c-0.7-0.8-1.1-1.8-1-2.8c-0.1-1.1,0.3-2.1,0.9-2.9c0.6-0.7,1.6-1.1,2.5-1.1
		c0.9,0,1.7,0.3,2.4,0.9c0.6,0.7,0.9,1.6,0.9,2.5v0.9h-5c0,0.6,0.2,1.2,0.6,1.7c0.4,0.4,1,0.6,1.6,0.6c0.4,0,0.8,0,1.2-0.1
		c0.4-0.1,0.8-0.2,1.2-0.4v1.3c-0.4,0.2-0.8,0.3-1.2,0.4C542.5,351.5,542.1,351.5,541.6,351.5z M541.3,344.9c-0.5,0-0.9,0.2-1.2,0.5
		c-0.3,0.4-0.5,0.9-0.5,1.4h3.4c0-0.5-0.1-1-0.5-1.4C542.2,345,541.7,344.9,541.3,344.9z"/>
	<path class="st2" d="M551.2,349.2c0,0.7-0.3,1.3-0.8,1.7c-0.7,0.4-1.5,0.6-2.3,0.6c-0.8,0-1.7-0.1-2.4-0.5v-1.4
		c0.8,0.4,1.6,0.6,2.5,0.6c1,0,1.5-0.3,1.5-0.9c0-0.2,0-0.3-0.2-0.5c-0.2-0.2-0.3-0.3-0.5-0.4c-0.3-0.2-0.7-0.3-1-0.5
		c-0.7-0.2-1.3-0.5-1.8-1c-0.3-0.4-0.5-0.8-0.5-1.3c0-0.6,0.3-1.2,0.8-1.5c0.6-0.4,1.4-0.6,2.1-0.5c0.9,0,1.7,0.2,2.5,0.5l-0.5,1.2
		c-0.6-0.3-1.3-0.5-2.1-0.5c-0.8,0-1.3,0.2-1.3,0.7c0,0.2,0.1,0.5,0.3,0.6c0.5,0.3,0.9,0.5,1.5,0.7c0.5,0.2,0.9,0.4,1.4,0.7
		c0.3,0.2,0.5,0.4,0.6,0.7C551.2,348.6,551.2,348.9,551.2,349.2z"/>
</g>
<rect x="439.8" y="111.6" class="st1" width="110.2" height="53.7"/>
<rect x="445.8" y="117.6" class="st1" width="110.2" height="53.7"/>
<rect x="451.8" y="123.6" class="st1" width="110.2" height="53.7"/>
<g>
	<path class="st2" d="M467.5,155.1l-2.9-8.4h-0.1c0.1,1.2,0.1,2.4,0.1,3.5v4.9h-1.5v-10h2.3l2.8,7.9l0,0l2.9-7.9h2.3v10h-1.6v-4.9
		c0-0.5,0-1.1,0-1.9s0-1.3,0.1-1.4h-0.1l-3,8.3H467.5z"/>
	<path class="st2" d="M475.6,145.6c0-0.2,0.1-0.5,0.2-0.7c0.4-0.3,0.9-0.3,1.3,0c0.2,0.2,0.3,0.4,0.2,0.7c0,0.2-0.1,0.5-0.2,0.6
		c-0.4,0.3-1,0.3-1.3,0C475.7,146,475.6,145.8,475.6,145.6z M477.3,155.1h-1.6v-7.6h1.6V155.1z"/>
	<path class="st2" d="M482.5,155.2c-1,0.1-1.9-0.3-2.6-1c-1.2-1.7-1.2-4.1,0-5.8c0.7-0.7,1.7-1.1,2.7-1c0.7,0,1.5,0.1,2.1,0.4
		l-0.5,1.3c-0.5-0.2-1.1-0.4-1.7-0.4c-1.3,0-2,0.9-2,2.6c0,0.7,0.1,1.3,0.5,1.9c0.3,0.4,0.9,0.7,1.4,0.6c0.7,0,1.4-0.2,2-0.5v1.4
		c-0.3,0.2-0.6,0.3-0.9,0.4C483.2,155.2,482.8,155.3,482.5,155.2z"/>
	<path class="st2" d="M490,147.4c0.3,0,0.5,0,0.8,0.1l-0.2,1.5c-0.2-0.1-0.5-0.1-0.7-0.1c-0.6,0-1.2,0.2-1.6,0.6
		c-0.4,0.4-0.6,1-0.6,1.6v4h-1.6v-7.6h1.3l0.2,1.3h0.1c0.2-0.4,0.6-0.8,1-1.1C489.1,147.6,489.5,147.4,490,147.4z"/>
	<path class="st2" d="M498.6,151.3c0.1,1-0.3,2.1-1,2.9c-0.7,0.7-1.7,1.1-2.6,1c-0.7,0-1.3-0.2-1.9-0.5c-0.5-0.3-1-0.8-1.2-1.4
		c-0.3-0.6-0.4-1.4-0.4-2.1c-0.1-1,0.3-2.1,0.9-2.9c0.7-0.7,1.7-1.1,2.7-1c1,0,1.9,0.3,2.6,1.1C498.4,149.3,498.7,150.3,498.6,151.3
		z M493.1,151.3c0,1.7,0.6,2.6,1.9,2.6s1.9-0.9,1.9-2.6s-0.6-2.6-1.9-2.6c-0.6,0-1.1,0.2-1.5,0.7C493.3,150,493.1,150.6,493.1,151.3
		z"/>
	<path class="st2" d="M505.4,153c0,0.7-0.3,1.3-0.8,1.7c-0.7,0.4-1.5,0.6-2.3,0.6c-0.8,0-1.7-0.1-2.4-0.5v-1.4
		c0.8,0.4,1.6,0.6,2.5,0.6c1,0,1.5-0.3,1.5-0.9c0-0.2-0.1-0.3-0.2-0.5c-0.2-0.2-0.3-0.3-0.5-0.4c-0.3-0.2-0.7-0.3-1-0.5
		c-0.7-0.2-1.3-0.5-1.8-1c-0.3-0.4-0.5-0.8-0.5-1.3c0-0.6,0.3-1.2,0.8-1.5c0.6-0.4,1.4-0.6,2.1-0.5c0.9,0,1.7,0.2,2.5,0.5l-0.5,1.2
		c-0.7-0.3-1.3-0.5-2.1-0.5c-0.9,0-1.3,0.2-1.3,0.7c0,0.2,0.1,0.5,0.3,0.6c0.5,0.3,0.9,0.5,1.4,0.7c0.5,0.2,0.9,0.4,1.4,0.7
		c0.3,0.2,0.5,0.4,0.6,0.7C505.3,152.3,505.4,152.7,505.4,153z"/>
	<path class="st2" d="M510.2,155.2c-1,0.1-2-0.3-2.8-1c-0.7-0.8-1.1-1.8-1-2.8c-0.1-1.1,0.3-2.1,0.9-2.9c0.6-0.7,1.6-1.1,2.5-1.1
		c0.9,0,1.7,0.3,2.4,0.9c0.6,0.7,0.9,1.6,0.9,2.5v0.9h-5c0,0.6,0.2,1.2,0.6,1.7c0.4,0.4,1,0.6,1.6,0.6c0.4,0,0.8,0,1.2-0.1
		c0.4-0.1,0.8-0.2,1.2-0.4v1.3c-0.4,0.2-0.8,0.3-1.2,0.4C511.1,155.2,510.7,155.3,510.2,155.2z M509.9,148.6c-0.5,0-0.9,0.2-1.2,0.5
		c-0.3,0.4-0.5,0.9-0.5,1.4h3.4c0-0.5-0.1-1-0.5-1.4C510.8,148.8,510.4,148.6,509.9,148.6L509.9,148.6z"/>
	<path class="st2" d="M518.6,147.4c0.3,0,0.5,0,0.8,0.1l-0.2,1.5c-0.2-0.1-0.5-0.1-0.7-0.1c-0.6,0-1.2,0.2-1.6,0.6
		c-0.4,0.4-0.6,1-0.6,1.6v4h-1.6v-7.6h1.2l0.2,1.3h0.1c0.2-0.4,0.6-0.8,1-1.1C517.7,147.6,518.1,147.4,518.6,147.4z"/>
	<path class="st2" d="M522.3,155.1l-2.9-7.6h1.7l1.5,4.4c0.2,0.6,0.4,1.2,0.5,1.8h0.1c0.1-0.6,0.3-1.2,0.5-1.8l1.5-4.4h1.7l-2.9,7.6
		H522.3z"/>
	<path class="st2" d="M527.8,145.6c0-0.2,0.1-0.5,0.2-0.7c0.2-0.2,0.4-0.2,0.7-0.2c0.5,0,0.9,0.3,0.9,0.7c0,0.1,0,0.1,0,0.2
		c0,0.2-0.1,0.5-0.2,0.6c-0.2,0.2-0.4,0.3-0.7,0.2c-0.2,0-0.5-0.1-0.7-0.2C527.8,146,527.7,145.8,527.8,145.6z M529.5,155.1h-1.6
		v-7.6h1.6V155.1z"/>
	<path class="st2" d="M534.6,155.2c-1,0.1-1.9-0.3-2.6-1c-0.6-0.8-1-1.8-0.9-2.9c-0.1-1.1,0.3-2.1,0.9-2.9c0.7-0.7,1.7-1.1,2.7-1
		c0.7,0,1.5,0.1,2.2,0.4l-0.5,1.3c-0.5-0.2-1.1-0.4-1.7-0.4c-1.3,0-2,0.9-2,2.6c0,0.7,0.1,1.3,0.5,1.9c0.3,0.4,0.9,0.7,1.4,0.6
		c0.7,0,1.4-0.2,2-0.5v1.4c-0.3,0.2-0.6,0.3-0.9,0.4C535.4,155.2,535,155.3,534.6,155.2z"/>
	<path class="st2" d="M541.6,155.2c-1,0.1-2-0.3-2.8-1c-0.7-0.8-1.1-1.8-1-2.8c-0.1-1.1,0.3-2.1,0.9-2.9c0.6-0.7,1.6-1.1,2.5-1.1
		c0.9,0,1.7,0.3,2.4,0.9c0.6,0.7,0.9,1.6,0.9,2.5v0.9h-5c0,0.6,0.2,1.2,0.6,1.7c0.4,0.4,1,0.6,1.6,0.6c0.4,0,0.8,0,1.2-0.1
		c0.4-0.1,0.8-0.2,1.2-0.4v1.3c-0.4,0.2-0.8,0.3-1.2,0.4C542.5,155.2,542.1,155.3,541.6,155.2z M541.3,148.6c-0.5,0-0.9,0.2-1.2,0.5
		c-0.3,0.4-0.5,0.9-0.5,1.4h3.4c0-0.5-0.1-1-0.5-1.4C542.2,148.8,541.7,148.6,541.3,148.6z"/>
	<path class="st2" d="M551.2,153c0,0.7-0.3,1.3-0.8,1.7c-0.7,0.4-1.5,0.6-2.3,0.6c-0.8,0-1.7-0.1-2.4-0.5v-1.4
		c0.8,0.4,1.6,0.6,2.5,0.6c1,0,1.5-0.3,1.5-0.9c0-0.2,0-0.3-0.2-0.5c-0.2-0.2-0.3-0.3-0.5-0.4c-0.3-0.2-0.7-0.3-1-0.5
		c-0.7-0.2-1.3-0.5-1.8-1c-0.3-0.4-0.5-0.8-0.5-1.3c0-0.6,0.3-1.2,0.8-1.5c0.6-0.4,1.4-0.6,2.1-0.5c0.9,0,1.7,0.2,2.5,0.5l-0.5,1.2
		c-0.6-0.3-1.3-0.5-2.1-0.5c-0.8,0-1.3,0.2-1.3,0.7c0,0.2,0.1,0.5,0.3,0.6c0.5,0.3,0.9,0.5,1.5,0.7c0.5,0.2,0.9,0.4,1.4,0.7
		c0.3,0.2,0.5,0.4,0.6,0.7C551.2,152.3,551.2,152.7,551.2,153z"/>
</g>
<rect x="571.3" y="41.7" class="st1" width="136.3" height="53.7"/>
<g>
	<path class="st2" d="M629.8,59.8c0.1,1.4-0.4,2.8-1.4,3.8c-1.1,0.9-2.5,1.4-4,1.3h-2.8v-10h3.1c1.4-0.1,2.7,0.4,3.7,1.3
		C629.4,57.2,629.9,58.5,629.8,59.8z M628.1,59.8c0-2.4-1.1-3.6-3.3-3.6h-1.4v7.3h1.2C626.9,63.5,628.1,62.3,628.1,59.8L628.1,59.8z
		"/>
	<path class="st2" d="M631.5,55.3c0-0.5,0.4-0.9,0.9-0.9c0.5,0,0.9,0.4,0.9,0.9c0,0,0,0,0,0c0,0.2-0.1,0.5-0.3,0.7
		c-0.2,0.2-0.4,0.3-0.7,0.2c-0.3,0-0.5-0.1-0.7-0.2C631.5,55.8,631.4,55.6,631.5,55.3z M633.2,64.9h-1.6v-7.6h1.6V64.9z"/>
	<path class="st2" d="M640.3,62.8c0,0.7-0.3,1.3-0.8,1.7c-0.7,0.4-1.5,0.6-2.3,0.6c-0.8,0-1.7-0.1-2.4-0.5v-1.4
		c0.8,0.4,1.6,0.6,2.5,0.6c1,0,1.5-0.3,1.5-0.9c0-0.2-0.1-0.3-0.2-0.5c-0.2-0.2-0.3-0.3-0.5-0.4c-0.3-0.2-0.7-0.3-1-0.5
		c-0.7-0.2-1.3-0.5-1.8-1c-0.3-0.4-0.5-0.8-0.5-1.3c0-0.6,0.3-1.2,0.8-1.5c0.6-0.4,1.4-0.6,2.1-0.5c0.9,0,1.7,0.2,2.5,0.5l-0.6,1.2
		c-0.6-0.3-1.3-0.5-2.1-0.5c-0.8,0-1.3,0.2-1.3,0.7c0,0.2,0.1,0.5,0.3,0.6c0.5,0.3,0.9,0.5,1.5,0.7c0.5,0.2,0.9,0.4,1.4,0.7
		c0.3,0.2,0.5,0.4,0.6,0.7C640.3,62.1,640.3,62.4,640.3,62.8z"/>
	<path class="st2" d="M644.7,63.8c0.4,0,0.8-0.1,1.2-0.2v1.2c-0.2,0.1-0.4,0.2-0.7,0.2c-0.3,0.1-0.6,0.1-0.9,0.1
		c-1.5,0-2.3-0.8-2.3-2.4v-4.1h-1v-0.7l1.1-0.6l0.5-1.6h1v1.7h2.2v1.2h-2.2v4c0,0.3,0.1,0.6,0.3,0.9
		C644.1,63.6,644.4,63.7,644.7,63.8z"/>
	<path class="st2" d="M651,57.2c0.3,0,0.5,0,0.8,0.1l-0.2,1.5c-0.2-0.1-0.5-0.1-0.7-0.1c-0.6,0-1.2,0.2-1.6,0.6
		c-0.4,0.4-0.6,1-0.6,1.6v3.9h-1.6v-7.6h1.3l0.2,1.3h0.1c0.2-0.4,0.6-0.8,1-1.1C650.1,57.4,650.5,57.2,651,57.2z"/>
	<path class="st2" d="M652.9,55.3c0-0.2,0.1-0.5,0.2-0.7c0.2-0.2,0.4-0.2,0.7-0.2c0.5,0,0.9,0.3,0.9,0.7c0,0.1,0,0.1,0,0.2
		c0,0.2-0.1,0.5-0.2,0.6c-0.2,0.2-0.4,0.3-0.7,0.2c-0.2,0-0.5-0.1-0.7-0.2C653,55.8,652.9,55.6,652.9,55.3z M654.6,64.9H653v-7.6
		h1.6L654.6,64.9z"/>
	<path class="st2" d="M660.5,57.2c0.9,0,1.7,0.3,2.2,1c0.6,0.8,0.9,1.9,0.8,2.9c0.1,1-0.2,2-0.8,2.9c-1,1.2-2.9,1.4-4.1,0.3
		c-0.1-0.1-0.2-0.2-0.3-0.3h-0.1l-0.3,0.9h-1.2V54.3h1.6v2.5c0,0.2,0,0.5,0,0.8c0,0.4,0,0.6,0,0.7h0.1
		C658.8,57.6,659.7,57.2,660.5,57.2z M660.1,58.5c-0.5,0-1.1,0.2-1.4,0.6c-0.3,0.6-0.5,1.2-0.4,1.9v0.1c-0.1,0.7,0.1,1.4,0.4,2
		c0.3,0.4,0.9,0.7,1.4,0.6c0.5,0,1-0.2,1.3-0.7c0.3-0.6,0.5-1.3,0.4-2C661.9,59.4,661.3,58.5,660.1,58.5z"/>
	<path class="st2" d="M670.5,64.9l-0.2-1h-0.1c-0.2,0.4-0.6,0.7-1,0.8c-0.4,0.2-0.9,0.3-1.4,0.3c-0.7,0.1-1.5-0.2-2-0.7
		c-0.5-0.6-0.7-1.3-0.7-2.1v-4.9h1.6V62c0,0.5,0.1,0.9,0.3,1.3c0.3,0.3,0.7,0.5,1.1,0.4c0.6,0,1.1-0.2,1.5-0.6
		c0.4-0.6,0.5-1.3,0.5-2v-3.8h1.6v7.6L670.5,64.9z"/>
	<path class="st2" d="M676.7,63.8c0.4,0,0.8-0.1,1.2-0.2v1.2c-0.2,0.1-0.5,0.2-0.7,0.2c-0.3,0.1-0.6,0.1-0.9,0.1
		c-1.5,0-2.3-0.8-2.3-2.4v-4.1h-1v-0.7l1.1-0.6l0.5-1.6h1v1.7h2.2v1.2h-2.2v4c0,0.3,0.1,0.6,0.3,0.9
		C676.1,63.6,676.4,63.7,676.7,63.8z"/>
	<path class="st2" d="M682.5,65.1c-1,0.1-2-0.3-2.8-1c-0.7-0.8-1.1-1.8-1-2.8c-0.1-1.1,0.3-2.1,0.9-2.9c0.6-0.7,1.6-1.1,2.5-1.1
		c0.9,0,1.7,0.3,2.4,0.9c0.6,0.7,0.9,1.6,0.9,2.5v0.9h-5c0,0.6,0.2,1.2,0.6,1.7c0.4,0.4,1,0.6,1.6,0.6c0.4,0,0.8,0,1.2-0.1
		c0.4-0.1,0.8-0.2,1.2-0.4v1.3c-0.4,0.2-0.8,0.3-1.2,0.4C683.4,65,682.9,65.1,682.5,65.1z M682.2,58.4c-0.5,0-0.9,0.2-1.2,0.5
		c-0.3,0.4-0.5,0.9-0.5,1.4h3.4c0-0.5-0.1-1-0.5-1.4C683.1,58.6,682.6,58.4,682.2,58.4L682.2,58.4z"/>
	<path class="st2" d="M689.6,65.1c-0.9,0-1.7-0.3-2.2-1c-1.1-1.8-1.1-4,0-5.8c0.5-0.7,1.4-1,2.2-1c0.9,0,1.8,0.4,2.3,1.1h0.1
		c-0.1-0.4-0.1-0.9-0.1-1.3v-2.8h1.6v10.6h-1.3l-0.3-1h-0.1C691.3,64.7,690.5,65.1,689.6,65.1z M690,63.8c0.5,0,1.1-0.2,1.5-0.6
		c0.3-0.5,0.5-1.2,0.5-1.8v-0.2c0.1-0.7-0.1-1.4-0.5-2c-0.4-0.4-0.9-0.6-1.5-0.6c-0.5,0-1,0.2-1.3,0.7c-0.3,0.6-0.5,1.3-0.5,2
		c0,0.7,0.1,1.3,0.4,1.9C689,63.6,689.5,63.8,690,63.8L690,63.8z"/>
	<path class="st2" d="M624.3,80.6c0.4,0,0.8-0.1,1.2-0.2v1.2c-0.2,0.1-0.5,0.2-0.7,0.2c-0.3,0.1-0.6,0.1-0.9,0.1
		c-1.5,0-2.3-0.8-2.3-2.4v-4.1h-1v-0.7l1.1-0.6l0.5-1.6h1v1.7h2.2v1.2h-2.2v4c0,0.3,0.1,0.6,0.3,0.9C623.8,80.4,624,80.5,624.3,80.6
		z"/>
	<path class="st2" d="M630.6,74c0.3,0,0.5,0,0.8,0.1l-0.2,1.5c-0.2-0.1-0.5-0.1-0.7-0.1c-0.6,0-1.2,0.2-1.6,0.6
		c-0.4,0.4-0.6,1-0.6,1.6v3.9h-1.6v-7.5h1.3l0.2,1.3h0.1c0.2-0.4,0.6-0.8,1-1.1C629.7,74.2,630.2,74,630.6,74z"/>
	<path class="st2" d="M637.3,81.7l-0.3-1h0c-0.3,0.4-0.7,0.7-1.1,0.9c-0.5,0.2-0.9,0.3-1.4,0.2c-0.6,0-1.3-0.2-1.7-0.6
		c-0.4-0.5-0.7-1.1-0.6-1.7c0-0.7,0.3-1.4,0.9-1.8c0.8-0.5,1.7-0.7,2.7-0.7h1.3v-0.4c0-0.4-0.1-0.8-0.3-1.1c-0.3-0.3-0.6-0.4-1-0.4
		c-0.4,0-0.8,0.1-1.1,0.2c-0.3,0.1-0.7,0.2-1,0.4l-0.5-1.2c0.4-0.2,0.9-0.4,1.3-0.5c0.5-0.1,0.9-0.2,1.4-0.2
		c0.8-0.1,1.6,0.2,2.2,0.6c0.5,0.5,0.8,1.3,0.7,2v5.1L637.3,81.7z M635,80.6c0.5,0,1-0.2,1.4-0.5c0.4-0.4,0.6-0.9,0.5-1.4v-0.7h-1
		c-0.6,0-1.1,0.1-1.7,0.4c-0.3,0.2-0.5,0.6-0.5,1c0,0.3,0.1,0.6,0.3,0.8C634.3,80.5,634.7,80.6,635,80.6z"/>
	<path class="st2" d="M643.6,81.8c-1,0.1-1.9-0.3-2.6-1c-1.2-1.8-1.2-4.1,0-5.8c0.7-0.7,1.7-1.1,2.7-1c0.7,0,1.5,0.1,2.2,0.4
		l-0.5,1.3c-0.5-0.2-1.1-0.4-1.7-0.4c-1.3,0-2,0.9-2,2.6c0,0.7,0.1,1.3,0.5,1.9c0.3,0.4,0.9,0.7,1.4,0.6c0.7,0,1.4-0.2,2-0.5v1.4
		c-0.3,0.2-0.6,0.3-0.9,0.4C644.3,81.8,643.9,81.8,643.6,81.8z"/>
	<path class="st2" d="M647.2,72.2c0-0.2,0.1-0.5,0.2-0.7c0.2-0.2,0.4-0.2,0.7-0.2c0.5,0,0.9,0.3,0.9,0.7c0,0.1,0,0.1,0,0.2
		c0,0.2-0.1,0.5-0.2,0.6c-0.2,0.2-0.4,0.3-0.7,0.2c-0.2,0-0.5-0.1-0.7-0.2C647.2,72.6,647.1,72.4,647.2,72.2z M648.9,81.7h-1.6v-7.6
		h1.6V81.7z"/>
	<path class="st2" d="M657.6,81.7H656v-4.7c0-0.5-0.1-0.9-0.3-1.3c-0.3-0.3-0.7-0.5-1.1-0.4c-0.6,0-1.1,0.2-1.5,0.6
		c-0.4,0.6-0.5,1.3-0.5,2v3.8H651v-7.5h1.3l0.2,1h0.1c0.2-0.4,0.6-0.7,1-0.8c0.4-0.2,0.9-0.3,1.4-0.3c1.8,0,2.7,0.9,2.7,2.8
		L657.6,81.7z"/>
	<path class="st2" d="M666,74.2V75l-1.3,0.2c0.1,0.2,0.2,0.4,0.3,0.6c0.1,0.2,0.1,0.5,0.1,0.7c0,0.7-0.3,1.4-0.8,1.8
		c-0.6,0.5-1.4,0.7-2.2,0.7c-0.2,0-0.4,0-0.7-0.1c-0.3,0.1-0.5,0.4-0.5,0.8c0,0.2,0.1,0.3,0.2,0.4c0.3,0.1,0.6,0.2,0.9,0.1h1.3
		c0.7,0,1.3,0.1,1.9,0.5c0.4,0.4,0.7,0.9,0.7,1.5c0,0.8-0.4,1.6-1.1,2c-0.9,0.5-2,0.8-3.1,0.7c-0.8,0.1-1.6-0.1-2.4-0.5
		c-0.5-0.3-0.8-0.9-0.8-1.6c0-0.4,0.1-0.9,0.4-1.2c0.3-0.3,0.8-0.6,1.2-0.7c-0.2-0.1-0.4-0.2-0.5-0.4c-0.3-0.4-0.3-1,0-1.4
		c0.2-0.2,0.4-0.4,0.7-0.6c-0.4-0.2-0.8-0.5-1-0.8c-0.6-1.1-0.4-2.4,0.4-3.2c0.6-0.5,1.4-0.7,2.2-0.7c0.2,0,0.5,0,0.7,0l0.5,0.1
		L666,74.2z M660,82.9c0,0.3,0.2,0.6,0.5,0.8c0.4,0.2,0.9,0.3,1.3,0.3c0.7,0,1.3-0.1,2-0.4c0.4-0.2,0.6-0.6,0.7-1
		c0-0.3-0.1-0.6-0.4-0.7c-0.4-0.2-0.9-0.2-1.3-0.2h-1.2c-0.4,0-0.8,0.1-1.1,0.3C660.2,82.2,660,82.6,660,82.9L660,82.9z M660.7,76.6
		c0,0.4,0.1,0.8,0.4,1.1c0.3,0.3,0.6,0.4,1,0.4c0.9,0,1.4-0.5,1.4-1.5c0-0.4-0.1-0.8-0.3-1.1c-0.3-0.3-0.7-0.4-1-0.4
		c-0.4,0-0.8,0.1-1.1,0.4C660.8,75.8,660.7,76.2,660.7,76.6L660.7,76.6z"/>
</g>
<path class="st5" d="M323.1,66.2c-0.4-2.1-0.9-4.1-1.6-6.1c-0.3,0.7-0.6,1.3-1,1.8c-3.8-3.9-9.9-4-13.8-0.2c-0.6,0.6-1.1,1.3-1.6,2
	c1.5,0.1,2.9,0.7,4,1.7c-1.1-0.7-2.4-1.1-3.8-1.1c-3.8,0.1-6.8,3.4-6.7,7.2c0.1,3.6,3,6.5,6.7,6.7h15.9c3.4,0,6.1-2.7,6.1-6.1
	C327.4,69.4,325.7,67,323.1,66.2L323.1,66.2z M308.2,76c-0.3,0.4-0.8,0.4-1.2,0.1c0,0,0,0,0,0c-0.4-0.3-0.5-0.8-0.2-1.2
	c0.3-0.4,0.8-0.5,1.2-0.2c0,0,0.1,0.1,0.1,0.1C308.5,75.1,308.5,75.6,308.2,76C308.2,76,308.2,76,308.2,76z M321.5,73.1
	c-2.4,3.2-7.6,2.1-10.9,2.3c-0.4,0-0.8,0.1-1.2,0.1l0.5-0.2c1.6-0.5,3.3-1,4.8-1.7c2.6-1.3,5.3-4.3,5.8-7.4c-1,3-4.1,5.5-6.9,6.5
	c-1.8,0.6-3.5,1-5.4,1.4l-0.1-0.1c-2.4-1.1-2.4-6.2,1.9-7.9c1.9-0.7,3.7-0.3,5.7-0.8c2.4-0.6,4.4-2.1,5.7-4.2
	C322.6,64.5,324,69.8,321.5,73.1L321.5,73.1z"/>
<path class="st5" d="M606.7,65.1c-0.4-2.1-0.9-4.1-1.6-6.1c-0.3,0.7-0.6,1.3-1,1.8c-3.8-3.9-9.9-4-13.8-0.2c-0.6,0.6-1.1,1.3-1.6,2
	c1.5,0.1,2.9,0.7,4,1.7c-1.1-0.7-2.4-1.1-3.8-1.1c-3.8,0-6.9,3.1-6.9,6.9c0,3.8,3.1,6.9,6.9,6.9h15.9c3.4,0,6.1-2.8,6.1-6.1
	C611,68.3,609.3,65.9,606.7,65.1L606.7,65.1z M591.8,74.9c-0.3,0.4-0.8,0.4-1.2,0.1c-0.3-0.3-0.3-0.9,0-1.2c0.3-0.3,0.7-0.3,1.1-0.1
	C592.1,74,592.1,74.5,591.8,74.9z M605.1,71.9c-2.4,3.2-7.6,2.1-10.9,2.3c-0.4,0-0.8,0.1-1.2,0.1c0,0,0.2-0.1,0.5-0.2
	c1.6-0.5,3.3-1,4.8-1.7c2.7-1.4,5.3-4.3,5.8-7.4c-1,3-4.1,5.5-6.9,6.5c-1.8,0.6-3.5,1-5.4,1.4l-0.1-0.1c-2.3-1.1-2.4-6.2,1.8-7.9
	c1.9-0.7,3.7-0.3,5.7-0.8c2.4-0.6,4.4-2.1,5.7-4.2C606.2,63.4,607.6,68.7,605.1,71.9z"/>
<rect x="288.1" y="307.8" class="st1" width="131" height="53.7"/>
<g>
	<path class="st2" d="M341.9,322.8c-0.9,0-1.7,0.3-2.2,1c-0.6,0.8-0.9,1.8-0.8,2.8c-0.1,1,0.2,2,0.8,2.8c0.6,0.6,1.4,1,2.2,0.9
		c0.4,0,0.8,0,1.2-0.1c0.4-0.1,0.8-0.2,1.2-0.3v1.4c-0.9,0.3-1.8,0.5-2.7,0.5c-1.3,0.1-2.5-0.4-3.4-1.3c-0.8-1.1-1.3-2.4-1.2-3.8
		c0-0.9,0.2-1.9,0.6-2.7c0.4-0.7,0.9-1.4,1.6-1.8c0.8-0.4,1.7-0.6,2.5-0.6c1,0,1.9,0.2,2.8,0.6l-0.6,1.4c-0.3-0.2-0.7-0.3-1.1-0.4
		C342.7,322.9,342.3,322.8,341.9,322.8z"/>
	<path class="st2" d="M352.9,327.8c0.1,1.1-0.3,2.1-1,2.9c-0.7,0.7-1.7,1.1-2.6,1c-0.7,0-1.3-0.2-1.9-0.5c-0.5-0.3-1-0.8-1.2-1.4
		c-0.3-0.6-0.4-1.4-0.4-2.1c-0.1-1,0.3-2.1,0.9-2.9c0.7-0.7,1.7-1.1,2.7-1c1,0,1.9,0.3,2.6,1.1C352.5,325.7,352.9,326.7,352.9,327.8
		z M347.4,327.8c0,1.7,0.6,2.6,1.9,2.6s1.9-0.9,1.9-2.6s-0.6-2.6-1.9-2.6c-0.6,0-1.1,0.2-1.5,0.7
		C347.5,326.4,347.3,327.1,347.4,327.8z"/>
	<path class="st2" d="M361.1,331.6h-1.6v-4.6c0-0.5-0.1-0.9-0.4-1.3c-0.3-0.3-0.7-0.5-1.1-0.4c-0.6,0-1.1,0.2-1.5,0.6
		c-0.4,0.6-0.5,1.3-0.5,2v3.8h-1.6V324h1.3l0.2,1h0.1c0.2-0.4,0.6-0.7,1-0.8c0.4-0.2,0.9-0.3,1.4-0.3c1.3-0.2,2.6,0.8,2.7,2.1
		c0,0.2,0,0.5,0,0.7L361.1,331.6z"/>
	<path class="st2" d="M367,325.2h-1.9v6.3h-1.6v-6.3h-1.2v-0.8l1.2-0.5v-0.5c-0.1-0.7,0.2-1.4,0.6-2c0.5-0.5,1.2-0.7,1.9-0.6
		c0.6,0,1.1,0.1,1.7,0.3l-0.4,1.2c-0.4-0.1-0.8-0.2-1.1-0.2c-0.3,0-0.6,0.1-0.8,0.3c-0.2,0.3-0.3,0.6-0.2,1v0.5h1.9V325.2z
		 M368.2,322c0-0.2,0.1-0.5,0.2-0.7c0.4-0.3,0.9-0.3,1.3,0c0.2,0.2,0.2,0.4,0.2,0.7c0,0.2-0.1,0.5-0.2,0.6c-0.4,0.3-1,0.3-1.3,0
		C368.2,322.5,368.1,322.2,368.2,322L368.2,322z M369.9,331.6h-1.6V324h1.6V331.6z"/>
	<path class="st2" d="M378.3,324v0.9l-1.3,0.2c0.1,0.2,0.2,0.4,0.3,0.6c0.3,0.9,0,1.9-0.7,2.6c-0.6,0.5-1.4,0.7-2.2,0.7
		c-0.2,0-0.4,0-0.7-0.1c-0.3,0.1-0.5,0.4-0.5,0.8c0,0.2,0.1,0.3,0.2,0.4c0.3,0.1,0.6,0.2,0.9,0.1h1.3c0.7,0,1.3,0.1,1.9,0.5
		c0.4,0.4,0.7,0.9,0.6,1.5c0,0.8-0.4,1.6-1.1,2c-0.9,0.5-2,0.8-3.1,0.7c-0.8,0.1-1.6-0.1-2.4-0.5c-0.5-0.3-0.8-0.9-0.8-1.6
		c0-0.4,0.1-0.9,0.4-1.2c0.3-0.3,0.8-0.6,1.2-0.7c-0.2-0.1-0.4-0.3-0.5-0.5c-0.3-0.4-0.3-0.9,0-1.4c0.2-0.2,0.4-0.4,0.7-0.6
		c-0.4-0.2-0.7-0.5-1-0.8c-0.3-0.4-0.4-0.9-0.4-1.3c0-0.7,0.2-1.4,0.8-1.9c0.6-0.5,1.4-0.7,2.2-0.7c0.2,0,0.4,0,0.7,0
		c0.2,0,0.4,0,0.5,0.1L378.3,324z M372.4,332.7c0,0.3,0.2,0.6,0.5,0.8c0.4,0.2,0.9,0.3,1.3,0.3c0.7,0,1.4-0.1,2-0.4
		c0.4-0.2,0.6-0.6,0.6-1c0-0.3-0.1-0.6-0.4-0.7c-0.4-0.2-0.9-0.2-1.3-0.2h-1.2c-0.4,0-0.8,0.1-1.1,0.3
		C372.6,332.1,372.4,332.4,372.4,332.7L372.4,332.7z M373.1,326.4c0,0.4,0.1,0.8,0.4,1.1c0.3,0.3,0.7,0.4,1,0.4
		c0.9,0,1.4-0.5,1.4-1.5c0-0.4-0.1-0.8-0.3-1.1c-0.6-0.5-1.5-0.5-2.1,0C373.2,325.6,373,326,373.1,326.4L373.1,326.4z"/>
	<path class="st2" d="M342.6,346.2c0,0.7-0.3,1.3-0.8,1.7c-0.7,0.4-1.5,0.6-2.3,0.6c-0.8,0-1.7-0.1-2.4-0.5v-1.4
		c0.8,0.4,1.6,0.6,2.5,0.6c1,0,1.5-0.3,1.5-0.9c0-0.2,0-0.3-0.2-0.5c-0.2-0.2-0.3-0.3-0.5-0.4c-0.3-0.2-0.7-0.3-1-0.5
		c-0.7-0.2-1.3-0.5-1.8-1c-0.3-0.4-0.5-0.8-0.5-1.3c0-0.6,0.3-1.2,0.8-1.5c0.6-0.4,1.4-0.6,2.1-0.5c0.9,0,1.7,0.2,2.5,0.5l-0.5,1.2
		c-0.6-0.3-1.3-0.5-2.1-0.5c-0.8,0-1.3,0.2-1.3,0.7c0,0.2,0.1,0.5,0.3,0.6c0.5,0.3,0.9,0.5,1.5,0.7c0.5,0.2,0.9,0.4,1.4,0.7
		c0.3,0.2,0.5,0.4,0.6,0.7C342.5,345.6,342.6,345.9,342.6,346.2z"/>
	<path class="st2" d="M347.4,348.5c-1,0.1-2-0.3-2.8-1c-0.7-0.8-1.1-1.8-1-2.8c-0.1-1,0.3-2.1,0.9-2.9c0.6-0.7,1.6-1.1,2.5-1.1
		c0.9,0,1.7,0.3,2.4,0.9c0.6,0.7,0.9,1.6,0.9,2.5v0.9h-5c0,0.6,0.2,1.2,0.6,1.7c0.4,0.4,1,0.6,1.6,0.6c0.4,0,0.8,0,1.2-0.1
		c0.4-0.1,0.8-0.2,1.2-0.4v1.3c-0.4,0.2-0.8,0.3-1.2,0.4C348.3,348.5,347.9,348.5,347.4,348.5z M347.1,341.9c-0.5,0-0.9,0.2-1.2,0.5
		c-0.3,0.4-0.5,0.9-0.5,1.4h3.4c0-0.5-0.1-1-0.5-1.4C348,342,347.6,341.9,347.1,341.9z"/>
	<path class="st2" d="M355.8,340.7c0.3,0,0.5,0,0.8,0.1l-0.2,1.5c-0.2-0.1-0.5-0.1-0.7-0.1c-0.6,0-1.1,0.2-1.6,0.6
		c-0.4,0.4-0.6,1-0.6,1.6v4H352v-7.6h1.2l0.2,1.3h0.1c0.2-0.4,0.6-0.8,1-1.1C354.9,340.8,355.3,340.7,355.8,340.7z"/>
	<path class="st2" d="M359.5,348.4l-2.9-7.6h1.7l1.5,4.4c0.2,0.6,0.4,1.2,0.5,1.8h0c0.1-0.6,0.3-1.2,0.5-1.8l1.5-4.4h1.7l-2.9,7.6
		H359.5z"/>
	<path class="st2" d="M368.4,348.5c-1,0.1-2-0.3-2.8-1c-0.7-0.8-1.1-1.8-1-2.8c-0.1-1.1,0.3-2.1,0.9-2.9c0.6-0.7,1.6-1.1,2.5-1.1
		c0.9,0,1.7,0.3,2.4,0.9c0.6,0.7,0.9,1.6,0.9,2.5v0.9h-5c0,0.6,0.2,1.2,0.6,1.7c0.4,0.4,1,0.6,1.6,0.6c0.4,0,0.8,0,1.2-0.1
		c0.4-0.1,0.8-0.2,1.2-0.4v1.3c-0.4,0.2-0.8,0.3-1.2,0.4C369.3,348.5,368.8,348.5,368.4,348.5z M368.1,341.9c-0.5,0-0.9,0.2-1.2,0.5
		c-0.3,0.4-0.5,0.9-0.5,1.4h3.4c0-0.5-0.1-1-0.5-1.4C369,342,368.5,341.9,368.1,341.9z"/>
	<path class="st2" d="M376.8,340.7c0.3,0,0.5,0,0.8,0.1l-0.2,1.5c-0.2-0.1-0.5-0.1-0.7-0.1c-0.6,0-1.2,0.2-1.6,0.6
		c-0.4,0.4-0.6,1-0.6,1.6v4h-1.6v-7.6h1.3l0.2,1.3h0.1c0.2-0.4,0.6-0.8,1-1.1C375.8,340.8,376.3,340.7,376.8,340.7z"/>
</g>
<path class="st5" d="M323.1,332.3c-0.4-2.1-0.9-4.1-1.6-6.1c-0.3,0.7-0.6,1.3-1,1.8c-3.8-3.9-9.9-4-13.8-0.2c-0.6,0.6-1.1,1.3-1.6,2
	c1.5,0.1,2.9,0.7,4,1.7c-1.1-0.7-2.4-1.1-3.8-1.1c-3.8,0.1-6.8,3.4-6.7,7.2c0.1,3.6,3,6.5,6.7,6.7h15.9c3.4,0,6.1-2.7,6.1-6.1
	C327.4,335.4,325.7,333.1,323.1,332.3L323.1,332.3z M308.2,342.1c-0.3,0.4-0.8,0.4-1.2,0.1c0,0,0,0,0,0c-0.4-0.3-0.5-0.8-0.2-1.2
	c0.3-0.4,0.8-0.5,1.2-0.2c0,0,0.1,0.1,0.1,0.1C308.5,341.2,308.5,341.7,308.2,342.1C308.2,342.1,308.2,342.1,308.2,342.1z
	 M321.5,339.1c-2.4,3.2-7.6,2.1-10.9,2.3c0,0-0.6,0-1.2,0.1l0.5-0.2c1.6-0.5,3.3-1,4.8-1.7c2.6-1.4,5.3-4.3,5.8-7.4
	c-1,3-4.1,5.5-6.9,6.5c-1.8,0.6-3.5,1-5.4,1.4l-0.1-0.1c-2.4-1.1-2.4-6.2,1.9-7.9c1.9-0.7,3.7-0.3,5.7-0.8c2.4-0.6,4.5-2.1,5.7-4.2
	C322.6,330.6,324,335.9,321.5,339.1L321.5,339.1z"/>
<path class="st5" d="M231.7,236.9c-0.4-2.1-0.9-4.1-1.6-6.1c-0.3,0.7-0.6,1.3-1,1.9c-3.8-3.9-9.9-4-13.8-0.2c-0.6,0.6-1.1,1.3-1.6,2
	c1.5,0.1,2.9,0.7,4,1.7c-1.1-0.7-2.4-1.1-3.8-1.1c-3.8,0-6.9,3.1-6.9,6.9c0,3.8,3.1,6.9,6.9,6.9h15.9c3.4,0,6.1-2.7,6.1-6.1
	C236.1,240,234.3,237.7,231.7,236.9L231.7,236.9z M216.8,246.6c-0.3,0.4-0.8,0.4-1.2,0.1s-0.4-0.8-0.1-1.2c0.3-0.3,0.8-0.4,1.2-0.1
	C217.1,245.7,217.1,246.3,216.8,246.6z M230.1,243.7c-2.4,3.2-7.6,2.1-10.9,2.3c-0.4,0-0.8,0.1-1.2,0.1c0,0,0.2-0.1,0.5-0.2
	c1.6-0.5,3.3-1,4.8-1.7c2.6-1.4,5.3-4.3,5.8-7.4c-1,2.9-4.1,5.5-6.9,6.5c-1.8,0.6-3.5,1-5.4,1.4l-0.1-0.1c-2.4-1.1-2.4-6.2,1.9-7.9
	c1.9-0.7,3.7-0.3,5.7-0.8c2.4-0.6,4.4-2.1,5.7-4.2C231.2,235.2,232.6,240.4,230.1,243.7L230.1,243.7z"/>
<rect x="34.7" y="146.5" class="st6" width="111.7" height="53.7"/>
<rect x="34.7" y="212.3" class="st6" width="111.7" height="53.7"/>
<rect x="34.7" y="275.5" class="st6" width="111.7" height="53.7"/>
<path class="st7" d="M63.2,232.6c0-1.1-0.9-2.1-2.1-2.1h-8.2c-1.1,0-2.1,0.9-2.1,2.1v16.5c0,1.1,0.9,2.1,2.1,2.1h8.2
	c1.1,0,2.1-0.9,2.1-2.1V232.6z M61.2,247h-8.2v-12.4h8.2V247z"/>
<circle class="st2" cx="57.1" cy="249" r="0.8"/>
<g>
	<path class="st2" d="M79.8,245l-2.9-8.3h-0.1c0.1,1.2,0.1,2.4,0.1,3.5v4.9h-1.5v-10h2.3l2.8,8l0,0l2.9-8h2.3v10h-1.5v-4.9
		c0-0.5,0-1.1,0-1.9s0-1.3,0.1-1.4l0,0l-3,8.3H79.8z"/>
	<path class="st2" d="M94.7,241.2c0.1,1-0.3,2.1-0.9,2.9c-0.7,0.7-1.7,1.1-2.7,1c-0.7,0-1.3-0.2-1.9-0.5c-0.5-0.3-1-0.8-1.2-1.3
		c-0.3-0.7-0.5-1.4-0.4-2.1c0-1,0.3-2.1,1-2.9c0.7-0.7,1.7-1.1,2.7-1c1-0.1,1.9,0.3,2.6,1C94.5,239.2,94.8,240.2,94.7,241.2z
		 M89.2,241.2c0,1.8,0.6,2.6,1.9,2.6s1.9-0.9,1.9-2.6s-0.7-2.6-1.9-2.6c-0.6-0.1-1.1,0.2-1.5,0.7C89.3,239.9,89.2,240.6,89.2,241.2z
		"/>
	<path class="st2" d="M100.2,237.3c0.9,0,1.7,0.3,2.2,1c1.1,1.8,1.1,4,0,5.8c-1,1.2-2.9,1.4-4.1,0.3c-0.1-0.1-0.2-0.2-0.3-0.3h-0.1
		l-0.3,0.9h-1.2v-10.6H98v2.5c0,0.2,0,0.5,0,0.8s0,0.6,0,0.7l0,0C98.5,237.7,99.3,237.3,100.2,237.3z M99.8,238.6
		c-0.5,0-1.1,0.2-1.4,0.6c-0.3,0.6-0.5,1.2-0.4,1.9v0.1c-0.1,0.7,0.1,1.4,0.4,2c0.3,0.4,0.9,0.7,1.4,0.6c0.5,0,1-0.2,1.3-0.7
		c0.3-0.6,0.5-1.3,0.4-2C101.6,239.5,101,238.6,99.8,238.6z"/>
	<path class="st2" d="M104.8,235.5c0-0.2,0.1-0.5,0.2-0.7c0.4-0.3,1-0.3,1.3,0c0.2,0.2,0.3,0.4,0.2,0.7c0,0.2-0.1,0.5-0.2,0.6
		c-0.4,0.3-0.9,0.3-1.3,0C104.8,235.9,104.7,235.7,104.8,235.5z M106.5,245h-1.6v-7.6h1.6V245z"/>
	<path class="st2" d="M110.2,245h-1.6v-10.6h1.6V245z"/>
	<path class="st2" d="M115.6,245.2c-1,0.1-2-0.3-2.8-1c-0.7-0.8-1.1-1.8-1-2.8c-0.1-1.1,0.3-2.1,0.9-2.9c0.6-0.7,1.6-1.1,2.5-1.1
		c0.9,0,1.7,0.3,2.4,0.9c0.6,0.7,0.9,1.6,0.9,2.5v0.9h-5c0,0.6,0.2,1.2,0.6,1.7c0.4,0.4,1,0.6,1.6,0.6c0.4,0,0.8,0,1.2-0.1
		c0.4-0.1,0.8-0.2,1.2-0.4v1.3c-0.4,0.2-0.8,0.3-1.2,0.4C116.5,245.2,116,245.2,115.6,245.2z M115.2,238.6c-0.5,0-0.9,0.1-1.2,0.4
		c-0.3,0.4-0.5,0.9-0.6,1.4h3.4c0-0.5-0.1-1-0.4-1.4C116.1,238.7,115.7,238.5,115.2,238.6z"/>
</g>
<g>
	<path class="st2" d="M75.6,179v-10h1.6v10H75.6z"/>
	<path class="st2" d="M86.2,175.2c0,1.1-0.3,2.1-1,2.9c-0.7,0.7-1.7,1.1-2.7,1c-0.7,0-1.3-0.2-1.9-0.5c-0.5-0.3-1-0.8-1.2-1.4
		c-0.3-0.7-0.5-1.4-0.4-2.1c0-1,0.3-2.1,1-2.9c0.7-0.7,1.7-1.1,2.7-1c1,0,1.9,0.3,2.6,1.1C85.9,173.1,86.3,174.1,86.2,175.2z
		 M80.7,175.2c0,1.7,0.6,2.6,1.9,2.6s1.9-0.9,1.9-2.6s-0.7-2.6-1.9-2.6c-0.6-0.1-1.1,0.2-1.5,0.7C80.8,173.8,80.7,174.5,80.7,175.2z
		"/>
	<path class="st2" d="M91.5,179h-1.6v-8.6h-2.9V169h7.5v1.4h-2.9V179z"/>
</g>
<g>
	<path class="st7" d="M57,169.8c-1.1,0-2.1,0.9-2,2.1c0,0.7,0.4,1.4,1,1.8v8.5h2.1v-8.5c0.6-0.4,1-1,1-1.8
		C59.1,170.7,58.2,169.8,57,169.8z"/>
	<path class="st7" d="M51.2,166l-1.5-1.5c-4,4-4,10.6,0,14.6l1.5-1.5C48,174.4,48,169.2,51.2,166z"/>
	<path class="st7" d="M64.3,164.5l-1.4,1.5c3.2,3.2,3.2,8.4,0,11.7l1.4,1.5C68.4,175.1,68.4,168.6,64.3,164.5
		C64.4,164.6,64.3,164.5,64.3,164.5L64.3,164.5z"/>
	<path class="st7" d="M52.7,167.4c-2.4,2.4-2.4,6.3,0,8.8l1.5-1.5c-1.6-1.6-1.6-4.2,0-5.8c0,0,0,0,0,0L52.7,167.4z"/>
	<path class="st7" d="M61.4,167.4l-1.4,1.5c1.6,1.6,1.6,4.2,0,5.8c0,0,0,0,0,0l1.5,1.5C63.9,173.8,63.9,169.9,61.4,167.4L61.4,167.4
		z"/>
</g>
<g>
	<path class="st2" d="M75.5,298.3h3c1-0.1,2.1,0.1,3,0.6c0.6,0.4,1,1.1,0.9,1.9c0,0.5-0.1,1-0.4,1.5c-0.3,0.4-0.8,0.7-1.3,0.7v0
		c0.6,0.1,1.1,0.3,1.6,0.8c0.4,0.4,0.5,1,0.5,1.6c0,0.8-0.3,1.6-0.9,2.1c-0.8,0.6-1.7,0.8-2.6,0.8h-3.7V298.3z M77.1,302.4h1.6
		c0.5,0,1-0.1,1.5-0.3c0.3-0.3,0.5-0.7,0.5-1.1c0-0.4-0.2-0.8-0.5-1c-0.5-0.2-1.1-0.4-1.6-0.3h-1.4V302.4z M77.1,303.7v3.2h1.7
		c0.5,0,1.1-0.1,1.6-0.4c0.4-0.3,0.6-0.8,0.5-1.2c0-0.5-0.2-0.9-0.5-1.2c-0.5-0.3-1.1-0.4-1.6-0.4H77.1z"/>
	<path class="st2" d="M88.2,300.6c0.3,0,0.5,0,0.8,0.1l-0.2,1.5c-0.2-0.1-0.5-0.1-0.7-0.1c-0.6,0-1.2,0.2-1.6,0.6
		c-0.4,0.4-0.6,1-0.6,1.6v4h-1.6v-7.6h1.2l0.2,1.3h0.1c0.2-0.4,0.6-0.8,1-1.1C87.3,300.7,87.7,300.6,88.2,300.6z"/>
	<path class="st2" d="M96.9,304.5c0,1.1-0.3,2.1-1,2.9c-0.7,0.7-1.7,1.1-2.7,1c-0.7,0-1.3-0.2-1.9-0.5c-0.5-0.3-1-0.8-1.2-1.4
		c-0.3-0.7-0.5-1.4-0.4-2.1c-0.1-1,0.3-2.1,0.9-2.9c0.7-0.7,1.7-1.1,2.7-1c1,0,1.9,0.3,2.6,1C96.5,302.4,96.9,303.4,96.9,304.5z
		 M91.4,304.5c0,1.8,0.6,2.6,1.9,2.6s1.9-0.9,1.9-2.6s-0.6-2.6-1.9-2.6c-0.6-0.1-1.1,0.2-1.5,0.7C91.5,303.1,91.3,303.8,91.4,304.5z
		"/>
	<path class="st2" d="M104.7,308.3l-1-3.5c-0.1-0.4-0.3-1.2-0.7-2.6h0c-0.3,1.2-0.5,2.1-0.6,2.6l-1,3.5h-1.8l-2.1-7.6h1.6l1,3.7
		c0.2,0.9,0.4,1.7,0.5,2.4l0,0c0-0.3,0.1-0.7,0.2-1.1s0.2-0.8,0.2-1l1.2-4h1.8l1.1,4c0.1,0.2,0.2,0.6,0.3,1c0.1,0.4,0.1,0.7,0.2,1.1
		l0,0c0.1-0.8,0.3-1.6,0.5-2.4l1-3.7h1.6l-2.1,7.6L104.7,308.3z"/>
	<path class="st2" d="M114.8,306.1c0,0.7-0.3,1.3-0.8,1.7c-0.7,0.4-1.5,0.6-2.3,0.6c-0.8,0-1.7-0.1-2.4-0.5v-1.4
		c0.8,0.4,1.6,0.6,2.5,0.6c1,0,1.5-0.3,1.5-0.9c0-0.2,0-0.3-0.2-0.5c-0.2-0.2-0.3-0.3-0.5-0.4c-0.3-0.2-0.7-0.3-1-0.5
		c-0.7-0.2-1.3-0.5-1.8-1c-0.3-0.4-0.5-0.8-0.5-1.3c0-0.6,0.3-1.2,0.8-1.5c0.6-0.4,1.4-0.6,2.1-0.5c0.9,0,1.7,0.2,2.5,0.5l-0.5,1.2
		c-0.6-0.3-1.3-0.5-2.1-0.5c-0.8,0-1.3,0.2-1.3,0.7c0,0.2,0.1,0.5,0.3,0.6c0.5,0.3,0.9,0.5,1.4,0.7c0.5,0.2,0.9,0.4,1.4,0.7
		c0.3,0.2,0.5,0.4,0.6,0.7C114.8,305.5,114.8,305.8,114.8,306.1z"/>
	<path class="st2" d="M119.6,308.4c-1,0.1-2-0.3-2.8-1c-0.7-0.8-1.1-1.8-1-2.8c-0.1-1.1,0.3-2.1,0.9-2.9c0.6-0.7,1.6-1.1,2.5-1.1
		c0.9,0,1.7,0.3,2.4,0.9c0.6,0.7,0.9,1.6,0.9,2.5v0.9h-5c0,0.6,0.2,1.2,0.6,1.7c0.4,0.4,1,0.6,1.6,0.6c0.4,0,0.8-0.1,1.3-0.2
		c0.4-0.1,0.8-0.2,1.2-0.4v1.3c-0.4,0.2-0.8,0.3-1.2,0.4C120.6,308.4,120.1,308.4,119.6,308.4z M119.3,301.8c-0.5,0-0.9,0.2-1.2,0.5
		c-0.3,0.4-0.5,0.9-0.6,1.4h3.4c0-0.5-0.1-1-0.4-1.4C120.2,301.9,119.8,301.8,119.3,301.8z"/>
	<path class="st2" d="M128,300.6c0.3,0,0.5,0,0.8,0.1l-0.2,1.5c-0.2-0.1-0.5-0.1-0.7-0.1c-0.6,0-1.2,0.2-1.6,0.6
		c-0.4,0.4-0.6,1-0.6,1.6v4h-1.6v-7.6h1.3l0.2,1.3h0.1c0.2-0.4,0.6-0.8,1-1.1C127.1,300.7,127.5,300.6,128,300.6z"/>
</g>
<path class="st7" d="M64.2,295.8H49.9c-1,0-1.8,0.8-1.8,1.8v10.8c0,1,0.8,1.8,1.8,1.8h14.4c1,0,1.8-0.8,1.8-1.8v-10.8
	C66,296.6,65.2,295.8,64.2,295.8z M49.9,308.4v-7.8h14.4v7.8H49.9z"/>
<circle class="st2" cx="51.6" cy="298.1" r="0.8"/>
</svg>
