<svg xmlns="http://www.w3.org/2000/svg" viewBox="0 0 166.32 134.53"><title>cloud-wrench</title><g id="Layer_2" data-name="Layer 2"><g id="Layer_1-2" data-name="Layer 1"><path d="M166.32,63.34a42.4,42.4,0,0,0-49.27-42.08A53,53,0,0,0,23.52,38.92,34.42,34.42,0,0,0,34.43,106H97.18L84.57,93.36A38.24,38.24,0,0,1,36.62,44.41L56.47,64.27l20.7-2.68L79.84,40.9,60,21A38.24,38.24,0,0,1,108.94,69l32.92,32.92A42.64,42.64,0,0,0,166.32,63.34Z" fill="#d7e7e7"/><path d="M97.18,106l23.7,23.7a16.56,16.56,0,0,0,23.41,0l1-1a16.53,16.53,0,0,0,0-23.4l-3.39-3.4A42.41,42.41,0,0,1,123.68,106Z" fill="#80ea6e"/><path d="M108.94,69A38.24,38.24,0,0,0,60,21L79.84,40.9,77.17,61.59l-20.7,2.68L36.62,44.41a38.24,38.24,0,0,0,47.95,49L97.18,106h26.5a42.41,42.41,0,0,0,18.18-4.07Z" fill="#6db33f"/></g></g></svg>