<svg xmlns="http://www.w3.org/2000/svg" viewBox="0 0 271.01 239.02"><title>cloud</title><g id="Layer_2" data-name="Layer 2"><g id="Layer_1-2" data-name="Layer 1"><path d="M267.41,192h0a1.68,1.68,0,0,0-1.68,1.68h0a1.69,1.69,0,0,0,1.68,1.69h0a1.69,1.69,0,0,0,1.68-1.69h0A1.68,1.68,0,0,0,267.41,192Z" fill="#010101"/><path d="M269.48,187.57a1.78,1.78,0,0,0,.37.77C269.73,188.08,269.61,187.82,269.48,187.57Z" fill="#010101"/><path d="M260,179.13h0a1.68,1.68,0,0,0-1.68,1.68h0a1.68,1.68,0,0,0,1.68,1.68h0a1.69,1.69,0,0,0,1.69-1.68h0A1.69,1.69,0,0,0,260,179.13Z" fill="#010101"/><path d="M260,192h0a1.68,1.68,0,0,0-1.68,1.68h0a1.69,1.69,0,0,0,1.68,1.69h0a1.7,1.7,0,0,0,1.69-1.69h0A1.69,1.69,0,0,0,260,192Z" fill="#010101"/><circle cx="263.68" cy="187.27" r="1.68" fill="#010101"/><path d="M260,205h0a1.68,1.68,0,0,0-1.68,1.68h0a1.68,1.68,0,0,0,1.68,1.68h0a1.69,1.69,0,0,0,1.69-1.68h0A1.69,1.69,0,0,0,260,205Z" fill="#010101"/><circle cx="263.68" cy="200.18" r="1.68" fill="#010101"/><path d="M252.5,179.13h0a1.68,1.68,0,0,0-1.68,1.68h0a1.68,1.68,0,0,0,1.68,1.68h0a1.68,1.68,0,0,0,1.68-1.68h0A1.68,1.68,0,0,0,252.5,179.13Z" fill="#010101"/><path d="M252.5,192h0a1.68,1.68,0,0,0-1.68,1.68h0a1.69,1.69,0,0,0,1.68,1.69h0a1.69,1.69,0,0,0,1.68-1.69h0A1.68,1.68,0,0,0,252.5,192Z" fill="#010101"/><circle cx="256.23" cy="187.27" r="1.68" fill="#010101"/><path d="M252.5,205h0a1.68,1.68,0,0,0-1.68,1.68h0a1.68,1.68,0,0,0,1.68,1.68h0a1.68,1.68,0,0,0,1.68-1.68h0A1.68,1.68,0,0,0,252.5,205Z" fill="#010101"/><circle cx="256.23" cy="200.18" r="1.68" fill="#010101"/><circle cx="256.23" cy="213.09" r="1.68" fill="#010101"/><path d="M245,179.13h0a1.68,1.68,0,0,0-1.68,1.68h0a1.68,1.68,0,0,0,1.68,1.68h0a1.69,1.69,0,0,0,1.69-1.68h0A1.69,1.69,0,0,0,245,179.13Z" fill="#010101"/><path d="M248.77,172.67a1.69,1.69,0,1,0,1.68,1.69A1.69,1.69,0,0,0,248.77,172.67Z" fill="#010101"/><path d="M245,192h0a1.68,1.68,0,0,0-1.68,1.68h0a1.69,1.69,0,0,0,1.68,1.69h0a1.7,1.7,0,0,0,1.69-1.69h0A1.69,1.69,0,0,0,245,192Z" fill="#010101"/><path d="M248.77,185.59a1.68,1.68,0,1,0,1.68,1.68A1.68,1.68,0,0,0,248.77,185.59Z" fill="#010101"/><path d="M245,205h0a1.69,1.69,0,0,0-1.68,1.68h0a1.69,1.69,0,0,0,1.68,1.68h0a1.69,1.69,0,0,0,1.69-1.68h0A1.69,1.69,0,0,0,245,205Z" fill="#010101"/><path d="M248.77,198.5a1.68,1.68,0,1,0,1.68,1.68A1.68,1.68,0,0,0,248.77,198.5Z" fill="#010101"/><path d="M245,217.86h0a1.69,1.69,0,0,0-1.68,1.69h0a1.68,1.68,0,0,0,1.68,1.68h0a1.69,1.69,0,0,0,1.69-1.68h0A1.7,1.7,0,0,0,245,217.86Z" fill="#010101"/><path d="M248.77,211.41a1.68,1.68,0,1,0,1.68,1.68A1.68,1.68,0,0,0,248.77,211.41Z" fill="#010101"/><path d="M237.59,166.22h0a1.68,1.68,0,0,0-1.68,1.68h0a1.68,1.68,0,0,0,1.68,1.68h0a1.68,1.68,0,0,0,1.68-1.68h0A1.68,1.68,0,0,0,237.59,166.22Z" fill="#010101"/><path d="M237.59,179.13h0a1.68,1.68,0,0,0-1.68,1.68h0a1.68,1.68,0,0,0,1.68,1.68h0a1.68,1.68,0,0,0,1.68-1.68h0A1.68,1.68,0,0,0,237.59,179.13Z" fill="#010101"/><circle cx="241.32" cy="174.36" r="1.68" fill="#010101"/><path d="M237.59,192h0a1.68,1.68,0,0,0-1.68,1.68h0a1.69,1.69,0,0,0,1.68,1.69h0a1.69,1.69,0,0,0,1.68-1.69h0A1.68,1.68,0,0,0,237.59,192Z" fill="#010101"/><circle cx="241.32" cy="187.27" r="1.68" fill="#010101"/><path d="M237.59,205h0a1.68,1.68,0,0,0-1.68,1.68h0a1.68,1.68,0,0,0,1.68,1.68h0a1.68,1.68,0,0,0,1.68-1.68h0A1.68,1.68,0,0,0,237.59,205Z" fill="#010101"/><circle cx="241.32" cy="200.18" r="1.68" fill="#010101"/><path d="M237.59,217.86h0a1.69,1.69,0,0,0-1.68,1.69h0a1.68,1.68,0,0,0,1.68,1.68h0a1.68,1.68,0,0,0,1.68-1.68h0A1.69,1.69,0,0,0,237.59,217.86Z" fill="#010101"/><circle cx="241.32" cy="213.09" r="1.68" fill="#010101"/><path d="M230.14,166.22h0a1.68,1.68,0,0,0-1.68,1.68h0a1.68,1.68,0,0,0,1.68,1.68h0a1.68,1.68,0,0,0,1.68-1.68h0A1.68,1.68,0,0,0,230.14,166.22Z" fill="#010101"/><path d="M230.14,179.13h0a1.68,1.68,0,0,0-1.68,1.68h0a1.68,1.68,0,0,0,1.68,1.68h0a1.68,1.68,0,0,0,1.68-1.68h0A1.68,1.68,0,0,0,230.14,179.13Z" fill="#010101"/><circle cx="233.86" cy="174.36" r="1.68" fill="#010101"/><path d="M230.14,192h0a1.68,1.68,0,0,0-1.68,1.68h0a1.69,1.69,0,0,0,1.68,1.69h0a1.7,1.7,0,0,0,1.68-1.69h0A1.68,1.68,0,0,0,230.14,192Z" fill="#010101"/><circle cx="233.86" cy="187.27" r="1.68" fill="#010101"/><path d="M230.14,205h0a1.69,1.69,0,0,0-1.68,1.68h0a1.69,1.69,0,0,0,1.68,1.68h0a1.69,1.69,0,0,0,1.68-1.68h0A1.69,1.69,0,0,0,230.14,205Z" fill="#010101"/><circle cx="233.86" cy="200.18" r="1.68" fill="#010101"/><path d="M230.14,217.86h0a1.69,1.69,0,0,0-1.68,1.69h0a1.68,1.68,0,0,0,1.68,1.68h0a1.68,1.68,0,0,0,1.68-1.68h0A1.7,1.7,0,0,0,230.14,217.86Z" fill="#010101"/><circle cx="233.86" cy="213.09" r="1.68" fill="#010101"/><path d="M222.68,166.22h0A1.68,1.68,0,0,0,221,167.9h0a1.68,1.68,0,0,0,1.68,1.68h0a1.68,1.68,0,0,0,1.68-1.68h0A1.68,1.68,0,0,0,222.68,166.22Z" fill="#010101"/><circle cx="226.41" cy="161.44" r="1.68" fill="#010101"/><path d="M222.68,179.13h0a1.68,1.68,0,0,0-1.68,1.68h0a1.68,1.68,0,0,0,1.68,1.68h0a1.68,1.68,0,0,0,1.68-1.68h0A1.68,1.68,0,0,0,222.68,179.13Z" fill="#010101"/><circle cx="226.41" cy="174.36" r="1.68" fill="#010101"/><path d="M222.68,192h0a1.68,1.68,0,0,0-1.68,1.68h0a1.69,1.69,0,0,0,1.68,1.69h0a1.69,1.69,0,0,0,1.68-1.69h0A1.68,1.68,0,0,0,222.68,192Z" fill="#010101"/><circle cx="226.41" cy="187.27" r="1.68" fill="#010101"/><path d="M222.68,205h0a1.68,1.68,0,0,0-1.68,1.68h0a1.68,1.68,0,0,0,1.68,1.68h0a1.68,1.68,0,0,0,1.68-1.68h0A1.68,1.68,0,0,0,222.68,205Z" fill="#010101"/><circle cx="226.41" cy="200.18" r="1.68" fill="#010101"/><path d="M222.68,217.86h0a1.69,1.69,0,0,0-1.68,1.69h0a1.68,1.68,0,0,0,1.68,1.68h0a1.68,1.68,0,0,0,1.68-1.68h0A1.69,1.69,0,0,0,222.68,217.86Z" fill="#010101"/><circle cx="226.41" cy="213.09" r="1.68" fill="#010101"/><path d="M215.23,153.31h0a1.69,1.69,0,0,0-1.69,1.68h0a1.69,1.69,0,0,0,1.69,1.68h0a1.68,1.68,0,0,0,1.68-1.68h0A1.68,1.68,0,0,0,215.23,153.31Z" fill="#010101"/><path d="M215.23,166.22h0a1.69,1.69,0,0,0-1.69,1.68h0a1.69,1.69,0,0,0,1.69,1.68h0a1.68,1.68,0,0,0,1.68-1.68h0A1.68,1.68,0,0,0,215.23,166.22Z" fill="#010101"/><circle cx="218.95" cy="161.44" r="1.68" fill="#010101"/><path d="M215.23,179.13h0a1.69,1.69,0,0,0-1.69,1.68h0a1.69,1.69,0,0,0,1.69,1.68h0a1.68,1.68,0,0,0,1.68-1.68h0A1.68,1.68,0,0,0,215.23,179.13Z" fill="#010101"/><circle cx="218.95" cy="174.36" r="1.68" fill="#010101"/><path d="M215.23,192h0a1.69,1.69,0,0,0-1.69,1.68h0a1.69,1.69,0,0,0,1.69,1.69h0a1.7,1.7,0,0,0,1.68-1.69h0A1.68,1.68,0,0,0,215.23,192Z" fill="#010101"/><circle cx="218.95" cy="187.27" r="1.68" fill="#010101"/><path d="M215.23,205h0a1.69,1.69,0,0,0-1.69,1.68h0a1.69,1.69,0,0,0,1.69,1.68h0a1.69,1.69,0,0,0,1.68-1.68h0A1.69,1.69,0,0,0,215.23,205Z" fill="#010101"/><circle cx="218.95" cy="200.18" r="1.68" fill="#010101"/><path d="M215.23,217.86h0a1.69,1.69,0,0,0-1.69,1.69h0a1.69,1.69,0,0,0,1.69,1.68h0a1.68,1.68,0,0,0,1.68-1.68h0A1.7,1.7,0,0,0,215.23,217.86Z" fill="#010101"/><circle cx="218.95" cy="213.09" r="1.68" fill="#010101"/><path d="M207.77,153.31h0a1.68,1.68,0,0,0-1.68,1.68h0a1.68,1.68,0,0,0,1.68,1.68h0a1.68,1.68,0,0,0,1.68-1.68h0A1.68,1.68,0,0,0,207.77,153.31Z" fill="#010101"/><path d="M207.77,166.22h0a1.68,1.68,0,0,0-1.68,1.68h0a1.68,1.68,0,0,0,1.68,1.68h0a1.68,1.68,0,0,0,1.68-1.68h0A1.68,1.68,0,0,0,207.77,166.22Z" fill="#010101"/><circle cx="211.5" cy="161.44" r="1.68" fill="#010101"/><path d="M207.77,179.13h0a1.68,1.68,0,0,0-1.68,1.68h0a1.68,1.68,0,0,0,1.68,1.68h0a1.68,1.68,0,0,0,1.68-1.68h0A1.68,1.68,0,0,0,207.77,179.13Z" fill="#010101"/><circle cx="211.5" cy="174.36" r="1.68" fill="#010101"/><path d="M207.77,192h0a1.68,1.68,0,0,0-1.68,1.68h0a1.69,1.69,0,0,0,1.68,1.69h0a1.69,1.69,0,0,0,1.68-1.69h0A1.68,1.68,0,0,0,207.77,192Z" fill="#010101"/><circle cx="211.5" cy="187.27" r="1.68" fill="#010101"/><path d="M207.77,205h0a1.68,1.68,0,0,0-1.68,1.68h0a1.68,1.68,0,0,0,1.68,1.68h0a1.68,1.68,0,0,0,1.68-1.68h0A1.68,1.68,0,0,0,207.77,205Z" fill="#010101"/><circle cx="211.5" cy="200.18" r="1.68" fill="#010101"/><path d="M207.77,217.86h0a1.69,1.69,0,0,0-1.68,1.69h0a1.68,1.68,0,0,0,1.68,1.68h0a1.68,1.68,0,0,0,1.68-1.68h0A1.69,1.69,0,0,0,207.77,217.86Z" fill="#010101"/><circle cx="211.5" cy="213.09" r="1.68" fill="#010101"/><path d="M200.32,153.31h0a1.69,1.69,0,0,0-1.69,1.68h0a1.69,1.69,0,0,0,1.69,1.68h0A1.68,1.68,0,0,0,202,155h0A1.68,1.68,0,0,0,200.32,153.31Z" fill="#010101"/><path d="M204,146.85a1.68,1.68,0,1,0,1.69,1.68A1.68,1.68,0,0,0,204,146.85Z" fill="#010101"/><path d="M200.32,166.22h0a1.69,1.69,0,0,0-1.69,1.68h0a1.69,1.69,0,0,0,1.69,1.68h0A1.68,1.68,0,0,0,202,167.9h0A1.68,1.68,0,0,0,200.32,166.22Z" fill="#010101"/><circle cx="204.04" cy="161.44" r="1.68" fill="#010101"/><path d="M200.32,179.13h0a1.69,1.69,0,0,0-1.69,1.68h0a1.69,1.69,0,0,0,1.69,1.68h0a1.68,1.68,0,0,0,1.68-1.68h0A1.68,1.68,0,0,0,200.32,179.13Z" fill="#010101"/><circle cx="204.04" cy="174.36" r="1.68" fill="#010101"/><path d="M200.32,192h0a1.69,1.69,0,0,0-1.69,1.68h0a1.69,1.69,0,0,0,1.69,1.69h0a1.69,1.69,0,0,0,1.68-1.69h0A1.68,1.68,0,0,0,200.32,192Z" fill="#010101"/><circle cx="204.04" cy="187.27" r="1.68" fill="#010101"/><path d="M200.32,205h0a1.69,1.69,0,0,0-1.69,1.68h0a1.69,1.69,0,0,0,1.69,1.68h0a1.68,1.68,0,0,0,1.68-1.68h0A1.68,1.68,0,0,0,200.32,205Z" fill="#010101"/><circle cx="204.04" cy="200.18" r="1.68" fill="#010101"/><path d="M200.32,217.86h0a1.69,1.69,0,0,0-1.69,1.69h0a1.69,1.69,0,0,0,1.69,1.68h0a1.68,1.68,0,0,0,1.68-1.68h0A1.69,1.69,0,0,0,200.32,217.86Z" fill="#010101"/><circle cx="204.04" cy="213.09" r="1.68" fill="#010101"/><path d="M192.86,140.39h0a1.69,1.69,0,0,0-1.68,1.69h0a1.68,1.68,0,0,0,1.68,1.68h0a1.68,1.68,0,0,0,1.68-1.68h0A1.69,1.69,0,0,0,192.86,140.39Z" fill="#010101"/><path d="M192.86,153.31h0a1.68,1.68,0,0,0-1.68,1.68h0a1.68,1.68,0,0,0,1.68,1.68h0a1.68,1.68,0,0,0,1.68-1.68h0A1.68,1.68,0,0,0,192.86,153.31Z" fill="#010101"/><path d="M196.59,146.85a1.68,1.68,0,1,0,1.68,1.68A1.68,1.68,0,0,0,196.59,146.85Z" fill="#010101"/><path d="M192.86,166.22h0a1.68,1.68,0,0,0-1.68,1.68h0a1.68,1.68,0,0,0,1.68,1.68h0a1.68,1.68,0,0,0,1.68-1.68h0A1.68,1.68,0,0,0,192.86,166.22Z" fill="#010101"/><path d="M196.59,159.76a1.69,1.69,0,1,0,1.68,1.68A1.68,1.68,0,0,0,196.59,159.76Z" fill="#010101"/><path d="M192.86,179.13h0a1.68,1.68,0,0,0-1.68,1.68h0a1.68,1.68,0,0,0,1.68,1.68h0a1.68,1.68,0,0,0,1.68-1.68h0A1.68,1.68,0,0,0,192.86,179.13Z" fill="#010101"/><path d="M196.59,172.67a1.69,1.69,0,1,0,1.68,1.69A1.69,1.69,0,0,0,196.59,172.67Z" fill="#010101"/><path d="M192.86,192h0a1.68,1.68,0,0,0-1.68,1.68h0a1.69,1.69,0,0,0,1.68,1.69h0a1.69,1.69,0,0,0,1.68-1.69h0A1.68,1.68,0,0,0,192.86,192Z" fill="#010101"/><path d="M196.59,185.59a1.68,1.68,0,1,0,1.68,1.68A1.68,1.68,0,0,0,196.59,185.59Z" fill="#010101"/><path d="M192.86,205h0a1.68,1.68,0,0,0-1.68,1.68h0a1.68,1.68,0,0,0,1.68,1.68h0a1.68,1.68,0,0,0,1.68-1.68h0A1.68,1.68,0,0,0,192.86,205Z" fill="#010101"/><path d="M196.59,198.5a1.68,1.68,0,1,0,1.68,1.68A1.68,1.68,0,0,0,196.59,198.5Z" fill="#010101"/><path d="M192.86,217.86h0a1.69,1.69,0,0,0-1.68,1.69h0a1.68,1.68,0,0,0,1.68,1.68h0a1.68,1.68,0,0,0,1.68-1.68h0A1.69,1.69,0,0,0,192.86,217.86Z" fill="#010101"/><path d="M196.59,211.41a1.68,1.68,0,1,0,1.68,1.68A1.68,1.68,0,0,0,196.59,211.41Z" fill="#010101"/><path d="M185.41,140.39h0a1.69,1.69,0,0,0-1.69,1.69h0a1.69,1.69,0,0,0,1.69,1.68h0a1.68,1.68,0,0,0,1.68-1.68h0A1.69,1.69,0,0,0,185.41,140.39Z" fill="#010101"/><path d="M185.41,153.31h0a1.69,1.69,0,0,0-1.69,1.68h0a1.69,1.69,0,0,0,1.69,1.68h0a1.68,1.68,0,0,0,1.68-1.68h0A1.68,1.68,0,0,0,185.41,153.31Z" fill="#010101"/><path d="M189.13,146.85a1.68,1.68,0,1,0,1.69,1.68A1.68,1.68,0,0,0,189.13,146.85Z" fill="#010101"/><path d="M185.41,166.22h0a1.69,1.69,0,0,0-1.69,1.68h0a1.69,1.69,0,0,0,1.69,1.68h0a1.68,1.68,0,0,0,1.68-1.68h0A1.68,1.68,0,0,0,185.41,166.22Z" fill="#010101"/><circle cx="189.13" cy="161.44" r="1.68" fill="#010101"/><path d="M185.41,179.13h0a1.69,1.69,0,0,0-1.69,1.68h0a1.69,1.69,0,0,0,1.69,1.68h0a1.68,1.68,0,0,0,1.68-1.68h0A1.68,1.68,0,0,0,185.41,179.13Z" fill="#010101"/><circle cx="189.13" cy="174.36" r="1.68" fill="#010101"/><path d="M185.41,192h0a1.69,1.69,0,0,0-1.69,1.68h0a1.69,1.69,0,0,0,1.69,1.69h0a1.69,1.69,0,0,0,1.68-1.69h0A1.68,1.68,0,0,0,185.41,192Z" fill="#010101"/><circle cx="189.13" cy="187.27" r="1.68" fill="#010101"/><path d="M185.41,205h0a1.69,1.69,0,0,0-1.69,1.68h0a1.69,1.69,0,0,0,1.69,1.68h0a1.68,1.68,0,0,0,1.68-1.68h0A1.68,1.68,0,0,0,185.41,205Z" fill="#010101"/><circle cx="189.13" cy="200.18" r="1.68" fill="#010101"/><circle cx="189.13" cy="213.09" r="1.68" fill="#010101"/><path d="M178,140.39h0a1.69,1.69,0,0,0-1.68,1.69h0a1.68,1.68,0,0,0,1.68,1.68h0a1.68,1.68,0,0,0,1.68-1.68h0A1.69,1.69,0,0,0,178,140.39Z" fill="#010101"/><circle cx="181.68" cy="135.62" r="1.68" fill="#010101"/><path d="M178,153.31h0a1.68,1.68,0,0,0-1.68,1.68h0a1.68,1.68,0,0,0,1.68,1.68h0a1.68,1.68,0,0,0,1.68-1.68h0A1.68,1.68,0,0,0,178,153.31Z" fill="#010101"/><path d="M181.68,146.85a1.68,1.68,0,1,0,1.68,1.68A1.68,1.68,0,0,0,181.68,146.85Z" fill="#010101"/><path d="M178,166.22h0a1.68,1.68,0,0,0-1.68,1.68h0a1.68,1.68,0,0,0,1.68,1.68h0a1.68,1.68,0,0,0,1.68-1.68h0A1.68,1.68,0,0,0,178,166.22Z" fill="#010101"/><circle cx="181.68" cy="161.44" r="1.68" fill="#010101"/><path d="M178,179.13h0a1.68,1.68,0,0,0-1.68,1.68h0a1.68,1.68,0,0,0,1.68,1.68h0a1.68,1.68,0,0,0,1.68-1.68h0A1.68,1.68,0,0,0,178,179.13Z" fill="#010101"/><circle cx="181.68" cy="174.36" r="1.68" fill="#010101"/><path d="M178,192h0a1.68,1.68,0,0,0-1.68,1.68h0a1.69,1.69,0,0,0,1.68,1.69h0a1.69,1.69,0,0,0,1.68-1.69h0A1.68,1.68,0,0,0,178,192Z" fill="#010101"/><circle cx="181.68" cy="187.27" r="1.68" fill="#010101"/><path d="M178,205h0a1.68,1.68,0,0,0-1.68,1.68h0a1.68,1.68,0,0,0,1.68,1.68h0a1.68,1.68,0,0,0,1.68-1.68h0A1.68,1.68,0,0,0,178,205Z" fill="#010101"/><circle cx="181.68" cy="200.18" r="1.68" fill="#010101"/><circle cx="181.68" cy="213.09" r="1.68" fill="#010101"/><path d="M170.5,127.48h0a1.69,1.69,0,0,0-1.69,1.68h0a1.69,1.69,0,0,0,1.69,1.69h0a1.69,1.69,0,0,0,1.68-1.69h0A1.68,1.68,0,0,0,170.5,127.48Z" fill="#010101"/><path d="M170.5,140.39h0a1.7,1.7,0,0,0-1.69,1.69h0a1.69,1.69,0,0,0,1.69,1.68h0a1.68,1.68,0,0,0,1.68-1.68h0A1.69,1.69,0,0,0,170.5,140.39Z" fill="#010101"/><circle cx="174.22" cy="135.62" r="1.68" fill="#010101"/><path d="M170.5,153.31h0a1.69,1.69,0,0,0-1.69,1.68h0a1.69,1.69,0,0,0,1.69,1.68h0a1.68,1.68,0,0,0,1.68-1.68h0A1.68,1.68,0,0,0,170.5,153.31Z" fill="#010101"/><path d="M174.22,146.85a1.68,1.68,0,1,0,1.69,1.68A1.68,1.68,0,0,0,174.22,146.85Z" fill="#010101"/><path d="M170.5,166.22h0a1.69,1.69,0,0,0-1.69,1.68h0a1.69,1.69,0,0,0,1.69,1.68h0a1.68,1.68,0,0,0,1.68-1.68h0A1.68,1.68,0,0,0,170.5,166.22Z" fill="#010101"/><circle cx="174.22" cy="161.44" r="1.68" fill="#010101"/><path d="M170.5,179.13h0a1.69,1.69,0,0,0-1.69,1.68h0a1.69,1.69,0,0,0,1.69,1.68h0a1.68,1.68,0,0,0,1.68-1.68h0A1.68,1.68,0,0,0,170.5,179.13Z" fill="#010101"/><circle cx="174.22" cy="174.36" r="1.68" fill="#010101"/><path d="M170.5,192h0a1.69,1.69,0,0,0-1.69,1.68h0a1.69,1.69,0,0,0,1.69,1.69h0a1.69,1.69,0,0,0,1.68-1.69h0A1.68,1.68,0,0,0,170.5,192Z" fill="#010101"/><circle cx="174.22" cy="187.27" r="1.68" fill="#010101"/><path d="M170.5,205h0a1.7,1.7,0,0,0-1.69,1.68h0a1.69,1.69,0,0,0,1.69,1.68h0a1.68,1.68,0,0,0,1.68-1.68h0A1.68,1.68,0,0,0,170.5,205Z" fill="#010101"/><circle cx="174.22" cy="200.18" r="1.68" fill="#010101"/><path d="M163,127.48h0a1.68,1.68,0,0,0-1.68,1.68h0a1.69,1.69,0,0,0,1.68,1.69h0a1.69,1.69,0,0,0,1.68-1.69h0A1.68,1.68,0,0,0,163,127.48Z" fill="#010101"/><path d="M163,140.39h0a1.69,1.69,0,0,0-1.68,1.69h0a1.68,1.68,0,0,0,1.68,1.68h0a1.68,1.68,0,0,0,1.68-1.68h0A1.69,1.69,0,0,0,163,140.39Z" fill="#010101"/><circle cx="166.77" cy="135.62" r="1.68" fill="#010101"/><path d="M163,153.31h0a1.68,1.68,0,0,0-1.68,1.68h0a1.68,1.68,0,0,0,1.68,1.68h0a1.68,1.68,0,0,0,1.68-1.68h0A1.68,1.68,0,0,0,163,153.31Z" fill="#010101"/><path d="M166.77,146.85a1.68,1.68,0,1,0,1.68,1.68A1.68,1.68,0,0,0,166.77,146.85Z" fill="#010101"/><path d="M163,166.22h0a1.68,1.68,0,0,0-1.68,1.68h0a1.68,1.68,0,0,0,1.68,1.68h0a1.68,1.68,0,0,0,1.68-1.68h0A1.68,1.68,0,0,0,163,166.22Z" fill="#010101"/><circle cx="166.77" cy="161.44" r="1.68" fill="#010101"/><path d="M163,179.13h0a1.68,1.68,0,0,0-1.68,1.68h0a1.68,1.68,0,0,0,1.68,1.68h0a1.68,1.68,0,0,0,1.68-1.68h0A1.68,1.68,0,0,0,163,179.13Z" fill="#010101"/><circle cx="166.77" cy="174.36" r="1.68" fill="#010101"/><path d="M163,192h0a1.68,1.68,0,0,0-1.68,1.68h0a1.69,1.69,0,0,0,1.68,1.69h0a1.69,1.69,0,0,0,1.68-1.69h0A1.68,1.68,0,0,0,163,192Z" fill="#010101"/><circle cx="166.77" cy="187.27" r="1.68" fill="#010101"/><circle cx="166.77" cy="200.18" r="1.68" fill="#010101"/><path d="M155.59,127.48h0a1.68,1.68,0,0,0-1.68,1.68h0a1.69,1.69,0,0,0,1.68,1.69h0a1.69,1.69,0,0,0,1.68-1.69h0A1.68,1.68,0,0,0,155.59,127.48Z" fill="#010101"/><path d="M159.32,121a1.68,1.68,0,1,0,1.68,1.68A1.69,1.69,0,0,0,159.32,121Z" fill="#010101"/><path d="M155.59,140.39h0a1.69,1.69,0,0,0-1.68,1.69h0a1.68,1.68,0,0,0,1.68,1.68h0a1.68,1.68,0,0,0,1.68-1.68h0A1.69,1.69,0,0,0,155.59,140.39Z" fill="#010101"/><circle cx="159.32" cy="135.62" r="1.68" fill="#010101"/><path d="M155.59,153.31h0a1.68,1.68,0,0,0-1.68,1.68h0a1.68,1.68,0,0,0,1.68,1.68h0a1.68,1.68,0,0,0,1.68-1.68h0A1.68,1.68,0,0,0,155.59,153.31Z" fill="#010101"/><path d="M159.32,146.85a1.68,1.68,0,1,0,1.68,1.68A1.69,1.69,0,0,0,159.32,146.85Z" fill="#010101"/><path d="M155.59,166.22h0a1.68,1.68,0,0,0-1.68,1.68h0a1.68,1.68,0,0,0,1.68,1.68h0a1.68,1.68,0,0,0,1.68-1.68h0A1.68,1.68,0,0,0,155.59,166.22Z" fill="#010101"/><circle cx="159.32" cy="161.44" r="1.68" fill="#010101"/><path d="M155.59,179.13h0a1.68,1.68,0,0,0-1.68,1.68h0a1.68,1.68,0,0,0,1.68,1.68h0a1.68,1.68,0,0,0,1.68-1.68h0A1.68,1.68,0,0,0,155.59,179.13Z" fill="#010101"/><circle cx="159.32" cy="174.36" r="1.68" fill="#010101"/><path d="M155.59,192h0a1.68,1.68,0,0,0-1.68,1.68h0a1.69,1.69,0,0,0,1.68,1.69h0a1.69,1.69,0,0,0,1.68-1.69h0A1.68,1.68,0,0,0,155.59,192Z" fill="#010101"/><circle cx="159.32" cy="187.27" r="1.68" fill="#010101"/><circle cx="159.32" cy="200.18" r="1.68" fill="#010101"/><path d="M148.13,114.57h0a1.68,1.68,0,0,0-1.68,1.68h0a1.68,1.68,0,0,0,1.68,1.68h0a1.69,1.69,0,0,0,1.69-1.68h0A1.69,1.69,0,0,0,148.13,114.57Z" fill="#010101"/><path d="M148.13,127.48h0a1.68,1.68,0,0,0-1.68,1.68h0a1.69,1.69,0,0,0,1.68,1.69h0a1.69,1.69,0,0,0,1.69-1.69h0A1.69,1.69,0,0,0,148.13,127.48Z" fill="#010101"/><path d="M151.86,121a1.68,1.68,0,1,0,1.68,1.68A1.68,1.68,0,0,0,151.86,121Z" fill="#010101"/><path d="M148.13,140.39h0a1.69,1.69,0,0,0-1.68,1.69h0a1.68,1.68,0,0,0,1.68,1.68h0a1.69,1.69,0,0,0,1.69-1.68h0A1.7,1.7,0,0,0,148.13,140.39Z" fill="#010101"/><circle cx="151.86" cy="135.62" r="1.68" fill="#010101"/><path d="M148.13,153.31h0a1.68,1.68,0,0,0-1.68,1.68h0a1.68,1.68,0,0,0,1.68,1.68h0a1.69,1.69,0,0,0,1.69-1.68h0A1.69,1.69,0,0,0,148.13,153.31Z" fill="#010101"/><path d="M151.86,146.85a1.68,1.68,0,1,0,1.68,1.68A1.68,1.68,0,0,0,151.86,146.85Z" fill="#010101"/><path d="M148.13,166.22h0a1.68,1.68,0,0,0-1.68,1.68h0a1.68,1.68,0,0,0,1.68,1.68h0a1.69,1.69,0,0,0,1.69-1.68h0A1.69,1.69,0,0,0,148.13,166.22Z" fill="#010101"/><circle cx="151.86" cy="161.44" r="1.68" fill="#010101"/><path d="M148.13,179.13h0a1.68,1.68,0,0,0-1.68,1.68h0a1.68,1.68,0,0,0,1.68,1.68h0a1.69,1.69,0,0,0,1.69-1.68h0A1.69,1.69,0,0,0,148.13,179.13Z" fill="#010101"/><circle cx="151.86" cy="174.36" r="1.68" fill="#010101"/><path d="M148.13,192h0a1.68,1.68,0,0,0-1.68,1.68h0a1.69,1.69,0,0,0,1.68,1.69h0a1.7,1.7,0,0,0,1.69-1.69h0A1.69,1.69,0,0,0,148.13,192Z" fill="#010101"/><circle cx="151.86" cy="187.27" r="1.68" fill="#010101"/><path d="M140.68,114.57h0a1.68,1.68,0,0,0-1.68,1.68h0a1.68,1.68,0,0,0,1.68,1.68h0a1.68,1.68,0,0,0,1.68-1.68h0A1.68,1.68,0,0,0,140.68,114.57Z" fill="#010101"/><path d="M140.68,127.48h0a1.68,1.68,0,0,0-1.68,1.68h0a1.69,1.69,0,0,0,1.68,1.69h0a1.69,1.69,0,0,0,1.68-1.69h0A1.68,1.68,0,0,0,140.68,127.48Z" fill="#010101"/><path d="M144.41,121a1.68,1.68,0,1,0,1.68,1.68A1.69,1.69,0,0,0,144.41,121Z" fill="#010101"/><path d="M140.68,140.39h0a1.69,1.69,0,0,0-1.68,1.69h0a1.68,1.68,0,0,0,1.68,1.68h0a1.68,1.68,0,0,0,1.68-1.68h0A1.69,1.69,0,0,0,140.68,140.39Z" fill="#010101"/><path d="M144.41,133.94a1.68,1.68,0,1,0,1.68,1.68A1.69,1.69,0,0,0,144.41,133.94Z" fill="#010101"/><path d="M140.68,153.31h0A1.68,1.68,0,0,0,139,155h0a1.68,1.68,0,0,0,1.68,1.68h0a1.68,1.68,0,0,0,1.68-1.68h0A1.68,1.68,0,0,0,140.68,153.31Z" fill="#010101"/><path d="M144.41,146.85a1.68,1.68,0,1,0,1.68,1.68A1.69,1.69,0,0,0,144.41,146.85Z" fill="#010101"/><path d="M140.68,166.22h0A1.68,1.68,0,0,0,139,167.9h0a1.68,1.68,0,0,0,1.68,1.68h0a1.68,1.68,0,0,0,1.68-1.68h0A1.68,1.68,0,0,0,140.68,166.22Z" fill="#010101"/><path d="M144.41,159.76a1.69,1.69,0,1,0,1.68,1.68A1.69,1.69,0,0,0,144.41,159.76Z" fill="#010101"/><path d="M140.68,179.13h0a1.68,1.68,0,0,0-1.68,1.68h0a1.68,1.68,0,0,0,1.68,1.68h0a1.68,1.68,0,0,0,1.68-1.68h0A1.68,1.68,0,0,0,140.68,179.13Z" fill="#010101"/><path d="M144.41,172.67a1.69,1.69,0,1,0,1.68,1.69A1.69,1.69,0,0,0,144.41,172.67Z" fill="#010101"/><path d="M144.41,185.59a1.68,1.68,0,1,0,1.68,1.68A1.69,1.69,0,0,0,144.41,185.59Z" fill="#010101"/><path d="M133.22,114.57h0a1.68,1.68,0,0,0-1.68,1.68h0a1.68,1.68,0,0,0,1.68,1.68h0a1.69,1.69,0,0,0,1.69-1.68h0A1.69,1.69,0,0,0,133.22,114.57Z" fill="#010101"/><circle cx="136.95" cy="109.8" r="1.68" fill="#010101"/><path d="M133.22,127.48h0a1.68,1.68,0,0,0-1.68,1.68h0a1.69,1.69,0,0,0,1.68,1.69h0a1.69,1.69,0,0,0,1.69-1.69h0A1.69,1.69,0,0,0,133.22,127.48Z" fill="#010101"/><path d="M137,121a1.68,1.68,0,1,0,1.68,1.68A1.68,1.68,0,0,0,137,121Z" fill="#010101"/><path d="M133.22,140.39h0a1.69,1.69,0,0,0-1.68,1.69h0a1.68,1.68,0,0,0,1.68,1.68h0a1.69,1.69,0,0,0,1.69-1.68h0A1.69,1.69,0,0,0,133.22,140.39Z" fill="#010101"/><circle cx="136.95" cy="135.62" r="1.68" fill="#010101"/><path d="M133.22,153.31h0a1.68,1.68,0,0,0-1.68,1.68h0a1.68,1.68,0,0,0,1.68,1.68h0a1.69,1.69,0,0,0,1.69-1.68h0A1.69,1.69,0,0,0,133.22,153.31Z" fill="#010101"/><path d="M137,146.85a1.68,1.68,0,1,0,1.68,1.68A1.68,1.68,0,0,0,137,146.85Z" fill="#010101"/><path d="M133.22,166.22h0a1.68,1.68,0,0,0-1.68,1.68h0a1.68,1.68,0,0,0,1.68,1.68h0a1.69,1.69,0,0,0,1.69-1.68h0A1.69,1.69,0,0,0,133.22,166.22Z" fill="#010101"/><circle cx="136.95" cy="161.44" r="1.68" fill="#010101"/><path d="M133.22,179.13h0a1.68,1.68,0,0,0-1.68,1.68h0a1.68,1.68,0,0,0,1.68,1.68h0a1.69,1.69,0,0,0,1.69-1.68h0A1.69,1.69,0,0,0,133.22,179.13Z" fill="#010101"/><circle cx="136.95" cy="174.36" r="1.68" fill="#010101"/><circle cx="136.95" cy="187.27" r="1.68" fill="#010101"/><path d="M125.77,101.66h0a1.68,1.68,0,0,0-1.68,1.68h0a1.68,1.68,0,0,0,1.68,1.68h0a1.68,1.68,0,0,0,1.68-1.68h0A1.68,1.68,0,0,0,125.77,101.66Z" fill="#010101"/><path d="M125.77,114.57h0a1.68,1.68,0,0,0-1.68,1.68h0a1.68,1.68,0,0,0,1.68,1.68h0a1.68,1.68,0,0,0,1.68-1.68h0A1.68,1.68,0,0,0,125.77,114.57Z" fill="#010101"/><circle cx="129.5" cy="109.8" r="1.68" fill="#010101"/><path d="M125.77,127.48h0a1.68,1.68,0,0,0-1.68,1.68h0a1.69,1.69,0,0,0,1.68,1.69h0a1.69,1.69,0,0,0,1.68-1.69h0A1.68,1.68,0,0,0,125.77,127.48Z" fill="#010101"/><path d="M129.5,121a1.68,1.68,0,1,0,1.68,1.68A1.69,1.69,0,0,0,129.5,121Z" fill="#010101"/><path d="M125.77,140.39h0a1.69,1.69,0,0,0-1.68,1.69h0a1.68,1.68,0,0,0,1.68,1.68h0a1.68,1.68,0,0,0,1.68-1.68h0A1.69,1.69,0,0,0,125.77,140.39Z" fill="#010101"/><circle cx="129.5" cy="135.62" r="1.68" fill="#010101"/><path d="M125.77,153.31h0a1.68,1.68,0,0,0-1.68,1.68h0a1.68,1.68,0,0,0,1.68,1.68h0a1.68,1.68,0,0,0,1.68-1.68h0A1.68,1.68,0,0,0,125.77,153.31Z" fill="#010101"/><path d="M129.5,146.85a1.68,1.68,0,1,0,1.68,1.68A1.69,1.69,0,0,0,129.5,146.85Z" fill="#010101"/><path d="M125.77,166.22h0a1.68,1.68,0,0,0-1.68,1.68h0a1.68,1.68,0,0,0,1.68,1.68h0a1.68,1.68,0,0,0,1.68-1.68h0A1.68,1.68,0,0,0,125.77,166.22Z" fill="#010101"/><circle cx="129.5" cy="161.44" r="1.68" fill="#010101"/><path d="M125.77,179.13h0a1.68,1.68,0,0,0-1.68,1.68h0a1.68,1.68,0,0,0,1.68,1.68h0a1.68,1.68,0,0,0,1.68-1.68h0A1.68,1.68,0,0,0,125.77,179.13Z" fill="#010101"/><circle cx="129.5" cy="174.36" r="1.68" fill="#010101"/><path d="M118.31,101.66h0a1.68,1.68,0,0,0-1.68,1.68h0a1.68,1.68,0,0,0,1.68,1.68h0a1.69,1.69,0,0,0,1.69-1.68h0A1.69,1.69,0,0,0,118.31,101.66Z" fill="#010101"/><path d="M118.31,114.57h0a1.68,1.68,0,0,0-1.68,1.68h0a1.68,1.68,0,0,0,1.68,1.68h0a1.69,1.69,0,0,0,1.69-1.68h0A1.69,1.69,0,0,0,118.31,114.57Z" fill="#010101"/><circle cx="122.04" cy="109.8" r="1.68" fill="#010101"/><path d="M118.31,127.48h0a1.68,1.68,0,0,0-1.68,1.68h0a1.69,1.69,0,0,0,1.68,1.69h0a1.69,1.69,0,0,0,1.69-1.69h0A1.69,1.69,0,0,0,118.31,127.48Z" fill="#010101"/><path d="M122,121a1.68,1.68,0,1,0,1.68,1.68A1.68,1.68,0,0,0,122,121Z" fill="#010101"/><path d="M118.31,140.39h0a1.69,1.69,0,0,0-1.68,1.69h0a1.69,1.69,0,0,0,1.68,1.68h0a1.69,1.69,0,0,0,1.69-1.68h0A1.69,1.69,0,0,0,118.31,140.39Z" fill="#010101"/><circle cx="122.04" cy="135.62" r="1.68" fill="#010101"/><path d="M118.31,153.31h0a1.68,1.68,0,0,0-1.68,1.68h0a1.68,1.68,0,0,0,1.68,1.68h0A1.69,1.69,0,0,0,120,155h0A1.69,1.69,0,0,0,118.31,153.31Z" fill="#010101"/><path d="M122,146.85a1.68,1.68,0,1,0,1.68,1.68A1.68,1.68,0,0,0,122,146.85Z" fill="#010101"/><path d="M118.31,166.22h0a1.68,1.68,0,0,0-1.68,1.68h0a1.68,1.68,0,0,0,1.68,1.68h0A1.69,1.69,0,0,0,120,167.9h0A1.69,1.69,0,0,0,118.31,166.22Z" fill="#010101"/><circle cx="122.04" cy="161.44" r="1.68" fill="#010101"/><circle cx="122.04" cy="174.36" r="1.68" fill="#010101"/><path d="M110.86,101.66h0a1.68,1.68,0,0,0-1.68,1.68h0a1.68,1.68,0,0,0,1.68,1.68h0a1.68,1.68,0,0,0,1.68-1.68h0A1.68,1.68,0,0,0,110.86,101.66Z" fill="#010101"/><path d="M114.59,95.2a1.69,1.69,0,1,0,1.68,1.68A1.69,1.69,0,0,0,114.59,95.2Z" fill="#010101"/><path d="M110.86,114.57h0a1.68,1.68,0,0,0-1.68,1.68h0a1.68,1.68,0,0,0,1.68,1.68h0a1.68,1.68,0,0,0,1.68-1.68h0A1.68,1.68,0,0,0,110.86,114.57Z" fill="#010101"/><circle cx="114.59" cy="109.8" r="1.68" fill="#010101"/><path d="M110.86,127.48h0a1.68,1.68,0,0,0-1.68,1.68h0a1.69,1.69,0,0,0,1.68,1.69h0a1.69,1.69,0,0,0,1.68-1.69h0A1.68,1.68,0,0,0,110.86,127.48Z" fill="#010101"/><path d="M114.59,121a1.68,1.68,0,1,0,1.68,1.68A1.69,1.69,0,0,0,114.59,121Z" fill="#010101"/><path d="M110.86,140.39h0a1.69,1.69,0,0,0-1.68,1.69h0a1.68,1.68,0,0,0,1.68,1.68h0a1.68,1.68,0,0,0,1.68-1.68h0A1.69,1.69,0,0,0,110.86,140.39Z" fill="#010101"/><circle cx="114.59" cy="135.62" r="1.68" fill="#010101"/><path d="M110.86,153.31h0a1.68,1.68,0,0,0-1.68,1.68h0a1.68,1.68,0,0,0,1.68,1.68h0a1.68,1.68,0,0,0,1.68-1.68h0A1.68,1.68,0,0,0,110.86,153.31Z" fill="#010101"/><path d="M114.59,146.85a1.68,1.68,0,1,0,1.68,1.68A1.69,1.69,0,0,0,114.59,146.85Z" fill="#010101"/><path d="M110.86,166.22h0a1.68,1.68,0,0,0-1.68,1.68h0a1.68,1.68,0,0,0,1.68,1.68h0a1.68,1.68,0,0,0,1.68-1.68h0A1.68,1.68,0,0,0,110.86,166.22Z" fill="#010101"/><circle cx="114.59" cy="161.44" r="1.68" fill="#010101"/><circle cx="114.59" cy="174.36" r="1.68" fill="#010101"/><path d="M103.41,101.66h0a1.68,1.68,0,0,0-1.68,1.68h0A1.68,1.68,0,0,0,103.4,105h0a1.68,1.68,0,0,0,1.68-1.68h0A1.68,1.68,0,0,0,103.41,101.66Z" fill="#010101"/><path d="M107.13,95.2a1.69,1.69,0,1,0,1.68,1.68A1.68,1.68,0,0,0,107.13,95.2Z" fill="#010101"/><path d="M103.41,114.57h0a1.68,1.68,0,0,0-1.68,1.68h0a1.68,1.68,0,0,0,1.68,1.68h0a1.68,1.68,0,0,0,1.68-1.68h0A1.68,1.68,0,0,0,103.41,114.57Z" fill="#010101"/><circle cx="107.13" cy="109.8" r="1.68" fill="#010101"/><path d="M103.41,127.48h0a1.68,1.68,0,0,0-1.68,1.68h0a1.69,1.69,0,0,0,1.68,1.69h0a1.69,1.69,0,0,0,1.68-1.69h0A1.68,1.68,0,0,0,103.41,127.48Z" fill="#010101"/><path d="M107.13,121a1.68,1.68,0,1,0,1.68,1.68A1.68,1.68,0,0,0,107.13,121Z" fill="#010101"/><path d="M103.41,140.39h0a1.69,1.69,0,0,0-1.68,1.69h0a1.69,1.69,0,0,0,1.68,1.68h0a1.69,1.69,0,0,0,1.68-1.68h0A1.69,1.69,0,0,0,103.41,140.39Z" fill="#010101"/><circle cx="107.13" cy="135.62" r="1.68" fill="#010101"/><path d="M103.41,153.31h0a1.68,1.68,0,0,0-1.68,1.68h0a1.68,1.68,0,0,0,1.68,1.68h0a1.68,1.68,0,0,0,1.68-1.68h0A1.68,1.68,0,0,0,103.41,153.31Z" fill="#010101"/><path d="M107.13,146.85a1.68,1.68,0,1,0,1.68,1.68A1.68,1.68,0,0,0,107.13,146.85Z" fill="#010101"/><path d="M103.41,166.22h0a1.68,1.68,0,0,0-1.68,1.68h0a1.68,1.68,0,0,0,1.68,1.68h0a1.68,1.68,0,0,0,1.68-1.68h0A1.68,1.68,0,0,0,103.41,166.22Z" fill="#010101"/><circle cx="107.13" cy="161.44" r="1.68" fill="#010101"/><path d="M96,101.66h0a1.68,1.68,0,0,0-1.68,1.68h0A1.68,1.68,0,0,0,96,105h0a1.68,1.68,0,0,0,1.68-1.68h0A1.68,1.68,0,0,0,96,101.66Z" fill="#010101"/><path d="M99.68,95.2a1.69,1.69,0,1,0,1.68,1.68A1.68,1.68,0,0,0,99.68,95.2Z" fill="#010101"/><path d="M96,114.57h0a1.68,1.68,0,0,0-1.68,1.68h0A1.68,1.68,0,0,0,96,117.93h0a1.68,1.68,0,0,0,1.68-1.68h0A1.68,1.68,0,0,0,96,114.57Z" fill="#010101"/><path d="M99.68,108.11a1.69,1.69,0,1,0,1.68,1.69A1.69,1.69,0,0,0,99.68,108.11Z" fill="#010101"/><path d="M96,127.48h0a1.68,1.68,0,0,0-1.68,1.68h0A1.69,1.69,0,0,0,96,130.85h0a1.69,1.69,0,0,0,1.68-1.69h0A1.68,1.68,0,0,0,96,127.48Z" fill="#010101"/><path d="M99.68,121a1.68,1.68,0,1,0,1.68,1.68A1.68,1.68,0,0,0,99.68,121Z" fill="#010101"/><path d="M96,140.39h0a1.69,1.69,0,0,0-1.68,1.69h0A1.68,1.68,0,0,0,96,143.76h0a1.68,1.68,0,0,0,1.68-1.68h0A1.69,1.69,0,0,0,96,140.39Z" fill="#010101"/><path d="M99.68,133.94a1.68,1.68,0,1,0,1.68,1.68A1.68,1.68,0,0,0,99.68,133.94Z" fill="#010101"/><path d="M96,153.31h0A1.68,1.68,0,0,0,94.27,155h0A1.68,1.68,0,0,0,96,156.67h0A1.68,1.68,0,0,0,97.63,155h0A1.68,1.68,0,0,0,96,153.31Z" fill="#010101"/><path d="M99.68,146.85a1.68,1.68,0,1,0,1.68,1.68A1.68,1.68,0,0,0,99.68,146.85Z" fill="#010101"/><path d="M99.68,159.76a1.69,1.69,0,1,0,1.68,1.68A1.68,1.68,0,0,0,99.68,159.76Z" fill="#010101"/><path d="M88.5,101.66h0a1.69,1.69,0,0,0-1.69,1.68h0A1.69,1.69,0,0,0,88.5,105h0a1.68,1.68,0,0,0,1.68-1.68h0A1.68,1.68,0,0,0,88.5,101.66Z" fill="#010101"/><path d="M92.22,95.2a1.69,1.69,0,1,0,1.68,1.68A1.68,1.68,0,0,0,92.22,95.2Z" fill="#010101"/><path d="M88.5,114.57h0a1.69,1.69,0,0,0-1.69,1.68h0a1.69,1.69,0,0,0,1.69,1.68h0a1.68,1.68,0,0,0,1.68-1.68h0A1.68,1.68,0,0,0,88.5,114.57Z" fill="#010101"/><path d="M92.22,108.11a1.69,1.69,0,1,0,1.68,1.69A1.69,1.69,0,0,0,92.22,108.11Z" fill="#010101"/><path d="M88.5,127.48h0a1.69,1.69,0,0,0-1.69,1.68h0a1.69,1.69,0,0,0,1.69,1.69h0a1.69,1.69,0,0,0,1.68-1.69h0A1.68,1.68,0,0,0,88.5,127.48Z" fill="#010101"/><path d="M92.22,121a1.68,1.68,0,1,0,1.68,1.68A1.68,1.68,0,0,0,92.22,121Z" fill="#010101"/><path d="M88.5,140.39h0a1.69,1.69,0,0,0-1.69,1.69h0a1.69,1.69,0,0,0,1.69,1.68h0a1.69,1.69,0,0,0,1.68-1.68h0A1.69,1.69,0,0,0,88.5,140.39Z" fill="#010101"/><path d="M92.22,133.94a1.68,1.68,0,1,0,1.68,1.68A1.68,1.68,0,0,0,92.22,133.94Z" fill="#010101"/><path d="M88.5,153.31h0A1.69,1.69,0,0,0,86.81,155h0a1.69,1.69,0,0,0,1.69,1.68h0A1.68,1.68,0,0,0,90.18,155h0A1.68,1.68,0,0,0,88.5,153.31Z" fill="#010101"/><path d="M92.22,146.85a1.68,1.68,0,1,0,1.68,1.68A1.68,1.68,0,0,0,92.22,146.85Z" fill="#010101"/><path d="M92.22,159.76a1.69,1.69,0,1,0,1.68,1.68A1.68,1.68,0,0,0,92.22,159.76Z" fill="#010101"/><path d="M81,101.66h0a1.68,1.68,0,0,0-1.68,1.68h0A1.68,1.68,0,0,0,81,105h0a1.68,1.68,0,0,0,1.68-1.68h0A1.68,1.68,0,0,0,81,101.66Z" fill="#010101"/><path d="M84.77,95.2a1.69,1.69,0,1,0,1.68,1.68A1.68,1.68,0,0,0,84.77,95.2Z" fill="#010101"/><path d="M81,114.57h0a1.68,1.68,0,0,0-1.68,1.68h0A1.68,1.68,0,0,0,81,117.93h0a1.68,1.68,0,0,0,1.68-1.68h0A1.68,1.68,0,0,0,81,114.57Z" fill="#010101"/><circle cx="84.77" cy="109.8" r="1.68" fill="#010101"/><path d="M81,127.48h0a1.68,1.68,0,0,0-1.68,1.68h0A1.69,1.69,0,0,0,81,130.85h0a1.69,1.69,0,0,0,1.68-1.69h0A1.68,1.68,0,0,0,81,127.48Z" fill="#010101"/><path d="M84.77,121a1.68,1.68,0,1,0,1.68,1.68A1.68,1.68,0,0,0,84.77,121Z" fill="#010101"/><path d="M81,140.39h0a1.69,1.69,0,0,0-1.68,1.69h0A1.68,1.68,0,0,0,81,143.76h0a1.68,1.68,0,0,0,1.68-1.68h0A1.69,1.69,0,0,0,81,140.39Z" fill="#010101"/><circle cx="84.77" cy="135.62" r="1.68" fill="#010101"/><path d="M81,153.31h0A1.68,1.68,0,0,0,79.36,155h0A1.68,1.68,0,0,0,81,156.67h0A1.68,1.68,0,0,0,82.72,155h0A1.68,1.68,0,0,0,81,153.31Z" fill="#010101"/><path d="M84.77,146.85a1.68,1.68,0,1,0,1.68,1.68A1.68,1.68,0,0,0,84.77,146.85Z" fill="#010101"/><path d="M73.59,101.66h0a1.69,1.69,0,0,0-1.69,1.68h0A1.69,1.69,0,0,0,73.59,105h0a1.68,1.68,0,0,0,1.68-1.68h0A1.68,1.68,0,0,0,73.59,101.66Z" fill="#010101"/><path d="M77.31,95.2a1.69,1.69,0,0,0,0,3.37,1.69,1.69,0,1,0,0-3.37Z" fill="#010101"/><path d="M73.59,114.57h0a1.69,1.69,0,0,0-1.69,1.68h0a1.69,1.69,0,0,0,1.69,1.68h0a1.68,1.68,0,0,0,1.68-1.68h0A1.68,1.68,0,0,0,73.59,114.57Z" fill="#010101"/><circle cx="77.31" cy="109.8" r="1.68" fill="#010101"/><path d="M73.59,127.48h0a1.69,1.69,0,0,0-1.69,1.68h0a1.69,1.69,0,0,0,1.69,1.69h0a1.69,1.69,0,0,0,1.68-1.69h0A1.68,1.68,0,0,0,73.59,127.48Z" fill="#010101"/><path d="M77.31,121A1.68,1.68,0,1,0,79,122.71,1.68,1.68,0,0,0,77.31,121Z" fill="#010101"/><path d="M73.59,140.39h0a1.69,1.69,0,0,0-1.69,1.69h0a1.69,1.69,0,0,0,1.69,1.68h0a1.68,1.68,0,0,0,1.68-1.68h0A1.69,1.69,0,0,0,73.59,140.39Z" fill="#010101"/><circle cx="77.31" cy="135.62" r="1.68" fill="#010101"/><path d="M77.31,146.85A1.68,1.68,0,1,0,79,148.53,1.68,1.68,0,0,0,77.31,146.85Z" fill="#010101"/><path d="M66.13,101.66h0a1.68,1.68,0,0,0-1.68,1.68h0A1.68,1.68,0,0,0,66.13,105h0a1.68,1.68,0,0,0,1.68-1.68h0A1.68,1.68,0,0,0,66.13,101.66Z" fill="#010101"/><path d="M69.86,95.2a1.69,1.69,0,1,0,1.68,1.68A1.68,1.68,0,0,0,69.86,95.2Z" fill="#010101"/><path d="M66.13,114.57h0a1.68,1.68,0,0,0-1.68,1.68h0a1.68,1.68,0,0,0,1.68,1.68h0a1.68,1.68,0,0,0,1.68-1.68h0A1.68,1.68,0,0,0,66.13,114.57Z" fill="#010101"/><circle cx="69.86" cy="109.8" r="1.68" fill="#010101"/><path d="M66.13,127.48h0a1.68,1.68,0,0,0-1.68,1.68h0a1.69,1.69,0,0,0,1.68,1.69h0a1.69,1.69,0,0,0,1.68-1.69h0A1.68,1.68,0,0,0,66.13,127.48Z" fill="#010101"/><path d="M69.86,121a1.68,1.68,0,1,0,1.68,1.68A1.68,1.68,0,0,0,69.86,121Z" fill="#010101"/><path d="M66.13,140.39h0a1.69,1.69,0,0,0-1.68,1.69h0a1.68,1.68,0,0,0,1.68,1.68h0a1.68,1.68,0,0,0,1.68-1.68h0A1.69,1.69,0,0,0,66.13,140.39Z" fill="#010101"/><circle cx="69.86" cy="135.62" r="1.68" fill="#010101"/><path d="M69.86,146.85a1.68,1.68,0,1,0,1.68,1.68A1.68,1.68,0,0,0,69.86,146.85Z" fill="#010101"/><path d="M58.68,101.66h0A1.69,1.69,0,0,0,57,103.34h0A1.69,1.69,0,0,0,58.68,105h0a1.68,1.68,0,0,0,1.68-1.68h0A1.68,1.68,0,0,0,58.68,101.66Z" fill="#010101"/><path d="M62.4,95.2a1.69,1.69,0,0,0,0,3.37,1.69,1.69,0,1,0,0-3.37Z" fill="#010101"/><path d="M58.68,114.57h0A1.69,1.69,0,0,0,57,116.25h0a1.69,1.69,0,0,0,1.69,1.68h0a1.68,1.68,0,0,0,1.68-1.68h0A1.68,1.68,0,0,0,58.68,114.57Z" fill="#010101"/><circle cx="62.4" cy="109.8" r="1.68" fill="#010101"/><path d="M58.68,127.48h0A1.69,1.69,0,0,0,57,129.16h0a1.69,1.69,0,0,0,1.69,1.69h0a1.69,1.69,0,0,0,1.68-1.69h0A1.68,1.68,0,0,0,58.68,127.48Z" fill="#010101"/><path d="M62.4,121a1.68,1.68,0,1,0,1.69,1.68A1.68,1.68,0,0,0,62.4,121Z" fill="#010101"/><path d="M58.68,140.39h0A1.69,1.69,0,0,0,57,142.08h0a1.69,1.69,0,0,0,1.69,1.68h0a1.68,1.68,0,0,0,1.68-1.68h0A1.69,1.69,0,0,0,58.68,140.39Z" fill="#010101"/><circle cx="62.4" cy="135.62" r="1.68" fill="#010101"/><path d="M51.22,101.66h0a1.68,1.68,0,0,0-1.68,1.68h0A1.68,1.68,0,0,0,51.22,105h0a1.68,1.68,0,0,0,1.68-1.68h0A1.68,1.68,0,0,0,51.22,101.66Z" fill="#010101"/><path d="M51.22,114.57h0a1.68,1.68,0,0,0-1.68,1.68h0a1.68,1.68,0,0,0,1.68,1.68h0a1.68,1.68,0,0,0,1.68-1.68h0A1.68,1.68,0,0,0,51.22,114.57Z" fill="#010101"/><circle cx="54.95" cy="109.8" r="1.68" fill="#010101"/><path d="M51.22,127.48h0a1.68,1.68,0,0,0-1.68,1.68h0a1.69,1.69,0,0,0,1.68,1.69h0a1.69,1.69,0,0,0,1.68-1.69h0A1.68,1.68,0,0,0,51.22,127.48Z" fill="#010101"/><path d="M55,121a1.68,1.68,0,1,0,1.68,1.68A1.68,1.68,0,0,0,55,121Z" fill="#010101"/><circle cx="54.95" cy="135.62" r="1.68" fill="#010101"/><path d="M43.77,114.57h0a1.69,1.69,0,0,0-1.69,1.68h0a1.69,1.69,0,0,0,1.69,1.68h0a1.68,1.68,0,0,0,1.68-1.68h0A1.68,1.68,0,0,0,43.77,114.57Z" fill="#010101"/><path d="M47.49,108.11a1.69,1.69,0,1,0,1.69,1.69A1.69,1.69,0,0,0,47.49,108.11Z" fill="#010101"/><path d="M43.77,127.48h0a1.69,1.69,0,0,0-1.69,1.68h0a1.69,1.69,0,0,0,1.69,1.69h0a1.69,1.69,0,0,0,1.68-1.69h0A1.68,1.68,0,0,0,43.77,127.48Z" fill="#010101"/><path d="M47.49,121a1.68,1.68,0,1,0,1.69,1.68A1.68,1.68,0,0,0,47.49,121Z" fill="#010101"/><path d="M47.49,133.94a1.68,1.68,0,1,0,1.69,1.68A1.68,1.68,0,0,0,47.49,133.94Z" fill="#010101"/><path d="M40,121a1.68,1.68,0,1,0,1.68,1.68A1.68,1.68,0,0,0,40,121Z" fill="#010101"/><path d="M218.12,92.65l-26.68,15.94,26.68-15.94C209.7,61,187.48,30.25,162.68,15.94c-16-9.25-31-10.67-42.26-4A39.25,39.25,0,0,0,111,4.05C104.76.48,99.14.15,95.08,2.51L69.56,17.34l0,0c-4,2.3-6.49,7.2-6.55,14.15l-12.7,7.38c.16-.1.33-.18.5-.27-7.53,4.08-12,13.16-12,25.79-.07,25.19,17.7,56,39.62,68.63l117.48,67.26c9,3.54,16.83,3,22.73-.8-.25.16-.47.36-.72.51l25.52-14.84c7.2-4.18,11.63-13.07,11.66-25.45C255.18,135.55,239,106.25,218.12,92.65Z" fill="none" stroke="#000" stroke-miterlimit="10" stroke-width="2"/><path d="M67.31,18.5,94.65,2.62C99,.09,105,.44,111.65,4.27c3.53,2,5.43,5.28,8.63,8.87l-25,16.09a47.8,47.8,0,0,0-10.92-9.07C77.68,16.33,71.66,16,67.31,18.5Z"/><path d="M172.59,67.18a144.68,144.68,0,0,1,18.85,41.41l26.38-16.31a137.9,137.9,0,0,0-18.47-40.34Z"/><path d="M211.47,127.4c10.74,14.41,17.06,31.79,17,47.67,0,12.38-4.57,21.27-11.76,25.45l26.72-14.83c7.2-4.18,11.63-13.07,11.66-25.46,0-15.84-7-33.9-17.66-48.3Z"/><path d="M195.28,199.78c19.23,7.18,33.49-3.61,32.71-26.2.06-23.34-15.76-51.74-36-64.65l-.53-.34-.18-.68c-8.06-31-29.8-61.26-54.1-75.3-15.53-9-30-10.34-41-3.93l-.94.55c-3-3.22-7.63-8.58-11.17-10.46-12.15-6.41-21.6-.53-21.13,13.13" fill="none" stroke="#000" stroke-miterlimit="10" stroke-width="2"/><path d="M69.56,17.34h0l0,0Z" fill="#fff" stroke="#000" stroke-miterlimit="10" stroke-width="2"/><path d="M218.65,199.46l-.76.46,0,.05C218.18,199.82,218.4,199.62,218.65,199.46Z" fill="#fff" stroke="#000" stroke-miterlimit="10" stroke-width="2"/><path d="M228,173.58c.06-23.34-15.76-51.74-36-64.65l-.53-.34-.18-.68c-8.06-31-29.8-61.26-54.1-75.3-15.53-9-30-10.34-41-3.93l-.94.55c-3-3.22-7.63-8.58-11.17-10.46-5.66-3-10.74-3.3-14.49-1.41h0l-.28.17c-4,2.22-6.49,7.09-6.34,14L50.35,38.85c.16-.1.33-.18.5-.27-7.53,4.08-12,13.16-12,25.79-.07,25.19,17.7,56,39.62,68.63l117.48,67.26c8.57,3.39,16.16,3,22-.34h0C224.91,195.67,228.42,186,228,173.58Z" fill="#fff" stroke="#000" stroke-miterlimit="10" stroke-width="2"/><path d="M96.07,55.82c-16.65-8.8-31.42-9-41.68-2.08A38.33,38.33,0,0,0,44.58,46c-12-6.34-21.32-.52-20.86,13a32.37,32.37,0,0,0,.63,5.19C10.08,63,.39,73.5,1,92.13c.85,24.4,19.11,53.47,40.81,64.94l117.61,61.71c19,7.1,33.07-3.56,32.3-25.87-.82-23.61-18-51.61-38.73-63.78-9-29.93-31.37-59.79-57-73.31" fill="none" stroke="#000" stroke-miterlimit="10" stroke-width="2"/><circle cx="7.82" cy="154.73" r="2.95"/><circle cx="28.16" cy="154.73" r="2.95"/><circle cx="68.83" cy="154.73" r="2.95"/><circle cx="89.17" cy="154.73" r="2.95"/><circle cx="48.49" cy="154.73" r="2.95"/><circle cx="7.82" cy="175.07" r="2.95"/><circle cx="28.16" cy="175.07" r="2.95"/><circle cx="68.83" cy="175.07" r="2.95"/><circle cx="89.17" cy="175.07" r="2.95"/><circle cx="48.49" cy="175.07" r="2.95"/><circle cx="7.82" cy="195.41" r="2.95"/><circle cx="28.16" cy="195.41" r="2.95"/><circle cx="68.83" cy="195.41" r="2.95"/><circle cx="89.17" cy="195.41" r="2.95"/><circle cx="48.49" cy="195.41" r="2.95"/><circle cx="7.82" cy="215.74" r="2.95"/><circle cx="28.16" cy="215.74" r="2.95"/><circle cx="68.83" cy="215.74" r="2.95"/><circle cx="89.17" cy="215.74" r="2.95"/><circle cx="48.49" cy="215.74" r="2.95"/><circle cx="7.82" cy="236.08" r="2.95"/><circle cx="28.16" cy="236.08" r="2.95"/><circle cx="68.83" cy="236.08" r="2.95"/><circle cx="89.17" cy="236.08" r="2.95"/><circle cx="48.49" cy="236.08" r="2.95"/><g style="isolation:isolate"><path d="M257.09,94.36c.06-20.68-14.48-45.87-32.48-56.26" fill="none" stroke="#000" stroke-miterlimit="10" stroke-width="2"/></g><g style="isolation:isolate"><path d="M244.16,86.9c0-12.48-8.74-27.68-19.6-33.94" fill="none" stroke="#000" stroke-miterlimit="10" stroke-width="2"/></g><g style="isolation:isolate"><path d="M270,101.82c.08-28.88-20.23-64-45.36-78.57" fill="none" stroke="#000" stroke-miterlimit="10" stroke-width="2"/></g></g></g></svg>