<svg id="Layer_1" data-name="Layer 1" xmlns="http://www.w3.org/2000/svg" viewBox="0 0 745 415.25"><defs><style>.cls-1{fill:#ebf2f2;}.cls-2,.cls-3{fill:none;stroke:#c4cecd;}.cls-2,.cls-3,.cls-4{stroke-miterlimit:10;stroke-width:2px;}.cls-3{stroke-dasharray:7.08 7.08;}.cls-4,.cls-6{fill:#fff;}.cls-4{stroke:#6db33f;}.cls-5{fill:#68bd45;}.cls-7{fill:#98afae;}</style></defs><title>cloud-diagram</title><rect class="cls-1" width="745" height="415.25" rx="6.21"/><line class="cls-2" x1="394.11" y1="337.68" x2="578.61" y2="337.68"/><line class="cls-2" x1="394.11" y1="68.54" x2="603.91" y2="68.54"/><line class="cls-2" x1="131.85" y1="238.16" x2="685.68" y2="238.16"/><line class="cls-2" x1="718.91" y1="238.16" x2="712.91" y2="238.16"/><line class="cls-3" x1="705.83" y1="238.16" x2="695.21" y2="238.16"/><line class="cls-2" x1="691.68" y1="238.16" x2="685.68" y2="238.16"/><line class="cls-2" x1="342.97" y1="142.44" x2="629.76" y2="142.44"/><rect class="cls-4" x="182.63" y="212.34" width="110.17" height="53.7"/><path d="M235.15,236.62l-.92-2.58h-3.55l-.91,2.58h-1.6l3.47-9.32h1.65l3.47,9.32Zm-1.32-3.89-.87-2.52c-.07-.17-.16-.44-.27-.8s-.19-.63-.23-.8a13,13,0,0,1-.5,1.7l-.84,2.42Z"/><path d="M243.94,230.14a2.73,2.73,0,0,1-.95,2.23,4.19,4.19,0,0,1-2.71.78h-1v3.47h-1.52v-9.28h2.68a4,4,0,0,1,2.6.71A2.54,2.54,0,0,1,243.94,230.14Zm-4.63,1.73h.81a2.87,2.87,0,0,0,1.71-.41,1.72,1.72,0,0,0,.06-2.46,2.43,2.43,0,0,0-1.52-.39h-1.06Z"/><path d="M245.6,236.62v-9.28h1.51v9.28Z"/><path d="M235.16,245.2V246l-1.2.22a2,2,0,0,1,.28.54,2.26,2.26,0,0,1,.11.69,2.12,2.12,0,0,1-.75,1.71,3.17,3.17,0,0,1-2.07.62,3.86,3.86,0,0,1-.61-.05.84.84,0,0,0-.48.7.39.39,0,0,0,.23.36,1.94,1.94,0,0,0,.83.12h1.22a2.75,2.75,0,0,1,1.77.49,1.75,1.75,0,0,1,.6,1.43,2.07,2.07,0,0,1-1,1.84,5.17,5.17,0,0,1-2.84.65,3.9,3.9,0,0,1-2.19-.51,1.64,1.64,0,0,1-.75-1.44,1.49,1.49,0,0,1,.41-1.09,2.17,2.17,0,0,1,1.14-.62,1.12,1.12,0,0,1-.49-.4,1.09,1.09,0,0,1,0-1.27,2.5,2.5,0,0,1,.66-.53,2,2,0,0,1-.89-.77,2.3,2.3,0,0,1-.34-1.24,2.23,2.23,0,0,1,.72-1.77,3,3,0,0,1,2.06-.63,4.49,4.49,0,0,1,.62,0,4.06,4.06,0,0,1,.49.09Zm-5.51,8.11a.81.81,0,0,0,.43.74,2.34,2.34,0,0,0,1.23.26,3.6,3.6,0,0,0,1.81-.35,1,1,0,0,0,.6-.92.68.68,0,0,0-.33-.65,2.6,2.6,0,0,0-1.22-.2h-1.12a1.59,1.59,0,0,0-1,.3A1,1,0,0,0,229.65,253.31Zm.64-5.84a1.41,1.41,0,0,0,.34,1,1.31,1.31,0,0,0,1,.35c.87,0,1.3-.46,1.3-1.38a1.6,1.6,0,0,0-.32-1.06,1.22,1.22,0,0,0-1-.37,1.25,1.25,0,0,0-1,.37A1.54,1.54,0,0,0,230.29,247.47Z"/><path d="M240.66,252.22l-.29-1h-.06a2.67,2.67,0,0,1-1,.87,3.13,3.13,0,0,1-1.32.23,2.22,2.22,0,0,1-1.61-.55,2.09,2.09,0,0,1-.58-1.58,1.84,1.84,0,0,1,.8-1.64A4.7,4.7,0,0,1,239,248l1.21,0v-.38a1.39,1.39,0,0,0-.31-1,1.27,1.27,0,0,0-1-.34,3.52,3.52,0,0,0-1,.16,7.24,7.24,0,0,0-1,.38l-.49-1.07a5,5,0,0,1,1.25-.45,5.48,5.48,0,0,1,1.29-.16,3,3,0,0,1,2,.58,2.31,2.31,0,0,1,.68,1.84v4.73Zm-2.22-1a1.88,1.88,0,0,0,1.31-.45,1.67,1.67,0,0,0,.49-1.27v-.61l-.9,0a3.13,3.13,0,0,0-1.54.36,1.07,1.07,0,0,0-.48,1,1,1,0,0,0,.28.73A1.22,1.22,0,0,0,238.44,251.2Z"/><path d="M246.23,251.14a3.7,3.7,0,0,0,1.09-.17v1.12a3,3,0,0,1-.63.18,4.28,4.28,0,0,1-.81.07c-1.42,0-2.12-.74-2.12-2.23v-3.78h-1v-.66l1-.55.5-1.48h.92v1.56h2v1.13h-2v3.75a1.06,1.06,0,0,0,.27.8A1,1,0,0,0,246.23,251.14Z"/><path d="M251.6,252.34a3.37,3.37,0,0,1-2.56-1,3.61,3.61,0,0,1-.93-2.63,4,4,0,0,1,.86-2.71,3,3,0,0,1,2.35-1,2.91,2.91,0,0,1,2.2.84,3.24,3.24,0,0,1,.81,2.33v.8h-4.68a2.27,2.27,0,0,0,.55,1.57,1.92,1.92,0,0,0,1.47.55,6.09,6.09,0,0,0,1.16-.11,6.51,6.51,0,0,0,1.15-.39v1.21a5.17,5.17,0,0,1-1.11.37A6.89,6.89,0,0,1,251.6,252.34Zm-.28-6.14a1.48,1.48,0,0,0-1.13.45,2.16,2.16,0,0,0-.52,1.31h3.19a1.94,1.94,0,0,0-.42-1.31A1.43,1.43,0,0,0,251.32,246.2Z"/><path d="M261.58,252.22l-.9-3.28c-.11-.35-.31-1.15-.6-2.42H260c-.24,1.15-.44,2-.58,2.43l-.93,3.27h-1.65l-2-7h1.52l.9,3.46c.2.85.34,1.58.43,2.19h0c0-.31.1-.66.19-1.06s.16-.7.22-.9l1.07-3.69h1.64l1,3.69a9.74,9.74,0,0,1,.24,1,7.14,7.14,0,0,1,.17,1h.05a17.32,17.32,0,0,1,.45-2.18l.9-3.46h1.5l-2,7Z"/><path d="M270.64,252.22l-.29-1h-.06a2.67,2.67,0,0,1-1,.87,3.13,3.13,0,0,1-1.32.23,2.22,2.22,0,0,1-1.61-.55,2.09,2.09,0,0,1-.58-1.58,1.87,1.87,0,0,1,.8-1.64A4.7,4.7,0,0,1,269,248l1.21,0v-.38a1.39,1.39,0,0,0-.31-1,1.27,1.27,0,0,0-1-.34,3.52,3.52,0,0,0-1,.16,7.24,7.24,0,0,0-1,.38l-.49-1.07a5.16,5.16,0,0,1,1.25-.45,5.48,5.48,0,0,1,1.29-.16,3,3,0,0,1,2,.58,2.31,2.31,0,0,1,.68,1.84v4.73Zm-2.22-1a1.88,1.88,0,0,0,1.31-.45,1.64,1.64,0,0,0,.49-1.27v-.61l-.9,0a3.13,3.13,0,0,0-1.54.36,1.08,1.08,0,0,0-.47,1,1,1,0,0,0,.27.73A1.22,1.22,0,0,0,268.42,251.2Z"/><path d="M272.53,245.2h1.63l1.42,4a7.72,7.72,0,0,1,.44,1.6h.05a5.48,5.48,0,0,1,.21-.85c.1-.33.63-1.91,1.61-4.73h1.61l-3,8a2.86,2.86,0,0,1-2.73,2.19,4.51,4.51,0,0,1-1-.11v-1.18a3.57,3.57,0,0,0,.77.08,1.58,1.58,0,0,0,1.52-1.25l.26-.66Z"/><polyline class="cls-2" points="131.85 172.08 158.44 172.08 158.44 304.23 131.85 304.23"/><line class="cls-2" x1="342.97" y1="62.61" x2="342.97" y2="325.36"/><line class="cls-2" x1="629.76" y1="62.61" x2="629.76" y2="342.25"/><rect class="cls-4" x="282.46" y="41.69" width="121.02" height="53.7"/><path d="M336.49,56.48a2.31,2.31,0,0,0-1.9.86,3.65,3.65,0,0,0-.69,2.36,3.69,3.69,0,0,0,.66,2.38,2.37,2.37,0,0,0,1.93.81,4.57,4.57,0,0,0,1.05-.11,9.27,9.27,0,0,0,1.06-.28v1.21a6.49,6.49,0,0,1-2.28.38A3.64,3.64,0,0,1,333.43,63a4.78,4.78,0,0,1-1-3.26,5.37,5.37,0,0,1,.49-2.34,3.53,3.53,0,0,1,1.42-1.54,4.31,4.31,0,0,1,2.17-.53,5.38,5.38,0,0,1,2.43.55L338.42,57a6.63,6.63,0,0,0-.91-.36A3.2,3.2,0,0,0,336.49,56.48Z"/><path d="M340,55.77a.81.81,0,0,1,.2-.57.82.82,0,0,1,.58-.2.71.71,0,0,1,.77.77.75.75,0,0,1-.21.56.77.77,0,0,1-.56.2.82.82,0,0,1-.58-.2A.78.78,0,0,1,340,55.77ZM341.5,64h-1.38V57.49h1.38Z"/><path d="M346.58,57.37a3.23,3.23,0,0,1,.68.06l-.13,1.28a3.08,3.08,0,0,0-.61-.07,1.76,1.76,0,0,0-1.34.54,2,2,0,0,0-.51,1.4V64h-1.38V57.49h1.08l.18,1.14h.07a2.49,2.49,0,0,1,.84-.92A2,2,0,0,1,346.58,57.37Z"/><path d="M350.9,64.09a2.86,2.86,0,0,1-2.24-.86,4.37,4.37,0,0,1,0-5,2.94,2.94,0,0,1,2.31-.88,4.35,4.35,0,0,1,1.84.38l-.41,1.11a4.17,4.17,0,0,0-1.44-.34c-1.13,0-1.69.74-1.69,2.23a2.66,2.66,0,0,0,.42,1.64,1.44,1.44,0,0,0,1.23.55,3.49,3.49,0,0,0,1.74-.46v1.2a2.55,2.55,0,0,1-.79.31A4.26,4.26,0,0,1,350.9,64.09Z"/><path d="M358.61,64l-.19-.85h-.07a1.91,1.91,0,0,1-.82.71,2.73,2.73,0,0,1-1.21.26,2.4,2.4,0,0,1-1.76-.59,2.45,2.45,0,0,1-.58-1.77V57.49h1.39v4a1.69,1.69,0,0,0,.31,1.11,1.15,1.15,0,0,0,.95.37,1.52,1.52,0,0,0,1.28-.52,2.84,2.84,0,0,0,.4-1.73V57.49h1.39V64Z"/><path d="M361.4,55.77a.81.81,0,0,1,.2-.57.82.82,0,0,1,.58-.2.71.71,0,0,1,.77.77.75.75,0,0,1-.21.56.77.77,0,0,1-.56.2.82.82,0,0,1-.58-.2A.78.78,0,0,1,361.4,55.77Zm1.46,8.2h-1.38V57.49h1.38Z"/><path d="M367.06,63a3.53,3.53,0,0,0,1-.15v1a2.83,2.83,0,0,1-.59.17,4.54,4.54,0,0,1-.75.07q-2,0-2-2.07V58.53h-.89v-.61l.95-.5.47-1.37h.85v1.44H368v1h-1.84V62a1,1,0,0,0,.25.74A.92.92,0,0,0,367.06,63Z"/><path d="M336,71.77a2.24,2.24,0,0,1,1.89.88,4.88,4.88,0,0,1,0,4.95,2.49,2.49,0,0,1-3.82,0H334l-.25.77h-1V69.25h1.37v2.17c0,.16,0,.4,0,.71s0,.52,0,.61h.05A2.19,2.19,0,0,1,336,71.77Zm-.36,1.13a1.41,1.41,0,0,0-1.2.49,2.87,2.87,0,0,0-.38,1.63v.1a3,3,0,0,0,.38,1.71,1.4,1.4,0,0,0,1.22.53,1.23,1.23,0,0,0,1.11-.58,3,3,0,0,0,.38-1.67C337.16,73.63,336.66,72.9,335.65,72.9Z"/><path d="M343.28,71.77a3.27,3.27,0,0,1,.69.06l-.14,1.28a3,3,0,0,0-.61-.07,1.76,1.76,0,0,0-1.34.54,2,2,0,0,0-.51,1.4v3.39H340V71.89h1.08l.18,1.14h.07a2.67,2.67,0,0,1,.84-.92A2,2,0,0,1,343.28,71.77Z"/><path d="M347.82,78.49a3.14,3.14,0,0,1-2.37-.89,3.31,3.31,0,0,1-.85-2.42,3.68,3.68,0,0,1,.79-2.5,2.72,2.72,0,0,1,2.18-.91,2.65,2.65,0,0,1,2,.78,3,3,0,0,1,.75,2.15v.74H346a2.13,2.13,0,0,0,.51,1.45,1.76,1.76,0,0,0,1.35.51,5.17,5.17,0,0,0,1.07-.11,5.11,5.11,0,0,0,1.06-.36v1.12a4.29,4.29,0,0,1-1,.34A6.93,6.93,0,0,1,347.82,78.49Zm-.25-5.68a1.4,1.4,0,0,0-1.06.42,2,2,0,0,0-.47,1.21H349a1.74,1.74,0,0,0-.38-1.21A1.32,1.32,0,0,0,347.57,72.81Z"/><path d="M355.78,78.37l-.28-.9h-.05a2.59,2.59,0,0,1-.94.8,2.86,2.86,0,0,1-1.22.22A2.09,2.09,0,0,1,351.8,78a1.92,1.92,0,0,1-.54-1.46A1.7,1.7,0,0,1,352,75a4.28,4.28,0,0,1,2.27-.56l1.12,0v-.35a1.35,1.35,0,0,0-.29-.93,1.22,1.22,0,0,0-.9-.3,3.38,3.38,0,0,0-1,.14,8.48,8.48,0,0,0-.88.35l-.44-1a4.61,4.61,0,0,1,1.15-.41,5.09,5.09,0,0,1,1.18-.15,2.8,2.8,0,0,1,1.87.54,2.1,2.1,0,0,1,.63,1.69v4.37Zm-2-.94a1.69,1.69,0,0,0,1.2-.42,1.52,1.52,0,0,0,.45-1.17v-.56l-.83,0a2.7,2.7,0,0,0-1.41.33,1,1,0,0,0-.45.88.86.86,0,0,0,.26.67A1.1,1.1,0,0,0,353.73,77.43Z"/><path d="M359.83,75l.78-1,2-2.08h1.59l-2.61,2.78,2.77,3.7H362.7l-2.08-2.84-.75.62v2.22H358.5V69.25h1.37V73.7L359.8,75Z"/><path d="M368,78.49a3.14,3.14,0,0,1-2.36-.89,3.31,3.31,0,0,1-.85-2.42,3.68,3.68,0,0,1,.79-2.5,2.72,2.72,0,0,1,2.17-.91,2.67,2.67,0,0,1,2,.78,3,3,0,0,1,.74,2.15v.74h-4.32a2.13,2.13,0,0,0,.51,1.45,1.8,1.8,0,0,0,1.36.51,5.17,5.17,0,0,0,1.07-.11,5.31,5.31,0,0,0,1.06-.36v1.12a4.22,4.22,0,0,1-1,.34A6.75,6.75,0,0,1,368,78.49Zm-.25-5.68a1.36,1.36,0,0,0-1.05.42,2,2,0,0,0-.47,1.21h2.94a1.79,1.79,0,0,0-.39-1.21A1.31,1.31,0,0,0,367.76,72.81Z"/><path d="M375.21,71.77a3.23,3.23,0,0,1,.68.06l-.13,1.28a3.08,3.08,0,0,0-.61-.07,1.76,1.76,0,0,0-1.34.54,2,2,0,0,0-.51,1.4v3.39h-1.38V71.89H373l.18,1.14h.07a2.49,2.49,0,0,1,.84-.92A2,2,0,0,1,375.21,71.77Z"/><rect class="cls-4" x="428.17" y="207.18" width="110.17" height="53.7"/><rect class="cls-4" x="434.17" y="213.18" width="110.17" height="53.7"/><rect class="cls-4" x="440.17" y="219.18" width="110.17" height="53.7"/><path d="M458.67,249.94,456,242.19h-.05c.07,1.15.11,2.23.11,3.24v4.51h-1.38v-9.28h2.14l2.58,7.38h0l2.65-7.38h2.15v9.28h-1.46v-4.59q0-.69,0-1.8t.06-1.35h-.05L460,249.94Z"/><path d="M466.22,241.06a.79.79,0,0,1,.22-.61.81.81,0,0,1,.62-.22.8.8,0,0,1,.61.22.79.79,0,0,1,.22.61.84.84,0,1,1-1.67,0Zm1.58,8.88h-1.49v-7h1.49Z"/><path d="M472.57,250.07a3.11,3.11,0,0,1-2.43-.93,4.74,4.74,0,0,1,0-5.39,3.22,3.22,0,0,1,2.51-1,4.65,4.65,0,0,1,2,.42l-.45,1.2a4.42,4.42,0,0,0-1.57-.37c-1.21,0-1.82.8-1.82,2.42a2.85,2.85,0,0,0,.46,1.77,1.55,1.55,0,0,0,1.33.59,3.8,3.8,0,0,0,1.88-.49v1.3a2.86,2.86,0,0,1-.85.34A5.66,5.66,0,0,1,472.57,250.07Z"/><path d="M479.54,242.79a3,3,0,0,1,.74.07l-.15,1.39a2.84,2.84,0,0,0-.66-.08,1.92,1.92,0,0,0-1.45.59,2.08,2.08,0,0,0-.55,1.51v3.67H476v-7h1.17l.19,1.24h.08a2.84,2.84,0,0,1,.91-1A2.21,2.21,0,0,1,479.54,242.79Z"/><path d="M487.61,246.42a3.8,3.8,0,0,1-.88,2.68,3.14,3.14,0,0,1-2.45,1,3.32,3.32,0,0,1-1.74-.45,2.88,2.88,0,0,1-1.17-1.27,4.38,4.38,0,0,1-.4-1.93,3.83,3.83,0,0,1,.87-2.67,3.19,3.19,0,0,1,2.47-1,3.09,3.09,0,0,1,2.41,1A3.78,3.78,0,0,1,487.61,246.42Zm-5.11,0q0,2.43,1.8,2.43c1.19,0,1.78-.81,1.78-2.43s-.6-2.41-1.79-2.41a1.53,1.53,0,0,0-1.36.62A3.12,3.12,0,0,0,482.5,246.42Z"/><path d="M493.85,247.94a1.84,1.84,0,0,1-.75,1.58,3.61,3.61,0,0,1-2.14.55,5,5,0,0,1-2.26-.43v-1.29a5.46,5.46,0,0,0,2.31.58c.91,0,1.37-.28,1.37-.84a.67.67,0,0,0-.15-.44,1.84,1.84,0,0,0-.5-.37,8.12,8.12,0,0,0-1-.43,4.42,4.42,0,0,1-1.64-.94,1.72,1.72,0,0,1-.43-1.22,1.59,1.59,0,0,1,.73-1.4,3.44,3.44,0,0,1,2-.5,5.47,5.47,0,0,1,2.34.51l-.48,1.12a5.22,5.22,0,0,0-1.91-.47c-.79,0-1.18.22-1.18.67a.67.67,0,0,0,.31.56,6.88,6.88,0,0,0,1.34.63,6.17,6.17,0,0,1,1.26.61,1.89,1.89,0,0,1,.59.65A1.8,1.8,0,0,1,493.85,247.94Z"/><path d="M498.33,250.07a3.39,3.39,0,0,1-2.56-1,3.59,3.59,0,0,1-.92-2.63,4,4,0,0,1,.85-2.7,3,3,0,0,1,2.36-1,2.88,2.88,0,0,1,2.2.85,3.25,3.25,0,0,1,.8,2.32v.81h-4.68a2.3,2.3,0,0,0,.56,1.57,1.92,1.92,0,0,0,1.46.55,5.3,5.3,0,0,0,1.16-.12,6.25,6.25,0,0,0,1.15-.39v1.21a4.2,4.2,0,0,1-1.1.37A6.94,6.94,0,0,1,498.33,250.07Zm-.27-6.15a1.51,1.51,0,0,0-1.14.45,2.1,2.1,0,0,0-.51,1.32h3.18a1.91,1.91,0,0,0-.41-1.32A1.44,1.44,0,0,0,498.06,243.92Z"/><path d="M506.12,242.79a3,3,0,0,1,.74.07l-.14,1.39a2.84,2.84,0,0,0-.66-.08,1.91,1.91,0,0,0-1.45.59,2.09,2.09,0,0,0-.56,1.51v3.67h-1.49v-7h1.17l.2,1.24H504a2.84,2.84,0,0,1,.91-1A2.23,2.23,0,0,1,506.12,242.79Z"/><path d="M509.57,249.94l-2.66-7h1.57l1.43,4.08a8.34,8.34,0,0,1,.44,1.67h0a11.46,11.46,0,0,1,.45-1.67l1.43-4.08h1.58l-2.68,7Z"/><path d="M514.64,241.06a.82.82,0,0,1,.22-.61.85.85,0,0,1,.63-.22.8.8,0,0,1,.61.22.79.79,0,0,1,.22.61.76.76,0,0,1-.83.82.76.76,0,0,1-.85-.82Zm1.59,8.88h-1.5v-7h1.5Z"/><path d="M521,250.07a3.08,3.08,0,0,1-2.42-.93,4.7,4.7,0,0,1,0-5.39,3.2,3.2,0,0,1,2.5-1,4.59,4.59,0,0,1,2,.42l-.45,1.2a4.42,4.42,0,0,0-1.56-.37c-1.21,0-1.82.8-1.82,2.42a2.92,2.92,0,0,0,.45,1.77,1.57,1.57,0,0,0,1.33.59,3.81,3.81,0,0,0,1.89-.49v1.3a3,3,0,0,1-.85.34A5.77,5.77,0,0,1,521,250.07Z"/><path d="M527.47,250.07a3.39,3.39,0,0,1-2.56-1,3.59,3.59,0,0,1-.92-2.63,4,4,0,0,1,.85-2.7,3,3,0,0,1,2.36-1,2.84,2.84,0,0,1,2.19.85,3.21,3.21,0,0,1,.81,2.32v.81h-4.68a2.3,2.3,0,0,0,.56,1.57,1.92,1.92,0,0,0,1.46.55,5.3,5.3,0,0,0,1.16-.12,6.25,6.25,0,0,0,1.15-.39v1.21a4.2,4.2,0,0,1-1.1.37A6.94,6.94,0,0,1,527.47,250.07Zm-.27-6.15a1.48,1.48,0,0,0-1.14.45,2.1,2.1,0,0,0-.51,1.32h3.18a1.91,1.91,0,0,0-.41-1.32A1.44,1.44,0,0,0,527.2,243.92Z"/><path d="M536.42,247.94a1.84,1.84,0,0,1-.75,1.58,3.65,3.65,0,0,1-2.15.55,5,5,0,0,1-2.25-.43v-1.29a5.38,5.38,0,0,0,2.3.58q1.38,0,1.38-.84a.67.67,0,0,0-.15-.44,1.84,1.84,0,0,0-.5-.37,8.93,8.93,0,0,0-1-.43,4.57,4.57,0,0,1-1.65-.94,1.76,1.76,0,0,1-.42-1.22,1.6,1.6,0,0,1,.72-1.4,3.5,3.5,0,0,1,2-.5,5.47,5.47,0,0,1,2.34.51l-.48,1.12a5.27,5.27,0,0,0-1.91-.47c-.79,0-1.18.22-1.18.67a.67.67,0,0,0,.31.56,6.88,6.88,0,0,0,1.34.63,6.17,6.17,0,0,1,1.26.61,2,2,0,0,1,.59.65A1.93,1.93,0,0,1,536.42,247.94Z"/><rect class="cls-4" x="428.17" y="307.85" width="110.17" height="53.7"/><rect class="cls-4" x="434.17" y="313.85" width="110.17" height="53.7"/><rect class="cls-4" x="440.17" y="319.85" width="110.17" height="53.7"/><path d="M458.67,350.61,456,342.86h-.05c.07,1.15.11,2.23.11,3.24v4.51h-1.38v-9.28h2.14l2.58,7.38h0l2.65-7.38h2.15v9.28h-1.46V346q0-.69,0-1.8t.06-1.35h-.05L460,350.61Z"/><path d="M466.22,341.73a.83.83,0,0,1,.22-.62.85.85,0,0,1,.62-.21.84.84,0,0,1,.61.21.83.83,0,0,1,.22.62.84.84,0,1,1-1.67,0Zm1.58,8.88h-1.49v-7h1.49Z"/><path d="M472.57,350.74a3.11,3.11,0,0,1-2.43-.93,4.74,4.74,0,0,1,0-5.39,3.22,3.22,0,0,1,2.51-1,4.65,4.65,0,0,1,2,.42l-.45,1.2a4.42,4.42,0,0,0-1.57-.37c-1.21,0-1.82.8-1.82,2.42a2.85,2.85,0,0,0,.46,1.77,1.55,1.55,0,0,0,1.33.59,3.8,3.8,0,0,0,1.88-.49v1.3a2.86,2.86,0,0,1-.85.34A5.66,5.66,0,0,1,472.57,350.74Z"/><path d="M479.54,343.46a3,3,0,0,1,.74.07l-.15,1.39a2.84,2.84,0,0,0-.66-.08,2,2,0,0,0-1.45.58,2.12,2.12,0,0,0-.55,1.52v3.67H476v-7h1.17l.19,1.24h.08a2.84,2.84,0,0,1,.91-1A2.21,2.21,0,0,1,479.54,343.46Z"/><path d="M487.61,347.09a3.82,3.82,0,0,1-.88,2.68,3.14,3.14,0,0,1-2.45,1,3.32,3.32,0,0,1-1.74-.45,2.88,2.88,0,0,1-1.17-1.27,4.38,4.38,0,0,1-.4-1.93,3.83,3.83,0,0,1,.87-2.67,3.19,3.19,0,0,1,2.47-1,3.09,3.09,0,0,1,2.41,1A3.78,3.78,0,0,1,487.61,347.09Zm-5.11,0q0,2.43,1.8,2.43c1.19,0,1.78-.81,1.78-2.43s-.6-2.41-1.79-2.41a1.53,1.53,0,0,0-1.36.62A3.12,3.12,0,0,0,482.5,347.09Z"/><path d="M493.85,348.61a1.84,1.84,0,0,1-.75,1.58,3.61,3.61,0,0,1-2.14.55,5,5,0,0,1-2.26-.43V349a5.59,5.59,0,0,0,2.31.57c.91,0,1.37-.27,1.37-.83a.67.67,0,0,0-.15-.44,1.84,1.84,0,0,0-.5-.37,8.12,8.12,0,0,0-1-.43,4.42,4.42,0,0,1-1.64-.94,1.72,1.72,0,0,1-.43-1.22,1.59,1.59,0,0,1,.73-1.4,3.44,3.44,0,0,1,2-.5,5.62,5.62,0,0,1,2.34.5l-.48,1.13a5,5,0,0,0-1.91-.47c-.79,0-1.18.22-1.18.67a.67.67,0,0,0,.31.56,6.88,6.88,0,0,0,1.34.63,6.17,6.17,0,0,1,1.26.61,1.71,1.71,0,0,1,.78,1.52Z"/><path d="M498.33,350.74a3.39,3.39,0,0,1-2.56-1,3.6,3.6,0,0,1-.92-2.63,4,4,0,0,1,.85-2.7,3,3,0,0,1,2.36-1,2.88,2.88,0,0,1,2.2.85,3.24,3.24,0,0,1,.8,2.32v.81h-4.68a2.3,2.3,0,0,0,.56,1.57,1.92,1.92,0,0,0,1.46.55,5.3,5.3,0,0,0,1.16-.12,6.25,6.25,0,0,0,1.15-.39v1.21a4.6,4.6,0,0,1-1.1.37A6.94,6.94,0,0,1,498.33,350.74Zm-.27-6.15a1.51,1.51,0,0,0-1.14.45,2.1,2.1,0,0,0-.51,1.32h3.18a1.91,1.91,0,0,0-.41-1.32A1.44,1.44,0,0,0,498.06,344.59Z"/><path d="M506.12,343.46a3,3,0,0,1,.74.07l-.14,1.39a2.84,2.84,0,0,0-.66-.08,1.94,1.94,0,0,0-1.45.58,2.13,2.13,0,0,0-.56,1.52v3.67h-1.49v-7h1.17l.2,1.24H504a2.84,2.84,0,0,1,.91-1A2.23,2.23,0,0,1,506.12,343.46Z"/><path d="M509.57,350.61l-2.66-7h1.57l1.43,4.08a8.45,8.45,0,0,1,.44,1.66h0a11.8,11.8,0,0,1,.45-1.66l1.43-4.08h1.58l-2.68,7Z"/><path d="M514.64,341.73a.87.87,0,0,1,.22-.62.89.89,0,0,1,.63-.21.84.84,0,0,1,.61.21.83.83,0,0,1,.22.62.76.76,0,0,1-.83.82.76.76,0,0,1-.85-.82Zm1.59,8.88h-1.5v-7h1.5Z"/><path d="M521,350.74a3.08,3.08,0,0,1-2.42-.93,4.7,4.7,0,0,1,0-5.39,3.2,3.2,0,0,1,2.5-1,4.59,4.59,0,0,1,2,.42l-.45,1.2a4.42,4.42,0,0,0-1.56-.37c-1.21,0-1.82.8-1.82,2.42a2.92,2.92,0,0,0,.45,1.77,1.57,1.57,0,0,0,1.33.59A3.81,3.81,0,0,0,523,349v1.3a3,3,0,0,1-.85.34A5.77,5.77,0,0,1,521,350.74Z"/><path d="M527.47,350.74a3.39,3.39,0,0,1-2.56-1,3.6,3.6,0,0,1-.92-2.63,4,4,0,0,1,.85-2.7,3,3,0,0,1,2.36-1,2.84,2.84,0,0,1,2.19.85,3.2,3.2,0,0,1,.81,2.32v.81h-4.68a2.3,2.3,0,0,0,.56,1.57,1.92,1.92,0,0,0,1.46.55,5.3,5.3,0,0,0,1.16-.12,6.25,6.25,0,0,0,1.15-.39v1.21a4.6,4.6,0,0,1-1.1.37A6.94,6.94,0,0,1,527.47,350.74Zm-.27-6.15a1.48,1.48,0,0,0-1.14.45,2.1,2.1,0,0,0-.51,1.32h3.18a1.91,1.91,0,0,0-.41-1.32A1.44,1.44,0,0,0,527.2,344.59Z"/><path d="M536.42,348.61a1.84,1.84,0,0,1-.75,1.58,3.65,3.65,0,0,1-2.15.55,5,5,0,0,1-2.25-.43V349a5.51,5.51,0,0,0,2.3.57c.92,0,1.38-.27,1.38-.83a.67.67,0,0,0-.15-.44,1.84,1.84,0,0,0-.5-.37,8.93,8.93,0,0,0-1-.43,4.57,4.57,0,0,1-1.65-.94,1.76,1.76,0,0,1-.42-1.22A1.6,1.6,0,0,1,532,344a3.5,3.5,0,0,1,2-.5,5.62,5.62,0,0,1,2.34.5l-.48,1.13a5.07,5.07,0,0,0-1.91-.47c-.79,0-1.18.22-1.18.67a.67.67,0,0,0,.31.56,6.88,6.88,0,0,0,1.34.63,6.17,6.17,0,0,1,1.26.61,1.9,1.9,0,0,1,.59.65A1.93,1.93,0,0,1,536.42,348.61Z"/><rect class="cls-4" x="428.17" y="111.59" width="110.17" height="53.7"/><rect class="cls-4" x="434.17" y="117.59" width="110.17" height="53.7"/><rect class="cls-4" x="440.17" y="123.59" width="110.17" height="53.7"/><path d="M458.67,154.35,456,146.6h-.05c.07,1.15.11,2.23.11,3.24v4.51h-1.38v-9.28h2.14l2.58,7.38h0l2.65-7.38h2.15v9.28h-1.46v-4.59q0-.69,0-1.8t.06-1.35h-.05L460,154.35Z"/><path d="M466.22,145.47a.83.83,0,0,1,.22-.62.85.85,0,0,1,.62-.21.84.84,0,0,1,.61.21.83.83,0,0,1,.22.62.84.84,0,1,1-1.67,0Zm1.58,8.88h-1.49v-7h1.49Z"/><path d="M472.57,154.48a3.11,3.11,0,0,1-2.43-.93,3.9,3.9,0,0,1-.82-2.67,4,4,0,0,1,.86-2.73,3.25,3.25,0,0,1,2.51-1,4.8,4.8,0,0,1,2,.41l-.45,1.2a4.59,4.59,0,0,0-1.57-.36c-1.21,0-1.82.8-1.82,2.41a2.87,2.87,0,0,0,.46,1.78,1.57,1.57,0,0,0,1.33.59,3.8,3.8,0,0,0,1.88-.49V154a2.86,2.86,0,0,1-.85.34A5.66,5.66,0,0,1,472.57,154.48Z"/><path d="M479.54,147.2a3,3,0,0,1,.74.07l-.15,1.39a2.39,2.39,0,0,0-.66-.08,1.91,1.91,0,0,0-1.45.58,2.12,2.12,0,0,0-.55,1.52v3.67H476v-7h1.17l.19,1.24h.08a2.84,2.84,0,0,1,.91-1A2.13,2.13,0,0,1,479.54,147.2Z"/><path d="M487.61,150.83a3.82,3.82,0,0,1-.88,2.68,3.18,3.18,0,0,1-2.45,1,3.32,3.32,0,0,1-1.74-.45,2.88,2.88,0,0,1-1.17-1.27,4.38,4.38,0,0,1-.4-1.93,3.83,3.83,0,0,1,.87-2.67,3.19,3.19,0,0,1,2.47-1,3.09,3.09,0,0,1,2.41,1A3.78,3.78,0,0,1,487.61,150.83Zm-5.11,0q0,2.43,1.8,2.43c1.19,0,1.78-.81,1.78-2.43s-.6-2.41-1.79-2.41a1.53,1.53,0,0,0-1.36.62A3.12,3.12,0,0,0,482.5,150.83Z"/><path d="M493.85,152.35a1.84,1.84,0,0,1-.75,1.58,3.61,3.61,0,0,1-2.14.55,5,5,0,0,1-2.26-.43v-1.29a5.59,5.59,0,0,0,2.31.57c.91,0,1.37-.27,1.37-.83a.65.65,0,0,0-.15-.44,1.84,1.84,0,0,0-.5-.37,8.12,8.12,0,0,0-1-.43,4.42,4.42,0,0,1-1.64-.94,1.72,1.72,0,0,1-.43-1.22,1.59,1.59,0,0,1,.73-1.4,3.44,3.44,0,0,1,2-.5,5.62,5.62,0,0,1,2.34.5l-.48,1.13a5,5,0,0,0-1.91-.47c-.79,0-1.18.22-1.18.67a.67.67,0,0,0,.31.56,6.88,6.88,0,0,0,1.34.63,6.17,6.17,0,0,1,1.26.61,1.71,1.71,0,0,1,.78,1.52Z"/><path d="M498.33,154.48a3.39,3.39,0,0,1-2.56-1,3.6,3.6,0,0,1-.92-2.63,4,4,0,0,1,.85-2.7,3,3,0,0,1,2.36-1,2.88,2.88,0,0,1,2.2.85,3.24,3.24,0,0,1,.8,2.32v.81h-4.68a2.3,2.3,0,0,0,.56,1.57,1.92,1.92,0,0,0,1.46.55,5.3,5.3,0,0,0,1.16-.12,6.25,6.25,0,0,0,1.15-.39V154a4.6,4.6,0,0,1-1.1.37A6.94,6.94,0,0,1,498.33,154.48Zm-.27-6.15a1.51,1.51,0,0,0-1.14.45,2.1,2.1,0,0,0-.51,1.32h3.18a1.91,1.91,0,0,0-.41-1.32A1.44,1.44,0,0,0,498.06,148.33Z"/><path d="M506.12,147.2a3,3,0,0,1,.74.07l-.14,1.39a2.39,2.39,0,0,0-.66-.08,1.9,1.9,0,0,0-1.45.58,2.13,2.13,0,0,0-.56,1.52v3.67h-1.49v-7h1.17l.2,1.24H504a2.84,2.84,0,0,1,.91-1A2.15,2.15,0,0,1,506.12,147.2Z"/><path d="M509.57,154.35l-2.66-7h1.57l1.43,4.08a8.45,8.45,0,0,1,.44,1.66h0a11.8,11.8,0,0,1,.45-1.66l1.43-4.08h1.58l-2.68,7Z"/><path d="M514.64,145.47a.87.87,0,0,1,.22-.62.89.89,0,0,1,.63-.21.84.84,0,0,1,.61.21.83.83,0,0,1,.22.62.76.76,0,0,1-.83.82.76.76,0,0,1-.85-.82Zm1.59,8.88h-1.5v-7h1.5Z"/><path d="M521,154.48a3.08,3.08,0,0,1-2.42-.93,4.71,4.71,0,0,1,0-5.4,3.23,3.23,0,0,1,2.5-1,4.73,4.73,0,0,1,2,.41l-.45,1.2a4.6,4.6,0,0,0-1.56-.36c-1.21,0-1.82.8-1.82,2.41a2.94,2.94,0,0,0,.45,1.78,1.6,1.6,0,0,0,1.33.59,3.81,3.81,0,0,0,1.89-.49V154a3,3,0,0,1-.85.34A5.77,5.77,0,0,1,521,154.48Z"/><path d="M527.47,154.48a3.39,3.39,0,0,1-2.56-1,3.6,3.6,0,0,1-.92-2.63,4,4,0,0,1,.85-2.7,3,3,0,0,1,2.36-1,2.84,2.84,0,0,1,2.19.85,3.2,3.2,0,0,1,.81,2.32v.81h-4.68a2.3,2.3,0,0,0,.56,1.57,1.92,1.92,0,0,0,1.46.55,5.3,5.3,0,0,0,1.16-.12,6.25,6.25,0,0,0,1.15-.39V154a4.6,4.6,0,0,1-1.1.37A6.94,6.94,0,0,1,527.47,154.48Zm-.27-6.15a1.48,1.48,0,0,0-1.14.45,2.1,2.1,0,0,0-.51,1.32h3.18a1.91,1.91,0,0,0-.41-1.32A1.44,1.44,0,0,0,527.2,148.33Z"/><path d="M536.42,152.35a1.84,1.84,0,0,1-.75,1.58,3.65,3.65,0,0,1-2.15.55,5,5,0,0,1-2.25-.43v-1.29a5.51,5.51,0,0,0,2.3.57c.92,0,1.38-.27,1.38-.83a.65.65,0,0,0-.15-.44,1.84,1.84,0,0,0-.5-.37,8.93,8.93,0,0,0-1-.43,4.57,4.57,0,0,1-1.65-.94,1.76,1.76,0,0,1-.42-1.22,1.6,1.6,0,0,1,.72-1.4,3.5,3.5,0,0,1,2-.5,5.62,5.62,0,0,1,2.34.5l-.48,1.13a5.07,5.07,0,0,0-1.91-.47c-.79,0-1.18.22-1.18.67a.67.67,0,0,0,.31.56,6.88,6.88,0,0,0,1.34.63,6.17,6.17,0,0,1,1.26.61,1.9,1.9,0,0,1,.59.65A1.93,1.93,0,0,1,536.42,152.35Z"/><rect class="cls-4" x="574.67" y="41.69" width="120.13" height="53.7"/><path d="M631.83,61.64a2.19,2.19,0,0,1-.83,1.8,3.62,3.62,0,0,1-2.28.65,5.46,5.46,0,0,1-2.38-.45V62.31a6.35,6.35,0,0,0,1.25.43,5.07,5.07,0,0,0,1.23.16,1.94,1.94,0,0,0,1.22-.31,1,1,0,0,0,.4-.85,1.09,1.09,0,0,0-.36-.82,6,6,0,0,0-1.5-.79,4,4,0,0,1-1.66-1.08,2.32,2.32,0,0,1-.48-1.47,2,2,0,0,1,.77-1.68,3.12,3.12,0,0,1,2-.62,6,6,0,0,1,2.45.54L631.25,57a5.34,5.34,0,0,0-2-.48,1.56,1.56,0,0,0-1,.3,1,1,0,0,0-.35.78,1.15,1.15,0,0,0,.14.57,1.46,1.46,0,0,0,.47.45,8.53,8.53,0,0,0,1.16.56,6.25,6.25,0,0,1,1.38.73,2,2,0,0,1,.64.77A2.23,2.23,0,0,1,631.83,61.64Z"/><path d="M636,64.09a3.11,3.11,0,0,1-2.36-.89,3.31,3.31,0,0,1-.86-2.42,3.73,3.73,0,0,1,.79-2.5,2.74,2.74,0,0,1,2.18-.91,2.69,2.69,0,0,1,2,.78,3,3,0,0,1,.74,2.15V61h-4.32a2.13,2.13,0,0,0,.51,1.45,1.76,1.76,0,0,0,1.35.51,5.1,5.1,0,0,0,1.07-.11,5.39,5.39,0,0,0,1.07-.36v1.12a4.53,4.53,0,0,1-1,.34A6.93,6.93,0,0,1,636,64.09Zm-.25-5.68a1.36,1.36,0,0,0-1,.42,2,2,0,0,0-.48,1.21h2.95a1.79,1.79,0,0,0-.39-1.21A1.31,1.31,0,0,0,635.74,58.41Z"/><path d="M643.18,57.37a3.27,3.27,0,0,1,.69.06l-.14,1.28a3,3,0,0,0-.61-.07,1.78,1.78,0,0,0-1.34.54,2,2,0,0,0-.51,1.4V64h-1.38V57.49H641l.18,1.14h.07a2.6,2.6,0,0,1,.85-.92A2,2,0,0,1,643.18,57.37Z"/><path d="M646.36,64l-2.46-6.48h1.46l1.31,3.77a7.51,7.51,0,0,1,.42,1.53h0a10.68,10.68,0,0,1,.41-1.53l1.32-3.77h1.47L647.85,64Z"/><path d="M651.05,55.77a.7.7,0,0,1,.78-.77.7.7,0,0,1,.76.77.74.74,0,0,1-.2.56.77.77,0,0,1-.56.2.8.8,0,0,1-.58-.2A.78.78,0,0,1,651.05,55.77Zm1.46,8.2h-1.38V57.49h1.38Z"/><path d="M656.91,64.09a2.86,2.86,0,0,1-2.24-.86,4.37,4.37,0,0,1,0-5,2.94,2.94,0,0,1,2.31-.88,4.43,4.43,0,0,1,1.85.38l-.42,1.11a4.07,4.07,0,0,0-1.44-.34c-1.12,0-1.68.74-1.68,2.23a2.66,2.66,0,0,0,.42,1.64,1.42,1.42,0,0,0,1.22.55,3.43,3.43,0,0,0,1.74-.46v1.2a2.4,2.4,0,0,1-.78.31A4.29,4.29,0,0,1,656.91,64.09Z"/><path d="M662.89,64.09a3.14,3.14,0,0,1-2.37-.89,3.31,3.31,0,0,1-.85-2.42,3.68,3.68,0,0,1,.79-2.5,2.72,2.72,0,0,1,2.17-.91,2.66,2.66,0,0,1,2,.78,3,3,0,0,1,.75,2.15V61h-4.32a2.13,2.13,0,0,0,.51,1.45A1.76,1.76,0,0,0,663,63a5.17,5.17,0,0,0,1.07-.11,5.11,5.11,0,0,0,1.06-.36v1.12a4.22,4.22,0,0,1-1,.34A6.72,6.72,0,0,1,662.89,64.09Zm-.26-5.68a1.39,1.39,0,0,0-1,.42,2,2,0,0,0-.47,1.21h2.94a1.74,1.74,0,0,0-.38-1.21A1.33,1.33,0,0,0,662.63,58.41Z"/><path d="M630,71.77a3.1,3.1,0,0,1,.68.06l-.13,1.28A3.08,3.08,0,0,0,630,73a1.76,1.76,0,0,0-1.34.54,2,2,0,0,0-.51,1.4v3.39h-1.38V71.89h1.08L628,73h.07a2.67,2.67,0,0,1,.84-.92A2,2,0,0,1,630,71.77Z"/><path d="M634.57,78.49a3.14,3.14,0,0,1-2.37-.89,3.31,3.31,0,0,1-.85-2.42,3.68,3.68,0,0,1,.79-2.5,2.72,2.72,0,0,1,2.17-.91,2.66,2.66,0,0,1,2,.78,3,3,0,0,1,.75,2.15v.74h-4.32a2.13,2.13,0,0,0,.51,1.45,1.76,1.76,0,0,0,1.35.51,5.17,5.17,0,0,0,1.07-.11,5.31,5.31,0,0,0,1.06-.36v1.12a4.22,4.22,0,0,1-1,.34A6.72,6.72,0,0,1,634.57,78.49Zm-.26-5.68a1.39,1.39,0,0,0-1,.42,2,2,0,0,0-.47,1.21h2.94a1.79,1.79,0,0,0-.38-1.21A1.33,1.33,0,0,0,634.31,72.81Z"/><path d="M643.94,71.89v.75l-1.1.21a2,2,0,0,1,.25.5,2.2,2.2,0,0,1,.1.64,1.94,1.94,0,0,1-.69,1.57,2.87,2.87,0,0,1-1.91.58,3.15,3.15,0,0,1-.56,0,.77.77,0,0,0-.45.64.37.37,0,0,0,.21.34,1.91,1.91,0,0,0,.77.11h1.13a2.49,2.49,0,0,1,1.63.46,1.6,1.6,0,0,1,.55,1.32,1.89,1.89,0,0,1-.91,1.69,4.75,4.75,0,0,1-2.62.6,3.55,3.55,0,0,1-2-.47,1.49,1.49,0,0,1-.7-1.33,1.44,1.44,0,0,1,.38-1,2,2,0,0,1,1.06-.56,1.06,1.06,0,0,1-.46-.38,1,1,0,0,1-.18-.55.9.9,0,0,1,.21-.61,2.3,2.3,0,0,1,.61-.5,1.81,1.81,0,0,1-.82-.71,2.32,2.32,0,0,1,.35-2.78,2.86,2.86,0,0,1,1.9-.58,4,4,0,0,1,.58,0,3.88,3.88,0,0,1,.45.08Zm-5.09,7.49a.77.77,0,0,0,.4.68,2.23,2.23,0,0,0,1.13.24,3.38,3.38,0,0,0,1.68-.32,1,1,0,0,0,.55-.85.65.65,0,0,0-.3-.61,2.64,2.64,0,0,0-1.13-.17h-1a1.5,1.5,0,0,0-.94.27A.94.94,0,0,0,638.85,79.38Zm.59-5.39a1.28,1.28,0,0,0,.32.93,1.19,1.19,0,0,0,.9.33c.79,0,1.19-.42,1.19-1.28a1.48,1.48,0,0,0-.29-1,1.13,1.13,0,0,0-.9-.34,1.16,1.16,0,0,0-.91.34A1.43,1.43,0,0,0,639.44,74Z"/><path d="M644.88,70.17a.81.81,0,0,1,.2-.57.82.82,0,0,1,.58-.2.7.7,0,0,1,.77.77.78.78,0,0,1-.2.56.81.81,0,0,1-.57.2.82.82,0,0,1-.58-.2A.78.78,0,0,1,644.88,70.17Zm1.46,8.2H645V71.89h1.38Z"/><path d="M652.48,76.52a1.7,1.7,0,0,1-.69,1.46,3.29,3.29,0,0,1-2,.51,4.59,4.59,0,0,1-2.08-.4V76.9a5,5,0,0,0,2.13.53c.85,0,1.27-.25,1.27-.77a.64.64,0,0,0-.14-.41,1.7,1.7,0,0,0-.46-.34,8.76,8.76,0,0,0-.9-.39,4,4,0,0,1-1.51-.87,1.59,1.59,0,0,1-.4-1.13,1.48,1.48,0,0,1,.67-1.29,3.26,3.26,0,0,1,1.83-.46,5.3,5.3,0,0,1,2.16.46l-.45,1a4.75,4.75,0,0,0-1.76-.43c-.73,0-1.09.21-1.09.62a.61.61,0,0,0,.28.51,5.64,5.64,0,0,0,1.24.58,5.77,5.77,0,0,1,1.17.57,1.57,1.57,0,0,1,.71,1.4Z"/><path d="M656.21,77.37a3.46,3.46,0,0,0,1-.15v1a2.72,2.72,0,0,1-.58.17,4.65,4.65,0,0,1-.75.07c-1.31,0-2-.69-2-2.07V72.93H653v-.61l1-.5.46-1.37h.85v1.44h1.85v1H655.3V76.4a1,1,0,0,0,.25.74A1,1,0,0,0,656.21,77.37Z"/><path d="M661.62,71.77a3.23,3.23,0,0,1,.68.06l-.13,1.28a3.08,3.08,0,0,0-.61-.07,1.76,1.76,0,0,0-1.34.54,2,2,0,0,0-.51,1.4v3.39h-1.38V71.89h1.08l.18,1.14h.07a2.49,2.49,0,0,1,.84-.92A2,2,0,0,1,661.62,71.77Z"/><path d="M662.34,71.89h1.5l1.32,3.67a6.65,6.65,0,0,1,.39,1.48h.05a5.62,5.62,0,0,1,.2-.78c.09-.31.58-1.77,1.48-4.37h1.49L666,79.23a2.62,2.62,0,0,1-2.52,2,3.8,3.8,0,0,1-.89-.1V80.06a3,3,0,0,0,.71.07A1.45,1.45,0,0,0,664.7,79l.24-.61Z"/><rect class="cls-4" x="574.67" y="310.82" width="120.13" height="53.7"/><path d="M628,328.74A4.25,4.25,0,0,1,626.8,332a4.7,4.7,0,0,1-3.39,1.12H621v-8.56h2.65a4.33,4.33,0,0,1,3.18,1.1A4.09,4.09,0,0,1,628,328.74Zm-1.48,0c0-2-1-3.07-2.87-3.07h-1.22v6.21h1C625.47,331.92,626.5,330.88,626.5,328.78Z"/><path d="M629.41,324.9a.77.77,0,0,1,.2-.56.77.77,0,0,1,.58-.2.7.7,0,0,1,.77.76.78.78,0,0,1-.2.56.81.81,0,0,1-.57.2.82.82,0,0,1-.58-.2A.78.78,0,0,1,629.41,324.9Zm1.46,8.2h-1.38v-6.48h1.38Z"/><path d="M637,331.26a1.69,1.69,0,0,1-.69,1.45,3.29,3.29,0,0,1-2,.51,4.73,4.73,0,0,1-2.08-.39v-1.19a5.11,5.11,0,0,0,2.13.52c.85,0,1.27-.25,1.27-.76a.62.62,0,0,0-.14-.41,1.52,1.52,0,0,0-.46-.34,8.49,8.49,0,0,0-.9-.4,4,4,0,0,1-1.51-.87,1.57,1.57,0,0,1-.4-1.12,1.48,1.48,0,0,1,.67-1.3,3.26,3.26,0,0,1,1.83-.46,5.15,5.15,0,0,1,2.16.47l-.45,1a5,5,0,0,0-1.76-.43c-.73,0-1.09.21-1.09.62a.63.63,0,0,0,.28.52,6.79,6.79,0,0,0,1.24.58,4.87,4.87,0,0,1,1.17.57,1.76,1.76,0,0,1,.54.59A1.7,1.7,0,0,1,637,331.26Z"/><path d="M640.74,332.11a3.48,3.48,0,0,0,1-.16v1a2.33,2.33,0,0,1-.59.17,3.57,3.57,0,0,1-.74.07c-1.31,0-2-.69-2-2.06v-3.5h-.88v-.61l.94-.5.47-1.37h.85v1.44h1.85v1h-1.85v3.47a1,1,0,0,0,.25.74A.92.92,0,0,0,640.74,332.11Z"/><path d="M646.15,326.5a3.23,3.23,0,0,1,.68.06l-.13,1.29a2.48,2.48,0,0,0-.61-.07,1.79,1.79,0,0,0-1.34.53,2,2,0,0,0-.51,1.41v3.38h-1.38v-6.48h1.08l.18,1.14h.07a2.57,2.57,0,0,1,.84-.92A2.07,2.07,0,0,1,646.15,326.5Z"/><path d="M647.77,324.9a.77.77,0,0,1,.2-.56.77.77,0,0,1,.58-.2.7.7,0,0,1,.77.76.78.78,0,0,1-.2.56.81.81,0,0,1-.57.2.82.82,0,0,1-.58-.2A.78.78,0,0,1,647.77,324.9Zm1.46,8.2h-1.38v-6.48h1.38Z"/><path d="M654.33,326.5a2.26,2.26,0,0,1,1.89.88,4.81,4.81,0,0,1,0,4.95,2.49,2.49,0,0,1-3.82,0h-.09l-.25.77h-1V324h1.37v2.17c0,.16,0,.4,0,.72s0,.51,0,.6h0A2.22,2.22,0,0,1,654.33,326.5Zm-.36,1.13a1.41,1.41,0,0,0-1.2.49,2.88,2.88,0,0,0-.38,1.64v.09a3,3,0,0,0,.38,1.71,1.38,1.38,0,0,0,1.22.53,1.23,1.23,0,0,0,1.11-.58,3,3,0,0,0,.38-1.67C655.48,328.37,655,327.63,654,327.63Z"/><path d="M662.89,333.1l-.2-.85h-.07a1.91,1.91,0,0,1-.82.71,2.73,2.73,0,0,1-1.21.26,2.36,2.36,0,0,1-1.75-.59,2.4,2.4,0,0,1-.58-1.77v-4.24h1.39v4a1.73,1.73,0,0,0,.3,1.11,1.16,1.16,0,0,0,1,.38,1.54,1.54,0,0,0,1.27-.52,2.89,2.89,0,0,0,.41-1.74v-3.23H664v6.48Z"/><path d="M668.17,332.11a3.48,3.48,0,0,0,1-.16v1a2.24,2.24,0,0,1-.58.17,3.74,3.74,0,0,1-.75.07c-1.31,0-2-.69-2-2.06v-3.5H665v-.61l1-.5.46-1.37h.85v1.44h1.85v1h-1.85v3.47a1,1,0,0,0,.25.74A.92.92,0,0,0,668.17,332.11Z"/><path d="M673.12,333.22a3.1,3.1,0,0,1-2.36-.88,3.35,3.35,0,0,1-.86-2.43,3.73,3.73,0,0,1,.79-2.5,2.77,2.77,0,0,1,2.18-.91,2.65,2.65,0,0,1,2,.78,3,3,0,0,1,.75,2.15v.74h-4.32a2.13,2.13,0,0,0,.51,1.45,1.76,1.76,0,0,0,1.35.51,5.1,5.1,0,0,0,1.07-.11,5.39,5.39,0,0,0,1.07-.36v1.12a4.53,4.53,0,0,1-1,.34A6,6,0,0,1,673.12,333.22Zm-.25-5.67a1.39,1.39,0,0,0-1,.41,2,2,0,0,0-.48,1.22h2.95a1.82,1.82,0,0,0-.39-1.22A1.31,1.31,0,0,0,672.87,327.55Z"/><path d="M679.21,333.22a2.24,2.24,0,0,1-1.89-.88,4.81,4.81,0,0,1,0-4.95,2.47,2.47,0,0,1,3.85.06h.07a7.74,7.74,0,0,1-.1-1.1V324h1.38v9.12h-1.08l-.24-.85h-.06A2.19,2.19,0,0,1,679.21,333.22Zm.37-1.11a1.48,1.48,0,0,0,1.23-.48,2.46,2.46,0,0,0,.4-1.55v-.2a2.9,2.9,0,0,0-.4-1.74,1.47,1.47,0,0,0-1.24-.51,1.27,1.27,0,0,0-1.12.59,3,3,0,0,0-.4,1.68,2.88,2.88,0,0,0,.39,1.64A1.27,1.27,0,0,0,679.58,332.11Z"/><path d="M623.28,346.51a3.55,3.55,0,0,0,1-.16v1a2.33,2.33,0,0,1-.59.17,3.67,3.67,0,0,1-.75.07c-1.3,0-2-.69-2-2.06v-3.5h-.89v-.61l.95-.5.47-1.37h.85V341h1.84v1h-1.84v3.47a1,1,0,0,0,.25.74A.88.88,0,0,0,623.28,346.51Z"/><path d="M628.69,340.9a3.27,3.27,0,0,1,.69.06l-.14,1.29a2.43,2.43,0,0,0-.61-.07,1.77,1.77,0,0,0-1.34.53,2,2,0,0,0-.51,1.4v3.39H625.4V341h1.08l.18,1.14h.07a2.69,2.69,0,0,1,.85-.92A2,2,0,0,1,628.69,340.9Z"/><path d="M634.45,347.5l-.27-.9h0a2.68,2.68,0,0,1-.94.8,2.89,2.89,0,0,1-1.22.22,2,2,0,0,1-1.49-.52,1.92,1.92,0,0,1-.54-1.46,1.72,1.72,0,0,1,.75-1.51,4.25,4.25,0,0,1,2.26-.55l1.12,0v-.35a1.26,1.26,0,0,0-.29-.92,1.16,1.16,0,0,0-.9-.31,3.31,3.31,0,0,0-1,.14,7.68,7.68,0,0,0-.88.35l-.45-1a4.45,4.45,0,0,1,1.16-.42,5.09,5.09,0,0,1,1.18-.15,2.8,2.8,0,0,1,1.87.54,2.13,2.13,0,0,1,.63,1.7v4.36Zm-2.05-.94a1.73,1.73,0,0,0,1.21-.42,1.51,1.51,0,0,0,.45-1.17v-.56l-.83,0a2.87,2.87,0,0,0-1.42.33,1,1,0,0,0-.44.89.89.89,0,0,0,.26.67A1.14,1.14,0,0,0,632.4,346.56Z"/><path d="M639.79,347.62a2.83,2.83,0,0,1-2.23-.86,3.57,3.57,0,0,1-.77-2.46,3.65,3.65,0,0,1,.8-2.52,3,3,0,0,1,2.31-.88,4.4,4.4,0,0,1,1.85.38l-.42,1.11a4.31,4.31,0,0,0-1.44-.34c-1.12,0-1.68.75-1.68,2.23a2.66,2.66,0,0,0,.42,1.64,1.44,1.44,0,0,0,1.23.55,3.49,3.49,0,0,0,1.74-.46v1.2a2.55,2.55,0,0,1-.79.31A4.29,4.29,0,0,1,639.79,347.62Z"/><path d="M642.86,339.3a.77.77,0,0,1,.2-.56.77.77,0,0,1,.58-.2.71.71,0,0,1,.77.76.75.75,0,0,1-.21.56.77.77,0,0,1-.56.2.82.82,0,0,1-.58-.2A.78.78,0,0,1,642.86,339.3Zm1.46,8.2h-1.38V341h1.38Z"/><path d="M651.81,347.5h-1.39v-4a1.74,1.74,0,0,0-.3-1.12,1.15,1.15,0,0,0-1-.37,1.53,1.53,0,0,0-1.28.51,2.85,2.85,0,0,0-.41,1.73v3.23h-1.37V341h1.07l.2.85h.07a1.81,1.81,0,0,1,.83-.71,2.78,2.78,0,0,1,1.2-.26,2.08,2.08,0,0,1,2.33,2.38Z"/><path d="M659,341v.76l-1.11.2a2,2,0,0,1,.25.51,1.85,1.85,0,0,1,.1.63,1.92,1.92,0,0,1-.69,1.57,2.86,2.86,0,0,1-1.9.58,3.27,3.27,0,0,1-.57,0,.79.79,0,0,0-.44.65.36.36,0,0,0,.2.33,1.91,1.91,0,0,0,.77.11h1.13a2.48,2.48,0,0,1,1.63.46,1.6,1.6,0,0,1,.56,1.32,1.94,1.94,0,0,1-.91,1.7,4.88,4.88,0,0,1-2.63.59,3.66,3.66,0,0,1-2-.46,1.54,1.54,0,0,1-.7-1.34,1.46,1.46,0,0,1,.38-1,2,2,0,0,1,1.06-.56,1.12,1.12,0,0,1-.46-.38,1,1,0,0,1-.17-.55.92.92,0,0,1,.2-.61,2.3,2.3,0,0,1,.61-.5,1.76,1.76,0,0,1-.82-.71,2,2,0,0,1-.31-1.14,2.08,2.08,0,0,1,.66-1.64,2.86,2.86,0,0,1,1.9-.58c.18,0,.38,0,.58,0a3.88,3.88,0,0,1,.45.08Zm-5.1,7.49a.75.75,0,0,0,.41.68,2.17,2.17,0,0,0,1.12.24,3.38,3.38,0,0,0,1.68-.32,1,1,0,0,0,.55-.85.64.64,0,0,0-.3-.6,2.41,2.41,0,0,0-1.12-.18h-1a1.46,1.46,0,0,0-.94.28A.9.9,0,0,0,653.92,348.51Zm.6-5.39a1.32,1.32,0,0,0,.31.94,1.22,1.22,0,0,0,.9.32c.8,0,1.19-.42,1.19-1.27a1.43,1.43,0,0,0-.29-1,1.13,1.13,0,0,0-.9-.34,1.16,1.16,0,0,0-.91.34A1.43,1.43,0,0,0,654.52,343.12Z"/><path class="cls-5" d="M317.51,66.21a37.83,37.83,0,0,0-1.59-6.12,9.35,9.35,0,0,1-1,1.84,9.77,9.77,0,0,0-15.39,1.8,6.42,6.42,0,0,1,4,1.68,6.72,6.72,0,0,0-3.77-1.12,6.92,6.92,0,0,0,0,13.83h15.94a6.1,6.1,0,0,0,1.86-11.91ZM302.62,76a.84.84,0,1,1-.12-1.17A.84.84,0,0,1,302.62,76Zm13.26-2.92c-2.41,3.21-7.56,2.13-10.86,2.28a11.59,11.59,0,0,0-1.18.13l.51-.19a36.42,36.42,0,0,0,4.82-1.69c2.65-1.35,5.29-4.31,5.82-7.38-1,3-4.07,5.49-6.86,6.53a47.71,47.71,0,0,1-5.37,1.39l-.14-.08c-2.34-1.14-2.41-6.23,1.85-7.87,1.87-.72,3.66-.32,5.68-.8a8.87,8.87,0,0,0,5.67-4.25C317,64.51,318.33,69.79,315.88,73.06Z"/><path class="cls-5" d="M614.14,65.09A37.8,37.8,0,0,0,612.56,59a9.15,9.15,0,0,1-1,1.85,9.77,9.77,0,0,0-15.39,1.79,6.5,6.5,0,0,1,4,1.68,6.7,6.7,0,0,0-3.77-1.11,6.91,6.91,0,1,0,0,13.82h15.94a6.09,6.09,0,0,0,1.85-11.9Zm-14.88,9.77a.84.84,0,0,1-1.18.12.84.84,0,0,1,1-1.3A.84.84,0,0,1,599.26,74.86Zm13.25-2.93c-2.41,3.22-7.56,2.13-10.86,2.29a11.55,11.55,0,0,0-1.17.13s.22-.1.51-.2a38.75,38.75,0,0,0,4.82-1.68c2.65-1.36,5.28-4.31,5.82-7.38-1,3-4.08,5.49-6.87,6.52A45.52,45.52,0,0,1,599.4,73l-.14-.07c-2.35-1.14-2.42-6.23,1.85-7.87,1.87-.72,3.66-.33,5.68-.81A8.85,8.85,0,0,0,612.46,60C613.6,63.39,615,68.67,612.51,71.93Z"/><path class="cls-5" d="M609.48,334.25a36.9,36.9,0,0,0-1.59-6.13,8.51,8.51,0,0,1-1,1.85,9.76,9.76,0,0,0-15.38,1.79,6.5,6.5,0,0,1,4,1.68,6.73,6.73,0,0,0-3.77-1.11,6.91,6.91,0,0,0,0,13.82h15.93a6.09,6.09,0,0,0,1.86-11.9ZM594.59,344a.84.84,0,0,1-1.3-1,.84.84,0,1,1,1.3,1Zm13.26-2.93c-2.41,3.21-7.56,2.13-10.86,2.28,0,0-.58,0-1.17.14,0,0,.22-.1.5-.2a38.41,38.41,0,0,0,4.83-1.68c2.64-1.36,5.28-4.31,5.81-7.38-1,2.95-4.07,5.49-6.86,6.52a47.75,47.75,0,0,1-5.36,1.39l-.14-.07c-2.35-1.15-2.42-6.23,1.85-7.87,1.87-.72,3.66-.33,5.68-.81a8.88,8.88,0,0,0,5.67-4.24C608.94,332.54,610.3,337.82,607.85,341.09Z"/><rect class="cls-4" x="282.46" y="307.77" width="121.02" height="53.7"/><path d="M336.49,322.56a2.31,2.31,0,0,0-1.9.86,3.65,3.65,0,0,0-.69,2.36,3.69,3.69,0,0,0,.66,2.38,2.37,2.37,0,0,0,1.93.81,4.57,4.57,0,0,0,1.05-.11c.34-.07.7-.16,1.06-.27v1.2a6.49,6.49,0,0,1-2.28.38,3.64,3.64,0,0,1-2.89-1.14,4.78,4.78,0,0,1-1-3.26,5.37,5.37,0,0,1,.49-2.34,3.53,3.53,0,0,1,1.42-1.54,4.31,4.31,0,0,1,2.17-.53,5.38,5.38,0,0,1,2.43.55l-.51,1.17a6.63,6.63,0,0,0-.91-.36A3.2,3.2,0,0,0,336.49,322.56Z"/><path d="M345.87,326.8a3.56,3.56,0,0,1-.81,2.48,2.94,2.94,0,0,1-2.27.89,3.16,3.16,0,0,1-1.61-.41,2.79,2.79,0,0,1-1.07-1.18,4,4,0,0,1-.37-1.78,3.55,3.55,0,0,1,.8-2.46,2.94,2.94,0,0,1,2.28-.89,2.84,2.84,0,0,1,2.23.91A3.46,3.46,0,0,1,345.87,326.8Zm-4.72,0c0,1.49.56,2.24,1.66,2.24s1.64-.75,1.64-2.24-.55-2.22-1.65-2.22a1.42,1.42,0,0,0-1.26.57A2.92,2.92,0,0,0,341.15,326.8Z"/><path d="M353,330.05h-1.38v-4a1.74,1.74,0,0,0-.3-1.12,1.15,1.15,0,0,0-1-.37,1.54,1.54,0,0,0-1.28.51,2.86,2.86,0,0,0-.4,1.73v3.23h-1.38v-6.48h1.08l.19.85h.07a2,2,0,0,1,.84-.72,2.88,2.88,0,0,1,1.19-.25,2.08,2.08,0,0,1,2.33,2.38Z"/><path d="M358,324.61h-1.58v5.44H355v-5.44h-1.07V324l1.07-.42v-.43a2.36,2.36,0,0,1,.54-1.7,2.18,2.18,0,0,1,1.64-.55,4.38,4.38,0,0,1,1.43.24l-.36,1a3.12,3.12,0,0,0-1-.16.79.79,0,0,0-.69.29,1.47,1.47,0,0,0-.21.87v.42H358Zm1-2.76a.78.78,0,1,1,1.55,0,.78.78,0,0,1-.2.56.81.81,0,0,1-.57.2.82.82,0,0,1-.58-.2A.78.78,0,0,1,359,321.85Zm1.46,8.2h-1.38v-6.48h1.38Z"/><path d="M367.71,323.57v.76l-1.11.2a1.8,1.8,0,0,1,.25.5,2.12,2.12,0,0,1-.59,2.21,2.86,2.86,0,0,1-1.9.58,3.27,3.27,0,0,1-.57-.05.78.78,0,0,0-.44.65.36.36,0,0,0,.21.33,1.82,1.82,0,0,0,.76.11h1.13a2.48,2.48,0,0,1,1.63.46,1.6,1.6,0,0,1,.56,1.32,1.94,1.94,0,0,1-.91,1.7,4.88,4.88,0,0,1-2.63.59,3.57,3.57,0,0,1-2-.47,1.51,1.51,0,0,1-.7-1.33,1.44,1.44,0,0,1,.38-1,2,2,0,0,1,1.06-.56,1.1,1.1,0,0,1-.45-.38,1,1,0,0,1,0-1.16,2.3,2.3,0,0,1,.61-.5,1.87,1.87,0,0,1-.82-.71,2.14,2.14,0,0,1-.31-1.14,2,2,0,0,1,.67-1.64,2.81,2.81,0,0,1,1.89-.58c.19,0,.38,0,.58,0a3.88,3.88,0,0,1,.45.08Zm-5.09,7.49a.75.75,0,0,0,.4.68,2.17,2.17,0,0,0,1.12.24,3.38,3.38,0,0,0,1.68-.32,1,1,0,0,0,.55-.85.62.62,0,0,0-.3-.6A2.41,2.41,0,0,0,365,330H363.9a1.52,1.52,0,0,0-.94.27A.93.93,0,0,0,362.62,331.06Zm.59-5.39a1.28,1.28,0,0,0,.31.93,1.19,1.19,0,0,0,.9.33c.8,0,1.2-.42,1.2-1.27a1.44,1.44,0,0,0-.3-1,1.13,1.13,0,0,0-.9-.34,1.16,1.16,0,0,0-.91.34A1.43,1.43,0,0,0,363.21,325.67Z"/><path d="M337.05,342.6a1.7,1.7,0,0,1-.69,1.46,3.29,3.29,0,0,1-2,.51,4.56,4.56,0,0,1-2.08-.4V343a5,5,0,0,0,2.13.53c.84,0,1.27-.25,1.27-.77a.64.64,0,0,0-.14-.41,1.78,1.78,0,0,0-.47-.34,7.6,7.6,0,0,0-.89-.39,4.2,4.2,0,0,1-1.52-.87,1.63,1.63,0,0,1-.39-1.13,1.48,1.48,0,0,1,.67-1.29,3.22,3.22,0,0,1,1.82-.46,5.31,5.31,0,0,1,2.17.46l-.45,1a4.79,4.79,0,0,0-1.76-.43c-.73,0-1.09.21-1.09.62a.61.61,0,0,0,.28.51,5.41,5.41,0,0,0,1.24.58,6.06,6.06,0,0,1,1.17.57,1.57,1.57,0,0,1,.71,1.4Z"/><path d="M341.19,344.57a3.14,3.14,0,0,1-2.37-.89,3.35,3.35,0,0,1-.85-2.42,3.73,3.73,0,0,1,.79-2.5,2.72,2.72,0,0,1,2.18-.91,2.65,2.65,0,0,1,2,.78,3,3,0,0,1,.75,2.15v.74h-4.32a2.13,2.13,0,0,0,.51,1.45,1.76,1.76,0,0,0,1.35.51,5.1,5.1,0,0,0,1.07-.11,5.39,5.39,0,0,0,1.07-.36v1.12a4.53,4.53,0,0,1-1,.34A6.93,6.93,0,0,1,341.19,344.57Zm-.25-5.68a1.4,1.4,0,0,0-1.06.42,2,2,0,0,0-.47,1.21h2.94a1.74,1.74,0,0,0-.38-1.21A1.32,1.32,0,0,0,340.94,338.89Z"/><path d="M348.38,337.85a3.27,3.27,0,0,1,.69.06l-.14,1.28a3,3,0,0,0-.61-.07,1.76,1.76,0,0,0-1.34.54,2,2,0,0,0-.51,1.4v3.39h-1.38V338h1.08l.18,1.14h.07a2.67,2.67,0,0,1,.84-.92A2.07,2.07,0,0,1,348.38,337.85Z"/><path d="M351.56,344.45,349.1,338h1.46l1.31,3.77a6.79,6.79,0,0,1,.41,1.53h.05a10.68,10.68,0,0,1,.41-1.53l1.32-3.77h1.46l-2.47,6.48Z"/><path d="M359.16,344.57a3.14,3.14,0,0,1-2.37-.89,3.35,3.35,0,0,1-.85-2.42,3.73,3.73,0,0,1,.79-2.5,2.72,2.72,0,0,1,2.18-.91,2.65,2.65,0,0,1,2,.78,3,3,0,0,1,.75,2.15v.74h-4.32a2.13,2.13,0,0,0,.51,1.45,1.76,1.76,0,0,0,1.35.51,5.1,5.1,0,0,0,1.07-.11,5.39,5.39,0,0,0,1.07-.36v1.12a4.53,4.53,0,0,1-1,.34A6.93,6.93,0,0,1,359.16,344.57Zm-.25-5.68a1.4,1.4,0,0,0-1.06.42,2,2,0,0,0-.47,1.21h2.94a1.74,1.74,0,0,0-.38-1.21A1.32,1.32,0,0,0,358.91,338.89Z"/><path d="M366.35,337.85a3.27,3.27,0,0,1,.69.06l-.14,1.28a3,3,0,0,0-.61-.07,1.76,1.76,0,0,0-1.34.54,2,2,0,0,0-.51,1.4v3.39h-1.38V338h1.08l.18,1.14h.07a2.67,2.67,0,0,1,.84-.92A2.07,2.07,0,0,1,366.35,337.85Z"/><path class="cls-5" d="M317.51,332.29a37.83,37.83,0,0,0-1.59-6.12,9.07,9.07,0,0,1-1,1.84,9.77,9.77,0,0,0-15.39,1.8,6.42,6.42,0,0,1,4,1.68,6.72,6.72,0,0,0-3.77-1.12,6.92,6.92,0,0,0,0,13.83h15.94a6.1,6.1,0,0,0,1.86-11.91Zm-14.89,9.77a.84.84,0,1,1-.12-1.17A.84.84,0,0,1,302.62,342.06Zm13.26-2.92c-2.41,3.21-7.56,2.13-10.86,2.28,0,0-.59,0-1.18.13l.51-.19a36.42,36.42,0,0,0,4.82-1.69c2.65-1.35,5.29-4.31,5.82-7.38-1,3-4.07,5.5-6.86,6.53a47.71,47.71,0,0,1-5.37,1.39l-.14-.08c-2.34-1.14-2.41-6.23,1.85-7.87,1.87-.72,3.66-.32,5.68-.8a8.83,8.83,0,0,0,5.67-4.25C317,330.59,318.33,335.87,315.88,339.14Z"/><path class="cls-5" d="M219.1,236.86a36.9,36.9,0,0,0-1.59-6.13,8.7,8.7,0,0,1-1,1.85,9.76,9.76,0,0,0-15.38,1.79,6.5,6.5,0,0,1,4,1.68,6.73,6.73,0,0,0-3.77-1.11,6.91,6.91,0,0,0,0,13.82h15.93a6.09,6.09,0,0,0,1.86-11.9Zm-14.89,9.77a.84.84,0,0,1-1.3-1,.84.84,0,1,1,1.3,1Zm13.26-2.93c-2.41,3.22-7.56,2.13-10.86,2.29a11.59,11.59,0,0,0-1.18.13l.51-.2a38.41,38.41,0,0,0,4.83-1.68c2.64-1.36,5.28-4.31,5.81-7.38-1,2.95-4.07,5.49-6.86,6.52a45.52,45.52,0,0,1-5.36,1.39l-.14-.07c-2.35-1.14-2.42-6.23,1.85-7.87,1.87-.72,3.66-.33,5.68-.81a8.9,8.9,0,0,0,5.67-4.24C218.56,235.16,219.92,240.44,217.47,243.7Z"/><rect class="cls-6" x="33.09" y="146.49" width="99.68" height="53.7"/><path d="M80.9,178.2v-9.28h1.52v9.28Z"/><path d="M90.74,174.68a3.82,3.82,0,0,1-.88,2.68,3.15,3.15,0,0,1-2.46,1,3.37,3.37,0,0,1-1.74-.45,2.92,2.92,0,0,1-1.16-1.27,4.38,4.38,0,0,1-.4-1.93A3.83,3.83,0,0,1,85,172a3.19,3.19,0,0,1,2.47-1,3.09,3.09,0,0,1,2.41,1A3.78,3.78,0,0,1,90.74,174.68Zm-5.11,0q0,2.43,1.8,2.43c1.18,0,1.78-.81,1.78-2.43s-.6-2.41-1.79-2.41a1.56,1.56,0,0,0-1.37.62A3.2,3.2,0,0,0,85.63,174.68Z"/><path d="M95.63,178.2H94.11v-8H91.38v-1.3h7v1.3H95.63Z"/><rect class="cls-6" x="33.09" y="212.34" width="99.68" height="53.7"/><path d="M75.42,244.27l-2.7-7.75h0c.08,1.15.11,2.23.11,3.24v4.51H71.4V235h2.14l2.58,7.39h0L78.81,235H81v9.28H79.5v-4.59q0-.69,0-1.8c0-.74,0-1.19.06-1.34h0l-2.78,7.73Z"/><path d="M89.27,240.75a3.84,3.84,0,0,1-.88,2.69,3.16,3.16,0,0,1-2.45,1A3.41,3.41,0,0,1,84.2,244,2.94,2.94,0,0,1,83,242.68a4.22,4.22,0,0,1-.41-1.93,3.79,3.79,0,0,1,.88-2.67,3.18,3.18,0,0,1,2.46-1,3.09,3.09,0,0,1,2.42,1A3.78,3.78,0,0,1,89.27,240.75Zm-5.1,0c0,1.62.59,2.43,1.79,2.43s1.78-.81,1.78-2.43-.6-2.41-1.79-2.41a1.51,1.51,0,0,0-1.36.63A3.16,3.16,0,0,0,84.17,240.75Z"/><path d="M94.38,237.13a2.42,2.42,0,0,1,2.05,1,4.26,4.26,0,0,1,.73,2.67,4.35,4.35,0,0,1-.74,2.69,2.48,2.48,0,0,1-2.07,1,2.45,2.45,0,0,1-2.06-1h-.11l-.27.83H90.79V234.4h1.5v2.35c0,.17,0,.43,0,.77s0,.56,0,.65h.07A2.37,2.37,0,0,1,94.38,237.13ZM94,238.34a1.51,1.51,0,0,0-1.3.54,3,3,0,0,0-.4,1.77v.1a3.31,3.31,0,0,0,.4,1.86,1.51,1.51,0,0,0,1.33.57,1.33,1.33,0,0,0,1.2-.63,3.34,3.34,0,0,0,.41-1.81C95.63,239.14,95.08,238.34,94,238.34Z"/><path d="M98.61,235.39a.8.8,0,0,1,.22-.61.81.81,0,0,1,.62-.22.83.83,0,0,1,.62.22.84.84,0,0,1,.22.61.82.82,0,0,1-.22.6.83.83,0,0,1-.62.22.81.81,0,0,1-.62-.22A.78.78,0,0,1,98.61,235.39Zm1.58,8.88H98.7v-7h1.49Z"/><path d="M103.62,244.27h-1.49V234.4h1.49Z"/><path d="M108.62,244.4a3.43,3.43,0,0,1-2.56-1,3.67,3.67,0,0,1-.92-2.64,3.94,3.94,0,0,1,.86-2.7,3.3,3.3,0,0,1,4.55-.14,3.25,3.25,0,0,1,.8,2.32v.81h-4.68a2.35,2.35,0,0,0,.56,1.57,1.89,1.89,0,0,0,1.46.55,5.3,5.3,0,0,0,1.16-.12,6.25,6.25,0,0,0,1.15-.39v1.21a4.2,4.2,0,0,1-1.1.37A6.94,6.94,0,0,1,108.62,244.4Zm-.27-6.14a1.51,1.51,0,0,0-1.14.45,2.15,2.15,0,0,0-.51,1.31h3.19a2,2,0,0,0-.42-1.32A1.47,1.47,0,0,0,108.35,238.26Z"/><path class="cls-7" d="M63.52,170.36a1.72,1.72,0,0,0-1.72,1.72,1.7,1.7,0,0,0,.86,1.48v7.11h1.72v-7.11a1.72,1.72,0,0,0-.86-3.2Z"/><path class="cls-7" d="M58.65,167.22,57.44,166a8.61,8.61,0,0,0,0,12.16l1.21-1.22A6.88,6.88,0,0,1,58.65,167.22Z"/><path class="cls-7" d="M69.59,166l-1.21,1.22a6.88,6.88,0,0,1,0,9.72l1.21,1.22a8.59,8.59,0,0,0,0-12.16Z"/><path class="cls-7" d="M59.87,168.43a5.17,5.17,0,0,0,0,7.3l1.22-1.22a3.43,3.43,0,0,1,0-4.86Z"/><path class="cls-7" d="M67.16,168.43,66,169.65a3.45,3.45,0,0,1,0,4.86l1.21,1.22a5.17,5.17,0,0,0,0-7.3Z"/><path class="cls-7" d="M62.76,234A1.72,1.72,0,0,0,61,232.24H54.17A1.72,1.72,0,0,0,52.45,234V247.7a1.72,1.72,0,0,0,1.72,1.72H61a1.72,1.72,0,0,0,1.72-1.72ZM61,246H54.17V235.67H61Z"/><circle class="cls-6" cx="57.61" cy="247.63" r="0.7"/><rect class="cls-6" x="33.09" y="275.49" width="99.68" height="53.7"/><path d="M70.22,298.22H73a5.24,5.24,0,0,1,2.77.56,2,2,0,0,1,.85,1.77,2.13,2.13,0,0,1-.42,1.35,1.86,1.86,0,0,1-1.2.68v.06a2.41,2.41,0,0,1,1.43.73,2.18,2.18,0,0,1,.46,1.47,2.39,2.39,0,0,1-.87,2,3.76,3.76,0,0,1-2.43.71H70.22Zm1.52,3.84H73.2a2.52,2.52,0,0,0,1.39-.3,1.17,1.17,0,0,0,.44-1,1,1,0,0,0-.48-.94,2.86,2.86,0,0,0-1.5-.3H71.74Zm0,1.23v2.94h1.61a2.32,2.32,0,0,0,1.44-.37,1.34,1.34,0,0,0,.48-1.15,1.21,1.21,0,0,0-.49-1.07,2.64,2.64,0,0,0-1.5-.35Z"/><path d="M82,300.36a3.73,3.73,0,0,1,.74.06l-.14,1.39a2.84,2.84,0,0,0-.66-.07,1.9,1.9,0,0,0-1.45.58,2.11,2.11,0,0,0-.56,1.52v3.67H78.45v-7h1.17l.2,1.24h.07a2.72,2.72,0,0,1,.91-1A2.15,2.15,0,0,1,82,300.36Z"/><path d="M90.09,304a3.89,3.89,0,0,1-.88,2.69,3.18,3.18,0,0,1-2.46,1,3.41,3.41,0,0,1-1.74-.44,3,3,0,0,1-1.16-1.28,4.35,4.35,0,0,1-.41-1.93,3.76,3.76,0,0,1,.88-2.66,3.16,3.16,0,0,1,2.47-1,3.07,3.07,0,0,1,2.41,1A3.78,3.78,0,0,1,90.09,304ZM85,304c0,1.62.6,2.43,1.79,2.43s1.78-.81,1.78-2.43-.6-2.4-1.79-2.4a1.5,1.5,0,0,0-1.36.62A3.16,3.16,0,0,0,85,304Z"/><path d="M97.36,307.51l-.9-3.28c-.11-.35-.31-1.15-.6-2.42H95.8c-.24,1.14-.44,1.95-.58,2.43l-.93,3.27H92.63l-2-7h1.52l.9,3.46c.2.86.34,1.59.43,2.2h0c0-.31.11-.66.2-1.06s.16-.7.22-.9l1.07-3.7h1.64l1,3.7a9,9,0,0,1,.24.95,7.14,7.14,0,0,1,.17,1h0a19.39,19.39,0,0,1,.44-2.19l.91-3.46H101l-2,7Z"/><path d="M106.75,305.51a1.82,1.82,0,0,1-.75,1.57,3.58,3.58,0,0,1-2.15.55,5.13,5.13,0,0,1-2.25-.42v-1.29a5.51,5.51,0,0,0,2.3.57c.92,0,1.38-.28,1.38-.83a.68.68,0,0,0-.15-.45,1.65,1.65,0,0,0-.5-.36,8.7,8.7,0,0,0-1-.44,4.29,4.29,0,0,1-1.64-.94,1.69,1.69,0,0,1-.43-1.21,1.59,1.59,0,0,1,.72-1.4,3.42,3.42,0,0,1,2-.5,5.47,5.47,0,0,1,2.34.5l-.48,1.12a5.27,5.27,0,0,0-1.91-.47c-.79,0-1.18.23-1.18.68a.65.65,0,0,0,.31.55,5.84,5.84,0,0,0,1.34.63A6.09,6.09,0,0,1,106,304a1.78,1.78,0,0,1,.59.64A2,2,0,0,1,106.75,305.51Z"/><path d="M111.23,307.63a3.41,3.41,0,0,1-2.56-.95,3.62,3.62,0,0,1-.92-2.63,4,4,0,0,1,.85-2.71,3,3,0,0,1,2.36-1,2.89,2.89,0,0,1,2.19.84,3.22,3.22,0,0,1,.81,2.33v.8h-4.68a2.32,2.32,0,0,0,.55,1.57,1.92,1.92,0,0,0,1.47.55,5.36,5.36,0,0,0,1.16-.12,5,5,0,0,0,1.15-.39v1.22a4.57,4.57,0,0,1-1.1.36A6.23,6.23,0,0,1,111.23,307.63Zm-.27-6.14a1.48,1.48,0,0,0-1.14.45,2.09,2.09,0,0,0-.51,1.31h3.18a1.87,1.87,0,0,0-.42-1.32A1.45,1.45,0,0,0,111,301.49Z"/><path d="M119,300.36a3.73,3.73,0,0,1,.74.06l-.14,1.39a2.84,2.84,0,0,0-.66-.07,1.9,1.9,0,0,0-1.45.58,2.11,2.11,0,0,0-.56,1.52v3.67h-1.49v-7h1.17l.19,1.24h.08a2.72,2.72,0,0,1,.91-1A2.15,2.15,0,0,1,119,300.36Z"/><path class="cls-7" d="M60.43,297h-12A1.48,1.48,0,0,0,47,298.45v9A1.48,1.48,0,0,0,48.47,309h12a1.48,1.48,0,0,0,1.48-1.48v-9A1.48,1.48,0,0,0,60.43,297Zm-12,10.51V301h12v6.5Z"/><circle class="cls-6" cx="49.87" cy="298.9" r="0.7"/></svg>