<svg xmlns="http://www.w3.org/2000/svg" xmlns:xlink="http://www.w3.org/1999/xlink" viewBox="0 0 324.65 43.43"><defs><linearGradient id="linear-gradient" x1="182.15" y1="2.01" x2="176.02" y2="44.93" gradientUnits="userSpaceOnUse"><stop offset="0" stop-color="#00b2e3"/><stop offset="0.13" stop-color="#00b2e3"/><stop offset="1" stop-color="#00b2e3" stop-opacity="0"/></linearGradient><linearGradient id="linear-gradient-2" x1="182.15" y1="2.01" x2="176.02" y2="44.93" gradientUnits="userSpaceOnUse"><stop offset="0" stop-color="#385cad" stop-opacity="0"/><stop offset="0.13" stop-color="#385cad" stop-opacity="0"/><stop offset="1" stop-color="#385cad"/></linearGradient></defs><title>cloud-foundry</title><g id="Layer_2" data-name="Layer 2"><g id="Layer_1-2" data-name="Layer 1"><path d="M22.24,22.19A12.87,12.87,0,0,1,13,25.82C3.88,25.82,0,19.57,0,13.22S4.12.33,13,.33a12.63,12.63,0,0,1,9,3.74L18.85,7A8.39,8.39,0,0,0,13,4.73c-5.9,0-8.45,4.4-8.41,8.49S6.91,21.49,13,21.49A9,9,0,0,0,19.1,19Z" fill="#3a3a3a"/><path d="M32.58.82V21H45.15v4.26H28V.82Z" fill="#3a3a3a"/><path d="M75.18,13.18c-.07,6.32-4,12.64-12.54,12.64s-12.57-6.18-12.57-12.6S54.19.33,62.64.33,75.25,6.79,75.18,13.18Zm-20.57.11c.11,4,2.27,8.3,8,8.3s7.93-4.32,8-8.34-2.24-8.73-8-8.73S54.51,9.17,54.61,13.29Z" fill="#3a3a3a"/><path d="M103.5.86v14c0,7.22-4.44,10.92-10.58,10.92-5.87,0-10.86-3.56-10.86-10.92V.86h4.57v14c0,4.4,2.52,6.73,6.32,6.73s6-2.54,6-6.73V.86Z" fill="#3a3a3a"/><path d="M133,12.83c.11,6.18-3.66,12.43-12.22,12.43h-9.6V.82h9.6C129.16.82,132.9,6.79,133,12.83Zm-17.24,8h5c5.55,0,7.75-4,7.65-8-.11-3.81-2.34-7.61-7.65-7.61h-5Z" fill="#3a3a3a"/><path d="M146.07,12.57h14.09v1.78H146.07V25.43h-1.88V.93h16.46V2.82H146.07Z" fill="#3a3a3a"/><path d="M184.6,17.58a5.41,5.41,0,0,0,2.1-4.26c0-3.19-3-5.76-6.73-5.76s-6.71,2.57-6.74,5.76a5.45,5.45,0,0,0,2.11,4.26,9.57,9.57,0,0,1,3,6.91c.09,3.24-.13,7-.27,8.9-1.73.24-2.95.82-2.95,1.5,0,.9,2.16,1.93,4.82,1.93s4.82-1,4.82-1.93c0-.68-1.22-1.26-2.95-1.5-.14-1.91-.36-5.66-.27-8.9A9.49,9.49,0,0,1,184.6,17.58Z" fill="#231f20"/><path d="M175.55,25.84s.76-2.86-2.53-6.56l-.11-.12a9.11,9.11,0,0,1,7-15h.21a9.11,9.11,0,0,1,7,15l-.11.11a8.71,8.71,0,0,0-2.53,6.57,13.28,13.28,0,0,0,9-12.47A13.42,13.42,0,0,0,180.75,0h-1.51a13.43,13.43,0,0,0-12.66,13.36A13.29,13.29,0,0,0,175.55,25.84Z" fill="#3a3a3a"/><path d="M192.78,36.43a4,4,0,0,1,.8-.24,4.94,4.94,0,0,1,.92-.11l0-.26a2,2,0,0,0-.15-.55l-.1-.29c0-.09-.09-.18-.13-.25l-.13-.24a6.94,6.94,0,0,1-.95-.21,7.82,7.82,0,0,1-.86-.3,3.67,3.67,0,0,1-1.19-.72h0a.87.87,0,0,1-.33-.74.7.7,0,0,1,.15-.33,1.12,1.12,0,0,1,.35-.27l-.29-.16-.29-.16-.37-.17c-.24-.12-.48-.23-.68-.31l-.32-.13a6,6,0,0,1-.75.05,7.3,7.3,0,0,1-.81,0,7.93,7.93,0,0,1-1.51-.25,3.44,3.44,0,0,1-.62-.21,2.44,2.44,0,0,1-.46-.25c-.25-.17-.41-.35-.41-.53l-.36-.06-1-.15a1.67,1.67,0,0,0,0,.19l-.08.37a1.47,1.47,0,0,0,1,1.73c1.81.53,3.18,1.4,3.57,2.46.8,2.15-2.55,4.26-7.65,4.26s-8.45-2.11-7.65-4.26c.38-1,1.69-1.89,3.44-2.42a1.55,1.55,0,0,0,1.06-1.81l-.11-.52-.68.09c-.3,0-.59.08-.81.12l-.37.06a.67.67,0,0,1-.35.54,2.44,2.44,0,0,1-.43.26,5.11,5.11,0,0,1-.6.22h0a6.92,6.92,0,0,1-.72.17,6.31,6.31,0,0,1-.79.1,7.49,7.49,0,0,1-1.57,0l-.09,0-.23.1-.67.32c-.24.12-.46.25-.64.35l-.2.12-.08,0a.91.91,0,0,1,.57.6.82.82,0,0,1-.25.76,3.91,3.91,0,0,1-.48.4,3.69,3.69,0,0,1-.69.36,7.29,7.29,0,0,1-1.81.56,1.07,1.07,0,0,0-.1.25l-.19.54c0,.21-.06.41-.08.57a1,1,0,0,0,0,.26,5,5,0,0,1,1.8.32,2.18,2.18,0,0,1,1.13.78,1.22,1.22,0,0,1,.1,1.15,2.74,2.74,0,0,1-1,1.32l.09.07.25.18c.23.16.51.37.83.57l1,.52a2.7,2.7,0,0,0,.35.17l.13.06a8.57,8.57,0,0,1,2.48-.6,6.38,6.38,0,0,1,1.23,0A6.68,6.68,0,0,1,175,41h0a6.22,6.22,0,0,1,1.08.34,6.12,6.12,0,0,1,.91.51,3.08,3.08,0,0,1,1.17,1.48l.71,0c.43,0,1,.05,1.58,0s1.15,0,1.58-.06l.7-.06a2.28,2.28,0,0,1,.36-.83,3.27,3.27,0,0,1,.3-.35l.35-.33a3.86,3.86,0,0,1,.86-.52,4.47,4.47,0,0,1,1-.37,9.5,9.5,0,0,1,1.17-.19,10.1,10.1,0,0,1,1.23,0,8.53,8.53,0,0,1,2.51.53L191,41a8.33,8.33,0,0,0,.89-.55c.28-.21.57-.41.75-.57l.29-.27a3.36,3.36,0,0,1-1.14-1.26,1.36,1.36,0,0,1-.13-.6.81.81,0,0,1,.13-.54A1.85,1.85,0,0,1,192.78,36.43Z" fill="#3a3a3a"/><path d="M184.6,17.58a5.41,5.41,0,0,0,2.1-4.26c0-3.19-3-5.76-6.73-5.76s-6.71,2.57-6.74,5.76a5.45,5.45,0,0,0,2.11,4.26,9.57,9.57,0,0,1,3,6.91c.09,3.24-.13,7-.27,8.9-1.73.24-2.95.82-2.95,1.5,0,.9,2.16,1.93,4.82,1.93s4.82-1,4.82-1.93c0-.68-1.22-1.26-2.95-1.5-.14-1.91-.36-5.66-.27-8.9A9.49,9.49,0,0,1,184.6,17.58Z" fill="url(#linear-gradient)"/><path d="M184.6,17.58a5.41,5.41,0,0,0,2.1-4.26c0-3.19-3-5.76-6.73-5.76s-6.71,2.57-6.74,5.76a5.45,5.45,0,0,0,2.11,4.26,9.57,9.57,0,0,1,3,6.91c.09,3.24-.13,7-.27,8.9-1.73.24-2.95.82-2.95,1.5,0,.9,2.16,1.93,4.82,1.93s4.82-1,4.82-1.93c0-.68-1.22-1.26-2.95-1.5-.14-1.91-.36-5.66-.27-8.9A9.49,9.49,0,0,1,184.6,17.58Z" fill="url(#linear-gradient-2)"/><path d="M218.41.92V16.07c0,12.75-18.67,12.79-18.67,0V.92h1.84V16.07c0,10.49,15,10.45,15,0V.92Z" fill="#3a3a3a"/><path d="M227,.92l16.4,20.17V.92h1.85V25.3h-.73L228.06,5.17V25.3h-1.88V.92Z" fill="#3a3a3a"/><path d="M273.72,12.83c.14,6.2-3.83,12.47-12.36,12.47H253.1V.92h8.26C269.61.92,273.59,6.84,273.72,12.83ZM255,2.7V23.49h6.38c7.24,0,10.59-5.43,10.48-10.66S268.39,2.7,261.36,2.7Z" fill="#3a3a3a"/><path d="M300.06,25.3h-2.47l-8.44-9.23H282.5V25.3h-1.88V.92h10.73c5.29,0,8,3.8,8,7.59,0,4-2.58,7.46-7.91,7.46Zm-17.56-11h8.64c4.25,0,6.13-2.41,6.17-5.82a5.63,5.63,0,0,0-6-5.82H282.5Z" fill="#3a3a3a"/><path d="M313.22,15.55,303.71,1v0h2.2l8.25,12.82L322.46.92h2.19V1l-9.55,14.6V25.3h-1.88Z" fill="#3a3a3a"/></g></g></svg>