<?xml version="1.0" encoding="utf-8"?>
<!-- Generator: Adobe Illustrator 24.1.0, SVG Export Plug-In . SVG Version: 6.00 Build 0)  -->
<svg version="1.1" id="Layer_1" xmlns="http://www.w3.org/2000/svg" xmlns:xlink="http://www.w3.org/1999/xlink" x="0px" y="0px"
	 viewBox="0 0 745 338.1" style="enable-background:new 0 0 745 338.1;" xml:space="preserve">
<style type="text/css">
	.st0{fill:#262A2D;}
	.st1{fill:#1B1F23;stroke:#6DB33F;stroke-width:2;stroke-miterlimit:10;}
	.st2{fill:#FFFFFF;}
	.st3{fill:none;stroke:#FFFFFF;stroke-width:2;stroke-miterlimit:10;}
</style>
<g id="Layer_2_1_">
	<g id="Layer_1-2">
		<path class="st0" d="M6.2,0h732.6c3.4,0,6.2,2.8,6.2,6.2v325.7c0,3.4-2.8,6.2-6.2,6.2H6.2c-3.4,0-6.2-2.8-6.2-6.2V6.2
			C0,2.8,2.8,0,6.2,0z"/>
		<rect x="275" y="58.9" class="st1" width="161.9" height="57.5"/>
		<rect x="309.7" y="221.7" class="st1" width="92.5" height="57.5"/>
		<rect x="38" y="58.9" class="st1" width="124.6" height="57.5"/>
		<rect x="574.4" y="58.9" class="st1" width="132.6" height="57.5"/>
		<rect x="574.4" y="136.7" class="st1" width="132.6" height="57.5"/>
		<rect x="574.4" y="221.7" class="st1" width="132.6" height="57.5"/>
		<rect x="38" y="150" class="st1" width="124.6" height="57.5"/>
		<rect x="419.2" y="221.7" class="st1" width="92.5" height="57.5"/>
		<rect x="200.9" y="221.7" class="st1" width="92.5" height="57.5"/>
		<g>
			<path class="st2" d="M326.2,81.4h3c1-0.1,2.1,0.1,3,0.6c0.6,0.4,1,1.1,0.9,1.9c0,0.5-0.1,1-0.5,1.4c-0.3,0.4-0.8,0.7-1.3,0.7v0.1
				c0.6,0.1,1.1,0.4,1.5,0.8c0.4,0.4,0.5,1,0.5,1.6c0,0.8-0.3,1.6-0.9,2.1c-0.8,0.6-1.7,0.8-2.6,0.8h-3.6L326.2,81.4z M327.9,85.6
				h1.6c0.5,0,1-0.1,1.5-0.3c0.3-0.3,0.5-0.7,0.5-1.1c0-0.4-0.2-0.8-0.5-1c-0.5-0.2-1.1-0.4-1.6-0.3h-1.4V85.6z M327.9,86.9v3.2h1.7
				c0.5,0,1.1-0.1,1.5-0.4c0.4-0.3,0.6-0.8,0.5-1.2c0-0.5-0.2-0.9-0.5-1.2c-0.5-0.3-1.1-0.4-1.6-0.4H327.9z"/>
			<path class="st2" d="M339.8,91.4l-0.3-1h-0.1c-0.3,0.4-0.7,0.7-1.1,0.9c-0.5,0.2-0.9,0.3-1.4,0.2c-0.6,0-1.3-0.2-1.7-0.6
				c-0.4-0.5-0.7-1.1-0.6-1.7c0-0.7,0.3-1.4,0.9-1.8c0.8-0.5,1.7-0.7,2.6-0.7h1.3v-0.4c0-0.4-0.1-0.8-0.3-1.1
				c-0.3-0.3-0.7-0.4-1-0.4c-0.4,0-0.8,0.1-1.1,0.2c-0.3,0.1-0.7,0.3-1,0.4l-0.5-1.2c0.4-0.2,0.9-0.4,1.3-0.5
				c0.5-0.1,0.9-0.2,1.4-0.2c0.8-0.1,1.6,0.2,2.2,0.6c0.5,0.5,0.8,1.3,0.7,2v5.1L339.8,91.4z M337.4,90.4c0.5,0,1-0.2,1.4-0.5
				c0.4-0.4,0.6-0.9,0.5-1.4v-0.7h-1c-0.6,0-1.1,0.1-1.6,0.4c-0.3,0.2-0.5,0.6-0.5,1c0,0.3,0.1,0.6,0.3,0.8
				C336.8,90.2,337.1,90.4,337.4,90.4z"/>
			<path class="st2" d="M345.8,90.3c0.4,0,0.8-0.1,1.2-0.2v1.2c-0.2,0.1-0.5,0.2-0.7,0.2c-0.3,0.1-0.6,0.1-0.9,0.1
				c-1.5,0-2.3-0.8-2.3-2.4v-4.1h-1v-0.7l1.1-0.6l0.5-1.6h1v1.7h2.1v1.2h-2.1v4c0,0.3,0.1,0.6,0.3,0.9
				C345.3,90.2,345.6,90.3,345.8,90.3z"/>
			<path class="st2" d="M351.4,91.6c-1,0.1-1.9-0.3-2.6-1c-1.2-1.7-1.2-4.1,0-5.8c0.7-0.7,1.7-1.1,2.7-1c0.7,0,1.5,0.1,2.1,0.4
				l-0.5,1.3c-0.5-0.2-1.1-0.4-1.7-0.4c-1.3,0-2,0.9-2,2.6c0,0.7,0.2,1.3,0.6,1.9c0.3,0.4,0.9,0.7,1.4,0.6c0.7,0,1.4-0.2,2-0.5v1.4
				c-0.3,0.2-0.6,0.3-0.9,0.4C352.1,91.5,351.7,91.6,351.4,91.6z"/>
			<path class="st2" d="M361.7,91.4h-1.6v-4.7c0-0.5-0.1-0.9-0.4-1.3c-0.3-0.3-0.7-0.5-1.1-0.4c-0.6,0-1.1,0.2-1.5,0.6
				c-0.4,0.6-0.5,1.3-0.5,2v3.8H355V80.8h1.6v2.7c0,0.5,0,0.9-0.1,1.4h0.1c0.2-0.4,0.5-0.7,0.9-0.8c0.4-0.2,0.9-0.3,1.4-0.3
				c1.3-0.2,2.6,0.8,2.7,2.1c0,0.2,0,0.5,0,0.7L361.7,91.4z"/>
			<path class="st2" d="M366,94.2c-0.4,0-0.8,0-1.1-0.2v-1.4c0.3,0.1,0.7,0.1,1,0.2c0.9,0,1.3-0.6,1.3-1.7v-9.7h1.6v9.6
				c0.1,0.8-0.2,1.7-0.7,2.3C367.6,94,366.8,94.3,366,94.2z"/>
			<path class="st2" d="M377.8,87.7c0.1,1-0.3,2.1-1,2.9c-0.7,0.7-1.7,1.1-2.6,1c-0.7,0-1.3-0.2-1.9-0.5c-0.5-0.3-1-0.8-1.2-1.4
				c-0.3-0.6-0.5-1.4-0.4-2.1c-0.1-1,0.3-2.1,0.9-2.9c0.7-0.7,1.7-1.1,2.7-1c1,0,1.9,0.3,2.6,1.1C377.5,85.6,377.9,86.6,377.8,87.7z
				 M372.3,87.7c0,1.7,0.6,2.6,1.9,2.6s1.9-0.9,1.9-2.6s-0.6-2.6-1.9-2.6c-0.6,0-1.1,0.2-1.5,0.7C372.4,86.3,372.3,87,372.3,87.7z"
				/>
			<path class="st2" d="M383.3,83.7c0.9,0,1.7,0.3,2.2,1c1.1,1.8,1.1,4,0,5.8c-1,1.2-2.9,1.4-4.1,0.3c-0.1-0.1-0.2-0.2-0.3-0.3H381
				l-0.3,0.9h-1.2V80.8h1.6v2.5c0,0.2,0,0.5,0,0.8c0,0.4,0,0.6,0,0.7h0.1C381.7,84.2,382.5,83.7,383.3,83.7z M382.9,85.1
				c-0.5-0.1-1.1,0.2-1.4,0.6c-0.3,0.6-0.5,1.2-0.4,1.9v0.1c-0.1,0.7,0.1,1.4,0.4,2c0.3,0.4,0.9,0.7,1.4,0.6c0.5,0,1-0.2,1.3-0.7
				c0.3-0.6,0.5-1.3,0.4-2C384.7,85.9,384.1,85.1,382.9,85.1z"/>
		</g>
		<g>
			<path class="st2" d="M60.6,74c-0.9,0-1.7,0.3-2.2,1c-1.1,1.7-1.1,3.8,0,5.5c0.5,0.7,1.4,1,2.2,1c0.4,0,0.8,0,1.2-0.1
				c0.4-0.1,0.8-0.2,1.2-0.3v1.4c-0.9,0.3-1.8,0.5-2.7,0.4c-1.3,0.1-2.5-0.4-3.4-1.3c-0.9-1.1-1.3-2.4-1.2-3.8c0-1,0.1-1.9,0.5-2.8
				c0.4-0.8,0.9-1.4,1.7-1.8c0.8-0.4,1.7-0.6,2.5-0.6c1,0,1.9,0.2,2.8,0.6l-0.6,1.4c-0.3-0.2-0.7-0.3-1.1-0.4
				C61.4,74.1,61,74,60.6,74z"/>
			<path class="st2" d="M71.6,78.9c0,1.1-0.3,2.1-1,2.9c-0.7,0.7-1.7,1.1-2.7,1c-0.7,0-1.3-0.2-1.9-0.5c-0.5-0.3-0.9-0.8-1.2-1.3
				c-0.3-0.7-0.5-1.4-0.4-2.1c0-1,0.3-2.1,1-2.9c0.7-0.7,1.6-1.1,2.6-1c1-0.1,1.9,0.3,2.6,1C71.3,76.8,71.6,77.9,71.6,78.9z
				 M66.1,78.9c0,1.8,0.6,2.6,1.9,2.6s1.9-0.9,1.9-2.6s-0.7-2.6-1.9-2.6c-0.6-0.1-1.1,0.2-1.5,0.7C66.2,77.6,66,78.3,66.1,78.9z"/>
			<path class="st2" d="M79.9,82.7h-1.6v-4.7c0-0.5-0.1-0.9-0.3-1.3c-0.3-0.3-0.7-0.5-1.1-0.4c-0.6,0-1.1,0.2-1.5,0.6
				c-0.4,0.6-0.5,1.3-0.5,2v3.8h-1.6v-7.5h1.2l0.2,1h0.1c0.2-0.4,0.6-0.7,1-0.8c0.4-0.2,0.9-0.3,1.4-0.3c1.8,0,2.7,0.9,2.7,2.8
				L79.9,82.7z"/>
			<path class="st2" d="M85.7,76.4h-1.9v6.3h-1.6v-6.3H81v-0.8l1.2-0.5v-0.5c-0.1-0.7,0.2-1.4,0.6-2c0.5-0.5,1.2-0.7,1.9-0.7
				c0.6,0,1.1,0.1,1.7,0.3L86,73.5c-0.4-0.1-0.7-0.2-1.1-0.2c-0.3,0-0.6,0.1-0.8,0.3c-0.2,0.3-0.3,0.6-0.2,1v0.5h1.8L85.7,76.4z
				 M86.9,73.2c0-0.2,0.1-0.5,0.2-0.7c0.2-0.2,0.4-0.2,0.7-0.2c0.5,0,0.9,0.3,0.9,0.7c0,0.1,0,0.1,0,0.2c0,0.2-0.1,0.5-0.2,0.7
				C88.3,74,88,74.1,87.8,74c-0.2,0-0.5-0.1-0.7-0.2C86.9,73.6,86.9,73.4,86.9,73.2z M88.6,82.7H87v-7.6h1.6L88.6,82.7z"/>
			<path class="st2" d="M97.1,75.2v0.9l-1.3,0.2c0.1,0.2,0.2,0.4,0.3,0.6c0.1,0.2,0.1,0.5,0.1,0.7c0,0.7-0.3,1.4-0.8,1.8
				c-0.6,0.5-1.4,0.7-2.2,0.7c-0.2,0-0.4,0-0.7,0c-0.3,0.1-0.5,0.4-0.5,0.8c0,0.2,0.1,0.3,0.2,0.4c0.3,0.1,0.6,0.1,0.9,0.1h1.3
				c0.7,0,1.3,0.1,1.9,0.5c0.4,0.4,0.7,0.9,0.7,1.5c0,0.8-0.4,1.6-1.1,2c-0.9,0.5-2,0.8-3.1,0.7c-0.8,0.1-1.6-0.1-2.4-0.6
				c-0.5-0.3-0.9-0.9-0.8-1.6c0-0.4,0.1-0.9,0.4-1.2c0.3-0.3,0.8-0.6,1.2-0.7c-0.2-0.1-0.4-0.2-0.5-0.4c-0.3-0.4-0.3-1,0-1.4
				c0.2-0.2,0.4-0.4,0.7-0.6c-0.4-0.2-0.8-0.5-1-0.8c-0.2-0.4-0.4-0.9-0.4-1.3c0-0.7,0.3-1.4,0.8-1.9c0.6-0.5,1.4-0.8,2.2-0.7
				c0.2,0,0.4,0,0.7,0l0.5,0.1L97.1,75.2z M91.1,83.9c0,0.3,0.2,0.6,0.5,0.8c0.4,0.2,0.9,0.3,1.3,0.3c0.7,0.1,1.4-0.1,2-0.4
				c0.4-0.2,0.6-0.6,0.6-1c0-0.3-0.1-0.6-0.3-0.7c-0.4-0.2-0.9-0.2-1.3-0.2h-1.3c-0.4,0-0.8,0.1-1.1,0.3
				C91.3,83.3,91.1,83.6,91.1,83.9z M91.8,77.6c0,0.4,0.1,0.8,0.4,1.1c0.3,0.3,0.6,0.4,1,0.4c0.9,0,1.4-0.5,1.4-1.5
				c0-0.4-0.1-0.8-0.3-1.1c-0.3-0.3-0.6-0.4-1-0.4c-0.4,0-0.7,0.1-1,0.4C91.9,76.8,91.8,77.2,91.8,77.6z"/>
			<path class="st2" d="M103.6,82.7l-0.2-1h-0.1c-0.2,0.4-0.6,0.7-1,0.8c-0.4,0.2-0.9,0.3-1.4,0.3c-0.7,0-1.4-0.2-2-0.7
				c-0.5-0.6-0.7-1.3-0.7-2.1v-5h1.6v4.7c0,0.5,0.1,0.9,0.4,1.3c0.3,0.3,0.7,0.5,1.1,0.4c0.6,0,1.1-0.2,1.5-0.6
				c0.4-0.6,0.5-1.3,0.5-2v-3.8h1.6v7.6H103.6z"/>
			<path class="st2" d="M110.8,75c0.3,0,0.5,0,0.8,0.1l-0.2,1.5c-0.2-0.1-0.5-0.1-0.7-0.1c-0.6,0-1.2,0.2-1.6,0.6
				c-0.4,0.4-0.6,1-0.6,1.6v4h-1.6v-7.6h1.3l0.2,1.3h0.1c0.2-0.4,0.6-0.8,1-1.1C109.9,75.2,110.3,75,110.8,75z"/>
			<path class="st2" d="M117.5,82.7l-0.3-1.1h-0.1c-0.3,0.4-0.7,0.7-1.1,0.9c-0.4,0.2-0.9,0.3-1.4,0.2c-0.6,0-1.3-0.2-1.7-0.6
				c-0.4-0.5-0.7-1.1-0.6-1.7c0-0.7,0.3-1.4,0.9-1.8c0.8-0.5,1.7-0.7,2.6-0.6h1.3v-0.4c0-0.4-0.1-0.8-0.3-1.1
				c-0.3-0.2-0.6-0.4-1-0.4c-0.4,0-0.8,0.1-1.1,0.2c-0.3,0.1-0.7,0.2-1,0.4l-0.6-1.2c0.9-0.4,1.8-0.6,2.7-0.7
				c0.8-0.1,1.5,0.2,2.2,0.6c0.5,0.5,0.8,1.3,0.7,2v5.1L117.5,82.7z M115.1,81.6c0.5,0,1-0.2,1.4-0.5c0.4-0.4,0.6-0.9,0.5-1.4v-0.7
				h-1c-0.6,0-1.1,0.1-1.7,0.4c-0.3,0.2-0.5,0.6-0.5,1c0,0.3,0.1,0.6,0.3,0.8C114.4,81.5,114.7,81.7,115.1,81.6z"/>
			<path class="st2" d="M123.5,81.6c0.4,0,0.8-0.1,1.2-0.2v1.2c-0.2,0.1-0.4,0.2-0.7,0.2c-0.3,0.1-0.6,0.1-0.9,0.1
				c-1.5,0-2.3-0.8-2.3-2.4v-4.1h-1v-0.7l1.1-0.6l0.5-1.6h1v1.7h2.2v1.2h-2.2v4c0,0.3,0.1,0.6,0.3,0.9
				C122.9,81.4,123.2,81.6,123.5,81.6z"/>
			<path class="st2" d="M125.9,73.2c0-0.2,0.1-0.5,0.2-0.7c0.2-0.2,0.4-0.2,0.7-0.2c0.2,0,0.5,0.1,0.7,0.2c0.3,0.4,0.3,0.9,0,1.3
				c-0.2,0.2-0.4,0.2-0.7,0.2c-0.2,0-0.5-0.1-0.7-0.2C125.9,73.6,125.8,73.4,125.9,73.2z M127.6,82.7H126v-7.6h1.6L127.6,82.7z"/>
			<path class="st2" d="M136.4,78.9c0.1,1-0.3,2.1-0.9,2.9c-0.7,0.7-1.7,1.1-2.6,1c-0.7,0-1.3-0.2-1.9-0.5c-0.5-0.3-1-0.8-1.3-1.3
				c-0.3-0.7-0.4-1.4-0.4-2.1c-0.1-1,0.3-2.1,0.9-2.9c0.7-0.7,1.7-1.1,2.7-1c1-0.1,1.9,0.3,2.6,1C136.1,76.9,136.4,77.9,136.4,78.9z
				 M130.9,78.9c0,1.8,0.6,2.6,1.9,2.6s1.9-0.9,1.9-2.6s-0.6-2.6-1.9-2.6c-0.6,0-1.1,0.2-1.5,0.7C131,77.6,130.8,78.3,130.9,78.9z"
				/>
			<path class="st2" d="M144.6,82.7H143v-4.7c0-0.5-0.1-0.9-0.4-1.3c-0.3-0.3-0.7-0.5-1.1-0.4c-0.6,0-1.1,0.2-1.5,0.6
				c-0.4,0.6-0.5,1.3-0.5,2v3.8H138v-7.5h1.3l0.2,1h0.1c0.2-0.4,0.6-0.7,1-0.8c0.4-0.2,0.9-0.3,1.4-0.3c1.8,0,2.7,0.9,2.7,2.8
				L144.6,82.7z"/>
			<path class="st2" d="M86.3,96.8c0,0.8-0.3,1.6-1,2.1c-0.8,0.5-1.7,0.8-2.7,0.8c-1,0-1.9-0.1-2.8-0.5v-1.6c0.5,0.2,1,0.4,1.4,0.5
				c0.5,0.1,0.9,0.2,1.4,0.2c0.5,0,1-0.1,1.4-0.4c0.3-0.2,0.5-0.6,0.5-1c0-0.4-0.1-0.7-0.4-1c-0.5-0.4-1.1-0.7-1.8-0.9
				c-0.7-0.3-1.4-0.7-1.9-1.3c-0.4-0.5-0.5-1.1-0.5-1.7c0-0.8,0.3-1.5,0.9-2c0.7-0.5,1.5-0.8,2.4-0.7c1,0,2,0.2,2.8,0.6l-0.5,1.3
				c-0.7-0.3-1.6-0.5-2.4-0.6c-0.4,0-0.9,0.1-1.2,0.3c-0.3,0.2-0.4,0.6-0.4,0.9c0,0.2,0.1,0.5,0.2,0.7c0.1,0.2,0.3,0.4,0.5,0.5
				c0.4,0.3,0.9,0.5,1.3,0.7c0.6,0.2,1.1,0.5,1.6,0.8c0.3,0.2,0.6,0.5,0.8,0.9C86.2,96,86.3,96.4,86.3,96.8z"/>
			<path class="st2" d="M91.2,99.7c-1,0.1-2-0.3-2.8-1c-0.7-0.8-1.1-1.8-1-2.8c-0.1-1.1,0.3-2.1,0.9-2.9c0.6-0.7,1.6-1.1,2.5-1.1
				c0.9,0,1.7,0.3,2.4,0.9c0.6,0.7,0.9,1.6,0.9,2.5v0.9h-5c0,0.6,0.2,1.2,0.6,1.7c0.4,0.4,1,0.6,1.6,0.6c0.4,0,0.8,0,1.2-0.1
				c0.4-0.1,0.8-0.2,1.2-0.4v1.3c-0.4,0.2-0.8,0.3-1.2,0.4C92.1,99.7,91.6,99.7,91.2,99.7z M90.9,93c-0.5,0-0.9,0.2-1.2,0.5
				c-0.3,0.4-0.5,0.9-0.6,1.5h3.4c0-0.5-0.1-1-0.4-1.4C91.8,93.2,91.3,93,90.9,93z"/>
			<path class="st2" d="M99.6,91.8c0.3,0,0.5,0,0.8,0.1l-0.2,1.5c-0.2-0.1-0.5-0.1-0.7-0.1c-0.6,0-1.2,0.2-1.6,0.6
				c-0.4,0.4-0.6,1-0.6,1.6v4h-1.6V92H97l0.2,1.3h0.1c0.2-0.4,0.6-0.8,1-1.1C98.7,92,99.1,91.9,99.6,91.8z"/>
			<path class="st2" d="M103.3,99.5l-2.9-7.5h1.7l1.5,4.4c0.2,0.6,0.4,1.2,0.5,1.8h0.1c0.1-0.6,0.3-1.2,0.5-1.8l1.5-4.4h1.7
				l-2.9,7.5H103.3z"/>
			<path class="st2" d="M112.1,99.7c-1,0.1-2-0.3-2.8-1c-0.7-0.8-1.1-1.8-1-2.8c-0.1-1.1,0.3-2.1,0.9-2.9c0.6-0.7,1.6-1.1,2.5-1.1
				c0.9,0,1.7,0.3,2.4,0.9c0.6,0.7,0.9,1.6,0.9,2.5v0.9h-5c0,0.6,0.2,1.2,0.6,1.7c0.4,0.4,1,0.6,1.6,0.6c0.4,0,0.8,0,1.2-0.1
				c0.4-0.1,0.8-0.2,1.2-0.4v1.3c-0.4,0.2-0.8,0.3-1.2,0.4C113.1,99.7,112.6,99.7,112.1,99.7z M111.8,93c-0.5,0-0.9,0.2-1.2,0.5
				c-0.3,0.4-0.5,0.9-0.6,1.4h3.4c0-0.5-0.1-1-0.5-1.4C112.7,93.2,112.3,93,111.8,93z"/>
			<path class="st2" d="M120.5,91.8c0.3,0,0.5,0,0.8,0.1l-0.2,1.5c-0.2-0.1-0.5-0.1-0.7-0.1c-0.6,0-1.2,0.2-1.6,0.6
				c-0.4,0.4-0.6,1-0.6,1.6v4h-1.6V92h1.3l0.2,1.3h0.1c0.2-0.4,0.6-0.8,1-1.1C119.6,92,120.1,91.9,120.5,91.8z"/>
		</g>
		<g>
			<path class="st2" d="M602.8,90.9l-2.8-8.3h-0.1c0.1,1.2,0.1,2.4,0.1,3.5v4.9h-1.5v-10h2.3l2.8,7.9l0,0l2.8-7.9h2.3v10h-1.6V86
				c0-0.5,0-1.2,0-1.9s0-1.3,0.1-1.4h0l-3,8.3L602.8,90.9z"/>
			<path class="st2" d="M614.4,91.1c-1,0.1-2-0.3-2.8-1c-0.7-0.8-1.1-1.8-1-2.8c-0.1-1.1,0.3-2.1,0.9-2.9c0.6-0.7,1.6-1.1,2.5-1.1
				c0.9,0,1.7,0.3,2.4,0.9c0.6,0.7,0.9,1.6,0.9,2.5v0.9h-5c0,0.6,0.2,1.2,0.6,1.7c0.4,0.4,1,0.6,1.6,0.6c0.4,0,0.8,0,1.2-0.1
				c0.4-0.1,0.8-0.2,1.2-0.4v1.3c-0.4,0.2-0.8,0.3-1.2,0.4C615.3,91.1,614.8,91.1,614.4,91.1z M614.1,84.4c-0.5,0-0.9,0.2-1.2,0.5
				c-0.3,0.4-0.5,0.9-0.6,1.4h3.4c0-0.5-0.1-1-0.5-1.4C615,84.6,614.5,84.4,614.1,84.4z"/>
			<path class="st2" d="M621.7,89.8c0.4,0,0.8-0.1,1.2-0.2v1.2c-0.2,0.1-0.4,0.2-0.7,0.2c-0.3,0.1-0.6,0.1-0.9,0.1
				c-1.5,0-2.3-0.8-2.3-2.4v-4.1h-1v-0.7l1.1-0.6l0.5-1.6h1v1.7h2.2v1.2h-2.2v4c0,0.3,0.1,0.6,0.3,0.9
				C621.2,89.6,621.5,89.8,621.7,89.8z"/>
			<path class="st2" d="M628,83.2c0.3,0,0.5,0,0.8,0.1l-0.2,1.5c-0.2-0.1-0.5-0.1-0.7-0.1c-0.6,0-1.2,0.2-1.6,0.6
				c-0.4,0.4-0.6,1-0.6,1.6v4h-1.6v-7.6h1.3l0.2,1.3h0.1c0.2-0.4,0.6-0.8,1-1.1C627.1,83.4,627.6,83.2,628,83.2z"/>
			<path class="st2" d="M629.9,81.4c0-0.2,0.1-0.5,0.2-0.7c0.2-0.2,0.4-0.2,0.7-0.2c0.5,0,0.9,0.3,0.9,0.7c0,0.1,0,0.1,0,0.2
				c0,0.5-0.3,0.9-0.8,0.9c0,0-0.1,0-0.1,0c-0.2,0-0.5-0.1-0.7-0.2C630,81.8,629.9,81.6,629.9,81.4z M631.7,90.9H630v-7.6h1.6
				L631.7,90.9z"/>
			<path class="st2" d="M636.8,91.1c-1,0.1-1.9-0.3-2.6-1c-1.2-1.8-1.2-4.1,0-5.8c0.7-0.7,1.7-1.1,2.7-1c0.7,0,1.5,0.1,2.2,0.4
				l-0.5,1.3c-0.5-0.2-1.1-0.4-1.7-0.4c-1.3,0-2,0.9-2,2.6c0,0.7,0.1,1.3,0.5,1.9c0.3,0.4,0.9,0.7,1.4,0.6c0.7,0,1.4-0.2,2-0.5v1.4
				c-0.3,0.2-0.5,0.3-0.8,0.4C637.6,91.1,637.2,91.1,636.8,91.1z"/>
			<path class="st2" d="M645.5,88.8c0,0.7-0.3,1.3-0.8,1.7c-0.7,0.4-1.5,0.7-2.3,0.6c-0.8,0-1.7-0.1-2.4-0.5v-1.4
				c0.8,0.4,1.6,0.6,2.5,0.6c1,0,1.5-0.3,1.5-0.9c0-0.2,0-0.3-0.2-0.5c-0.2-0.2-0.3-0.3-0.5-0.4c-0.3-0.2-0.7-0.3-1-0.5
				c-0.7-0.2-1.3-0.5-1.8-1c-0.3-0.4-0.5-0.8-0.5-1.3c0-0.6,0.3-1.2,0.8-1.5c0.6-0.4,1.4-0.6,2.1-0.5c0.9,0,1.7,0.2,2.5,0.5
				l-0.6,1.2c-0.6-0.3-1.3-0.5-2.1-0.5c-0.8,0-1.3,0.2-1.3,0.7c0,0.2,0.1,0.5,0.3,0.6c0.5,0.3,0.9,0.5,1.5,0.7
				c0.5,0.2,0.9,0.4,1.4,0.7c0.3,0.2,0.5,0.4,0.6,0.7C645.5,88.1,645.5,88.5,645.5,88.8z"/>
			<path class="st2" d="M656.4,88.2c0,0.8-0.3,1.6-1,2.1c-0.8,0.5-1.7,0.8-2.7,0.8c-1,0-1.9-0.1-2.8-0.5V89c0.5,0.2,0.9,0.4,1.5,0.5
				c0.5,0.1,1,0.2,1.4,0.2c0.5,0,1-0.1,1.4-0.4c0.3-0.2,0.5-0.6,0.5-1c0-0.4-0.1-0.7-0.4-0.9c-0.5-0.4-1.1-0.7-1.8-0.9
				c-0.7-0.2-1.4-0.7-1.9-1.3c-0.4-0.5-0.6-1.1-0.6-1.7c0-0.8,0.3-1.5,0.9-2c0.7-0.5,1.5-0.8,2.4-0.7c1,0,2,0.2,2.9,0.6l-0.5,1.3
				c-0.7-0.3-1.6-0.5-2.4-0.6c-0.4,0-0.9,0.1-1.2,0.3c-0.3,0.2-0.4,0.6-0.4,0.9c0,0.2,0,0.5,0.2,0.7c0.1,0.2,0.3,0.4,0.5,0.5
				c0.4,0.3,0.9,0.5,1.4,0.7c0.6,0.2,1.1,0.5,1.6,0.8c0.3,0.2,0.6,0.5,0.8,0.9C656.3,87.4,656.4,87.8,656.4,88.2z"/>
			<path class="st2" d="M660.8,89.8c0.4,0,0.8-0.1,1.2-0.2v1.2c-0.2,0.1-0.5,0.2-0.7,0.2c-0.3,0.1-0.6,0.1-0.9,0.1
				c-1.5,0-2.3-0.8-2.3-2.4v-4.1h-1v-0.7l1.1-0.6l0.5-1.6h1v1.7h2.2v1.2h-2.2v4c0,0.3,0.1,0.6,0.3,0.9
				C660.3,89.6,660.5,89.8,660.8,89.8z"/>
			<path class="st2" d="M670,87.1c0.1,1.1-0.3,2.1-1,2.9c-0.7,0.7-1.7,1.1-2.6,1c-0.7,0-1.3-0.2-1.9-0.5c-0.5-0.3-1-0.8-1.2-1.4
				c-0.3-0.7-0.4-1.4-0.4-2.1c-0.1-1,0.3-2.1,0.9-2.9c0.7-0.7,1.7-1.1,2.7-1c1,0,1.9,0.3,2.6,1.1C669.7,85.1,670,86.1,670,87.1z
				 M664.5,87.1c0,1.8,0.6,2.6,1.9,2.6s1.9-0.9,1.9-2.6s-0.6-2.6-1.9-2.6c-0.6,0-1.1,0.2-1.5,0.7C664.6,85.8,664.4,86.5,664.5,87.1
				L664.5,87.1z"/>
			<path class="st2" d="M675.4,83.2c0.3,0,0.5,0,0.8,0.1l-0.2,1.5c-0.2-0.1-0.5-0.1-0.7-0.1c-0.6,0-1.2,0.2-1.6,0.6
				c-0.4,0.4-0.6,1-0.6,1.6v4h-1.6v-7.6h1.3l0.2,1.3h0.1c0.2-0.4,0.6-0.8,1-1.1C674.5,83.4,675,83.2,675.4,83.2z"/>
			<path class="st2" d="M680.7,91.1c-1,0-2-0.3-2.7-1.1c-0.7-0.8-1.1-1.8-1-2.8c-0.1-1.1,0.3-2.1,0.9-2.9c0.6-0.7,1.6-1.1,2.5-1.1
				c0.9,0,1.7,0.3,2.4,0.9c0.6,0.7,0.9,1.6,0.9,2.5v0.9h-5c0,0.6,0.2,1.2,0.6,1.7c0.4,0.4,1,0.6,1.6,0.6c0.4,0,0.8,0,1.2-0.1
				c0.4-0.1,0.8-0.2,1.2-0.4v1.3c-0.4,0.2-0.8,0.3-1.2,0.4C681.7,91,681.2,91.1,680.7,91.1z M680.4,84.4c-0.5,0-0.9,0.2-1.2,0.5
				c-0.3,0.4-0.5,0.9-0.5,1.4h3.4c0-0.5-0.1-1-0.5-1.4C681.3,84.6,680.9,84.4,680.4,84.4z"/>
			<path class="st2" d="M613.9,165.6c0.1,1.4-0.4,2.8-1.4,3.8c-1.1,0.9-2.5,1.4-4,1.3h-2.8v-10h3.1c1.4-0.1,2.7,0.4,3.7,1.3
				C613.5,163,614,164.3,613.9,165.6z M612.2,165.7c0-2.4-1.1-3.6-3.4-3.6h-1.4v7.2h1.2C611,169.4,612.2,168.1,612.2,165.7
				L612.2,165.7z"/>
			<path class="st2" d="M620.4,170.8l-0.3-1.1h-0.1c-0.3,0.4-0.7,0.7-1.1,0.9c-0.5,0.2-0.9,0.3-1.4,0.2c-0.6,0-1.3-0.2-1.7-0.6
				c-0.4-0.5-0.7-1.1-0.6-1.7c0-0.7,0.3-1.4,0.9-1.8c0.8-0.5,1.7-0.7,2.7-0.6h1.3v-0.4c0-0.4-0.1-0.8-0.3-1.1
				c-0.3-0.3-0.6-0.4-1-0.4c-0.4,0-0.8,0.1-1.1,0.2c-0.3,0.1-0.7,0.2-1,0.4l-0.5-1.2c0.4-0.2,0.9-0.4,1.3-0.5
				c0.5-0.1,0.9-0.2,1.4-0.2c0.8-0.1,1.6,0.2,2.2,0.6c0.5,0.5,0.8,1.3,0.7,2v5.1L620.4,170.8z M618,169.6c0.5,0,1-0.2,1.4-0.5
				c0.4-0.4,0.6-0.9,0.5-1.4v-0.6h-1c-0.6,0-1.1,0.1-1.7,0.4c-0.3,0.2-0.5,0.6-0.5,1c0,0.3,0.1,0.6,0.3,0.8
				C617.4,169.5,617.7,169.7,618,169.6L618,169.6z"/>
			<path class="st2" d="M628.7,168.6c0,0.7-0.3,1.3-0.8,1.7c-0.7,0.4-1.5,0.6-2.3,0.6c-0.8,0-1.7-0.1-2.4-0.5V169
				c0.8,0.4,1.6,0.6,2.5,0.6c1,0,1.5-0.3,1.5-0.9c0-0.2-0.1-0.3-0.2-0.5c-0.2-0.2-0.3-0.3-0.5-0.4c-0.3-0.2-0.7-0.3-1-0.5
				c-0.7-0.2-1.3-0.5-1.8-1c-0.3-0.4-0.5-0.8-0.5-1.3c0-0.6,0.3-1.2,0.8-1.5c0.6-0.4,1.4-0.6,2.1-0.5c0.9,0,1.7,0.2,2.5,0.5
				l-0.5,1.2c-0.6-0.3-1.3-0.5-2-0.5c-0.8,0-1.3,0.2-1.3,0.7c0,0.2,0.1,0.5,0.3,0.6c0.5,0.3,0.9,0.5,1.4,0.7
				c0.5,0.2,0.9,0.4,1.4,0.7c0.3,0.2,0.5,0.4,0.6,0.7C628.7,167.9,628.7,168.3,628.7,168.6z"/>
			<path class="st2" d="M636.9,170.8h-1.6v-4.6c0-0.5-0.1-0.9-0.3-1.3c-0.3-0.3-0.7-0.5-1.1-0.4c-0.6,0-1.1,0.2-1.5,0.6
				c-0.4,0.6-0.5,1.3-0.5,2v3.8h-1.6v-10.6h1.6v2.7c0,0.4,0,0.9-0.1,1.4h0.1c0.2-0.4,0.5-0.7,0.9-0.9c0.4-0.2,0.9-0.3,1.4-0.3
				c1.3-0.2,2.6,0.7,2.7,2.1c0,0.2,0,0.5,0,0.7V170.8z"/>
			<path class="st2" d="M642.8,163.1c0.9,0,1.7,0.3,2.2,1c1.1,1.8,1.1,4,0,5.8c-0.5,0.7-1.4,1-2.2,1c-0.9,0.1-1.7-0.3-2.2-1h-0.1
				l-0.3,0.9h-1.2v-10.6h1.6v2.5c0,0.2,0,0.5,0,0.8s0,0.6,0,0.7h0.1C641.1,163.5,641.9,163,642.8,163.1z M642.4,164.4
				c-0.5-0.1-1.1,0.2-1.4,0.6c-0.3,0.6-0.5,1.2-0.4,1.9v0.2c-0.1,0.7,0.1,1.4,0.4,2c0.3,0.4,0.9,0.7,1.4,0.6c0.5,0,1-0.2,1.3-0.7
				c0.3-0.6,0.5-1.3,0.4-1.9C644.1,165.2,643.5,164.4,642.4,164.4L642.4,164.4z"/>
			<path class="st2" d="M654.1,167c0,1.1-0.3,2.1-1,2.9c-0.7,0.7-1.7,1.1-2.7,1c-0.7,0-1.3-0.2-1.9-0.5c-0.5-0.3-1-0.8-1.2-1.4
				c-0.3-0.6-0.4-1.3-0.4-2c-0.1-1,0.3-2.1,0.9-2.9c0.7-0.7,1.7-1.1,2.7-1c1-0.1,1.9,0.3,2.6,1C653.9,164.9,654.2,166,654.1,167z
				 M648.6,167c0,1.8,0.6,2.6,1.9,2.6s1.9-0.9,1.9-2.6s-0.6-2.6-1.9-2.6c-0.6-0.1-1.1,0.2-1.5,0.7
				C648.7,165.7,648.6,166.3,648.6,167z"/>
			<path class="st2" d="M660.5,170.8l-0.3-1.1l0,0c-0.3,0.4-0.7,0.7-1.1,0.9c-0.5,0.2-0.9,0.3-1.4,0.2c-0.6,0-1.3-0.2-1.7-0.6
				c-0.4-0.5-0.7-1.1-0.6-1.7c0-0.7,0.3-1.4,0.9-1.8c0.8-0.5,1.7-0.7,2.6-0.6h1.3v-0.4c0-0.4-0.1-0.8-0.3-1.1
				c-0.3-0.3-0.7-0.4-1-0.4c-0.4,0-0.8,0.1-1.1,0.2c-0.3,0.1-0.7,0.2-1,0.4l-0.6-1.2c0.4-0.2,0.9-0.4,1.3-0.5
				c0.5-0.1,0.9-0.2,1.4-0.2c0.8-0.1,1.6,0.2,2.2,0.6c0.5,0.5,0.8,1.3,0.7,2v5.1L660.5,170.8z M658.1,169.6c0.5,0,1-0.2,1.4-0.5
				c0.4-0.4,0.6-0.9,0.5-1.4v-0.6h-1c-0.6,0-1.1,0.1-1.7,0.4c-0.3,0.2-0.5,0.6-0.5,1c0,0.3,0.1,0.6,0.3,0.8
				C657.4,169.5,657.7,169.7,658.1,169.6L658.1,169.6z"/>
			<path class="st2" d="M667.5,163.1c0.3,0,0.5,0,0.8,0.1l-0.2,1.5c-0.2-0.1-0.5-0.1-0.7-0.1c-0.6,0-1.2,0.2-1.6,0.6
				c-0.4,0.4-0.6,1-0.6,1.6v4h-1.6v-7.6h1.2l0.2,1.3h0.1c0.2-0.4,0.6-0.8,1-1.1C666.6,163.2,667,163.1,667.5,163.1z"/>
			<path class="st2" d="M672,170.9c-0.9,0-1.7-0.3-2.2-1c-1.1-1.8-1.1-4,0-5.8c0.5-0.7,1.4-1,2.2-1c0.9,0,1.8,0.4,2.3,1.1h0.1
				c-0.1-0.4-0.1-0.9-0.1-1.3v-2.8h1.6v10.6h-1.3l-0.3-1h-0.1C673.7,170.5,672.9,170.9,672,170.9z M672.4,169.6
				c0.5,0.1,1.1-0.2,1.4-0.6c0.3-0.5,0.5-1.2,0.5-1.8V167c0.1-0.7-0.1-1.4-0.5-2c-0.4-0.4-0.9-0.6-1.5-0.6c-0.5,0-1,0.2-1.3,0.7
				c-0.3,0.6-0.5,1.3-0.5,2c0,0.7,0.1,1.3,0.5,1.9C671.4,169.4,671.9,169.6,672.4,169.6L672.4,169.6z"/>
			<path class="st2" d="M606.2,242.9c0,0.8-0.3,1.6-1,2.1c-0.8,0.5-1.7,0.8-2.7,0.8c-1,0-1.9-0.1-2.8-0.5v-1.5
				c0.5,0.2,1,0.4,1.5,0.5c0.5,0.1,0.9,0.2,1.4,0.2c0.5,0,1-0.1,1.4-0.4c0.3-0.2,0.5-0.6,0.5-1c0-0.4-0.1-0.7-0.4-0.9
				c-0.5-0.4-1.1-0.7-1.8-0.9c-0.7-0.3-1.4-0.7-1.9-1.3c-0.4-0.5-0.6-1.1-0.6-1.7c0-0.8,0.3-1.5,0.9-2c0.7-0.5,1.5-0.8,2.4-0.7
				c1,0,2,0.2,2.8,0.6l-0.5,1.3c-0.7-0.3-1.6-0.5-2.4-0.6c-0.4,0-0.9,0.1-1.2,0.3c-0.3,0.2-0.4,0.6-0.4,0.9c0,0.2,0.1,0.5,0.2,0.7
				c0.1,0.2,0.3,0.4,0.5,0.5c0.4,0.3,0.9,0.5,1.3,0.6c0.6,0.2,1.1,0.5,1.6,0.9c0.3,0.2,0.6,0.5,0.8,0.9
				C606.1,242,606.2,242.4,606.2,242.9z"/>
			<path class="st2" d="M611.6,245.7c-0.9,0.1-1.7-0.3-2.2-1h-0.1c0.1,0.6,0.1,1,0.1,1.2v3.1h-1.6v-11h1.3c0,0.1,0.1,0.5,0.2,1h0.1
				c0.5-0.8,1.4-1.2,2.3-1.1c0.9,0,1.7,0.3,2.2,1c1.1,1.8,1.1,4,0,5.8C613.3,245.3,612.5,245.7,611.6,245.7z M611.2,239.2
				c-0.5,0-1,0.2-1.4,0.6c-0.3,0.5-0.5,1.2-0.4,1.8v0.2c-0.1,0.7,0.1,1.4,0.4,2c0.3,0.4,0.9,0.7,1.4,0.6c0.5,0,1-0.2,1.3-0.7
				c0.6-1.2,0.6-2.7,0-3.9C612.2,239.4,611.7,239.2,611.2,239.2L611.2,239.2z"/>
			<path class="st2" d="M620.1,237.9c0.3,0,0.5,0,0.8,0.1l-0.2,1.5c-0.2-0.1-0.5-0.1-0.7-0.1c-0.6,0-1.2,0.2-1.6,0.6
				c-0.4,0.4-0.6,1-0.6,1.6v4h-1.6V238h1.3l0.2,1.3h0.1c0.2-0.4,0.6-0.8,1-1.1C619.2,238,619.7,237.9,620.1,237.9z"/>
			<path class="st2" d="M622,236c0-0.2,0.1-0.5,0.2-0.7c0.4-0.3,1-0.3,1.3,0c0.2,0.2,0.3,0.4,0.2,0.7c0,0.2-0.1,0.5-0.2,0.6
				c-0.4,0.3-0.9,0.3-1.3,0C622.1,236.5,622,236.2,622,236z M623.7,245.6h-1.6V238h1.6V245.6z"/>
			<path class="st2" d="M632.5,245.6h-1.6v-4.6c0-0.5-0.1-0.9-0.3-1.3c-0.3-0.3-0.7-0.5-1.1-0.4c-0.6,0-1.1,0.2-1.5,0.6
				c-0.4,0.6-0.5,1.3-0.5,2v3.8h-1.6V238h1.3l0.2,1h0.1c0.2-0.4,0.6-0.7,1-0.8c0.4-0.2,0.9-0.3,1.4-0.3c1.3-0.2,2.5,0.7,2.7,2.1
				c0,0.2,0,0.5,0,0.7L632.5,245.6z"/>
			<path class="st2" d="M640.9,238v0.9l-1.3,0.2c0.1,0.2,0.2,0.4,0.3,0.6c0.3,0.9,0,1.9-0.7,2.6c-0.8,0.6-1.9,0.8-2.9,0.6
				c-0.3,0.1-0.5,0.4-0.5,0.8c0,0.2,0.1,0.3,0.2,0.4c0.3,0.1,0.6,0.1,0.9,0.1h1.3c0.7,0,1.3,0.1,1.9,0.5c0.4,0.4,0.7,1,0.7,1.5
				c0,0.8-0.4,1.6-1.1,2c-0.9,0.5-2,0.8-3.1,0.7c-0.8,0-1.6-0.1-2.4-0.6c-0.5-0.3-0.8-0.9-0.8-1.6c0-0.4,0.2-0.9,0.5-1.2
				c0.3-0.3,0.8-0.6,1.2-0.7c-0.2-0.1-0.4-0.2-0.5-0.4c-0.3-0.4-0.3-1,0-1.4c0.2-0.2,0.4-0.4,0.7-0.6c-0.4-0.2-0.8-0.4-1-0.8
				c-0.6-1.1-0.4-2.4,0.4-3.2c0.6-0.5,1.4-0.7,2.2-0.7c0.2,0,0.4,0,0.7,0c0.2,0,0.4,0,0.5,0.1L640.9,238z M634.9,246.7
				c0,0.3,0.2,0.6,0.5,0.8c0.4,0.2,0.9,0.3,1.3,0.3c0.7,0,1.4-0.1,2-0.4c0.4-0.2,0.6-0.6,0.6-1c0-0.3-0.1-0.5-0.3-0.7
				c-0.4-0.2-0.9-0.2-1.3-0.2h-1.2c-0.4,0-0.8,0.1-1.1,0.3C635.1,246.1,634.9,246.4,634.9,246.7L634.9,246.7z M635.6,240.5
				c0,0.4,0.1,0.8,0.4,1.1c0.3,0.3,0.6,0.4,1,0.4c0.9,0,1.4-0.5,1.4-1.5c0-0.4-0.1-0.8-0.3-1.1c-0.3-0.3-0.7-0.4-1-0.4
				c-0.4,0-0.8,0.1-1.1,0.4C635.7,239.6,635.6,240.1,635.6,240.5L635.6,240.5z"/>
			<path class="st2" d="M649.9,236.9c-0.9,0-1.7,0.3-2.2,1c-1.1,1.7-1.1,3.8,0,5.5c0.5,0.7,1.4,1,2.2,1c0.4,0,0.8,0,1.2-0.1
				c0.4-0.1,0.8-0.2,1.2-0.3v1.4c-0.9,0.3-1.8,0.5-2.7,0.4c-1.3,0.1-2.5-0.4-3.4-1.3c-0.8-1.1-1.3-2.4-1.2-3.8
				c0-0.9,0.2-1.9,0.6-2.7c0.4-0.8,0.9-1.4,1.7-1.8c0.8-0.4,1.7-0.6,2.5-0.6c1,0,1.9,0.2,2.8,0.6l-0.6,1.4c-0.3-0.2-0.7-0.3-1.1-0.4
				C650.7,236.9,650.3,236.9,649.9,236.9z"/>
			<path class="st2" d="M655.8,245.6h-1.6V235h1.6V245.6z"/>
			<path class="st2" d="M664.5,241.8c0.1,1-0.3,2.1-1,2.9c-0.7,0.7-1.7,1.1-2.7,1c-0.7,0-1.3-0.2-1.9-0.5c-0.5-0.3-1-0.8-1.2-1.4
				c-0.3-0.7-0.5-1.4-0.4-2.1c0-1,0.3-2.1,1-2.9c0.7-0.7,1.7-1.1,2.7-1c1,0,1.9,0.3,2.6,1.1C664.3,239.7,664.6,240.8,664.5,241.8z
				 M659,241.8c0,1.8,0.6,2.6,1.9,2.6s1.9-0.9,1.9-2.6s-0.7-2.6-1.9-2.6c-0.6-0.1-1.1,0.2-1.5,0.7C659.1,240.4,659,241.1,659,241.8
				L659,241.8z"/>
			<path class="st2" d="M671.5,245.6l-0.2-1h-0.1c-0.2,0.4-0.6,0.7-1,0.8c-0.4,0.2-0.9,0.3-1.4,0.3c-0.7,0.1-1.5-0.2-2.1-0.7
				c-0.5-0.6-0.7-1.3-0.7-2.1v-5h1.6v4.7c0,0.5,0.1,0.9,0.3,1.3c0.3,0.3,0.7,0.5,1.1,0.4c0.6,0,1.1-0.2,1.5-0.6
				c0.4-0.6,0.5-1.3,0.5-2V238h1.6v7.6L671.5,245.6z"/>
			<path class="st2" d="M677.4,245.7c-0.9,0-1.7-0.3-2.2-1c-1.1-1.8-1.1-4,0-5.8c0.5-0.7,1.4-1,2.2-1c0.9,0,1.8,0.4,2.3,1.1h0.1
				c-0.1-0.4-0.1-0.9-0.1-1.3V235h1.6v10.6H680l-0.3-1h-0.1C679.1,245.4,678.3,245.8,677.4,245.7z M677.8,244.4
				c0.5,0.1,1.1-0.2,1.5-0.6c0.3-0.5,0.5-1.2,0.5-1.8v-0.2c0.1-0.7-0.1-1.4-0.5-2c-0.4-0.4-0.9-0.6-1.5-0.6c-0.5,0-1,0.2-1.3,0.7
				c-0.3,0.6-0.5,1.3-0.5,2c0,0.7,0.1,1.3,0.4,1.9C676.8,244.2,677.3,244.5,677.8,244.4z"/>
			<path class="st2" d="M617.6,257.3c0.1,1.4-0.4,2.8-1.4,3.8c-1.1,1-2.5,1.4-4,1.3h-2.8v-10h3.1c1.4-0.1,2.7,0.4,3.7,1.3
				C617.1,254.6,617.6,255.9,617.6,257.3z M615.9,257.3c0-2.4-1.1-3.6-3.4-3.6h-1.4v7.3h1.2C614.6,261,615.8,259.8,615.9,257.3
				L615.9,257.3z"/>
			<path class="st2" d="M624.1,262.4l-0.3-1l0,0c-0.3,0.4-0.7,0.7-1.1,0.9c-0.5,0.2-0.9,0.3-1.4,0.2c-0.6,0-1.3-0.2-1.7-0.6
				c-0.4-0.5-0.7-1.1-0.6-1.7c0-0.7,0.3-1.4,0.9-1.8c0.8-0.5,1.7-0.7,2.6-0.6h1.3v-0.4c0-0.4-0.1-0.8-0.3-1.1
				c-0.3-0.2-0.6-0.4-1-0.4c-0.4,0-0.8,0.1-1.1,0.2c-0.3,0.1-0.7,0.2-1,0.4l-0.5-1.1c0.4-0.2,0.9-0.4,1.3-0.5
				c0.5-0.1,0.9-0.2,1.4-0.2c0.8-0.1,1.5,0.2,2.2,0.6c0.5,0.5,0.8,1.3,0.7,2v5.1L624.1,262.4z M621.7,261.3c0.5,0,1-0.2,1.4-0.5
				c0.4-0.4,0.6-0.9,0.5-1.4v-0.7h-1c-0.6,0-1.1,0.1-1.7,0.4c-0.3,0.2-0.5,0.6-0.5,1c0,0.3,0.1,0.6,0.3,0.8
				C621,261.2,621.3,261.3,621.7,261.3z"/>
			<path class="st2" d="M630.1,261.2c0.4,0,0.8-0.1,1.2-0.2v1.2c-0.2,0.1-0.5,0.1-0.7,0.2c-0.3,0.1-0.6,0.1-0.9,0.1
				c-1.5,0-2.3-0.8-2.3-2.4V256h-1v-0.7l1.1-0.6l0.5-1.6h1v1.7h2.2v1.2H629v4c0,0.3,0.1,0.6,0.3,0.9
				C629.5,261.1,629.8,261.2,630.1,261.2z"/>
			<path class="st2" d="M637.3,262.4l-0.3-1h-0.1c-0.3,0.4-0.7,0.7-1.1,0.9c-0.5,0.2-0.9,0.3-1.4,0.2c-0.6,0-1.3-0.2-1.7-0.6
				c-0.4-0.5-0.7-1.1-0.6-1.7c0-0.7,0.3-1.4,0.9-1.8c0.8-0.5,1.7-0.7,2.7-0.6h1.3v-0.4c0-0.4-0.1-0.8-0.3-1.1
				c-0.3-0.3-0.7-0.4-1-0.4c-0.4,0-0.8,0.1-1.1,0.2c-0.3,0.1-0.7,0.2-1,0.4l-0.5-1.1c0.4-0.2,0.9-0.4,1.3-0.5
				c0.5-0.1,0.9-0.2,1.4-0.2c0.8-0.1,1.5,0.2,2.2,0.6c0.5,0.5,0.8,1.3,0.7,2v5.1L637.3,262.4z M634.9,261.3c0.5,0,1-0.2,1.4-0.5
				c0.4-0.4,0.6-0.9,0.5-1.4v-0.7h-1c-0.6,0-1.1,0.1-1.7,0.4c-0.3,0.2-0.5,0.6-0.5,1c0,0.3,0.1,0.6,0.3,0.8
				C634.2,261.2,634.5,261.3,634.9,261.3z"/>
			<path class="st2" d="M645.7,262.4H644v-10h5.6v1.4h-4v3.1h3.8v1.4h-3.8L645.7,262.4z"/>
			<path class="st2" d="M652.7,262.4h-1.6v-10.6h1.6V262.4z"/>
			<path class="st2" d="M661.5,258.6c0.1,1.1-0.3,2.1-1,2.9c-0.7,0.7-1.7,1.1-2.6,1c-0.7,0-1.3-0.2-1.9-0.5c-0.5-0.3-1-0.8-1.2-1.4
				c-0.3-0.6-0.5-1.4-0.4-2.1c-0.1-1,0.3-2.1,0.9-2.9c0.7-0.7,1.7-1.1,2.7-1c1,0,1.9,0.3,2.6,1.1
				C661.2,256.5,661.6,257.5,661.5,258.6z M656,258.6c0,1.8,0.7,2.6,1.9,2.6s1.9-0.9,1.9-2.6s-0.6-2.6-1.9-2.6
				c-0.6,0-1.1,0.2-1.5,0.7C656.1,257.2,656,257.9,656,258.6L656,258.6z"/>
			<path class="st2" d="M669.3,262.4l-1-3.5c-0.1-0.4-0.3-1.2-0.6-2.6h-0.1c-0.3,1.2-0.5,2.1-0.6,2.6l-1,3.5h-1.8l-2.1-7.6h1.6
				l1,3.7c0.2,0.9,0.4,1.7,0.5,2.4l0,0c0-0.4,0.1-0.8,0.2-1.1c0.1-0.4,0.2-0.8,0.2-1l1.2-4h1.8l1.1,4c0.1,0.2,0.2,0.6,0.2,1
				c0.1,0.4,0.2,0.7,0.2,1.1h0.1c0.1-0.8,0.3-1.6,0.5-2.4l1-3.7h1.6l-2.1,7.6L669.3,262.4z"/>
		</g>
		<g>
			<path class="st2" d="M83.9,171.2c0,0.8-0.3,1.6-1,2.1c-0.8,0.5-1.7,0.8-2.7,0.8c-1,0-1.9-0.1-2.8-0.5V172
				c0.5,0.2,0.9,0.4,1.4,0.5c0.5,0.1,0.9,0.2,1.4,0.2c0.5,0,1-0.1,1.4-0.4c0.5-0.5,0.6-1.3,0.1-1.8c0,0-0.1-0.1-0.1-0.1
				c-0.5-0.4-1.1-0.7-1.8-0.9c-0.7-0.3-1.4-0.7-1.9-1.3c-0.4-0.5-0.6-1.1-0.6-1.7c0-0.8,0.3-1.5,0.9-2c0.7-0.5,1.5-0.8,2.4-0.7
				c1,0,2,0.2,2.9,0.6l-0.5,1.3c-0.7-0.3-1.6-0.5-2.4-0.6c-0.4,0-0.9,0.1-1.2,0.4c-0.3,0.2-0.4,0.6-0.4,0.9c0,0.2,0.1,0.5,0.2,0.7
				c0.1,0.2,0.3,0.4,0.5,0.5c0.4,0.3,0.9,0.5,1.3,0.6c0.6,0.2,1.1,0.5,1.6,0.9c0.3,0.2,0.6,0.5,0.8,0.9
				C83.8,170.4,83.9,170.8,83.9,171.2z"/>
			<path class="st2" d="M88.8,174c-1,0.1-2-0.3-2.8-1c-0.7-0.8-1.1-1.8-1-2.8c-0.1-1,0.3-2.1,0.9-2.9c0.6-0.7,1.6-1.1,2.5-1.1
				c0.9,0,1.7,0.3,2.4,0.9c0.6,0.7,0.9,1.6,0.9,2.5v0.9h-5c0,0.6,0.2,1.2,0.6,1.7c0.4,0.4,1,0.6,1.6,0.6c0.4,0,0.8,0,1.2-0.1
				c0.4-0.1,0.8-0.2,1.2-0.4v1.3c-0.4,0.2-0.8,0.3-1.2,0.4C89.7,174,89.2,174,88.8,174z M88.5,167.4c-0.5,0-0.9,0.2-1.2,0.5
				c-0.3,0.4-0.5,0.9-0.6,1.4h3.4c0-0.5-0.1-1-0.4-1.4C89.4,167.5,88.9,167.4,88.5,167.4L88.5,167.4z"/>
			<path class="st2" d="M97.2,166.2c0.3,0,0.5,0,0.8,0.1l-0.2,1.5c-0.2-0.1-0.5-0.1-0.7-0.1c-0.6,0-1.2,0.2-1.6,0.6
				c-0.4,0.4-0.6,1-0.6,1.6v3.9h-1.6v-7.6h1.2l0.2,1.3h0.1c0.2-0.4,0.6-0.8,1-1.1C96.2,166.3,96.7,166.2,97.2,166.2z"/>
			<path class="st2" d="M100.9,173.9l-2.9-7.6h1.7l1.5,4.4c0.2,0.6,0.4,1.2,0.5,1.8h0.1c0.1-0.6,0.3-1.2,0.5-1.8l1.5-4.4h1.7
				l-2.9,7.6H100.9z"/>
			<path class="st2" d="M106.3,164.3c0-0.2,0.1-0.5,0.2-0.7c0.4-0.3,0.9-0.3,1.3,0c0.2,0.2,0.2,0.4,0.2,0.7c0,0.2-0.1,0.5-0.2,0.6
				c-0.4,0.3-1,0.3-1.3,0C106.4,164.8,106.3,164.6,106.3,164.3z M108,173.9h-1.6v-7.6h1.6L108,173.9z"/>
			<path class="st2" d="M113.2,174c-1,0.1-1.9-0.3-2.6-1c-1.2-1.7-1.2-4.1,0-5.8c0.7-0.7,1.7-1.1,2.7-1c0.7,0,1.5,0.1,2.2,0.4
				l-0.5,1.3c-0.5-0.2-1.1-0.4-1.7-0.4c-1.3,0-2,0.9-2,2.6c0,0.7,0.1,1.3,0.5,1.9c0.3,0.4,0.9,0.7,1.4,0.6c0.7,0,1.4-0.2,2-0.5v1.4
				c-0.3,0.2-0.6,0.3-0.9,0.4C113.9,174,113.5,174,113.2,174z"/>
			<path class="st2" d="M120.1,174c-1,0.1-2-0.3-2.8-1c-0.7-0.8-1.1-1.8-1-2.8c-0.1-1,0.3-2.1,0.9-2.9c0.6-0.7,1.6-1.1,2.5-1.1
				c0.9,0,1.7,0.3,2.4,0.9c0.6,0.7,0.9,1.6,0.9,2.5v0.9h-5c0,0.6,0.2,1.2,0.6,1.7c0.4,0.4,1,0.6,1.6,0.6c0.4,0,0.8,0,1.2-0.1
				c0.4-0.1,0.8-0.2,1.2-0.4v1.3c-0.4,0.2-0.8,0.3-1.2,0.4C121.1,174,120.6,174,120.1,174z M119.8,167.4c-0.5,0-0.9,0.2-1.2,0.5
				c-0.3,0.4-0.5,0.9-0.6,1.4h3.4c0-0.5-0.1-1-0.4-1.4C120.7,167.5,120.3,167.4,119.8,167.4L119.8,167.4z"/>
			<path class="st2" d="M77.8,185.6c0.1,1.4-0.4,2.8-1.4,3.8c-1.1,0.9-2.5,1.4-4,1.3h-2.8v-10h3.1c1.4-0.1,2.7,0.4,3.8,1.3
				C77.4,183,77.9,184.3,77.8,185.6z M76.1,185.7c0-2.4-1.1-3.6-3.4-3.6h-1.4v7.2h1.2C74.9,189.3,76.1,188.1,76.1,185.7L76.1,185.7z
				"/>
			<path class="st2" d="M79.5,181.1c0-0.2,0.1-0.5,0.2-0.7c0.4-0.3,0.9-0.3,1.3,0c0.2,0.2,0.2,0.4,0.2,0.7c0,0.2-0.1,0.5-0.2,0.6
				c-0.4,0.3-1,0.3-1.3,0C79.5,181.6,79.4,181.4,79.5,181.1z M81.2,190.7h-1.6v-7.6h1.6V190.7z"/>
			<path class="st2" d="M88.3,188.5c0,0.7-0.3,1.3-0.8,1.7c-0.7,0.4-1.5,0.7-2.3,0.6c-0.8,0-1.7-0.1-2.4-0.5V189
				c0.8,0.4,1.6,0.6,2.5,0.6c1,0,1.5-0.3,1.5-0.9c0-0.2-0.1-0.3-0.2-0.5c-0.2-0.2-0.3-0.3-0.5-0.4c-0.3-0.2-0.7-0.3-1-0.5
				c-0.7-0.2-1.3-0.5-1.8-1c-0.3-0.4-0.5-0.8-0.5-1.3c0-0.6,0.3-1.2,0.8-1.5c0.6-0.4,1.4-0.6,2.1-0.5c0.9,0,1.7,0.2,2.5,0.5
				l-0.5,1.2c-0.6-0.3-1.3-0.5-2.1-0.5c-0.8,0-1.3,0.2-1.3,0.7c0,0.2,0.1,0.5,0.3,0.6c0.5,0.3,0.9,0.5,1.4,0.7
				c0.5,0.2,0.9,0.4,1.4,0.7c0.3,0.2,0.5,0.4,0.6,0.7C88.3,187.9,88.4,188.2,88.3,188.5z"/>
			<path class="st2" d="M92.9,190.8c-1,0.1-1.9-0.3-2.6-1c-1.2-1.7-1.2-4.1,0-5.8c0.7-0.7,1.7-1.1,2.7-1c0.7,0,1.5,0.1,2.2,0.4
				l-0.5,1.3c-0.5-0.2-1.1-0.4-1.7-0.4c-1.3,0-2,0.9-2,2.6c0,0.7,0.1,1.3,0.5,1.9c0.3,0.4,0.9,0.7,1.4,0.6c0.7,0,1.4-0.2,2-0.5v1.4
				c-0.3,0.2-0.6,0.3-0.9,0.4C93.6,190.8,93.3,190.8,92.9,190.8z"/>
			<path class="st2" d="M103.3,186.9c0.1,1.1-0.3,2.1-1,2.9c-0.7,0.7-1.7,1.1-2.6,1c-0.7,0-1.3-0.2-1.9-0.5
				c-0.5-0.3-0.9-0.8-1.2-1.3c-0.3-0.7-0.4-1.4-0.4-2.1c-0.1-1,0.3-2.1,0.9-2.9c0.7-0.7,1.7-1.1,2.7-1c1,0,1.9,0.3,2.6,1.1
				C103,184.9,103.3,185.9,103.3,186.9z M97.8,186.9c0,1.8,0.6,2.6,1.9,2.6s1.9-0.9,1.9-2.6s-0.6-2.6-1.9-2.6
				c-0.6,0-1.1,0.2-1.5,0.7C97.9,185.6,97.7,186.2,97.8,186.9z"/>
			<path class="st2" d="M106.6,190.7l-2.9-7.6h1.7l1.5,4.4c0.2,0.6,0.4,1.2,0.5,1.8h0.1c0.1-0.6,0.3-1.2,0.5-1.8l1.5-4.4h1.7
				l-2.9,7.6H106.6z"/>
			<path class="st2" d="M115.5,190.8c-1,0.1-2-0.3-2.8-1c-0.7-0.8-1.1-1.8-1-2.8c-0.1-1,0.3-2.1,0.9-2.9c0.6-0.7,1.6-1.1,2.5-1.1
				c0.9,0,1.7,0.3,2.4,0.9c0.6,0.7,0.9,1.6,0.9,2.5v0.9h-5c0,0.6,0.2,1.2,0.6,1.7c0.4,0.4,1,0.6,1.6,0.6c0.4,0,0.8,0,1.2-0.1
				c0.4-0.1,0.8-0.2,1.2-0.4v1.3c-0.4,0.2-0.8,0.3-1.2,0.4C116.4,190.8,116,190.8,115.5,190.8z M115.2,184.2c-0.5,0-0.9,0.2-1.2,0.5
				c-0.3,0.4-0.5,0.9-0.6,1.4h3.4c0-0.5-0.1-1-0.4-1.4C116.1,184.4,115.7,184.2,115.2,184.2z"/>
			<path class="st2" d="M123.9,183c0.3,0,0.5,0,0.8,0.1l-0.2,1.5c-0.2-0.1-0.5-0.1-0.7-0.1c-0.6,0-1.2,0.2-1.6,0.6
				c-0.4,0.4-0.6,1-0.6,1.6v3.9h-1.6v-7.6h1.2l0.2,1.3h0.1c0.2-0.4,0.6-0.8,1-1.1C123,183.1,123.4,183,123.9,183z"/>
			<path class="st2" d="M124.7,183.1h1.8l1.5,4.3c0.2,0.6,0.4,1.1,0.5,1.7l0,0c0.1-0.3,0.1-0.6,0.2-0.9c0.1-0.4,0.7-2.1,1.7-5.1h1.7
				l-3.2,8.6c-0.6,1.6-1.6,2.4-2.9,2.4c-0.3,0-0.7,0-1-0.1v-1.3c0.3,0.1,0.6,0.1,0.8,0.1c0.8,0,1.5-0.6,1.6-1.4l0.3-0.7L124.7,183.1
				z"/>
		</g>
		<g>
			<path class="st2" d="M326.2,237.4h3c1-0.1,2.1,0.1,3,0.6c0.6,0.4,1,1.1,0.9,1.9c0,0.5-0.1,1-0.5,1.5c-0.3,0.4-0.8,0.7-1.3,0.7
				v0.1c0.6,0.1,1.1,0.3,1.5,0.8c0.4,0.4,0.5,1,0.5,1.6c0,0.8-0.3,1.6-0.9,2.1c-0.8,0.6-1.7,0.8-2.6,0.8h-3.6L326.2,237.4z
				 M327.9,241.5h1.6c0.5,0,1-0.1,1.5-0.3c0.3-0.3,0.5-0.7,0.5-1.1c0-0.4-0.2-0.8-0.5-1c-0.5-0.2-1.1-0.4-1.6-0.3h-1.4V241.5z
				 M327.9,242.8v3.2h1.7c0.5,0,1.1-0.1,1.5-0.4c0.4-0.3,0.6-0.8,0.5-1.2c0-0.5-0.2-0.9-0.5-1.2c-0.5-0.3-1.1-0.4-1.6-0.4
				L327.9,242.8z"/>
			<path class="st2" d="M339.8,247.4l-0.3-1.1h-0.1c-0.3,0.4-0.7,0.7-1.1,0.9c-0.5,0.2-0.9,0.3-1.4,0.2c-0.6,0-1.3-0.2-1.7-0.6
				c-0.4-0.5-0.7-1.1-0.6-1.7c0-0.7,0.3-1.4,0.9-1.8c0.8-0.5,1.7-0.7,2.6-0.6h1.3v-0.4c0-0.4-0.1-0.8-0.3-1.1
				c-0.3-0.3-0.7-0.4-1-0.4c-0.4,0-0.8,0.1-1.1,0.2c-0.3,0.1-0.7,0.2-1,0.4l-0.5-1.1c0.4-0.2,0.9-0.4,1.3-0.5
				c0.5-0.1,0.9-0.2,1.4-0.2c0.8-0.1,1.6,0.2,2.2,0.6c0.5,0.5,0.8,1.3,0.7,2v5.1L339.8,247.4z M337.4,246.3c0.5,0,1-0.2,1.4-0.5
				c0.4-0.4,0.6-0.9,0.5-1.4v-0.7l-1,0.1c-0.6,0-1.1,0.1-1.6,0.4c-0.3,0.2-0.5,0.6-0.5,1c0,0.3,0.1,0.6,0.3,0.8
				C336.8,246.2,337.1,246.3,337.4,246.3z"/>
			<path class="st2" d="M345.8,246.2c0.4,0,0.8-0.1,1.2-0.2v1.2c-0.2,0.1-0.5,0.1-0.7,0.2c-0.3,0.1-0.6,0.1-0.9,0.1
				c-1.5,0-2.3-0.8-2.3-2.4V241h-1v-0.7l1.1-0.6l0.5-1.6h1v1.7h2.1v1.2h-2.1v4c0,0.3,0.1,0.6,0.3,0.9
				C345.3,246.1,345.5,246.2,345.8,246.2z"/>
			<path class="st2" d="M351.4,247.5c-1,0.1-1.9-0.3-2.6-1c-1.2-1.7-1.2-4.1,0-5.8c0.7-0.7,1.7-1.1,2.7-1c0.7,0,1.5,0.1,2.1,0.4
				l-0.5,1.3c-0.5-0.2-1.1-0.4-1.7-0.4c-1.3,0-2,0.9-2,2.6c0,0.7,0.1,1.3,0.5,1.9c0.3,0.4,0.9,0.7,1.4,0.6c0.7,0,1.4-0.2,2-0.5v1.3
				c-0.3,0.2-0.6,0.3-0.9,0.4C352.1,247.4,351.7,247.5,351.4,247.5z"/>
			<path class="st2" d="M361.7,247.4h-1.6v-4.6c0-0.5-0.1-0.9-0.4-1.3c-0.3-0.3-0.7-0.5-1.1-0.4c-0.6,0-1.1,0.2-1.5,0.6
				c-0.4,0.6-0.5,1.3-0.5,2v3.8H355v-10.6h1.6v2.7c0,0.5,0,0.9-0.1,1.4h0.1c0.2-0.4,0.5-0.7,0.9-0.8c0.4-0.2,0.9-0.3,1.4-0.3
				c1.3-0.2,2.6,0.7,2.8,2.1c0,0.2,0,0.5,0,0.7L361.7,247.4z"/>
			<path class="st2" d="M366,250.1c-0.4,0-0.8,0-1.1-0.2v-1.4c0.3,0.1,0.7,0.1,1,0.1c0.9,0,1.3-0.6,1.3-1.7v-9.7h1.6v9.6
				c0.1,0.8-0.2,1.7-0.7,2.3C367.6,249.9,366.8,250.2,366,250.1z"/>
			<path class="st2" d="M377.8,243.6c0.1,1-0.3,2.1-1,2.9c-0.7,0.7-1.7,1.1-2.6,1c-0.7,0-1.3-0.2-1.9-0.5c-0.5-0.3-1-0.8-1.2-1.4
				c-0.3-0.6-0.5-1.4-0.4-2.1c-0.1-1,0.3-2.1,0.9-2.9c0.7-0.7,1.7-1.1,2.7-1c1,0,1.9,0.3,2.6,1.1
				C377.5,241.5,377.9,242.5,377.8,243.6z M372.3,243.6c0,1.7,0.6,2.6,1.9,2.6s1.9-0.9,1.9-2.6s-0.6-2.6-1.9-2.6
				c-0.6,0-1.1,0.2-1.5,0.7C372.4,242.2,372.3,242.9,372.3,243.6z"/>
			<path class="st2" d="M383.3,239.7c0.9,0,1.7,0.3,2.2,1c1.1,1.8,1.1,4,0,5.8c-0.5,0.7-1.4,1-2.2,1c-0.9,0.1-1.7-0.3-2.2-1H381
				l-0.3,0.9h-1.2v-10.6h1.6v2.5c0,0.2,0,0.5,0,0.8s0,0.6,0,0.7h0.1C381.7,240.1,382.5,239.7,383.3,239.7z M382.9,241
				c-0.5-0.1-1.1,0.2-1.4,0.6c-0.3,0.6-0.5,1.2-0.4,1.9v0.1c-0.1,0.7,0.1,1.4,0.4,2c0.3,0.4,0.9,0.7,1.4,0.6c0.5,0,1-0.2,1.3-0.7
				c0.3-0.6,0.5-1.3,0.4-1.9C384.7,241.8,384.1,241,382.9,241z"/>
			<path class="st2" d="M342.1,264.2h-1.8l-1.7-6c-0.1-0.3-0.2-0.6-0.3-1.1s-0.2-0.8-0.2-1c0,0.3-0.1,0.7-0.2,1.1s-0.2,0.8-0.3,1
				l-1.6,6h-1.8l-1.3-5l-1.3-5h1.7l1.4,5.8c0.2,0.9,0.4,1.8,0.5,2.5c0-0.4,0.1-0.8,0.2-1.3s0.2-0.9,0.3-1.2l1.6-5.8h1.6l1.7,5.8
				c0.2,0.8,0.4,1.6,0.5,2.4c0.1-0.8,0.3-1.7,0.5-2.5l1.4-5.8h1.7L342.1,264.2z"/>
			<path class="st2" d="M352.4,260.4c0.1,1-0.3,2.1-1,2.9c-0.7,0.7-1.7,1.1-2.6,1c-0.7,0-1.3-0.2-1.9-0.5c-0.5-0.3-1-0.8-1.2-1.4
				c-0.3-0.7-0.5-1.4-0.4-2.1c-0.1-1,0.3-2.1,0.9-2.9c0.7-0.7,1.7-1.1,2.7-1c1-0.1,1.9,0.3,2.6,1
				C352.1,258.3,352.5,259.3,352.4,260.4z M346.9,260.4c0,1.7,0.6,2.6,1.9,2.6s1.9-0.9,1.9-2.6s-0.6-2.6-1.9-2.6
				c-0.6-0.1-1.1,0.2-1.5,0.7C347,259,346.9,259.7,346.9,260.4z"/>
			<path class="st2" d="M357.9,256.5c0.3,0,0.5,0,0.8,0.1l-0.2,1.5c-0.2-0.1-0.5-0.1-0.7-0.1c-0.6,0-1.2,0.2-1.6,0.6
				c-0.4,0.4-0.6,1-0.6,1.6v4h-1.6v-7.6h1.3l0.2,1.3h0.1c0.2-0.4,0.6-0.8,1-1.1C357,256.6,357.4,256.5,357.9,256.5z"/>
			<path class="st2" d="M361.4,260.2l0.9-1.1l2.3-2.4h1.9l-3,3.2l3.2,4.3h-1.9l-2.4-3.3l-0.9,0.7v2.6h-1.6v-10.6h1.6v5.2
				L361.4,260.2L361.4,260.2z"/>
			<path class="st2" d="M371,264.3c-1,0.1-2-0.3-2.8-1c-0.7-0.8-1.1-1.8-1-2.8c-0.1-1.1,0.3-2.1,0.9-2.9c0.6-0.7,1.6-1.1,2.5-1.1
				c0.9,0,1.7,0.3,2.4,0.9c0.6,0.7,0.9,1.6,0.9,2.5v0.9h-5c0,0.6,0.2,1.2,0.6,1.7c0.4,0.4,1,0.6,1.6,0.6c0.4,0,0.8,0,1.2-0.1
				c0.4-0.1,0.8-0.2,1.2-0.4v1.3c-0.4,0.2-0.8,0.3-1.2,0.4C371.9,264.3,371.5,264.3,371,264.3z M370.7,257.7c-0.5,0-0.9,0.2-1.2,0.5
				c-0.3,0.4-0.5,0.9-0.6,1.4h3.4c0-0.5-0.1-1-0.5-1.4C371.6,257.8,371.1,257.7,370.7,257.7L370.7,257.7z"/>
			<path class="st2" d="M379.4,256.5c0.3,0,0.5,0,0.8,0.1L380,258c-0.2-0.1-0.5-0.1-0.7-0.1c-0.6,0-1.2,0.2-1.6,0.6
				c-0.4,0.4-0.6,1-0.6,1.6v4h-1.6v-7.6h1.3l0.2,1.3h0.1c0.2-0.4,0.6-0.8,1-1.1C378.5,256.6,378.9,256.5,379.4,256.5z"/>
			<path class="st2" d="M435.7,237.4h3c1-0.1,2.1,0.1,3,0.6c0.6,0.4,1,1.1,0.9,1.9c0,0.5-0.1,1-0.5,1.5c-0.3,0.4-0.8,0.7-1.3,0.7
				v0.1c0.6,0.1,1.1,0.3,1.5,0.8c0.3,0.5,0.5,1,0.5,1.6c0,0.8-0.3,1.6-0.9,2.1c-0.8,0.6-1.7,0.8-2.6,0.8h-3.6L435.7,237.4z
				 M437.3,241.5h1.6c0.5,0,1-0.1,1.5-0.3c0.3-0.3,0.5-0.7,0.5-1.1c0-0.4-0.2-0.8-0.5-1c-0.5-0.2-1.1-0.4-1.6-0.3h-1.4L437.3,241.5z
				 M437.3,242.8v3.2h1.7c0.5,0,1.1-0.1,1.5-0.4c0.4-0.3,0.6-0.8,0.5-1.2c0-0.5-0.2-0.9-0.5-1.2c-0.5-0.3-1.1-0.4-1.6-0.4
				L437.3,242.8z"/>
			<path class="st2" d="M449.3,247.4l-0.3-1.1h0c-0.3,0.4-0.7,0.7-1.1,0.9c-0.5,0.2-0.9,0.3-1.4,0.2c-0.6,0-1.3-0.2-1.7-0.6
				c-0.4-0.5-0.7-1.1-0.6-1.7c0-0.7,0.3-1.4,0.9-1.8c0.8-0.5,1.7-0.7,2.6-0.6h1.3v-0.4c0-0.4-0.1-0.8-0.3-1.1
				c-0.3-0.2-0.6-0.4-1-0.4c-0.4,0-0.8,0.1-1.1,0.2c-0.3,0.1-0.7,0.2-1,0.4l-0.5-1.1c0.4-0.2,0.9-0.4,1.4-0.5
				c0.5-0.1,0.9-0.2,1.4-0.2c0.8-0.1,1.6,0.2,2.2,0.6c0.5,0.5,0.8,1.3,0.7,2v5.1L449.3,247.4z M446.9,246.3c0.5,0,1-0.2,1.4-0.5
				c0.4-0.4,0.6-0.9,0.5-1.4v-0.7l-1,0.1c-0.6,0-1.1,0.1-1.6,0.4c-0.3,0.2-0.5,0.6-0.5,1c0,0.3,0.1,0.6,0.3,0.8
				C446.2,246.2,446.6,246.3,446.9,246.3L446.9,246.3z"/>
			<path class="st2" d="M455.3,246.2c0.4,0,0.8-0.1,1.2-0.2v1.2c-0.2,0.1-0.4,0.2-0.7,0.2c-0.3,0.1-0.6,0.1-0.9,0.1
				c-1.5,0-2.3-0.8-2.3-2.4V241h-1v-0.7l1.1-0.6l0.5-1.6h1v1.7h2.1v1.2h-2.1v4c0,0.3,0.1,0.6,0.3,0.9
				C454.8,246.1,455,246.2,455.3,246.2z"/>
			<path class="st2" d="M460.8,247.5c-1,0.1-1.9-0.3-2.6-1c-0.6-0.8-1-1.8-0.9-2.9c-0.1-1.1,0.3-2.1,0.9-2.9c0.7-0.7,1.7-1.1,2.7-1
				c0.7,0,1.5,0.1,2.2,0.4l-0.5,1.3c-0.5-0.2-1.1-0.4-1.7-0.4c-1.3,0-2,0.9-2,2.6c0,0.7,0.1,1.3,0.5,1.9c0.3,0.4,0.9,0.7,1.4,0.6
				c0.7,0,1.4-0.2,2-0.5v1.3c-0.3,0.2-0.6,0.3-0.9,0.4C461.6,247.4,461.2,247.5,460.8,247.5z"/>
			<path class="st2" d="M471.1,247.4h-1.6v-4.6c0-0.5-0.1-0.9-0.4-1.3c-0.3-0.3-0.7-0.5-1.1-0.4c-0.6,0-1.1,0.2-1.5,0.6
				c-0.4,0.6-0.5,1.3-0.5,2v3.8h-1.6v-10.6h1.6v2.7c0,0.5,0,0.9-0.1,1.4h0.1c0.2-0.3,0.5-0.6,0.9-0.8c0.4-0.2,0.9-0.3,1.4-0.3
				c1.3-0.2,2.6,0.7,2.8,2.1c0,0.2,0,0.5,0,0.7L471.1,247.4z"/>
			<path class="st2" d="M475.5,250.1c-0.4,0-0.8,0-1.1-0.2v-1.4c0.3,0.1,0.7,0.1,1,0.1c0.9,0,1.3-0.6,1.3-1.7v-9.7h1.6v9.6
				c0.1,0.8-0.2,1.7-0.7,2.3C477.1,249.9,476.3,250.2,475.5,250.1z"/>
			<path class="st2" d="M487.3,243.6c0.1,1-0.3,2.1-1,2.9c-0.7,0.7-1.7,1.1-2.6,1c-0.7,0-1.3-0.2-1.9-0.5c-0.5-0.3-1-0.8-1.2-1.4
				c-0.3-0.7-0.5-1.4-0.4-2.1c-0.1-1,0.3-2.1,1-2.9c0.7-0.7,1.7-1.1,2.7-1c1,0,1.9,0.3,2.6,1.1C487,241.5,487.3,242.5,487.3,243.6z
				 M481.8,243.6c0,1.7,0.6,2.6,1.9,2.6s1.9-0.9,1.9-2.6s-0.6-2.6-1.9-2.6c-0.6-0.1-1.1,0.2-1.5,0.7
				C481.9,242.2,481.7,242.9,481.8,243.6z"/>
			<path class="st2" d="M492.8,239.7c0.9,0,1.7,0.3,2.2,1c1.1,1.8,1.1,4,0,5.8c-1,1.2-2.9,1.4-4.1,0.3c-0.1-0.1-0.2-0.2-0.3-0.3
				h-0.1l-0.3,0.9h-1.2v-10.6h1.6v2.5c0,0.2,0,0.5,0,0.8s0,0.6,0,0.7h0.1C491,240.1,491.9,239.6,492.8,239.7z M492.4,241
				c-0.5,0-1.1,0.2-1.4,0.6c-0.3,0.6-0.5,1.2-0.4,1.9v0.1c-0.1,0.7,0.1,1.4,0.4,2c0.3,0.4,0.9,0.7,1.4,0.6c0.5,0,1-0.2,1.3-0.7
				c0.3-0.6,0.5-1.3,0.5-1.9C494.1,241.9,493.5,241,492.4,241L492.4,241z"/>
			<path class="st2" d="M451.5,264.2h-1.8l-1.7-6c-0.1-0.3-0.2-0.6-0.3-1.1s-0.2-0.8-0.2-1c0,0.3-0.1,0.7-0.2,1.1s-0.2,0.8-0.2,1
				l-1.7,5.9h-1.8l-1.3-5l-1.3-5h1.7l1.4,5.8c0.2,0.8,0.4,1.6,0.5,2.5c0.1-0.4,0.1-0.8,0.2-1.3s0.2-0.9,0.3-1.2l1.6-5.8h1.6l1.7,5.9
				c0.2,0.8,0.4,1.6,0.5,2.4c0.1-0.8,0.3-1.7,0.5-2.5l1.4-5.8h1.6L451.5,264.2z"/>
			<path class="st2" d="M461.9,260.4c0.1,1-0.3,2.1-1,2.9c-0.7,0.7-1.7,1.1-2.6,1c-0.7,0-1.3-0.2-1.9-0.5c-0.5-0.3-1-0.8-1.2-1.4
				c-0.3-0.7-0.4-1.4-0.4-2.1c-0.1-1,0.3-2.1,0.9-2.9c0.7-0.7,1.7-1.1,2.7-1c1-0.1,1.9,0.3,2.6,1
				C461.6,258.3,461.9,259.3,461.9,260.4z M456.4,260.4c0,1.7,0.6,2.6,1.9,2.6s1.9-0.9,1.9-2.6s-0.6-2.6-1.9-2.6
				c-0.6,0-1.1,0.2-1.5,0.7C456.5,259,456.3,259.7,456.4,260.4z"/>
			<path class="st2" d="M467.4,256.5c0.3,0,0.5,0,0.8,0.1L468,258c-0.2-0.1-0.5-0.1-0.7-0.1c-0.6,0-1.2,0.2-1.6,0.6
				c-0.4,0.4-0.6,1-0.6,1.6v4h-1.6v-7.6h1.3l0.2,1.3h0.1c0.2-0.4,0.6-0.8,1-1.1C466.5,256.6,466.9,256.5,467.4,256.5z"/>
			<path class="st2" d="M470.9,260.2l0.9-1.1l2.3-2.4h1.9l-3,3.2l3.2,4.3h-1.9l-2.4-3.3l-0.9,0.7v2.6h-1.6v-10.6h1.6v5.2
				L470.9,260.2L470.9,260.2z"/>
			<path class="st2" d="M480.4,264.3c-1,0.1-2-0.3-2.8-1c-0.7-0.8-1.1-1.8-1-2.8c-0.1-1.1,0.3-2.1,0.9-2.9c0.6-0.7,1.6-1.1,2.5-1.1
				c0.9,0,1.7,0.3,2.4,0.9c0.6,0.7,0.9,1.6,0.9,2.5v0.9h-5c0,0.6,0.2,1.2,0.6,1.7c0.4,0.4,1,0.6,1.6,0.6c0.4,0,0.8,0,1.2-0.1
				c0.4-0.1,0.8-0.2,1.2-0.4v1.3c-0.4,0.2-0.8,0.3-1.2,0.4C481.4,264.3,480.9,264.3,480.4,264.3z M480.1,257.7
				c-0.5,0-0.9,0.2-1.2,0.5c-0.3,0.4-0.5,0.9-0.5,1.4h3.4c0-0.5-0.1-1-0.5-1.4C481,257.8,480.6,257.7,480.1,257.7z"/>
			<path class="st2" d="M488.8,256.5c0.3,0,0.5,0,0.8,0.1l-0.2,1.5c-0.2-0.1-0.5-0.1-0.7-0.1c-0.6,0-1.2,0.2-1.6,0.6
				c-0.4,0.4-0.6,1-0.6,1.6v4H485v-7.6h1.2l0.2,1.3h0.1c0.2-0.4,0.6-0.8,1-1.1C487.9,256.6,488.4,256.5,488.8,256.5z"/>
			<path class="st2" d="M217.4,237.4h3c1-0.1,2.1,0.1,3,0.6c0.6,0.4,1,1.1,0.9,1.9c0,0.5-0.1,1-0.4,1.5c-0.3,0.4-0.8,0.7-1.3,0.7
				v0.1c0.6,0.1,1.1,0.3,1.6,0.8c0.3,0.5,0.5,1,0.5,1.6c0,0.8-0.3,1.6-0.9,2.1c-0.8,0.6-1.7,0.8-2.6,0.8h-3.6L217.4,237.4z
				 M219.1,241.5h1.6c0.5,0,1-0.1,1.5-0.3c0.3-0.3,0.5-0.7,0.5-1.1c0-0.4-0.2-0.8-0.5-1c-0.5-0.2-1.1-0.4-1.6-0.3h-1.4L219.1,241.5z
				 M219.1,242.8v3.2h1.7c0.5,0,1.1-0.1,1.6-0.4c0.4-0.3,0.6-0.8,0.5-1.2c0-0.5-0.2-0.9-0.5-1.2c-0.5-0.3-1.1-0.4-1.6-0.4
				L219.1,242.8z"/>
			<path class="st2" d="M231,247.4l-0.3-1.1l0,0c-0.3,0.4-0.7,0.7-1.1,0.9c-0.5,0.2-0.9,0.3-1.4,0.2c-0.6,0-1.3-0.2-1.7-0.6
				c-0.4-0.5-0.7-1.1-0.6-1.7c0-0.7,0.3-1.4,0.9-1.8c0.8-0.5,1.7-0.7,2.6-0.6h1.3v-0.4c0-0.4-0.1-0.8-0.3-1.1
				c-0.3-0.3-0.7-0.4-1.1-0.4c-0.4,0-0.8,0.1-1.1,0.2c-0.3,0.1-0.7,0.2-1,0.4l-0.5-1.1c0.4-0.2,0.9-0.4,1.4-0.5
				c0.5-0.1,0.9-0.2,1.4-0.2c0.8-0.1,1.6,0.2,2.2,0.6c0.5,0.5,0.8,1.3,0.7,2v5.1L231,247.4z M228.6,246.3c0.5,0,1-0.2,1.4-0.5
				c0.4-0.4,0.6-0.9,0.5-1.4v-0.7l-1,0.1c-0.6,0-1.1,0.1-1.6,0.4c-0.3,0.2-0.5,0.6-0.5,1c0,0.3,0.1,0.6,0.3,0.8
				C227.9,246.2,228.3,246.3,228.6,246.3L228.6,246.3z"/>
			<path class="st2" d="M237,246.2c0.4,0,0.8-0.1,1.2-0.2v1.2c-0.2,0.1-0.5,0.1-0.7,0.2c-0.3,0.1-0.6,0.1-0.9,0.1
				c-1.5,0-2.3-0.8-2.3-2.4V241h-1v-0.7l1.1-0.6l0.6-1.6h1v1.7h2.1v1.2H236v4c0,0.3,0.1,0.6,0.3,0.9
				C236.5,246.1,236.7,246.2,237,246.2z"/>
			<path class="st2" d="M242.5,247.5c-1,0.1-1.9-0.3-2.6-1c-0.6-0.8-1-1.8-0.9-2.9c-0.1-1.1,0.3-2.1,0.9-2.9c0.7-0.7,1.7-1.1,2.7-1
				c0.7,0,1.5,0.1,2.2,0.4l-0.5,1.3c-0.5-0.2-1.1-0.4-1.7-0.4c-1.3,0-2,0.9-2,2.6c0,0.7,0.1,1.3,0.5,1.9c0.3,0.4,0.9,0.7,1.4,0.6
				c0.7,0,1.4-0.2,2-0.5v1.3c-0.3,0.2-0.6,0.3-0.9,0.4C243.3,247.4,242.9,247.5,242.5,247.5z"/>
			<path class="st2" d="M252.9,247.4h-1.6v-4.6c0-0.5-0.1-0.9-0.4-1.3c-0.3-0.3-0.7-0.5-1.1-0.4c-0.6,0-1.1,0.2-1.5,0.6
				c-0.4,0.6-0.5,1.3-0.5,2v3.8h-1.6v-10.6h1.6v2.7c0,0.5,0,0.9-0.1,1.4h0.1c0.2-0.4,0.5-0.7,0.9-0.8c0.4-0.2,0.9-0.3,1.4-0.3
				c1.3-0.2,2.6,0.7,2.8,2.1c0,0.2,0,0.5,0,0.7V247.4z"/>
			<path class="st2" d="M257.2,250.1c-0.4,0-0.8,0-1.1-0.2v-1.4c0.3,0.1,0.7,0.1,1,0.1c0.9,0,1.3-0.6,1.3-1.7v-9.7h1.6v9.6
				c0.1,0.8-0.2,1.7-0.7,2.3C258.8,249.9,258,250.2,257.2,250.1z"/>
			<path class="st2" d="M269,243.6c0.1,1-0.3,2.1-1,2.9c-0.7,0.7-1.7,1.1-2.6,1c-0.7,0-1.3-0.2-1.9-0.5c-0.5-0.3-1-0.8-1.2-1.4
				c-0.3-0.7-0.5-1.4-0.4-2.1c0-1,0.3-2.1,1-2.9c0.7-0.7,1.7-1.1,2.7-1c1,0,1.9,0.3,2.6,1.1C268.7,241.5,269.1,242.5,269,243.6z
				 M263.5,243.6c0,1.7,0.6,2.6,1.9,2.6s1.9-0.9,1.9-2.6s-0.6-2.6-1.9-2.6c-0.6-0.1-1.1,0.2-1.5,0.7
				C263.6,242.2,263.5,242.9,263.5,243.6z"/>
			<path class="st2" d="M274.5,239.7c0.9,0,1.7,0.3,2.2,1c1.1,1.8,1.1,4,0,5.8c-1,1.2-2.9,1.4-4.1,0.3c-0.1-0.1-0.2-0.2-0.3-0.3
				h-0.1l-0.3,0.9h-1.2v-10.6h1.6v2.5c0,0.2,0,0.5,0,0.8s0,0.6,0,0.7h0.1C272.8,240.1,273.6,239.6,274.5,239.7z M274.1,241
				c-0.5,0-1.1,0.2-1.4,0.6c-0.3,0.6-0.5,1.2-0.4,1.9v0.1c-0.1,0.7,0.1,1.4,0.4,2c0.3,0.4,0.9,0.7,1.4,0.6c0.5,0,1-0.2,1.3-0.7
				c0.3-0.6,0.5-1.3,0.5-1.9C275.9,241.9,275.3,241,274.1,241L274.1,241z"/>
			<path class="st2" d="M233.3,264.2h-1.8l-1.7-6c-0.1-0.3-0.2-0.6-0.3-1.1s-0.2-0.8-0.2-1c0,0.3-0.1,0.7-0.2,1.1s-0.2,0.8-0.2,1
				l-1.7,5.9h-1.8l-1.3-5l-1.3-5h1.7l1.4,5.9c0.2,0.8,0.4,1.6,0.5,2.5c0.1-0.4,0.1-0.8,0.2-1.3s0.2-0.9,0.3-1.2l1.6-5.8h1.6l1.7,5.9
				c0.2,0.8,0.4,1.6,0.5,2.4c0.1-0.8,0.3-1.7,0.5-2.5l1.4-5.8h1.6L233.3,264.2z"/>
			<path class="st2" d="M243.6,260.4c0.1,1-0.3,2.1-0.9,2.9c-0.7,0.7-1.7,1.1-2.6,1c-0.7,0-1.3-0.2-1.9-0.5c-0.5-0.3-1-0.8-1.2-1.4
				c-0.3-0.7-0.4-1.4-0.4-2.1c-0.1-1,0.3-2.1,0.9-2.9c0.7-0.7,1.7-1.1,2.7-1c1-0.1,1.9,0.3,2.6,1
				C243.3,258.3,243.7,259.3,243.6,260.4z M238.1,260.4c0,1.7,0.6,2.6,1.9,2.6s1.9-0.9,1.9-2.6s-0.6-2.6-1.9-2.6
				c-0.6,0-1.1,0.2-1.5,0.7C238.2,259,238.1,259.7,238.1,260.4z"/>
			<path class="st2" d="M249.1,256.5c0.3,0,0.5,0,0.8,0.1l-0.1,1.5c-0.2,0-0.5,0-0.7,0c-0.6,0-1.2,0.2-1.6,0.6
				c-0.4,0.4-0.6,1-0.6,1.6v4h-1.6v-7.7h1.3l0.2,1.3h0.1c0.2-0.4,0.6-0.8,1-1.1C248.2,256.6,248.6,256.5,249.1,256.5z"/>
			<path class="st2" d="M252.6,260.2l0.9-1.1l2.3-2.4h1.9l-3,3.2l3.2,4.3H256l-2.4-3.3l-0.9,0.7v2.6h-1.6v-10.6h1.6v5.2L252.6,260.2
				L252.6,260.2z"/>
			<path class="st2" d="M262.2,264.3c-1,0.1-2-0.3-2.8-1c-0.7-0.8-1.1-1.8-1-2.8c-0.1-1.1,0.3-2.1,0.9-2.9c0.6-0.7,1.6-1.1,2.5-1.1
				c0.9,0,1.7,0.3,2.4,0.9c0.6,0.7,0.9,1.6,0.9,2.5v0.9h-5c0,0.6,0.2,1.2,0.6,1.7c0.4,0.4,1,0.6,1.6,0.6c0.4,0,0.8,0,1.2-0.1
				c0.4-0.1,0.8-0.2,1.2-0.4v1.3c-0.4,0.2-0.8,0.3-1.2,0.4C263.1,264.3,262.6,264.3,262.2,264.3z M261.9,257.7
				c-0.5,0-0.9,0.2-1.2,0.5c-0.3,0.4-0.5,0.9-0.5,1.4h3.4c0-0.5-0.1-1-0.5-1.4C262.8,257.8,262.3,257.7,261.9,257.7z"/>
			<path class="st2" d="M270.5,256.5c0.3,0,0.5,0,0.8,0.1l-0.2,1.5c-0.2-0.1-0.5-0.1-0.7-0.1c-0.6,0-1.2,0.2-1.6,0.6
				c-0.4,0.4-0.6,1-0.6,1.6v4h-1.6v-7.6h1.3l0.2,1.3h0.1c0.2-0.4,0.6-0.8,1-1.1C269.7,256.6,270.1,256.5,270.5,256.5z"/>
		</g>
		<line class="st3" x1="436.9" y1="87.6" x2="567.2" y2="87.6"/>
		<g>
			<line class="st3" x1="356" y1="116.4" x2="356" y2="214.6"/>
			<polyline class="st3" points="356,182.9 465.4,182.9 465.4,214.6 			"/>
			<polyline class="st3" points="356,182.9 246.5,182.9 246.5,214.6 			"/>
			<line class="st3" x1="275" y1="87.6" x2="169.8" y2="87.6"/>
			<polyline class="st3" points="195.1,87.6 195.1,178.8 169.8,178.8 			"/>
			<polyline class="st3" points="574.4,250.5 540.4,250.5 540.4,103 444.1,103 			"/>
		</g>
		<g>
			<polygon class="st2" points="351,213.1 356,221.7 361,213.1 			"/>
			<polygon class="st2" points="460.5,213.1 465.4,221.7 470.4,213.1 			"/>
			<polygon class="st2" points="241.5,213.1 246.5,221.7 251.5,213.1 			"/>
			<polygon class="st2" points="171.2,82.7 162.6,87.6 171.2,92.6 			"/>
			<polygon class="st2" points="171.2,173.8 162.6,178.8 171.2,183.8 			"/>
			<polygon class="st2" points="565.7,92.6 574.4,87.6 565.7,82.7 			"/>
			<polygon class="st2" points="445.6,98 436.9,103 445.6,108 			"/>
		</g>
		<line class="st3" x1="640.8" y1="135.9" x2="640.8" y2="123.6"/>
		<polygon class="st2" points="645.8,125 640.8,116.4 635.8,125 		"/>
	</g>
</g>
</svg>
