<svg xmlns="http://www.w3.org/2000/svg" viewBox="0 0 745 338.14"><defs><style>.cls-1{fill:#ebf2f2;}.cls-2{fill:#fff;stroke:#6db33f;}.cls-2,.cls-4{stroke-miterlimit:10;stroke-width:2px;}.cls-3{fill:#333;}.cls-4{fill:none;stroke:#98afae;}.cls-5{fill:#98afae;}</style></defs><title>diagram-batch2</title><g id="Layer_2" data-name="Layer 2"><g id="Layer_1-2" data-name="Layer 1"><rect class="cls-1" width="745" height="338.14" rx="6.21"/><rect class="cls-2" x="275.02" y="58.89" width="161.91" height="57.51"/><rect class="cls-2" x="309.72" y="221.74" width="92.51" height="57.51"/><rect class="cls-2" x="38.01" y="58.89" width="124.56" height="57.51"/><rect class="cls-2" x="574.36" y="58.89" width="132.63" height="57.51"/><rect class="cls-2" x="574.36" y="136.71" width="132.63" height="57.51"/><rect class="cls-2" x="574.36" y="221.74" width="132.63" height="57.51"/><rect class="cls-2" x="38.01" y="150.04" width="124.56" height="57.51"/><rect class="cls-2" x="419.19" y="221.74" width="92.51" height="57.51"/><rect class="cls-2" x="200.91" y="221.74" width="92.51" height="57.51"/><path class="cls-3" d="M326.24,81.45h3a5.68,5.68,0,0,1,3,.6,2.11,2.11,0,0,1,.92,1.9,2.29,2.29,0,0,1-.46,1.45,2,2,0,0,1-1.29.74v.06a2.6,2.6,0,0,1,1.54.79,2.36,2.36,0,0,1,.5,1.58,2.56,2.56,0,0,1-.94,2.11,4,4,0,0,1-2.62.76h-3.61Zm1.64,4.13h1.57a2.69,2.69,0,0,0,1.5-.33,1.25,1.25,0,0,0,.47-1.1,1.11,1.11,0,0,0-.51-1,3.18,3.18,0,0,0-1.62-.32h-1.41Zm0,1.32v3.17h1.74a2.48,2.48,0,0,0,1.54-.4,1.44,1.44,0,0,0,.53-1.24,1.3,1.3,0,0,0-.54-1.15,2.8,2.8,0,0,0-1.62-.38Z"/><path class="cls-3" d="M339.84,91.44l-.32-1h-.06a3.09,3.09,0,0,1-1.1.94,3.58,3.58,0,0,1-1.42.25,2.42,2.42,0,0,1-1.74-.6,2.26,2.26,0,0,1-.63-1.71,2,2,0,0,1,.87-1.76,5,5,0,0,1,2.65-.65l1.3,0v-.4a1.52,1.52,0,0,0-.34-1.09A1.36,1.36,0,0,0,338,85a3.78,3.78,0,0,0-1.11.17,7.75,7.75,0,0,0-1,.41l-.52-1.15a5.61,5.61,0,0,1,1.34-.49,6.34,6.34,0,0,1,1.38-.17,3.28,3.28,0,0,1,2.18.63,2.47,2.47,0,0,1,.74,2v5.09Zm-2.4-1.09a2,2,0,0,0,1.41-.49,1.78,1.78,0,0,0,.53-1.37v-.66l-1,0a3.39,3.39,0,0,0-1.65.38,1.15,1.15,0,0,0-.52,1,1,1,0,0,0,.3.78A1.31,1.31,0,0,0,337.44,90.35Z"/><path class="cls-3" d="M345.83,90.28a3.69,3.69,0,0,0,1.18-.19V91.3a3,3,0,0,1-.69.2,4.94,4.94,0,0,1-.87.08c-1.52,0-2.28-.8-2.28-2.41V85.1h-1v-.71l1.1-.59.55-1.6h1v1.68h2.15V85.1h-2.15v4a1.14,1.14,0,0,0,.29.86A1.05,1.05,0,0,0,345.83,90.28Z"/><path class="cls-3" d="M351.36,91.58a3.35,3.35,0,0,1-2.61-1,5.09,5.09,0,0,1,0-5.81,3.47,3.47,0,0,1,2.7-1,5,5,0,0,1,2.15.45l-.48,1.29a5,5,0,0,0-1.68-.4c-1.31,0-2,.87-2,2.61A3.16,3.16,0,0,0,350,89.6a1.72,1.72,0,0,0,1.43.64,4.1,4.1,0,0,0,2-.54v1.41a3.45,3.45,0,0,1-.92.36A5.81,5.81,0,0,1,351.36,91.58Z"/><path class="cls-3" d="M361.68,91.44h-1.61V86.79a2,2,0,0,0-.35-1.3,1.36,1.36,0,0,0-1.12-.43,1.8,1.8,0,0,0-1.49.6,3.39,3.39,0,0,0-.47,2v3.75H355V80.8h1.61v2.7a13.73,13.73,0,0,1-.08,1.39h.1a2.26,2.26,0,0,1,.91-.85,3,3,0,0,1,1.37-.3,2.44,2.44,0,0,1,2.74,2.77Z"/><path class="cls-3" d="M366,94.23a3.3,3.3,0,0,1-1.12-.17V92.68a4,4,0,0,0,1,.15c.89,0,1.34-.57,1.34-1.7V81.45h1.64v9.63a3.37,3.37,0,0,1-.73,2.34A2.7,2.7,0,0,1,366,94.23Z"/><path class="cls-3" d="M377.81,87.65a4.1,4.1,0,0,1-.95,2.89,3.4,3.4,0,0,1-2.64,1,3.59,3.59,0,0,1-1.87-.48,3.11,3.11,0,0,1-1.25-1.38,4.51,4.51,0,0,1-.44-2.07,4.07,4.07,0,0,1,.94-2.87,3.43,3.43,0,0,1,2.66-1,3.36,3.36,0,0,1,2.6,1.06A4.06,4.06,0,0,1,377.81,87.65Zm-5.5,0c0,1.74.65,2.61,1.94,2.61s1.91-.87,1.91-2.61-.64-2.59-1.93-2.59a1.63,1.63,0,0,0-1.46.67A3.32,3.32,0,0,0,372.31,87.65Z"/><path class="cls-3" d="M383.31,83.74a2.64,2.64,0,0,1,2.21,1,5.63,5.63,0,0,1,0,5.77,2.91,2.91,0,0,1-4.45,0H381l-.3.89h-1.2V80.8h1.61v2.53q0,.28,0,.84c0,.37,0,.6,0,.7h.07A2.55,2.55,0,0,1,383.31,83.74Zm-.41,1.32a1.63,1.63,0,0,0-1.4.57,3.27,3.27,0,0,0-.44,1.91v.11a3.58,3.58,0,0,0,.43,2,1.64,1.64,0,0,0,1.43.61,1.45,1.45,0,0,0,1.3-.67,3.62,3.62,0,0,0,.44-2C384.66,85.91,384.07,85.06,382.9,85.06Z"/><path class="cls-3" d="M60.63,74a2.67,2.67,0,0,0-2.21,1,5.21,5.21,0,0,0,0,5.53,2.73,2.73,0,0,0,2.24,1,5.46,5.46,0,0,0,1.23-.13c.4-.08.81-.19,1.24-.32v1.4a7.61,7.61,0,0,1-2.66.44,4.23,4.23,0,0,1-3.37-1.33,5.51,5.51,0,0,1-1.18-3.8A6.16,6.16,0,0,1,56.46,75a4,4,0,0,1,1.65-1.79,5.06,5.06,0,0,1,2.54-.62,6.29,6.29,0,0,1,2.83.64l-.59,1.36a8.5,8.5,0,0,0-1.07-.42A3.9,3.9,0,0,0,60.63,74Z"/><path class="cls-3" d="M71.58,78.94a4.13,4.13,0,0,1-1,2.89,3.39,3.39,0,0,1-2.65,1,3.62,3.62,0,0,1-1.87-.48A3.14,3.14,0,0,1,64.86,81a4.72,4.72,0,0,1-.44-2.08,4.11,4.11,0,0,1,1-2.87A3.39,3.39,0,0,1,68,75a3.33,3.33,0,0,1,2.59,1A4.1,4.1,0,0,1,71.58,78.94Zm-5.5,0c0,1.75.64,2.62,1.93,2.62s1.92-.87,1.92-2.62-.65-2.59-1.93-2.59a1.63,1.63,0,0,0-1.47.67A3.45,3.45,0,0,0,66.08,78.94Z"/><path class="cls-3" d="M79.87,82.74H78.25V78.09a2,2,0,0,0-.35-1.31,1.35,1.35,0,0,0-1.12-.43,1.78,1.78,0,0,0-1.49.6,3.37,3.37,0,0,0-.47,2v3.77h-1.6V75.17h1.25l.23,1h.08a2.28,2.28,0,0,1,1-.84,3.37,3.37,0,0,1,1.4-.29c1.81,0,2.72.92,2.72,2.77Z"/><path class="cls-3" d="M85.69,76.39H83.84v6.35H82.23V76.39H81v-.75l1.25-.49v-.49a2.75,2.75,0,0,1,.63-2A2.58,2.58,0,0,1,84.78,72a5.37,5.37,0,0,1,1.67.28L86,73.52a3.62,3.62,0,0,0-1.13-.19.92.92,0,0,0-.8.34,1.65,1.65,0,0,0-.25,1v.49h1.85Zm1.19-3.22a.86.86,0,0,1,.23-.66.9.9,0,0,1,.67-.23.82.82,0,0,1,.9.89.87.87,0,0,1-.24.65.86.86,0,0,1-.66.23.9.9,0,0,1-.67-.23A.86.86,0,0,1,86.88,73.17Zm1.7,9.57H87V75.17h1.61Z"/><path class="cls-3" d="M97.06,75.17v.89l-1.3.24a2.11,2.11,0,0,1,.3.58,2.29,2.29,0,0,1,.11.74,2.26,2.26,0,0,1-.8,1.84,3.36,3.36,0,0,1-2.22.67,4.33,4.33,0,0,1-.66,0,.89.89,0,0,0-.52.75.43.43,0,0,0,.24.39,2.23,2.23,0,0,0,.9.13h1.31a3,3,0,0,1,1.9.53A1.87,1.87,0,0,1,97,83.42a2.22,2.22,0,0,1-1.06,2,5.5,5.5,0,0,1-3.06.7,4.2,4.2,0,0,1-2.36-.55A1.76,1.76,0,0,1,89.68,84a1.68,1.68,0,0,1,.44-1.17,2.36,2.36,0,0,1,1.24-.66,1.14,1.14,0,0,1-.53-.44,1.14,1.14,0,0,1,0-1.36,2.76,2.76,0,0,1,.71-.58,2.17,2.17,0,0,1-1-.82,2.46,2.46,0,0,1-.36-1.34A2.43,2.43,0,0,1,91,75.71,3.29,3.29,0,0,1,93.24,75a5.33,5.33,0,0,1,.67,0l.53.09Zm-5.94,8.74a.88.88,0,0,0,.46.8A2.59,2.59,0,0,0,92.9,85a4,4,0,0,0,2-.37,1.16,1.16,0,0,0,.64-1,.75.75,0,0,0-.35-.7,2.85,2.85,0,0,0-1.31-.21H92.62a1.75,1.75,0,0,0-1.1.32A1.07,1.07,0,0,0,91.12,83.91Zm.69-6.29a1.55,1.55,0,0,0,.36,1.1,1.42,1.42,0,0,0,1,.38c.93,0,1.4-.5,1.4-1.49a1.71,1.71,0,0,0-.35-1.14,1.3,1.3,0,0,0-1-.4,1.31,1.31,0,0,0-1,.4A1.65,1.65,0,0,0,91.81,77.62Z"/><path class="cls-3" d="M103.58,82.74l-.23-1h-.08a2.21,2.21,0,0,1-1,.83,3.18,3.18,0,0,1-1.41.3,2.78,2.78,0,0,1-2-.68,2.85,2.85,0,0,1-.68-2.07v-5H99.8v4.67a2,2,0,0,0,.36,1.3,1.33,1.33,0,0,0,1.11.43,1.8,1.8,0,0,0,1.49-.6,3.39,3.39,0,0,0,.47-2V75.17h1.61v7.57Z"/><path class="cls-3" d="M110.76,75a3.6,3.6,0,0,1,.8.07l-.16,1.49a3.29,3.29,0,0,0-.71-.08,2.06,2.06,0,0,0-1.56.63,2.26,2.26,0,0,0-.6,1.63v4h-1.61V75.17h1.26l.21,1.34h.09a3,3,0,0,1,1-1.08A2.33,2.33,0,0,1,110.76,75Z"/><path class="cls-3" d="M117.48,82.74l-.32-1.06h-.06a3,3,0,0,1-1.1.94,3.38,3.38,0,0,1-1.42.25,2.42,2.42,0,0,1-1.74-.6,2.27,2.27,0,0,1-.62-1.7,2,2,0,0,1,.87-1.77,5,5,0,0,1,2.64-.64l1.31,0v-.4a1.55,1.55,0,0,0-.34-1.08,1.39,1.39,0,0,0-1-.36,3.8,3.8,0,0,0-1.12.17,9,9,0,0,0-1,.4L113,75.69a6.46,6.46,0,0,1,2.73-.65,3.25,3.25,0,0,1,2.17.63,2.45,2.45,0,0,1,.74,2v5.1Zm-2.39-1.1a2,2,0,0,0,1.4-.49,1.74,1.74,0,0,0,.53-1.37v-.65l-1,0a3.23,3.23,0,0,0-1.65.38,1.15,1.15,0,0,0-.51,1,1,1,0,0,0,.3.78A1.26,1.26,0,0,0,115.09,81.64Z"/><path class="cls-3" d="M123.48,81.57a4,4,0,0,0,1.17-.18V82.6a2.82,2.82,0,0,1-.68.19,4.14,4.14,0,0,1-.87.08c-1.53,0-2.29-.8-2.29-2.4V76.39h-1v-.71l1.11-.59.54-1.6h1v1.68h2.15v1.22h-2.15v4a1.12,1.12,0,0,0,.29.86A1.05,1.05,0,0,0,123.48,81.57Z"/><path class="cls-3" d="M125.86,73.17a.9.9,0,0,1,.23-.66.92.92,0,0,1,.68-.23.89.89,0,0,1,.66.23,1,1,0,0,1,0,1.31.89.89,0,0,1-.66.23.92.92,0,0,1-.68-.23A.9.9,0,0,1,125.86,73.17Zm1.7,9.57H126V75.17h1.61Z"/><path class="cls-3" d="M136.35,78.94a4.08,4.08,0,0,1-.95,2.89,3.36,3.36,0,0,1-2.64,1,3.59,3.59,0,0,1-1.87-.48A3.16,3.16,0,0,1,129.63,81a4.71,4.71,0,0,1-.43-2.08,4.1,4.1,0,0,1,.94-2.87,3.42,3.42,0,0,1,2.66-1,3.35,3.35,0,0,1,2.6,1A4.14,4.14,0,0,1,136.35,78.94Zm-5.5,0c0,1.75.65,2.62,1.94,2.62s1.91-.87,1.91-2.62-.64-2.59-1.93-2.59a1.63,1.63,0,0,0-1.46.67A3.36,3.36,0,0,0,130.85,78.94Z"/><path class="cls-3" d="M144.64,82.74H143V78.09a2.07,2.07,0,0,0-.35-1.31,1.36,1.36,0,0,0-1.12-.43,1.77,1.77,0,0,0-1.49.6,3.3,3.3,0,0,0-.47,2v3.77H138V75.17h1.26l.22,1h.08a2.31,2.31,0,0,1,1-.84,3.32,3.32,0,0,1,1.39-.29c1.81,0,2.72.92,2.72,2.77Z"/><path class="cls-3" d="M86.3,96.82a2.51,2.51,0,0,1-1,2.09,4.17,4.17,0,0,1-2.66.76,6.34,6.34,0,0,1-2.77-.52V97.6a7.53,7.53,0,0,0,1.45.51,6.29,6.29,0,0,0,1.43.18,2.23,2.23,0,0,0,1.43-.37,1.18,1.18,0,0,0,.46-1,1.25,1.25,0,0,0-.42-1,6.11,6.11,0,0,0-1.75-.92,4.65,4.65,0,0,1-1.93-1.27A2.68,2.68,0,0,1,80,92.08a2.38,2.38,0,0,1,.89-2,3.68,3.68,0,0,1,2.39-.72,7,7,0,0,1,2.85.63l-.51,1.33a6.35,6.35,0,0,0-2.38-.56,1.86,1.86,0,0,0-1.21.34,1.16,1.16,0,0,0-.41.92,1.24,1.24,0,0,0,.17.66,1.71,1.71,0,0,0,.54.53,9.65,9.65,0,0,0,1.35.65,7.39,7.39,0,0,1,1.61.85,2.38,2.38,0,0,1,.76.9A2.66,2.66,0,0,1,86.3,96.82Z"/><path class="cls-3" d="M91.16,99.67a3.65,3.65,0,0,1-2.76-1,3.9,3.9,0,0,1-1-2.83,4.28,4.28,0,0,1,.92-2.91,3.18,3.18,0,0,1,2.54-1.06,3.1,3.1,0,0,1,2.36.91,3.46,3.46,0,0,1,.87,2.5v.87h-5a2.44,2.44,0,0,0,.6,1.69,2.08,2.08,0,0,0,1.58.59,5.42,5.42,0,0,0,1.24-.13,5.86,5.86,0,0,0,1.24-.42v1.31a4.77,4.77,0,0,1-1.19.4A7.92,7.92,0,0,1,91.16,99.67Zm-.29-6.62a1.64,1.64,0,0,0-1.23.49A2.31,2.31,0,0,0,89.09,95h3.43a2.1,2.1,0,0,0-.45-1.42A1.54,1.54,0,0,0,90.87,93.05Z"/><path class="cls-3" d="M99.55,91.84a3.6,3.6,0,0,1,.8.07l-.16,1.49a3.29,3.29,0,0,0-.71-.08,2.06,2.06,0,0,0-1.56.63,2.26,2.26,0,0,0-.6,1.63v4h-1.6V92H97l.21,1.34h.09a3,3,0,0,1,1-1.08A2.36,2.36,0,0,1,99.55,91.84Z"/><path class="cls-3" d="M103.26,99.54,100.39,92h1.7l1.54,4.4a8.68,8.68,0,0,1,.47,1.79h.06a11.78,11.78,0,0,1,.48-1.79l1.54-4.4h1.71L105,99.54Z"/><path class="cls-3" d="M112.13,99.67a3.64,3.64,0,0,1-2.76-1,3.87,3.87,0,0,1-1-2.83,4.24,4.24,0,0,1,.93-2.91,3.16,3.16,0,0,1,2.53-1.06,3.11,3.11,0,0,1,2.37.91,3.45,3.45,0,0,1,.86,2.5v.87h-5a2.48,2.48,0,0,0,.59,1.69,2.08,2.08,0,0,0,1.58.59,5.51,5.51,0,0,0,1.25-.13,6.05,6.05,0,0,0,1.24-.42v1.31a4.91,4.91,0,0,1-1.19.4A8,8,0,0,1,112.13,99.67Zm-.3-6.62a1.64,1.64,0,0,0-1.23.49,2.37,2.37,0,0,0-.55,1.42h3.44a2,2,0,0,0-.46-1.42A1.54,1.54,0,0,0,111.83,93.05Z"/><path class="cls-3" d="M120.51,91.84a3.48,3.48,0,0,1,.8.07l-.15,1.49a3.36,3.36,0,0,0-.71-.08,2.06,2.06,0,0,0-1.57.63,2.3,2.3,0,0,0-.59,1.63v4h-1.61V92h1.26l.21,1.34h.08a3.1,3.1,0,0,1,1-1.08A2.38,2.38,0,0,1,120.51,91.84Z"/><path class="cls-3" d="M602.85,90.93,600,82.58h-.06c.08,1.24.12,2.4.12,3.49v4.86h-1.49v-10h2.31l2.77,7.95h0l2.85-7.95h2.31v10h-1.57V86c0-.5,0-1.15,0-1.94s.05-1.29.06-1.45h-.05l-3,8.33Z"/><path class="cls-3" d="M614.37,91.07a3.67,3.67,0,0,1-2.76-1,3.89,3.89,0,0,1-1-2.84,4.27,4.27,0,0,1,.93-2.91,3.16,3.16,0,0,1,2.53-1.06,3.11,3.11,0,0,1,2.37.91,3.47,3.47,0,0,1,.87,2.5v.87h-5a2.48,2.48,0,0,0,.59,1.69,2.06,2.06,0,0,0,1.58.59,6.17,6.17,0,0,0,1.25-.12,7.57,7.57,0,0,0,1.24-.42v1.3a4.91,4.91,0,0,1-1.19.4A7.06,7.06,0,0,1,614.37,91.07Zm-.3-6.62a1.6,1.6,0,0,0-1.22.48,2.34,2.34,0,0,0-.56,1.42h3.44a2,2,0,0,0-.46-1.42A1.54,1.54,0,0,0,614.07,84.45Z"/><path class="cls-3" d="M621.74,89.77a3.67,3.67,0,0,0,1.17-.19v1.21a3.31,3.31,0,0,1-.68.2,5,5,0,0,1-.88.08c-1.52,0-2.28-.81-2.28-2.41V84.59h-1v-.72l1.11-.58.54-1.6h1v1.68h2.16v1.22h-2.16v4a1.14,1.14,0,0,0,.29.86A1.1,1.1,0,0,0,621.74,89.77Z"/><path class="cls-3" d="M628.05,83.23a3.6,3.6,0,0,1,.8.07l-.16,1.5a2.76,2.76,0,0,0-.71-.09,2.06,2.06,0,0,0-1.56.63,2.29,2.29,0,0,0-.6,1.64v4h-1.61V83.37h1.26l.21,1.33h.08a3,3,0,0,1,1-1.07A2.27,2.27,0,0,1,628.05,83.23Z"/><path class="cls-3" d="M629.94,81.37a.9.9,0,0,1,.24-.67.94.94,0,0,1,.67-.23.82.82,0,0,1,.9.9.83.83,0,0,1-.9.88.9.9,0,0,1-.67-.24A.86.86,0,0,1,629.94,81.37Zm1.71,9.56H630V83.37h1.61Z"/><path class="cls-3" d="M636.78,91.07a3.32,3.32,0,0,1-2.61-1,5.05,5.05,0,0,1,.05-5.8,3.43,3.43,0,0,1,2.69-1,5,5,0,0,1,2.16.45L638.58,85a4.76,4.76,0,0,0-1.68-.4c-1.31,0-2,.87-2,2.61a3.11,3.11,0,0,0,.49,1.91,1.7,1.7,0,0,0,1.43.64,4.09,4.09,0,0,0,2-.54v1.4A3.48,3.48,0,0,1,638,91,5.74,5.74,0,0,1,636.78,91.07Z"/><path class="cls-3" d="M645.53,88.78a2,2,0,0,1-.8,1.69,3.83,3.83,0,0,1-2.31.6,5.54,5.54,0,0,1-2.43-.46V89.22a6,6,0,0,0,2.48.62c1,0,1.48-.3,1.48-.9a.71.71,0,0,0-.16-.48,2,2,0,0,0-.54-.4,9.88,9.88,0,0,0-1-.46,4.82,4.82,0,0,1-1.76-1,1.87,1.87,0,0,1-.46-1.31,1.73,1.73,0,0,1,.78-1.51,3.69,3.69,0,0,1,2.13-.54,6,6,0,0,1,2.52.54L644.89,85a5.5,5.5,0,0,0-2.06-.5c-.84,0-1.27.24-1.27.72a.72.72,0,0,0,.33.6,7.19,7.19,0,0,0,1.45.68,6.62,6.62,0,0,1,1.36.66,2,2,0,0,1,.63.7A2,2,0,0,1,645.53,88.78Z"/><path class="cls-3" d="M656.42,88.21a2.54,2.54,0,0,1-1,2.1,4.25,4.25,0,0,1-2.66.76,6.38,6.38,0,0,1-2.78-.53V89a7.12,7.12,0,0,0,1.45.51,6.37,6.37,0,0,0,1.44.18,2.33,2.33,0,0,0,1.43-.36,1.21,1.21,0,0,0,.46-1,1.25,1.25,0,0,0-.42-.95,6.72,6.72,0,0,0-1.75-.92,4.6,4.6,0,0,1-1.93-1.26,2.72,2.72,0,0,1-.56-1.71,2.37,2.37,0,0,1,.89-2,3.65,3.65,0,0,1,2.38-.72,7,7,0,0,1,2.86.63l-.52,1.33a6.31,6.31,0,0,0-2.38-.56,1.81,1.81,0,0,0-1.2.35,1.11,1.11,0,0,0-.41.91,1.3,1.3,0,0,0,.16.67,1.69,1.69,0,0,0,.54.52,9.36,9.36,0,0,0,1.36.65,7.39,7.39,0,0,1,1.61.85,2.62,2.62,0,0,1,.75.9A2.66,2.66,0,0,1,656.42,88.21Z"/><path class="cls-3" d="M660.79,89.77a3.78,3.78,0,0,0,1.18-.19v1.21a3.63,3.63,0,0,1-.69.2,4.94,4.94,0,0,1-.87.08c-1.52,0-2.29-.81-2.29-2.41V84.59h-1v-.72l1.11-.58.55-1.6h1v1.68h2.15v1.22h-2.15v4a1.11,1.11,0,0,0,.29.86A1.08,1.08,0,0,0,660.79,89.77Z"/><path class="cls-3" d="M670,87.13a4.12,4.12,0,0,1-1,2.9,3.4,3.4,0,0,1-2.64,1,3.65,3.65,0,0,1-1.88-.48,3.17,3.17,0,0,1-1.25-1.38,4.68,4.68,0,0,1-.43-2.08,4.1,4.1,0,0,1,.94-2.87,3.44,3.44,0,0,1,2.66-1,3.33,3.33,0,0,1,2.6,1.06A4.1,4.1,0,0,1,670,87.13Zm-5.5,0c0,1.75.64,2.62,1.93,2.62s1.92-.87,1.92-2.62-.64-2.59-1.93-2.59a1.65,1.65,0,0,0-1.46.67A3.36,3.36,0,0,0,664.47,87.13Z"/><path class="cls-3" d="M675.44,83.23a3.54,3.54,0,0,1,.8.07l-.15,1.5a2.82,2.82,0,0,0-.71-.09,2.06,2.06,0,0,0-1.57.63,2.28,2.28,0,0,0-.59,1.64v4h-1.61V83.37h1.26l.21,1.33h.08a3,3,0,0,1,1-1.07A2.29,2.29,0,0,1,675.44,83.23Z"/><path class="cls-3" d="M680.74,91.07A3.67,3.67,0,0,1,678,90a3.93,3.93,0,0,1-1-2.84,4.27,4.27,0,0,1,.93-2.91,3.16,3.16,0,0,1,2.53-1.06,3.11,3.11,0,0,1,2.37.91,3.47,3.47,0,0,1,.87,2.5v.87h-5a2.48,2.48,0,0,0,.59,1.69,2.06,2.06,0,0,0,1.58.59,6.17,6.17,0,0,0,1.25-.12,7.57,7.57,0,0,0,1.24-.42v1.3a4.91,4.91,0,0,1-1.19.4A7.06,7.06,0,0,1,680.74,91.07Zm-.3-6.62a1.6,1.6,0,0,0-1.22.48,2.28,2.28,0,0,0-.55,1.42h3.43a2.1,2.1,0,0,0-.45-1.42A1.57,1.57,0,0,0,680.44,84.45Z"/><path class="cls-3" d="M613.94,165.65a5,5,0,0,1-1.37,3.79,5.55,5.55,0,0,1-4,1.31h-2.8v-10h3.09a5.09,5.09,0,0,1,3.71,1.29A4.76,4.76,0,0,1,613.94,165.65Zm-1.72.06c0-2.4-1.12-3.59-3.36-3.59h-1.41v7.25h1.16C611,169.37,612.22,168.15,612.22,165.71Z"/><path class="cls-3" d="M620.44,170.75l-.32-1.06h-.06a3,3,0,0,1-1.1.94,3.41,3.41,0,0,1-1.42.25,2.42,2.42,0,0,1-1.74-.6,2.24,2.24,0,0,1-.63-1.7,2,2,0,0,1,.87-1.77,5,5,0,0,1,2.65-.64l1.3,0v-.4a1.51,1.51,0,0,0-.34-1.08,1.36,1.36,0,0,0-1-.36,3.78,3.78,0,0,0-1.11.17,8.31,8.31,0,0,0-1,.4L616,163.7a6.08,6.08,0,0,1,1.34-.49,6.29,6.29,0,0,1,1.38-.16,3.28,3.28,0,0,1,2.18.63,2.45,2.45,0,0,1,.74,2v5.1Zm-2.4-1.1a2,2,0,0,0,1.41-.49,1.77,1.77,0,0,0,.53-1.37v-.65l-1,0a3.17,3.17,0,0,0-1.65.38,1.13,1.13,0,0,0-.52,1,1,1,0,0,0,.3.79A1.31,1.31,0,0,0,618,169.65Z"/><path class="cls-3" d="M628.7,168.59a2,2,0,0,1-.81,1.7,3.9,3.9,0,0,1-2.31.59,5.4,5.4,0,0,1-2.43-.46V169a6,6,0,0,0,2.48.61c1,0,1.49-.3,1.49-.89a.69.69,0,0,0-.17-.48,2,2,0,0,0-.54-.4,8.6,8.6,0,0,0-1-.46,4.87,4.87,0,0,1-1.77-1,1.84,1.84,0,0,1-.46-1.31,1.74,1.74,0,0,1,.78-1.51,3.77,3.77,0,0,1,2.13-.53,6,6,0,0,1,2.52.54l-.52,1.21a5.54,5.54,0,0,0-2-.51c-.85,0-1.28.24-1.28.73a.76.76,0,0,0,.34.6,7.62,7.62,0,0,0,1.44.68,6.37,6.37,0,0,1,1.36.66,2,2,0,0,1,.63.69A2,2,0,0,1,628.7,168.59Z"/><path class="cls-3" d="M636.87,170.75h-1.61V166.1a2.07,2.07,0,0,0-.35-1.31,1.36,1.36,0,0,0-1.12-.43,1.8,1.8,0,0,0-1.49.6,3.43,3.43,0,0,0-.47,2v3.76h-1.61V160.11h1.61v2.7c0,.43,0,.89-.08,1.39h.1a2.2,2.2,0,0,1,.91-.85,3,3,0,0,1,1.37-.3,2.43,2.43,0,0,1,2.74,2.77Z"/><path class="cls-3" d="M642.76,163.05a2.64,2.64,0,0,1,2.21,1,5.65,5.65,0,0,1,0,5.78,2.67,2.67,0,0,1-2.23,1,2.62,2.62,0,0,1-2.22-1h-.11l-.3.9h-1.2V160.11h1.61v2.53c0,.18,0,.46,0,.83s0,.61,0,.71h.07A2.53,2.53,0,0,1,642.76,163.05Zm-.41,1.31a1.63,1.63,0,0,0-1.4.57,3.22,3.22,0,0,0-.44,1.91V167a3.56,3.56,0,0,0,.43,2,1.65,1.65,0,0,0,1.43.62,1.47,1.47,0,0,0,1.3-.68,3.61,3.61,0,0,0,.44-1.95C644.11,165.22,643.52,164.36,642.35,164.36Z"/><path class="cls-3" d="M654.12,167a4.13,4.13,0,0,1-1,2.89,3.4,3.4,0,0,1-2.65,1,3.62,3.62,0,0,1-1.87-.48A3.14,3.14,0,0,1,647.4,169,4.72,4.72,0,0,1,647,167a4.13,4.13,0,0,1,.94-2.87,3.42,3.42,0,0,1,2.66-1,3.34,3.34,0,0,1,2.6,1A4.1,4.1,0,0,1,654.12,167Zm-5.5,0c0,1.75.64,2.62,1.93,2.62s1.91-.87,1.91-2.62-.64-2.59-1.92-2.59a1.63,1.63,0,0,0-1.47.67A3.45,3.45,0,0,0,648.62,167Z"/><path class="cls-3" d="M660.48,170.75l-.32-1.06h0a3.07,3.07,0,0,1-1.1.94,3.41,3.41,0,0,1-1.42.25,2.39,2.39,0,0,1-1.74-.6,2.24,2.24,0,0,1-.63-1.7,2,2,0,0,1,.87-1.77,5,5,0,0,1,2.64-.64l1.31,0v-.4a1.51,1.51,0,0,0-.34-1.08,1.36,1.36,0,0,0-1.05-.36,3.68,3.68,0,0,0-1.11.17,8.46,8.46,0,0,0-1,.4L656,163.7a6.16,6.16,0,0,1,1.35-.49,6.29,6.29,0,0,1,1.38-.16,3.28,3.28,0,0,1,2.18.63,2.45,2.45,0,0,1,.73,2v5.1Zm-2.39-1.1a2,2,0,0,0,1.41-.49,1.77,1.77,0,0,0,.53-1.37v-.65l-1,0a3.17,3.17,0,0,0-1.65.38,1.13,1.13,0,0,0-.52,1,1,1,0,0,0,.3.79A1.31,1.31,0,0,0,658.09,169.65Z"/><path class="cls-3" d="M667.5,163.05a3.6,3.6,0,0,1,.8.07l-.16,1.49a3.29,3.29,0,0,0-.71-.08,2.06,2.06,0,0,0-1.56.63,2.26,2.26,0,0,0-.6,1.63v4h-1.6v-7.57h1.25l.21,1.34h.09a3,3,0,0,1,1-1.08A2.33,2.33,0,0,1,667.5,163.05Z"/><path class="cls-3" d="M672,170.88a2.65,2.65,0,0,1-2.21-1,5.65,5.65,0,0,1,0-5.78,2.67,2.67,0,0,1,2.23-1,2.6,2.6,0,0,1,2.27,1.1h.08a9.29,9.29,0,0,1-.12-1.29v-2.75h1.62v10.64h-1.26l-.28-1h-.08A2.55,2.55,0,0,1,672,170.88Zm.43-1.3a1.74,1.74,0,0,0,1.44-.55,3,3,0,0,0,.47-1.81V167a3.39,3.39,0,0,0-.47-2,1.72,1.72,0,0,0-1.45-.6,1.48,1.48,0,0,0-1.31.69,3.57,3.57,0,0,0-.46,2,3.39,3.39,0,0,0,.45,1.91A1.49,1.49,0,0,0,672.47,169.58Z"/><path class="cls-3" d="M606.21,242.87a2.51,2.51,0,0,1-1,2.09,4.17,4.17,0,0,1-2.66.76,6.24,6.24,0,0,1-2.78-.53v-1.54a7.85,7.85,0,0,0,1.46.5,5.81,5.81,0,0,0,1.43.19,2.25,2.25,0,0,0,1.43-.37,1.2,1.2,0,0,0,.46-1,1.25,1.25,0,0,0-.42-.95,6.26,6.26,0,0,0-1.75-.92,4.58,4.58,0,0,1-1.93-1.27,2.68,2.68,0,0,1-.56-1.71,2.41,2.41,0,0,1,.89-2,3.68,3.68,0,0,1,2.39-.71,7.15,7.15,0,0,1,2.85.62l-.52,1.34a6.12,6.12,0,0,0-2.38-.56,1.83,1.83,0,0,0-1.2.34,1.15,1.15,0,0,0-.41.91,1.28,1.28,0,0,0,.17.67,1.5,1.5,0,0,0,.54.52,8.62,8.62,0,0,0,1.35.65,7.34,7.34,0,0,1,1.61.86,2.5,2.5,0,0,1,.75.89A2.73,2.73,0,0,1,606.21,242.87Z"/><path class="cls-3" d="M611.6,245.72a2.64,2.64,0,0,1-2.23-1h-.09c.06.64.09,1,.09,1.16V249h-1.6V238h1.3c0,.14.11.48.22,1h.08a2.53,2.53,0,0,1,2.26-1.14,2.62,2.62,0,0,1,2.2,1,5.63,5.63,0,0,1,0,5.77A2.66,2.66,0,0,1,611.6,245.72Zm-.39-6.52a1.69,1.69,0,0,0-1.4.56,2.92,2.92,0,0,0-.44,1.79v.24a3.55,3.55,0,0,0,.44,2,1.64,1.64,0,0,0,1.43.62,1.43,1.43,0,0,0,1.28-.69,4.34,4.34,0,0,0,0-3.87A1.51,1.51,0,0,0,611.21,239.2Z"/><path class="cls-3" d="M620.11,237.89a4.35,4.35,0,0,1,.8.06l-.15,1.5a3.36,3.36,0,0,0-.71-.08,2.06,2.06,0,0,0-1.57.63,2.3,2.3,0,0,0-.59,1.63v4h-1.61V238h1.26l.21,1.34h.08a3,3,0,0,1,1-1.08A2.38,2.38,0,0,1,620.11,237.89Z"/><path class="cls-3" d="M622,236a.86.86,0,0,1,.24-.66,1,1,0,0,1,1.33,0,.86.86,0,0,1,.23.66.88.88,0,0,1-.23.65,1.08,1.08,0,0,1-1.33,0A.88.88,0,0,1,622,236Zm1.7,9.56h-1.6V238h1.6Z"/><path class="cls-3" d="M632.45,245.58h-1.61v-4.65a2.06,2.06,0,0,0-.35-1.3,1.36,1.36,0,0,0-1.12-.43,1.77,1.77,0,0,0-1.49.6,3.28,3.28,0,0,0-.47,2v3.76H625.8V238h1.26l.22,1h.08a2.29,2.29,0,0,1,1-.83,3.18,3.18,0,0,1,1.39-.29,2.42,2.42,0,0,1,2.72,2.76Z"/><path class="cls-3" d="M640.86,238v.88l-1.29.24a2.16,2.16,0,0,1,.29.59,2.45,2.45,0,0,1-.69,2.58,3.93,3.93,0,0,1-2.88.61.93.93,0,0,0-.52.76.44.44,0,0,0,.25.39,2.2,2.2,0,0,0,.89.13h1.32a2.91,2.91,0,0,1,1.9.53,1.88,1.88,0,0,1,.65,1.54,2.24,2.24,0,0,1-1.06,2,5.63,5.63,0,0,1-3.06.7,4.26,4.26,0,0,1-2.36-.55,1.77,1.77,0,0,1-.82-1.56,1.65,1.65,0,0,1,.45-1.17,2.29,2.29,0,0,1,1.23-.66,1.19,1.19,0,0,1-.53-.44,1.14,1.14,0,0,1,0-1.36,2.94,2.94,0,0,1,.71-.58,2.09,2.09,0,0,1-1-.82,2.68,2.68,0,0,1,.41-3.25,3.26,3.26,0,0,1,2.21-.67,5.22,5.22,0,0,1,.67,0,4.67,4.67,0,0,1,.53.09Zm-5.94,8.74a.89.89,0,0,0,.47.8,2.53,2.53,0,0,0,1.31.28,4,4,0,0,0,2-.38,1.12,1.12,0,0,0,.64-1,.77.77,0,0,0-.35-.7,3,3,0,0,0-1.31-.2h-1.22a1.67,1.67,0,0,0-1.09.32A1.08,1.08,0,0,0,634.92,246.76Zm.69-6.29a1.48,1.48,0,0,0,.37,1.09,1.36,1.36,0,0,0,1,.39c.93,0,1.39-.5,1.39-1.49a1.74,1.74,0,0,0-.34-1.14,1.3,1.3,0,0,0-1.05-.4,1.37,1.37,0,0,0-1.06.39A1.68,1.68,0,0,0,635.61,240.47Z"/><path class="cls-3" d="M649.9,236.85a2.68,2.68,0,0,0-2.21,1,5.22,5.22,0,0,0,0,5.54,2.72,2.72,0,0,0,2.24,1,6.1,6.1,0,0,0,1.23-.13c.4-.09.81-.19,1.24-.33v1.41a7.63,7.63,0,0,1-2.67.44,4.26,4.26,0,0,1-3.37-1.33,5.57,5.57,0,0,1-1.17-3.8,6.16,6.16,0,0,1,.57-2.73,4,4,0,0,1,1.65-1.79,4.93,4.93,0,0,1,2.54-.62,6.29,6.29,0,0,1,2.83.64l-.59,1.36a9.15,9.15,0,0,0-1.07-.42A3.9,3.9,0,0,0,649.9,236.85Z"/><path class="cls-3" d="M655.75,245.58h-1.61V235h1.61Z"/><path class="cls-3" d="M664.54,241.79a4.14,4.14,0,0,1-.95,2.89,3.41,3.41,0,0,1-2.65,1,3.62,3.62,0,0,1-1.87-.48,3.2,3.2,0,0,1-1.25-1.37,4.72,4.72,0,0,1-.44-2.08,4.09,4.09,0,0,1,1-2.87,3.41,3.41,0,0,1,2.66-1,3.32,3.32,0,0,1,2.59,1.05A4.1,4.1,0,0,1,664.54,241.79Zm-5.5,0c0,1.75.64,2.62,1.93,2.62s1.92-.87,1.92-2.62-.65-2.59-1.93-2.59a1.64,1.64,0,0,0-1.47.67A3.45,3.45,0,0,0,659,241.79Z"/><path class="cls-3" d="M671.51,245.58l-.23-1h-.08a2.27,2.27,0,0,1-1,.83,3.21,3.21,0,0,1-1.41.3,2.83,2.83,0,0,1-2.06-.68,2.86,2.86,0,0,1-.67-2.08V238h1.62v4.66a2.09,2.09,0,0,0,.35,1.31,1.36,1.36,0,0,0,1.12.43,1.76,1.76,0,0,0,1.48-.6,3.33,3.33,0,0,0,.48-2V238h1.61v7.56Z"/><path class="cls-3" d="M677.4,245.72a2.63,2.63,0,0,1-2.21-1,5.6,5.6,0,0,1,0-5.77,2.64,2.64,0,0,1,2.22-1,2.6,2.6,0,0,1,2.27,1.1h.08a9.12,9.12,0,0,1-.11-1.29V235h1.61v10.63H680l-.28-1h-.07A2.59,2.59,0,0,1,677.4,245.72Zm.43-1.3a1.74,1.74,0,0,0,1.45-.56,2.92,2.92,0,0,0,.46-1.8v-.23a3.39,3.39,0,0,0-.46-2,1.74,1.74,0,0,0-1.46-.6,1.49,1.49,0,0,0-1.31.69,3.54,3.54,0,0,0-.45,2,3.41,3.41,0,0,0,.44,1.92A1.5,1.5,0,0,0,677.83,244.42Z"/><path class="cls-3" d="M617.57,257.29a5,5,0,0,1-1.38,3.78,5.46,5.46,0,0,1-4,1.31h-2.8v-10h3.09a5.13,5.13,0,0,1,3.71,1.28A4.8,4.8,0,0,1,617.57,257.29Zm-1.72,0q0-3.58-3.36-3.58h-1.42V261h1.17C614.64,261,615.85,259.79,615.85,257.34Z"/><path class="cls-3" d="M624.06,262.38l-.32-1.05h0a3.18,3.18,0,0,1-1.1.94,3.44,3.44,0,0,1-1.42.25,2.39,2.39,0,0,1-1.74-.6,2.24,2.24,0,0,1-.63-1.7,2,2,0,0,1,.87-1.77,5.1,5.1,0,0,1,2.64-.65l1.31,0v-.4a1.49,1.49,0,0,0-.34-1.08,1.38,1.38,0,0,0-1-.36,3.39,3.39,0,0,0-1.11.17,8.46,8.46,0,0,0-1,.4l-.52-1.15a5.69,5.69,0,0,1,1.35-.49,6.29,6.29,0,0,1,1.38-.16,3.33,3.33,0,0,1,2.18.62,2.47,2.47,0,0,1,.73,2v5.09Zm-2.39-1.09a2,2,0,0,0,1.41-.49,1.78,1.78,0,0,0,.52-1.37v-.66l-1,0a3.45,3.45,0,0,0-1.65.38,1.16,1.16,0,0,0-.51,1,1,1,0,0,0,.3.78A1.26,1.26,0,0,0,621.67,261.29Z"/><path class="cls-3" d="M630.06,261.22a4.08,4.08,0,0,0,1.18-.18v1.21a3.7,3.7,0,0,1-.69.19,4.94,4.94,0,0,1-.87.08c-1.52,0-2.29-.8-2.29-2.41V256h-1v-.71l1.11-.59.55-1.6h1v1.68h2.15V256H629v4a1.1,1.1,0,0,0,.29.85A1,1,0,0,0,630.06,261.22Z"/><path class="cls-3" d="M637.27,262.38l-.32-1.05h-.06a3.09,3.09,0,0,1-1.1.94,3.41,3.41,0,0,1-1.42.25,2.42,2.42,0,0,1-1.74-.6,2.24,2.24,0,0,1-.63-1.7,2,2,0,0,1,.87-1.77,5.11,5.11,0,0,1,2.65-.65l1.3,0v-.4a1.49,1.49,0,0,0-.34-1.08,1.36,1.36,0,0,0-1.05-.36,3.48,3.48,0,0,0-1.11.17,8.31,8.31,0,0,0-1,.4l-.52-1.15a5.77,5.77,0,0,1,1.34-.49,6.29,6.29,0,0,1,1.38-.16,3.31,3.31,0,0,1,2.18.62,2.47,2.47,0,0,1,.74,2v5.09Zm-2.4-1.09a2,2,0,0,0,1.41-.49,1.78,1.78,0,0,0,.53-1.37v-.66l-1,0a3.39,3.39,0,0,0-1.65.38,1.15,1.15,0,0,0-.52,1,1,1,0,0,0,.3.78A1.26,1.26,0,0,0,634.87,261.29Z"/><path class="cls-3" d="M645.67,262.38h-1.62v-10h5.63v1.38h-4v3.12h3.76v1.39h-3.76Z"/><path class="cls-3" d="M652.72,262.38h-1.6V251.75h1.6Z"/><path class="cls-3" d="M661.51,258.59a4.1,4.1,0,0,1-1,2.89,3.4,3.4,0,0,1-2.64,1,3.59,3.59,0,0,1-1.87-.48,3.13,3.13,0,0,1-1.25-1.37,4.58,4.58,0,0,1-.44-2.08,4.09,4.09,0,0,1,.94-2.87,3.42,3.42,0,0,1,2.66-1,3.35,3.35,0,0,1,2.6,1.05A4.09,4.09,0,0,1,661.51,258.59Zm-5.5,0c0,1.75.65,2.62,1.94,2.62s1.91-.87,1.91-2.62-.64-2.59-1.93-2.59a1.63,1.63,0,0,0-1.46.67A3.36,3.36,0,0,0,656,258.59Z"/><path class="cls-3" d="M669.35,262.38l-1-3.52c-.11-.38-.33-1.25-.64-2.61h-.06c-.26,1.23-.48,2.1-.63,2.62l-1,3.51h-1.78l-2.12-7.56h1.64l1,3.73c.22.92.38,1.71.47,2.36h0a10.91,10.91,0,0,1,.21-1.14c.09-.43.17-.75.24-1l1.15-4h1.76l1.12,4c.07.22.15.57.25,1a5.88,5.88,0,0,1,.18,1.07h.06a21.74,21.74,0,0,1,.48-2.35l1-3.73h1.61l-2.13,7.56Z"/><path class="cls-3" d="M83.91,171.17a2.52,2.52,0,0,1-1,2.1,4.23,4.23,0,0,1-2.66.76,6.33,6.33,0,0,1-2.77-.53V172a6.91,6.91,0,0,0,1.45.51,6.29,6.29,0,0,0,1.43.18,2.35,2.35,0,0,0,1.44-.36,1.29,1.29,0,0,0,0-1.95,6.38,6.38,0,0,0-1.75-.92,4.62,4.62,0,0,1-1.92-1.26,2.67,2.67,0,0,1-.57-1.71,2.4,2.4,0,0,1,.89-2,3.7,3.7,0,0,1,2.39-.72,7,7,0,0,1,2.86.63l-.52,1.33a6.31,6.31,0,0,0-2.38-.56,1.81,1.81,0,0,0-1.2.35,1.12,1.12,0,0,0-.42.91,1.31,1.31,0,0,0,.17.67,1.69,1.69,0,0,0,.54.52,9.65,9.65,0,0,0,1.35.65,7.51,7.51,0,0,1,1.62.85,2.62,2.62,0,0,1,.75.9A2.66,2.66,0,0,1,83.91,171.17Z"/><path class="cls-3" d="M88.76,174A3.7,3.7,0,0,1,86,173a3.93,3.93,0,0,1-1-2.84,4.32,4.32,0,0,1,.92-2.91,3.18,3.18,0,0,1,2.54-1.06,3.07,3.07,0,0,1,2.36.91,3.47,3.47,0,0,1,.87,2.5v.87h-5a2.53,2.53,0,0,0,.6,1.69,2,2,0,0,0,1.58.59,6.24,6.24,0,0,0,1.25-.12,7.9,7.9,0,0,0,1.24-.42v1.3a5.06,5.06,0,0,1-1.19.4A7.09,7.09,0,0,1,88.76,174Zm-.29-6.62a1.63,1.63,0,0,0-1.23.48,2.33,2.33,0,0,0-.55,1.42h3.43a2.1,2.1,0,0,0-.45-1.42A1.54,1.54,0,0,0,88.47,167.41Z"/><path class="cls-3" d="M97.15,166.19a3.54,3.54,0,0,1,.8.07l-.16,1.5a2.71,2.71,0,0,0-.71-.09,2.06,2.06,0,0,0-1.56.63,2.29,2.29,0,0,0-.6,1.64v3.95h-1.6v-7.56h1.25l.22,1.33h.08a3,3,0,0,1,1-1.07A2.29,2.29,0,0,1,97.15,166.19Z"/><path class="cls-3" d="M100.87,173.89,98,166.33h1.7l1.54,4.39a9.54,9.54,0,0,1,.48,1.79h.05a12.09,12.09,0,0,1,.48-1.79l1.54-4.39h1.71l-2.89,7.56Z"/><path class="cls-3" d="M106.33,164.33a.9.9,0,0,1,.24-.67,1.08,1.08,0,0,1,1.33,0,.9.9,0,0,1,.23.67.85.85,0,0,1-.23.64,1,1,0,0,1-1.33,0A.86.86,0,0,1,106.33,164.33Zm1.7,9.56h-1.6v-7.56H108Z"/><path class="cls-3" d="M113.17,174a3.3,3.3,0,0,1-2.61-1,5.08,5.08,0,0,1,0-5.8,3.44,3.44,0,0,1,2.7-1,5,5,0,0,1,2.15.45l-.48,1.29a4.76,4.76,0,0,0-1.69-.4c-1.3,0-2,.87-2,2.61a3.18,3.18,0,0,0,.49,1.91,1.71,1.71,0,0,0,1.43.64,4,4,0,0,0,2-.54v1.4a3.23,3.23,0,0,1-.92.37A5.64,5.64,0,0,1,113.17,174Z"/><path class="cls-3" d="M120.14,174a3.7,3.7,0,0,1-2.76-1,3.93,3.93,0,0,1-1-2.84,4.32,4.32,0,0,1,.92-2.91,3.18,3.18,0,0,1,2.54-1.06,3.07,3.07,0,0,1,2.36.91,3.47,3.47,0,0,1,.87,2.5v.87h-5a2.48,2.48,0,0,0,.6,1.69,2,2,0,0,0,1.58.59,6.24,6.24,0,0,0,1.25-.12,7.9,7.9,0,0,0,1.24-.42v1.3a5.06,5.06,0,0,1-1.19.4A7.09,7.09,0,0,1,120.14,174Zm-.29-6.62a1.63,1.63,0,0,0-1.23.48,2.33,2.33,0,0,0-.55,1.42h3.43a2.1,2.1,0,0,0-.45-1.42A1.54,1.54,0,0,0,119.85,167.41Z"/><path class="cls-3" d="M77.79,185.6a5,5,0,0,1-1.37,3.78,5.55,5.55,0,0,1-4,1.31h-2.8v-10h3.09A5.09,5.09,0,0,1,76.46,182,4.79,4.79,0,0,1,77.79,185.6Zm-1.72.05q0-3.59-3.36-3.59H71.3v7.25h1.16C74.86,189.31,76.07,188.09,76.07,185.65Z"/><path class="cls-3" d="M79.46,181.13a.9.9,0,0,1,.24-.67,1.08,1.08,0,0,1,1.33,0,.9.9,0,0,1,.23.67.85.85,0,0,1-.23.64,1,1,0,0,1-1.33,0A.86.86,0,0,1,79.46,181.13Zm1.7,9.56h-1.6v-7.56h1.6Z"/><path class="cls-3" d="M88.33,188.54a2,2,0,0,1-.81,1.69,3.83,3.83,0,0,1-2.31.6,5.57,5.57,0,0,1-2.43-.46V189a6,6,0,0,0,2.49.61c1,0,1.48-.29,1.48-.89a.77.77,0,0,0-.16-.48,2,2,0,0,0-.54-.4,10.9,10.9,0,0,0-1-.46,5,5,0,0,1-1.77-1,1.87,1.87,0,0,1-.46-1.31,1.73,1.73,0,0,1,.78-1.51,3.71,3.71,0,0,1,2.13-.54,6.08,6.08,0,0,1,2.53.54l-.52,1.21a5.58,5.58,0,0,0-2.06-.5c-.85,0-1.27.24-1.27.72a.72.72,0,0,0,.33.6,7,7,0,0,0,1.44.68,6.37,6.37,0,0,1,1.36.66,1.86,1.86,0,0,1,.63.69A2,2,0,0,1,88.33,188.54Z"/><path class="cls-3" d="M92.9,190.83a3.29,3.29,0,0,1-2.6-1,5,5,0,0,1,0-5.8A3.43,3.43,0,0,1,93,183a5,5,0,0,1,2.16.45l-.49,1.29a4.76,4.76,0,0,0-1.68-.4c-1.31,0-2,.87-2,2.61a3.11,3.11,0,0,0,.49,1.91,1.7,1.7,0,0,0,1.43.64,4.09,4.09,0,0,0,2-.54v1.4a3.35,3.35,0,0,1-.92.37A5.74,5.74,0,0,1,92.9,190.83Z"/><path class="cls-3" d="M103.28,186.89a4.12,4.12,0,0,1-1,2.9,3.4,3.4,0,0,1-2.64,1,3.65,3.65,0,0,1-1.88-.48A3.17,3.17,0,0,1,96.56,189a4.68,4.68,0,0,1-.43-2.08,4.1,4.1,0,0,1,.94-2.87,3.44,3.44,0,0,1,2.66-1,3.33,3.33,0,0,1,2.6,1.06A4.1,4.1,0,0,1,103.28,186.89Zm-5.5,0c0,1.75.64,2.62,1.93,2.62s1.92-.87,1.92-2.62-.64-2.59-1.93-2.59a1.68,1.68,0,0,0-1.47.67A3.45,3.45,0,0,0,97.78,186.89Z"/><path class="cls-3" d="M106.64,190.69l-2.87-7.56h1.7l1.53,4.39a8.2,8.2,0,0,1,.48,1.79h.06a13,13,0,0,1,.47-1.79l1.54-4.39h1.71l-2.88,7.56Z"/><path class="cls-3" d="M115.5,190.83a3.7,3.7,0,0,1-2.76-1,3.93,3.93,0,0,1-1-2.84,4.32,4.32,0,0,1,.92-2.91,3.18,3.18,0,0,1,2.54-1.06,3.09,3.09,0,0,1,2.36.91,3.47,3.47,0,0,1,.87,2.5v.87h-5A2.48,2.48,0,0,0,114,189a2,2,0,0,0,1.58.59,6.07,6.07,0,0,0,1.24-.12,7.65,7.65,0,0,0,1.25-.42v1.3a5.06,5.06,0,0,1-1.19.4A7.09,7.09,0,0,1,115.5,190.83Zm-.29-6.62a1.63,1.63,0,0,0-1.23.48,2.33,2.33,0,0,0-.55,1.42h3.43a2.1,2.1,0,0,0-.45-1.42A1.54,1.54,0,0,0,115.21,184.21Z"/><path class="cls-3" d="M123.89,183a3.54,3.54,0,0,1,.8.07l-.16,1.5a2.71,2.71,0,0,0-.71-.09,2.06,2.06,0,0,0-1.56.63,2.29,2.29,0,0,0-.6,1.64v3.95h-1.6v-7.56h1.25l.22,1.33h.08a3,3,0,0,1,1-1.07A2.29,2.29,0,0,1,123.89,183Z"/><path class="cls-3" d="M124.73,183.13h1.75l1.54,4.28a8.48,8.48,0,0,1,.47,1.73h0a7.21,7.21,0,0,1,.23-.92q.16-.53,1.73-5.09h1.74L129,191.69c-.59,1.58-1.57,2.36-2.94,2.36a5.1,5.1,0,0,1-1-.11v-1.28a3.46,3.46,0,0,0,.83.09,1.7,1.7,0,0,0,1.63-1.35l.28-.71Z"/><path class="cls-3" d="M326.24,237.37h3a5.68,5.68,0,0,1,3,.6,2.12,2.12,0,0,1,.92,1.9,2.34,2.34,0,0,1-.46,1.46,2,2,0,0,1-1.29.73v.07a2.54,2.54,0,0,1,1.54.78,2.37,2.37,0,0,1,.5,1.58,2.56,2.56,0,0,1-.94,2.11,4,4,0,0,1-2.62.76h-3.61Zm1.64,4.13h1.57a2.69,2.69,0,0,0,1.5-.33,1.24,1.24,0,0,0,.47-1.1,1.11,1.11,0,0,0-.51-1,3.19,3.19,0,0,0-1.62-.31h-1.41Zm0,1.32V246h1.74a2.55,2.55,0,0,0,1.54-.39,1.47,1.47,0,0,0,.53-1.24,1.32,1.32,0,0,0-.54-1.16,2.8,2.8,0,0,0-1.62-.38Z"/><path class="cls-3" d="M339.84,247.36l-.32-1.05h-.06a3.09,3.09,0,0,1-1.1.94,3.41,3.41,0,0,1-1.42.25,2.42,2.42,0,0,1-1.74-.6,2.24,2.24,0,0,1-.63-1.7,2,2,0,0,1,.87-1.77,5.11,5.11,0,0,1,2.65-.65l1.3,0v-.4a1.49,1.49,0,0,0-.34-1.08,1.36,1.36,0,0,0-1.05-.36,3.48,3.48,0,0,0-1.11.17,7.73,7.73,0,0,0-1,.4l-.52-1.15a6.08,6.08,0,0,1,1.34-.49,6.29,6.29,0,0,1,1.38-.16,3.28,3.28,0,0,1,2.18.63,2.43,2.43,0,0,1,.73,2v5.09Zm-2.4-1.09a2,2,0,0,0,1.41-.49,1.77,1.77,0,0,0,.53-1.37v-.66l-1,.05a3.29,3.29,0,0,0-1.65.37,1.16,1.16,0,0,0-.52,1,1,1,0,0,0,.3.78A1.26,1.26,0,0,0,337.44,246.27Z"/><path class="cls-3" d="M345.83,246.2A4,4,0,0,0,347,246v1.21a3.7,3.7,0,0,1-.69.19,4.94,4.94,0,0,1-.87.08c-1.52,0-2.28-.8-2.28-2.41V241h-1v-.71l1.1-.59.55-1.6h1v1.68h2.15V241h-2.15v4a1.13,1.13,0,0,0,.29.85A1,1,0,0,0,345.83,246.2Z"/><path class="cls-3" d="M351.36,247.5a3.32,3.32,0,0,1-2.61-1,5.09,5.09,0,0,1,0-5.81,3.47,3.47,0,0,1,2.7-1,5,5,0,0,1,2.15.44l-.48,1.29a4.94,4.94,0,0,0-1.69-.39c-1.3,0-2,.86-2,2.6a3.16,3.16,0,0,0,.49,1.91,1.68,1.68,0,0,0,1.43.64,4.13,4.13,0,0,0,2-.53V247a3,3,0,0,1-.91.36A5.81,5.81,0,0,1,351.36,247.5Z"/><path class="cls-3" d="M361.68,247.36h-1.61v-4.65a2.06,2.06,0,0,0-.35-1.3,1.36,1.36,0,0,0-1.12-.43,1.8,1.8,0,0,0-1.49.6,3.41,3.41,0,0,0-.47,2v3.75H355V236.73h1.61v2.7a13.71,13.71,0,0,1-.08,1.38h.1a2.24,2.24,0,0,1,.91-.84,3,3,0,0,1,1.36-.3,2.43,2.43,0,0,1,2.75,2.76Z"/><path class="cls-3" d="M366,250.15a3.3,3.3,0,0,1-1.12-.17v-1.37a4.5,4.5,0,0,0,1,.14c.89,0,1.34-.56,1.34-1.69v-9.69h1.64V247a3.37,3.37,0,0,1-.73,2.34A2.7,2.7,0,0,1,366,250.15Z"/><path class="cls-3" d="M377.81,243.57a4.1,4.1,0,0,1-.95,2.89,3.4,3.4,0,0,1-2.64,1,3.59,3.59,0,0,1-1.87-.48,3.13,3.13,0,0,1-1.25-1.37,4.58,4.58,0,0,1-.44-2.08,4.09,4.09,0,0,1,.94-2.87,3.42,3.42,0,0,1,2.66-1,3.35,3.35,0,0,1,2.6,1.05A4.09,4.09,0,0,1,377.81,243.57Zm-5.5,0c0,1.74.65,2.62,1.94,2.62s1.91-.88,1.91-2.62-.64-2.59-1.93-2.59a1.63,1.63,0,0,0-1.46.67A3.34,3.34,0,0,0,372.31,243.57Z"/><path class="cls-3" d="M383.31,239.67a2.64,2.64,0,0,1,2.21,1,5.63,5.63,0,0,1,0,5.77,2.67,2.67,0,0,1-2.22,1,2.64,2.64,0,0,1-2.23-1H381l-.3.89h-1.2V236.73h1.61v2.53c0,.18,0,.46,0,.83s0,.6,0,.7h.07A2.54,2.54,0,0,1,383.31,239.67ZM382.9,241a1.63,1.63,0,0,0-1.4.57,3.29,3.29,0,0,0-.44,1.91v.11a3.56,3.56,0,0,0,.43,2,1.65,1.65,0,0,0,1.43.62,1.47,1.47,0,0,0,1.3-.68,3.61,3.61,0,0,0,.44-1.95C384.66,241.84,384.07,241,382.9,241Z"/><path class="cls-3" d="M342.07,264.16H340.3l-1.7-6c-.07-.26-.16-.63-.27-1.12s-.18-.83-.2-1c-.05.29-.12.67-.22,1.13s-.19.81-.26,1L336,264.16h-1.78l-1.29-5-1.32-5h1.67l1.43,5.82c.22.94.38,1.76.48,2.48.05-.39.12-.82.22-1.3s.2-.87.28-1.16l1.63-5.84h1.62L340.6,260a22.75,22.75,0,0,1,.51,2.44,18.14,18.14,0,0,1,.49-2.49l1.42-5.81h1.66Z"/><path class="cls-3" d="M352.42,260.37a4.14,4.14,0,0,1-.95,2.89,3.43,3.43,0,0,1-2.65,1,3.62,3.62,0,0,1-1.87-.48,3.2,3.2,0,0,1-1.25-1.37,4.72,4.72,0,0,1-.44-2.08,4.09,4.09,0,0,1,.94-2.87,3.42,3.42,0,0,1,2.66-1,3.34,3.34,0,0,1,2.6,1A4.08,4.08,0,0,1,352.42,260.37Zm-5.51,0c0,1.74.65,2.62,1.94,2.62s1.91-.88,1.91-2.62-.64-2.59-1.92-2.59a1.63,1.63,0,0,0-1.47.67A3.42,3.42,0,0,0,346.91,260.37Z"/><path class="cls-3" d="M357.89,256.47a4.42,4.42,0,0,1,.8.06l-.16,1.5a3.29,3.29,0,0,0-.71-.08,2.06,2.06,0,0,0-1.56.63,2.26,2.26,0,0,0-.6,1.63v4h-1.61V256.6h1.26l.21,1.34h.08a3,3,0,0,1,1-1.08A2.33,2.33,0,0,1,357.89,256.47Z"/><path class="cls-3" d="M361.43,260.17l.91-1.13,2.28-2.44h1.86l-3.05,3.25,3.24,4.31h-1.89l-2.43-3.31-.88.72v2.59h-1.59V253.53h1.59v5.18l-.08,1.46Z"/><path class="cls-3" d="M371,264.3a3.64,3.64,0,0,1-2.76-1,3.87,3.87,0,0,1-1-2.83,4.24,4.24,0,0,1,.93-2.91,3.16,3.16,0,0,1,2.53-1.06,3.11,3.11,0,0,1,2.37.91,3.44,3.44,0,0,1,.87,2.5v.87h-5a2.5,2.5,0,0,0,.59,1.69,2.1,2.1,0,0,0,1.58.59,5.51,5.51,0,0,0,1.25-.13,6.05,6.05,0,0,0,1.24-.42v1.31a4.88,4.88,0,0,1-1.19.39A7.06,7.06,0,0,1,371,264.3Zm-.3-6.62a1.57,1.57,0,0,0-1.22.49,2.28,2.28,0,0,0-.56,1.41h3.44a2.13,2.13,0,0,0-.45-1.42A1.57,1.57,0,0,0,370.68,257.68Z"/><path class="cls-3" d="M379.37,256.47a4.42,4.42,0,0,1,.8.06L380,258a3.36,3.36,0,0,0-.71-.08,2,2,0,0,0-1.56.63,2.26,2.26,0,0,0-.6,1.63v4h-1.61V256.6h1.26l.21,1.34h.08a3,3,0,0,1,1-1.08A2.39,2.39,0,0,1,379.37,256.47Z"/><path class="cls-3" d="M435.71,237.37h3a5.64,5.64,0,0,1,3,.6,2.12,2.12,0,0,1,.92,1.9,2.33,2.33,0,0,1-.45,1.46,2,2,0,0,1-1.3.73v.07a2.57,2.57,0,0,1,1.55.78,2.37,2.37,0,0,1,.49,1.58,2.56,2.56,0,0,1-.94,2.11,4,4,0,0,1-2.61.76h-3.61Zm1.63,4.13h1.58a2.63,2.63,0,0,0,1.49-.33,1.22,1.22,0,0,0,.48-1.1,1.11,1.11,0,0,0-.51-1,3.19,3.19,0,0,0-1.62-.31h-1.42Zm0,1.32V246h1.74a2.59,2.59,0,0,0,1.55-.39,1.46,1.46,0,0,0,.52-1.24,1.34,1.34,0,0,0-.53-1.16,2.85,2.85,0,0,0-1.62-.38Z"/><path class="cls-3" d="M449.3,247.36l-.32-1.05h-.05a3.27,3.27,0,0,1-1.1.94,3.46,3.46,0,0,1-1.43.25,2.42,2.42,0,0,1-1.74-.6,2.27,2.27,0,0,1-.62-1.7,2,2,0,0,1,.87-1.77,5.1,5.1,0,0,1,2.64-.65l1.31,0v-.4a1.49,1.49,0,0,0-.34-1.08,1.39,1.39,0,0,0-1-.36,3.39,3.39,0,0,0-1.11.17,8.46,8.46,0,0,0-1,.4l-.52-1.15a6.16,6.16,0,0,1,1.35-.49,6.29,6.29,0,0,1,1.38-.16,3.28,3.28,0,0,1,2.18.63,2.43,2.43,0,0,1,.73,2v5.09Zm-2.39-1.09a2,2,0,0,0,1.4-.49,1.74,1.74,0,0,0,.53-1.37v-.66l-1,.05a3.35,3.35,0,0,0-1.65.37,1.18,1.18,0,0,0-.51,1,1,1,0,0,0,.3.78A1.26,1.26,0,0,0,446.91,246.27Z"/><path class="cls-3" d="M455.3,246.2a4,4,0,0,0,1.17-.18v1.21a3.37,3.37,0,0,1-.68.19,4.94,4.94,0,0,1-.87.08c-1.53,0-2.29-.8-2.29-2.41V241h-1v-.71l1.11-.59.55-1.6h1v1.68h2.15V241h-2.15v4a1.1,1.1,0,0,0,.29.85A1,1,0,0,0,455.3,246.2Z"/><path class="cls-3" d="M460.82,247.5a3.28,3.28,0,0,1-2.6-1,4.18,4.18,0,0,1-.9-2.88,4.23,4.23,0,0,1,.94-2.93,3.46,3.46,0,0,1,2.69-1,5,5,0,0,1,2.16.44l-.49,1.29a4.94,4.94,0,0,0-1.68-.39c-1.31,0-2,.86-2,2.6a3.09,3.09,0,0,0,.49,1.91,1.67,1.67,0,0,0,1.43.64,4.16,4.16,0,0,0,2-.53V247a3,3,0,0,1-.92.36A5.74,5.74,0,0,1,460.82,247.5Z"/><path class="cls-3" d="M471.15,247.36h-1.61v-4.65a2,2,0,0,0-.36-1.3,1.33,1.33,0,0,0-1.11-.43,1.78,1.78,0,0,0-1.49.6,3.33,3.33,0,0,0-.48,2v3.75h-1.6V236.73h1.6v2.7a11.29,11.29,0,0,1-.08,1.38h.1A2.27,2.27,0,0,1,467,240a2.93,2.93,0,0,1,1.36-.3,2.44,2.44,0,0,1,2.75,2.76Z"/><path class="cls-3" d="M475.51,250.15a3.26,3.26,0,0,1-1.12-.17v-1.37a4.42,4.42,0,0,0,1,.14c.9,0,1.34-.56,1.34-1.69v-9.69h1.64V247a3.41,3.41,0,0,1-.72,2.34A2.73,2.73,0,0,1,475.51,250.15Z"/><path class="cls-3" d="M487.28,243.57a4.14,4.14,0,0,1-.95,2.89,3.42,3.42,0,0,1-2.65,1,3.62,3.62,0,0,1-1.87-.48,3.2,3.2,0,0,1-1.25-1.37,4.72,4.72,0,0,1-.44-2.08,4.09,4.09,0,0,1,.95-2.87,3.41,3.41,0,0,1,2.66-1,3.33,3.33,0,0,1,2.59,1.05A4.1,4.1,0,0,1,487.28,243.57Zm-5.5,0c0,1.74.64,2.62,1.93,2.62s1.92-.88,1.92-2.62S485,241,483.7,241a1.64,1.64,0,0,0-1.47.67A3.43,3.43,0,0,0,481.78,243.57Z"/><path class="cls-3" d="M492.78,239.67a2.62,2.62,0,0,1,2.2,1,5.63,5.63,0,0,1,0,5.77,2.91,2.91,0,0,1-4.45,0h-.11l-.29.89h-1.2V236.73h1.6v2.53c0,.18,0,.46,0,.83s0,.6-.05.7h.07A2.55,2.55,0,0,1,492.78,239.67Zm-.42,1.31a1.64,1.64,0,0,0-1.4.57,3.37,3.37,0,0,0-.44,1.91v.11a3.55,3.55,0,0,0,.44,2,1.64,1.64,0,0,0,1.43.62,1.44,1.44,0,0,0,1.29-.68,3.52,3.52,0,0,0,.45-1.95Q494.13,241,492.36,241Z"/><path class="cls-3" d="M451.54,264.16h-1.78l-1.69-6c-.08-.26-.17-.63-.28-1.12s-.17-.83-.2-1c0,.29-.12.67-.22,1.13s-.19.81-.25,1l-1.66,5.93h-1.78l-1.29-5-1.31-5h1.67l1.43,5.82a24.37,24.37,0,0,1,.47,2.48c.06-.39.13-.82.23-1.3s.19-.87.27-1.16l1.63-5.84h1.62l1.67,5.86a20.9,20.9,0,0,1,.5,2.44,18.4,18.4,0,0,1,.5-2.49l1.42-5.81h1.65Z"/><path class="cls-3" d="M461.88,260.37a4.1,4.1,0,0,1-.95,2.89,3.4,3.4,0,0,1-2.64,1,3.65,3.65,0,0,1-1.88-.48,3.26,3.26,0,0,1-1.25-1.37,4.71,4.71,0,0,1-.43-2.08,4.09,4.09,0,0,1,.94-2.87,3.41,3.41,0,0,1,2.66-1,3.35,3.35,0,0,1,2.6,1A4.12,4.12,0,0,1,461.88,260.37Zm-5.5,0c0,1.74.65,2.62,1.93,2.62s1.92-.88,1.92-2.62-.64-2.59-1.93-2.59a1.63,1.63,0,0,0-1.46.67A3.34,3.34,0,0,0,456.38,260.37Z"/><path class="cls-3" d="M467.35,256.47a4.35,4.35,0,0,1,.8.06L468,258a3.36,3.36,0,0,0-.71-.08,2.06,2.06,0,0,0-1.57.63,2.25,2.25,0,0,0-.59,1.63v4h-1.61V256.6h1.26l.21,1.34h.08a3,3,0,0,1,1-1.08A2.38,2.38,0,0,1,467.35,256.47Z"/><path class="cls-3" d="M470.9,260.17l.91-1.13,2.28-2.44h1.85l-3,3.25,3.23,4.31h-1.88l-2.43-3.31-.88.72v2.59h-1.59V253.53h1.59v5.18l-.08,1.46Z"/><path class="cls-3" d="M480.44,264.3a3.67,3.67,0,0,1-2.76-1,3.9,3.9,0,0,1-1-2.83,4.28,4.28,0,0,1,.92-2.91,3.18,3.18,0,0,1,2.54-1.06,3.09,3.09,0,0,1,2.36.91,3.44,3.44,0,0,1,.87,2.5v.87h-5a2.5,2.5,0,0,0,.6,1.69,2.08,2.08,0,0,0,1.58.59,5.42,5.42,0,0,0,1.24-.13,6.12,6.12,0,0,0,1.25-.42v1.31a5,5,0,0,1-1.19.39A7.09,7.09,0,0,1,480.44,264.3Zm-.29-6.62a1.6,1.6,0,0,0-1.23.49,2.28,2.28,0,0,0-.55,1.41h3.43a2.13,2.13,0,0,0-.45-1.42A1.54,1.54,0,0,0,480.15,257.68Z"/><path class="cls-3" d="M488.83,256.47a4.35,4.35,0,0,1,.8.06l-.16,1.5a3.22,3.22,0,0,0-.71-.08,2.06,2.06,0,0,0-1.56.63,2.26,2.26,0,0,0-.6,1.63v4H485V256.6h1.25l.22,1.34h.08a3,3,0,0,1,1-1.08A2.36,2.36,0,0,1,488.83,256.47Z"/><path class="cls-3" d="M217.43,237.37h3a5.64,5.64,0,0,1,3,.6,2.12,2.12,0,0,1,.92,1.9,2.33,2.33,0,0,1-.45,1.46,2,2,0,0,1-1.3.73v.07a2.57,2.57,0,0,1,1.55.78,2.37,2.37,0,0,1,.49,1.58,2.56,2.56,0,0,1-.94,2.11,4,4,0,0,1-2.61.76h-3.61Zm1.63,4.13h1.58a2.63,2.63,0,0,0,1.49-.33,1.22,1.22,0,0,0,.48-1.1,1.11,1.11,0,0,0-.51-1,3.19,3.19,0,0,0-1.62-.31h-1.42Zm0,1.32V246h1.74a2.59,2.59,0,0,0,1.55-.39,1.46,1.46,0,0,0,.52-1.24,1.34,1.34,0,0,0-.53-1.16,2.85,2.85,0,0,0-1.62-.38Z"/><path class="cls-3" d="M231,247.36l-.32-1.05h0a3.27,3.27,0,0,1-1.1.94,3.46,3.46,0,0,1-1.43.25,2.42,2.42,0,0,1-1.74-.6,2.27,2.27,0,0,1-.62-1.7,2,2,0,0,1,.87-1.77,5.1,5.1,0,0,1,2.64-.65l1.31,0v-.4a1.49,1.49,0,0,0-.34-1.08,1.39,1.39,0,0,0-1.05-.36,3.39,3.39,0,0,0-1.11.17,8.46,8.46,0,0,0-1,.4l-.52-1.15a6.16,6.16,0,0,1,1.35-.49,6.29,6.29,0,0,1,1.38-.16,3.28,3.28,0,0,1,2.18.63,2.43,2.43,0,0,1,.73,2v5.09Zm-2.39-1.09a2,2,0,0,0,1.4-.49,1.74,1.74,0,0,0,.53-1.37v-.66l-1,.05a3.35,3.35,0,0,0-1.65.37,1.18,1.18,0,0,0-.51,1,1,1,0,0,0,.3.78A1.26,1.26,0,0,0,228.63,246.27Z"/><path class="cls-3" d="M237,246.2a4.08,4.08,0,0,0,1.18-.18v1.21a3.7,3.7,0,0,1-.69.19,4.94,4.94,0,0,1-.87.08c-1.53,0-2.29-.8-2.29-2.41V241h-1v-.71l1.11-.59.55-1.6h1v1.68h2.15V241H236v4a1.1,1.1,0,0,0,.29.85A1,1,0,0,0,237,246.2Z"/><path class="cls-3" d="M242.54,247.5a3.28,3.28,0,0,1-2.6-1,4.18,4.18,0,0,1-.9-2.88,4.23,4.23,0,0,1,.94-2.93,3.46,3.46,0,0,1,2.69-1,5,5,0,0,1,2.16.44l-.49,1.29a4.94,4.94,0,0,0-1.68-.39c-1.31,0-2,.86-2,2.6a3.09,3.09,0,0,0,.49,1.91,1.67,1.67,0,0,0,1.43.64,4.16,4.16,0,0,0,2-.53V247a3,3,0,0,1-.92.36A5.67,5.67,0,0,1,242.54,247.5Z"/><path class="cls-3" d="M252.87,247.36h-1.61v-4.65a2,2,0,0,0-.36-1.3,1.33,1.33,0,0,0-1.11-.43,1.78,1.78,0,0,0-1.49.6,3.33,3.33,0,0,0-.48,2v3.75h-1.6V236.73h1.6v2.7a11.29,11.29,0,0,1-.08,1.38h.1a2.27,2.27,0,0,1,.92-.84,2.93,2.93,0,0,1,1.36-.3,2.44,2.44,0,0,1,2.75,2.76Z"/><path class="cls-3" d="M257.23,250.15a3.26,3.26,0,0,1-1.12-.17v-1.37a4.42,4.42,0,0,0,1,.14c.9,0,1.34-.56,1.34-1.69v-9.69h1.64V247a3.41,3.41,0,0,1-.72,2.34A2.73,2.73,0,0,1,257.23,250.15Z"/><path class="cls-3" d="M269,243.57a4.14,4.14,0,0,1-.95,2.89,3.42,3.42,0,0,1-2.65,1,3.62,3.62,0,0,1-1.87-.48,3.2,3.2,0,0,1-1.25-1.37,4.72,4.72,0,0,1-.44-2.08,4.09,4.09,0,0,1,1-2.87,3.41,3.41,0,0,1,2.66-1,3.32,3.32,0,0,1,2.59,1.05A4.1,4.1,0,0,1,269,243.57Zm-5.5,0c0,1.74.64,2.62,1.93,2.62s1.92-.88,1.92-2.62-.65-2.59-1.93-2.59a1.64,1.64,0,0,0-1.47.67A3.43,3.43,0,0,0,263.5,243.57Z"/><path class="cls-3" d="M274.5,239.67a2.62,2.62,0,0,1,2.2,1,5.63,5.63,0,0,1,0,5.77,2.91,2.91,0,0,1-4.45,0h-.11l-.29.89h-1.2V236.73h1.6v2.53c0,.18,0,.46,0,.83s0,.6-.05.7h.07A2.55,2.55,0,0,1,274.5,239.67Zm-.42,1.31a1.64,1.64,0,0,0-1.4.57,3.37,3.37,0,0,0-.44,1.91v.11a3.55,3.55,0,0,0,.44,2,1.64,1.64,0,0,0,1.43.62,1.44,1.44,0,0,0,1.29-.68,3.52,3.52,0,0,0,.45-1.95Q275.85,241,274.08,241Z"/><path class="cls-3" d="M233.26,264.16h-1.78l-1.69-6c-.08-.26-.17-.63-.28-1.12s-.17-.83-.2-1c0,.29-.12.67-.22,1.13s-.19.81-.25,1l-1.66,5.93H225.4l-1.29-5-1.31-5h1.67L225.9,260a24.37,24.37,0,0,1,.47,2.48c.06-.39.13-.82.23-1.3s.19-.87.27-1.16l1.63-5.84h1.62l1.67,5.86a20.9,20.9,0,0,1,.5,2.44,18.4,18.4,0,0,1,.5-2.49l1.42-5.81h1.65Z"/><path class="cls-3" d="M243.6,260.37a4.1,4.1,0,0,1-.95,2.89,3.4,3.4,0,0,1-2.64,1,3.65,3.65,0,0,1-1.88-.48,3.26,3.26,0,0,1-1.25-1.37,4.71,4.71,0,0,1-.43-2.08,4.09,4.09,0,0,1,.94-2.87,3.41,3.41,0,0,1,2.66-1,3.35,3.35,0,0,1,2.6,1A4.12,4.12,0,0,1,243.6,260.37Zm-5.5,0c0,1.74.65,2.62,1.93,2.62s1.92-.88,1.92-2.62-.64-2.59-1.93-2.59a1.66,1.66,0,0,0-1.47.67A3.43,3.43,0,0,0,238.1,260.37Z"/><path class="cls-3" d="M249.07,256.47a4.35,4.35,0,0,1,.8.06l-.15,1.5A3.36,3.36,0,0,0,249,258a2.06,2.06,0,0,0-1.57.63,2.25,2.25,0,0,0-.59,1.63v4h-1.61V256.6h1.26l.21,1.34h.08a3,3,0,0,1,1-1.08A2.38,2.38,0,0,1,249.07,256.47Z"/><path class="cls-3" d="M252.62,260.17l.91-1.13,2.28-2.44h1.85l-3,3.25,3.23,4.31H256l-2.43-3.31-.88.72v2.59h-1.59V253.53h1.59v5.18l-.08,1.46Z"/><path class="cls-3" d="M262.16,264.3a3.67,3.67,0,0,1-2.76-1,3.9,3.9,0,0,1-1-2.83,4.28,4.28,0,0,1,.92-2.91,3.18,3.18,0,0,1,2.54-1.06,3.09,3.09,0,0,1,2.36.91,3.44,3.44,0,0,1,.87,2.5v.87h-5a2.5,2.5,0,0,0,.6,1.69,2.08,2.08,0,0,0,1.58.59,5.42,5.42,0,0,0,1.24-.13,6.12,6.12,0,0,0,1.25-.42v1.31a5,5,0,0,1-1.19.39A7.09,7.09,0,0,1,262.16,264.3Zm-.29-6.62a1.6,1.6,0,0,0-1.23.49,2.28,2.28,0,0,0-.55,1.41h3.43a2.13,2.13,0,0,0-.45-1.42A1.54,1.54,0,0,0,261.87,257.68Z"/><path class="cls-3" d="M270.55,256.47a4.35,4.35,0,0,1,.8.06l-.16,1.5a3.22,3.22,0,0,0-.71-.08,2.06,2.06,0,0,0-1.56.63,2.26,2.26,0,0,0-.6,1.63v4h-1.6V256.6H268l.22,1.34h.08a3,3,0,0,1,1-1.08A2.36,2.36,0,0,1,270.55,256.47Z"/><line class="cls-4" x1="355.98" y1="116.4" x2="355.98" y2="214.56"/><polygon class="cls-5" points="350.99 213.1 355.98 221.74 360.96 213.1 350.99 213.1"/><polyline class="cls-4" points="355.98 182.89 465.44 182.89 465.44 214.56"/><polygon class="cls-5" points="460.45 213.1 465.44 221.74 470.43 213.1 460.45 213.1"/><polyline class="cls-4" points="355.98 182.89 246.51 182.89 246.51 214.56"/><polygon class="cls-5" points="241.52 213.1 246.51 221.74 251.5 213.1 241.52 213.1"/><line class="cls-4" x1="275.02" y1="87.64" x2="169.75" y2="87.64"/><polygon class="cls-5" points="171.21 82.66 162.57 87.64 171.21 92.63 171.21 82.66"/><polyline class="cls-4" points="195.14 87.64 195.14 178.8 169.75 178.8"/><polygon class="cls-5" points="171.21 173.81 162.57 178.8 171.21 183.78 171.21 173.81"/><line class="cls-4" x1="436.93" y1="87.64" x2="567.18" y2="87.64"/><polygon class="cls-5" points="565.73 92.63 574.36 87.64 565.73 82.66 565.73 92.63"/><polyline class="cls-4" points="574.36 250.49 540.42 250.49 540.42 103.03 444.1 103.03"/><polygon class="cls-5" points="445.56 98.04 436.93 103.03 445.56 108.01 445.56 98.04"/><line class="cls-4" x1="640.78" y1="135.89" x2="640.78" y2="123.57"/><polygon class="cls-5" points="645.77 125.03 640.78 116.4 635.79 125.03 645.77 125.03"/></g></g></svg>