<?xml version="1.0" encoding="utf-8"?>
<!-- Generator: Adobe Illustrator 24.1.0, SVG Export Plug-In . SVG Version: 6.00 Build 0)  -->
<svg version="1.1" id="Layer_1" xmlns="http://www.w3.org/2000/svg" xmlns:xlink="http://www.w3.org/1999/xlink" x="0px" y="0px"
	 viewBox="0 0 563.6 333.1" style="enable-background:new 0 0 563.6 333.1;" xml:space="preserve">
<style type="text/css">
	.st0{fill:#1B1F23;}
	.st1{fill:none;stroke:#BBBCBE;stroke-width:2;stroke-miterlimit:10;}
	.st2{fill:#56E27A;}
	.st3{fill:#6DB33F;}
	.st4{fill:#FFFFFF;}
	.st5{fill:#AFC6C5;}
	.st6{fill:none;stroke:#FFFFFF;stroke-width:2;stroke-miterlimit:10;stroke-dasharray:4,8;}
</style>
<path class="st0" d="M484.9,143.7c-2.4,0-4.8,0.1-7.1,0.3c10.6-35.7-9.8-73.2-45.4-83.8c-14.9-4.4-30.8-3.6-45.1,2.4
	c-26-45.5-83.9-61.4-129.5-35.5c-6.5,3.7-12.5,8.1-17.9,13.2C197.4-1.2,129.2-0.4,87.7,42.1c-26.8,27.3-37,66.9-26.9,103.8
	C18.5,155.7-7.8,198,2.1,240.3c8.3,35.5,39.9,60.6,76.3,60.7h399.2v-0.4c2.4,0.2,4.8,0.4,7.3,0.4c43.5,0,78.7-35.2,78.7-78.7
	C563.6,179,528.4,143.7,484.9,143.7C484.9,143.7,484.9,143.7,484.9,143.7L484.9,143.7z"/>
<rect x="277.3" y="55.3" class="st1" width="244.8" height="244.8"/>
<rect x="277.3" y="82.5" class="st1" width="217.6" height="217.6"/>
<rect x="277.3" y="109.7" class="st1" width="190.4" height="190.4"/>
<rect x="277.3" y="137.3" class="st1" width="162.8" height="162.8"/>
<rect x="277.3" y="164.2" class="st1" width="135.9" height="135.9"/>
<rect x="277.3" y="191.3" class="st1" width="108.8" height="108.8"/>
<rect x="277.7" y="219.9" class="st2" width="80.8" height="81.4"/>
<rect x="195.7" y="219.9" class="st3" width="82" height="81.4"/>
<path class="st4" d="M207.2,263.3H205v-10.5h6v1.8h-3.8v2.7h3.6v1.8h-3.6L207.2,263.3z"/>
<path class="st4" d="M218.6,263.3l-0.3-1h-0.1c-0.2,0.4-0.6,0.7-1,0.9c-0.5,0.2-1,0.3-1.5,0.3c-0.8,0.1-1.6-0.2-2.1-0.8
	c-0.5-0.6-0.8-1.4-0.7-2.2v-5.2h2.2v4.7c0,0.5,0.1,0.9,0.3,1.3c0.2,0.3,0.6,0.5,1,0.4c0.5,0,1-0.2,1.3-0.6c0.3-0.6,0.5-1.3,0.4-2
	v-3.8h2.2v8L218.6,263.3z"/>
<path class="st4" d="M230,263.3h-2.2v-4.7c0-0.5-0.1-0.9-0.3-1.3c-0.2-0.3-0.6-0.5-1-0.4c-0.5,0-1,0.2-1.3,0.6
	c-0.3,0.6-0.5,1.3-0.4,2v3.8h-2.2v-8h1.7l0.3,1h0.1c0.2-0.4,0.6-0.7,1-0.9c0.5-0.2,1-0.3,1.5-0.3c0.8-0.1,1.6,0.2,2.1,0.8
	c0.5,0.6,0.8,1.4,0.7,2.2L230,263.3z"/>
<path class="st4" d="M235.5,263.5c-2.5,0-3.8-1.4-3.8-4.1c-0.1-1.1,0.3-2.3,1-3.1c0.8-0.8,1.8-1.1,2.9-1.1c0.9,0,1.7,0.2,2.5,0.6
	l-0.6,1.7c-0.4-0.1-0.7-0.2-1-0.3c-0.3-0.1-0.6-0.1-0.9-0.1c-1.1,0-1.7,0.8-1.7,2.4s0.6,2.4,1.7,2.4c0.4,0,0.8-0.1,1.2-0.2
	c0.4-0.1,0.8-0.3,1.2-0.5v1.9c-0.3,0.2-0.7,0.4-1.1,0.5C236.5,263.4,236,263.5,235.5,263.5z"/>
<path class="st4" d="M243.2,261.7c0.5,0,0.9-0.1,1.4-0.2v1.6c-0.6,0.3-1.3,0.4-2,0.4c-0.7,0.1-1.4-0.2-1.9-0.7
	c-0.4-0.6-0.7-1.3-0.6-2v-3.9H239V256l1.2-0.7l0.6-1.7h1.4v1.7h2.2v1.7h-2.2v3.9c0,0.3,0.1,0.5,0.3,0.7
	C242.7,261.7,242.9,261.7,243.2,261.7z"/>
<path class="st4" d="M246.1,253.2c0-0.7,0.4-1.1,1.2-1.1s1.2,0.4,1.2,1.1c0,0.3-0.1,0.6-0.3,0.8c-0.2,0.2-0.6,0.3-0.9,0.3
	C246.5,254.3,246.1,253.9,246.1,253.2z M248.4,263.3h-2.2v-8h2.2V263.3z"/>
<path class="st4" d="M258,259.3c0.1,1.1-0.3,2.2-1,3.1c-0.8,0.8-1.8,1.2-2.9,1.1c-0.7,0-1.4-0.2-2-0.5c-0.6-0.3-1.1-0.8-1.4-1.5
	c-0.3-0.7-0.5-1.4-0.5-2.2c-0.1-1.1,0.3-2.2,1-3.1c0.8-0.8,1.8-1.2,2.9-1.1c0.7,0,1.4,0.2,2,0.5c0.6,0.3,1.1,0.8,1.4,1.4
	C257.9,257.8,258,258.5,258,259.3z M252.4,259.3c0,0.6,0.1,1.3,0.4,1.8c0.3,0.4,0.8,0.6,1.3,0.6c0.5,0,1-0.2,1.3-0.6
	c0.3-0.6,0.4-1.2,0.4-1.8c0-0.6-0.1-1.2-0.4-1.8c-0.6-0.7-1.6-0.8-2.3-0.2c-0.1,0.1-0.1,0.1-0.2,0.2
	C252.5,258,252.4,258.7,252.4,259.3L252.4,259.3z"/>
<path class="st4" d="M267.2,263.3H265v-4.7c0-0.5-0.1-0.9-0.3-1.3c-0.2-0.3-0.6-0.5-1-0.4c-0.5,0-1,0.2-1.3,0.6
	c-0.3,0.6-0.5,1.3-0.4,2v3.8h-2.2v-8h1.7l0.3,1h0.1c0.2-0.4,0.6-0.7,1-0.9c0.5-0.2,1-0.3,1.5-0.3c0.8-0.1,1.6,0.2,2.1,0.8
	c0.5,0.6,0.8,1.4,0.7,2.2L267.2,263.3z"/>
<path class="st4" d="M311.6,263.3l-0.8-2.5h-3.8l-0.8,2.5h-2.4l3.7-10.5h2.7l3.7,10.5H311.6z M310.3,259l-1.2-3.8
	c-0.1-0.3-0.1-0.5-0.2-0.7c-0.2,0.6-0.6,2.1-1.4,4.5H310.3z"/>
<path class="st4" d="M319.6,263.5c-0.9,0-1.7-0.3-2.2-1h-0.1c0.1,0.7,0.1,1.1,0.1,1.2v3.2h-2.2v-11.6h1.8l0.3,1h0.1
	c0.5-0.8,1.4-1.2,2.3-1.2c0.9,0,1.7,0.4,2.2,1.1c0.6,0.9,0.9,2,0.8,3c0,0.8-0.1,1.5-0.4,2.2c-0.2,0.6-0.6,1.1-1.1,1.4
	C320.8,263.3,320.2,263.5,319.6,263.5z M318.9,256.9c-0.5,0-0.9,0.1-1.2,0.5c-0.3,0.5-0.4,1.1-0.4,1.6v0.2c-0.1,0.6,0.1,1.3,0.4,1.9
	c0.3,0.4,0.7,0.6,1.2,0.6c1,0,1.5-0.8,1.5-2.4c0-0.6-0.1-1.2-0.4-1.8C319.9,257.1,319.4,256.9,318.9,256.9L318.9,256.9z"/>
<path class="st4" d="M328.9,263.5c-0.9,0-1.7-0.3-2.2-1h-0.1c0.1,0.7,0.1,1.1,0.1,1.2v3.2h-2.2v-11.6h1.8l0.3,1h0.1
	c0.5-0.8,1.4-1.2,2.3-1.2c0.9,0,1.7,0.4,2.2,1.1c0.6,0.9,0.9,2,0.8,3c0,0.8-0.1,1.5-0.4,2.2c-0.2,0.6-0.6,1.1-1.1,1.4
	C330.1,263.3,329.5,263.5,328.9,263.5z M328.2,256.9c-0.5,0-0.9,0.1-1.2,0.5c-0.3,0.5-0.4,1.1-0.4,1.6v0.2c-0.1,0.6,0.1,1.3,0.4,1.9
	c0.3,0.4,0.7,0.6,1.2,0.6c1,0,1.5-0.8,1.5-2.4c0-0.6-0.1-1.2-0.4-1.8C329.2,257.1,328.7,256.9,328.2,256.9L328.2,256.9z"/>
<path class="st4" d="M435.4,188.3v-14.3h3v11.8h5.8v2.5L435.4,188.3z"/>
<path class="st4" d="M451.4,188.5c-1.5,0.1-3-0.4-4.1-1.5c-1-1.1-1.6-2.6-1.5-4.1c-0.1-1.5,0.4-3.1,1.4-4.2c1-1,2.4-1.6,3.8-1.5
	c1.3-0.1,2.6,0.4,3.6,1.3c0.9,1,1.4,2.3,1.3,3.6v1.4h-7c0,0.7,0.3,1.5,0.8,2c0.5,0.5,1.3,0.8,2,0.7c0.6,0,1.3-0.1,1.9-0.2
	c0.6-0.2,1.2-0.4,1.8-0.7v2.3c-0.5,0.3-1.1,0.5-1.7,0.6C452.9,188.5,452.2,188.6,451.4,188.5z M451,179.3c-0.6,0-1.1,0.2-1.5,0.6
	c-0.4,0.5-0.6,1.1-0.6,1.7h4.2c0-0.6-0.2-1.2-0.6-1.7C452.1,179.5,451.6,179.3,451,179.3L451,179.3z"/>
<path class="st4" d="M467.8,177.4v1.5l-1.7,0.4c0.3,0.5,0.5,1.1,0.5,1.6c0.1,1.1-0.4,2.1-1.2,2.7c-1,0.7-2.2,1.1-3.4,1h-0.5
	l-0.4-0.1c-0.3,0.2-0.4,0.5-0.5,0.8c0,0.4,0.5,0.6,1.6,0.6h1.9c1-0.1,1.9,0.2,2.7,0.8c0.7,0.6,1,1.4,1,2.3c0,1.2-0.6,2.4-1.6,3
	c-1.4,0.8-3,1.2-4.6,1.1c-1.2,0.1-2.4-0.2-3.5-0.8c-0.8-0.5-1.2-1.3-1.2-2.2c0-0.6,0.2-1.2,0.6-1.6c0.5-0.5,1.1-0.8,1.8-0.9
	c-0.3-0.1-0.6-0.4-0.8-0.6c-0.2-0.3-0.3-0.6-0.3-0.9c0-0.4,0.1-0.7,0.4-1c0.3-0.3,0.6-0.6,1-0.8c-0.6-0.2-1-0.7-1.4-1.2
	c-0.3-0.6-0.5-1.3-0.5-1.9c-0.1-1.1,0.4-2.1,1.2-2.8c1-0.7,2.1-1.1,3.3-1c0.4,0,0.7,0,1.1,0.1c0.4,0.1,0.7,0.1,0.8,0.1L467.8,177.4z
	 M459.4,189.9c0,0.4,0.2,0.8,0.6,1c0.5,0.3,1.1,0.4,1.6,0.4c0.9,0,1.7-0.1,2.5-0.4c0.5-0.2,0.9-0.7,0.9-1.2c0-0.4-0.2-0.7-0.5-0.8
	c-0.5-0.2-1.1-0.3-1.7-0.2h-1.5c-0.5,0-1,0.1-1.4,0.4C459.6,189.1,459.4,189.5,459.4,189.9L459.4,189.9z M460.5,181
	c0,0.5,0.1,1,0.4,1.4c0.3,0.4,0.8,0.5,1.2,0.5c0.5,0,0.9-0.2,1.2-0.5c0.3-0.4,0.4-0.9,0.4-1.4c0-1.3-0.5-2-1.6-2
	S460.5,179.7,460.5,181L460.5,181z"/>
<path class="st4" d="M476.5,188.3l-0.6-1.5h-0.1c-0.4,0.6-0.9,1-1.5,1.3c-0.7,0.3-1.4,0.4-2.1,0.4c-0.9,0.1-1.8-0.3-2.5-0.9
	c-0.6-0.7-1-1.6-0.9-2.6c-0.1-1,0.4-2,1.2-2.6c1.1-0.6,2.4-0.9,3.7-0.9l1.9-0.1v-0.5c0.1-0.8-0.5-1.6-1.3-1.7c-0.1,0-0.3,0-0.4,0
	c-1.1,0-2.1,0.3-3.1,0.8l-1-2c1.3-0.7,2.7-1,4.2-1c1.2-0.1,2.4,0.3,3.4,1c0.8,0.7,1.3,1.8,1.2,2.9v7.3L476.5,188.3z M475.6,183.3
	h-1.1c-0.7,0-1.3,0.1-1.9,0.5c-0.4,0.3-0.7,0.8-0.6,1.3c0,0.8,0.5,1.3,1.5,1.3c0.6,0,1.2-0.2,1.6-0.6c0.4-0.4,0.6-1,0.6-1.6V183.3z"
	/>
<path class="st4" d="M486.1,188.5c-3.4,0-5.1-1.9-5.1-5.6c-0.1-1.5,0.4-3.1,1.4-4.2c1.1-1,2.5-1.6,4-1.5c1.2,0,2.3,0.2,3.4,0.7
	l-0.9,2.3c-0.5-0.2-0.9-0.4-1.3-0.5c-0.4-0.1-0.8-0.2-1.2-0.2c-1.5,0-2.3,1.1-2.3,3.3s0.8,3.2,2.3,3.2c0.5,0,1.1-0.1,1.6-0.2
	c0.5-0.2,1-0.4,1.5-0.7v2.6c-0.4,0.3-0.9,0.5-1.5,0.6C487.4,188.5,486.7,188.6,486.1,188.5z"/>
<path class="st4" d="M490.4,177.4h3.3l2.1,6.1c0.2,0.6,0.3,1.2,0.4,1.9h0.1c0.1-0.6,0.2-1.3,0.4-1.9l2-6.1h3.2l-4.6,12.3
	c-0.3,1-1,1.9-1.8,2.6c-0.8,0.6-1.8,0.9-2.8,0.9c-0.5,0-1-0.1-1.5-0.2v-2.4c0.4,0.1,0.8,0.1,1.2,0.1c0.5,0,1-0.2,1.4-0.5
	c0.4-0.4,0.8-0.9,0.9-1.5l0.2-0.5L490.4,177.4z"/>
<path class="st4" d="M398.2,212.3v-14.3h3v14.3L398.2,212.3z"/>
<path class="st4" d="M414.7,212.3h-3V206c0-0.6-0.1-1.2-0.4-1.8c-0.3-0.4-0.8-0.6-1.3-0.6c-0.7-0.1-1.4,0.3-1.8,0.8
	c-0.4,0.9-0.6,1.8-0.5,2.8v5.1h-3v-10.9h2.3l0.4,1.4h0.2c0.3-0.5,0.8-0.9,1.4-1.2c0.6-0.3,1.3-0.4,2-0.4c1.1-0.1,2.1,0.3,2.9,1
	c0.7,0.8,1.1,1.9,1,3L414.7,212.3z"/>
<path class="st4" d="M423.8,203.7h-2.6v8.7h-3v-8.7h-1.6v-1.4l1.6-0.8v-0.8c-0.1-1,0.2-2,0.9-2.7c0.8-0.6,1.9-1,2.9-0.9
	c0.9,0,1.9,0.1,2.7,0.5l-0.8,2.2c-0.5-0.2-1.1-0.3-1.7-0.3c-0.3,0-0.7,0.1-0.9,0.4c-0.2,0.3-0.3,0.6-0.3,1v0.7h2.6V203.7z"/>
<path class="st4" d="M431.6,201.2c0.3,0,0.7,0,1,0.1l-0.2,2.8c-0.3-0.1-0.6-0.1-0.9-0.1c-0.8,0-1.6,0.2-2.2,0.7
	c-0.5,0.5-0.8,1.3-0.8,2v5.6h-3v-10.9h2.2l0.4,1.8h0.1c0.3-0.6,0.8-1.1,1.4-1.5C430.3,201.4,430.9,201.2,431.6,201.2z"/>
<path class="st4" d="M441.5,212.3l-0.6-1.5h-0.1c-0.4,0.6-0.9,1-1.5,1.3c-0.7,0.3-1.4,0.4-2.1,0.4c-0.9,0.1-1.8-0.3-2.5-0.9
	c-0.6-0.7-1-1.6-0.9-2.6c-0.1-1,0.4-2,1.2-2.6c1.1-0.6,2.4-0.9,3.7-0.9l1.9-0.1v-0.5c0.1-0.8-0.5-1.6-1.3-1.7c-0.1,0-0.3,0-0.4,0
	c-1.1,0-2.1,0.3-3.1,0.8l-1-2c1.3-0.7,2.7-1,4.2-1c1.2-0.1,2.4,0.3,3.4,1c0.8,0.7,1.3,1.8,1.2,2.9v7.3L441.5,212.3z M440.6,207.3
	h-1.1c-0.7,0-1.3,0.1-1.9,0.5c-0.4,0.3-0.7,0.8-0.6,1.3c0,0.8,0.5,1.3,1.5,1.3c0.6,0,1.2-0.2,1.6-0.6c0.4-0.4,0.6-1,0.6-1.6V207.3z"
	/>
<path class="st4" d="M454.3,209.1c0.1,1-0.4,2-1.2,2.6c-1,0.7-2.3,1-3.5,0.9c-0.7,0-1.3,0-2-0.2c-0.5-0.1-1.1-0.3-1.6-0.5v-2.5
	c0.6,0.3,1.2,0.5,1.9,0.7c0.6,0.2,1.2,0.2,1.8,0.3c1.1,0,1.6-0.3,1.6-0.9c0-0.2-0.1-0.4-0.2-0.6c-0.2-0.2-0.5-0.4-0.7-0.5
	c-0.5-0.2-0.9-0.5-1.4-0.6c-0.7-0.3-1.3-0.6-1.9-1c-0.4-0.3-0.7-0.6-0.9-1c-0.2-0.5-0.3-0.9-0.3-1.4c0-0.9,0.4-1.7,1.1-2.2
	c1-0.6,2.1-0.9,3.2-0.8c1.3,0,2.6,0.3,3.8,0.9l-0.9,2.1c-0.5-0.2-1-0.4-1.5-0.6c-0.5-0.1-1-0.2-1.5-0.2c-0.9,0-1.3,0.2-1.3,0.7
	c0,0.3,0.2,0.5,0.4,0.7c0.6,0.3,1.2,0.6,1.9,0.9c0.7,0.3,1.3,0.6,1.9,1c0.4,0.3,0.7,0.6,0.9,1C454.2,208.1,454.3,208.6,454.3,209.1z
	"/>
<path class="st4" d="M461.2,210.2c0.6,0,1.3-0.1,1.9-0.4v2.2c-0.9,0.4-1.8,0.5-2.7,0.5c-1,0.1-1.9-0.2-2.6-0.9
	c-0.6-0.8-0.9-1.7-0.8-2.7v-5.3h-1.4v-1.2l1.6-1l0.9-2.3h1.9v2.3h3.1v2.2h-3.1v5.3c0,0.3,0.1,0.7,0.4,0.9
	C460.6,210.1,460.9,210.2,461.2,210.2z"/>
<path class="st4" d="M471.4,201.2c0.3,0,0.7,0,1,0.1l-0.2,2.8c-0.3-0.1-0.6-0.1-0.9-0.1c-0.8,0-1.6,0.2-2.2,0.7
	c-0.5,0.5-0.8,1.3-0.8,2v5.6h-3v-10.9h2.3l0.4,1.8h0.1c0.3-0.6,0.8-1.1,1.4-1.5C470.1,201.4,470.7,201.2,471.4,201.2z"/>
<path class="st4" d="M482.1,212.3l-0.4-1.4h-0.2c-0.3,0.5-0.8,0.9-1.4,1.2c-0.6,0.3-1.3,0.4-2,0.4c-1.1,0.1-2.1-0.3-2.9-1
	c-0.7-0.8-1.1-1.9-1-3v-7.1h3v6.4c0,0.6,0.1,1.2,0.4,1.8c0.3,0.4,0.8,0.6,1.3,0.6c0.7,0.1,1.4-0.3,1.8-0.8c0.4-0.9,0.6-1.8,0.6-2.8
	v-5.1h3v10.9L482.1,212.3z"/>
<path class="st4" d="M492,212.5c-3.4,0-5.1-1.9-5.1-5.6c-0.1-1.5,0.4-3.1,1.4-4.2c1.1-1,2.5-1.6,4-1.5c1.2,0,2.3,0.2,3.4,0.7
	l-0.9,2.3c-0.5-0.2-0.9-0.4-1.3-0.5c-0.4-0.1-0.8-0.2-1.2-0.2c-1.5,0-2.3,1.1-2.3,3.3s0.8,3.2,2.3,3.2c0.5,0,1.1-0.1,1.6-0.2
	c0.5-0.2,1-0.4,1.5-0.7v2.6c-0.4,0.3-0.9,0.5-1.5,0.6C493.3,212.5,492.6,212.6,492,212.5z"/>
<path class="st4" d="M502.4,210.2c0.6,0,1.3-0.1,1.9-0.4v2.2c-0.9,0.4-1.8,0.5-2.7,0.5c-1,0.1-1.9-0.2-2.6-0.9
	c-0.6-0.8-0.9-1.7-0.8-2.7v-5.3h-1.4v-1.2l1.6-1l0.9-2.3h1.9v2.3h3.1v2.2h-3.1v5.3c0,0.3,0.1,0.7,0.4,0.9
	C501.7,210.1,502.1,210.2,502.4,210.2z"/>
<path class="st4" d="M514.2,212.3l-0.4-1.4h-0.2c-0.3,0.5-0.8,0.9-1.4,1.2c-0.6,0.3-1.3,0.4-2,0.4c-1.1,0.1-2.1-0.3-2.9-1
	c-0.7-0.8-1.1-1.9-1-3v-7.1h3v6.4c0,0.6,0.1,1.2,0.4,1.8c0.3,0.4,0.8,0.6,1.3,0.6c0.7,0.1,1.4-0.3,1.8-0.8c0.4-0.9,0.6-1.8,0.6-2.8
	v-5.1h3v10.9L514.2,212.3z"/>
<path class="st4" d="M525.7,201.2c0.3,0,0.7,0,1,0.1l-0.2,2.8c-0.3-0.1-0.6-0.1-0.9-0.1c-0.8,0-1.6,0.2-2.2,0.7
	c-0.5,0.5-0.8,1.3-0.8,2v5.6h-3v-10.9h2.2l0.4,1.8h0.2c0.3-0.6,0.8-1.1,1.4-1.5C524.4,201.4,525,201.2,525.7,201.2z"/>
<path class="st4" d="M533.7,212.5c-1.5,0.1-3-0.4-4.1-1.5c-1-1.1-1.6-2.6-1.5-4.1c-0.1-1.5,0.4-3.1,1.4-4.2c1-1,2.4-1.6,3.8-1.5
	c1.3-0.1,2.6,0.4,3.6,1.3c0.9,1,1.4,2.3,1.3,3.6v1.4h-7c0,0.7,0.3,1.5,0.8,2c0.5,0.5,1.3,0.8,2,0.7c0.6,0,1.2-0.1,1.9-0.2
	c0.6-0.2,1.3-0.4,1.8-0.7v2.3c-0.5,0.3-1.1,0.5-1.7,0.6C535.1,212.5,534.4,212.6,533.7,212.5z M533.2,203.3c-0.6,0-1.1,0.2-1.5,0.6
	c-0.4,0.5-0.6,1.1-0.6,1.7h4.2c0-0.6-0.2-1.2-0.6-1.7C534.3,203.5,533.8,203.3,533.2,203.3L533.2,203.3z"/>
<path class="st4" d="M126.1,188.3h-3v-14.3h8.2v2.5H126v3.7h4.8v2.5H126L126.1,188.3z"/>
<path class="st4" d="M140.8,188.3l-0.6-1.5h-0.1c-0.4,0.6-0.9,1-1.6,1.3c-0.7,0.3-1.4,0.4-2.1,0.4c-0.9,0.1-1.8-0.3-2.5-0.9
	c-0.6-0.7-1-1.6-0.9-2.6c-0.1-1,0.4-2,1.2-2.6c1.1-0.6,2.4-0.9,3.7-0.9l1.9-0.1v-0.5c0.1-0.8-0.5-1.6-1.3-1.7c-0.1,0-0.3,0-0.4,0
	c-1.1,0-2.1,0.3-3.1,0.8l-1-2c1.3-0.7,2.7-1,4.2-1c1.2-0.1,2.4,0.3,3.4,1c0.8,0.7,1.3,1.8,1.2,2.9v7.3L140.8,188.3z M139.9,183.3
	h-1.1c-0.7,0-1.3,0.1-1.9,0.5c-0.4,0.3-0.7,0.8-0.6,1.3c0,0.8,0.5,1.3,1.4,1.3c0.6,0,1.2-0.2,1.6-0.6c0.4-0.4,0.6-1,0.6-1.6
	L139.9,183.3z"/>
<path class="st4" d="M152.8,188.3l-0.6-1.5h-0.1c-0.4,0.6-0.9,1-1.6,1.3c-0.7,0.3-1.4,0.4-2.1,0.4c-0.9,0.1-1.8-0.3-2.5-0.9
	c-0.6-0.7-1-1.6-0.9-2.6c-0.1-1,0.4-2,1.2-2.6c1.1-0.6,2.4-0.9,3.7-0.9l1.9-0.1v-0.5c0.1-0.8-0.5-1.6-1.3-1.7c-0.1,0-0.3,0-0.4,0
	c-1.1,0-2.1,0.3-3.1,0.8l-1-2c1.3-0.7,2.7-1,4.2-1c1.2-0.1,2.4,0.3,3.4,1c0.8,0.7,1.3,1.8,1.2,2.9v7.3L152.8,188.3z M151.9,183.3
	h-1.1c-0.7,0-1.3,0.1-1.9,0.5c-0.4,0.3-0.7,0.8-0.6,1.3c0,0.8,0.5,1.3,1.4,1.3c0.6,0,1.2-0.2,1.6-0.6c0.4-0.4,0.6-1,0.6-1.6
	L151.9,183.3z"/>
<path class="st4" d="M166.6,184.4c0,1.2-0.5,2.3-1.4,3.1c-1.1,0.8-2.5,1.2-3.9,1.1c-1.4,0-2.7-0.3-4-0.9v-2.8
	c0.8,0.4,1.6,0.7,2.4,0.9c0.6,0.2,1.2,0.2,1.8,0.3c0.5,0,1.1-0.1,1.5-0.4c0.6-0.5,0.7-1.3,0.3-1.9c-0.2-0.2-0.4-0.5-0.7-0.6
	c-0.6-0.4-1.2-0.7-1.9-1c-0.7-0.3-1.4-0.7-2-1.2c-0.4-0.4-0.7-0.8-1-1.3c-0.3-0.5-0.4-1.2-0.4-1.8c-0.1-1.1,0.4-2.3,1.3-3
	c1-0.8,2.3-1.2,3.6-1.1c0.7,0,1.4,0.1,2.1,0.3c0.7,0.2,1.4,0.4,2.1,0.7l-1,2.4c-0.6-0.3-1.2-0.5-1.9-0.6c-0.5-0.1-1-0.2-1.5-0.2
	c-0.5,0-0.9,0.1-1.3,0.4c-0.3,0.3-0.5,0.6-0.5,1.1c0,0.2,0.1,0.5,0.2,0.7c0.2,0.2,0.4,0.4,0.6,0.6c0.6,0.4,1.3,0.7,1.9,1
	c1,0.4,2,1.1,2.7,2C166.4,182.7,166.7,183.5,166.6,184.4z"/>
<path class="st5" d="M295.9,71.3c0,0.9-0.3,1.7-1,2.2c-0.8,0.6-1.8,0.9-2.8,0.8c-1,0-2-0.2-2.9-0.6v-1.6c0.5,0.2,1,0.4,1.5,0.5
	c0.5,0.1,1,0.2,1.5,0.2c0.5,0,1.1-0.1,1.5-0.4c0.3-0.2,0.5-0.6,0.5-1c0-0.4-0.2-0.7-0.4-1c-0.6-0.4-1.2-0.8-1.8-1
	c-0.8-0.3-1.5-0.7-2-1.3c-0.4-0.5-0.6-1.1-0.6-1.8c0-0.8,0.3-1.6,0.9-2.1c0.7-0.5,1.6-0.8,2.5-0.8c1,0,2.1,0.2,3,0.7l-0.5,1.4
	c-0.8-0.4-1.6-0.6-2.5-0.6c-0.4,0-0.9,0.1-1.3,0.4c-0.3,0.2-0.5,0.6-0.4,1c0,0.2,0.1,0.5,0.2,0.7c0.1,0.2,0.3,0.4,0.6,0.6
	c0.5,0.3,0.9,0.5,1.4,0.7c0.6,0.2,1.2,0.5,1.7,0.9c0.3,0.3,0.6,0.6,0.8,0.9C295.9,70.5,296,70.9,295.9,71.3z"/>
<path class="st5" d="M301.3,74.3c-1.1,0.1-2.1-0.3-2.9-1.1c-0.7-0.8-1.1-1.9-1-3c-0.1-1.1,0.3-2.2,1-3.1c0.7-0.7,1.6-1.1,2.6-1.1
	c0.9,0,1.8,0.3,2.5,1c0.6,0.7,1,1.7,0.9,2.6v0.9h-5.3c0,0.7,0.2,1.3,0.6,1.8c0.4,0.4,1,0.7,1.7,0.6c0.4,0,0.9,0,1.3-0.1
	c0.4-0.1,0.9-0.3,1.3-0.4v1.4c-0.4,0.2-0.8,0.3-1.2,0.4C302.3,74.3,301.8,74.4,301.3,74.3z M301,67.3c-0.5,0-1,0.2-1.3,0.5
	c-0.4,0.4-0.6,0.9-0.6,1.5h3.6c0-0.5-0.1-1.1-0.5-1.5C301.9,67.5,301.4,67.4,301,67.3L301,67.3z"/>
<path class="st5" d="M310.3,66.1c0.3,0,0.6,0,0.8,0.1l-0.1,1.6c-0.2-0.1-0.5-0.1-0.8-0.1c-0.6,0-1.2,0.2-1.6,0.7
	c-0.4,0.5-0.6,1.1-0.6,1.7v4.2h-1.7v-7.9h1.3l0.2,1.4h0.1c0.2-0.4,0.6-0.8,1-1.1C309.3,66.3,309.8,66.1,310.3,66.1z"/>
<path class="st5" d="M314.4,74.2l-3-7.9h1.8l1.6,4.6c0.2,0.6,0.4,1.2,0.5,1.9h0.1c0.1-0.6,0.3-1.3,0.5-1.9l1.6-4.6h1.8l-3,7.9H314.4
	z"/>
<path class="st5" d="M323.9,74.3c-1.1,0.1-2.1-0.3-2.9-1.1c-0.7-0.8-1.1-1.9-1-3c-0.1-1.1,0.3-2.2,1-3.1c0.7-0.8,1.7-1.2,2.7-1.1
	c0.9,0,1.8,0.3,2.5,1c0.6,0.7,1,1.7,0.9,2.6v0.9h-5.3c0,0.6,0.2,1.3,0.6,1.8c0.4,0.4,1,0.6,1.6,0.6c0.4,0,0.9,0,1.3-0.1
	c0.4-0.1,0.9-0.3,1.3-0.4v1.4c-0.4,0.2-0.8,0.3-1.2,0.4C324.9,74.3,324.4,74.3,323.9,74.3z M323.6,67.3c-0.5,0-0.9,0.2-1.3,0.5
	c-0.4,0.4-0.6,0.9-0.6,1.5h3.6c0-0.5-0.1-1.1-0.5-1.5C324.6,67.5,324.1,67.3,323.6,67.3L323.6,67.3z"/>
<path class="st5" d="M333,66.1c0.3,0,0.6,0,0.8,0.1l-0.2,1.6c-0.2-0.1-0.5-0.1-0.8-0.1c-0.6,0-1.2,0.2-1.6,0.7
	c-0.4,0.5-0.6,1.1-0.6,1.7v4.2H329v-7.9h1.3l0.2,1.4h0.1c0.2-0.4,0.6-0.8,1-1.1C332,66.2,332.5,66.1,333,66.1z"/>
<path class="st5" d="M295.9,99.1c0,0.9-0.3,1.7-1,2.2c-0.8,0.6-1.8,0.9-2.8,0.8c-1,0-2-0.2-2.9-0.6v-1.6c0.5,0.2,1,0.4,1.5,0.5
	c0.5,0.1,1,0.2,1.5,0.2c0.5,0,1.1-0.1,1.5-0.4c0.6-0.5,0.6-1.4,0.1-1.9c0,0-0.1-0.1-0.1-0.1c-0.6-0.4-1.2-0.8-1.8-1
	c-0.8-0.3-1.5-0.7-2-1.3c-0.4-0.5-0.6-1.1-0.6-1.8c0-0.8,0.3-1.6,0.9-2.1c0.7-0.5,1.6-0.8,2.5-0.8c1,0,2.1,0.2,3,0.7l-0.5,1.4
	c-0.8-0.4-1.6-0.6-2.5-0.6c-0.4,0-0.9,0.1-1.3,0.4c-0.3,0.2-0.5,0.6-0.4,1c0,0.2,0.1,0.5,0.2,0.7c0.2,0.2,0.3,0.4,0.6,0.6
	c0.5,0.3,0.9,0.5,1.4,0.7c0.6,0.2,1.2,0.5,1.7,0.9c0.3,0.2,0.6,0.6,0.8,0.9C295.9,98.2,295.9,98.6,295.9,99.1z"/>
<path class="st5" d="M301.3,102.1c-1.1,0.1-2.1-0.3-2.9-1.1c-0.7-0.8-1.1-1.9-1-3c-0.1-1.1,0.3-2.2,1-3.1c0.7-0.7,1.6-1.1,2.6-1.1
	c0.9,0,1.8,0.3,2.5,1c0.6,0.7,1,1.7,0.9,2.6v0.9h-5.3c0,0.7,0.2,1.3,0.6,1.8c0.4,0.4,1,0.7,1.7,0.6c0.4,0,0.9,0,1.3-0.1
	c0.4-0.1,0.9-0.3,1.3-0.4v1.4c-0.4,0.2-0.8,0.3-1.2,0.4C302.3,102.1,301.8,102.1,301.3,102.1z M301,95.1c-0.5,0-1,0.2-1.3,0.5
	c-0.4,0.4-0.6,0.9-0.6,1.5h3.6c0-0.5-0.1-1.1-0.5-1.5C301.9,95.2,301.4,95.1,301,95.1L301,95.1z"/>
<path class="st5" d="M309.5,102.1c-1,0.1-2-0.3-2.7-1.1c-0.7-0.8-1-1.9-0.9-3c-0.1-1.1,0.3-2.2,1-3.1c0.7-0.7,1.8-1.1,2.8-1.1
	c0.8,0,1.5,0.1,2.3,0.5l-0.5,1.4c-0.6-0.2-1.2-0.4-1.8-0.4c-1.4,0-2.1,0.9-2.1,2.7c0,0.7,0.1,1.4,0.5,2c0.4,0.5,0.9,0.7,1.5,0.7
	c0.7,0,1.5-0.2,2.1-0.6v1.5c-0.3,0.2-0.6,0.3-1,0.4C310.3,102,309.9,102.1,309.5,102.1z"/>
<path class="st5" d="M319.1,101.9l-0.2-1h-0.1c-0.2,0.4-0.6,0.7-1,0.9c-0.5,0.2-1,0.3-1.5,0.3c-0.8,0.1-1.6-0.2-2.2-0.7
	c-0.5-0.6-0.8-1.4-0.7-2.2V94h1.7v4.9c0,0.5,0.1,1,0.4,1.4c0.3,0.3,0.7,0.5,1.2,0.4c0.6,0.1,1.2-0.2,1.6-0.6
	c0.4-0.6,0.6-1.4,0.5-2.1v-4h1.7v7.9L319.1,101.9z"/>
<path class="st5" d="M326.9,93.8c0.3,0,0.6,0,0.8,0.1l-0.2,1.6c-0.2-0.1-0.5-0.1-0.7-0.1c-0.6,0-1.2,0.2-1.6,0.7
	c-0.4,0.5-0.7,1.1-0.6,1.7v4.2h-1.7V94h1.3l0.2,1.4h0.1c0.2-0.5,0.6-0.8,1-1.1C325.9,94,326.4,93.8,326.9,93.8z"/>
<path class="st5" d="M329.1,91.9c0-0.3,0.1-0.5,0.2-0.7c0.2-0.2,0.4-0.3,0.7-0.2c0.3,0,0.5,0.1,0.7,0.2c0.2,0.2,0.3,0.4,0.2,0.7
	c0,0.2-0.1,0.5-0.2,0.7c-0.2,0.2-0.4,0.3-0.7,0.2c-0.3,0-0.5-0.1-0.7-0.2C329.2,92.4,329.1,92.1,329.1,91.9z M330.9,101.9h-1.7V94
	h1.7V101.9z"/>
<path class="st5" d="M336.3,100.7c0.4,0,0.8-0.1,1.2-0.2v1.3c-0.2,0.1-0.5,0.2-0.7,0.2c-0.3,0.1-0.6,0.1-0.9,0.1
	c-1.6,0-2.4-0.8-2.4-2.5v-4.3h-1.1v-0.8l1.2-0.6l0.6-1.7h1V94h2.3v1.3h-2.3v4.2c0,0.3,0.1,0.7,0.3,0.9
	C335.7,100.6,336,100.7,336.3,100.7z"/>
<path class="st5" d="M337.9,94h1.8l1.6,4.5c0.2,0.6,0.4,1.2,0.5,1.8h0.1c0.1-0.3,0.1-0.7,0.2-1c0.1-0.4,0.7-2.2,1.8-5.3h1.8l-3.4,9
	c-0.6,1.7-1.6,2.5-3.1,2.5c-0.4,0-0.7,0-1.1-0.1V104c0.3,0.1,0.6,0.1,0.9,0.1c0.8,0,1.5-0.6,1.7-1.4l0.3-0.8L337.9,94z"/>
<path class="st5" d="M293.5,128.2h-1.7v-9h-3.1v-1.5h7.9v1.5h-3.1V128.2z"/>
<path class="st5" d="M302.1,120.1c0.3,0,0.6,0,0.8,0.1l-0.2,1.6c-0.2-0.1-0.5-0.1-0.8-0.1c-0.6,0-1.2,0.2-1.6,0.7
	c-0.4,0.5-0.6,1.1-0.6,1.7v4.2H298v-7.9h1.3l0.2,1.4h0.1c0.2-0.5,0.6-0.8,1-1.1C301.1,120.3,301.6,120.1,302.1,120.1z"/>
<path class="st5" d="M309.3,128.2l-0.3-1.1h-0.1c-0.3,0.4-0.7,0.8-1.1,1c-0.5,0.2-1,0.3-1.5,0.3c-0.7,0-1.3-0.2-1.8-0.6
	c-0.5-0.5-0.7-1.1-0.7-1.8c0-0.7,0.3-1.4,0.9-1.8c0.8-0.5,1.8-0.7,2.8-0.7h1.4V123c0-0.4-0.1-0.8-0.4-1.1c-0.3-0.3-0.7-0.4-1.1-0.4
	c-0.4,0-0.8,0.1-1.2,0.2c-0.4,0.1-0.7,0.3-1.1,0.4l-0.5-1.2c0.4-0.2,0.9-0.4,1.4-0.5c0.5-0.1,1-0.2,1.5-0.2c0.8-0.1,1.6,0.2,2.3,0.7
	c0.6,0.5,0.8,1.3,0.8,2.1v5.3L309.3,128.2z M306.8,127.1c0.5,0,1.1-0.2,1.5-0.5c0.4-0.4,0.6-0.9,0.6-1.4v-0.7h-1
	c-0.6,0-1.2,0.1-1.7,0.4c-0.4,0.2-0.6,0.7-0.5,1.1c0,0.3,0.1,0.6,0.3,0.8C306.2,127,306.5,127.1,306.8,127.1z"/>
<path class="st5" d="M319.9,128.2h-1.7v-4.9c0-0.5-0.1-1-0.4-1.4c-0.3-0.3-0.7-0.5-1.2-0.4c-0.6-0.1-1.2,0.2-1.6,0.6
	c-0.4,0.6-0.6,1.4-0.5,2.1v4h-1.7v-7.9h1.3l0.2,1h0.1c0.2-0.4,0.6-0.7,1-0.9c0.5-0.2,1-0.3,1.5-0.3c1.9,0,2.9,1,2.9,2.9L319.9,128.2
	z"/>
<path class="st5" d="M327.6,126c0,0.7-0.3,1.4-0.9,1.8c-0.7,0.5-1.6,0.7-2.4,0.6c-0.9,0-1.7-0.1-2.5-0.5v-1.5
	c0.8,0.4,1.7,0.6,2.6,0.7c1,0,1.6-0.3,1.6-0.9c0-0.2-0.1-0.4-0.2-0.5c-0.2-0.2-0.4-0.3-0.6-0.4c-0.4-0.2-0.7-0.3-1.1-0.5
	c-0.7-0.2-1.3-0.6-1.9-1.1c-0.3-0.4-0.5-0.9-0.5-1.4c0-0.6,0.3-1.2,0.8-1.6c0.7-0.4,1.5-0.6,2.2-0.6c0.9,0,1.8,0.2,2.6,0.6l-0.5,1.3
	c-0.7-0.3-1.4-0.5-2.2-0.5c-0.9,0-1.3,0.2-1.3,0.8c0,0.3,0.1,0.5,0.4,0.6c0.5,0.3,1,0.5,1.5,0.7c0.5,0.2,1,0.4,1.4,0.7
	c0.3,0.2,0.5,0.4,0.7,0.7C327.5,125.3,327.6,125.7,327.6,126z"/>
<path class="st5" d="M334.4,128.2l-0.3-1.1l0,0c-0.3,0.4-0.7,0.8-1.2,1c-0.5,0.2-1,0.3-1.5,0.3c-0.7,0-1.3-0.2-1.8-0.6
	c-0.5-0.5-0.7-1.1-0.7-1.8c0-0.7,0.3-1.4,0.9-1.8c0.8-0.5,1.8-0.7,2.8-0.7h1.4V123c0-0.4-0.1-0.8-0.4-1.1c-0.3-0.3-0.7-0.4-1.1-0.4
	c-0.4,0-0.8,0.1-1.2,0.2c-0.4,0.1-0.7,0.3-1.1,0.4l-0.5-1.2c0.4-0.2,0.9-0.4,1.4-0.5c0.5-0.1,1-0.2,1.5-0.2c0.8-0.1,1.6,0.2,2.3,0.7
	c0.6,0.5,0.8,1.3,0.8,2.1v5.3L334.4,128.2z M331.8,127.1c0.5,0,1.1-0.2,1.5-0.5c0.4-0.4,0.6-0.9,0.6-1.4v-0.7h-1
	c-0.6,0-1.2,0.1-1.7,0.4c-0.4,0.2-0.6,0.7-0.5,1.1c0,0.3,0.1,0.6,0.3,0.8C331.2,127,331.5,127.1,331.8,127.1L331.8,127.1z"/>
<path class="st5" d="M341.1,128.4c-1,0.1-2-0.3-2.7-1.1c-0.7-0.8-1-1.9-0.9-3c-0.1-1.1,0.3-2.2,1-3.1c0.7-0.8,1.8-1.1,2.8-1.1
	c0.8,0,1.6,0.1,2.3,0.5L343,122c-0.6-0.2-1.2-0.4-1.8-0.4c-1.4,0-2.1,0.9-2.1,2.7c-0.1,0.7,0.1,1.4,0.5,2c0.4,0.5,0.9,0.7,1.5,0.7
	c0.7,0,1.5-0.2,2.1-0.6v1.5c-0.3,0.2-0.7,0.3-1,0.4C341.9,128.4,341.5,128.4,341.1,128.4z"/>
<path class="st5" d="M348.2,127c0.4,0,0.8-0.1,1.2-0.2v1.3c-0.2,0.1-0.5,0.2-0.7,0.2c-0.3,0.1-0.6,0.1-0.9,0.1
	c-1.6,0-2.4-0.8-2.4-2.5v-4.3h-1.1v-0.7l1.2-0.6l0.6-1.7h1v1.8h2.3v1.3H347v4.3c0,0.3,0.1,0.7,0.3,0.9
	C347.5,126.9,347.9,127,348.2,127z"/>
<path class="st5" d="M350.9,118.2c0-0.5,0.3-0.9,0.8-0.9c0.1,0,0.1,0,0.2,0c0.5-0.1,1,0.3,1,0.8s-0.3,1-0.8,1c-0.1,0-0.1,0-0.2,0
	c-0.3,0-0.5-0.1-0.7-0.2C351,118.7,350.9,118.4,350.9,118.2z M352.7,128.2H351v-7.9h1.7L352.7,128.2z"/>
<path class="st5" d="M362.1,124.2c0.1,1.1-0.3,2.2-1,3c-0.7,0.8-1.7,1.2-2.8,1.1c-0.7,0-1.4-0.2-2-0.5c-0.6-0.3-1-0.8-1.3-1.4
	c-0.3-0.7-0.5-1.4-0.5-2.2c-0.1-1.1,0.3-2.2,1-3c0.7-0.8,1.8-1.2,2.8-1.1c1,0,2,0.4,2.7,1.1C361.8,122.1,362.2,123.1,362.1,124.2z
	 M356.4,124.2c0,1.8,0.7,2.8,2,2.8s2-0.9,2-2.8s-0.7-2.7-2-2.7c-0.6,0-1.2,0.2-1.5,0.7C356.5,122.8,356.3,123.5,356.4,124.2z"/>
<path class="st5" d="M371.1,128.2h-1.7v-4.9c0-0.5-0.1-1-0.4-1.3c-0.3-0.3-0.7-0.5-1.2-0.4c-0.6-0.1-1.2,0.2-1.6,0.6
	c-0.4,0.6-0.6,1.4-0.5,2.1v4h-1.7v-7.9h1.3l0.2,1h0.1c0.2-0.4,0.6-0.7,1-0.9c0.5-0.2,1-0.3,1.5-0.3c1.9,0,2.9,1,2.9,2.9L371.1,128.2
	z"/>
<path class="st5" d="M381.9,128.2l-3-8.8h-0.1c0.1,1.3,0.1,2.6,0.1,3.7v5.1h-1.6v-10.5h2.4l2.9,8.3l0,0l3-8.3h2.4v10.5h-1.6V123
	c0-0.5,0-1.2,0-2s0-1.3,0.1-1.5h-0.1l-3.1,8.8H381.9z"/>
<path class="st5" d="M395.8,128.2l-0.3-1.1h-0.1c-0.3,0.4-0.7,0.8-1.2,1c-0.5,0.2-1,0.3-1.5,0.3c-0.7,0-1.3-0.2-1.8-0.6
	c-0.5-0.5-0.7-1.1-0.6-1.8c0-0.7,0.3-1.4,0.9-1.8c0.8-0.5,1.8-0.7,2.8-0.7h1.4V123c0-0.4-0.1-0.8-0.4-1.1c-0.3-0.3-0.7-0.4-1.1-0.4
	c-0.4,0-0.8,0.1-1.2,0.2c-0.4,0.1-0.7,0.3-1.1,0.4l-0.5-1.2c0.4-0.2,0.9-0.4,1.4-0.5c0.5-0.1,1-0.2,1.5-0.2c0.8-0.1,1.6,0.2,2.3,0.7
	c0.6,0.5,0.8,1.3,0.8,2.1v5.3L395.8,128.2z M393.2,127.1c0.5,0,1.1-0.2,1.5-0.5c0.4-0.4,0.6-0.9,0.5-1.4v-0.7h-1
	c-0.6,0-1.2,0.1-1.7,0.4c-0.4,0.3-0.6,0.7-0.5,1.2c0,0.3,0.1,0.6,0.3,0.8C392.6,127,392.9,127.1,393.2,127.1z"/>
<path class="st5" d="M406.3,128.2h-1.7v-4.9c0-0.5-0.1-1-0.4-1.4c-0.3-0.3-0.7-0.5-1.2-0.4c-0.6-0.1-1.2,0.2-1.6,0.6
	c-0.4,0.6-0.6,1.4-0.5,2.1v4h-1.7v-7.9h1.3l0.2,1h0.1c0.2-0.4,0.6-0.7,1-0.9c0.5-0.2,1-0.3,1.5-0.3c1.9,0,2.9,1,2.9,2.9L406.3,128.2
	z"/>
<path class="st5" d="M413.6,128.2l-0.3-1.1h-0.1c-0.3,0.4-0.7,0.8-1.1,1c-0.5,0.2-1,0.3-1.5,0.3c-0.7,0-1.3-0.2-1.8-0.6
	c-0.5-0.5-0.7-1.1-0.7-1.8c0-0.7,0.3-1.4,0.9-1.8c0.8-0.5,1.8-0.7,2.8-0.7h1.4V123c0-0.4-0.1-0.8-0.4-1.1c-0.3-0.3-0.7-0.4-1.1-0.4
	c-0.4,0-0.8,0.1-1.2,0.2c-0.4,0.1-0.7,0.3-1.1,0.4l-0.5-1.2c0.9-0.4,1.9-0.7,2.9-0.7c0.8-0.1,1.6,0.2,2.3,0.7
	c0.6,0.5,0.8,1.3,0.8,2.1v5.3L413.6,128.2z M411.1,127.1c0.5,0,1.1-0.2,1.5-0.5c0.4-0.4,0.6-0.9,0.6-1.4v-0.7h-1
	c-0.6,0-1.2,0.1-1.7,0.4c-0.4,0.2-0.6,0.7-0.5,1.1c0,0.3,0.1,0.6,0.3,0.8C410.4,127,410.8,127.1,411.1,127.1z"/>
<path class="st5" d="M423.9,120.3v0.9l-1.4,0.2c0.1,0.2,0.2,0.4,0.3,0.6c0.1,0.3,0.1,0.5,0.1,0.8c0,0.7-0.3,1.5-0.9,1.9
	c-0.7,0.5-1.5,0.8-2.3,0.7c-0.2,0-0.5,0-0.7-0.1c-0.3,0.2-0.5,0.5-0.5,0.8c0,0.2,0.1,0.3,0.2,0.4c0.3,0.1,0.6,0.2,0.9,0.1h1.4
	c0.7,0,1.4,0.1,2,0.6c0.5,0.4,0.7,1,0.7,1.6c0,0.8-0.4,1.6-1.1,2.1c-1,0.5-2.1,0.8-3.2,0.7c-0.9,0.1-1.7-0.1-2.5-0.6
	c-0.5-0.4-0.9-1-0.9-1.6c0-0.5,0.2-0.9,0.5-1.2c0.4-0.4,0.8-0.6,1.3-0.7c-0.2-0.1-0.4-0.3-0.6-0.5c-0.1-0.2-0.2-0.4-0.2-0.7
	c0-0.3,0.1-0.5,0.3-0.8c0.2-0.2,0.5-0.5,0.7-0.6c-0.4-0.2-0.8-0.5-1-0.9c-0.3-0.4-0.4-0.9-0.4-1.4c0-0.8,0.3-1.5,0.8-2
	c0.7-0.5,1.5-0.8,2.3-0.7c0.2,0,0.5,0,0.7,0c0.2,0,0.4,0.1,0.6,0.1L423.9,120.3z M417.7,129.5c0,0.4,0.2,0.7,0.5,0.8
	c0.4,0.2,0.9,0.3,1.4,0.3c0.7,0,1.4-0.1,2.1-0.4c0.4-0.2,0.6-0.6,0.7-1c0-0.3-0.1-0.6-0.4-0.7c-0.4-0.2-0.9-0.3-1.4-0.2h-1.3
	c-0.4,0-0.8,0.1-1.1,0.3C417.8,128.8,417.7,129.1,417.7,129.5z M418.4,122.9c0,0.4,0.1,0.8,0.4,1.2c0.3,0.3,0.7,0.4,1.1,0.4
	c1,0,1.5-0.5,1.5-1.6c0-0.4-0.1-0.8-0.4-1.2c-0.3-0.3-0.7-0.5-1.1-0.4c-0.4,0-0.8,0.1-1.1,0.4C418.5,122,418.4,122.4,418.4,122.9z"
	/>
<path class="st5" d="M428.8,128.4c-1.1,0.1-2.1-0.3-2.9-1.1c-0.7-0.8-1.1-1.9-1-3c0-1.1,0.3-2.2,1-3c0.7-0.8,1.6-1.2,2.7-1.1
	c0.9,0,1.8,0.3,2.5,1c0.6,0.7,1,1.7,0.9,2.6v0.9h-5.3c0,0.7,0.2,1.3,0.6,1.8c0.4,0.4,1,0.7,1.7,0.6c0.4,0,0.9,0,1.3-0.1
	c0.4-0.1,0.9-0.2,1.3-0.4v1.4c-0.4,0.2-0.8,0.3-1.2,0.4C429.8,128.4,429.3,128.4,428.8,128.4z M428.5,121.4c-0.5,0-1,0.2-1.3,0.5
	c-0.4,0.4-0.6,0.9-0.6,1.5h3.6c0-0.5-0.1-1.1-0.5-1.5C429.5,121.5,429,121.4,428.5,121.4L428.5,121.4z"/>
<path class="st5" d="M437.9,120.1c0.3,0,0.6,0,0.8,0.1l-0.2,1.6c-0.2-0.1-0.5-0.1-0.8-0.1c-0.6,0-1.2,0.2-1.6,0.7
	c-0.4,0.5-0.7,1.1-0.6,1.7v4.2h-1.7v-7.9h1.3l0.2,1.4h0.1c0.2-0.5,0.6-0.8,1-1.1C436.9,120.3,437.4,120.1,437.9,120.1z"/>
<path class="st5" d="M295.9,153c0,0.9-0.3,1.7-1,2.2c-0.8,0.6-1.8,0.9-2.8,0.8c-1,0-2-0.2-2.9-0.6v-1.6c0.5,0.2,1,0.4,1.5,0.5
	c0.5,0.1,1,0.2,1.5,0.2c0.5,0,1.1-0.1,1.5-0.4c0.3-0.2,0.5-0.6,0.5-1c0-0.4-0.2-0.7-0.4-1c-0.6-0.4-1.2-0.8-1.8-1
	c-0.8-0.3-1.5-0.7-2-1.3c-0.4-0.5-0.6-1.1-0.6-1.8c0-0.8,0.3-1.6,0.9-2.1c0.7-0.5,1.6-0.8,2.5-0.8c1,0,2.1,0.2,3,0.7l-0.5,1.4
	c-0.8-0.4-1.6-0.6-2.5-0.6c-0.4,0-0.9,0.1-1.3,0.4c-0.3,0.2-0.5,0.6-0.4,1c0,0.2,0.1,0.5,0.2,0.7c0.1,0.2,0.3,0.4,0.6,0.6
	c0.5,0.3,0.9,0.5,1.4,0.7c0.6,0.2,1.2,0.5,1.7,0.9c0.3,0.3,0.6,0.6,0.8,0.9C295.9,152.2,296,152.6,295.9,153z"/>
<path class="st5" d="M301,156c-1,0.1-2-0.3-2.7-1.1c-0.7-0.9-1-1.9-0.9-3c-0.1-1.1,0.3-2.2,1-3.1c0.7-0.8,1.8-1.2,2.8-1.1
	c0.8,0,1.6,0.1,2.3,0.5l-0.5,1.4c-0.6-0.2-1.2-0.4-1.8-0.4c-1.4,0-2.1,0.9-2.1,2.7c0,0.7,0.1,1.4,0.5,2c0.4,0.5,0.9,0.7,1.5,0.7
	c0.7,0,1.5-0.2,2.1-0.6v1.5c-0.3,0.2-0.6,0.3-1,0.4C301.8,156,301.4,156,301,156z"/>
<path class="st5" d="M312.1,155.8h-1.7v-4.9c0-0.5-0.1-1-0.4-1.4c-0.3-0.3-0.7-0.5-1.2-0.4c-0.6-0.1-1.2,0.2-1.6,0.6
	c-0.4,0.6-0.6,1.4-0.5,2.1v3.9h-1.7v-11.2h1.7v2.8c0,0.5,0,1-0.1,1.5h0.1c0.2-0.4,0.6-0.7,1-0.9c0.4-0.2,0.9-0.3,1.4-0.3
	c1.9,0,2.9,1,2.9,2.9L312.1,155.8z"/>
<path class="st5" d="M317.9,156c-1.1,0.1-2.1-0.3-2.9-1.1c-0.7-0.8-1.1-1.9-1-3c-0.1-1.1,0.3-2.2,1-3.1c0.7-0.8,1.7-1.2,2.7-1.1
	c0.9,0,1.8,0.3,2.5,1c0.6,0.7,1,1.7,0.9,2.6v0.9h-5.3c0,0.6,0.2,1.3,0.6,1.8c0.4,0.4,1,0.7,1.7,0.6c0.4,0,0.9,0,1.3-0.1
	c0.4-0.1,0.9-0.3,1.3-0.4v1.4c-0.4,0.2-0.8,0.3-1.2,0.4C318.9,156,318.4,156,317.9,156z M317.6,149c-0.5,0-1,0.2-1.3,0.5
	c-0.4,0.4-0.6,0.9-0.6,1.5h3.6c0-0.5-0.1-1.1-0.5-1.5C318.5,149.2,318,149,317.6,149z"/>
<path class="st5" d="M325.6,156c-0.9,0-1.8-0.4-2.3-1.1c-0.6-0.9-0.9-1.9-0.8-3c-0.1-1.1,0.2-2.1,0.8-3c0.6-0.7,1.4-1.1,2.3-1.1
	c0.9,0,1.8,0.4,2.4,1.2h0.1c-0.1-0.4-0.1-0.9-0.1-1.4v-2.9h1.7v11.2h-1.3l-0.3-1h-0.1C327.4,155.7,326.5,156.1,325.6,156z
	 M326,154.6c0.6,0.1,1.1-0.2,1.5-0.6c0.4-0.6,0.5-1.2,0.5-1.9v-0.2c0.1-0.7-0.1-1.5-0.5-2.1c-0.4-0.4-0.9-0.7-1.5-0.6
	c-0.6,0-1.1,0.3-1.4,0.7c-0.4,0.6-0.5,1.3-0.5,2.1c0,0.7,0.1,1.4,0.5,2C324.9,154.4,325.5,154.6,326,154.6L326,154.6z"/>
<path class="st5" d="M337.6,155.8l-0.2-1h-0.1c-0.2,0.4-0.6,0.7-1,0.9c-0.5,0.2-1,0.3-1.5,0.3c-0.8,0.1-1.6-0.2-2.2-0.7
	c-0.5-0.6-0.8-1.4-0.7-2.2v-5.2h1.7v4.9c0,0.5,0.1,1,0.4,1.4c0.3,0.3,0.7,0.5,1.2,0.4c0.6,0.1,1.2-0.2,1.6-0.6
	c0.4-0.6,0.6-1.4,0.5-2.1v-4h1.7v7.9L337.6,155.8z"/>
<path class="st5" d="M343.1,155.8h-1.7v-11.2h1.7V155.8z"/>
<path class="st5" d="M349,156c-1.1,0.1-2.1-0.3-2.9-1.1c-0.7-0.8-1.1-1.9-1-3c-0.1-1.1,0.3-2.2,1-3.1c0.7-0.8,1.7-1.2,2.7-1.1
	c0.9,0,1.8,0.3,2.5,1c0.6,0.7,1,1.7,0.9,2.6v0.9h-5.3c0,0.6,0.2,1.3,0.6,1.8c0.4,0.4,1,0.7,1.7,0.6c0.4,0,0.9,0,1.3-0.1
	c0.4-0.1,0.9-0.3,1.3-0.4v1.4c-0.4,0.2-0.8,0.3-1.2,0.4C350,156,349.5,156,349,156z M348.7,149c-0.5,0-1,0.2-1.3,0.5
	c-0.4,0.4-0.6,0.9-0.6,1.5h3.6c0-0.5-0.1-1.1-0.5-1.5C349.6,149.1,349.1,149,348.7,149L348.7,149z"/>
<path class="st5" d="M358,147.7c0.3,0,0.6,0,0.8,0.1l-0.2,1.6c-0.2-0.1-0.5-0.1-0.8-0.1c-0.6,0-1.2,0.2-1.6,0.7
	c-0.4,0.5-0.7,1.1-0.6,1.7v4.1H354v-7.9h1.3l0.2,1.4h0.1c0.2-0.4,0.6-0.8,1-1.1C357,147.9,357.5,147.7,358,147.7z"/>
<path class="st5" d="M294.7,183.2l-0.3-1.1h-0.1c-0.3,0.4-0.7,0.8-1.2,1c-0.5,0.2-1,0.3-1.5,0.3c-0.7,0-1.3-0.2-1.8-0.6
	c-0.5-0.5-0.7-1.1-0.7-1.8c0-0.7,0.3-1.4,0.9-1.9c0.8-0.5,1.8-0.7,2.8-0.7h1.4V178c0-0.4-0.1-0.8-0.4-1.1c-0.3-0.3-0.7-0.4-1.1-0.4
	c-0.4,0-0.8,0.1-1.2,0.2c-0.4,0.1-0.7,0.3-1.1,0.4l-0.5-1.2c0.4-0.2,0.9-0.4,1.4-0.5c0.5-0.1,1-0.2,1.5-0.2c0.8-0.1,1.6,0.2,2.3,0.7
	c0.6,0.5,0.8,1.3,0.8,2.1v5.4L294.7,183.2z M292.2,182.1c0.5,0,1.1-0.2,1.5-0.5c0.4-0.4,0.6-0.9,0.5-1.4v-0.7h-1
	c-0.6,0-1.2,0.1-1.7,0.4c-0.4,0.2-0.6,0.7-0.5,1.1c0,0.3,0.1,0.6,0.3,0.8C291.5,182,291.8,182.1,292.2,182.1L292.2,182.1z"/>
<path class="st5" d="M305.2,183.2h-1.7v-4.9c0-0.5-0.1-1-0.4-1.4c-0.3-0.3-0.7-0.5-1.2-0.4c-0.6-0.1-1.2,0.2-1.6,0.6
	c-0.4,0.6-0.6,1.4-0.5,2.1v4h-1.7v-8h1.3l0.2,1h0.1c0.2-0.4,0.6-0.7,1-0.9c0.5-0.2,1-0.3,1.5-0.3c1.9,0,2.9,1,2.9,2.9L305.2,183.2z"
	/>
<path class="st5" d="M310.2,183.4c-0.9,0-1.8-0.4-2.3-1.1c-1.1-1.9-1.1-4.2,0-6.1c0.6-0.7,1.4-1.1,2.3-1.1c0.9,0,1.8,0.4,2.4,1.1
	h0.1c-0.1-0.4-0.1-0.9-0.1-1.4v-2.9h1.7v11.2H313l-0.3-1h-0.1C312.1,183,311.2,183.4,310.2,183.4z M310.7,182
	c0.6,0.1,1.1-0.2,1.5-0.6c0.4-0.6,0.5-1.2,0.5-1.9v-0.2c0.1-0.7-0.1-1.5-0.5-2.1c-0.4-0.4-0.9-0.7-1.5-0.6c-0.6,0-1.1,0.3-1.4,0.7
	c-0.4,0.6-0.5,1.3-0.5,2.1c0,0.7,0.1,1.4,0.5,2C309.6,181.8,310.1,182,310.7,182L310.7,182z"/>
<path class="st5" d="M327.2,183.2h-1.7v-4.9c0-0.5-0.1-1-0.3-1.4c-0.3-0.3-0.7-0.5-1.1-0.4c-0.6,0-1.1,0.2-1.4,0.6
	c-0.4,0.6-0.5,1.4-0.5,2.1v4h-1.7v-8h1.3l0.2,1h0.1c0.2-0.4,0.6-0.7,1-0.9c0.4-0.2,0.9-0.3,1.4-0.3c1-0.1,2,0.4,2.4,1.2h0.1
	c0.2-0.4,0.6-0.7,1-0.9c0.5-0.2,1-0.3,1.5-0.3c0.8-0.1,1.5,0.2,2.1,0.7c0.5,0.6,0.7,1.4,0.6,2.2v5.2h-1.7v-4.9c0-0.5-0.1-1-0.4-1.4
	c-0.3-0.3-0.7-0.5-1.1-0.4c-0.6,0-1.1,0.2-1.4,0.6c-0.3,0.6-0.5,1.2-0.5,1.9L327.2,183.2z"/>
<path class="st5" d="M341.7,179.3c0.1,1.1-0.3,2.2-1,3c-0.7,0.8-1.7,1.2-2.8,1.1c-0.7,0-1.4-0.2-2-0.5c-0.6-0.3-1-0.8-1.3-1.4
	c-0.3-0.7-0.5-1.4-0.5-2.2c-0.1-1.1,0.3-2.2,1-3c0.7-0.7,1.7-1.1,2.8-1.1c1,0,2,0.4,2.7,1.1C341.3,177.1,341.7,178.2,341.7,179.3z
	 M335.9,179.3c0,1.8,0.7,2.8,2,2.8s2-0.9,2-2.8s-0.7-2.7-2-2.7c-0.6-0.1-1.2,0.2-1.5,0.7C336,177.9,335.8,178.6,335.9,179.3z"/>
<path class="st5" d="M347.6,175.2c0.3,0,0.6,0,0.8,0.1l-0.2,1.6c-0.2-0.1-0.5-0.1-0.8-0.1c-0.6,0-1.2,0.2-1.6,0.7
	c-0.4,0.5-0.7,1.1-0.6,1.7v4.1h-1.7v-7.9h1.3l0.2,1.4h0.1c0.2-0.5,0.6-0.8,1-1.1C346.6,175.3,347.1,175.2,347.6,175.2z"/>
<path class="st5" d="M353.4,183.4c-1.1,0.1-2.1-0.3-2.9-1.1c-0.7-0.8-1.1-1.9-1-3c-0.1-1.1,0.3-2.2,1-3.1c0.7-0.8,1.7-1.2,2.7-1.1
	c0.9,0,1.8,0.3,2.5,1c0.6,0.7,1,1.7,0.9,2.6v0.9h-5.3c0,0.6,0.2,1.3,0.6,1.8c0.4,0.4,1,0.7,1.7,0.6c0.4,0,0.9,0,1.3-0.1
	c0.4-0.1,0.9-0.3,1.3-0.4v1.4c-0.4,0.2-0.8,0.3-1.2,0.4C354.4,183.4,353.9,183.4,353.4,183.4z M353.1,176.4c-0.5,0-1,0.2-1.3,0.5
	c-0.4,0.4-0.6,0.9-0.6,1.5h3.6c0-0.5-0.1-1.1-0.5-1.5C354,176.6,353.6,176.4,353.1,176.4z"/>
<path class="st5" d="M358.2,182.4c0-0.3,0.1-0.6,0.3-0.8c0.2-0.2,0.5-0.3,0.8-0.3c0.3,0,0.6,0.1,0.8,0.3c0.4,0.5,0.4,1.1,0,1.6
	c-0.5,0.4-1.1,0.4-1.6,0C358.2,182.9,358.1,182.6,358.2,182.4z"/>
<path class="st5" d="M362.2,182.4c0-0.3,0.1-0.6,0.3-0.8c0.5-0.4,1.1-0.4,1.6,0c0.4,0.5,0.4,1.1,0,1.6c-0.2,0.2-0.5,0.3-0.8,0.3
	c-0.3,0-0.6-0.1-0.8-0.3C362.3,182.9,362.2,182.6,362.2,182.4z"/>
<path class="st5" d="M366.2,182.4c0-0.3,0.1-0.6,0.3-0.8c0.5-0.4,1.1-0.4,1.6,0c0.2,0.2,0.3,0.5,0.3,0.8c0,0.3-0.1,0.6-0.3,0.8
	c-0.2,0.2-0.5,0.3-0.8,0.3c-0.3,0-0.6-0.1-0.8-0.3C366.3,182.9,366.2,182.6,366.2,182.4z"/>
<line class="st6" x1="277.7" y1="0" x2="277.7" y2="333.1"/>
</svg>
