<svg id="Layer_1" data-name="Layer 1" xmlns="http://www.w3.org/2000/svg" viewBox="0 0 741.86 480.47"><defs><style>.cls-1{fill:#ebf2f2;}.cls-2,.cls-3,.cls-4{fill:none;}.cls-2,.cls-3{stroke:#98afae;stroke-linecap:round;stroke-linejoin:round;}.cls-2,.cls-3,.cls-4,.cls-5{stroke-width:1.5px;}.cls-3{stroke-dasharray:0.5 5.99;}.cls-4{stroke:#c4cecd;}.cls-4,.cls-5{stroke-miterlimit:10;}.cls-10,.cls-5{fill:#fff;}.cls-5{stroke:#6db33f;}.cls-11,.cls-6{fill:#98afae;}.cls-7{fill:#333;}.cls-8{fill:#dae5e4;}.cls-9{fill:#68bd45;}.cls-11{fill-rule:evenodd;}</style></defs><title>diagram-microservices</title><rect class="cls-1" width="741.86" height="480.47" rx="6.21"/><line class="cls-2" x1="265.14" y1="377.07" x2="264.89" y2="377.07"/><path class="cls-3" d="M258.9,377.07H187.42a6,6,0,0,1-6.18-5.73V32.85a6,6,0,0,1,6.18-5.73H706.21a6,6,0,0,1,6.19,5.73V371.34a6,6,0,0,1-6.19,5.73H631.75"/><line class="cls-2" x1="628.75" y1="377.07" x2="628.5" y2="377.07"/><line class="cls-4" x1="154.29" y1="218.25" x2="544.67" y2="218.25"/><rect class="cls-5" x="218.18" y="128.8" width="69.93" height="176.83"/><polyline class="cls-4" points="127.81 152.45 154.29 152.45 154.29 284.05 127.81 284.05"/><polyline class="cls-4" points="353.31 128.8 337.56 128.8 337.56 307.7 353.31 307.7"/><line class="cls-4" x1="446.34" y1="333.57" x2="446.34" y2="372.5"/><polyline class="cls-4" points="560.95 367.13 560.95 351.39 331.74 351.39 331.74 367.13"/><polyline class="cls-4" points="459.55 307.7 488.19 307.7 488.19 128.8 459.55 128.8"/><path class="cls-6" d="M206.87,47.65a2.7,2.7,0,0,1-1,2.23,4.23,4.23,0,0,1-2.71.77h-1v3.47h-1.52V44.84h2.67a4.08,4.08,0,0,1,2.61.71A2.56,2.56,0,0,1,206.87,47.65Zm-4.62,1.72h.8a2.93,2.93,0,0,0,1.72-.4,1.49,1.49,0,0,0,.54-1.27,1.42,1.42,0,0,0-.49-1.19,2.34,2.34,0,0,0-1.52-.4h-1.05Z"/><path class="cls-6" d="M209,54.12V44.84h1.51v8h3.93v1.3Z"/><path class="cls-6" d="M222.05,54.12l-.93-2.57h-3.54l-.91,2.57h-1.6l3.47-9.32h1.65l3.47,9.32Zm-1.33-3.88-.87-2.53c-.06-.17-.15-.43-.26-.8s-.19-.63-.23-.8a15.55,15.55,0,0,1-.5,1.71L218,50.24Z"/><path class="cls-6" d="M228.35,54.12h-1.51v-8h-2.73v-1.3h7v1.3h-2.73Z"/><path class="cls-6" d="M234.27,54.12h-1.51V44.84H238v1.28h-3.73V49h3.5v1.28h-3.5Z"/><path class="cls-6" d="M248.18,49.47A5.05,5.05,0,0,1,247.05,53a4.76,4.76,0,0,1-6.44,0,5.1,5.1,0,0,1-1.12-3.54,5,5,0,0,1,1.13-3.53,4.16,4.16,0,0,1,3.23-1.23,4.07,4.07,0,0,1,3.2,1.25A5,5,0,0,1,248.18,49.47Zm-7.08,0a4.18,4.18,0,0,0,.69,2.6,2.83,2.83,0,0,0,4.09,0,4.19,4.19,0,0,0,.69-2.61,4.21,4.21,0,0,0-.68-2.59,2.41,2.41,0,0,0-2-.88,2.47,2.47,0,0,0-2.06.88A4.14,4.14,0,0,0,241.1,49.47Z"/><path class="cls-6" d="M252,50.42v3.7h-1.51V44.84h2.62a4.39,4.39,0,0,1,2.66.67,2.44,2.44,0,0,1,.86,2,2.55,2.55,0,0,1-1.8,2.47l2.62,4.1h-1.73l-2.22-3.7Zm0-1.26H253a2.34,2.34,0,0,0,1.53-.4A1.41,1.41,0,0,0,255,47.6a1.24,1.24,0,0,0-.52-1.13,2.76,2.76,0,0,0-1.54-.35h-1Z"/><path class="cls-6" d="M263,54.12l-2.69-7.75h-.05c.07,1.15.1,2.23.1,3.24v4.51H259V44.84h2.14l2.57,7.38h0l2.65-7.38h2.15v9.28H267.1V49.53q0-.69,0-1.8t.06-1.35h-.05l-2.78,7.74Z"/><path class="cls-6" d="M274.19,50.56a9.81,9.81,0,0,1,.5-3.15,7.94,7.94,0,0,1,1.42-2.57h1.3a9,9,0,0,0-1.35,2.68,9.79,9.79,0,0,0-.48,3,9.51,9.51,0,0,0,.48,3,8.92,8.92,0,0,0,1.33,2.63h-1.28a7.45,7.45,0,0,1-1.43-2.52A9.73,9.73,0,0,1,274.19,50.56Z"/><path class="cls-6" d="M283.23,46a2.51,2.51,0,0,0-2.06.93,3.93,3.93,0,0,0-.75,2.55,4,4,0,0,0,.72,2.59,2.56,2.56,0,0,0,2.09.87,5.38,5.38,0,0,0,1.14-.11c.37-.08.75-.18,1.15-.3v1.3a7.09,7.09,0,0,1-2.48.41A4,4,0,0,1,279.91,53a5.2,5.2,0,0,1-1.09-3.53,5.75,5.75,0,0,1,.53-2.53,3.81,3.81,0,0,1,1.54-1.66,4.55,4.55,0,0,1,2.35-.58,5.84,5.84,0,0,1,2.63.6l-.55,1.26a7.28,7.28,0,0,0-1-.39A3.67,3.67,0,0,0,283.23,46Z"/><path class="cls-6" d="M287.78,54.12V44.84h1.52v8h3.93v1.3Z"/><path class="cls-6" d="M303.32,49.47A5.05,5.05,0,0,1,302.19,53,4.08,4.08,0,0,1,299,54.25,4.15,4.15,0,0,1,295.75,53a5.1,5.1,0,0,1-1.12-3.54,5.06,5.06,0,0,1,1.13-3.53A4.18,4.18,0,0,1,299,44.7a4.07,4.07,0,0,1,3.2,1.25A5,5,0,0,1,303.32,49.47Zm-7.08,0a4.18,4.18,0,0,0,.69,2.6,2.83,2.83,0,0,0,4.09,0,4.19,4.19,0,0,0,.69-2.61,4.15,4.15,0,0,0-.68-2.59,2.41,2.41,0,0,0-2-.88,2.45,2.45,0,0,0-2.05.88A4.08,4.08,0,0,0,296.24,49.47Z"/><path class="cls-6" d="M312.85,44.84v6a3.64,3.64,0,0,1-.44,1.8,2.88,2.88,0,0,1-1.28,1.18,4.36,4.36,0,0,1-2,.42,3.79,3.79,0,0,1-2.69-.91,3.32,3.32,0,0,1-1-2.52v-6H307v5.87a2.39,2.39,0,0,0,.53,1.7,2.22,2.22,0,0,0,1.64.54c1.43,0,2.14-.75,2.14-2.25V44.84Z"/><path class="cls-6" d="M323,49.39a4.63,4.63,0,0,1-1.27,3.52,5.14,5.14,0,0,1-3.68,1.21h-2.59V44.84h2.86A4.73,4.73,0,0,1,321.8,46,4.44,4.44,0,0,1,323,49.39Zm-1.6,0q0-3.33-3.11-3.33H317v6.74h1.08C320.32,52.85,321.43,51.71,321.43,49.44Z"/><path class="cls-6" d="M326.79,54.12h-1.5V44.84h5.23v1.28h-3.73V49h3.5v1.28h-3.5Z"/><path class="cls-6" d="M340.71,49.47A5.05,5.05,0,0,1,339.57,53a4.75,4.75,0,0,1-6.43,0A5.05,5.05,0,0,1,332,49.46a5.06,5.06,0,0,1,1.13-3.53,4.2,4.2,0,0,1,3.24-1.23A4,4,0,0,1,339.57,46,5,5,0,0,1,340.71,49.47Zm-7.09,0a4.18,4.18,0,0,0,.69,2.6,2.83,2.83,0,0,0,4.09,0,4.19,4.19,0,0,0,.69-2.61,4.15,4.15,0,0,0-.68-2.59,2.39,2.39,0,0,0-2-.88,2.45,2.45,0,0,0-2.06.88A4.08,4.08,0,0,0,333.62,49.47Z"/><path class="cls-6" d="M350.23,44.84v6a3.53,3.53,0,0,1-.44,1.8,2.91,2.91,0,0,1-1.27,1.18,4.44,4.44,0,0,1-2,.42,3.79,3.79,0,0,1-2.69-.91,3.31,3.31,0,0,1-.95-2.52v-6h1.52v5.87a2.39,2.39,0,0,0,.53,1.7,2.22,2.22,0,0,0,1.64.54c1.43,0,2.15-.75,2.15-2.25V44.84Z"/><path class="cls-6" d="M360.6,54.12h-1.86l-4.57-7.39h-.05l0,.41q.09,1.19.09,2.16v4.82h-1.37V44.84h1.84l4.55,7.36h0c0-.1,0-.45-.05-1.06s0-1.09,0-1.44V44.84h1.39Z"/><path class="cls-6" d="M370.86,49.39a4.63,4.63,0,0,1-1.28,3.52,5.14,5.14,0,0,1-3.68,1.21h-2.59V44.84h2.87a4.72,4.72,0,0,1,3.44,1.2A4.41,4.41,0,0,1,370.86,49.39Zm-1.6,0q0-3.33-3.12-3.33h-1.31v6.74h1.07Q369.26,52.85,369.26,49.44Z"/><path class="cls-6" d="M374.63,50.42v3.7h-1.52V44.84h2.62a4.37,4.37,0,0,1,2.66.67,2.42,2.42,0,0,1,.86,2,2.55,2.55,0,0,1-1.8,2.47l2.62,4.1h-1.72l-2.23-3.7Zm0-1.26h1.05a2.37,2.37,0,0,0,1.54-.4,1.44,1.44,0,0,0,.47-1.16,1.26,1.26,0,0,0-.51-1.13,2.82,2.82,0,0,0-1.55-.35h-1Z"/><path class="cls-6" d="M384.3,49.08l2.19-4.24h1.66l-3.1,5.68v3.6h-1.52V50.57l-3.08-5.73h1.65Z"/><path class="cls-6" d="M391,52.76a21.54,21.54,0,0,1-1.12,3h-1.09a30.68,30.68,0,0,0,.65-3.19h1.46Z"/><path class="cls-6" d="M402.25,54.12H397V44.84h5.25v1.28h-3.73v2.53H402v1.27h-3.5v2.91h3.73Z"/><path class="cls-6" d="M407.72,54.12H406.2v-8h-2.73v-1.3h7v1.3h-2.73Z"/><path class="cls-6" d="M416.08,46a2.47,2.47,0,0,0-2.05.93,3.93,3.93,0,0,0-.75,2.55,4,4,0,0,0,.72,2.59,2.54,2.54,0,0,0,2.08.87,5.31,5.31,0,0,0,1.14-.11c.37-.08.76-.18,1.15-.3v1.3a7,7,0,0,1-2.47.41A3.94,3.94,0,0,1,412.77,53a5.14,5.14,0,0,1-1.09-3.53,5.61,5.61,0,0,1,.53-2.53,3.73,3.73,0,0,1,1.53-1.66,4.58,4.58,0,0,1,2.35-.58,5.81,5.81,0,0,1,2.63.6l-.54,1.26a8,8,0,0,0-1-.39A3.62,3.62,0,0,0,416.08,46Z"/><path class="cls-6" d="M423,50.56a9.52,9.52,0,0,1-.5,3.11,7.43,7.43,0,0,1-1.41,2.51h-1.29a9.13,9.13,0,0,0,1.34-2.64,9.69,9.69,0,0,0,.47-3,10,10,0,0,0-.47-3,9.27,9.27,0,0,0-1.36-2.68h1.31a7.88,7.88,0,0,1,1.42,2.58A10.07,10.07,0,0,1,423,50.56Z"/><rect class="cls-5" x="355.01" y="102.73" width="89.42" height="53.48"/><rect class="cls-5" x="362.57" y="109.2" width="89.42" height="53.48"/><rect class="cls-5" x="370.13" y="115.67" width="89.42" height="53.48"/><path class="cls-7" d="M388.16,136.75a2.16,2.16,0,0,1-.82,1.8,3.64,3.64,0,0,1-2.28.65,5.43,5.43,0,0,1-2.38-.45v-1.33a6.28,6.28,0,0,0,1.24.44,5.57,5.57,0,0,0,1.23.15,2,2,0,0,0,1.23-.31,1,1,0,0,0,.39-.85,1.09,1.09,0,0,0-.36-.82,5.63,5.63,0,0,0-1.5-.79,4,4,0,0,1-1.65-1.08,2.32,2.32,0,0,1-.48-1.47,2,2,0,0,1,.76-1.68,3.16,3.16,0,0,1,2-.62,6,6,0,0,1,2.45.54l-.44,1.14a5.34,5.34,0,0,0-2-.48,1.54,1.54,0,0,0-1,.3,1,1,0,0,0-.35.78,1,1,0,0,0,.14.57,1.32,1.32,0,0,0,.46.45,7.46,7.46,0,0,0,1.16.56,6,6,0,0,1,1.38.73,2.05,2.05,0,0,1,.65.77A2.38,2.38,0,0,1,388.16,136.75Z"/><path class="cls-7" d="M392.78,139.2a2.27,2.27,0,0,1-1.91-.89h-.08c0,.55.08.88.08,1V142h-1.38V132.6h1.12c0,.12.09.41.19.87h.07a2.15,2.15,0,0,1,1.93-1,2.26,2.26,0,0,1,1.89.88,3.92,3.92,0,0,1,.68,2.47,4,4,0,0,1-.69,2.48A2.28,2.28,0,0,1,392.78,139.2Zm-.33-5.59a1.43,1.43,0,0,0-1.2.48,2.49,2.49,0,0,0-.38,1.53v.21a3,3,0,0,0,.38,1.71,1.37,1.37,0,0,0,1.22.53,1.24,1.24,0,0,0,1.1-.58,3,3,0,0,0,.39-1.67,2.87,2.87,0,0,0-.39-1.65A1.25,1.25,0,0,0,392.45,133.61Z"/><path class="cls-7" d="M400.08,132.48a3.23,3.23,0,0,1,.68.06l-.13,1.28a3.08,3.08,0,0,0-.61-.07,1.76,1.76,0,0,0-1.34.54,2,2,0,0,0-.51,1.4v3.39h-1.38V132.6h1.08l.18,1.14h.07a2.57,2.57,0,0,1,.84-.92A2.07,2.07,0,0,1,400.08,132.48Z"/><path class="cls-7" d="M401.7,130.88a.81.81,0,0,1,.2-.57.82.82,0,0,1,.58-.2.7.7,0,0,1,.77.77.78.78,0,0,1-.2.56.81.81,0,0,1-.57.2.82.82,0,0,1-.58-.2A.78.78,0,0,1,401.7,130.88Zm1.46,8.2h-1.38V132.6h1.38Z"/><path class="cls-7" d="M410.65,139.08h-1.38v-4A1.74,1.74,0,0,0,409,134a1.15,1.15,0,0,0-1-.37,1.54,1.54,0,0,0-1.28.51,2.86,2.86,0,0,0-.4,1.73v3.23H405V132.6H406l.19.85h.07a2,2,0,0,1,.83-.72,2.93,2.93,0,0,1,1.2-.25,2.08,2.08,0,0,1,2.33,2.38Z"/><path class="cls-7" d="M417.86,132.6v.76l-1.11.2a1.67,1.67,0,0,1,.25.5,1.91,1.91,0,0,1,.1.64,1.94,1.94,0,0,1-.69,1.57,2.84,2.84,0,0,1-1.9.58,3.27,3.27,0,0,1-.57,0,.78.78,0,0,0-.44.65.37.37,0,0,0,.21.33,1.86,1.86,0,0,0,.76.11h1.13a2.48,2.48,0,0,1,1.63.46,1.6,1.6,0,0,1,.56,1.32,1.89,1.89,0,0,1-.91,1.69,4.75,4.75,0,0,1-2.62.6,3.59,3.59,0,0,1-2-.47,1.5,1.5,0,0,1-.69-1.33,1.43,1.43,0,0,1,.37-1,2,2,0,0,1,1.06-.56,1.1,1.1,0,0,1-.45-.38,1,1,0,0,1,0-1.16,2.3,2.3,0,0,1,.61-.5,1.84,1.84,0,0,1-.81-.71,2.28,2.28,0,0,1,.35-2.78,2.81,2.81,0,0,1,1.89-.58,4.85,4.85,0,0,1,1,.12Zm-5.09,7.49a.75.75,0,0,0,.4.68,2.21,2.21,0,0,0,1.13.24,3.31,3.31,0,0,0,1.67-.32,1,1,0,0,0,.55-.85.62.62,0,0,0-.3-.6,2.39,2.39,0,0,0-1.12-.18h-1a1.48,1.48,0,0,0-.94.27A.91.91,0,0,0,412.77,140.09Zm.59-5.39a1.28,1.28,0,0,0,.31.93,1.19,1.19,0,0,0,.9.33c.8,0,1.2-.42,1.2-1.27a1.44,1.44,0,0,0-.3-1,1.36,1.36,0,0,0-1.8,0A1.38,1.38,0,0,0,413.36,134.7Z"/><path class="cls-7" d="M422,130.51h2.55a4.88,4.88,0,0,1,2.56.52,1.81,1.81,0,0,1,.78,1.63,2,2,0,0,1-.38,1.25,1.71,1.71,0,0,1-1.12.62v.06a2.22,2.22,0,0,1,1.33.67,2.07,2.07,0,0,1,.43,1.36,2.2,2.2,0,0,1-.81,1.81,3.49,3.49,0,0,1-2.24.65H422Zm1.4,3.54h1.35a2.29,2.29,0,0,0,1.29-.28,1.05,1.05,0,0,0,.4-.94A1,1,0,0,0,426,132a2.83,2.83,0,0,0-1.38-.26h-1.22Zm0,1.14v2.71h1.49a2.23,2.23,0,0,0,1.33-.33,1.25,1.25,0,0,0,.45-1.07,1.13,1.13,0,0,0-.46-1,2.46,2.46,0,0,0-1.39-.32Z"/><path class="cls-7" d="M435.31,135.83a3.52,3.52,0,0,1-.82,2.48,2.92,2.92,0,0,1-2.26.89,3.13,3.13,0,0,1-1.61-.41,2.72,2.72,0,0,1-1.07-1.18,4,4,0,0,1-.38-1.78,3.51,3.51,0,0,1,.81-2.46,2.94,2.94,0,0,1,2.28-.89,2.84,2.84,0,0,1,2.23.91A3.51,3.51,0,0,1,435.31,135.83Zm-4.72,0c0,1.49.55,2.24,1.66,2.24s1.64-.75,1.64-2.24-.55-2.22-1.65-2.22a1.42,1.42,0,0,0-1.26.57A2.92,2.92,0,0,0,430.59,135.83Z"/><path class="cls-7" d="M442.46,135.83a3.52,3.52,0,0,1-.82,2.48,2.92,2.92,0,0,1-2.26.89,3.16,3.16,0,0,1-1.61-.41,2.79,2.79,0,0,1-1.07-1.18,4,4,0,0,1-.38-1.78,3.51,3.51,0,0,1,.81-2.46,2.94,2.94,0,0,1,2.28-.89,2.84,2.84,0,0,1,2.23.91A3.51,3.51,0,0,1,442.46,135.83Zm-4.72,0c0,1.49.55,2.24,1.66,2.24s1.64-.75,1.64-2.24-.55-2.22-1.65-2.22a1.42,1.42,0,0,0-1.26.57A2.92,2.92,0,0,0,437.74,135.83Z"/><path class="cls-7" d="M446.27,138.08a3.48,3.48,0,0,0,1-.15v1a2.83,2.83,0,0,1-.59.17,4.53,4.53,0,0,1-.74.07c-1.31,0-2-.69-2-2.07v-3.49h-.89V133l.95-.5.47-1.37h.85v1.44h1.85v1h-1.85v3.47a1,1,0,0,0,.25.74A.94.94,0,0,0,446.27,138.08Z"/><path class="cls-7" d="M407.19,153.48l-.85-2.38h-3.28l-.84,2.38h-1.47l3.2-8.6h1.53l3.2,8.6ZM406,149.89l-.81-2.33-.24-.74c-.1-.33-.17-.58-.21-.73a12.77,12.77,0,0,1-.47,1.57l-.77,2.23Z"/><path class="cls-7" d="M412.77,153.6a2.28,2.28,0,0,1-1.91-.89h-.08c.05.55.08.88.08,1v2.65h-1.37V147h1.11c0,.12.09.41.19.87h.07a2.16,2.16,0,0,1,1.94-1,2.29,2.29,0,0,1,1.89.88,4.84,4.84,0,0,1,0,5A2.28,2.28,0,0,1,412.77,153.6Zm-.33-5.59a1.43,1.43,0,0,0-1.2.48,2.49,2.49,0,0,0-.38,1.53v.21a3,3,0,0,0,.38,1.71,1.38,1.38,0,0,0,1.22.53,1.22,1.22,0,0,0,1.1-.58,3,3,0,0,0,.39-1.67,3,3,0,0,0-.38-1.65A1.28,1.28,0,0,0,412.44,148Z"/><path class="cls-7" d="M420.07,153.6a2.27,2.27,0,0,1-1.91-.89h-.08c.05.55.08.88.08,1v2.65h-1.38V147h1.11c0,.12.1.41.2.87h.07a2.15,2.15,0,0,1,1.93-1,2.26,2.26,0,0,1,1.89.88,4.81,4.81,0,0,1,0,5A2.28,2.28,0,0,1,420.07,153.6Zm-.34-5.59a1.42,1.42,0,0,0-1.19.48,2.42,2.42,0,0,0-.38,1.53v.21a3,3,0,0,0,.37,1.71,1.39,1.39,0,0,0,1.23.53,1.25,1.25,0,0,0,1.1-.58,3,3,0,0,0,.39-1.67,2.87,2.87,0,0,0-.39-1.65A1.26,1.26,0,0,0,419.73,148Z"/><path class="cls-7" d="M428.43,151.63a1.7,1.7,0,0,1-.69,1.46,3.29,3.29,0,0,1-2,.51,4.56,4.56,0,0,1-2.08-.4V152a5,5,0,0,0,2.13.53c.84,0,1.27-.25,1.27-.77a.64.64,0,0,0-.14-.41,2,2,0,0,0-.47-.34,7.6,7.6,0,0,0-.89-.39,4.2,4.2,0,0,1-1.52-.87,1.63,1.63,0,0,1-.39-1.13,1.48,1.48,0,0,1,.67-1.29,3.22,3.22,0,0,1,1.82-.46,5.31,5.31,0,0,1,2.17.46l-.45,1a4.79,4.79,0,0,0-1.76-.43c-.73,0-1.09.21-1.09.62a.64.64,0,0,0,.28.52,6.46,6.46,0,0,0,1.24.58,5.59,5.59,0,0,1,1.17.56,1.57,1.57,0,0,1,.71,1.4Z"/><rect class="cls-8" x="286.91" y="363.31" width="97.32" height="90.04"/><rect class="cls-8" x="397.68" y="363.31" width="97.32" height="90.04"/><rect class="cls-8" x="508.91" y="363.31" width="97.32" height="90.04"/><rect class="cls-5" x="551.61" y="288.61" width="130.38" height="48.83"/><path class="cls-7" d="M602,307.84a2.15,2.15,0,0,1-.82,1.79,3.56,3.56,0,0,1-2.28.65,5.46,5.46,0,0,1-2.38-.45v-1.32a6.26,6.26,0,0,0,1.24.43,5.07,5.07,0,0,0,1.23.16,2,2,0,0,0,1.23-.32,1,1,0,0,0,.39-.85,1.06,1.06,0,0,0-.36-.81,5.35,5.35,0,0,0-1.5-.79,4,4,0,0,1-1.65-1.09,2.27,2.27,0,0,1-.48-1.46,2.06,2.06,0,0,1,.76-1.69,3.16,3.16,0,0,1,2-.61,6,6,0,0,1,2.45.54l-.44,1.14a5.34,5.34,0,0,0-2-.48,1.6,1.6,0,0,0-1,.29,1,1,0,0,0-.35.79,1,1,0,0,0,.14.57,1.41,1.41,0,0,0,.46.45,8.2,8.2,0,0,0,1.16.55,6,6,0,0,1,1.38.74,2.1,2.1,0,0,1,.65.76A2.43,2.43,0,0,1,602,307.84Z"/><path class="cls-7" d="M606.6,310.28a2.27,2.27,0,0,1-1.91-.88h-.08c0,.55.08.88.08,1v2.65h-1.37v-9.36h1.11c0,.12.09.41.19.86h.07a2.18,2.18,0,0,1,1.94-1,2.26,2.26,0,0,1,1.89.88,4.83,4.83,0,0,1,0,4.94A2.25,2.25,0,0,1,606.6,310.28Zm-.33-5.59a1.43,1.43,0,0,0-1.2.48,2.52,2.52,0,0,0-.38,1.54v.2a3,3,0,0,0,.38,1.72,1.4,1.4,0,0,0,1.22.53,1.23,1.23,0,0,0,1.1-.59,3.77,3.77,0,0,0,0-3.32A1.3,1.3,0,0,0,606.27,304.69Z"/><path class="cls-7" d="M613.9,303.57a3.17,3.17,0,0,1,.68.06l-.13,1.28a2.48,2.48,0,0,0-.61-.07,1.76,1.76,0,0,0-1.34.54,2,2,0,0,0-.51,1.4v3.39h-1.38v-6.48h1.08l.18,1.14h.07a2.67,2.67,0,0,1,.84-.92A2,2,0,0,1,613.9,303.57Z"/><path class="cls-7" d="M615.52,302a.74.74,0,0,1,.21-.57.77.77,0,0,1,.57-.2.81.81,0,0,1,.57.2.77.77,0,0,1,.2.57.76.76,0,0,1-.2.55.77.77,0,0,1-.57.21.74.74,0,0,1-.57-.21A.72.72,0,0,1,615.52,302Zm1.46,8.2h-1.37v-6.48H617Z"/><path class="cls-7" d="M624.47,310.17h-1.38v-4a1.76,1.76,0,0,0-.3-1.12,1.19,1.19,0,0,0-1-.37,1.55,1.55,0,0,0-1.28.52,2.84,2.84,0,0,0-.4,1.73v3.23h-1.38v-6.48h1.08l.19.85h.07a2,2,0,0,1,.83-.72,2.77,2.77,0,0,1,1.2-.25,2.08,2.08,0,0,1,2.33,2.37Z"/><path class="cls-7" d="M631.68,303.69v.75l-1.11.21a1.56,1.56,0,0,1,.25.5,1.89,1.89,0,0,1,.1.63,1.94,1.94,0,0,1-.69,1.58,2.89,2.89,0,0,1-1.9.57,3.13,3.13,0,0,1-.56,0,.77.77,0,0,0-.45.64.37.37,0,0,0,.21.34,1.86,1.86,0,0,0,.76.11h1.13a2.53,2.53,0,0,1,1.63.45,1.63,1.63,0,0,1,.56,1.32,1.91,1.91,0,0,1-.91,1.7,4.75,4.75,0,0,1-2.62.6,3.61,3.61,0,0,1-2-.47,1.51,1.51,0,0,1-.7-1.34,1.39,1.39,0,0,1,.38-1,2.05,2.05,0,0,1,1-.57,1,1,0,0,1-.45-.37,1,1,0,0,1-.18-.55,1,1,0,0,1,.21-.62,2.32,2.32,0,0,1,.61-.49,1.81,1.81,0,0,1-.82-.71,2.09,2.09,0,0,1-.32-1.15,2.07,2.07,0,0,1,.67-1.63,2.76,2.76,0,0,1,1.89-.58,3.86,3.86,0,0,1,.58,0,2.82,2.82,0,0,1,.46.08Zm-5.09,7.48a.75.75,0,0,0,.4.69,2.21,2.21,0,0,0,1.13.24,3.42,3.42,0,0,0,1.67-.32,1,1,0,0,0,.55-.86.64.64,0,0,0-.3-.6,2.39,2.39,0,0,0-1.12-.18h-1a1.48,1.48,0,0,0-.94.28A.9.9,0,0,0,626.59,311.17Zm.59-5.39a1.3,1.3,0,0,0,.31.94,1.19,1.19,0,0,0,.9.33c.8,0,1.2-.43,1.2-1.28a1.43,1.43,0,0,0-.3-1,1.1,1.1,0,0,0-.9-.35,1.16,1.16,0,0,0-.9.34A1.42,1.42,0,0,0,627.18,305.78Z"/><path class="cls-7" d="M639.43,302.68a2.31,2.31,0,0,0-1.9.85,3.68,3.68,0,0,0-.69,2.37,3.63,3.63,0,0,0,.67,2.38,2.33,2.33,0,0,0,1.92.81,5.29,5.29,0,0,0,1.06-.11,10.5,10.5,0,0,0,1.06-.28v1.2a6.36,6.36,0,0,1-2.29.38,3.66,3.66,0,0,1-2.89-1.14,4.77,4.77,0,0,1-1-3.26,5.3,5.3,0,0,1,.49-2.33,3.53,3.53,0,0,1,1.42-1.54,4.23,4.23,0,0,1,2.17-.53,5.35,5.35,0,0,1,2.43.55l-.51,1.16c-.29-.13-.59-.25-.91-.36A3.45,3.45,0,0,0,639.43,302.68Z"/><path class="cls-7" d="M644.44,310.17h-1.38v-9.12h1.38Z"/><path class="cls-7" d="M652,306.91a3.5,3.5,0,0,1-.82,2.48,2.89,2.89,0,0,1-2.26.89,3.06,3.06,0,0,1-1.61-.41,2.7,2.7,0,0,1-1.07-1.17,4.06,4.06,0,0,1-.38-1.79,3.51,3.51,0,0,1,.81-2.46,2.93,2.93,0,0,1,2.28-.88,2.87,2.87,0,0,1,2.23.9A3.55,3.55,0,0,1,652,306.91Zm-4.72,0c0,1.5.55,2.25,1.66,2.25s1.64-.75,1.64-2.25-.55-2.22-1.65-2.22a1.42,1.42,0,0,0-1.26.58A2.9,2.9,0,0,0,647.26,306.91Z"/><path class="cls-7" d="M658,310.17l-.19-.85h-.07a2,2,0,0,1-.82.71,2.76,2.76,0,0,1-1.21.25,2.38,2.38,0,0,1-1.76-.58,2.46,2.46,0,0,1-.58-1.78v-4.23h1.39v4a1.7,1.7,0,0,0,.31,1.12,1.15,1.15,0,0,0,1,.37,1.5,1.5,0,0,0,1.27-.52,2.78,2.78,0,0,0,.41-1.74v-3.22H659v6.48Z"/><path class="cls-7" d="M663,310.28a2.24,2.24,0,0,1-1.89-.88,4.8,4.8,0,0,1,0-4.94,2.26,2.26,0,0,1,1.91-.89,2.22,2.22,0,0,1,1.94.94H665a9.4,9.4,0,0,1-.1-1.1v-2.36h1.38v9.12h-1.07l-.24-.85h-.07A2.21,2.21,0,0,1,663,310.28Zm.37-1.11a1.5,1.5,0,0,0,1.24-.48,2.51,2.51,0,0,0,.4-1.55V307a2.93,2.93,0,0,0-.4-1.74,1.5,1.5,0,0,0-1.25-.52,1.28,1.28,0,0,0-1.12.59,3.07,3.07,0,0,0-.39,1.68,3,3,0,0,0,.38,1.65A1.29,1.29,0,0,0,663.37,309.17Z"/><path class="cls-7" d="M602,322.24a2.15,2.15,0,0,1-.82,1.79,3.56,3.56,0,0,1-2.28.65,5.46,5.46,0,0,1-2.38-.45v-1.32a6.26,6.26,0,0,0,1.24.43,5.07,5.07,0,0,0,1.23.16,2,2,0,0,0,1.23-.32,1,1,0,0,0,.39-.85,1.06,1.06,0,0,0-.36-.81,5.35,5.35,0,0,0-1.5-.79,4,4,0,0,1-1.65-1.09,2.27,2.27,0,0,1-.48-1.46,2,2,0,0,1,.76-1.69,3.16,3.16,0,0,1,2-.61,6,6,0,0,1,2.45.54l-.44,1.14a5.34,5.34,0,0,0-2-.48,1.6,1.6,0,0,0-1,.29,1,1,0,0,0-.35.79,1,1,0,0,0,.14.57,1.52,1.52,0,0,0,.46.45,8.2,8.2,0,0,0,1.16.55,6.44,6.44,0,0,1,1.38.73,2.21,2.21,0,0,1,.65.77A2.43,2.43,0,0,1,602,322.24Z"/><path class="cls-7" d="M604.69,324.57h-1.37v-9.12h1.37Z"/><path class="cls-7" d="M609.31,324.68a3.1,3.1,0,0,1-2.36-.88,3.35,3.35,0,0,1-.86-2.43,3.68,3.68,0,0,1,.79-2.49,2.74,2.74,0,0,1,2.18-.91,2.69,2.69,0,0,1,2,.78,3,3,0,0,1,.74,2.14v.75h-4.32a2.13,2.13,0,0,0,.51,1.45,1.8,1.8,0,0,0,1.35.5,5.12,5.12,0,0,0,1.07-.1,6.21,6.21,0,0,0,1.07-.37v1.12a4.08,4.08,0,0,1-1,.34A6,6,0,0,1,609.31,324.68Zm-.25-5.67a1.36,1.36,0,0,0-1,.42,2,2,0,0,0-.48,1.21h3a1.84,1.84,0,0,0-.39-1.22A1.33,1.33,0,0,0,609.06,319Z"/><path class="cls-7" d="M617.78,324.57l-.19-.85h-.07a2,2,0,0,1-.82.71,2.73,2.73,0,0,1-1.21.25,2.35,2.35,0,0,1-1.75-.58,2.43,2.43,0,0,1-.58-1.78v-4.23h1.38v4a1.76,1.76,0,0,0,.31,1.12,1.15,1.15,0,0,0,.95.37,1.52,1.52,0,0,0,1.28-.52,2.85,2.85,0,0,0,.41-1.74v-3.22h1.38v6.48Z"/><path class="cls-7" d="M623.07,323.57a3.17,3.17,0,0,0,1-.16v1a2.72,2.72,0,0,1-.58.17,4.65,4.65,0,0,1-.75.06c-1.31,0-2-.68-2-2.06v-3.49h-.88v-.61l1-.5.46-1.38h.85v1.45H624v1h-1.85v3.47a1,1,0,0,0,.25.73A.92.92,0,0,0,623.07,323.57Z"/><path class="cls-7" d="M630.89,324.57h-1.38v-4a1.7,1.7,0,0,0-.31-1.12,1.18,1.18,0,0,0-1-.37,1.55,1.55,0,0,0-1.28.52,2.9,2.9,0,0,0-.4,1.74v3.22h-1.38v-9.12h1.38v2.31a10.19,10.19,0,0,1-.08,1.19h.09a1.94,1.94,0,0,1,.78-.72,2.46,2.46,0,0,1,1.17-.26,2.09,2.09,0,0,1,2.36,2.37Z"/><path class="cls-7" d="M250.29,224.57l-.86-2.38h-3.27l-.84,2.38h-1.48l3.21-8.6h1.52l3.21,8.6ZM249.06,221l-.8-2.34c-.06-.15-.14-.4-.24-.73s-.18-.59-.22-.74a12.6,12.6,0,0,1-.46,1.57l-.77,2.24Z"/><path class="cls-7" d="M258.4,218.6a2.47,2.47,0,0,1-.88,2.05,3.86,3.86,0,0,1-2.5.72h-.89v3.2h-1.4V216h2.46a3.79,3.79,0,0,1,2.41.65A2.37,2.37,0,0,1,258.4,218.6Zm-4.27,1.59h.74a2.65,2.65,0,0,0,1.58-.37,1.38,1.38,0,0,0,.51-1.18,1.33,1.33,0,0,0-.45-1.1,2.27,2.27,0,0,0-1.41-.36h-1Z"/><path class="cls-7" d="M259.93,224.57V216h1.4v8.56Z"/><path class="cls-7" d="M233.07,234.33h3.16v4.3a10,10,0,0,1-1.49.35,10.52,10.52,0,0,1-1.54.11,3.87,3.87,0,0,1-3-1.15,4.65,4.65,0,0,1-1-3.25,4.31,4.31,0,0,1,1.19-3.24,4.45,4.45,0,0,1,3.27-1.17,6.29,6.29,0,0,1,2.55.52l-.5,1.16a4.93,4.93,0,0,0-2.08-.48,2.79,2.79,0,0,0-2.17.87,3.31,3.31,0,0,0-.8,2.35,3.52,3.52,0,0,0,.72,2.39,2.63,2.63,0,0,0,2.07.82,7,7,0,0,0,1.45-.17v-2.21h-1.78Z"/><path class="cls-7" d="M242,239l-.27-.9h-.05a2.83,2.83,0,0,1-.94.81,3.07,3.07,0,0,1-1.22.21,2,2,0,0,1-1.49-.52,1.92,1.92,0,0,1-.54-1.46,1.73,1.73,0,0,1,.74-1.51,4.32,4.32,0,0,1,2.27-.55l1.12,0v-.34a1.31,1.31,0,0,0-.29-.93,1.16,1.16,0,0,0-.9-.31,3,3,0,0,0-.95.15,6.17,6.17,0,0,0-.88.34l-.45-1a4.33,4.33,0,0,1,1.16-.42,5,5,0,0,1,1.18-.15,2.82,2.82,0,0,1,1.87.54,2.13,2.13,0,0,1,.63,1.7V239Zm-2-.94a1.68,1.68,0,0,0,1.2-.41,1.5,1.5,0,0,0,.46-1.18v-.56l-.83,0a3,3,0,0,0-1.42.33,1,1,0,0,0-.44.89.87.87,0,0,0,.26.67A1.09,1.09,0,0,0,240,238Z"/><path class="cls-7" d="M247.15,238a3.55,3.55,0,0,0,1-.16v1a2.89,2.89,0,0,1-.59.16,3.67,3.67,0,0,1-.75.07c-1.3,0-1.95-.69-1.95-2.06v-3.5H244v-.6l1-.51.47-1.37h.85v1.44h1.84v1h-1.84V237a1,1,0,0,0,.25.74A.88.88,0,0,0,247.15,238Z"/><path class="cls-7" d="M252.1,239.09a3.13,3.13,0,0,1-2.36-.88,3.35,3.35,0,0,1-.85-2.43,3.68,3.68,0,0,1,.79-2.5,2.75,2.75,0,0,1,2.17-.91,2.67,2.67,0,0,1,2,.78,3,3,0,0,1,.74,2.15V236h-4.31a2,2,0,0,0,.51,1.45,1.76,1.76,0,0,0,1.35.51,5.17,5.17,0,0,0,1.07-.11,5.31,5.31,0,0,0,1.06-.36v1.12a4.22,4.22,0,0,1-1,.34A5.9,5.9,0,0,1,252.1,239.09Zm-.25-5.67a1.39,1.39,0,0,0-1,.41,2,2,0,0,0-.47,1.22h2.94a1.82,1.82,0,0,0-.39-1.22A1.33,1.33,0,0,0,251.85,233.42Z"/><path class="cls-7" d="M261.32,239l-.83-3c-.11-.32-.29-1.07-.56-2.23h-.05c-.23,1.05-.4,1.8-.54,2.24l-.86,3H257l-1.82-6.48h1.41l.82,3.2c.19.78.32,1.46.4,2h0c0-.28.1-.61.18-1s.15-.64.2-.83l1-3.41h1.51l1,3.41c.05.19.13.49.21.88a7.46,7.46,0,0,1,.16.92h.05a17,17,0,0,1,.41-2l.84-3.2h1.38L262.87,239Z"/><path class="cls-7" d="M269.69,239l-.28-.9h-.05a2.74,2.74,0,0,1-.94.81,3,3,0,0,1-1.22.21,2,2,0,0,1-1.49-.52,1.92,1.92,0,0,1-.54-1.46,1.72,1.72,0,0,1,.75-1.51,4.26,4.26,0,0,1,2.27-.55l1.11,0v-.34a1.27,1.27,0,0,0-.29-.93,1.16,1.16,0,0,0-.9-.31,3,3,0,0,0-.95.15,6.67,6.67,0,0,0-.88.34l-.44-1a4.26,4.26,0,0,1,1.15-.42,5.09,5.09,0,0,1,1.18-.15,2.8,2.8,0,0,1,1.87.54,2.13,2.13,0,0,1,.63,1.7V239Zm-2.06-.94a1.71,1.71,0,0,0,1.21-.41,1.53,1.53,0,0,0,.45-1.18v-.56l-.83,0a2.91,2.91,0,0,0-1.41.33,1,1,0,0,0-.45.89.87.87,0,0,0,.26.67A1.09,1.09,0,0,0,267.63,238Z"/><path class="cls-7" d="M271.43,232.49h1.5l1.32,3.68a7,7,0,0,1,.39,1.47h.05c0-.21.1-.47.19-.78s.59-1.76,1.49-4.37h1.49l-2.77,7.34a2.63,2.63,0,0,1-2.52,2,4.41,4.41,0,0,1-.89-.1v-1.09a3.71,3.71,0,0,0,.71.07,1.46,1.46,0,0,0,1.4-1.16L274,239Z"/><path class="cls-9" d="M263.34,192.16a37.26,37.26,0,0,0-1.58-6.1,9.35,9.35,0,0,1-1,1.84,9.72,9.72,0,0,0-15.32,1.78,6.47,6.47,0,0,1,4,1.67,6.76,6.76,0,0,0-3.76-1.1,6.88,6.88,0,0,0,0,13.76h15.87a6.07,6.07,0,0,0,1.85-11.85Zm-14.83,9.73a.83.83,0,1,1-.12-1.17A.84.84,0,0,1,248.51,201.89ZM261.72,199c-2.4,3.2-7.53,2.12-10.82,2.28a11.55,11.55,0,0,0-1.17.13s.22-.1.51-.2a34.79,34.79,0,0,0,4.8-1.68c2.64-1.35,5.26-4.29,5.79-7.34-1,2.94-4.05,5.47-6.83,6.49a47.26,47.26,0,0,1-5.34,1.39l-.14-.08c-2.34-1.13-2.41-6.2,1.84-7.83,1.86-.72,3.65-.33,5.66-.81a8.82,8.82,0,0,0,5.64-4.22C262.8,190.46,264.16,195.72,261.72,199Z"/><rect class="cls-10" x="29.47" y="126.97" width="99.26" height="53.48"/><path class="cls-7" d="M77,157.83v-8.57h1.4v8.57Z"/><path class="cls-7" d="M86.06,154.58a3.56,3.56,0,0,1-.81,2.48A2.94,2.94,0,0,1,83,158a3.16,3.16,0,0,1-1.61-.41,2.79,2.79,0,0,1-1.07-1.18,4,4,0,0,1-.37-1.78,3.51,3.51,0,0,1,.81-2.46,2.9,2.9,0,0,1,2.27-.89,2.84,2.84,0,0,1,2.23.91A3.48,3.48,0,0,1,86.06,154.58Zm-4.72,0c0,1.49.56,2.24,1.66,2.24s1.64-.75,1.64-2.24-.55-2.22-1.65-2.22a1.42,1.42,0,0,0-1.26.57A2.94,2.94,0,0,0,81.34,154.58Z"/><path class="cls-7" d="M90.57,157.83h-1.4v-7.36H86.65v-1.21h6.44v1.21H90.57Z"/><rect class="cls-10" x="29.47" y="192.54" width="99.26" height="53.48"/><path class="cls-7" d="M71.24,223.62l-2.49-7.15h0c.07,1.06.1,2.06.1,3v4.16H67.53v-8.56h2l2.38,6.81h0l2.45-6.81h2v8.56H75v-4.23c0-.43,0-1,0-1.67s0-1.09,0-1.24h0l-2.57,7.14Z"/><path class="cls-7" d="M84,220.37a3.5,3.5,0,0,1-.82,2.48,2.89,2.89,0,0,1-2.26.89,3.06,3.06,0,0,1-1.61-.41,2.67,2.67,0,0,1-1.07-1.18,4,4,0,0,1-.38-1.78,3.51,3.51,0,0,1,.81-2.46A2.93,2.93,0,0,1,81,217a2.87,2.87,0,0,1,2.23.9A3.55,3.55,0,0,1,84,220.37Zm-4.72,0c0,1.5.55,2.25,1.66,2.25s1.64-.75,1.64-2.25-.55-2.22-1.65-2.22a1.4,1.4,0,0,0-1.26.58A2.9,2.9,0,0,0,79.31,220.37Z"/><path class="cls-7" d="M88.74,217a2.24,2.24,0,0,1,1.89.88,4.8,4.8,0,0,1,0,4.94,2.49,2.49,0,0,1-3.81,0h-.1l-.25.76h-1v-9.11h1.38v2.17c0,.16,0,.39,0,.71s0,.52,0,.6h.06A2.18,2.18,0,0,1,88.74,217Zm-.36,1.12a1.4,1.4,0,0,0-1.19.49,2.82,2.82,0,0,0-.38,1.64v.09a3.07,3.07,0,0,0,.37,1.72,1.41,1.41,0,0,0,1.23.53,1.25,1.25,0,0,0,1.11-.58,3.12,3.12,0,0,0,.38-1.68C89.9,218.89,89.39,218.15,88.38,218.15Z"/><path class="cls-7" d="M92.64,215.43a.74.74,0,0,1,.21-.57.77.77,0,0,1,.57-.2.79.79,0,0,1,.57.2.77.77,0,0,1,.2.57.69.69,0,0,1-.77.75.74.74,0,0,1-.57-.2A.72.72,0,0,1,92.64,215.43Zm1.46,8.19H92.73v-6.48H94.1Z"/><path class="cls-7" d="M97.27,223.62H95.89v-9.11h1.38Z"/><path class="cls-7" d="M101.89,223.74a3.14,3.14,0,0,1-2.37-.88,3.39,3.39,0,0,1-.85-2.43,3.68,3.68,0,0,1,.79-2.49,2.72,2.72,0,0,1,2.18-.91,2.65,2.65,0,0,1,2,.78,3,3,0,0,1,.75,2.14v.75h-4.32a2.15,2.15,0,0,0,.51,1.45,1.8,1.8,0,0,0,1.35.5,4.51,4.51,0,0,0,1.07-.11,5.39,5.39,0,0,0,1.07-.36v1.12a4.08,4.08,0,0,1-1,.34A6,6,0,0,1,101.89,223.74Zm-.25-5.67a1.4,1.4,0,0,0-1.06.42,2,2,0,0,0-.47,1.21h2.94a1.76,1.76,0,0,0-.38-1.22A1.35,1.35,0,0,0,101.64,218.07Z"/><path class="cls-6" d="M59.77,150.74a1.71,1.71,0,0,0-.86,3.19V161h1.71v-7.08a1.71,1.71,0,0,0-.85-3.19Z"/><path class="cls-6" d="M54.92,147.61l-1.21-1.21a8.58,8.58,0,0,0,0,12.1l1.21-1.21A6.87,6.87,0,0,1,54.92,147.61Z"/><path class="cls-6" d="M65.82,146.4l-1.21,1.21a6.86,6.86,0,0,1,0,9.68l1.21,1.21a8.57,8.57,0,0,0,0-12.1Z"/><path class="cls-6" d="M56.14,148.82a5.12,5.12,0,0,0,0,7.26l1.21-1.21a3.37,3.37,0,0,1-1-2.42,3.41,3.41,0,0,1,1-2.42Z"/><path class="cls-6" d="M63.4,148.82,62.19,150a3.44,3.44,0,0,1,1,2.42,3.4,3.4,0,0,1-1,2.42l1.21,1.21a5.14,5.14,0,0,0,0-7.26Z"/><path class="cls-6" d="M59,214.07a1.71,1.71,0,0,0-1.71-1.71H50.46a1.7,1.7,0,0,0-1.71,1.71v13.69a1.7,1.7,0,0,0,1.71,1.71h6.85A1.71,1.71,0,0,0,59,227.76Zm-1.71,12H50.46V215.78h6.85Z"/><circle class="cls-10" cx="53.88" cy="227.69" r="0.7"/><rect class="cls-10" x="29.47" y="255.43" width="99.26" height="53.48"/><path class="cls-7" d="M66.35,278H68.9a4.88,4.88,0,0,1,2.56.52,1.81,1.81,0,0,1,.78,1.63,2,2,0,0,1-.38,1.25,1.71,1.71,0,0,1-1.12.62v.06a2.27,2.27,0,0,1,1.33.67,2.07,2.07,0,0,1,.43,1.36,2.2,2.2,0,0,1-.81,1.81,3.49,3.49,0,0,1-2.24.65h-3.1Zm1.41,3.54H69.1a2.29,2.29,0,0,0,1.29-.28,1.05,1.05,0,0,0,.4-.94,1,1,0,0,0-.44-.87A2.7,2.7,0,0,0,69,279.2H67.76Zm0,1.14v2.71h1.48a2.23,2.23,0,0,0,1.33-.33A1.25,1.25,0,0,0,71,284a1.13,1.13,0,0,0-.46-1,2.46,2.46,0,0,0-1.39-.32Z"/><path class="cls-7" d="M77.24,280a3.23,3.23,0,0,1,.68.06l-.13,1.28a3.08,3.08,0,0,0-.61-.07,1.76,1.76,0,0,0-1.34.54,2,2,0,0,0-.51,1.4v3.39H74v-6.48H75l.18,1.14h.07a2.66,2.66,0,0,1,.84-.92A2.07,2.07,0,0,1,77.24,280Z"/><path class="cls-7" d="M84.69,283.34a3.56,3.56,0,0,1-.81,2.48,2.94,2.94,0,0,1-2.27.89A3.16,3.16,0,0,1,80,286.3a2.79,2.79,0,0,1-1.07-1.18,4,4,0,0,1-.37-1.78,3.51,3.51,0,0,1,.81-2.46,2.91,2.91,0,0,1,2.28-.89,2.84,2.84,0,0,1,2.22.91A3.48,3.48,0,0,1,84.69,283.34Zm-4.71,0c0,1.49.55,2.24,1.65,2.24s1.64-.75,1.64-2.24-.55-2.22-1.65-2.22a1.42,1.42,0,0,0-1.26.57A3,3,0,0,0,80,283.34Z"/><path class="cls-7" d="M91.41,286.59l-.84-3c-.1-.32-.28-1.07-.55-2.24h0q-.34,1.59-.54,2.25l-.86,3H87l-1.81-6.48h1.4l.83,3.19c.19.79.32,1.47.4,2h0c0-.28.1-.61.18-1s.15-.65.21-.83l1-3.41h1.52l1,3.41c.06.19.13.48.22.88a7.15,7.15,0,0,1,.16.92h0a20,20,0,0,1,.41-2l.84-3.19h1.38L93,286.59Z"/><path class="cls-7" d="M100.07,284.74a1.7,1.7,0,0,1-.69,1.46,3.29,3.29,0,0,1-2,.51,4.67,4.67,0,0,1-2.08-.39v-1.19a5.1,5.1,0,0,0,2.12.52c.85,0,1.28-.25,1.28-.76a.6.6,0,0,0-.14-.41,1.58,1.58,0,0,0-.47-.34,7.38,7.38,0,0,0-.89-.4,4.2,4.2,0,0,1-1.52-.87,1.62,1.62,0,0,1-.39-1.13,1.48,1.48,0,0,1,.67-1.29A3.2,3.2,0,0,1,97.8,280a5.15,5.15,0,0,1,2.16.47l-.44,1a4.79,4.79,0,0,0-1.76-.43c-.73,0-1.09.21-1.09.62a.63.63,0,0,0,.28.52,6.46,6.46,0,0,0,1.24.58,5.86,5.86,0,0,1,1.17.56,1.63,1.63,0,0,1,.71,1.4Z"/><path class="cls-7" d="M104.21,286.71a3.18,3.18,0,0,1-2.37-.88,3.39,3.39,0,0,1-.85-2.43,3.73,3.73,0,0,1,.79-2.5A2.76,2.76,0,0,1,104,280a2.65,2.65,0,0,1,2,.78,3,3,0,0,1,.75,2.15v.74h-4.32a2.13,2.13,0,0,0,.51,1.45,1.76,1.76,0,0,0,1.35.51,5.1,5.1,0,0,0,1.07-.11,5.39,5.39,0,0,0,1.07-.36v1.12a4.53,4.53,0,0,1-1,.34A6.93,6.93,0,0,1,104.21,286.71ZM104,281a1.39,1.39,0,0,0-1.06.41,2,2,0,0,0-.47,1.21h2.94a1.74,1.74,0,0,0-.38-1.21A1.31,1.31,0,0,0,104,281Z"/><path class="cls-7" d="M111.4,280a3.27,3.27,0,0,1,.69.06l-.14,1.28a3,3,0,0,0-.61-.07,1.76,1.76,0,0,0-1.34.54,2,2,0,0,0-.51,1.4v3.39h-1.38v-6.48h1.08l.18,1.14h.07a2.76,2.76,0,0,1,.84-.92A2.07,2.07,0,0,1,111.4,280Z"/><path class="cls-6" d="M56.69,276.81H44.79a1.48,1.48,0,0,0-1.48,1.48v9a1.48,1.48,0,0,0,1.48,1.48h11.9a1.48,1.48,0,0,0,1.48-1.48v-9A1.48,1.48,0,0,0,56.69,276.81Zm-11.9,10.47v-6.47h11.9v6.47Z"/><circle class="cls-10" cx="46.18" cy="278.74" r="0.7"/><rect class="cls-5" x="355.01" y="185.04" width="89.42" height="53.48"/><rect class="cls-5" x="362.57" y="191.51" width="89.42" height="53.48"/><rect class="cls-5" x="370.13" y="197.98" width="89.42" height="53.48"/><path class="cls-7" d="M388.16,219.07a2.16,2.16,0,0,1-.82,1.79,3.64,3.64,0,0,1-2.28.65,5.43,5.43,0,0,1-2.38-.45v-1.33a6.28,6.28,0,0,0,1.24.44,5.57,5.57,0,0,0,1.23.15,2,2,0,0,0,1.23-.31,1,1,0,0,0,.39-.85,1.09,1.09,0,0,0-.36-.82,5.63,5.63,0,0,0-1.5-.79,3.87,3.87,0,0,1-1.65-1.08,2.32,2.32,0,0,1-.48-1.47,2,2,0,0,1,.76-1.68,3.16,3.16,0,0,1,2-.62,6,6,0,0,1,2.45.54l-.44,1.14a5.34,5.34,0,0,0-2-.48,1.54,1.54,0,0,0-1,.3,1,1,0,0,0-.35.78,1,1,0,0,0,.14.57,1.32,1.32,0,0,0,.46.45,7.46,7.46,0,0,0,1.16.56,6,6,0,0,1,1.38.73,2.13,2.13,0,0,1,.65.77A2.39,2.39,0,0,1,388.16,219.07Z"/><path class="cls-7" d="M392.78,221.51a2.27,2.27,0,0,1-1.91-.89h-.08c0,.55.08.88.08,1v2.65h-1.38v-9.36h1.12c0,.12.09.41.19.87h.07a2.15,2.15,0,0,1,1.93-1,2.26,2.26,0,0,1,1.89.88,3.92,3.92,0,0,1,.68,2.47,4,4,0,0,1-.69,2.48A2.28,2.28,0,0,1,392.78,221.51Zm-.33-5.59a1.43,1.43,0,0,0-1.2.48,2.49,2.49,0,0,0-.38,1.53v.21a3,3,0,0,0,.38,1.71,1.37,1.37,0,0,0,1.22.53,1.24,1.24,0,0,0,1.1-.58,3,3,0,0,0,.39-1.67,2.87,2.87,0,0,0-.39-1.65A1.27,1.27,0,0,0,392.45,215.92Z"/><path class="cls-7" d="M400.08,214.79a3.23,3.23,0,0,1,.68.06l-.13,1.29a2.48,2.48,0,0,0-.61-.07,1.76,1.76,0,0,0-1.34.53,2,2,0,0,0-.51,1.4v3.39h-1.38v-6.48h1.08l.18,1.14h.07a2.57,2.57,0,0,1,.84-.92A2.07,2.07,0,0,1,400.08,214.79Z"/><path class="cls-7" d="M401.7,213.19a.77.77,0,0,1,.2-.56.77.77,0,0,1,.58-.2.7.7,0,0,1,.77.76.78.78,0,0,1-.2.56.81.81,0,0,1-.57.2.82.82,0,0,1-.58-.2A.78.78,0,0,1,401.7,213.19Zm1.46,8.2h-1.38v-6.48h1.38Z"/><path class="cls-7" d="M410.65,221.39h-1.38v-4a1.74,1.74,0,0,0-.3-1.12,1.15,1.15,0,0,0-1-.37,1.54,1.54,0,0,0-1.28.51,2.86,2.86,0,0,0-.4,1.73v3.23H405v-6.48H406l.19.85h.07a1.86,1.86,0,0,1,.83-.71,2.78,2.78,0,0,1,1.2-.26,2.08,2.08,0,0,1,2.33,2.38Z"/><path class="cls-7" d="M417.86,214.91v.76l-1.11.2a1.73,1.73,0,0,1,.25.51,1.85,1.85,0,0,1,.1.63,1.92,1.92,0,0,1-.69,1.57,2.84,2.84,0,0,1-1.9.58,3.27,3.27,0,0,1-.57,0,.79.79,0,0,0-.44.65.36.36,0,0,0,.21.33,1.86,1.86,0,0,0,.76.11h1.13a2.48,2.48,0,0,1,1.63.46,1.6,1.6,0,0,1,.56,1.32,1.92,1.92,0,0,1-.91,1.7,4.84,4.84,0,0,1-2.62.59,3.68,3.68,0,0,1-2-.46,1.53,1.53,0,0,1-.69-1.34,1.45,1.45,0,0,1,.37-1,2,2,0,0,1,1.06-.56,1,1,0,0,1-.45-.38,1,1,0,0,1-.18-.55,1,1,0,0,1,.2-.61,2.3,2.3,0,0,1,.61-.5,1.78,1.78,0,0,1-.81-.71A2,2,0,0,1,412,217a2.06,2.06,0,0,1,.67-1.64,2.81,2.81,0,0,1,1.89-.58c.19,0,.38,0,.58,0a3.88,3.88,0,0,1,.45.08Zm-5.09,7.49a.74.74,0,0,0,.4.68,2.21,2.21,0,0,0,1.13.24A3.31,3.31,0,0,0,416,223a1,1,0,0,0,.55-.85.64.64,0,0,0-.3-.6,2.39,2.39,0,0,0-1.12-.18h-1a1.42,1.42,0,0,0-.94.28A.88.88,0,0,0,412.77,222.4Zm.59-5.39a1.32,1.32,0,0,0,.31.94,1.22,1.22,0,0,0,.9.32c.8,0,1.2-.42,1.2-1.27a1.44,1.44,0,0,0-.3-1,1.36,1.36,0,0,0-1.8,0A1.38,1.38,0,0,0,413.36,217Z"/><path class="cls-7" d="M422,212.82h2.55a4.88,4.88,0,0,1,2.56.52,1.81,1.81,0,0,1,.78,1.63,2,2,0,0,1-.38,1.25,1.71,1.71,0,0,1-1.12.62v.06a2.27,2.27,0,0,1,1.33.67,2.07,2.07,0,0,1,.43,1.36,2.2,2.2,0,0,1-.81,1.81,3.49,3.49,0,0,1-2.24.65H422Zm1.4,3.54h1.35a2.38,2.38,0,0,0,1.29-.27,1.08,1.08,0,0,0,.4-1,1,1,0,0,0-.44-.87,2.7,2.7,0,0,0-1.38-.27h-1.22Zm0,1.14v2.71h1.49a2.23,2.23,0,0,0,1.33-.33,1.25,1.25,0,0,0,.45-1.07,1.13,1.13,0,0,0-.46-1,2.46,2.46,0,0,0-1.39-.32Z"/><path class="cls-7" d="M435.31,218.14a3.52,3.52,0,0,1-.82,2.48,2.92,2.92,0,0,1-2.26.89,3.13,3.13,0,0,1-1.61-.41,2.72,2.72,0,0,1-1.07-1.18,4,4,0,0,1-.38-1.78,3.51,3.51,0,0,1,.81-2.46,2.94,2.94,0,0,1,2.28-.89,2.88,2.88,0,0,1,2.23.91A3.53,3.53,0,0,1,435.31,218.14Zm-4.72,0c0,1.5.55,2.24,1.66,2.24s1.64-.74,1.64-2.24-.55-2.22-1.65-2.22a1.42,1.42,0,0,0-1.26.57A2.94,2.94,0,0,0,430.59,218.14Z"/><path class="cls-7" d="M442.46,218.14a3.52,3.52,0,0,1-.82,2.48,2.92,2.92,0,0,1-2.26.89,3.16,3.16,0,0,1-1.61-.41,2.79,2.79,0,0,1-1.07-1.18,4,4,0,0,1-.38-1.78,3.51,3.51,0,0,1,.81-2.46,2.94,2.94,0,0,1,2.28-.89,2.88,2.88,0,0,1,2.23.91A3.53,3.53,0,0,1,442.46,218.14Zm-4.72,0c0,1.5.55,2.24,1.66,2.24s1.64-.74,1.64-2.24-.55-2.22-1.65-2.22a1.42,1.42,0,0,0-1.26.57A2.94,2.94,0,0,0,437.74,218.14Z"/><path class="cls-7" d="M446.27,220.4a3.49,3.49,0,0,0,1-.16v1a2.33,2.33,0,0,1-.59.17,3.64,3.64,0,0,1-.74.07c-1.31,0-2-.69-2-2.06V216h-.89v-.61l.95-.5.47-1.37h.85v1.44h1.85v1h-1.85v3.47a1,1,0,0,0,.25.74A.9.9,0,0,0,446.27,220.4Z"/><path class="cls-7" d="M407.19,235.79l-.85-2.38h-3.28l-.84,2.38h-1.47l3.2-8.6h1.53l3.2,8.6ZM406,232.2l-.81-2.33-.24-.74c-.1-.33-.17-.58-.21-.73a12.77,12.77,0,0,1-.47,1.57l-.77,2.23Z"/><path class="cls-7" d="M412.77,235.91a2.28,2.28,0,0,1-1.91-.89h-.08c.05.55.08.88.08,1v2.65h-1.37v-9.36h1.11c0,.12.09.41.19.87h.07a2.16,2.16,0,0,1,1.94-1,2.29,2.29,0,0,1,1.89.88,4.84,4.84,0,0,1,0,5A2.28,2.28,0,0,1,412.77,235.91Zm-.33-5.59a1.43,1.43,0,0,0-1.2.48,2.49,2.49,0,0,0-.38,1.53v.21a3,3,0,0,0,.38,1.71,1.38,1.38,0,0,0,1.22.53,1.22,1.22,0,0,0,1.1-.58,3,3,0,0,0,.39-1.67,3,3,0,0,0-.38-1.65A1.28,1.28,0,0,0,412.44,230.32Z"/><path class="cls-7" d="M420.07,235.91a2.27,2.27,0,0,1-1.91-.89h-.08c.05.55.08.88.08,1v2.65h-1.38v-9.36h1.11c0,.12.1.41.2.87h.07a2.15,2.15,0,0,1,1.93-1,2.26,2.26,0,0,1,1.89.88,4.81,4.81,0,0,1,0,5A2.28,2.28,0,0,1,420.07,235.91Zm-.34-5.59a1.42,1.42,0,0,0-1.19.48,2.42,2.42,0,0,0-.38,1.53v.21a3,3,0,0,0,.37,1.71,1.39,1.39,0,0,0,1.23.53,1.25,1.25,0,0,0,1.1-.58,3,3,0,0,0,.39-1.67,2.87,2.87,0,0,0-.39-1.65A1.26,1.26,0,0,0,419.73,230.32Z"/><path class="cls-7" d="M428.43,234a1.69,1.69,0,0,1-.69,1.45,3.29,3.29,0,0,1-2,.51,4.7,4.7,0,0,1-2.08-.39v-1.19a5.11,5.11,0,0,0,2.13.52c.84,0,1.27-.25,1.27-.76a.6.6,0,0,0-.14-.41,1.58,1.58,0,0,0-.47-.34,7.38,7.38,0,0,0-.89-.4,4.2,4.2,0,0,1-1.52-.87,1.61,1.61,0,0,1-.39-1.12,1.48,1.48,0,0,1,.67-1.3,3.22,3.22,0,0,1,1.82-.46,5.16,5.16,0,0,1,2.17.47l-.45,1a4.79,4.79,0,0,0-1.76-.43c-.73,0-1.09.21-1.09.62a.63.63,0,0,0,.28.52,6.46,6.46,0,0,0,1.24.58,5.59,5.59,0,0,1,1.17.56,1.57,1.57,0,0,1,.71,1.41Z"/><rect class="cls-5" x="355.01" y="265.95" width="89.42" height="53.48"/><rect class="cls-5" x="362.57" y="272.43" width="89.42" height="53.48"/><rect class="cls-5" x="370.13" y="278.9" width="89.42" height="53.48"/><path class="cls-7" d="M388.16,300a2.15,2.15,0,0,1-.82,1.79,3.57,3.57,0,0,1-2.28.65,5.43,5.43,0,0,1-2.38-.45v-1.32a6.26,6.26,0,0,0,1.24.43,5.07,5.07,0,0,0,1.23.16,2,2,0,0,0,1.23-.32,1,1,0,0,0,.39-.85,1.06,1.06,0,0,0-.36-.81,5.35,5.35,0,0,0-1.5-.79,4,4,0,0,1-1.65-1.09,2.27,2.27,0,0,1-.48-1.46,2,2,0,0,1,.76-1.69,3.16,3.16,0,0,1,2-.61,6,6,0,0,1,2.45.54l-.44,1.14a5.34,5.34,0,0,0-2-.48,1.6,1.6,0,0,0-1,.29,1,1,0,0,0-.35.79,1,1,0,0,0,.14.57,1.32,1.32,0,0,0,.46.45,7.68,7.68,0,0,0,1.16.55,6.44,6.44,0,0,1,1.38.73,2.21,2.21,0,0,1,.65.77A2.43,2.43,0,0,1,388.16,300Z"/><path class="cls-7" d="M392.78,302.42a2.26,2.26,0,0,1-1.91-.88h-.08c0,.55.08.88.08,1v2.66h-1.38v-9.36h1.12c0,.12.09.41.19.86h.07a2.16,2.16,0,0,1,1.93-1,2.24,2.24,0,0,1,1.89.88,3.89,3.89,0,0,1,.68,2.46,4,4,0,0,1-.69,2.48A2.25,2.25,0,0,1,392.78,302.42Zm-.33-5.59a1.43,1.43,0,0,0-1.2.48,2.52,2.52,0,0,0-.38,1.54v.2a3.06,3.06,0,0,0,.38,1.72,1.39,1.39,0,0,0,1.22.53,1.24,1.24,0,0,0,1.1-.59A3,3,0,0,0,394,299a2.92,2.92,0,0,0-.39-1.65A1.27,1.27,0,0,0,392.45,296.83Z"/><path class="cls-7" d="M400.08,295.71a3.23,3.23,0,0,1,.68.06l-.13,1.28A2.48,2.48,0,0,0,400,297a1.76,1.76,0,0,0-1.34.54,2,2,0,0,0-.51,1.4v3.39h-1.38v-6.48h1.08l.18,1.14h.07a2.49,2.49,0,0,1,.84-.92A2,2,0,0,1,400.08,295.71Z"/><path class="cls-7" d="M401.7,294.11a.77.77,0,0,1,.2-.57.82.82,0,0,1,.58-.2.81.81,0,0,1,.57.2.77.77,0,0,1,.2.57.76.76,0,0,1-.2.55.76.76,0,0,1-.57.2.77.77,0,0,1-.58-.2A.76.76,0,0,1,401.7,294.11Zm1.46,8.2h-1.38v-6.48h1.38Z"/><path class="cls-7" d="M410.65,302.31h-1.38v-4a1.76,1.76,0,0,0-.3-1.12,1.19,1.19,0,0,0-1-.37,1.55,1.55,0,0,0-1.28.52,2.84,2.84,0,0,0-.4,1.73v3.23H405v-6.48H406l.19.85h.07a2,2,0,0,1,.83-.72,2.77,2.77,0,0,1,1.2-.25,2.08,2.08,0,0,1,2.33,2.37Z"/><path class="cls-7" d="M417.86,295.83v.75l-1.11.21a1.56,1.56,0,0,1,.25.5,1.89,1.89,0,0,1,.1.63,1.94,1.94,0,0,1-.69,1.58,2.89,2.89,0,0,1-1.9.57,3.32,3.32,0,0,1-.57,0,.78.78,0,0,0-.44.64.37.37,0,0,0,.21.34,1.86,1.86,0,0,0,.76.11h1.13a2.53,2.53,0,0,1,1.63.45,1.63,1.63,0,0,1,.56,1.32,1.91,1.91,0,0,1-.91,1.7,4.75,4.75,0,0,1-2.62.6,3.67,3.67,0,0,1-2-.47,1.52,1.52,0,0,1-.69-1.34,1.42,1.42,0,0,1,.37-1,2.13,2.13,0,0,1,1.06-.57,1,1,0,0,1-.45-.37,1,1,0,0,1-.18-.55,1,1,0,0,1,.2-.62,2.5,2.5,0,0,1,.61-.49,1.84,1.84,0,0,1-.81-.71,2.09,2.09,0,0,1-.32-1.15,2,2,0,0,1,.67-1.63,2.76,2.76,0,0,1,1.89-.58,3.86,3.86,0,0,1,.58,0,2.49,2.49,0,0,1,.45.08Zm-5.09,7.48a.75.75,0,0,0,.4.69,2.21,2.21,0,0,0,1.13.24,3.42,3.42,0,0,0,1.67-.32,1,1,0,0,0,.55-.86.64.64,0,0,0-.3-.6,2.39,2.39,0,0,0-1.12-.18h-1a1.48,1.48,0,0,0-.94.28A.9.9,0,0,0,412.77,303.31Zm.59-5.39a1.3,1.3,0,0,0,.31.94,1.19,1.19,0,0,0,.9.33c.8,0,1.2-.43,1.2-1.28a1.41,1.41,0,0,0-.3-1,1.13,1.13,0,0,0-.9-.35,1.16,1.16,0,0,0-.9.34A1.42,1.42,0,0,0,413.36,297.92Z"/><path class="cls-7" d="M422,293.74h2.55a4.78,4.78,0,0,1,2.56.52,1.79,1.79,0,0,1,.78,1.62,2,2,0,0,1-.38,1.25,1.77,1.77,0,0,1-1.12.63v.06a2.16,2.16,0,0,1,1.33.67,2.05,2.05,0,0,1,.43,1.36,2.18,2.18,0,0,1-.81,1.8,3.44,3.44,0,0,1-2.24.66H422Zm1.4,3.54h1.35A2.29,2.29,0,0,0,426,297a1.06,1.06,0,0,0,.4-.95,1,1,0,0,0-.44-.87,2.7,2.7,0,0,0-1.38-.27h-1.22Zm0,1.14v2.71h1.49a2.16,2.16,0,0,0,1.33-.34,1.23,1.23,0,0,0,.45-1.06,1.11,1.11,0,0,0-.46-1,2.38,2.38,0,0,0-1.39-.32Z"/><path class="cls-7" d="M435.31,299.05a3.5,3.5,0,0,1-.82,2.48,2.89,2.89,0,0,1-2.26.89,3,3,0,0,1-1.61-.41,2.64,2.64,0,0,1-1.07-1.17,4.06,4.06,0,0,1-.38-1.79,3.51,3.51,0,0,1,.81-2.46,2.93,2.93,0,0,1,2.28-.88,2.87,2.87,0,0,1,2.23.9A3.55,3.55,0,0,1,435.31,299.05Zm-4.72,0c0,1.5.55,2.25,1.66,2.25s1.64-.75,1.64-2.25-.55-2.22-1.65-2.22a1.42,1.42,0,0,0-1.26.58A2.9,2.9,0,0,0,430.59,299.05Z"/><path class="cls-7" d="M442.46,299.05a3.5,3.5,0,0,1-.82,2.48,2.89,2.89,0,0,1-2.26.89,3.06,3.06,0,0,1-1.61-.41,2.7,2.7,0,0,1-1.07-1.17,4.06,4.06,0,0,1-.38-1.79,3.51,3.51,0,0,1,.81-2.46,2.93,2.93,0,0,1,2.28-.88,2.87,2.87,0,0,1,2.23.9A3.55,3.55,0,0,1,442.46,299.05Zm-4.72,0c0,1.5.55,2.25,1.66,2.25s1.64-.75,1.64-2.25-.55-2.22-1.65-2.22a1.42,1.42,0,0,0-1.26.58A2.9,2.9,0,0,0,437.74,299.05Z"/><path class="cls-7" d="M446.27,301.31a3.18,3.18,0,0,0,1-.16v1a2.83,2.83,0,0,1-.59.17,4.52,4.52,0,0,1-.74.06c-1.31,0-2-.68-2-2.06v-3.49h-.89v-.61l.95-.5.47-1.38h.85v1.45h1.85v1h-1.85v3.47a1,1,0,0,0,.25.73A.9.9,0,0,0,446.27,301.31Z"/><path class="cls-7" d="M407.19,316.71l-.85-2.38h-3.28l-.84,2.38h-1.47l3.2-8.61h1.53l3.2,8.61ZM406,313.12l-.81-2.33-.24-.74c-.1-.34-.17-.58-.21-.74a12.88,12.88,0,0,1-.47,1.58l-.77,2.23Z"/><path class="cls-7" d="M412.77,316.82a2.27,2.27,0,0,1-1.91-.88h-.08c.05.55.08.88.08,1v2.66h-1.37v-9.36h1.11c0,.12.09.41.19.86h.07a2.18,2.18,0,0,1,1.94-1,2.26,2.26,0,0,1,1.89.88,4.83,4.83,0,0,1,0,4.94A2.25,2.25,0,0,1,412.77,316.82Zm-.33-5.59a1.43,1.43,0,0,0-1.2.48,2.52,2.52,0,0,0-.38,1.54v.2a3.06,3.06,0,0,0,.38,1.72,1.4,1.4,0,0,0,1.22.53,1.23,1.23,0,0,0,1.1-.59,3.77,3.77,0,0,0,0-3.32A1.3,1.3,0,0,0,412.44,311.23Z"/><path class="cls-7" d="M420.07,316.82a2.26,2.26,0,0,1-1.91-.88h-.08c.05.55.08.88.08,1v2.66h-1.38v-9.36h1.11c0,.12.1.41.2.86h.07a2.16,2.16,0,0,1,1.93-1A2.24,2.24,0,0,1,422,311a4.8,4.8,0,0,1,0,4.94A2.25,2.25,0,0,1,420.07,316.82Zm-.34-5.59a1.42,1.42,0,0,0-1.19.48,2.46,2.46,0,0,0-.38,1.54v.2a3.07,3.07,0,0,0,.37,1.72,1.41,1.41,0,0,0,1.23.53,1.26,1.26,0,0,0,1.1-.59,3,3,0,0,0,.39-1.67,2.92,2.92,0,0,0-.39-1.65A1.28,1.28,0,0,0,419.73,311.23Z"/><path class="cls-7" d="M428.43,314.86a1.71,1.71,0,0,1-.69,1.46,3.36,3.36,0,0,1-2,.5,4.7,4.7,0,0,1-2.08-.39v-1.19a5.13,5.13,0,0,0,2.13.53c.84,0,1.27-.26,1.27-.77a.64.64,0,0,0-.14-.41,1.78,1.78,0,0,0-.47-.34,7.38,7.38,0,0,0-.89-.4,4.36,4.36,0,0,1-1.52-.86,1.63,1.63,0,0,1-.39-1.13,1.47,1.47,0,0,1,.67-1.29,3.14,3.14,0,0,1,1.82-.46,5.15,5.15,0,0,1,2.17.46l-.45,1a4.84,4.84,0,0,0-1.76-.44c-.73,0-1.09.21-1.09.63a.61.61,0,0,0,.28.51,5.88,5.88,0,0,0,1.24.58,6.06,6.06,0,0,1,1.17.57,1.76,1.76,0,0,1,.54.59A1.86,1.86,0,0,1,428.43,314.86Z"/><rect class="cls-8" x="541.93" y="54.79" width="149.74" height="209.3"/><rect class="cls-5" x="551.61" y="66.19" width="130.38" height="48.91"/><path class="cls-7" d="M600.69,80.34a2.31,2.31,0,0,0-1.9.86,3.65,3.65,0,0,0-.69,2.36,3.69,3.69,0,0,0,.66,2.38,2.37,2.37,0,0,0,1.93.81,4.57,4.57,0,0,0,1-.11,9.27,9.27,0,0,0,1.06-.28v1.21a6.49,6.49,0,0,1-2.28.38,3.64,3.64,0,0,1-2.89-1.14,4.78,4.78,0,0,1-1-3.26,5.23,5.23,0,0,1,.49-2.34,3.53,3.53,0,0,1,1.42-1.54,4.31,4.31,0,0,1,2.17-.53,5.41,5.41,0,0,1,2.43.55l-.51,1.17a6.29,6.29,0,0,0-.92-.36A3.1,3.1,0,0,0,600.69,80.34Z"/><path class="cls-7" d="M610.07,84.58a3.56,3.56,0,0,1-.81,2.48A2.94,2.94,0,0,1,607,88a3.16,3.16,0,0,1-1.61-.41,2.79,2.79,0,0,1-1.07-1.18,4,4,0,0,1-.37-1.78,3.55,3.55,0,0,1,.8-2.46,2.94,2.94,0,0,1,2.28-.89,2.84,2.84,0,0,1,2.23.91A3.46,3.46,0,0,1,610.07,84.58Zm-4.72,0c0,1.49.56,2.24,1.66,2.24s1.64-.75,1.64-2.24-.55-2.22-1.65-2.22a1.42,1.42,0,0,0-1.26.57A2.92,2.92,0,0,0,605.35,84.58Z"/><path class="cls-7" d="M617.17,87.83h-1.38v-4a1.71,1.71,0,0,0-.3-1.11,1.15,1.15,0,0,0-1-.37,1.54,1.54,0,0,0-1.28.51,2.86,2.86,0,0,0-.4,1.73v3.23h-1.38V81.35h1.08l.19.85h.07a2,2,0,0,1,.84-.72,2.88,2.88,0,0,1,1.19-.25,2.07,2.07,0,0,1,2.33,2.37Z"/><path class="cls-7" d="M622.16,82.39h-1.58v5.44H619.2V82.39h-1.07v-.64l1.07-.42V80.9a2.36,2.36,0,0,1,.54-1.7,2.18,2.18,0,0,1,1.64-.55,4.38,4.38,0,0,1,1.43.24l-.36,1a3.17,3.17,0,0,0-1-.16.79.79,0,0,0-.69.29,1.47,1.47,0,0,0-.21.87v.42h1.58Zm1-2.76a.81.81,0,0,1,.2-.57.82.82,0,0,1,.58-.2.7.7,0,0,1,.77.77.78.78,0,0,1-.2.56.81.81,0,0,1-.57.2.82.82,0,0,1-.58-.2A.78.78,0,0,1,623.18,79.63Zm1.46,8.2h-1.38V81.35h1.38Z"/><path class="cls-7" d="M631.91,81.35v.75l-1.11.21a1.67,1.67,0,0,1,.25.5,1.91,1.91,0,0,1,.1.64,1.94,1.94,0,0,1-.69,1.57,2.86,2.86,0,0,1-1.9.58,3.27,3.27,0,0,1-.57,0,.78.78,0,0,0-.44.64.37.37,0,0,0,.21.34,1.86,1.86,0,0,0,.76.11h1.13a2.48,2.48,0,0,1,1.63.46,1.6,1.6,0,0,1,.56,1.32,1.91,1.91,0,0,1-.91,1.69,4.78,4.78,0,0,1-2.63.6,3.57,3.57,0,0,1-2-.47,1.5,1.5,0,0,1-.69-1.33,1.43,1.43,0,0,1,.37-1,2,2,0,0,1,1.06-.56,1.1,1.1,0,0,1-.45-.38,1,1,0,0,1,0-1.16,2.3,2.3,0,0,1,.61-.5,1.79,1.79,0,0,1-.81-.71,2.28,2.28,0,0,1,.35-2.78,2.81,2.81,0,0,1,1.89-.58,4.85,4.85,0,0,1,1,.12Zm-5.09,7.49a.75.75,0,0,0,.4.68,2.21,2.21,0,0,0,1.13.24,3.34,3.34,0,0,0,1.67-.32,1,1,0,0,0,.55-.85.65.65,0,0,0-.3-.61,2.59,2.59,0,0,0-1.12-.17h-1a1.53,1.53,0,0,0-1,.27A.93.93,0,0,0,626.82,88.84Zm.59-5.39a1.28,1.28,0,0,0,.31.93,1.19,1.19,0,0,0,.9.33c.8,0,1.2-.42,1.2-1.28a1.43,1.43,0,0,0-.3-1,1.36,1.36,0,0,0-1.8,0A1.38,1.38,0,0,0,627.41,83.45Z"/><path class="cls-7" d="M602,99.9a2.18,2.18,0,0,1-.82,1.8,3.62,3.62,0,0,1-2.28.65,5.46,5.46,0,0,1-2.38-.45v-1.33a6.26,6.26,0,0,0,1.24.43,5.07,5.07,0,0,0,1.23.16,2,2,0,0,0,1.23-.31,1,1,0,0,0,.39-.85,1.08,1.08,0,0,0-.36-.82,5.63,5.63,0,0,0-1.5-.79,4.06,4.06,0,0,1-1.65-1.08,2.32,2.32,0,0,1-.48-1.47,2.07,2.07,0,0,1,.76-1.69,3.16,3.16,0,0,1,2-.61,6,6,0,0,1,2.45.54l-.44,1.14a5.34,5.34,0,0,0-2-.48,1.54,1.54,0,0,0-1,.3.93.93,0,0,0-.35.78,1,1,0,0,0,.14.57,1.41,1.41,0,0,0,.46.45,9.19,9.19,0,0,0,1.16.56,6,6,0,0,1,1.38.73,2.05,2.05,0,0,1,.65.77A2.38,2.38,0,0,1,602,99.9Z"/><path class="cls-7" d="M606.15,102.35a3.14,3.14,0,0,1-2.37-.89,3.31,3.31,0,0,1-.85-2.42,3.68,3.68,0,0,1,.79-2.5,2.72,2.72,0,0,1,2.17-.91,2.67,2.67,0,0,1,2,.78,3,3,0,0,1,.74,2.15v.74h-4.31a2.13,2.13,0,0,0,.51,1.45,1.76,1.76,0,0,0,1.35.51,5.17,5.17,0,0,0,1.07-.11,5.31,5.31,0,0,0,1.06-.36v1.12a4.22,4.22,0,0,1-1,.34A6.72,6.72,0,0,1,606.15,102.35Zm-.26-5.68a1.39,1.39,0,0,0-1,.42,2,2,0,0,0-.47,1.21h2.94a1.79,1.79,0,0,0-.39-1.21A1.31,1.31,0,0,0,605.89,96.67Z"/><path class="cls-7" d="M613.34,95.63a3.23,3.23,0,0,1,.68.06L613.89,97a3.08,3.08,0,0,0-.61-.07,1.76,1.76,0,0,0-1.34.54,2,2,0,0,0-.51,1.4v3.39h-1.38V95.75h1.08l.18,1.14h.07a2.49,2.49,0,0,1,.84-.92A2,2,0,0,1,613.34,95.63Z"/><path class="cls-7" d="M616.52,102.23l-2.46-6.48h1.45l1.32,3.77a7.38,7.38,0,0,1,.41,1.53h0a9.44,9.44,0,0,1,.41-1.53L619,95.75h1.46L618,102.23Z"/><path class="cls-7" d="M624.11,102.35a3.14,3.14,0,0,1-2.36-.89A3.31,3.31,0,0,1,620.9,99a3.68,3.68,0,0,1,.79-2.5,2.72,2.72,0,0,1,2.17-.91,2.67,2.67,0,0,1,2,.78,3,3,0,0,1,.74,2.15v.74h-4.31a2.13,2.13,0,0,0,.51,1.45,1.76,1.76,0,0,0,1.35.51,5.17,5.17,0,0,0,1.07-.11,5.31,5.31,0,0,0,1.06-.36v1.12a4.22,4.22,0,0,1-1,.34A6.75,6.75,0,0,1,624.11,102.35Zm-.25-5.68a1.38,1.38,0,0,0-1.05.42,2,2,0,0,0-.47,1.21h2.94a1.79,1.79,0,0,0-.39-1.21A1.31,1.31,0,0,0,623.86,96.67Z"/><path class="cls-7" d="M631.31,95.63a3.23,3.23,0,0,1,.68.06L631.86,97a3.08,3.08,0,0,0-.61-.07,1.76,1.76,0,0,0-1.34.54,2,2,0,0,0-.51,1.4v3.39H628V95.75h1.08l.18,1.14h.07a2.49,2.49,0,0,1,.84-.92A2,2,0,0,1,631.31,95.63Z"/><rect class="cls-5" x="551.61" y="134.82" width="130.38" height="48.91"/><path class="cls-7" d="M602,154.14a2.16,2.16,0,0,1-.82,1.79,3.62,3.62,0,0,1-2.28.65,5.46,5.46,0,0,1-2.38-.45V154.8a6.28,6.28,0,0,0,1.24.44,5.62,5.62,0,0,0,1.23.16,2,2,0,0,0,1.23-.32,1,1,0,0,0,.39-.85,1.09,1.09,0,0,0-.36-.82,5.63,5.63,0,0,0-1.5-.79,3.87,3.87,0,0,1-1.65-1.08,2.3,2.3,0,0,1-.48-1.47,2,2,0,0,1,.76-1.68,3.16,3.16,0,0,1,2-.62,6,6,0,0,1,2.45.54l-.44,1.14a5.34,5.34,0,0,0-2-.48,1.54,1.54,0,0,0-1,.3,1,1,0,0,0-.35.78,1,1,0,0,0,.14.57,1.41,1.41,0,0,0,.46.45,8,8,0,0,0,1.16.56,6,6,0,0,1,1.38.73,2.13,2.13,0,0,1,.65.77A2.39,2.39,0,0,1,602,154.14Z"/><path class="cls-7" d="M606.15,156.58a3.18,3.18,0,0,1-2.37-.88,3.35,3.35,0,0,1-.85-2.43,3.68,3.68,0,0,1,.79-2.5,2.75,2.75,0,0,1,2.17-.91,2.67,2.67,0,0,1,2,.78,3,3,0,0,1,.74,2.15v.74h-4.31a2.13,2.13,0,0,0,.51,1.45,1.76,1.76,0,0,0,1.35.51,5.17,5.17,0,0,0,1.07-.11,5.31,5.31,0,0,0,1.06-.36v1.12a4.22,4.22,0,0,1-1,.34A5.87,5.87,0,0,1,606.15,156.58Zm-.26-5.67a1.42,1.42,0,0,0-1,.41,2,2,0,0,0-.47,1.22h2.94a1.82,1.82,0,0,0-.39-1.22A1.3,1.3,0,0,0,605.89,150.91Z"/><path class="cls-7" d="M613.34,149.86a3.23,3.23,0,0,1,.68.06l-.13,1.29a2.48,2.48,0,0,0-.61-.07,1.79,1.79,0,0,0-1.34.53,2,2,0,0,0-.51,1.4v3.39h-1.38V150h1.08l.18,1.14h.07a2.57,2.57,0,0,1,.84-.92A2.07,2.07,0,0,1,613.34,149.86Z"/><path class="cls-7" d="M616.52,156.46,614.06,150h1.45l1.32,3.77a7.38,7.38,0,0,1,.41,1.53h0a9.44,9.44,0,0,1,.41-1.53L619,150h1.46L618,156.46Z"/><path class="cls-7" d="M621.2,148.26a.77.77,0,0,1,.2-.56.77.77,0,0,1,.58-.2.7.7,0,0,1,.77.76.78.78,0,0,1-.2.56.81.81,0,0,1-.57.2.82.82,0,0,1-.58-.2A.78.78,0,0,1,621.2,148.26Zm1.46,8.2h-1.38V150h1.38Z"/><path class="cls-7" d="M627.06,156.58a2.83,2.83,0,0,1-2.23-.86,3.57,3.57,0,0,1-.77-2.46,3.65,3.65,0,0,1,.8-2.52,3,3,0,0,1,2.31-.88,4.4,4.4,0,0,1,1.85.38l-.42,1.11a4.31,4.31,0,0,0-1.44-.34c-1.12,0-1.68.75-1.68,2.23a2.66,2.66,0,0,0,.42,1.64,1.44,1.44,0,0,0,1.23.55,3.49,3.49,0,0,0,1.74-.46v1.2a2.85,2.85,0,0,1-.79.32A5,5,0,0,1,627.06,156.58Z"/><path class="cls-7" d="M633,156.58a3.15,3.15,0,0,1-2.36-.88,3.35,3.35,0,0,1-.86-2.43,3.68,3.68,0,0,1,.8-2.5,2.74,2.74,0,0,1,2.17-.91,2.67,2.67,0,0,1,2,.78,3,3,0,0,1,.74,2.15v.74h-4.32a2.13,2.13,0,0,0,.51,1.45,1.77,1.77,0,0,0,1.36.51,5.17,5.17,0,0,0,1.07-.11,5.31,5.31,0,0,0,1.06-.36v1.12a4.53,4.53,0,0,1-1,.34A6,6,0,0,1,633,156.58Zm-.25-5.67a1.39,1.39,0,0,0-1,.41,2,2,0,0,0-.47,1.22h2.94a1.82,1.82,0,0,0-.39-1.22A1.3,1.3,0,0,0,632.79,150.91Z"/><path class="cls-7" d="M598.44,167.44v3.42H597v-8.57h2.42a3.94,3.94,0,0,1,2.46.63,2.21,2.21,0,0,1,.8,1.87,2.34,2.34,0,0,1-1.67,2.28l2.42,3.79h-1.59l-2-3.42Zm0-1.16h1a2.21,2.21,0,0,0,1.41-.36,1.32,1.32,0,0,0,.44-1.08,1.17,1.17,0,0,0-.47-1.05,2.62,2.62,0,0,0-1.43-.31h-.93Z"/><path class="cls-7" d="M607.22,171a3.18,3.18,0,0,1-2.37-.88,3.35,3.35,0,0,1-.85-2.43,3.68,3.68,0,0,1,.79-2.5,2.76,2.76,0,0,1,2.18-.91,2.65,2.65,0,0,1,2,.78,3,3,0,0,1,.75,2.15v.74h-4.32a2.13,2.13,0,0,0,.51,1.45,1.76,1.76,0,0,0,1.35.51,5.17,5.17,0,0,0,1.07-.11,5.11,5.11,0,0,0,1.06-.36v1.12a4.29,4.29,0,0,1-1,.34A6,6,0,0,1,607.22,171Zm-.25-5.67a1.43,1.43,0,0,0-1.06.41,2,2,0,0,0-.47,1.22h2.94a1.75,1.75,0,0,0-.38-1.22A1.31,1.31,0,0,0,607,165.31Z"/><path class="cls-7" d="M616.59,164.38v.76l-1.1.2a2,2,0,0,1,.25.51,2.13,2.13,0,0,1,.1.63,1.92,1.92,0,0,1-.69,1.57,2.87,2.87,0,0,1-1.91.58,3.15,3.15,0,0,1-.56,0,.79.79,0,0,0-.45.65.36.36,0,0,0,.21.33,1.91,1.91,0,0,0,.77.11h1.13a2.49,2.49,0,0,1,1.63.46,1.6,1.6,0,0,1,.55,1.32,1.92,1.92,0,0,1-.91,1.7,4.84,4.84,0,0,1-2.62.59,3.64,3.64,0,0,1-2-.46,1.52,1.52,0,0,1-.7-1.34,1.46,1.46,0,0,1,.38-1,2,2,0,0,1,1.06-.56,1.06,1.06,0,0,1-.46-.38,1,1,0,0,1-.18-.55.92.92,0,0,1,.21-.61,2.3,2.3,0,0,1,.61-.5,1.76,1.76,0,0,1-.82-.71,2,2,0,0,1-.31-1.14,2.08,2.08,0,0,1,.66-1.64,2.86,2.86,0,0,1,1.9-.58c.18,0,.37,0,.58,0a3.88,3.88,0,0,1,.45.08Zm-5.09,7.49a.76.76,0,0,0,.4.68,2.23,2.23,0,0,0,1.13.24,3.38,3.38,0,0,0,1.68-.32,1,1,0,0,0,.55-.85.64.64,0,0,0-.3-.6,2.46,2.46,0,0,0-1.13-.18h-1a1.44,1.44,0,0,0-.94.28A.9.9,0,0,0,611.5,171.87Zm.59-5.39a1.32,1.32,0,0,0,.32.94,1.22,1.22,0,0,0,.9.32c.79,0,1.19-.42,1.19-1.27a1.49,1.49,0,0,0-.29-1,1.13,1.13,0,0,0-.9-.34,1.16,1.16,0,0,0-.91.34A1.43,1.43,0,0,0,612.09,166.48Z"/><path class="cls-7" d="M617.53,162.66a.71.71,0,0,1,.78-.76.7.7,0,0,1,.77.76.78.78,0,0,1-.2.56.81.81,0,0,1-.57.2.77.77,0,0,1-.57-.2A.75.75,0,0,1,617.53,162.66Zm1.46,8.2h-1.38v-6.48H619Z"/><path class="cls-7" d="M625.13,169a1.69,1.69,0,0,1-.69,1.45,3.29,3.29,0,0,1-2,.51,4.73,4.73,0,0,1-2.08-.39V169.4a5.11,5.11,0,0,0,2.13.52c.85,0,1.27-.25,1.27-.76a.62.62,0,0,0-.14-.41,1.52,1.52,0,0,0-.46-.34,8.49,8.49,0,0,0-.9-.4,4,4,0,0,1-1.51-.87,1.57,1.57,0,0,1-.4-1.12,1.48,1.48,0,0,1,.67-1.3,3.26,3.26,0,0,1,1.83-.46,5.15,5.15,0,0,1,2.16.47l-.45,1a4.75,4.75,0,0,0-1.76-.43c-.73,0-1.09.21-1.09.62a.63.63,0,0,0,.28.52,6.79,6.79,0,0,0,1.24.58,5.35,5.35,0,0,1,1.17.56,1.89,1.89,0,0,1,.54.6A1.67,1.67,0,0,1,625.13,169Z"/><path class="cls-7" d="M628.86,169.86a3.46,3.46,0,0,0,1-.15v1a2.24,2.24,0,0,1-.58.17,3.74,3.74,0,0,1-.75.07c-1.31,0-2-.69-2-2.06v-3.5h-.88v-.61l.95-.5.46-1.37H628v1.44h1.85v1H628v3.47a1,1,0,0,0,.25.74A.92.92,0,0,0,628.86,169.86Z"/><path class="cls-7" d="M634.27,164.26a3.23,3.23,0,0,1,.68.06l-.13,1.29a2.49,2.49,0,0,0-.61-.08,1.76,1.76,0,0,0-1.34.54,2,2,0,0,0-.51,1.4v3.39H631v-6.48h1.08l.18,1.14h.07a2.57,2.57,0,0,1,.84-.92A2.07,2.07,0,0,1,634.27,164.26Z"/><path class="cls-7" d="M635,164.38h1.5l1.32,3.67a7.31,7.31,0,0,1,.4,1.48h0a6.43,6.43,0,0,1,.2-.78c.09-.31.59-1.76,1.48-4.37h1.49l-2.77,7.34a2.62,2.62,0,0,1-2.52,2,3.8,3.8,0,0,1-.89-.1v-1.09a3,3,0,0,0,.71.07,1.45,1.45,0,0,0,1.4-1.15l.24-.61Z"/><rect class="cls-5" x="551.61" y="201.7" width="130.38" height="48.91"/><path class="cls-7" d="M600.69,215.85a2.3,2.3,0,0,0-1.9.85,3.66,3.66,0,0,0-.69,2.36,3.72,3.72,0,0,0,.66,2.39,2.37,2.37,0,0,0,1.93.81,5.19,5.19,0,0,0,1-.11c.34-.07.7-.17,1.06-.28v1.2a6.27,6.27,0,0,1-2.28.38,3.64,3.64,0,0,1-2.89-1.14,4.77,4.77,0,0,1-1-3.26,5.23,5.23,0,0,1,.49-2.34,3.51,3.51,0,0,1,1.42-1.53,4.21,4.21,0,0,1,2.17-.53,5.41,5.41,0,0,1,2.43.55l-.51,1.16a9.8,9.8,0,0,0-.92-.36A3.38,3.38,0,0,0,600.69,215.85Z"/><path class="cls-7" d="M603.94,215.14a.77.77,0,0,1,.2-.57.82.82,0,0,1,.58-.2.77.77,0,0,1,.56.2.74.74,0,0,1,.21.57.71.71,0,0,1-.77.75.77.77,0,0,1-.58-.2A.76.76,0,0,1,603.94,215.14Zm1.46,8.2H604v-6.48h1.38Z"/><path class="cls-7" d="M610.18,216.74a3.23,3.23,0,0,1,.68.06l-.13,1.28a2.48,2.48,0,0,0-.61-.07,1.76,1.76,0,0,0-1.34.54,2,2,0,0,0-.51,1.4v3.39h-1.38v-6.48H608l.18,1.14h.07a2.41,2.41,0,0,1,.84-.92A2,2,0,0,1,610.18,216.74Z"/><path class="cls-7" d="M614.19,223.45a2.8,2.8,0,0,1-2.23-.86,4.33,4.33,0,0,1,0-5,3,3,0,0,1,2.32-.88,4.21,4.21,0,0,1,1.84.38l-.41,1.11a4.17,4.17,0,0,0-1.45-.34c-1.12,0-1.68.74-1.68,2.23a2.68,2.68,0,0,0,.42,1.64,1.46,1.46,0,0,0,1.23.54,3.58,3.58,0,0,0,1.74-.45v1.2a2.83,2.83,0,0,1-.79.31A5,5,0,0,1,614.19,223.45Z"/><path class="cls-7" d="M621.61,223.34l-.19-.85h-.07a2,2,0,0,1-.82.71,2.73,2.73,0,0,1-1.21.25,2.35,2.35,0,0,1-1.75-.58,2.43,2.43,0,0,1-.58-1.78v-4.23h1.38v4a1.76,1.76,0,0,0,.31,1.12,1.15,1.15,0,0,0,1,.37,1.52,1.52,0,0,0,1.28-.52,2.85,2.85,0,0,0,.41-1.74v-3.22h1.38v6.48Z"/><path class="cls-7" d="M624.1,215.14a.77.77,0,0,1,.2-.57.82.82,0,0,1,.58-.2.77.77,0,0,1,.56.2.74.74,0,0,1,.21.57.71.71,0,0,1-.77.75.77.77,0,0,1-.58-.2A.76.76,0,0,1,624.1,215.14Zm1.46,8.2h-1.38v-6.48h1.38Z"/><path class="cls-7" d="M629.46,222.34a3.23,3.23,0,0,0,1-.16v1a3.61,3.61,0,0,1-.59.17,4.56,4.56,0,0,1-.75.06c-1.3,0-2-.68-2-2.06V217.9h-.89v-.61l1-.51.47-1.37h.85v1.45h1.84v1h-1.84v3.47a1,1,0,0,0,.25.73A.88.88,0,0,0,629.46,222.34Z"/><path class="cls-7" d="M634.07,214.77h2.54a4.89,4.89,0,0,1,2.56.51,1.83,1.83,0,0,1,.79,1.63,2,2,0,0,1-.39,1.25,1.77,1.77,0,0,1-1.11.63v.06a2.14,2.14,0,0,1,1.32.67,2,2,0,0,1,.43,1.35,2.19,2.19,0,0,1-.81,1.81,3.44,3.44,0,0,1-2.24.66h-3.09Zm1.4,3.54h1.35a2.27,2.27,0,0,0,1.28-.28,1.07,1.07,0,0,0,.4-.95.94.94,0,0,0-.43-.87,2.75,2.75,0,0,0-1.39-.27h-1.21Zm0,1.14v2.71H637a2.14,2.14,0,0,0,1.32-.34,1.23,1.23,0,0,0,.45-1.06,1.11,1.11,0,0,0-.46-1,2.34,2.34,0,0,0-1.38-.32Z"/><path class="cls-7" d="M644.65,216.74a3.17,3.17,0,0,1,.68.06l-.13,1.28a2.48,2.48,0,0,0-.61-.07,1.76,1.76,0,0,0-1.34.54,2,2,0,0,0-.51,1.4v3.39h-1.38v-6.48h1.08l.18,1.14h.07a2.58,2.58,0,0,1,.84-.92A2,2,0,0,1,644.65,216.74Z"/><path class="cls-7" d="M648.89,223.45a3.14,3.14,0,0,1-2.37-.88,3.35,3.35,0,0,1-.85-2.43,3.63,3.63,0,0,1,.79-2.49,2.72,2.72,0,0,1,2.17-.91,2.66,2.66,0,0,1,2,.78,3,3,0,0,1,.75,2.14v.75h-4.32a2.15,2.15,0,0,0,.51,1.45,1.8,1.8,0,0,0,1.35.5,4.57,4.57,0,0,0,1.07-.11,5.31,5.31,0,0,0,1.06-.36V223a3.83,3.83,0,0,1-1,.34A5.87,5.87,0,0,1,648.89,223.45Zm-.26-5.67a1.39,1.39,0,0,0-1,.42,2,2,0,0,0-.47,1.21h2.94a1.82,1.82,0,0,0-.38-1.22A1.36,1.36,0,0,0,648.63,217.78Z"/><path class="cls-7" d="M656.54,223.34l-.27-.91h0a2.54,2.54,0,0,1-.94.81,3,3,0,0,1-1.22.21,2.07,2.07,0,0,1-1.49-.51,1.93,1.93,0,0,1-.54-1.46,1.7,1.7,0,0,1,.75-1.51,4.24,4.24,0,0,1,2.26-.56l1.12,0V219a1.28,1.28,0,0,0-.29-.93,1.19,1.19,0,0,0-.9-.31,3,3,0,0,0-1,.15,7.65,7.65,0,0,0-.88.34l-.45-1a5.32,5.32,0,0,1,1.16-.42,5.65,5.65,0,0,1,1.18-.14,2.8,2.8,0,0,1,1.87.54,2.1,2.1,0,0,1,.63,1.69v4.37Zm-2-.94a1.71,1.71,0,0,0,1.21-.42,1.53,1.53,0,0,0,.45-1.18v-.56l-.83,0a2.89,2.89,0,0,0-1.42.32,1,1,0,0,0-.44.89.87.87,0,0,0,.26.67A1.09,1.09,0,0,0,654.49,222.4Z"/><path class="cls-7" d="M660.3,219.91l.78-1,2-2.08h1.59L662,219.64l2.77,3.7h-1.62l-2.08-2.85-.75.62v2.23H659v-9.12h1.37v4.45l-.07,1.24Z"/><path class="cls-7" d="M668.18,223.45a3.12,3.12,0,0,1-2.36-.88,3.35,3.35,0,0,1-.85-2.43,3.63,3.63,0,0,1,.79-2.49,2.7,2.7,0,0,1,2.17-.91,2.67,2.67,0,0,1,2,.78,3,3,0,0,1,.74,2.14v.75h-4.32a2.15,2.15,0,0,0,.51,1.45,1.8,1.8,0,0,0,1.36.5,4.57,4.57,0,0,0,1.07-.11,5.31,5.31,0,0,0,1.06-.36V223a4.08,4.08,0,0,1-1,.34A6,6,0,0,1,668.18,223.45Zm-.25-5.67a1.36,1.36,0,0,0-1,.42,1.92,1.92,0,0,0-.47,1.21h2.94a1.82,1.82,0,0,0-.39-1.22A1.33,1.33,0,0,0,667.93,217.78Z"/><path class="cls-7" d="M675.07,216.74a3.27,3.27,0,0,1,.69.06l-.14,1.28a2.35,2.35,0,0,0-.6-.07,1.75,1.75,0,0,0-1.34.54,1.91,1.91,0,0,0-.52,1.4v3.39h-1.37v-6.48h1.07l.19,1.14h.07a2.41,2.41,0,0,1,.84-.92A2,2,0,0,1,675.07,216.74Z"/><path class="cls-7" d="M604,233.37a4.25,4.25,0,0,1-1.18,3.24,4.7,4.7,0,0,1-3.39,1.13H597v-8.57h2.65a4.37,4.37,0,0,1,3.18,1.1A4.11,4.11,0,0,1,604,233.37Zm-1.48,0c0-2-1-3.08-2.87-3.08h-1.22v6.22h1Q602.53,236.56,602.53,233.42Z"/><path class="cls-7" d="M609.52,237.74l-.28-.91h0a2.64,2.64,0,0,1-1,.81,3,3,0,0,1-1.22.21,2.09,2.09,0,0,1-1.49-.51,2,2,0,0,1-.53-1.46,1.7,1.7,0,0,1,.74-1.51,4.28,4.28,0,0,1,2.27-.56l1.12,0v-.34a1.31,1.31,0,0,0-.29-.93,1.19,1.19,0,0,0-.9-.31,3.11,3.11,0,0,0-1,.15,9.4,9.4,0,0,0-.88.34l-.44-1a5.05,5.05,0,0,1,1.15-.42,5.74,5.74,0,0,1,1.19-.14,2.79,2.79,0,0,1,1.86.54,2.1,2.1,0,0,1,.63,1.69v4.37Zm-2-.94a1.69,1.69,0,0,0,1.2-.42,1.54,1.54,0,0,0,.46-1.18v-.56l-.84,0a2.84,2.84,0,0,0-1.41.32,1,1,0,0,0-.44.89.87.87,0,0,0,.25.67A1.12,1.12,0,0,0,607.47,236.8Z"/><path class="cls-7" d="M616.54,235.89a1.71,1.71,0,0,1-.69,1.46,3.36,3.36,0,0,1-2,.5,4.67,4.67,0,0,1-2.08-.39v-1.19a5.12,5.12,0,0,0,2.12.53c.85,0,1.27-.26,1.27-.77a.59.59,0,0,0-.14-.41,1.56,1.56,0,0,0-.46-.34,7,7,0,0,0-.9-.4,4.14,4.14,0,0,1-1.51-.87,1.6,1.6,0,0,1-.4-1.12,1.48,1.48,0,0,1,.67-1.29,3.18,3.18,0,0,1,1.83-.46,5.14,5.14,0,0,1,2.16.46l-.44,1a4.83,4.83,0,0,0-1.77-.44c-.72,0-1.09.21-1.09.62a.63.63,0,0,0,.29.52,6.46,6.46,0,0,0,1.24.58,5.91,5.91,0,0,1,1.16.57,1.67,1.67,0,0,1,.54.59A1.73,1.73,0,0,1,616.54,235.89Z"/><path class="cls-7" d="M623.49,237.74h-1.38v-4a1.76,1.76,0,0,0-.31-1.12,1.18,1.18,0,0,0-.95-.37,1.55,1.55,0,0,0-1.28.52,2.89,2.89,0,0,0-.41,1.74v3.22h-1.37v-9.12h1.37v2.31a10.08,10.08,0,0,1-.07,1.19h.09a1.94,1.94,0,0,1,.78-.72,2.46,2.46,0,0,1,1.17-.26,2.09,2.09,0,0,1,2.36,2.37Z"/><path class="cls-7" d="M628.47,231.14a2.24,2.24,0,0,1,1.89.88,3.87,3.87,0,0,1,.68,2.46,4,4,0,0,1-.68,2.48,2.5,2.5,0,0,1-3.82,0h-.09l-.26.77h-1v-9.12h1.38v2.17c0,.16,0,.39,0,.71s0,.52,0,.6h.06A2.19,2.19,0,0,1,628.47,231.14Zm-.35,1.12a1.41,1.41,0,0,0-1.2.49,2.82,2.82,0,0,0-.38,1.64v.09a3.06,3.06,0,0,0,.38,1.72,1.39,1.39,0,0,0,1.22.53,1.25,1.25,0,0,0,1.11-.58,3.12,3.12,0,0,0,.38-1.68C629.63,233,629.12,232.26,628.12,232.26Z"/><path class="cls-7" d="M638.15,234.48a3.5,3.5,0,0,1-.82,2.48,2.89,2.89,0,0,1-2.26.89,3.06,3.06,0,0,1-1.61-.41,2.67,2.67,0,0,1-1.07-1.18,4,4,0,0,1-.38-1.78,3.51,3.51,0,0,1,.81-2.46,2.93,2.93,0,0,1,2.28-.88,2.87,2.87,0,0,1,2.23.9A3.55,3.55,0,0,1,638.15,234.48Zm-4.72,0c0,1.5.55,2.25,1.66,2.25s1.64-.75,1.64-2.25-.55-2.22-1.65-2.22a1.4,1.4,0,0,0-1.26.58A2.9,2.9,0,0,0,633.43,234.48Z"/><path class="cls-7" d="M643.54,237.74l-.27-.91h0a2.54,2.54,0,0,1-.94.81,3,3,0,0,1-1.22.21,2.07,2.07,0,0,1-1.49-.51,1.93,1.93,0,0,1-.54-1.46,1.7,1.7,0,0,1,.75-1.51,4.24,4.24,0,0,1,2.26-.56l1.12,0v-.34a1.27,1.27,0,0,0-.29-.93,1.16,1.16,0,0,0-.9-.31,3,3,0,0,0-1,.15,7.65,7.65,0,0,0-.88.34l-.45-1a5.32,5.32,0,0,1,1.16-.42,5.65,5.65,0,0,1,1.18-.14,2.8,2.8,0,0,1,1.87.54,2.1,2.1,0,0,1,.63,1.69v4.37Zm-2-.94a1.71,1.71,0,0,0,1.21-.42,1.53,1.53,0,0,0,.45-1.18v-.56l-.83,0a2.89,2.89,0,0,0-1.42.32,1,1,0,0,0-.44.89.87.87,0,0,0,.26.67A1.09,1.09,0,0,0,641.49,236.8Z"/><path class="cls-7" d="M649.5,231.14a3.17,3.17,0,0,1,.68.06l-.13,1.28a2.48,2.48,0,0,0-.61-.07,1.76,1.76,0,0,0-1.34.54,2,2,0,0,0-.51,1.4v3.39h-1.38v-6.49h1.08l.18,1.15h.07a2.58,2.58,0,0,1,.84-.92A2,2,0,0,1,649.5,231.14Z"/><path class="cls-7" d="M653.33,237.85a2.24,2.24,0,0,1-1.89-.88,4.8,4.8,0,0,1,0-4.94,2.48,2.48,0,0,1,3.85.05h.07a7.62,7.62,0,0,1-.1-1.1v-2.36h1.38v9.12h-1.08l-.24-.85h-.06A2.21,2.21,0,0,1,653.33,237.85Zm.37-1.11a1.5,1.5,0,0,0,1.24-.48,2.51,2.51,0,0,0,.39-1.55v-.19a2.94,2.94,0,0,0-.39-1.74,1.48,1.48,0,0,0-1.25-.52,1.27,1.27,0,0,0-1.12.59,3,3,0,0,0-.39,1.68,2.86,2.86,0,0,0,.38,1.64A1.27,1.27,0,0,0,653.7,236.74Z"/><path class="cls-9" d="M584.07,223.48a33.94,33.94,0,0,0-1.43-5.49,7.75,7.75,0,0,1-.93,1.65,8.77,8.77,0,0,0-13.8,1.61,5.81,5.81,0,0,1,3.58,1.5,6.09,6.09,0,0,0-3.38-1,6.2,6.2,0,1,0,0,12.39H582.4a5.46,5.46,0,0,0,1.67-10.67Zm-13.36,8.76a.75.75,0,1,1-.11-1.05A.73.73,0,0,1,570.71,232.24Zm11.9-2.62c-2.17,2.88-6.78,1.91-9.75,2,0,0-.52,0-1.05.12l.46-.17a35.21,35.21,0,0,0,4.32-1.51,10.17,10.17,0,0,0,5.22-6.62c-.9,2.65-3.65,4.92-6.15,5.85a43,43,0,0,1-4.82,1.25l-.12-.07c-2.11-1-2.17-5.59,1.66-7.06,1.68-.64,3.28-.29,5.09-.72a7.94,7.94,0,0,0,5.09-3.81C583.58,222,584.8,226.69,582.61,229.62Z"/><path class="cls-9" d="M584.07,156.31a33.94,33.94,0,0,0-1.43-5.49,7.75,7.75,0,0,1-.93,1.65,8.77,8.77,0,0,0-13.8,1.61,5.76,5.76,0,0,1,3.58,1.51,6,6,0,0,0-3.38-1,6.2,6.2,0,1,0,0,12.39H582.4a5.46,5.46,0,0,0,1.67-10.67Zm-13.36,8.76a.75.75,0,1,1-.11-1A.73.73,0,0,1,570.71,165.07Zm11.9-2.62c-2.17,2.88-6.78,1.91-9.75,2.05,0,0-.52,0-1.05.11l.46-.17a33.6,33.6,0,0,0,4.32-1.51,10.17,10.17,0,0,0,5.22-6.62c-.9,2.65-3.65,4.92-6.15,5.85a43,43,0,0,1-4.82,1.25l-.12-.07c-2.11-1-2.17-5.59,1.66-7.06,1.68-.64,3.28-.29,5.09-.72a7.94,7.94,0,0,0,5.09-3.81C583.58,154.78,584.8,159.52,582.61,162.45Z"/><path class="cls-9" d="M584.07,88.55a34.21,34.21,0,0,0-1.43-5.49,7.83,7.83,0,0,1-.93,1.66,8.75,8.75,0,0,0-13.8,1.61,5.81,5.81,0,0,1,3.58,1.5,6.09,6.09,0,0,0-3.38-1,6.2,6.2,0,1,0,0,12.39H582.4a5.47,5.47,0,0,0,1.67-10.68Zm-13.36,8.77a.75.75,0,1,1-1.16-.94.75.75,0,1,1,1.16.94Zm11.9-2.62c-2.17,2.88-6.78,1.9-9.75,2,0,0-.52,0-1.05.12a4.4,4.4,0,0,1,.46-.17,33.38,33.38,0,0,0,4.32-1.52,10.13,10.13,0,0,0,5.22-6.61c-.9,2.64-3.65,4.92-6.15,5.85a42.08,42.08,0,0,1-4.82,1.24l-.12-.06c-2.11-1-2.17-5.59,1.66-7.06,1.68-.65,3.28-.29,5.09-.72A7.94,7.94,0,0,0,582.56,84C583.58,87,584.8,91.77,582.61,94.7Z"/><path class="cls-7" d="M538.4,428.72l-2.42-7h0c.06,1,.09,2,.09,2.9v4.05H534.8V420.4h1.92L539,427h0l2.38-6.62h1.92v8.32h-1.31v-4.11c0-.42,0-1,0-1.62s0-1.07,0-1.21h0l-2.49,6.94Z"/><path class="cls-7" d="M548,428.83a3,3,0,0,1-2.3-.85,3.26,3.26,0,0,1-.83-2.36,3.59,3.59,0,0,1,.77-2.43,2.68,2.68,0,0,1,2.11-.88,2.58,2.58,0,0,1,2,.76,2.9,2.9,0,0,1,.73,2.08v.72h-4.2a2,2,0,0,0,.5,1.41,1.7,1.7,0,0,0,1.31.5,4.88,4.88,0,0,0,1-.11,5.7,5.7,0,0,0,1-.35v1.09a4.43,4.43,0,0,1-1,.33A6.43,6.43,0,0,1,548,428.83Zm-.25-5.51a1.36,1.36,0,0,0-1,.41,1.91,1.91,0,0,0-.46,1.18h2.86a1.7,1.7,0,0,0-.38-1.18A1.27,1.27,0,0,0,547.74,423.32Z"/><path class="cls-7" d="M556,426.93a1.67,1.67,0,0,1-.67,1.41,3.22,3.22,0,0,1-1.93.49,4.46,4.46,0,0,1-2-.38V427.3a5,5,0,0,0,2.07.51q1.23,0,1.23-.75a.56.56,0,0,0-.13-.39,1.45,1.45,0,0,0-.45-.33,6.33,6.33,0,0,0-.87-.39,3.92,3.92,0,0,1-1.47-.84,1.57,1.57,0,0,1-.39-1.1,1.44,1.44,0,0,1,.65-1.25,3.11,3.11,0,0,1,1.78-.45,5,5,0,0,1,2.1.45l-.44,1a4.68,4.68,0,0,0-1.71-.42c-.7,0-1.06.2-1.06.6a.58.58,0,0,0,.28.5,5.63,5.63,0,0,0,1.2.57,5.52,5.52,0,0,1,1.14.55,1.54,1.54,0,0,1,.69,1.36Z"/><path class="cls-7" d="M561.51,426.93a1.67,1.67,0,0,1-.67,1.41,3.22,3.22,0,0,1-1.93.49,4.46,4.46,0,0,1-2-.38V427.3a5,5,0,0,0,2.07.51q1.23,0,1.23-.75a.56.56,0,0,0-.13-.39,1.45,1.45,0,0,0-.45-.33,6.33,6.33,0,0,0-.87-.39,3.92,3.92,0,0,1-1.47-.84,1.57,1.57,0,0,1-.39-1.1,1.44,1.44,0,0,1,.65-1.25,3.11,3.11,0,0,1,1.78-.45,5,5,0,0,1,2.1.45l-.44,1a4.68,4.68,0,0,0-1.71-.42c-.7,0-1.06.2-1.06.6a.58.58,0,0,0,.28.5,5.63,5.63,0,0,0,1.2.57,5.52,5.52,0,0,1,1.14.55,1.54,1.54,0,0,1,.69,1.36Z"/><path class="cls-7" d="M566.72,428.72l-.27-.88h0a2.59,2.59,0,0,1-.92.79,2.88,2.88,0,0,1-1.18.2,2,2,0,0,1-1.45-.5,1.84,1.84,0,0,1-.52-1.41,1.67,1.67,0,0,1,.72-1.47,4.17,4.17,0,0,1,2.2-.54l1.09,0v-.33a1.27,1.27,0,0,0-.28-.91,1.19,1.19,0,0,0-.88-.29,2.81,2.81,0,0,0-.92.14,8,8,0,0,0-.86.33l-.43-.95a4.39,4.39,0,0,1,1.12-.41,5.38,5.38,0,0,1,1.15-.14,2.77,2.77,0,0,1,1.81.52,2.06,2.06,0,0,1,.62,1.65v4.24Zm-2-.91a1.69,1.69,0,0,0,1.17-.41,1.48,1.48,0,0,0,.44-1.14v-.54l-.81,0a2.74,2.74,0,0,0-1.38.32,1,1,0,0,0-.42.86.82.82,0,0,0,.25.65A1.07,1.07,0,0,0,564.73,427.81Z"/><path class="cls-7" d="M574.68,422.43v.73l-1.07.2a1.49,1.49,0,0,1,.24.49,1.77,1.77,0,0,1,.1.61,1.87,1.87,0,0,1-.67,1.53,2.78,2.78,0,0,1-1.85.56,3.09,3.09,0,0,1-.55,0,.73.73,0,0,0-.43.62.36.36,0,0,0,.2.33,1.75,1.75,0,0,0,.74.11h1.1a2.4,2.4,0,0,1,1.58.44,1.54,1.54,0,0,1,.54,1.28,1.86,1.86,0,0,1-.88,1.65,4.63,4.63,0,0,1-2.55.58,3.53,3.53,0,0,1-2-.45,1.49,1.49,0,0,1-.68-1.3,1.38,1.38,0,0,1,.37-1,2,2,0,0,1,1-.55,1,1,0,0,1-.45-.37.93.93,0,0,1-.17-.53,1,1,0,0,1,.2-.6,2.34,2.34,0,0,1,.59-.48,1.79,1.79,0,0,1-.79-.68,2.07,2.07,0,0,1-.31-1.12,2,2,0,0,1,.65-1.59,2.73,2.73,0,0,1,1.84-.56,3.6,3.6,0,0,1,.56,0,2.35,2.35,0,0,1,.44.08Zm-4.94,7.27a.72.72,0,0,0,.39.66,2.07,2.07,0,0,0,1.09.24,3.43,3.43,0,0,0,1.63-.31,1,1,0,0,0,.54-.84.62.62,0,0,0-.3-.58,2.43,2.43,0,0,0-1.09-.17h-1a1.41,1.41,0,0,0-.91.27A.87.87,0,0,0,569.74,429.7Zm.57-5.24a1.23,1.23,0,0,0,.31.91,1.11,1.11,0,0,0,.87.32c.77,0,1.16-.41,1.16-1.24a1.39,1.39,0,0,0-.29-.95,1.09,1.09,0,0,0-.87-.33,1.12,1.12,0,0,0-.88.33A1.38,1.38,0,0,0,570.31,424.46Z"/><path class="cls-7" d="M578.42,428.83a3,3,0,0,1-2.29-.85,3.26,3.26,0,0,1-.83-2.36,3.59,3.59,0,0,1,.77-2.43,2.67,2.67,0,0,1,2.11-.88,2.58,2.58,0,0,1,2,.76,2.89,2.89,0,0,1,.72,2.08v.72h-4.19a2.07,2.07,0,0,0,.49,1.41,1.73,1.73,0,0,0,1.32.5,4.88,4.88,0,0,0,1-.11,5.7,5.7,0,0,0,1-.35v1.09a4.8,4.8,0,0,1-1,.33A6.55,6.55,0,0,1,578.42,428.83Zm-.24-5.51a1.34,1.34,0,0,0-1,.41,1.91,1.91,0,0,0-.46,1.18h2.86a1.75,1.75,0,0,0-.38-1.18A1.27,1.27,0,0,0,578.18,423.32Z"/><path class="cls-7" d="M537.23,434.39h2.47a4.63,4.63,0,0,1,2.48.5,1.75,1.75,0,0,1,.77,1.58,1.9,1.9,0,0,1-.38,1.21,1.63,1.63,0,0,1-1.08.61v.06a2.14,2.14,0,0,1,1.29.65,1.93,1.93,0,0,1,.41,1.32,2.12,2.12,0,0,1-.78,1.75,3.33,3.33,0,0,1-2.18.64h-3Zm1.36,3.43h1.31a2.13,2.13,0,0,0,1.24-.27,1,1,0,0,0,.4-.91.9.9,0,0,0-.43-.85,2.57,2.57,0,0,0-1.34-.26h-1.18Zm0,1.11v2.63H540a2.12,2.12,0,0,0,1.29-.32,1.23,1.23,0,0,0,.44-1,1.11,1.11,0,0,0-.44-1,2.36,2.36,0,0,0-1.35-.31Z"/><path class="cls-7" d="M547.8,436.3a3.13,3.13,0,0,1,.67.06l-.14,1.24a2.73,2.73,0,0,0-.59-.07,1.72,1.72,0,0,0-1.3.53,1.9,1.9,0,0,0-.5,1.36v3.29h-1.33v-6.3h1l.18,1.11h.07a2.51,2.51,0,0,1,.82-.89A1.91,1.91,0,0,1,547.8,436.3Z"/><path class="cls-7" d="M555,439.55a3.43,3.43,0,0,1-.79,2.41,2.85,2.85,0,0,1-2.2.86,3,3,0,0,1-1.56-.4,2.56,2.56,0,0,1-1-1.14,3.8,3.8,0,0,1-.37-1.73,3.38,3.38,0,0,1,.79-2.39,2.85,2.85,0,0,1,2.21-.86,2.75,2.75,0,0,1,2.16.88A3.37,3.37,0,0,1,555,439.55Zm-4.58,0c0,1.45.54,2.18,1.61,2.18s1.59-.73,1.59-2.18-.53-2.16-1.6-2.16a1.37,1.37,0,0,0-1.22.56A2.87,2.87,0,0,0,550.46,439.55Z"/><path class="cls-7" d="M557.7,439.38l.75-.94,1.9-2h1.55l-2.54,2.71,2.7,3.59h-1.57l-2-2.76-.73.6v2.16H556.4v-8.86h1.33v4.32l-.07,1.21Z"/><path class="cls-7" d="M565.64,442.82a3,3,0,0,1-2.29-.85,3.22,3.22,0,0,1-.83-2.36,3.59,3.59,0,0,1,.77-2.43,2.63,2.63,0,0,1,2.11-.88,2.58,2.58,0,0,1,2,.76,2.89,2.89,0,0,1,.72,2.08v.72H563.9a2,2,0,0,0,.49,1.41,1.72,1.72,0,0,0,1.32.49,4.8,4.8,0,0,0,1-.1,5.54,5.54,0,0,0,1-.35v1.09a4.8,4.8,0,0,1-1,.33A6.63,6.63,0,0,1,565.64,442.82Zm-.24-5.51a1.33,1.33,0,0,0-1,.41,1.91,1.91,0,0,0-.46,1.18h2.86a1.8,1.8,0,0,0-.38-1.19A1.31,1.31,0,0,0,565.4,437.31Z"/><path class="cls-7" d="M572.63,436.3a3.13,3.13,0,0,1,.67.06l-.14,1.24a2.73,2.73,0,0,0-.59-.07,1.72,1.72,0,0,0-1.3.53,1.9,1.9,0,0,0-.5,1.36v3.29h-1.33v-6.3h1l.18,1.11h.07a2.51,2.51,0,0,1,.82-.89A1.91,1.91,0,0,1,572.63,436.3Z"/><path class="cls-7" d="M578.52,440.92a1.67,1.67,0,0,1-.67,1.41,3.22,3.22,0,0,1-1.93.49,4.46,4.46,0,0,1-2-.38v-1.15a5,5,0,0,0,2.07.51q1.23,0,1.23-.75a.6.6,0,0,0-.13-.4,2.38,2.38,0,0,0-.45-.33,7.56,7.56,0,0,0-.88-.38,4.09,4.09,0,0,1-1.47-.85,1.57,1.57,0,0,1-.38-1.09,1.42,1.42,0,0,1,.65-1.25,3.09,3.09,0,0,1,1.77-.45,5,5,0,0,1,2.1.45l-.43,1a4.68,4.68,0,0,0-1.71-.42c-.71,0-1.06.2-1.06.6a.6.6,0,0,0,.28.5,5.76,5.76,0,0,0,1.2.56,5.09,5.09,0,0,1,1.13.56,1.59,1.59,0,0,1,.53.57A1.74,1.74,0,0,1,578.52,440.92Z"/><path class="cls-11" d="M541.37,394.88v11.24h3.43V394.88Zm23.93-15a11.87,11.87,0,0,0-11.89,11.82,4.61,4.61,0,0,1-4.68,4.67h-2.55v8.32h3.65a11.84,11.84,0,0,0,11.9-11.82,4.65,4.65,0,0,1,4.67-4.67H569v-8.32Zm5.11-1.54v11.17h3.36V378.31Z"/><path class="cls-7" d="M303.05,434.62l-2.48-7.15h-.05c.07,1.06.1,2.06.1,3v4.16h-1.27v-8.56h2l2.38,6.81h0l2.45-6.81h2v8.56h-1.35v-4.23c0-.43,0-1,0-1.67s0-1.1.06-1.24h-.05l-2.57,7.14Z"/><path class="cls-7" d="M312.93,434.74a3.14,3.14,0,0,1-2.37-.88,3.39,3.39,0,0,1-.85-2.43,3.73,3.73,0,0,1,.79-2.5,2.75,2.75,0,0,1,2.18-.9,2.65,2.65,0,0,1,2,.77,3,3,0,0,1,.75,2.15v.74h-4.32a2.12,2.12,0,0,0,.51,1.45,1.76,1.76,0,0,0,1.35.51,5.1,5.1,0,0,0,1.07-.11,5.39,5.39,0,0,0,1.07-.36v1.12a4.53,4.53,0,0,1-1,.34A6,6,0,0,1,312.93,434.74Zm-.25-5.67a1.43,1.43,0,0,0-1.06.41,2,2,0,0,0-.47,1.22h2.94a1.76,1.76,0,0,0-.38-1.22A1.35,1.35,0,0,0,312.68,429.07Z"/><path class="cls-7" d="M319.25,433.63a3.48,3.48,0,0,0,1-.16v1a2.89,2.89,0,0,1-.59.16,3.57,3.57,0,0,1-.74.07c-1.31,0-2-.69-2-2.06v-3.49h-.88v-.61l.95-.51.46-1.37h.85v1.44h1.85v1.05h-1.85v3.46a1,1,0,0,0,.25.74A.92.92,0,0,0,319.25,433.63Z"/><path class="cls-7" d="M324.66,428a3.31,3.31,0,0,1,.68.05l-.13,1.29a2.48,2.48,0,0,0-.61-.07,1.76,1.76,0,0,0-1.34.54,2,2,0,0,0-.51,1.4v3.38h-1.38v-6.48h1.08l.18,1.14h.07a2.57,2.57,0,0,1,.84-.92A2.06,2.06,0,0,1,324.66,428Z"/><path class="cls-7" d="M326.28,426.43a.7.7,0,0,1,.78-.77.76.76,0,0,1,.57.2.88.88,0,0,1,0,1.12.81.81,0,0,1-.57.2.82.82,0,0,1-.58-.2A.77.77,0,0,1,326.28,426.43Zm1.46,8.19h-1.38v-6.48h1.38Z"/><path class="cls-7" d="M332.14,434.74a2.83,2.83,0,0,1-2.23-.86,3.57,3.57,0,0,1-.77-2.46,3.65,3.65,0,0,1,.8-2.52,3,3,0,0,1,2.31-.87,4.25,4.25,0,0,1,1.85.38l-.42,1.1a4.31,4.31,0,0,0-1.44-.34c-1.12,0-1.68.75-1.68,2.24A2.65,2.65,0,0,0,331,433a1.44,1.44,0,0,0,1.23.55,3.49,3.49,0,0,0,1.74-.46v1.21a3.17,3.17,0,0,1-.79.31A5,5,0,0,1,332.14,434.74Z"/><path class="cls-7" d="M339.64,432.78a1.68,1.68,0,0,1-.69,1.45,3.29,3.29,0,0,1-2,.51,4.7,4.7,0,0,1-2.08-.39v-1.19a5.13,5.13,0,0,0,2.13.53c.85,0,1.27-.26,1.27-.77a.62.62,0,0,0-.14-.41,1.52,1.52,0,0,0-.46-.34,8.49,8.49,0,0,0-.9-.4,4,4,0,0,1-1.51-.87,1.57,1.57,0,0,1-.4-1.12,1.45,1.45,0,0,1,.67-1.29,3.18,3.18,0,0,1,1.83-.46,5.14,5.14,0,0,1,2.16.46l-.45,1a4.79,4.79,0,0,0-1.76-.44c-.73,0-1.09.21-1.09.62a.62.62,0,0,0,.28.52,6.79,6.79,0,0,0,1.24.58,5.28,5.28,0,0,1,1.17.57,1.76,1.76,0,0,1,.54.59A1.83,1.83,0,0,1,339.64,432.78Z"/><path class="cls-7" d="M349,432.3a2.15,2.15,0,0,1-.82,1.79,3.62,3.62,0,0,1-2.28.65,5.46,5.46,0,0,1-2.38-.45V433a6.37,6.37,0,0,0,1.25.44,5.46,5.46,0,0,0,1.22.16,2,2,0,0,0,1.23-.32,1,1,0,0,0,.4-.85,1.07,1.07,0,0,0-.37-.81,5.3,5.3,0,0,0-1.5-.8,3.87,3.87,0,0,1-1.65-1.08,2.29,2.29,0,0,1-.48-1.46,2,2,0,0,1,.76-1.69,3.17,3.17,0,0,1,2-.62,6,6,0,0,1,2.45.54l-.45,1.14a5.34,5.34,0,0,0-2-.48,1.54,1.54,0,0,0-1,.3,1,1,0,0,0-.35.78,1.09,1.09,0,0,0,.14.57,1.41,1.41,0,0,0,.46.45,8,8,0,0,0,1.16.56,6,6,0,0,1,1.38.73,2.13,2.13,0,0,1,.65.77A2.25,2.25,0,0,1,349,432.3Z"/><path class="cls-7" d="M352.72,433.63a3.55,3.55,0,0,0,1-.16v1a2.89,2.89,0,0,1-.59.16,3.67,3.67,0,0,1-.75.07c-1.3,0-1.95-.69-1.95-2.06v-3.49h-.89v-.61l.95-.51.47-1.37h.85v1.44h1.84v1.05h-1.84v3.46a1,1,0,0,0,.25.74A.88.88,0,0,0,352.72,433.63Z"/><path class="cls-7" d="M360.59,431.37a3.54,3.54,0,0,1-.81,2.48,2.94,2.94,0,0,1-2.27.89,3.16,3.16,0,0,1-1.61-.41,2.73,2.73,0,0,1-1.07-1.18,4,4,0,0,1-.37-1.78,3.51,3.51,0,0,1,.81-2.46,3.29,3.29,0,0,1,4.5,0A3.48,3.48,0,0,1,360.59,431.37Zm-4.72,0c0,1.5.56,2.24,1.66,2.24s1.64-.74,1.64-2.24-.55-2.22-1.65-2.22a1.42,1.42,0,0,0-1.26.57A3,3,0,0,0,355.87,431.37Z"/><path class="cls-7" d="M365.28,428a3.36,3.36,0,0,1,.69.05l-.14,1.29a2.43,2.43,0,0,0-.61-.07,1.76,1.76,0,0,0-1.34.54,2,2,0,0,0-.51,1.4v3.38H362v-6.48h1.08l.18,1.14h.07a2.76,2.76,0,0,1,.84-.92A2.06,2.06,0,0,1,365.28,428Z"/><path class="cls-7" d="M369.82,434.74a3.14,3.14,0,0,1-2.37-.88,3.35,3.35,0,0,1-.85-2.43,3.68,3.68,0,0,1,.79-2.5,2.75,2.75,0,0,1,2.18-.9,2.65,2.65,0,0,1,2,.77,3,3,0,0,1,.75,2.15v.74H368a2.12,2.12,0,0,0,.51,1.45,1.76,1.76,0,0,0,1.35.51,5.17,5.17,0,0,0,1.07-.11,5.11,5.11,0,0,0,1.06-.36v1.12a4.22,4.22,0,0,1-1,.34A5.87,5.87,0,0,1,369.82,434.74Zm-.25-5.67a1.43,1.43,0,0,0-1.06.41,2,2,0,0,0-.47,1.22H371a1.76,1.76,0,0,0-.38-1.22A1.35,1.35,0,0,0,369.57,429.07Z"/><path class="cls-11" d="M335.84,382.8c-.08,0-.15.14-.15.22v13.29a.16.16,0,0,0,.15.15h3c.22,0,.22-.08.22-.15V383a.23.23,0,0,0-.22-.22Z"/><path class="cls-11" d="M331.24,386.85c-.07,0-.15.08-.15.23v9.23a.17.17,0,0,0,.15.15h3.11a.16.16,0,0,0,.14-.15v-9.23c0-.15-.07-.23-.14-.23Z"/><path class="cls-11" d="M326.65,390.47a.16.16,0,0,0-.15.15v5.69a.16.16,0,0,0,.15.15h3c.15,0,.23-.08.23-.15v-5.69c0-.07-.08-.15-.23-.15Z"/><path class="cls-11" d="M332.94,374.39a15.16,15.16,0,1,0,0,30.31,14.83,14.83,0,0,0,9.08-3.06l8.15,8.15a.79.79,0,0,0,.54.26.6.6,0,0,0,.48-.26l1.95-2a.64.64,0,0,0,0-1L345,398.67a14.86,14.86,0,0,0,3.06-9.09A15.16,15.16,0,0,0,332.94,374.39Zm.08,3.31a12,12,0,1,1-12,12A12,12,0,0,1,333,377.7Z"/><path class="cls-7" d="M424.92,429.41a4.22,4.22,0,0,1-1.18,3.24,4.7,4.7,0,0,1-3.39,1.13H418v-8.57h2.65a4.37,4.37,0,0,1,3.18,1.1A4.12,4.12,0,0,1,424.92,429.41Zm-1.48,0c0-2-.95-3.08-2.87-3.08h-1.21v6.22h1Q423.44,432.6,423.44,429.46Z"/><path class="cls-7" d="M430.49,433.78l-.28-.91h0a2.56,2.56,0,0,1-.95.81,3,3,0,0,1-1.21.21,2.1,2.1,0,0,1-1.5-.51,2,2,0,0,1-.53-1.46,1.72,1.72,0,0,1,.74-1.51,4.28,4.28,0,0,1,2.27-.56l1.12,0v-.35a1.35,1.35,0,0,0-.29-.93,1.19,1.19,0,0,0-.9-.31,3.11,3.11,0,0,0-1,.15,6.58,6.58,0,0,0-.87.35l-.45-1a5.24,5.24,0,0,1,1.15-.42,5.74,5.74,0,0,1,1.19-.14,2.79,2.79,0,0,1,1.86.54,2.1,2.1,0,0,1,.63,1.69v4.37Zm-2.05-.94a1.69,1.69,0,0,0,1.2-.42,1.49,1.49,0,0,0,.46-1.17v-.57l-.83,0a2.89,2.89,0,0,0-1.42.32,1,1,0,0,0-.44.89.84.84,0,0,0,.26.67A1.09,1.09,0,0,0,428.44,432.84Z"/><path class="cls-7" d="M435.63,432.78a3.23,3.23,0,0,0,1-.16v1a2.83,2.83,0,0,1-.59.17,4.56,4.56,0,0,1-.75.06c-1.3,0-2-.68-2-2.06v-3.49h-.88v-.61l1-.5.47-1.37h.85v1.44h1.84v1h-1.84v3.47a.94.94,0,0,0,.25.73A.88.88,0,0,0,435.63,432.78Z"/><path class="cls-7" d="M441.81,433.78l-.28-.91h0a2.64,2.64,0,0,1-.95.81,3,3,0,0,1-1.22.21,2.09,2.09,0,0,1-1.49-.51,1.93,1.93,0,0,1-.53-1.46,1.7,1.7,0,0,1,.74-1.51,4.28,4.28,0,0,1,2.27-.56l1.12,0v-.35a1.35,1.35,0,0,0-.29-.93,1.23,1.23,0,0,0-.9-.31,3.06,3.06,0,0,0-1,.15,6.72,6.72,0,0,0-.88.35l-.44-1a5.05,5.05,0,0,1,1.15-.42,5.66,5.66,0,0,1,1.19-.14,2.79,2.79,0,0,1,1.86.54,2.1,2.1,0,0,1,.63,1.69v4.37Zm-2.05-.94a1.69,1.69,0,0,0,1.2-.42,1.52,1.52,0,0,0,.45-1.17v-.57l-.83,0a2.81,2.81,0,0,0-1.41.32,1,1,0,0,0-.44.89.87.87,0,0,0,.25.67A1.1,1.1,0,0,0,439.76,432.84Z"/><path class="cls-7" d="M447.84,427.18a2.24,2.24,0,0,1,1.89.88,3.9,3.9,0,0,1,.68,2.47,4,4,0,0,1-.68,2.48,2.29,2.29,0,0,1-1.91.88,2.26,2.26,0,0,1-1.91-.88h-.09l-.25.77h-1v-9.12h1.38v2.17c0,.16,0,.4,0,.71s0,.52,0,.61h.06A2.18,2.18,0,0,1,447.84,427.18Zm-.35,1.12a1.41,1.41,0,0,0-1.2.49,2.85,2.85,0,0,0-.38,1.64v.1a3,3,0,0,0,.38,1.71,1.39,1.39,0,0,0,1.22.53,1.23,1.23,0,0,0,1.11-.58,3.12,3.12,0,0,0,.38-1.68C449,429,448.49,428.3,447.49,428.3Z"/><path class="cls-7" d="M455.88,433.78l-.27-.91h-.05a2.54,2.54,0,0,1-.94.81,3,3,0,0,1-1.22.21,2.07,2.07,0,0,1-1.49-.51,1.93,1.93,0,0,1-.54-1.46,1.7,1.7,0,0,1,.75-1.51,4.24,4.24,0,0,1,2.26-.56l1.12,0v-.35a1.3,1.3,0,0,0-.29-.93,1.19,1.19,0,0,0-.9-.31,3,3,0,0,0-.95.15,6.2,6.2,0,0,0-.88.35l-.45-1a5.32,5.32,0,0,1,1.16-.42,5.65,5.65,0,0,1,1.18-.14,2.8,2.8,0,0,1,1.87.54,2.1,2.1,0,0,1,.63,1.69v4.37Zm-2.05-.94a1.71,1.71,0,0,0,1.21-.42,1.52,1.52,0,0,0,.45-1.17v-.57l-.83,0a2.89,2.89,0,0,0-1.42.32,1,1,0,0,0-.44.89.87.87,0,0,0,.26.67A1.09,1.09,0,0,0,453.83,432.84Z"/><path class="cls-7" d="M463,431.93a1.71,1.71,0,0,1-.69,1.46,3.29,3.29,0,0,1-2,.5,4.73,4.73,0,0,1-2.08-.39v-1.19a5.13,5.13,0,0,0,2.13.53c.85,0,1.27-.26,1.27-.77a.64.64,0,0,0-.14-.41,1.7,1.7,0,0,0-.46-.34,8.49,8.49,0,0,0-.9-.4,4.06,4.06,0,0,1-1.51-.86,1.59,1.59,0,0,1-.4-1.13,1.48,1.48,0,0,1,.67-1.29,3.18,3.18,0,0,1,1.83-.46,5.14,5.14,0,0,1,2.16.46l-.45,1a4.75,4.75,0,0,0-1.76-.43c-.73,0-1.09.2-1.09.62a.61.61,0,0,0,.28.51,6.16,6.16,0,0,0,1.24.58,5.77,5.77,0,0,1,1.17.57,1.7,1.7,0,0,1,.54.6A1.66,1.66,0,0,1,463,431.93Z"/><path class="cls-7" d="M467.1,433.89a3.13,3.13,0,0,1-2.36-.88,3.35,3.35,0,0,1-.85-2.43,3.65,3.65,0,0,1,.79-2.49,2.7,2.7,0,0,1,2.17-.91,2.67,2.67,0,0,1,2,.78,3,3,0,0,1,.74,2.14v.75H465.3a2.13,2.13,0,0,0,.51,1.45,1.78,1.78,0,0,0,1.36.5,5.19,5.19,0,0,0,1.07-.1,7,7,0,0,0,1.06-.36v1.11a4.08,4.08,0,0,1-1,.34A6,6,0,0,1,467.1,433.89Zm-.25-5.67a1.36,1.36,0,0,0-1.05.42,2,2,0,0,0-.47,1.21h2.94a1.79,1.79,0,0,0-.39-1.21A1.31,1.31,0,0,0,466.85,428.22Z"/><path class="cls-7" d="M475.36,431.93a1.71,1.71,0,0,1-.69,1.46,3.29,3.29,0,0,1-2,.5,4.67,4.67,0,0,1-2.08-.39v-1.19a5.13,5.13,0,0,0,2.13.53c.84,0,1.27-.26,1.27-.77a.64.64,0,0,0-.14-.41,1.78,1.78,0,0,0-.47-.34,7.38,7.38,0,0,0-.89-.4,4.21,4.21,0,0,1-1.52-.86,1.63,1.63,0,0,1-.39-1.13,1.48,1.48,0,0,1,.67-1.29,3.12,3.12,0,0,1,1.82-.46,5.14,5.14,0,0,1,2.16.46l-.44,1a4.79,4.79,0,0,0-1.76-.43c-.73,0-1.09.2-1.09.62a.61.61,0,0,0,.28.51,5.88,5.88,0,0,0,1.24.58,6.37,6.37,0,0,1,1.17.57,1.58,1.58,0,0,1,.53.6A1.66,1.66,0,0,1,475.36,431.93Z"/><path class="cls-11" d="M432.19,387.2v5.23c0,2.51,5.8,5.38,14.12,5.38s14.19-2.87,14.19-5.38V387.2c-2.65,2.36-7.88,3.87-14.19,3.87S434.77,389.56,432.19,387.2Z"/><path class="cls-11" d="M432.19,396.16V401c0,2.51,5.8,5.38,14.12,5.38s14.19-2.87,14.19-5.38v-4.8c-2.65,2.36-7.88,3.87-14.19,3.87S434.77,398.52,432.19,396.16Z"/><path class="cls-11" d="M446.31,378.1c-8.32,0-14.12,2.86-14.12,5.37s5.8,5.38,14.12,5.38,14.19-2.87,14.19-5.38S454.69,378.1,446.31,378.1Z"/><path class="cls-9" d="M584.07,310.93a34.21,34.21,0,0,0-1.43-5.49,7.83,7.83,0,0,1-.93,1.66,8.75,8.75,0,0,0-13.8,1.61,5.81,5.81,0,0,1,3.58,1.5,6.09,6.09,0,0,0-3.38-1,6.2,6.2,0,1,0,0,12.39H582.4a5.47,5.47,0,0,0,1.67-10.68Zm-13.36,8.77a.75.75,0,1,1-1.16-.94.75.75,0,1,1,1.16.94Zm11.9-2.63c-2.17,2.88-6.78,1.91-9.75,2.05,0,0-.52,0-1.05.12a4.4,4.4,0,0,1,.46-.17,33.38,33.38,0,0,0,4.32-1.52,10.13,10.13,0,0,0,5.22-6.61c-.9,2.64-3.65,4.92-6.15,5.85a42.08,42.08,0,0,1-4.82,1.24l-.12-.06c-2.11-1-2.17-5.59,1.66-7.06,1.68-.65,3.28-.29,5.09-.72a7.94,7.94,0,0,0,5.09-3.81C583.58,309.41,584.8,314.14,582.61,317.07Z"/></svg>