<svg id="Layer_1" data-name="Layer 1" xmlns="http://www.w3.org/2000/svg" viewBox="0 0 563.58 333.06"><defs><style>.cls-1{fill:#fff;}.cls-2,.cls-6{fill:none;stroke-miterlimit:10;stroke-width:2px;}.cls-2{stroke:#d7e7e7;}.cls-3{fill:#56e27a;}.cls-4{fill:#6db33f;}.cls-5{fill:#afc6c5;}.cls-6{stroke:#000;stroke-dasharray:4 8;}</style></defs><title>Artboard 1@2x</title><path class="cls-1" d="M484.9,143.74c-2.4,0-4.78.13-7.13.34A67.39,67.39,0,0,0,387.25,62.7,94.93,94.93,0,0,0,239.89,40.43,107.65,107.65,0,0,0,60.77,145.82,78.67,78.67,0,0,0,78.38,301.09H477.6v-.35c2.4.22,4.84.35,7.3.35a78.68,78.68,0,1,0,0-157.36Z"/><rect class="cls-2" x="277.28" y="55.3" width="244.83" height="244.83"/><rect class="cls-2" x="277.28" y="82.5" width="217.62" height="217.62"/><rect class="cls-2" x="277.28" y="109.71" width="190.42" height="190.42"/><rect class="cls-2" x="277.28" y="137.32" width="162.8" height="162.8"/><rect class="cls-2" x="277.28" y="164.22" width="135.9" height="135.9"/><rect class="cls-2" x="277.28" y="191.31" width="108.81" height="108.81"/><rect class="cls-3" x="277.72" y="219.86" width="80.78" height="81.4"/><rect class="cls-4" x="195.7" y="219.86" width="82.02" height="81.4"/><path class="cls-1" d="M207.21,263.32H205v-10.5h6v1.83h-3.83v2.7h3.56v1.82h-3.56Z"/><path class="cls-1" d="M218.61,263.32l-.3-1h-.11a2.3,2.3,0,0,1-1,.87,3.45,3.45,0,0,1-1.47.3,2.8,2.8,0,0,1-2.13-.75,3,3,0,0,1-.72-2.18v-5.24h2.19V260a2.19,2.19,0,0,0,.31,1.3,1.09,1.09,0,0,0,1,.44,1.48,1.48,0,0,0,1.33-.61,3.85,3.85,0,0,0,.41-2v-3.78h2.19v8Z"/><path class="cls-1" d="M230,263.32h-2.19v-4.69a2.29,2.29,0,0,0-.31-1.3,1.14,1.14,0,0,0-1-.44,1.47,1.47,0,0,0-1.32.62,3.74,3.74,0,0,0-.41,2v3.78h-2.19v-8h1.67l.29,1h.13a2.31,2.31,0,0,1,1-.88,3.45,3.45,0,0,1,1.47-.3,2.78,2.78,0,0,1,2.12.76,3.06,3.06,0,0,1,.73,2.19Z"/><path class="cls-1" d="M235.51,263.46q-3.75,0-3.75-4.11a4.4,4.4,0,0,1,1-3.13,3.83,3.83,0,0,1,2.92-1.08,5.47,5.47,0,0,1,2.5.55l-.64,1.69c-.35-.14-.67-.25-1-.34a3.11,3.11,0,0,0-.9-.13c-1.13,0-1.7.81-1.7,2.43s.57,2.35,1.7,2.35a4,4,0,0,0,1.18-.17A4.26,4.26,0,0,0,238,261v1.88a3.72,3.72,0,0,1-1.07.47A6.5,6.5,0,0,1,235.51,263.46Z"/><path class="cls-1" d="M243.19,261.72a4.6,4.6,0,0,0,1.38-.25v1.63a5,5,0,0,1-2,.36,2.47,2.47,0,0,1-1.91-.66,2.89,2.89,0,0,1-.6-2v-3.87H239V256l1.21-.73.63-1.7h1.4v1.71h2.25v1.65h-2.25v3.87a.88.88,0,0,0,.26.69A1,1,0,0,0,243.19,261.72Z"/><path class="cls-1" d="M246.1,253.22c0-.72.4-1.07,1.2-1.07s1.19.35,1.19,1.07a1,1,0,0,1-.3.79,1.25,1.25,0,0,1-.89.28C246.5,254.29,246.1,253.94,246.1,253.22Zm2.29,10.1H246.2v-8h2.19Z"/><path class="cls-1" d="M258,259.29a4.32,4.32,0,0,1-1,3.07,3.74,3.74,0,0,1-2.88,1.1,4,4,0,0,1-2-.5,3.38,3.38,0,0,1-1.36-1.46,4.8,4.8,0,0,1-.47-2.21,4.32,4.32,0,0,1,1-3.06,3.81,3.81,0,0,1,2.89-1.09,4,4,0,0,1,2,.51,3.33,3.33,0,0,1,1.36,1.44A4.92,4.92,0,0,1,258,259.29Zm-5.55,0a3.4,3.4,0,0,0,.39,1.81,1.42,1.42,0,0,0,1.28.61,1.4,1.4,0,0,0,1.26-.61,3.51,3.51,0,0,0,.38-1.81,3.33,3.33,0,0,0-.39-1.79,1.65,1.65,0,0,0-2.53,0A3.3,3.3,0,0,0,252.43,259.29Z"/><path class="cls-1" d="M267.2,263.32H265v-4.69a2.21,2.21,0,0,0-.31-1.3,1.11,1.11,0,0,0-1-.44,1.48,1.48,0,0,0-1.33.62,3.83,3.83,0,0,0-.41,2v3.78h-2.19v-8h1.67l.3,1h.12a2.28,2.28,0,0,1,1-.88,3.4,3.4,0,0,1,1.46-.3,2.82,2.82,0,0,1,2.13.76,3.06,3.06,0,0,1,.72,2.19Z"/><path class="cls-1" d="M311.64,263.32l-.76-2.5h-3.83l-.76,2.5h-2.4l3.7-10.54h2.73L314,263.32Zm-1.3-4.37-1.19-3.84c-.08-.29-.15-.53-.18-.7-.16.61-.61,2.13-1.36,4.54Z"/><path class="cls-1" d="M319.59,263.46a2.68,2.68,0,0,1-2.22-1h-.11c.08.67.11,1.06.11,1.16v3.25h-2.19V255.29H317l.31,1h.1a2.56,2.56,0,0,1,2.28-1.19,2.62,2.62,0,0,1,2.23,1.1,5.12,5.12,0,0,1,.8,3.05,6.11,6.11,0,0,1-.38,2.24,3.15,3.15,0,0,1-1.07,1.44A2.74,2.74,0,0,1,319.59,263.46Zm-.64-6.57a1.4,1.4,0,0,0-1.19.5,2.9,2.9,0,0,0-.39,1.65v.24a3.33,3.33,0,0,0,.39,1.85,1.37,1.37,0,0,0,1.22.56q1.47,0,1.47-2.43a3.33,3.33,0,0,0-.37-1.77A1.23,1.23,0,0,0,319,256.89Z"/><path class="cls-1" d="M328.9,263.46a2.68,2.68,0,0,1-2.22-1h-.11c.07.67.11,1.06.11,1.16v3.25h-2.19V255.29h1.78l.31,1h.1a2.54,2.54,0,0,1,2.28-1.19,2.6,2.6,0,0,1,2.22,1.1,5,5,0,0,1,.81,3.05,6.11,6.11,0,0,1-.38,2.24,3.15,3.15,0,0,1-1.07,1.44A2.76,2.76,0,0,1,328.9,263.46Zm-.65-6.57a1.38,1.38,0,0,0-1.18.5,2.9,2.9,0,0,0-.39,1.65v.24a3.33,3.33,0,0,0,.39,1.85,1.36,1.36,0,0,0,1.21.56q1.47,0,1.47-2.43a3.44,3.44,0,0,0-.36-1.77A1.23,1.23,0,0,0,328.25,256.89Z"/><path d="M435.42,188.34V174.07h3v11.77h5.79v2.5Z"/><path d="M451.43,188.54a5.66,5.66,0,0,1-4.13-1.46,5.54,5.54,0,0,1-1.48-4.12,6.07,6.07,0,0,1,1.37-4.24,4.9,4.9,0,0,1,3.8-1.5,4.8,4.8,0,0,1,3.6,1.32,5,5,0,0,1,1.29,3.64v1.45h-7a2.86,2.86,0,0,0,.75,2,2.63,2.63,0,0,0,2,.71,8.65,8.65,0,0,0,1.87-.2,9.46,9.46,0,0,0,1.83-.66v2.31a7,7,0,0,1-1.67.58A10.25,10.25,0,0,1,451.43,188.54Zm-.42-9.2a1.89,1.89,0,0,0-1.49.6,2.76,2.76,0,0,0-.61,1.71h4.18a2.53,2.53,0,0,0-.58-1.71A1.94,1.94,0,0,0,451,179.34Z"/><path d="M467.8,177.43v1.51l-1.71.44a2.91,2.91,0,0,1,.47,1.64,3.33,3.33,0,0,1-1.22,2.74,5.34,5.34,0,0,1-3.41,1l-.53,0-.44-.05a1,1,0,0,0-.46.78c0,.43.54.65,1.64.65H464a4.24,4.24,0,0,1,2.74.77,2.76,2.76,0,0,1,.95,2.27,3.36,3.36,0,0,1-1.6,3,8.27,8.27,0,0,1-4.59,1.06,6.37,6.37,0,0,1-3.49-.8,2.52,2.52,0,0,1-1.2-2.23,2.32,2.32,0,0,1,.61-1.65,3.51,3.51,0,0,1,1.81-.95,2,2,0,0,1-.8-.64,1.49,1.49,0,0,1-.34-.94,1.55,1.55,0,0,1,.36-1,4.22,4.22,0,0,1,1-.81,3,3,0,0,1-1.36-1.19,3.71,3.71,0,0,1-.5-1.94,3.39,3.39,0,0,1,1.16-2.76,5,5,0,0,1,3.32-1,9.47,9.47,0,0,1,1.09.08c.42.06.69.1.8.13Zm-8.42,12.46a1.05,1.05,0,0,0,.59,1,3.16,3.16,0,0,0,1.65.36,5.88,5.88,0,0,0,2.51-.44,1.35,1.35,0,0,0,.91-1.21.83.83,0,0,0-.54-.84,4.31,4.31,0,0,0-1.66-.24H461.3a2.29,2.29,0,0,0-1.37.39A1.17,1.17,0,0,0,459.38,189.89Zm1.08-8.89a2.25,2.25,0,0,0,.4,1.41,1.5,1.5,0,0,0,1.24.51,1.45,1.45,0,0,0,1.23-.51,2.31,2.31,0,0,0,.39-1.41c0-1.31-.54-2-1.62-2S460.46,179.69,460.46,181Z"/><path d="M476.53,188.34l-.57-1.48h-.08a4.36,4.36,0,0,1-1.55,1.31,4.89,4.89,0,0,1-2.07.37,3.36,3.36,0,0,1-2.48-.9,3.46,3.46,0,0,1-.9-2.56,2.87,2.87,0,0,1,1.21-2.56,7,7,0,0,1,3.67-.91l1.89-.06v-.48a1.48,1.48,0,0,0-1.69-1.66,7.69,7.69,0,0,0-3.08.79l-1-2a8.86,8.86,0,0,1,4.18-1,5.19,5.19,0,0,1,3.37,1,3.54,3.54,0,0,1,1.17,2.91v7.27Zm-.88-5.05-1.15,0a3.78,3.78,0,0,0-1.93.47,1.5,1.5,0,0,0-.64,1.31c0,.84.49,1.26,1.45,1.26a2.3,2.3,0,0,0,1.65-.59,2.09,2.09,0,0,0,.62-1.59Z"/><path d="M486.11,188.54c-3.4,0-5.09-1.87-5.09-5.6a6,6,0,0,1,1.38-4.25,5.22,5.22,0,0,1,4-1.47,7.68,7.68,0,0,1,3.4.74l-.88,2.31c-.47-.19-.91-.35-1.31-.47a4.28,4.28,0,0,0-1.21-.18c-1.55,0-2.33,1.1-2.33,3.3s.78,3.21,2.33,3.21a5.41,5.41,0,0,0,1.59-.23,5.35,5.35,0,0,0,1.46-.72v2.55a4.52,4.52,0,0,1-1.46.63A8,8,0,0,1,486.11,188.54Z"/><path d="M490.4,177.43h3.26l2.06,6.14a7.94,7.94,0,0,1,.36,1.89h.06a8.14,8.14,0,0,1,.42-1.89l2-6.14h3.2l-4.62,12.31a5.36,5.36,0,0,1-1.81,2.56,4.56,4.56,0,0,1-2.75.85,7,7,0,0,1-1.52-.17v-2.36a5.4,5.4,0,0,0,1.18.13,2.1,2.1,0,0,0,1.38-.49,3.14,3.14,0,0,0,.92-1.46l.18-.53Z"/><path d="M398.23,212.34V198.07h3v14.27Z"/><path d="M414.7,212.34h-3V206a3.1,3.1,0,0,0-.42-1.78,1.54,1.54,0,0,0-1.34-.59,2,2,0,0,0-1.81.84,5.21,5.21,0,0,0-.55,2.77v5.13h-3V201.43h2.27l.4,1.39h.17a3.18,3.18,0,0,1,1.37-1.19,4.72,4.72,0,0,1,2-.41,3.81,3.81,0,0,1,2.89,1,4.14,4.14,0,0,1,1,3Z"/><path d="M423.8,203.66h-2.58v8.68h-3v-8.68H416.6v-1.43l1.64-.8v-.8a3.58,3.58,0,0,1,.92-2.73,4.22,4.22,0,0,1,2.94-.86,7.53,7.53,0,0,1,2.74.46l-.76,2.19a5.53,5.53,0,0,0-1.66-.29,1.09,1.09,0,0,0-.92.38,1.61,1.61,0,0,0-.28,1v.69h2.58Z"/><path d="M431.6,201.22a4.78,4.78,0,0,1,1,.09l-.23,2.79a3.62,3.62,0,0,0-.88-.1,3.15,3.15,0,0,0-2.22.74,2.65,2.65,0,0,0-.79,2v5.55h-3V201.43h2.25l.44,1.83h.15a4.23,4.23,0,0,1,1.37-1.48A3.42,3.42,0,0,1,431.6,201.22Z"/><path d="M441.52,212.34l-.57-1.48h-.08a4.36,4.36,0,0,1-1.55,1.31,4.89,4.89,0,0,1-2.07.37,3.36,3.36,0,0,1-2.48-.9,3.46,3.46,0,0,1-.9-2.56,2.87,2.87,0,0,1,1.21-2.56,7,7,0,0,1,3.67-.91l1.89-.06v-.48a1.48,1.48,0,0,0-1.69-1.66,7.69,7.69,0,0,0-3.08.79l-1-2a8.86,8.86,0,0,1,4.18-1,5.19,5.19,0,0,1,3.37,1,3.54,3.54,0,0,1,1.17,2.91v7.27Zm-.88-5.05-1.15,0a3.78,3.78,0,0,0-1.93.47,1.5,1.5,0,0,0-.64,1.31c0,.84.49,1.26,1.45,1.26a2.3,2.3,0,0,0,1.65-.59,2.09,2.09,0,0,0,.62-1.59Z"/><path d="M454.29,209.1a3,3,0,0,1-1.17,2.56,5.74,5.74,0,0,1-3.49.88,10.77,10.77,0,0,1-2-.16,7.57,7.57,0,0,1-1.57-.48v-2.46a10.46,10.46,0,0,0,1.87.66,7.8,7.8,0,0,0,1.83.26c1.08,0,1.62-.31,1.62-.94a.77.77,0,0,0-.22-.57,3.11,3.11,0,0,0-.74-.49,14.41,14.41,0,0,0-1.41-.65,9.37,9.37,0,0,1-1.85-1,2.78,2.78,0,0,1-.86-1,3.58,3.58,0,0,1-.26-1.43,2.59,2.59,0,0,1,1.12-2.25,5.52,5.52,0,0,1,3.2-.8,9.1,9.1,0,0,1,3.84.86l-.9,2.15a16,16,0,0,0-1.53-.58,4.83,4.83,0,0,0-1.46-.22c-.88,0-1.32.24-1.32.71a.84.84,0,0,0,.43.69,10.55,10.55,0,0,0,1.86.87,9,9,0,0,1,1.88,1,2.76,2.76,0,0,1,.87,1A3.13,3.13,0,0,1,454.29,209.1Z"/><path d="M461.21,210.17a6.47,6.47,0,0,0,1.88-.35V212a6.77,6.77,0,0,1-2.74.5,3.34,3.34,0,0,1-2.6-.9,4,4,0,0,1-.82-2.71v-5.27h-1.42V202.4l1.64-1,.86-2.31h1.9v2.33H463v2.23h-3.06v5.27a1.14,1.14,0,0,0,.36.93A1.37,1.37,0,0,0,461.21,210.17Z"/><path d="M471.39,201.22a4.61,4.61,0,0,1,1,.09l-.22,2.79a3.68,3.68,0,0,0-.88-.1,3.15,3.15,0,0,0-2.22.74,2.65,2.65,0,0,0-.8,2v5.55h-3V201.43h2.26l.44,1.83h.14a4.17,4.17,0,0,1,1.38-1.48A3.4,3.4,0,0,1,471.39,201.22Z"/><path d="M482.11,212.34l-.4-1.39h-.16a3.09,3.09,0,0,1-1.35,1.17,4.63,4.63,0,0,1-2,.42,3.8,3.8,0,0,1-2.9-1,4.16,4.16,0,0,1-1-3v-7.12h3v6.37a3.1,3.1,0,0,0,.42,1.78,1.56,1.56,0,0,0,1.34.59,2,2,0,0,0,1.81-.84,5.2,5.2,0,0,0,.56-2.77v-5.13h3v10.91Z"/><path d="M492,212.54c-3.4,0-5.09-1.87-5.09-5.6a6,6,0,0,1,1.38-4.25,5.22,5.22,0,0,1,4-1.47,7.68,7.68,0,0,1,3.4.74l-.88,2.31c-.47-.19-.91-.35-1.31-.47a4.28,4.28,0,0,0-1.21-.18c-1.55,0-2.33,1.1-2.33,3.3s.78,3.21,2.33,3.21a5.41,5.41,0,0,0,1.59-.23,5.35,5.35,0,0,0,1.46-.72v2.55a4.52,4.52,0,0,1-1.46.63A8,8,0,0,1,492,212.54Z"/><path d="M502.4,210.17a6.47,6.47,0,0,0,1.88-.35V212a6.74,6.74,0,0,1-2.74.5,3.34,3.34,0,0,1-2.6-.9,4,4,0,0,1-.81-2.71v-5.27H496.7V202.4l1.64-1,.86-2.31h1.9v2.33h3.06v2.23H501.1v5.27a1.14,1.14,0,0,0,.36.93A1.37,1.37,0,0,0,502.4,210.17Z"/><path d="M514.22,212.34l-.4-1.39h-.16a3.06,3.06,0,0,1-1.36,1.17,4.56,4.56,0,0,1-2,.42,3.8,3.8,0,0,1-2.9-1,4.16,4.16,0,0,1-1-3v-7.12h3v6.37a3.1,3.1,0,0,0,.42,1.78,1.54,1.54,0,0,0,1.34.59,2,2,0,0,0,1.81-.84,5.2,5.2,0,0,0,.56-2.77v-5.13h3v10.91Z"/><path d="M525.72,201.22a4.71,4.71,0,0,1,1,.09l-.23,2.79a3.59,3.59,0,0,0-.87-.1,3.16,3.16,0,0,0-2.23.74,2.65,2.65,0,0,0-.79,2v5.55h-3V201.43h2.25l.44,1.83h.15a4.23,4.23,0,0,1,1.37-1.48A3.44,3.44,0,0,1,525.72,201.22Z"/><path d="M533.65,212.54a5.63,5.63,0,0,1-4.12-1.46,5.5,5.5,0,0,1-1.48-4.12,6,6,0,0,1,1.37-4.24,4.88,4.88,0,0,1,3.79-1.5,4.81,4.81,0,0,1,3.61,1.32,5,5,0,0,1,1.29,3.64v1.45h-7.05a2.92,2.92,0,0,0,.76,2,2.62,2.62,0,0,0,2,.71,8.48,8.48,0,0,0,1.86-.2,9.54,9.54,0,0,0,1.84-.66v2.31a7.17,7.17,0,0,1-1.67.58A10.35,10.35,0,0,1,533.65,212.54Zm-.42-9.2a1.89,1.89,0,0,0-1.48.6,2.76,2.76,0,0,0-.62,1.71h4.18a2.48,2.48,0,0,0-.57-1.71A2,2,0,0,0,533.23,203.34Z"/><path d="M126.05,188.34h-3V174.07h8.19v2.48h-5.21v3.68h4.85v2.47h-4.85Z"/><path d="M140.75,188.34l-.58-1.48h-.07a4.44,4.44,0,0,1-1.55,1.31,4.94,4.94,0,0,1-2.08.37,3.33,3.33,0,0,1-2.47-.9,3.42,3.42,0,0,1-.91-2.56,2.88,2.88,0,0,1,1.22-2.56,7,7,0,0,1,3.67-.91l1.89-.06v-.48a1.49,1.49,0,0,0-1.7-1.66,7.65,7.65,0,0,0-3.07.79l-1-2a8.86,8.86,0,0,1,4.18-1,5.2,5.2,0,0,1,3.37,1,3.54,3.54,0,0,1,1.17,2.91v7.27Zm-.88-5.05-1.15,0a3.83,3.83,0,0,0-1.94.47,1.49,1.49,0,0,0-.63,1.31c0,.84.48,1.26,1.45,1.26a2.3,2.3,0,0,0,1.65-.59,2.12,2.12,0,0,0,.62-1.59Z"/><path d="M152.83,188.34l-.58-1.48h-.07a4.44,4.44,0,0,1-1.55,1.31,4.94,4.94,0,0,1-2.08.37,3.33,3.33,0,0,1-2.47-.9,3.42,3.42,0,0,1-.91-2.56,2.88,2.88,0,0,1,1.22-2.56,7,7,0,0,1,3.67-.91l1.89-.06v-.48a1.49,1.49,0,0,0-1.7-1.66,7.65,7.65,0,0,0-3.07.79l-1-2a8.86,8.86,0,0,1,4.18-1,5.2,5.2,0,0,1,3.37,1,3.54,3.54,0,0,1,1.17,2.91v7.27Zm-.88-5.05-1.15,0a3.83,3.83,0,0,0-1.94.47,1.49,1.49,0,0,0-.63,1.31c0,.84.48,1.26,1.45,1.26a2.3,2.3,0,0,0,1.65-.59,2.12,2.12,0,0,0,.62-1.59Z"/><path d="M166.64,184.38a3.73,3.73,0,0,1-1.39,3.05,6.07,6.07,0,0,1-3.88,1.11,9.13,9.13,0,0,1-4-.86v-2.81a17.36,17.36,0,0,0,2.45.91,7.46,7.46,0,0,0,1.83.26,2.66,2.66,0,0,0,1.53-.38,1.42,1.42,0,0,0,.3-1.88,2.67,2.67,0,0,0-.69-.63,20.64,20.64,0,0,0-1.85-1,8.67,8.67,0,0,1-2-1.18,4.57,4.57,0,0,1-1-1.32,3.77,3.77,0,0,1-.39-1.76,3.69,3.69,0,0,1,1.28-3,5.31,5.31,0,0,1,3.55-1.09,8.29,8.29,0,0,1,2.13.27,14.08,14.08,0,0,1,2.11.74l-1,2.35a13.83,13.83,0,0,0-1.89-.65,5.7,5.7,0,0,0-1.47-.19,1.9,1.9,0,0,0-1.31.4,1.32,1.32,0,0,0-.46,1.05,1.29,1.29,0,0,0,.18.69,2,2,0,0,0,.59.58,17.09,17.09,0,0,0,1.92,1A7.71,7.71,0,0,1,165.9,182,3.78,3.78,0,0,1,166.64,184.38Z"/><path class="cls-5" d="M295.94,71.33a2.63,2.63,0,0,1-1,2.2,4.39,4.39,0,0,1-2.79.8,6.59,6.59,0,0,1-2.91-.56V72.15a7.37,7.37,0,0,0,1.52.53,6.47,6.47,0,0,0,1.51.2,2.36,2.36,0,0,0,1.5-.39,1.28,1.28,0,0,0,.48-1,1.29,1.29,0,0,0-.44-1,6.73,6.73,0,0,0-1.84-1,4.81,4.81,0,0,1-2-1.33,2.76,2.76,0,0,1-.59-1.79,2.51,2.51,0,0,1,.93-2.07,3.89,3.89,0,0,1,2.51-.75,7.4,7.4,0,0,1,3,.66l-.55,1.4a6.39,6.39,0,0,0-2.5-.59,1.93,1.93,0,0,0-1.26.36,1.18,1.18,0,0,0-.43,1,1.42,1.42,0,0,0,.17.7,1.88,1.88,0,0,0,.57.55,9.66,9.66,0,0,0,1.42.68,7.74,7.74,0,0,1,1.7.9,2.78,2.78,0,0,1,.79.94A2.93,2.93,0,0,1,295.94,71.33Z"/><path class="cls-5" d="M301.26,74.33a3.85,3.85,0,0,1-2.9-1.08,4.1,4.1,0,0,1-1-3,4.48,4.48,0,0,1,1-3.06A3.34,3.34,0,0,1,301,66.1a3.27,3.27,0,0,1,2.48,1,3.66,3.66,0,0,1,.92,2.63v.91h-5.3a2.65,2.65,0,0,0,.63,1.78,2.14,2.14,0,0,0,1.66.62,6.06,6.06,0,0,0,1.31-.13,7.39,7.39,0,0,0,1.3-.44v1.37a5.41,5.41,0,0,1-1.25.42A7.75,7.75,0,0,1,301.26,74.33Zm-.31-7a1.69,1.69,0,0,0-1.29.51,2.48,2.48,0,0,0-.58,1.48h3.61a2.2,2.2,0,0,0-.48-1.49A1.62,1.62,0,0,0,301,67.38Z"/><path class="cls-5" d="M310.29,66.1a3.93,3.93,0,0,1,.84.07L311,67.74a3.67,3.67,0,0,0-.75-.08,2.17,2.17,0,0,0-1.64.66A2.37,2.37,0,0,0,308,70v4.15h-1.69V66.24h1.32l.23,1.4h.08a3.18,3.18,0,0,1,1-1.12A2.45,2.45,0,0,1,310.29,66.1Z"/><path class="cls-5" d="M314.41,74.18l-3-7.94h1.78l1.61,4.62a9.14,9.14,0,0,1,.51,1.88h.06a12.54,12.54,0,0,1,.5-1.88l1.61-4.62h1.8l-3,7.94Z"/><path class="cls-5" d="M323.94,74.33a3.82,3.82,0,0,1-2.89-1.08,4.1,4.1,0,0,1-1.05-3,4.48,4.48,0,0,1,1-3.06,3.35,3.35,0,0,1,2.66-1.11,3.31,3.31,0,0,1,2.49,1,3.66,3.66,0,0,1,.91,2.63v.91h-5.29a2.6,2.6,0,0,0,.62,1.78A2.17,2.17,0,0,0,324,73a6,6,0,0,0,1.31-.13,7.47,7.47,0,0,0,1.31-.44v1.37a5.58,5.58,0,0,1-1.25.42A7.94,7.94,0,0,1,323.94,74.33Zm-.31-7a1.68,1.68,0,0,0-1.28.51,2.36,2.36,0,0,0-.58,1.48h3.6a2.25,2.25,0,0,0-.47-1.49A1.66,1.66,0,0,0,323.63,67.38Z"/><path class="cls-5" d="M333,66.1a3.93,3.93,0,0,1,.84.07l-.17,1.57a3.67,3.67,0,0,0-.75-.08,2.17,2.17,0,0,0-1.64.66,2.41,2.41,0,0,0-.62,1.71v4.15H329V66.24h1.32l.22,1.4h.09a3.09,3.09,0,0,1,1-1.12A2.43,2.43,0,0,1,333,66.1Z"/><path class="cls-5" d="M295.94,99.05a2.64,2.64,0,0,1-1,2.2,4.39,4.39,0,0,1-2.79.8,6.59,6.59,0,0,1-2.91-.56V99.87a7.37,7.37,0,0,0,1.52.53,6.47,6.47,0,0,0,1.51.2,2.36,2.36,0,0,0,1.5-.39,1.36,1.36,0,0,0,0-2,6.73,6.73,0,0,0-1.84-1,4.81,4.81,0,0,1-2-1.33,2.78,2.78,0,0,1-.59-1.79,2.51,2.51,0,0,1,.93-2.07,3.84,3.84,0,0,1,2.51-.76,7.4,7.4,0,0,1,3,.66l-.55,1.4a6.54,6.54,0,0,0-2.5-.58,1.93,1.93,0,0,0-1.26.36,1.18,1.18,0,0,0-.43,1,1.42,1.42,0,0,0,.17.7,2,2,0,0,0,.57.55,9.66,9.66,0,0,0,1.42.68,7.74,7.74,0,0,1,1.7.9,2.69,2.69,0,0,1,.79.94A2.93,2.93,0,0,1,295.94,99.05Z"/><path class="cls-5" d="M301.26,102.05a3.85,3.85,0,0,1-2.9-1.08,4.12,4.12,0,0,1-1-3,4.48,4.48,0,0,1,1-3.06A3.34,3.34,0,0,1,301,93.82a3.27,3.27,0,0,1,2.48,1,3.65,3.65,0,0,1,.92,2.63v.91h-5.3a2.65,2.65,0,0,0,.63,1.78,2.18,2.18,0,0,0,1.66.62,6.06,6.06,0,0,0,1.31-.13,7.39,7.39,0,0,0,1.3-.44v1.37a5.38,5.38,0,0,1-1.25.41A6.93,6.93,0,0,1,301.26,102.05Zm-.31-7a1.69,1.69,0,0,0-1.29.51,2.45,2.45,0,0,0-.58,1.48h3.61a2.2,2.2,0,0,0-.48-1.49A1.59,1.59,0,0,0,301,95.1Z"/><path class="cls-5" d="M309.47,102.05a3.44,3.44,0,0,1-2.74-1.06,4.35,4.35,0,0,1-.94-3,4.45,4.45,0,0,1,1-3.08,3.66,3.66,0,0,1,2.83-1.07,5.31,5.31,0,0,1,2.26.46l-.5,1.36a5.15,5.15,0,0,0-1.77-.42c-1.38,0-2.06.92-2.06,2.74a3.31,3.31,0,0,0,.51,2,1.77,1.77,0,0,0,1.51.67,4.35,4.35,0,0,0,2.13-.56v1.47a3.38,3.38,0,0,1-1,.38A5.54,5.54,0,0,1,309.47,102.05Z"/><path class="cls-5" d="M319.15,101.9l-.24-1h-.09a2.37,2.37,0,0,1-1,.87,3.35,3.35,0,0,1-1.48.32,2.93,2.93,0,0,1-2.16-.72,3,3,0,0,1-.71-2.18V94h1.7v4.9a2.13,2.13,0,0,0,.38,1.37,1.44,1.44,0,0,0,1.17.45,1.86,1.86,0,0,0,1.56-.63,3.55,3.55,0,0,0,.5-2.13V94h1.69v7.94Z"/><path class="cls-5" d="M326.91,93.82a3.93,3.93,0,0,1,.84.07l-.17,1.57a3,3,0,0,0-.74-.08,2.14,2.14,0,0,0-1.64.66,2.37,2.37,0,0,0-.63,1.71v4.15h-1.69V94h1.32l.22,1.4h.09a3.21,3.21,0,0,1,1-1.13A2.5,2.5,0,0,1,326.91,93.82Z"/><path class="cls-5" d="M329.12,91.86a.91.91,0,0,1,.25-.7,1,1,0,0,1,.7-.24,1,1,0,0,1,.7.24,1,1,0,0,1,.25.7,1,1,0,0,1-.25.68,1,1,0,0,1-.7.24,1,1,0,0,1-.7-.24A.92.92,0,0,1,329.12,91.86Zm1.79,10h-1.69V94h1.69Z"/><path class="cls-5" d="M336.28,100.68a4.15,4.15,0,0,0,1.24-.19v1.27a3.27,3.27,0,0,1-.73.2,4.53,4.53,0,0,1-.91.09c-1.6,0-2.4-.85-2.4-2.53V95.24H332.4v-.75l1.16-.62.57-1.68h1V94h2.27v1.28h-2.27v4.25a1.19,1.19,0,0,0,.31.9A1.12,1.12,0,0,0,336.28,100.68Z"/><path class="cls-5" d="M337.9,94h1.83l1.62,4.5a8.78,8.78,0,0,1,.49,1.81h.06a8,8,0,0,1,.23-1c.12-.37.72-2.16,1.83-5.35h1.82l-3.4,9c-.61,1.65-1.64,2.48-3.08,2.48a5,5,0,0,1-1.1-.13V104a3.9,3.9,0,0,0,.87.08,1.78,1.78,0,0,0,1.72-1.41l.29-.75Z"/><path class="cls-5" d="M293.51,128.23H291.8v-9h-3.09v-1.47h7.89v1.47h-3.09Z"/><path class="cls-5" d="M302.06,120.14a4.71,4.71,0,0,1,.84.07l-.17,1.58a3.08,3.08,0,0,0-.75-.09,2.17,2.17,0,0,0-1.64.66,2.42,2.42,0,0,0-.62,1.72v4.15H298v-7.94h1.32l.22,1.4h.09a3.13,3.13,0,0,1,1-1.13A2.43,2.43,0,0,1,302.06,120.14Z"/><path class="cls-5" d="M309.34,128.23l-.34-1.11h-.06a3.18,3.18,0,0,1-1.15,1,3.77,3.77,0,0,1-1.5.26,2.5,2.5,0,0,1-1.82-.63,2.36,2.36,0,0,1-.66-1.79,2.09,2.09,0,0,1,.91-1.85,5.27,5.27,0,0,1,2.78-.68l1.37,0V123a1.64,1.64,0,0,0-.35-1.14,1.47,1.47,0,0,0-1.11-.37,4.19,4.19,0,0,0-1.17.17,9.19,9.19,0,0,0-1.07.43l-.55-1.21a6.2,6.2,0,0,1,1.41-.51,6.47,6.47,0,0,1,1.46-.18,3.41,3.41,0,0,1,2.28.66,2.58,2.58,0,0,1,.77,2.08v5.35Zm-2.52-1.15a2.1,2.1,0,0,0,1.48-.51,1.89,1.89,0,0,0,.56-1.44v-.69l-1,0a3.47,3.47,0,0,0-1.74.4,1.22,1.22,0,0,0-.54,1.09,1.08,1.08,0,0,0,.32.82A1.36,1.36,0,0,0,306.82,127.08Z"/><path class="cls-5" d="M319.89,128.23h-1.7v-4.88a2.14,2.14,0,0,0-.37-1.38,1.44,1.44,0,0,0-1.17-.45,1.87,1.87,0,0,0-1.57.63,3.5,3.5,0,0,0-.49,2.12v4H312.9v-7.94h1.32l.24,1h.08a2.38,2.38,0,0,1,1-.88,3.52,3.52,0,0,1,1.47-.31c1.9,0,2.86,1,2.86,2.91Z"/><path class="cls-5" d="M327.57,126a2.06,2.06,0,0,1-.85,1.78,4.06,4.06,0,0,1-2.42.62,5.74,5.74,0,0,1-2.55-.48v-1.46a6.26,6.26,0,0,0,2.6.65c1,0,1.56-.31,1.56-.94a.76.76,0,0,0-.17-.5,2,2,0,0,0-.57-.42,9.73,9.73,0,0,0-1.1-.49,5.06,5.06,0,0,1-1.85-1.06,2,2,0,0,1-.49-1.38,1.81,1.81,0,0,1,.82-1.58,3.89,3.89,0,0,1,2.24-.57,6.31,6.31,0,0,1,2.65.57l-.55,1.27a5.91,5.91,0,0,0-2.16-.53c-.89,0-1.33.25-1.33.76a.74.74,0,0,0,.35.63,7.51,7.51,0,0,0,1.51.71,7,7,0,0,1,1.43.7,2,2,0,0,1,.66.73A2,2,0,0,1,327.57,126Z"/><path class="cls-5" d="M334.36,128.23l-.34-1.11h0a3.2,3.2,0,0,1-1.16,1,3.72,3.72,0,0,1-1.49.26,2.54,2.54,0,0,1-1.83-.63,2.36,2.36,0,0,1-.66-1.79,2.1,2.1,0,0,1,.92-1.85,5.2,5.2,0,0,1,2.77-.68l1.38,0V123a1.59,1.59,0,0,0-.36-1.14,1.45,1.45,0,0,0-1.1-.37,4.09,4.09,0,0,0-1.17.17,8.68,8.68,0,0,0-1.08.43l-.54-1.21a6.2,6.2,0,0,1,1.41-.51,6.38,6.38,0,0,1,1.45-.18,3.46,3.46,0,0,1,2.29.66,2.62,2.62,0,0,1,.77,2.08v5.35Zm-2.51-1.15a2.09,2.09,0,0,0,1.47-.51,1.85,1.85,0,0,0,.56-1.44v-.69l-1,0a3.46,3.46,0,0,0-1.73.4,1.22,1.22,0,0,0-.54,1.09,1.07,1.07,0,0,0,.31.82A1.38,1.38,0,0,0,331.85,127.08Z"/><path class="cls-5" d="M341.13,128.37a3.46,3.46,0,0,1-2.74-1.05,4.37,4.37,0,0,1-.94-3,4.43,4.43,0,0,1,1-3.08,3.63,3.63,0,0,1,2.83-1.08,5.31,5.31,0,0,1,2.26.47L343,122a5.15,5.15,0,0,0-1.77-.42c-1.38,0-2.06.91-2.06,2.74a3.26,3.26,0,0,0,.51,2,1.77,1.77,0,0,0,1.51.67,4.24,4.24,0,0,0,2.13-.56v1.48a3.7,3.7,0,0,1-1,.38A6.27,6.27,0,0,1,341.13,128.37Z"/><path class="cls-5" d="M348.16,127a4.12,4.12,0,0,0,1.24-.2v1.27a3.29,3.29,0,0,1-.72.21,5.52,5.52,0,0,1-.92.08c-1.6,0-2.4-.84-2.4-2.53v-4.28h-1.08v-.74l1.16-.62.58-1.68h1v1.77h2.26v1.27h-2.26v4.26a1.22,1.22,0,0,0,.3.9A1.14,1.14,0,0,0,348.16,127Z"/><path class="cls-5" d="M350.88,118.18a.87.87,0,0,1,1-.94.94.94,0,1,1,0,1.87,1,1,0,0,1-.71-.25A.93.93,0,0,1,350.88,118.18Zm1.79,10H351v-7.94h1.69Z"/><path class="cls-5" d="M362.13,124.24a4.32,4.32,0,0,1-1,3,3.56,3.56,0,0,1-2.78,1.09,3.83,3.83,0,0,1-2-.5,3.41,3.41,0,0,1-1.32-1.44,5,5,0,0,1-.46-2.19,4.3,4.3,0,0,1,1-3,3.57,3.57,0,0,1,2.8-1.09,3.48,3.48,0,0,1,2.72,1.11A4.25,4.25,0,0,1,362.13,124.24Zm-5.78,0c0,1.84.68,2.75,2,2.75s2-.91,2-2.75-.67-2.72-2-2.72a1.73,1.73,0,0,0-1.54.71A3.53,3.53,0,0,0,356.35,124.24Z"/><path class="cls-5" d="M371.06,128.23h-1.7v-4.88A2.14,2.14,0,0,0,369,122a1.44,1.44,0,0,0-1.17-.45,1.87,1.87,0,0,0-1.57.63,3.5,3.5,0,0,0-.49,2.12v4h-1.69v-7.94h1.32l.24,1h.08a2.38,2.38,0,0,1,1-.88,3.52,3.52,0,0,1,1.47-.31c1.9,0,2.86,1,2.86,2.91Z"/><path class="cls-5" d="M381.94,128.23l-3-8.77h-.06q.12,2,.12,3.66v5.11H377.4v-10.5h2.42l2.92,8.35h0l3-8.35h2.43v10.5h-1.65V123c0-.53,0-1.2,0-2s0-1.35.07-1.53h-.06l-3.15,8.76Z"/><path class="cls-5" d="M395.77,128.23l-.34-1.11h-.06a3.12,3.12,0,0,1-1.16,1,3.69,3.69,0,0,1-1.49.26,2.54,2.54,0,0,1-1.83-.63,2.36,2.36,0,0,1-.65-1.79,2.09,2.09,0,0,1,.91-1.85,5.24,5.24,0,0,1,2.78-.68l1.37,0V123a1.59,1.59,0,0,0-.36-1.14,1.43,1.43,0,0,0-1.1-.37,4.09,4.09,0,0,0-1.17.17,10.12,10.12,0,0,0-1.08.43l-.54-1.21a6.2,6.2,0,0,1,1.41-.51,6.38,6.38,0,0,1,1.45-.18,3.44,3.44,0,0,1,2.29.66,2.62,2.62,0,0,1,.77,2.08v5.35Zm-2.52-1.15a2.11,2.11,0,0,0,1.48-.51,1.88,1.88,0,0,0,.55-1.44v-.69l-1,0a3.46,3.46,0,0,0-1.73.4A1.22,1.22,0,0,0,392,126a1.07,1.07,0,0,0,.31.82A1.38,1.38,0,0,0,393.25,127.08Z"/><path class="cls-5" d="M406.31,128.23h-1.69v-4.88a2.21,2.21,0,0,0-.37-1.38,1.45,1.45,0,0,0-1.18-.45,1.86,1.86,0,0,0-1.56.63,3.49,3.49,0,0,0-.5,2.12v4h-1.68v-7.94h1.32l.23,1H401a2.38,2.38,0,0,1,1-.88,3.5,3.5,0,0,1,1.46-.31c1.91,0,2.86,1,2.86,2.91Z"/><path class="cls-5" d="M413.63,128.23l-.34-1.11h-.06a3.1,3.1,0,0,1-1.15,1,3.76,3.76,0,0,1-1.49.26,2.54,2.54,0,0,1-1.83-.63,2.36,2.36,0,0,1-.66-1.79,2.09,2.09,0,0,1,.91-1.85,5.27,5.27,0,0,1,2.78-.68l1.37,0V123a1.64,1.64,0,0,0-.35-1.14,1.46,1.46,0,0,0-1.1-.37,4.21,4.21,0,0,0-1.18.17,9.19,9.19,0,0,0-1.07.43l-.55-1.21a6.72,6.72,0,0,1,2.87-.69,3.46,3.46,0,0,1,2.29.66,2.62,2.62,0,0,1,.77,2.08v5.35Zm-2.51-1.15a2.09,2.09,0,0,0,1.47-.51,1.89,1.89,0,0,0,.56-1.44v-.69l-1,0a3.43,3.43,0,0,0-1.73.4,1.2,1.2,0,0,0-.55,1.09,1.08,1.08,0,0,0,.32.82A1.38,1.38,0,0,0,411.12,127.08Z"/><path class="cls-5" d="M423.9,120.29v.92l-1.36.25a2.12,2.12,0,0,1,.31.62,2.5,2.5,0,0,1,.12.78,2.36,2.36,0,0,1-.85,1.93,3.52,3.52,0,0,1-2.33.7,3.69,3.69,0,0,1-.69-.06,1,1,0,0,0-.54.79.43.43,0,0,0,.25.41,2.06,2.06,0,0,0,.94.14h1.38a3.1,3.1,0,0,1,2,.56,2,2,0,0,1,.68,1.62A2.35,2.35,0,0,1,422.7,131a5.86,5.86,0,0,1-3.22.73,4.48,4.48,0,0,1-2.48-.57,1.89,1.89,0,0,1-.85-1.64,1.72,1.72,0,0,1,.46-1.23,2.43,2.43,0,0,1,1.3-.69,1.34,1.34,0,0,1-.56-.47,1.19,1.19,0,0,1-.22-.67,1.12,1.12,0,0,1,.26-.75,2.64,2.64,0,0,1,.74-.61,2.26,2.26,0,0,1-1-.87,2.51,2.51,0,0,1-.38-1.4,2.55,2.55,0,0,1,.81-2,3.44,3.44,0,0,1,2.32-.71,5.92,5.92,0,0,1,.71,0,3.41,3.41,0,0,1,.56.1Zm-6.24,9.17a.91.91,0,0,0,.49.84,2.67,2.67,0,0,0,1.38.3,4.12,4.12,0,0,0,2.06-.4,1.17,1.17,0,0,0,.67-1,.77.77,0,0,0-.37-.73,2.9,2.9,0,0,0-1.37-.22h-1.28a1.75,1.75,0,0,0-1.15.34A1.11,1.11,0,0,0,417.66,129.46Zm.72-6.6a1.59,1.59,0,0,0,.39,1.15,1.47,1.47,0,0,0,1.1.4c1,0,1.46-.52,1.46-1.57a1.78,1.78,0,0,0-.36-1.19,1.37,1.37,0,0,0-1.1-.42,1.44,1.44,0,0,0-1.11.41A1.78,1.78,0,0,0,418.38,122.86Z"/><path class="cls-5" d="M428.84,128.37a3.85,3.85,0,0,1-2.9-1.08,4.08,4.08,0,0,1-1-3,4.47,4.47,0,0,1,1-3,3.31,3.31,0,0,1,2.66-1.12,3.24,3.24,0,0,1,2.48,1,3.63,3.63,0,0,1,.92,2.63v.91h-5.3a2.67,2.67,0,0,0,.63,1.78,2.18,2.18,0,0,0,1.66.62,6,6,0,0,0,1.31-.14,6.65,6.65,0,0,0,1.3-.44v1.37a5,5,0,0,1-1.25.42A7.75,7.75,0,0,1,428.84,128.37Zm-.31-7a1.69,1.69,0,0,0-1.29.51,2.51,2.51,0,0,0-.58,1.49h3.61a2.16,2.16,0,0,0-.48-1.49A1.59,1.59,0,0,0,428.53,121.42Z"/><path class="cls-5" d="M437.87,120.14a4.71,4.71,0,0,1,.84.07l-.16,1.58a3.08,3.08,0,0,0-.75-.09,2.17,2.17,0,0,0-1.64.66,2.38,2.38,0,0,0-.63,1.72v4.15h-1.69v-7.94h1.32l.23,1.4h.08a3.22,3.22,0,0,1,1-1.13A2.45,2.45,0,0,1,437.87,120.14Z"/><path class="cls-5" d="M295.94,153a2.63,2.63,0,0,1-1,2.2,4.39,4.39,0,0,1-2.79.8,6.74,6.74,0,0,1-2.91-.55v-1.63a6.83,6.83,0,0,0,1.52.53,6.47,6.47,0,0,0,1.51.2,2.36,2.36,0,0,0,1.5-.39,1.26,1.26,0,0,0,.48-1,1.29,1.29,0,0,0-.44-1,7,7,0,0,0-1.84-1,4.81,4.81,0,0,1-2-1.33,2.74,2.74,0,0,1-.59-1.79,2.51,2.51,0,0,1,.93-2.07,3.89,3.89,0,0,1,2.51-.75,7.4,7.4,0,0,1,3,.66l-.55,1.4a6.57,6.57,0,0,0-2.5-.59,1.93,1.93,0,0,0-1.26.36,1.18,1.18,0,0,0-.43,1,1.39,1.39,0,0,0,.17.7,1.88,1.88,0,0,0,.57.55,9.66,9.66,0,0,0,1.42.68,7.74,7.74,0,0,1,1.7.9,2.78,2.78,0,0,1,.79.94A2.93,2.93,0,0,1,295.94,153Z"/><path class="cls-5" d="M301,156a3.49,3.49,0,0,1-2.74-1.05,4.42,4.42,0,0,1-.93-3,4.37,4.37,0,0,1,1-3.08,3.61,3.61,0,0,1,2.83-1.08,5.31,5.31,0,0,1,2.26.47l-.51,1.35a5.23,5.23,0,0,0-1.77-.41c-1.37,0-2.06.91-2.06,2.73a3.31,3.31,0,0,0,.52,2,1.76,1.76,0,0,0,1.5.67,4.35,4.35,0,0,0,2.13-.56v1.47a3.06,3.06,0,0,1-1,.38A5.57,5.57,0,0,1,301,156Z"/><path class="cls-5" d="M312.06,155.82h-1.7v-4.89a2.11,2.11,0,0,0-.37-1.37,1.41,1.41,0,0,0-1.17-.45,1.86,1.86,0,0,0-1.56.63,3.55,3.55,0,0,0-.5,2.13v3.95h-1.69V144.64h1.69v2.84a12.82,12.82,0,0,1-.09,1.46h.11a2.29,2.29,0,0,1,1-.89,3.11,3.11,0,0,1,1.43-.32c1.93,0,2.89,1,2.89,2.91Z"/><path class="cls-5" d="M317.87,156a3.82,3.82,0,0,1-2.89-1.08,4.09,4.09,0,0,1-1.05-3,4.55,4.55,0,0,1,1-3.06,3.37,3.37,0,0,1,2.67-1.11,3.27,3.27,0,0,1,2.48,1,3.62,3.62,0,0,1,.91,2.62v.92h-5.29a2.57,2.57,0,0,0,.62,1.77,2.17,2.17,0,0,0,1.66.62,6,6,0,0,0,1.31-.13,7.47,7.47,0,0,0,1.31-.44v1.37a5,5,0,0,1-1.25.42A7.79,7.79,0,0,1,317.87,156Zm-.3-7a1.69,1.69,0,0,0-1.29.51,2.36,2.36,0,0,0-.58,1.48h3.6a2.2,2.2,0,0,0-.47-1.49A1.65,1.65,0,0,0,317.57,149Z"/><path class="cls-5" d="M325.56,156a2.76,2.76,0,0,1-2.32-1.08,4.8,4.8,0,0,1-.83-3,4.86,4.86,0,0,1,.84-3,2.78,2.78,0,0,1,2.34-1.09,2.73,2.73,0,0,1,2.38,1.16h.09a10.3,10.3,0,0,1-.12-1.35v-2.9h1.69v11.18h-1.32l-.3-1h-.07A2.72,2.72,0,0,1,325.56,156Zm.45-1.37a1.86,1.86,0,0,0,1.52-.58,3.12,3.12,0,0,0,.48-1.9v-.24a3.6,3.6,0,0,0-.48-2.13,1.83,1.83,0,0,0-1.53-.63,1.56,1.56,0,0,0-1.38.72,3.71,3.71,0,0,0-.48,2.06,3.6,3.6,0,0,0,.47,2A1.58,1.58,0,0,0,326,154.59Z"/><path class="cls-5" d="M337.64,155.82l-.23-1h-.09a2.37,2.37,0,0,1-1,.87,3.35,3.35,0,0,1-1.48.32,2.92,2.92,0,0,1-2.16-.72,3,3,0,0,1-.71-2.17v-5.2h1.7v4.9a2.11,2.11,0,0,0,.38,1.37,1.44,1.44,0,0,0,1.17.45,1.86,1.86,0,0,0,1.56-.63,3.51,3.51,0,0,0,.5-2.13v-4H339v7.95Z"/><path class="cls-5" d="M343.07,155.82h-1.69V144.64h1.69Z"/><path class="cls-5" d="M349,156a3.85,3.85,0,0,1-2.9-1.08,4.09,4.09,0,0,1-1.05-3,4.55,4.55,0,0,1,1-3.06,3.37,3.37,0,0,1,2.67-1.11,3.25,3.25,0,0,1,2.48,1,3.62,3.62,0,0,1,.91,2.62v.92h-5.29a2.58,2.58,0,0,0,.63,1.77,2.14,2.14,0,0,0,1.66.62,6.13,6.13,0,0,0,1.31-.13,7.39,7.39,0,0,0,1.3-.44v1.37a5,5,0,0,1-1.25.42A7.75,7.75,0,0,1,349,156Zm-.31-7a1.69,1.69,0,0,0-1.29.51,2.42,2.42,0,0,0-.58,1.48h3.61a2.2,2.2,0,0,0-.48-1.49A1.63,1.63,0,0,0,348.64,149Z"/><path class="cls-5" d="M358,147.73a3.93,3.93,0,0,1,.84.07l-.16,1.57a3.67,3.67,0,0,0-.75-.08,2.15,2.15,0,0,0-1.64.66,2.38,2.38,0,0,0-.63,1.72v4.15H354v-7.95h1.32l.23,1.4h.08a3.18,3.18,0,0,1,1-1.12A2.45,2.45,0,0,1,358,147.73Z"/><path class="cls-5" d="M294.67,183.24l-.33-1.1h-.06a3.18,3.18,0,0,1-1.16,1,3.54,3.54,0,0,1-1.49.27,2.5,2.5,0,0,1-1.83-.64,2.34,2.34,0,0,1-.66-1.78,2.12,2.12,0,0,1,.92-1.86,5.29,5.29,0,0,1,2.77-.68l1.38,0V178a1.58,1.58,0,0,0-.36-1.13,1.45,1.45,0,0,0-1.1-.38,3.77,3.77,0,0,0-1.17.18,9.3,9.3,0,0,0-1.08.42l-.54-1.2a5.77,5.77,0,0,1,1.41-.52,7,7,0,0,1,1.45-.17,3.46,3.46,0,0,1,2.29.66,2.59,2.59,0,0,1,.77,2.07v5.35Zm-2.51-1.15a2.13,2.13,0,0,0,1.48-.51,1.85,1.85,0,0,0,.55-1.44v-.69l-1,0a3.57,3.57,0,0,0-1.73.4,1.22,1.22,0,0,0-.54,1.09,1,1,0,0,0,.31.82A1.34,1.34,0,0,0,292.16,182.09Z"/><path class="cls-5" d="M305.22,183.24h-1.69v-4.88a2.17,2.17,0,0,0-.37-1.37,1.45,1.45,0,0,0-1.18-.45,1.86,1.86,0,0,0-1.56.63,3.47,3.47,0,0,0-.5,2.12v4h-1.69V175.3h1.33l.23,1h.09a2.3,2.3,0,0,1,1-.87,3.35,3.35,0,0,1,1.46-.31c1.91,0,2.86,1,2.86,2.91Z"/><path class="cls-5" d="M310.25,183.39a2.76,2.76,0,0,1-2.32-1.08,5.92,5.92,0,0,1,0-6.06,2.78,2.78,0,0,1,2.34-1.09,2.74,2.74,0,0,1,2.38,1.15h.09a9,9,0,0,1-.13-1.35v-2.89h1.7v11.17H313l-.3-1h-.08A2.69,2.69,0,0,1,310.25,183.39Zm.45-1.37a1.86,1.86,0,0,0,1.52-.58,3.14,3.14,0,0,0,.48-1.9v-.24a3.6,3.6,0,0,0-.48-2.13,1.83,1.83,0,0,0-1.53-.63,1.56,1.56,0,0,0-1.38.72,3.68,3.68,0,0,0-.48,2.05,3.61,3.61,0,0,0,.47,2A1.58,1.58,0,0,0,310.7,182Z"/><path class="cls-5" d="M327.24,183.24h-1.69v-4.89a2.25,2.25,0,0,0-.34-1.37,1.3,1.3,0,0,0-1.08-.44,1.64,1.64,0,0,0-1.43.63,3.7,3.7,0,0,0-.46,2.12v4h-1.69V175.3h1.32l.24,1h.09a2.14,2.14,0,0,1,1-.87,3,3,0,0,1,1.38-.31,2.41,2.41,0,0,1,2.43,1.25h.11a2.38,2.38,0,0,1,1-.92,3.15,3.15,0,0,1,1.47-.33,2.68,2.68,0,0,1,2.07.72,3.17,3.17,0,0,1,.65,2.19v5.17h-1.69v-4.89a2.25,2.25,0,0,0-.35-1.37,1.3,1.3,0,0,0-1.08-.44,1.67,1.67,0,0,0-1.44.61,3.19,3.19,0,0,0-.46,1.88Z"/><path class="cls-5" d="M341.66,179.26a4.34,4.34,0,0,1-1,3,3.58,3.58,0,0,1-2.78,1.1,3.78,3.78,0,0,1-2-.51,3.22,3.22,0,0,1-1.31-1.44,4.86,4.86,0,0,1-.46-2.18,4.31,4.31,0,0,1,1-3,3.59,3.59,0,0,1,2.79-1.08,3.5,3.5,0,0,1,2.73,1.11A4.28,4.28,0,0,1,341.66,179.26Zm-5.78,0c0,1.83.67,2.75,2,2.75s2-.92,2-2.75-.68-2.72-2-2.72a1.73,1.73,0,0,0-1.54.7A3.57,3.57,0,0,0,335.88,179.26Z"/><path class="cls-5" d="M347.62,175.16a3.93,3.93,0,0,1,.84.07l-.16,1.57a3.08,3.08,0,0,0-.75-.08,2.17,2.17,0,0,0-1.64.66,2.37,2.37,0,0,0-.63,1.71v4.15H343.6V175.3h1.32l.22,1.4h.09a3.12,3.12,0,0,1,1-1.13A2.49,2.49,0,0,1,347.62,175.16Z"/><path class="cls-5" d="M353.4,183.39a3.82,3.82,0,0,1-2.89-1.08,4.1,4.1,0,0,1-1.05-3,4.53,4.53,0,0,1,1-3.06,3.37,3.37,0,0,1,2.67-1.11,3.3,3.3,0,0,1,2.48,1,3.66,3.66,0,0,1,.91,2.63v.91H351.2a2.6,2.6,0,0,0,.62,1.78,2.21,2.21,0,0,0,1.66.62,6,6,0,0,0,1.31-.13,7.47,7.47,0,0,0,1.31-.44v1.37a5.38,5.38,0,0,1-1.25.41A7,7,0,0,1,353.4,183.39Zm-.3-6.95a1.69,1.69,0,0,0-1.29.51,2.36,2.36,0,0,0-.58,1.48h3.6a2.2,2.2,0,0,0-.47-1.49A1.61,1.61,0,0,0,353.1,176.44Z"/><path class="cls-5" d="M358.16,182.35a1.13,1.13,0,0,1,.27-.81,1,1,0,0,1,.79-.28,1.06,1.06,0,0,1,.8.29,1.32,1.32,0,0,1,0,1.6,1.22,1.22,0,0,1-1.59,0A1.17,1.17,0,0,1,358.16,182.35Z"/><path class="cls-5" d="M362.2,182.35a1.13,1.13,0,0,1,.27-.81,1.25,1.25,0,0,1,1.59,0,1.32,1.32,0,0,1,0,1.6,1,1,0,0,1-.8.3,1.07,1.07,0,0,1-.79-.29A1.17,1.17,0,0,1,362.2,182.35Z"/><path class="cls-5" d="M366.24,182.35a1.14,1.14,0,0,1,.28-.81,1.24,1.24,0,0,1,1.58,0,1.1,1.1,0,0,1,.28.8,1.14,1.14,0,0,1-.28.8,1,1,0,0,1-.79.3,1,1,0,0,1-.79-.29A1.17,1.17,0,0,1,366.24,182.35Z"/><line class="cls-6" x1="277.72" x2="277.72" y2="333.06"/></svg>