<?xml version="1.0" encoding="utf-8"?>
<!-- Generator: Adobe Illustrator 24.1.0, SVG Export Plug-In . SVG Version: 6.00 Build 0)  -->
<svg version="1.1" id="Layer_1" xmlns="http://www.w3.org/2000/svg" xmlns:xlink="http://www.w3.org/1999/xlink" x="0px" y="0px"
	 viewBox="0 0 741.9 480.5" style="enable-background:new 0 0 741.9 480.5;" xml:space="preserve">
<style type="text/css">
	.st0{fill:#262A2D;}
	.st1{fill:none;stroke:#FFFFFF;stroke-width:1.5;stroke-miterlimit:10;}
	.st2{fill:none;stroke:#98AFAE;stroke-width:1.5;stroke-linecap:round;stroke-linejoin:round;}
	.st3{fill:none;stroke:#BBBCBE;stroke-width:1.5;stroke-linecap:round;stroke-linejoin:round;stroke-dasharray:0.5,5.99;}
	.st4{fill:#1B1F23;stroke:#6DB33F;stroke-width:1.5;stroke-miterlimit:10;}
	.st5{fill:#FFFFFF;}
	.st6{fill:#494C4F;}
	.st7{fill:#68BD45;}
	.st8{fill:#1B1F23;}
	.st9{fill:#BBBCBE;}
	.st10{fill-rule:evenodd;clip-rule:evenodd;fill:#FFFFFF;}
</style>
<path class="st0" d="M6.2,0h729.4c3.4,0,6.2,2.8,6.2,6.2v468.1c0,3.4-2.8,6.2-6.2,6.2H6.2c-3.4,0-6.2-2.8-6.2-6.2V6.2
	C0,2.8,2.8,0,6.2,0z"/>
<g>
	<line class="st1" x1="154.3" y1="218.2" x2="544.7" y2="218.2"/>
	<polyline class="st1" points="127.8,152.4 154.3,152.4 154.3,284 127.8,284 	"/>
	<polyline class="st1" points="353.3,128.8 337.6,128.8 337.6,307.7 353.3,307.7 	"/>
	<line class="st1" x1="446.3" y1="333.6" x2="446.3" y2="372.5"/>
	<polyline class="st1" points="561,367.1 561,351.4 331.7,351.4 331.7,367.1 	"/>
	<polyline class="st1" points="459.5,307.7 488.2,307.7 488.2,128.8 459.5,128.8 	"/>
</g>
<line class="st2" x1="265.1" y1="377.1" x2="264.9" y2="377.1"/>
<path class="st3" d="M258.9,377.1h-71.5c-3.3,0.1-6-2.5-6.2-5.7V32.8c0.1-3.3,2.9-5.8,6.2-5.7h518.8c3.3-0.1,6,2.4,6.2,5.7v338.5
	c-0.1,3.3-2.9,5.8-6.2,5.7h-74.5"/>
<line class="st2" x1="628.8" y1="377.1" x2="628.5" y2="377.1"/>
<rect x="218.2" y="128.8" class="st4" width="69.9" height="176.8"/>
<g>
	<path class="st5" d="M206.9,47.7c0,0.9-0.3,1.7-1,2.2c-0.8,0.6-1.7,0.8-2.7,0.8h-1v3.5h-1.5v-9.3h2.7c0.9-0.1,1.8,0.2,2.6,0.7
		C206.6,46.1,206.9,46.8,206.9,47.7z M202.2,49.4h0.8c0.6,0,1.2-0.1,1.7-0.4c0.4-0.3,0.6-0.8,0.5-1.3c0-0.5-0.1-0.9-0.5-1.2
		c-0.4-0.3-1-0.4-1.5-0.4h-1.1L202.2,49.4z"/>
	<path class="st5" d="M209,54.1v-9.3h1.5v8h3.9v1.3L209,54.1z"/>
	<path class="st5" d="M222.1,54.1l-0.9-2.6h-3.5l-0.9,2.6h-1.6l3.5-9.3h1.6l3.5,9.3H222.1z M220.7,50.2l-0.9-2.5
		c-0.1-0.2-0.1-0.4-0.3-0.8s-0.2-0.6-0.2-0.8c-0.1,0.6-0.3,1.2-0.5,1.7l-0.9,2.4L220.7,50.2z"/>
	<path class="st5" d="M228.4,54.1h-1.5v-8h-2.7v-1.3h7v1.3h-2.7L228.4,54.1z"/>
	<path class="st5" d="M234.3,54.1h-1.5v-9.3h5.2v1.3h-3.7V49h3.5v1.3h-3.5V54.1z"/>
	<path class="st5" d="M248.2,49.5c0.1,1.3-0.3,2.5-1.1,3.5c-1.8,1.7-4.6,1.7-6.4,0c-0.8-1-1.2-2.3-1.1-3.5c-0.1-1.3,0.3-2.5,1.1-3.5
		c0.8-0.9,2-1.3,3.2-1.2c1.2-0.1,2.4,0.4,3.2,1.2C247.9,46.9,248.3,48.2,248.2,49.5z M241.1,49.5c-0.1,0.9,0.2,1.8,0.7,2.6
		c1.1,1.1,2.9,1.2,4,0.1c0,0,0.1-0.1,0.1-0.1c0.5-0.8,0.8-1.7,0.7-2.6c0.1-0.9-0.2-1.8-0.7-2.6c-0.5-0.6-1.2-0.9-2-0.9
		c-0.8-0.1-1.6,0.3-2.1,0.9C241.3,47.6,241,48.5,241.1,49.5L241.1,49.5z"/>
	<path class="st5" d="M252,50.4v3.7h-1.5v-9.3h2.6c0.9-0.1,1.9,0.2,2.7,0.7c0.6,0.5,0.9,1.2,0.9,2c0,1.1-0.7,2.1-1.8,2.5l2.6,4.1
		h-1.7l-2.2-3.7L252,50.4z M252,49.2h1c0.5,0,1.1-0.1,1.5-0.4c0.3-0.3,0.5-0.7,0.5-1.2c0-0.4-0.2-0.9-0.5-1.1
		c-0.5-0.3-1-0.4-1.5-0.3h-1L252,49.2z"/>
	<path class="st5" d="M263,54.1l-2.7-7.8h0c0.1,1.2,0.1,2.2,0.1,3.2v4.5H259v-9.3h2.1l2.6,7.4l0,0l2.6-7.4h2.1v9.3h-1.4v-4.6
		c0-0.5,0-1.1,0-1.8c0-0.7,0-1.2,0.1-1.3h0l-2.8,7.7L263,54.1z"/>
	<path class="st5" d="M274.2,50.6c0-1.1,0.2-2.1,0.5-3.2c0.3-0.9,0.8-1.8,1.4-2.6h1.3c-0.6,0.8-1.1,1.7-1.4,2.7c-0.3,1-0.5,2-0.5,3
		c0,1,0.2,2,0.5,3c0.3,0.9,0.7,1.8,1.3,2.6h-1.3c-0.6-0.7-1.1-1.6-1.4-2.5C274.4,52.6,274.2,51.6,274.2,50.6z"/>
	<path class="st5" d="M283.2,46c-0.8,0-1.6,0.3-2.1,0.9c-0.5,0.7-0.8,1.6-0.8,2.5c-0.1,0.9,0.2,1.8,0.7,2.6c0.5,0.6,1.3,0.9,2.1,0.9
		c0.4,0,0.8,0,1.1-0.1c0.4-0.1,0.8-0.2,1.1-0.3v1.3c-0.8,0.3-1.6,0.4-2.5,0.4c-1.2,0.1-2.3-0.4-3.1-1.2c-0.8-1-1.2-2.3-1.1-3.5
		c0-0.9,0.2-1.7,0.5-2.5c0.3-0.7,0.9-1.3,1.5-1.7c0.7-0.4,1.5-0.6,2.4-0.6c0.9,0,1.8,0.2,2.6,0.6l-0.5,1.3c-0.3-0.2-0.7-0.3-1-0.4
		C284,46.1,283.6,46,283.2,46z"/>
	<path class="st5" d="M287.8,54.1v-9.3h1.5v8h3.9v1.3L287.8,54.1z"/>
	<path class="st5" d="M303.3,49.5c0.1,1.3-0.3,2.5-1.1,3.5c-0.8,0.9-2,1.3-3.2,1.2c-1.2,0.1-2.4-0.4-3.2-1.2c-0.8-1-1.2-2.3-1.1-3.5
		c-0.1-1.3,0.3-2.5,1.1-3.5c0.9-0.9,2-1.3,3.2-1.2c1.2-0.1,2.4,0.4,3.2,1.2C303,46.9,303.4,48.2,303.3,49.5z M296.2,49.5
		c-0.1,0.9,0.2,1.8,0.7,2.6c1.1,1.1,2.9,1.2,4,0.1c0,0,0.1-0.1,0.1-0.1c0.5-0.8,0.8-1.7,0.7-2.6c0.1-0.9-0.2-1.8-0.7-2.6
		c-0.5-0.6-1.2-0.9-2-0.9c-0.8-0.1-1.5,0.3-2,0.9C296.4,47.6,296.2,48.5,296.2,49.5L296.2,49.5z"/>
	<path class="st5" d="M312.9,44.8v6c0,0.6-0.1,1.2-0.4,1.8c-0.3,0.5-0.7,0.9-1.3,1.2c-0.6,0.3-1.3,0.4-2,0.4c-1,0.1-1.9-0.3-2.7-0.9
		c-0.7-0.7-1-1.6-1-2.5v-6h1.6v5.9c0,0.6,0.1,1.2,0.5,1.7c0.5,0.4,1,0.6,1.6,0.5c1.4,0,2.1-0.8,2.1-2.2v-5.8H312.9z"/>
	<path class="st5" d="M323,49.4c0.1,1.3-0.4,2.6-1.3,3.5c-1,0.9-2.3,1.3-3.7,1.2h-2.6v-9.3h2.9c1.3-0.1,2.5,0.3,3.5,1.2
		C322.7,46.9,323.1,48.1,323,49.4z M321.4,49.4c0-2.2-1-3.3-3.1-3.3H317v6.7h1.1C320.3,52.8,321.4,51.7,321.4,49.4L321.4,49.4z"/>
	<path class="st5" d="M326.8,54.1h-1.5v-9.3h5.2v1.3h-3.7V49h3.5v1.3h-3.5V54.1z"/>
	<path class="st5" d="M340.7,49.5c0.1,1.3-0.3,2.5-1.1,3.5c-1.8,1.7-4.6,1.7-6.4,0c-0.8-1-1.2-2.3-1.1-3.5c-0.1-1.3,0.3-2.5,1.1-3.5
		c0.9-0.9,2-1.3,3.2-1.2c1.2-0.1,2.4,0.4,3.2,1.3C340.4,47,340.8,48.2,340.7,49.5z M333.6,49.5c-0.1,0.9,0.2,1.8,0.7,2.6
		c1.1,1.1,2.9,1.2,4,0.1c0,0,0.1-0.1,0.1-0.1c0.5-0.8,0.8-1.7,0.7-2.6c0.1-0.9-0.2-1.8-0.7-2.6c-0.5-0.6-1.2-0.9-2-0.9
		c-0.8-0.1-1.6,0.3-2.1,0.9C333.8,47.6,333.6,48.5,333.6,49.5z"/>
	<path class="st5" d="M350.2,44.8v6c0,0.6-0.1,1.2-0.4,1.8c-0.3,0.5-0.7,0.9-1.3,1.2c-0.6,0.3-1.3,0.4-2,0.4c-1,0.1-1.9-0.3-2.7-0.9
		c-0.7-0.7-1-1.6-1-2.5v-6h1.5v5.9c0,0.6,0.1,1.2,0.5,1.7c0.5,0.4,1,0.6,1.6,0.5c1.4,0,2.1-0.8,2.1-2.2v-5.8H350.2z"/>
	<path class="st5" d="M360.6,54.1h-1.9l-4.6-7.4h0v0.4c0.1,0.8,0.1,1.5,0.1,2.2v4.8h-1.4v-9.3h1.8l4.5,7.4l0,0c0-0.1,0-0.5,0-1.1
		s0-1.1,0-1.4v-4.9h1.4L360.6,54.1z"/>
	<path class="st5" d="M370.9,49.4c0.1,1.3-0.4,2.6-1.3,3.5c-1,0.9-2.3,1.3-3.7,1.2h-2.6v-9.3h2.9c1.3-0.1,2.5,0.4,3.4,1.2
		C370.5,46.9,370.9,48.1,370.9,49.4z M369.3,49.4c0-2.2-1-3.3-3.1-3.3h-1.3v6.7h1.1C368.1,52.8,369.3,51.7,369.3,49.4L369.3,49.4z"
		/>
	<path class="st5" d="M374.6,50.4v3.7h-1.5v-9.3h2.6c0.9-0.1,1.9,0.2,2.7,0.7c0.6,0.5,0.9,1.2,0.9,2c0,1.1-0.7,2.1-1.8,2.5l2.6,4.1
		h-1.7l-2.2-3.7L374.6,50.4z M374.6,49.2h1c0.5,0,1.1-0.1,1.5-0.4c0.3-0.3,0.5-0.7,0.5-1.2c0-0.4-0.2-0.9-0.5-1.1
		c-0.5-0.3-1-0.4-1.5-0.3h-1V49.2z"/>
	<path class="st5" d="M384.3,49.1l2.2-4.2h1.7l-3.1,5.7v3.6h-1.5v-3.6l-3.1-5.7h1.6L384.3,49.1z"/>
	<path class="st5" d="M391,52.8c-0.3,1-0.7,2-1.1,3h-1.1c0.3-1.1,0.5-2.1,0.6-3.2h1.5L391,52.8z"/>
	<path class="st5" d="M402.2,54.1H397v-9.3h5.2v1.3h-3.7v2.5h3.5v1.3h-3.5v2.9h3.7L402.2,54.1z"/>
	<path class="st5" d="M407.7,54.1h-1.5v-8h-2.7v-1.3h7v1.3h-2.7L407.7,54.1z"/>
	<path class="st5" d="M416.1,46c-0.8,0-1.6,0.3-2,0.9c-0.5,0.7-0.8,1.6-0.8,2.5c-0.1,0.9,0.2,1.8,0.7,2.6c0.5,0.6,1.3,0.9,2.1,0.9
		c0.4,0,0.8,0,1.1-0.1c0.4-0.1,0.8-0.2,1.1-0.3v1.3c-0.8,0.3-1.6,0.4-2.5,0.4c-1.2,0.1-2.3-0.4-3.1-1.2c-0.8-1-1.2-2.3-1.1-3.5
		c0-0.9,0.2-1.7,0.5-2.5c0.3-0.7,0.9-1.3,1.5-1.7c0.7-0.4,1.5-0.6,2.4-0.6c0.9,0,1.8,0.2,2.6,0.6l-0.5,1.3c-0.3-0.2-0.7-0.3-1-0.4
		C416.8,46.1,416.5,46,416.1,46z"/>
	<path class="st5" d="M423,50.6c0,1.1-0.2,2.1-0.5,3.1c-0.3,0.9-0.8,1.8-1.4,2.5h-1.3c0.6-0.8,1-1.7,1.3-2.6c0.3-1,0.5-2,0.5-3
		c0-1-0.2-2-0.5-3c-0.3-1-0.8-1.9-1.4-2.7h1.3c0.6,0.8,1.1,1.6,1.4,2.6C422.8,48.4,423,49.5,423,50.6z"/>
</g>
<rect x="355" y="102.7" class="st4" width="89.4" height="53.5"/>
<rect x="362.6" y="109.2" class="st4" width="89.4" height="53.5"/>
<rect x="370.1" y="115.7" class="st4" width="89.4" height="53.5"/>
<g>
	<path class="st5" d="M388.2,136.8c0,0.7-0.3,1.4-0.8,1.8c-0.7,0.5-1.5,0.7-2.3,0.6c-0.8,0-1.6-0.1-2.4-0.4v-1.3
		c0.4,0.2,0.8,0.3,1.2,0.4c0.4,0.1,0.8,0.1,1.2,0.1c0.4,0,0.9-0.1,1.2-0.3c0.3-0.2,0.4-0.5,0.4-0.9c0-0.3-0.1-0.6-0.4-0.8
		c-0.5-0.3-1-0.6-1.5-0.8c-0.6-0.2-1.2-0.6-1.6-1.1c-0.3-0.4-0.5-0.9-0.5-1.5c0-0.7,0.2-1.3,0.8-1.7c0.6-0.4,1.3-0.6,2-0.6
		c0.8,0,1.7,0.2,2.5,0.5l-0.4,1.1c-0.6-0.3-1.3-0.5-2-0.5c-0.4,0-0.7,0.1-1,0.3c-0.2,0.2-0.4,0.5-0.4,0.8c0,0.2,0,0.4,0.1,0.6
		c0.1,0.2,0.3,0.3,0.5,0.4c0.4,0.2,0.8,0.4,1.2,0.6c0.5,0.2,1,0.4,1.4,0.7c0.3,0.2,0.5,0.5,0.6,0.8
		C388.1,136.1,388.2,136.4,388.2,136.8z"/>
	<path class="st5" d="M392.8,139.2c-0.7,0-1.5-0.3-1.9-0.9h-0.1c0,0.6,0.1,0.9,0.1,1v2.7h-1.4v-9.4h1.1c0,0.1,0.1,0.4,0.2,0.9h0.1
		c0.4-0.7,1.2-1,1.9-1c0.7,0,1.4,0.3,1.9,0.9c0.5,0.7,0.7,1.6,0.7,2.5c0,0.9-0.2,1.8-0.7,2.5C394.2,138.9,393.5,139.2,392.8,139.2z
		 M392.5,133.6c-0.5,0-0.9,0.1-1.2,0.5c-0.3,0.5-0.4,1-0.4,1.5v0.2c0,0.6,0.1,1.2,0.4,1.7c0.3,0.4,0.7,0.6,1.2,0.5
		c0.4,0,0.9-0.2,1.1-0.6c0.3-0.5,0.4-1.1,0.4-1.7c0-0.6-0.1-1.2-0.4-1.6C393.3,133.8,392.9,133.6,392.5,133.6z"/>
	<path class="st5" d="M400.1,132.5c0.2,0,0.5,0,0.7,0.1l-0.1,1.3c-0.2,0-0.4-0.1-0.6-0.1c-0.5,0-1,0.2-1.3,0.5
		c-0.3,0.4-0.5,0.9-0.5,1.4v3.4h-1.4v-6.5h1.1l0.2,1.1h0.1c0.2-0.4,0.5-0.7,0.8-0.9C399.3,132.6,399.7,132.5,400.1,132.5z"/>
	<path class="st5" d="M401.7,130.9c0-0.2,0.1-0.4,0.2-0.6c0.2-0.1,0.4-0.2,0.6-0.2c0.4,0,0.7,0.2,0.8,0.6c0,0,0,0.1,0,0.1
		c0,0.2-0.1,0.4-0.2,0.6c-0.2,0.1-0.4,0.2-0.6,0.2c-0.2,0-0.4-0.1-0.6-0.2C401.8,131.3,401.7,131.1,401.7,130.9z M403.2,139.1h-1.4
		v-6.5h1.4V139.1z"/>
	<path class="st5" d="M410.6,139.1h-1.4v-4c0-0.4-0.1-0.8-0.3-1.1c-0.3-0.3-0.6-0.4-1-0.4c-0.5,0-1,0.1-1.3,0.5
		c-0.3,0.5-0.5,1.1-0.4,1.7v3.2H405v-6.5h1l0.2,0.9h0.1c0.2-0.3,0.5-0.6,0.8-0.7c0.4-0.2,0.8-0.3,1.2-0.2c1.1-0.2,2.2,0.6,2.3,1.8
		c0,0.2,0,0.4,0,0.6L410.6,139.1z"/>
	<path class="st5" d="M417.9,132.6v0.8l-1.1,0.2c0.1,0.2,0.2,0.3,0.2,0.5c0.1,0.2,0.1,0.4,0.1,0.6c0,0.6-0.2,1.2-0.7,1.6
		c-0.5,0.4-1.2,0.6-1.9,0.6c-0.2,0-0.4,0-0.6,0c-0.3,0.1-0.4,0.4-0.4,0.6c0,0.1,0.1,0.3,0.2,0.3c0.2,0.1,0.5,0.1,0.8,0.1h1.1
		c0.6,0,1.2,0.1,1.6,0.5c0.4,0.3,0.6,0.8,0.6,1.3c0,0.7-0.3,1.3-0.9,1.7c-0.8,0.4-1.7,0.7-2.6,0.6c-0.7,0-1.4-0.1-2-0.5
		c-0.5-0.3-0.7-0.8-0.7-1.3c0-0.4,0.1-0.7,0.4-1c0.3-0.3,0.7-0.5,1.1-0.6c-0.2-0.1-0.3-0.2-0.5-0.4c-0.2-0.3-0.2-0.8,0-1.2
		c0.2-0.2,0.4-0.4,0.6-0.5c-0.3-0.2-0.6-0.4-0.8-0.7c-0.5-0.9-0.4-2,0.4-2.8c0.5-0.4,1.2-0.6,1.9-0.6c0.3,0,0.7,0,1,0.1L417.9,132.6
		z M412.8,140.1c0,0.3,0.1,0.5,0.4,0.7c0.3,0.2,0.7,0.3,1.1,0.2c0.6,0,1.2-0.1,1.7-0.3c0.3-0.2,0.5-0.5,0.5-0.9
		c0-0.2-0.1-0.5-0.3-0.6c-0.4-0.1-0.7-0.2-1.1-0.2h-1c-0.3,0-0.7,0.1-0.9,0.3C412.9,139.5,412.8,139.8,412.8,140.1L412.8,140.1z
		 M413.4,134.7c0,0.3,0.1,0.7,0.3,0.9c0.2,0.2,0.6,0.4,0.9,0.3c0.8,0,1.2-0.4,1.2-1.3c0-0.4-0.1-0.7-0.3-1c-0.5-0.5-1.3-0.5-1.8,0
		C413.4,134,413.3,134.3,413.4,134.7L413.4,134.7z"/>
	<path class="st5" d="M422,130.5h2.5c0.9-0.1,1.8,0.1,2.6,0.5c0.5,0.4,0.8,1,0.8,1.6c0,0.4-0.1,0.9-0.4,1.2
		c-0.3,0.3-0.7,0.6-1.1,0.6v0.1c0.5,0.1,1,0.3,1.3,0.7c0.3,0.4,0.5,0.9,0.4,1.4c0,0.7-0.3,1.4-0.8,1.8c-0.7,0.5-1.4,0.7-2.2,0.6H422
		V130.5z M423.4,134h1.4c0.4,0,0.9-0.1,1.3-0.3c0.3-0.2,0.4-0.6,0.4-0.9c0-0.3-0.2-0.6-0.4-0.8c-0.4-0.2-0.9-0.3-1.4-0.3h-1.2V134z
		 M423.4,135.2v2.7h1.5c0.5,0,0.9-0.1,1.3-0.3c0.3-0.3,0.5-0.7,0.5-1.1c0-0.4-0.1-0.8-0.5-1c-0.4-0.2-0.9-0.4-1.4-0.3L423.4,135.2z"
		/>
	<path class="st5" d="M435.3,135.8c0.1,0.9-0.2,1.8-0.8,2.5c-0.6,0.6-1.4,0.9-2.3,0.9c-0.6,0-1.1-0.1-1.6-0.4
		c-0.5-0.3-0.8-0.7-1.1-1.2c-0.3-0.6-0.4-1.2-0.4-1.8c-0.1-0.9,0.2-1.8,0.8-2.5c0.6-0.6,1.4-0.9,2.3-0.9c0.8,0,1.7,0.3,2.2,0.9
		C435.1,134.1,435.4,134.9,435.3,135.8z M430.6,135.8c0,1.5,0.5,2.2,1.7,2.2s1.6-0.8,1.6-2.2s-0.5-2.2-1.6-2.2c-0.5,0-1,0.2-1.3,0.6
		C430.7,134.7,430.6,135.3,430.6,135.8z"/>
	<path class="st5" d="M442.5,135.8c0.1,0.9-0.2,1.8-0.8,2.5c-0.6,0.6-1.4,0.9-2.3,0.9c-0.6,0-1.1-0.1-1.6-0.4
		c-0.5-0.3-0.8-0.7-1.1-1.2c-0.3-0.6-0.4-1.2-0.4-1.8c-0.1-0.9,0.2-1.8,0.8-2.5c0.6-0.6,1.4-0.9,2.3-0.9c0.8,0,1.7,0.3,2.2,0.9
		C442.2,134.1,442.5,134.9,442.5,135.8z M437.7,135.8c0,1.5,0.5,2.2,1.7,2.2s1.6-0.8,1.6-2.2s-0.5-2.2-1.6-2.2c-0.5,0-1,0.2-1.3,0.6
		C437.8,134.7,437.7,135.3,437.7,135.8z"/>
	<path class="st5" d="M446.3,138.1c0.3,0,0.7-0.1,1-0.1v1c-0.2,0.1-0.4,0.1-0.6,0.2c-0.2,0-0.5,0.1-0.7,0.1c-1.3,0-2-0.7-2-2.1v-3.5
		H443V133l1-0.5l0.5-1.4h0.9v1.4h1.9v1h-1.9v3.5c0,0.3,0.1,0.5,0.2,0.7C445.8,138,446,138.1,446.3,138.1z"/>
	<path class="st5" d="M407.2,153.5l-0.9-2.4h-3.3l-0.8,2.4h-1.5l3.2-8.6h1.5l3.2,8.6H407.2z M406,149.9l-0.8-2.3l-0.2-0.7
		c-0.1-0.3-0.2-0.6-0.2-0.7c-0.1,0.5-0.3,1.1-0.5,1.6l-0.8,2.2H406z"/>
	<path class="st5" d="M412.8,153.6c-0.7,0-1.5-0.3-1.9-0.9h-0.1c0,0.6,0.1,0.9,0.1,1v2.6h-1.4V147h1.1c0,0.1,0.1,0.4,0.2,0.9h0.1
		c0.4-0.7,1.2-1,1.9-1c0.7,0,1.4,0.3,1.9,0.9c0.9,1.5,0.9,3.5,0,5C414.2,153.3,413.5,153.6,412.8,153.6z M412.4,148
		c-0.5,0-0.9,0.1-1.2,0.5c-0.3,0.5-0.4,1-0.4,1.5v0.2c0,0.6,0.1,1.2,0.4,1.7c0.3,0.4,0.7,0.6,1.2,0.5c0.4,0,0.9-0.2,1.1-0.6
		c0.3-0.5,0.4-1.1,0.4-1.7c0-0.6-0.1-1.1-0.4-1.6C413.3,148.2,412.9,148,412.4,148L412.4,148z"/>
	<path class="st5" d="M420.1,153.6c-0.7,0-1.5-0.3-1.9-0.9h-0.1c0,0.6,0.1,0.9,0.1,1v2.6h-1.4V147h1.1c0,0.1,0.1,0.4,0.2,0.9h0.1
		c0.4-0.7,1.2-1,1.9-1c0.7,0,1.4,0.3,1.9,0.9c0.9,1.5,0.9,3.5,0,5C421.5,153.3,420.8,153.6,420.1,153.6z M419.7,148
		c-0.5,0-0.9,0.1-1.2,0.5c-0.3,0.5-0.4,1-0.4,1.5v0.2c0,0.6,0.1,1.2,0.4,1.7c0.3,0.4,0.8,0.6,1.2,0.5c0.4,0,0.9-0.2,1.1-0.6
		c0.3-0.5,0.4-1.1,0.4-1.7c0-0.6-0.1-1.2-0.4-1.6C420.6,148.2,420.2,148,419.7,148L419.7,148z"/>
	<path class="st5" d="M428.4,151.6c0,0.6-0.2,1.1-0.7,1.5c-0.6,0.4-1.3,0.6-2,0.5c-0.7,0-1.4-0.1-2.1-0.4V152
		c0.7,0.3,1.4,0.5,2.1,0.5c0.8,0,1.3-0.2,1.3-0.8c0-0.1,0-0.3-0.1-0.4c-0.1-0.1-0.3-0.3-0.5-0.3c-0.3-0.1-0.6-0.3-0.9-0.4
		c-0.6-0.2-1.1-0.5-1.5-0.9c-0.3-0.3-0.4-0.7-0.4-1.1c0-0.5,0.2-1,0.7-1.3c0.5-0.3,1.2-0.5,1.8-0.5c0.7,0,1.5,0.2,2.2,0.5l-0.5,1
		c-0.6-0.3-1.2-0.4-1.8-0.4c-0.7,0-1.1,0.2-1.1,0.6c0,0.2,0.1,0.4,0.3,0.5c0.4,0.2,0.8,0.4,1.2,0.6c0.4,0.1,0.8,0.3,1.2,0.6
		C428.2,150.5,428.4,151,428.4,151.6L428.4,151.6z"/>
</g>
<rect x="286.9" y="363.3" class="st6" width="97.3" height="90"/>
<rect x="397.7" y="363.3" class="st6" width="97.3" height="90"/>
<rect x="508.9" y="363.3" class="st6" width="97.3" height="90"/>
<rect x="551.6" y="288.6" class="st4" width="130.4" height="48.8"/>
<g>
	<path class="st5" d="M250.3,224.6l-0.9-2.4h-3.3l-0.8,2.4h-1.5l3.2-8.6h1.5l3.2,8.6H250.3z M249.1,221l-0.8-2.3
		c-0.1-0.1-0.1-0.4-0.2-0.7s-0.2-0.6-0.2-0.7c-0.1,0.5-0.3,1.1-0.5,1.6l-0.8,2.2L249.1,221z"/>
	<path class="st5" d="M258.4,218.6c0,0.8-0.3,1.5-0.9,2.1c-0.7,0.5-1.6,0.8-2.5,0.7h-0.9v3.2h-1.4V216h2.5c0.9-0.1,1.7,0.2,2.4,0.6
		C258.2,217.1,258.5,217.9,258.4,218.6z M254.1,220.2h0.7c0.6,0,1.1-0.1,1.6-0.4c0.4-0.3,0.5-0.7,0.5-1.2c0-0.4-0.1-0.8-0.5-1.1
		c-0.4-0.3-0.9-0.4-1.4-0.4h-1L254.1,220.2z"/>
	<path class="st5" d="M259.9,224.6V216h1.4v8.6L259.9,224.6z"/>
	<path class="st5" d="M233.1,234.3h3.2v4.3c-0.5,0.2-1,0.3-1.5,0.4c-0.5,0.1-1,0.1-1.5,0.1c-1.1,0.1-2.2-0.4-3-1.1
		c-0.7-0.9-1.1-2.1-1-3.2c-0.1-1.2,0.4-2.4,1.2-3.2c0.9-0.8,2.1-1.2,3.3-1.2c0.9,0,1.7,0.2,2.6,0.5l-0.5,1.2
		c-0.6-0.3-1.4-0.5-2.1-0.5c-0.8,0-1.6,0.3-2.2,0.9c-0.6,0.6-0.8,1.5-0.8,2.4c-0.1,0.9,0.2,1.7,0.7,2.4c0.5,0.6,1.3,0.9,2.1,0.8
		c0.5,0,1-0.1,1.4-0.2v-2.2h-1.8L233.1,234.3z"/>
	<path class="st5" d="M242,239l-0.3-0.9h-0.1c-0.2,0.3-0.6,0.6-0.9,0.8c-0.4,0.2-0.8,0.2-1.2,0.2c-0.5,0-1.1-0.1-1.5-0.5
		c-0.4-0.4-0.6-0.9-0.5-1.5c0-0.6,0.2-1.2,0.7-1.5c0.7-0.4,1.5-0.6,2.3-0.6h1.1v-0.3c0-0.3-0.1-0.7-0.3-0.9
		c-0.2-0.2-0.6-0.3-0.9-0.3c-0.3,0-0.6,0-0.9,0.1c-0.3,0.1-0.6,0.2-0.9,0.3l-0.4-1c0.4-0.2,0.8-0.3,1.2-0.4c0.4-0.1,0.8-0.1,1.2-0.1
		c0.7,0,1.3,0.1,1.9,0.5c0.5,0.4,0.7,1.1,0.6,1.7v4.3H242z M240,238.1c0.4,0,0.9-0.1,1.2-0.4c0.3-0.3,0.5-0.7,0.5-1.2v-0.6h-0.8
		c-0.5,0-1,0.1-1.4,0.3c-0.3,0.2-0.5,0.5-0.4,0.9c0,0.3,0.1,0.5,0.3,0.7C239.5,238,239.7,238,240,238.1L240,238.1z"/>
	<path class="st5" d="M247.1,238c0.3,0,0.7-0.1,1-0.2v1c-0.2,0.1-0.4,0.1-0.6,0.2c-0.2,0-0.5,0.1-0.8,0.1c-1.3,0-1.9-0.7-1.9-2.1
		v-3.5H244v-0.6l1-0.5l0.5-1.4h0.9v1.4h1.8v1h-1.8v3.5c0,0.3,0.1,0.5,0.2,0.7C246.7,237.9,246.9,238,247.1,238z"/>
	<path class="st5" d="M252.1,239.1c-0.9,0.1-1.7-0.3-2.4-0.9c-0.6-0.7-0.9-1.5-0.9-2.4c-0.1-0.9,0.2-1.8,0.8-2.5
		c0.6-0.6,1.3-0.9,2.2-0.9c0.7,0,1.5,0.3,2,0.8c0.5,0.6,0.8,1.4,0.7,2.1v0.7h-4.3c0,0.5,0.2,1.1,0.5,1.4c0.4,0.4,0.8,0.5,1.4,0.5
		c0.4,0,0.7,0,1.1-0.1c0.4-0.1,0.7-0.2,1.1-0.4v1.1c-0.3,0.2-0.7,0.3-1,0.3C252.9,239,252.5,239.1,252.1,239.1z M251.9,233.4
		c-0.4,0-0.7,0.1-1,0.4c-0.3,0.3-0.5,0.8-0.5,1.2h2.9c0-0.4-0.1-0.9-0.4-1.2C252.7,233.5,252.3,233.4,251.9,233.4z"/>
	<path class="st5" d="M261.3,239l-0.8-3c-0.1-0.3-0.3-1.1-0.6-2.2h0c-0.2,1.1-0.4,1.8-0.5,2.2l-0.9,3H257l-1.8-6.5h1.4l0.8,3.2
		c0.2,0.8,0.3,1.5,0.4,2l0,0c0-0.3,0.1-0.6,0.2-1s0.1-0.6,0.2-0.8l1-3.4h1.5l1,3.4c0,0.2,0.1,0.5,0.2,0.9c0.1,0.3,0.1,0.6,0.2,0.9h0
		c0.1-0.7,0.2-1.3,0.4-2l0.8-3.2h1.4l-1.9,6.5H261.3z"/>
	<path class="st5" d="M269.7,239l-0.3-0.9h0c-0.2,0.3-0.6,0.6-0.9,0.8c-0.4,0.2-0.8,0.2-1.2,0.2c-0.5,0-1.1-0.1-1.5-0.5
		c-0.4-0.4-0.6-0.9-0.5-1.5c0-0.6,0.3-1.2,0.8-1.5c0.7-0.4,1.5-0.6,2.3-0.6h1.1v-0.3c0-0.3-0.1-0.7-0.3-0.9
		c-0.2-0.2-0.6-0.3-0.9-0.3c-0.3,0-0.6,0-1,0.1c-0.3,0.1-0.6,0.2-0.9,0.3l-0.4-1c0.4-0.2,0.7-0.3,1.1-0.4c0.4-0.1,0.8-0.1,1.2-0.1
		c0.7,0,1.3,0.1,1.9,0.5c0.5,0.4,0.7,1.1,0.6,1.7v4.3H269.7z M267.6,238.1c0.4,0,0.9-0.1,1.2-0.4c0.3-0.3,0.5-0.7,0.5-1.2v-0.6h-0.8
		c-0.5,0-1,0.1-1.4,0.3c-0.3,0.2-0.5,0.5-0.5,0.9c0,0.3,0.1,0.5,0.3,0.7C267.1,238,267.4,238,267.6,238.1L267.6,238.1z"/>
	<path class="st5" d="M271.4,232.5h1.5l1.3,3.7c0.2,0.5,0.3,1,0.4,1.5h0c0-0.2,0.1-0.5,0.2-0.8s0.6-1.8,1.5-4.4h1.5l-2.8,7.3
		c-0.3,1.2-1.3,2-2.5,2c-0.3,0-0.6,0-0.9-0.1v-1.1c0.2,0,0.5,0.1,0.7,0.1c0.7,0,1.3-0.5,1.4-1.2l0.2-0.6L271.4,232.5z"/>
</g>
<path class="st7" d="M263.3,192.2c-0.4-2.1-0.9-4.1-1.6-6.1c-0.3,0.6-0.6,1.3-1,1.8c-3.7-3.9-9.9-3.9-13.7-0.2
	c-0.6,0.6-1.1,1.3-1.6,2c1.5,0.1,2.9,0.7,4,1.7c-1.1-0.7-2.4-1.1-3.8-1.1c-3.8,0-6.9,3.1-6.9,6.9c0,3.8,3.1,6.9,6.9,6.9h15.9
	c3.4,0,6.1-2.7,6.1-6.1C267.6,195.3,265.9,193,263.3,192.2L263.3,192.2z M248.5,201.9c-0.3,0.4-0.8,0.4-1.2,0.1s-0.4-0.8-0.1-1.2
	c0.3-0.4,0.8-0.4,1.2-0.1C248.7,201,248.8,201.5,248.5,201.9z M261.7,199c-2.4,3.2-7.5,2.1-10.8,2.3c-0.4,0-0.8,0.1-1.2,0.1
	c0,0,0.2-0.1,0.5-0.2c1.6-0.4,3.2-1,4.8-1.7c2.6-1.4,5.3-4.3,5.8-7.3c-1,2.9-4,5.5-6.8,6.5c-1.8,0.6-3.5,1-5.3,1.4l-0.1-0.1
	c-2.3-1.1-2.4-6.2,1.8-7.8c1.9-0.7,3.6-0.3,5.7-0.8c2.4-0.6,4.4-2.1,5.6-4.2C262.8,190.5,264.2,195.7,261.7,199z"/>
<rect x="29.5" y="127" class="st8" width="99.3" height="53.5"/>
<rect x="29.5" y="192.5" class="st8" width="99.3" height="53.5"/>
<g>
	<path class="st9" d="M59.8,150.7c-0.9,0-1.7,0.8-1.7,1.7c0,0.6,0.3,1.2,0.9,1.5v7.1h1.7v-7.1c0.8-0.5,1.1-1.5,0.6-2.3
		C60.9,151.1,60.4,150.7,59.8,150.7L59.8,150.7z"/>
	<path class="st9" d="M54.9,147.6l-1.2-1.2c-3.3,3.3-3.3,8.8,0,12.1l1.2-1.2C52.3,154.6,52.3,150.3,54.9,147.6z"/>
	<path class="st9" d="M65.8,146.4l-1.2,1.2c2.7,2.7,2.7,7,0,9.7l1.2,1.2C69.2,155.2,69.2,149.7,65.8,146.4L65.8,146.4z"/>
	<path class="st9" d="M56.1,148.8c-2,2-2,5.2,0,7.2c0,0,0,0,0,0l1.2-1.2c-0.6-0.6-1-1.5-1-2.4c0-0.9,0.4-1.8,1-2.4L56.1,148.8z"/>
	<path class="st9" d="M63.4,148.8l-1.2,1.2c0.6,0.6,1,1.5,1,2.4c0,0.9-0.4,1.8-1,2.4l1.2,1.2C65.4,154,65.4,150.8,63.4,148.8
		L63.4,148.8z"/>
</g>
<path class="st9" d="M59,214.1c0-0.9-0.8-1.7-1.7-1.7h0h-6.8c-0.9,0-1.7,0.8-1.7,1.7c0,0,0,0,0,0v13.7c0,0.9,0.8,1.7,1.7,1.7
	c0,0,0,0,0,0h6.8c0.9,0,1.7-0.8,1.7-1.7V214.1z M57.3,226.1h-6.8v-10.3h6.8L57.3,226.1z"/>
<circle class="st5" cx="53.9" cy="227.7" r="0.7"/>
<rect x="29.5" y="255.4" class="st8" width="99.3" height="53.5"/>
<g>
	<path class="st5" d="M77,157.8v-8.6h1.4v8.6L77,157.8z"/>
	<path class="st5" d="M86.1,154.6c0.1,0.9-0.2,1.8-0.8,2.5c-0.6,0.6-1.4,1-2.2,0.9c-0.6,0-1.1-0.1-1.6-0.4c-0.5-0.3-0.8-0.7-1.1-1.2
		c-0.3-0.6-0.4-1.2-0.4-1.8c-0.1-0.9,0.2-1.8,0.8-2.5c0.6-0.6,1.4-0.9,2.3-0.9c0.8,0,1.7,0.3,2.2,0.9
		C85.8,152.9,86.1,153.7,86.1,154.6z M81.3,154.6c0,1.5,0.6,2.2,1.7,2.2s1.6-0.8,1.6-2.2s-0.6-2.2-1.7-2.2c-0.5,0-1,0.2-1.3,0.6
		C81.4,153.4,81.3,154,81.3,154.6z"/>
	<path class="st5" d="M90.6,157.8h-1.4v-7.4h-2.5v-1.2h6.4v1.2h-2.5V157.8z"/>
	<path class="st5" d="M71.2,223.6l-2.5-7.1l0,0c0.1,1.1,0.1,2.1,0.1,3v4.2h-1.3v-8.6h2l2.4,6.8l0,0l2.4-6.8h2v8.6H75v-4.2
		c0-0.4,0-1,0-1.7s0-1.1,0-1.2l0,0l-2.6,7.1L71.2,223.6z"/>
	<path class="st5" d="M84,220.4c0.1,0.9-0.2,1.8-0.8,2.5c-0.6,0.6-1.4,0.9-2.3,0.9c-0.6,0-1.1-0.1-1.6-0.4c-0.5-0.3-0.8-0.7-1.1-1.2
		c-0.3-0.6-0.4-1.2-0.4-1.8c-0.1-0.9,0.2-1.8,0.8-2.5c0.6-0.6,1.5-1,2.3-0.9c0.8,0,1.7,0.3,2.2,0.9C83.8,218.6,84.1,219.5,84,220.4z
		 M79.3,220.4c0,1.5,0.6,2.2,1.7,2.2s1.6-0.8,1.6-2.2s-0.6-2.2-1.7-2.2c-0.5,0-1,0.2-1.3,0.6C79.4,219.2,79.3,219.8,79.3,220.4
		L79.3,220.4z"/>
	<path class="st5" d="M88.7,217c0.7,0,1.4,0.3,1.9,0.9c0.9,1.5,0.9,3.4,0,4.9c-0.9,1.1-2.5,1.2-3.5,0.3c-0.1-0.1-0.2-0.2-0.3-0.3
		h-0.1l-0.2,0.8h-1v-9.1h1.4v2.2c0,0.2,0,0.4,0,0.7s0,0.5,0,0.6h0.1C87.3,217.3,88,217,88.7,217z M88.4,218.1
		c-0.5,0-0.9,0.1-1.2,0.5c-0.3,0.5-0.4,1.1-0.4,1.6v0.1c0,0.6,0.1,1.2,0.4,1.7c0.3,0.4,0.8,0.6,1.2,0.5c0.4,0,0.9-0.2,1.1-0.6
		c0.3-0.5,0.4-1.1,0.4-1.7C89.9,218.9,89.4,218.1,88.4,218.1L88.4,218.1z"/>
	<path class="st5" d="M92.6,215.4c0-0.2,0.1-0.4,0.2-0.6c0.2-0.1,0.4-0.2,0.6-0.2c0.2,0,0.4,0.1,0.6,0.2c0.1,0.2,0.2,0.4,0.2,0.6
		c0,0.4-0.2,0.7-0.6,0.8c0,0-0.1,0-0.1,0c-0.2,0-0.4-0.1-0.6-0.2C92.7,215.8,92.6,215.6,92.6,215.4z M94.1,223.6h-1.4v-6.5h1.4
		V223.6z"/>
	<path class="st5" d="M97.3,223.6h-1.4v-9.1h1.4V223.6z"/>
	<path class="st5" d="M101.9,223.7c-0.9,0.1-1.7-0.3-2.4-0.9c-0.6-0.7-0.9-1.5-0.8-2.4c-0.1-0.9,0.2-1.8,0.8-2.5
		c0.6-0.6,1.4-1,2.2-0.9c0.7,0,1.5,0.2,2,0.8c0.5,0.6,0.8,1.4,0.8,2.1v0.8h-4.3c0,0.5,0.2,1,0.5,1.4c0.4,0.3,0.9,0.5,1.3,0.5
		c0.4,0,0.7,0,1.1-0.1c0.4-0.1,0.7-0.2,1.1-0.4v1.1c-0.3,0.2-0.7,0.3-1,0.3C102.7,223.7,102.3,223.7,101.9,223.7z M101.6,218.1
		c-0.4,0-0.8,0.1-1.1,0.4c-0.3,0.3-0.5,0.8-0.5,1.2h2.9c0-0.4-0.1-0.9-0.4-1.2C102.4,218.2,102,218.1,101.6,218.1z"/>
	<path class="st5" d="M66.3,278h2.6c0.9-0.1,1.8,0.1,2.6,0.5c0.5,0.4,0.8,1,0.8,1.6c0,0.4-0.1,0.9-0.4,1.2c-0.3,0.3-0.7,0.6-1.1,0.6
		v0.1c0.5,0.1,1,0.3,1.3,0.7c0.3,0.4,0.5,0.9,0.4,1.4c0,0.7-0.3,1.4-0.8,1.8c-0.7,0.5-1.4,0.7-2.2,0.6h-3.1L66.3,278z M67.8,281.5
		h1.3c0.4,0,0.9-0.1,1.3-0.3c0.3-0.2,0.4-0.6,0.4-0.9c0-0.3-0.2-0.7-0.4-0.9c-0.4-0.2-0.9-0.3-1.3-0.2h-1.2V281.5z M67.8,282.7v2.7
		h1.5c0.5,0,0.9-0.1,1.3-0.3c0.3-0.3,0.5-0.7,0.4-1.1c0-0.4-0.1-0.8-0.5-1c-0.4-0.2-0.9-0.4-1.4-0.3L67.8,282.7z"/>
	<path class="st5" d="M77.2,280c0.2,0,0.5,0,0.7,0.1l-0.1,1.3c-0.2,0-0.4-0.1-0.6-0.1c-0.5,0-1,0.2-1.3,0.5
		c-0.3,0.4-0.5,0.9-0.5,1.4v3.4H74v-6.5h1l0.2,1.1h0.1c0.2-0.4,0.5-0.7,0.8-0.9C76.4,280.1,76.8,280,77.2,280z"/>
	<path class="st5" d="M84.7,283.3c0.1,0.9-0.2,1.8-0.8,2.5c-0.6,0.6-1.4,0.9-2.3,0.9c-0.6,0-1.1-0.1-1.6-0.4
		c-0.5-0.3-0.8-0.7-1.1-1.2c-0.3-0.6-0.4-1.2-0.4-1.8c-0.1-0.9,0.2-1.8,0.8-2.5c0.6-0.6,1.4-0.9,2.3-0.9c0.8,0,1.7,0.3,2.2,0.9
		C84.4,281.6,84.7,282.5,84.7,283.3z M80,283.3c0,1.5,0.6,2.2,1.7,2.2s1.6-0.8,1.6-2.2s-0.6-2.2-1.7-2.2c-0.5,0-1,0.2-1.3,0.6
		C80.1,282.2,80,282.8,80,283.3L80,283.3z"/>
	<path class="st5" d="M91.4,286.6l-0.8-3c-0.1-0.3-0.3-1.1-0.6-2.2l0,0c-0.2,1.1-0.4,1.8-0.5,2.2l-0.9,3H87l-1.8-6.5h1.4l0.8,3.2
		c0.2,0.8,0.3,1.5,0.4,2l0,0c0-0.3,0.1-0.6,0.2-1s0.2-0.6,0.2-0.8l1-3.4h1.5l1,3.4c0.1,0.2,0.1,0.5,0.2,0.9c0.1,0.3,0.1,0.6,0.2,0.9
		l0,0c0.1-0.7,0.2-1.3,0.4-2l0.8-3.2h1.4l-1.7,6.5H91.4z"/>
	<path class="st5" d="M100.1,284.7c0,0.6-0.2,1.1-0.7,1.5c-0.6,0.4-1.3,0.6-2,0.5c-0.7,0-1.4-0.1-2.1-0.4v-1.2
		c0.7,0.3,1.4,0.5,2.1,0.5c0.8,0,1.3-0.2,1.3-0.8c0-0.1,0-0.3-0.1-0.4c-0.1-0.1-0.3-0.3-0.5-0.3c-0.3-0.2-0.6-0.3-0.9-0.4
		c-0.6-0.2-1.1-0.5-1.5-0.9c-0.3-0.3-0.4-0.7-0.4-1.1c0-0.5,0.2-1,0.7-1.3c0.6-0.3,1.2-0.5,1.8-0.4c0.7,0,1.5,0.2,2.2,0.5l-0.4,1
		c-0.6-0.3-1.2-0.4-1.8-0.4c-0.7,0-1.1,0.2-1.1,0.6c0,0.2,0.1,0.4,0.3,0.5c0.4,0.2,0.8,0.4,1.2,0.6c0.4,0.1,0.8,0.3,1.2,0.6
		C99.8,283.6,100.1,284.2,100.1,284.7L100.1,284.7z"/>
	<path class="st5" d="M104.2,286.7c-0.9,0-1.7-0.3-2.4-0.9c-0.6-0.7-0.9-1.5-0.8-2.4c0-0.9,0.2-1.8,0.8-2.5c0.6-0.6,1.4-1,2.2-0.9
		c0.7,0,1.5,0.2,2,0.8c0.5,0.6,0.8,1.4,0.8,2.1v0.7h-4.3c0,0.5,0.2,1,0.5,1.5c0.4,0.4,0.8,0.5,1.3,0.5c0.4,0,0.7,0,1.1-0.1
		c0.4-0.1,0.7-0.2,1.1-0.4v1.1c-0.3,0.2-0.7,0.3-1,0.3C105,286.7,104.6,286.7,104.2,286.7z M104,281c-0.4,0-0.8,0.1-1.1,0.4
		c-0.3,0.3-0.5,0.8-0.5,1.2h2.9c0-0.4-0.1-0.9-0.4-1.2C104.8,281.1,104.4,281,104,281z"/>
	<path class="st5" d="M111.4,280c0.2,0,0.5,0,0.7,0.1l-0.1,1.3c-0.2,0-0.4-0.1-0.6-0.1c-0.5,0-1,0.2-1.3,0.5
		c-0.3,0.4-0.5,0.9-0.5,1.4v3.4h-1.4v-6.5h1.1l0.2,1.1h0.1c0.2-0.4,0.5-0.7,0.8-0.9C110.6,280.1,111,280,111.4,280z"/>
</g>
<path class="st9" d="M56.7,276.8H44.8c-0.8,0-1.5,0.7-1.5,1.5l0,0v9c0,0.8,0.7,1.5,1.5,1.5c0,0,0,0,0,0h11.9c0.8,0,1.5-0.7,1.5-1.5
	l0,0v-9C58.2,277.5,57.5,276.8,56.7,276.8C56.7,276.8,56.7,276.8,56.7,276.8z M44.8,287.3v-6.5h11.9v6.5H44.8z"/>
<circle class="st5" cx="46.2" cy="278.7" r="0.7"/>
<rect x="355" y="185" class="st4" width="89.4" height="53.5"/>
<rect x="362.6" y="191.5" class="st4" width="89.4" height="53.5"/>
<rect x="370.1" y="198" class="st4" width="89.4" height="53.5"/>
<g>
	<path class="st5" d="M388.2,219.1c0,0.7-0.3,1.4-0.8,1.8c-0.7,0.5-1.5,0.7-2.3,0.6c-0.8,0-1.6-0.1-2.4-0.4v-1.3
		c0.4,0.2,0.8,0.3,1.2,0.4c0.4,0.1,0.8,0.1,1.2,0.1c0.4,0,0.9-0.1,1.2-0.3c0.3-0.2,0.4-0.5,0.4-0.9c0-0.3-0.1-0.6-0.4-0.8
		c-0.5-0.3-1-0.6-1.5-0.8c-0.6-0.2-1.2-0.6-1.6-1.1c-0.3-0.4-0.5-0.9-0.5-1.5c0-0.7,0.2-1.3,0.8-1.7c0.6-0.4,1.3-0.6,2-0.6
		c0.8,0,1.7,0.2,2.5,0.5l-0.4,1.1c-0.6-0.3-1.3-0.5-2-0.5c-0.4,0-0.7,0.1-1,0.3c-0.2,0.2-0.4,0.5-0.4,0.8c0,0.2,0,0.4,0.1,0.6
		c0.1,0.2,0.3,0.3,0.5,0.4c0.4,0.2,0.8,0.4,1.2,0.6c0.5,0.2,1,0.4,1.4,0.7c0.3,0.2,0.5,0.5,0.6,0.8
		C388.1,218.4,388.2,218.7,388.2,219.1z"/>
	<path class="st5" d="M392.8,221.5c-0.7,0-1.5-0.3-1.9-0.9h-0.1c0,0.6,0.1,0.9,0.1,1v2.6h-1.4v-9.4h1.1c0,0.1,0.1,0.4,0.2,0.9h0.1
		c0.4-0.7,1.2-1,1.9-1c0.7,0,1.4,0.3,1.9,0.9c0.5,0.7,0.7,1.6,0.7,2.5c0,0.9-0.2,1.8-0.7,2.5C394.2,221.2,393.5,221.5,392.8,221.5z
		 M392.5,215.9c-0.5,0-0.9,0.1-1.2,0.5c-0.3,0.5-0.4,1-0.4,1.5v0.2c0,0.6,0.1,1.2,0.4,1.7c0.3,0.4,0.7,0.6,1.2,0.5
		c0.4,0,0.9-0.2,1.1-0.6c0.3-0.5,0.4-1.1,0.4-1.7c0-0.6-0.1-1.2-0.4-1.6C393.3,216.1,392.9,215.9,392.5,215.9z"/>
	<path class="st5" d="M400.1,214.8c0.2,0,0.5,0,0.7,0.1l-0.1,1.3c-0.2,0-0.4-0.1-0.6-0.1c-0.5,0-1,0.2-1.3,0.5
		c-0.3,0.4-0.5,0.9-0.5,1.4v3.4h-1.4v-6.5h1.1l0.2,1.1h0.1c0.2-0.4,0.5-0.7,0.8-0.9C399.3,214.9,399.7,214.8,400.1,214.8z"/>
	<path class="st5" d="M401.7,213.2c0-0.2,0.1-0.4,0.2-0.6c0.2-0.1,0.4-0.2,0.6-0.2c0.4,0,0.7,0.2,0.8,0.6c0,0,0,0.1,0,0.1
		c0,0.2-0.1,0.4-0.2,0.6c-0.2,0.1-0.4,0.2-0.6,0.2c-0.2,0-0.4-0.1-0.6-0.2C401.8,213.6,401.7,213.4,401.7,213.2z M403.2,221.4h-1.4
		v-6.5h1.4V221.4z"/>
	<path class="st5" d="M410.6,221.4h-1.4v-4c0-0.4-0.1-0.8-0.3-1.1c-0.3-0.3-0.6-0.4-1-0.4c-0.5,0-1,0.1-1.3,0.5
		c-0.3,0.5-0.5,1.1-0.4,1.7v3.2H405v-6.5h1l0.2,0.9h0.1c0.2-0.3,0.5-0.6,0.8-0.7c0.4-0.2,0.8-0.3,1.2-0.3c1.1-0.2,2.2,0.6,2.3,1.8
		c0,0.2,0,0.4,0,0.6L410.6,221.4z"/>
	<path class="st5" d="M417.9,214.9v0.8l-1.1,0.2c0.1,0.2,0.2,0.3,0.2,0.5c0.1,0.2,0.1,0.4,0.1,0.6c0,0.6-0.2,1.2-0.7,1.6
		c-0.5,0.4-1.2,0.6-1.9,0.6c-0.2,0-0.4,0-0.6,0c-0.3,0.1-0.4,0.4-0.4,0.6c0,0.1,0.1,0.3,0.2,0.3c0.2,0.1,0.5,0.1,0.8,0.1h1.1
		c0.6,0,1.2,0.1,1.6,0.5c0.4,0.3,0.6,0.8,0.6,1.3c0,0.7-0.3,1.3-0.9,1.7c-0.8,0.4-1.7,0.6-2.6,0.6c-0.7,0-1.4-0.1-2-0.5
		c-0.4-0.3-0.7-0.8-0.7-1.3c0-0.4,0.1-0.7,0.4-1c0.3-0.3,0.7-0.5,1.1-0.6c-0.2-0.1-0.3-0.2-0.5-0.4c-0.1-0.2-0.2-0.4-0.2-0.6
		c0-0.2,0.1-0.4,0.2-0.6c0.2-0.2,0.4-0.4,0.6-0.5c-0.3-0.1-0.6-0.4-0.8-0.7c-0.3-0.4-0.4-0.8-0.4-1.2c0-0.6,0.2-1.2,0.7-1.6
		c0.5-0.4,1.2-0.6,1.9-0.6c0.2,0,0.4,0,0.6,0c0.2,0,0.3,0,0.5,0.1L417.9,214.9z M412.8,222.4c0,0.3,0.1,0.5,0.4,0.7
		c0.3,0.2,0.7,0.3,1.1,0.2c0.6,0,1.2-0.1,1.7-0.3c0.3-0.2,0.5-0.5,0.5-0.9c0-0.2-0.1-0.5-0.3-0.6c-0.4-0.1-0.7-0.2-1.1-0.2h-1
		c-0.3,0-0.7,0.1-0.9,0.3C412.9,221.8,412.8,222.1,412.8,222.4L412.8,222.4z M413.4,217c0,0.3,0.1,0.7,0.3,0.9
		c0.2,0.2,0.6,0.3,0.9,0.3c0.8,0,1.2-0.4,1.2-1.3c0-0.4-0.1-0.7-0.3-1c-0.5-0.5-1.3-0.5-1.8,0C413.4,216.3,413.3,216.6,413.4,217
		L413.4,217z"/>
	<path class="st5" d="M422,212.8h2.5c0.9-0.1,1.8,0.1,2.6,0.5c0.5,0.4,0.8,1,0.8,1.6c0,0.4-0.1,0.9-0.4,1.2
		c-0.3,0.3-0.7,0.6-1.1,0.6v0.1c0.5,0.1,1,0.3,1.3,0.7c0.3,0.4,0.5,0.9,0.4,1.4c0,0.7-0.3,1.4-0.8,1.8c-0.7,0.5-1.4,0.7-2.2,0.6H422
		V212.8z M423.4,216.4h1.4c0.4,0,0.9-0.1,1.3-0.3c0.3-0.2,0.5-0.6,0.4-1c0-0.3-0.2-0.7-0.4-0.9c-0.4-0.2-0.9-0.3-1.4-0.3h-1.2V216.4
		z M423.4,217.5v2.7h1.5c0.5,0,0.9-0.1,1.3-0.3c0.3-0.3,0.5-0.7,0.5-1.1c0-0.4-0.1-0.8-0.5-1c-0.4-0.2-0.9-0.4-1.4-0.3L423.4,217.5z
		"/>
	<path class="st5" d="M435.3,218.1c0.1,0.9-0.2,1.8-0.8,2.5c-0.6,0.6-1.4,0.9-2.3,0.9c-0.6,0-1.1-0.1-1.6-0.4
		c-0.5-0.3-0.8-0.7-1.1-1.2c-0.3-0.6-0.4-1.2-0.4-1.8c-0.1-0.9,0.2-1.8,0.8-2.5c0.6-0.6,1.4-0.9,2.3-0.9c0.8,0,1.7,0.3,2.2,0.9
		C435.1,216.4,435.4,217.3,435.3,218.1z M430.6,218.1c0,1.5,0.5,2.2,1.7,2.2s1.6-0.7,1.6-2.2s-0.5-2.2-1.6-2.2c-0.5,0-1,0.2-1.3,0.6
		C430.7,217,430.6,217.6,430.6,218.1z"/>
	<path class="st5" d="M442.5,218.1c0.1,0.9-0.2,1.8-0.8,2.5c-0.6,0.6-1.4,0.9-2.3,0.9c-0.6,0-1.1-0.1-1.6-0.4
		c-0.5-0.3-0.8-0.7-1.1-1.2c-0.3-0.6-0.4-1.2-0.4-1.8c-0.1-0.9,0.2-1.8,0.8-2.5c0.6-0.6,1.4-0.9,2.3-0.9c0.8,0,1.7,0.3,2.2,0.9
		C442.2,216.4,442.5,217.3,442.5,218.1z M437.7,218.1c0,1.5,0.5,2.2,1.7,2.2s1.6-0.7,1.6-2.2s-0.5-2.2-1.6-2.2c-0.5,0-1,0.2-1.3,0.6
		C437.8,217,437.7,217.6,437.7,218.1z"/>
	<path class="st5" d="M446.3,220.4c0.3,0,0.7-0.1,1-0.2v1c-0.2,0.1-0.4,0.1-0.6,0.2c-0.2,0-0.5,0.1-0.7,0.1c-1.3,0-2-0.7-2-2.1V216
		H443v-0.6l1-0.5l0.5-1.4h0.9v1.4h1.9v1h-1.9v3.5c0,0.3,0.1,0.5,0.2,0.7C445.8,220.3,446,220.4,446.3,220.4z"/>
	<path class="st5" d="M407.2,235.8l-0.9-2.4h-3.3l-0.8,2.4h-1.5l3.2-8.6h1.5l3.2,8.6H407.2z M406,232.2l-0.8-2.3l-0.2-0.7
		c-0.1-0.3-0.2-0.6-0.2-0.7c-0.1,0.5-0.3,1.1-0.5,1.6l-0.8,2.2H406z"/>
	<path class="st5" d="M412.8,235.9c-0.7,0-1.5-0.3-1.9-0.9h-0.1c0,0.6,0.1,0.9,0.1,1v2.6h-1.4v-9.4h1.1c0,0.1,0.1,0.4,0.2,0.9h0.1
		c0.4-0.7,1.2-1,1.9-1c0.7,0,1.4,0.3,1.9,0.9c0.9,1.5,0.9,3.5,0,5C414.2,235.6,413.5,236,412.8,235.9z M412.4,230.3
		c-0.5,0-0.9,0.1-1.2,0.5c-0.3,0.5-0.4,1-0.4,1.5v0.2c0,0.6,0.1,1.2,0.4,1.7c0.3,0.4,0.7,0.6,1.2,0.5c0.4,0,0.9-0.2,1.1-0.6
		c0.3-0.5,0.4-1.1,0.4-1.7c0-0.6-0.1-1.1-0.4-1.6C413.3,230.5,412.9,230.3,412.4,230.3z"/>
	<path class="st5" d="M420.1,235.9c-0.7,0-1.5-0.3-1.9-0.9h-0.1c0,0.6,0.1,0.9,0.1,1v2.6h-1.4v-9.4h1.1c0,0.1,0.1,0.4,0.2,0.9h0.1
		c0.4-0.7,1.2-1,1.9-1c0.7,0,1.4,0.3,1.9,0.9c0.9,1.5,0.9,3.5,0,5C421.5,235.6,420.8,236,420.1,235.9z M419.7,230.3
		c-0.5,0-0.9,0.1-1.2,0.5c-0.3,0.5-0.4,1-0.4,1.5v0.2c0,0.6,0.1,1.2,0.4,1.7c0.3,0.4,0.8,0.6,1.2,0.5c0.4,0,0.9-0.2,1.1-0.6
		c0.3-0.5,0.4-1.1,0.4-1.7c0-0.6-0.1-1.2-0.4-1.6C420.6,230.5,420.2,230.3,419.7,230.3z"/>
	<path class="st5" d="M428.4,234c0,0.6-0.2,1.1-0.7,1.4c-0.6,0.4-1.3,0.6-2,0.5c-0.7,0-1.4-0.1-2.1-0.4v-1.2
		c0.7,0.3,1.4,0.5,2.1,0.5c0.8,0,1.3-0.2,1.3-0.8c0-0.1,0-0.3-0.1-0.4c-0.1-0.1-0.3-0.3-0.5-0.3c-0.3-0.2-0.6-0.3-0.9-0.4
		c-0.6-0.2-1.1-0.5-1.5-0.9c-0.3-0.3-0.4-0.7-0.4-1.1c0-0.5,0.2-1,0.7-1.3c0.5-0.3,1.2-0.5,1.8-0.5c0.7,0,1.5,0.2,2.2,0.5l-0.5,1
		c-0.6-0.3-1.2-0.4-1.8-0.4c-0.7,0-1.1,0.2-1.1,0.6c0,0.2,0.1,0.4,0.3,0.5c0.4,0.2,0.8,0.4,1.2,0.6c0.4,0.1,0.8,0.3,1.2,0.6
		C428.2,232.9,428.4,233.4,428.4,234L428.4,234z"/>
</g>
<rect x="355" y="266" class="st4" width="89.4" height="53.5"/>
<rect x="362.6" y="272.4" class="st4" width="89.4" height="53.5"/>
<rect x="370.1" y="278.9" class="st4" width="89.4" height="53.5"/>
<g>
	<path class="st5" d="M388.2,300c0,0.7-0.3,1.4-0.8,1.8c-0.7,0.5-1.5,0.7-2.3,0.6c-0.8,0-1.6-0.1-2.4-0.5v-1.3
		c0.4,0.2,0.8,0.3,1.2,0.4c0.4,0.1,0.8,0.2,1.2,0.2c0.4,0,0.9-0.1,1.2-0.3c0.3-0.2,0.4-0.5,0.4-0.9c0-0.3-0.1-0.6-0.4-0.8
		c-0.5-0.3-1-0.6-1.5-0.8c-0.6-0.2-1.2-0.6-1.6-1.1c-0.3-0.4-0.5-0.9-0.5-1.5c0-0.7,0.2-1.3,0.8-1.7c0.6-0.4,1.3-0.6,2-0.6
		c0.8,0,1.7,0.2,2.5,0.5l-0.4,1.1c-0.6-0.3-1.3-0.5-2-0.5c-0.4,0-0.7,0.1-1,0.3c-0.2,0.2-0.4,0.5-0.4,0.8c0,0.2,0,0.4,0.1,0.6
		c0.1,0.2,0.3,0.3,0.5,0.5c0.4,0.2,0.8,0.4,1.2,0.5c0.5,0.2,1,0.4,1.4,0.7c0.3,0.2,0.5,0.5,0.6,0.8
		C388.1,299.3,388.2,299.7,388.2,300z"/>
	<path class="st5" d="M392.8,302.4c-0.7,0-1.5-0.3-1.9-0.9h-0.1c0,0.5,0.1,0.9,0.1,1v2.7h-1.4v-9.4h1.1c0,0.1,0.1,0.4,0.2,0.9h0.1
		c0.4-0.7,1.2-1,1.9-1c0.7,0,1.4,0.3,1.9,0.9c0.5,0.7,0.7,1.6,0.7,2.5c0,0.9-0.2,1.8-0.7,2.5C394.2,302.1,393.5,302.5,392.8,302.4z
		 M392.5,296.8c-0.5,0-0.9,0.1-1.2,0.5c-0.3,0.5-0.4,1-0.4,1.5v0.2c0,0.6,0.1,1.2,0.4,1.7c0.3,0.4,0.7,0.6,1.2,0.5
		c0.4,0,0.9-0.2,1.1-0.6c0.3-0.5,0.5-1.1,0.4-1.7c0-0.6-0.1-1.2-0.4-1.6C393.3,297,392.9,296.8,392.5,296.8L392.5,296.8z"/>
	<path class="st5" d="M400.1,295.7c0.2,0,0.5,0,0.7,0.1l-0.1,1.3c-0.2,0-0.4-0.1-0.6,0c-0.5,0-1,0.2-1.3,0.5
		c-0.3,0.4-0.5,0.9-0.5,1.4v3.4h-1.4v-6.5h1.1l0.2,1.1h0.1c0.2-0.4,0.5-0.7,0.8-0.9C399.3,295.8,399.7,295.7,400.1,295.7z"/>
	<path class="st5" d="M401.7,294.1c0-0.2,0.1-0.4,0.2-0.6c0.2-0.1,0.4-0.2,0.6-0.2c0.2,0,0.4,0.1,0.6,0.2c0.1,0.2,0.2,0.4,0.2,0.6
		c0,0.2-0.1,0.4-0.2,0.5c-0.2,0.1-0.4,0.2-0.6,0.2c-0.2,0-0.4-0.1-0.6-0.2C401.8,294.5,401.7,294.3,401.7,294.1z M403.2,302.3h-1.4
		v-6.5h1.4V302.3z"/>
	<path class="st5" d="M410.6,302.3h-1.4v-4c0-0.4-0.1-0.8-0.3-1.1c-0.3-0.3-0.6-0.4-1-0.4c-0.5,0-1,0.2-1.3,0.5
		c-0.3,0.5-0.5,1.1-0.4,1.7v3.2H405v-6.5h1l0.2,0.9h0.1c0.2-0.3,0.5-0.6,0.8-0.7c0.4-0.2,0.8-0.3,1.2-0.2c1.1-0.2,2.2,0.7,2.3,1.8
		c0,0.2,0,0.4,0,0.6L410.6,302.3z"/>
	<path class="st5" d="M417.9,295.8v0.8l-1.1,0.2c0.1,0.2,0.2,0.3,0.2,0.5c0.1,0.2,0.1,0.4,0.1,0.6c0,0.6-0.2,1.2-0.7,1.6
		c-0.5,0.4-1.2,0.6-1.9,0.6c-0.2,0-0.4,0-0.6,0c-0.2,0.1-0.4,0.4-0.4,0.6c0,0.1,0.1,0.3,0.2,0.3c0.2,0.1,0.5,0.1,0.8,0.1h1.1
		c0.6,0,1.2,0.1,1.6,0.5c0.4,0.3,0.6,0.8,0.6,1.3c0,0.7-0.3,1.3-0.9,1.7c-0.8,0.4-1.7,0.7-2.6,0.6c-0.7,0-1.4-0.1-2-0.5
		c-0.5-0.3-0.7-0.8-0.7-1.3c0-0.4,0.1-0.7,0.4-1c0.3-0.3,0.7-0.5,1.1-0.6c-0.2-0.1-0.3-0.2-0.5-0.4c-0.1-0.2-0.2-0.4-0.2-0.5
		c0-0.2,0.1-0.4,0.2-0.6c0.2-0.2,0.4-0.4,0.6-0.5c-0.3-0.2-0.6-0.4-0.8-0.7c-0.2-0.3-0.3-0.7-0.3-1.1c0-0.6,0.2-1.2,0.7-1.6
		c0.5-0.4,1.2-0.6,1.9-0.6c0.2,0,0.4,0,0.6,0c0.2,0,0.3,0,0.5,0.1L417.9,295.8z M412.8,303.3c0,0.3,0.1,0.6,0.4,0.7
		c0.3,0.2,0.7,0.3,1.1,0.2c0.6,0,1.1-0.1,1.7-0.3c0.3-0.2,0.5-0.5,0.5-0.9c0-0.2-0.1-0.5-0.3-0.6c-0.4-0.1-0.7-0.2-1.1-0.2h-1
		c-0.3,0-0.7,0.1-0.9,0.3C412.9,302.7,412.8,303,412.8,303.3z M413.4,297.9c0,0.3,0.1,0.7,0.3,0.9c0.2,0.2,0.6,0.4,0.9,0.3
		c0.8,0,1.2-0.4,1.2-1.3c0-0.4-0.1-0.7-0.3-1c-0.2-0.2-0.6-0.4-0.9-0.4c-0.3,0-0.7,0.1-0.9,0.3C413.4,297.2,413.3,297.6,413.4,297.9
		L413.4,297.9z"/>
	<path class="st5" d="M422,293.7h2.5c0.9-0.1,1.8,0.1,2.6,0.5c0.5,0.4,0.8,1,0.8,1.6c0,0.4-0.1,0.9-0.4,1.2
		c-0.3,0.3-0.7,0.6-1.1,0.6v0.1c0.5,0.1,1,0.3,1.3,0.7c0.3,0.4,0.5,0.9,0.4,1.4c0,0.7-0.3,1.4-0.8,1.8c-0.6,0.5-1.4,0.7-2.2,0.7H422
		V293.7z M423.4,297.3h1.4c0.4,0,0.9-0.1,1.2-0.3c0.3-0.2,0.4-0.6,0.4-1c0-0.3-0.2-0.7-0.4-0.9c-0.4-0.2-0.9-0.3-1.4-0.3h-1.2
		L423.4,297.3z M423.4,298.4v2.7h1.5c0.5,0,0.9-0.1,1.3-0.3c0.3-0.3,0.5-0.7,0.5-1.1c0-0.4-0.1-0.8-0.5-1c-0.4-0.2-0.9-0.4-1.4-0.3
		L423.4,298.4z"/>
	<path class="st5" d="M435.3,299c0.1,0.9-0.2,1.8-0.8,2.5c-0.6,0.6-1.4,0.9-2.3,0.9c-0.6,0-1.1-0.1-1.6-0.4
		c-0.5-0.3-0.8-0.7-1.1-1.2c-0.3-0.6-0.4-1.2-0.4-1.8c-0.1-0.9,0.2-1.8,0.8-2.5c0.6-0.6,1.4-0.9,2.3-0.9c0.8,0,1.7,0.3,2.2,0.9
		C435.1,297.3,435.4,298.2,435.3,299z M430.6,299c0,1.5,0.5,2.2,1.7,2.2s1.6-0.8,1.6-2.2s-0.5-2.2-1.6-2.2c-0.5,0-1,0.2-1.3,0.6
		C430.7,297.9,430.6,298.5,430.6,299z"/>
	<path class="st5" d="M442.5,299c0.1,0.9-0.2,1.8-0.8,2.5c-0.6,0.6-1.4,0.9-2.3,0.9c-0.6,0-1.1-0.1-1.6-0.4
		c-0.5-0.3-0.8-0.7-1.1-1.2c-0.3-0.6-0.4-1.2-0.4-1.8c-0.1-0.9,0.2-1.8,0.8-2.5c0.6-0.6,1.4-0.9,2.3-0.9c0.8,0,1.7,0.3,2.2,0.9
		C442.2,297.3,442.5,298.2,442.5,299z M437.7,299c0,1.5,0.5,2.2,1.7,2.2s1.6-0.8,1.6-2.2s-0.5-2.2-1.6-2.2c-0.5,0-1,0.2-1.3,0.6
		C437.8,297.9,437.7,298.5,437.7,299z"/>
	<path class="st5" d="M446.3,301.3c0.3,0,0.7-0.1,1-0.2v1c-0.2,0.1-0.4,0.1-0.6,0.2c-0.2,0-0.5,0.1-0.7,0.1c-1.3,0-2-0.7-2-2.1v-3.5
		H443v-0.6l1-0.5l0.5-1.4h0.9v1.5h1.9v1h-1.9v3.5c0,0.3,0.1,0.5,0.2,0.7C445.7,301.2,446,301.3,446.3,301.3z"/>
	<path class="st5" d="M407.2,316.7l-0.9-2.4h-3.3l-0.8,2.4h-1.5l3.2-8.6h1.5l3.2,8.6H407.2z M406,313.1l-0.8-2.3l-0.2-0.7
		c-0.1-0.3-0.2-0.6-0.2-0.7c-0.1,0.5-0.3,1.1-0.5,1.6l-0.8,2.2L406,313.1z"/>
	<path class="st5" d="M412.8,316.8c-0.7,0-1.5-0.3-1.9-0.9h-0.1c0,0.5,0.1,0.9,0.1,1v2.7h-1.4v-9.4h1.1c0,0.1,0.1,0.4,0.2,0.9h0.1
		c0.4-0.7,1.2-1,1.9-1c0.7,0,1.4,0.3,1.9,0.9c0.9,1.5,0.9,3.4,0,4.9C414.2,316.5,413.5,316.9,412.8,316.8z M412.4,311.2
		c-0.5,0-0.9,0.1-1.2,0.5c-0.3,0.5-0.4,1-0.4,1.5v0.2c0,0.6,0.1,1.2,0.4,1.7c0.3,0.4,0.8,0.6,1.2,0.5c0.4,0,0.9-0.2,1.1-0.6
		c0.5-1,0.5-2.3,0-3.3C413.3,311.4,412.9,311.2,412.4,311.2z"/>
	<path class="st5" d="M420.1,316.8c-0.7,0-1.5-0.3-1.9-0.9h-0.1c0,0.5,0.1,0.9,0.1,1v2.7h-1.4v-9.4h1.1c0,0.1,0.1,0.4,0.2,0.9h0.1
		c0.4-0.7,1.2-1,1.9-1c0.7,0,1.5,0.3,1.9,0.9c0.9,1.5,0.9,3.4,0,4.9C421.5,316.5,420.8,316.9,420.1,316.8z M419.7,311.2
		c-0.5,0-0.9,0.1-1.2,0.5c-0.3,0.5-0.4,1-0.4,1.5v0.2c0,0.6,0.1,1.2,0.4,1.7c0.3,0.4,0.8,0.6,1.2,0.5c0.4,0,0.9-0.2,1.1-0.6
		c0.3-0.5,0.4-1.1,0.4-1.7c0-0.6-0.1-1.2-0.4-1.6C420.6,311.4,420.2,311.2,419.7,311.2z"/>
	<path class="st5" d="M428.4,314.9c0,0.6-0.2,1.1-0.7,1.5c-0.6,0.4-1.3,0.5-2,0.5c-0.7,0-1.4-0.1-2.1-0.4v-1.2
		c0.7,0.3,1.4,0.5,2.1,0.5c0.8,0,1.3-0.3,1.3-0.8c0-0.1,0-0.3-0.1-0.4c-0.1-0.1-0.3-0.3-0.5-0.3c-0.3-0.2-0.6-0.3-0.9-0.4
		c-0.6-0.2-1.1-0.5-1.5-0.9c-0.3-0.3-0.4-0.7-0.4-1.1c0-0.5,0.2-1,0.7-1.3c0.5-0.3,1.2-0.5,1.8-0.5c0.7,0,1.5,0.2,2.2,0.5l-0.5,1
		c-0.6-0.3-1.2-0.4-1.8-0.4c-0.7,0-1.1,0.2-1.1,0.6c0,0.2,0.1,0.4,0.3,0.5c0.4,0.2,0.8,0.4,1.2,0.6c0.4,0.1,0.8,0.3,1.2,0.6
		c0.2,0.2,0.4,0.4,0.5,0.6C428.4,314.3,428.4,314.6,428.4,314.9z"/>
</g>
<rect x="541.9" y="54.8" class="st6" width="149.7" height="209.3"/>
<rect x="551.6" y="66.2" class="st4" width="130.4" height="48.9"/>
<rect x="551.6" y="134.8" class="st4" width="130.4" height="48.9"/>
<rect x="551.6" y="201.7" class="st4" width="130.4" height="48.9"/>
<g>
	<path class="st5" d="M602,307.8c0,0.7-0.3,1.4-0.8,1.8c-0.7,0.5-1.5,0.7-2.3,0.6c-0.8,0-1.6-0.1-2.4-0.5v-1.3
		c0.4,0.2,0.8,0.3,1.2,0.4c0.4,0.1,0.8,0.2,1.2,0.2c0.4,0,0.9-0.1,1.2-0.3c0.3-0.2,0.4-0.5,0.4-0.9c0-0.3-0.1-0.6-0.4-0.8
		c-0.5-0.3-1-0.6-1.5-0.8c-0.6-0.2-1.2-0.6-1.7-1.1c-0.3-0.4-0.5-0.9-0.5-1.5c0-0.7,0.3-1.3,0.8-1.7c0.6-0.4,1.3-0.6,2-0.6
		c0.8,0,1.7,0.2,2.5,0.5l-0.4,1.1c-0.6-0.3-1.3-0.5-2-0.5c-0.4,0-0.7,0.1-1,0.3c-0.2,0.2-0.4,0.5-0.3,0.8c0,0.2,0,0.4,0.1,0.6
		c0.1,0.2,0.3,0.3,0.5,0.5c0.4,0.2,0.8,0.4,1.2,0.5c0.5,0.2,1,0.4,1.4,0.7c0.3,0.2,0.5,0.5,0.7,0.8C602,307.2,602,307.5,602,307.8z"
		/>
	<path class="st5" d="M606.6,310.3c-0.7,0-1.5-0.3-1.9-0.9h-0.1c0,0.5,0.1,0.9,0.1,1v2.6h-1.4v-9.4h1.1c0,0.1,0.1,0.4,0.2,0.9h0.1
		c0.4-0.7,1.2-1,1.9-1c0.7,0,1.4,0.3,1.9,0.9c0.9,1.5,0.9,3.4,0,4.9C608.1,310,607.4,310.3,606.6,310.3z M606.3,304.7
		c-0.5,0-0.9,0.1-1.2,0.5c-0.3,0.5-0.4,1-0.4,1.5v0.2c0,0.6,0.1,1.2,0.4,1.7c0.3,0.4,0.8,0.6,1.2,0.5c0.4,0,0.9-0.2,1.1-0.6
		c0.5-1,0.5-2.3,0-3.3C607.1,304.9,606.7,304.7,606.3,304.7L606.3,304.7z"/>
	<path class="st5" d="M613.9,303.6c0.2,0,0.5,0,0.7,0.1l-0.1,1.3c-0.2,0-0.4-0.1-0.6-0.1c-0.5,0-1,0.2-1.3,0.5
		c-0.3,0.4-0.5,0.9-0.5,1.4v3.4h-1.4v-6.5h1.1l0.2,1.1h0.1c0.2-0.4,0.5-0.7,0.8-0.9C613.1,303.7,613.5,303.6,613.9,303.6z"/>
	<path class="st5" d="M615.5,302c0-0.2,0.1-0.4,0.2-0.6c0.2-0.1,0.4-0.2,0.6-0.2c0.2,0,0.4,0.1,0.6,0.2c0.1,0.2,0.2,0.4,0.2,0.6
		c0,0.2-0.1,0.4-0.2,0.5c-0.2,0.1-0.4,0.2-0.6,0.2c-0.2,0-0.4-0.1-0.6-0.2C615.6,302.4,615.5,302.2,615.5,302z M617,310.2h-1.4v-6.5
		h1.4L617,310.2z"/>
	<path class="st5" d="M624.5,310.2h-1.4v-4c0-0.4-0.1-0.8-0.3-1.1c-0.3-0.3-0.6-0.4-1-0.4c-0.5,0-1,0.2-1.3,0.5
		c-0.3,0.5-0.5,1.1-0.4,1.7v3.2h-1.4v-6.5h1.1l0.2,0.9h0.1c0.2-0.3,0.5-0.6,0.8-0.7c0.4-0.2,0.8-0.3,1.2-0.2
		c1.1-0.2,2.2,0.7,2.3,1.8c0,0.2,0,0.4,0,0.6L624.5,310.2z"/>
	<path class="st5" d="M631.7,303.7v0.8l-1.1,0.2c0.1,0.2,0.2,0.3,0.2,0.5c0.1,0.2,0.1,0.4,0.1,0.6c0,0.6-0.2,1.2-0.7,1.6
		c-0.5,0.4-1.2,0.6-1.9,0.6c-0.2,0-0.4,0-0.6,0c-0.3,0.1-0.4,0.4-0.5,0.6c0,0.1,0.1,0.3,0.2,0.3c0.2,0.1,0.5,0.1,0.8,0.1h1.1
		c0.6,0,1.2,0.1,1.6,0.5c0.4,0.3,0.6,0.8,0.6,1.3c0,0.7-0.3,1.3-0.9,1.7c-0.8,0.4-1.7,0.7-2.6,0.6c-0.7,0-1.4-0.1-2-0.5
		c-0.5-0.3-0.7-0.8-0.7-1.3c0-0.4,0.1-0.7,0.4-1c0.3-0.3,0.6-0.5,1-0.6c-0.2-0.1-0.3-0.2-0.5-0.4c-0.1-0.2-0.2-0.4-0.2-0.5
		c0-0.2,0.1-0.4,0.2-0.6c0.2-0.2,0.4-0.4,0.6-0.5c-0.3-0.1-0.6-0.4-0.8-0.7c-0.2-0.3-0.3-0.7-0.3-1.1c0-0.6,0.2-1.2,0.7-1.6
		c0.5-0.4,1.2-0.6,1.9-0.6c0.2,0,0.4,0,0.6,0c0.2,0,0.3,0,0.5,0.1L631.7,303.7z M626.6,311.2c0,0.3,0.1,0.6,0.4,0.7
		c0.3,0.2,0.7,0.3,1.1,0.2c0.6,0,1.1-0.1,1.7-0.3c0.3-0.2,0.5-0.5,0.5-0.9c0-0.2-0.1-0.5-0.3-0.6c-0.4-0.1-0.7-0.2-1.1-0.2h-1
		c-0.3,0-0.7,0.1-0.9,0.3C626.7,310.6,626.6,310.9,626.6,311.2L626.6,311.2z M627.2,305.8c0,0.3,0.1,0.7,0.3,0.9
		c0.2,0.2,0.6,0.4,0.9,0.3c0.8,0,1.2-0.4,1.2-1.3c0-0.4-0.1-0.7-0.3-1c-0.2-0.2-0.6-0.4-0.9-0.4c-0.3,0-0.7,0.1-0.9,0.3
		C627.3,305,627.1,305.4,627.2,305.8z"/>
	<path class="st5" d="M639.4,302.7c-0.7,0-1.4,0.3-1.9,0.9c-0.5,0.7-0.7,1.5-0.7,2.4c-0.1,0.8,0.2,1.7,0.7,2.4
		c0.5,0.6,1.2,0.9,1.9,0.8c0.4,0,0.7,0,1.1-0.1c0.4-0.1,0.7-0.2,1.1-0.3v1.2c-0.7,0.3-1.5,0.4-2.3,0.4c-1.1,0.1-2.1-0.3-2.9-1.1
		c-0.7-0.9-1.1-2.1-1-3.3c0-0.8,0.2-1.6,0.5-2.3c0.3-0.6,0.8-1.2,1.4-1.5c0.7-0.4,1.4-0.6,2.2-0.5c0.8,0,1.7,0.2,2.4,0.5l-0.5,1.2
		c-0.3-0.1-0.6-0.2-0.9-0.4C640.1,302.7,639.8,302.7,639.4,302.7z"/>
	<path class="st5" d="M644.4,310.2h-1.4v-9.1h1.4V310.2z"/>
	<path class="st5" d="M652,306.9c0.1,0.9-0.2,1.8-0.8,2.5c-0.6,0.6-1.4,0.9-2.3,0.9c-0.6,0-1.1-0.1-1.6-0.4
		c-0.5-0.3-0.8-0.7-1.1-1.2c-0.3-0.6-0.4-1.2-0.4-1.8c-0.1-0.9,0.2-1.8,0.8-2.5c0.6-0.6,1.4-0.9,2.3-0.9c0.8,0,1.7,0.3,2.2,0.9
		C651.7,305.2,652,306,652,306.9z M647.3,306.9c0,1.5,0.5,2.2,1.7,2.2s1.6-0.8,1.6-2.2s-0.5-2.2-1.7-2.2c-0.5,0-1,0.2-1.3,0.6
		C647.4,305.8,647.2,306.3,647.3,306.9L647.3,306.9z"/>
	<path class="st5" d="M658,310.2l-0.2-0.9h-0.1c-0.2,0.3-0.5,0.6-0.8,0.7c-0.4,0.2-0.8,0.3-1.2,0.2c-0.6,0.1-1.3-0.2-1.8-0.6
		c-0.4-0.5-0.6-1.1-0.6-1.8v-4.2h1.4v4c0,0.4,0.1,0.8,0.3,1.1c0.3,0.3,0.6,0.4,1,0.4c0.5,0,1-0.2,1.3-0.5c0.3-0.5,0.5-1.1,0.4-1.7
		v-3.2h1.3v6.5L658,310.2z"/>
	<path class="st5" d="M663,310.3c-0.7,0-1.4-0.3-1.9-0.9c-0.9-1.5-0.9-3.4,0-4.9c0.5-0.6,1.2-0.9,1.9-0.9c0.8,0,1.5,0.3,1.9,0.9h0
		c-0.1-0.4-0.1-0.7-0.1-1.1V301h1.4v9.1h-1.1l-0.2-0.9h-0.1C664.5,309.9,663.8,310.3,663,310.3z M663.4,309.2c0.5,0,0.9-0.1,1.2-0.5
		c0.3-0.5,0.4-1,0.4-1.5V307c0.1-0.6-0.1-1.2-0.4-1.7c-0.3-0.4-0.8-0.6-1.2-0.5c-0.5,0-0.9,0.2-1.1,0.6c-0.3,0.5-0.4,1.1-0.4,1.7
		c0,0.6,0.1,1.1,0.4,1.6C662.5,309,662.9,309.2,663.4,309.2z"/>
	<path class="st5" d="M602,322.2c0,0.7-0.3,1.4-0.8,1.8c-0.7,0.5-1.5,0.7-2.3,0.6c-0.8,0-1.6-0.1-2.4-0.5v-1.3
		c0.4,0.2,0.8,0.3,1.2,0.4c0.4,0.1,0.8,0.2,1.2,0.2c0.4,0,0.9-0.1,1.2-0.3c0.3-0.2,0.4-0.5,0.4-0.9c0-0.3-0.1-0.6-0.4-0.8
		c-0.5-0.3-1-0.6-1.5-0.8c-0.6-0.2-1.2-0.6-1.7-1.1c-0.3-0.4-0.5-0.9-0.5-1.5c0-0.7,0.2-1.3,0.8-1.7c0.6-0.4,1.3-0.6,2-0.6
		c0.8,0,1.7,0.2,2.5,0.5l-0.4,1.1c-0.6-0.3-1.3-0.5-2-0.5c-0.4,0-0.7,0.1-1,0.3c-0.2,0.2-0.4,0.5-0.3,0.8c0,0.2,0,0.4,0.1,0.6
		c0.1,0.2,0.3,0.3,0.5,0.5c0.4,0.2,0.8,0.4,1.2,0.5c0.5,0.2,1,0.4,1.4,0.7c0.3,0.2,0.5,0.5,0.7,0.8C602,321.6,602,321.9,602,322.2z"
		/>
	<path class="st5" d="M604.7,324.6h-1.4v-9.1h1.4V324.6z"/>
	<path class="st5" d="M609.3,324.7c-0.9,0.1-1.7-0.3-2.4-0.9c-0.6-0.7-0.9-1.5-0.9-2.4c-0.1-0.9,0.2-1.8,0.8-2.5
		c0.6-0.6,1.4-1,2.2-0.9c0.7,0,1.5,0.3,2,0.8c0.5,0.6,0.8,1.4,0.7,2.1v0.8h-4.3c0,0.5,0.2,1,0.5,1.5c0.4,0.3,0.9,0.5,1.3,0.5
		c0.4,0,0.7,0,1.1-0.1c0.4-0.1,0.7-0.2,1.1-0.4v1.1c-0.3,0.2-0.7,0.3-1,0.3C610.1,324.7,609.7,324.7,609.3,324.7z M609.1,319
		c-0.4,0-0.7,0.1-1,0.4c-0.3,0.3-0.5,0.8-0.5,1.2h3c0-0.4-0.1-0.9-0.4-1.2C609.9,319.1,609.5,319,609.1,319L609.1,319z"/>
	<path class="st5" d="M617.8,324.6l-0.2-0.9h-0.1c-0.2,0.3-0.5,0.6-0.8,0.7c-0.4,0.2-0.8,0.3-1.2,0.2c-0.6,0.1-1.3-0.2-1.8-0.6
		c-0.4-0.5-0.6-1.1-0.6-1.8v-4.2h1.4v4c0,0.4,0.1,0.8,0.3,1.1c0.2,0.3,0.6,0.4,1,0.4c0.5,0,1-0.2,1.3-0.5c0.3-0.5,0.5-1.1,0.4-1.7
		v-3.2h1.4v6.5L617.8,324.6z"/>
	<path class="st5" d="M623.1,323.6c0.3,0,0.7-0.1,1-0.2v1c-0.2,0.1-0.4,0.1-0.6,0.2c-0.2,0-0.5,0.1-0.8,0.1c-1.3,0-2-0.7-2-2.1v-3.5
		h-0.9v-0.6l1-0.5l0.5-1.4h0.8v1.5h1.8v1h-1.8v3.5c0,0.3,0.1,0.5,0.2,0.7C622.6,323.4,622.8,323.6,623.1,323.6z"/>
	<path class="st5" d="M630.9,324.6h-1.4v-4c0-0.4-0.1-0.8-0.3-1.1c-0.3-0.3-0.6-0.4-1-0.4c-0.5,0-1,0.2-1.3,0.5
		c-0.3,0.5-0.5,1.1-0.4,1.7v3.2h-1.4v-9.1h1.4v2.3c0,0.4,0,0.8-0.1,1.2h0.1c0.2-0.3,0.5-0.6,0.8-0.7c0.4-0.2,0.8-0.3,1.2-0.3
		c1.1-0.2,2.2,0.6,2.4,1.8c0,0.2,0,0.4,0,0.6L630.9,324.6z"/>
	<path class="st5" d="M600.7,80.3c-0.7,0-1.4,0.3-1.9,0.9c-0.5,0.7-0.7,1.5-0.7,2.4c-0.1,0.8,0.2,1.7,0.7,2.4
		c0.5,0.6,1.2,0.9,1.9,0.8c0.3,0,0.7,0,1-0.1c0.4-0.1,0.7-0.2,1.1-0.3v1.2c-0.7,0.3-1.5,0.4-2.3,0.4c-1.1,0.1-2.1-0.3-2.9-1.1
		c-0.7-0.9-1.1-2.1-1-3.3c0-0.8,0.1-1.6,0.5-2.3c0.3-0.6,0.8-1.2,1.4-1.5c0.7-0.4,1.4-0.5,2.2-0.5c0.8,0,1.7,0.2,2.4,0.6l-0.5,1.2
		c-0.3-0.1-0.6-0.3-0.9-0.4C601.3,80.4,601,80.3,600.7,80.3z"/>
	<path class="st5" d="M610.1,84.6c0.1,0.9-0.2,1.8-0.8,2.5c-0.6,0.6-1.4,1-2.3,0.9c-0.6,0-1.1-0.1-1.6-0.4c-0.5-0.3-0.8-0.7-1.1-1.2
		c-0.3-0.6-0.4-1.2-0.4-1.8c-0.1-0.9,0.2-1.8,0.8-2.5c0.6-0.6,1.4-0.9,2.3-0.9c0.8,0,1.7,0.3,2.2,0.9
		C609.8,82.9,610.1,83.7,610.1,84.6z M605.4,84.6c0,1.5,0.6,2.2,1.7,2.2s1.6-0.8,1.6-2.2s-0.5-2.2-1.7-2.2c-0.5,0-1,0.2-1.3,0.6
		C605.4,83.4,605.3,84,605.4,84.6L605.4,84.6z"/>
	<path class="st5" d="M617.2,87.8h-1.4v-4c0-0.4-0.1-0.8-0.3-1.1c-0.3-0.3-0.6-0.4-1-0.4c-0.5,0-1,0.1-1.3,0.5
		c-0.3,0.5-0.5,1.1-0.4,1.7v3.2h-1.4v-6.5h1.1l0.2,0.8h0.1c0.2-0.3,0.5-0.6,0.8-0.7c0.4-0.2,0.8-0.3,1.2-0.2
		c1.1-0.2,2.2,0.6,2.3,1.8c0,0.2,0,0.4,0,0.6L617.2,87.8z"/>
	<path class="st5" d="M622.2,82.4h-1.6v5.4h-1.4v-5.4h-1.1v-0.6l1.1-0.4v-0.4c0-0.6,0.1-1.2,0.5-1.7c0.4-0.4,1-0.6,1.6-0.6
		c0.5,0,1,0.1,1.4,0.2l-0.4,1c-0.3-0.1-0.7-0.2-1-0.2c-0.3,0-0.5,0.1-0.7,0.3c-0.2,0.3-0.2,0.6-0.2,0.9v0.4h1.6L622.2,82.4z
		 M623.2,79.6c0-0.2,0.1-0.4,0.2-0.6c0.2-0.1,0.4-0.2,0.6-0.2c0.4,0,0.7,0.2,0.8,0.6c0,0,0,0.1,0,0.1c0,0.2-0.1,0.4-0.2,0.6
		c-0.2,0.1-0.4,0.2-0.6,0.2c-0.2,0-0.4-0.1-0.6-0.2C623.2,80,623.2,79.8,623.2,79.6L623.2,79.6z M624.6,87.8h-1.4v-6.5h1.4V87.8z"/>
	<path class="st5" d="M631.9,81.3v0.8l-1.1,0.2c0.1,0.2,0.2,0.3,0.2,0.5c0.1,0.2,0.1,0.4,0.1,0.6c0,0.6-0.2,1.2-0.7,1.6
		c-0.5,0.4-1.2,0.6-1.9,0.6c-0.2,0-0.4,0-0.6,0c-0.2,0.1-0.4,0.4-0.4,0.6c0,0.1,0.1,0.3,0.2,0.3c0.2,0.1,0.5,0.1,0.8,0.1h1.1
		c0.6,0,1.2,0.1,1.6,0.5c0.4,0.3,0.6,0.8,0.6,1.3c0,0.7-0.3,1.3-0.9,1.7c-0.8,0.4-1.7,0.7-2.6,0.6c-0.7,0-1.4-0.1-2-0.5
		c-0.5-0.3-0.7-0.8-0.7-1.3c0-0.4,0.1-0.7,0.4-1c0.3-0.3,0.7-0.5,1.1-0.6c-0.2-0.1-0.3-0.2-0.5-0.4c-0.2-0.3-0.2-0.8,0-1.2
		c0.2-0.2,0.4-0.4,0.6-0.5c-0.3-0.1-0.6-0.4-0.8-0.7c-0.5-0.9-0.4-2,0.3-2.8c0.5-0.4,1.2-0.6,1.9-0.6c0.3,0,0.7,0,1,0.1L631.9,81.3z
		 M626.8,88.8c0,0.3,0.1,0.5,0.4,0.7c0.3,0.2,0.7,0.3,1.1,0.2c0.6,0,1.2-0.1,1.7-0.3c0.3-0.2,0.5-0.5,0.5-0.8c0-0.2-0.1-0.5-0.3-0.6
		c-0.4-0.1-0.7-0.2-1.1-0.2h-1c-0.4,0-0.7,0.1-1,0.3C626.9,88.3,626.8,88.5,626.8,88.8L626.8,88.8z M627.4,83.4
		c0,0.3,0.1,0.7,0.3,0.9c0.2,0.2,0.6,0.4,0.9,0.3c0.8,0,1.2-0.4,1.2-1.3c0-0.4-0.1-0.7-0.3-1c-0.5-0.5-1.3-0.5-1.8,0
		C627.5,82.7,627.4,83.1,627.4,83.4z"/>
	<path class="st5" d="M602,99.9c0,0.7-0.3,1.4-0.8,1.8c-0.7,0.5-1.5,0.7-2.3,0.7c-0.8,0-1.6-0.1-2.4-0.4v-1.3
		c0.4,0.2,0.8,0.3,1.2,0.4c0.4,0.1,0.8,0.2,1.2,0.2c0.4,0,0.9-0.1,1.2-0.3c0.3-0.2,0.4-0.5,0.4-0.8c0-0.3-0.1-0.6-0.4-0.8
		c-0.5-0.3-1-0.6-1.5-0.8c-0.6-0.2-1.2-0.6-1.7-1.1c-0.3-0.4-0.5-0.9-0.5-1.5c0-0.7,0.3-1.3,0.8-1.7c0.6-0.4,1.3-0.6,2-0.6
		c0.8,0,1.7,0.2,2.5,0.5l-0.4,1.1c-0.6-0.3-1.3-0.5-2-0.5c-0.4,0-0.7,0.1-1,0.3c-0.2,0.2-0.4,0.5-0.3,0.8c0,0.2,0,0.4,0.1,0.6
		c0.1,0.2,0.3,0.3,0.5,0.4c0.4,0.2,0.8,0.4,1.2,0.6c0.5,0.2,1,0.4,1.4,0.7c0.3,0.2,0.5,0.5,0.7,0.8C602,99.2,602,99.6,602,99.9z"/>
	<path class="st5" d="M606.2,102.3c-0.9,0-1.7-0.3-2.4-0.9c-0.6-0.7-0.9-1.5-0.8-2.4c-0.1-0.9,0.2-1.8,0.8-2.5
		c0.5-0.6,1.3-1,2.2-0.9c0.7,0,1.5,0.3,2,0.8c0.5,0.6,0.8,1.4,0.7,2.2v0.7h-4.3c0,0.5,0.2,1,0.5,1.4c0.4,0.4,0.8,0.5,1.3,0.5
		c0.4,0,0.7,0,1.1-0.1c0.4-0.1,0.7-0.2,1.1-0.4v1.1c-0.3,0.2-0.7,0.3-1,0.3C606.9,102.3,606.5,102.4,606.2,102.3z M605.9,96.7
		c-0.4,0-0.7,0.2-1,0.4c-0.3,0.3-0.5,0.8-0.5,1.2h2.9c0-0.4-0.1-0.9-0.4-1.2C606.7,96.8,606.3,96.6,605.9,96.7z"/>
	<path class="st5" d="M613.3,95.6c0.2,0,0.5,0,0.7,0.1l-0.1,1.3c-0.2,0-0.4-0.1-0.6-0.1c-0.5,0-1,0.2-1.3,0.5
		c-0.3,0.4-0.5,0.9-0.5,1.4v3.4H610v-6.5h1.1l0.2,1.1h0.1c0.2-0.4,0.5-0.7,0.8-0.9C612.6,95.7,612.9,95.6,613.3,95.6z"/>
	<path class="st5" d="M616.5,102.2l-2.5-6.5h1.5l1.3,3.8c0.2,0.5,0.3,1,0.4,1.5l0,0c0.1-0.5,0.2-1,0.4-1.5l1.4-3.8h1.5l-2.5,6.5
		H616.5z"/>
	<path class="st5" d="M624.1,102.3c-0.9,0-1.7-0.3-2.4-0.9c-0.6-0.7-0.9-1.6-0.8-2.5c-0.1-0.9,0.2-1.8,0.8-2.5
		c0.5-0.6,1.3-1,2.2-0.9c0.7,0,1.5,0.3,2,0.8c0.5,0.6,0.8,1.4,0.7,2.2v0.7h-4.3c0,0.5,0.2,1,0.5,1.4c0.4,0.4,0.8,0.5,1.3,0.5
		c0.4,0,0.7,0,1.1-0.1c0.4-0.1,0.7-0.2,1.1-0.4v1.1c-0.3,0.2-0.7,0.3-1,0.3C624.9,102.3,624.5,102.3,624.1,102.3z M623.9,96.7
		c-0.4,0-0.8,0.1-1,0.4c-0.3,0.3-0.5,0.8-0.5,1.2h2.9c0-0.4-0.1-0.9-0.4-1.2C624.6,96.8,624.2,96.7,623.9,96.7z"/>
	<path class="st5" d="M631.3,95.6c0.2,0,0.5,0,0.7,0.1l-0.1,1.3c-0.2,0-0.4-0.1-0.6-0.1c-0.5,0-1,0.2-1.3,0.5
		c-0.3,0.4-0.5,0.9-0.5,1.4v3.4H628v-6.5h1.1l0.2,1.1h0.1c0.2-0.4,0.5-0.7,0.8-0.9C630.5,95.7,630.9,95.6,631.3,95.6z"/>
	<path class="st5" d="M602,154.1c0,0.7-0.3,1.4-0.8,1.8c-0.7,0.5-1.5,0.7-2.3,0.6c-0.8,0-1.6-0.1-2.4-0.4v-1.3
		c0.4,0.2,0.8,0.3,1.2,0.4c0.4,0.1,0.8,0.2,1.2,0.2c0.4,0,0.9-0.1,1.2-0.3c0.3-0.2,0.4-0.5,0.4-0.9c0-0.3-0.1-0.6-0.4-0.8
		c-0.5-0.3-1-0.6-1.5-0.8c-0.6-0.2-1.2-0.6-1.7-1.1c-0.3-0.4-0.5-0.9-0.5-1.5c0-0.7,0.2-1.3,0.8-1.7c0.6-0.4,1.3-0.6,2-0.6
		c0.8,0,1.7,0.2,2.5,0.5l-0.4,1.1c-0.6-0.3-1.3-0.5-2-0.5c-0.4,0-0.7,0.1-1,0.3c-0.2,0.2-0.4,0.5-0.3,0.8c0,0.2,0,0.4,0.1,0.6
		c0.1,0.2,0.3,0.3,0.5,0.4c0.4,0.2,0.8,0.4,1.2,0.6c0.5,0.2,1,0.4,1.4,0.7c0.3,0.2,0.5,0.5,0.7,0.8C602,153.5,602,153.8,602,154.1z"
		/>
	<path class="st5" d="M606.2,156.6c-0.9,0-1.7-0.3-2.4-0.9c-0.6-0.7-0.9-1.5-0.8-2.4c-0.1-0.9,0.2-1.8,0.8-2.5
		c0.6-0.6,1.3-0.9,2.2-0.9c0.7,0,1.5,0.3,2,0.8c0.5,0.6,0.8,1.4,0.7,2.1v0.7h-4.3c0,0.5,0.2,1,0.5,1.4c0.4,0.4,0.8,0.5,1.3,0.5
		c0.4,0,0.7,0,1.1-0.1c0.4-0.1,0.7-0.2,1.1-0.4v1.1c-0.3,0.2-0.7,0.3-1,0.3C606.9,156.6,606.5,156.6,606.2,156.6z M605.9,150.9
		c-0.4,0-0.7,0.1-1,0.4c-0.3,0.3-0.5,0.8-0.5,1.2h2.9c0-0.4-0.1-0.9-0.4-1.2C606.7,151,606.3,150.9,605.9,150.9z"/>
	<path class="st5" d="M613.3,149.9c0.2,0,0.5,0,0.7,0.1l-0.1,1.3c-0.2,0-0.4-0.1-0.6-0.1c-0.5,0-1,0.2-1.3,0.5
		c-0.3,0.4-0.5,0.9-0.5,1.4v3.4H610V150h1.1l0.2,1.1h0.1c0.2-0.4,0.5-0.7,0.8-0.9C612.6,150,612.9,149.9,613.3,149.9z"/>
	<path class="st5" d="M616.5,156.5l-2.5-6.5h1.5l1.3,3.8c0.2,0.5,0.3,1,0.4,1.5l0,0c0.1-0.5,0.2-1,0.4-1.5l1.4-3.8h1.5l-2.5,6.5
		H616.5z"/>
	<path class="st5" d="M621.2,148.3c0-0.2,0.1-0.4,0.2-0.6c0.2-0.1,0.4-0.2,0.6-0.2c0.4,0,0.7,0.2,0.8,0.6c0,0,0,0.1,0,0.1
		c0,0.2-0.1,0.4-0.2,0.6c-0.2,0.1-0.4,0.2-0.6,0.2c-0.2,0-0.4-0.1-0.6-0.2C621.3,148.7,621.2,148.5,621.2,148.3z M622.7,156.5h-1.4
		V150h1.4V156.5z"/>
	<path class="st5" d="M627.1,156.6c-0.8,0.1-1.7-0.3-2.2-0.9c-0.6-0.7-0.8-1.6-0.8-2.5c-0.1-0.9,0.2-1.8,0.8-2.5
		c0.6-0.6,1.4-0.9,2.3-0.9c0.6,0,1.3,0.1,1.8,0.4l-0.4,1.1c-0.5-0.2-0.9-0.3-1.4-0.3c-1.1,0-1.7,0.8-1.7,2.2c0,0.6,0.1,1.2,0.4,1.6
		c0.3,0.4,0.8,0.6,1.2,0.6c0.6,0,1.2-0.2,1.7-0.5v1.2c-0.2,0.1-0.5,0.3-0.8,0.3C627.7,156.6,627.4,156.6,627.1,156.6z"/>
	<path class="st5" d="M633,156.6c-0.9,0-1.7-0.3-2.4-0.9c-0.6-0.7-0.9-1.5-0.9-2.4c0-0.9,0.2-1.8,0.8-2.5c0.5-0.6,1.3-0.9,2.2-0.9
		c0.7,0,1.5,0.3,2,0.8c0.5,0.6,0.8,1.4,0.7,2.1v0.7h-4.3c0,0.5,0.2,1,0.5,1.4c0.4,0.4,0.9,0.5,1.4,0.5c0.4,0,0.7,0,1.1-0.1
		c0.4-0.1,0.7-0.2,1.1-0.4v1.1c-0.3,0.2-0.7,0.3-1,0.3C633.8,156.6,633.4,156.6,633,156.6z M632.8,150.9c-0.4,0-0.7,0.1-1,0.4
		c-0.3,0.3-0.5,0.8-0.5,1.2h2.9c0-0.4-0.1-0.9-0.4-1.2C633.6,151,633.2,150.9,632.8,150.9L632.8,150.9z"/>
	<path class="st5" d="M598.4,167.4v3.4H597v-8.6h2.4c0.9-0.1,1.7,0.2,2.5,0.6c0.6,0.5,0.9,1.2,0.8,1.9c0,1-0.7,2-1.7,2.3l2.4,3.8
		h-1.6l-2-3.4H598.4z M598.4,166.3h1c0.5,0,1-0.1,1.4-0.4c0.3-0.3,0.5-0.7,0.4-1.1c0-0.4-0.1-0.8-0.5-1.1c-0.4-0.2-0.9-0.3-1.4-0.3
		h-0.9L598.4,166.3z"/>
	<path class="st5" d="M607.2,171c-0.9,0-1.7-0.3-2.4-0.9c-0.6-0.7-0.9-1.5-0.8-2.4c-0.1-0.9,0.2-1.8,0.8-2.5
		c0.6-0.6,1.4-0.9,2.2-0.9c0.7,0,1.5,0.2,2,0.8c0.5,0.6,0.8,1.4,0.8,2.1v0.7h-4.3c0,0.5,0.2,1,0.5,1.4c0.4,0.4,0.8,0.5,1.3,0.5
		c0.4,0,0.7,0,1.1-0.1c0.4-0.1,0.7-0.2,1.1-0.4v1.1c-0.3,0.2-0.7,0.3-1,0.3C608,171,607.6,171,607.2,171z M607,165.3
		c-0.4,0-0.8,0.1-1.1,0.4c-0.3,0.3-0.5,0.8-0.5,1.2h2.9c0-0.4-0.1-0.9-0.4-1.2C607.7,165.5,607.4,165.3,607,165.3L607,165.3z"/>
	<path class="st5" d="M616.6,164.4v0.8l-1.1,0.2c0.1,0.2,0.2,0.3,0.2,0.5c0.1,0.2,0.1,0.4,0.1,0.6c0,0.6-0.2,1.2-0.7,1.6
		c-0.5,0.4-1.2,0.6-1.9,0.6c-0.2,0-0.4,0-0.6,0c-0.3,0.1-0.4,0.4-0.5,0.6c0,0.1,0.1,0.3,0.2,0.3c0.2,0.1,0.5,0.1,0.8,0.1h1.1
		c0.6,0,1.2,0.1,1.6,0.5c0.4,0.3,0.6,0.8,0.5,1.3c0,0.7-0.3,1.3-0.9,1.7c-0.8,0.4-1.7,0.6-2.6,0.6c-0.7,0-1.4-0.1-2-0.5
		c-0.5-0.3-0.7-0.8-0.7-1.3c0-0.4,0.1-0.7,0.4-1c0.3-0.3,0.7-0.5,1.1-0.6c-0.2-0.1-0.3-0.2-0.5-0.4c-0.1-0.2-0.2-0.4-0.2-0.6
		c0-0.2,0.1-0.4,0.2-0.6c0.2-0.2,0.4-0.4,0.6-0.5c-0.3-0.1-0.6-0.4-0.8-0.7c-0.2-0.3-0.3-0.7-0.3-1.1c0-0.6,0.2-1.2,0.7-1.6
		c0.5-0.4,1.2-0.6,1.9-0.6c0.2,0,0.4,0,0.6,0c0.2,0,0.3,0,0.5,0.1L616.6,164.4z M611.5,171.9c0,0.3,0.2,0.5,0.4,0.7
		c0.3,0.2,0.7,0.3,1.1,0.2c0.6,0,1.2-0.1,1.7-0.3c0.3-0.2,0.5-0.5,0.5-0.9c0-0.2-0.1-0.5-0.3-0.6c-0.4-0.1-0.7-0.2-1.1-0.2h-1
		c-0.3,0-0.7,0.1-0.9,0.3C611.6,171.3,611.5,171.6,611.5,171.9L611.5,171.9z M612.1,166.5c0,0.3,0.1,0.7,0.3,0.9
		c0.2,0.2,0.6,0.3,0.9,0.3c0.8,0,1.2-0.4,1.2-1.3c0-0.4-0.1-0.7-0.3-1c-0.2-0.2-0.6-0.4-0.9-0.3c-0.3,0-0.7,0.1-0.9,0.3
		C612.2,165.8,612.1,166.1,612.1,166.5L612.1,166.5z"/>
	<path class="st5" d="M617.5,162.7c0-0.4,0.3-0.7,0.7-0.8c0,0,0.1,0,0.1,0c0.4,0,0.7,0.2,0.8,0.6c0,0,0,0.1,0,0.1
		c0,0.2-0.1,0.4-0.2,0.6c-0.2,0.1-0.4,0.2-0.6,0.2c-0.2,0-0.4-0.1-0.6-0.2C617.6,163.1,617.5,162.9,617.5,162.7z M619,170.9h-1.4
		v-6.5h1.4L619,170.9z"/>
	<path class="st5" d="M625.1,169c0,0.6-0.2,1.1-0.7,1.4c-0.6,0.4-1.3,0.6-2,0.5c-0.7,0-1.4-0.1-2.1-0.4v-1.2
		c0.7,0.3,1.4,0.5,2.1,0.5c0.8,0,1.3-0.2,1.3-0.8c0-0.1,0-0.3-0.1-0.4c-0.1-0.1-0.3-0.3-0.5-0.3c-0.3-0.2-0.6-0.3-0.9-0.4
		c-0.6-0.2-1.1-0.5-1.5-0.9c-0.3-0.3-0.4-0.7-0.4-1.1c0-0.5,0.2-1,0.7-1.3c0.6-0.3,1.2-0.5,1.8-0.5c0.7,0,1.5,0.2,2.2,0.5l-0.5,1
		c-0.6-0.3-1.2-0.4-1.8-0.4c-0.7,0-1.1,0.2-1.1,0.6c0,0.2,0.1,0.4,0.3,0.5c0.4,0.2,0.8,0.4,1.2,0.6c0.4,0.1,0.8,0.3,1.2,0.6
		c0.2,0.2,0.4,0.4,0.5,0.6C625.1,168.4,625.1,168.7,625.1,169z"/>
	<path class="st5" d="M628.9,169.9c0.3,0,0.7-0.1,1-0.1v1c-0.2,0.1-0.4,0.1-0.6,0.2c-0.2,0-0.5,0.1-0.8,0.1c-1.3,0-2-0.7-2-2.1v-3.5
		h-0.9v-0.6l1-0.5l0.5-1.4h0.9v1.4h1.8v1H628v3.5c0,0.3,0.1,0.5,0.2,0.7C628.4,169.7,628.6,169.8,628.9,169.9z"/>
	<path class="st5" d="M634.3,164.3c0.2,0,0.5,0,0.7,0.1l-0.1,1.3c-0.2-0.1-0.4-0.1-0.6-0.1c-0.5,0-1,0.2-1.3,0.5
		c-0.3,0.4-0.5,0.9-0.5,1.4v3.4H631v-6.5h1.1l0.2,1.1h0.1c0.2-0.4,0.5-0.7,0.8-0.9C633.5,164.4,633.9,164.3,634.3,164.3z"/>
	<path class="st5" d="M635,164.4h1.5l1.3,3.7c0.2,0.5,0.3,1,0.4,1.5l0,0c0.1-0.3,0.1-0.5,0.2-0.8c0.1-0.3,0.6-1.8,1.5-4.4h1.5
		l-2.8,7.3c-0.3,1.2-1.3,2-2.5,2c-0.3,0-0.6,0-0.9-0.1v-1.1c0.2,0.1,0.5,0.1,0.7,0.1c0.7,0,1.3-0.5,1.4-1.1l0.2-0.6L635,164.4z"/>
	<path class="st5" d="M600.7,215.9c-0.7,0-1.4,0.3-1.9,0.9c-0.5,0.7-0.7,1.5-0.7,2.4c-0.1,0.8,0.2,1.7,0.7,2.4
		c0.5,0.6,1.2,0.9,1.9,0.8c0.3,0,0.7,0,1-0.1c0.3-0.1,0.7-0.2,1.1-0.3v1.2c-0.7,0.3-1.5,0.4-2.3,0.4c-1.1,0.1-2.1-0.3-2.9-1.1
		c-0.7-0.9-1.1-2.1-1-3.3c0-0.8,0.1-1.6,0.5-2.3c0.3-0.6,0.8-1.2,1.4-1.5c0.7-0.4,1.4-0.6,2.2-0.5c0.8,0,1.7,0.2,2.4,0.6l-0.5,1.2
		c-0.3-0.1-0.6-0.3-0.9-0.4C601.3,215.9,601,215.9,600.7,215.9z"/>
	<path class="st5" d="M603.9,215.1c0-0.2,0.1-0.4,0.2-0.6c0.2-0.1,0.4-0.2,0.6-0.2c0.2,0,0.4,0.1,0.6,0.2c0.1,0.2,0.2,0.4,0.2,0.6
		c0,0.4-0.3,0.7-0.7,0.8c0,0-0.1,0-0.1,0c-0.2,0-0.4-0.1-0.6-0.2C604,215.5,603.9,215.3,603.9,215.1z M605.4,223.3H604v-6.5h1.4
		L605.4,223.3z"/>
	<path class="st5" d="M610.2,216.7c0.2,0,0.5,0,0.7,0.1l-0.1,1.3c-0.2,0-0.4-0.1-0.6-0.1c-0.5,0-1,0.2-1.3,0.5
		c-0.3,0.4-0.5,0.9-0.5,1.4v3.4h-1.4v-6.5h1.1l0.2,1.1h0.1c0.2-0.4,0.5-0.7,0.8-0.9C609.4,216.9,609.8,216.7,610.2,216.7z"/>
	<path class="st5" d="M614.2,223.4c-0.8,0.1-1.7-0.3-2.2-0.9c-1.1-1.5-1.1-3.5,0-5c0.6-0.6,1.5-0.9,2.3-0.9c0.6,0,1.3,0.1,1.8,0.4
		l-0.4,1.1c-0.5-0.2-1-0.3-1.5-0.3c-1.1,0-1.7,0.7-1.7,2.2c0,0.6,0.1,1.2,0.4,1.6c0.3,0.4,0.8,0.6,1.2,0.5c0.6,0,1.2-0.2,1.7-0.4
		v1.2c-0.2,0.1-0.5,0.2-0.8,0.3C614.9,223.4,614.5,223.4,614.2,223.4z"/>
	<path class="st5" d="M621.6,223.3l-0.2-0.9h-0.1c-0.2,0.3-0.5,0.6-0.8,0.7c-0.4,0.2-0.8,0.3-1.2,0.2c-0.6,0.1-1.3-0.2-1.8-0.6
		c-0.4-0.5-0.6-1.1-0.6-1.8v-4.2h1.4v4c0,0.4,0.1,0.8,0.3,1.1c0.3,0.3,0.6,0.4,1,0.4c0.5,0,1-0.2,1.3-0.5c0.3-0.5,0.5-1.1,0.4-1.7
		v-3.2h1.4v6.5L621.6,223.3z"/>
	<path class="st5" d="M624.1,215.1c0-0.2,0.1-0.4,0.2-0.6c0.2-0.1,0.4-0.2,0.6-0.2c0.2,0,0.4,0.1,0.6,0.2c0.1,0.2,0.2,0.4,0.2,0.6
		c0,0.4-0.3,0.7-0.7,0.8c0,0-0.1,0-0.1,0c-0.2,0-0.4-0.1-0.6-0.2C624.2,215.5,624.1,215.3,624.1,215.1z M625.6,223.3h-1.4v-6.5h1.4
		V223.3z"/>
	<path class="st5" d="M629.5,222.3c0.3,0,0.7-0.1,1-0.2v1c-0.2,0.1-0.4,0.1-0.6,0.2c-0.2,0-0.5,0.1-0.8,0.1c-1.3,0-2-0.7-2-2.1v-3.4
		h-0.9v-0.6l1-0.5l0.5-1.4h0.8v1.4h1.8v1h-1.8v3.5c0,0.3,0.1,0.5,0.2,0.7C629,222.2,629.2,222.3,629.5,222.3z"/>
	<path class="st5" d="M634.1,214.8h2.5c0.9-0.1,1.8,0.1,2.6,0.5c0.5,0.4,0.8,1,0.8,1.6c0,0.4-0.1,0.9-0.4,1.2
		c-0.3,0.3-0.7,0.6-1.1,0.6v0.1c0.5,0.1,1,0.3,1.3,0.7c0.3,0.4,0.5,0.9,0.4,1.4c0,0.7-0.3,1.4-0.8,1.8c-0.6,0.5-1.4,0.7-2.2,0.7
		h-3.1L634.1,214.8z M635.5,218.3h1.3c0.4,0,0.9-0.1,1.3-0.3c0.3-0.2,0.4-0.6,0.4-0.9c0-0.3-0.1-0.7-0.4-0.9
		c-0.4-0.2-0.9-0.3-1.4-0.3h-1.2V218.3z M635.5,219.4v2.7h1.5c0.5,0,0.9-0.1,1.3-0.3c0.3-0.3,0.5-0.7,0.5-1.1c0-0.4-0.1-0.8-0.5-1
		c-0.4-0.2-0.9-0.4-1.4-0.3L635.5,219.4z"/>
	<path class="st5" d="M644.7,216.7c0.2,0,0.5,0,0.7,0.1l-0.1,1.3c-0.2,0-0.4-0.1-0.6-0.1c-0.5,0-1,0.2-1.3,0.5
		c-0.3,0.4-0.5,0.9-0.5,1.4v3.4h-1.4v-6.5h1.1l0.2,1.1h0.1c0.2-0.4,0.5-0.7,0.8-0.9C643.9,216.9,644.3,216.7,644.7,216.7z"/>
	<path class="st5" d="M648.9,223.4c-0.9,0.1-1.7-0.3-2.4-0.9c-0.6-0.7-0.9-1.5-0.8-2.4c-0.1-0.9,0.2-1.8,0.8-2.5
		c0.5-0.6,1.3-1,2.2-0.9c0.7,0,1.5,0.3,2,0.8c0.5,0.6,0.8,1.4,0.8,2.1v0.8h-4.3c0,0.5,0.2,1,0.5,1.4c0.4,0.3,0.9,0.5,1.3,0.5
		c0.4,0,0.7,0,1.1-0.1c0.4-0.1,0.7-0.2,1.1-0.4v1.1c-0.3,0.2-0.7,0.3-1,0.3C649.7,223.4,649.3,223.5,648.9,223.4z M648.6,217.8
		c-0.4,0-0.7,0.2-1,0.4c-0.3,0.3-0.5,0.8-0.5,1.2h2.9c0-0.4-0.1-0.9-0.4-1.2C649.4,217.9,649,217.7,648.6,217.8z"/>
	<path class="st5" d="M656.5,223.3l-0.3-0.9l0,0c-0.2,0.3-0.6,0.6-0.9,0.8c-0.4,0.2-0.8,0.2-1.2,0.2c-0.5,0-1.1-0.2-1.5-0.5
		c-0.4-0.4-0.6-0.9-0.5-1.5c0-0.6,0.3-1.2,0.8-1.5c0.7-0.4,1.5-0.6,2.3-0.6h1.1V219c0-0.3-0.1-0.7-0.3-0.9c-0.2-0.2-0.6-0.3-0.9-0.3
		c-0.3,0-0.7,0-1,0.1c-0.3,0.1-0.6,0.2-0.9,0.3l-0.5-1c0.4-0.2,0.8-0.3,1.2-0.4c0.4-0.1,0.8-0.1,1.2-0.1c0.7,0,1.3,0.1,1.9,0.5
		c0.5,0.4,0.7,1.1,0.6,1.7v4.4L656.5,223.3z M654.5,222.4c0.4,0,0.9-0.1,1.2-0.4c0.3-0.3,0.5-0.7,0.5-1.2v-0.6h-0.8
		c-0.5,0-1,0.1-1.4,0.3c-0.3,0.2-0.5,0.5-0.4,0.9c0,0.3,0.1,0.5,0.3,0.7C654,222.3,654.2,222.4,654.5,222.4L654.5,222.4z"/>
	<path class="st5" d="M660.3,219.9l0.8-1l2-2.1h1.6l-2.7,2.8l2.8,3.7h-1.6l-2.1-2.9l-0.8,0.6v2.2H659v-9.1h1.4v4.4L660.3,219.9
		L660.3,219.9z"/>
	<path class="st5" d="M668.2,223.4c-0.9,0.1-1.7-0.3-2.4-0.9c-0.6-0.7-0.9-1.5-0.8-2.4c-0.1-0.9,0.2-1.8,0.8-2.5
		c0.5-0.6,1.3-1,2.2-0.9c0.7,0,1.5,0.3,2,0.8c0.5,0.6,0.8,1.4,0.7,2.1v0.8h-4.3c0,0.5,0.2,1,0.5,1.4c0.4,0.3,0.9,0.5,1.4,0.5
		c0.4,0,0.7,0,1.1-0.1c0.4-0.1,0.7-0.2,1.1-0.4v1.1c-0.3,0.2-0.7,0.3-1,0.3C669,223.4,668.6,223.5,668.2,223.4z M667.9,217.8
		c-0.4,0-0.7,0.1-1,0.4c-0.3,0.3-0.5,0.8-0.5,1.2h2.9c0-0.4-0.1-0.9-0.4-1.2C668.7,217.9,668.3,217.7,667.9,217.8z"/>
	<path class="st5" d="M675.1,216.7c0.2,0,0.5,0,0.7,0.1l-0.1,1.3c-0.2,0-0.4-0.1-0.6-0.1c-0.5,0-1,0.2-1.3,0.5
		c-0.4,0.4-0.5,0.9-0.5,1.4v3.4h-1.4v-6.5h1.1l0.2,1.1h0.1c0.2-0.4,0.5-0.7,0.8-0.9C674.3,216.9,674.7,216.7,675.1,216.7z"/>
	<path class="st5" d="M604,233.4c0.1,1.2-0.3,2.4-1.2,3.2c-0.9,0.8-2.2,1.2-3.4,1.1H597v-8.6h2.7c1.2-0.1,2.3,0.3,3.2,1.1
		C603.6,231.1,604.1,232.2,604,233.4z M602.5,233.4c0-2-1-3.1-2.9-3.1h-1.2v6.2h1C601.5,236.5,602.5,235.5,602.5,233.4L602.5,233.4z
		"/>
	<path class="st5" d="M609.5,237.7l-0.3-0.9l0,0c-0.3,0.3-0.6,0.6-1,0.8c-0.4,0.2-0.8,0.2-1.2,0.2c-0.5,0-1.1-0.2-1.5-0.5
		c-0.4-0.4-0.6-0.9-0.5-1.5c0-0.6,0.2-1.2,0.7-1.5c0.7-0.4,1.5-0.6,2.3-0.6h1.1v-0.3c0-0.3-0.1-0.7-0.3-0.9
		c-0.2-0.2-0.6-0.3-0.9-0.3c-0.3,0-0.7,0-1,0.1c-0.3,0.1-0.6,0.2-0.9,0.3l-0.4-1c0.4-0.2,0.8-0.3,1.2-0.4c0.4-0.1,0.8-0.1,1.2-0.1
		c0.7,0,1.3,0.1,1.9,0.5c0.5,0.4,0.7,1.1,0.6,1.7v4.4L609.5,237.7z M607.5,236.8c0.4,0,0.9-0.1,1.2-0.4c0.3-0.3,0.5-0.7,0.5-1.2
		v-0.6h-0.8c-0.5,0-1,0.1-1.4,0.3c-0.3,0.2-0.5,0.5-0.4,0.9c0,0.2,0.1,0.5,0.2,0.7C606.9,236.7,607.2,236.8,607.5,236.8L607.5,236.8
		z"/>
	<path class="st5" d="M616.5,235.9c0,0.6-0.2,1.1-0.7,1.5c-0.6,0.4-1.3,0.5-2,0.5c-0.7,0-1.4-0.1-2.1-0.4v-1.2
		c0.7,0.3,1.4,0.5,2.1,0.5c0.8,0,1.3-0.3,1.3-0.8c0-0.1,0-0.3-0.1-0.4c-0.1-0.1-0.3-0.3-0.5-0.3c-0.3-0.2-0.6-0.3-0.9-0.4
		c-0.6-0.2-1.1-0.5-1.5-0.9c-0.3-0.3-0.4-0.7-0.4-1.1c0-0.5,0.2-1,0.7-1.3c0.5-0.3,1.2-0.5,1.8-0.5c0.7,0,1.5,0.2,2.2,0.5l-0.4,1
		c-0.6-0.3-1.2-0.4-1.8-0.4c-0.7,0-1.1,0.2-1.1,0.6c0,0.2,0.1,0.4,0.3,0.5c0.4,0.2,0.8,0.4,1.2,0.6c0.4,0.1,0.8,0.3,1.2,0.6
		c0.2,0.2,0.4,0.4,0.5,0.6C616.5,235.3,616.5,235.6,616.5,235.9z"/>
	<path class="st5" d="M623.5,237.7h-1.4v-4c0-0.4-0.1-0.8-0.3-1.1c-0.2-0.3-0.6-0.4-1-0.4c-0.5,0-1,0.2-1.3,0.5
		c-0.3,0.5-0.5,1.1-0.4,1.7v3.2h-1.4v-9.1h1.4v2.3c0,0.4,0,0.8-0.1,1.2h0.1c0.2-0.3,0.5-0.6,0.8-0.7c0.4-0.2,0.8-0.3,1.2-0.3
		c1.1-0.2,2.2,0.6,2.4,1.8c0,0.2,0,0.4,0,0.6V237.7z"/>
	<path class="st5" d="M628.5,231.1c0.7,0,1.4,0.3,1.9,0.9c0.5,0.7,0.7,1.6,0.7,2.5c0.1,0.9-0.2,1.8-0.7,2.5
		c-0.9,1.1-2.5,1.2-3.5,0.3c-0.1-0.1-0.2-0.2-0.3-0.3h-0.1l-0.3,0.8h-1v-9.1h1.4v2.2c0,0.2,0,0.4,0,0.7s0,0.5,0,0.6h0.1
		C627,231.5,627.7,231.1,628.5,231.1z M628.1,232.3c-0.5,0-0.9,0.1-1.2,0.5c-0.3,0.5-0.4,1.1-0.4,1.6v0.1c0,0.6,0.1,1.2,0.4,1.7
		c0.3,0.4,0.7,0.6,1.2,0.5c0.4,0,0.9-0.2,1.1-0.6c0.3-0.5,0.4-1.1,0.4-1.7C629.6,233,629.1,232.3,628.1,232.3z"/>
	<path class="st5" d="M638.2,234.5c0.1,0.9-0.2,1.8-0.8,2.5c-0.6,0.6-1.4,0.9-2.3,0.9c-0.6,0-1.1-0.1-1.6-0.4
		c-0.5-0.3-0.8-0.7-1.1-1.2c-0.3-0.6-0.4-1.2-0.4-1.8c-0.1-0.9,0.2-1.8,0.8-2.5c0.6-0.6,1.4-0.9,2.3-0.9c0.8,0,1.7,0.3,2.2,0.9
		C637.9,232.7,638.2,233.6,638.2,234.5z M633.4,234.5c0,1.5,0.5,2.2,1.7,2.2s1.6-0.8,1.6-2.2s-0.5-2.2-1.7-2.2c-0.5,0-1,0.2-1.3,0.6
		C633.5,233.3,633.4,233.9,633.4,234.5L633.4,234.5z"/>
	<path class="st5" d="M643.5,237.7l-0.3-0.9l0,0c-0.2,0.3-0.6,0.6-0.9,0.8c-0.4,0.2-0.8,0.2-1.2,0.2c-0.5,0-1.1-0.2-1.5-0.5
		c-0.4-0.4-0.6-0.9-0.5-1.5c0-0.6,0.3-1.2,0.8-1.5c0.7-0.4,1.5-0.6,2.3-0.6h1.1v-0.3c0-0.3-0.1-0.7-0.3-0.9
		c-0.2-0.2-0.6-0.3-0.9-0.3c-0.3,0-0.7,0-1,0.1c-0.3,0.1-0.6,0.2-0.9,0.3l-0.5-1c0.4-0.2,0.8-0.3,1.2-0.4c0.4-0.1,0.8-0.1,1.2-0.1
		c0.7,0,1.3,0.1,1.9,0.5c0.5,0.4,0.7,1.1,0.6,1.7v4.4L643.5,237.7z M641.5,236.8c0.4,0,0.9-0.1,1.2-0.4c0.3-0.3,0.5-0.7,0.5-1.2
		v-0.6h-0.8c-0.5,0-1,0.1-1.4,0.3c-0.3,0.2-0.5,0.5-0.4,0.9c0,0.3,0.1,0.5,0.3,0.7C641,236.7,641.2,236.8,641.5,236.8L641.5,236.8z"
		/>
	<path class="st5" d="M649.5,231.1c0.2,0,0.5,0,0.7,0.1l-0.1,1.3c-0.2,0-0.4-0.1-0.6-0.1c-0.5,0-1,0.2-1.3,0.5
		c-0.3,0.4-0.5,0.9-0.5,1.4v3.4h-1.4v-6.5h1.1l0.2,1.1h0.1c0.2-0.4,0.5-0.7,0.8-0.9C648.7,231.3,649.1,231.1,649.5,231.1z"/>
	<path class="st5" d="M653.3,237.9c-0.7,0-1.4-0.3-1.9-0.9c-0.9-1.5-0.9-3.4,0-4.9c0.9-1.1,2.4-1.2,3.5-0.3c0.1,0.1,0.3,0.2,0.4,0.4
		h0.1c-0.1-0.4-0.1-0.7-0.1-1.1v-2.4h1.4v9.1h-1.1l-0.2-0.9h-0.1C654.8,237.5,654.1,237.9,653.3,237.9z M653.7,236.7
		c0.5,0,0.9-0.1,1.2-0.5c0.3-0.5,0.4-1,0.4-1.6v-0.2c0.1-0.6-0.1-1.2-0.4-1.7c-0.3-0.4-0.8-0.6-1.2-0.5c-0.5,0-0.9,0.2-1.1,0.6
		c-0.3,0.5-0.4,1.1-0.4,1.7c0,0.6,0.1,1.1,0.4,1.6C652.8,236.6,653.2,236.8,653.7,236.7z"/>
</g>
<path class="st7" d="M584.1,223.5c-0.3-1.9-0.8-3.7-1.4-5.5c-0.2,0.6-0.6,1.1-0.9,1.6c-3.4-3.5-8.9-3.5-12.4-0.2
	c-0.5,0.5-1,1.1-1.4,1.8c1.3,0.1,2.6,0.6,3.6,1.5c-1-0.7-2.2-1-3.4-1c-3.4-0.1-6.3,2.5-6.4,5.9c-0.1,3.4,2.5,6.3,5.9,6.4
	c0.2,0,0.3,0,0.5,0h14.3c3,0,5.5-2.4,5.5-5.4C587.9,226.3,586.4,224.2,584.1,223.5L584.1,223.5z M570.7,232.2
	c-0.3,0.3-0.7,0.4-1.1,0.1c-0.3-0.3-0.4-0.7-0.1-1.1s0.7-0.4,1.1-0.1c0,0,0,0,0,0C570.9,231.4,571,231.9,570.7,232.2
	C570.7,232.2,570.7,232.2,570.7,232.2L570.7,232.2z M582.6,229.6c-2.2,2.9-6.8,1.9-9.8,2c0,0-0.5,0-1,0.1l0.5-0.2
	c1.5-0.4,2.9-0.9,4.3-1.5c2.6-1.3,4.5-3.8,5.2-6.6c-0.9,2.6-3.7,4.9-6.2,5.9c-1.6,0.5-3.2,0.9-4.8,1.2l-0.1-0.1
	c-2.1-1-2.2-5.6,1.7-7.1c1.7-0.6,3.3-0.3,5.1-0.7c2.2-0.5,4-1.9,5.1-3.8C583.6,222,584.8,226.7,582.6,229.6L582.6,229.6z"/>
<path class="st7" d="M584.1,156.3c-0.3-1.9-0.8-3.7-1.4-5.5c-0.2,0.6-0.6,1.1-0.9,1.6c-3.4-3.5-8.9-3.5-12.4-0.2
	c-0.5,0.5-1,1.1-1.4,1.8c1.3,0.1,2.6,0.6,3.6,1.5c-1-0.7-2.2-1-3.4-1c-3.4-0.1-6.3,2.5-6.4,5.9c-0.1,3.4,2.5,6.3,5.9,6.4
	c0.2,0,0.3,0,0.5,0h14.3c3,0,5.5-2.4,5.5-5.4C587.9,159.2,586.4,157,584.1,156.3L584.1,156.3z M570.7,165.1c-0.2,0.3-0.7,0.4-1,0.2
	c-0.3-0.2-0.4-0.7-0.2-1s0.7-0.4,1-0.2c0,0,0,0,0.1,0C570.9,164.3,570.9,164.8,570.7,165.1L570.7,165.1z M582.6,162.4
	c-2.2,2.9-6.8,1.9-9.8,2.1c0,0-0.5,0-1,0.1l0.5-0.2c1.5-0.4,2.9-0.9,4.3-1.5c2.6-1.3,4.5-3.8,5.2-6.6c-0.9,2.6-3.7,4.9-6.2,5.9
	c-1.6,0.5-3.2,0.9-4.8,1.2l-0.1-0.1c-2.1-1-2.2-5.6,1.7-7.1c1.7-0.6,3.3-0.3,5.1-0.7c2.2-0.5,4-1.9,5.1-3.8
	C583.6,154.8,584.8,159.5,582.6,162.4L582.6,162.4z"/>
<path class="st7" d="M584.1,88.6c-0.3-1.9-0.8-3.7-1.4-5.5c-0.2,0.6-0.6,1.1-0.9,1.7c-3.4-3.5-8.9-3.6-12.4-0.2
	c-0.6,0.5-1,1.1-1.4,1.8c1.3,0.1,2.6,0.6,3.6,1.5c-1-0.7-2.2-1-3.4-1c-3.4-0.1-6.3,2.5-6.4,5.9c-0.1,3.4,2.5,6.3,5.9,6.4
	c0.2,0,0.3,0,0.5,0h14.3c3,0,5.5-2.4,5.5-5.5C587.9,91.4,586.3,89.3,584.1,88.6L584.1,88.6z M570.7,97.3c-0.2,0.3-0.7,0.4-1,0.2
	c-0.3-0.2-0.4-0.7-0.2-1c0,0,0.1-0.1,0.1-0.1c0.2-0.3,0.7-0.4,1-0.2c0.3,0.2,0.4,0.7,0.2,1C570.8,97.2,570.7,97.3,570.7,97.3z
	 M582.6,94.7c-2.2,2.9-6.8,1.9-9.8,2c0,0-0.5,0-1,0.1c0.2-0.1,0.3-0.1,0.5-0.2c1.5-0.4,2.9-0.9,4.3-1.5c2.6-1.3,4.5-3.8,5.2-6.6
	c-0.9,2.6-3.7,4.9-6.2,5.8c-1.6,0.5-3.2,0.9-4.8,1.2l-0.1-0.1c-2.1-1-2.2-5.6,1.7-7.1c1.7-0.7,3.3-0.3,5.1-0.7
	c2.1-0.5,4-1.9,5.1-3.8C583.6,87,584.8,91.8,582.6,94.7L582.6,94.7z"/>
<path class="st10" d="M541.4,394.9v11.2h3.4v-11.2H541.4z M565.3,379.9c-6.5,0-11.9,5.3-11.9,11.8c0,2.5-2,4.6-4.5,4.7
	c0,0-0.1,0-0.1,0h-2.5v8.3h3.7c6.5,0,11.9-5.2,11.9-11.8c0,0,0,0,0,0c0-2.6,2.1-4.7,4.6-4.7c0,0,0,0,0,0h2.6v-8.3H565.3z
	 M570.4,378.3v11.2h3.4v-11.2L570.4,378.3z"/>
<g>
	<path class="st10" d="M331.2,386.9c-0.1,0-0.1,0.1-0.1,0.2v9.2c0,0.1,0.1,0.1,0.1,0.1h3.1c0.1,0,0.1-0.1,0.1-0.1v-9.2
		c0-0.1-0.1-0.2-0.1-0.2H331.2z"/>
	<path class="st10" d="M326.6,390.5c-0.1,0-0.1,0.1-0.1,0.1v5.7c0,0.1,0.1,0.1,0.1,0.1h3c0.1,0,0.2-0.1,0.2-0.1v-5.7
		c0-0.1-0.1-0.1-0.2-0.1H326.6z"/>
	<g>
		<path class="st10" d="M335.8,382.8c-0.1,0-0.1,0.1-0.1,0.2v13.3c0,0.1,0.1,0.1,0.1,0.1h3c0.2,0,0.2-0.1,0.2-0.1V383
			c0-0.1-0.1-0.2-0.2-0.2L335.8,382.8z"/>
		<path class="st10" d="M332.9,374.4c-8.4-0.2-15.3,6.4-15.5,14.8c-0.2,8.4,6.4,15.3,14.8,15.5c0.3,0,0.5,0,0.8,0
			c3.3,0,6.5-1.1,9.1-3.1l8.1,8.1c0.1,0.2,0.3,0.2,0.5,0.3c0.2,0,0.4-0.1,0.5-0.3l2-2c0.3-0.2,0.3-0.6,0.1-0.9c0,0-0.1-0.1-0.1-0.1
			l-8.1-8.1c2-2.6,3.1-5.8,3.1-9.1C348.1,381.2,341.3,374.4,332.9,374.4z M333,377.7c6.6,0,12,5.4,12,12s-5.4,12-12,12
			s-12-5.4-12-12C321,383.1,326.4,377.7,333,377.7L333,377.7z"/>
	</g>
</g>
<g>
	<path class="st5" d="M538.4,428.7l-2.4-7l0,0c0.1,1,0.1,2,0.1,2.9v4h-1.3v-8.3h1.9l2.3,6.6l0,0l2.4-6.6h1.9v8.3H542v-4.1
		c0-0.4,0-1,0-1.6s0-1.1,0-1.2l0,0l-2.5,6.9L538.4,428.7z"/>
	<path class="st5" d="M548,428.8c-0.9,0.1-1.7-0.3-2.3-0.9c-0.6-0.6-0.9-1.5-0.8-2.4c0-0.9,0.2-1.7,0.8-2.4c0.5-0.6,1.3-0.9,2.1-0.9
		c0.7,0,1.5,0.2,2,0.8c0.5,0.6,0.8,1.3,0.7,2.1v0.7h-4.2c0,0.5,0.2,1,0.5,1.4c0.3,0.3,0.8,0.5,1.3,0.5c0.3,0,0.7,0,1-0.1
		c0.3-0.1,0.7-0.2,1-0.4v1.1c-0.3,0.1-0.7,0.3-1,0.3C548.7,428.8,548.4,428.8,548,428.8z M547.8,423.3c-0.4,0-0.7,0.1-1,0.4
		c-0.3,0.3-0.4,0.7-0.5,1.2h2.9c0-0.4-0.1-0.8-0.4-1.2C548.5,423.4,548.1,423.3,547.8,423.3L547.8,423.3z"/>
	<path class="st5" d="M556,426.9c0,0.6-0.2,1.1-0.7,1.4c-0.6,0.4-1.3,0.5-1.9,0.5c-0.7,0-1.4-0.1-2-0.4v-1.1
		c0.6,0.3,1.4,0.5,2.1,0.5c0.8,0,1.2-0.3,1.2-0.8c0-0.1,0-0.3-0.1-0.4c-0.1-0.1-0.3-0.3-0.5-0.3c-0.3-0.2-0.6-0.3-0.9-0.4
		c-0.5-0.2-1-0.5-1.5-0.8c-0.3-0.3-0.4-0.7-0.4-1.1c0-0.5,0.2-1,0.7-1.2c0.5-0.3,1.2-0.5,1.8-0.5c0.7,0,1.4,0.1,2.1,0.5l-0.4,1
		c-0.5-0.2-1.1-0.4-1.7-0.4c-0.7,0-1.1,0.2-1.1,0.6c0,0.2,0.1,0.4,0.3,0.5c0.4,0.2,0.8,0.4,1.2,0.6c0.4,0.1,0.8,0.3,1.1,0.5
		C555.8,425.9,556,426.4,556,426.9L556,426.9z"/>
	<path class="st5" d="M561.5,426.9c0,0.6-0.2,1.1-0.7,1.4c-0.6,0.4-1.3,0.5-1.9,0.5c-0.7,0-1.4-0.1-2-0.4v-1.1
		c0.6,0.3,1.4,0.5,2.1,0.5c0.8,0,1.2-0.3,1.2-0.8c0-0.1,0-0.3-0.1-0.4c-0.1-0.1-0.3-0.3-0.5-0.3c-0.3-0.2-0.6-0.3-0.9-0.4
		c-0.5-0.2-1-0.5-1.5-0.8c-0.3-0.3-0.4-0.7-0.4-1.1c0-0.5,0.2-1,0.7-1.2c0.5-0.3,1.2-0.5,1.8-0.5c0.7,0,1.4,0.1,2.1,0.5l-0.4,1
		c-0.5-0.2-1.1-0.4-1.7-0.4c-0.7,0-1.1,0.2-1.1,0.6c0,0.2,0.1,0.4,0.3,0.5c0.4,0.2,0.8,0.4,1.2,0.6c0.4,0.1,0.8,0.3,1.1,0.5
		C561.3,425.9,561.6,426.4,561.5,426.9L561.5,426.9z"/>
	<path class="st5" d="M566.7,428.7l-0.3-0.9l0,0c-0.2,0.3-0.6,0.6-0.9,0.8c-0.4,0.1-0.8,0.2-1.2,0.2c-0.5,0-1.1-0.1-1.5-0.5
		c-0.4-0.4-0.6-0.9-0.5-1.4c0-0.6,0.2-1.1,0.7-1.5c0.7-0.4,1.4-0.6,2.2-0.5h1.1v-0.3c0-0.3-0.1-0.7-0.3-0.9
		c-0.2-0.2-0.6-0.3-0.9-0.3c-0.3,0-0.6,0-0.9,0.1c-0.3,0.1-0.6,0.2-0.9,0.3l-0.4-1c0.4-0.2,0.7-0.3,1.1-0.4c0.4-0.1,0.8-0.1,1.2-0.1
		c0.6,0,1.3,0.1,1.8,0.5c0.4,0.4,0.7,1,0.6,1.6v4.2L566.7,428.7z M564.7,427.8c0.4,0,0.8-0.1,1.2-0.4c0.3-0.3,0.5-0.7,0.4-1.1v-0.5
		h-0.8c-0.5,0-1,0.1-1.4,0.3c-0.3,0.2-0.4,0.5-0.4,0.9c0,0.2,0.1,0.5,0.2,0.6C564.2,427.7,564.5,427.8,564.7,427.8L564.7,427.8z"/>
	<path class="st5" d="M574.7,422.4v0.7l-1.1,0.2c0.1,0.1,0.2,0.3,0.2,0.5c0.1,0.2,0.1,0.4,0.1,0.6c0,0.6-0.2,1.2-0.7,1.5
		c-0.5,0.4-1.2,0.6-1.8,0.6c-0.2,0-0.4,0-0.5,0c-0.2,0.1-0.4,0.3-0.4,0.6c0,0.1,0.1,0.3,0.2,0.3c0.2,0.1,0.5,0.1,0.7,0.1h1.1
		c0.6,0,1.1,0.1,1.6,0.4c0.4,0.3,0.6,0.8,0.5,1.3c0,0.7-0.3,1.3-0.9,1.6c-0.8,0.4-1.7,0.6-2.5,0.6c-0.7,0.1-1.4-0.1-2-0.5
		c-0.4-0.3-0.7-0.8-0.7-1.3c0-0.4,0.1-0.7,0.4-1c0.3-0.3,0.6-0.5,1-0.5c-0.2-0.1-0.3-0.2-0.5-0.4c-0.1-0.2-0.2-0.3-0.2-0.5
		c0-0.2,0.1-0.4,0.2-0.6c0.2-0.2,0.4-0.4,0.6-0.5c-0.3-0.1-0.6-0.4-0.8-0.7c-0.2-0.3-0.3-0.7-0.3-1.1c0-0.6,0.2-1.2,0.7-1.6
		c0.5-0.4,1.2-0.6,1.8-0.6c0.2,0,0.4,0,0.6,0c0.1,0,0.3,0,0.4,0.1L574.7,422.4z M569.7,429.7c0,0.3,0.1,0.5,0.4,0.7
		c0.3,0.2,0.7,0.3,1.1,0.2c0.6,0,1.1-0.1,1.6-0.3c0.3-0.2,0.5-0.5,0.5-0.8c0-0.2-0.1-0.5-0.3-0.6c-0.3-0.1-0.7-0.2-1.1-0.2h-1
		c-0.3,0-0.6,0.1-0.9,0.3C569.9,429.1,569.7,429.4,569.7,429.7L569.7,429.7z M570.3,424.5c0,0.3,0.1,0.7,0.3,0.9
		c0.2,0.2,0.5,0.3,0.9,0.3c0.8,0,1.2-0.4,1.2-1.2c0-0.3-0.1-0.7-0.3-1c-0.2-0.2-0.5-0.4-0.9-0.3c-0.3,0-0.6,0.1-0.9,0.3
		C570.4,423.8,570.3,424.1,570.3,424.5z"/>
	<path class="st5" d="M578.4,428.8c-0.8,0.1-1.7-0.3-2.3-0.9c-0.6-0.6-0.9-1.5-0.8-2.4c0-0.9,0.2-1.7,0.8-2.4
		c0.5-0.6,1.3-0.9,2.1-0.9c0.7,0,1.5,0.2,2,0.8c0.5,0.6,0.8,1.3,0.7,2.1v0.7h-4.2c0,0.5,0.2,1,0.5,1.4c0.3,0.3,0.8,0.5,1.3,0.5
		c0.3,0,0.7,0,1-0.1c0.3-0.1,0.7-0.2,1-0.4v1.1c-0.3,0.1-0.7,0.3-1,0.3C579.2,428.8,578.8,428.8,578.4,428.8z M578.2,423.3
		c-0.4,0-0.7,0.1-1,0.4c-0.3,0.3-0.4,0.7-0.5,1.2h2.9c0-0.4-0.1-0.8-0.4-1.2C578.9,423.4,578.6,423.3,578.2,423.3L578.2,423.3z"/>
	<path class="st5" d="M537.2,434.4h2.5c0.9-0.1,1.7,0.1,2.5,0.5c0.5,0.4,0.8,1,0.8,1.6c0,0.4-0.1,0.9-0.4,1.2
		c-0.3,0.3-0.7,0.6-1.1,0.6v0.1c0.5,0.1,0.9,0.3,1.3,0.6c0.3,0.4,0.4,0.8,0.4,1.3c0,0.7-0.3,1.3-0.8,1.8c-0.6,0.5-1.4,0.7-2.2,0.6
		h-3L537.2,434.4z M538.6,437.8h1.3c0.4,0,0.9-0.1,1.2-0.3c0.3-0.2,0.4-0.6,0.4-0.9c0-0.3-0.1-0.7-0.4-0.9c-0.4-0.2-0.9-0.3-1.3-0.3
		h-1.2V437.8z M538.6,438.9v2.6h1.4c0.5,0,0.9-0.1,1.3-0.3c0.3-0.2,0.5-0.6,0.4-1c0-0.4-0.1-0.8-0.4-1c-0.4-0.2-0.9-0.3-1.3-0.3
		H538.6z"/>
	<path class="st5" d="M547.8,436.3c0.2,0,0.4,0,0.7,0.1l-0.1,1.2c-0.2,0-0.4-0.1-0.6-0.1c-0.5,0-1,0.2-1.3,0.5
		c-0.3,0.4-0.5,0.9-0.5,1.4v3.3h-1.3v-6.3h1l0.2,1.1h0.1c0.2-0.4,0.5-0.7,0.8-0.9C547,436.4,547.4,436.3,547.8,436.3z"/>
	<path class="st5" d="M555,439.5c0.1,0.9-0.2,1.7-0.8,2.4c-0.6,0.6-1.4,0.9-2.2,0.9c-0.5,0-1.1-0.1-1.6-0.4c-0.4-0.3-0.8-0.7-1-1.1
		c-0.3-0.5-0.4-1.1-0.4-1.7c-0.1-0.9,0.2-1.7,0.8-2.4c0.6-0.6,1.4-0.9,2.2-0.9c0.8,0,1.6,0.3,2.2,0.9
		C554.8,437.8,555.1,438.7,555,439.5z M550.4,439.5c0,1.5,0.5,2.2,1.6,2.2s1.6-0.7,1.6-2.2s-0.5-2.2-1.6-2.2c-0.5,0-0.9,0.2-1.2,0.6
		C550.5,438.4,550.4,439,550.4,439.5L550.4,439.5z"/>
	<path class="st5" d="M557.7,439.4l0.8-0.9l1.9-2h1.5l-2.5,2.7l2.7,3.6h-1.6l-2-2.8l-0.7,0.6v2.2h-1.4v-8.9h1.3v4.3L557.7,439.4
		L557.7,439.4z"/>
	<path class="st5" d="M565.6,442.8c-0.8,0.1-1.7-0.3-2.3-0.9c-0.6-0.6-0.9-1.5-0.8-2.4c0-0.9,0.2-1.7,0.8-2.4
		c0.5-0.6,1.3-0.9,2.1-0.9c0.7,0,1.5,0.2,2,0.8c0.5,0.6,0.8,1.3,0.7,2.1v0.7h-4.2c0,0.5,0.2,1,0.5,1.4c0.3,0.3,0.8,0.5,1.3,0.5
		c0.3,0,0.7,0,1-0.1c0.3-0.1,0.7-0.2,1-0.4v1.1c-0.3,0.1-0.7,0.3-1,0.3C566.4,442.8,566,442.8,565.6,442.8z M565.4,437.3
		c-0.4,0-0.7,0.1-1,0.4c-0.3,0.3-0.4,0.7-0.5,1.2h2.9c0-0.4-0.1-0.9-0.4-1.2C566.2,437.4,565.8,437.3,565.4,437.3z"/>
	<path class="st5" d="M572.6,436.3c0.2,0,0.4,0,0.7,0.1l-0.1,1.2c-0.2,0-0.4-0.1-0.6-0.1c-0.5,0-1,0.2-1.3,0.5
		c-0.3,0.4-0.5,0.9-0.5,1.4v3.3h-1.3v-6.3h1l0.2,1.1h0.1c0.2-0.4,0.5-0.7,0.8-0.9C571.8,436.4,572.2,436.3,572.6,436.3z"/>
	<path class="st5" d="M578.5,440.9c0,0.6-0.2,1.1-0.7,1.4c-0.6,0.4-1.3,0.5-1.9,0.5c-0.7,0-1.4-0.1-2-0.4v-1.1
		c0.6,0.3,1.4,0.5,2.1,0.5c0.8,0,1.2-0.2,1.2-0.8c0-0.1,0-0.3-0.1-0.4c-0.1-0.1-0.3-0.2-0.5-0.3c-0.3-0.1-0.6-0.3-0.9-0.4
		c-0.5-0.2-1-0.5-1.5-0.9c-0.3-0.3-0.4-0.7-0.4-1.1c0-0.5,0.2-1,0.7-1.2c0.5-0.3,1.1-0.5,1.8-0.5c0.7,0,1.4,0.1,2.1,0.5l-0.4,1
		c-0.5-0.2-1.1-0.4-1.7-0.4c-0.7,0-1.1,0.2-1.1,0.6c0,0.2,0.1,0.4,0.3,0.5c0.4,0.2,0.8,0.4,1.2,0.6c0.4,0.1,0.8,0.3,1.1,0.6
		c0.2,0.1,0.4,0.3,0.5,0.6C578.5,440.4,578.5,440.6,578.5,440.9z"/>
	<path class="st5" d="M303,434.6l-2.5-7.1h0c0.1,1.1,0.1,2.1,0.1,3v4.2h-1.3v-8.6h2l2.4,6.8l0,0l2.5-6.8h2v8.6h-1.4v-4.2
		c0-0.4,0-1,0-1.7s0-1.1,0.1-1.2h0l-2.6,7.1L303,434.6z"/>
	<path class="st5" d="M312.9,434.7c-0.9,0.1-1.7-0.3-2.4-0.9c-0.6-0.7-0.9-1.5-0.9-2.4c0-0.9,0.2-1.8,0.8-2.5
		c0.6-0.6,1.4-0.9,2.2-0.9c0.7,0,1.5,0.2,2,0.8c0.5,0.6,0.8,1.4,0.8,2.1v0.7h-4.3c0,0.5,0.2,1,0.5,1.5c0.4,0.4,0.8,0.5,1.4,0.5
		c0.4,0,0.7,0,1.1-0.1c0.4-0.1,0.7-0.2,1.1-0.4v1.1c-0.3,0.2-0.7,0.3-1,0.3C313.7,434.7,313.3,434.7,312.9,434.7z M312.7,429.1
		c-0.4,0-0.8,0.1-1.1,0.4c-0.3,0.3-0.5,0.8-0.5,1.2h2.9c0-0.4-0.1-0.9-0.4-1.2C313.4,429.2,313.1,429.1,312.7,429.1L312.7,429.1z"/>
	<path class="st5" d="M319.2,433.6c0.3,0,0.7-0.1,1-0.2v1c-0.2,0.1-0.4,0.1-0.6,0.2c-0.2,0-0.5,0.1-0.7,0.1c-1.3,0-2-0.7-2-2.1v-3.5
		H316v-0.6l1-0.5l0.5-1.4h0.9v1.4h1.9v1h-1.9v3.5c0,0.3,0.1,0.5,0.2,0.7C318.7,433.5,319,433.6,319.2,433.6z"/>
	<path class="st5" d="M324.7,428c0.2,0,0.5,0,0.7,0l-0.1,1.3c-0.2,0-0.4-0.1-0.6-0.1c-0.5,0-1,0.2-1.3,0.5c-0.3,0.4-0.5,0.9-0.5,1.4
		v3.4h-1.4v-6.5h1.1l0.2,1.1h0.1c0.2-0.4,0.5-0.7,0.8-0.9C323.9,428.1,324.3,428,324.7,428z"/>
	<path class="st5" d="M326.3,426.4c0-0.4,0.2-0.7,0.6-0.8c0.1,0,0.1,0,0.2,0c0.2,0,0.4,0.1,0.6,0.2c0.3,0.3,0.3,0.8,0,1.1
		c-0.2,0.1-0.4,0.2-0.6,0.2c-0.2,0-0.4-0.1-0.6-0.2C326.3,426.8,326.3,426.6,326.3,426.4z M327.7,434.6h-1.4v-6.5h1.4V434.6z"/>
	<path class="st5" d="M332.1,434.7c-0.8,0.1-1.7-0.3-2.2-0.9c-0.6-0.7-0.8-1.6-0.8-2.5c-0.1-0.9,0.2-1.8,0.8-2.5
		c0.6-0.6,1.5-0.9,2.3-0.9c0.6,0,1.3,0.1,1.9,0.4l-0.4,1.1c-0.5-0.2-0.9-0.3-1.4-0.3c-1.1,0-1.7,0.8-1.7,2.2c0,0.6,0.1,1.1,0.4,1.6
		c0.3,0.4,0.8,0.6,1.2,0.5c0.6,0,1.2-0.2,1.7-0.5v1.2c-0.2,0.1-0.5,0.2-0.8,0.3C332.8,434.7,332.5,434.7,332.1,434.7z"/>
	<path class="st5" d="M339.6,432.8c0,0.6-0.2,1.1-0.7,1.5c-0.6,0.4-1.3,0.6-2,0.5c-0.7,0-1.4-0.1-2.1-0.4v-1.2
		c0.7,0.3,1.4,0.5,2.1,0.5c0.9,0,1.3-0.3,1.3-0.8c0-0.1,0-0.3-0.1-0.4c-0.1-0.1-0.3-0.3-0.5-0.3c-0.3-0.2-0.6-0.3-0.9-0.4
		c-0.6-0.2-1.1-0.5-1.5-0.9c-0.3-0.3-0.4-0.7-0.4-1.1c0-0.5,0.2-1,0.7-1.3c0.5-0.3,1.2-0.5,1.8-0.5c0.7,0,1.5,0.2,2.2,0.5l-0.5,1
		c-0.6-0.3-1.2-0.4-1.8-0.4c-0.7,0-1.1,0.2-1.1,0.6c0,0.2,0.1,0.4,0.3,0.5c0.4,0.2,0.8,0.4,1.2,0.6c0.4,0.1,0.8,0.3,1.2,0.6
		c0.2,0.2,0.4,0.4,0.5,0.6C339.6,432.2,339.6,432.5,339.6,432.8z"/>
	<path class="st5" d="M349,432.3c0,0.7-0.3,1.4-0.8,1.8c-0.7,0.5-1.5,0.7-2.3,0.6c-0.8,0-1.6-0.1-2.4-0.5V433
		c0.4,0.2,0.8,0.3,1.2,0.4c0.4,0.1,0.8,0.2,1.2,0.2c0.4,0,0.9-0.1,1.2-0.3c0.3-0.2,0.4-0.5,0.4-0.9c0-0.3-0.1-0.6-0.4-0.8
		c-0.5-0.3-1-0.6-1.5-0.8c-0.6-0.2-1.2-0.6-1.6-1.1c-0.3-0.4-0.5-0.9-0.5-1.5c0-0.7,0.2-1.3,0.8-1.7c0.6-0.4,1.3-0.6,2-0.6
		c0.8,0,1.7,0.2,2.5,0.5l-0.5,1.1c-0.6-0.3-1.3-0.5-2-0.5c-0.4,0-0.7,0.1-1,0.3c-0.2,0.2-0.4,0.5-0.4,0.8c0,0.2,0,0.4,0.1,0.6
		c0.1,0.2,0.3,0.3,0.5,0.5c0.4,0.2,0.8,0.4,1.2,0.6c0.5,0.2,1,0.4,1.4,0.7c0.3,0.2,0.5,0.5,0.6,0.8C349,431.6,349,432,349,432.3z"/>
	<path class="st5" d="M352.7,433.6c0.3,0,0.7-0.1,1-0.2v1c-0.2,0.1-0.4,0.1-0.6,0.2c-0.2,0-0.5,0.1-0.8,0.1c-1.3,0-2-0.7-2-2.1v-3.5
		h-0.9v-0.6l1-0.5l0.5-1.4h0.9v1.4h1.8v1h-1.8v3.5c0,0.3,0.1,0.5,0.2,0.7C352.2,433.5,352.5,433.6,352.7,433.6z"/>
	<path class="st5" d="M360.6,431.4c0.1,0.9-0.2,1.8-0.8,2.5c-0.6,0.6-1.4,0.9-2.3,0.9c-0.6,0-1.1-0.1-1.6-0.4
		c-0.5-0.3-0.8-0.7-1.1-1.2c-0.3-0.6-0.4-1.2-0.4-1.8c-0.1-0.9,0.2-1.8,0.8-2.5c1.3-1.2,3.2-1.2,4.5,0
		C360.4,429.6,360.6,430.5,360.6,431.4z M355.9,431.4c0,1.5,0.6,2.2,1.7,2.2s1.6-0.7,1.6-2.2s-0.5-2.2-1.6-2.2c-0.5,0-1,0.2-1.3,0.6
		C356,430.2,355.8,430.8,355.9,431.4z"/>
	<path class="st5" d="M365.3,428c0.2,0,0.5,0,0.7,0l-0.1,1.3c-0.2,0-0.4-0.1-0.6-0.1c-0.5,0-1,0.2-1.3,0.5c-0.3,0.4-0.5,0.9-0.5,1.4
		v3.4H362v-6.5h1.1l0.2,1.1h0.1c0.2-0.4,0.5-0.7,0.8-0.9C364.5,428.1,364.9,428,365.3,428z"/>
	<path class="st5" d="M369.8,434.7c-0.9,0.1-1.7-0.3-2.4-0.9c-0.6-0.7-0.9-1.5-0.9-2.4c-0.1-0.9,0.2-1.8,0.8-2.5
		c0.6-0.6,1.4-0.9,2.2-0.9c0.7,0,1.5,0.2,2,0.8c0.5,0.6,0.8,1.4,0.8,2.1v0.7H368c0,0.5,0.2,1,0.5,1.5c0.4,0.4,0.8,0.5,1.4,0.5
		c0.4,0,0.7,0,1.1-0.1c0.4-0.1,0.7-0.2,1.1-0.4v1.1c-0.3,0.2-0.7,0.3-1,0.3C370.6,434.7,370.2,434.7,369.8,434.7z M369.6,429.1
		c-0.4,0-0.8,0.1-1.1,0.4c-0.3,0.3-0.5,0.8-0.5,1.2h3c0-0.4-0.1-0.9-0.4-1.2C370.3,429.2,370,429,369.6,429.1L369.6,429.1z"/>
	<path class="st5" d="M424.9,429.4c0.1,1.2-0.3,2.4-1.2,3.2c-0.9,0.8-2.2,1.2-3.4,1.1H418v-8.6h2.6c1.2-0.1,2.3,0.3,3.2,1.1
		C424.6,427.1,425,428.3,424.9,429.4z M423.4,429.4c0-2-1-3.1-2.9-3.1h-1.2v6.2h1C422.4,432.6,423.4,431.6,423.4,429.4L423.4,429.4z
		"/>
	<path class="st5" d="M430.5,433.8l-0.3-0.9l0,0c-0.2,0.3-0.6,0.6-1,0.8c-0.4,0.2-0.8,0.2-1.2,0.2c-0.5,0-1.1-0.2-1.5-0.5
		c-0.4-0.4-0.6-0.9-0.5-1.5c0-0.6,0.2-1.2,0.7-1.5c0.7-0.4,1.5-0.6,2.3-0.6h1.1v-0.4c0-0.3-0.1-0.7-0.3-0.9
		c-0.2-0.2-0.6-0.3-0.9-0.3c-0.3,0-0.7,0-1,0.1c-0.3,0.1-0.6,0.2-0.9,0.4l-0.5-1c0.4-0.2,0.8-0.3,1.1-0.4c0.4-0.1,0.8-0.1,1.2-0.1
		c0.7,0,1.3,0.1,1.9,0.5c0.5,0.4,0.7,1.1,0.6,1.7v4.4L430.5,433.8z M428.4,432.8c0.4,0,0.9-0.1,1.2-0.4c0.3-0.3,0.5-0.7,0.5-1.2
		v-0.6h-0.8c-0.5,0-1,0.1-1.4,0.3c-0.3,0.2-0.5,0.5-0.4,0.9c0,0.3,0.1,0.5,0.3,0.7C427.9,432.7,428.2,432.9,428.4,432.8z"/>
	<path class="st5" d="M435.6,432.8c0.3,0,0.7-0.1,1-0.2v1c-0.2,0.1-0.4,0.1-0.6,0.2c-0.2,0-0.5,0.1-0.8,0.1c-1.3,0-2-0.7-2-2.1v-3.5
		h-0.9v-0.6l1-0.5l0.5-1.4h0.9v1.4h1.8v1h-1.8v3.5c0,0.3,0.1,0.5,0.2,0.7C435.1,432.7,435.4,432.8,435.6,432.8z"/>
	<path class="st5" d="M441.8,433.8l-0.3-0.9l0,0c-0.2,0.3-0.6,0.6-1,0.8c-0.4,0.2-0.8,0.2-1.2,0.2c-0.5,0-1.1-0.2-1.5-0.5
		c-0.4-0.4-0.6-0.9-0.5-1.5c0-0.6,0.2-1.2,0.7-1.5c0.7-0.4,1.5-0.6,2.3-0.6h1.1v-0.4c0-0.3-0.1-0.7-0.3-0.9
		c-0.2-0.2-0.6-0.3-0.9-0.3c-0.3,0-0.7,0-1,0.1c-0.3,0.1-0.6,0.2-0.9,0.4l-0.4-1c0.4-0.2,0.8-0.3,1.1-0.4c0.4-0.1,0.8-0.1,1.2-0.1
		c0.7,0,1.3,0.1,1.9,0.5c0.5,0.4,0.7,1.1,0.6,1.7v4.4L441.8,433.8z M439.8,432.8c0.4,0,0.9-0.1,1.2-0.4c0.3-0.3,0.5-0.7,0.5-1.2
		v-0.6h-0.8c-0.5,0-1,0.1-1.4,0.3c-0.3,0.2-0.5,0.5-0.4,0.9c0,0.2,0.1,0.5,0.2,0.7C439.2,432.8,439.5,432.9,439.8,432.8z"/>
	<path class="st5" d="M447.8,427.2c0.7,0,1.4,0.3,1.9,0.9c0.5,0.7,0.7,1.6,0.7,2.5c0.1,0.9-0.2,1.8-0.7,2.5
		c-0.5,0.6-1.2,0.9-1.9,0.9c-0.7,0-1.5-0.3-1.9-0.9h-0.1l-0.2,0.8h-1v-9.1h1.4v2.2c0,0.2,0,0.4,0,0.7s0,0.5,0,0.6h0.1
		C446.4,427.5,447.1,427.2,447.8,427.2z M447.5,428.3c-0.5,0-0.9,0.1-1.2,0.5c-0.3,0.5-0.4,1.1-0.4,1.6v0.1c0,0.6,0.1,1.2,0.4,1.7
		c0.3,0.4,0.7,0.6,1.2,0.5c0.4,0,0.9-0.2,1.1-0.6c0.3-0.5,0.4-1.1,0.4-1.7C449,429,448.5,428.3,447.5,428.3z"/>
	<path class="st5" d="M455.9,433.8l-0.3-0.9h0c-0.2,0.3-0.6,0.6-0.9,0.8c-0.4,0.2-0.8,0.2-1.2,0.2c-0.5,0-1.1-0.2-1.5-0.5
		c-0.4-0.4-0.6-0.9-0.5-1.5c0-0.6,0.3-1.2,0.8-1.5c0.7-0.4,1.5-0.6,2.3-0.6h1.1v-0.4c0-0.3-0.1-0.7-0.3-0.9
		c-0.2-0.2-0.6-0.3-0.9-0.3c-0.3,0-0.6,0-1,0.1c-0.3,0.1-0.6,0.2-0.9,0.4l-0.5-1c0.4-0.2,0.8-0.3,1.2-0.4c0.4-0.1,0.8-0.1,1.2-0.1
		c0.7,0,1.3,0.1,1.9,0.5c0.5,0.4,0.7,1.1,0.6,1.7v4.4L455.9,433.8z M453.8,432.8c0.4,0,0.9-0.1,1.2-0.4c0.3-0.3,0.5-0.7,0.5-1.2
		v-0.6h-0.8c-0.5,0-1,0.1-1.4,0.3c-0.3,0.2-0.5,0.5-0.4,0.9c0,0.3,0.1,0.5,0.3,0.7C453.3,432.7,453.5,432.9,453.8,432.8L453.8,432.8
		z"/>
	<path class="st5" d="M463,431.9c0,0.6-0.2,1.1-0.7,1.5c-0.6,0.4-1.3,0.6-2,0.5c-0.7,0-1.4-0.1-2.1-0.4v-1.2
		c0.7,0.3,1.4,0.5,2.1,0.5c0.9,0,1.3-0.3,1.3-0.8c0-0.1,0-0.3-0.1-0.4c-0.1-0.1-0.3-0.3-0.5-0.3c-0.3-0.2-0.6-0.3-0.9-0.4
		c-0.6-0.2-1.1-0.5-1.5-0.9c-0.3-0.3-0.4-0.7-0.4-1.1c0-0.5,0.2-1,0.7-1.3c0.5-0.3,1.2-0.5,1.8-0.5c0.7,0,1.5,0.2,2.2,0.5l-0.5,1
		c-0.6-0.3-1.2-0.4-1.8-0.4c-0.7,0-1.1,0.2-1.1,0.6c0,0.2,0.1,0.4,0.3,0.5c0.4,0.2,0.8,0.4,1.2,0.6c0.4,0.1,0.8,0.3,1.2,0.6
		c0.2,0.2,0.4,0.4,0.5,0.6C462.9,431.3,463,431.6,463,431.9z"/>
	<path class="st5" d="M467.1,433.9c-0.9,0.1-1.7-0.3-2.4-0.9c-0.6-0.7-0.9-1.5-0.9-2.4c-0.1-0.9,0.2-1.8,0.8-2.5
		c0.5-0.6,1.3-1,2.2-0.9c0.7,0,1.5,0.3,2,0.8c0.5,0.6,0.8,1.4,0.7,2.1v0.8h-4.3c0,0.5,0.2,1,0.5,1.5c0.4,0.4,0.9,0.5,1.4,0.5
		c0.4,0,0.7,0,1.1-0.1c0.4-0.1,0.7-0.2,1.1-0.4v1.1c-0.3,0.2-0.7,0.3-1,0.3C467.9,433.9,467.5,433.9,467.1,433.9z M466.9,428.2
		c-0.4,0-0.8,0.1-1,0.4c-0.3,0.3-0.5,0.8-0.5,1.2h2.9c0-0.4-0.1-0.9-0.4-1.2C467.6,428.4,467.2,428.2,466.9,428.2z"/>
	<path class="st5" d="M475.4,431.9c0,0.6-0.2,1.1-0.7,1.5c-0.6,0.4-1.3,0.6-2,0.5c-0.7,0-1.4-0.1-2.1-0.4v-1.2
		c0.7,0.3,1.4,0.5,2.1,0.5c0.8,0,1.3-0.3,1.3-0.8c0-0.1,0-0.3-0.1-0.4c-0.1-0.1-0.3-0.3-0.5-0.3c-0.3-0.2-0.6-0.3-0.9-0.4
		c-0.6-0.2-1.1-0.5-1.5-0.9c-0.3-0.3-0.4-0.7-0.4-1.1c0-0.5,0.2-1,0.7-1.3c0.5-0.3,1.2-0.5,1.8-0.5c0.7,0,1.5,0.2,2.2,0.5l-0.4,1
		c-0.6-0.3-1.2-0.4-1.8-0.4c-0.7,0-1.1,0.2-1.1,0.6c0,0.2,0.1,0.4,0.3,0.5c0.4,0.2,0.8,0.4,1.2,0.6c0.4,0.1,0.8,0.3,1.2,0.6
		c0.2,0.2,0.4,0.4,0.5,0.6C475.3,431.3,475.4,431.6,475.4,431.9z"/>
</g>
<g>
	<path class="st10" d="M432.2,387.2v5.2c0,2.5,5.8,5.4,14.1,5.4s14.2-2.9,14.2-5.4v-5.2c-2.6,2.4-7.9,3.9-14.2,3.9
		S434.8,389.6,432.2,387.2z"/>
	<path class="st10" d="M432.2,396.2v4.8c0,2.5,5.8,5.4,14.1,5.4s14.2-2.9,14.2-5.4v-4.8c-2.6,2.4-7.9,3.9-14.2,3.9
		S434.8,398.5,432.2,396.2z"/>
	<path class="st10" d="M446.3,378.1c-8.3,0-14.1,2.9-14.1,5.4s5.8,5.4,14.1,5.4s14.2-2.9,14.2-5.4S454.7,378.1,446.3,378.1z"/>
</g>
<path class="st7" d="M584.1,310.9c-0.3-1.9-0.8-3.7-1.4-5.5c-0.2,0.6-0.6,1.1-0.9,1.7c-3.4-3.5-8.9-3.6-12.4-0.2
	c-0.6,0.5-1,1.1-1.4,1.8c1.3,0.1,2.6,0.6,3.6,1.5c-1-0.7-2.2-1-3.4-1c-3.4-0.1-6.3,2.5-6.4,5.9c-0.1,3.4,2.5,6.3,5.9,6.4
	c0.2,0,0.3,0,0.5,0h14.3c3,0,5.5-2.4,5.5-5.5C587.9,313.8,586.3,311.6,584.1,310.9L584.1,310.9z M570.7,319.7
	c-0.2,0.3-0.7,0.4-1,0.2c-0.3-0.2-0.4-0.7-0.2-1c0,0,0.1-0.1,0.1-0.1c0.2-0.3,0.7-0.4,1-0.2c0.3,0.2,0.4,0.7,0.2,1
	C570.8,319.6,570.7,319.7,570.7,319.7z M582.6,317.1c-2.2,2.9-6.8,1.9-9.8,2c0,0-0.5,0-1,0.1c0.2-0.1,0.3-0.1,0.5-0.2
	c1.5-0.4,2.9-0.9,4.3-1.5c2.6-1.3,4.5-3.8,5.2-6.6c-0.9,2.6-3.7,4.9-6.2,5.9c-1.6,0.5-3.2,0.9-4.8,1.2l-0.1-0.1
	c-2.1-1-2.2-5.6,1.7-7.1c1.7-0.6,3.3-0.3,5.1-0.7c2.2-0.5,4-1.9,5.1-3.8C583.6,309.4,584.8,314.1,582.6,317.1L582.6,317.1z"/>
</svg>
