<?xml version="1.0" encoding="utf-8"?>
<!-- Generator: Adobe Illustrator 24.0.1, SVG Export Plug-In . SVG Version: 6.00 Build 0)  -->
<svg version="1.1" id="Layer_1" xmlns="http://www.w3.org/2000/svg" xmlns:xlink="http://www.w3.org/1999/xlink" x="0px" y="0px"
	 viewBox="0 0 745 340.5" style="enable-background:new 0 0 745 340.5;" xml:space="preserve">
<style type="text/css">
	.st0{fill:#EBF2F2;}
	.st1{fill:#FFFFFF;stroke:#6DB33F;stroke-width:2;stroke-miterlimit:10;}
	.st2{enable-background:new    ;}
	.st3{fill:#333333;}
	.st4{fill:none;stroke:#98AFAE;stroke-width:2;stroke-miterlimit:10;}
	.st5{fill:#98AFAE;}
</style>
<title>diagram-batch</title>
<path class="st0" d="M6.2,0h732.6c3.4,0,6.2,2.8,6.2,6.2v328.1c0,3.4-2.8,6.2-6.2,6.2H6.2c-3.4,0-6.2-2.8-6.2-6.2V6.2
	C0,2.8,2.8,0,6.2,0z"/>
<rect x="43.8" y="242.6" class="st1" width="455" height="38.4"/>
<rect x="45.1" y="113.7" class="st1" width="118.2" height="47.6"/>
<g class="st2">
	<path class="st3" d="M60,144.4c-0.4,0-0.8-0.1-1.1-0.2v-1.4c0.4,0.1,0.7,0.1,1,0.1c0.9,0,1.3-0.6,1.3-1.7v-9.7h1.6v9.6
		c0,1-0.2,1.8-0.7,2.3C61.7,144.1,61,144.4,60,144.4z"/>
	<path class="st3" d="M72,137.8c0,1.2-0.3,2.2-1,2.9c-0.6,0.7-1.5,1-2.6,1c-0.7,0-1.3-0.2-1.9-0.5c-0.5-0.3-1-0.8-1.3-1.4
		c-0.3-0.6-0.4-1.3-0.4-2.1c0-1.2,0.3-2.2,0.9-2.9s1.5-1,2.7-1c1.1,0,2,0.4,2.6,1.1C71.7,135.7,72,136.6,72,137.8z M66.5,137.8
		c0,1.7,0.6,2.6,1.9,2.6c1.3,0,1.9-0.9,1.9-2.6c0-1.7-0.6-2.6-1.9-2.6c-0.7,0-1.2,0.2-1.5,0.7C66.7,136.4,66.5,137,66.5,137.8z"/>
	<path class="st3" d="M77.7,133.9c0.9,0,1.7,0.3,2.2,1s0.8,1.6,0.8,2.9c0,1.2-0.3,2.2-0.8,2.9c-0.5,0.7-1.3,1-2.2,1
		c-1,0-1.7-0.3-2.2-1h-0.1l-0.3,0.9h-1.2V131h1.6v2.5c0,0.2,0,0.5,0,0.8c0,0.4,0,0.6,0,0.7h0.1C76,134.3,76.7,133.9,77.7,133.9z
		 M77.3,135.2c-0.6,0-1.1,0.2-1.4,0.6c-0.3,0.4-0.4,1-0.4,1.9v0.1c0,0.9,0.1,1.6,0.4,2c0.3,0.4,0.8,0.6,1.4,0.6c0.6,0,1-0.2,1.3-0.7
		s0.4-1.1,0.4-2C79.1,136.1,78.5,135.2,77.3,135.2z"/>
	<path class="st3" d="M86.4,141.6v-10H88v8.6h4.2v1.4H86.4z"/>
	<path class="st3" d="M98.6,141.6l-0.3-1.1h-0.1c-0.4,0.5-0.7,0.8-1.1,0.9c-0.4,0.2-0.8,0.2-1.4,0.2c-0.7,0-1.3-0.2-1.7-0.6
		s-0.6-1-0.6-1.7c0-0.8,0.3-1.4,0.9-1.8c0.6-0.4,1.5-0.6,2.6-0.6l1.3,0v-0.4c0-0.5-0.1-0.8-0.3-1.1c-0.2-0.2-0.6-0.4-1-0.4
		c-0.4,0-0.8,0.1-1.1,0.2s-0.7,0.2-1,0.4l-0.5-1.1c0.4-0.2,0.9-0.4,1.3-0.5c0.5-0.1,0.9-0.2,1.4-0.2c1,0,1.7,0.2,2.2,0.6
		c0.5,0.4,0.7,1.1,0.7,2v5.1H98.6z M96.2,140.5c0.6,0,1.1-0.2,1.4-0.5c0.4-0.3,0.5-0.8,0.5-1.4V138l-1,0c-0.8,0-1.3,0.2-1.7,0.4
		c-0.3,0.2-0.5,0.6-0.5,1c0,0.3,0.1,0.6,0.3,0.8C95.5,140.4,95.8,140.5,96.2,140.5z"/>
	<path class="st3" d="M107.3,141.6l-0.2-1H107c-0.2,0.4-0.5,0.6-1,0.8c-0.4,0.2-0.9,0.3-1.4,0.3c-0.9,0-1.6-0.2-2.1-0.7
		s-0.7-1.1-0.7-2.1v-4.9h1.6v4.7c0,0.6,0.1,1,0.4,1.3c0.2,0.3,0.6,0.4,1.1,0.4c0.7,0,1.2-0.2,1.5-0.6c0.3-0.4,0.5-1.1,0.5-2v-3.8
		h1.6v7.6H107.3z"/>
	<path class="st3" d="M117.5,141.6h-1.6V137c0-0.6-0.1-1-0.4-1.3c-0.2-0.3-0.6-0.4-1.1-0.4c-0.7,0-1.2,0.2-1.5,0.6s-0.5,1.1-0.5,2
		v3.8h-1.6v-7.6h1.3l0.2,1h0.1c0.2-0.4,0.6-0.6,1-0.8c0.4-0.2,0.9-0.3,1.4-0.3c1.8,0,2.7,0.9,2.7,2.8V141.6z"/>
	<path class="st3" d="M122.8,141.8c-1.1,0-2-0.3-2.6-1c-0.6-0.7-0.9-1.6-0.9-2.9c0-1.3,0.3-2.2,0.9-2.9s1.5-1,2.7-1
		c0.8,0,1.5,0.1,2.2,0.4l-0.5,1.3c-0.7-0.3-1.2-0.4-1.7-0.4c-1.3,0-2,0.9-2,2.6c0,0.8,0.2,1.5,0.5,1.9c0.3,0.4,0.8,0.6,1.4,0.6
		c0.7,0,1.4-0.2,2-0.5v1.4c-0.3,0.2-0.6,0.3-0.9,0.4C123.6,141.7,123.2,141.8,122.8,141.8z"/>
	<path class="st3" d="M133.3,141.6h-1.6V137c0-0.6-0.1-1-0.4-1.3c-0.2-0.3-0.6-0.4-1.1-0.4c-0.7,0-1.2,0.2-1.5,0.6
		c-0.3,0.4-0.5,1.1-0.5,2v3.8h-1.6V131h1.6v2.7c0,0.4,0,0.9-0.1,1.4h0.1c0.2-0.4,0.5-0.6,0.9-0.8s0.8-0.3,1.4-0.3
		c1.8,0,2.7,0.9,2.7,2.8V141.6z"/>
	<path class="st3" d="M138.8,141.8c-1.2,0-2.1-0.3-2.8-1c-0.7-0.7-1-1.6-1-2.8c0-1.2,0.3-2.2,0.9-2.9s1.5-1.1,2.5-1.1
		c1,0,1.8,0.3,2.4,0.9c0.6,0.6,0.9,1.4,0.9,2.5v0.9h-5c0,0.7,0.2,1.3,0.6,1.7c0.4,0.4,0.9,0.6,1.6,0.6c0.4,0,0.9,0,1.2-0.1
		c0.4-0.1,0.8-0.2,1.2-0.4v1.3c-0.4,0.2-0.8,0.3-1.2,0.4C139.8,141.7,139.4,141.8,138.8,141.8z M138.5,135.1c-0.5,0-0.9,0.2-1.2,0.5
		s-0.5,0.8-0.5,1.4h3.4c0-0.6-0.2-1.1-0.5-1.4C139.5,135.3,139.1,135.1,138.5,135.1z"/>
	<path class="st3" d="M147.4,133.9c0.3,0,0.6,0,0.8,0.1l-0.2,1.5c-0.2-0.1-0.5-0.1-0.7-0.1c-0.6,0-1.2,0.2-1.6,0.6
		c-0.4,0.4-0.6,1-0.6,1.6v4h-1.6v-7.6h1.3l0.2,1.3h0.1c0.2-0.5,0.6-0.8,1-1.1S147,133.9,147.4,133.9z"/>
</g>
<g class="st2">
	<path class="st3" d="M46.5,38.9h3.8c1.8,0,3,0.3,3.8,0.8s1.2,1.3,1.2,2.4c0,0.8-0.2,1.4-0.6,1.9S53.8,44.8,53,45V45
		c0.9,0.2,1.6,0.5,2,1c0.4,0.5,0.6,1.2,0.6,2c0,1.2-0.4,2.1-1.2,2.7c-0.8,0.7-1.9,1-3.4,1h-4.6V38.9z M48.6,44.2h2
		c0.9,0,1.5-0.1,1.9-0.4c0.4-0.3,0.6-0.8,0.6-1.4c0-0.6-0.2-1-0.7-1.3s-1.1-0.4-2.1-0.4h-1.8V44.2z M48.6,45.9V50h2.2
		c0.9,0,1.5-0.2,2-0.5s0.7-0.9,0.7-1.6c0-0.7-0.2-1.2-0.7-1.5s-1.2-0.5-2.1-0.5H48.6z"/>
	<path class="st3" d="M64.2,51.8l-0.4-1.4h-0.1c-0.5,0.6-0.9,1-1.4,1.2c-0.5,0.2-1.1,0.3-1.8,0.3c-1,0-1.7-0.3-2.2-0.8
		s-0.8-1.2-0.8-2.2c0-1,0.4-1.8,1.1-2.3s1.9-0.8,3.4-0.8l1.7-0.1v-0.5c0-0.6-0.1-1.1-0.4-1.4c-0.3-0.3-0.7-0.5-1.3-0.5
		c-0.5,0-1,0.1-1.4,0.2s-0.9,0.3-1.3,0.5l-0.7-1.5c0.5-0.3,1.1-0.5,1.7-0.6c0.6-0.1,1.2-0.2,1.8-0.2c1.2,0,2.2,0.3,2.8,0.8
		s0.9,1.4,0.9,2.5v6.5H64.2z M61.1,50.4c0.8,0,1.4-0.2,1.8-0.6c0.5-0.4,0.7-1,0.7-1.8v-0.8l-1.2,0.1c-1,0-1.7,0.2-2.1,0.5
		c-0.4,0.3-0.7,0.7-0.7,1.3c0,0.4,0.1,0.8,0.4,1C60.2,50.3,60.6,50.4,61.1,50.4z"/>
	<path class="st3" d="M72.2,50.3c0.5,0,1-0.1,1.5-0.2v1.6c-0.2,0.1-0.5,0.2-0.9,0.2S72.1,52,71.7,52c-2,0-2.9-1-2.9-3.1v-5.2h-1.3
		v-0.9l1.4-0.8l0.7-2.1h1.3v2.2h2.8v1.6h-2.8v5.2c0,0.5,0.1,0.9,0.4,1.1C71.5,50.2,71.8,50.3,72.2,50.3z"/>
	<path class="st3" d="M79.6,52c-1.5,0-2.6-0.4-3.4-1.3s-1.1-2.1-1.1-3.7c0-1.6,0.4-2.9,1.2-3.8s2-1.3,3.5-1.3c1,0,1.9,0.2,2.8,0.6
		l-0.6,1.7c-0.9-0.3-1.6-0.5-2.2-0.5c-1.7,0-2.5,1.1-2.5,3.3c0,1.1,0.2,1.9,0.6,2.5c0.4,0.5,1,0.8,1.8,0.8c0.9,0,1.8-0.2,2.6-0.7
		v1.8c-0.4,0.2-0.8,0.4-1.2,0.5S80.2,52,79.6,52z"/>
	<path class="st3" d="M93.1,51.8H91v-6c0-0.8-0.2-1.3-0.5-1.7s-0.8-0.6-1.4-0.6c-0.9,0-1.5,0.3-1.9,0.8c-0.4,0.5-0.6,1.4-0.6,2.6
		v4.8h-2.1V38.1h2.1v3.5c0,0.6,0,1.2-0.1,1.8h0.1c0.3-0.5,0.7-0.8,1.2-1.1s1.1-0.4,1.8-0.4c2.4,0,3.5,1.2,3.5,3.6V51.8z"/>
	<path class="st3" d="M108.3,48.3c0,1.1-0.4,2-1.2,2.7s-2,1-3.4,1s-2.6-0.2-3.6-0.7v-2c0.6,0.3,1.2,0.5,1.9,0.7s1.3,0.2,1.8,0.2
		c0.8,0,1.4-0.2,1.8-0.5s0.6-0.7,0.6-1.3c0-0.5-0.2-0.9-0.5-1.2s-1.1-0.7-2.2-1.2c-1.2-0.5-2-1-2.5-1.6s-0.7-1.3-0.7-2.2
		c0-1.1,0.4-1.9,1.1-2.5s1.8-0.9,3.1-0.9c1.2,0,2.5,0.3,3.7,0.8l-0.7,1.7c-1.1-0.5-2.2-0.7-3.1-0.7c-0.7,0-1.2,0.1-1.5,0.4
		c-0.4,0.3-0.5,0.7-0.5,1.2c0,0.3,0.1,0.6,0.2,0.9c0.1,0.2,0.4,0.5,0.7,0.7s0.9,0.5,1.7,0.8c0.9,0.4,1.6,0.8,2.1,1.1s0.8,0.7,1,1.2
		S108.3,47.7,108.3,48.3z"/>
	<path class="st3" d="M114.2,50.3c0.5,0,1-0.1,1.5-0.2v1.6c-0.2,0.1-0.5,0.2-0.9,0.2s-0.7,0.1-1.1,0.1c-2,0-2.9-1-2.9-3.1v-5.2h-1.3
		v-0.9l1.4-0.8l0.7-2.1h1.3v2.2h2.8v1.6h-2.8v5.2c0,0.5,0.1,0.9,0.4,1.1C113.4,50.2,113.8,50.3,114.2,50.3z"/>
	<path class="st3" d="M121.9,52c-1.5,0-2.7-0.4-3.5-1.3S117,48.5,117,47c0-1.6,0.4-2.8,1.2-3.7s1.9-1.4,3.3-1.4c1.3,0,2.3,0.4,3,1.2
		s1.1,1.9,1.1,3.2v1.1h-6.5c0,0.9,0.3,1.7,0.8,2.2s1.2,0.8,2,0.8c0.6,0,1.1-0.1,1.6-0.2s1-0.3,1.6-0.5v1.7c-0.5,0.2-1,0.4-1.5,0.5
		S122.5,52,121.9,52z M121.5,43.4c-0.7,0-1.2,0.2-1.6,0.6s-0.6,1-0.7,1.8h4.4c0-0.8-0.2-1.4-0.6-1.8
		C122.7,43.7,122.1,43.4,121.5,43.4z"/>
	<path class="st3" d="M132.9,41.9c0.4,0,0.8,0,1,0.1l-0.2,1.9c-0.3-0.1-0.6-0.1-0.9-0.1c-0.8,0-1.5,0.3-2,0.8s-0.8,1.2-0.8,2.1v5.1
		H128v-9.7h1.6l0.3,1.7h0.1c0.3-0.6,0.7-1,1.3-1.4S132.3,41.9,132.9,41.9z"/>
	<path class="st3" d="M140,52c-1.5,0-2.7-0.4-3.5-1.3s-1.3-2.1-1.3-3.6c0-1.6,0.4-2.8,1.2-3.7s1.9-1.4,3.3-1.4c1.3,0,2.3,0.4,3,1.2
		s1.1,1.9,1.1,3.2v1.1h-6.5c0,0.9,0.3,1.7,0.8,2.2s1.2,0.8,2,0.8c0.6,0,1.1-0.1,1.6-0.2s1-0.3,1.6-0.5v1.7c-0.5,0.2-1,0.4-1.5,0.5
		S140.7,52,140,52z M139.6,43.4c-0.7,0-1.2,0.2-1.6,0.6s-0.6,1-0.7,1.8h4.4c0-0.8-0.2-1.4-0.6-1.8C140.8,43.7,140.3,43.4,139.6,43.4
		z"/>
	<path class="st3" d="M154.7,46.9c0,1.6-0.4,2.8-1.2,3.7s-1.9,1.3-3.4,1.3c-0.9,0-1.7-0.2-2.4-0.6s-1.2-1-1.6-1.8s-0.6-1.7-0.6-2.7
		c0-1.6,0.4-2.8,1.2-3.7s1.9-1.3,3.4-1.3c1.4,0,2.5,0.5,3.3,1.4C154.3,44.1,154.7,45.4,154.7,46.9z M147.7,46.9
		c0,2.2,0.8,3.4,2.5,3.4c1.6,0,2.5-1.1,2.5-3.4c0-2.2-0.8-3.3-2.5-3.3c-0.9,0-1.5,0.3-1.9,0.9S147.7,45.8,147.7,46.9z"/>
	<path class="st3" d="M160.7,50.3c0.5,0,1-0.1,1.5-0.2v1.6c-0.2,0.1-0.5,0.2-0.9,0.2s-0.7,0.1-1.1,0.1c-2,0-2.9-1-2.9-3.1v-5.2H156
		v-0.9l1.4-0.8l0.7-2.1h1.3v2.2h2.8v1.6h-2.8v5.2c0,0.5,0.1,0.9,0.4,1.1C160,50.2,160.3,50.3,160.7,50.3z"/>
	<path class="st3" d="M162.7,42.1h2.2l2,5.5c0.3,0.8,0.5,1.5,0.6,2.2h0.1c0.1-0.3,0.1-0.7,0.3-1.2s0.9-2.6,2.2-6.6h2.2l-4.2,11
		c-0.8,2-2,3-3.8,3c-0.5,0-0.9,0-1.3-0.1v-1.6c0.3,0.1,0.7,0.1,1.1,0.1c1,0,1.7-0.6,2.1-1.7l0.4-0.9L162.7,42.1z"/>
	<path class="st3" d="M178.8,52c-1.2,0-2.2-0.4-2.9-1.3h-0.1c0.1,0.8,0.1,1.3,0.1,1.5v4h-2.1v-14h1.7c0,0.2,0.1,0.6,0.3,1.3h0.1
		c0.6-1,1.6-1.5,2.9-1.5c1.2,0,2.2,0.4,2.8,1.3s1,2.1,1,3.7s-0.3,2.8-1,3.7S180,52,178.8,52z M178.3,43.6c-0.8,0-1.4,0.2-1.8,0.7
		s-0.6,1.2-0.6,2.3v0.3c0,1.2,0.2,2,0.6,2.6s1,0.8,1.8,0.8c0.7,0,1.3-0.3,1.7-0.9s0.6-1.4,0.6-2.5c0-1.1-0.2-1.9-0.6-2.5
		S179,43.6,178.3,43.6z"/>
	<path class="st3" d="M189.3,52c-1.5,0-2.7-0.4-3.5-1.3s-1.3-2.1-1.3-3.6c0-1.6,0.4-2.8,1.2-3.7s1.9-1.4,3.3-1.4
		c1.3,0,2.3,0.4,3,1.2s1.1,1.9,1.1,3.2v1.1h-6.5c0,0.9,0.3,1.7,0.8,2.2s1.2,0.8,2,0.8c0.6,0,1.1-0.1,1.6-0.2s1-0.3,1.6-0.5v1.7
		c-0.5,0.2-1,0.4-1.5,0.5S190,52,189.3,52z M188.9,43.4c-0.7,0-1.2,0.2-1.6,0.6s-0.6,1-0.7,1.8h4.4c0-0.8-0.2-1.4-0.6-1.8
		C190.1,43.7,189.6,43.4,188.9,43.4z"/>
	<path class="st3" d="M202,49c0,0.9-0.3,1.7-1,2.2s-1.7,0.8-3,0.8c-1.3,0-2.3-0.2-3.1-0.6v-1.8c1.1,0.5,2.2,0.8,3.2,0.8
		c1.3,0,1.9-0.4,1.9-1.2c0-0.2-0.1-0.5-0.2-0.6s-0.4-0.3-0.7-0.5s-0.8-0.4-1.3-0.6c-1.1-0.4-1.9-0.9-2.3-1.3s-0.6-1-0.6-1.7
		c0-0.8,0.3-1.5,1-1.9c0.7-0.5,1.6-0.7,2.7-0.7c1.1,0,2.2,0.2,3.2,0.7l-0.7,1.6c-1-0.4-1.9-0.7-2.6-0.7c-1.1,0-1.6,0.3-1.6,0.9
		c0,0.3,0.1,0.6,0.4,0.8s0.9,0.5,1.9,0.9c0.8,0.3,1.4,0.6,1.7,0.9s0.6,0.6,0.8,0.9S202,48.5,202,49z"/>
</g>
<rect x="212.8" y="113.7" class="st1" width="118.3" height="47.6"/>
<g class="st2">
	<path class="st3" d="M261.3,144.4c-0.4,0-0.8-0.1-1.1-0.2v-1.4c0.4,0.1,0.7,0.1,1,0.1c0.9,0,1.3-0.6,1.3-1.7v-9.7h1.6v9.6
		c0,1-0.2,1.8-0.7,2.3C262.9,144.1,262.2,144.4,261.3,144.4z"/>
	<path class="st3" d="M273.3,137.8c0,1.2-0.3,2.2-1,2.9s-1.5,1-2.6,1c-0.7,0-1.3-0.2-1.9-0.5s-1-0.8-1.3-1.4s-0.4-1.3-0.4-2.1
		c0-1.2,0.3-2.2,0.9-2.9s1.5-1,2.7-1c1.1,0,2,0.4,2.6,1.1C272.9,135.7,273.3,136.6,273.3,137.8z M267.8,137.8c0,1.7,0.6,2.6,1.9,2.6
		c1.3,0,1.9-0.9,1.9-2.6c0-1.7-0.6-2.6-1.9-2.6c-0.7,0-1.2,0.2-1.5,0.7S267.8,137,267.8,137.8z"/>
	<path class="st3" d="M279,133.9c0.9,0,1.7,0.3,2.2,1s0.8,1.6,0.8,2.9c0,1.2-0.3,2.2-0.8,2.9c-0.5,0.7-1.3,1-2.2,1
		c-1,0-1.7-0.3-2.2-1h-0.1l-0.3,0.9h-1.2V131h1.6v2.5c0,0.2,0,0.5,0,0.8s0,0.6,0,0.7h0.1C277.2,134.3,278,133.9,279,133.9z
		 M278.6,135.2c-0.6,0-1.1,0.2-1.4,0.6c-0.3,0.4-0.4,1-0.4,1.9v0.1c0,0.9,0.1,1.6,0.4,2c0.3,0.4,0.8,0.6,1.4,0.6
		c0.6,0,1-0.2,1.3-0.7s0.4-1.1,0.4-2C280.3,136.1,279.7,135.2,278.6,135.2z"/>
</g>
<rect x="380.5" y="113.7" class="st1" width="118.2" height="47.6"/>
<g class="st2">
	<path class="st3" d="M431.8,138.9c0,0.9-0.3,1.6-1,2.1s-1.5,0.8-2.7,0.8c-1.1,0-2.1-0.2-2.8-0.5v-1.5c0.5,0.2,0.9,0.4,1.5,0.5
		s1,0.2,1.4,0.2c0.6,0,1.1-0.1,1.4-0.4s0.5-0.6,0.5-1c0-0.4-0.1-0.7-0.4-1c-0.3-0.3-0.9-0.6-1.8-0.9c-0.9-0.4-1.6-0.8-1.9-1.3
		c-0.4-0.5-0.6-1-0.6-1.7c0-0.8,0.3-1.5,0.9-2c0.6-0.5,1.4-0.7,2.4-0.7c1,0,1.9,0.2,2.9,0.6l-0.5,1.3c-0.9-0.4-1.7-0.6-2.4-0.6
		c-0.5,0-0.9,0.1-1.2,0.3c-0.3,0.2-0.4,0.5-0.4,0.9c0,0.3,0.1,0.5,0.2,0.7c0.1,0.2,0.3,0.4,0.5,0.5c0.3,0.2,0.7,0.4,1.4,0.6
		c0.7,0.3,1.3,0.6,1.6,0.9s0.6,0.6,0.8,0.9C431.7,138.1,431.8,138.5,431.8,138.9z"/>
	<path class="st3" d="M436.3,140.5c0.4,0,0.8-0.1,1.2-0.2v1.2c-0.2,0.1-0.4,0.1-0.7,0.2c-0.3,0.1-0.6,0.1-0.9,0.1
		c-1.5,0-2.3-0.8-2.3-2.4v-4.1h-1v-0.7l1.1-0.6l0.5-1.6h1v1.7h2.2v1.2h-2.2v4c0,0.4,0.1,0.7,0.3,0.9
		C435.8,140.4,436,140.5,436.3,140.5z"/>
	<path class="st3" d="M442.3,141.8c-1.2,0-2.1-0.3-2.8-1c-0.7-0.7-1-1.6-1-2.8c0-1.2,0.3-2.2,0.9-2.9s1.5-1.1,2.5-1.1
		c1,0,1.8,0.3,2.4,0.9c0.6,0.6,0.9,1.4,0.9,2.5v0.9h-5c0,0.7,0.2,1.3,0.6,1.7c0.4,0.4,0.9,0.6,1.6,0.6c0.4,0,0.9,0,1.2-0.1
		c0.4-0.1,0.8-0.2,1.2-0.4v1.3c-0.4,0.2-0.8,0.3-1.2,0.4C443.3,141.7,442.8,141.8,442.3,141.8z M442,135.1c-0.5,0-0.9,0.2-1.2,0.5
		s-0.5,0.8-0.6,1.4h3.4c0-0.6-0.2-1.1-0.5-1.4C442.9,135.3,442.5,135.1,442,135.1z"/>
	<path class="st3" d="M450.9,141.8c-1,0-1.7-0.3-2.2-1h-0.1c0.1,0.6,0.1,1,0.1,1.2v3.1h-1.6v-10.9h1.3c0,0.1,0.1,0.5,0.2,1h0.1
		c0.5-0.8,1.3-1.1,2.3-1.1c0.9,0,1.7,0.3,2.2,1s0.8,1.6,0.8,2.9s-0.3,2.2-0.8,2.9C452.6,141.4,451.9,141.8,450.9,141.8z
		 M450.5,135.2c-0.6,0-1.1,0.2-1.4,0.6s-0.4,1-0.4,1.8v0.2c0,0.9,0.1,1.6,0.4,2c0.3,0.4,0.8,0.6,1.4,0.6c0.6,0,1-0.2,1.3-0.7
		s0.5-1.1,0.5-1.9c0-0.8-0.1-1.5-0.4-1.9C451.6,135.5,451.1,135.2,450.5,135.2z"/>
</g>
<rect x="566.7" y="113.7" class="st1" width="134.5" height="47.6"/>
<g class="st2">
	<path class="st3" d="M584.6,141.6v-10h1.6v10H584.6z"/>
	<path class="st3" d="M591.5,140.5c0.4,0,0.8-0.1,1.2-0.2v1.2c-0.2,0.1-0.4,0.1-0.7,0.2c-0.3,0.1-0.6,0.1-0.9,0.1
		c-1.5,0-2.3-0.8-2.3-2.4v-4.1h-1v-0.7l1.1-0.6l0.5-1.6h1v1.7h2.2v1.2h-2.2v4c0,0.4,0.1,0.7,0.3,0.9
		C590.9,140.4,591.2,140.5,591.5,140.5z"/>
	<path class="st3" d="M597.5,141.8c-1.2,0-2.1-0.3-2.8-1c-0.7-0.7-1-1.6-1-2.8c0-1.2,0.3-2.2,0.9-2.9s1.5-1.1,2.5-1.1
		c1,0,1.8,0.3,2.4,0.9c0.6,0.6,0.9,1.4,0.9,2.5v0.9h-5c0,0.7,0.2,1.3,0.6,1.7c0.4,0.4,0.9,0.6,1.6,0.6c0.4,0,0.9,0,1.2-0.1
		c0.4-0.1,0.8-0.2,1.2-0.4v1.3c-0.4,0.2-0.8,0.3-1.2,0.4C598.5,141.7,598,141.8,597.5,141.8z M597.2,135.1c-0.5,0-0.9,0.2-1.2,0.5
		s-0.5,0.8-0.6,1.4h3.4c0-0.6-0.2-1.1-0.5-1.4C598.1,135.3,597.7,135.1,597.2,135.1z"/>
	<path class="st3" d="M608.6,141.6H607V137c0-0.6-0.1-1-0.3-1.3c-0.2-0.3-0.6-0.4-1-0.4c-0.6,0-1.1,0.2-1.4,0.6
		c-0.3,0.4-0.4,1.1-0.4,2v3.8h-1.6v-7.6h1.3l0.2,1h0.1c0.2-0.4,0.5-0.6,0.9-0.8s0.8-0.3,1.3-0.3c1.2,0,1.9,0.4,2.3,1.2h0.1
		c0.2-0.4,0.5-0.7,0.9-0.9c0.4-0.2,0.9-0.3,1.4-0.3c0.9,0,1.6,0.2,2,0.7s0.6,1.2,0.6,2.1v4.9h-1.6V137c0-0.6-0.1-1-0.3-1.3
		c-0.2-0.3-0.6-0.4-1-0.4c-0.6,0-1.1,0.2-1.4,0.6c-0.3,0.4-0.4,1-0.4,1.8V141.6z"/>
	<path class="st3" d="M626.1,134.6c0,1-0.3,1.8-1,2.4s-1.7,0.8-2.9,0.8h-1v3.7h-1.6v-10h2.9c1.2,0,2.2,0.3,2.8,0.8
		S626.1,133.7,626.1,134.6z M621.1,136.5h0.9c0.8,0,1.5-0.1,1.8-0.4c0.4-0.3,0.6-0.7,0.6-1.4c0-0.6-0.2-1-0.5-1.3
		c-0.4-0.3-0.9-0.4-1.6-0.4h-1.1V136.5z"/>
	<path class="st3" d="M631.7,133.9c0.3,0,0.6,0,0.8,0.1l-0.2,1.5c-0.2-0.1-0.5-0.1-0.7-0.1c-0.6,0-1.2,0.2-1.6,0.6s-0.6,1-0.6,1.6v4
		h-1.6v-7.6h1.3l0.2,1.3h0.1c0.2-0.5,0.6-0.8,1-1.1S631.3,133.9,631.7,133.9z"/>
	<path class="st3" d="M640.6,137.8c0,1.2-0.3,2.2-0.9,2.9c-0.6,0.7-1.5,1-2.6,1c-0.7,0-1.3-0.2-1.9-0.5c-0.5-0.3-1-0.8-1.2-1.4
		c-0.3-0.6-0.4-1.3-0.4-2.1c0-1.2,0.3-2.2,0.9-2.9s1.5-1,2.7-1c1.1,0,2,0.4,2.6,1.1C640.3,135.7,640.6,136.6,640.6,137.8z
		 M635.1,137.8c0,1.7,0.6,2.6,1.9,2.6c1.3,0,1.9-0.9,1.9-2.6c0-1.7-0.6-2.6-1.9-2.6c-0.7,0-1.2,0.2-1.5,0.7S635.1,137,635.1,137.8z"
		/>
	<path class="st3" d="M645.5,141.8c-1.1,0-2-0.3-2.6-1c-0.6-0.7-0.9-1.6-0.9-2.9c0-1.3,0.3-2.2,0.9-2.9s1.5-1,2.7-1
		c0.8,0,1.5,0.1,2.2,0.4l-0.5,1.3c-0.7-0.3-1.2-0.4-1.7-0.4c-1.3,0-2,0.9-2,2.6c0,0.8,0.2,1.5,0.5,1.9c0.3,0.4,0.8,0.6,1.4,0.6
		c0.7,0,1.4-0.2,2-0.5v1.4c-0.3,0.2-0.6,0.3-0.9,0.4S646,141.8,645.5,141.8z"/>
	<path class="st3" d="M652.7,141.8c-1.2,0-2.1-0.3-2.8-1c-0.7-0.7-1-1.6-1-2.8c0-1.2,0.3-2.2,0.9-2.9s1.5-1.1,2.5-1.1
		c1,0,1.8,0.3,2.4,0.9c0.6,0.6,0.9,1.4,0.9,2.5v0.9h-5c0,0.7,0.2,1.3,0.6,1.7c0.4,0.4,0.9,0.6,1.6,0.6c0.4,0,0.9,0,1.2-0.1
		c0.4-0.1,0.8-0.2,1.2-0.4v1.3c-0.4,0.2-0.8,0.3-1.2,0.4C653.7,141.7,653.2,141.8,652.7,141.8z M652.4,135.1c-0.5,0-0.9,0.2-1.2,0.5
		s-0.5,0.8-0.6,1.4h3.4c0-0.6-0.2-1.1-0.5-1.4C653.3,135.3,652.9,135.1,652.4,135.1z"/>
	<path class="st3" d="M662.6,139.5c0,0.7-0.3,1.3-0.8,1.7c-0.5,0.4-1.3,0.6-2.3,0.6c-1,0-1.8-0.2-2.4-0.5v-1.4
		c0.9,0.4,1.7,0.6,2.5,0.6c1,0,1.5-0.3,1.5-0.9c0-0.2-0.1-0.4-0.2-0.5s-0.3-0.3-0.5-0.4c-0.3-0.1-0.6-0.3-1-0.5
		c-0.9-0.3-1.5-0.7-1.8-1s-0.5-0.8-0.5-1.3c0-0.6,0.3-1.1,0.8-1.5c0.5-0.4,1.2-0.5,2.1-0.5c0.9,0,1.7,0.2,2.5,0.5l-0.5,1.2
		c-0.8-0.3-1.5-0.5-2.1-0.5c-0.8,0-1.3,0.2-1.3,0.7c0,0.2,0.1,0.4,0.3,0.6s0.7,0.4,1.4,0.7c0.6,0.2,1.1,0.5,1.4,0.7
		c0.3,0.2,0.5,0.4,0.6,0.7C662.5,138.8,662.6,139.1,662.6,139.5z"/>
	<path class="st3" d="M669.4,139.5c0,0.7-0.3,1.3-0.8,1.7c-0.5,0.4-1.3,0.6-2.3,0.6c-1,0-1.8-0.2-2.4-0.5v-1.4
		c0.9,0.4,1.7,0.6,2.5,0.6c1,0,1.5-0.3,1.5-0.9c0-0.2-0.1-0.4-0.2-0.5s-0.3-0.3-0.5-0.4c-0.2-0.1-0.6-0.3-1-0.5
		c-0.9-0.3-1.5-0.7-1.8-1s-0.5-0.8-0.5-1.3c0-0.6,0.3-1.1,0.8-1.5c0.5-0.4,1.2-0.5,2.1-0.5c0.9,0,1.7,0.2,2.5,0.5l-0.5,1.2
		c-0.8-0.3-1.5-0.5-2.1-0.5c-0.8,0-1.3,0.2-1.3,0.7c0,0.2,0.1,0.4,0.3,0.6s0.7,0.4,1.4,0.7c0.6,0.2,1.1,0.5,1.4,0.7
		c0.3,0.2,0.5,0.4,0.6,0.7C669.3,138.8,669.4,139.1,669.4,139.5z"/>
	<path class="st3" d="M677.8,137.8c0,1.2-0.3,2.2-1,2.9c-0.6,0.7-1.5,1-2.6,1c-0.7,0-1.3-0.2-1.9-0.5c-0.5-0.3-1-0.8-1.3-1.4
		c-0.3-0.6-0.4-1.3-0.4-2.1c0-1.2,0.3-2.2,0.9-2.9s1.5-1,2.7-1c1.1,0,2,0.4,2.6,1.1C677.5,135.7,677.8,136.6,677.8,137.8z
		 M672.3,137.8c0,1.7,0.6,2.6,1.9,2.6c1.3,0,1.9-0.9,1.9-2.6c0-1.7-0.6-2.6-1.9-2.6c-0.7,0-1.2,0.2-1.5,0.7S672.3,137,672.3,137.8z"
		/>
	<path class="st3" d="M683.5,133.9c0.3,0,0.6,0,0.8,0.1l-0.2,1.5c-0.2-0.1-0.5-0.1-0.7-0.1c-0.6,0-1.2,0.2-1.6,0.6s-0.6,1-0.6,1.6v4
		h-1.6v-7.6h1.3l0.2,1.3h0.1c0.3-0.5,0.6-0.8,1-1.1S683,133.9,683.5,133.9z"/>
</g>
<rect x="566.7" y="183.1" class="st1" width="134.5" height="47.6"/>
<g class="st2">
	<path class="st3" d="M596.4,211v-10h1.6v10H596.4z"/>
	<path class="st3" d="M603.3,209.8c0.4,0,0.8-0.1,1.2-0.2v1.2c-0.2,0.1-0.4,0.1-0.7,0.2c-0.3,0.1-0.6,0.1-0.9,0.1
		c-1.5,0-2.3-0.8-2.3-2.4v-4.1h-1v-0.7l1.1-0.6l0.5-1.6h1v1.7h2.2v1.2h-2.2v4c0,0.4,0.1,0.7,0.3,0.9
		C602.8,209.7,603,209.8,603.3,209.8z"/>
	<path class="st3" d="M609.3,211.1c-1.2,0-2.1-0.3-2.8-1c-0.7-0.7-1-1.6-1-2.8c0-1.2,0.3-2.2,0.9-2.9s1.5-1.1,2.5-1.1
		c1,0,1.8,0.3,2.4,0.9c0.6,0.6,0.9,1.4,0.9,2.5v0.9h-5c0,0.7,0.2,1.3,0.6,1.7c0.4,0.4,0.9,0.6,1.6,0.6c0.4,0,0.9,0,1.2-0.1
		c0.4-0.1,0.8-0.2,1.2-0.4v1.3c-0.4,0.2-0.8,0.3-1.2,0.4C610.3,211.1,609.8,211.1,609.3,211.1z M609,204.5c-0.5,0-0.9,0.2-1.2,0.5
		s-0.5,0.8-0.6,1.4h3.4c0-0.6-0.2-1.1-0.5-1.4C609.9,204.6,609.5,204.5,609,204.5z"/>
	<path class="st3" d="M620.5,211h-1.6v-4.7c0-0.6-0.1-1-0.3-1.3c-0.2-0.3-0.6-0.4-1-0.4c-0.6,0-1.1,0.2-1.4,0.6
		c-0.3,0.4-0.4,1.1-0.4,2v3.8h-1.6v-7.6h1.3l0.2,1h0.1c0.2-0.4,0.5-0.6,0.9-0.8c0.4-0.2,0.8-0.3,1.3-0.3c1.2,0,1.9,0.4,2.3,1.2h0.1
		c0.2-0.4,0.5-0.7,0.9-0.9c0.4-0.2,0.9-0.3,1.4-0.3c0.9,0,1.6,0.2,2,0.7c0.4,0.5,0.6,1.2,0.6,2.1v4.9h-1.6v-4.7c0-0.6-0.1-1-0.3-1.3
		c-0.2-0.3-0.6-0.4-1-0.4c-0.6,0-1.1,0.2-1.4,0.6c-0.3,0.4-0.4,1-0.4,1.8V211z"/>
	<path class="st3" d="M640.5,211h-1.8l-1.7-6c-0.1-0.3-0.2-0.6-0.3-1.1c-0.1-0.5-0.2-0.8-0.2-1c0,0.3-0.1,0.7-0.2,1.1
		s-0.2,0.8-0.3,1l-1.7,5.9h-1.8l-1.3-5l-1.3-5h1.7l1.4,5.8c0.2,0.9,0.4,1.8,0.5,2.5c0.1-0.4,0.1-0.8,0.2-1.3
		c0.1-0.5,0.2-0.9,0.3-1.2l1.6-5.8h1.6l1.7,5.9c0.2,0.5,0.3,1.4,0.5,2.4c0.1-0.7,0.2-1.5,0.5-2.5l1.4-5.8h1.7L640.5,211z"/>
	<path class="st3" d="M648.2,203.3c0.3,0,0.6,0,0.8,0.1l-0.2,1.5c-0.2-0.1-0.5-0.1-0.7-0.1c-0.6,0-1.2,0.2-1.6,0.6
		c-0.4,0.4-0.6,1-0.6,1.6v4h-1.6v-7.6h1.3l0.2,1.3h0.1c0.3-0.5,0.6-0.8,1-1.1S647.7,203.3,648.2,203.3z"/>
	<path class="st3" d="M650.3,201.4c0-0.3,0.1-0.5,0.2-0.7s0.4-0.2,0.7-0.2c0.3,0,0.5,0.1,0.7,0.2s0.2,0.4,0.2,0.7
		c0,0.3-0.1,0.5-0.2,0.6c-0.2,0.2-0.4,0.2-0.7,0.2c-0.3,0-0.5-0.1-0.7-0.2C650.4,201.9,650.3,201.7,650.3,201.4z M652,211h-1.6v-7.6
		h1.6V211z"/>
	<path class="st3" d="M657.1,209.8c0.4,0,0.8-0.1,1.2-0.2v1.2c-0.2,0.1-0.4,0.1-0.7,0.2c-0.3,0.1-0.6,0.1-0.9,0.1
		c-1.5,0-2.3-0.8-2.3-2.4v-4.1h-1v-0.7l1.1-0.6l0.5-1.6h1v1.7h2.2v1.2H656v4c0,0.4,0.1,0.7,0.3,0.9
		C656.5,209.7,656.8,209.8,657.1,209.8z"/>
	<path class="st3" d="M663.1,211.1c-1.2,0-2.1-0.3-2.8-1c-0.7-0.7-1-1.6-1-2.8c0-1.2,0.3-2.2,0.9-2.9s1.5-1.1,2.5-1.1
		c1,0,1.8,0.3,2.4,0.9c0.6,0.6,0.9,1.4,0.9,2.5v0.9h-5c0,0.7,0.2,1.3,0.6,1.7c0.4,0.4,0.9,0.6,1.6,0.6c0.4,0,0.9,0,1.2-0.1
		c0.4-0.1,0.8-0.2,1.2-0.4v1.3c-0.4,0.2-0.8,0.3-1.2,0.4C664.1,211.1,663.6,211.1,663.1,211.1z M662.8,204.5c-0.5,0-0.9,0.2-1.2,0.5
		s-0.5,0.8-0.6,1.4h3.4c0-0.6-0.2-1.1-0.5-1.4C663.7,204.6,663.3,204.5,662.8,204.5z"/>
	<path class="st3" d="M671.7,203.3c0.3,0,0.6,0,0.8,0.1l-0.2,1.5c-0.2-0.1-0.5-0.1-0.7-0.1c-0.6,0-1.2,0.2-1.6,0.6
		c-0.4,0.4-0.6,1-0.6,1.6v4h-1.6v-7.6h1.3l0.2,1.3h0.1c0.3-0.5,0.6-0.8,1-1.1S671.2,203.3,671.7,203.3z"/>
</g>
<rect x="566.7" y="44.3" class="st1" width="134.5" height="47.6"/>
<g class="st2">
	<path class="st3" d="M593.8,72.3v-10h1.6v10H593.8z"/>
	<path class="st3" d="M600.7,71.1c0.4,0,0.8-0.1,1.2-0.2v1.2c-0.2,0.1-0.4,0.1-0.7,0.2c-0.3,0.1-0.6,0.1-0.9,0.1
		c-1.5,0-2.3-0.8-2.3-2.4v-4.1h-1v-0.7l1.1-0.6l0.5-1.6h1v1.7h2.2v1.2h-2.2v4c0,0.4,0.1,0.7,0.3,0.9C600.2,71,600.4,71.1,600.7,71.1
		z"/>
	<path class="st3" d="M606.7,72.4c-1.2,0-2.1-0.3-2.8-1c-0.7-0.7-1-1.6-1-2.8c0-1.2,0.3-2.2,0.9-2.9s1.5-1.1,2.5-1.1
		c1,0,1.8,0.3,2.4,0.9s0.9,1.4,0.9,2.5v0.9h-5c0,0.7,0.2,1.3,0.6,1.7c0.4,0.4,0.9,0.6,1.6,0.6c0.4,0,0.9,0,1.2-0.1
		c0.4-0.1,0.8-0.2,1.2-0.4v1.3c-0.4,0.2-0.8,0.3-1.2,0.4S607.2,72.4,606.7,72.4z M606.4,65.8c-0.5,0-0.9,0.2-1.2,0.5
		c-0.3,0.3-0.5,0.8-0.6,1.4h3.4c0-0.6-0.2-1.1-0.5-1.4C607.3,65.9,606.9,65.8,606.4,65.8z"/>
	<path class="st3" d="M617.9,72.3h-1.6v-4.7c0-0.6-0.1-1-0.3-1.3c-0.2-0.3-0.6-0.4-1-0.4c-0.6,0-1.1,0.2-1.4,0.6
		c-0.3,0.4-0.4,1.1-0.4,2v3.8h-1.6v-7.6h1.3l0.2,1h0.1c0.2-0.4,0.5-0.6,0.9-0.8c0.4-0.2,0.8-0.3,1.3-0.3c1.2,0,1.9,0.4,2.3,1.2h0.1
		c0.2-0.4,0.5-0.7,0.9-0.9s0.9-0.3,1.4-0.3c0.9,0,1.6,0.2,2,0.7c0.4,0.5,0.6,1.2,0.6,2.1v4.9H621v-4.7c0-0.6-0.1-1-0.3-1.3
		c-0.2-0.3-0.6-0.4-1-0.4c-0.6,0-1.1,0.2-1.4,0.6c-0.3,0.4-0.4,1-0.4,1.8V72.3z"/>
	<path class="st3" d="M630.3,68.3v4h-1.6v-10h2.8c1.3,0,2.2,0.2,2.9,0.7s0.9,1.2,0.9,2.2c0,1.2-0.6,2.1-1.9,2.7l2.8,4.4h-1.9l-2.4-4
		H630.3z M630.3,66.9h1.1c0.8,0,1.3-0.1,1.7-0.4s0.5-0.7,0.5-1.3c0-0.6-0.2-1-0.6-1.2s-0.9-0.4-1.7-0.4h-1.1V66.9z"/>
	<path class="st3" d="M640.8,72.4c-1.2,0-2.1-0.3-2.8-1c-0.7-0.7-1-1.6-1-2.8c0-1.2,0.3-2.2,0.9-2.9s1.5-1.1,2.5-1.1
		c1,0,1.8,0.3,2.4,0.9s0.9,1.4,0.9,2.5v0.9h-5c0,0.7,0.2,1.3,0.6,1.7c0.4,0.4,0.9,0.6,1.6,0.6c0.4,0,0.9,0,1.2-0.1
		c0.4-0.1,0.8-0.2,1.2-0.4v1.3c-0.4,0.2-0.8,0.3-1.2,0.4S641.3,72.4,640.8,72.4z M640.5,65.8c-0.5,0-0.9,0.2-1.2,0.5
		c-0.3,0.3-0.5,0.8-0.5,1.4h3.4c0-0.6-0.2-1.1-0.5-1.4C641.4,65.9,641,65.8,640.5,65.8z"/>
	<path class="st3" d="M650.3,72.3l-0.3-1.1h-0.1c-0.4,0.5-0.7,0.8-1.1,0.9c-0.4,0.2-0.8,0.2-1.4,0.2c-0.7,0-1.3-0.2-1.7-0.6
		c-0.4-0.4-0.6-1-0.6-1.7c0-0.8,0.3-1.4,0.9-1.8s1.5-0.6,2.6-0.6l1.3,0v-0.4c0-0.5-0.1-0.8-0.3-1.1c-0.2-0.2-0.6-0.4-1-0.4
		c-0.4,0-0.8,0.1-1.1,0.2s-0.7,0.2-1,0.4l-0.5-1.1c0.4-0.2,0.9-0.4,1.3-0.5c0.5-0.1,0.9-0.2,1.4-0.2c1,0,1.7,0.2,2.2,0.6
		c0.5,0.4,0.7,1.1,0.7,2v5.1H650.3z M647.9,71.2c0.6,0,1.1-0.2,1.4-0.5c0.4-0.3,0.5-0.8,0.5-1.4v-0.7l-1,0c-0.8,0-1.3,0.2-1.7,0.4
		c-0.3,0.2-0.5,0.6-0.5,1c0,0.3,0.1,0.6,0.3,0.8C647.2,71.1,647.5,71.2,647.9,71.2z"/>
	<path class="st3" d="M656.2,72.4c-0.9,0-1.7-0.3-2.2-1s-0.8-1.6-0.8-2.9c0-1.2,0.3-2.2,0.8-2.9c0.5-0.7,1.3-1,2.2-1
		c1,0,1.8,0.4,2.3,1.1h0.1c-0.1-0.5-0.1-1-0.1-1.3v-2.8h1.6v10.6h-1.3l-0.3-1h-0.1C657.9,72,657.2,72.4,656.2,72.4z M656.6,71.1
		c0.7,0,1.1-0.2,1.4-0.6c0.3-0.4,0.5-1,0.5-1.8v-0.2c0-1-0.2-1.6-0.5-2s-0.8-0.6-1.5-0.6c-0.6,0-1,0.2-1.3,0.7
		c-0.3,0.5-0.5,1.1-0.5,2c0,0.8,0.1,1.5,0.4,1.9C655.6,70.9,656,71.1,656.6,71.1z"/>
	<path class="st3" d="M665.7,72.4c-1.2,0-2.1-0.3-2.8-1c-0.7-0.7-1-1.6-1-2.8c0-1.2,0.3-2.2,0.9-2.9s1.5-1.1,2.5-1.1
		c1,0,1.8,0.3,2.4,0.9s0.9,1.4,0.9,2.5v0.9h-5c0,0.7,0.2,1.3,0.6,1.7c0.4,0.4,0.9,0.6,1.6,0.6c0.4,0,0.9,0,1.2-0.1
		c0.4-0.1,0.8-0.2,1.2-0.4v1.3c-0.4,0.2-0.8,0.3-1.2,0.4S666.2,72.4,665.7,72.4z M665.4,65.8c-0.5,0-0.9,0.2-1.2,0.5
		c-0.3,0.3-0.5,0.8-0.5,1.4h3.4c0-0.6-0.2-1.1-0.5-1.4C666.3,65.9,665.9,65.8,665.4,65.8z"/>
	<path class="st3" d="M674.3,64.6c0.3,0,0.6,0,0.8,0.1l-0.2,1.5c-0.2-0.1-0.5-0.1-0.7-0.1c-0.6,0-1.2,0.2-1.6,0.6
		c-0.4,0.4-0.6,1-0.6,1.6v4h-1.6v-7.6h1.3l0.2,1.3h0.1c0.2-0.5,0.6-0.8,1-1.1C673.4,64.7,673.8,64.6,674.3,64.6z"/>
</g>
<g class="st2">
	<path class="st3" d="M222.5,268.7c-0.4,0-0.8-0.1-1.1-0.2v-1.4c0.4,0.1,0.7,0.1,1,0.1c0.9,0,1.3-0.6,1.3-1.7v-9.7h1.6v9.6
		c0,1-0.2,1.8-0.7,2.3C224.1,268.4,223.4,268.7,222.5,268.7z"/>
	<path class="st3" d="M234.4,262.1c0,1.2-0.3,2.2-1,2.9s-1.5,1-2.6,1c-0.7,0-1.3-0.2-1.9-0.5s-1-0.8-1.3-1.4s-0.4-1.3-0.4-2.1
		c0-1.2,0.3-2.2,0.9-2.9s1.5-1,2.7-1c1.1,0,2,0.4,2.6,1.1C234.1,260,234.4,260.9,234.4,262.1z M228.9,262.1c0,1.7,0.6,2.6,1.9,2.6
		c1.3,0,1.9-0.9,1.9-2.6c0-1.7-0.6-2.6-1.9-2.6c-0.7,0-1.2,0.2-1.5,0.7S228.9,261.3,228.9,262.1z"/>
	<path class="st3" d="M240.2,258.2c0.9,0,1.7,0.3,2.2,1s0.8,1.6,0.8,2.9c0,1.2-0.3,2.2-0.8,2.9c-0.5,0.7-1.3,1-2.2,1
		c-1,0-1.7-0.3-2.2-1h-0.1l-0.3,0.9h-1.2v-10.6h1.6v2.5c0,0.2,0,0.5,0,0.8s0,0.6,0,0.7h0.1C238.4,258.6,239.2,258.2,240.2,258.2z
		 M239.7,259.5c-0.6,0-1.1,0.2-1.4,0.6c-0.3,0.4-0.4,1-0.4,1.9v0.1c0,0.9,0.1,1.6,0.4,2c0.3,0.4,0.8,0.6,1.4,0.6
		c0.6,0,1-0.2,1.3-0.7s0.4-1.1,0.4-2C241.5,260.4,240.9,259.5,239.7,259.5z"/>
	<path class="st3" d="M250.5,261.9v4h-1.6v-10h2.8c1.3,0,2.2,0.2,2.9,0.7s0.9,1.2,0.9,2.2c0,1.2-0.6,2.1-1.9,2.7l2.8,4.4h-1.9
		l-2.4-4H250.5z M250.5,260.5h1.1c0.8,0,1.3-0.1,1.7-0.4s0.5-0.7,0.5-1.3c0-0.6-0.2-1-0.6-1.2s-0.9-0.4-1.7-0.4h-1.1V260.5z"/>
	<path class="st3" d="M260.9,266c-1.2,0-2.1-0.3-2.8-1c-0.7-0.7-1-1.6-1-2.8c0-1.2,0.3-2.2,0.9-2.9s1.5-1.1,2.5-1.1
		c1,0,1.8,0.3,2.4,0.9s0.9,1.4,0.9,2.5v0.9h-5c0,0.7,0.2,1.3,0.6,1.7c0.4,0.4,0.9,0.6,1.6,0.6c0.4,0,0.9,0,1.2-0.1
		c0.4-0.1,0.8-0.2,1.2-0.4v1.3c-0.4,0.2-0.8,0.3-1.2,0.4S261.4,266,260.9,266z M260.6,259.4c-0.5,0-0.9,0.2-1.2,0.5
		s-0.5,0.8-0.6,1.4h3.4c0-0.6-0.2-1.1-0.5-1.4C261.5,259.6,261.1,259.4,260.6,259.4z"/>
	<path class="st3" d="M269.5,266c-1,0-1.7-0.3-2.2-1h-0.1c0.1,0.6,0.1,1,0.1,1.2v3.1h-1.6v-10.9h1.3c0,0.1,0.1,0.5,0.2,1h0.1
		c0.5-0.8,1.3-1.1,2.3-1.1c0.9,0,1.7,0.3,2.2,1s0.8,1.6,0.8,2.9s-0.3,2.2-0.8,2.9S270.4,266,269.5,266z M269.1,259.5
		c-0.6,0-1.1,0.2-1.4,0.6s-0.4,1-0.4,1.8v0.2c0,0.9,0.1,1.6,0.4,2c0.3,0.4,0.8,0.6,1.4,0.6c0.6,0,1-0.2,1.3-0.7s0.5-1.1,0.5-1.9
		c0-0.8-0.1-1.5-0.4-1.9C270.1,259.7,269.7,259.5,269.1,259.5z"/>
	<path class="st3" d="M281.1,262.1c0,1.2-0.3,2.2-1,2.9s-1.5,1-2.6,1c-0.7,0-1.3-0.2-1.9-0.5s-1-0.8-1.3-1.4s-0.4-1.3-0.4-2.1
		c0-1.2,0.3-2.2,0.9-2.9s1.5-1,2.7-1c1.1,0,2,0.4,2.6,1.1C280.8,260,281.1,260.9,281.1,262.1z M275.6,262.1c0,1.7,0.6,2.6,1.9,2.6
		c1.3,0,1.9-0.9,1.9-2.6c0-1.7-0.6-2.6-1.9-2.6c-0.7,0-1.2,0.2-1.5,0.7S275.6,261.3,275.6,262.1z"/>
	<path class="st3" d="M288,263.7c0,0.7-0.3,1.3-0.8,1.7c-0.5,0.4-1.3,0.6-2.3,0.6c-1,0-1.8-0.2-2.4-0.5v-1.4
		c0.9,0.4,1.7,0.6,2.5,0.6c1,0,1.5-0.3,1.5-0.9c0-0.2-0.1-0.4-0.2-0.5s-0.3-0.3-0.5-0.4s-0.6-0.3-1-0.5c-0.9-0.3-1.5-0.7-1.8-1
		s-0.5-0.8-0.5-1.3c0-0.6,0.3-1.1,0.8-1.5c0.5-0.4,1.2-0.5,2.1-0.5c0.9,0,1.7,0.2,2.5,0.5l-0.5,1.2c-0.8-0.3-1.5-0.5-2.1-0.5
		c-0.8,0-1.3,0.2-1.3,0.7c0,0.2,0.1,0.4,0.3,0.6s0.7,0.4,1.4,0.7c0.6,0.2,1.1,0.5,1.4,0.7s0.5,0.4,0.6,0.7
		C288,263.1,288,263.4,288,263.7z"/>
	<path class="st3" d="M289.7,256.3c0-0.3,0.1-0.5,0.2-0.7s0.4-0.2,0.7-0.2c0.3,0,0.5,0.1,0.7,0.2s0.2,0.4,0.2,0.7
		c0,0.3-0.1,0.5-0.2,0.6c-0.2,0.2-0.4,0.2-0.7,0.2c-0.3,0-0.5-0.1-0.7-0.2C289.7,256.8,289.7,256.6,289.7,256.3z M291.4,265.9h-1.6
		v-7.6h1.6V265.9z"/>
	<path class="st3" d="M296.5,264.7c0.4,0,0.8-0.1,1.2-0.2v1.2c-0.2,0.1-0.4,0.1-0.7,0.2c-0.3,0.1-0.6,0.1-0.9,0.1
		c-1.5,0-2.3-0.8-2.3-2.4v-4.1h-1v-0.7l1.1-0.6l0.5-1.6h1v1.7h2.2v1.2h-2.2v4c0,0.4,0.1,0.7,0.3,0.9
		C295.9,264.6,296.2,264.7,296.5,264.7z"/>
	<path class="st3" d="M305.9,262.1c0,1.2-0.3,2.2-1,2.9s-1.5,1-2.6,1c-0.7,0-1.3-0.2-1.9-0.5s-1-0.8-1.3-1.4s-0.4-1.3-0.4-2.1
		c0-1.2,0.3-2.2,0.9-2.9s1.5-1,2.7-1c1.1,0,2,0.4,2.6,1.1C305.6,260,305.9,260.9,305.9,262.1z M300.4,262.1c0,1.7,0.6,2.6,1.9,2.6
		c1.3,0,1.9-0.9,1.9-2.6c0-1.7-0.6-2.6-1.9-2.6c-0.7,0-1.2,0.2-1.5,0.7S300.4,261.3,300.4,262.1z"/>
	<path class="st3" d="M311.6,258.2c0.3,0,0.6,0,0.8,0.1l-0.2,1.5c-0.2-0.1-0.5-0.1-0.7-0.1c-0.6,0-1.2,0.2-1.6,0.6s-0.6,1-0.6,1.6v4
		h-1.6v-7.6h1.3l0.2,1.3h0.1c0.3-0.5,0.6-0.8,1-1.1S311.1,258.2,311.6,258.2z"/>
	<path class="st3" d="M312.6,258.3h1.8l1.5,4.3c0.2,0.6,0.4,1.2,0.5,1.7h0.1c0-0.3,0.1-0.6,0.2-0.9c0.1-0.4,0.7-2.1,1.7-5.1h1.7
		l-3.2,8.6c-0.6,1.6-1.6,2.4-2.9,2.4c-0.4,0-0.7,0-1-0.1v-1.3c0.2,0.1,0.5,0.1,0.8,0.1c0.8,0,1.3-0.4,1.6-1.3l0.3-0.7L312.6,258.3z"
		/>
</g>
<line class="st4" x1="104.2" y1="188.7" x2="104.2" y2="224.1"/>
<polygon class="st5" points="99.3,190.2 104.2,181.5 109.2,190.2 "/>
<polygon class="st5" points="99.3,222.6 104.2,231.3 109.2,222.6 "/>
<line class="st4" x1="272" y1="188.7" x2="272" y2="224.1"/>
<polygon class="st5" points="267,190.2 272,181.5 276.9,190.2 "/>
<polygon class="st5" points="267,222.6 272,231.3 276.9,222.6 "/>
<line class="st4" x1="439.7" y1="188.7" x2="439.7" y2="224.1"/>
<polygon class="st5" points="434.7,190.2 439.7,181.5 444.7,190.2 "/>
<polygon class="st5" points="434.7,222.6 439.7,231.3 444.7,222.6 "/>
<line class="st4" x1="168.7" y1="137.5" x2="206.3" y2="137.5"/>
<line class="st4" x1="336.8" y1="137.5" x2="374.4" y2="137.5"/>
<line class="st4" x1="504.2" y1="137.5" x2="560.4" y2="137.5"/>
<line class="st4" x1="504.2" y1="127.5" x2="560.4" y2="83.3"/>
<line class="st4" x1="560.4" y1="191.6" x2="504.2" y2="147.4"/>
</svg>
