<?xml version="1.0" encoding="utf-8"?>
<!-- Generator: Adobe Illustrator 15.0.0, SVG Export Plug-In . SVG Version: 6.00 Build 0)  -->
<!DOCTYPE svg PUBLIC "-//W3C//DTD SVG 1.1//EN" "http://www.w3.org/Graphics/SVG/1.1/DTD/svg11.dtd">
<svg version="1.1" id="Layer_1" xmlns="http://www.w3.org/2000/svg" xmlns:xlink="http://www.w3.org/1999/xlink" x="0px" y="0px"
	 width="612px" height="792px" viewBox="0 0 612 792" enable-background="new 0 0 612 792" xml:space="preserve">
<path fill="#2C2255" d="M101.124,392.936H84.38c2.217,7.605,6.331,14.421,12.354,20.445c9.602,9.603,21.148,14.398,34.65,14.398
	c2.699,0,5.314-0.201,7.854-0.584c10.17-1.535,19.074-6.133,26.703-13.814c6.062-6.022,10.205-12.84,12.439-20.445h-6.795h-9.936
	H101.124z"/>
<g>
	<path fill="#2C2255" d="M91.891,370.194h-8.747c-0.32,1.922-0.538,3.884-0.637,5.896h10.396h5.215h75.275h6.871
		c-0.1-2.012-0.318-3.974-0.641-5.896"/>
	<path fill="#2C2255" d="M82.507,381.565c0.099,2.013,0.316,3.975,0.637,5.896h9.094h6.893h73.648h6.846
		c0.322-1.921,0.542-3.883,0.642-5.896"/>
</g>
<path fill="#2C2255" d="M178.382,364.718c-2.232-7.626-6.376-14.474-12.441-20.54c-7.609-7.609-16.488-12.174-26.625-13.71
	c-2.564-0.389-5.205-0.593-7.932-0.593c-13.502,0-25.049,4.769-34.65,14.303c-6.025,6.066-10.141,12.914-12.357,20.54"/>
<g>
	<path fill="#F7941E" d="M79.6,378.829c0-25.824,19.395-47.281,44.626-51.055c-0.626-0.023-1.255-0.048-1.887-0.048
		c-28.314,0-51.269,22.88-51.269,51.103c0,28.224,22.954,51.103,51.269,51.103c0.634,0,1.263-0.024,1.891-0.047
		C98.995,426.111,79.6,404.654,79.6,378.829z"/>
</g>
<rect x="350.664" y="323.663" fill="#F7941E" width="10.197" height="12.912"/>
<path fill="#2C2255" d="M265.529,376.799v4.986h-46.885c0.442,7.023,2.558,12.369,6.345,16.044
	c3.788,3.678,9.062,5.514,15.822,5.514c3.916,0,7.712-0.479,11.39-1.438c3.676-0.959,7.322-2.402,10.945-4.324v9.645
	c-3.658,1.552-7.408,2.734-11.251,3.548c-3.843,0.812-7.74,1.219-11.693,1.219c-9.901,0-17.743-2.881-23.525-8.646
	c-5.782-5.764-8.673-13.556-8.673-23.384c0-10.16,2.743-18.225,8.229-24.191c5.486-5.966,12.886-8.951,22.195-8.951
	c8.351,0,14.954,2.688,19.812,8.064C263.1,360.256,265.529,367.563,265.529,376.799 M255.332,373.807
	c-0.075-5.578-1.636-10.031-4.683-13.355c-3.049-3.326-7.085-4.988-12.109-4.988c-5.69,0-10.244,1.607-13.661,4.822
	c-3.418,3.213-5.385,7.74-5.902,13.576L255.332,373.807z"/>
<path fill="#2C2255" d="M318.422,350.698v9.531c-2.883-1.588-5.773-2.779-8.673-3.574c-2.902-0.795-5.829-1.191-8.785-1.191
	c-6.614,0-11.749,2.096-15.405,6.289c-3.658,4.193-5.487,10.078-5.487,17.65c0,7.574,1.829,13.459,5.487,17.652
	c3.656,4.195,8.791,6.289,15.405,6.289c2.956,0,5.883-0.396,8.785-1.188c2.898-0.795,5.79-1.986,8.673-3.576V408
	c-2.846,1.33-5.793,2.328-8.84,2.992c-3.05,0.666-6.289,0.998-9.727,0.998c-9.348,0-16.773-2.938-22.277-8.812
	c-5.506-5.873-8.258-13.798-8.258-23.775c0-10.121,2.779-18.084,8.34-23.885c5.56-5.799,13.182-8.701,22.859-8.701
	c3.142,0,6.208,0.326,9.201,0.971C312.713,348.434,315.613,349.405,318.422,350.698"/>
<rect x="327.643" y="324.151" fill="#2C2255" width="10.199" height="86.232"/>
<path fill="#2C2255" d="M350.664,348.313h10.197v62.07h-10.197V348.313z"/>
<path fill="#2C2255" d="M383.549,401.072v32.92h-10.252v-85.679h10.252v9.422c2.144-3.693,4.852-6.438,8.12-8.23
	c3.27-1.789,7.177-2.688,11.721-2.688c7.538,0,13.662,2.992,18.371,8.979c4.711,5.986,7.065,13.855,7.065,23.607
	c0,9.756-2.354,17.625-7.065,23.609c-4.709,5.984-10.833,8.979-18.371,8.979c-4.544,0-8.451-0.896-11.721-2.689
	C388.399,407.512,385.691,404.768,383.549,401.072 M418.242,379.403c0-7.5-1.543-13.383-4.628-17.65s-7.324-6.4-12.72-6.4
	c-5.395,0-9.635,2.133-12.718,6.4c-3.085,4.268-4.629,10.15-4.629,17.65c0,7.502,1.544,13.387,4.629,17.652
	c3.083,4.269,7.323,6.4,12.718,6.4c5.396,0,9.635-2.133,12.72-6.4C416.699,392.79,418.242,386.905,418.242,379.403"/>
<path fill="#2C2255" d="M476.788,350.143v9.643c-2.884-1.477-5.875-2.586-8.979-3.326c-3.104-0.738-6.318-1.107-9.643-1.107
	c-5.062,0-8.857,0.775-11.39,2.328c-2.531,1.551-3.794,3.879-3.794,6.982c0,2.363,0.902,4.221,2.714,5.57
	c1.81,1.348,5.448,2.631,10.918,3.852l3.49,0.775c7.241,1.553,12.387,3.74,15.435,6.568c3.049,2.826,4.573,6.77,4.573,11.83
	c0,5.764-2.282,10.326-6.847,13.689c-4.562,3.36-10.833,5.043-18.813,5.043c-3.324,0-6.789-0.324-10.393-0.969
	c-3.603-0.646-7.396-1.617-11.389-2.91V397.58c3.771,1.961,7.482,3.428,11.14,4.408c3.658,0.979,7.278,1.467,10.862,1.467
	c4.804,0,8.496-0.82,11.084-2.465c2.587-1.646,3.878-3.963,3.878-6.955c0-2.771-0.932-4.895-2.796-6.375
	c-1.867-1.477-5.959-2.9-12.278-4.268l-3.545-0.83c-6.317-1.33-10.881-3.371-13.688-6.123c-2.808-2.752-4.212-6.529-4.212-11.334
	c0-5.838,2.069-10.344,6.207-13.521c4.138-3.178,10.013-4.768,17.623-4.768c3.769,0,7.315,0.277,10.641,0.83
	C470.913,348.204,473.979,349.034,476.788,350.143"/>
<path fill="#2C2255" d="M540.93,376.799v4.986h-46.885c0.443,7.023,2.558,12.369,6.347,16.044c3.785,3.678,9.062,5.514,15.82,5.514
	c3.918,0,7.713-0.479,11.39-1.438c3.677-0.959,7.323-2.402,10.946-4.324v9.645c-3.659,1.552-7.409,2.734-11.252,3.548
	c-3.841,0.812-7.739,1.219-11.69,1.219c-9.904,0-17.745-2.881-23.525-8.646c-5.784-5.764-8.675-13.556-8.675-23.384
	c0-10.16,2.744-18.225,8.229-24.191c5.486-5.967,12.888-8.951,22.196-8.951c8.349,0,14.954,2.688,19.812,8.064
	C538.5,360.256,540.93,367.563,540.93,376.799 M530.733,373.807c-0.076-5.578-1.635-10.031-4.685-13.355
	c-3.049-3.326-7.086-4.988-12.107-4.988c-5.689,0-10.244,1.607-13.66,4.822c-3.418,3.213-5.388,7.74-5.903,13.576L530.733,373.807z"
	/>
<g>
	
		<linearGradient id="SVGID_1_" gradientUnits="userSpaceOnUse" x1="131.3853" y1="358.5762" x2="131.3853" y2="432.2111" gradientTransform="matrix(1 0 0 -1 0 793)">
		<stop  offset="0.3033" style="stop-color:#473788"/>
		<stop  offset="0.872" style="stop-color:#2C2255"/>
	</linearGradient>
	<path fill="url(#SVGID_1_)" d="M164.653,376.089c-0.164-2.021-0.504-3.992-1.012-5.896h-64.51
		c-0.508,1.903-0.849,3.874-1.013,5.896H164.653z"/>
	
		<linearGradient id="SVGID_2_" gradientUnits="userSpaceOnUse" x1="131.3853" y1="358.5752" x2="131.3853" y2="432.2101" gradientTransform="matrix(1 0 0 -1 0 793)">
		<stop  offset="0.3033" style="stop-color:#473788"/>
		<stop  offset="0.872" style="stop-color:#2C2255"/>
	</linearGradient>
	<path fill="url(#SVGID_2_)" d="M164.653,381.565H98.119c0.164,2.021,0.503,3.992,1.012,5.896h64.511
		C164.15,385.557,164.489,383.586,164.653,381.565z"/>
	
		<linearGradient id="SVGID_3_" gradientUnits="userSpaceOnUse" x1="131.3853" y1="358.5771" x2="131.3853" y2="432.2084" gradientTransform="matrix(1 0 0 -1 0 793)">
		<stop  offset="0.3033" style="stop-color:#473788"/>
		<stop  offset="0.8631" style="stop-color:#2C2255"/>
	</linearGradient>
	<path fill="url(#SVGID_3_)" d="M131.386,412.217c13.397,0,24.945-7.893,30.263-19.281h-60.526
		C106.441,404.324,117.989,412.217,131.386,412.217z"/>
</g>
<g>
	<path fill="#FFFFFF" d="M93.188,381.565h4.884h66.706h8.763h6.657c0.046-0.871,0.072-1.748,0.072-2.631
		c0-0.955-0.035-1.902-0.089-2.845h-6.641h-8.763H98.071h-5.229H82.507c-0.054,0.942-0.089,1.89-0.089,2.845
		c0,0.883,0.026,1.76,0.072,2.631H93.188z"/>
	<path fill="#FFFFFF" d="M100.928,364.718H84.376c-0.544,1.783-0.895,3.612-1.232,5.476h8.525h7.259h64.679h9.16h6.547
		c-0.338-1.863-0.773-3.692-1.316-5.476"/>
	<path fill="#FFFFFF" d="M173.026,387.46h-9.16H99.188h-6.912h-9.133c0.328,1.863,0.701,3.691,1.236,5.476h16.807h60.682h9.962
		h6.488c0.534-1.784,0.965-3.612,1.294-5.476H173.026z"/>
</g>
</svg>
