<svg xmlns="http://www.w3.org/2000/svg" viewBox="0 0 124.93 124.93"><title>floating-quickstart</title><g style="isolation:isolate"><g id="Layer_2" data-name="Layer 2"><g id="Layer_1-2" data-name="Layer 1"><path d="M24.84,100.09a33.39,33.39,0,0,1-15-8.67h0a33.52,33.52,0,0,1,0-47.4l44-44,23.7,23.7-44,44A33.5,33.5,0,0,0,24.84,100.09Z" fill="#80ea6e" style="mix-blend-mode:multiply"/><path d="M80.91,115.11a33.5,33.5,0,0,1-47.39,0h0a33.39,33.39,0,0,1-8.67-15,33.5,33.5,0,0,0,32.37-8.67l0,0,44-44,23.7,23.7-44,44Z" fill="#ebf2f2" style="mix-blend-mode:multiply"/><path d="M57.21,91.42a33.5,33.5,0,0,1-32.37,8.67,33.5,33.5,0,0,1,8.67-32.37l44-44,23.7,23.7-44,44Z" fill="#6db33f" style="mix-blend-mode:multiply"/></g></g></g></svg>