<svg xmlns="http://www.w3.org/2000/svg" viewBox="0 0 113.92 113.92"><defs><style>.cls-1{fill:#b6d8d1;}</style></defs><title>footer-circles</title><g id="Layer_2" data-name="Layer 2"><g id="Layer_1-2" data-name="Layer 1"><circle class="cls-1" cx="3.85" cy="3.85" r="3.85"/><circle class="cls-1" cx="30.41" cy="3.85" r="3.85"/><circle class="cls-1" cx="83.52" cy="3.85" r="3.85"/><circle class="cls-1" cx="110.08" cy="3.85" r="3.85"/><circle class="cls-1" cx="56.96" cy="3.85" r="3.85"/><circle class="cls-1" cx="3.85" cy="30.41" r="3.85"/><circle class="cls-1" cx="30.41" cy="30.41" r="3.85"/><circle class="cls-1" cx="83.52" cy="30.41" r="3.85"/><circle class="cls-1" cx="110.08" cy="30.41" r="3.85"/><circle class="cls-1" cx="56.96" cy="30.41" r="3.85"/><circle class="cls-1" cx="3.85" cy="56.96" r="3.85"/><circle class="cls-1" cx="30.41" cy="56.96" r="3.85"/><circle class="cls-1" cx="83.52" cy="56.96" r="3.85"/><circle class="cls-1" cx="110.08" cy="56.96" r="3.85"/><circle class="cls-1" cx="56.96" cy="56.96" r="3.85"/><circle class="cls-1" cx="3.85" cy="83.52" r="3.85"/><circle class="cls-1" cx="30.41" cy="83.52" r="3.85"/><circle class="cls-1" cx="83.52" cy="83.52" r="3.85"/><circle class="cls-1" cx="110.08" cy="83.52" r="3.85"/><circle class="cls-1" cx="56.96" cy="83.52" r="3.85"/><circle class="cls-1" cx="3.85" cy="110.08" r="3.85"/><circle class="cls-1" cx="30.41" cy="110.08" r="3.85"/><circle class="cls-1" cx="83.52" cy="110.08" r="3.85"/><circle class="cls-1" cx="110.08" cy="110.08" r="3.85"/><circle class="cls-1" cx="56.96" cy="110.08" r="3.85"/></g></g></svg>