<?xml version="1.0" encoding="utf-8"?>
<!-- Generator: Adobe Illustrator 24.1.0, SVG Export Plug-In . SVG Version: 6.00 Build 0)  -->
<svg version="1.1" id="Layer_1" xmlns="http://www.w3.org/2000/svg" xmlns:xlink="http://www.w3.org/1999/xlink" x="0px" y="0px"
	 viewBox="0 0 500 106" style="enable-background:new 0 0 500 106;" xml:space="preserve">
<style type="text/css">
	.st0{fill:#FFFFFF;}
</style>
<path class="st0" d="M148.8,52.3v14c-1.7,1.3-3.6,2.2-5.6,2.8c-2.1,0.6-4.2,0.9-6.4,0.9c-2.6,0-5.2-0.4-7.6-1.3
	c-2.2-0.8-4.2-2.1-5.8-3.7c-1.6-1.6-2.9-3.5-3.7-5.6c-0.9-2.3-1.3-4.7-1.3-7.1c0-2.4,0.4-4.9,1.3-7.1c0.8-2.1,2-4,3.6-5.6
	c1.6-1.6,3.5-2.8,5.6-3.6c2.4-0.9,4.9-1.3,7.4-1.3c1.3,0,2.6,0.1,3.9,0.3c1.2,0.2,2.3,0.5,3.4,0.9c1,0.4,2,0.8,2.9,1.4
	c0.8,0.5,1.6,1.2,2.4,1.8l-1.8,2.9c-0.2,0.4-0.6,0.7-1.1,0.8c-0.5,0.1-1.1,0-1.5-0.3l-1.6-0.9c-0.5-0.3-1.1-0.5-1.7-0.7
	c-0.7-0.2-1.4-0.4-2.2-0.5c-0.9-0.2-1.8-0.2-2.8-0.2c-1.6,0-3.1,0.3-4.6,0.9c-1.3,0.5-2.5,1.4-3.5,2.5c-1,1.1-1.8,2.4-2.2,3.8
	c-0.5,1.6-0.8,3.3-0.8,5c0,1.8,0.3,3.6,0.8,5.3c0.5,1.5,1.3,2.8,2.4,3.9c1,1.1,2.3,1.9,3.7,2.4c2.6,1,5.5,1.1,8.2,0.4
	c1-0.3,2-0.6,2.9-1.1v-6.2h-4.3c-0.4,0-0.7-0.1-1-0.3c-0.2-0.2-0.3-0.5-0.3-0.8v-3.6H148.8z M159.2,49.4c0.7-1.3,1.6-2.5,2.8-3.5
	c1.1-0.8,2.4-1.3,3.7-1.2c1,0,1.9,0.2,2.7,0.7l-0.4,4.4c0,0.2-0.2,0.4-0.3,0.6c-0.2,0.1-0.4,0.2-0.6,0.2c-0.4,0-0.7-0.1-1.1-0.1
	c-0.5-0.1-0.9-0.1-1.4-0.1c-0.6,0-1.2,0.1-1.8,0.3c-0.5,0.2-1,0.5-1.4,0.8c-0.4,0.4-0.8,0.8-1.1,1.3c-0.3,0.6-0.6,1.1-0.9,1.7v15.1
	h-5.9V45.1h3.5c0.4,0,0.9,0.1,1.3,0.3c0.3,0.3,0.5,0.7,0.5,1.2L159.2,49.4z M170.6,48.5c2.8-2.6,6.4-3.9,10.2-3.9
	c1.3,0,2.6,0.2,3.8,0.7c1.1,0.4,2.1,1.1,2.9,2c0.8,0.9,1.4,1.9,1.8,3c0.4,1.2,0.6,2.5,0.6,3.8v15.4h-2.7c-0.4,0-0.9-0.1-1.3-0.2
	c-0.4-0.2-0.6-0.6-0.7-1l-0.5-1.8c-0.6,0.5-1.2,1-1.8,1.4c-0.6,0.4-1.2,0.8-1.8,1.1c-0.6,0.3-1.3,0.5-2,0.7
	c-0.8,0.2-1.6,0.2-2.4,0.2c-1,0-1.9-0.1-2.9-0.4c-0.8-0.3-1.6-0.7-2.3-1.2c-0.6-0.6-1.1-1.3-1.5-2.1c-0.4-0.9-0.5-1.9-0.5-2.9
	c0-1.3,0.5-2.6,1.3-3.6c0.5-0.6,1.1-1.1,1.8-1.6c0.9-0.5,1.8-1,2.8-1.3c1.2-0.4,2.5-0.7,3.8-0.9c1.7-0.2,3.3-0.4,5-0.4v-1.4
	c0.1-1.3-0.4-2.6-1.2-3.6c-0.8-0.8-1.9-1.2-3-1.2c-0.8,0-1.6,0.1-2.4,0.3c-0.6,0.2-1.1,0.5-1.7,0.8l-1.3,0.8
	c-0.4,0.2-0.8,0.3-1.3,0.3c-0.4,0-0.7-0.1-1-0.3c-0.3-0.2-0.5-0.5-0.7-0.8L170.6,48.5z M184.1,59.2c-1.4,0-2.9,0.2-4.3,0.4
	c-1,0.2-1.9,0.4-2.8,0.8c-0.6,0.3-1.1,0.7-1.5,1.2c-0.7,1.2-0.6,2.7,0.5,3.7c0.7,0.5,1.5,0.7,2.4,0.7c1.1,0,2.2-0.2,3.1-0.7
	c1-0.5,1.8-1.2,2.6-2L184.1,59.2z M216.6,34.2v35.4H213c-0.7,0.1-1.3-0.4-1.5-1.1l-0.5-2.4c-1,1.1-2.1,2-3.4,2.7
	c-1.4,0.7-2.9,1.1-4.5,1c-1.3,0-2.5-0.3-3.7-0.8c-1.1-0.6-2.1-1.4-2.9-2.4c-0.9-1.2-1.5-2.5-1.9-3.9c-0.5-1.7-0.7-3.5-0.6-5.3
	c0-1.7,0.2-3.4,0.7-5.1c0.5-1.5,1.2-2.8,2.2-4c0.9-1.1,2-2,3.3-2.7c1.4-0.7,2.8-1,4.4-1c1.2,0,2.4,0.2,3.5,0.6c1,0.4,1.8,1,2.6,1.7
	V34.2H216.6z M210.7,51.4c-0.6-0.7-1.3-1.3-2.2-1.7c-0.8-0.3-1.7-0.5-2.5-0.5c-0.8,0-1.7,0.2-2.4,0.5c-0.7,0.3-1.4,0.9-1.8,1.5
	c-0.6,0.8-1,1.7-1.2,2.6c-0.3,1.2-0.4,2.4-0.4,3.7c0,1.2,0.1,2.4,0.3,3.6c0.2,0.9,0.5,1.7,1,2.4c0.4,0.6,0.9,1.1,1.6,1.4
	c0.7,0.3,1.4,0.4,2.1,0.4c1.1,0,2.2-0.2,3.1-0.8c0.9-0.6,1.8-1.3,2.4-2.2L210.7,51.4z M228.4,34.2v35.4h-5.9V34.2L228.4,34.2z
	 M238.8,58.2c0.1,1.1,0.3,2.2,0.7,3.2c0.3,0.8,0.8,1.6,1.4,2.3c0.6,0.6,1.2,1,2,1.3c0.8,0.3,1.7,0.4,2.6,0.4c0.8,0,1.7-0.1,2.5-0.3
	c0.6-0.2,1.2-0.4,1.8-0.7c0.5-0.3,1-0.5,1.4-0.7c0.3-0.2,0.7-0.3,1.1-0.3c0.4,0,0.9,0.2,1.1,0.5l1.7,2.1c-0.6,0.7-1.4,1.4-2.2,1.9
	c-0.8,0.5-1.6,0.9-2.5,1.2c-0.9,0.3-1.8,0.5-2.7,0.7c-0.9,0.1-1.8,0.2-2.7,0.2c-1.6,0-3.2-0.3-4.8-0.8c-1.4-0.6-2.7-1.4-3.8-2.5
	c-1.1-1.2-2-2.6-2.6-4.1c-0.7-1.8-1-3.7-0.9-5.7c0-1.6,0.3-3.2,0.8-4.7c0.5-1.4,1.3-2.7,2.3-3.8c1-1.1,2.3-2,3.7-2.6
	c1.6-0.7,3.2-1,4.9-1c1.5,0,2.9,0.2,4.3,0.7c1.3,0.5,2.4,1.2,3.4,2.2c1,1,1.7,2.2,2.2,3.5c0.6,1.5,0.8,3.1,0.8,4.7
	c0.1,0.6,0,1.2-0.3,1.8c-0.3,0.3-0.7,0.5-1.1,0.5L238.8,58.2z M250.1,54.6c0-0.7-0.1-1.5-0.3-2.2c-0.2-0.7-0.6-1.3-1-1.8
	c-0.4-0.5-1-0.9-1.6-1.2c-0.7-0.3-1.5-0.5-2.3-0.4c-1.5-0.1-2.9,0.5-4,1.5c-1,1.1-1.7,2.6-1.8,4.1L250.1,54.6z M293.7,67.6v2h-20.3
	V35.8h20.2v2h-17.8v13.7h14.8v2h-14.8v14.1L293.7,67.6z M301.4,50c1-1.3,2.3-2.4,3.8-3.3c1.5-0.8,3.1-1.3,4.8-1.2
	c1.2,0,2.4,0.2,3.5,0.6c1,0.4,1.8,1,2.5,1.8c0.7,0.8,1.2,1.8,1.5,2.8c0.4,1.2,0.5,2.5,0.5,3.7v15.2h-2.3V54.4
	c0.1-1.9-0.4-3.7-1.5-5.2c-1.2-1.3-2.9-2-4.6-1.9c-1.5,0-3,0.4-4.3,1.2c-1.4,0.8-2.6,2-3.6,3.3v17.8h-2.3V45.9h1.3
	c0.3,0,0.7,0.2,0.7,0.6c0,0,0,0,0,0L301.4,50z M331.6,70c-1.4,0.1-2.7-0.4-3.8-1.3c-1-1.1-1.5-2.6-1.4-4.1V48.3h-3.4
	c-0.2,0-0.3,0-0.4-0.1c-0.1-0.1-0.2-0.2-0.2-0.4v-0.9l4.1-0.3l0.6-8.5c0-0.1,0.1-0.3,0.2-0.4c0.1-0.1,0.3-0.2,0.4-0.2h1.1v9.1h7.5
	v1.7h-7.5v16.1c0,0.6,0.1,1.1,0.2,1.7c0.1,0.4,0.4,0.8,0.7,1.2c0.3,0.3,0.6,0.5,1,0.7c0.9,0.3,1.9,0.3,2.8,0
	c0.4-0.1,0.7-0.3,1.1-0.5c0.3-0.2,0.5-0.4,0.7-0.6c0.1-0.1,0.3-0.2,0.5-0.2c0.2,0,0.3,0.1,0.4,0.2l0.6,1c-0.6,0.7-1.4,1.2-2.3,1.6
	C333.6,69.8,332.6,70,331.6,70z M342.2,56.8v0.5c0,1.6,0.2,3.2,0.6,4.7c0.4,1.2,1,2.4,1.8,3.4c0.7,0.9,1.7,1.6,2.8,2.1
	c1.1,0.5,2.4,0.7,3.6,0.7c1,0,2.1-0.1,3.1-0.4c0.8-0.2,1.5-0.5,2.2-0.9c0.5-0.3,1-0.6,1.4-0.9c0.2-0.2,0.5-0.3,0.8-0.4
	c0.2,0,0.4,0.1,0.5,0.2l0.6,0.8c-0.4,0.5-0.9,1-1.5,1.3c-0.6,0.4-1.3,0.8-2.1,1.1c-0.8,0.3-1.6,0.5-2.5,0.7
	c-0.9,0.2-1.8,0.3-2.7,0.3c-1.5,0-3-0.3-4.4-0.8c-1.3-0.6-2.5-1.4-3.4-2.5c-1-1.2-1.7-2.5-2.2-4c-0.5-1.7-0.8-3.6-0.8-5.4
	c0-1.6,0.2-3.2,0.7-4.7c0.4-1.4,1.2-2.6,2.1-3.7c0.9-1.1,2.1-1.9,3.4-2.5c1.4-0.6,3-0.9,4.5-0.9c1.3,0,2.5,0.2,3.7,0.7
	c1.1,0.4,2.2,1.1,3,2c0.9,0.9,1.6,2,2,3.2c0.5,1.4,0.7,2.9,0.7,4.4c0,0.2,0,0.5-0.1,0.7c-0.1,0.1-0.3,0.2-0.5,0.2L342.2,56.8z
	 M358,55.3c0-1.2-0.2-2.3-0.5-3.4c-0.3-0.9-0.8-1.8-1.5-2.6c-0.7-0.7-1.4-1.2-2.3-1.6c-1-0.4-2-0.6-3-0.6c-1.1,0-2.2,0.2-3.3,0.6
	c-0.9,0.4-1.8,0.9-2.5,1.6c-0.7,0.8-1.3,1.6-1.7,2.6c-0.4,1.1-0.7,2.2-0.9,3.4L358,55.3z M368.4,51.6c0.3-0.9,0.8-1.8,1.3-2.6
	c0.4-0.7,1-1.4,1.6-1.9c0.6-0.5,1.3-0.9,2-1.2c0.8-0.3,1.7-0.4,2.5-0.4c0.5,0,1,0,1.5,0.1c0.4,0.1,0.9,0.2,1.3,0.5l-0.2,1.6
	c0,0.2-0.2,0.4-0.4,0.4c-0.3,0-0.6-0.1-0.9-0.2c-0.5-0.1-1-0.2-1.5-0.2c-0.8,0-1.7,0.1-2.4,0.4c-0.7,0.3-1.4,0.7-1.9,1.2
	c-0.6,0.6-1.1,1.3-1.5,2.1c-0.5,0.9-0.8,1.9-1.2,2.8v15.4h-2.3V45.9h1.2c0.2,0,0.4,0,0.6,0.2c0.1,0.2,0.2,0.4,0.2,0.6L368.4,51.6z
	 M385.3,50.1c1-1.4,2.3-2.5,3.7-3.4c1.4-0.8,3.1-1.3,4.7-1.3c2.6-0.1,5.1,1,6.8,3c1.6,2,2.4,5,2.4,9.1c0,1.6-0.2,3.3-0.7,4.9
	c-0.4,1.4-1.1,2.7-2,3.9c-0.9,1.1-2,2-3.2,2.7c-1.4,0.7-2.9,1-4.4,1c-1.4,0-2.9-0.3-4.2-0.9c-1.2-0.6-2.3-1.5-3.1-2.6V78h-2.3V45.9
	h1.3c0.3,0,0.7,0.2,0.7,0.6c0,0,0,0,0,0L385.3,50.1z M385.4,64.4c0.4,0.6,0.9,1.2,1.5,1.7c0.5,0.4,1,0.8,1.6,1.1
	c0.6,0.3,1.2,0.5,1.8,0.6c0.7,0.1,1.3,0.2,2,0.2c1.3,0,2.5-0.2,3.7-0.8c1-0.5,1.9-1.2,2.6-2.2c0.7-1,1.3-2.1,1.6-3.3
	c0.4-1.4,0.6-2.8,0.5-4.3c0-3.5-0.7-6.1-2-7.8c-1.4-1.7-3.4-2.6-5.6-2.5c-1.5,0-3,0.4-4.3,1.2c-1.4,0.9-2.5,2-3.4,3.4L385.4,64.4z
	 M411.6,51.6c0.3-0.9,0.8-1.8,1.3-2.6c0.4-0.7,1-1.4,1.6-1.9c0.6-0.5,1.3-0.9,2-1.2c0.8-0.3,1.7-0.4,2.5-0.4c0.5,0,1,0,1.5,0.1
	c0.4,0.1,0.9,0.2,1.3,0.5l-0.2,1.6c0,0.2-0.2,0.4-0.5,0.4c-0.3,0-0.6-0.1-0.9-0.2c-0.5-0.1-1-0.2-1.5-0.2c-0.8,0-1.7,0.1-2.4,0.4
	c-0.7,0.3-1.4,0.7-1.9,1.2c-0.6,0.6-1.1,1.3-1.5,2.1c-0.5,0.9-0.8,1.9-1.2,2.8v15.4h-2.3V45.9h1.2c0.2,0,0.4,0,0.6,0.2
	c0.1,0.2,0.2,0.4,0.2,0.6L411.6,51.6z M429.8,37.7c0,0.3-0.1,0.6-0.2,0.8c-0.1,0.2-0.3,0.5-0.5,0.7c-0.2,0.2-0.4,0.3-0.7,0.5
	c-0.5,0.2-1.1,0.2-1.6,0c-0.3-0.1-0.5-0.3-0.7-0.5c-0.2-0.2-0.3-0.4-0.5-0.7c-0.1-0.3-0.2-0.5-0.2-0.8c0-0.3,0.1-0.6,0.2-0.8
	c0.1-0.3,0.3-0.5,0.5-0.7c0.2-0.2,0.4-0.3,0.7-0.5c0.5-0.2,1.1-0.2,1.6,0c0.2,0.1,0.5,0.3,0.7,0.5c0.2,0.2,0.3,0.4,0.5,0.7
	C429.7,37.1,429.8,37.4,429.8,37.7z M428.8,45.9v23.7h-2.3V45.9H428.8z M450,48.8c-0.1,0.2-0.3,0.3-0.5,0.3c-0.2,0-0.5-0.1-0.7-0.3
	c-0.3-0.2-0.7-0.5-1.1-0.7c-0.5-0.3-1.1-0.5-1.7-0.7c-0.8-0.2-1.6-0.3-2.4-0.3c-0.8,0-1.6,0.1-2.4,0.4c-0.7,0.2-1.3,0.6-1.8,1
	c-0.5,0.4-0.9,0.9-1.2,1.4c-0.3,0.5-0.4,1.1-0.4,1.7c0,0.7,0.2,1.3,0.6,1.9c0.4,0.5,0.9,0.9,1.5,1.3c0.7,0.4,1.4,0.7,2.1,0.9
	l2.4,0.8c0.8,0.3,1.6,0.5,2.4,0.8c0.8,0.3,1.5,0.7,2.2,1.2c0.6,0.5,1.1,1,1.5,1.7c0.4,0.7,0.6,1.6,0.6,2.4c0,1-0.2,2-0.5,2.9
	c-0.4,0.9-0.9,1.7-1.6,2.3c-0.8,0.7-1.6,1.2-2.6,1.6c-1.1,0.4-2.3,0.6-3.6,0.6c-1.5,0-2.9-0.2-4.3-0.8c-1.2-0.5-2.3-1.2-3.2-2.1
	l0.5-0.8c0.1-0.1,0.2-0.2,0.3-0.3c0.1-0.1,0.3-0.1,0.4-0.1c0.3,0,0.6,0.2,0.8,0.4c0.4,0.3,0.8,0.6,1.2,0.8c0.6,0.3,1.2,0.6,1.8,0.8
	c0.9,0.3,1.8,0.4,2.7,0.4c0.9,0,1.8-0.1,2.6-0.4c0.7-0.2,1.3-0.6,1.9-1.1c0.5-0.5,0.9-1,1.2-1.7c0.3-0.6,0.4-1.3,0.4-2
	c0-0.7-0.2-1.4-0.6-2c-0.4-0.5-0.9-1-1.5-1.3c-0.7-0.4-1.4-0.7-2.1-0.9l-2.5-0.8c-0.8-0.3-1.6-0.5-2.4-0.8c-0.8-0.3-1.5-0.7-2.1-1.1
	c-0.6-0.5-1.1-1-1.5-1.7c-0.4-0.8-0.6-1.6-0.6-2.5c0-0.8,0.2-1.7,0.5-2.4c0.4-0.8,0.9-1.5,1.6-2c0.7-0.6,1.6-1.1,2.5-1.4
	c1.1-0.4,2.2-0.5,3.3-0.5c1.3,0,2.6,0.2,3.9,0.6c1.1,0.4,2.2,1.1,3.1,1.9L450,48.8z M458,56.8v0.5c0,1.6,0.2,3.2,0.6,4.7
	c0.4,1.2,1,2.4,1.8,3.4c0.7,0.9,1.7,1.6,2.8,2.1c1.1,0.5,2.4,0.7,3.6,0.7c1,0,2.1-0.1,3.1-0.4c0.8-0.2,1.5-0.5,2.2-0.9
	c0.5-0.3,1-0.6,1.4-0.9c0.2-0.2,0.5-0.3,0.8-0.4c0.2,0,0.4,0.1,0.5,0.2l0.6,0.8c-0.4,0.5-0.9,1-1.5,1.3c-0.7,0.4-1.3,0.8-2.1,1.1
	c-0.8,0.3-1.6,0.5-2.5,0.7c-0.9,0.2-1.8,0.3-2.7,0.3c-1.5,0-3-0.3-4.4-0.8c-1.3-0.6-2.5-1.4-3.4-2.5c-1-1.2-1.7-2.5-2.2-4
	c-0.5-1.7-0.8-3.6-0.8-5.4c0-1.6,0.2-3.2,0.7-4.7c0.4-1.4,1.2-2.6,2.1-3.7c0.9-1.1,2.1-1.9,3.4-2.5c1.4-0.6,3-0.9,4.5-0.9
	c1.3,0,2.5,0.2,3.7,0.7c1.1,0.4,2.2,1.1,3,2c0.9,0.9,1.6,2,2,3.2c0.5,1.4,0.7,2.9,0.7,4.4c0,0.2,0,0.5-0.1,0.7
	c-0.1,0.1-0.3,0.2-0.5,0.2L458,56.8z M473.8,55.4c0-1.2-0.2-2.3-0.5-3.4c-0.3-1-0.8-1.8-1.5-2.6c-0.7-0.7-1.4-1.2-2.3-1.6
	c-1-0.4-2-0.6-3-0.6c-1.1,0-2.2,0.2-3.3,0.6c-0.9,0.4-1.8,0.9-2.5,1.6c-0.7,0.8-1.3,1.6-1.6,2.6c-0.4,1.1-0.7,2.2-0.9,3.4
	L473.8,55.4z M106,10c-5.2-5.2-13.7-5.4-19.1-0.3c-0.3,0.2-0.4,0.6-0.4,0.9c0,0.4,0.1,0.7,0.4,0.9l1.7,1.7c0.5,0.5,1.2,0.5,1.7,0.1
	c3.5-2.6,8.4-1.9,11,1.6c2.4,3.1,2,7.5-0.7,10.3C89.7,36.2,75.1,5.7,42.1,21.4c-2.2,1-3.2,3.7-2.2,6c0.1,0.1,0.1,0.2,0.2,0.3
	l5.7,9.8c1.2,2.1,3.9,2.9,6.1,1.7L52,39l-0.1,0.1l2.5-1.4c2.8-1.7,5.4-3.7,7.9-5.9c0.5-0.5,1.3-0.5,1.8-0.1l0,0
	c0.6,0.4,0.7,1.3,0.2,1.8c0,0.1-0.1,0.1-0.2,0.2c-2.6,2.3-5.4,4.4-8.3,6.3h-0.1l-2.5,1.4c-3.4,1.9-7.7,0.7-9.7-2.7l-5.4-9.2
	c-10.3,7.3-16.5,21.3-13.2,39c0.1,0.6,0.7,1.1,1.3,1.1h6.1c0.7,0,1.2-0.5,1.3-1.2c0.6-4.9,5.1-8.4,10-7.7c4,0.5,7.2,3.7,7.7,7.7
	c0.1,0.7,0.6,1.1,1.3,1.2h5.9c0.7,0,1.2-0.5,1.3-1.2c0.6-4.9,5.1-8.4,10-7.7c4,0.5,7.2,3.7,7.7,7.7c0.1,0.7,0.7,1.2,1.4,1.2h5.9
	c0.7,0,1.3-0.6,1.3-1.3c0.1-8.3,2.4-17.8,8.7-22.5C116.9,29.2,111.1,15.1,106,10z M83.5,34.9l-4.2-2.1l0,0c0-1.5,1.2-2.6,2.6-2.6
	c1.5,0,2.6,1.2,2.6,2.6C84.6,33.6,84.2,34.4,83.5,34.9L83.5,34.9z"/>
</svg>
