<svg id="Layer_1" data-name="Layer 1" xmlns="http://www.w3.org/2000/svg" viewBox="0 0 500 106"><defs><style>.cls-1{fill:#02303a;}</style></defs><title>gradle-enterprise-dark-green-primary</title><path class="cls-1" d="M148.76,52.31v14a18.29,18.29,0,0,1-5.59,2.82,21.82,21.82,0,0,1-6.36.9,21.08,21.08,0,0,1-7.64-1.32A17,17,0,0,1,123.33,65a15.85,15.85,0,0,1-3.74-5.58,18.78,18.78,0,0,1-1.31-7.08,19.32,19.32,0,0,1,1.27-7.13,16,16,0,0,1,3.58-5.58A16.16,16.16,0,0,1,128.78,36a20.37,20.37,0,0,1,7.44-1.29,21,21,0,0,1,3.92.34,20.43,20.43,0,0,1,3.39.91,15.16,15.16,0,0,1,2.85,1.42,17.3,17.3,0,0,1,2.36,1.84l-1.84,2.91a1.77,1.77,0,0,1-1.12.85,2,2,0,0,1-1.5-.35l-1.57-.91A10.16,10.16,0,0,0,141,41a14,14,0,0,0-2.17-.55,16.24,16.24,0,0,0-2.78-.22,11.91,11.91,0,0,0-4.61.86,9.78,9.78,0,0,0-3.52,2.46,11.08,11.08,0,0,0-2.24,3.84,14.92,14.92,0,0,0-.79,5,15.23,15.23,0,0,0,.85,5.28,11.2,11.2,0,0,0,2.38,3.94A10.15,10.15,0,0,0,131.78,64a14.42,14.42,0,0,0,8.25.45,16.84,16.84,0,0,0,2.94-1.1V57.13h-4.34a1.31,1.31,0,0,1-1-.35,1.14,1.14,0,0,1-.34-.84V52.31Zm10.48-2.93A10.48,10.48,0,0,1,162,45.93a5.83,5.83,0,0,1,3.73-1.25,4.55,4.55,0,0,1,2.71.74L168,49.83a1.14,1.14,0,0,1-.34.61,1,1,0,0,1-.61.18A6.89,6.89,0,0,1,166,50.5a8.19,8.19,0,0,0-1.37-.12,5,5,0,0,0-1.75.29,4.46,4.46,0,0,0-1.37.82,5.76,5.76,0,0,0-1.07,1.3,12.82,12.82,0,0,0-.87,1.74V69.6h-5.89V45.13h3.46a1.93,1.93,0,0,1,1.26.32,1.9,1.9,0,0,1,.48,1.16Zm11.35-.84a14.53,14.53,0,0,1,10.16-3.86,9.92,9.92,0,0,1,3.84.7,8.06,8.06,0,0,1,2.86,2,8.38,8.38,0,0,1,1.78,3,11.42,11.42,0,0,1,.61,3.82V69.6h-2.67a2.66,2.66,0,0,1-1.29-.25,1.73,1.73,0,0,1-.72-1l-.52-1.77A21.7,21.7,0,0,1,182.83,68,10.66,10.66,0,0,1,181,69.1a9.74,9.74,0,0,1-2,.66,11.78,11.78,0,0,1-2.4.23,9.32,9.32,0,0,1-2.86-.42,6.5,6.5,0,0,1-2.27-1.25,5.72,5.72,0,0,1-1.48-2.08,7.36,7.36,0,0,1-.52-2.88,5.53,5.53,0,0,1,1.32-3.61,8.52,8.52,0,0,1,1.83-1.57,12.15,12.15,0,0,1,2.75-1.29,24.42,24.42,0,0,1,3.81-.89,38.51,38.51,0,0,1,5-.42V54.15A5.36,5.36,0,0,0,183,50.51a3.83,3.83,0,0,0-3-1.18,7.28,7.28,0,0,0-2.37.33,10.29,10.29,0,0,0-1.66.76l-1.3.75a2.59,2.59,0,0,1-1.3.33,1.74,1.74,0,0,1-1-.32,2.71,2.71,0,0,1-.69-.75Zm13.5,10.62a31.67,31.67,0,0,0-4.29.44,11.3,11.3,0,0,0-2.79.82,3.69,3.69,0,0,0-1.51,1.17,2.89,2.89,0,0,0,.47,3.67,3.93,3.93,0,0,0,2.39.67,7.09,7.09,0,0,0,3.14-.65,9.42,9.42,0,0,0,2.59-2Zm32.53-25V69.6H213a1.38,1.38,0,0,1-1.48-1.07l-.5-2.36a12.25,12.25,0,0,1-3.4,2.74,9.17,9.17,0,0,1-4.47,1,8.14,8.14,0,0,1-3.67-.83,8.32,8.32,0,0,1-2.88-2.42,11.76,11.76,0,0,1-1.86-3.93,19.67,19.67,0,0,1-.65-5.34,16.51,16.51,0,0,1,.74-5.06A12.3,12.3,0,0,1,197,48.33a9.82,9.82,0,0,1,3.31-2.68,9.53,9.53,0,0,1,4.35-1,8.61,8.61,0,0,1,3.5.64,9,9,0,0,1,2.6,1.74V34.16Zm-5.89,17.22a5.87,5.87,0,0,0-2.18-1.72,6.5,6.5,0,0,0-2.54-.5,5.71,5.71,0,0,0-2.41.5,4.87,4.87,0,0,0-1.84,1.52,7.34,7.34,0,0,0-1.17,2.58,14.74,14.74,0,0,0-.4,3.68,16.5,16.5,0,0,0,.34,3.64,7.6,7.6,0,0,0,1,2.43,3.79,3.79,0,0,0,1.58,1.36,5,5,0,0,0,2.07.42,6,6,0,0,0,3.13-.77,9,9,0,0,0,2.43-2.17Zm17.68-17.22V69.6h-5.9V34.16Zm10.42,24a11.72,11.72,0,0,0,.67,3.25,6.69,6.69,0,0,0,1.38,2.27,5.41,5.41,0,0,0,2,1.34,7.52,7.52,0,0,0,2.61.44,7.84,7.84,0,0,0,2.47-.34,11.13,11.13,0,0,0,1.81-.74c.52-.27,1-.51,1.36-.74a2.31,2.31,0,0,1,1.14-.33,1.2,1.2,0,0,1,1.09.55L255.1,66a9.91,9.91,0,0,1-2.2,1.91,12,12,0,0,1-2.54,1.25,14.06,14.06,0,0,1-2.69.65A18.92,18.92,0,0,1,245,70a13.18,13.18,0,0,1-4.75-.84,10.76,10.76,0,0,1-3.82-2.51,11.7,11.7,0,0,1-2.55-4.1,15.9,15.9,0,0,1-.93-5.67,13.55,13.55,0,0,1,.81-4.71,11.34,11.34,0,0,1,2.33-3.84,11,11,0,0,1,3.7-2.59,12.23,12.23,0,0,1,4.92-1,12,12,0,0,1,4.27.74,9.17,9.17,0,0,1,3.36,2.16,10,10,0,0,1,2.21,3.48,13.06,13.06,0,0,1,.8,4.71,3.82,3.82,0,0,1-.29,1.8,1.17,1.17,0,0,1-1.09.47Zm11.23-3.56a7,7,0,0,0-.32-2.16,5.06,5.06,0,0,0-1-1.77,4.59,4.59,0,0,0-1.64-1.21,5.68,5.68,0,0,0-2.3-.44,5.47,5.47,0,0,0-4,1.46A7.1,7.1,0,0,0,239,54.55Zm43.65,13,0,2H273.44V35.85h20.23v2H275.9V51.52h14.78v2H275.9V67.58ZM301.37,50a13.47,13.47,0,0,1,3.8-3.29A9.47,9.47,0,0,1,310,45.49a9,9,0,0,1,3.45.62,6.38,6.38,0,0,1,2.47,1.79,7.92,7.92,0,0,1,1.47,2.81,12.58,12.58,0,0,1,.51,3.72V69.6h-2.29V54.43a8.1,8.1,0,0,0-1.53-5.23,5.63,5.63,0,0,0-4.65-1.9,8.49,8.49,0,0,0-4.33,1.18,12.19,12.19,0,0,0-3.59,3.28V69.6H299.2V45.87h1.26a.63.63,0,0,1,.69.6Zm30.24,20a5.1,5.1,0,0,1-3.75-1.34,5.6,5.6,0,0,1-1.35-4.13V48.3H323.1a.6.6,0,0,1-.43-.14.5.5,0,0,1-.17-.4v-.89l4.06-.28.57-8.49a1,1,0,0,1,.19-.39.51.51,0,0,1,.41-.16h1.07v9.06h7.49V48.3H328.8V64.41a5,5,0,0,0,.25,1.68,3.18,3.18,0,0,0,.69,1.15,2.63,2.63,0,0,0,1,.67,4.12,4.12,0,0,0,2.77,0,5.62,5.62,0,0,0,1.07-.54,6.78,6.78,0,0,0,.74-.55.79.79,0,0,1,.45-.25.5.5,0,0,1,.38.24l.62,1a6.6,6.6,0,0,1-2.3,1.61A7.25,7.25,0,0,1,331.61,70ZM342.2,56.8v.45a15.87,15.87,0,0,0,.63,4.7,9.69,9.69,0,0,0,1.76,3.4,7.22,7.22,0,0,0,2.77,2.06,9.16,9.16,0,0,0,3.62.69,10.88,10.88,0,0,0,3.1-.39,11.8,11.8,0,0,0,2.21-.88,11.31,11.31,0,0,0,1.42-.89,1.61,1.61,0,0,1,.76-.39.55.55,0,0,1,.48.24l.62.76a6.53,6.53,0,0,1-1.52,1.34A11.05,11.05,0,0,1,356,69a15.54,15.54,0,0,1-2.48.7,13.35,13.35,0,0,1-2.67.26,11.32,11.32,0,0,1-4.43-.84,9.52,9.52,0,0,1-3.44-2.47,11.22,11.22,0,0,1-2.2-4,17.07,17.07,0,0,1-.78-5.38,14.54,14.54,0,0,1,.73-4.71,10.59,10.59,0,0,1,2.1-3.72,9.55,9.55,0,0,1,3.36-2.45,11,11,0,0,1,4.52-.88,9.85,9.85,0,0,1,3.72.69,8.25,8.25,0,0,1,3,2,9.4,9.4,0,0,1,2,3.25,12.68,12.68,0,0,1,.72,4.44,1.26,1.26,0,0,1-.14.72.57.57,0,0,1-.48.19ZM358,55.34a10.4,10.4,0,0,0-.53-3.42A7.36,7.36,0,0,0,356,49.35a6.72,6.72,0,0,0-2.32-1.61,7.74,7.74,0,0,0-3-.56,8.79,8.79,0,0,0-3.3.58,7.15,7.15,0,0,0-2.51,1.64A8.3,8.3,0,0,0,343.18,52a12.17,12.17,0,0,0-.86,3.36Zm10.4-3.74A14.86,14.86,0,0,1,369.7,49a7.64,7.64,0,0,1,1.62-1.92,6.53,6.53,0,0,1,2.05-1.21,7.38,7.38,0,0,1,2.51-.41,7.85,7.85,0,0,1,1.46.13,3.5,3.5,0,0,1,1.26.46l-.19,1.58A.46.46,0,0,1,378,48a3.65,3.65,0,0,1-.87-.17,5.8,5.8,0,0,0-1.54-.17,6.56,6.56,0,0,0-2.44.42,5.7,5.7,0,0,0-1.91,1.25,7.94,7.94,0,0,0-1.48,2.07,19.85,19.85,0,0,0-1.16,2.82V69.6h-2.29V45.87h1.22a.79.79,0,0,1,.57.17,1,1,0,0,1,.22.57Zm16.89-1.46A12.63,12.63,0,0,1,389,46.73a9.08,9.08,0,0,1,4.74-1.26,8.26,8.26,0,0,1,6.81,3q2.44,3,2.44,9.08a16.55,16.55,0,0,1-.68,4.86,11.57,11.57,0,0,1-2,3.91A9.59,9.59,0,0,1,397.08,69a9.79,9.79,0,0,1-4.43,1,9.19,9.19,0,0,1-4.17-.88,8.59,8.59,0,0,1-3.06-2.6V78h-2.28V45.87h1.26a.63.63,0,0,1,.69.6Zm.09,14.29a10.76,10.76,0,0,0,1.45,1.73,7.25,7.25,0,0,0,1.58,1.14,6.53,6.53,0,0,0,1.78.64,10.58,10.58,0,0,0,2,.19,8.34,8.34,0,0,0,3.68-.77,7.25,7.25,0,0,0,2.63-2.16,9.69,9.69,0,0,0,1.6-3.34,15.92,15.92,0,0,0,.54-4.28c0-3.53-.66-6.12-2-7.78a6.68,6.68,0,0,0-5.61-2.5,7.76,7.76,0,0,0-4.26,1.22,12.09,12.09,0,0,0-3.42,3.39ZM411.61,51.6A14.86,14.86,0,0,1,412.87,49a7.85,7.85,0,0,1,1.62-1.92,6.53,6.53,0,0,1,2.05-1.21,7.44,7.44,0,0,1,2.52-.41,7.82,7.82,0,0,1,1.45.13,3.62,3.62,0,0,1,1.27.46l-.2,1.58a.46.46,0,0,1-.45.38,3.65,3.65,0,0,1-.87-.17,5.8,5.8,0,0,0-1.54-.17,6.56,6.56,0,0,0-2.44.42,5.7,5.7,0,0,0-1.91,1.25,7.94,7.94,0,0,0-1.48,2.07,19.85,19.85,0,0,0-1.16,2.82V69.6h-2.29V45.87h1.22a.79.79,0,0,1,.57.17,1,1,0,0,1,.22.57Zm18.2-13.91a1.8,1.8,0,0,1-.18.8,2.52,2.52,0,0,1-.46.66,2.19,2.19,0,0,1-.67.45,2.13,2.13,0,0,1-1.62,0,2.08,2.08,0,0,1-.67-.45,2.27,2.27,0,0,1-.45-.66,1.94,1.94,0,0,1-.17-.8,2.08,2.08,0,0,1,.17-.82,2.12,2.12,0,0,1,.45-.68,2.28,2.28,0,0,1,.67-.46,2.13,2.13,0,0,1,1.62,0,2.42,2.42,0,0,1,.67.46,2.33,2.33,0,0,1,.46.68A1.92,1.92,0,0,1,429.81,37.69Zm-1,8.18V69.6h-2.27V45.87ZM450,48.81a.6.6,0,0,1-.55.33,1.23,1.23,0,0,1-.67-.3,10.17,10.17,0,0,0-1.08-.67,8.9,8.9,0,0,0-1.69-.66,8.48,8.48,0,0,0-2.43-.3,7,7,0,0,0-2.35.37,5.53,5.53,0,0,0-1.81,1A4.32,4.32,0,0,0,438.23,50a3.88,3.88,0,0,0-.4,1.73,3,3,0,0,0,.57,1.86,5,5,0,0,0,1.49,1.26,10.8,10.8,0,0,0,2.11.91l2.42.76c.82.26,1.63.54,2.42.85A8.7,8.7,0,0,1,449,58.54a5.37,5.37,0,0,1,1.49,1.69,4.75,4.75,0,0,1,.58,2.43,7.63,7.63,0,0,1-.55,2.89,6.43,6.43,0,0,1-1.61,2.31,7.67,7.67,0,0,1-2.61,1.55,10.07,10.07,0,0,1-3.56.58,10.63,10.63,0,0,1-4.31-.8,12.38,12.38,0,0,1-3.25-2.09l.53-.81a1,1,0,0,1,.27-.29.82.82,0,0,1,.42-.09,1.26,1.26,0,0,1,.75.38,8.4,8.4,0,0,0,1.18.82,10.09,10.09,0,0,0,1.82.83,8.33,8.33,0,0,0,2.69.38,7.72,7.72,0,0,0,2.65-.42,5.64,5.64,0,0,0,1.9-1.13,4.69,4.69,0,0,0,1.16-1.69,5.37,5.37,0,0,0,.39-2,3.26,3.26,0,0,0-.57-2,4.88,4.88,0,0,0-1.5-1.34,10,10,0,0,0-2.11-.93L442.29,58c-.83-.26-1.64-.54-2.42-.84a9,9,0,0,1-2.12-1.14,5.64,5.64,0,0,1-1.5-1.69,4.84,4.84,0,0,1-.57-2.46,5.61,5.61,0,0,1,.55-2.44,6.05,6.05,0,0,1,1.56-2A7.71,7.71,0,0,1,440.26,46a9.84,9.84,0,0,1,3.27-.52,11.18,11.18,0,0,1,3.85.62A9,9,0,0,1,450.44,48Zm8,8v.45a15.89,15.89,0,0,0,.62,4.7,9.69,9.69,0,0,0,1.76,3.4,7.3,7.3,0,0,0,2.77,2.06,9.16,9.16,0,0,0,3.62.69,10.88,10.88,0,0,0,3.1-.39,11.8,11.8,0,0,0,2.21-.88,11.31,11.31,0,0,0,1.42-.89,1.61,1.61,0,0,1,.76-.39.55.55,0,0,1,.48.24l.62.76a6.53,6.53,0,0,1-1.52,1.34A11.05,11.05,0,0,1,471.76,69a15.54,15.54,0,0,1-2.48.7,13.32,13.32,0,0,1-2.66.26,11.33,11.33,0,0,1-4.44-.84,9.52,9.52,0,0,1-3.44-2.47,11.22,11.22,0,0,1-2.2-4,17.07,17.07,0,0,1-.78-5.38,14.54,14.54,0,0,1,.73-4.71,10.75,10.75,0,0,1,2.1-3.72A9.55,9.55,0,0,1,462,46.37a11,11,0,0,1,4.52-.88,9.85,9.85,0,0,1,3.72.69,8.25,8.25,0,0,1,3,2,9.4,9.4,0,0,1,2,3.25,12.68,12.68,0,0,1,.72,4.44,1.26,1.26,0,0,1-.14.72.57.57,0,0,1-.48.19Zm15.83-1.46a10.4,10.4,0,0,0-.53-3.42,7.36,7.36,0,0,0-1.52-2.57,6.72,6.72,0,0,0-2.32-1.61,7.74,7.74,0,0,0-3-.56,8.79,8.79,0,0,0-3.3.58,7.33,7.33,0,0,0-2.51,1.64A8.3,8.3,0,0,0,459,52a12.17,12.17,0,0,0-.86,3.36ZM106,10A13.74,13.74,0,0,0,86.91,9.7a1.27,1.27,0,0,0-.41.93,1.29,1.29,0,0,0,.38.95l1.73,1.73a1.31,1.31,0,0,0,1.71.12A7.87,7.87,0,0,1,100.6,25.3C89.7,36.2,75.14,5.65,42.13,21.36a4.48,4.48,0,0,0-2,6.29l5.67,9.8a4.47,4.47,0,0,0,6.06,1.66L52,39l-.11.08,2.51-1.4a58.26,58.26,0,0,0,7.91-5.9,1.38,1.38,0,0,1,1.8-.06h0a1.3,1.3,0,0,1,.06,2A58.84,58.84,0,0,1,55.84,40l-.09,0-2.51,1.41a7.2,7.2,0,0,1-9.7-2.67l-5.36-9.24C27.9,36.81,21.67,50.8,25,68.49a1.3,1.3,0,0,0,1.28,1.07h6.09a1.32,1.32,0,0,0,1.3-1.15,8.93,8.93,0,0,1,17.72,0,1.31,1.31,0,0,0,1.29,1.15h5.94a1.32,1.32,0,0,0,1.3-1.15,8.93,8.93,0,0,1,17.72,0A1.31,1.31,0,0,0,79,69.56h5.87a1.32,1.32,0,0,0,1.31-1.29c.13-8.28,2.36-17.78,8.73-22.55C116.89,29.24,111.09,15.12,106,10ZM83.52,34.91l-4.2-2.11h0a2.64,2.64,0,1,1,4.2,2.12Z"/></svg>