<svg id="Layer_1" data-name="Layer 1" xmlns="http://www.w3.org/2000/svg" viewBox="0 0 295.39 337.44"><defs><style>.cls-1{fill:#fff;}</style></defs><title>guides</title><path class="cls-1" d="M200.36,73.4l13.93,8a.69.69,0,0,1,.25,0,25.46,25.46,0,0,1-3-11.24c0-4.26,1.5-7.46,4.18-9s6.28-1.24,10,.92c7.39,4.26,13.16,14.37,13.14,23,0,4.2-1.48,7.35-4.13,8.87a7.32,7.32,0,0,1-3.7,1,12.48,12.48,0,0,1-6.14-1.87,27.78,27.78,0,0,1-9.66-10.27l-.16.1-.06,19c1,1,2,2,3.16,3l.24.21.43,9.63,12.06,7,.48-8.65.9.27a22.2,22.2,0,0,0,7.54.77l.44,0,5.77,9.23,8.15-4.64-4.9-9.51.29-.38a19.52,19.52,0,0,0,3.09-6.81l.23-.91,7.53,3.83,0-13.86-7.7-5-.06-.32a65.44,65.44,0,0,0-3.14-10.66l-.19-.51,5-3.86-8.68-15-5.86,2.57-.36-.44a65.88,65.88,0,0,0-7.68-8.07l-.24-.21-.43-9.37-12.07-7-.46,8.91-.91-.26a17.17,17.17,0,0,0-7-.52l-.47.06L204,31.56l-8.15,4.65,5.35,10.29-.29.38A19.71,19.71,0,0,0,198,53.32l-.25.89L189.56,50l0,13.86,8.38,5.36.06.32c.18.94.38,1.86.6,2.75l1.87,1.08Z"/><polygon class="cls-1" points="188.36 96.41 194.96 92.58 181.06 84.5 174.57 88.23 188.46 96.25 188.36 96.41"/><polygon class="cls-1" points="196.45 91.72 197.81 90.92 193.68 83.77 195.58 82.33 190.21 79.24 182.56 83.64 196.45 91.72"/><path class="cls-1" d="M164.6,62.8l7.21-4.15L113.19,24.81l-.75-.41-7.24,4.26Z"/><polygon class="cls-1" points="154.12 68.82 95.2 34.55 88.46 38.51 147.53 72.61 154.12 68.82"/><polygon class="cls-1" points="146.02 73.48 86.97 39.38 79.86 43.57 138.9 77.58 146.02 73.48"/><polygon class="cls-1" points="187.05 97.17 173.07 89.09 165.97 93.17 180.01 101.26 187.05 97.17"/><polygon class="cls-1" points="137.39 78.44 78.38 44.44 70.66 48.98 129.52 82.97 137.39 78.44"/><path class="cls-1" d="M199.26,79.53c-.6-1.55-1.11-3.06-1.56-4.6l-6,3.44,5.17,3Z"/><polygon class="cls-1" points="163.1 63.66 103.71 29.54 96.68 33.67 155.62 67.96 163.1 63.66"/><polygon class="cls-1" points="178.52 102.13 164.47 94.04 156.57 98.58 170.64 106.7 178.52 102.13"/><polygon class="cls-1" points="199.11 90.17 204.14 87.25 196.99 83.14 195.64 84.17 199.11 90.17"/><path class="cls-1" d="M212.72,82.27l-13.6-7.85c.49,1.7,1.06,3.36,1.75,5.09l.21.53-2.79,2.11,7.35,4.23Z"/><path class="cls-1" d="M196.88,81.34l.71.41,2.58-2a53.41,53.41,0,0,1-1.79-5.25l-.68.39c.45,1.54,1,3,1.56,4.6Z"/><polygon class="cls-1" points="197.81 90.92 198.46 90.55 194.66 83.97 196.29 82.73 195.58 82.33 193.68 83.77 197.81 90.92"/><path class="cls-1" d="M197.59,81.75l.7.4L201.08,80l-.21-.53c-.69-1.73-1.26-3.39-1.75-5.09l-.27-.15-.47.27a53.41,53.41,0,0,0,1.79,5.25Z"/><polygon class="cls-1" points="195.64 84.17 196.99 83.14 196.29 82.73 194.66 83.97 198.46 90.55 199.11 90.17 195.64 84.17"/><path class="cls-1" d="M169.17,289a1.76,1.76,0,0,1,.36-1.06l0-11.38a1.75,1.75,0,0,1-.39-1.1,1.73,1.73,0,0,1,.4-1.11l0-11.28a1.74,1.74,0,0,1-.43-1.15,1.77,1.77,0,0,1,.44-1.16l0-11.18a1.78,1.78,0,0,1-.47-1.2,1.71,1.71,0,0,1,.48-1.2l0-11.1a1.75,1.75,0,0,1-.51-1.24,1.72,1.72,0,0,1,.52-1.25l0-11a1.73,1.73,0,0,1,0-2.53l.16-55.92.16-56-15-8.66-.09,0-.34,120.15a1.79,1.79,0,0,1,.7-.15,1.77,1.77,0,0,1,0,3.53,1.64,1.64,0,0,1-.71-.15l0,4.92L141.1,203.71l-7.67,4.8a1.77,1.77,0,0,1-1.59,1h0l-4.3,2.69,0-9.5a1.76,1.76,0,0,1-1.38-1.72h0a1.77,1.77,0,0,1,1.39-1.73l.33-115.35.09-.05L69.59,50.14A20.56,20.56,0,0,0,59.49,47a11.25,11.25,0,0,0-5.72,1.46C49.61,50.88,47.31,56,47.3,62.84l-.23,79.1c8.55,10.9,14.26,24.92,14.46,37.52.15,9.7-3,17-8.94,20.56a15.7,15.7,0,0,1-5.69,2v2.63c0,12.33,7.34,27,17.31,35.63a1.74,1.74,0,0,1,1.19-.47h0a1.76,1.76,0,0,1,1.77,1.76h0a1.66,1.66,0,0,1-.24.86,33.47,33.47,0,0,0,2.87,1.87l5.73,3.31a1.76,1.76,0,0,1,3.36.73,1.73,1.73,0,0,1-.33,1l8.69,5a1.76,1.76,0,0,1,1.61-1h0a1.76,1.76,0,0,1,1.76,1.76h0a1.8,1.8,0,0,1-.33,1l8.69,5a1.77,1.77,0,0,1,3.37.73,1.73,1.73,0,0,1-.34,1l8.7,5a1.75,1.75,0,0,1,1.6-1h0a1.76,1.76,0,0,1,1.76,1.76h0a1.73,1.73,0,0,1-.33,1l8.69,5a1.77,1.77,0,0,1,3.37.73,1.8,1.8,0,0,1-.33,1l8.69,5a1.76,1.76,0,0,1,1.6-1h0a1.76,1.76,0,0,1,1.77,1.76h0a1.73,1.73,0,0,1-.34,1l8.7,5a1.74,1.74,0,0,1,1.6-1,1.76,1.76,0,0,1,1.76,1.76,1.73,1.73,0,0,1-.33,1l8.69,5a1.76,1.76,0,0,1,1.6-1h0a1.76,1.76,0,0,1,1.77,1.76h0a1.77,1.77,0,0,1-.33,1l8.85,5.12,0-11.85A1.72,1.72,0,0,1,169.17,289ZM53.67,223.05a1.75,1.75,0,0,1-1.31-.59l3-1.71a1.91,1.91,0,0,1,.09.54A1.76,1.76,0,0,1,53.67,223.05Zm69.25-30.21,2.84,1.64a1.76,1.76,0,1,1-2.84-1.64Zm-10.62-4.93.81-.47.22-.13.21.13.49.28a1.75,1.75,0,0,1-1.73,1.48h0a1.71,1.71,0,0,1-1.28-.56Zm-53,40.15a1.76,1.76,0,0,1-1.76,1.76h0a1.76,1.76,0,0,1-1.77-1.76h0a1.77,1.77,0,0,1,1.77-1.77h0a1.76,1.76,0,0,1,1.76,1.76Zm2.14,8.53a1.76,1.76,0,1,1,1.77-1.76A1.76,1.76,0,0,1,61.48,236.59Zm0-13.54a1.77,1.77,0,1,1,1.77-1.76A1.76,1.76,0,0,1,61.48,223.05Zm5.68,5a1.76,1.76,0,0,1-1.77,1.76h0a1.76,1.76,0,0,1-1.76-1.76h0a1.76,1.76,0,0,1,1.76-1.77h0a1.76,1.76,0,0,1,1.77,1.76Zm0-13.54a1.76,1.76,0,0,1-1.77,1.76h0a1.72,1.72,0,0,1-1.3-.58l1.3-.75.75-.43.93-.54a1.91,1.91,0,0,1,.09.54Zm2.14,22.07a1.76,1.76,0,1,1,1.77-1.76A1.76,1.76,0,0,1,69.3,236.59Zm0-13.54a1.77,1.77,0,1,1,1.77-1.76A1.76,1.76,0,0,1,69.3,223.05ZM75,241.6a1.76,1.76,0,0,1-1.76,1.76h0a1.76,1.76,0,0,1-1.76-1.76h0a1.76,1.76,0,0,1,1.76-1.76h0A1.76,1.76,0,0,1,75,241.6Zm0-13.54a1.76,1.76,0,0,1-1.76,1.76h0a1.76,1.76,0,0,1-1.76-1.76h0a1.76,1.76,0,0,1,1.76-1.77h0A1.76,1.76,0,0,1,75,228.06Zm0-13.54a1.76,1.76,0,0,1-1.76,1.76h0a1.76,1.76,0,0,1-1.76-1.76h0a1.76,1.76,0,0,1,1.76-1.77h0A1.76,1.76,0,0,1,75,214.52Zm2.15,22.07a1.76,1.76,0,1,1,1.76-1.76A1.76,1.76,0,0,1,77.12,236.59Zm0-13.54a1.77,1.77,0,1,1,1.76-1.76A1.76,1.76,0,0,1,77.12,223.05Zm0-13.54a1.77,1.77,0,0,1-1.3-.57l3-1.72a1.55,1.55,0,0,1,.09.53A1.76,1.76,0,0,1,77.12,209.51Zm5.67,32.09A1.76,1.76,0,0,1,81,243.36h0a1.76,1.76,0,0,1-1.77-1.76h0A1.76,1.76,0,0,1,81,239.84h0a1.76,1.76,0,0,1,1.76,1.76Zm0-13.54A1.76,1.76,0,0,1,81,229.82h0a1.76,1.76,0,0,1-1.77-1.76h0A1.77,1.77,0,0,1,81,226.29h0a1.76,1.76,0,0,1,1.76,1.76Zm0-13.54A1.76,1.76,0,0,1,81,216.28h0a1.76,1.76,0,0,1-1.77-1.76h0A1.77,1.77,0,0,1,81,212.75h0a1.76,1.76,0,0,1,1.76,1.77Zm2.15,35.61a1.76,1.76,0,1,1,1.76-1.76A1.76,1.76,0,0,1,84.94,250.13Zm0-13.54a1.76,1.76,0,1,1,1.76-1.76A1.76,1.76,0,0,1,84.94,236.59Zm0-13.54a1.77,1.77,0,1,1,1.76-1.76A1.76,1.76,0,0,1,84.94,223.05Zm0-13.54a1.77,1.77,0,1,1,1.76-1.76A1.76,1.76,0,0,1,84.94,209.51Zm5.67,32.09a1.76,1.76,0,0,1-1.76,1.76h0a1.76,1.76,0,0,1-1.77-1.76h0a1.76,1.76,0,0,1,1.77-1.76h0a1.76,1.76,0,0,1,1.76,1.76Zm0-13.54a1.76,1.76,0,0,1-1.76,1.76h0a1.76,1.76,0,0,1-1.77-1.76h0a1.77,1.77,0,0,1,1.77-1.77h0a1.76,1.76,0,0,1,1.76,1.76Zm0-13.54a1.76,1.76,0,0,1-1.76,1.76h0a1.76,1.76,0,0,1-1.77-1.76h0a1.77,1.77,0,0,1,1.77-1.77h0a1.76,1.76,0,0,1,1.76,1.77Zm0-13.54a1.76,1.76,0,0,1-1.76,1.76h0a1.77,1.77,0,0,1-1.3-.57l1.3-.74.78-.45.89-.52a1.83,1.83,0,0,1,.09.52Zm2.14,49.15a1.76,1.76,0,1,1,1.77-1.76A1.76,1.76,0,0,1,92.75,250.13Zm0-13.54a1.76,1.76,0,1,1,1.77-1.76A1.76,1.76,0,0,1,92.75,236.59Zm0-13.54a1.77,1.77,0,1,1,1.77-1.76A1.76,1.76,0,0,1,92.75,223.05Zm0-13.54a1.77,1.77,0,1,1,1.77-1.76A1.76,1.76,0,0,1,92.75,209.51Zm5.68,45.63a1.76,1.76,0,0,1-1.77,1.76h0a1.76,1.76,0,0,1-1.76-1.76h0a1.76,1.76,0,0,1,1.76-1.76h0a1.76,1.76,0,0,1,1.77,1.76Zm0-13.54a1.76,1.76,0,0,1-1.77,1.76h0a1.76,1.76,0,0,1-1.76-1.76h0a1.76,1.76,0,0,1,1.76-1.76h0a1.76,1.76,0,0,1,1.77,1.76Zm0-13.54a1.76,1.76,0,0,1-1.77,1.76h0a1.76,1.76,0,0,1-1.76-1.76h0a1.76,1.76,0,0,1,1.76-1.77h0a1.76,1.76,0,0,1,1.77,1.76Zm0-13.54a1.76,1.76,0,0,1-1.77,1.76h0a1.76,1.76,0,0,1-1.76-1.76h0a1.76,1.76,0,0,1,1.76-1.77h0a1.77,1.77,0,0,1,1.77,1.77Zm0-13.54a1.76,1.76,0,0,1-1.77,1.76h0A1.76,1.76,0,0,1,94.9,201h0a1.76,1.76,0,0,1,1.76-1.77h0A1.77,1.77,0,0,1,98.43,201Zm2.14,49.15a1.76,1.76,0,1,1,1.77-1.76A1.76,1.76,0,0,1,100.57,250.13Zm0-13.54a1.76,1.76,0,1,1,1.77-1.76A1.76,1.76,0,0,1,100.57,236.59Zm0-13.54a1.77,1.77,0,1,1,1.77-1.76A1.76,1.76,0,0,1,100.57,223.05Zm0-13.54a1.77,1.77,0,1,1,1.77-1.76A1.76,1.76,0,0,1,100.57,209.51Zm0-13.54a1.75,1.75,0,0,1-1.28-.56l3-1.71a1.71,1.71,0,0,1,.09.51A1.76,1.76,0,0,1,100.57,196Zm5.67,59.17a1.76,1.76,0,0,1-1.76,1.76h0a1.76,1.76,0,0,1-1.76-1.76h0a1.76,1.76,0,0,1,1.76-1.76h0a1.76,1.76,0,0,1,1.76,1.76Zm0-13.54a1.76,1.76,0,0,1-1.76,1.76h0a1.76,1.76,0,0,1-1.76-1.76h0a1.76,1.76,0,0,1,1.76-1.76h0a1.76,1.76,0,0,1,1.76,1.76Zm0-13.54a1.76,1.76,0,0,1-1.76,1.76h0a1.76,1.76,0,0,1-1.76-1.76h0a1.76,1.76,0,0,1,1.76-1.77h0a1.75,1.75,0,0,1,1.76,1.76Zm0-13.54a1.76,1.76,0,0,1-1.76,1.76h0a1.76,1.76,0,0,1-1.76-1.76h0a1.76,1.76,0,0,1,1.76-1.77h0a1.76,1.76,0,0,1,1.76,1.77Zm0-13.54a1.76,1.76,0,0,1-1.76,1.76h0a1.76,1.76,0,0,1-1.76-1.76h0a1.76,1.76,0,0,1,1.76-1.77h0a1.76,1.76,0,0,1,1.76,1.77Zm2.15,62.69a1.76,1.76,0,1,1,1.76-1.76A1.76,1.76,0,0,1,108.39,263.67Zm0-13.54a1.76,1.76,0,1,1,1.76-1.76A1.76,1.76,0,0,1,108.39,250.13Zm0-13.54a1.76,1.76,0,1,1,1.76-1.76A1.76,1.76,0,0,1,108.39,236.59Zm0-13.54a1.77,1.77,0,1,1,1.76-1.76A1.76,1.76,0,0,1,108.39,223.05Zm0-13.54a1.77,1.77,0,1,1,1.76-1.76A1.76,1.76,0,0,1,108.39,209.51Zm0-13.54a1.77,1.77,0,1,1,1.76-1.76A1.76,1.76,0,0,1,108.39,196Zm5.67,59.17a1.76,1.76,0,0,1-1.76,1.76h0a1.76,1.76,0,0,1-1.77-1.76h0a1.76,1.76,0,0,1,1.77-1.76h0a1.76,1.76,0,0,1,1.76,1.76Zm0-13.54a1.76,1.76,0,0,1-1.76,1.76h0a1.76,1.76,0,0,1-1.77-1.76h0a1.76,1.76,0,0,1,1.77-1.76h0a1.76,1.76,0,0,1,1.76,1.76Zm0-13.54a1.76,1.76,0,0,1-1.76,1.76h0a1.76,1.76,0,0,1-1.77-1.76h0a1.77,1.77,0,0,1,1.77-1.77h0a1.76,1.76,0,0,1,1.76,1.76Zm0-13.54a1.76,1.76,0,0,1-1.76,1.76h0a1.76,1.76,0,0,1-1.77-1.76h0a1.77,1.77,0,0,1,1.77-1.77h0a1.76,1.76,0,0,1,1.76,1.77Zm0-13.54a1.76,1.76,0,0,1-1.76,1.76h0a1.76,1.76,0,0,1-1.77-1.76h0a1.77,1.77,0,0,1,1.77-1.77h0a1.76,1.76,0,0,1,1.76,1.77Zm2.15,62.69a1.76,1.76,0,1,1,1.76-1.76A1.76,1.76,0,0,1,116.21,263.67Zm0-13.54a1.76,1.76,0,1,1,1.76-1.76A1.76,1.76,0,0,1,116.21,250.13Zm0-13.54a1.76,1.76,0,1,1,1.76-1.76A1.76,1.76,0,0,1,116.21,236.59Zm0-13.54a1.77,1.77,0,1,1,1.76-1.76A1.76,1.76,0,0,1,116.21,223.05Zm0-13.54a1.77,1.77,0,1,1,1.76-1.76A1.76,1.76,0,0,1,116.21,209.51Zm0-13.54a1.77,1.77,0,1,1,1.76-1.76A1.76,1.76,0,0,1,116.21,196Zm5.67,72.71a1.76,1.76,0,0,1-1.76,1.76h0a1.76,1.76,0,0,1-1.77-1.76h0a1.76,1.76,0,0,1,1.77-1.76h0a1.76,1.76,0,0,1,1.76,1.76Zm0-13.54a1.76,1.76,0,0,1-1.76,1.76h0a1.76,1.76,0,0,1-1.77-1.76h0a1.76,1.76,0,0,1,1.77-1.76h0a1.76,1.76,0,0,1,1.76,1.76Zm0-13.54a1.76,1.76,0,0,1-1.76,1.76h0a1.76,1.76,0,0,1-1.77-1.76h0a1.76,1.76,0,0,1,1.77-1.76h0a1.76,1.76,0,0,1,1.76,1.76Zm0-13.54a1.76,1.76,0,0,1-1.76,1.76h0a1.76,1.76,0,0,1-1.77-1.76h0a1.77,1.77,0,0,1,1.77-1.77h0a1.76,1.76,0,0,1,1.76,1.76Zm0-13.54a1.76,1.76,0,0,1-1.76,1.76h0a1.76,1.76,0,0,1-1.77-1.76h0a1.77,1.77,0,0,1,1.77-1.77h0a1.76,1.76,0,0,1,1.76,1.77Zm0-13.54a1.76,1.76,0,0,1-1.76,1.76h0a1.76,1.76,0,0,1-1.77-1.76h0a1.77,1.77,0,0,1,1.77-1.77h0a1.76,1.76,0,0,1,1.76,1.77ZM124,263.67a1.76,1.76,0,1,1,1.77-1.76A1.76,1.76,0,0,1,124,263.67Zm0-13.54a1.76,1.76,0,1,1,1.77-1.76A1.76,1.76,0,0,1,124,250.13Zm0-13.54a1.76,1.76,0,1,1,1.77-1.76A1.76,1.76,0,0,1,124,236.59Zm0-13.54a1.77,1.77,0,1,1,1.77-1.76A1.76,1.76,0,0,1,124,223.05Zm0-13.54a1.77,1.77,0,1,1,1.77-1.76A1.76,1.76,0,0,1,124,209.51Zm5.68,59.17a1.76,1.76,0,0,1-1.77,1.76h0a1.76,1.76,0,0,1-1.76-1.76h0a1.76,1.76,0,0,1,1.76-1.76h0a1.76,1.76,0,0,1,1.77,1.76Zm0-13.54a1.76,1.76,0,0,1-1.77,1.76h0a1.76,1.76,0,0,1-1.76-1.76h0a1.76,1.76,0,0,1,1.76-1.76h0a1.76,1.76,0,0,1,1.77,1.76Zm0-13.54a1.76,1.76,0,0,1-1.77,1.76h0a1.76,1.76,0,0,1-1.76-1.76h0a1.76,1.76,0,0,1,1.76-1.76h0a1.76,1.76,0,0,1,1.77,1.76Zm0-13.54a1.76,1.76,0,0,1-1.77,1.76h0a1.76,1.76,0,0,1-1.76-1.76h0a1.76,1.76,0,0,1,1.76-1.77h0a1.76,1.76,0,0,1,1.77,1.76Zm0-13.54a1.76,1.76,0,0,1-1.77,1.76h0a1.76,1.76,0,0,1-1.76-1.76h0a1.76,1.76,0,0,1,1.76-1.77h0a1.77,1.77,0,0,1,1.77,1.77Zm2.14,62.69a1.76,1.76,0,1,1,1.77-1.76A1.76,1.76,0,0,1,131.84,277.21Zm0-13.54a1.76,1.76,0,1,1,1.77-1.76A1.76,1.76,0,0,1,131.84,263.67Zm0-13.54a1.76,1.76,0,1,1,1.77-1.76A1.76,1.76,0,0,1,131.84,250.13Zm0-13.54a1.76,1.76,0,1,1,1.77-1.76A1.76,1.76,0,0,1,131.84,236.59Zm0-13.54a1.77,1.77,0,1,1,1.77-1.76A1.76,1.76,0,0,1,131.84,223.05Zm5.68,45.63a1.76,1.76,0,0,1-1.77,1.76h0a1.76,1.76,0,0,1-1.76-1.76h0a1.76,1.76,0,0,1,1.76-1.76h0a1.76,1.76,0,0,1,1.77,1.76Zm0-13.54a1.76,1.76,0,0,1-1.77,1.76h0a1.76,1.76,0,0,1-1.76-1.76h0a1.76,1.76,0,0,1,1.76-1.76h0a1.76,1.76,0,0,1,1.77,1.76Zm0-13.54a1.76,1.76,0,0,1-1.77,1.76h0A1.76,1.76,0,0,1,134,241.6h0a1.76,1.76,0,0,1,1.76-1.76h0a1.76,1.76,0,0,1,1.77,1.76Zm0-13.54a1.76,1.76,0,0,1-1.77,1.76h0a1.76,1.76,0,0,1-1.76-1.76h0a1.76,1.76,0,0,1,1.76-1.77h0a1.76,1.76,0,0,1,1.77,1.76Zm0-13.54a1.76,1.76,0,0,1-1.77,1.76h0a1.76,1.76,0,0,1-1.76-1.76h0a1.76,1.76,0,0,1,1.76-1.77h0a1.77,1.77,0,0,1,1.77,1.77Zm2.14,62.69a1.76,1.76,0,1,1,1.76-1.76A1.76,1.76,0,0,1,139.66,277.21Zm0-13.54a1.76,1.76,0,1,1,1.76-1.76A1.76,1.76,0,0,1,139.66,263.67Zm0-13.54a1.76,1.76,0,1,1,1.76-1.76A1.76,1.76,0,0,1,139.66,250.13Zm0-13.54a1.76,1.76,0,1,1,1.76-1.76A1.76,1.76,0,0,1,139.66,236.59Zm0-13.54a1.77,1.77,0,1,1,1.76-1.76A1.76,1.76,0,0,1,139.66,223.05Zm0-13.54a1.77,1.77,0,1,1,1.76-1.76A1.76,1.76,0,0,1,139.66,209.51Zm5.67,72.71a1.76,1.76,0,0,1-1.76,1.76h0a1.76,1.76,0,0,1-1.77-1.76h0a1.76,1.76,0,0,1,1.77-1.76h0a1.76,1.76,0,0,1,1.76,1.76Zm0-13.54a1.76,1.76,0,0,1-1.76,1.76h0a1.76,1.76,0,0,1-1.77-1.76h0a1.76,1.76,0,0,1,1.77-1.76h0a1.76,1.76,0,0,1,1.76,1.76Zm0-13.54a1.76,1.76,0,0,1-1.76,1.76h0a1.76,1.76,0,0,1-1.77-1.76h0a1.76,1.76,0,0,1,1.77-1.76h0a1.76,1.76,0,0,1,1.76,1.76Zm0-13.54a1.76,1.76,0,0,1-1.76,1.76h0a1.76,1.76,0,0,1-1.77-1.76h0a1.76,1.76,0,0,1,1.77-1.76h0a1.76,1.76,0,0,1,1.76,1.76Zm0-13.54a1.76,1.76,0,0,1-1.76,1.76h0a1.76,1.76,0,0,1-1.77-1.76h0a1.77,1.77,0,0,1,1.77-1.77h0a1.76,1.76,0,0,1,1.76,1.76Zm0-13.54a1.76,1.76,0,0,1-1.76,1.76h0a1.76,1.76,0,0,1-1.77-1.76h0a1.77,1.77,0,0,1,1.77-1.77h0a1.76,1.76,0,0,1,1.76,1.77Zm2.15,62.69a1.76,1.76,0,1,1,1.76-1.76A1.76,1.76,0,0,1,147.48,277.21Zm0-13.54a1.76,1.76,0,1,1,1.76-1.76A1.76,1.76,0,0,1,147.48,263.67Zm0-13.54a1.76,1.76,0,1,1,1.76-1.76A1.76,1.76,0,0,1,147.48,250.13Zm0-13.54a1.76,1.76,0,1,1,1.76-1.76A1.76,1.76,0,0,1,147.48,236.59Zm0-13.54a1.77,1.77,0,1,1,1.76-1.76A1.76,1.76,0,0,1,147.48,223.05Zm5.67,59.17a1.76,1.76,0,0,1-1.76,1.76h0a1.76,1.76,0,0,1-1.77-1.76h0a1.76,1.76,0,0,1,1.77-1.76h0a1.76,1.76,0,0,1,1.76,1.76Zm0-13.54a1.76,1.76,0,0,1-1.76,1.76h0a1.76,1.76,0,0,1-1.77-1.76h0a1.76,1.76,0,0,1,1.77-1.76h0a1.76,1.76,0,0,1,1.76,1.76Zm0-13.54a1.76,1.76,0,0,1-1.76,1.76h0a1.76,1.76,0,0,1-1.77-1.76h0a1.76,1.76,0,0,1,1.77-1.76h0a1.76,1.76,0,0,1,1.76,1.76Zm0-13.54a1.76,1.76,0,0,1-1.76,1.76h0a1.76,1.76,0,0,1-1.77-1.76h0a1.76,1.76,0,0,1,1.77-1.76h0a1.76,1.76,0,0,1,1.76,1.76Zm0-13.54a1.76,1.76,0,0,1-1.76,1.76h0a1.76,1.76,0,0,1-1.77-1.76h0a1.77,1.77,0,0,1,1.77-1.77h0a1.76,1.76,0,0,1,1.76,1.76Zm2.15,62.7a1.77,1.77,0,1,1,1.76-1.77A1.77,1.77,0,0,1,155.3,290.76Zm0-13.55a1.76,1.76,0,1,1,1.76-1.76A1.76,1.76,0,0,1,155.3,277.21Zm0-13.54a1.76,1.76,0,1,1,1.76-1.76A1.76,1.76,0,0,1,155.3,263.67Zm0-13.54a1.76,1.76,0,1,1,1.76-1.76A1.76,1.76,0,0,1,155.3,250.13Zm0-13.54a1.76,1.76,0,1,1,1.76-1.76A1.76,1.76,0,0,1,155.3,236.59Zm2.14-22.07a1.75,1.75,0,0,1,.68-1.38l1.08.62,1.32.76.42.24a1.76,1.76,0,0,1-1.74,1.52h0a1.76,1.76,0,0,1-1.76-1.76Zm3.53,67.7A1.76,1.76,0,0,1,159.2,284h0a1.76,1.76,0,0,1-1.76-1.76h0a1.76,1.76,0,0,1,1.76-1.76h0a1.76,1.76,0,0,1,1.77,1.76Zm0-13.54a1.76,1.76,0,0,1-1.77,1.76h0a1.76,1.76,0,0,1-1.76-1.76h0a1.76,1.76,0,0,1,1.76-1.76h0a1.76,1.76,0,0,1,1.77,1.76Zm0-13.54a1.76,1.76,0,0,1-1.77,1.76h0a1.76,1.76,0,0,1-1.76-1.76h0a1.76,1.76,0,0,1,1.76-1.76h0a1.76,1.76,0,0,1,1.77,1.76Zm0-13.54a1.76,1.76,0,0,1-1.77,1.76h0a1.76,1.76,0,0,1-1.76-1.76h0a1.76,1.76,0,0,1,1.76-1.76h0A1.76,1.76,0,0,1,161,241.6Zm0-13.54a1.76,1.76,0,0,1-1.77,1.76h0a1.76,1.76,0,0,1-1.76-1.76h0a1.76,1.76,0,0,1,1.76-1.77h0a1.76,1.76,0,0,1,1.77,1.76Zm2.14,62.7a1.77,1.77,0,1,1,1.77-1.77A1.76,1.76,0,0,1,163.11,290.76Zm0-13.55a1.76,1.76,0,1,1,1.77-1.76A1.76,1.76,0,0,1,163.11,277.21Zm0-13.54a1.76,1.76,0,1,1,1.77-1.76A1.76,1.76,0,0,1,163.11,263.67Zm0-13.54a1.76,1.76,0,1,1,1.77-1.76A1.76,1.76,0,0,1,163.11,250.13Zm0-13.54a1.76,1.76,0,1,1,1.77-1.76A1.76,1.76,0,0,1,163.11,236.59Zm0-13.54a1.77,1.77,0,1,1,1.77-1.76A1.76,1.76,0,0,1,163.11,223.05Zm5.68,72.71a1.77,1.77,0,0,1-1.77,1.77h0a1.76,1.76,0,0,1-1.76-1.77h0A1.76,1.76,0,0,1,167,294h0a1.76,1.76,0,0,1,1.77,1.76Zm0-13.54A1.76,1.76,0,0,1,167,284h0a1.76,1.76,0,0,1-1.76-1.76h0a1.76,1.76,0,0,1,1.76-1.76h0a1.76,1.76,0,0,1,1.77,1.76Zm0-13.54a1.76,1.76,0,0,1-1.77,1.76h0a1.76,1.76,0,0,1-1.76-1.76h0a1.76,1.76,0,0,1,1.76-1.76h0a1.76,1.76,0,0,1,1.77,1.76Zm0-13.54A1.76,1.76,0,0,1,167,256.9h0a1.76,1.76,0,0,1-1.76-1.76h0a1.76,1.76,0,0,1,1.76-1.76h0a1.76,1.76,0,0,1,1.77,1.76Zm0-13.54a1.76,1.76,0,0,1-1.77,1.76h0a1.76,1.76,0,0,1-1.76-1.76h0a1.76,1.76,0,0,1,1.76-1.76h0a1.76,1.76,0,0,1,1.77,1.76Zm0-13.54a1.76,1.76,0,0,1-1.77,1.76h0a1.76,1.76,0,0,1-1.76-1.76h0a1.76,1.76,0,0,1,1.76-1.77h0a1.76,1.76,0,0,1,1.77,1.76Z"/><path class="cls-1" d="M167,226.3h0a1.76,1.76,0,0,0-1.76,1.77h0a1.76,1.76,0,0,0,1.76,1.76h0a1.76,1.76,0,0,0,1.77-1.76h0A1.76,1.76,0,0,0,167,226.3Z"/><path class="cls-1" d="M169.17,221.29a1.74,1.74,0,0,0,.55,1.27V220A1.75,1.75,0,0,0,169.17,221.29Z"/><path class="cls-1" d="M167,239.84h0a1.76,1.76,0,0,0-1.76,1.76h0a1.76,1.76,0,0,0,1.76,1.76h0a1.76,1.76,0,0,0,1.77-1.76h0A1.76,1.76,0,0,0,167,239.84Z"/><path class="cls-1" d="M169.17,234.83a1.75,1.75,0,0,0,.51,1.24v-2.49A1.72,1.72,0,0,0,169.17,234.83Z"/><path class="cls-1" d="M167,253.38h0a1.76,1.76,0,0,0-1.76,1.76h0A1.76,1.76,0,0,0,167,256.9h0a1.76,1.76,0,0,0,1.77-1.76h0A1.76,1.76,0,0,0,167,253.38Z"/><path class="cls-1" d="M169.17,248.37a1.78,1.78,0,0,0,.47,1.2v-2.4A1.71,1.71,0,0,0,169.17,248.37Z"/><path class="cls-1" d="M167,266.92h0a1.76,1.76,0,0,0-1.76,1.76h0a1.76,1.76,0,0,0,1.76,1.76h0a1.76,1.76,0,0,0,1.77-1.76h0A1.76,1.76,0,0,0,167,266.92Z"/><path class="cls-1" d="M169.17,261.91a1.74,1.74,0,0,0,.43,1.15v-2.31A1.77,1.77,0,0,0,169.17,261.91Z"/><path class="cls-1" d="M167,280.46h0a1.76,1.76,0,0,0-1.76,1.76h0A1.76,1.76,0,0,0,167,284h0a1.76,1.76,0,0,0,1.77-1.76h0A1.76,1.76,0,0,0,167,280.46Z"/><path class="cls-1" d="M169.17,275.45a1.75,1.75,0,0,0,.39,1.1v-2.21A1.73,1.73,0,0,0,169.17,275.45Z"/><path class="cls-1" d="M167,294h0a1.76,1.76,0,0,0-1.76,1.76h0a1.76,1.76,0,0,0,1.76,1.77h0a1.77,1.77,0,0,0,1.77-1.77h0A1.76,1.76,0,0,0,167,294Z"/><path class="cls-1" d="M169.53,290.05v-2.12a1.76,1.76,0,0,0-.36,1.06A1.72,1.72,0,0,0,169.53,290.05Z"/><path class="cls-1" d="M159.2,226.3h0a1.76,1.76,0,0,0-1.76,1.77h0a1.76,1.76,0,0,0,1.76,1.76h0a1.76,1.76,0,0,0,1.77-1.76h0A1.76,1.76,0,0,0,159.2,226.3Z"/><path class="cls-1" d="M163.11,219.52a1.77,1.77,0,1,0,1.77,1.77A1.76,1.76,0,0,0,163.11,219.52Z"/><path class="cls-1" d="M159.2,239.84h0a1.76,1.76,0,0,0-1.76,1.76h0a1.76,1.76,0,0,0,1.76,1.76h0A1.76,1.76,0,0,0,161,241.6h0A1.76,1.76,0,0,0,159.2,239.84Z"/><circle class="cls-1" cx="163.11" cy="234.83" r="1.76"/><path class="cls-1" d="M159.2,253.38h0a1.76,1.76,0,0,0-1.76,1.76h0a1.76,1.76,0,0,0,1.76,1.76h0a1.76,1.76,0,0,0,1.77-1.76h0A1.76,1.76,0,0,0,159.2,253.38Z"/><circle class="cls-1" cx="163.11" cy="248.37" r="1.76"/><path class="cls-1" d="M159.2,266.92h0a1.76,1.76,0,0,0-1.76,1.76h0a1.76,1.76,0,0,0,1.76,1.76h0a1.76,1.76,0,0,0,1.77-1.76h0A1.76,1.76,0,0,0,159.2,266.92Z"/><path class="cls-1" d="M163.11,260.15a1.76,1.76,0,1,0,1.77,1.76A1.76,1.76,0,0,0,163.11,260.15Z"/><path class="cls-1" d="M159.2,280.46h0a1.76,1.76,0,0,0-1.76,1.76h0A1.76,1.76,0,0,0,159.2,284h0a1.76,1.76,0,0,0,1.77-1.76h0A1.76,1.76,0,0,0,159.2,280.46Z"/><path class="cls-1" d="M163.11,273.69a1.76,1.76,0,1,0,1.77,1.76A1.76,1.76,0,0,0,163.11,273.69Z"/><path class="cls-1" d="M161,295.76A1.76,1.76,0,0,0,159.2,294h0a1.76,1.76,0,0,0-1.6,1l3,1.75a1.77,1.77,0,0,0,.33-1Z"/><path class="cls-1" d="M163.11,287.23a1.77,1.77,0,1,0,1.77,1.76A1.76,1.76,0,0,0,163.11,287.23Z"/><path class="cls-1" d="M151.39,226.3h0a1.77,1.77,0,0,0-1.77,1.77h0a1.76,1.76,0,0,0,1.77,1.76h0a1.76,1.76,0,0,0,1.76-1.76h0A1.76,1.76,0,0,0,151.39,226.3Z"/><path class="cls-1" d="M155.3,223.05a1.77,1.77,0,0,0,0-3.53,1.79,1.79,0,0,0-.7.15v3.23A1.64,1.64,0,0,0,155.3,223.05Z"/><path class="cls-1" d="M159.2,216.28h0a1.76,1.76,0,0,0,1.74-1.52l-.42-.24-1.32-.76-1.08-.62a1.75,1.75,0,0,0-.68,1.38h0A1.76,1.76,0,0,0,159.2,216.28Z"/><path class="cls-1" d="M151.39,239.84h0a1.76,1.76,0,0,0-1.77,1.76h0a1.76,1.76,0,0,0,1.77,1.76h0a1.76,1.76,0,0,0,1.76-1.76h0A1.76,1.76,0,0,0,151.39,239.84Z"/><path class="cls-1" d="M155.3,233.07a1.76,1.76,0,1,0,1.76,1.76A1.76,1.76,0,0,0,155.3,233.07Z"/><path class="cls-1" d="M151.39,253.38h0a1.76,1.76,0,0,0-1.77,1.76h0a1.76,1.76,0,0,0,1.77,1.76h0a1.76,1.76,0,0,0,1.76-1.76h0A1.76,1.76,0,0,0,151.39,253.38Z"/><path class="cls-1" d="M155.3,246.61a1.76,1.76,0,1,0,1.76,1.76A1.76,1.76,0,0,0,155.3,246.61Z"/><path class="cls-1" d="M151.39,266.92h0a1.76,1.76,0,0,0-1.77,1.76h0a1.76,1.76,0,0,0,1.77,1.76h0a1.76,1.76,0,0,0,1.76-1.76h0A1.76,1.76,0,0,0,151.39,266.92Z"/><path class="cls-1" d="M155.3,260.15a1.76,1.76,0,1,0,1.76,1.76A1.76,1.76,0,0,0,155.3,260.15Z"/><path class="cls-1" d="M151.39,280.46h0a1.76,1.76,0,0,0-1.77,1.76h0a1.76,1.76,0,0,0,1.77,1.76h0a1.76,1.76,0,0,0,1.76-1.76h0A1.76,1.76,0,0,0,151.39,280.46Z"/><path class="cls-1" d="M155.3,273.69a1.76,1.76,0,1,0,1.76,1.76A1.76,1.76,0,0,0,155.3,273.69Z"/><path class="cls-1" d="M155.3,287.23a1.77,1.77,0,1,0,1.76,1.76A1.76,1.76,0,0,0,155.3,287.23Z"/><path class="cls-1" d="M143.57,212.75h0a1.77,1.77,0,0,0-1.77,1.77h0a1.76,1.76,0,0,0,1.77,1.76h0a1.76,1.76,0,0,0,1.76-1.76h0A1.76,1.76,0,0,0,143.57,212.75Z"/><path class="cls-1" d="M143.57,226.3h0a1.77,1.77,0,0,0-1.77,1.77h0a1.76,1.76,0,0,0,1.77,1.76h0a1.76,1.76,0,0,0,1.76-1.76h0A1.76,1.76,0,0,0,143.57,226.3Z"/><path class="cls-1" d="M147.48,219.52a1.77,1.77,0,1,0,1.76,1.77A1.77,1.77,0,0,0,147.48,219.52Z"/><path class="cls-1" d="M143.57,239.84h0a1.76,1.76,0,0,0-1.77,1.76h0a1.76,1.76,0,0,0,1.77,1.76h0a1.76,1.76,0,0,0,1.76-1.76h0A1.76,1.76,0,0,0,143.57,239.84Z"/><circle class="cls-1" cx="147.48" cy="234.83" r="1.76"/><path class="cls-1" d="M143.57,253.38h0a1.76,1.76,0,0,0-1.77,1.76h0a1.76,1.76,0,0,0,1.77,1.76h0a1.76,1.76,0,0,0,1.76-1.76h0A1.76,1.76,0,0,0,143.57,253.38Z"/><circle class="cls-1" cx="147.48" cy="248.37" r="1.76"/><path class="cls-1" d="M143.57,266.92h0a1.76,1.76,0,0,0-1.77,1.76h0a1.76,1.76,0,0,0,1.77,1.76h0a1.76,1.76,0,0,0,1.76-1.76h0A1.76,1.76,0,0,0,143.57,266.92Z"/><path class="cls-1" d="M147.48,260.15a1.76,1.76,0,1,0,1.76,1.76A1.76,1.76,0,0,0,147.48,260.15Z"/><path class="cls-1" d="M143.57,280.46h0a1.76,1.76,0,0,0-1.77,1.76h0a1.76,1.76,0,0,0,1.77,1.76h0a1.76,1.76,0,0,0,1.76-1.76h0A1.76,1.76,0,0,0,143.57,280.46Z"/><path class="cls-1" d="M147.48,273.69a1.76,1.76,0,1,0,1.76,1.76A1.76,1.76,0,0,0,147.48,273.69Z"/><path class="cls-1" d="M147.48,287.23a1.74,1.74,0,0,0-1.6,1l3,1.75a1.73,1.73,0,0,0,.33-1A1.76,1.76,0,0,0,147.48,287.23Z"/><path class="cls-1" d="M135.75,212.75h0a1.76,1.76,0,0,0-1.76,1.77h0a1.76,1.76,0,0,0,1.76,1.76h0a1.76,1.76,0,0,0,1.77-1.76h0A1.77,1.77,0,0,0,135.75,212.75Z"/><path class="cls-1" d="M139.66,206a1.77,1.77,0,1,0,1.76,1.77A1.76,1.76,0,0,0,139.66,206Z"/><path class="cls-1" d="M135.75,226.3h0a1.76,1.76,0,0,0-1.76,1.77h0a1.76,1.76,0,0,0,1.76,1.76h0a1.76,1.76,0,0,0,1.77-1.76h0A1.76,1.76,0,0,0,135.75,226.3Z"/><path class="cls-1" d="M139.66,219.52a1.77,1.77,0,1,0,1.76,1.77A1.76,1.76,0,0,0,139.66,219.52Z"/><path class="cls-1" d="M135.75,239.84h0A1.76,1.76,0,0,0,134,241.6h0a1.76,1.76,0,0,0,1.76,1.76h0a1.76,1.76,0,0,0,1.77-1.76h0A1.76,1.76,0,0,0,135.75,239.84Z"/><path class="cls-1" d="M139.66,233.07a1.76,1.76,0,1,0,1.76,1.76A1.76,1.76,0,0,0,139.66,233.07Z"/><path class="cls-1" d="M135.75,253.38h0a1.76,1.76,0,0,0-1.76,1.76h0a1.76,1.76,0,0,0,1.76,1.76h0a1.76,1.76,0,0,0,1.77-1.76h0A1.76,1.76,0,0,0,135.75,253.38Z"/><path class="cls-1" d="M139.66,246.61a1.76,1.76,0,1,0,1.76,1.76A1.76,1.76,0,0,0,139.66,246.61Z"/><path class="cls-1" d="M135.75,266.92h0a1.76,1.76,0,0,0-1.76,1.76h0a1.76,1.76,0,0,0,1.76,1.76h0a1.76,1.76,0,0,0,1.77-1.76h0A1.76,1.76,0,0,0,135.75,266.92Z"/><path class="cls-1" d="M139.66,260.15a1.76,1.76,0,1,0,1.76,1.76A1.76,1.76,0,0,0,139.66,260.15Z"/><path class="cls-1" d="M137.52,282.22a1.76,1.76,0,0,0-1.77-1.76h0a1.76,1.76,0,0,0-1.6,1l3,1.75a1.73,1.73,0,0,0,.34-1Z"/><path class="cls-1" d="M139.66,273.69a1.76,1.76,0,1,0,1.76,1.76A1.76,1.76,0,0,0,139.66,273.69Z"/><path class="cls-1" d="M126.17,201h0a1.76,1.76,0,0,0,1.38,1.72v-3.45A1.77,1.77,0,0,0,126.17,201Z"/><path class="cls-1" d="M127.93,212.75h0a1.76,1.76,0,0,0-1.76,1.77h0a1.76,1.76,0,0,0,1.76,1.76h0a1.76,1.76,0,0,0,1.77-1.76h0A1.77,1.77,0,0,0,127.93,212.75Z"/><path class="cls-1" d="M131.84,209.51a1.77,1.77,0,0,0,1.59-1l-1.6,1Z"/><path class="cls-1" d="M127.93,226.3h0a1.76,1.76,0,0,0-1.76,1.77h0a1.76,1.76,0,0,0,1.76,1.76h0a1.76,1.76,0,0,0,1.77-1.76h0A1.76,1.76,0,0,0,127.93,226.3Z"/><path class="cls-1" d="M131.84,219.52a1.77,1.77,0,1,0,1.77,1.77A1.76,1.76,0,0,0,131.84,219.52Z"/><path class="cls-1" d="M127.93,239.84h0a1.76,1.76,0,0,0-1.76,1.76h0a1.76,1.76,0,0,0,1.76,1.76h0a1.76,1.76,0,0,0,1.77-1.76h0A1.76,1.76,0,0,0,127.93,239.84Z"/><circle class="cls-1" cx="131.84" cy="234.83" r="1.76"/><path class="cls-1" d="M127.93,253.38h0a1.76,1.76,0,0,0-1.76,1.76h0a1.76,1.76,0,0,0,1.76,1.76h0a1.76,1.76,0,0,0,1.77-1.76h0A1.76,1.76,0,0,0,127.93,253.38Z"/><circle class="cls-1" cx="131.84" cy="248.37" r="1.76"/><path class="cls-1" d="M127.93,266.92h0a1.76,1.76,0,0,0-1.76,1.76h0a1.76,1.76,0,0,0,1.76,1.76h0a1.76,1.76,0,0,0,1.77-1.76h0A1.76,1.76,0,0,0,127.93,266.92Z"/><path class="cls-1" d="M131.84,260.15a1.76,1.76,0,1,0,1.77,1.76A1.76,1.76,0,0,0,131.84,260.15Z"/><path class="cls-1" d="M131.84,273.69a1.76,1.76,0,1,0,1.77,1.76A1.76,1.76,0,0,0,131.84,273.69Z"/><path class="cls-1" d="M120.12,199.21h0a1.77,1.77,0,0,0-1.77,1.77h0a1.76,1.76,0,0,0,1.77,1.76h0a1.76,1.76,0,0,0,1.76-1.76h0A1.76,1.76,0,0,0,120.12,199.21Z"/><path class="cls-1" d="M124,196a1.76,1.76,0,0,0,1.74-1.49l-2.84-1.64A1.76,1.76,0,0,0,124,196Z"/><path class="cls-1" d="M120.12,212.75h0a1.77,1.77,0,0,0-1.77,1.77h0a1.76,1.76,0,0,0,1.77,1.76h0a1.76,1.76,0,0,0,1.76-1.76h0A1.76,1.76,0,0,0,120.12,212.75Z"/><path class="cls-1" d="M124,206a1.77,1.77,0,1,0,1.77,1.77A1.76,1.76,0,0,0,124,206Z"/><path class="cls-1" d="M120.12,226.3h0a1.77,1.77,0,0,0-1.77,1.77h0a1.76,1.76,0,0,0,1.77,1.76h0a1.76,1.76,0,0,0,1.76-1.76h0A1.76,1.76,0,0,0,120.12,226.3Z"/><path class="cls-1" d="M124,219.52a1.77,1.77,0,1,0,1.77,1.77A1.76,1.76,0,0,0,124,219.52Z"/><path class="cls-1" d="M120.12,239.84h0a1.76,1.76,0,0,0-1.77,1.76h0a1.76,1.76,0,0,0,1.77,1.76h0a1.76,1.76,0,0,0,1.76-1.76h0A1.76,1.76,0,0,0,120.12,239.84Z"/><path class="cls-1" d="M124,233.07a1.76,1.76,0,1,0,1.77,1.76A1.76,1.76,0,0,0,124,233.07Z"/><path class="cls-1" d="M120.12,253.38h0a1.76,1.76,0,0,0-1.77,1.76h0a1.76,1.76,0,0,0,1.77,1.76h0a1.76,1.76,0,0,0,1.76-1.76h0A1.76,1.76,0,0,0,120.12,253.38Z"/><path class="cls-1" d="M124,246.61a1.76,1.76,0,1,0,1.77,1.76A1.76,1.76,0,0,0,124,246.61Z"/><path class="cls-1" d="M120.12,266.92h0a1.76,1.76,0,0,0-1.77,1.76h0a1.76,1.76,0,0,0,1.77,1.76h0a1.76,1.76,0,0,0,1.76-1.76h0A1.76,1.76,0,0,0,120.12,266.92Z"/><path class="cls-1" d="M124,260.15a1.76,1.76,0,1,0,1.77,1.76A1.76,1.76,0,0,0,124,260.15Z"/><path class="cls-1" d="M124,273.69a1.76,1.76,0,0,0-1.6,1l3,1.75a1.8,1.8,0,0,0,.33-1A1.76,1.76,0,0,0,124,273.69Z"/><path class="cls-1" d="M112.3,199.21h0a1.77,1.77,0,0,0-1.77,1.77h0a1.76,1.76,0,0,0,1.77,1.76h0a1.76,1.76,0,0,0,1.76-1.76h0A1.76,1.76,0,0,0,112.3,199.21Z"/><path class="cls-1" d="M116.21,192.44a1.77,1.77,0,1,0,1.76,1.77A1.77,1.77,0,0,0,116.21,192.44Z"/><path class="cls-1" d="M112.3,212.75h0a1.77,1.77,0,0,0-1.77,1.77h0a1.76,1.76,0,0,0,1.77,1.76h0a1.76,1.76,0,0,0,1.76-1.76h0A1.76,1.76,0,0,0,112.3,212.75Z"/><path class="cls-1" d="M116.21,206a1.77,1.77,0,1,0,1.76,1.77A1.77,1.77,0,0,0,116.21,206Z"/><path class="cls-1" d="M112.3,226.3h0a1.77,1.77,0,0,0-1.77,1.77h0a1.76,1.76,0,0,0,1.77,1.76h0a1.76,1.76,0,0,0,1.76-1.76h0A1.76,1.76,0,0,0,112.3,226.3Z"/><path class="cls-1" d="M116.21,219.52a1.77,1.77,0,1,0,1.76,1.77A1.77,1.77,0,0,0,116.21,219.52Z"/><path class="cls-1" d="M112.3,239.84h0a1.76,1.76,0,0,0-1.77,1.76h0a1.76,1.76,0,0,0,1.77,1.76h0a1.76,1.76,0,0,0,1.76-1.76h0A1.76,1.76,0,0,0,112.3,239.84Z"/><circle class="cls-1" cx="116.21" cy="234.83" r="1.76"/><path class="cls-1" d="M112.3,253.38h0a1.76,1.76,0,0,0-1.77,1.76h0a1.76,1.76,0,0,0,1.77,1.76h0a1.76,1.76,0,0,0,1.76-1.76h0A1.76,1.76,0,0,0,112.3,253.38Z"/><circle class="cls-1" cx="116.21" cy="248.37" r="1.76"/><path class="cls-1" d="M114.06,268.68a1.76,1.76,0,0,0-1.76-1.76h0a1.75,1.75,0,0,0-1.6,1l3,1.75a1.73,1.73,0,0,0,.33-1Z"/><path class="cls-1" d="M116.21,260.15a1.76,1.76,0,1,0,1.76,1.76A1.76,1.76,0,0,0,116.21,260.15Z"/><path class="cls-1" d="M104.48,199.21h0a1.76,1.76,0,0,0-1.76,1.77h0a1.76,1.76,0,0,0,1.76,1.76h0a1.76,1.76,0,0,0,1.76-1.76h0A1.76,1.76,0,0,0,104.48,199.21Z"/><path class="cls-1" d="M108.39,192.44a1.77,1.77,0,1,0,1.76,1.77A1.76,1.76,0,0,0,108.39,192.44Z"/><path class="cls-1" d="M112.3,189.2a1.75,1.75,0,0,0,1.73-1.48l-.49-.28-.21-.13-.22.13-.81.47-1.28.73a1.71,1.71,0,0,0,1.28.56Z"/><path class="cls-1" d="M104.48,212.75h0a1.76,1.76,0,0,0-1.76,1.77h0a1.76,1.76,0,0,0,1.76,1.76h0a1.76,1.76,0,0,0,1.76-1.76h0A1.76,1.76,0,0,0,104.48,212.75Z"/><path class="cls-1" d="M108.39,206a1.77,1.77,0,1,0,1.76,1.77A1.76,1.76,0,0,0,108.39,206Z"/><path class="cls-1" d="M104.48,226.3h0a1.76,1.76,0,0,0-1.76,1.77h0a1.76,1.76,0,0,0,1.76,1.76h0a1.76,1.76,0,0,0,1.76-1.76h0A1.75,1.75,0,0,0,104.48,226.3Z"/><path class="cls-1" d="M108.39,219.52a1.77,1.77,0,1,0,1.76,1.77A1.76,1.76,0,0,0,108.39,219.52Z"/><path class="cls-1" d="M104.48,239.84h0a1.76,1.76,0,0,0-1.76,1.76h0a1.76,1.76,0,0,0,1.76,1.76h0a1.76,1.76,0,0,0,1.76-1.76h0A1.76,1.76,0,0,0,104.48,239.84Z"/><path class="cls-1" d="M108.39,233.07a1.76,1.76,0,1,0,1.76,1.76A1.76,1.76,0,0,0,108.39,233.07Z"/><path class="cls-1" d="M104.48,253.38h0a1.76,1.76,0,0,0-1.76,1.76h0a1.76,1.76,0,0,0,1.76,1.76h0a1.76,1.76,0,0,0,1.76-1.76h0A1.76,1.76,0,0,0,104.48,253.38Z"/><path class="cls-1" d="M108.39,246.61a1.76,1.76,0,1,0,1.76,1.76A1.76,1.76,0,0,0,108.39,246.61Z"/><path class="cls-1" d="M108.39,260.15a1.76,1.76,0,1,0,1.76,1.76A1.76,1.76,0,0,0,108.39,260.15Z"/><path class="cls-1" d="M96.66,199.21h0A1.76,1.76,0,0,0,94.9,201h0a1.76,1.76,0,0,0,1.76,1.76h0A1.76,1.76,0,0,0,98.43,201h0A1.77,1.77,0,0,0,96.66,199.21Z"/><path class="cls-1" d="M99.29,195.41a1.76,1.76,0,0,0,3-1.2,1.71,1.71,0,0,0-.09-.51Z"/><path class="cls-1" d="M96.66,212.75h0a1.76,1.76,0,0,0-1.76,1.77h0a1.76,1.76,0,0,0,1.76,1.76h0a1.76,1.76,0,0,0,1.77-1.76h0A1.77,1.77,0,0,0,96.66,212.75Z"/><path class="cls-1" d="M100.57,206a1.77,1.77,0,1,0,1.77,1.77A1.76,1.76,0,0,0,100.57,206Z"/><path class="cls-1" d="M96.66,226.3h0a1.76,1.76,0,0,0-1.76,1.77h0a1.76,1.76,0,0,0,1.76,1.76h0a1.76,1.76,0,0,0,1.77-1.76h0A1.76,1.76,0,0,0,96.66,226.3Z"/><path class="cls-1" d="M100.57,219.52a1.77,1.77,0,1,0,1.77,1.77A1.76,1.76,0,0,0,100.57,219.52Z"/><path class="cls-1" d="M96.66,239.84h0a1.76,1.76,0,0,0-1.76,1.76h0a1.76,1.76,0,0,0,1.76,1.76h0a1.76,1.76,0,0,0,1.77-1.76h0A1.76,1.76,0,0,0,96.66,239.84Z"/><circle class="cls-1" cx="100.57" cy="234.83" r="1.76"/><path class="cls-1" d="M96.66,253.38h0a1.76,1.76,0,0,0-1.76,1.76h0a1.76,1.76,0,0,0,1.76,1.76h0a1.76,1.76,0,0,0,1.77-1.76h0A1.76,1.76,0,0,0,96.66,253.38Z"/><circle class="cls-1" cx="100.57" cy="248.37" r="1.76"/><path class="cls-1" d="M100.57,260.15a1.76,1.76,0,0,0-1.6,1l3,1.75a1.73,1.73,0,0,0,.34-1A1.76,1.76,0,0,0,100.57,260.15Z"/><path class="cls-1" d="M89.63,201l-.78.45-1.3.74a1.77,1.77,0,0,0,1.3.57h0A1.76,1.76,0,0,0,90.61,201h0a1.83,1.83,0,0,0-.09-.52Z"/><path class="cls-1" d="M88.85,212.75h0a1.77,1.77,0,0,0-1.77,1.77h0a1.76,1.76,0,0,0,1.77,1.76h0a1.76,1.76,0,0,0,1.76-1.76h0A1.76,1.76,0,0,0,88.85,212.75Z"/><path class="cls-1" d="M92.75,206a1.77,1.77,0,1,0,1.77,1.77A1.76,1.76,0,0,0,92.75,206Z"/><path class="cls-1" d="M88.85,226.3h0a1.77,1.77,0,0,0-1.77,1.77h0a1.76,1.76,0,0,0,1.77,1.76h0a1.76,1.76,0,0,0,1.76-1.76h0A1.76,1.76,0,0,0,88.85,226.3Z"/><path class="cls-1" d="M92.75,219.52a1.77,1.77,0,1,0,1.77,1.77A1.76,1.76,0,0,0,92.75,219.52Z"/><path class="cls-1" d="M88.85,239.84h0a1.76,1.76,0,0,0-1.77,1.76h0a1.76,1.76,0,0,0,1.77,1.76h0a1.76,1.76,0,0,0,1.76-1.76h0A1.76,1.76,0,0,0,88.85,239.84Z"/><path class="cls-1" d="M92.75,233.07a1.76,1.76,0,1,0,1.77,1.76A1.76,1.76,0,0,0,92.75,233.07Z"/><path class="cls-1" d="M90.61,255.14a1.76,1.76,0,0,0-1.76-1.76h0a1.76,1.76,0,0,0-1.61,1l3,1.75a1.8,1.8,0,0,0,.33-1Z"/><path class="cls-1" d="M92.75,246.61a1.76,1.76,0,1,0,1.77,1.76A1.76,1.76,0,0,0,92.75,246.61Z"/><path class="cls-1" d="M81,212.75h0a1.77,1.77,0,0,0-1.77,1.77h0A1.76,1.76,0,0,0,81,216.28h0a1.76,1.76,0,0,0,1.76-1.76h0A1.76,1.76,0,0,0,81,212.75Z"/><path class="cls-1" d="M84.94,206a1.77,1.77,0,1,0,1.76,1.77A1.77,1.77,0,0,0,84.94,206Z"/><path class="cls-1" d="M81,226.3h0a1.77,1.77,0,0,0-1.77,1.77h0A1.76,1.76,0,0,0,81,229.82h0a1.76,1.76,0,0,0,1.76-1.76h0A1.76,1.76,0,0,0,81,226.3Z"/><path class="cls-1" d="M84.94,219.52a1.77,1.77,0,1,0,1.76,1.77A1.77,1.77,0,0,0,84.94,219.52Z"/><path class="cls-1" d="M81,239.84h0a1.76,1.76,0,0,0-1.77,1.76h0A1.76,1.76,0,0,0,81,243.36h0a1.76,1.76,0,0,0,1.76-1.76h0A1.76,1.76,0,0,0,81,239.84Z"/><circle class="cls-1" cx="84.94" cy="234.83" r="1.76"/><circle class="cls-1" cx="84.94" cy="248.37" r="1.76"/><path class="cls-1" d="M73.21,212.75h0a1.76,1.76,0,0,0-1.76,1.77h0a1.76,1.76,0,0,0,1.76,1.76h0A1.76,1.76,0,0,0,75,214.52h0A1.76,1.76,0,0,0,73.21,212.75Z"/><path class="cls-1" d="M75.82,208.94a1.76,1.76,0,0,0,3.06-1.19,1.55,1.55,0,0,0-.09-.53Z"/><path class="cls-1" d="M73.21,226.3h0a1.76,1.76,0,0,0-1.76,1.77h0a1.76,1.76,0,0,0,1.76,1.76h0A1.76,1.76,0,0,0,75,228.06h0A1.76,1.76,0,0,0,73.21,226.3Z"/><path class="cls-1" d="M77.12,219.52a1.77,1.77,0,1,0,1.76,1.77A1.76,1.76,0,0,0,77.12,219.52Z"/><path class="cls-1" d="M73.21,239.84h0a1.76,1.76,0,0,0-1.76,1.76h0a1.76,1.76,0,0,0,1.76,1.76h0A1.76,1.76,0,0,0,75,241.6h0A1.76,1.76,0,0,0,73.21,239.84Z"/><path class="cls-1" d="M77.12,233.07a1.76,1.76,0,1,0,1.76,1.76A1.76,1.76,0,0,0,77.12,233.07Z"/><path class="cls-1" d="M77.12,246.61a1.75,1.75,0,0,0-1.6,1l3,1.75a1.73,1.73,0,0,0,.33-1A1.76,1.76,0,0,0,77.12,246.61Z"/><path class="cls-1" d="M66.14,214.52l-.75.43-1.3.75a1.72,1.72,0,0,0,1.3.58h0a1.76,1.76,0,0,0,1.77-1.76h0a1.91,1.91,0,0,0-.09-.54Z"/><path class="cls-1" d="M65.39,226.3h0a1.76,1.76,0,0,0-1.76,1.77h0a1.76,1.76,0,0,0,1.76,1.76h0a1.76,1.76,0,0,0,1.77-1.76h0A1.76,1.76,0,0,0,65.39,226.3Z"/><path class="cls-1" d="M69.3,219.52a1.77,1.77,0,1,0,1.77,1.77A1.76,1.76,0,0,0,69.3,219.52Z"/><path class="cls-1" d="M67.16,241.6a1.76,1.76,0,0,0-1.77-1.76h0a1.74,1.74,0,0,0-1.19.47c.89.77,1.8,1.49,2.72,2.15a1.66,1.66,0,0,0,.24-.86Z"/><circle class="cls-1" cx="69.3" cy="234.83" r="1.76"/><path class="cls-1" d="M57.58,226.3h0a1.77,1.77,0,0,0-1.77,1.77h0a1.76,1.76,0,0,0,1.77,1.76h0a1.76,1.76,0,0,0,1.76-1.76h0A1.76,1.76,0,0,0,57.58,226.3Z"/><path class="cls-1" d="M61.48,219.52a1.77,1.77,0,1,0,1.77,1.77A1.76,1.76,0,0,0,61.48,219.52Z"/><path class="cls-1" d="M61.48,233.07a1.76,1.76,0,1,0,1.77,1.76A1.76,1.76,0,0,0,61.48,233.07Z"/><path class="cls-1" d="M52.36,222.46a1.76,1.76,0,0,0,3.07-1.17,1.91,1.91,0,0,0-.09-.54Z"/><polygon class="cls-1" points="169.64 249.56 169.64 249.56 169.61 260.75 169.61 260.75 169.64 249.56"/><polygon class="cls-1" points="169.49 301.9 169.49 301.9 169.53 290.05 169.53 290.05 169.49 301.9"/><polygon class="cls-1" points="169.68 236.07 169.68 236.07 169.65 247.17 169.65 247.17 169.68 236.07"/><polygon class="cls-1" points="169.56 276.55 169.53 287.93 169.53 287.93 169.56 276.55 169.56 276.55"/><polygon class="cls-1" points="169.6 263.06 169.6 263.06 169.57 274.34 169.57 274.34 169.6 263.06"/><polygon class="cls-1" points="169.72 222.56 169.72 222.56 169.69 233.58 169.69 233.58 169.72 222.56"/><polygon class="cls-1" points="169.88 164.11 169.72 220.03 169.72 220.03 169.88 164.11"/><polygon class="cls-1" points="169.72 220.03 169.72 220.03 169.72 222.56 169.72 222.56 169.72 220.03"/><polygon class="cls-1" points="169.69 233.58 169.69 233.58 169.68 236.07 169.68 236.07 169.69 233.58"/><polygon class="cls-1" points="169.65 247.17 169.65 247.17 169.64 249.56 169.64 249.56 169.65 247.17"/><polygon class="cls-1" points="169.61 260.75 169.61 260.75 169.6 263.06 169.6 263.06 169.61 260.75"/><polygon class="cls-1" points="169.57 274.34 169.57 274.34 169.56 276.55 169.56 276.55 169.57 274.34"/><polygon class="cls-1" points="169.53 287.93 169.53 290.05 169.53 290.05 169.53 287.93 169.53 287.93"/><path class="cls-1" d="M30.51,129.07l-.67-.38A26.2,26.2,0,0,0,17.39,125a14.64,14.64,0,0,0-7.67,2c-5.44,3.26-8.36,10.1-8.21,19.25.3,18.57,13.54,41.19,29.52,50.41l.66.38c4.9,2.7,9.59,3.91,13.71,3.6l.17-58.13A54.46,54.46,0,0,0,30.51,129.07Zm-6.23,43.42-.44-26.59,20.05,24.24Z"/><path class="cls-1" d="M60,179.48c-.18-11.47-5.31-24.48-13-34.93l-.16,56a14.26,14.26,0,0,0,4.92-1.8C57.26,195.46,60.17,188.63,60,179.48Z"/><path class="cls-1" d="M45.57,142.58l-.17,58.13.75-.07.17-57.09Z"/><path class="cls-1" d="M46.32,143.55l-.17,57.09.75-.11.16-56Z"/><polygon class="cls-1" points="206.25 284.72 206.25 284.05 205.09 284.72 206.25 284.72"/><path class="cls-1" d="M204.75,269.79v11.33a1.68,1.68,0,0,1,.74-.55V270.33A1.74,1.74,0,0,1,204.75,269.79Z"/><path class="cls-1" d="M204.75,242.7V254a1.74,1.74,0,0,1,.74-.54V243.25A1.68,1.68,0,0,1,204.75,242.7Z"/><path class="cls-1" d="M204.75,256.25v11.33a1.68,1.68,0,0,1,.74-.55V256.79A1.74,1.74,0,0,1,204.75,256.25Z"/><path class="cls-1" d="M206.11,256.9a1.84,1.84,0,0,1-.62-.11V267a1.84,1.84,0,0,1,.62-.11h.14v-10Z"/><path class="cls-1" d="M206.11,243.36a1.84,1.84,0,0,1-.62-.11v10.24a1.84,1.84,0,0,1,.62-.11h.14v-10Z"/><path class="cls-1" d="M206.11,270.44a1.84,1.84,0,0,1-.62-.11v10.24a1.84,1.84,0,0,1,.62-.11h.14v-10Z"/><polygon class="cls-1" points="205.5 240.45 206.11 240.81 206.25 240.88 206.25 100.13 205.5 100.4 205.5 240.45"/><path class="cls-1" d="M204.75,240.49a1.64,1.64,0,0,1,.3-.29l.44.25v-140l-.74.27Z"/><polygon class="cls-1" points="205.5 98.8 206.25 98.53 206.25 88.09 205.5 88.53 205.5 98.8"/><polygon class="cls-1" points="204.75 99.08 205.5 98.8 205.5 88.53 204.75 88.96 204.75 99.08"/><polygon class="cls-1" points="205.5 99.6 205.5 100.4 206.25 100.13 206.25 99.33 205.5 99.6"/><polygon class="cls-1" points="204.75 100.67 205.5 100.4 205.5 99.6 204.75 99.88 204.75 100.67"/><polygon class="cls-1" points="204.75 99.08 204.75 99.88 205.5 99.6 205.5 98.8 204.75 99.08"/><polygon class="cls-1" points="205.5 99.6 206.25 99.33 206.25 98.53 205.5 98.8 205.5 99.6"/><polygon class="cls-1" points="205.5 88.53 205.5 88.53 206.25 88.09 206.25 88.09 205.5 88.53"/><polygon class="cls-1" points="204.75 88.96 205.5 88.53 205.5 88.53 204.75 88.96 204.75 88.96"/><path class="cls-1" d="M206.11,253.38a1.84,1.84,0,0,0-.62.11v3.3a1.84,1.84,0,0,0,.62.11h.14v-3.5Z"/><path class="cls-1" d="M204.75,254v2.22a1.74,1.74,0,0,0,.74.54v-3.3A1.74,1.74,0,0,0,204.75,254Z"/><path class="cls-1" d="M204.75,267.58v2.21a1.74,1.74,0,0,0,.74.54V267A1.68,1.68,0,0,0,204.75,267.58Z"/><path class="cls-1" d="M206.11,266.92a1.84,1.84,0,0,0-.62.11v3.3a1.84,1.84,0,0,0,.62.11h.14v-3.5Z"/><path class="cls-1" d="M206.11,280.46a1.84,1.84,0,0,0-.62.11v1.28l.76-.43v-.95Z"/><path class="cls-1" d="M204.75,281.12v1.17l.74-.44v-1.28A1.68,1.68,0,0,0,204.75,281.12Z"/><path class="cls-1" d="M204.75,240.49v2.21a1.68,1.68,0,0,0,.74.55v-2.8l-.44-.25A1.64,1.64,0,0,0,204.75,240.49Z"/><path class="cls-1" d="M205.49,240.45v2.8a1.84,1.84,0,0,0,.62.11h.14v-2.47l-.14-.07Z"/><polygon class="cls-1" points="205.5 281.85 205.5 282.54 206.25 282.1 206.25 281.42 205.5 281.85"/><polygon class="cls-1" points="204.75 282.98 205.5 282.54 205.5 281.85 204.75 282.29 204.75 282.98"/><polygon class="cls-1" points="197.8 289.63 197.8 288.95 196.63 289.63 197.8 289.63"/><path class="cls-1" d="M196.53,282.22h0a1.76,1.76,0,0,1,.52-1.25v-11a1.76,1.76,0,0,1-.52-1.25h0a1.76,1.76,0,0,1,.52-1.25v-11a1.76,1.76,0,0,1-.52-1.25h0a1.76,1.76,0,0,1,.52-1.25v-11a1.76,1.76,0,0,1-.52-1.25h0a1.76,1.76,0,0,1,.52-1.25V93.43l-.75.44V287.19l.75-.43v-3.29A1.76,1.76,0,0,1,196.53,282.22Z"/><path class="cls-1" d="M197.05,240.35a1.72,1.72,0,0,1,.75-.44V93l-.75.43Z"/><path class="cls-1" d="M197.05,283.47v3.29l.75-.44v-2.41A1.72,1.72,0,0,1,197.05,283.47Z"/><path class="cls-1" d="M197.05,281a1.7,1.7,0,0,1,.75-.43V270.37a1.82,1.82,0,0,1-.75-.44Z"/><path class="cls-1" d="M197.05,267.43a1.7,1.7,0,0,1,.75-.43V256.83a1.82,1.82,0,0,1-.75-.44Z"/><path class="cls-1" d="M197.05,253.89a1.82,1.82,0,0,1,.75-.44V243.28a1.7,1.7,0,0,1-.75-.43Z"/><polygon class="cls-1" points="196.3 93.87 196.3 93.87 197.05 93.43 197.05 93.43 196.3 93.87"/><polygon class="cls-1" points="197.05 93.43 197.05 93.43 197.8 93 197.8 93 197.05 93.43"/><path class="cls-1" d="M196.53,241.6h0a1.76,1.76,0,0,0,.52,1.25v-2.5A1.76,1.76,0,0,0,196.53,241.6Z"/><path class="cls-1" d="M197.05,242.85a1.7,1.7,0,0,0,.75.43v-3.37a1.72,1.72,0,0,0-.75.44Z"/><path class="cls-1" d="M196.53,255.14h0a1.76,1.76,0,0,0,.52,1.25v-2.5A1.76,1.76,0,0,0,196.53,255.14Z"/><path class="cls-1" d="M197.05,256.39a1.82,1.82,0,0,0,.75.44v-3.38a1.82,1.82,0,0,0-.75.44Z"/><path class="cls-1" d="M196.53,268.68h0a1.76,1.76,0,0,0,.52,1.25v-2.5A1.76,1.76,0,0,0,196.53,268.68Z"/><path class="cls-1" d="M197.05,269.93a1.82,1.82,0,0,0,.75.44V267a1.7,1.7,0,0,0-.75.43Z"/><path class="cls-1" d="M197.05,283.47a1.72,1.72,0,0,0,.75.44v-3.37a1.7,1.7,0,0,0-.75.43Z"/><path class="cls-1" d="M196.53,282.22h0a1.76,1.76,0,0,0,.52,1.25V281A1.76,1.76,0,0,0,196.53,282.22Z"/><polygon class="cls-1" points="196.3 287.19 196.3 287.94 197.05 287.5 197.05 286.76 196.3 287.19"/><polygon class="cls-1" points="197.05 286.76 197.05 287.5 197.8 287.06 197.8 286.32 197.05 286.76"/><polygon class="cls-1" points="189.42 294.02 189.42 293.8 189.05 294.02 189.42 294.02"/><path class="cls-1" d="M187.92,98.73v135a1.72,1.72,0,0,1,.41,1.11,1.74,1.74,0,0,1-.41,1.11v11.32a1.71,1.71,0,0,1,0,2.22V260.8a1.71,1.71,0,0,1,0,2.22v11.32a1.74,1.74,0,0,1,.41,1.11,1.72,1.72,0,0,1-.41,1.11v11.32a1.74,1.74,0,0,1,.41,1.11,1.72,1.72,0,0,1-.41,1.11v2l.75-.44V98.29Z"/><path class="cls-1" d="M188.71,282.22h0a1.75,1.75,0,0,1,.71-1.41V270.09a1.75,1.75,0,0,1-.71-1.41h0a1.75,1.75,0,0,1,.71-1.41V256.55a1.75,1.75,0,0,1-.71-1.41h0a1.75,1.75,0,0,1,.71-1.41V243a1.75,1.75,0,0,1-.71-1.41h0a1.75,1.75,0,0,1,.71-1.41V97.86l-.75.43V291.62l.75-.44v-7.55A1.75,1.75,0,0,1,188.71,282.22Z"/><polygon class="cls-1" points="187.92 98.73 187.92 98.73 188.67 98.29 188.67 98.29 187.92 98.73"/><polygon class="cls-1" points="188.67 98.29 188.67 98.29 189.42 97.86 189.42 97.86 188.67 98.29"/><path class="cls-1" d="M188.71,241.6h0a1.75,1.75,0,0,0,.71,1.41v-2.82A1.75,1.75,0,0,0,188.71,241.6Z"/><path class="cls-1" d="M188.71,255.14h0a1.75,1.75,0,0,0,.71,1.41v-2.82A1.75,1.75,0,0,0,188.71,255.14Z"/><path class="cls-1" d="M188.71,268.68h0a1.75,1.75,0,0,0,.71,1.41v-2.82A1.75,1.75,0,0,0,188.71,268.68Z"/><path class="cls-1" d="M188.71,282.22h0a1.75,1.75,0,0,0,.71,1.41v-2.82A1.75,1.75,0,0,0,188.71,282.22Z"/><path class="cls-1" d="M188.33,234.83a1.72,1.72,0,0,0-.41-1.11v2.22A1.74,1.74,0,0,0,188.33,234.83Z"/><path class="cls-1" d="M188.33,248.37a1.74,1.74,0,0,0-.41-1.11v2.22A1.74,1.74,0,0,0,188.33,248.37Z"/><path class="cls-1" d="M188.33,261.91a1.74,1.74,0,0,0-.41-1.11V263A1.74,1.74,0,0,0,188.33,261.91Z"/><path class="cls-1" d="M188.33,275.45a1.74,1.74,0,0,0-.41-1.11v2.22A1.72,1.72,0,0,0,188.33,275.45Z"/><path class="cls-1" d="M188.33,289a1.74,1.74,0,0,0-.41-1.11v2.22A1.72,1.72,0,0,0,188.33,289Z"/><polygon class="cls-1" points="188.67 291.62 188.67 292.42 189.42 291.98 189.42 291.19 188.67 291.62"/><polygon class="cls-1" points="187.92 292.06 187.92 292.86 188.67 292.42 188.67 291.62 187.92 292.06"/><polygon class="cls-1" points="179.55 300.28 181.05 300.28 181.05 298.66 179.55 299.53 179.55 300.28"/><path class="cls-1" d="M180.3,289.82a1.78,1.78,0,0,1-.75.74v6.36l.75-.43Z"/><path class="cls-1" d="M180.3,247.54V235.66a1.76,1.76,0,0,1-.75.73V246.8A1.78,1.78,0,0,1,180.3,247.54Z"/><path class="cls-1" d="M180.3,261.08V249.2a1.76,1.76,0,0,1-.75.73v10.42A1.76,1.76,0,0,1,180.3,261.08Z"/><path class="cls-1" d="M180.3,274.62V262.74a1.76,1.76,0,0,1-.75.73v10.42A1.76,1.76,0,0,1,180.3,274.62Z"/><path class="cls-1" d="M180.3,288.16V276.28a1.78,1.78,0,0,1-.75.74v10.41A1.76,1.76,0,0,1,180.3,288.16Z"/><path class="cls-1" d="M180.89,295.76a1.71,1.71,0,0,1,.16-.71V282.94a1.73,1.73,0,0,1-.16-.72h0a1.71,1.71,0,0,1,.16-.71V269.39a1.65,1.65,0,0,1-.16-.71h0a1.68,1.68,0,0,1,.16-.71V255.85a1.68,1.68,0,0,1-.16-.71h0a1.68,1.68,0,0,1,.16-.71V242.31a1.71,1.71,0,0,1-.16-.71h0a1.65,1.65,0,0,1,.16-.71V228.77a1.71,1.71,0,0,1-.16-.71h0a1.59,1.59,0,0,1,.16-.69V102.72l-.75.44V234a1.75,1.75,0,0,1,0,1.66v11.88a1.75,1.75,0,0,1,0,1.66v11.88a1.75,1.75,0,0,1,0,1.66v11.88a1.75,1.75,0,0,1,0,1.66v11.88a1.75,1.75,0,0,1,0,1.66v6.67l.63-.37a2.2,2.2,0,0,1,0-.36Z"/><path class="cls-1" d="M180.3,234V103.16l-.75.43V233.26A1.78,1.78,0,0,1,180.3,234Z"/><polygon class="cls-1" points="180.3 103.16 179.55 103.59 179.55 103.59 180.3 103.16 180.3 103.16"/><polygon class="cls-1" points="180.3 103.16 180.3 103.16 181.05 102.72 181.05 102.72 180.3 103.16"/><path class="cls-1" d="M180.89,241.6a1.71,1.71,0,0,0,.16.71v-1.42a1.65,1.65,0,0,0-.16.71Z"/><path class="cls-1" d="M180.89,255.14a1.68,1.68,0,0,0,.16.71v-1.42a1.68,1.68,0,0,0-.16.71Z"/><path class="cls-1" d="M180.89,268.68a1.65,1.65,0,0,0,.16.71V268a1.68,1.68,0,0,0-.16.71Z"/><path class="cls-1" d="M180.89,282.22a1.73,1.73,0,0,0,.16.72v-1.43a1.71,1.71,0,0,0-.16.71Z"/><path class="cls-1" d="M180.89,295.76h0a2.2,2.2,0,0,0,0,.36l.12-.07v-1A1.71,1.71,0,0,0,180.89,295.76Z"/><path class="cls-1" d="M180.3,235.66V234a1.78,1.78,0,0,0-.75-.74v3.13A1.76,1.76,0,0,0,180.3,235.66Z"/><path class="cls-1" d="M180.51,234.83a1.79,1.79,0,0,0-.21-.83v1.66A1.79,1.79,0,0,0,180.51,234.83Z"/><path class="cls-1" d="M180.89,228.06a1.71,1.71,0,0,0,.16.71v-1.4a1.59,1.59,0,0,0-.16.69Z"/><path class="cls-1" d="M180.51,248.37a1.79,1.79,0,0,0-.21-.83v1.66A1.79,1.79,0,0,0,180.51,248.37Z"/><path class="cls-1" d="M180.3,249.2v-1.66a1.78,1.78,0,0,0-.75-.74v3.13A1.76,1.76,0,0,0,180.3,249.2Z"/><path class="cls-1" d="M180.3,262.74v-1.66a1.76,1.76,0,0,0-.75-.73v3.12A1.76,1.76,0,0,0,180.3,262.74Z"/><path class="cls-1" d="M180.51,261.91a1.79,1.79,0,0,0-.21-.83v1.66A1.79,1.79,0,0,0,180.51,261.91Z"/><path class="cls-1" d="M180.51,275.45a1.79,1.79,0,0,0-.21-.83v1.66A1.79,1.79,0,0,0,180.51,275.45Z"/><path class="cls-1" d="M180.3,276.28v-1.66a1.76,1.76,0,0,0-.75-.73V277A1.78,1.78,0,0,0,180.3,276.28Z"/><path class="cls-1" d="M180.3,288.16v1.66a1.75,1.75,0,0,0,0-1.66Z"/><path class="cls-1" d="M179.55,287.43v3.13a1.78,1.78,0,0,0,.75-.74v-1.66A1.76,1.76,0,0,0,179.55,287.43Z"/><polygon class="cls-1" points="179.55 296.92 179.55 297.77 180.3 297.33 180.3 296.49 179.55 296.92"/><path class="cls-1" d="M180.93,296.12l-.63.37v.84l.75-.44v-.41A1.69,1.69,0,0,1,180.93,296.12Z"/><path class="cls-1" d="M181.05,296.48v-.43l-.12.07A1.69,1.69,0,0,0,181.05,296.48Z"/><path d="M160,22l-2.46,1.87,4.18,7.23,2.87-1.05a24,24,0,0,0,3.26,3.42l.2,4.34,6,3.48.22-4a10.08,10.08,0,0,0,3.48.36l2.65,4.24,4.2-2.4-2.24-4.35A9,9,0,0,0,183.85,32l3.48,1.77,0-6.93-3.48-2.24a30.05,30.05,0,0,0-1.42-4.82L184.71,18l-4.17-7.23L177.87,12a30.29,30.29,0,0,0-3.47-3.65l-.19-4.23-6-3.48L168,4.71a8,8,0,0,0-3.28-.24L161.84,0l-4.21,2.39,2.45,4.71a8.89,8.89,0,0,0-1.34,3L155,8.14l0,6.93,3.78,2.41A24.37,24.37,0,0,0,160,22Zm11.28-7.6a12.58,12.58,0,0,1,5.71,10c0,3.64-2.58,5.1-5.74,3.27a12.73,12.73,0,0,1-5.81-9.93C165.48,14,168.15,12.58,171.31,14.41Z"/><path d="M295.39,201.51l-29.23-16.87-29,16.87,29.22,16.87Zm-55.26,0,26-15.13,26.23,15.15-26,15.13Z"/><path d="M260.83,280.46h0a1.76,1.76,0,0,0-1.76,1.76h0a1.74,1.74,0,0,0,.49,1.21l1.27-.74.83-.47.86-.5A1.76,1.76,0,0,0,260.83,280.46Z"/><path d="M263,275.45a1.76,1.76,0,0,0,3.51.17l-2.77-1.6A1.75,1.75,0,0,0,263,275.45Z"/><path d="M253,280.46h0a1.76,1.76,0,0,0-1.77,1.76h0A1.76,1.76,0,0,0,253,284h0a1.76,1.76,0,0,0,1.76-1.76h0A1.76,1.76,0,0,0,253,280.46Z"/><path d="M256.92,273.69a1.76,1.76,0,1,0,1.77,1.76A1.76,1.76,0,0,0,256.92,273.69Z"/><path d="M245.2,266.92h0a1.76,1.76,0,0,0-1.77,1.76h0a1.76,1.76,0,0,0,1.77,1.76h0a1.76,1.76,0,0,0,1.76-1.76h0A1.76,1.76,0,0,0,245.2,266.92Z"/><path d="M245.2,280.46h0a1.76,1.76,0,0,0-1.77,1.76h0A1.76,1.76,0,0,0,245.2,284h0a1.76,1.76,0,0,0,1.76-1.76h0A1.76,1.76,0,0,0,245.2,280.46Z"/><path d="M249.11,273.69a1.76,1.76,0,1,0,1.76,1.76A1.76,1.76,0,0,0,249.11,273.69Z"/><path d="M252,267.25a1.75,1.75,0,0,0-.74,1.43h0a1.76,1.76,0,0,0,1.77,1.76h0a1.75,1.75,0,0,0,1.74-1.59l-.3-.17-1.44-.83Z"/><path d="M249.11,287.23a1.76,1.76,0,0,0-1.77,1.76,1.8,1.8,0,0,0,.48,1.21l3-1.71A1.76,1.76,0,0,0,249.11,287.23Z"/><path d="M237.38,266.92h0a1.76,1.76,0,0,0-1.76,1.76h0a1.76,1.76,0,0,0,1.76,1.76h0a1.76,1.76,0,0,0,1.76-1.76h0A1.76,1.76,0,0,0,237.38,266.92Z"/><path d="M239.52,261.91a1.76,1.76,0,0,0,3.51.18l-2.78-1.6A1.75,1.75,0,0,0,239.52,261.91Z"/><path d="M237.38,280.46h0a1.76,1.76,0,0,0-1.76,1.76h0a1.76,1.76,0,0,0,1.76,1.76h0a1.76,1.76,0,0,0,1.76-1.76h0A1.76,1.76,0,0,0,237.38,280.46Z"/><path d="M241.29,273.69a1.76,1.76,0,1,0,1.76,1.76A1.76,1.76,0,0,0,241.29,273.69Z"/><path d="M237.38,294h0a1.76,1.76,0,0,0-1.76,1.76h0a1.77,1.77,0,0,0,.47,1.2l1.29-.74.79-.46.89-.51A1.76,1.76,0,0,0,237.38,294Z"/><path d="M241.29,287.23a1.77,1.77,0,1,0,1.76,1.76A1.76,1.76,0,0,0,241.29,287.23Z"/><path d="M229.56,266.92h0a1.76,1.76,0,0,0-1.76,1.76h0a1.76,1.76,0,0,0,1.76,1.76h0a1.76,1.76,0,0,0,1.77-1.76h0A1.76,1.76,0,0,0,229.56,266.92Z"/><path d="M233.47,260.15a1.76,1.76,0,1,0,1.77,1.76A1.76,1.76,0,0,0,233.47,260.15Z"/><path d="M229.56,280.46h0a1.76,1.76,0,0,0-1.76,1.76h0a1.76,1.76,0,0,0,1.76,1.76h0a1.76,1.76,0,0,0,1.77-1.76h0A1.76,1.76,0,0,0,229.56,280.46Z"/><path d="M233.47,273.69a1.76,1.76,0,1,0,1.77,1.76A1.76,1.76,0,0,0,233.47,273.69Z"/><path d="M229.56,294h0a1.76,1.76,0,0,0-1.76,1.76h0a1.76,1.76,0,0,0,1.76,1.77h0a1.77,1.77,0,0,0,1.77-1.77h0A1.76,1.76,0,0,0,229.56,294Z"/><path d="M233.47,287.23a1.77,1.77,0,1,0,1.77,1.76A1.76,1.76,0,0,0,233.47,287.23Z"/><path d="M221.75,253.38h0a1.76,1.76,0,0,0-1.76,1.76h0a1.76,1.76,0,0,0,1.76,1.76h0a1.76,1.76,0,0,0,1.76-1.76h0A1.76,1.76,0,0,0,221.75,253.38Z"/><path d="M221.75,266.92h0a1.76,1.76,0,0,0-1.76,1.76h0a1.76,1.76,0,0,0,1.76,1.76h0a1.76,1.76,0,0,0,1.76-1.76h0A1.76,1.76,0,0,0,221.75,266.92Z"/><path d="M225.65,260.15a1.76,1.76,0,1,0,1.77,1.76A1.76,1.76,0,0,0,225.65,260.15Z"/><path d="M228.52,253.72a1.77,1.77,0,0,0-.72,1.42h0a1.76,1.76,0,0,0,1.76,1.76h0a1.76,1.76,0,0,0,1.75-1.57l-.34-.19-1.41-.81Z"/><path d="M221.75,280.46h0a1.76,1.76,0,0,0-1.76,1.76h0a1.76,1.76,0,0,0,1.76,1.76h0a1.76,1.76,0,0,0,1.76-1.76h0A1.76,1.76,0,0,0,221.75,280.46Z"/><path d="M225.65,273.69a1.76,1.76,0,1,0,1.77,1.76A1.76,1.76,0,0,0,225.65,273.69Z"/><path d="M221.75,294h0a1.76,1.76,0,0,0-1.76,1.76h0a1.76,1.76,0,0,0,1.76,1.77h0a1.76,1.76,0,0,0,1.76-1.77h0A1.76,1.76,0,0,0,221.75,294Z"/><path d="M225.65,287.23a1.77,1.77,0,1,0,1.77,1.76A1.76,1.76,0,0,0,225.65,287.23Z"/><path d="M225.65,300.77a1.76,1.76,0,0,0-1.76,1.76,1.74,1.74,0,0,0,.47,1.19l3-1.71A1.75,1.75,0,0,0,225.65,300.77Z"/><path d="M214.63,253.52l.17-59.4,5.68,3.28,12.61-7.33-12.7-7.34L214.82,186l.24-81.93c.61.59,1.26,1.17,1.93,1.76l.43,9.81,14.9,8.6.5-9.22a23.42,23.42,0,0,0,6.68.61l6.07,9.71,10.65-6.07-5.13-10a20.81,20.81,0,0,0,2.83-6.06l8,4.1L262,90.18l-7.85-5.06a67.48,67.48,0,0,0-2.95-10.06l5.13-4-10-17.32-6.06,2.65A68.15,68.15,0,0,0,233,48.79l-.44-9.54-14.9-8.6-.49,9.49a18.26,18.26,0,0,0-6.24-.38l-6.52-10.2L193.8,35.62l5.59,10.75A20.54,20.54,0,0,0,196.8,52l-8.74-4.51,0,17.14,8.53,5.45c.07.39.16.76.24,1.14L173.38,57.75l-.07,0L113.94,23.51c-6.53-3.77-12.72-4.35-17.42-1.62L53,47.19h0l0,0c-4.61,2.68-7.15,8.23-7.17,15.62l-.22,77.25a55.26,55.26,0,0,0-14.32-12.32l-.69-.39c-8.17-4.5-15.85-5.07-21.63-1.6S-.15,136.64,0,146.34C.32,165.71,13.62,188.41,30.28,198l.69.39a27.63,27.63,0,0,0,13.18,3.85c.42,0,.84,0,1.25-.05v2.45c0,12.9,7.78,28.26,18.26,37.13a1.75,1.75,0,0,0,1.74,1.56h0l.19,0A33.91,33.91,0,0,0,69,245.63l6.77,3.91a1.76,1.76,0,0,0,1,.56l10.76,6.21a1.77,1.77,0,0,0,1,.56l10.76,6.21a1.8,1.8,0,0,0,1,.56L111,269.85a1.77,1.77,0,0,0,1,.56l10.76,6.21a1.84,1.84,0,0,0,1,.56l10.76,6.21a1.76,1.76,0,0,0,1,.56l10.76,6.21a1.77,1.77,0,0,0,1,.56l10.76,6.21a1.74,1.74,0,0,0,1,.56l12.12,7,8.57-5,1.5-.87,2.07-1.2a1.84,1.84,0,0,0,.79-.46l5.14-3,.37-.22,5.33-3.08a1.74,1.74,0,0,0,.93-.55l.95-.55,1.17-.67,7.3-4.23,1.15-.67.17-.1a1.73,1.73,0,0,0,1-.6l6.92-4,.1-1.11a.73.73,0,0,0,.09-.35l0-7.58a1.76,1.76,0,0,0,1.11-1.63h0a1.75,1.75,0,0,0-1.1-1.63l0-10.29a1.76,1.76,0,0,0,1.07-1.62h0A1.79,1.79,0,0,0,214.63,253.52ZM148.91,290l-3-1.75-8.7-5-3-1.75-8.69-5-3-1.75-8.69-5-3-1.75-8.7-5-3-1.75-8.69-5-3-1.75-8.69-5-3-1.75-5.73-3.31a33.47,33.47,0,0,1-2.87-1.87c-.92-.66-1.83-1.38-2.72-2.15-10-8.64-17.34-23.3-17.31-35.63v-2.63a15.7,15.7,0,0,0,5.69-2c5.92-3.56,9.09-10.86,8.94-20.56-.2-12.6-5.91-26.62-14.46-37.52l.23-79.1c0-6.86,2.31-12,6.47-14.35A11.25,11.25,0,0,1,59.49,47a20.56,20.56,0,0,1,10.1,3.11L128,83.85l-.09.05-.33,115.35v3.45l0,9.5,4.3-2.69,1.6-1,7.67-4.8,13.47,24.11,0-4.92v-3.23l.34-120.15.09,0,15,8.66-.16,56L169.72,220v2.53l0,11v2.49l0,11.1v2.4l0,11.18v2.31l0,11.28v2.21l0,11.38v2.12l0,11.85h0l-8.85-5.12-3-1.75ZM9.72,127.07a14.64,14.64,0,0,1,7.67-2,26.2,26.2,0,0,1,12.45,3.66l.67.38a54.46,54.46,0,0,1,15.06,13.51l.75,1,.74,1C54.72,155,59.85,168,60,179.48c.14,9.15-2.77,16-8.21,19.25a14.26,14.26,0,0,1-4.92,1.8l-.75.11-.75.07c-4.12.31-8.81-.9-13.71-3.6l-.66-.38c-16-9.22-29.22-31.84-29.52-50.41C1.36,137.17,4.28,130.33,9.72,127.07ZM198,69.53l-.06-.32-8.38-5.36,0-13.86,8.18,4.22.25-.89a19.71,19.71,0,0,1,2.87-6.44l.29-.38L195.8,36.21,204,31.56l6.25,9.8.47-.06a17.17,17.17,0,0,1,7,.52l.91.26.46-8.91,12.07,7,.43,9.37.24.21a65.88,65.88,0,0,1,7.68,8.07l.36.44,5.86-2.57,8.68,15-5,3.86.19.51a65.44,65.44,0,0,1,3.14,10.66l.06.32,7.7,5,0,13.86L252.94,101l-.23.91a19.52,19.52,0,0,1-3.09,6.81l-.29.38,4.9,9.51-8.15,4.64-5.77-9.23-.44,0a22.2,22.2,0,0,1-7.54-.77l-.9-.27-.48,8.65-12.06-7-.43-9.63-.24-.21c-1.14-1-2.17-2-3.16-3l.06-19,.16-.1a27.78,27.78,0,0,0,9.66,10.27A12.48,12.48,0,0,0,231.08,95a7.32,7.32,0,0,0,3.7-1c2.65-1.52,4.11-4.67,4.13-8.87,0-8.64-5.75-18.75-13.14-23-3.73-2.16-7.29-2.48-10-.92s-4.17,4.75-4.18,9a25.46,25.46,0,0,0,3,11.24.69.69,0,0,0-.25,0l-13.93-8,.07,0-1.87-1.08C198.34,71.39,198.14,70.47,198,69.53ZM204.75,283V89h0l.74-.43.76-.44h0v194l-.76.44Zm8.33-212.74c0-3.71,1.23-6.45,3.43-7.72s5.26-1,8.51.92c6.85,4,12.41,13.69,12.39,21.7,0,3.65-1.21,6.34-3.38,7.58s-5.14.93-8.34-.91C218.83,87.85,213.06,78,213.08,70.24ZM95.2,34.55l58.92,34.27-6.59,3.8L88.46,38.51ZM164.47,94l14.05,8.09-7.88,4.57-14.07-8.12Zm8.6-5,14,8.08-7,4.09-14-8.09Zm15.29,7.32.1-.16-13.89-8,6.49-3.73L195,92.58ZM87,39.38,146,73.48l-7.12,4.1-59-34Zm-8.59,5.06,59,34L129.52,83,70.66,49Zm120,30.1.47-.27.27.15,13.6,7.85-7.08,4.11-7.35-4.23-.7-.4-.71-.41-5.17-3,6-3.44Zm-2.8,7.79.71.4.7.41,7.15,4.11-5,2.92-.65.38-.65.37-1.36.79-13.89-8.07,7.65-4.4ZM155.62,68,96.68,33.67l7-4.13L163.1,63.66Zm23.93,229V103.59h0l.75-.43.75-.44h0V296.89l-.75.44-.75.44Zm8.37-4.86V98.73h0l.75-.44.75-.43h0V292l-.75.44-.75.44Zm8.38-4.87V93.87h0l.75-.44.75-.43h0V287.06l-.75.44-.75.44ZM164.6,62.8,105.2,28.66l7.25-4.26.74.41,58.62,33.84Z"/><path d="M216.07,248.37a1.76,1.76,0,0,0,3.51.2L216.79,247A1.73,1.73,0,0,0,216.07,248.37Z"/><path d="M217.84,260.15a1.76,1.76,0,1,0,1.76,1.76A1.76,1.76,0,0,0,217.84,260.15Z"/><path d="M213.93,280.46h0a1.76,1.76,0,0,0-1.77,1.76h0a1.76,1.76,0,0,0,1.77,1.76h0a1.76,1.76,0,0,0,1.76-1.76h0A1.76,1.76,0,0,0,213.93,280.46Z"/><path d="M217.84,273.69a1.76,1.76,0,1,0,1.76,1.76A1.76,1.76,0,0,0,217.84,273.69Z"/><path d="M213.93,294h0a1.76,1.76,0,0,0-1.77,1.76h0a1.77,1.77,0,0,0,1.77,1.77h0a1.76,1.76,0,0,0,1.76-1.77h0A1.76,1.76,0,0,0,213.93,294Z"/><path d="M217.84,287.23A1.77,1.77,0,1,0,219.6,289,1.76,1.76,0,0,0,217.84,287.23Z"/><path d="M213.93,307.54h0a1.76,1.76,0,0,0-1.77,1.76h0a1.76,1.76,0,0,0,.47,1.19l1.3-.75.75-.44.92-.53A1.75,1.75,0,0,0,213.93,307.54Z"/><path d="M217.84,300.77a1.77,1.77,0,1,0,1.76,1.76A1.76,1.76,0,0,0,217.84,300.77Z"/><path d="M206.11,294h0a1.76,1.76,0,0,0-1.76,1.76h0a1.76,1.76,0,0,0,1.76,1.77h0a1.76,1.76,0,0,0,1.76-1.77h0A1.76,1.76,0,0,0,206.11,294Z"/><path d="M210,287.23a1.77,1.77,0,1,0,1.76,1.76A1.76,1.76,0,0,0,210,287.23Z"/><path d="M206.11,307.54h0a1.76,1.76,0,0,0-1.76,1.76h0a1.76,1.76,0,0,0,1.76,1.77h0a1.76,1.76,0,0,0,1.76-1.77h0A1.76,1.76,0,0,0,206.11,307.54Z"/><path d="M210,300.77a1.77,1.77,0,1,0,1.76,1.76A1.76,1.76,0,0,0,210,300.77Z"/><path d="M198.29,294h0a1.76,1.76,0,0,0-1.76,1.76h0a1.76,1.76,0,0,0,1.76,1.77h0a1.77,1.77,0,0,0,1.77-1.77h0A1.76,1.76,0,0,0,198.29,294Z"/><path d="M202.2,287.23A1.77,1.77,0,1,0,204,289,1.76,1.76,0,0,0,202.2,287.23Z"/><path d="M198.29,307.54h0a1.76,1.76,0,0,0-1.76,1.76h0a1.76,1.76,0,0,0,1.76,1.77h0a1.77,1.77,0,0,0,1.77-1.77h0A1.76,1.76,0,0,0,198.29,307.54Z"/><path d="M202.2,300.77a1.77,1.77,0,1,0,1.76,1.76A1.76,1.76,0,0,0,202.2,300.77Z"/><path d="M202.2,314.31a1.76,1.76,0,0,0-1.76,1.76,1.71,1.71,0,0,0,.46,1.18l3-1.72A1.75,1.75,0,0,0,202.2,314.31Z"/><path d="M190.47,294h0a1.76,1.76,0,0,0-1.76,1.76h0a1.76,1.76,0,0,0,1.76,1.77h0a1.77,1.77,0,0,0,1.77-1.77h0A1.76,1.76,0,0,0,190.47,294Z"/><path d="M190.47,307.54h0a1.76,1.76,0,0,0-1.76,1.76h0a1.76,1.76,0,0,0,1.76,1.77h0a1.77,1.77,0,0,0,1.77-1.77h0A1.76,1.76,0,0,0,190.47,307.54Z"/><path d="M194.38,300.77a1.77,1.77,0,1,0,1.77,1.76A1.76,1.76,0,0,0,194.38,300.77Z"/><path d="M190.47,321.08h0a1.76,1.76,0,0,0-1.76,1.76h0a1.79,1.79,0,0,0,.45,1.17l1.31-.75.73-.42.94-.54A1.75,1.75,0,0,0,190.47,321.08Z"/><path d="M194.38,314.31a1.77,1.77,0,1,0,1.77,1.76A1.76,1.76,0,0,0,194.38,314.31Z"/><path d="M182.66,307.54h0a1.76,1.76,0,0,0-1.77,1.76h0a1.77,1.77,0,0,0,1.77,1.77h0a1.76,1.76,0,0,0,1.76-1.77h0A1.76,1.76,0,0,0,182.66,307.54Z"/><path d="M186.57,300.77a1.77,1.77,0,1,0,1.76,1.76A1.76,1.76,0,0,0,186.57,300.77Z"/><path d="M182.66,321.08h0a1.76,1.76,0,0,0-1.77,1.76h0a1.77,1.77,0,0,0,1.77,1.77h0a1.76,1.76,0,0,0,1.76-1.77h0A1.76,1.76,0,0,0,182.66,321.08Z"/><path d="M186.57,314.31a1.77,1.77,0,1,0,1.76,1.76A1.76,1.76,0,0,0,186.57,314.31Z"/><path d="M174.84,307.54h0a1.76,1.76,0,0,0-1.76,1.76h0a1.76,1.76,0,0,0,1.76,1.77h0a1.76,1.76,0,0,0,1.76-1.77h0A1.76,1.76,0,0,0,174.84,307.54Z"/><path d="M178.75,300.77a1.77,1.77,0,1,0,1.76,1.76A1.76,1.76,0,0,0,178.75,300.77Z"/><path d="M174.84,321.08h0a1.76,1.76,0,0,0-1.76,1.76h0a1.76,1.76,0,0,0,1.76,1.77h0a1.76,1.76,0,0,0,1.76-1.77h0A1.76,1.76,0,0,0,174.84,321.08Z"/><path d="M178.75,314.31a1.77,1.77,0,1,0,1.76,1.76A1.76,1.76,0,0,0,178.75,314.31Z"/><path d="M178.75,327.85a1.76,1.76,0,0,0-1.77,1.76,1.79,1.79,0,0,0,.45,1.17l3-1.72A1.75,1.75,0,0,0,178.75,327.85Z"/><path d="M167,307.54h0a1.76,1.76,0,0,0-1.76,1.76h0a1.76,1.76,0,0,0,1.76,1.77h0a1.77,1.77,0,0,0,1.77-1.77h0A1.76,1.76,0,0,0,167,307.54Z"/><path d="M167,321.08h0a1.76,1.76,0,0,0-1.76,1.76h0a1.76,1.76,0,0,0,1.76,1.77h0a1.77,1.77,0,0,0,1.77-1.77h0A1.76,1.76,0,0,0,167,321.08Z"/><path d="M170.93,314.31a1.77,1.77,0,1,0,1.76,1.76A1.76,1.76,0,0,0,170.93,314.31Z"/><path d="M167,334.62h0a1.76,1.76,0,0,0-1.76,1.76h0a1.7,1.7,0,0,0,.22.84l.39.22,1.15-.66.69-.4,1-.56A1.76,1.76,0,0,0,167,334.62Z"/><path d="M170.93,327.85a1.77,1.77,0,1,0,1.76,1.76A1.76,1.76,0,0,0,170.93,327.85Z"/><path d="M159.2,307.54h0a1.76,1.76,0,0,0-1.76,1.76h0a1.76,1.76,0,0,0,1.76,1.77h0A1.77,1.77,0,0,0,161,309.3h0A1.76,1.76,0,0,0,159.2,307.54Z"/><path d="M163.11,300.77a1.77,1.77,0,1,0,1.77,1.76A1.76,1.76,0,0,0,163.11,300.77Z"/><path d="M159.2,321.08h0a1.76,1.76,0,0,0-1.76,1.76h0a1.76,1.76,0,0,0,1.76,1.77h0a1.77,1.77,0,0,0,1.77-1.77h0A1.76,1.76,0,0,0,159.2,321.08Z"/><path d="M163.11,314.31a1.77,1.77,0,1,0,1.77,1.76A1.76,1.76,0,0,0,163.11,314.31Z"/><circle cx="163.11" cy="329.61" r="1.76"/><path d="M151.39,294h0a1.76,1.76,0,0,0-1.77,1.76h0a1.77,1.77,0,0,0,1.77,1.77h0a1.76,1.76,0,0,0,1.76-1.77h0A1.76,1.76,0,0,0,151.39,294Z"/><path d="M151.39,307.54h0a1.76,1.76,0,0,0-1.77,1.76h0a1.77,1.77,0,0,0,1.77,1.77h0a1.76,1.76,0,0,0,1.76-1.77h0A1.76,1.76,0,0,0,151.39,307.54Z"/><path d="M155.3,300.77a1.77,1.77,0,1,0,1.76,1.76A1.76,1.76,0,0,0,155.3,300.77Z"/><path d="M151.39,321.08h0a1.76,1.76,0,0,0-1.77,1.76h0a1.77,1.77,0,0,0,1.77,1.77h0a1.76,1.76,0,0,0,1.76-1.77h0A1.76,1.76,0,0,0,151.39,321.08Z"/><path d="M155.3,314.31a1.77,1.77,0,1,0,1.76,1.76A1.76,1.76,0,0,0,155.3,314.31Z"/><path d="M155.3,327.85a1.76,1.76,0,0,0-1.77,1.76,1.74,1.74,0,0,0,.23.85l1.58.91a1.76,1.76,0,0,0,0-3.52Z"/><path d="M143.57,294h0a1.76,1.76,0,0,0-1.77,1.76h0a1.77,1.77,0,0,0,1.77,1.77h0a1.76,1.76,0,0,0,1.76-1.77h0A1.76,1.76,0,0,0,143.57,294Z"/><path d="M143.57,307.54h0a1.76,1.76,0,0,0-1.77,1.76h0a1.77,1.77,0,0,0,1.77,1.77h0a1.76,1.76,0,0,0,1.76-1.77h0A1.76,1.76,0,0,0,143.57,307.54Z"/><path d="M147.48,300.77a1.77,1.77,0,1,0,1.76,1.76A1.76,1.76,0,0,0,147.48,300.77Z"/><path d="M143.57,321.08h0a1.76,1.76,0,0,0-1.77,1.76h0a1.66,1.66,0,0,0,.24.86l1.53.89h0a1.75,1.75,0,0,0,1.73-1.76h0A1.76,1.76,0,0,0,143.57,321.08Z"/><path d="M147.48,314.31a1.77,1.77,0,1,0,1.76,1.76A1.76,1.76,0,0,0,147.48,314.31Z"/><path d="M135.75,294h0a1.76,1.76,0,0,0-1.76,1.76h0a1.76,1.76,0,0,0,1.76,1.77h0a1.77,1.77,0,0,0,1.77-1.77h0A1.76,1.76,0,0,0,135.75,294Z"/><path d="M139.66,287.23a1.77,1.77,0,1,0,1.76,1.76A1.76,1.76,0,0,0,139.66,287.23Z"/><path d="M135.75,307.54h0A1.76,1.76,0,0,0,134,309.3h0a1.76,1.76,0,0,0,1.76,1.77h0a1.77,1.77,0,0,0,1.77-1.77h0A1.76,1.76,0,0,0,135.75,307.54Z"/><path d="M139.66,300.77a1.77,1.77,0,1,0,1.76,1.76A1.76,1.76,0,0,0,139.66,300.77Z"/><path d="M139.66,314.31a1.77,1.77,0,1,0,1.76,1.76A1.76,1.76,0,0,0,139.66,314.31Z"/><path d="M127.93,280.46h0a1.76,1.76,0,0,0-1.76,1.76h0a1.76,1.76,0,0,0,1.76,1.76h0a1.76,1.76,0,0,0,1.77-1.76h0A1.76,1.76,0,0,0,127.93,280.46Z"/><path d="M127.93,294h0a1.76,1.76,0,0,0-1.76,1.76h0a1.76,1.76,0,0,0,1.76,1.77h0a1.77,1.77,0,0,0,1.77-1.77h0A1.76,1.76,0,0,0,127.93,294Z"/><path d="M131.84,287.23a1.77,1.77,0,1,0,1.77,1.76A1.76,1.76,0,0,0,131.84,287.23Z"/><path d="M127.93,307.54h0a1.76,1.76,0,0,0-1.76,1.76h0a1.76,1.76,0,0,0,1.76,1.77h0a1.77,1.77,0,0,0,1.77-1.77h0A1.76,1.76,0,0,0,127.93,307.54Z"/><path d="M131.84,300.77a1.77,1.77,0,1,0,1.77,1.76A1.76,1.76,0,0,0,131.84,300.77Z"/><path d="M131.84,314.31a1.75,1.75,0,0,0-1.52,2.64l1.54.88a1.76,1.76,0,0,0,0-3.52Z"/><path d="M120.12,280.46h0a1.76,1.76,0,0,0-1.77,1.76h0a1.76,1.76,0,0,0,1.77,1.76h0a1.76,1.76,0,0,0,1.76-1.76h0A1.76,1.76,0,0,0,120.12,280.46Z"/><path d="M120.12,294h0a1.76,1.76,0,0,0-1.77,1.76h0a1.77,1.77,0,0,0,1.77,1.77h0a1.76,1.76,0,0,0,1.76-1.77h0A1.76,1.76,0,0,0,120.12,294Z"/><path d="M124,287.23a1.77,1.77,0,1,0,1.77,1.76A1.76,1.76,0,0,0,124,287.23Z"/><path d="M120.12,307.54h0a1.76,1.76,0,0,0-1.77,1.76h0a1.77,1.77,0,0,0,.25.89l1.52.88h0a1.76,1.76,0,0,0,1.76-1.77h0A1.76,1.76,0,0,0,120.12,307.54Z"/><path d="M124,300.77a1.77,1.77,0,1,0,1.77,1.76A1.76,1.76,0,0,0,124,300.77Z"/><path d="M112.3,280.46h0a1.76,1.76,0,0,0-1.77,1.76h0A1.76,1.76,0,0,0,112.3,284h0a1.76,1.76,0,0,0,1.76-1.76h0A1.76,1.76,0,0,0,112.3,280.46Z"/><path d="M116.21,273.69a1.76,1.76,0,1,0,1.76,1.76A1.76,1.76,0,0,0,116.21,273.69Z"/><path d="M112.3,294h0a1.76,1.76,0,0,0-1.77,1.76h0a1.77,1.77,0,0,0,1.77,1.77h0a1.76,1.76,0,0,0,1.76-1.77h0A1.76,1.76,0,0,0,112.3,294Z"/><path d="M116.21,287.23A1.77,1.77,0,1,0,118,289,1.76,1.76,0,0,0,116.21,287.23Z"/><path d="M116.21,300.77a1.77,1.77,0,1,0,1.76,1.76A1.76,1.76,0,0,0,116.21,300.77Z"/><path d="M104.48,266.92h0a1.76,1.76,0,0,0-1.76,1.76h0a1.76,1.76,0,0,0,1.76,1.76h0a1.76,1.76,0,0,0,1.76-1.76h0A1.76,1.76,0,0,0,104.48,266.92Z"/><path d="M104.48,280.46h0a1.76,1.76,0,0,0-1.76,1.76h0a1.76,1.76,0,0,0,1.76,1.76h0a1.76,1.76,0,0,0,1.76-1.76h0A1.76,1.76,0,0,0,104.48,280.46Z"/><path d="M108.39,273.69a1.76,1.76,0,1,0,1.76,1.76A1.76,1.76,0,0,0,108.39,273.69Z"/><path d="M104.48,294h0a1.76,1.76,0,0,0-1.76,1.76h0a1.76,1.76,0,0,0,1.76,1.77h0a1.76,1.76,0,0,0,1.76-1.77h0A1.76,1.76,0,0,0,104.48,294Z"/><path d="M108.39,287.23a1.77,1.77,0,1,0,1.76,1.76A1.76,1.76,0,0,0,108.39,287.23Z"/><path d="M108.39,300.77a1.76,1.76,0,0,0-1.51,2.67l1.49.85h0a1.77,1.77,0,0,0,0-3.53Z"/><path d="M96.66,266.92h0a1.76,1.76,0,0,0-1.76,1.76h0a1.76,1.76,0,0,0,1.76,1.76h0a1.76,1.76,0,0,0,1.77-1.76h0A1.76,1.76,0,0,0,96.66,266.92Z"/><path d="M96.66,280.46h0a1.76,1.76,0,0,0-1.76,1.76h0A1.76,1.76,0,0,0,96.66,284h0a1.76,1.76,0,0,0,1.77-1.76h0A1.76,1.76,0,0,0,96.66,280.46Z"/><path d="M100.57,273.69a1.76,1.76,0,1,0,1.77,1.76A1.76,1.76,0,0,0,100.57,273.69Z"/><path d="M96.66,294h0a1.76,1.76,0,0,0-1.76,1.76h0a1.79,1.79,0,0,0,.26.92l1.46.84h0a1.77,1.77,0,0,0,1.77-1.77h0A1.76,1.76,0,0,0,96.66,294Z"/><path d="M100.57,287.23a1.77,1.77,0,1,0,1.77,1.76A1.76,1.76,0,0,0,100.57,287.23Z"/><path d="M88.85,266.92h0a1.76,1.76,0,0,0-1.77,1.76h0a1.76,1.76,0,0,0,1.77,1.76h0a1.76,1.76,0,0,0,1.76-1.76h0A1.76,1.76,0,0,0,88.85,266.92Z"/><path d="M92.75,260.15a1.76,1.76,0,1,0,1.77,1.76A1.76,1.76,0,0,0,92.75,260.15Z"/><path d="M88.85,280.46h0a1.76,1.76,0,0,0-1.77,1.76h0A1.76,1.76,0,0,0,88.85,284h0a1.76,1.76,0,0,0,1.76-1.76h0A1.76,1.76,0,0,0,88.85,280.46Z"/><path d="M92.75,273.69a1.76,1.76,0,1,0,1.77,1.76A1.76,1.76,0,0,0,92.75,273.69Z"/><path d="M92.75,287.23A1.77,1.77,0,1,0,94.52,289,1.76,1.76,0,0,0,92.75,287.23Z"/><path d="M81,253.38h0a1.76,1.76,0,0,0-1.77,1.76h0A1.76,1.76,0,0,0,81,256.9h0a1.76,1.76,0,0,0,1.76-1.76h0A1.76,1.76,0,0,0,81,253.38Z"/><path d="M81,266.92h0a1.76,1.76,0,0,0-1.77,1.76h0A1.76,1.76,0,0,0,81,270.44h0a1.76,1.76,0,0,0,1.76-1.76h0A1.76,1.76,0,0,0,81,266.92Z"/><path d="M84.94,260.15a1.76,1.76,0,1,0,1.76,1.76A1.76,1.76,0,0,0,84.94,260.15Z"/><path d="M81,280.46h0a1.76,1.76,0,0,0-1.77,1.76h0A1.76,1.76,0,0,0,81,284h0a1.76,1.76,0,0,0,1.76-1.76h0A1.76,1.76,0,0,0,81,280.46Z"/><path d="M84.94,273.69a1.76,1.76,0,1,0,1.76,1.76A1.76,1.76,0,0,0,84.94,273.69Z"/><path d="M84.94,287.23A1.76,1.76,0,0,0,83.17,289a1.74,1.74,0,0,0,.27.93l1.44.83h.06a1.77,1.77,0,0,0,0-3.53Z"/><path d="M73.21,253.38h0a1.76,1.76,0,0,0-1.76,1.76h0a1.76,1.76,0,0,0,1.76,1.76h0A1.76,1.76,0,0,0,75,255.14h0A1.76,1.76,0,0,0,73.21,253.38Z"/><path d="M73.21,266.92h0a1.76,1.76,0,0,0-1.76,1.76h0a1.76,1.76,0,0,0,1.76,1.76h0A1.76,1.76,0,0,0,75,268.68h0A1.76,1.76,0,0,0,73.21,266.92Z"/><path d="M77.12,260.15a1.76,1.76,0,1,0,1.76,1.76A1.76,1.76,0,0,0,77.12,260.15Z"/><path d="M73.21,280.46h0a1.76,1.76,0,0,0-1.76,1.76h0a1.73,1.73,0,0,0,.28.95l1.4.81h.08A1.76,1.76,0,0,0,75,282.22h0A1.76,1.76,0,0,0,73.21,280.46Z"/><path d="M77.12,273.69a1.76,1.76,0,1,0,1.76,1.76A1.76,1.76,0,0,0,77.12,273.69Z"/><path d="M65.39,253.38h0a1.76,1.76,0,0,0-1.76,1.76h0a1.76,1.76,0,0,0,1.76,1.76h0a1.76,1.76,0,0,0,1.77-1.76h0A1.76,1.76,0,0,0,65.39,253.38Z"/><circle cx="69.3" cy="248.37" r="1.76"/><path d="M65.39,266.92h0a1.76,1.76,0,0,0-1.76,1.76h0a1.76,1.76,0,0,0,1.76,1.76h0a1.76,1.76,0,0,0,1.77-1.76h0A1.76,1.76,0,0,0,65.39,266.92Z"/><path d="M69.3,260.15a1.76,1.76,0,1,0,1.77,1.76A1.76,1.76,0,0,0,69.3,260.15Z"/><path d="M69.3,273.69a1.76,1.76,0,1,0,1.77,1.76A1.76,1.76,0,0,0,69.3,273.69Z"/><path d="M57.58,239.84h0a1.76,1.76,0,0,0-1.77,1.76h0a1.76,1.76,0,0,0,1.77,1.76h0a1.76,1.76,0,0,0,1.76-1.76h0A1.76,1.76,0,0,0,57.58,239.84Z"/><path d="M57.58,253.38h0a1.76,1.76,0,0,0-1.77,1.76h0a1.76,1.76,0,0,0,1.77,1.76h0a1.76,1.76,0,0,0,1.76-1.76h0A1.76,1.76,0,0,0,57.58,253.38Z"/><path d="M61.48,246.61a1.76,1.76,0,1,0,1.77,1.76A1.76,1.76,0,0,0,61.48,246.61Z"/><path d="M57.58,266.92h0a1.76,1.76,0,0,0-1.77,1.76h0a1.76,1.76,0,0,0,1.77,1.76h0a1.76,1.76,0,0,0,1.76-1.76h0A1.76,1.76,0,0,0,57.58,266.92Z"/><path d="M61.48,260.15a1.76,1.76,0,1,0,1.77,1.76A1.76,1.76,0,0,0,61.48,260.15Z"/><path d="M61.48,273.69A1.75,1.75,0,0,0,60,276.41l1.38.79h.09a1.76,1.76,0,1,0,0-3.52Z"/><path d="M49.76,226.29h0A1.77,1.77,0,0,0,48,228.06h0a1.76,1.76,0,0,0,1.77,1.76h0a1.76,1.76,0,0,0,1.76-1.76h0A1.77,1.77,0,0,0,49.76,226.29Z"/><path d="M49.76,239.84h0A1.76,1.76,0,0,0,48,241.6h0a1.76,1.76,0,0,0,1.77,1.76h0a1.76,1.76,0,0,0,1.76-1.76h0A1.76,1.76,0,0,0,49.76,239.84Z"/><circle cx="53.67" cy="234.83" r="1.76"/><path d="M49.76,253.38h0A1.76,1.76,0,0,0,48,255.14h0a1.76,1.76,0,0,0,1.77,1.76h0a1.76,1.76,0,0,0,1.76-1.76h0A1.76,1.76,0,0,0,49.76,253.38Z"/><circle cx="53.67" cy="248.37" r="1.76"/><path d="M49.76,266.92h0A1.76,1.76,0,0,0,48,268.68h0a1.71,1.71,0,0,0,.3,1l1.35.78h.12a1.76,1.76,0,0,0,1.76-1.76h0A1.76,1.76,0,0,0,49.76,266.92Z"/><path d="M53.67,260.15a1.76,1.76,0,1,0,1.76,1.76A1.76,1.76,0,0,0,53.67,260.15Z"/><path d="M42.65,228.06l-.71.41-1.31.76a1.75,1.75,0,0,0,1.31.59h0a1.76,1.76,0,0,0,1.76-1.76h0a1.67,1.67,0,0,0-.09-.55Z"/><path d="M41.94,239.84h0a1.76,1.76,0,0,0-1.76,1.76h0a1.76,1.76,0,0,0,1.76,1.76h0a1.76,1.76,0,0,0,1.76-1.76h0A1.76,1.76,0,0,0,41.94,239.84Z"/><path d="M45.85,233.07a1.76,1.76,0,1,0,1.76,1.76A1.76,1.76,0,0,0,45.85,233.07Z"/><path d="M41.94,253.38h0a1.76,1.76,0,0,0-1.76,1.76h0a1.76,1.76,0,0,0,1.76,1.76h0a1.76,1.76,0,0,0,1.76-1.76h0A1.76,1.76,0,0,0,41.94,253.38Z"/><path d="M45.85,246.61a1.76,1.76,0,1,0,1.76,1.76A1.76,1.76,0,0,0,45.85,246.61Z"/><path d="M45.85,260.15a1.76,1.76,0,1,0,1.76,1.76A1.76,1.76,0,0,0,45.85,260.15Z"/><path d="M34.12,239.84h0a1.76,1.76,0,0,0-1.76,1.76h0a1.76,1.76,0,0,0,1.76,1.76h0a1.76,1.76,0,0,0,1.77-1.76h0A1.76,1.76,0,0,0,34.12,239.84Z"/><circle cx="38.03" cy="234.83" r="1.76"/><path d="M34.12,253.38h0a1.76,1.76,0,0,0-1.76,1.76h0a1.76,1.76,0,0,0,1.76,1.76h0a1.76,1.76,0,0,0,1.77-1.76h0A1.76,1.76,0,0,0,34.12,253.38Z"/><circle cx="38.03" cy="248.37" r="1.76"/><path d="M38,260.15a1.77,1.77,0,0,0-1.46,2.75l1.32.76H38a1.76,1.76,0,1,0,0-3.52Z"/><path d="M26.31,239.84h0a1.76,1.76,0,0,0-1.76,1.76h0a1.76,1.76,0,0,0,1.76,1.76h0a1.76,1.76,0,0,0,1.76-1.76h0A1.76,1.76,0,0,0,26.31,239.84Z"/><path d="M28.9,236a1.73,1.73,0,0,0,1.31.6A1.76,1.76,0,0,0,32,234.83a1.74,1.74,0,0,0-.1-.56Z"/><path d="M26.31,253.38h0a1.76,1.76,0,0,0-1.76,1.76h0a1.78,1.78,0,0,0,.32,1l1.29.74h.16a1.76,1.76,0,0,0,1.76-1.76h0A1.76,1.76,0,0,0,26.31,253.38Z"/><path d="M30.21,246.61A1.76,1.76,0,1,0,32,248.37,1.76,1.76,0,0,0,30.21,246.61Z"/><path d="M19.17,241.6l-.68.39-1.33.76a1.78,1.78,0,0,0,1.33.61h0a1.76,1.76,0,0,0,1.76-1.76h0a1.8,1.8,0,0,0-.1-.57Z"/><circle cx="22.4" cy="248.37" r="1.76"/><path d="M14.58,246.61a1.76,1.76,0,0,0-1.77,1.76,1.73,1.73,0,0,0,.34,1l1.25.73h.18a1.76,1.76,0,1,0,0-3.52Z"/><polygon points="43.89 170.14 23.84 145.9 24.28 172.49 43.89 170.14"/><path d="M269.87,147.13l20.4-11.85-20.54-11.85-20.39,11.85Zm-.14-22,17.54,10.12-17.4,10.12-17.54-10.13Z"/><polygon points="238.11 142.67 225.49 150 238.2 157.34 250.82 150.01 238.11 142.67"/><polygon points="242.87 226.57 225.37 236.74 242.99 246.92 260.49 236.75 242.87 226.57"/></svg>