<?xml version="1.0" encoding="utf-8"?>
<!-- Generator: Adobe Illustrator 24.1.0, SVG Export Plug-In . SVG Version: 6.00 Build 0)  -->
<svg version="1.1" id="Layer_1" xmlns="http://www.w3.org/2000/svg" xmlns:xlink="http://www.w3.org/1999/xlink" x="0px" y="0px"
	 viewBox="0 0 295.4 337.4" style="enable-background:new 0 0 295.4 337.4;" xml:space="preserve">
<style type="text/css">
	.st0{fill:#1B1F23;}
	.st1{fill:#FFFFFF;}
</style>
<path class="st0" d="M200.4,73.4l13.9,8c0.1,0,0.2,0,0.2,0c-1.9-3.5-2.9-7.3-3-11.2c0-4.3,1.5-7.5,4.2-9s6.3-1.2,10,0.9
	c7.4,4.3,13.2,14.4,13.1,23c0,4.2-1.5,7.3-4.1,8.9c-1.1,0.7-2.4,1-3.7,1c-2.2-0.1-4.3-0.7-6.1-1.9c-4-2.5-7.4-6.1-9.7-10.3l-0.2,0.1
	l-0.1,19c1,1,2,2,3.2,3l0.2,0.2l0.4,9.6l12.1,7l0.5-8.7l0.9,0.3c2.5,0.7,5,0.9,7.5,0.8h0.4l5.8,9.2l8.1-4.6l-4.9-9.5l0.3-0.4
	c1.5-2,2.5-4.4,3.1-6.8l0.2-0.9l7.5,3.8V91.1l-7.7-5l-0.1-0.3c-0.7-3.6-1.8-7.2-3.1-10.7l-0.2-0.5l5-3.9l-8.7-15l-5.9,2.6l-0.4-0.4
	c-2.3-2.9-4.9-5.6-7.7-8.1l-0.2-0.2l-0.4-9.4l-12.1-7l-0.5,8.9l-0.9-0.3c-2.3-0.7-4.7-0.8-7-0.5l-0.5,0.1l-6.2-9.8l-8.1,4.6
	l5.4,10.3l-0.3,0.4c-1.4,2-2.3,4.1-2.9,6.4l-0.2,0.9l-8.2-4.2v13.9l8.4,5.4l0.1,0.3c0.2,0.9,0.4,1.9,0.6,2.8l1.9,1.1L200.4,73.4z"/>
<polygon class="st0" points="188.4,96.4 195,92.6 181.1,84.5 174.6,88.2 188.5,96.2 "/>
<polygon class="st0" points="196.4,91.7 197.8,90.9 193.7,83.8 195.6,82.3 190.2,79.2 182.6,83.6 "/>
<path class="st0" d="M164.6,62.8l7.2-4.2l-58.6-33.8l-0.8-0.4l-7.2,4.3L164.6,62.8z"/>
<polygon class="st0" points="154.1,68.8 95.2,34.5 88.5,38.5 147.5,72.6 "/>
<polygon class="st0" points="146,73.5 87,39.4 79.9,43.6 138.9,77.6 "/>
<polygon class="st0" points="187.1,97.2 173.1,89.1 166,93.2 180,101.3 "/>
<polygon class="st0" points="137.4,78.4 78.4,44.4 70.7,49 129.5,83 "/>
<path class="st0" d="M199.3,79.5c-0.6-1.6-1.1-3.1-1.6-4.6l-6,3.4l5.2,3L199.3,79.5z"/>
<polygon class="st0" points="163.1,63.7 103.7,29.5 96.7,33.7 155.6,68 "/>
<polygon class="st0" points="178.5,102.1 164.5,94 156.6,98.6 170.6,106.7 "/>
<polygon class="st0" points="199.1,90.2 204.1,87.2 197,83.1 195.6,84.2 "/>
<path class="st0" d="M212.7,82.3l-13.6-7.8c0.5,1.7,1.1,3.4,1.8,5.1l0.2,0.5l-2.8,2.1l7.4,4.2L212.7,82.3z"/>
<path class="st0" d="M196.9,81.3l0.7,0.4l2.6-2c-0.7-1.7-1.3-3.5-1.8-5.2l-0.7,0.4c0.4,1.5,1,3,1.6,4.6L196.9,81.3z"/>
<polygon class="st0" points="197.8,90.9 198.5,90.6 194.7,84 196.3,82.7 195.6,82.3 193.7,83.8 "/>
<path class="st0" d="M197.6,81.8l0.7,0.4l2.8-2.2l-0.2-0.5c-0.7-1.7-1.3-3.4-1.8-5.1l-0.3-0.2l-0.5,0.3c0.5,1.8,1.1,3.5,1.8,5.2
	L197.6,81.8z"/>
<polygon class="st0" points="195.6,84.2 197,83.1 196.3,82.7 194.7,84 198.5,90.6 199.1,90.2 "/>
<path class="st0" d="M169.2,289c0-0.4,0.1-0.8,0.4-1.1v-11.4c-0.3-0.3-0.4-0.7-0.4-1.1s0.1-0.8,0.4-1.1V263
	c-0.3-0.3-0.4-0.7-0.4-1.1s0.2-0.8,0.4-1.2v-11.2c-0.3-0.3-0.5-0.8-0.5-1.2s0.2-0.9,0.5-1.2V236c-0.3-0.3-0.5-0.8-0.5-1.2
	c0-0.5,0.2-0.9,0.5-1.2v-11c-0.7-0.7-0.7-1.7-0.1-2.4l0.1-0.1l0.2-55.9l0.2-56l-15-8.7h-0.1l-0.3,120.1c0.2-0.1,0.5-0.1,0.7-0.1
	c1,0.1,1.7,0.9,1.6,1.9c-0.1,0.9-0.8,1.6-1.6,1.6c-0.2,0-0.5,0-0.7-0.1v4.9l-13.4-24.1l-7.7,4.8c-0.3,0.6-0.9,1-1.6,1l0,0l-4.3,2.7
	v-9.5c-0.8-0.2-1.4-0.9-1.4-1.7l0,0c0-0.8,0.6-1.6,1.4-1.7L127.9,84l0.1-0.1L69.6,50.1c-3-1.9-6.5-3-10.1-3.1c-2,0-4,0.5-5.7,1.5
	c-4.2,2.4-6.5,7.5-6.5,14.4L47.1,142c8.5,10.9,14.3,24.9,14.5,37.5c0.2,9.7-3,17-8.9,20.6c-1.7,1-3.7,1.7-5.7,2v2.6
	c0,12.3,7.3,27,17.3,35.6c0.3-0.3,0.7-0.5,1.2-0.5l0,0c1,0,1.8,0.8,1.8,1.7l0,0l0,0c0,0.3-0.1,0.6-0.2,0.9c0.9,0.7,1.9,1.3,2.9,1.9
	l5.7,3.3c0.4-0.9,1.4-1.3,2.3-0.9c0.6,0.3,1,0.9,1,1.6c0,0.4-0.1,0.7-0.3,1l8.7,5c0.3-0.6,0.9-1,1.6-1l0,0c1,0,1.8,0.8,1.8,1.8l0,0
	c0,0.4-0.1,0.7-0.3,1l8.7,5c0.4-0.9,1.5-1.3,2.4-0.8c0.6,0.3,1,0.9,1,1.6c0,0.4-0.1,0.7-0.3,1l8.7,5c0.3-0.6,0.9-1,1.6-1l0,0
	c1,0,1.8,0.8,1.8,1.8l0,0l0,0c0,0.4-0.1,0.7-0.3,1l8.7,5c0.4-0.9,1.5-1.3,2.4-0.8c0.6,0.3,1,0.9,1,1.6c0,0.4-0.1,0.7-0.3,1l8.7,5
	c0.3-0.6,0.9-1,1.6-1l0,0c1,0,1.8,0.8,1.8,1.7l0,0l0,0c0,0.4-0.1,0.7-0.3,1l8.7,5c0.3-0.6,0.9-1,1.6-1c1,0,1.8,0.8,1.8,1.8l0,0
	c0,0.4-0.1,0.7-0.3,1l8.7,5c0.3-0.6,0.9-1,1.6-1l0,0c1,0,1.8,0.8,1.8,1.7l0,0l0,0c0,0.4-0.1,0.7-0.3,1l8.9,5.1v-11.9
	C169.3,289.6,169.2,289.3,169.2,289z M53.7,223.1c-0.5,0-1-0.2-1.3-0.6l3-1.7c0.1,0.2,0.1,0.4,0.1,0.5
	C55.5,222.3,54.7,223.1,53.7,223.1L53.7,223.1z M122.9,192.8l2.8,1.6c-0.1,1-1,1.6-2,1.5s-1.6-1-1.5-2
	C122.3,193.5,122.6,193.1,122.9,192.8z M112.3,187.9l0.8-0.5l0.2-0.1l0.2,0.1l0.5,0.3c-0.1,0.9-0.9,1.5-1.7,1.5l0,0
	c-0.5,0-1-0.2-1.3-0.6L112.3,187.9z M59.3,228.1c0,1-0.8,1.8-1.8,1.8l0,0c-1,0-1.8-0.8-1.8-1.7l0,0l0,0c0-1,0.8-1.8,1.8-1.8l0,0l0,0
	C58.5,226.3,59.3,227.1,59.3,228.1L59.3,228.1z M61.4,236.6c-1,0-1.8-0.8-1.7-1.8c0-1,0.8-1.8,1.8-1.7c1,0,1.7,0.8,1.8,1.8
	C63.2,235.8,62.4,236.6,61.4,236.6L61.4,236.6z M61.4,223.1c-1,0-1.8-0.8-1.8-1.8s0.8-1.8,1.8-1.8s1.8,0.8,1.8,1.8l0,0
	C63.2,222.3,62.4,223,61.4,223.1L61.4,223.1z M67.1,228.1c0,1-0.8,1.8-1.8,1.8l0,0l0,0c-1,0-1.8-0.8-1.8-1.8l0,0
	c0-1,0.8-1.8,1.7-1.8l0,0l0,0C66.3,226.3,67.1,227.1,67.1,228.1C67.1,228,67.1,228,67.1,228.1L67.1,228.1z M67.1,214.5
	c0,1-0.8,1.8-1.8,1.8l0,0l0,0c-0.5,0-1-0.2-1.3-0.6l1.3-0.8l0.8-0.4L67,214C67.1,214.1,67.1,214.3,67.1,214.5z M69.3,236.6
	c-1,0-1.8-0.8-1.7-1.8c0-1,0.8-1.8,1.8-1.7c1,0,1.7,0.8,1.8,1.8C71,235.8,70.3,236.6,69.3,236.6L69.3,236.6z M69.3,223
	c-1,0-1.8-0.8-1.8-1.8s0.8-1.8,1.8-1.8s1.8,0.8,1.8,1.8l0,0C71,222.2,70.3,223,69.3,223L69.3,223z M75,241.6c0,1-0.8,1.8-1.8,1.8
	l0,0c-1,0-1.8-0.8-1.8-1.8l0,0c0-1,0.8-1.8,1.8-1.8l0,0C74.2,239.8,75,240.6,75,241.6z M75,228.1c0,1-0.8,1.8-1.8,1.8l0,0
	c-1,0-1.8-0.8-1.8-1.8l0,0c0-1,0.8-1.8,1.7-1.8l0,0l0,0C74.2,226.3,75,227.1,75,228.1L75,228.1L75,228.1z M75,214.5
	c0,1-0.8,1.8-1.8,1.8l0,0c-1,0-1.8-0.8-1.8-1.8l0,0c0-1,0.8-1.8,1.7-1.8l0,0l0,0C74.2,212.8,75,213.5,75,214.5L75,214.5L75,214.5z
	 M77.2,236.6c-1,0-1.8-0.8-1.8-1.8s0.8-1.8,1.8-1.8s1.8,0.8,1.8,1.8l0,0C78.9,235.8,78.1,236.6,77.2,236.6
	C77.1,236.6,77.1,236.6,77.2,236.6L77.2,236.6z M77.2,223.1c-1,0-1.8-0.8-1.8-1.8s0.8-1.8,1.8-1.8s1.8,0.8,1.8,1.8l0,0
	C78.9,222.3,78.1,223.1,77.2,223.1C77.1,223.1,77.1,223.1,77.2,223.1L77.2,223.1z M77.2,209.5c-0.5,0-1-0.2-1.3-0.6l3-1.7
	c0.1,0.2,0.1,0.3,0.1,0.5C78.9,208.7,78.2,209.5,77.2,209.5C77.2,209.5,77.1,209.5,77.2,209.5L77.2,209.5z M82.8,241.6
	c0,1-0.8,1.8-1.8,1.8c0,0,0,0-0.1,0l0,0c-1,0-1.8-0.8-1.8-1.7l0,0l0,0c0-1,0.8-1.8,1.8-1.8l0,0l0,0C82,239.8,82.8,240.6,82.8,241.6
	L82.8,241.6z M82.8,228.1c0,1-0.8,1.8-1.8,1.8c0,0,0,0-0.1,0l0,0c-1,0-1.8-0.8-1.8-1.7l0,0l0,0c0-1,0.8-1.8,1.8-1.8l0,0l0,0
	C82,226.3,82.8,227.1,82.8,228.1L82.8,228.1z M82.8,214.5c0,1-0.8,1.8-1.8,1.8c0,0,0,0-0.1,0l0,0c-1,0-1.8-0.8-1.8-1.7l0,0l0,0
	c0-1,0.8-1.8,1.8-1.8l0,0l0,0C82,212.7,82.8,213.5,82.8,214.5L82.8,214.5L82.8,214.5z M85,250.1c-1,0-1.8-0.8-1.8-1.8
	s0.8-1.8,1.8-1.8s1.8,0.8,1.8,1.8l0,0C86.7,249.3,85.9,250.1,85,250.1L85,250.1L85,250.1z M85,236.6c-1,0-1.8-0.8-1.8-1.8
	S84,233,85,233s1.8,0.8,1.8,1.8l0,0C86.7,235.8,85.9,236.6,85,236.6L85,236.6L85,236.6z M85,223.1c-1,0-1.8-0.8-1.8-1.8
	s0.8-1.8,1.8-1.8s1.8,0.8,1.8,1.8l0,0C86.7,222.3,85.9,223.1,85,223.1L85,223.1L85,223.1z M85,209.5c-1,0-1.8-0.8-1.8-1.8
	s0.8-1.8,1.8-1.8s1.8,0.8,1.8,1.8l0,0C86.7,208.7,85.9,209.5,85,209.5L85,209.5L85,209.5z M90.6,241.6c0,1-0.8,1.8-1.8,1.8l0,0
	c-1,0-1.8-0.8-1.8-1.7l0,0l0,0c0-1,0.8-1.8,1.8-1.8l0,0l0,0C89.9,239.8,90.6,240.6,90.6,241.6z M90.6,228.1c0,1-0.8,1.8-1.8,1.8l0,0
	c-1,0-1.8-0.8-1.8-1.7l0,0l0,0c0-1,0.8-1.8,1.8-1.8l0,0l0,0C89.9,226.3,90.6,227.1,90.6,228.1L90.6,228.1z M90.6,214.5
	c0,1-0.8,1.8-1.8,1.8l0,0c-1,0-1.8-0.8-1.8-1.7l0,0l0,0c0-1,0.8-1.8,1.8-1.8l0,0l0,0C89.9,212.8,90.6,213.5,90.6,214.5L90.6,214.5z
	 M90.6,201c0,1-0.8,1.8-1.8,1.8l0,0c-0.5,0-1-0.2-1.3-0.6l1.3-0.7l0.8-0.4l0.9-0.5C90.6,200.6,90.6,200.8,90.6,201L90.6,201z
	 M92.8,250.1c-1,0-1.8-0.8-1.7-1.8c0-1,0.8-1.8,1.8-1.7c1,0,1.7,0.8,1.8,1.8C94.6,249.3,93.8,250.1,92.8,250.1L92.8,250.1
	L92.8,250.1z M92.8,236.6c-1,0-1.8-0.8-1.7-1.8c0-1,0.8-1.8,1.8-1.7c1,0,1.7,0.8,1.8,1.8C94.6,235.8,93.8,236.6,92.8,236.6
	L92.8,236.6L92.8,236.6z M92.8,223.1c-1,0-1.8-0.8-1.8-1.8s0.8-1.8,1.8-1.8s1.8,0.8,1.8,1.8l0,0C94.6,222.3,93.8,223.1,92.8,223.1
	L92.8,223.1L92.8,223.1z M92.8,209.5c-1,0-1.8-0.8-1.8-1.8s0.8-1.8,1.8-1.8s1.8,0.8,1.8,1.8l0,0C94.6,208.7,93.8,209.5,92.8,209.5
	L92.8,209.5L92.8,209.5z M98.5,255.1c0,1-0.8,1.8-1.8,1.8l0,0l0,0c-1,0-1.8-0.8-1.8-1.8l0,0c0-1,0.8-1.8,1.8-1.8l0,0
	C97.7,253.4,98.5,254.2,98.5,255.1L98.5,255.1z M98.5,241.6c0,1-0.8,1.8-1.8,1.8l0,0l0,0c-1,0-1.8-0.8-1.8-1.8l0,0
	c0-1,0.8-1.8,1.8-1.8l0,0C97.7,239.8,98.5,240.6,98.5,241.6L98.5,241.6z M98.5,228.1c0,1-0.8,1.8-1.8,1.8l0,0l0,0
	c-1,0-1.8-0.8-1.8-1.8l0,0c0-1,0.8-1.8,1.7-1.8l0,0l0,0C97.7,226.3,98.5,227.1,98.5,228.1C98.5,228,98.5,228,98.5,228.1L98.5,228.1z
	 M98.5,214.5c0,1-0.8,1.8-1.8,1.8l0,0l0,0c-1,0-1.8-0.8-1.8-1.8l0,0c0-1,0.8-1.8,1.7-1.8l0,0l0,0C97.7,212.8,98.5,213.5,98.5,214.5
	L98.5,214.5z M98.5,201c0,1-0.8,1.8-1.8,1.8l0,0l0,0c-1,0-1.8-0.8-1.8-1.7l0,0l0,0c0-1,0.8-1.8,1.7-1.8l0,0l0,0
	C97.6,199.2,98.4,200,98.5,201L98.5,201L98.5,201z M100.6,250.1c-1,0-1.8-0.8-1.7-1.8c0-1,0.8-1.8,1.8-1.7c1,0,1.7,0.8,1.8,1.8
	C102.4,249.3,101.6,250.1,100.6,250.1L100.6,250.1L100.6,250.1z M100.6,236.6c-1,0-1.8-0.8-1.7-1.8c0-1,0.8-1.8,1.8-1.7
	c1,0,1.7,0.8,1.8,1.8C102.4,235.8,101.6,236.6,100.6,236.6L100.6,236.6L100.6,236.6z M100.6,223.1c-1,0-1.8-0.8-1.8-1.8
	s0.8-1.8,1.8-1.8s1.8,0.8,1.8,1.8l0,0C102.4,222.3,101.6,223.1,100.6,223.1L100.6,223.1L100.6,223.1z M100.6,209.5
	c-1,0-1.8-0.8-1.8-1.8s0.8-1.8,1.8-1.8s1.8,0.8,1.8,1.8l0,0C102.4,208.7,101.6,209.5,100.6,209.5L100.6,209.5L100.6,209.5z
	 M100.6,196c-0.5,0-0.9-0.2-1.3-0.6l3-1.7c0.1,0.2,0.1,0.3,0.1,0.5C102.4,195.2,101.7,196,100.6,196L100.6,196L100.6,196z
	 M106.3,255.1c0,1-0.8,1.8-1.8,1.8l0,0c-1,0-1.8-0.8-1.8-1.8l0,0c0-1,0.8-1.8,1.8-1.8l0,0C105.5,253.4,106.3,254.2,106.3,255.1z
	 M106.3,241.6c0,1-0.8,1.8-1.8,1.8l0,0c-1,0-1.8-0.8-1.8-1.8l0,0c0-1,0.8-1.8,1.8-1.8l0,0C105.5,239.8,106.3,240.6,106.3,241.6z
	 M106.3,228.1c0,1-0.8,1.8-1.8,1.8l0,0c-1,0-1.8-0.8-1.8-1.8l0,0c0-1,0.8-1.8,1.7-1.8l0,0l0,0C105.5,226.3,106.3,227.1,106.3,228.1
	C106.3,228,106.3,228,106.3,228.1L106.3,228.1z M106.3,214.5c0,1-0.8,1.8-1.8,1.8l0,0c-1,0-1.8-0.8-1.8-1.8l0,0c0-1,0.8-1.8,1.7-1.8
	l0,0l0,0C105.5,212.8,106.3,213.5,106.3,214.5L106.3,214.5z M106.3,201c0,1-0.8,1.8-1.8,1.8l0,0c-1,0-1.8-0.8-1.8-1.8l0,0
	c0-1,0.8-1.8,1.7-1.8l0,0l0,0C105.5,199.2,106.3,200,106.3,201L106.3,201z M108.4,263.7c-1,0-1.8-0.8-1.8-1.8s0.8-1.8,1.8-1.8
	s1.8,0.8,1.8,1.8C110.2,262.9,109.4,263.7,108.4,263.7L108.4,263.7L108.4,263.7z M108.4,250.1c-1,0-1.8-0.8-1.8-1.8s0.8-1.8,1.8-1.8
	s1.8,0.8,1.8,1.8l0,0C110.2,249.3,109.4,250.1,108.4,250.1L108.4,250.1L108.4,250.1z M108.4,236.6c-1,0-1.8-0.8-1.8-1.8
	s0.8-1.8,1.8-1.8s1.8,0.8,1.8,1.8l0,0C110.2,235.8,109.4,236.6,108.4,236.6L108.4,236.6L108.4,236.6z M108.4,223.1
	c-1,0-1.8-0.8-1.8-1.8s0.8-1.8,1.8-1.8s1.8,0.8,1.8,1.8l0,0C110.2,222.3,109.4,223.1,108.4,223.1L108.4,223.1L108.4,223.1z
	 M108.4,209.5c-1,0-1.8-0.8-1.8-1.8s0.8-1.8,1.8-1.8s1.8,0.8,1.8,1.8l0,0C110.2,208.7,109.4,209.5,108.4,209.5L108.4,209.5
	L108.4,209.5z M108.4,196c-1,0-1.8-0.8-1.8-1.8s0.8-1.8,1.8-1.8s1.8,0.8,1.8,1.8l0,0C110.2,195.2,109.4,196,108.4,196L108.4,196
	L108.4,196z M114.1,255.1c0,1-0.8,1.8-1.8,1.8l0,0l0,0c-1,0-1.8-0.8-1.8-1.7l0,0l0,0c0-1,0.8-1.8,1.8-1.8l0,0l0,0
	C113.3,253.4,114.1,254.2,114.1,255.1L114.1,255.1z M114.1,241.6c0,1-0.8,1.8-1.8,1.8l0,0c-1,0-1.8-0.8-1.8-1.7l0,0l0,0
	c0-1,0.8-1.8,1.8-1.8l0,0l0,0C113.3,239.8,114.1,240.6,114.1,241.6z M114.1,228.1c0,1-0.8,1.8-1.8,1.8l0,0c-1,0-1.8-0.8-1.8-1.7l0,0
	l0,0c0-1,0.8-1.8,1.8-1.8l0,0l0,0C113.3,226.3,114.1,227.1,114.1,228.1L114.1,228.1z M114.1,214.5c0,1-0.8,1.8-1.8,1.8l0,0
	c-1,0-1.8-0.8-1.8-1.7l0,0l0,0c0-1,0.8-1.8,1.8-1.8l0,0l0,0C113.3,212.8,114.1,213.5,114.1,214.5L114.1,214.5z M114.1,201
	c0,1-0.8,1.8-1.8,1.8l0,0c-1,0-1.8-0.8-1.8-1.7l0,0l0,0c0-1,0.8-1.8,1.8-1.8l0,0l0,0C113.3,199.2,114.1,200,114.1,201L114.1,201z
	 M116.2,263.7c-1,0-1.8-0.8-1.8-1.8s0.8-1.8,1.8-1.8s1.8,0.8,1.8,1.8C118,262.9,117.2,263.7,116.2,263.7L116.2,263.7L116.2,263.7z
	 M116.2,250.1c-1,0-1.8-0.8-1.8-1.8s0.8-1.8,1.8-1.8s1.8,0.8,1.8,1.8l0,0C118,249.3,117.2,250.1,116.2,250.1L116.2,250.1
	L116.2,250.1z M116.2,236.6c-1,0-1.8-0.8-1.8-1.8s0.8-1.8,1.8-1.8s1.8,0.8,1.8,1.8l0,0C118,235.8,117.2,236.6,116.2,236.6
	L116.2,236.6L116.2,236.6z M116.2,223.1c-1,0-1.8-0.8-1.8-1.8s0.8-1.8,1.8-1.8s1.8,0.8,1.8,1.8l0,0
	C118,222.3,117.2,223.1,116.2,223.1L116.2,223.1L116.2,223.1z M116.2,209.5c-1,0-1.8-0.8-1.8-1.8s0.8-1.8,1.8-1.8s1.8,0.8,1.8,1.8
	l0,0C118,208.7,117.2,209.5,116.2,209.5L116.2,209.5L116.2,209.5z M116.2,196c-1,0-1.8-0.8-1.8-1.8s0.8-1.8,1.8-1.8s1.8,0.8,1.8,1.8
	l0,0C118,195.2,117.2,196,116.2,196C116.3,196,116.2,196,116.2,196L116.2,196z M121.9,268.7c0,1-0.8,1.8-1.8,1.8l0,0l0,0
	c-1,0-1.8-0.8-1.8-1.7l0,0l0,0c0-1,0.8-1.8,1.8-1.8l0,0l0,0C121.1,266.9,121.9,267.7,121.9,268.7L121.9,268.7z M121.9,255.1
	c0,1-0.8,1.8-1.8,1.8l0,0c-1,0-1.8-0.8-1.8-1.7l0,0l0,0c0-1,0.8-1.8,1.8-1.8l0,0l0,0C121.1,253.4,121.9,254.2,121.9,255.1z
	 M121.9,241.6c0,1-0.8,1.8-1.8,1.8l0,0c-1,0-1.8-0.8-1.8-1.7l0,0l0,0c0-1,0.8-1.8,1.8-1.8l0,0l0,0
	C121.1,239.8,121.9,240.6,121.9,241.6z M121.9,228.1c0,1-0.8,1.8-1.8,1.8l0,0c-1,0-1.8-0.8-1.8-1.7l0,0l0,0c0-1,0.8-1.8,1.8-1.8l0,0
	l0,0C121.1,226.3,121.9,227.1,121.9,228.1L121.9,228.1z M121.9,214.5c0,1-0.8,1.8-1.8,1.8l0,0c-1,0-1.8-0.8-1.8-1.7l0,0l0,0
	c0-1,0.8-1.8,1.8-1.8l0,0l0,0C121.1,212.8,121.9,213.5,121.9,214.5L121.9,214.5z M121.9,201c0,1-0.8,1.8-1.8,1.8l0,0
	c-1,0-1.8-0.8-1.8-1.7l0,0l0,0c0-1,0.8-1.8,1.8-1.8l0,0l0,0C121.1,199.2,121.9,200,121.9,201L121.9,201z M124,263.7
	c-1,0-1.8-0.8-1.7-1.8c0-1,0.8-1.8,1.8-1.7c1,0,1.7,0.8,1.8,1.8C125.8,262.9,125,263.7,124,263.7L124,263.7z M124,250.1
	c-1,0-1.8-0.8-1.7-1.8c0-1,0.8-1.8,1.8-1.7c1,0,1.7,0.8,1.8,1.8C125.8,249.3,125,250.1,124,250.1L124,250.1L124,250.1z M124,236.6
	c-1,0-1.8-0.8-1.7-1.8c0-1,0.8-1.8,1.8-1.7c1,0,1.7,0.8,1.8,1.8C125.8,235.8,125,236.6,124,236.6L124,236.6L124,236.6z M124,223.1
	c-1,0-1.8-0.8-1.8-1.8s0.8-1.8,1.8-1.8s1.8,0.8,1.8,1.8l0,0C125.8,222.3,125,223.1,124,223.1L124,223.1L124,223.1z M124,209.5
	c-1,0-1.8-0.8-1.8-1.8s0.8-1.8,1.8-1.8s1.8,0.8,1.8,1.8l0,0C125.8,208.7,125,209.5,124,209.5L124,209.5L124,209.5z M129.7,268.7
	c0,1-0.8,1.8-1.8,1.8l0,0l0,0c-1,0-1.8-0.8-1.8-1.8l0,0l0,0c0-1,0.8-1.8,1.8-1.8l0,0l0,0C128.9,266.9,129.7,267.7,129.7,268.7
	L129.7,268.7z M129.7,255.1c0,1-0.8,1.8-1.8,1.8l0,0l0,0c-1,0-1.8-0.8-1.8-1.8l0,0c0-1,0.8-1.8,1.8-1.8l0,0
	C128.9,253.4,129.7,254.2,129.7,255.1L129.7,255.1z M129.7,241.6c0,1-0.8,1.8-1.8,1.8l0,0l0,0c-1,0-1.8-0.8-1.8-1.8l0,0
	c0-1,0.8-1.8,1.8-1.8l0,0C128.9,239.8,129.7,240.6,129.7,241.6L129.7,241.6z M129.7,228.1c0,1-0.8,1.8-1.8,1.8l0,0l0,0
	c-1,0-1.8-0.8-1.8-1.8l0,0c0-1,0.8-1.8,1.7-1.8l0,0l0,0C128.9,226.3,129.7,227.1,129.7,228.1C129.7,228,129.7,228,129.7,228.1
	L129.7,228.1z M129.7,214.5c0,1-0.8,1.8-1.8,1.8l0,0l0,0c-1,0-1.8-0.8-1.8-1.8l0,0c0-1,0.8-1.8,1.7-1.8l0,0l0,0
	C128.9,212.8,129.7,213.5,129.7,214.5L129.7,214.5z M131.8,277.2c-1,0-1.8-0.8-1.7-1.8c0-1,0.8-1.8,1.8-1.7c1,0,1.7,0.8,1.8,1.8
	C133.6,276.4,132.8,277.2,131.8,277.2L131.8,277.2z M131.8,263.7c-1,0-1.8-0.8-1.7-1.8c0-1,0.8-1.8,1.8-1.7c1,0,1.7,0.8,1.8,1.8
	C133.6,262.9,132.8,263.7,131.8,263.7L131.8,263.7z M131.8,250.1c-1,0-1.8-0.8-1.7-1.8s0.8-1.8,1.8-1.7c1,0,1.7,0.8,1.8,1.8
	C133.6,249.3,132.8,250.1,131.8,250.1L131.8,250.1z M131.8,236.6c-1,0-1.8-0.8-1.7-1.8s0.8-1.8,1.8-1.7c1,0,1.7,0.8,1.8,1.8
	C133.6,235.8,132.8,236.6,131.8,236.6L131.8,236.6z M131.8,223.1c-1,0-1.8-0.8-1.8-1.8s0.8-1.8,1.8-1.8s1.8,0.8,1.8,1.8l0,0
	C133.6,222.3,132.8,223,131.8,223.1L131.8,223.1z M137.5,268.7c0,1-0.8,1.8-1.8,1.8l0,0l0,0c-1,0-1.8-0.8-1.8-1.8l0,0l0,0
	c0-1,0.8-1.8,1.8-1.8l0,0l0,0C136.7,266.9,137.5,267.7,137.5,268.7L137.5,268.7z M137.5,255.1c0,1-0.8,1.8-1.8,1.8l0,0l0,0
	c-1,0-1.8-0.8-1.8-1.8l0,0c0-1,0.8-1.8,1.8-1.8l0,0C136.7,253.4,137.5,254.2,137.5,255.1L137.5,255.1z M137.5,241.6
	c0,1-0.8,1.8-1.8,1.8l0,0l0,0c-1,0-1.7-0.8-1.7-1.8l0,0c0-1,0.8-1.8,1.8-1.8l0,0C136.7,239.8,137.5,240.6,137.5,241.6L137.5,241.6
	L137.5,241.6z M137.5,228.1c0,1-0.8,1.8-1.8,1.8l0,0l0,0c-1,0-1.8-0.8-1.8-1.8l0,0c0-1,0.8-1.8,1.7-1.8l0,0l0,0
	C136.7,226.3,137.5,227.1,137.5,228.1C137.5,228,137.5,228,137.5,228.1L137.5,228.1z M137.5,214.5c0,1-0.8,1.8-1.8,1.8l0,0l0,0
	c-1,0-1.8-0.8-1.8-1.8l0,0c0-1,0.8-1.8,1.7-1.8l0,0l0,0C136.7,212.8,137.5,213.5,137.5,214.5L137.5,214.5z M139.6,277.2
	c-1,0-1.8-0.8-1.8-1.8s0.8-1.8,1.8-1.8s1.8,0.8,1.8,1.8C141.4,276.4,140.6,277.2,139.6,277.2L139.6,277.2z M139.6,263.7
	c-1,0-1.8-0.8-1.8-1.8s0.8-1.8,1.8-1.8s1.8,0.8,1.8,1.8C141.4,262.9,140.6,263.7,139.6,263.7L139.6,263.7z M139.6,250.1
	c-1,0-1.8-0.8-1.8-1.8s0.8-1.8,1.8-1.8s1.8,0.8,1.8,1.8l0,0C141.4,249.3,140.6,250.1,139.6,250.1L139.6,250.1z M139.6,236.6
	c-1,0-1.8-0.8-1.8-1.8s0.8-1.8,1.8-1.8s1.8,0.8,1.8,1.8l0,0C141.4,235.8,140.6,236.6,139.6,236.6L139.6,236.6z M139.6,223.1
	c-1,0-1.8-0.8-1.8-1.8s0.8-1.8,1.8-1.8s1.8,0.8,1.8,1.8l0,0C141.4,222.3,140.6,223,139.6,223.1L139.6,223.1z M139.6,209.5
	c-1,0-1.8-0.8-1.8-1.8s0.8-1.8,1.8-1.8s1.8,0.8,1.8,1.8l0,0C141.4,208.7,140.6,209.5,139.6,209.5L139.6,209.5z M145.3,282.2
	c0,1-0.8,1.8-1.8,1.8l0,0l0,0c-1,0-1.8-0.8-1.8-1.7l0,0l0,0c0-1,0.8-1.8,1.8-1.8l0,0l0,0C144.5,280.5,145.3,281.2,145.3,282.2
	L145.3,282.2z M145.3,268.7c0,1-0.8,1.8-1.8,1.8l0,0l0,0c-1,0-1.8-0.8-1.8-1.7l0,0l0,0c0-1,0.8-1.8,1.8-1.8l0,0l0,0
	C144.5,266.9,145.3,267.7,145.3,268.7L145.3,268.7z M145.3,255.1c0,1-0.8,1.8-1.8,1.8l0,0c-1,0-1.8-0.8-1.8-1.7l0,0l0,0
	c0-1,0.8-1.8,1.8-1.8l0,0l0,0C144.5,253.4,145.3,254.2,145.3,255.1z M145.3,241.6c0,1-0.8,1.8-1.8,1.8l0,0c-1,0-1.8-0.8-1.8-1.7l0,0
	l0,0c0-1,0.8-1.8,1.8-1.8l0,0l0,0C144.5,239.8,145.3,240.6,145.3,241.6z M145.3,228.1c0,1-0.8,1.8-1.8,1.8l0,0c-1,0-1.8-0.8-1.8-1.7
	l0,0l0,0c0-1,0.8-1.8,1.8-1.8l0,0l0,0C144.5,226.3,145.3,227.1,145.3,228.1L145.3,228.1z M145.3,214.5c0,1-0.8,1.8-1.8,1.8l0,0
	c-1,0-1.8-0.8-1.8-1.7l0,0l0,0c0-1,0.8-1.8,1.8-1.8l0,0l0,0C144.5,212.8,145.3,213.5,145.3,214.5L145.3,214.5z M147.5,277.2
	c-1,0-1.8-0.8-1.8-1.8s0.8-1.8,1.8-1.8s1.8,0.8,1.8,1.8C149.2,276.4,148.4,277.2,147.5,277.2L147.5,277.2z M147.5,263.7
	c-1,0-1.8-0.8-1.8-1.8s0.8-1.8,1.8-1.8s1.8,0.8,1.8,1.8C149.2,262.9,148.4,263.7,147.5,263.7L147.5,263.7z M147.5,250.1
	c-1,0-1.8-0.8-1.8-1.8s0.8-1.8,1.8-1.8s1.8,0.8,1.8,1.8l0,0C149.2,249.3,148.4,250.1,147.5,250.1L147.5,250.1z M147.5,236.6
	c-1,0-1.8-0.8-1.8-1.8s0.8-1.8,1.8-1.8s1.8,0.8,1.8,1.8l0,0C149.2,235.8,148.4,236.6,147.5,236.6L147.5,236.6z M147.5,223.1
	c-1,0-1.8-0.8-1.8-1.8s0.8-1.8,1.8-1.8s1.8,0.8,1.8,1.8l0,0C149.2,222.3,148.4,223,147.5,223.1L147.5,223.1z M153.1,282.2
	c0,1-0.8,1.8-1.8,1.8l0,0l0,0c-1,0-1.8-0.8-1.8-1.7l0,0l0,0c0-1,0.8-1.8,1.8-1.8l0,0l0,0C152.3,280.5,153.1,281.2,153.1,282.2
	L153.1,282.2z M153.1,268.7c0,1-0.8,1.8-1.8,1.8l0,0l0,0c-1,0-1.8-0.8-1.8-1.7l0,0l0,0c0-1,0.8-1.8,1.8-1.8l0,0l0,0
	C152.3,266.9,153.1,267.7,153.1,268.7L153.1,268.7z M153.1,255.1c0,1-0.8,1.8-1.8,1.8l0,0c-1,0-1.8-0.8-1.8-1.7l0,0l0,0
	c0-1,0.8-1.8,1.8-1.8l0,0l0,0C152.3,253.4,153.1,254.2,153.1,255.1z M153.1,241.6c0,1-0.8,1.8-1.8,1.8l0,0c-1,0-1.8-0.8-1.8-1.7l0,0
	l0,0c0-1,0.8-1.8,1.8-1.8l0,0l0,0C152.3,239.8,153.1,240.6,153.1,241.6z M153.1,228.1c0,1-0.8,1.8-1.8,1.8l0,0c-1,0-1.8-0.8-1.8-1.7
	l0,0l0,0c0-1,0.8-1.8,1.8-1.8l0,0l0,0C152.3,226.3,153.1,227.1,153.1,228.1L153.1,228.1z M155.3,290.8c-1,0-1.8-0.8-1.8-1.8
	s0.8-1.8,1.8-1.8s1.8,0.8,1.8,1.8l0,0C157,290,156.3,290.7,155.3,290.8L155.3,290.8z M155.3,277.2c-1,0-1.8-0.8-1.8-1.8
	s0.8-1.8,1.8-1.8s1.8,0.8,1.8,1.8C157,276.4,156.3,277.2,155.3,277.2L155.3,277.2z M155.3,263.7c-1,0-1.8-0.8-1.8-1.8
	s0.8-1.8,1.8-1.8s1.8,0.8,1.8,1.8C157,262.9,156.3,263.7,155.3,263.7L155.3,263.7z M155.3,250.1c-1,0-1.8-0.8-1.8-1.8
	s0.8-1.8,1.8-1.8s1.8,0.8,1.8,1.8l0,0C157,249.3,156.3,250.1,155.3,250.1L155.3,250.1z M155.3,236.6c-1,0-1.8-0.8-1.8-1.8
	s0.8-1.8,1.8-1.8s1.8,0.8,1.8,1.8l0,0C157,235.8,156.3,236.6,155.3,236.6L155.3,236.6z M157.4,214.5c0-0.5,0.3-1,0.7-1.4l1.1,0.6
	l1.3,0.8l0.4,0.2c-0.1,0.9-0.9,1.5-1.7,1.5l0,0C158.2,216.3,157.4,215.5,157.4,214.5z M160.9,282.2c0,1-0.8,1.8-1.7,1.8l0,0l0,0
	c-1,0-1.8-0.8-1.8-1.8l0,0l0,0c0-1,0.8-1.8,1.8-1.8l0,0l0,0C160.2,280.5,161,281.3,160.9,282.2C161,282.2,161,282.2,160.9,282.2
	L160.9,282.2z M160.9,268.7c0,1-0.8,1.8-1.8,1.8l0,0l0,0c-1,0-1.8-0.8-1.8-1.8l0,0l0,0c0-1,0.8-1.8,1.8-1.8l0,0l0,0
	C160.2,266.9,160.9,267.7,160.9,268.7L160.9,268.7z M160.9,255.1c0,1-0.8,1.8-1.8,1.8l0,0l0,0c-1,0-1.8-0.8-1.8-1.8l0,0
	c0-1,0.8-1.8,1.8-1.8l0,0C160.2,253.4,160.9,254.2,160.9,255.1L160.9,255.1z M160.9,241.6c0,1-0.8,1.8-1.8,1.8l0,0l0,0
	c-1,0-1.8-0.8-1.8-1.8l0,0c0-1,0.8-1.8,1.8-1.8l0,0C160.2,239.8,161,240.6,160.9,241.6C161,241.6,161,241.6,160.9,241.6L160.9,241.6
	z M160.9,228.1c0,1-0.8,1.8-1.8,1.8l0,0l0,0c-1,0-1.8-0.8-1.8-1.8l0,0c0-1,0.8-1.8,1.7-1.8l0,0l0,0
	C160.2,226.3,160.9,227.1,160.9,228.1C160.9,228,160.9,228,160.9,228.1L160.9,228.1z M163.1,290.8c-1,0-1.8-0.8-1.8-1.8
	s0.8-1.8,1.8-1.8s1.8,0.8,1.8,1.8l0,0C164.9,290,164.1,290.8,163.1,290.8L163.1,290.8z M163.1,277.2c-1,0-1.8-0.8-1.7-1.8
	c0-1,0.8-1.8,1.8-1.7c1,0,1.7,0.8,1.8,1.8C164.9,276.4,164.1,277.2,163.1,277.2L163.1,277.2z M163.1,263.7c-1,0-1.8-0.8-1.7-1.8
	c0-1,0.8-1.8,1.8-1.7c1,0,1.7,0.8,1.8,1.8C164.9,262.9,164.1,263.7,163.1,263.7L163.1,263.7z M163.1,250.1c-1,0-1.8-0.8-1.7-1.8
	s0.8-1.8,1.8-1.7c1,0,1.7,0.8,1.8,1.8C164.9,249.3,164.1,250.1,163.1,250.1L163.1,250.1z M163.1,236.6c-1,0-1.8-0.8-1.7-1.8
	s0.8-1.8,1.8-1.7c1,0,1.7,0.8,1.8,1.8C164.9,235.8,164.1,236.6,163.1,236.6L163.1,236.6z M163.1,223.1c-1,0-1.8-0.8-1.8-1.8
	s0.8-1.8,1.8-1.8s1.8,0.8,1.8,1.8l0,0C164.9,222.3,164.1,223,163.1,223.1L163.1,223.1z M168.8,295.8c0,1-0.8,1.8-1.8,1.8l0,0
	c-1,0-1.8-0.8-1.8-1.8l0,0l0,0c0-1,0.8-1.8,1.8-1.8l0,0l0,0C168,294,168.8,294.8,168.8,295.8L168.8,295.8L168.8,295.8z M168.8,282.2
	c0,1-0.8,1.8-1.7,1.8l0,0l0,0c-1,0-1.8-0.8-1.8-1.8l0,0l0,0c0-1,0.8-1.8,1.8-1.8l0,0l0,0C168,280.5,168.8,281.3,168.8,282.2
	L168.8,282.2L168.8,282.2z M168.8,268.7c0,1-0.8,1.8-1.8,1.8l0,0l0,0c-1,0-1.8-0.8-1.8-1.8l0,0l0,0c0-1,0.8-1.8,1.8-1.8l0,0l0,0
	C168,266.9,168.8,267.7,168.8,268.7L168.8,268.7z M168.8,255.1c0,1-0.8,1.8-1.8,1.8l0,0l0,0c-1,0-1.8-0.8-1.8-1.8l0,0
	c0-1,0.8-1.8,1.8-1.8l0,0C168,253.4,168.8,254.2,168.8,255.1L168.8,255.1L168.8,255.1z M168.8,241.6c0,1-0.8,1.8-1.8,1.8l0,0l0,0
	c-1,0-1.8-0.8-1.8-1.8l0,0c0-1,0.8-1.8,1.8-1.8l0,0C168,239.8,168.8,240.6,168.8,241.6L168.8,241.6z M168.8,228.1
	c0,1-0.8,1.8-1.8,1.8l0,0l0,0c-1,0-1.8-0.8-1.8-1.8l0,0c0-1,0.8-1.8,1.7-1.8l0,0l0,0C168,226.3,168.8,227.1,168.8,228.1
	C168.8,228,168.8,228,168.8,228.1L168.8,228.1z"/>
<path class="st0" d="M167,226.3L167,226.3c-1,0-1.8,0.8-1.8,1.8l0,0l0,0c0,1,0.8,1.8,1.8,1.8l0,0c1,0,1.8-0.8,1.8-1.7l0,0l0,0
	C168.8,227.1,168,226.3,167,226.3L167,226.3z"/>
<path class="st0" d="M169.2,221.3c0,0.5,0.2,0.9,0.6,1.3V220C169.4,220.3,169.2,220.8,169.2,221.3z"/>
<path class="st0" d="M167,239.8L167,239.8c-1,0-1.8,0.8-1.8,1.8l0,0c0,1,0.8,1.8,1.8,1.8l0,0c1,0,1.8-0.8,1.8-1.7l0,0l0,0
	C168.8,240.6,168,239.8,167,239.8L167,239.8z"/>
<path class="st0" d="M169.2,234.8c0,0.5,0.2,0.9,0.5,1.2v-2.5C169.3,233.9,169.2,234.4,169.2,234.8z"/>
<path class="st0" d="M167,253.4L167,253.4c-1,0-1.8,0.8-1.8,1.8l0,0c0,1,0.8,1.8,1.8,1.8l0,0c1,0,1.8-0.8,1.8-1.7l0,0l0,0
	C168.8,254.2,168,253.4,167,253.4L167,253.4z"/>
<path class="st0" d="M169.2,248.4c0,0.4,0.2,0.9,0.5,1.2v-2.4C169.3,247.5,169.2,247.9,169.2,248.4z"/>
<path class="st0" d="M167,266.9L167,266.9c-1,0-1.8,0.8-1.8,1.8l0,0l0,0c0,1,0.8,1.8,1.8,1.8l0,0l0,0c1,0,1.8-0.8,1.8-1.7l0,0l0,0
	C168.8,267.7,168,266.9,167,266.9L167,266.9z"/>
<path class="st0" d="M169.2,261.9c0,0.4,0.2,0.8,0.4,1.1v-2.3C169.3,261.1,169.2,261.5,169.2,261.9z"/>
<path class="st0" d="M167,280.5L167,280.5c-1,0-1.8,0.8-1.8,1.8l0,0l0,0c0,1,0.8,1.8,1.7,1.8l0,0l0,0c1,0,1.8-0.8,1.8-1.7l0,0l0,0
	C168.8,281.3,168,280.5,167,280.5L167,280.5z"/>
<path class="st0" d="M169.2,275.5c0,0.4,0.1,0.8,0.4,1.1v-2.2C169.3,274.7,169.2,275,169.2,275.5z"/>
<path class="st0" d="M167,294L167,294c-1,0-1.8,0.8-1.8,1.8l0,0l0,0c0,1,0.8,1.8,1.7,1.8l0,0l0,0c1,0,1.8-0.8,1.8-1.8l0,0
	C168.8,294.8,168,294,167,294L167,294z"/>
<path class="st0" d="M169.5,290v-2.1c-0.2,0.3-0.4,0.7-0.4,1.1C169.2,289.4,169.3,289.7,169.5,290z"/>
<path class="st0" d="M159.2,226.3L159.2,226.3c-1,0-1.8,0.8-1.8,1.8l0,0l0,0c0,1,0.8,1.8,1.8,1.8l0,0c1,0,1.8-0.8,1.8-1.7l0,0l0,0
	C161,227.1,160.2,226.3,159.2,226.3L159.2,226.3z"/>
<path class="st0" d="M163.1,219.5c-1,0-1.8,0.8-1.8,1.8s0.8,1.8,1.8,1.8s1.8-0.8,1.8-1.8C164.9,220.3,164.1,219.5,163.1,219.5
	L163.1,219.5z"/>
<path class="st0" d="M159.2,239.8L159.2,239.8c-1,0-1.8,0.8-1.8,1.8l0,0c0,1,0.8,1.8,1.8,1.8l0,0c1,0,1.8-0.7,1.8-1.7l0,0l0,0
	C161,240.6,160.2,239.8,159.2,239.8L159.2,239.8z"/>
<circle class="st0" cx="163.1" cy="234.8" r="1.8"/>
<path class="st0" d="M159.2,253.4L159.2,253.4c-1,0-1.8,0.8-1.8,1.8l0,0c0,1,0.8,1.8,1.8,1.8l0,0c1,0,1.8-0.8,1.8-1.7l0,0l0,0
	C161,254.2,160.2,253.4,159.2,253.4L159.2,253.4z"/>
<circle class="st0" cx="163.1" cy="248.4" r="1.8"/>
<path class="st0" d="M159.2,266.9L159.2,266.9c-1,0-1.8,0.8-1.8,1.8l0,0l0,0c0,1,0.8,1.8,1.8,1.8l0,0l0,0c1,0,1.8-0.8,1.8-1.7l0,0
	l0,0C161,267.7,160.2,266.9,159.2,266.9L159.2,266.9z"/>
<path class="st0" d="M163.1,260.1c-1,0-1.8,0.8-1.7,1.8c0,1,0.8,1.8,1.8,1.7c1,0,1.7-0.8,1.8-1.8
	C164.9,260.9,164.1,260.1,163.1,260.1L163.1,260.1z"/>
<path class="st0" d="M159.2,280.5L159.2,280.5c-1,0-1.8,0.8-1.8,1.8l0,0l0,0c0,1,0.8,1.8,1.7,1.8l0,0l0,0c1,0,1.8-0.8,1.8-1.7l0,0
	l0,0C161,281.3,160.2,280.5,159.2,280.5L159.2,280.5z"/>
<path class="st0" d="M163.1,273.7c-1,0-1.8,0.8-1.7,1.8c0,1,0.8,1.8,1.8,1.7c1,0,1.7-0.8,1.8-1.8
	C164.9,274.5,164.1,273.7,163.1,273.7L163.1,273.7z"/>
<path class="st0" d="M161,295.8c0-1-0.8-1.8-1.8-1.8l0,0l0,0c-0.7,0-1.3,0.4-1.6,1l3,1.8C160.8,296.5,160.9,296.1,161,295.8
	L161,295.8z"/>
<path class="st0" d="M163.1,287.2c-1,0-1.8,0.8-1.8,1.8s0.8,1.8,1.8,1.8s1.8-0.8,1.8-1.8l0,0C164.9,288,164.1,287.2,163.1,287.2
	L163.1,287.2z"/>
<path class="st0" d="M151.4,226.3L151.4,226.3c-1,0-1.8,0.8-1.8,1.8l0,0l0,0c0,1,0.8,1.8,1.8,1.8l0,0l0,0c1,0,1.8-0.8,1.8-1.8l0,0
	C153.2,227.1,152.4,226.3,151.4,226.3L151.4,226.3z"/>
<path class="st0" d="M155.3,223.1c1-0.1,1.7-0.9,1.6-1.9c-0.1-0.9-0.8-1.6-1.6-1.6c-0.2,0-0.5,0.1-0.7,0.1v3.2
	C154.8,223,155.1,223.1,155.3,223.1z"/>
<path class="st0" d="M159.2,216.3L159.2,216.3c0.9,0,1.6-0.7,1.7-1.5l-0.4-0.2l-1.3-0.8l-1.1-0.6c-0.4,0.3-0.7,0.8-0.7,1.4l0,0
	C157.4,215.5,158.2,216.3,159.2,216.3z"/>
<path class="st0" d="M151.4,239.8L151.4,239.8c-1,0-1.8,0.8-1.8,1.7l0,0l0,0c0,1,0.8,1.8,1.8,1.8l0,0l0,0c1,0,1.8-0.8,1.8-1.8l0,0
	C153.1,240.6,152.4,239.8,151.4,239.8z"/>
<path class="st0" d="M155.3,233.1c-1,0-1.8,0.8-1.8,1.8s0.8,1.8,1.8,1.8s1.8-0.8,1.8-1.8l0,0C157.1,233.9,156.3,233.1,155.3,233.1z"
	/>
<path class="st0" d="M151.4,253.4L151.4,253.4c-1,0-1.8,0.8-1.8,1.7l0,0l0,0c0,1,0.8,1.8,1.8,1.8l0,0l0,0c1,0,1.8-0.8,1.8-1.8l0,0
	C153.1,254.2,152.4,253.4,151.4,253.4z"/>
<path class="st0" d="M155.3,246.6c-1,0-1.8,0.8-1.8,1.8s0.8,1.8,1.8,1.8s1.8-0.8,1.8-1.8l0,0C157.1,247.4,156.3,246.6,155.3,246.6z"
	/>
<path class="st0" d="M151.4,266.9L151.4,266.9c-1,0-1.8,0.8-1.8,1.7l0,0l0,0c0,1,0.8,1.8,1.8,1.8l0,0l0,0c1,0,1.8-0.8,1.8-1.8l0,0
	l0,0C153.1,267.7,152.4,266.9,151.4,266.9L151.4,266.9z"/>
<path class="st0" d="M155.3,260.1c-1,0-1.8,0.8-1.8,1.8s0.8,1.8,1.8,1.8s1.8-0.8,1.8-1.8S156.3,260.1,155.3,260.1L155.3,260.1z"/>
<path class="st0" d="M151.4,280.5L151.4,280.5c-1,0-1.8,0.8-1.8,1.7l0,0l0,0c0,1,0.8,1.8,1.8,1.8l0,0l0,0c1,0,1.8-0.8,1.8-1.8l0,0
	l0,0C153.1,281.2,152.4,280.5,151.4,280.5L151.4,280.5z"/>
<path class="st0" d="M155.3,273.7c-1,0-1.8,0.8-1.8,1.8s0.8,1.8,1.8,1.8s1.8-0.8,1.8-1.8S156.3,273.7,155.3,273.7L155.3,273.7z"/>
<path class="st0" d="M155.3,287.2c-1,0-1.8,0.8-1.8,1.8s0.8,1.8,1.8,1.8s1.8-0.8,1.8-1.8l0,0C157.1,288,156.3,287.2,155.3,287.2
	L155.3,287.2z"/>
<path class="st0" d="M143.6,212.8L143.6,212.8c-1,0-1.8,0.8-1.8,1.8l0,0l0,0c0,1,0.8,1.8,1.8,1.8l0,0l0,0c1,0,1.8-0.8,1.8-1.8l0,0
	C145.3,213.5,144.6,212.8,143.6,212.8L143.6,212.8z"/>
<path class="st0" d="M143.6,226.3L143.6,226.3c-1,0-1.8,0.8-1.8,1.8l0,0l0,0c0,1,0.8,1.8,1.8,1.8l0,0l0,0c1,0,1.8-0.8,1.8-1.8l0,0
	C145.3,227.1,144.6,226.3,143.6,226.3L143.6,226.3z"/>
<path class="st0" d="M147.5,219.5c-1,0-1.8,0.8-1.8,1.8s0.8,1.8,1.8,1.8s1.8-0.8,1.8-1.8l0,0C149.2,220.3,148.5,219.5,147.5,219.5z"
	/>
<path class="st0" d="M143.6,239.8L143.6,239.8c-1,0-1.8,0.8-1.8,1.7l0,0l0,0c0,1,0.8,1.8,1.8,1.8l0,0l0,0c1,0,1.8-0.8,1.8-1.8l0,0
	C145.3,240.6,144.5,239.8,143.6,239.8z"/>
<circle class="st0" cx="147.5" cy="234.8" r="1.8"/>
<path class="st0" d="M143.6,253.4L143.6,253.4c-1,0-1.8,0.8-1.8,1.7l0,0l0,0c0,1,0.8,1.8,1.8,1.8l0,0l0,0c1,0,1.8-0.8,1.8-1.8l0,0
	C145.3,254.2,144.5,253.4,143.6,253.4z"/>
<circle class="st0" cx="147.5" cy="248.4" r="1.8"/>
<path class="st0" d="M143.6,266.9L143.6,266.9c-1,0-1.8,0.8-1.8,1.7l0,0l0,0c0,1,0.8,1.8,1.8,1.8l0,0l0,0c1,0,1.8-0.8,1.8-1.8l0,0
	l0,0C145.3,267.7,144.5,266.9,143.6,266.9L143.6,266.9z"/>
<path class="st0" d="M147.5,260.1c-1,0-1.8,0.8-1.8,1.8s0.8,1.8,1.8,1.8s1.8-0.8,1.8-1.8S148.5,260.1,147.5,260.1L147.5,260.1z"/>
<path class="st0" d="M143.6,280.5L143.6,280.5c-1,0-1.8,0.8-1.8,1.7l0,0l0,0c0,1,0.8,1.8,1.8,1.8l0,0l0,0c1,0,1.8-0.8,1.8-1.8l0,0
	l0,0C145.3,281.2,144.5,280.5,143.6,280.5L143.6,280.5z"/>
<path class="st0" d="M147.5,273.7c-1,0-1.8,0.8-1.8,1.8s0.8,1.8,1.8,1.8s1.8-0.8,1.8-1.8S148.5,273.7,147.5,273.7L147.5,273.7z"/>
<path class="st0" d="M147.5,287.2c-0.7,0-1.3,0.4-1.6,1l3,1.8c0.2-0.3,0.3-0.6,0.3-1C149.2,288,148.4,287.2,147.5,287.2z"/>
<path class="st0" d="M135.8,212.8L135.8,212.8c-1,0-1.8,0.8-1.8,1.8l0,0l0,0c0,1,0.8,1.8,1.8,1.8l0,0c1,0,1.8-0.8,1.8-1.7l0,0l0,0
	C137.5,213.5,136.7,212.8,135.8,212.8L135.8,212.8z"/>
<path class="st0" d="M139.7,206c-1,0-1.8,0.8-1.8,1.8s0.8,1.8,1.8,1.8s1.8-0.8,1.8-1.8l0,0C141.4,206.8,140.6,206,139.7,206
	L139.7,206z"/>
<path class="st0" d="M135.8,226.3L135.8,226.3c-1,0-1.8,0.8-1.8,1.8l0,0l0,0c0,1,0.8,1.8,1.8,1.8l0,0c1,0,1.8-0.8,1.8-1.7l0,0l0,0
	C137.5,227.1,136.7,226.3,135.8,226.3L135.8,226.3z"/>
<path class="st0" d="M139.7,219.5c-1,0-1.8,0.8-1.8,1.8s0.8,1.8,1.8,1.8s1.8-0.8,1.8-1.8l0,0C141.4,220.3,140.6,219.5,139.7,219.5
	L139.7,219.5z"/>
<path class="st0" d="M135.8,239.8L135.8,239.8c-1,0-1.8,0.8-1.8,1.8l0,0c0,1,0.8,1.8,1.8,1.8l0,0c1,0,1.8-0.8,1.8-1.7l0,0l0,0
	C137.5,240.6,136.7,239.8,135.8,239.8L135.8,239.8z"/>
<path class="st0" d="M139.7,233.1c-1,0-1.8,0.8-1.8,1.8s0.8,1.8,1.8,1.8s1.8-0.8,1.8-1.8l0,0C141.4,233.9,140.6,233.1,139.7,233.1z"
	/>
<path class="st0" d="M135.8,253.4L135.8,253.4c-1,0-1.8,0.8-1.8,1.8l0,0c0,1,0.8,1.8,1.8,1.8l0,0c1,0,1.8-0.8,1.8-1.7l0,0l0,0
	C137.5,254.2,136.7,253.4,135.8,253.4L135.8,253.4z"/>
<path class="st0" d="M139.7,246.6c-1,0-1.8,0.8-1.8,1.8s0.8,1.8,1.8,1.8s1.8-0.8,1.8-1.8l0,0C141.4,247.4,140.6,246.6,139.7,246.6z"
	/>
<path class="st0" d="M135.8,266.9L135.8,266.9c-1,0-1.8,0.8-1.8,1.8l0,0l0,0c0,1,0.8,1.8,1.8,1.8l0,0l0,0c1,0,1.8-0.8,1.8-1.7l0,0
	l0,0C137.5,267.7,136.7,266.9,135.8,266.9L135.8,266.9z"/>
<path class="st0" d="M139.7,260.1c-1,0-1.8,0.8-1.8,1.8s0.8,1.8,1.8,1.8s1.8-0.8,1.8-1.8S140.6,260.1,139.7,260.1L139.7,260.1z"/>
<path class="st0" d="M137.5,282.2c0-1-0.8-1.8-1.8-1.8l0,0l0,0c-0.7,0-1.3,0.4-1.6,1l3,1.8C137.4,282.9,137.5,282.6,137.5,282.2
	L137.5,282.2z"/>
<path class="st0" d="M139.7,273.7c-1,0-1.8,0.8-1.8,1.8s0.8,1.8,1.8,1.8s1.8-0.8,1.8-1.8S140.6,273.7,139.7,273.7L139.7,273.7z"/>
<path class="st0" d="M126.2,201L126.2,201c0,0.8,0.6,1.5,1.4,1.7v-3.4C126.7,199.5,126.2,200.2,126.2,201z"/>
<path class="st0" d="M127.9,212.8L127.9,212.8c-1,0-1.8,0.8-1.8,1.8l0,0l0,0c0,1,0.8,1.8,1.8,1.8l0,0c1,0,1.8-0.8,1.8-1.7l0,0l0,0
	C129.7,213.5,128.9,212.8,127.9,212.8L127.9,212.8z"/>
<path class="st0" d="M131.8,209.5c0.7,0,1.3-0.4,1.6-1L131.8,209.5L131.8,209.5z"/>
<path class="st0" d="M127.9,226.3L127.9,226.3c-1,0-1.8,0.8-1.8,1.8l0,0l0,0c0,1,0.8,1.8,1.8,1.8l0,0c1,0,1.8-0.8,1.8-1.7l0,0l0,0
	C129.7,227.1,128.9,226.3,127.9,226.3L127.9,226.3z"/>
<path class="st0" d="M131.8,219.5c-1,0-1.8,0.8-1.8,1.8s0.8,1.8,1.8,1.8s1.8-0.8,1.8-1.8S132.8,219.5,131.8,219.5
	C131.9,219.5,131.8,219.5,131.8,219.5z"/>
<path class="st0" d="M127.9,239.8L127.9,239.8c-1,0-1.8,0.8-1.8,1.8l0,0c0,1,0.8,1.8,1.8,1.8l0,0c1,0,1.8-0.8,1.8-1.7l0,0l0,0
	C129.7,240.6,128.9,239.8,127.9,239.8L127.9,239.8z"/>
<circle class="st0" cx="131.8" cy="234.8" r="1.8"/>
<path class="st0" d="M127.9,253.4L127.9,253.4c-1,0-1.8,0.8-1.8,1.8l0,0c0,1,0.8,1.8,1.8,1.8l0,0c1,0,1.8-0.8,1.8-1.7l0,0l0,0
	C129.7,254.2,128.9,253.4,127.9,253.4L127.9,253.4z"/>
<circle class="st0" cx="131.8" cy="248.4" r="1.8"/>
<path class="st0" d="M127.9,266.9L127.9,266.9c-1,0-1.8,0.8-1.8,1.8l0,0l0,0c0,1,0.8,1.8,1.8,1.8l0,0l0,0c1,0,1.8-0.8,1.8-1.7l0,0
	l0,0C129.7,267.7,128.9,266.9,127.9,266.9L127.9,266.9z"/>
<path class="st0" d="M131.8,260.1c-1,0-1.8,0.8-1.7,1.8c0,1,0.8,1.8,1.8,1.7c1,0,1.7-0.8,1.8-1.8
	C133.6,260.9,132.8,260.1,131.8,260.1L131.8,260.1z"/>
<path class="st0" d="M131.8,273.7c-1,0-1.8,0.8-1.7,1.8c0,1,0.8,1.8,1.8,1.7c1,0,1.7-0.8,1.8-1.8
	C133.6,274.5,132.8,273.7,131.8,273.7L131.8,273.7z"/>
<path class="st0" d="M120.1,199.2L120.1,199.2c-1,0-1.8,0.8-1.8,1.8l0,0l0,0c0,1,0.8,1.8,1.8,1.8l0,0l0,0c1,0,1.8-0.8,1.8-1.8l0,0
	C121.9,200,121.1,199.2,120.1,199.2L120.1,199.2z"/>
<path class="st0" d="M124,196c0.9,0,1.6-0.6,1.7-1.5l-2.8-1.6c-0.8,0.6-0.9,1.7-0.3,2.5C123,195.8,123.5,196,124,196z"/>
<path class="st0" d="M120.1,212.8L120.1,212.8c-1,0-1.8,0.8-1.8,1.8l0,0l0,0c0,1,0.8,1.8,1.8,1.8l0,0l0,0c1,0,1.8-0.8,1.8-1.8l0,0
	C121.9,213.5,121.1,212.8,120.1,212.8L120.1,212.8z"/>
<path class="st0" d="M124,206c-1,0-1.8,0.8-1.8,1.8s0.8,1.8,1.8,1.8s1.8-0.8,1.8-1.8S125,206,124,206L124,206z"/>
<path class="st0" d="M120.1,226.3L120.1,226.3c-1,0-1.8,0.8-1.8,1.8l0,0l0,0c0,1,0.8,1.8,1.8,1.8l0,0l0,0c1,0,1.8-0.8,1.8-1.8l0,0
	C121.9,227.1,121.1,226.3,120.1,226.3L120.1,226.3z"/>
<path class="st0" d="M124,219.5c-1,0-1.8,0.8-1.8,1.8s0.8,1.8,1.8,1.8s1.8-0.8,1.8-1.8S125,219.5,124,219.5L124,219.5z"/>
<path class="st0" d="M120.1,239.8L120.1,239.8c-1,0-1.8,0.8-1.8,1.7l0,0l0,0c0,1,0.8,1.8,1.8,1.8l0,0l0,0c1,0,1.8-0.8,1.8-1.8l0,0
	C121.9,240.6,121.1,239.8,120.1,239.8z"/>
<path class="st0" d="M124,233.1c-1,0-1.8,0.8-1.7,1.8c0,1,0.8,1.8,1.8,1.7c1,0,1.7-0.8,1.8-1.8C125.8,233.9,125,233.1,124,233.1
	L124,233.1z"/>
<path class="st0" d="M120.1,253.4L120.1,253.4c-1,0-1.8,0.8-1.8,1.7l0,0l0,0c0,1,0.8,1.8,1.8,1.8l0,0l0,0c1,0,1.8-0.8,1.8-1.8l0,0
	C121.9,254.2,121.1,253.4,120.1,253.4z"/>
<path class="st0" d="M124,246.6c-1,0-1.8,0.8-1.7,1.8c0,1,0.8,1.8,1.8,1.7c1,0,1.7-0.8,1.8-1.8C125.8,247.4,125,246.6,124,246.6
	L124,246.6z"/>
<path class="st0" d="M120.1,266.9L120.1,266.9c-1,0-1.8,0.8-1.8,1.7l0,0l0,0c0,1,0.8,1.8,1.8,1.8l0,0l0,0c1,0,1.8-0.8,1.8-1.8l0,0
	l0,0C121.9,267.7,121.1,266.9,120.1,266.9L120.1,266.9z"/>
<path class="st0" d="M124,260.1c-1,0-1.8,0.8-1.7,1.8c0,1,0.8,1.8,1.8,1.7c1,0,1.7-0.8,1.8-1.8C125.8,260.9,125,260.1,124,260.1
	L124,260.1z"/>
<path class="st0" d="M124,273.7c-0.7,0-1.3,0.4-1.6,1l3,1.8c0.2-0.3,0.3-0.6,0.3-1C125.7,274.5,125,273.7,124,273.7z"/>
<path class="st0" d="M112.3,199.2L112.3,199.2c-1,0-1.8,0.8-1.8,1.8l0,0l0,0c0,1,0.8,1.8,1.8,1.8l0,0l0,0c1,0,1.8-0.8,1.8-1.8l0,0
	C114.1,200,113.3,199.2,112.3,199.2L112.3,199.2z"/>
<path class="st0" d="M116.2,192.4c-1,0-1.8,0.8-1.8,1.8s0.8,1.8,1.8,1.8s1.8-0.8,1.8-1.8l0,0C118,193.2,117.2,192.4,116.2,192.4z"/>
<path class="st0" d="M112.3,212.8L112.3,212.8c-1,0-1.8,0.8-1.8,1.8l0,0l0,0c0,1,0.8,1.8,1.8,1.8l0,0l0,0c1,0,1.8-0.8,1.8-1.8l0,0
	C114.1,213.5,113.3,212.8,112.3,212.8L112.3,212.8z"/>
<path class="st0" d="M116.2,206c-1,0-1.8,0.8-1.8,1.8s0.8,1.8,1.8,1.8s1.8-0.8,1.8-1.8l0,0C118,206.8,117.2,206,116.2,206z"/>
<path class="st0" d="M112.3,226.3L112.3,226.3c-1,0-1.8,0.8-1.8,1.8l0,0l0,0c0,1,0.8,1.8,1.8,1.8l0,0l0,0c1,0,1.8-0.8,1.8-1.8l0,0
	C114.1,227.1,113.3,226.3,112.3,226.3L112.3,226.3z"/>
<path class="st0" d="M116.2,219.5c-1,0-1.8,0.8-1.8,1.8s0.8,1.8,1.8,1.8s1.8-0.8,1.8-1.8l0,0C118,220.3,117.2,219.5,116.2,219.5z"/>
<path class="st0" d="M112.3,239.8L112.3,239.8c-1,0-1.8,0.8-1.8,1.7l0,0l0,0c0,1,0.8,1.8,1.8,1.8l0,0l0,0c1,0,1.8-0.8,1.8-1.8l0,0
	C114.1,240.6,113.3,239.8,112.3,239.8z"/>
<circle class="st0" cx="116.2" cy="234.8" r="1.8"/>
<path class="st0" d="M112.3,253.4L112.3,253.4c-1,0-1.8,0.8-1.8,1.7l0,0l0,0c0,1,0.8,1.8,1.8,1.8l0,0l0,0c1,0,1.8-0.8,1.8-1.8l0,0
	C114.1,254.2,113.3,253.4,112.3,253.4z"/>
<circle class="st0" cx="116.2" cy="248.4" r="1.8"/>
<path class="st0" d="M114.1,268.7c0-1-0.8-1.8-1.8-1.8l0,0l0,0c-0.7,0-1.3,0.4-1.6,1l3,1.8C113.9,269.4,114,269,114.1,268.7
	L114.1,268.7z"/>
<path class="st0" d="M116.2,260.1c-1,0-1.8,0.8-1.8,1.8s0.8,1.8,1.8,1.8s1.8-0.8,1.8-1.8S117.2,260.1,116.2,260.1L116.2,260.1z"/>
<path class="st0" d="M104.5,199.2L104.5,199.2c-1,0-1.8,0.8-1.8,1.8l0,0l0,0c0,1,0.8,1.8,1.8,1.8l0,0c1,0,1.8-0.8,1.8-1.8l0,0
	C106.2,200,105.5,199.2,104.5,199.2L104.5,199.2z"/>
<path class="st0" d="M108.4,192.4c-1,0-1.8,0.8-1.8,1.8s0.8,1.8,1.8,1.8s1.8-0.8,1.8-1.8l0,0C110.2,193.2,109.4,192.4,108.4,192.4
	L108.4,192.4z"/>
<path class="st0" d="M112.3,189.2c0.9,0,1.6-0.6,1.7-1.5l-0.5-0.3l-0.2-0.1l-0.2,0.1l-0.8,0.5l-1.3,0.7
	C111.3,189,111.8,189.2,112.3,189.2z"/>
<path class="st0" d="M104.5,212.8L104.5,212.8c-1,0-1.8,0.8-1.8,1.8l0,0l0,0c0,1,0.8,1.8,1.8,1.8l0,0c1,0,1.8-0.8,1.8-1.8l0,0
	C106.2,213.5,105.5,212.8,104.5,212.8L104.5,212.8z"/>
<path class="st0" d="M108.4,206c-1,0-1.8,0.8-1.8,1.8s0.8,1.8,1.8,1.8s1.8-0.8,1.8-1.8l0,0C110.2,206.8,109.4,206,108.4,206
	L108.4,206z"/>
<path class="st0" d="M104.5,226.3L104.5,226.3c-1,0-1.8,0.8-1.8,1.8l0,0l0,0c0,1,0.8,1.8,1.8,1.8l0,0c1,0,1.8-0.8,1.8-1.8l0,0
	C106.3,227.1,105.5,226.3,104.5,226.3L104.5,226.3z"/>
<path class="st0" d="M108.4,219.5c-1,0-1.8,0.8-1.8,1.8s0.8,1.8,1.8,1.8s1.8-0.8,1.8-1.8l0,0C110.2,220.3,109.4,219.5,108.4,219.5
	L108.4,219.5z"/>
<path class="st0" d="M104.5,239.8L104.5,239.8c-1,0-1.8,0.8-1.8,1.8l0,0c0,1,0.8,1.8,1.8,1.8l0,0c1,0,1.8-0.8,1.8-1.8l0,0
	C106.2,240.6,105.5,239.8,104.5,239.8z"/>
<path class="st0" d="M108.4,233.1c-1,0-1.8,0.8-1.8,1.8s0.8,1.8,1.8,1.8s1.8-0.8,1.8-1.8l0,0C110.2,233.9,109.4,233.1,108.4,233.1z"
	/>
<path class="st0" d="M104.5,253.4L104.5,253.4c-1,0-1.8,0.8-1.8,1.8l0,0c0,1,0.8,1.8,1.8,1.8l0,0c1,0,1.8-0.8,1.8-1.8l0,0
	C106.2,254.2,105.5,253.4,104.5,253.4z"/>
<path class="st0" d="M108.4,246.6c-1,0-1.8,0.8-1.8,1.8s0.8,1.8,1.8,1.8s1.8-0.8,1.8-1.8l0,0C110.2,247.4,109.4,246.6,108.4,246.6z"
	/>
<path class="st0" d="M108.4,260.1c-1,0-1.8,0.8-1.8,1.8s0.8,1.8,1.8,1.8s1.8-0.8,1.8-1.8S109.4,260.1,108.4,260.1L108.4,260.1z"/>
<path class="st0" d="M96.7,199.2L96.7,199.2c-1,0-1.8,0.8-1.8,1.8l0,0l0,0c0,1,0.8,1.8,1.8,1.8l0,0c1,0,1.8-0.8,1.8-1.7l0,0l0,0
	C98.4,200,97.7,199.2,96.7,199.2L96.7,199.2z"/>
<path class="st0" d="M99.3,195.4c0.7,0.7,1.8,0.7,2.5,0c0.3-0.3,0.5-0.7,0.5-1.2c0-0.2,0-0.3-0.1-0.5L99.3,195.4z"/>
<path class="st0" d="M96.7,212.8L96.7,212.8c-1,0-1.8,0.8-1.8,1.8l0,0l0,0c0,1,0.8,1.8,1.8,1.8l0,0c1,0,1.8-0.8,1.8-1.7l0,0l0,0
	C98.4,213.5,97.6,212.8,96.7,212.8L96.7,212.8z"/>
<path class="st0" d="M100.6,206c-1,0-1.8,0.8-1.8,1.8s0.8,1.8,1.8,1.8s1.8-0.8,1.8-1.8C102.3,206.8,101.6,206,100.6,206L100.6,206z"
	/>
<path class="st0" d="M96.7,226.3L96.7,226.3c-1,0-1.8,0.8-1.8,1.8l0,0l0,0c0,1,0.8,1.8,1.8,1.8l0,0c1,0,1.8-0.8,1.8-1.7l0,0l0,0
	C98.4,227.1,97.7,226.3,96.7,226.3L96.7,226.3z"/>
<path class="st0" d="M100.6,219.5c-1,0-1.8,0.8-1.8,1.8s0.8,1.8,1.8,1.8s1.8-0.8,1.8-1.8C102.3,220.3,101.6,219.5,100.6,219.5
	L100.6,219.5z"/>
<path class="st0" d="M96.7,239.8L96.7,239.8c-1,0-1.8,0.8-1.8,1.8l0,0c0,1,0.8,1.8,1.8,1.8l0,0c1,0,1.8-0.8,1.8-1.7l0,0l0,0
	C98.4,240.6,97.6,239.8,96.7,239.8L96.7,239.8z"/>
<circle class="st0" cx="100.6" cy="234.8" r="1.8"/>
<path class="st0" d="M96.7,253.4L96.7,253.4c-1,0-1.8,0.8-1.8,1.8l0,0c0,1,0.8,1.8,1.8,1.8l0,0c1,0,1.8-0.8,1.8-1.7l0,0l0,0
	C98.4,254.2,97.6,253.4,96.7,253.4L96.7,253.4z"/>
<circle class="st0" cx="100.6" cy="248.4" r="1.8"/>
<path class="st0" d="M100.6,260.1c-0.7,0-1.3,0.4-1.6,1l3,1.8c0.2-0.3,0.3-0.6,0.3-1C102.3,260.9,101.5,260.2,100.6,260.1z"/>
<path class="st0" d="M89.6,201l-0.8,0.4l-1.3,0.7c0.3,0.4,0.8,0.6,1.3,0.6l0,0c1,0,1.8-0.8,1.8-1.8l0,0l0,0c0-0.2,0-0.4-0.1-0.5
	L89.6,201z"/>
<path class="st0" d="M88.8,212.8L88.8,212.8c-1,0-1.8,0.8-1.8,1.8l0,0l0,0c0,1,0.8,1.8,1.8,1.8l0,0l0,0c1,0,1.8-0.8,1.8-1.8l0,0
	C90.6,213.5,89.8,212.8,88.8,212.8C88.9,212.8,88.9,212.8,88.8,212.8z"/>
<path class="st0" d="M92.8,206c-1,0-1.8,0.8-1.8,1.8s0.8,1.8,1.8,1.8s1.8-0.8,1.8-1.8C94.5,206.8,93.7,206,92.8,206L92.8,206z"/>
<path class="st0" d="M88.8,226.3L88.8,226.3c-1,0-1.8,0.8-1.8,1.8l0,0l0,0c0,1,0.8,1.8,1.8,1.8l0,0l0,0c1,0,1.8-0.8,1.8-1.8l0,0
	C90.6,227.1,89.8,226.3,88.8,226.3C88.9,226.3,88.9,226.3,88.8,226.3z"/>
<path class="st0" d="M92.8,219.5c-1,0-1.8,0.8-1.8,1.8s0.8,1.8,1.8,1.8s1.8-0.8,1.8-1.8C94.5,220.3,93.7,219.5,92.8,219.5
	L92.8,219.5z"/>
<path class="st0" d="M88.8,239.8L88.8,239.8c-1,0-1.8,0.8-1.8,1.7l0,0l0,0c0,1,0.8,1.8,1.8,1.8l0,0l0,0c1,0,1.8-0.8,1.8-1.8l0,0
	C90.6,240.6,89.8,239.8,88.8,239.8z"/>
<path class="st0" d="M92.8,233.1c-1,0-1.8,0.8-1.7,1.8c0,1,0.8,1.8,1.8,1.7c1,0,1.7-0.8,1.8-1.8C94.5,233.9,93.7,233.1,92.8,233.1
	L92.8,233.1z"/>
<path class="st0" d="M90.6,255.1c0-1-0.8-1.8-1.8-1.8l0,0c-0.7,0-1.3,0.4-1.6,1l3,1.8C90.4,255.8,90.6,255.5,90.6,255.1L90.6,255.1z
	"/>
<path class="st0" d="M92.8,246.6c-1,0-1.8,0.8-1.7,1.8c0,1,0.8,1.8,1.8,1.7c1,0,1.7-0.8,1.8-1.8C94.5,247.4,93.7,246.6,92.8,246.6
	L92.8,246.6z"/>
<path class="st0" d="M81,212.8L81,212.8c-1,0-1.8,0.8-1.8,1.8l0,0l0,0c0,1,0.8,1.8,1.8,1.8l0,0l0,0c1,0,1.8-0.8,1.8-1.8l0,0
	C82.8,213.5,82,212.8,81,212.8L81,212.8z"/>
<path class="st0" d="M84.9,206c-1,0-1.8,0.8-1.8,1.8s0.8,1.8,1.8,1.8s1.8-0.8,1.8-1.8l0,0C86.7,206.8,85.9,206,84.9,206z"/>
<path class="st0" d="M81,226.3L81,226.3c-1,0-1.8,0.8-1.8,1.8l0,0l0,0c0,1,0.8,1.8,1.8,1.8l0,0l0,0c1,0,1.8-0.8,1.8-1.8l0,0
	C82.8,227.1,82,226.3,81,226.3L81,226.3z"/>
<path class="st0" d="M84.9,219.5c-1,0-1.8,0.8-1.8,1.8s0.8,1.8,1.8,1.8s1.8-0.8,1.8-1.8l0,0C86.7,220.3,85.9,219.5,84.9,219.5z"/>
<path class="st0" d="M81,239.8L81,239.8c-1,0-1.8,0.8-1.8,1.7l0,0l0,0c0,1,0.8,1.8,1.8,1.8l0,0l0,0c1,0,1.8-0.8,1.8-1.8l0,0
	C82.8,240.6,82,239.8,81,239.8L81,239.8z"/>
<circle class="st0" cx="84.9" cy="234.8" r="1.8"/>
<circle class="st0" cx="84.9" cy="248.4" r="1.8"/>
<path class="st0" d="M73.2,212.8L73.2,212.8c-1,0-1.8,0.8-1.8,1.8l0,0l0,0c0,1,0.8,1.8,1.8,1.8l0,0c1,0,1.8-0.8,1.8-1.7l0,0l0,0
	C75,213.5,74.2,212.8,73.2,212.8C73.2,212.7,73.2,212.7,73.2,212.8z"/>
<path class="st0" d="M75.8,208.9c0.7,0.7,1.8,0.8,2.5,0.1c0.4-0.3,0.6-0.8,0.6-1.3c0-0.2,0-0.4-0.1-0.5L75.8,208.9z"/>
<path class="st0" d="M73.2,226.3L73.2,226.3c-1,0-1.8,0.8-1.8,1.8l0,0l0,0c0,1,0.8,1.8,1.8,1.8l0,0c1,0,1.8-0.8,1.8-1.7l0,0l0,0
	C75,227.1,74.2,226.3,73.2,226.3L73.2,226.3z"/>
<path class="st0" d="M77.1,219.5c-1,0-1.8,0.8-1.8,1.8s0.8,1.8,1.8,1.8s1.8-0.8,1.8-1.8l0,0C78.9,220.3,78.1,219.5,77.1,219.5
	L77.1,219.5z"/>
<path class="st0" d="M73.2,239.8L73.2,239.8c-1,0-1.8,0.8-1.8,1.8l0,0c0,1,0.8,1.8,1.8,1.8l0,0c1,0,1.8-0.8,1.8-1.7l0,0l0,0
	C75,240.6,74.2,239.8,73.2,239.8L73.2,239.8z"/>
<path class="st0" d="M77.1,233.1c-1,0-1.8,0.8-1.8,1.8s0.8,1.8,1.8,1.8s1.8-0.8,1.8-1.8l0,0C78.9,233.9,78.1,233.1,77.1,233.1z"/>
<path class="st0" d="M77.1,246.6c-0.7,0-1.3,0.4-1.6,1l3,1.8c0.2-0.3,0.3-0.6,0.3-1C78.8,247.4,78.1,246.6,77.1,246.6z"/>
<path class="st0" d="M66.1,214.5l-0.8,0.4l-1.3,0.8c0.3,0.4,0.8,0.6,1.3,0.6l0,0c1,0,1.8-0.8,1.8-1.7l0,0l0,0c0-0.2,0-0.4-0.1-0.5
	L66.1,214.5z"/>
<path class="st0" d="M65.4,226.3L65.4,226.3c-1,0-1.8,0.8-1.8,1.8l0,0l0,0c0,1,0.8,1.8,1.8,1.8l0,0c1,0,1.8-0.8,1.8-1.7l0,0l0,0
	C67.2,227.1,66.4,226.3,65.4,226.3L65.4,226.3z"/>
<path class="st0" d="M69.3,219.5c-1,0-1.8,0.8-1.8,1.8s0.8,1.8,1.8,1.8s1.8-0.8,1.8-1.8C71.1,220.3,70.3,219.5,69.3,219.5
	L69.3,219.5z"/>
<path class="st0" d="M67.2,241.6c0-1-0.8-1.8-1.8-1.8l0,0l0,0c-0.4,0-0.9,0.2-1.2,0.5c0.9,0.8,1.8,1.5,2.7,2.1
	C67.1,242.2,67.2,241.9,67.2,241.6z"/>
<circle class="st0" cx="69.3" cy="234.8" r="1.8"/>
<path class="st0" d="M57.6,226.3L57.6,226.3c-1,0-1.8,0.8-1.8,1.8l0,0l0,0c0,1,0.8,1.8,1.8,1.8l0,0l0,0c1,0,1.8-0.8,1.8-1.8l0,0
	C59.3,227.1,58.6,226.3,57.6,226.3L57.6,226.3z"/>
<path class="st0" d="M61.5,219.5c-1,0-1.8,0.8-1.8,1.8s0.8,1.8,1.8,1.8s1.8-0.8,1.8-1.8S62.5,219.5,61.5,219.5L61.5,219.5z"/>
<path class="st0" d="M61.5,233.1c-1,0-1.8,0.8-1.7,1.8c0,1,0.8,1.8,1.8,1.7c1,0,1.7-0.8,1.8-1.8C63.3,233.9,62.5,233.1,61.5,233.1
	L61.5,233.1z"/>
<path class="st0" d="M52.4,222.5c0.6,0.7,1.8,0.8,2.5,0.1c0.4-0.3,0.6-0.8,0.6-1.3c0-0.2,0-0.4-0.1-0.5L52.4,222.5z"/>
<polygon class="st0" points="169.6,249.6 169.6,249.6 169.6,260.8 169.6,260.8 "/>
<polygon class="st0" points="169.5,301.9 169.5,301.9 169.5,290 169.5,290 "/>
<polygon class="st0" points="169.7,236.1 169.7,236.1 169.6,247.2 169.6,247.2 "/>
<polygon class="st0" points="169.6,276.5 169.5,287.9 169.5,287.9 "/>
<polygon class="st0" points="169.6,263.1 169.6,263.1 169.6,274.3 169.6,274.3 "/>
<polygon class="st0" points="169.7,222.6 169.7,222.6 169.7,233.6 169.7,233.6 "/>
<polygon class="st0" points="169.9,164.1 169.7,220 169.7,220 "/>
<polygon class="st0" points="169.7,220 169.7,220 169.7,222.6 169.7,222.6 "/>
<polygon class="st0" points="169.7,233.6 169.7,233.6 169.7,236.1 169.7,236.1 "/>
<polygon class="st0" points="169.6,247.2 169.6,247.2 169.6,249.6 169.6,249.6 "/>
<polygon class="st0" points="169.6,260.8 169.6,260.8 169.6,263.1 169.6,263.1 "/>
<polygon class="st0" points="169.6,274.3 169.6,274.3 169.6,276.5 169.6,276.5 "/>
<polygon class="st0" points="169.5,287.9 169.5,290 169.5,290 "/>
<path class="st0" d="M30.5,129.1l-0.7-0.4c-3.8-2.3-8.1-3.5-12.5-3.7c-2.7-0.1-5.3,0.6-7.7,2c-5.4,3.3-8.4,10.1-8.2,19.2
	C1.8,164.8,15,187.4,31,196.7l0.7,0.4c4.9,2.7,9.6,3.9,13.7,3.6l0.2-58.1C41.4,137.1,36.3,132.6,30.5,129.1z M24.3,172.5l-0.4-26.6
	l20,24.2L24.3,172.5z"/>
<path class="st0" d="M60,179.5c-0.2-11.5-5.3-24.5-13-34.9l-0.2,56c1.7-0.3,3.4-0.9,4.9-1.8C57.3,195.5,60.2,188.6,60,179.5z"/>
<path class="st0" d="M45.6,142.6l-0.2,58.1l0.8-0.1l0.2-57.1L45.6,142.6z"/>
<path class="st0" d="M45.6,142.6l-0.9,58.3l3.3-0.4v-54.6L45.6,142.6z"/>
<polygon class="st0" points="206.2,284.7 206.2,284 205.1,284.7 "/>
<path class="st0" d="M204.8,269.8v11.3c0.2-0.2,0.4-0.4,0.7-0.5v-10.2C205.2,270.2,204.9,270,204.8,269.8z"/>
<path class="st0" d="M204.8,242.7V254c0.2-0.2,0.4-0.4,0.7-0.5v-10.2C205.2,243.1,204.9,242.9,204.8,242.7z"/>
<path class="st0" d="M204.8,256.2v11.3c0.2-0.2,0.4-0.4,0.7-0.5v-10.2C205.2,256.7,204.9,256.5,204.8,256.2z"/>
<path class="st0" d="M206.1,256.9c-0.2,0-0.4,0-0.6-0.1V267c0.2-0.1,0.4-0.1,0.6-0.1h0.1v-10H206.1z"/>
<path class="st0" d="M206.1,243.4c-0.2,0-0.4,0-0.6-0.1v10.2c0.2-0.1,0.4-0.1,0.6-0.1h0.1v-10L206.1,243.4z"/>
<path class="st0" d="M206.1,270.4c-0.2,0-0.4,0-0.6-0.1v10.2c0.2-0.1,0.4-0.1,0.6-0.1h0.1v-10H206.1z"/>
<polygon class="st0" points="205.5,240.4 206.1,240.8 206.2,240.9 206.2,100.1 205.5,100.4 "/>
<path class="st0" d="M204.8,240.5c0.1-0.1,0.2-0.2,0.3-0.3l0.4,0.2v-140l-0.7,0.3V240.5z"/>
<polygon class="st0" points="205.5,98.8 206.2,98.5 206.2,88.1 205.5,88.5 "/>
<polygon class="st0" points="204.8,99.1 205.5,98.8 205.5,88.5 204.8,89 "/>
<polygon class="st0" points="205.5,99.6 205.5,100.4 206.2,100.1 206.2,99.3 "/>
<polygon class="st0" points="204.8,100.7 205.5,100.4 205.5,99.6 204.8,99.9 "/>
<polygon class="st0" points="204.8,99.1 204.8,99.9 205.5,99.6 205.5,98.8 "/>
<polygon class="st0" points="205.5,99.6 206.2,99.3 206.2,98.5 205.5,98.8 "/>
<polygon class="st0" points="205.5,88.5 205.5,88.5 206.2,88.1 206.2,88.1 "/>
<polygon class="st0" points="204.8,89 205.5,88.5 205.5,88.5 "/>
<path class="st0" d="M206.1,253.4c-0.2,0-0.4,0-0.6,0.1v3.3c0.2,0.1,0.4,0.1,0.6,0.1h0.1v-3.5H206.1z"/>
<path class="st0" d="M204.8,254v2.2c0.2,0.2,0.4,0.4,0.7,0.5v-3.3C205.2,253.6,204.9,253.8,204.8,254z"/>
<path class="st0" d="M204.8,267.6v2.2c0.2,0.2,0.4,0.4,0.7,0.5V267C205.2,267.1,204.9,267.3,204.8,267.6z"/>
<path class="st0" d="M206.1,266.9c-0.2,0-0.4,0-0.6,0.1v3.3c0.2,0.1,0.4,0.1,0.6,0.1h0.1v-3.5H206.1z"/>
<path class="st0" d="M206.1,280.5c-0.2,0-0.4,0-0.6,0.1v1.3l0.8-0.4v-1H206.1z"/>
<path class="st0" d="M204.8,281.1v1.2l0.7-0.4v-1.3C205.2,280.7,204.9,280.9,204.8,281.1z"/>
<path class="st0" d="M204.8,240.5v2.2c0.2,0.2,0.4,0.4,0.7,0.6v-2.8l-0.4-0.2C204.9,240.3,204.8,240.4,204.8,240.5z"/>
<path class="st0" d="M205.5,240.4v2.8c0.2,0.1,0.4,0.1,0.6,0.1h0.1v-2.5l-0.1-0.1L205.5,240.4z"/>
<polygon class="st0" points="205.5,281.9 205.5,282.5 206.2,282.1 206.2,281.4 "/>
<polygon class="st0" points="204.8,283 205.5,282.5 205.5,281.9 204.8,282.3 "/>
<polygon class="st0" points="197.8,289.6 197.8,289 196.6,289.6 "/>
<path class="st0" d="M196.5,282.2L196.5,282.2c0-0.5,0.2-0.9,0.5-1.2v-11c-0.3-0.3-0.5-0.8-0.5-1.2l0,0c0-0.5,0.2-0.9,0.5-1.2v-11
	c-0.3-0.3-0.5-0.8-0.5-1.2l0,0c0-0.5,0.2-0.9,0.5-1.2v-11c-0.3-0.3-0.5-0.8-0.5-1.2l0,0c0-0.5,0.2-0.9,0.5-1.2v-147l-0.8,0.4v193.3
	l0.8-0.4v-3.3C196.7,283.1,196.5,282.7,196.5,282.2z"/>
<path class="st0" d="M197.1,240.4c0.2-0.2,0.5-0.4,0.8-0.4V93l-0.8,0.4V240.4z"/>
<path class="st0" d="M197.1,283.5v3.3l0.8-0.4V284C197.5,283.8,197.3,283.7,197.1,283.5z"/>
<path class="st0" d="M197.1,281c0.2-0.2,0.5-0.4,0.8-0.4v-10.2c-0.3-0.1-0.5-0.2-0.8-0.4V281z"/>
<path class="st0" d="M197.1,267.4c0.2-0.2,0.5-0.4,0.8-0.4v-10.2c-0.3-0.1-0.5-0.2-0.8-0.4V267.4z"/>
<path class="st0" d="M197.1,253.9c0.2-0.2,0.5-0.4,0.8-0.4v-10.2c-0.3-0.1-0.5-0.2-0.8-0.4V253.9z"/>
<polygon class="st0" points="196.3,93.9 196.3,93.9 197.1,93.4 197.1,93.4 "/>
<polygon class="st0" points="197.1,93.4 197.1,93.4 197.8,93 197.8,93 "/>
<path class="st0" d="M196.5,241.6L196.5,241.6c0,0.5,0.2,0.9,0.5,1.2v-2.5C196.7,240.7,196.5,241.1,196.5,241.6z"/>
<path class="st0" d="M197.1,242.9c0.2,0.2,0.5,0.4,0.8,0.4v-3.4c-0.3,0.1-0.5,0.2-0.8,0.4V242.9z"/>
<path class="st0" d="M196.5,255.1L196.5,255.1c0,0.5,0.2,0.9,0.5,1.3v-2.5C196.7,254.2,196.5,254.7,196.5,255.1z"/>
<path class="st0" d="M197.1,256.4c0.2,0.2,0.5,0.4,0.8,0.4v-3.4c-0.3,0.1-0.5,0.2-0.8,0.4V256.4z"/>
<path class="st0" d="M196.5,268.7L196.5,268.7c0,0.5,0.2,0.9,0.5,1.2v-2.5C196.7,267.8,196.5,268.2,196.5,268.7z"/>
<path class="st0" d="M197.1,269.9c0.2,0.2,0.5,0.4,0.8,0.4V267c-0.3,0.1-0.5,0.2-0.8,0.4V269.9z"/>
<path class="st0" d="M197.1,283.5c0.2,0.2,0.5,0.4,0.8,0.4v-3.4c-0.3,0.1-0.5,0.2-0.8,0.4V283.5z"/>
<path class="st0" d="M196.5,282.2L196.5,282.2c0,0.5,0.2,0.9,0.5,1.2V281C196.7,281.3,196.5,281.8,196.5,282.2z"/>
<polygon class="st0" points="196.3,287.2 196.3,287.9 197.1,287.5 197.1,286.8 "/>
<polygon class="st0" points="197.1,286.8 197.1,287.5 197.8,287.1 197.8,286.3 "/>
<polygon class="st0" points="189.4,294 189.4,293.8 189.1,294 "/>
<path class="st0" d="M187.9,98.7v135c0.3,0.3,0.4,0.7,0.4,1.1c0,0.4-0.1,0.8-0.4,1.1v11.3c0.5,0.6,0.5,1.6,0,2.2v11.3
	c0.5,0.6,0.5,1.6,0,2.2v11.3c0.3,0.3,0.4,0.7,0.4,1.1s-0.1,0.8-0.4,1.1v11.3c0.3,0.3,0.4,0.7,0.4,1.1s-0.1,0.8-0.4,1.1v2l0.8-0.4
	V98.3L187.9,98.7z"/>
<path class="st0" d="M188.7,282.2L188.7,282.2c0-0.6,0.3-1.1,0.7-1.4v-10.7c-0.4-0.3-0.7-0.9-0.7-1.4l0,0c0-0.6,0.3-1.1,0.7-1.4
	v-10.7c-0.4-0.3-0.7-0.9-0.7-1.4l0,0c0-0.6,0.3-1.1,0.7-1.4V243c-0.4-0.3-0.7-0.9-0.7-1.4l0,0c0-0.6,0.3-1.1,0.7-1.4V97.9l-0.8,0.4
	v193.3l0.8-0.4v-7.5C189,283.3,188.7,282.8,188.7,282.2z"/>
<polygon class="st0" points="187.9,98.7 187.9,98.7 188.7,98.3 188.7,98.3 "/>
<polygon class="st0" points="188.7,98.3 188.7,98.3 189.4,97.9 189.4,97.9 "/>
<path class="st0" d="M188.7,241.6L188.7,241.6c0,0.6,0.3,1.1,0.7,1.4v-2.8C189,240.5,188.7,241,188.7,241.6z"/>
<path class="st0" d="M188.7,255.1L188.7,255.1c0,0.6,0.3,1.1,0.7,1.4v-2.8C189,254.1,188.7,254.6,188.7,255.1z"/>
<path class="st0" d="M188.7,268.7L188.7,268.7c0,0.6,0.3,1.1,0.7,1.4v-2.8C189,267.6,188.7,268.1,188.7,268.7z"/>
<path class="st0" d="M188.7,282.2L188.7,282.2c0,0.6,0.3,1.1,0.7,1.4v-2.8C189,281.1,188.7,281.7,188.7,282.2z"/>
<path class="st0" d="M188.3,234.8c0-0.4-0.1-0.8-0.4-1.1v2.2C188.2,235.6,188.3,235.2,188.3,234.8z"/>
<path class="st0" d="M188.3,248.4c0-0.4-0.1-0.8-0.4-1.1v2.2C188.2,249.2,188.3,248.8,188.3,248.4z"/>
<path class="st0" d="M188.3,261.9c0-0.4-0.1-0.8-0.4-1.1v2.2C188.2,262.7,188.3,262.3,188.3,261.9z"/>
<path class="st0" d="M188.3,275.5c0-0.4-0.1-0.8-0.4-1.1v2.2C188.2,276.3,188.3,275.9,188.3,275.5z"/>
<path class="st0" d="M188.3,289c0-0.4-0.1-0.8-0.4-1.1v2.2C188.2,289.8,188.3,289.4,188.3,289z"/>
<polygon class="st0" points="188.7,291.6 188.7,292.4 189.4,292 189.4,291.2 "/>
<polygon class="st0" points="187.9,292.1 187.9,292.9 188.7,292.4 188.7,291.6 "/>
<polygon class="st0" points="179.6,300.3 181.1,300.3 181.1,298.7 179.6,299.5 "/>
<path class="st0" d="M180.3,289.8c-0.2,0.3-0.4,0.6-0.8,0.7v6.4l0.8-0.4V289.8z"/>
<path class="st0" d="M180.3,247.5v-11.9c-0.2,0.3-0.4,0.6-0.8,0.7v10.4C179.9,247,180.1,247.2,180.3,247.5z"/>
<path class="st0" d="M180.3,261.1v-11.9c-0.2,0.3-0.4,0.6-0.8,0.7v10.4C179.9,260.5,180.1,260.8,180.3,261.1z"/>
<path class="st0" d="M180.3,274.6v-11.9c-0.2,0.3-0.4,0.6-0.8,0.7v10.4C179.9,274.1,180.1,274.3,180.3,274.6z"/>
<path class="st0" d="M180.3,288.2v-11.9c-0.2,0.3-0.4,0.6-0.8,0.7v10.4C179.9,287.6,180.1,287.8,180.3,288.2z"/>
<path class="st0" d="M180.9,295.8c0-0.2,0.1-0.5,0.2-0.7V283c-0.1-0.2-0.2-0.5-0.2-0.7l0,0c0-0.2,0.1-0.5,0.2-0.7v-12.1
	c-0.1-0.2-0.2-0.5-0.2-0.7l0,0c0-0.2,0.1-0.5,0.2-0.7V256c-0.1-0.2-0.2-0.5-0.2-0.7l0,0c0-0.2,0.1-0.5,0.2-0.7v-12.1
	c-0.1-0.2-0.2-0.5-0.2-0.7l0,0c0-0.2,0.1-0.5,0.2-0.7V229c-0.1-0.2-0.2-0.5-0.2-0.7l0,0c0-0.2,0.1-0.5,0.2-0.7V102.7l-0.8,0.4V234
	c0.3,0.5,0.3,1.1,0,1.7v11.9c0.3,0.5,0.3,1.1,0,1.7v11.9c0.3,0.5,0.3,1.1,0,1.7v11.9c0.3,0.5,0.3,1.1,0,1.7v11.9
	c0.3,0.5,0.3,1.1,0,1.7v6.7l0.6-0.4C180.9,296,180.9,295.9,180.9,295.8L180.9,295.8z"/>
<path class="st0" d="M180.3,234V103.2l-0.8,0.4v129.7C179.9,233.4,180.1,233.7,180.3,234z"/>
<polygon class="st0" points="180.3,103.2 179.6,103.6 179.6,103.6 "/>
<polygon class="st0" points="180.3,103.2 180.3,103.2 181.1,102.7 181.1,102.7 "/>
<path class="st0" d="M180.9,241.6c0,0.2,0.1,0.5,0.2,0.7v-1.4C180.9,241.1,180.9,241.4,180.9,241.6L180.9,241.6z"/>
<path class="st0" d="M180.9,255.1c0,0.2,0.1,0.5,0.2,0.7v-1.4C180.9,254.7,180.9,254.9,180.9,255.1L180.9,255.1z"/>
<path class="st0" d="M180.9,268.7c0,0.2,0.1,0.5,0.2,0.7V268C180.9,268.2,180.9,268.5,180.9,268.7L180.9,268.7z"/>
<path class="st0" d="M180.9,282.2c0,0.2,0.1,0.5,0.2,0.7v-1.4C180.9,281.7,180.9,282,180.9,282.2z"/>
<path class="st0" d="M180.9,295.8L180.9,295.8c0,0.1,0,0.2,0,0.4l0.1-0.1v-1C180.9,295.3,180.9,295.5,180.9,295.8z"/>
<path class="st0" d="M180.3,235.7V234c-0.2-0.3-0.4-0.6-0.8-0.7v3.1C179.9,236.2,180.1,236,180.3,235.7z"/>
<path class="st0" d="M180.5,234.8c0-0.3-0.1-0.6-0.2-0.8v1.7C180.4,235.4,180.5,235.1,180.5,234.8z"/>
<path class="st0" d="M180.9,228.1c0,0.2,0.1,0.5,0.2,0.7v-1.4C180.9,227.6,180.9,227.8,180.9,228.1L180.9,228.1z"/>
<path class="st0" d="M180.5,248.4c0-0.3-0.1-0.6-0.2-0.8v1.7C180.4,248.9,180.5,248.7,180.5,248.4z"/>
<path class="st0" d="M180.3,249.2v-1.7c-0.2-0.3-0.4-0.6-0.8-0.7v3.1C179.9,249.8,180.1,249.5,180.3,249.2z"/>
<path class="st0" d="M180.3,262.7V261c-0.2-0.3-0.4-0.6-0.8-0.7v3.1C179.9,263.3,180.1,263.1,180.3,262.7z"/>
<path class="st0" d="M180.5,261.9c0-0.3-0.1-0.6-0.2-0.8v1.7C180.4,262.5,180.5,262.2,180.5,261.9z"/>
<path class="st0" d="M180.5,275.5c0-0.3-0.1-0.6-0.2-0.8v1.7C180.4,276,180.5,275.7,180.5,275.5z"/>
<path class="st0" d="M180.3,276.3v-1.7c-0.2-0.3-0.4-0.6-0.8-0.7v3.1C179.9,276.8,180.1,276.6,180.3,276.3z"/>
<path class="st0" d="M180.3,288.2v1.7C180.6,289.3,180.6,288.7,180.3,288.2z"/>
<path class="st0" d="M179.6,287.4v3.1c0.3-0.2,0.6-0.4,0.8-0.7v-1.7C180.1,287.8,179.9,287.6,179.6,287.4z"/>
<polygon class="st0" points="179.6,296.9 179.6,297.8 180.3,297.3 180.3,296.5 "/>
<path class="st0" d="M180.9,296.1l-0.6,0.4v0.8l0.8-0.4v-0.4C181,296.4,181,296.2,180.9,296.1z"/>
<path class="st0" d="M181.1,296.5v-0.4l-0.1,0.1C181,296.2,181,296.4,181.1,296.5z"/>
<path class="st1" d="M160,22l-2.5,1.9l4.2,7.2l2.9-1c1,1.2,2.1,2.4,3.3,3.4l0.2,4.3l6,3.5l0.2-4c1.1,0.3,2.3,0.4,3.5,0.4l2.6,4.2
	l4.2-2.4l-2.2-4.3c0.7-0.9,1.2-2,1.5-3.1l3.5,1.8V27l-3.5-2.2c-0.3-1.6-0.8-3.3-1.4-4.8l2.3-1.8l-4.2-7.2l-2.7,1.2
	c-1.1-1.3-2.2-2.5-3.5-3.6l-0.2-4.2l-6-3.5L168,4.7c-1.1-0.3-2.2-0.4-3.3-0.2L161.8,0l-4.2,2.4l2.4,4.7c-0.6,0.9-1.1,1.9-1.3,3
	l-3.7-2V15l3.8,2.4C159,19,159.4,20.5,160,22z M171.3,14.4c3.4,2.2,5.5,5.9,5.7,10c0,3.6-2.6,5.1-5.7,3.3c-3.4-2.2-5.6-5.9-5.8-9.9
	C165.5,14,168.1,12.6,171.3,14.4L171.3,14.4z"/>
<path class="st1" d="M295.4,201.5l-29.2-16.9l-29,16.9l29.2,16.9L295.4,201.5z M240.1,201.5l26-15.1l26.2,15.1l-26,15.1L240.1,201.5
	z"/>
<g>
	<path class="st1" d="M253,280.5L253,280.5c-1,0-1.8,0.8-1.8,1.7l0,0l0,0c0,1,0.8,1.8,1.7,1.8l0,0l0,0c1,0,1.8-0.8,1.8-1.8l0,0l0,0
		C254.8,281.3,254,280.5,253,280.5L253,280.5z"/>
	<path class="st1" d="M256.9,273.7c-1,0-1.8,0.8-1.7,1.8c0,1,0.8,1.8,1.8,1.8s1.7-0.8,1.8-1.8C258.7,274.5,257.9,273.7,256.9,273.7
		L256.9,273.7z"/>
	<path class="st1" d="M245.2,266.9L245.2,266.9c-1,0-1.8,0.8-1.8,1.7l0,0l0,0c0,1,0.8,1.8,1.8,1.8l0,0l0,0c1,0,1.8-0.8,1.8-1.8l0,0
		l0,0C247,267.7,246.2,266.9,245.2,266.9L245.2,266.9z"/>
	<path class="st1" d="M245.2,280.5L245.2,280.5c-1,0-1.8,0.8-1.8,1.7l0,0l0,0c0,1,0.8,1.8,1.7,1.8l0,0l0,0c1,0,1.8-0.8,1.8-1.8l0,0
		l0,0C247,281.3,246.2,280.5,245.2,280.5L245.2,280.5z"/>
	<path class="st1" d="M249.1,273.7c-1,0-1.8,0.8-1.8,1.8s0.8,1.8,1.8,1.8s1.8-0.8,1.8-1.8S250.1,273.7,249.1,273.7L249.1,273.7z"/>
	<path class="st1" d="M237.4,266.9L237.4,266.9c-1,0-1.8,0.8-1.8,1.8l0,0l0,0c0,1,0.8,1.8,1.8,1.8l0,0l0,0c1,0,1.8-0.8,1.8-1.8l0,0
		l0,0C239.1,267.7,238.4,266.9,237.4,266.9L237.4,266.9z"/>
	<path class="st1" d="M237.4,280.5L237.4,280.5c-1,0-1.8,0.8-1.8,1.8l0,0l0,0c0,1,0.8,1.8,1.8,1.8l0,0l0,0c1,0,1.8-0.8,1.8-1.8l0,0
		l0,0C239.1,281.2,238.4,280.5,237.4,280.5L237.4,280.5z"/>
	<path class="st1" d="M241.3,273.7c-1,0-1.8,0.8-1.8,1.8s0.8,1.8,1.8,1.8s1.8-0.8,1.8-1.8S242.3,273.7,241.3,273.7L241.3,273.7z"/>
	<path class="st1" d="M241.3,287.2c-1,0-1.8,0.8-1.8,1.8s0.8,1.8,1.8,1.8s1.8-0.8,1.8-1.8l0,0C243,288,242.3,287.2,241.3,287.2
		L241.3,287.2z"/>
	<path class="st1" d="M229.6,266.9L229.6,266.9c-1,0-1.8,0.8-1.8,1.8l0,0l0,0c0,1,0.8,1.8,1.8,1.8l0,0l0,0c1,0,1.8-0.8,1.8-1.7l0,0
		l0,0C231.3,267.7,230.5,266.9,229.6,266.9L229.6,266.9z"/>
	<path class="st1" d="M233.5,260.1c-1,0-1.8,0.8-1.7,1.8c0,1,0.8,1.8,1.8,1.7c1,0,1.7-0.8,1.8-1.8
		C235.2,260.9,234.5,260.1,233.5,260.1L233.5,260.1z"/>
	<path class="st1" d="M229.6,280.5L229.6,280.5c-1,0-1.8,0.8-1.8,1.8l0,0l0,0c0,1,0.8,1.8,1.8,1.8l0,0l0,0c1,0,1.8-0.8,1.8-1.7l0,0
		l0,0C231.3,281.2,230.5,280.5,229.6,280.5L229.6,280.5z"/>
	<path class="st1" d="M233.5,273.7c-1,0-1.8,0.8-1.7,1.8c0,1,0.8,1.8,1.8,1.7c1,0,1.7-0.8,1.8-1.8
		C235.2,274.5,234.5,273.7,233.5,273.7L233.5,273.7z"/>
	<path class="st1" d="M229.6,294L229.6,294c-1,0-1.8,0.8-1.8,1.8l0,0l0,0c0,1,0.8,1.8,1.7,1.8l0,0l0,0c1,0,1.8-0.8,1.8-1.8l0,0
		C231.3,294.8,230.5,294,229.6,294L229.6,294z"/>
	<path class="st1" d="M233.5,287.2c-1,0-1.8,0.8-1.8,1.8s0.8,1.8,1.8,1.8s1.8-0.8,1.8-1.8l0,0C235.2,288,234.5,287.2,233.5,287.2
		L233.5,287.2z"/>
	<path class="st1" d="M221.8,253.4L221.8,253.4c-1,0-1.8,0.8-1.8,1.8l0,0c0,1,0.8,1.8,1.8,1.8l0,0c1,0,1.8-0.8,1.8-1.8l0,0
		C223.5,254.2,222.7,253.4,221.8,253.4z"/>
	<path class="st1" d="M221.8,266.9L221.8,266.9c-1,0-1.8,0.8-1.8,1.8l0,0l0,0c0,1,0.8,1.8,1.8,1.8l0,0l0,0c1,0,1.8-0.8,1.8-1.8l0,0
		l0,0C223.5,267.7,222.7,266.9,221.8,266.9L221.8,266.9z"/>
	<path class="st1" d="M225.6,260.1c-1,0-1.8,0.8-1.7,1.8c0,1,0.8,1.8,1.8,1.7c1,0,1.7-0.8,1.8-1.8
		C227.4,260.9,226.6,260.1,225.6,260.1C225.7,260.1,225.7,260.1,225.6,260.1z"/>
	<path class="st1" d="M221.8,280.5L221.8,280.5c-1,0-1.8,0.8-1.8,1.8l0,0l0,0c0,1,0.8,1.8,1.8,1.8l0,0l0,0c1,0,1.8-0.8,1.8-1.8l0,0
		l0,0C223.5,281.2,222.7,280.5,221.8,280.5L221.8,280.5z"/>
	<path class="st1" d="M225.6,273.7c-1,0-1.8,0.8-1.7,1.8c0,1,0.8,1.8,1.8,1.7c1,0,1.7-0.8,1.8-1.8
		C227.4,274.5,226.6,273.7,225.6,273.7C225.7,273.7,225.7,273.7,225.6,273.7z"/>
	<path class="st1" d="M221.8,294L221.8,294c-1,0-1.8,0.8-1.8,1.8l0,0l0,0c0,1,0.8,1.8,1.7,1.8l0,0l0,0c1,0,1.8-0.8,1.8-1.8l0,0l0,0
		C223.5,294.8,222.7,294,221.8,294L221.8,294z"/>
	<path class="st1" d="M225.6,287.2c-1,0-1.8,0.8-1.8,1.8s0.8,1.8,1.8,1.8s1.8-0.8,1.8-1.8l0,0C227.4,288,226.6,287.2,225.6,287.2
		C225.7,287.2,225.7,287.2,225.6,287.2z"/>
	<path class="st1" d="M214.6,253.5l0.2-59.4l5.7,3.3l12.6-7.3l-12.7-7.3l-5.6,3.3l0.2-81.9c0.6,0.6,1.3,1.2,1.9,1.8l0.4,9.8
		l14.9,8.6l0.5-9.2c2.2,0.5,4.4,0.7,6.7,0.6l6.1,9.7l10.7-6.1l-5.1-10c1.3-1.9,2.2-3.9,2.8-6.1l8,4.1l0.1-17.1l-7.9-5.1
		c-0.7-3.4-1.7-6.8-2.9-10.1l5.1-4l-10-17.3l-6.1,2.7c-2.2-2.7-4.7-5.3-7.3-7.6l-0.4-9.5l-14.9-8.6l-0.5,9.5c-2-0.5-4.2-0.6-6.2-0.4
		l-6.5-10.2l-10.6,6.1l5.6,10.8c-1.1,1.7-2,3.6-2.6,5.6l-8.7-4.5v17.1l8.5,5.4c0.1,0.4,0.2,0.8,0.2,1.1l-23.4-13.5h-0.1l-59.4-34.2
		c-6.5-3.8-12.7-4.4-17.4-1.6L53,47.2l0,0l0,0c-4.6,2.7-7.2,8.2-7.2,15.6L45.6,140c-4-4.9-8.9-9.1-14.3-12.3l-0.7-0.4
		c-8.2-4.5-15.9-5.1-21.6-1.6s-9.1,10.9-9,20.6c0.3,19.4,13.6,42.1,30.3,51.7l0.7,0.4c4,2.4,8.5,3.7,13.2,3.9c0.4,0,0.8,0,1.2-0.1
		v2.4c0,12.9,7.8,28.3,18.3,37.1c0.1,0.9,0.8,1.6,1.7,1.6l0,0h0.2c1.1,0.8,2.2,1.6,3.4,2.3l6.8,3.9c0.3,0.3,0.6,0.5,1,0.6l10.8,6.2
		c0.3,0.3,0.6,0.5,1,0.6l10.8,6.2c0.3,0.3,0.6,0.5,1,0.6l10.7,6.2c0.3,0.3,0.6,0.5,1,0.6l10.8,6.2c0.3,0.3,0.6,0.5,1,0.6l10.8,6.2
		c0.3,0.3,0.6,0.5,1,0.6l10.8,6.2c0.3,0.3,0.6,0.5,1,0.6l10.8,6.2c0.3,0.3,0.6,0.5,1,0.6l12.1,7l8.6-5l1.5-0.9l2.1-1.2
		c0.3-0.1,0.6-0.2,0.8-0.5l5.1-3l0.4-0.2l5.3-3.1c0.4-0.1,0.7-0.3,0.9-0.5l0.9-0.5l1.2-0.7l7.3-4.2l1.1-0.7l0.2-0.1
		c0.4-0.1,0.7-0.3,1-0.6l6.9-4l0.1-1.1c0.1-0.1,0.1-0.2,0.1-0.4v-7.6c0.7-0.3,1.1-0.9,1.1-1.6l0,0c0-0.7-0.4-1.4-1.1-1.6v-10.3
		c0.6-0.3,1.1-0.9,1.1-1.6l0,0C215.7,254.4,215.3,253.8,214.6,253.5z M148.9,290l-3-1.8l-8.7-5l-3-1.8l-8.7-5l-3-1.8l-8.7-5l-3-1.8
		l-8.7-5l-3-1.8l-8.7-5l-3-1.8l-8.7-5l-3-1.8l-5.7-3.3c-1-0.6-1.9-1.2-2.9-1.9c-0.9-0.7-1.8-1.4-2.7-2.1
		c-10-8.6-17.3-23.3-17.3-35.6v-2.6c2-0.3,3.9-1,5.7-2c5.9-3.6,9.1-10.9,8.9-20.6c-0.2-12.6-5.9-26.6-14.5-37.5L47.5,63
		c0-6.9,2.3-12,6.5-14.3c1.7-1,3.6-1.6,5.5-1.6c3.6,0.1,7.1,1.2,10.1,3.1L128,83.8l-0.1,0.1l-0.3,115.3v3.4v9.5l4.3-2.7l1.6-1
		l7.7-4.8l13.5,24.1v-4.9v-3.2L155,99.5h0.1l15,8.7l-0.2,56l-0.2,55.8v2.5v11v2.5v11.1v2.4v11.2v2.3v11.3v2.2v11.4v2.1v11.9l0,0
		l-8.9-5.1l-3-1.8L148.9,290z M9.7,127.1c2.3-1.4,5-2.1,7.7-2c4.4,0.2,8.7,1.4,12.5,3.7l0.7,0.4c5.8,3.5,10.9,8.1,15.1,13.5l0.8,1
		l0.7,1C54.7,155,59.8,168,60,179.5c0.1,9.1-2.8,16-8.2,19.2c-1.5,0.9-3.2,1.5-4.9,1.8l-0.8,0.1l-0.8,0.1c-4.1,0.3-8.8-0.9-13.7-3.6
		l-0.7-0.4c-16-9.2-29.2-31.8-29.5-50.4C1.4,137.2,4.3,130.3,9.7,127.1z M198,69.5l-0.1-0.3l-8.4-5.4V50l8.2,4.2l0.2-0.9
		c0.6-2.3,1.5-4.5,2.9-6.4l0.3-0.4l-5.3-10.3l8.2-4.6l6.2,9.8l0.5-0.1c2.3-0.3,4.7-0.1,7,0.5l0.9,0.3l0.5-8.9l12.1,7l0.4,9.4
		l0.2,0.2c2.8,2.5,5.4,5.2,7.7,8.1l0.4,0.4l5.9-2.6l8.7,15l-5,3.9l0.2,0.5c1.3,3.5,2.4,7,3.1,10.7l0.1,0.3l7.7,5V105l-7.6-3.9
		l-0.2,0.9c-0.6,2.4-1.6,4.8-3.1,6.8l-0.3,0.4l4.9,9.5l-8.1,4.6l-5.8-9.2H240c-2.5,0.2-5.1-0.1-7.5-0.8l-0.9-0.3l-0.5,8.7l-12.1-7
		l-0.4-9.6l-0.2-0.2c-1.1-1-2.2-2-3.2-3l0.1-19l0.2-0.1c2.3,4.2,5.6,7.7,9.7,10.3c1.8,1.2,3.9,1.9,6.1,2c1.3,0,2.6-0.3,3.7-1
		c2.6-1.5,4.1-4.7,4.1-8.9c0-8.6-5.8-18.8-13.1-23c-3.7-2.2-7.3-2.5-10-0.9s-4.2,4.8-4.2,9c0.1,3.9,1.1,7.8,3,11.2
		c-0.1,0-0.2,0-0.2,0l-13.9-8h0.1l-1.9-1.1C198.3,71.4,198.1,70.5,198,69.5z M204.8,283V89l0,0l0.7-0.4l0.8-0.4l0,0v194l-0.8,0.4
		L204.8,283z M213.1,70.3c0-3.7,1.2-6.5,3.4-7.7s5.3-1,8.5,0.9c6.9,4,12.4,13.7,12.4,21.7c0,3.7-1.2,6.3-3.4,7.6s-5.1,0.9-8.3-0.9
		C218.8,87.8,213.1,78,213.1,70.3L213.1,70.3z M95.2,34.5l58.9,34.3l-6.6,3.8l-59-34.1L95.2,34.5z M164.5,94l14.1,8.1l-7.9,4.6
		l-14.1-8.1L164.5,94z M173.1,89l14,8.1l-7,4.1l-14-8.1L173.1,89z M188.4,96.3l0.1-0.2l-13.9-8l6.5-3.7l13.9,8.2L188.4,96.3z
		 M87,39.4l59,34.1l-7.1,4.1l-59-34L87,39.4z M78.4,44.4l59,34l-7.9,4.6L70.7,49L78.4,44.4z M198.4,74.5l0.5-0.3l0.3,0.2l13.6,7.8
		l-7.1,4.1l-7.4-4.2l-0.7-0.4l-0.7-0.4l-5.2-3l6-3.4L198.4,74.5z M195.6,82.3l0.7,0.4l0.7,0.4l7.1,4.1l-5,2.9l-0.6,0.4l-0.6,0.4
		l-1.4,0.8l-13.9-8.1l7.6-4.4L195.6,82.3z M155.6,68L96.7,33.7l7-4.1l59.4,34.1L155.6,68z M179.5,297V103.6l0,0l0.8-0.4l0.8-0.4l0,0
		V297l-0.8,0.4l-0.8,0.4V297z M187.9,292.1V98.7l0,0l0.8-0.4l0.8-0.4l0,0V292l-0.8,0.4l-0.8,0.4V292.1z M196.3,287.3V93.9l0,0
		l0.8-0.4l0.8-0.4l0,0v194.1l-0.8,0.4l-0.8,0.4V287.3z M164.6,62.8l-59.4-34.1l7.2-4.3l0.7,0.4l58.6,33.8L164.6,62.8z"/>
	<path class="st1" d="M217.8,260.1c-1,0-1.8,0.8-1.8,1.8s0.8,1.8,1.8,1.8s1.8-0.8,1.8-1.8S218.8,260.1,217.8,260.1L217.8,260.1z"/>
	<path class="st1" d="M213.9,280.5L213.9,280.5c-1,0-1.8,0.8-1.8,1.7l0,0l0,0c0,1,0.8,1.8,1.8,1.8l0,0l0,0c1,0,1.8-0.8,1.8-1.8l0,0
		l0,0C215.7,281.2,214.9,280.5,213.9,280.5L213.9,280.5z"/>
	<path class="st1" d="M217.8,273.7c-1,0-1.8,0.8-1.8,1.8s0.8,1.8,1.8,1.8s1.8-0.8,1.8-1.8S218.8,273.7,217.8,273.7L217.8,273.7z"/>
	<path class="st1" d="M213.9,294L213.9,294c-1,0-1.8,0.8-1.8,1.7l0,0l0,0c0,1,0.8,1.8,1.8,1.8l0,0c1,0,1.8-0.8,1.8-1.8l0,0l0,0
		C215.7,294.8,214.9,294,213.9,294L213.9,294z"/>
	<path class="st1" d="M217.8,287.2c-1,0-1.8,0.8-1.8,1.8s0.8,1.8,1.8,1.8s1.8-0.8,1.8-1.8l0,0C219.6,288,218.8,287.2,217.8,287.2
		L217.8,287.2z"/>
	<path class="st1" d="M217.8,300.8c-1,0-1.8,0.8-1.8,1.8s0.8,1.8,1.8,1.8s1.8-0.8,1.8-1.8l0,0C219.6,301.6,218.8,300.8,217.8,300.8
		L217.8,300.8z"/>
	<path class="st1" d="M206.1,294L206.1,294c-1,0-1.8,0.8-1.8,1.8l0,0l0,0c0,1,0.8,1.8,1.7,1.8l0,0l0,0c1,0,1.8-0.8,1.8-1.8l0,0l0,0
		C207.9,294.8,207.1,294,206.1,294L206.1,294z"/>
	<path class="st1" d="M210,287.2c-1,0-1.8,0.8-1.8,1.8s0.8,1.8,1.8,1.8s1.8-0.8,1.8-1.8l0,0C211.8,288,211,287.2,210,287.2
		L210,287.2z"/>
	<path class="st1" d="M206.1,307.5L206.1,307.5c-1,0-1.8,0.8-1.8,1.8l0,0l0,0c0,1,0.8,1.8,1.7,1.8l0,0l0,0c1,0,1.8-0.8,1.8-1.8l0,0
		l0,0C207.9,308.3,207.1,307.5,206.1,307.5L206.1,307.5z"/>
	<path class="st1" d="M210,300.8c-1,0-1.8,0.8-1.8,1.8s0.8,1.8,1.8,1.8s1.8-0.8,1.8-1.8l0,0C211.8,301.6,211,300.8,210,300.8
		L210,300.8z"/>
	<path class="st1" d="M198.3,294L198.3,294c-1,0-1.8,0.8-1.8,1.8l0,0l0,0c0,1,0.8,1.8,1.7,1.8l0,0l0,0c1,0,1.8-0.8,1.8-1.8l0,0
		C200.1,294.8,199.3,294,198.3,294L198.3,294z"/>
	<path class="st1" d="M202.2,287.2c-1,0-1.8,0.8-1.7,1.8c0,1,0.8,1.8,1.8,1.7c1,0,1.7-0.8,1.7-1.8C204,288,203.2,287.2,202.2,287.2
		L202.2,287.2z"/>
	<path class="st1" d="M198.3,307.5L198.3,307.5c-1,0-1.8,0.8-1.8,1.8l0,0l0,0c0,1,0.8,1.8,1.7,1.8l0,0l0,0c1,0,1.8-0.8,1.8-1.8l0,0
		C200.1,308.3,199.3,307.5,198.3,307.5L198.3,307.5z"/>
	<path class="st1" d="M202.2,300.8c-1,0-1.8,0.8-1.8,1.8s0.8,1.8,1.8,1.8s1.8-0.8,1.8-1.8l0,0C204,301.6,203.2,300.8,202.2,300.8
		L202.2,300.8z"/>
	<path class="st1" d="M190.5,294L190.5,294c-1,0-1.8,0.8-1.8,1.8l0,0l0,0c0,1,0.8,1.8,1.7,1.8l0,0l0,0c1,0,1.8-0.8,1.8-1.8l0,0
		C192.2,294.8,191.5,294,190.5,294L190.5,294z"/>
	<path class="st1" d="M190.5,307.5L190.5,307.5c-1,0-1.8,0.8-1.8,1.8l0,0l0,0c0,1,0.8,1.8,1.7,1.8l0,0l0,0c1,0,1.8-0.8,1.8-1.8l0,0
		C192.2,308.3,191.5,307.5,190.5,307.5L190.5,307.5z"/>
	<path class="st1" d="M194.4,300.8c-1,0-1.8,0.8-1.8,1.8s0.8,1.8,1.8,1.8s1.8-0.8,1.8-1.8l0,0C196.2,301.6,195.4,300.8,194.4,300.8
		L194.4,300.8z"/>
	<path class="st1" d="M194.4,314.3c-1,0-1.8,0.8-1.8,1.8s0.8,1.8,1.8,1.8s1.8-0.8,1.8-1.8l0,0C196.2,315.1,195.4,314.3,194.4,314.3
		L194.4,314.3z"/>
	<path class="st1" d="M182.7,307.5L182.7,307.5c-1,0-1.8,0.8-1.8,1.7l0,0l0,0c0,1,0.8,1.8,1.8,1.8l0,0c1,0,1.8-0.8,1.8-1.8l0,0l0,0
		C184.4,308.3,183.6,307.5,182.7,307.5L182.7,307.5z"/>
	<path class="st1" d="M186.6,300.8c-1,0-1.8,0.8-1.8,1.8s0.8,1.8,1.8,1.8s1.8-0.8,1.8-1.8l0,0C188.3,301.6,187.5,300.8,186.6,300.8
		L186.6,300.8z"/>
	<path class="st1" d="M182.7,321.1L182.7,321.1c-1,0-1.8,0.8-1.8,1.7l0,0l0,0c0,1,0.8,1.8,1.8,1.8l0,0c1,0,1.8-0.8,1.8-1.8l0,0l0,0
		C184.4,321.9,183.6,321.1,182.7,321.1L182.7,321.1z"/>
	<path class="st1" d="M186.6,314.3c-1,0-1.8,0.8-1.8,1.8s0.8,1.8,1.8,1.8s1.8-0.8,1.8-1.8l0,0C188.3,315.1,187.5,314.3,186.6,314.3
		L186.6,314.3z"/>
	<path class="st1" d="M174.8,307.5L174.8,307.5c-1,0-1.8,0.8-1.8,1.8l0,0l0,0c0,1,0.8,1.8,1.7,1.8l0,0l0,0c1,0,1.8-0.8,1.8-1.8l0,0
		l0,0C176.6,308.3,175.8,307.5,174.8,307.5L174.8,307.5z"/>
	<path class="st1" d="M178.8,300.8c-1,0-1.8,0.8-1.8,1.8s0.8,1.8,1.8,1.8s1.8-0.8,1.8-1.8l0,0C180.5,301.6,179.7,300.8,178.8,300.8
		L178.8,300.8z"/>
	<path class="st1" d="M174.8,321.1L174.8,321.1c-1,0-1.8,0.8-1.8,1.8l0,0l0,0c0,1,0.8,1.8,1.7,1.8l0,0l0,0c1,0,1.8-0.8,1.8-1.8l0,0
		l0,0C176.6,321.9,175.8,321.1,174.8,321.1L174.8,321.1z"/>
	<path class="st1" d="M178.8,314.3c-1,0-1.8,0.8-1.8,1.8s0.8,1.8,1.8,1.8s1.8-0.8,1.8-1.8l0,0C180.5,315.1,179.7,314.3,178.8,314.3
		L178.8,314.3z"/>
	<path class="st1" d="M167,307.5L167,307.5c-1,0-1.8,0.8-1.8,1.8l0,0l0,0c0,1,0.8,1.8,1.7,1.8l0,0l0,0c1,0,1.8-0.8,1.8-1.8l0,0
		C168.8,308.3,168,307.5,167,307.5L167,307.5z"/>
	<path class="st1" d="M167,321.1L167,321.1c-1,0-1.8,0.8-1.8,1.8l0,0l0,0c0,1,0.8,1.8,1.7,1.8l0,0l0,0c1,0,1.8-0.8,1.8-1.8l0,0
		C168.8,321.9,168,321.1,167,321.1L167,321.1z"/>
	<path class="st1" d="M170.9,314.3c-1,0-1.8,0.8-1.8,1.8s0.8,1.8,1.8,1.8s1.8-0.8,1.8-1.8l0,0C172.7,315.1,171.9,314.3,170.9,314.3
		L170.9,314.3z"/>
	<path class="st1" d="M170.9,327.9c-1,0-1.8,0.8-1.8,1.8s0.8,1.8,1.8,1.8s1.8-0.8,1.8-1.8l0,0C172.7,328.6,171.9,327.9,170.9,327.9
		L170.9,327.9z"/>
	<path class="st1" d="M159.2,307.5L159.2,307.5c-1,0-1.8,0.8-1.8,1.8l0,0l0,0c0,1,0.8,1.8,1.7,1.8l0,0l0,0c1,0,1.8-0.8,1.8-1.7l0,0
		l0,0C161,308.3,160.2,307.5,159.2,307.5L159.2,307.5z"/>
	<path class="st1" d="M163.1,300.8c-1,0-1.8,0.8-1.8,1.8s0.8,1.8,1.8,1.8s1.8-0.8,1.8-1.8l0,0C164.9,301.6,164.1,300.8,163.1,300.8
		L163.1,300.8z"/>
	<path class="st1" d="M159.2,321.1L159.2,321.1c-1,0-1.8,0.8-1.8,1.8l0,0l0,0c0,1,0.8,1.8,1.7,1.8l0,0l0,0c1,0,1.8-0.8,1.8-1.8l0,0
		C161,321.9,160.2,321.1,159.2,321.1L159.2,321.1z"/>
	<path class="st1" d="M163.1,314.3c-1,0-1.8,0.8-1.8,1.8s0.8,1.8,1.8,1.8s1.8-0.8,1.8-1.8l0,0C164.9,315.1,164.1,314.3,163.1,314.3
		L163.1,314.3z"/>
	<circle class="st1" cx="163.1" cy="329.6" r="1.8"/>
	<path class="st1" d="M151.4,294L151.4,294c-1,0-1.8,0.8-1.8,1.7l0,0l0,0c0,1,0.8,1.8,1.8,1.8l0,0c1,0,1.8-0.8,1.8-1.8l0,0l0,0
		C153.1,294.8,152.4,294,151.4,294L151.4,294z"/>
	<path class="st1" d="M151.4,307.5L151.4,307.5c-1,0-1.8,0.8-1.8,1.7l0,0l0,0c0,1,0.8,1.8,1.8,1.8l0,0c1,0,1.8-0.8,1.8-1.8l0,0l0,0
		C153.1,308.3,152.4,307.5,151.4,307.5L151.4,307.5z"/>
	<path class="st1" d="M155.3,300.8c-1,0-1.8,0.8-1.8,1.8s0.8,1.8,1.8,1.8s1.8-0.8,1.8-1.8l0,0C157.1,301.6,156.3,300.8,155.3,300.8
		L155.3,300.8z"/>
	<path class="st1" d="M151.4,321.1L151.4,321.1c-1,0-1.8,0.8-1.8,1.7l0,0l0,0c0,1,0.8,1.8,1.8,1.8l0,0c1,0,1.8-0.8,1.8-1.8l0,0l0,0
		C153.1,321.9,152.4,321.1,151.4,321.1L151.4,321.1z"/>
	<path class="st1" d="M155.3,314.3c-1,0-1.8,0.8-1.8,1.8s0.8,1.8,1.8,1.8s1.8-0.8,1.8-1.8l0,0C157.1,315.1,156.3,314.3,155.3,314.3
		L155.3,314.3z"/>
	<path class="st1" d="M155.3,327.9c-1,0-1.8,0.8-1.8,1.7l0,0c0,0.3,0.1,0.6,0.2,0.9l1.6,0.9c1,0,1.8-0.8,1.8-1.8
		S156.3,327.9,155.3,327.9L155.3,327.9z"/>
	<path class="st1" d="M143.6,294L143.6,294c-1,0-1.8,0.8-1.8,1.7l0,0l0,0c0,1,0.8,1.8,1.8,1.8l0,0c1,0,1.8-0.8,1.8-1.8l0,0l0,0
		C145.3,294.8,144.5,294,143.6,294L143.6,294z"/>
	<path class="st1" d="M143.6,307.5L143.6,307.5c-1,0-1.8,0.8-1.8,1.7l0,0l0,0c0,1,0.8,1.8,1.8,1.8l0,0c1,0,1.8-0.8,1.8-1.8l0,0l0,0
		C145.3,308.3,144.5,307.5,143.6,307.5L143.6,307.5z"/>
	<path class="st1" d="M147.5,300.8c-1,0-1.8,0.8-1.8,1.8s0.8,1.8,1.8,1.8s1.8-0.8,1.8-1.8l0,0C149.2,301.6,148.5,300.8,147.5,300.8
		L147.5,300.8z"/>
	<path class="st1" d="M143.6,321.1L143.6,321.1c-1,0-1.8,0.8-1.8,1.7l0,0l0,0c0,0.3,0.1,0.6,0.2,0.9l1.5,0.9l0,0
		c1,0,1.7-0.8,1.7-1.8l0,0C145.3,321.9,144.5,321.1,143.6,321.1z"/>
	<path class="st1" d="M147.5,314.3c-1,0-1.8,0.8-1.8,1.8s0.8,1.8,1.8,1.8s1.8-0.8,1.8-1.8l0,0C149.2,315.1,148.5,314.3,147.5,314.3
		L147.5,314.3z"/>
	<path class="st1" d="M135.8,294L135.8,294c-1,0-1.8,0.8-1.8,1.8l0,0l0,0c0,1,0.8,1.8,1.7,1.8l0,0l0,0c1,0,1.8-0.8,1.8-1.8l0,0
		C137.5,294.8,136.7,294,135.8,294L135.8,294z"/>
	<path class="st1" d="M139.7,287.2c-1,0-1.8,0.8-1.8,1.8s0.8,1.8,1.8,1.8s1.8-0.8,1.8-1.8l0,0C141.4,288,140.6,287.2,139.7,287.2
		L139.7,287.2z"/>
	<path class="st1" d="M135.8,307.5L135.8,307.5c-1,0-1.8,0.8-1.8,1.8l0,0c0,1,0.8,1.8,1.7,1.8l0,0l0,0c1,0,1.8-0.8,1.8-1.8l0,0
		C137.5,308.3,136.7,307.5,135.8,307.5L135.8,307.5z"/>
	<path class="st1" d="M139.7,300.8c-1,0-1.8,0.8-1.8,1.8s0.8,1.8,1.8,1.8s1.8-0.8,1.8-1.8l0,0C141.4,301.6,140.6,300.8,139.7,300.8
		L139.7,300.8z"/>
	<path class="st1" d="M139.7,314.3c-1,0-1.8,0.8-1.8,1.8s0.8,1.8,1.8,1.8s1.8-0.8,1.8-1.8l0,0C141.4,315.1,140.6,314.3,139.7,314.3
		L139.7,314.3z"/>
	<path class="st1" d="M127.9,280.5L127.9,280.5c-1,0-1.8,0.8-1.8,1.8l0,0l0,0c0,1,0.8,1.8,1.8,1.8l0,0l0,0c1,0,1.8-0.8,1.8-1.7l0,0
		l0,0C129.7,281.2,128.9,280.5,127.9,280.5L127.9,280.5z"/>
	<path class="st1" d="M127.9,294L127.9,294c-1,0-1.8,0.8-1.8,1.8l0,0l0,0c0,1,0.8,1.8,1.7,1.8l0,0l0,0c1,0,1.8-0.8,1.8-1.8l0,0
		C129.7,294.8,128.9,294,127.9,294L127.9,294z"/>
	<path class="st1" d="M131.8,287.2c-1,0-1.8,0.8-1.8,1.8s0.8,1.8,1.8,1.8s1.8-0.8,1.8-1.8l0,0C133.6,288,132.8,287.2,131.8,287.2
		L131.8,287.2z"/>
	<path class="st1" d="M127.9,307.5L127.9,307.5c-1,0-1.8,0.8-1.8,1.8l0,0l0,0c0,1,0.8,1.8,1.7,1.8l0,0l0,0c1,0,1.8-0.8,1.8-1.8l0,0
		C129.7,308.3,128.9,307.5,127.9,307.5L127.9,307.5z"/>
	<path class="st1" d="M131.8,300.8c-1,0-1.8,0.8-1.8,1.8s0.8,1.8,1.8,1.8s1.8-0.8,1.8-1.8l0,0C133.6,301.6,132.8,300.8,131.8,300.8
		L131.8,300.8z"/>
	<path class="st1" d="M131.8,314.3c-1,0-1.8,0.8-1.8,1.7c0,0.3,0.1,0.6,0.2,0.9l1.5,0.9c1,0,1.8-0.8,1.8-1.8
		C133.6,315.1,132.8,314.3,131.8,314.3L131.8,314.3z"/>
	<path class="st1" d="M120.1,280.5L120.1,280.5c-1,0-1.8,0.8-1.8,1.7l0,0l0,0c0,1,0.8,1.8,1.8,1.8l0,0l0,0c1,0,1.8-0.8,1.8-1.8l0,0
		l0,0C121.9,281.2,121.1,280.5,120.1,280.5L120.1,280.5z"/>
	<path class="st1" d="M120.1,294L120.1,294c-1,0-1.8,0.8-1.8,1.7l0,0l0,0c0,1,0.8,1.8,1.8,1.8l0,0c1,0,1.8-0.8,1.8-1.8l0,0l0,0
		C121.9,294.8,121.1,294,120.1,294L120.1,294z"/>
	<path class="st1" d="M124,287.2c-1,0-1.8,0.8-1.8,1.8s0.8,1.8,1.8,1.8s1.8-0.8,1.8-1.8l0,0C125.8,288,125,287.2,124,287.2
		L124,287.2z"/>
	<path class="st1" d="M120.1,307.5L120.1,307.5c-1,0-1.8,0.8-1.8,1.7l0,0l0,0c0,0.3,0.1,0.6,0.2,0.9l1.5,0.9l0,0
		c1,0,1.8-0.8,1.8-1.8l0,0l0,0C121.9,308.3,121.1,307.5,120.1,307.5L120.1,307.5z"/>
	<path class="st1" d="M124,300.8c-1,0-1.8,0.8-1.8,1.8s0.8,1.8,1.8,1.8s1.8-0.8,1.8-1.8l0,0C125.8,301.6,125,300.8,124,300.8
		L124,300.8z"/>
	<path class="st1" d="M112.3,280.5L112.3,280.5c-1,0-1.8,0.8-1.8,1.7l0,0l0,0c0,1,0.8,1.8,1.7,1.8l0,0l0,0c1,0,1.8-0.8,1.8-1.8l0,0
		l0,0C114.1,281.3,113.3,280.5,112.3,280.5L112.3,280.5z"/>
	<path class="st1" d="M116.2,273.7c-1,0-1.8,0.8-1.8,1.8s0.8,1.8,1.8,1.8s1.8-0.8,1.8-1.8S117.2,273.7,116.2,273.7L116.2,273.7z"/>
	<path class="st1" d="M112.3,294L112.3,294c-1,0-1.8,0.8-1.8,1.7l0,0l0,0c0,1,0.8,1.8,1.8,1.8l0,0c1,0,1.8-0.8,1.8-1.8l0,0l0,0
		C114.1,294.8,113.3,294,112.3,294L112.3,294z"/>
	<path class="st1" d="M116.2,287.2c-1,0-1.8,0.8-1.7,1.8s0.8,1.8,1.8,1.7c1,0,1.7-0.8,1.8-1.8C118,288,117.2,287.2,116.2,287.2
		L116.2,287.2z"/>
	<path class="st1" d="M116.2,300.8c-1,0-1.8,0.8-1.8,1.8s0.8,1.8,1.8,1.8s1.8-0.8,1.8-1.8l0,0C118,301.6,117.2,300.8,116.2,300.8
		L116.2,300.8z"/>
	<path class="st1" d="M104.5,266.9L104.5,266.9c-1,0-1.8,0.8-1.8,1.8l0,0l0,0c0,1,0.8,1.8,1.8,1.8l0,0l0,0c1,0,1.8-0.8,1.8-1.8l0,0
		l0,0C106.2,267.7,105.5,266.9,104.5,266.9L104.5,266.9z"/>
	<path class="st1" d="M104.5,280.5L104.5,280.5c-1,0-1.8,0.8-1.8,1.8l0,0l0,0c0,1,0.8,1.8,1.8,1.8l0,0l0,0c1,0,1.8-0.8,1.8-1.8l0,0
		l0,0C106.2,281.2,105.5,280.5,104.5,280.5L104.5,280.5z"/>
	<path class="st1" d="M108.4,273.7c-1,0-1.8,0.8-1.8,1.8s0.8,1.8,1.8,1.8s1.8-0.8,1.8-1.8S109.4,273.7,108.4,273.7L108.4,273.7z"/>
	<path class="st1" d="M104.5,294L104.5,294c-1,0-1.8,0.8-1.8,1.8l0,0l0,0c0,1,0.8,1.8,1.7,1.8l0,0l0,0c1,0,1.8-0.8,1.8-1.8l0,0l0,0
		C106.2,294.8,105.5,294,104.5,294L104.5,294z"/>
	<path class="st1" d="M108.4,287.2c-1,0-1.8,0.8-1.8,1.8s0.8,1.8,1.8,1.8s1.8-0.8,1.8-1.8l0,0C110.2,288,109.4,287.2,108.4,287.2
		L108.4,287.2z"/>
	<path class="st1" d="M108.4,300.8c-1,0-1.8,0.8-1.8,1.8c0,0.3,0.1,0.6,0.3,0.9l1.5,0.9l0,0c1-0.1,1.7-0.9,1.6-1.9
		C109.9,301.5,109.2,300.8,108.4,300.8L108.4,300.8z"/>
	<path class="st1" d="M96.7,266.9L96.7,266.9c-1,0-1.8,0.8-1.8,1.8l0,0l0,0c0,1,0.8,1.8,1.8,1.8l0,0l0,0c1,0,1.8-0.8,1.8-1.7l0,0
		l0,0C98.4,267.7,97.6,266.9,96.7,266.9L96.7,266.9z"/>
	<path class="st1" d="M96.7,280.5L96.7,280.5c-1,0-1.8,0.8-1.8,1.8l0,0l0,0c0,1,0.8,1.8,1.7,1.8l0,0l0,0c1,0,1.8-0.8,1.8-1.7l0,0
		l0,0C98.4,281.3,97.7,280.5,96.7,280.5L96.7,280.5z"/>
	<path class="st1" d="M100.6,273.7c-1,0-1.8,0.8-1.7,1.8c0,1,0.8,1.8,1.8,1.7c1,0,1.7-0.8,1.8-1.8
		C102.3,274.5,101.6,273.7,100.6,273.7L100.6,273.7z"/>
	<path class="st1" d="M96.7,294L96.7,294c-1,0-1.8,0.8-1.8,1.8l0,0l0,0c0,0.3,0.1,0.6,0.3,0.9l1.5,0.8l0,0c1,0,1.8-0.8,1.8-1.8l0,0
		C98.4,294.8,97.6,294,96.7,294z"/>
	<path class="st1" d="M100.6,287.2c-1,0-1.8,0.8-1.8,1.8s0.8,1.8,1.8,1.8s1.8-0.8,1.8-1.8l0,0C102.3,288,101.6,287.2,100.6,287.2
		L100.6,287.2z"/>
	<path class="st1" d="M88.8,266.9L88.8,266.9c-1,0-1.8,0.8-1.8,1.7l0,0l0,0c0,1,0.8,1.8,1.8,1.8l0,0l0,0c1,0,1.8-0.8,1.8-1.8l0,0
		l0,0C90.6,267.7,89.8,266.9,88.8,266.9C88.9,266.9,88.9,266.9,88.8,266.9z"/>
	<path class="st1" d="M92.8,260.1c-1,0-1.8,0.8-1.7,1.8c0,1,0.8,1.8,1.8,1.7c1,0,1.7-0.8,1.8-1.8C94.5,260.9,93.7,260.1,92.8,260.1
		L92.8,260.1z"/>
	<path class="st1" d="M88.8,280.5L88.8,280.5c-1,0-1.8,0.8-1.8,1.7l0,0l0,0c0,1,0.8,1.8,1.7,1.8l0,0l0,0c1,0,1.8-0.8,1.8-1.8l0,0
		l0,0C90.6,281.3,89.8,280.5,88.8,280.5C88.9,280.5,88.9,280.5,88.8,280.5z"/>
	<path class="st1" d="M92.8,273.7c-1,0-1.8,0.8-1.7,1.8c0,1,0.8,1.8,1.8,1.7c1,0,1.7-0.8,1.8-1.8C94.5,274.5,93.7,273.7,92.8,273.7
		L92.8,273.7z"/>
	<path class="st1" d="M92.8,287.2c-1,0-1.8,0.8-1.8,1.8s0.8,1.8,1.8,1.8s1.8-0.8,1.8-1.8l0,0C94.5,288,93.7,287.2,92.8,287.2
		L92.8,287.2z"/>
	<path class="st1" d="M81,253.4L81,253.4c-1,0-1.8,0.8-1.8,1.7l0,0l0,0c0,1,0.8,1.8,1.8,1.8l0,0l0,0c1,0,1.8-0.8,1.8-1.8l0,0
		C82.8,254.2,82,253.4,81,253.4z"/>
	<path class="st1" d="M81,266.9L81,266.9c-1,0-1.8,0.8-1.8,1.7l0,0l0,0c0,1,0.8,1.8,1.8,1.8l0,0l0,0c1,0,1.8-0.8,1.8-1.8l0,0l0,0
		C82.8,267.7,82,266.9,81,266.9z"/>
	<path class="st1" d="M84.9,260.1c-1,0-1.8,0.8-1.8,1.8s0.8,1.8,1.8,1.8s1.8-0.8,1.8-1.8S85.9,260.1,84.9,260.1L84.9,260.1z"/>
	<path class="st1" d="M81,280.5L81,280.5c-1,0-1.8,0.8-1.8,1.7l0,0l0,0c0,1,0.8,1.8,1.7,1.8l0,0l0,0c1,0,1.8-0.8,1.8-1.8l0,0l0,0
		C82.8,281.3,82,280.5,81,280.5L81,280.5z"/>
	<path class="st1" d="M84.9,273.7c-1,0-1.8,0.8-1.8,1.8s0.8,1.8,1.8,1.8s1.8-0.8,1.8-1.8S85.9,273.7,84.9,273.7L84.9,273.7z"/>
	<path class="st1" d="M84.9,287.2c-1,0-1.8,0.8-1.8,1.7l0,0c0,0.3,0.1,0.7,0.3,0.9l1.4,0.8h0.1c1-0.1,1.7-0.9,1.6-1.9
		C86.5,288,85.8,287.3,84.9,287.2L84.9,287.2z"/>
	<path class="st1" d="M73.2,253.4L73.2,253.4c-1,0-1.8,0.8-1.8,1.8l0,0c0,1,0.8,1.8,1.8,1.8l0,0c1,0,1.8-0.8,1.8-1.7l0,0l0,0
		C75,254.2,74.2,253.4,73.2,253.4L73.2,253.4z"/>
	<path class="st1" d="M73.2,266.9L73.2,266.9c-1,0-1.8,0.8-1.8,1.8l0,0l0,0c0,1,0.8,1.8,1.8,1.8l0,0l0,0c1,0,1.8-0.8,1.8-1.7l0,0
		l0,0C75,267.7,74.2,266.9,73.2,266.9L73.2,266.9z"/>
	<path class="st1" d="M77.1,260.1c-1,0-1.8,0.8-1.8,1.8s0.8,1.8,1.8,1.8s1.8-0.8,1.8-1.8S78.1,260.1,77.1,260.1L77.1,260.1z"/>
	<path class="st1" d="M73.2,280.5L73.2,280.5c-1,0-1.8,0.8-1.8,1.8l0,0l0,0c0,0.3,0.1,0.7,0.3,1l1.4,0.8h0.1c1,0,1.8-0.8,1.8-1.7
		l0,0l0,0C75,281.2,74.2,280.5,73.2,280.5L73.2,280.5z"/>
	<path class="st1" d="M77.1,273.7c-1,0-1.8,0.8-1.8,1.8s0.8,1.8,1.8,1.8s1.8-0.8,1.8-1.8S78.1,273.7,77.1,273.7L77.1,273.7z"/>
	<path class="st1" d="M65.4,253.4L65.4,253.4c-1,0-1.8,0.8-1.8,1.8l0,0c0,1,0.8,1.8,1.8,1.8l0,0c1,0,1.8-0.8,1.8-1.7l0,0l0,0
		C67.2,254.2,66.4,253.4,65.4,253.4L65.4,253.4z"/>
	<circle class="st1" cx="69.3" cy="248.4" r="1.8"/>
	<path class="st1" d="M65.4,266.9L65.4,266.9c-1,0-1.8,0.8-1.8,1.8l0,0l0,0c0,1,0.8,1.8,1.8,1.8l0,0l0,0c1,0,1.8-0.8,1.8-1.7l0,0
		l0,0C67.2,267.7,66.4,266.9,65.4,266.9L65.4,266.9z"/>
	<path class="st1" d="M69.3,260.1c-1,0-1.8,0.8-1.7,1.8c0,1,0.8,1.8,1.8,1.7c1,0,1.7-0.8,1.8-1.8C71.1,260.9,70.3,260.1,69.3,260.1
		L69.3,260.1z"/>
	<path class="st1" d="M69.3,273.7c-1,0-1.8,0.8-1.7,1.8c0,1,0.8,1.8,1.8,1.7c1,0,1.7-0.8,1.8-1.8C71.1,274.5,70.3,273.7,69.3,273.7
		L69.3,273.7z"/>
	<path class="st1" d="M57.6,239.8L57.6,239.8c-1,0-1.8,0.8-1.8,1.7l0,0l0,0c0,1,0.8,1.8,1.8,1.8l0,0l0,0c1,0,1.8-0.8,1.8-1.8l0,0
		C59.3,240.6,58.6,239.8,57.6,239.8z"/>
	<path class="st1" d="M57.6,253.4L57.6,253.4c-1,0-1.8,0.8-1.8,1.7l0,0l0,0c0,1,0.8,1.8,1.8,1.8l0,0l0,0c1,0,1.8-0.8,1.8-1.8l0,0
		C59.3,254.2,58.6,253.4,57.6,253.4z"/>
	<path class="st1" d="M61.5,246.6c-1,0-1.8,0.8-1.7,1.8c0,1,0.8,1.8,1.8,1.7c1,0,1.7-0.8,1.8-1.8C63.3,247.4,62.5,246.6,61.5,246.6
		L61.5,246.6z"/>
	<path class="st1" d="M57.6,266.9L57.6,266.9c-1,0-1.8,0.8-1.8,1.7l0,0l0,0c0,1,0.8,1.8,1.8,1.8l0,0l0,0c1,0,1.8-0.8,1.8-1.8l0,0
		l0,0C59.3,267.7,58.6,266.9,57.6,266.9L57.6,266.9z"/>
	<path class="st1" d="M61.5,260.1c-1,0-1.8,0.8-1.7,1.8c0,1,0.8,1.8,1.8,1.7c1,0,1.7-0.8,1.8-1.8C63.3,260.9,62.5,260.1,61.5,260.1
		L61.5,260.1z"/>
	<path class="st1" d="M61.5,273.7c-1,0-1.8,0.8-1.8,1.7c0,0.4,0.1,0.7,0.3,1l1.4,0.8h0.1c1,0,1.8-0.8,1.8-1.8
		C63.2,274.5,62.5,273.7,61.5,273.7L61.5,273.7L61.5,273.7z"/>
	<path class="st1" d="M49.8,226.3L49.8,226.3c-1,0-1.8,0.8-1.8,1.8l0,0c0,1,0.8,1.8,1.8,1.8l0,0l0,0c1,0,1.8-0.8,1.8-1.8l0,0
		C51.5,227.1,50.7,226.3,49.8,226.3L49.8,226.3z"/>
	<path class="st1" d="M49.8,239.8L49.8,239.8c-1,0-1.8,0.8-1.8,1.8l0,0l0,0c0,1,0.8,1.8,1.8,1.8l0,0l0,0c1,0,1.8-0.8,1.8-1.8l0,0
		C51.5,240.6,50.7,239.8,49.8,239.8L49.8,239.8z"/>
	<circle class="st1" cx="53.7" cy="234.8" r="1.8"/>
	<path class="st1" d="M49.8,253.4L49.8,253.4c-1,0-1.8,0.8-1.8,1.8l0,0c0,1,0.8,1.8,1.8,1.8l0,0l0,0c1,0,1.8-0.8,1.8-1.8l0,0
		C51.5,254.2,50.7,253.4,49.8,253.4L49.8,253.4z"/>
	<circle class="st1" cx="53.7" cy="248.4" r="1.8"/>
	<path class="st1" d="M49.8,266.9L49.8,266.9c-1,0-1.8,0.8-1.8,1.8l0,0c0,0.4,0.1,0.7,0.3,1l1.3,0.8h0.1c1,0,1.8-0.8,1.8-1.8l0,0
		l0,0C51.5,267.7,50.8,266.9,49.8,266.9L49.8,266.9z"/>
	<path class="st1" d="M53.7,260.1c-1,0-1.8,0.8-1.8,1.8s0.8,1.8,1.8,1.8s1.8-0.8,1.8-1.8S54.6,260.1,53.7,260.1L53.7,260.1z"/>
	<path class="st1" d="M41.9,239.8L41.9,239.8c-1,0-1.8,0.8-1.8,1.8l0,0c0,1,0.8,1.8,1.8,1.8l0,0c1,0,1.8-0.8,1.8-1.8l0,0
		C43.7,240.6,42.9,239.8,41.9,239.8z"/>
	<path class="st1" d="M45.8,233.1c-1,0-1.8,0.8-1.8,1.8s0.8,1.8,1.8,1.8s1.8-0.8,1.8-1.8l0,0C47.6,233.9,46.8,233.1,45.8,233.1z"/>
	<path class="st1" d="M41.9,253.4L41.9,253.4c-1,0-1.8,0.8-1.8,1.8l0,0c0,1,0.8,1.8,1.8,1.8l0,0c1,0,1.8-0.8,1.8-1.8l0,0
		C43.7,254.2,42.9,253.4,41.9,253.4z"/>
	<path class="st1" d="M45.8,246.6c-1,0-1.8,0.8-1.8,1.8s0.8,1.8,1.8,1.8s1.8-0.8,1.8-1.8l0,0C47.6,247.4,46.8,246.6,45.8,246.6z"/>
	<path class="st1" d="M45.8,260.1c-1,0-1.8,0.8-1.8,1.8s0.8,1.8,1.8,1.8s1.8-0.8,1.8-1.8S46.8,260.1,45.8,260.1
		C45.9,260.1,45.9,260.1,45.8,260.1z"/>
	<path class="st1" d="M34.1,239.8L34.1,239.8c-1,0-1.8,0.8-1.8,1.8l0,0c0,1,0.8,1.8,1.8,1.8l0,0c1,0,1.8-0.8,1.8-1.7l0,0l0,0
		C35.9,240.6,35.1,239.8,34.1,239.8L34.1,239.8z"/>
	<circle class="st1" cx="38" cy="234.8" r="1.8"/>
	<path class="st1" d="M34.1,253.4L34.1,253.4c-1,0-1.8,0.8-1.8,1.8l0,0c0,1,0.8,1.8,1.8,1.8l0,0c1,0,1.8-0.8,1.8-1.7l0,0l0,0
		C35.9,254.2,35.1,253.4,34.1,253.4L34.1,253.4z"/>
	<circle class="st1" cx="38" cy="248.4" r="1.8"/>
	<path class="st1" d="M38,260.1c-1,0-1.8,0.8-1.8,1.8c0,0.3,0.1,0.7,0.3,1l1.3,0.8H38c1,0,1.8-0.8,1.8-1.8S39,260.1,38,260.1
		L38,260.1L38,260.1z"/>
	<path class="st1" d="M26.3,239.8L26.3,239.8c-1,0-1.8,0.8-1.8,1.8l0,0c0,1,0.8,1.8,1.8,1.8l0,0c1,0,1.8-0.8,1.8-1.8l0,0
		C28.1,240.6,27.3,239.8,26.3,239.8z"/>
	<path class="st1" d="M26.3,253.4L26.3,253.4c-1,0-1.8,0.8-1.8,1.8l0,0c0,0.4,0.1,0.7,0.3,1l1.3,0.7h0.2c1,0,1.8-0.8,1.8-1.8l0,0
		C28.1,254.2,27.3,253.4,26.3,253.4z"/>
	<path class="st1" d="M30.2,246.6c-1,0-1.7,0.8-1.7,1.8s0.8,1.7,1.8,1.7s1.7-0.8,1.7-1.8C32,247.4,31.2,246.6,30.2,246.6L30.2,246.6
		z"/>
	<circle class="st1" cx="22.4" cy="248.4" r="1.8"/>
	<path class="st1" d="M14.6,246.6c-1,0-1.8,0.8-1.8,1.7l0,0c0,0.4,0.1,0.7,0.3,1l1.2,0.7h0.2c1,0,1.8-0.8,1.8-1.8
		C16.3,247.4,15.6,246.6,14.6,246.6L14.6,246.6z"/>
</g>
<polygon class="st1" points="43.9,170.1 23.8,145.9 24.3,172.5 "/>
<path class="st1" d="M269.9,147.1l20.4-11.9l-20.5-11.8l-20.4,11.8L269.9,147.1z M269.7,125.1l17.5,10.1l-17.4,10.1l-17.5-10.1
	L269.7,125.1z"/>
<polygon class="st1" points="238.1,142.7 225.5,150 238.2,157.3 250.8,150 "/>
<polygon class="st1" points="242.9,226.6 225.4,236.7 243,246.9 260.5,236.8 "/>
<polygon class="st0" points="108.6,174.5 52.4,222.5 56.3,229.9 59.7,234.8 67.1,242.2 78.7,249.2 167.6,300.3 169.4,298.7 
	169.6,210.9 155.3,208.2 154.6,227.8 141.2,203.6 131.9,209.5 127.6,212.2 126.9,189.2 "/>
</svg>
