<svg id="Layer_1" data-name="Layer 1" xmlns="http://www.w3.org/2000/svg" viewBox="0 0 650.72 40"><defs><style>.cls-1{fill:#d7e7e7;}.cls-2{fill:#80ea6e;}.cls-3{fill:#6db33f;}</style></defs><title>header-reactive</title><path class="cls-1" d="M650.72,0H568.94a254.61,254.61,0,0,1-41.69,23,252.65,252.65,0,0,1-56.4,17H650.72Z"/><path class="cls-1" d="M282.93,0H0V40H380.73a252.9,252.9,0,0,1-56.14-17A254.32,254.32,0,0,1,282.93,0Z"/><path class="cls-2" d="M568.94,0H429V40h41.89a252.65,252.65,0,0,0,56.4-17A254.61,254.61,0,0,0,568.94,0Z"/><path class="cls-3" d="M429,23V0h-146a254.32,254.32,0,0,0,41.66,23,252.9,252.9,0,0,0,56.14,17H429Z"/></svg>