<svg xmlns="http://www.w3.org/2000/svg" viewBox="0 0 75.93 75.93"><defs><style>.cls-1{fill:#010101;}.cls-2{fill:#fff;}</style></defs><title>icon-twitter</title><g id="Layer_2" data-name="Layer 2"><g id="_04-FULL-COLOR" data-name="04-FULL-COLOR"><g id="Twitter"><circle class="cls-1" cx="37.97" cy="37.97" r="37.97"/><path id="Twitter-2" data-name="Twitter" class="cls-2" d="M55.2,22.73a15.43,15.43,0,0,1-4.88,1.91,7.56,7.56,0,0,0-5.61-2.49A7.78,7.78,0,0,0,37,30a7.56,7.56,0,0,0,.2,1.79,21.63,21.63,0,0,1-15.84-8.23,8,8,0,0,0,2.37,10.52,7.66,7.66,0,0,1-3.48-1v.09A7.84,7.84,0,0,0,26.45,41a7.54,7.54,0,0,1-2,.28A7.64,7.64,0,0,1,23,41.09a7.71,7.71,0,0,0,7.18,5.47,15.21,15.21,0,0,1-9.55,3.37,15.78,15.78,0,0,1-1.83-.11,21.41,21.41,0,0,0,11.78,3.54c14.13,0,21.86-12,21.86-22.42,0-.34,0-.68,0-1a15.67,15.67,0,0,0,3.83-4.08,14.9,14.9,0,0,1-4.41,1.24A7.8,7.8,0,0,0,55.2,22.73Z"/></g></g></g></svg>