<svg id="Layer_1" data-name="Layer 1" xmlns="http://www.w3.org/2000/svg" viewBox="0 0 100 100"><defs><style>.cls-1{fill:none;}</style></defs><title>icon-webapps</title><path d="M33.44,13.35l-4.28,2.47L17.8,9.28l0,25.2,5.64,3.25,0,16.29-7.56-7.58V69.18l6-5.83.33-.28h2.09a16.4,16.4,0,0,0,6.55,8.29l35,20.22a7.18,7.18,0,0,0,3.55,1.06,4.41,4.41,0,0,0,2.25-.58h0l9.22-5.34c1.57-.91,2.44-2.76,2.45-5.21l.08-39.36ZM66.67,43.2l-41-23.65,3.45-2,37.51,21.6ZM25,20.85,66.67,45l0,15.94-41.73-24Zm8.48-5.77L81.15,42.6l-7.72,4.5-5.26-3V38.3L30.66,16.69ZM19.27,33.61l0-21.74,8.37,4.82-4.19,2.43,0,16.88Zm5.64,5L68.14,63.5l0-17.67,4.47,2.59v4.73l-.08,26.58h0l0,7.09c0,1.87-.6,3.24-1.69,3.88h0l-.12,0-.09,0h0l-.18.08h0l-.13,0-.1,0h0L70,91h0a.89.89,0,0,1-.25,0v0l-.22,0h-.28v0H69v0l-.22,0-.1,0v0l-.24,0h0l-.27-.08-.1,0v0l-.23-.07v0l-.31-.12-.11-.05v0l-.21-.09v0c-.21-.1-.43-.21-.66-.34v0h0L31.54,70a14.73,14.73,0,0,1-5.66-6.93H32.4l-7.54-7.55Z"/><path d="M30.51,28.55h0C29.12,27.74,28,28.39,28,30h0a5.52,5.52,0,0,0,2.51,4.34h0c1.39.81,2.52.17,2.53-1.43A5.53,5.53,0,0,0,30.51,28.55Z"/><path d="M39.14,33.53h0c-1.39-.81-2.52-.16-2.52,1.44a5.49,5.49,0,0,0,2.5,4.34c1.4.81,2.53.17,2.53-1.43h0A5.52,5.52,0,0,0,39.14,33.53Z"/><rect class="cls-1" width="100" height="100"/></svg>