<svg xmlns="http://www.w3.org/2000/svg" viewBox="0 0 25.43 43.6"><defs><style>.cls-1{fill:#fff;}.cls-2{fill:#010101;}</style></defs><title>icon-guides-tutorial</title><g id="Layer_2" data-name="Layer 2"><g id="Layer_1-2" data-name="Layer 1"><polygon class="cls-1" points="19.77 12.99 24.68 10.13 24.59 39.99 19.68 42.85 19.77 12.99"/><path class="cls-1" d="M9.28,1.24A2.54,2.54,0,0,0,6.74,1L1.83,3.85a2.54,2.54,0,0,1,2.54.25L19.76,13l4.92-2.86Z"/><path class="cls-2" d="M25.43,10.13a.86.86,0,0,0-.06-.23c0-.05,0-.1,0-.14a.75.75,0,0,0-.28-.28L9.66.59A3.23,3.23,0,0,0,6.36.35L1.45,3.21a.62.62,0,0,0-.26.27A3.33,3.33,0,0,0,.06,6.18L0,27.82a8.56,8.56,0,0,0,3.92,6.8L19.31,43.5a.73.73,0,0,0,.74,0h0L25,40.63a.77.77,0,0,0,.38-.64l.08-29.86ZM7.12,1.64a1.85,1.85,0,0,1,1.79.25l14.27,8.24-.28.17-3.14,1.82-15-8.67-.38-.2Zm13.31,39.9.08-28.12,1.34-.77,2.08-1.21-.08,28.11Z"/><path class="cls-1" d="M10.31,25.38a5.37,5.37,0,0,1-2.43-4.16c0-1.58,1.12-2.17,2.45-1.41A5.27,5.27,0,0,1,12.72,24c0,1.53-1.08,2.14-2.41,1.37m1.23-9.89L9,14l-.09,1.73a3.19,3.19,0,0,0-1.38-.11L6.36,13.77l-1.77,1,1,2A3.72,3.72,0,0,0,5.06,18l-1.59-.82v2.9l1.58,1A11.07,11.07,0,0,0,5.6,23l-1,.78,1.75,3,1.2-.44a10.91,10.91,0,0,0,1.37,1.43L9,29.63l2.53,1.46.09-1.67a4.4,4.4,0,0,0,1.46.15l1.11,1.78,1.76-1L15,28.52a4,4,0,0,0,.6-1.33l1.46.74V25l-1.45-.94a12.77,12.77,0,0,0-.6-2l.95-.73-1.75-3-1.12.49a12.54,12.54,0,0,0-1.46-1.53l-.08-1.77"/></g></g></svg>