<?xml version="1.0" encoding="utf-8"?>
<!-- Generator: Adobe Illustrator 24.0.1, SVG Export Plug-In . SVG Version: 6.00 Build 0)  -->
<svg version="1.1" id="Layer_1" xmlns="http://www.w3.org/2000/svg" xmlns:xlink="http://www.w3.org/1999/xlink" x="0px" y="0px"
	 viewBox="0 0 100 100" style="enable-background:new 0 0 100 100;" xml:space="preserve">
<style type="text/css">
	.st0{fill:#191E1E;}
	.st1{fill:none;}
</style>
<title>icon-streams</title>
<path class="st0" d="M73.8,15.9c-5.4-3.1-10.5-3.6-14.3-1.4c-0.2,0.1-0.4,0.3-0.6,0.4L21,37.4l-0.2,0.1c-0.1,0-0.1,0.1-0.2,0.1
	l-0.4,0.2l0,0c-3.5,2.3-5.4,6.7-5.4,12.6c0,6.3,2.2,13.2,5.8,19.4h-8.5V88h18.2v-6.6c1.2,1,2.6,1.9,4,2.7c2.7,1.7,5.8,2.6,9,2.7
	c1.9,0,3.7-0.4,5.3-1.4l0,0l39-23.1v-0.1c3.7-2.3,5.7-6.8,5.7-12.8C93.3,37.2,84.6,22.1,73.8,15.9z M28.8,80.1v6.4H13.6V71.3h15.2
	L28.8,80.1L28.8,80.1z M44.6,65.6v8h-8v-8H44.6z M40,42.4v-3.8h11.3v11.3h-4.7C44.7,47.1,42.5,44.6,40,42.4z M44.9,49.9H40v-5.5
	C41.8,46.1,43.4,47.9,44.9,49.9L44.9,49.9z M26.4,57.8v-6.5h6.5v6.5H26.4z M52.5,81.4c1.4-2.7,2.2-5.8,2.1-8.9
	c0-6.9-2.7-14.6-6.9-21.2h5.1V37.1H38.5v4.1c-1.1-0.8-2.2-1.6-3.4-2.3c-2.7-1.7-5.9-2.6-9.1-2.7l29.5-17.5c-1.4,2.7-2.1,5.7-2,8.8
	c0,7.9,3.5,16.8,8.8,23.9h-2.8v6.5H66v-2.2c2.1,2.1,4.4,4,6.9,5.5c2.7,1.7,5.8,2.6,9,2.7h0.2L52.5,81.4z M91.8,49.5
	c0,5.6-1.9,9.7-5.2,11.6s-8,1.5-12.8-1.4c-2.9-1.7-5.5-3.8-7.7-6.3v-2.1h-1.8c-5.5-7-9.2-16-9.2-23.9c0-5.2,1.7-9.1,4.6-11.2
	l1.2-0.7c1.2-0.6,2.6-0.9,4-0.9c2.9,0.1,5.7,1,8.2,2.5C83.4,23.1,91.8,37.7,91.8,49.5z"/>
<rect x="38.1" y="67.1" class="st0" width="5" height="5"/>
<rect x="3.3" y="61.9" class="st0" width="6.5" height="6.5"/>
<path class="st0" d="M62.5,37.2h8v-8h-8L62.5,37.2z M64,30.7h5v5h-5V30.7z"/>
<rect x="92.8" y="25" class="st0" width="3.2" height="3.2"/>
<rect x="77.6" y="38.3" class="st0" width="3.2" height="3.2"/>
<rect x="86.1" y="42.3" class="st0" width="3.2" height="3.2"/>
<rect x="74.3" y="47.4" class="st0" width="3.2" height="3.2"/>
<rect class="st1" width="100" height="100"/>
</svg>
