<svg id="Layer_1" data-name="Layer 1" xmlns="http://www.w3.org/2000/svg" viewBox="0 0 100 100"><defs><style>.cls-1{fill:none;}</style></defs><title>icon-batch</title><path d="M88.13,27.84,53.23,7.69a.72.72,0,0,0-.75,0,.73.73,0,0,0-.38.65l0,8.68-7.51-4.33a.72.72,0,0,0-.75,0,.73.73,0,0,0-.38.65l0,8.7-7.54-4.35a.72.72,0,0,0-.75,0,.75.75,0,0,0-.38.65l-.08,31H32.06a.76.76,0,0,0-.75.75v2.37l-.1,0c-.79.14-1.56.32-2.32.52-.46.13-.93.25-1.37.39l-3.39-1.95a.77.77,0,0,0-.75,0l-6.54,3.8a.76.76,0,0,0-.37.65V60H13.78a.75.75,0,0,0-.75.75l0,11.75,0,5.37a.74.74,0,0,0,.75.75h2.68v3.9a.76.76,0,0,0,.38.65L23.43,87a.75.75,0,0,0,.38.1.74.74,0,0,0,.37-.1h0L27.55,85l.89.28c.63.18,1.28.34,1.94.47.33.07.67.12,1,.18v2.37a.75.75,0,0,0,.75.75h9.27a.74.74,0,0,0,.75-.75V86l.14,0c.43-.07.85-.17,1.34-.28l.41-.09c.66-.16,1.3-.34,1.88-.52l0,0L49.36,87a.69.69,0,0,0,.37.1.75.75,0,0,0,.38-.1h0l5-2.93,14.74,8.51a.73.73,0,0,0,.74,0,.73.73,0,0,0,.38-.65l0-8.7,7.53,4.35a.75.75,0,0,0,.38.1.71.71,0,0,0,.37-.1.75.75,0,0,0,.38-.65l0-8.69,7.51,4.34a.75.75,0,0,0,.38.1.69.69,0,0,0,.37-.1.75.75,0,0,0,.38-.65l.15-53.4A.74.74,0,0,0,88.13,27.84ZM86.86,80.59l-7.13-4.11.12-43a.74.74,0,0,0-.38-.65l-25.9-15,0-8.26L87,28.92Zm-8.64-3.25,0,8.25L71,81.46l0-8.25V71.48l.05-17.39a.78.78,0,0,0,0-.74L58.32,31.19v-.1a.74.74,0,0,0-.37-.66l-4.41-2.54-.74-.43L52.05,27,44.91,22.9l0-8.27,7.13,4.12.75.44.75.43,24.78,14.3-.12,41.69v1.73Zm-8.68,5,0,8.26L56.64,83.16h0a.76.76,0,0,0,.37-.65v-3.9h2.71a.76.76,0,0,0,.75-.75V75.37l0-8.25V65.39l0-4.66a.75.75,0,0,0-.75-.74h-.14L57,60l0-4a.75.75,0,0,0-.38-.65l-3.18-1.84L52.72,53,52,52.57l-1.92-1.11a.77.77,0,0,0-.75,0l-1.62.94-1.76,1c-.36-.12-.73-.21-1.1-.31l-.75-.21-.75-.16c-.4-.09-.8-.18-1.22-.25V50.11a.76.76,0,0,0-.75-.75H36.17l.08-29.73,7.16,4.14.75.43.75.43L52,28.75l.75.43.75.44,3.08,1.77,0,14.75v.32a.76.76,0,0,0,.38.66l12.67,7.34-.05,16.15v1.73l0,8.26v1.73Zm-15.89.84L50.49,85V75l1.28-.75.75-.44.68-.39.08,0,.38-.23.75-.43.75-.44.37-.21v10l-.38.22-.74.43ZM19,61.48a.74.74,0,0,0,.69-.45,8.2,8.2,0,0,1,1.78-2.52.74.74,0,0,0-.15-1.18l-2.52-1.48L23.73,53,27,54.9a.75.75,0,0,0,.62.06c.58-.2,1.19-.37,1.81-.53s1.25-.29,1.89-.41c.31-.05.6-.13.91-.17a.75.75,0,0,0,.64-.74l0-2.25h7.55l0,2.24a.74.74,0,0,0,.64.74c.75.11,1.49.26,2.2.42l.75.2.75.22c.31.09.63.16.93.26a.66.66,0,0,0,.34,0,.65.65,0,0,0,.27-.08l2-1.17L49.66,53,52,54.34l.75.43.75.43,1.12.65-1.13.65-.75.44-.63.37a.63.63,0,0,0-.12.11.73.73,0,0,0-.25.45.72.72,0,0,0,.22.62l0,0c.27.27.52.55.75.83a8.29,8.29,0,0,1,.74,1.08,6.63,6.63,0,0,1,.31.59.73.73,0,0,0,.68.44h4.42l0,2.95v.79H54.49a.75.75,0,0,0-.69.44A8,8,0,0,1,52,68.2a.79.79,0,0,0-.22.63.76.76,0,0,0,.37.55l1.29.76,1.21.71h0l-1,.58-.75.43h0l-.74.43-2.4,1.39h0l-3.08-1.78-.17-.1h0a.84.84,0,0,0-.31-.08.6.6,0,0,0-.26,0h0l-.08,0-.1,0a26.43,26.43,0,0,1-4.44,1.07.73.73,0,0,0-.64.73v2.25H33.06v0l0-2.21a.73.73,0,0,0-.51-.69l-.12,0c-.57-.08-1.11-.2-1.65-.31H30.7q-.79-.18-1.56-.39L28.47,72c-.23-.07-.48-.12-.7-.2h0a.71.71,0,0,0-.57.06l-.19.1-3.1,1.78h0l-4.91-2.84,2.5-1.45a.78.78,0,0,0,.37-.56.75.75,0,0,0-.22-.63,8.44,8.44,0,0,1-1.83-2.52.76.76,0,0,0-.68-.45l-4.42,0,0-3.74H19ZM32.91,80.79V77.35H40.7v3.41l0,4.84v2H32.89ZM18,78.61V72.06l2.33,1.35.75.43,2,1.16v.15l0,9.87L18,82.08Z"/><path d="M29.88,67.79a13.13,13.13,0,0,0,4.73,1.49c.25,0,.5.06.75.08l.75,0c.23,0,.45,0,.68,0a14,14,0,0,0,6.89-1.65l.32-.21a6.72,6.72,0,0,0,.67-.48,6.05,6.05,0,0,0,.6-.52,4.49,4.49,0,0,0,1.46-3.21,4.76,4.76,0,0,0-1.92-3.63,7.19,7.19,0,0,0-.75-.54c-.14-.09-.27-.19-.42-.27s-.22-.1-.33-.16a14.56,14.56,0,0,0-7.17-1.46l-.75,0-.75.07a12.83,12.83,0,0,0-4.8,1.51c-2,1.14-3.06,2.71-3.05,4.42S27.89,66.64,29.88,67.79Z"/><rect class="cls-1" width="100" height="100"/></svg>