<svg id="Layer_1" data-name="Layer 1" xmlns="http://www.w3.org/2000/svg" viewBox="0 0 100 100"><defs><style>.cls-1{fill:none;}</style></defs><title>icon-reactive</title><path d="M45.6,44.27h0a10.4,10.4,0,0,0,9.44,0h0c2.61-1.52,2.59-4,0-5.48a10.44,10.44,0,0,0-9.46,0C43,40.3,43,42.75,45.6,44.27Z"/><path d="M92.38,38.83a6.57,6.57,0,0,0-.6-3.6,11.6,11.6,0,0,0-5-4.87A36.39,36.39,0,0,0,75.7,26.58a18.11,18.11,0,0,0-6.62-6.47A23,23,0,0,0,61,17.36a34,34,0,0,0-20.48,3.76c-8.77-1-16.24-.09-21,2.71s-6.59,7.3-4.95,12.43c-4.87,3.29-7.23,6.85-6.85,10.27a.82.82,0,0,0-.12.41l0,14.93a6.54,6.54,0,0,0,.65,2.88,11.67,11.67,0,0,0,5,4.88,36.85,36.85,0,0,0,11.12,3.78,18.22,18.22,0,0,0,6.63,6.47A23.22,23.22,0,0,0,39,82.64a27.51,27.51,0,0,0,4.37.33,34.39,34.39,0,0,0,12.42-2.42l.59-.24c.47-.19.94-.38,1.4-.59s1.16-.55,1.73-.85a55.28,55.28,0,0,0,6.63.42c1,0,1.89,0,2.8-.1l.31,0c.67,0,1.33-.11,2-.19l.33,0,1.63-.25.23,0a22.08,22.08,0,0,0,7.17-2.48c3.64-2.11,5.57-5.15,5.58-8.77V63.27c4.09-2.93,6.27-6.06,6.28-9.13l0-14.94A.78.78,0,0,0,92.38,38.83ZM77.5,75.7V62.54a17.81,17.81,0,0,0,3-1.36,12.37,12.37,0,0,0,3-2.38,9.4,9.4,0,0,0,.86-1v0l0,0v9.68c0,3-1.64,5.49-4.72,7.28A16.42,16.42,0,0,1,77.5,75.7ZM16.67,37l.51-.31.42-.25c.45-.26.9-.51,1.38-.76l0,0,1.46-.72.48-.23,1.12-.51.54-.23c.41-.18.83-.35,1.26-.52l.42-.17q.86-.35,1.74-.66l.43-.15,1-.35c-.36.48-.69,1-1,1.47l-.2.31q-.48.75-.9,1.5c-.1.17-.19.34-.29.5-.33.61-.64,1.22-.92,1.84s-.55,1.28-.79,1.92c-.07.2-.14.4-.2.6-.16.45-.3.91-.43,1.36-.07.22-.12.44-.18.66-.12.46-.22.92-.31,1.38,0,.19-.07.38-.11.57a1.77,1.77,0,0,1,0,.2L22,44.33q-.5-.49-1-1L20.72,43c-.22-.23-.43-.47-.63-.7l-.34-.41-.56-.7-.28-.37c-.23-.31-.44-.61-.65-.92l-.1-.15c-.23-.34-.44-.69-.63-1-.08-.13-.14-.25-.21-.37s-.24-.46-.35-.69-.13-.27-.19-.4S16.7,37.05,16.67,37ZM39,24c.55-.34,1.11-.66,1.68-1l.22-.12.33,0c.74.1,1.48.22,2.22.34l.66.11c1.76.32,3.53.7,5.3,1.16l.71.19c.75.2,1.49.41,2.24.63l.34.1-.8.08c-1.06.08-2.12.18-3.18.29l-1.3.14c-1.43.16-2.86.35-4.28.57-1.07.17-2.12.35-3.16.54l-.92.18c-.77.15-1.52.3-2.27.47l-.91.19L33,28.62l-.14,0h0l0,0c.53-.49,1.08-1,1.64-1.44l.41-.33q.75-.63,1.56-1.2l.22-.17c.6-.43,1.22-.84,1.84-1.23Zm22.76,3c1.08,0,2.15.05,3.2.1l.43,0c1,0,1.9.11,2.83.19l.32,0c1,.09,1.93.2,2.87.32l.58.08c.77.11,1.52.22,2.26.35l.38.07a1.62,1.62,0,0,0,.1.18c.25.49.48,1,.68,1.5l.06.15A16.37,16.37,0,0,1,76,31.65l.09.38a16.88,16.88,0,0,1,.33,1.75c0,.06,0,.12,0,.17.06.56.1,1.12.11,1.68a1.93,1.93,0,0,1,0,.24l-.36-.29L75.45,35c-.43-.34-.88-.68-1.34-1l-.76-.55c-.49-.34-1-.68-1.52-1l-.7-.46c-.76-.48-1.54-1-2.35-1.43-1-.59-2.09-1.16-3.16-1.71l-1-.47q-1.2-.59-2.43-1.14c-.19-.09-.38-.19-.58-.27ZM23.55,48l.37.28.7.56,1.34,1,.77.54c.49.35,1,.69,1.51,1l.71.46c.76.48,1.54,1,2.34,1.43,1,.59,2.08,1.15,3.16,1.7.32.17.66.33,1,.49q1.17.57,2.37,1.11l.61.29h-.15c-1,0-2,0-3-.1l-.7,0c-.86,0-1.71-.1-2.54-.18l-.49,0c-1-.08-1.9-.19-2.82-.31l-.6-.08c-.77-.11-1.52-.22-2.25-.35l-.38-.07a1.62,1.62,0,0,1-.1-.18c-.25-.49-.48-1-.68-1.5l-.06-.15a16.37,16.37,0,0,1-.53-1.68c0-.13-.07-.25-.1-.38a17,17,0,0,1-.32-1.76s0-.1,0-.16c-.07-.56-.1-1.12-.12-1.7C23.56,48.19,23.55,48.11,23.55,48ZM27.1,35.8c.23-.4.46-.79.71-1.18s.36-.52.55-.78.48-.7.74-1,.4-.5.6-.75.5-.62.76-.92l1.73-.48,1.23-.34c.62-.16,1.26-.3,1.9-.45l1.32-.32,2-.4L40,28.86c1.12-.21,2.25-.4,3.4-.58s2.31-.34,3.47-.49l1.1-.11c.79-.1,1.59-.19,2.38-.26l1.15-.09,2.32-.18,1.18,0c.72,0,1.45-.08,2.17-.1l1.6.64,1.16.46c.53.22,1,.46,1.58.7s.8.34,1.19.53,1.06.52,1.58.78c.36.18.74.35,1.09.54.88.46,1.74.93,2.58,1.42s1.64,1,2.42,1.46L71,34c.52.34,1,.69,1.55,1l.77.58c.45.33.9.66,1.32,1l.75.62c.34.28.67.55,1,.83q0,.45-.12.9c0,.26-.06.51-.11.77s-.16.78-.26,1.17-.1.5-.17.74c-.12.44-.27.88-.42,1.32-.06.2-.12.4-.19.6-.24.64-.5,1.28-.79,1.92s-.62,1.29-1,1.93c-.09.18-.21.35-.31.52-.26.46-.53.91-.82,1.36l-.46.66c-.27.39-.54.78-.83,1.16s-.38.47-.56.7l-.79,1-1.77.49c-.4.11-.79.23-1.2.33-.65.17-1.32.32-2,.48l-1.23.29c-.68.15-1.39.29-2.09.43l-1.22.25c-1.12.21-2.26.41-3.41.58s-2.3.34-3.46.49l-1.16.12c-.77.09-1.54.18-2.31.25l-1.17.09-2.3.18-1.2.05c-.72,0-1.43.08-2.14.1l-1.62-.64-1.15-.46c-.59-.25-1.16-.51-1.74-.77l-1-.45c-.73-.34-1.43-.7-2.14-1.06l-.54-.27c-.88-.46-1.74-.93-2.59-1.42s-1.63-1-2.41-1.46c-.27-.18-.52-.36-.79-.53-.49-.33-1-.66-1.46-1-.3-.21-.58-.43-.87-.65s-.83-.6-1.22-.91-.56-.47-.84-.7l-.92-.77c0-.29.07-.59.12-.89s.06-.52.11-.78.17-.77.26-1.15.1-.51.17-.76c.12-.43.27-.86.41-1.29l.2-.62c.24-.64.5-1.28.79-1.92s.62-1.29,1-1.92C26.81,36.26,27,36,27.1,35.8ZM67.25,55.24l0,0c-.53.49-1.08,1-1.64,1.44l-.41.34c-.51.41-1,.8-1.55,1.19l-.24.17c-.59.43-1.21.84-1.83,1.23l-.44.27c-.55.34-1.11.66-1.68,1l-.22.12-.34,0c-.73-.09-1.45-.2-2.19-.33L56,60.5c-.87-.15-1.74-.32-2.62-.51l-.09,0c-.85-.19-1.7-.4-2.56-.62L50,59.16c-.78-.21-1.55-.42-2.32-.66l-.26-.07.75-.07c1.08-.09,2.16-.18,3.24-.3l1.28-.14c1.43-.16,2.86-.35,4.28-.57,1.07-.17,2.12-.35,3.16-.54l.9-.18c.77-.15,1.54-.3,2.3-.47l.88-.19c1-.22,1.9-.44,2.83-.68l.15,0Zm-28,3.44h.69c.81,0,1.64,0,2.46,0h.29l.2.06c.94.35,1.89.67,2.84,1l.6.2c1,.31,2,.59,3,.86l.65.18c1,.26,2,.5,3,.72l.11,0c1,.22,2,.41,3,.58l.38.08a31.5,31.5,0,0,1-17.1,2.49,21.4,21.4,0,0,1-7.45-2.54,16.67,16.67,0,0,1-5.15-4.55l.76.09,1.92.25,1.81.2q1,.09,2,.15l2,.13,2,.07Zm44.34-9.79,0,5.92a9.66,9.66,0,0,1-3.83,3.78c-4,2.35-10.21,3.3-17.55,2.72l.23-.15c.68-.43,1.36-.87,2-1.34l.27-.2q.9-.66,1.74-1.35L66.8,58c.61-.51,1.21-1,1.78-1.59l.33-.32c.53-.51,1-1,1.52-1.57l.16-.17,1.66-.52.26-.08c.67-.22,1.33-.45,2-.68l.6-.23c.44-.16.88-.32,1.3-.49l.7-.28,1.12-.47.71-.31c.35-.15.69-.31,1-.47s.47-.22.7-.33l1-.47.65-.35c.31-.16.61-.32.9-.49ZM44.49,81.2V68l.38,0c.84,0,1.69-.11,2.53-.22l.77-.1,1.19-.21q.53-.09,1-.21l1-.23c.65-.17,1.3-.35,2-.55l.74-.25c.51-.17,1-.35,1.51-.54l.71-.28c.72-.29,1.43-.59,2.13-.93h0l0,8.8v4.19c-.69.36-1.4.68-2.11,1l-.67.28c-.51.2-1,.4-1.54.58l-.7.25c-.66.22-1.32.42-2,.59-.32.09-.65.16-1,.23l-1.1.25-1.16.21-.83.12c-.85.11-1.69.19-2.54.24l-.37,0ZM83.41,46.94c-.16.11-.33.21-.5.31l-.44.26-1.36.75-.07,0c-.46.24-.94.48-1.43.71l-.49.23L78,49.75l-.54.23-1.27.53-.41.16q-.86.34-1.74.66l-.42.15-1,.35q.52-.72,1-1.47c.06-.1.12-.2.19-.3.32-.5.63-1,.92-1.52l.27-.48c.33-.61.64-1.23.93-1.85s.55-1.28.79-1.92c.07-.2.14-.4.2-.6.16-.45.3-.91.43-1.36q.11-.33.18-.66c.12-.46.22-.92.31-1.38,0-.19.08-.38.11-.57s0-.14,0-.2c.36.35.7.7,1,1,.11.11.2.23.31.34s.44.49.65.74.22.25.32.38.4.48.58.73l.28.35c.23.32.45.63.66.94l.09.13c.22.35.43.7.63,1l.2.36c.13.23.25.46.36.7s.13.26.19.39ZM86,31.86A10,10,0,0,1,90.21,36c1.89,4-2.16,7.83-5.31,10l-.06-.12-.19-.39c-.13-.26-.26-.52-.41-.78L84,44.25c-.15-.25-.29-.5-.45-.74l-.3-.46-.52-.74c-.11-.15-.21-.3-.33-.45l-.62-.78-.32-.4q-.44-.51-.9-1l-.13-.15c-.37-.39-.75-.78-1.15-1.17-.09-.1-.2-.19-.29-.29-.25-.23-.49-.47-.75-.7a2.26,2.26,0,0,0,0-.26c0-.63,0-1.26,0-1.88a1.85,1.85,0,0,0,0-.23A16.26,16.26,0,0,0,78,33c0-.14-.05-.29-.07-.43a17.12,17.12,0,0,0-.45-1.91,1.09,1.09,0,0,0,0-.17c-.18-.58-.39-1.15-.62-1.71,0-.07,0-.15-.09-.23A33.58,33.58,0,0,1,86,31.86ZM60.76,19.07a21.4,21.4,0,0,1,7.45,2.54,16.67,16.67,0,0,1,5.15,4.55h0c-.89-.14-1.81-.26-2.75-.36l-.74-.09c-.81-.08-1.64-.16-2.47-.22l-.47,0c-1-.07-2-.12-3-.16l-.77,0c-.85,0-1.7,0-2.56,0H60q-1,0-2,0h-.53l-.2-.06c-.94-.35-1.9-.68-2.86-1L53.79,24c-1-.31-2-.61-3-.88L50.19,23c-1-.27-2-.52-3.06-.74h-.05c-1-.23-2-.42-3.07-.6l-.36-.07A31.52,31.52,0,0,1,60.76,19.07ZM20.37,25.33c3.27-1.91,7.94-2.89,13.5-2.89,1.3,0,2.65,0,4,.16l-.23.15c-.69.43-1.36.88-2,1.34l-.27.2c-.6.44-1.18.89-1.75,1.35l-.38.31c-.61.52-1.21,1.05-1.78,1.6-.12.1-.22.21-.34.32-.52.51-1,1-1.51,1.57l-.16.17c-.52.15-1,.32-1.53.48l-.4.13c-.67.22-1.32.44-1.95.67l-.67.25-1.23.46-.75.31-1.07.44-.74.33-1,.45-.72.35-.92.45-.68.36-.86.47-.64.37-.28.16C14.87,31.09,16.34,27.66,20.37,25.33ZM15.18,37.92l.06.12c.06.14.13.27.2.41s.25.51.39.76l.26.45c.14.25.29.49.45.73l.3.47c.16.24.34.49.52.74s.21.29.32.44.42.53.63.8l.31.38c.3.36.62.72.95,1.08l.08.09c.37.39.75.79,1.15,1.18l.28.26c.25.24.5.49.76.72a2.25,2.25,0,0,0,0,.26c0,.63,0,1.26,0,1.88a1.85,1.85,0,0,1,0,.23c0,.67.12,1.32.22,2,0,.15.05.3.08.44.12.65.26,1.29.44,1.91l.06.18a17.1,17.1,0,0,0,.62,1.69c0,.08,0,.16.08.24a33.58,33.58,0,0,1-9.23-3.3A9.93,9.93,0,0,1,9.87,48C8,43.91,12,40.12,15.18,37.92Z"/><rect class="cls-1" width="100" height="100"/></svg>