<svg xmlns="http://www.w3.org/2000/svg" viewBox="0 0 78.55 83.22"><title>icon-support-3</title><g style="isolation:isolate"><g id="Layer_2" data-name="Layer 2"><g id="Layer_1-2" data-name="Layer 1"><polygon points="15.34 52.09 29.25 37.6 47.33 46.35 37.84 28.64 51.75 14.15 31.98 17.7 31.95 17.64 18.04 32.17 18.08 32.19 15.34 52.09" fill="#6db33f" style="mix-blend-mode:multiply"/><circle cx="62.34" cy="23.34" r="4.68" transform="translate(-3.69 14.95) rotate(-13.28)" fill="none"/><path d="M77.08,9.58a5,5,0,0,0-3.54-1.45H43.2A5,5,0,0,0,39.56,9.7L32,17.64l0,.06,19.77-3.55L37.84,28.64l9.48,17.71L29.25,37.6,15.34,52.09l2.74-19.9,0,0L3.58,47.27l39.2,35.95L77.2,47a5,5,0,0,0,1.35-3.4V13.11A5,5,0,0,0,77.08,9.58ZM62.34,28A4.68,4.68,0,1,1,67,23.34,4.68,4.68,0,0,1,62.34,28Z" fill="#d7e7e7"/><polygon points="22.5 0 19.77 19.89 0 23.44 18.04 32.17 31.95 17.64 22.5 0" fill="#80ea6e" style="mix-blend-mode:multiply"/></g></g></g></svg>