<svg xmlns="http://www.w3.org/2000/svg" viewBox="0 0 510 510"><defs><style>.cls-1{fill:#68bd45;}</style></defs><title>icon-framework</title><g id="Layer_2" data-name="Layer 2"><g id="Layer_1-2" data-name="Layer 1"><path class="cls-1" d="M479.19,162.47c-5.63-34.27-20.48-64.38-43.88-87.78S382,36.5,347.6,30.86C320.06,11.19,288.51,0,255,0s-65.06,11.19-92.6,30.86C128,36.5,98,51.35,74.69,74.68,50.94,98.43,36.54,128.74,31,162.21,11.24,189.8,0,221.42,0,255s11.24,65.2,31,92.79c5.54,33.48,19.94,63.78,43.69,87.53C98,458.65,128,473.5,162.4,479.15,190,498.82,221.5,510,255,510s65.05-11.18,92.6-30.85c34.44-5.65,64.37-20.5,87.71-43.83,23.75-23.75,38.15-54.06,43.69-87.54,19.76-27.59,31-59.2,31-92.78S498.83,190,479.19,162.47ZM473,224.21c-.82,6-1.93,11.93-3.21,17.88a293.89,293.89,0,0,0-29.42-63.85A293.63,293.63,0,0,0,416,112.42C438.88,127.17,458.17,145,472.73,165A203.9,203.9,0,0,1,473,224.21Zm-28.29-24.64a277.19,277.19,0,0,1,21.92,55.59,274.72,274.72,0,0,1-22,55.63,330.3,330.3,0,0,0,.07-111.22ZM175.43,341.1a64.18,64.18,0,0,1,21.34-9.76c32.21-7.45,46.72-9.94,66.27-18.42,36.75-15.94,74.76-53.26,84.59-94-16.14,38.76-59.48,70.17-97.9,81.59-26.17,7.79-79.84,13.6-80.1,13.62l-1.45-1.19c-30.56-17.38-27-85.77,31.76-104.09,25.72-8,55.89-.69,83.49-5.41,29.4-5,64.38-24.53,79.87-52,12.32,46.35,26.09,118.49-9.73,160.24C309.43,363,211.81,318,175.43,341.1ZM310.82,444.59A273.45,273.45,0,0,1,255,466.69a273.14,273.14,0,0,1-55.81-22.1,330.3,330.3,0,0,0,111.63,0ZM117.58,392.41a336.43,336.43,0,0,0,42.32,35.84,277.92,277.92,0,0,1-54.48-23.66A276.66,276.66,0,0,1,81.7,349.91,331.64,331.64,0,0,0,117.58,392.41ZM81.7,160.09a276.31,276.31,0,0,1,23.72-54.67A277.35,277.35,0,0,1,159.9,81.75a336.43,336.43,0,0,0-42.32,35.84A331.64,331.64,0,0,0,81.7,160.09Zm67.41,186.33a15.34,15.34,0,1,1,15-15.58A15.35,15.35,0,0,1,149.11,346.42Zm50.07-281A274,274,0,0,1,255,43.31a274,274,0,0,1,55.82,22.1,330.36,330.36,0,0,0-111.64,0Zm193.23,327A333.81,333.81,0,0,0,428.26,350a276.82,276.82,0,0,1-23.68,54.55,278.52,278.52,0,0,1-54.48,23.66A335.64,335.64,0,0,0,392.41,392.41Zm0-274.82A335.64,335.64,0,0,0,350.1,81.75a277.7,277.7,0,0,1,54.49,23.67,276.88,276.88,0,0,1,23.71,54.67A330.11,330.11,0,0,0,392.41,117.59Zm38.13-38.12c19.36,19.35,32.59,43.58,39.32,71.06-16.17-19.23-36.62-36.18-60.38-50-13.82-23.75-30.76-44.19-50-60.36C387.08,46.89,411.2,60.13,430.54,79.47ZM397.58,94A293.09,293.09,0,0,0,332,69.75a290.6,290.6,0,0,0-63.92-29.59A226.28,226.28,0,0,1,315.27,35,192.25,192.25,0,0,1,345,37.3C365.06,51.85,382.84,71.14,397.58,94ZM255,6.75c27.59,0,53.78,8,77.4,22.21q-8.41-.71-17.13-.71A237,237,0,0,0,255,36.35a237.06,237.06,0,0,0-60.27-8.1q-8.72,0-17.13.71C201.22,14.74,227.41,6.75,255,6.75ZM165,37.3A192.25,192.25,0,0,1,194.73,35a226.28,226.28,0,0,1,47.18,5.15A290.6,290.6,0,0,0,178,69.75,293.27,293.27,0,0,0,112.42,94C127.16,71.14,144.94,51.85,165,37.3ZM79.46,79.46c19.34-19.33,43.46-32.57,71.06-39.3-19.24,16.16-36.17,36.61-50,60.36-23.66,13.78-44,30.64-60.18,49.79C47,123.39,59.85,99.07,79.46,79.46ZM37.37,164.85c14.56-20,33.8-37.72,56.59-52.43a294.12,294.12,0,0,0-24.28,65.82A293.61,293.61,0,0,0,40.31,242C34.6,215.43,33.54,189.27,37.37,164.85Zm28,145.58A277.26,277.26,0,0,1,43.46,255a277.5,277.5,0,0,1,21.88-55.43,330.6,330.6,0,0,0,0,110.86ZM29.19,332.77C14.82,309.06,6.75,282.74,6.75,255s8.07-54.06,22.44-77.77c-2.14,25,.36,51.29,7.35,77.77C29.55,281.48,27.05,307.82,29.19,332.77Zm11.12-64.72a293.61,293.61,0,0,0,29.37,63.71A294.12,294.12,0,0,0,94,397.58c-22.79-14.71-42-32.46-56.58-52.43C33.54,320.73,34.6,294.57,40.31,268.05ZM79.46,430.54C59.85,410.93,47,386.61,40.34,359.69c16.13,19.15,36.52,36,60.18,49.79,13.83,23.74,30.76,44.2,50,60.36C122.92,463.11,98.8,449.87,79.46,430.54Zm33-14.5A293.46,293.46,0,0,0,178,440.25a291.1,291.1,0,0,0,63.92,29.6A227,227,0,0,1,194.73,475,193.49,193.49,0,0,1,165,472.71C144.94,458.15,127.16,438.87,112.42,416ZM255,503.24c-27.59,0-53.78-8-77.4-22.2,5.61.46,11.32.71,17.13.71a237.06,237.06,0,0,0,60.27-8.1,237,237,0,0,0,60.27,8.1c5.81,0,11.52-.25,17.13-.71C308.78,495.26,282.59,503.24,255,503.24Zm90-30.53A193.49,193.49,0,0,1,315.27,475a227,227,0,0,1-47.18-5.15A291.1,291.1,0,0,0,332,440.25,293.27,293.27,0,0,0,397.58,416C382.84,438.86,365.06,458.15,345,472.71Zm85.5-42.17c-19.34,19.33-43.46,32.57-71.06,39.3,19.24-16.16,36.17-36.62,50-60.36,23.66-13.78,44-30.64,60.19-49.8C463.06,386.61,450.15,410.93,430.54,430.54Zm42.09-85.4c-14.56,20-33.8,37.73-56.59,52.44A294.13,294.13,0,0,0,440.27,332a292.37,292.37,0,0,0,29.48-63.68C475.4,294.73,476.45,320.8,472.63,345.14Zm.9-89.88a252.27,252.27,0,0,0,6.11-30.14A217,217,0,0,0,481,177.58c14.23,23.62,22.22,49.82,22.22,77.42s-8.06,54.06-22.42,77.77C482.94,307.9,480.47,281.65,473.53,255.26Z"/></g></g></svg>