<?xml version="1.0" encoding="utf-8"?>
<!-- Generator: Adobe Illustrator 24.0.1, SVG Export Plug-In . SVG Version: 6.00 Build 0)  -->
<svg version="1.1" id="Layer_1" xmlns="http://www.w3.org/2000/svg" xmlns:xlink="http://www.w3.org/1999/xlink" x="0px" y="0px"
	 viewBox="0 0 25.4 43.6" style="enable-background:new 0 0 25.4 43.6;" xml:space="preserve">
<style type="text/css">
	.st0{fill:#FFFFFF;}
	.st1{fill:#191E1E;}
</style>
<title>icon-guides-topic</title>
<polygon class="st0" points="19.8,13 24.7,10.1 24.6,40 19.7,42.8 "/>
<path class="st0" d="M9.3,1.2C8.5,0.7,7.6,0.6,6.7,1L1.8,3.8c0.8-0.4,1.8-0.3,2.5,0.2L19.8,13l4.9-2.9L9.3,1.2z"/>
<path class="st1" d="M25.4,10.1c0-0.1,0-0.2-0.1-0.2c0-0.1,0-0.1,0-0.1c-0.1-0.1-0.2-0.2-0.3-0.3L9.7,0.6c-1-0.7-2.2-0.8-3.3-0.2
	L1.5,3.2C1.3,3.3,1.2,3.4,1.2,3.5C0.4,4.2,0,5.2,0.1,6.2L0,27.8c0.1,2.8,1.6,5.3,3.9,6.8l15.4,8.9c0.2,0.1,0.5,0.1,0.7,0l0,0l5-2.9
	c0.2-0.1,0.4-0.4,0.4-0.6L25.4,10.1L25.4,10.1z M7.1,1.6c0.6-0.2,1.3-0.1,1.8,0.2l14.3,8.2l-0.3,0.2l-3.1,1.8l-15-8.7L4.4,3.2
	L7.1,1.6z M20.4,41.5l0.1-28.1l1.3-0.8l2.1-1.2l-0.1,28.1L20.4,41.5z"/>
<polyline class="st0" points="10.2,14.1 8.2,17.7 3.6,15.8 6.9,21.4 6.1,26.2 10.2,26.1 14.3,30.9 13.5,25.2 16.9,23.4 12.3,20 
	10.2,14.1 "/>
</svg>
