<svg id="Layer_1" data-name="Layer 1" xmlns="http://www.w3.org/2000/svg" viewBox="0 0 100 100"><defs><style>.cls-1{fill:none;}</style></defs><title>icon-serverless</title><path d="M77.17,52.32a.81.81,0,0,0-1.11.29L59.83,80.08a.83.83,0,0,0,.29,1.12.87.87,0,0,0,.41.11.8.8,0,0,0,.7-.4L77.46,53.43A.81.81,0,0,0,77.17,52.32Z"/><path d="M71.42,74.91a.81.81,0,0,0-1.11.29L63.47,86.78a.82.82,0,0,0,.29,1.11.77.77,0,0,0,.41.11.8.8,0,0,0,.7-.4L71.71,76A.81.81,0,0,0,71.42,74.91Z"/><path d="M77.21,36.72a.8.8,0,0,0,0-1.36l-10-5.79L71.56,14.7h0a.78.78,0,0,0,.26-.55.8.8,0,0,0-.4-.7L56.58,4.81a.83.83,0,0,0-.81,0L34.42,17.14s-.05.05-.08.07a1.37,1.37,0,0,0-.17.17c0,.05-.05.1-.07.14a.45.45,0,0,0-.06.12L22.45,62.46a.83.83,0,0,0,.38.91l9.29,5.39L26.58,85.61a.81.81,0,0,0,.36,1l14.84,8.63a.87.87,0,0,0,.41.11.75.75,0,0,0,.29-.06.8.8,0,0,0,.41-.38l0,0,34.23-58S77.19,36.76,77.21,36.72Zm-21-30.27,13.22,7.69L49.67,25.52,36.45,17.84ZM24.33,61.7l11-42.62.45.26,12.93,7.51L42.38,51.41,37.62,69.83l-.06.22L33,67.4l-8.83-5.13Zm21,25.83L54.8,58.8a1.09,1.09,0,0,0,0-.26.84.84,0,0,0-.35-.66.83.83,0,0,0-1,0s0,0,0,0L39.47,69.14v0l4.36-16.86,3.91-15.15L48,36.3l.25-.95.28-1.1,1.82-7,19.12-11L65.76,28.73l-.24.8-.23.8-3.78,12.9-.23.8-.16.53a.81.81,0,0,0,0,.31.79.79,0,0,0,.3.56.8.8,0,0,0,.9.06l11.9-6.82Z"/><rect class="cls-1" width="100" height="100"/></svg>