<svg id="Layer_1" data-name="Layer 1" xmlns="http://www.w3.org/2000/svg" viewBox="0 0 100 100"><defs><style>.cls-1{fill:none;}</style></defs><title>icon-microservices</title><path d="M98.54,57.06,73.64,42.68l6-3.49a.74.74,0,0,0,.37-.65l0-15.21a.73.73,0,0,0-.38-.65.42.42,0,0,0-.16,0L66.31,15a.75.75,0,0,0-.75,0L52.4,22.68a.57.57,0,0,0-.15.16,1.31,1.31,0,0,0-.12.11.67.67,0,0,0-.05.19.59.59,0,0,0,0,.19l0,6.87L49.85,29,38.46,35.57l0-4.55a.74.74,0,0,0-.37-.64,1,1,0,0,0-.16-.05l-13.17-7.6a.77.77,0,0,0-.75,0L10.83,30.38a.77.77,0,0,0-.18.18s-.07.05-.09.09a.9.9,0,0,0-.06.22,1.13,1.13,0,0,0,0,.15l0,15.22a.74.74,0,0,0,.37.65l4.1,2.37L1.46,57.07,26.91,71.76v1.81a.76.76,0,0,0,.38.65l13.24,7.64a.69.69,0,0,0,.37.1H41a.69.69,0,0,0,.37-.1L42.88,81l7.27,4.2L65.92,76,72.74,80l24-14-6.81-3.93ZM54.27,23.33l11.66-6.78,11.75,6.78L66,30.11,59.7,26.46l-5.43-3.13Zm-.77,7.73,0-6.43L59,27.76l6.32,3.65,0,6.43v7L53.48,38.11l0-5.32ZM12.71,31l11.66-6.77L36.11,31,24.45,37.81l-6.31-3.65L12.71,31ZM12,32.32l6.85,4L23.7,39.1v6.79l0,6.7-5.77-3.34-1.5-.86-4.47-2.58ZM28.4,72.63V70.9l0-11.25L30.78,61l9.4,5.43,0,11.25v2.24L28.4,73.13Zm.79-14.28,11.66-6.78,11.74,6.78L40.93,65.13l-9.76-5.64-2-1.14ZM54.94,64,72.59,53.78,87,62.07l-21,12.21L55,68ZM50.15,83.45l-5.77-3.33,10.21-5.9a.76.76,0,0,0,.38-.65V69.69l9.47,5.46ZM93.76,66l-21,12.22-5.31-3.07,21-12.22ZM72.59,52,54.94,62.3V58.35a.75.75,0,0,0-.38-.65.47.47,0,0,0-.16,0l-13.17-7.6a.72.72,0,0,0-.75,0L27.32,57.7h0a.93.93,0,0,0-.14.14s-.1.08-.13.14a.51.51,0,0,0-.06.21.49.49,0,0,0,0,.16l0,11.68-22.46-13,11.94-6.94L24,54.54a.86.86,0,0,0,.38.1h.09a.86.86,0,0,0,.37-.1l13.24-7.65a.75.75,0,0,0,.38-.65l0-8.94,11.39-6.62L52,31.92l0,6.62a.75.75,0,0,0,.38.65L65.6,46.84a.75.75,0,0,0,.38.1h.08a.75.75,0,0,0,.38-.1l5.7-3.29L95.55,57.07,88.44,61.2Z"/><rect class="cls-1" width="100" height="100"/></svg>