<svg id="Layer_1" data-name="Layer 1" xmlns="http://www.w3.org/2000/svg" viewBox="0 0 100 100"><defs><style>.cls-1{fill:none;}</style></defs><title>icon-event-driven</title><path d="M89.52,47.11l0-12.94a.74.74,0,0,0-.38-.65.61.61,0,0,0-.13,0l-4.73-2.74,4.9-2.83a.75.75,0,0,0,.38-.65l0-12.94a.73.73,0,0,0-.38-.65l-.13,0L77.77,7.18a.72.72,0,0,0-.75,0l-11.19,6.5a.61.61,0,0,0-.16.16,1.31,1.31,0,0,0-.12.11,1.33,1.33,0,0,0,0,.19,1.05,1.05,0,0,0,0,.19l0,12.42L61.55,29a4.8,4.8,0,0,0-2,2.35l-10,24.54L44.16,59c-3.48-5.85-8.2-11-13.4-14-5.36-3.1-10.44-3.58-14.3-1.35s-6,6.79-6,12.9c0,12.33,8.67,27.41,19.41,33.61a18.17,18.17,0,0,0,8.94,2.72,10.55,10.55,0,0,0,5.35-1.37c3.84-2.21,6-6.8,6-12.91,0-5.92-2-12.46-5.25-18.35l5-2.87,9.31,11.93a2.29,2.29,0,0,0,1.81.88,2.22,2.22,0,0,0,1.14-.31l4-2.29,11,6.33a.75.75,0,0,0,.38.1h.07a.75.75,0,0,0,.38-.1l11.26-6.5a.75.75,0,0,0,.38-.65l0-12.94a.73.73,0,0,0-.38-.65s-.09,0-.13,0l-4.61-2.66,4.78-2.76A.75.75,0,0,0,89.52,47.11ZM48.66,78.63c0,5.56-1.87,9.69-5.22,11.62s-7.93,1.46-12.8-1.35C20.32,82.94,12,68.45,12,56.6,12,51,13.86,46.92,17.21,45a9.07,9.07,0,0,1,4.61-1.18A16.65,16.65,0,0,1,30,46.34c5,2.88,9.52,7.77,12.87,13.39L38.4,62.31a24,24,0,0,0-8-8.29c-6.54-3.78-11.85-.75-11.87,6.76s5.26,16.66,11.8,20.43,11.85.75,11.87-6.76a23.46,23.46,0,0,0-3-10.83L43.63,61C46.75,66.69,48.68,73,48.66,78.63ZM34.51,70c0,2.66-1.89,3.73-4.2,2.4a9.24,9.24,0,0,1-4.18-7.23c0-2.66,1.89-3.73,4.21-2.4A9.22,9.22,0,0,1,34.51,70ZM72,43.78a.74.74,0,0,0-1-.28l-4.06,2.34,0-10.37,4.27,2.46,5.5,3.18,0,5.79v5.42l-3.17-1.83-.75-.43L72,49.62l-4.32-2.49,4-2.33A.75.75,0,0,0,72,43.78ZM82,30.32l-.75.43-3,1.73V21.26L88,15.63l0,11.21-5.27,3.05ZM67,15.63l4.27,2.46,5.5,3.17,0,5.95v5.27l-3-1.76-.75-.43-.75-.44-4.55-2.62,3.75-2.17a.75.75,0,1,0-.75-1.3l-3.67,2.12Zm5,47.72a.74.74,0,0,0-1-.27l-4.06,2.34,0-10.26,9.77,5.64,0,11.22-9.09-5.25,4.14-2.39A.76.76,0,0,0,72,63.35Zm16,3L78.25,72l0-11.22L88,55.16Zm-5.9-16.29-.75.43-3.11,1.8V41.11L88,35.47l0,11.21-5.15,3ZM60.89,31.9a3.28,3.28,0,0,1,1.41-1.62l3.79-2.19,4.55,2.63-4.81,2.8a.61.61,0,0,0-.16.16.68.68,0,0,0-.12.12,1,1,0,0,0,0,.18c0,.07,0,.12,0,.19l0,12.54L51.65,54.66Zm.48,36.73a.8.8,0,0,1-1-.2L51.18,56.67l15-8.67,4.33,2.49-4.69,2.73h0a1.31,1.31,0,0,0-.12.11c0,.06-.12.1-.16.16a.58.58,0,0,0,0,.18.76.76,0,0,0-.06.2l0,12.42Z"/><path d="M28.05,66.31a5,5,0,0,0,2.26,3.91c1.26.73,2.28.15,2.28-1.29A5,5,0,0,0,30.33,65C29.08,64.28,28.06,64.86,28.05,66.31Z"/><rect class="cls-1" width="100" height="100"/></svg>