<svg id="Layer_1" data-name="Layer 1" xmlns="http://www.w3.org/2000/svg" viewBox="0 0 25.43 43.6"><defs><style>.cls-1{fill:#fff;}.cls-2{fill:#010101;}</style></defs><title>icon-guides-topic</title><polygon class="cls-1" points="19.77 12.99 24.68 10.13 24.59 39.99 19.68 42.85 19.77 12.99"/><path class="cls-1" d="M9.28,1.24A2.54,2.54,0,0,0,6.74,1L1.83,3.85a2.54,2.54,0,0,1,2.54.25L19.76,13l4.92-2.86Z"/><path class="cls-2" d="M25.43,10.13a.86.86,0,0,0-.06-.23c0-.05,0-.1,0-.14a.75.75,0,0,0-.28-.28L9.66.59A3.23,3.23,0,0,0,6.36.35L1.45,3.21a.62.62,0,0,0-.26.27A3.33,3.33,0,0,0,.06,6.18L0,27.82a8.56,8.56,0,0,0,3.92,6.8L19.31,43.5a.73.73,0,0,0,.74,0h0L25,40.63a.77.77,0,0,0,.38-.64l.08-29.86ZM7.12,1.64a1.85,1.85,0,0,1,1.79.25l14.27,8.24-.28.17-3.14,1.82-15-8.67-.38-.2Zm13.31,39.9.08-28.12,1.34-.77,2.08-1.21-.08,28.11Z"/><polyline class="cls-1" points="10.24 14.09 8.19 17.67 3.61 15.79 6.91 21.42 6.11 26.2 10.21 26.09 14.29 30.92 13.53 25.24 16.85 23.44 12.28 20.04 10.24 14.09"/></svg>