<svg xmlns="http://www.w3.org/2000/svg" viewBox="0 0 164.06 112.71"><title>graph</title><g id="Layer_2" data-name="Layer 2"><g id="Layer_1-2" data-name="Layer 1"><path d="M90.5,55.62l35.71-35.71H40.87a10.79,10.79,0,0,0-10.8,10.8v34L64.83,29.94Z" fill="#d7e7e7"/><path d="M64.83,65.82,33.64,97a10.75,10.75,0,0,0,7.23,2.79H133A10.79,10.79,0,0,0,143.78,89V38.21L90.5,91.49Z" fill="#d7e7e7"/><path d="M30.07,89V64.7L0,94.77l17.94,17.94L33.64,97A10.73,10.73,0,0,1,30.07,89Z" fill="#80ea6e"/><path d="M164.06,43.58V0H120.48L133.3,12.82l-7.09,7.09H133a10.79,10.79,0,0,1,10.8,10.8v7.5l7.46-7.45Z" fill="#80ea6e"/><path d="M133,19.91h-6.77L90.5,55.62,64.83,29.94,30.07,64.7V89a10.73,10.73,0,0,0,3.57,8L64.83,65.82,90.5,91.49l53.28-53.28v-7.5A10.79,10.79,0,0,0,133,19.91Z" fill="#6db33f"/></g></g></svg>