<svg id="Layer_1" data-name="Layer 1" xmlns="http://www.w3.org/2000/svg" viewBox="0 0 100 100"><defs><style>.cls-1{fill:none;}</style></defs><title>icon-cloud</title><path d="M81.7,43.2c-3-11.09-10.87-21.87-19.58-26.9-5.58-3.22-10.86-3.81-14.95-1.68a13.82,13.82,0,0,0-3.07-2.46c-2.33-1.35-4.56-1.54-6.28-.54l-8.89,5.17,0,0-.11.08-.16.08a5.7,5.7,0,0,0-2.36,5l-4,2.34h0l-.08,0a7.57,7.57,0,0,0-2.16,2,5.45,5.45,0,0,0-5.06.14c-1.6,1-2.44,3-2.35,5.5,0,.32,0,.66.08,1a7.52,7.52,0,0,0-5.18,2c-2,1.88-2.93,4.82-2.8,8.51C5,52.24,11.54,62.67,19.3,66.77L60.35,88.3a11.81,11.81,0,0,0,4.13.81A7.66,7.66,0,0,0,69,87.71a9,9,0,0,0,3.42-6.19l.49.28.09,0a11.75,11.75,0,0,0,4.27.87,8,8,0,0,0,3.89-1l.16-.07h0l8.88-5.16c2.85-1.65,4.42-5,4.44-9.51C94.71,58.52,89,48.12,81.7,43.2Zm5.53,7.5-8,4.63A27,27,0,0,0,73,49.19l8-4.64A26.57,26.57,0,0,1,87.23,50.7ZM61.37,17.6A39.58,39.58,0,0,1,73.88,29.86l-8,4.62A40,40,0,0,0,53.23,22.11c-4.42-2.55-8.65-3.4-12.22-2.51l5.76-3.34a.8.8,0,0,0,.64-.05C51.07,14,56,14.52,61.37,17.6ZM71.11,79,32.78,57.07c-7.43-4.29-13.45-14.72-13.43-23.25a12.14,12.14,0,0,1,1.2-5.57,13.27,13.27,0,0,1,2.93,2.38.75.75,0,0,0,1,.11c3.5-2.34,8.38-2.07,13.75.76C46.68,36,54.5,46.07,57.66,56.59A.76.76,0,0,0,58,57c7.08,4.15,12.84,13.64,13.12,21.6C71.12,78.76,71.11,78.89,71.11,79Zm-3,7.48c-1.84,1.32-4.42,1.47-7.2.44L20,65.44c-7.33-3.87-13.53-13.73-13.81-22-.12-3.25.69-5.8,2.34-7.38a6.09,6.09,0,0,1,4.3-1.62l.67,0a.74.74,0,0,0,.62-.25.73.73,0,0,0,.17-.65,11.44,11.44,0,0,1-.2-1.68c-.07-2,.52-3.47,1.65-4.18a3.9,3.9,0,0,1,3.45-.12,13.69,13.69,0,0,0-1.34,6.2c0,9,6.33,20,14.18,24.56L71,80.71A7.89,7.89,0,0,1,68.16,86.5ZM59,55.88C55.69,45.1,47.63,34.79,38.89,30.17c-5.62-3-10.83-3.32-14.75-1A14.54,14.54,0,0,0,21.37,27a5.93,5.93,0,0,1,1.78-1.49h0l.11-.08L27.42,23a.75.75,0,0,0,.37-.64c0-2,.65-3.46,1.78-4.19s2.71-.49,4.44.43a16.33,16.33,0,0,1,3.18,2.94l.92,1L39,22c3.56-2.08,8.36-1.6,13.52,1.38C60.78,28.2,68.21,38.55,71,49.17l.14.52.43.28c6.86,4.38,12.22,14,12.2,21.91.13,3.67-.94,6.51-3,8-1.87,1.35-4.5,1.49-7.39.41v0l-.74-.42c0-.43,0-.87,0-1.32C72.33,70.24,66.37,60.34,59,55.88Z"/><rect class="cls-1" width="100" height="100"/></svg>