<?xml version="1.0" encoding="utf-8"?>
<!-- Generator: Adobe Illustrator 24.0.1, SVG Export Plug-In . SVG Version: 6.00 Build 0)  -->
<svg version="1.1" id="Layer_1" xmlns="http://www.w3.org/2000/svg" xmlns:xlink="http://www.w3.org/1999/xlink" x="0px" y="0px"
	 viewBox="0 0 100 100" style="enable-background:new 0 0 100 100;" xml:space="preserve">
<style type="text/css">
	.st0{fill:#191E1E;}
	.st1{fill:none;}
</style>
<title>icon-batch</title>
<path class="st0" d="M88.1,27.8L53.2,7.7c-0.2-0.1-0.5-0.1-0.8,0c-0.2,0.1-0.4,0.4-0.4,0.7V17l-7.5-4.3c-0.2-0.1-0.5-0.1-0.8,0
	c-0.2,0.1-0.4,0.4-0.4,0.6V22l-7.5-4.4c-0.2-0.1-0.5-0.1-0.8,0c-0.2,0.1-0.4,0.4-0.4,0.6l-0.1,31h-2.6c-0.4,0-0.7,0.3-0.8,0.8v2.4
	h-0.1c-0.8,0.1-1.6,0.3-2.3,0.5c-0.5,0.1-0.9,0.2-1.4,0.4l-3.4-2c-0.2-0.1-0.5-0.1-0.8,0l-6.5,3.8c-0.2,0.1-0.4,0.4-0.4,0.7V60h-2.7
	c-0.4,0-0.8,0.3-0.8,0.8v11.8v5.4c0,0.4,0.3,0.7,0.7,0.8c0,0,0,0,0,0h2.7v3.9c0,0.3,0.1,0.5,0.4,0.7l6.6,3.8
	c0.1,0.1,0.2,0.1,0.4,0.1c0.1,0,0.3,0,0.4-0.1l0,0l3.4-2l0.9,0.3c0.6,0.2,1.3,0.3,1.9,0.5c0.3,0.1,0.7,0.1,1,0.2v2.4
	c0,0.4,0.3,0.8,0.7,0.8h9.3c0.4,0,0.7-0.3,0.8-0.7c0,0,0,0,0,0V86h0.1c0.4-0.1,0.8-0.2,1.3-0.3l0.4-0.1c0.7-0.2,1.3-0.3,1.9-0.5l0,0
	l3.4,1.9c0.1,0.1,0.2,0.1,0.4,0.1c0.1,0,0.3,0,0.4-0.1l0,0l5-2.9l14.7,8.5c0.2,0.1,0.5,0.1,0.7,0c0.2-0.1,0.4-0.4,0.4-0.7v-8.7
	l7.5,4.3c0.1,0.1,0.2,0.1,0.4,0.1c0.1,0,0.3,0,0.4-0.1c0.2-0.1,0.4-0.4,0.4-0.7v-8.7l7.5,4.3c0.1,0.1,0.2,0.1,0.4,0.1
	c0.1,0,0.3,0,0.4-0.1c0.2-0.1,0.4-0.4,0.4-0.7l0.2-53.4C88.5,28.3,88.3,28,88.1,27.8z M86.9,80.6l-7.1-4.1l0.1-43
	c0-0.3-0.1-0.5-0.4-0.7l-25.9-15V9.6L87,28.9L86.9,80.6z M78.2,77.3v8.2L71,81.5v-8.2v-1.7l0.1-17.4c0.1-0.2,0.1-0.5,0-0.7
	L58.3,31.2v-0.1c0-0.3-0.1-0.5-0.4-0.7l-4.4-2.5l-0.7-0.4L52,27l-7.1-4.1v-8.3l7.1,4.1l0.8,0.4l0.8,0.4l24.8,14.3l-0.1,41.7
	L78.2,77.3L78.2,77.3z M69.5,82.3v8.3l-12.9-7.4l0,0c0.2-0.1,0.4-0.4,0.4-0.7v-3.9h2.7c0.4,0,0.7-0.3,0.8-0.8v-2.5v-8.2v-1.7v-4.7
	c0-0.4-0.3-0.7-0.8-0.7h-0.1L57,60v-4c0-0.3-0.1-0.5-0.4-0.7l-3.2-1.8L52.7,53L52,52.6l-1.9-1.1c-0.2-0.1-0.5-0.1-0.8,0l-1.6,0.9
	l-1.8,1c-0.4-0.1-0.7-0.2-1.1-0.3l-0.8-0.2l-0.8-0.2c-0.4-0.1-0.8-0.2-1.2-0.2v-2.4c0-0.4-0.3-0.7-0.8-0.8h-5.2l0.1-29.7l7.2,4.1
	l0.8,0.4l0.8,0.4l7.1,4.1l0.8,0.4l0.8,0.4l3.1,1.8v14.7v0.3c0,0.3,0.1,0.5,0.4,0.7l12.7,7.3l-0.1,16.2v1.7v8.3L69.5,82.3L69.5,82.3z
	 M53.7,83.2L50.5,85V75l1.3-0.8l0.8-0.4l0.7-0.4h0.1l0.4-0.2l0.8-0.4l0.8-0.4l0.4-0.2v10l-0.4,0.2l-0.7,0.4L53.7,83.2z M19,61.5
	c0.3,0,0.6-0.2,0.7-0.5c0.4-0.9,1-1.8,1.8-2.5c0.3-0.3,0.3-0.8,0-1c-0.1-0.1-0.1-0.1-0.2-0.1l-2.5-1.5l4.9-2.8l3.3,1.9
	c0.2,0.1,0.4,0.1,0.6,0.1c0.6-0.2,1.2-0.4,1.8-0.5s1.2-0.3,1.9-0.4c0.3,0,0.6-0.1,0.9-0.2c0.4-0.1,0.6-0.4,0.6-0.7v-2.2h7.5v2.2
	c0,0.4,0.3,0.7,0.6,0.7c0.8,0.1,1.5,0.3,2.2,0.4l0.8,0.2l0.8,0.2c0.3,0.1,0.6,0.2,0.9,0.3c0.1,0,0.2,0,0.3,0c0.1,0,0.2,0,0.3-0.1
	l2-1.2l1.4-0.7l2.3,1.3l0.8,0.4l0.8,0.4l1.1,0.7l-1.1,0.7l-0.8,0.4l-0.6,0.4c0,0-0.1,0.1-0.1,0.1c-0.1,0.1-0.2,0.3-0.2,0.5
	c0,0.2,0.1,0.5,0.2,0.6l0,0c0.3,0.3,0.5,0.5,0.8,0.8c0.3,0.3,0.5,0.7,0.7,1.1c0.1,0.2,0.2,0.4,0.3,0.6c0.1,0.3,0.4,0.4,0.7,0.4h4.4
	v3v0.8h-4.4c-0.3,0-0.6,0.2-0.7,0.4c-0.4,1-1,1.9-1.8,2.6c-0.2,0.2-0.2,0.4-0.2,0.6c0,0.2,0.2,0.4,0.4,0.6l1.3,0.8l1.2,0.7l0,0
	l-1,0.6l-0.8,0.4l0,0l-0.7,0.4l-2.4,1.4l0,0l-3.1-1.8l-0.2-0.1l0,0c-0.1,0-0.2-0.1-0.3-0.1c-0.1,0-0.2,0-0.3,0l0,0h-0.1h-0.1
	c-1.4,0.5-2.9,0.8-4.4,1.1c-0.4,0-0.6,0.4-0.6,0.7v2.2h-7.6l0,0v-2.2c0-0.3-0.2-0.6-0.5-0.7h-0.1c-0.6-0.1-1.1-0.2-1.6-0.3h-0.1
	c-0.5-0.1-1-0.2-1.6-0.4L28.5,72c-0.2-0.1-0.5-0.1-0.7-0.2l0,0c-0.2-0.1-0.4,0-0.6,0.1L27,72l-3.1,1.8l0,0L19,70.9l2.5-1.4
	c0.2-0.1,0.3-0.3,0.4-0.6c0-0.2-0.1-0.5-0.2-0.6c-0.8-0.7-1.4-1.6-1.8-2.5c-0.1-0.3-0.4-0.4-0.7-0.4h-4.4v-3.7L19,61.5L19,61.5z
	 M32.9,80.8v-3.4h7.8v3.4v4.8v2h-7.8L32.9,80.8z M18,78.6v-6.6l2.3,1.3l0.8,0.4l2,1.2v0.2V85L18,82.1V78.6z"/>
<path class="st0" d="M29.9,67.8c1.5,0.8,3.1,1.3,4.7,1.5c0.2,0,0.5,0.1,0.8,0.1h0.8c0.2,0,0.5,0,0.7,0c2.4,0,4.8-0.5,6.9-1.7
	l0.3-0.2c0.2-0.1,0.5-0.3,0.7-0.5c0.2-0.2,0.4-0.3,0.6-0.5c0.9-0.8,1.4-2,1.5-3.2c-0.1-1.4-0.8-2.8-1.9-3.6
	c-0.2-0.2-0.5-0.4-0.8-0.5c-0.1-0.1-0.3-0.2-0.4-0.3s-0.2-0.1-0.3-0.2c-2.2-1.1-4.7-1.6-7.2-1.5h-0.8l-0.8,0.1
	c-1.7,0.2-3.3,0.7-4.8,1.5c-2,1.1-3.1,2.7-3,4.4S27.9,66.6,29.9,67.8z"/>
<rect class="st1" width="100" height="100"/>
</svg>
