<svg xmlns="http://www.w3.org/2000/svg" viewBox="0 0 95.86 83.82"><title>icon-support-1</title><g style="isolation:isolate"><g id="Layer_2" data-name="Layer 2"><g id="Layer_1-2" data-name="Layer 1"><path d="M55.75,62.26a2.49,2.49,0,0,0,.66-2.14H43.05a2.7,2.7,0,0,1,0-5.4h7.29a9.8,9.8,0,0,1-1.89-8.48A10.2,10.2,0,0,1,49,44.77H26.61a5,5,0,0,0-3.41,1.37h0L19.9,48.6,44.65,73.35Z" fill="#6db33f" style="mix-blend-mode:multiply"/><path d="M50.34,54.72h3.75a5,5,0,1,0,0-9.95H49a10.2,10.2,0,0,0-.51,1.47A9.8,9.8,0,0,0,50.34,54.72Z" fill="#d7e7e7"/><path d="M94.17,42.32a9.9,9.9,0,0,0-10.51,1.59L64.78,59.36a3.71,3.71,0,0,1-2.48.73H59.64a2.4,2.4,0,0,1-.28,0h-3a2.49,2.49,0,0,1-.66,2.14L44.65,73.35,19.9,48.6,0,63.52l20.72,20.3,5.42-5.39a2.84,2.84,0,0,1,2.25-1.23h33.2s6.93-.25,10.92-4.77L95.28,46.78S97.14,44.32,94.17,42.32Z" fill="#d7e7e7"/><path d="M43.05,54.72a2.7,2.7,0,0,0,0,5.4H56.41a.45.45,0,0,1,0-.11,2.56,2.56,0,0,0-1.54-1.81,10.08,10.08,0,0,1-3.4-2.28,9.72,9.72,0,0,1-1.12-1.2H43.05Z" fill="#80ea6e" style="mix-blend-mode:multiply"/><path d="M23.2,46.14a5,5,0,0,1,3.41-1.37H49a9.79,9.79,0,0,1,16.33-2.69,10.19,10.19,0,0,1,2.25,3.4A2.52,2.52,0,0,0,69.35,47a2.41,2.41,0,0,0,2.24-.65l11.1-11.09L71.13,23.75a9.52,9.52,0,0,0,4.41-2.51A10,10,0,0,0,61.42,7.12a9.55,9.55,0,0,0-2.52,4.4L47.4,0,36.84,10.56a2.44,2.44,0,0,0-.7,2,2.56,2.56,0,0,0,1.12,1.82,10,10,0,0,1,1.55,1.28A9.8,9.8,0,1,1,25,29.48a10.06,10.06,0,0,1-1.27-1.56,2.58,2.58,0,0,0-1.83-1.11,2.46,2.46,0,0,0-2,.69L9.35,38.05,19.9,48.6l3.29-2.47Z" fill="#80ea6e" style="mix-blend-mode:multiply"/></g></g></g></svg>