<?xml version="1.0" encoding="utf-8"?>
<!-- Generator: Adobe Illustrator 24.0.1, SVG Export Plug-In . SVG Version: 6.00 Build 0)  -->
<svg version="1.1" id="Layer_1" xmlns="http://www.w3.org/2000/svg" xmlns:xlink="http://www.w3.org/1999/xlink" x="0px" y="0px"
	 viewBox="0 0 25.4 43.6" style="enable-background:new 0 0 25.4 43.6;" xml:space="preserve">
<style type="text/css">
	.st0{fill:#FFFFFF;}
	.st1{fill:#191E1E;}
</style>
<title>icon-guides-tutorial</title>
<g id="Layer_2_1_">
	<g id="Layer_1-2">
		<polygon class="st0" points="19.8,13 24.7,10.1 24.6,40 19.7,42.8 		"/>
		<path class="st0" d="M9.3,1.2C8.5,0.7,7.6,0.6,6.7,1L1.8,3.8c0.8-0.4,1.8-0.3,2.5,0.2L19.8,13l4.9-2.9L9.3,1.2z"/>
		<path class="st1" d="M25.4,10.1c0-0.1,0-0.2-0.1-0.2c0-0.1,0-0.1,0-0.1c-0.1-0.1-0.2-0.2-0.3-0.3L9.7,0.6c-1-0.7-2.2-0.8-3.3-0.2
			L1.5,3.2C1.3,3.3,1.2,3.4,1.2,3.5C0.4,4.2,0,5.2,0.1,6.2L0,27.8c0.1,2.8,1.6,5.3,3.9,6.8l15.4,8.9c0.2,0.1,0.5,0.1,0.7,0l0,0
			l5-2.9c0.2-0.1,0.4-0.4,0.4-0.6L25.4,10.1L25.4,10.1z M7.1,1.6c0.6-0.2,1.3-0.1,1.8,0.2l14.3,8.2l-0.3,0.2l-3.1,1.8l-15-8.7
			L4.4,3.2L7.1,1.6z M20.4,41.5l0.1-28.1l1.3-0.8l2.1-1.2l-0.1,28.1L20.4,41.5z"/>
		<path class="st0" d="M10.3,25.4c-1.4-0.9-2.3-2.5-2.4-4.2c0-1.6,1.1-2.2,2.4-1.4c1.4,0.9,2.3,2.5,2.4,4.2
			C12.7,25.5,11.6,26.1,10.3,25.4 M11.5,15.5L9,14l-0.1,1.7c-0.4-0.1-0.9-0.2-1.4-0.1l-1.2-1.8l-1.8,1l1,2c-0.2,0.4-0.4,0.8-0.5,1.2
			l-1.6-0.8v2.9l1.6,1c0.1,0.7,0.3,1.3,0.6,1.9l-1,0.8l1.8,3l1.2-0.4c0.4,0.5,0.9,1,1.4,1.4L9,29.6l2.5,1.5l0.1-1.7
			c0.5,0.1,1,0.2,1.5,0.1l1.1,1.8l1.8-1L15,28.5c0.3-0.4,0.5-0.9,0.6-1.3l1.5,0.7V25l-1.4-0.9c-0.1-0.7-0.3-1.4-0.6-2l0.9-0.7
			l-1.8-3l-1.1,0.5c-0.4-0.6-0.9-1.1-1.5-1.5L11.5,15.5"/>
	</g>
</g>
</svg>
