<?xml version="1.0" encoding="utf-8"?>
<!-- Generator: Adobe Illustrator 24.0.1, SVG Export Plug-In . SVG Version: 6.00 Build 0)  -->
<svg version="1.1" id="Layer_1" xmlns="http://www.w3.org/2000/svg" xmlns:xlink="http://www.w3.org/1999/xlink" x="0px" y="0px"
	 viewBox="0 0 100 100" style="enable-background:new 0 0 100 100;" xml:space="preserve">
<style type="text/css">
	.st0{fill:#191E1E;}
	.st1{fill:none;}
</style>
<title>icon-serverless</title>
<path class="st0" d="M77.2,52.3c-0.4-0.2-0.9-0.1-1.1,0.3c0,0,0,0,0,0L59.8,80.1c-0.2,0.4-0.1,0.9,0.3,1.1c0.1,0.1,0.3,0.1,0.4,0.1
	c0.3,0,0.6-0.2,0.7-0.4l16.2-27.5C77.7,53,77.6,52.5,77.2,52.3C77.2,52.3,77.2,52.3,77.2,52.3z"/>
<path class="st0" d="M71.4,74.9c-0.4-0.2-0.9-0.1-1.1,0.3c0,0,0,0,0,0l-6.8,11.6c-0.2,0.4-0.1,0.9,0.3,1.1C63.9,88,64,88,64.2,88
	c0.3,0,0.6-0.2,0.7-0.4L71.7,76C71.9,75.6,71.8,75.1,71.4,74.9z"/>
<path class="st0" d="M77.2,36.7c0.4-0.2,0.5-0.7,0.3-1.1c-0.1-0.1-0.2-0.2-0.3-0.3l-10-5.8l4.3-14.9l0,0c0.2-0.1,0.3-0.3,0.3-0.6
	c0-0.3-0.2-0.6-0.4-0.7L56.6,4.8c-0.3-0.1-0.6-0.1-0.8,0L34.4,17.1c0,0,0,0-0.1,0.1c-0.1,0.1-0.1,0.1-0.2,0.2c0,0,0,0.1-0.1,0.1
	c0,0,0,0.1-0.1,0.1L22.5,62.5c-0.1,0.4,0.1,0.7,0.4,0.9l9.3,5.4l-5.5,16.8c-0.1,0.4,0,0.8,0.4,1l14.8,8.6c0.1,0.1,0.3,0.1,0.4,0.1
	c0.1,0,0.2,0,0.3-0.1c0.2-0.1,0.3-0.2,0.4-0.4l0,0l34.2-58C77.1,36.9,77.2,36.8,77.2,36.7z M56.2,6.5l13.2,7.7L49.7,25.5l-13.2-7.7
	L56.2,6.5z M24.3,61.7l11-42.6l0.5,0.3l12.9,7.5l-6.3,24.6l-4.8,18.4l-0.1,0.2L33,67.4l-8.8-5.1L24.3,61.7z M45.3,87.5l9.5-28.7
	c0-0.1,0-0.2,0-0.3c0-0.3-0.1-0.5-0.3-0.7c-0.3-0.2-0.7-0.2-1,0l0,0l-14,11.3l0,0l4.4-16.9l3.9-15.2l0.3-0.8l0.2-1l0.3-1.1l1.8-7
	l19.1-11l-3.7,12.5l-0.2,0.8l-0.2,0.8l-3.8,12.9L61.3,44l-0.2,0.5c0,0.1,0,0.2,0,0.3c0,0.2,0.1,0.4,0.3,0.6c0.3,0.2,0.6,0.2,0.9,0.1
	l11.9-6.8L45.3,87.5z"/>
<rect class="st1" width="100" height="100"/>
</svg>
