<svg xmlns="http://www.w3.org/2000/svg" viewBox="0 0 75.93 75.93"><defs><style>.cls-1{fill:#010101;}.cls-2{fill:#fff;fill-rule:evenodd;}</style></defs><title>icon-github</title><g id="Layer_2" data-name="Layer 2"><g id="_04-FULL-COLOR" data-name="04-FULL-COLOR"><g id="Facebook"><path class="cls-1" d="M38,0a38,38,0,1,0,38,38A38,38,0,0,0,38,0Z"/></g><path class="cls-2" d="M38,15.59A22.95,22.95,0,0,0,30.71,60.3c1.15.21,1.57-.5,1.57-1.11s0-2,0-3.9c-6.38,1.39-7.73-3.07-7.73-3.07A6.09,6.09,0,0,0,22,48.86c-2.09-1.42.15-1.39.15-1.39a4.81,4.81,0,0,1,3.52,2.36c2,3.5,5.37,2.49,6.67,1.91a4.87,4.87,0,0,1,1.46-3.07c-5.09-.58-10.45-2.55-10.45-11.34a8.84,8.84,0,0,1,2.36-6.15,8.29,8.29,0,0,1,.23-6.07s1.92-.62,6.3,2.35a21.82,21.82,0,0,1,11.49,0c4.38-3,6.3-2.35,6.3-2.35a8.29,8.29,0,0,1,.23,6.07,8.84,8.84,0,0,1,2.36,6.15c0,8.81-5.37,10.75-10.48,11.32a5.46,5.46,0,0,1,1.56,4.25c0,3.07,0,5.54,0,6.29s.42,1.33,1.58,1.1A22.94,22.94,0,0,0,38,15.59Z"/></g></g></svg>