<?xml version="1.0" encoding="utf-8"?>
<!-- Generator: Adobe Illustrator 24.0.1, SVG Export Plug-In . SVG Version: 6.00 Build 0)  -->
<svg version="1.1" id="Layer_1" xmlns="http://www.w3.org/2000/svg" xmlns:xlink="http://www.w3.org/1999/xlink" x="0px" y="0px"
	 viewBox="0 0 100 100" style="enable-background:new 0 0 100 100;" xml:space="preserve">
<style type="text/css">
	.st0{fill:#191E1E;}
	.st1{fill:none;}
</style>
<title>icon-event-driven</title>
<path class="st0" d="M89.5,47.1V34.2c0-0.3-0.1-0.5-0.4-0.7c0,0-0.1,0-0.1,0l-4.7-2.7l4.9-2.8c0.2-0.1,0.4-0.4,0.4-0.6V14.4
	c0-0.3-0.1-0.5-0.4-0.6h-0.1L77.8,7.2C77.5,7,77.3,7,77,7.2l-11.2,6.5c-0.1,0-0.1,0.1-0.2,0.2c0,0-0.1,0.1-0.1,0.1
	c0,0.1,0,0.1,0,0.2c0,0.1,0,0.1,0,0.2v12.4l-4,2.2c-0.9,0.5-1.6,1.4-2,2.4l-10,24.5L44.2,59c-3.5-5.8-8.2-11-13.4-14
	c-5.4-3.1-10.4-3.6-14.3-1.3s-6,6.8-6,12.9c0,12.3,8.7,27.4,19.4,33.6c2.7,1.7,5.8,2.6,8.9,2.7c1.9,0,3.7-0.4,5.3-1.4
	c3.8-2.2,6-6.8,6-12.9c0-5.9-2-12.5-5.2-18.3l5-2.9l9.3,11.9c0.4,0.6,1.1,0.9,1.8,0.9c0.4,0,0.8-0.1,1.1-0.3l4-2.3l11,6.3
	c0.1,0.1,0.2,0.1,0.4,0.1h0.1c0.1,0,0.3,0,0.4-0.1l11.3-6.5c0.2-0.1,0.4-0.4,0.4-0.7V53.8c0-0.3-0.1-0.5-0.4-0.7c0,0-0.1,0-0.1,0
	l-4.6-2.7l4.8-2.8C89.5,47.6,89.6,47.3,89.5,47.1z M48.7,78.6c0,5.6-1.9,9.7-5.2,11.6s-7.9,1.5-12.8-1.3C20.3,82.9,12,68.4,12,56.6
	c0-5.6,1.9-9.7,5.2-11.6c1.4-0.8,3-1.2,4.6-1.2c2.9,0.1,5.7,1,8.2,2.5c5,2.9,9.5,7.8,12.9,13.4l-4.5,2.6c-2-3.4-4.7-6.2-8-8.3
	c-6.5-3.8-11.9-0.8-11.9,6.8s5.3,16.7,11.8,20.4s11.8,0.8,11.9-6.8c-0.1-3.8-1.1-7.5-3-10.8l4.4-2.6C46.8,66.7,48.7,73,48.7,78.6z
	 M34.5,70c0,2.7-1.9,3.7-4.2,2.4c-2.5-1.6-4-4.3-4.2-7.2c0-2.7,1.9-3.7,4.2-2.4C32.8,64.4,34.4,67.1,34.5,70z M72,43.8
	c-0.2-0.4-0.6-0.5-1-0.3l-4.1,2.3V35.5l4.3,2.5l5.5,3.2v5.8v5.4l-3.2-1.8l-0.8-0.4L72,49.6l-4.3-2.5l4-2.3
	C72,44.6,72.2,44.2,72,43.8C72,43.8,72,43.8,72,43.8z M82,30.3l-0.8,0.4l-3,1.7V21.3l9.8-5.6v11.2l-5.3,3L82,30.3z M67,15.6l4.3,2.5
	l5.5,3.2v5.9v5.3l-3-1.8L73,30.3l-0.8-0.4l-4.6-2.6l3.8-2.2c0.4-0.2,0.5-0.7,0.3-1s-0.7-0.5-1-0.3L67,25.9L67,15.6z M72,63.4
	c-0.2-0.3-0.6-0.5-1-0.3l-4.1,2.3V55.2l9.8,5.6V72l-9.1-5.2l4.1-2.4C72.1,64.2,72.2,63.7,72,63.4z M88,66.4L78.2,72V60.8l9.8-5.6
	V66.4z M82.1,50.1l-0.8,0.4l-3.1,1.8V41.1l9.8-5.6v11.2l-5.2,3L82.1,50.1z M60.9,31.9c0.3-0.7,0.8-1.3,1.4-1.6l3.8-2.2l4.6,2.6
	l-4.8,2.8c-0.1,0-0.1,0.1-0.2,0.2c0,0-0.1,0.1-0.1,0.1c0,0.1,0,0.1,0,0.2c0,0.1,0,0.1,0,0.2v12.5l-13.9,8L60.9,31.9z M61.4,68.6
	c-0.3,0.2-0.8,0.1-1-0.2l-9.2-11.8l15-8.7l4.3,2.5l-4.7,2.7l0,0c0,0-0.1,0.1-0.1,0.1c0,0.1-0.1,0.1-0.2,0.2c0,0.1,0,0.1,0,0.2
	c0,0.1,0,0.1-0.1,0.2v12.4L61.4,68.6z"/>
<path class="st0" d="M28,66.3c0.1,1.6,0.9,3,2.3,3.9c1.3,0.7,2.3,0.2,2.3-1.3c-0.1-1.6-0.9-3.1-2.3-3.9C29.1,64.3,28.1,64.9,28,66.3
	z"/>
<rect class="st1" width="100" height="100"/>
</svg>
