<?xml version="1.0" encoding="utf-8"?>
<!-- Generator: Adobe Illustrator 24.0.1, SVG Export Plug-In . SVG Version: 6.00 Build 0)  -->
<svg version="1.1" id="Layer_1" xmlns="http://www.w3.org/2000/svg" xmlns:xlink="http://www.w3.org/1999/xlink" x="0px" y="0px"
	 viewBox="0 0 100 100" style="enable-background:new 0 0 100 100;" xml:space="preserve">
<style type="text/css">
	.st0{fill:#191E1E;}
	.st1{fill:none;}
</style>
<title>icon-microservices</title>
<path class="st0" d="M98.5,57.1L73.6,42.7l6-3.5c0.2-0.1,0.4-0.4,0.4-0.7V23.3c0-0.3-0.1-0.5-0.4-0.6c-0.1,0-0.1,0-0.2,0L66.3,15
	c-0.2-0.1-0.5-0.1-0.8,0l-13.2,7.7c-0.1,0-0.1,0.1-0.2,0.2c0,0-0.1,0.1-0.1,0.1c0,0.1,0,0.1,0,0.2c0,0.1,0,0.1,0,0.2v6.9L49.8,29
	l-11.4,6.6V31c0-0.3-0.1-0.5-0.4-0.6c-0.1,0-0.1,0-0.2,0l-13.2-7.6c-0.2-0.1-0.5-0.1-0.8,0l-13.2,7.6c-0.1,0-0.1,0.1-0.2,0.2
	c0,0-0.1,0-0.1,0.1c0,0.1,0,0.1-0.1,0.2c0,0,0,0.1,0,0.1v15.2c0,0.3,0.1,0.5,0.4,0.7l4.1,2.4L1.5,57.1l25.5,14.7v1.8
	c0,0.3,0.1,0.5,0.4,0.7l13.2,7.6c0.1,0.1,0.2,0.1,0.4,0.1H41c0.1,0,0.3,0,0.4-0.1l1.5-0.9l7.3,4.2L65.9,76l6.8,4l24-14l-6.8-3.9
	L98.5,57.1z M54.3,23.3l11.7-6.8l11.8,6.8L66,30.1l-6.3-3.7C59.7,26.5,54.3,23.3,54.3,23.3z M53.5,31.1v-6.4l5.5,3.1l6.3,3.6v6.4v7
	l-11.8-6.7v-5.3L53.5,31.1z M12.7,31l11.7-6.8L36.1,31l-11.7,6.8l-6.3-3.7L12.7,31z M12,32.3l6.9,4l4.9,2.8v6.8v6.7l-5.8-3.3
	l-1.5-0.9L12,45.8L12,32.3z M28.4,72.6v-1.7V59.7l2.4,1.3l9.4,5.4v11.2v2.2l-11.8-6.8V72.6z M29.2,58.3l11.7-6.8l11.7,6.8l-11.7,6.8
	l-9.8-5.6L29.2,58.3L29.2,58.3z M54.9,64l17.6-10.2L87,62.1L66,74.3L55,68L54.9,64z M50.2,83.4l-5.8-3.3l10.2-5.9
	c0.2-0.1,0.4-0.4,0.4-0.7v-3.9l9.5,5.5L50.2,83.4z M93.8,66l-21,12.2l-5.3-3.1l21-12.2L93.8,66z M72.6,52L54.9,62.3v-4
	c0-0.3-0.1-0.5-0.4-0.7c-0.1,0-0.1,0-0.2,0l-13.2-7.6c-0.2-0.1-0.5-0.1-0.8,0l-13.2,7.6l0,0c-0.1,0-0.1,0.1-0.1,0.1
	c0,0-0.1,0.1-0.1,0.1c0,0.1-0.1,0.1-0.1,0.2c0,0.1,0,0.1,0,0.2V70L4.5,57l11.9-6.9l7.5,4.5c0.1,0.1,0.2,0.1,0.4,0.1h0.1
	c0.1,0,0.3,0,0.4-0.1l13.2-7.7c0.2-0.1,0.4-0.4,0.4-0.7v-8.9l11.4-6.6l2.1,1.2v6.6c0,0.3,0.1,0.5,0.4,0.7l13.2,7.6
	c0.1,0.1,0.2,0.1,0.4,0.1h0.1c0.1,0,0.3,0,0.4-0.1l5.7-3.3l23.4,13.5l-7.1,4.1L72.6,52z"/>
<rect class="st1" width="100" height="100"/>
</svg>
