<?xml version="1.0" encoding="utf-8"?>
<!-- Generator: Adobe Illustrator 24.0.1, SVG Export Plug-In . SVG Version: 6.00 Build 0)  -->
<svg version="1.1" id="Layer_1" xmlns="http://www.w3.org/2000/svg" xmlns:xlink="http://www.w3.org/1999/xlink" x="0px" y="0px"
	 viewBox="0 0 100 100" style="enable-background:new 0 0 100 100;" xml:space="preserve">
<style type="text/css">
	.st0{fill:#191E1E;}
	.st1{fill:none;}
</style>
<title>icon-cloud</title>
<path class="st0" d="M81.7,43.2c-3-11.1-10.9-21.9-19.6-26.9c-5.6-3.2-10.9-3.8-15-1.7c-0.9-1-1.9-1.8-3.1-2.5
	c-2.3-1.4-4.6-1.5-6.3-0.5l-8.9,5.2l0,0l-0.1,0.1L28.7,17c-1.6,1.1-2.5,3-2.4,5l-4,2.3l0,0h-0.1c-0.8,0.5-1.6,1.2-2.2,2
	c-1.6-0.8-3.5-0.7-5.1,0.1c-1.6,1-2.4,3-2.4,5.5c0,0.3,0,0.7,0.1,1c-1.9,0-3.8,0.7-5.2,2c-2,1.9-2.9,4.8-2.8,8.5
	c0.3,8.8,6.8,19.2,14.6,23.3l41,21.5c1.3,0.5,2.7,0.8,4.1,0.8c1.6,0,3.2-0.5,4.5-1.4c1.9-1.5,3.2-3.7,3.4-6.2l0.5,0.3H73
	c1.4,0.6,2.8,0.8,4.3,0.9c1.4,0,2.7-0.3,3.9-1l0.2-0.1l0,0l8.9-5.2c2.8-1.7,4.4-5,4.4-9.5C94.7,58.5,89,48.1,81.7,43.2z M87.2,50.7
	l-8,4.6c-1.7-2.4-3.8-4.4-6.2-6.1l8-4.6C83.4,46.2,85.5,48.3,87.2,50.7z M61.4,17.6c5,3.1,9.3,7.3,12.5,12.3l-8,4.6
	c-3.2-5-7.6-9.2-12.6-12.4c-4.4-2.5-8.6-3.4-12.2-2.5l5.8-3.3c0.2,0.1,0.4,0.1,0.6,0C51.1,14,56,14.5,61.4,17.6z M71.1,79L32.8,57.1
	c-7.4-4.3-13.5-14.7-13.4-23.2c0-1.9,0.4-3.8,1.2-5.6c1.1,0.6,2.1,1.5,2.9,2.4c0.3,0.3,0.7,0.3,1,0.1c3.5-2.3,8.4-2.1,13.8,0.8
	c8.5,4.5,16.3,14.6,19.4,25.1c0.1,0.2,0.2,0.3,0.3,0.4c7.1,4.2,12.8,13.6,13.1,21.6C71.1,78.8,71.1,78.9,71.1,79z M68.1,86.5
	c-1.8,1.3-4.4,1.5-7.2,0.4L20,65.4c-7.3-3.9-13.5-13.7-13.8-22c-0.1-3.2,0.7-5.8,2.3-7.4c1.2-1.1,2.7-1.7,4.3-1.6h0.7
	c0.2,0,0.5-0.1,0.6-0.2c0.2-0.2,0.2-0.4,0.2-0.7c-0.1-0.6-0.2-1.1-0.2-1.7c-0.1-2,0.5-3.5,1.6-4.2c1.1-0.6,2.3-0.6,3.5-0.1
	c-0.9,1.9-1.4,4.1-1.3,6.2c0,9,6.3,20,14.2,24.6l39,22.4C70.9,83,69.9,85.1,68.1,86.5L68.1,86.5z M59,55.9
	c-3.3-10.8-11.4-21.1-20.1-25.7c-5.6-3-10.8-3.3-14.8-1c-0.8-0.8-1.8-1.6-2.8-2.2c0.5-0.6,1.1-1.1,1.8-1.5l0,0l0.1-0.1l4.2-2.4
	c0.2-0.1,0.4-0.4,0.4-0.6c0-2,0.6-3.5,1.8-4.2s2.7-0.5,4.4,0.4c1.2,0.8,2.3,1.8,3.2,2.9l0.9,1L39,22c3.6-2.1,8.4-1.6,13.5,1.4
	c8.3,4.8,15.7,15.2,18.5,25.8l0.1,0.5l0.4,0.3c6.9,4.4,12.2,14,12.2,21.9c0.1,3.7-0.9,6.5-3,8c-1.9,1.3-4.5,1.5-7.4,0.4l0,0
	l-0.7-0.4c0-0.4,0-0.9,0-1.3C72.3,70.2,66.4,60.3,59,55.9z"/>
<rect class="st1" width="100" height="100"/>
</svg>
