<svg id="Layer_1" data-name="Layer 1" xmlns="http://www.w3.org/2000/svg" viewBox="0 0 100 100"><defs><style>.cls-1{fill:none;}</style></defs><title>icon-streams</title><path d="M73.81,15.86c-5.38-3.1-10.47-3.58-14.34-1.35-.22.12-.42.29-.63.43L21,37.38l-.24.12a1.13,1.13,0,0,1-.18.12l-.38.24v0c-3.48,2.33-5.42,6.74-5.44,12.56,0,6.27,2.22,13.24,5.83,19.41H12.11V88H30.27V81.4a29.12,29.12,0,0,0,3.95,2.74,18.16,18.16,0,0,0,9,2.73,10.67,10.67,0,0,0,5.35-1.36h0l39-23.1,0-.07c3.68-2.27,5.72-6.78,5.74-12.77C93.29,37.19,84.57,22.07,73.81,15.86Zm-45,64.22V86.5H13.61V71.35H28.77v8.73ZM44.58,65.57v8h-8v-8ZM40,42.4V38.6h11.3V49.9H46.62A42.25,42.25,0,0,0,40,42.4Zm4.86,7.5H40V44.39A41,41,0,0,1,44.82,49.9ZM26.38,57.84V51.36h6.49v6.48ZM52.47,81.43a18,18,0,0,0,2.07-8.88c0-6.87-2.67-14.58-6.9-21.15h5.12V37.1H38.46v4.06a30,30,0,0,0-3.37-2.3A18.08,18.08,0,0,0,26,36.13L55.5,18.67a18,18,0,0,0-2,8.78c0,7.86,3.5,16.82,8.83,23.91H59.52v6.48H66V55.66a33,33,0,0,0,6.92,5.48,18.21,18.21,0,0,0,9,2.74l.23,0ZM91.76,49.55c0,5.57-1.88,9.71-5.24,11.65s-8,1.47-12.84-1.36A32.6,32.6,0,0,1,66,53.5V51.36H64.19c-5.52-7-9.24-16-9.21-23.91,0-5.21,1.66-9.14,4.62-11.21l1.21-.72a9.19,9.19,0,0,1,4-.89,16.79,16.79,0,0,1,8.22,2.53C83.4,23.13,91.79,37.66,91.76,49.55Z"/><rect x="38.1" y="67.07" width="4.99" height="4.99"/><rect x="3.29" y="61.93" width="6.49" height="6.49"/><path d="M62.51,37.18h8v-8h-8ZM64,30.69h5v5H64Z"/><rect x="92.8" y="25.01" width="3.24" height="3.24"/><rect x="77.57" y="38.35" width="3.24" height="3.24"/><rect x="86.14" y="42.32" width="3.24" height="3.24"/><rect x="74.33" y="47.41" width="3.24" height="3.24"/><rect class="cls-1" width="100" height="100"/></svg>