<svg id="Layer_1" data-name="Layer 1" xmlns="http://www.w3.org/2000/svg" viewBox="0 0 125.47 108.18"><defs><style>.cls-1{fill:none;}.cls-2{fill:#d7e7e7;}.cls-3{fill:#80ea6e;}.cls-4{fill:#6db33f;}</style></defs><title>img-gear</title><path class="cls-1" d="M82.88,65.92a21.55,21.55,0,1,0-20-34.66A41.41,41.41,0,0,1,82.88,65.92Z"/><path class="cls-2" d="M61.16,55.38A21.52,21.52,0,0,0,82.88,65.92a41.41,41.41,0,0,0-20-34.66A21.51,21.51,0,0,0,61.16,55.38Z"/><path class="cls-2" d="M72.13,80.56l-6.35,8.65L48.2,79.05l4.35-9.83A36.43,36.43,0,0,1,48,63a37.78,37.78,0,0,1-3.12-7.07L34.18,54.76V34.46l10.67-1.17a35.76,35.76,0,0,1,3.38-7.46,42,42,0,0,0-6.77-.56A41.46,41.46,0,1,0,80.24,81.36,36.65,36.65,0,0,1,72.13,80.56Z"/><path class="cls-3" d="M125.47,54.75l0-20.3L114.77,33.3A35.93,35.93,0,0,0,107.09,20l4.34-9.83L93.86,0,87.51,8.65a36.69,36.69,0,0,0-15.37,0L65.78,0,48.22,10.16,52.52,20a36.82,36.82,0,0,0-4.3,5.85,41.13,41.13,0,0,1,14.7,5.43,21.55,21.55,0,1,1,20,34.66c0,.27,0,.54,0,.81a41.29,41.29,0,0,1-2.66,14.63,37.27,37.27,0,0,0,7.26-.8l6.35,8.63,17.56-10.14-4.29-9.82a36.68,36.68,0,0,0,7.68-13.31Z"/><path class="cls-4" d="M82.88,65.92a21.53,21.53,0,0,1-20-34.66,41.13,41.13,0,0,0-14.7-5.43,35.76,35.76,0,0,0-3.38,7.46L34.17,34.46v20.3l10.68,1.15A37.78,37.78,0,0,0,48,63a36.43,36.43,0,0,0,4.57,6.24L48.2,79.05,65.78,89.21l6.35-8.65a36.65,36.65,0,0,0,8.11.8A41.29,41.29,0,0,0,82.9,66.73C82.9,66.46,82.89,66.19,82.88,65.92Z"/></svg>