<svg id="Layer_1" data-name="Layer 1" xmlns="http://www.w3.org/2000/svg" viewBox="0 0 80 80"><defs><style>.cls-1{fill:none;}.cls-2{fill:#80ea6e;}.cls-3{fill:#d7e7e7;}.cls-4{fill:#6db33f;}</style></defs><title>icon-flexible</title><rect class="cls-1" width="80" height="80"/><polygon class="cls-2" points="56.9 30.58 40.11 40.34 23.1 30.52 6.79 40 23.69 49.76 39.89 40.34 56.31 49.82 73.22 40 56.9 30.58"/><polygon class="cls-3" points="56.9 30.58 73.22 21.1 39.89 1.86 6.79 21.1 23.1 30.52 39.89 20.76 56.9 30.58"/><polygon class="cls-4" points="56.9 30.58 39.89 20.76 23.1 30.52 40.11 40.34 56.9 30.58"/><polygon class="cls-3" points="23.69 49.76 6.79 59.58 40.11 78.82 73.22 59.58 56.31 49.82 40.11 59.24 23.69 49.76"/><polygon class="cls-4" points="23.69 49.76 40.11 59.24 56.31 49.82 39.89 40.34 23.69 49.76"/></svg>