<svg xmlns="http://www.w3.org/2000/svg" viewBox="0 0 80 80"><defs><style>.cls-1{isolation:isolate;}.cls-2{fill:none;}.cls-3{fill:#80ea6e;}.cls-4{fill:#d7e7e7;mix-blend-mode:multiply;}.cls-5{fill:#6db33f;}</style></defs><title>icon-cloud</title><g class="cls-1"><g id="Layer_1" data-name="Layer 1"><path class="cls-2" d="M0,0V80H80V0ZM63.9,65.9H41.65a25.8,25.8,0,0,1-11.54-2.71,19.87,19.87,0,1,1-10.35-37A25.9,25.9,0,0,1,67,34.46,15.87,15.87,0,0,1,63.9,65.9Z"/><path class="cls-3" d="M15.74,40a25.75,25.75,0,0,1,4-13.85,19.88,19.88,0,1,0,10.35,37A25.9,25.9,0,0,1,15.74,40Z"/><path class="cls-4" d="M67,34.46a25.9,25.9,0,0,0-47.19-8.31l.35,0a19.88,19.88,0,0,1,10,37.06A25.8,25.8,0,0,0,41.65,65.9H63.9A15.87,15.87,0,0,0,67,34.46Z"/><path class="cls-5" d="M40,46A19.88,19.88,0,0,0,20.11,26.13l-.35,0a25.89,25.89,0,0,0,10.35,37A19.86,19.86,0,0,0,40,46Z"/></g></g></svg>