<svg xmlns="http://www.w3.org/2000/svg" viewBox="0 0 80 80"><defs><style>.cls-1{isolation:isolate;}.cls-2{fill:#6db33f;}.cls-2,.cls-3,.cls-4{mix-blend-mode:multiply;}.cls-3{fill:#80ea6e;}.cls-4{fill:#d7e7e7;}.cls-5{fill:none;}</style></defs><title>icon-indemand</title><g class="cls-1"><g id="Layer_1" data-name="Layer 1"><path class="cls-2" d="M56.22,62.05,49.78,58.6a5.51,5.51,0,0,1-2.72-2.46A17.35,17.35,0,0,0,56,48.82s-2.23-2.67-2.23-11.12A14.05,14.05,0,0,0,39.66,23.48c-8.68.18-13.44,7.2-13.44,14.23,0,8.45-2.23,11.11-2.23,11.11A18.59,18.59,0,0,0,33,56a5.31,5.31,0,0,1-2.8,2.64l-6.44,3.45a31.66,31.66,0,0,0,32.44,0Z"/><path class="cls-3" d="M61.26,64.75l-5-2.7a31.66,31.66,0,0,1-32.44,0l-5,2.7a3.14,3.14,0,0,0-1.45,1.6c-1.74,4.43-1.74,10.48-1.74,10.48h48.9s0-6-1.74-10.48A3.14,3.14,0,0,0,61.26,64.75Z"/><path class="cls-4" d="M33,56a18.59,18.59,0,0,1-9-7.14s2.23-2.66,2.23-11.11c0-7,4.76-14,13.44-14.23A14.05,14.05,0,0,1,53.78,37.7c0,8.45,2.23,11.12,2.23,11.12a17.35,17.35,0,0,1-8.95,7.32,5.51,5.51,0,0,0,2.72,2.46l6.44,3.45a31.68,31.68,0,1,0-32.44,0l6.44-3.45A5.31,5.31,0,0,0,33,56Z"/><rect class="cls-5" width="80" height="80"/></g></g></svg>