<svg id="Layer_1" data-name="Layer 1" xmlns="http://www.w3.org/2000/svg" viewBox="0 0 80 80"><defs><style>.cls-1{fill:none;}.cls-2{fill:#80ea6e;}.cls-3{fill:#d7e7e7;}.cls-4{fill:#6db33f;}</style></defs><title>icon-everywhere</title><rect class="cls-1" width="80" height="80"/><path class="cls-2" d="M53.28,40.41C57,34.16,60,27.31,60,21.56a20,20,0,1,0-39.9,0c0,5.73,3,12.57,6.65,18.8A57.53,57.53,0,0,1,53.28,40.41ZM32.88,21.56A7.13,7.13,0,1,1,40,28.69,7.05,7.05,0,0,1,32.88,21.56Z"/><path class="cls-3" d="M64.08,44.62a41.25,41.25,0,0,0-10.8-4.21A129.29,129.29,0,0,1,40,58.61,127.89,127.89,0,0,1,26.7,40.36a41.2,41.2,0,0,0-10.94,4.26c-13.3,7.72-13.23,20.26.16,28s35,7.72,48.32,0S77.47,52.34,64.08,44.62Z"/><path class="cls-4" d="M53.28,40.41a57.53,57.53,0,0,0-26.58,0A127.89,127.89,0,0,0,40,58.61,129.29,129.29,0,0,0,53.28,40.41Z"/></svg>