<svg id="Layer_1" data-name="Layer 1" xmlns="http://www.w3.org/2000/svg" viewBox="0 0 80 80"><defs><style>.cls-1{fill:none;}.cls-2{fill:#d7e7e7;}.cls-3{fill:#80ea6e;}.cls-4{fill:#6db33f;}</style></defs><title>icon-secure</title><path class="cls-1" d="M40,12.94a7.64,7.64,0,0,0-7.63,7.64V32.63H47.64V20.58A7.65,7.65,0,0,0,40,12.94Z"/><path class="cls-2" d="M58.64,32.63v9.15h-11V32.63H32.37v9.15h-11V32.63H18.83a10,10,0,0,0-10,10V75.47H71.17V42.63a10,10,0,0,0-10-10ZM45.5,60.31h-11v-11h11Z"/><path class="cls-3" d="M32.37,20.58a7.64,7.64,0,1,1,15.27,0V32.63h11V20.58a18.64,18.64,0,1,0-37.27,0V32.63h11Z"/><rect class="cls-4" x="21.37" y="32.63" width="11" height="9.15"/><rect class="cls-4" x="47.64" y="32.63" width="11" height="9.15"/><rect class="cls-4" x="34.5" y="49.29" width="11" height="11.02"/><rect class="cls-1" width="80" height="80"/></svg>