<svg xmlns="http://www.w3.org/2000/svg" viewBox="0 0 169.82 170.1"><defs><style>.cls-1{isolation:isolate;}.cls-2{fill:#80ea6e;}.cls-2,.cls-3,.cls-4,.cls-5{mix-blend-mode:multiply;}.cls-3{fill:#ebf2f2;}.cls-4{fill:#d7e7e7;}.cls-5{fill:#6db33f;}</style></defs><title>learn-pacman</title><g class="cls-1"><g id="Layer_2" data-name="Layer 2"><g id="Layer_1-2" data-name="Layer 1"><path class="cls-2" d="M146.44,26.4A84.89,84.89,0,0,0,0,85.74l84.59-.55Z"/><path class="cls-3" d="M148.58,84.78l-63.67.41h-.3L23.38,143.42A84.6,84.6,0,0,1,.06,87.78a84.9,84.9,0,0,0,169.76-3.14Z"/><path class="cls-4" d="M0,85.74c0,.23,0,.46,0,.69,0-.23,0-.46,0-.69Z"/><path class="cls-5" d="M84.61,85.19,0,85.74c0,.23,0,.46,0,.69,0,.45,0,.9,0,1.35a84.6,84.6,0,0,0,23.32,55.64Z"/></g></g></g></svg>