<?xml version="1.0" encoding="utf-8"?>
<!-- Generator: Adobe Illustrator 24.1.0, SVG Export Plug-In . SVG Version: 6.00 Build 0)  -->
<svg version="1.1" id="Layer_1" xmlns="http://www.w3.org/2000/svg" xmlns:xlink="http://www.w3.org/1999/xlink" x="0px" y="0px"
	 viewBox="0 0 469.9 110.3" style="enable-background:new 0 0 469.9 110.3;" xml:space="preserve">
<style type="text/css">
	.st0{fill:#FFFFFF;}
</style>
<path class="st0" d="M30.1,69.3H13.3c2.2,7.6,6.3,14.4,12.4,20.4c9.6,9.6,21.1,14.4,34.6,14.4c2.7,0,5.3-0.2,7.9-0.6
	c10.2-1.5,19.1-6.1,26.7-13.8c6.1-6,10.2-12.8,12.4-20.4h-6.8h-9.9H30.1z"/>
<g>
	<path class="st0" d="M108.6,46.5c0.3,1.9,0.5,3.9,0.6,5.9h-6.9H27h-5.2H11.4c0.1-2,0.3-4,0.6-5.9h8.7H108.6z"/>
	<path class="st0" d="M109.2,57.9c-0.1,2-0.3,4-0.6,5.9h-6.8H28.1h-6.9h-9.1c-0.3-1.9-0.5-3.9-0.6-5.9H109.2z"/>
</g>
<path class="st0" d="M107.3,41.1c-2.2-7.6-6.4-14.5-12.4-20.5C87.3,12.9,78.4,8.3,68.2,6.8c-2.6-0.4-5.2-0.6-7.9-0.6
	c-13.5,0-25,4.8-34.7,14.3c-6,6.1-10.1,12.9-12.4,20.5L107.3,41.1L107.3,41.1z"/>
<g>
	<path class="st0" d="M8.5,55.2c0-25.8,19.4-47.3,44.6-51.1c-0.6,0-1.3,0-1.9,0C23,4.1,0,26.9,0,55.2c0,28.2,23,51.1,51.3,51.1
		c0.6,0,1.3,0,1.9,0C27.9,102.4,8.5,81,8.5,55.2z"/>
</g>
<rect x="279.6" class="st0" width="10.2" height="12.9"/>
<path class="st0" d="M194.5,53.1v5h-46.9c0.4,7,2.6,12.4,6.3,16c3.8,3.7,9.1,5.5,15.8,5.5c3.9,0,7.7-0.5,11.4-1.4
	c3.7-1,7.3-2.4,10.9-4.3v9.6c-3.7,1.6-7.4,2.7-11.3,3.5s-7.7,1.2-11.7,1.2c-9.9,0-17.7-2.9-23.5-8.6c-5.8-5.8-8.7-13.6-8.7-23.4
	c0-10.2,2.7-18.2,8.2-24.2s12.9-9,22.2-9c8.4,0,15,2.7,19.8,8.1C192,36.6,194.5,43.9,194.5,53.1 M184.3,50.1
	c-0.1-5.6-1.6-10-4.7-13.4c-3-3.3-7.1-5-12.1-5c-5.7,0-10.2,1.6-13.7,4.8c-3.4,3.2-5.4,7.7-5.9,13.6L184.3,50.1z"/>
<path class="st0" d="M247.4,27v9.5c-2.9-1.6-5.8-2.8-8.7-3.6c-2.9-0.8-5.8-1.2-8.8-1.2c-6.6,0-11.7,2.1-15.4,6.3
	c-3.7,4.2-5.5,10.1-5.5,17.6c0,7.6,1.8,13.5,5.5,17.7c3.7,4.2,8.8,6.3,15.4,6.3c3,0,5.9-0.4,8.8-1.2c2.9-0.8,5.8-2,8.7-3.6v9.4
	c-2.8,1.3-5.8,2.3-8.8,3c-3,0.7-6.3,1-9.7,1c-9.3,0-16.8-2.9-22.3-8.8c-5.5-5.9-8.3-13.8-8.3-23.8c0-10.1,2.8-18.1,8.3-23.9
	c5.6-5.8,13.2-8.7,22.9-8.7c3.1,0,6.2,0.3,9.2,1C241.6,24.8,244.5,25.7,247.4,27"/>
<rect x="256.6" y="0.5" class="st0" width="10.2" height="86.2"/>
<path class="st0" d="M279.6,24.7h10.2v62.1h-10.2V24.7z"/>
<path class="st0" d="M312.5,77.4v32.9h-10.3V24.6h10.3v9.4c2.1-3.7,4.9-6.4,8.1-8.2c3.3-1.8,7.2-2.7,11.7-2.7c7.5,0,13.7,3,18.4,9
	c4.7,6,7.1,13.9,7.1,23.6c0,9.8-2.4,17.6-7.1,23.6c-4.7,6-10.8,9-18.4,9c-4.5,0-8.5-0.9-11.7-2.7C317.3,83.8,314.6,81.1,312.5,77.4
	 M347.2,55.7c0-7.5-1.5-13.4-4.6-17.6c-3.1-4.3-7.3-6.4-12.7-6.4s-9.6,2.1-12.7,6.4c-3.1,4.3-4.6,10.1-4.6,17.6
	c0,7.5,1.5,13.4,4.6,17.7c3.1,4.3,7.3,6.4,12.7,6.4s9.6-2.1,12.7-6.4C345.6,69.1,347.2,63.2,347.2,55.7"/>
<path class="st0" d="M405.7,26.5v9.6c-2.9-1.5-5.9-2.6-9-3.3c-3.1-0.7-6.3-1.1-9.6-1.1c-5.1,0-8.9,0.8-11.4,2.3
	c-2.5,1.6-3.8,3.9-3.8,7c0,2.4,0.9,4.2,2.7,5.6c1.8,1.3,5.4,2.6,10.9,3.9l3.5,0.8c7.2,1.6,12.4,3.7,15.4,6.6c3,2.8,4.6,6.8,4.6,11.8
	c0,5.8-2.3,10.3-6.8,13.7c-4.6,3.4-10.8,5-18.8,5c-3.3,0-6.8-0.3-10.4-1c-3.6-0.6-7.4-1.6-11.4-2.9V73.9c3.8,2,7.5,3.4,11.1,4.4
	c3.7,1,7.3,1.5,10.9,1.5c4.8,0,8.5-0.8,11.1-2.5c2.6-1.6,3.9-4,3.9-7c0-2.8-0.9-4.9-2.8-6.4c-1.9-1.5-6-2.9-12.3-4.3l-3.5-0.8
	c-6.3-1.3-10.9-3.4-13.7-6.1c-2.8-2.8-4.2-6.5-4.2-11.3c0-5.8,2.1-10.3,6.2-13.5s10-4.8,17.6-4.8c3.8,0,7.3,0.3,10.6,0.8
	C399.8,24.5,402.9,25.4,405.7,26.5"/>
<path class="st0" d="M469.9,53.1v5H423c0.4,7,2.6,12.4,6.3,16c3.8,3.7,9.1,5.5,15.8,5.5c3.9,0,7.7-0.5,11.4-1.4
	c3.7-1,7.3-2.4,10.9-4.3v9.6c-3.7,1.6-7.4,2.7-11.3,3.5c-3.8,0.8-7.7,1.2-11.7,1.2c-9.9,0-17.7-2.9-23.5-8.6
	c-5.8-5.8-8.7-13.6-8.7-23.4c0-10.2,2.7-18.2,8.2-24.2c5.5-6,12.9-9,22.2-9c8.3,0,15,2.7,19.8,8.1C467.4,36.6,469.9,43.9,469.9,53.1
	 M459.7,50.1c-0.1-5.6-1.6-10-4.7-13.4c-3-3.3-7.1-5-12.1-5c-5.7,0-10.2,1.6-13.7,4.8c-3.4,3.2-5.4,7.7-5.9,13.6L459.7,50.1z"/>
</svg>
