<svg xmlns="http://www.w3.org/2000/svg" xmlns:xlink="http://www.w3.org/1999/xlink" viewBox="0 0 71.78 71.34"><defs><linearGradient id="linear-gradient" x1="51.59" y1="6.57" x2="50.71" y2="5.5" gradientTransform="translate(-3256.82 -369.04) scale(64.13 64.59)" gradientUnits="userSpaceOnUse"><stop offset="0.25" stop-color="#086c38"/><stop offset="0.37" stop-color="#277a3b"/><stop offset="0.64" stop-color="#519b41"/><stop offset="0.86" stop-color="#69b343"/><stop offset="1" stop-color="#73bf44"/></linearGradient></defs><title>logo-spring-tools-gear</title><g id="Layer_2" data-name="Layer 2"><g id="Layer_1-2" data-name="Layer 1"><g id="Shape-4"><path d="M58.82,19,63,13.4a.68.68,0,0,0-.06-1l0,0L59,8.5a.8.8,0,0,0-1-.11l-5.55,4.35-2-1.3,1.85-6.76a.75.75,0,0,0-.44-.87L46.74,1.63a.87.87,0,0,0-1,.33l-3.27,6.1a16.23,16.23,0,0,0-2.29-.44l-.87-7A.73.73,0,0,0,38.57,0H33a.93.93,0,0,0-.76.65l-.87,7c-.77.11-1.53.33-2.29.44L25.72,2a.87.87,0,0,0-1-.33l-5.2,2.14a.75.75,0,0,0-.44.87l1.85,6.76-2,1.3L13.42,8.5a.68.68,0,0,0-1,.07l0,0-3.9,3.93a.82.82,0,0,0-.11,1l4.36,5.55-1.31,2L4.71,19.17a.75.75,0,0,0-.87.43L1.66,24.83a.87.87,0,0,0,.33,1l6.1,3.49a16.23,16.23,0,0,0-.44,2.29l-7,.87a.73.73,0,0,0-.65.76v5.55a1,1,0,0,0,.65.77l7,.87c.11.76.33,1.52.44,2.28L2,46.18a.87.87,0,0,0-.33,1l2.18,5.23a.75.75,0,0,0,.87.43L11.46,51l1.31,2L8.52,58.49a.68.68,0,0,0,.08,1l0,0,3.92,3.92a2,2,0,0,0,1.09.43l13.06-.65a27.51,27.51,0,0,0,9,1.42A28.45,28.45,0,0,0,64.16,36.17h0A28.08,28.08,0,0,0,58.82,19Z" fill="url(#linear-gradient)"/><path d="M63.18,12.63a25.85,25.85,0,0,1-4.58,6.21A30.72,30.72,0,0,1,46,26.68C39.12,29,32.69,28.43,26.7,30.93c-10.77,4.69-11.75,17.65-7.4,24l2.29-.43a123.48,123.48,0,0,0,16.33-4C47,47.05,57.08,38.66,60.46,29c-1.75,10.13-10,19.93-19.17,24.62C36.61,56,26.7,60.12,11.9,62A35.23,35.23,0,0,0,36,71.34,35.53,35.53,0,0,0,63.18,12.63Z" fill="#77bd43"/></g></g></g></svg>