<?xml version="1.0" encoding="utf-8"?>
<!-- Generator: Adobe Illustrator 24.1.0, SVG Export Plug-In . SVG Version: 6.00 Build 0)  -->
<svg version="1.1" id="Layer_1" xmlns="http://www.w3.org/2000/svg" xmlns:xlink="http://www.w3.org/1999/xlink" x="0px" y="0px"
	 viewBox="0 0 110.2 30.7" style="enable-background:new 0 0 110.2 30.7;" xml:space="preserve">
<style type="text/css">
	.st0{fill:#F4B960;}
	.st1{fill:#E66F32;}
	.st2{fill:#E43C41;}
	.st3{fill:#BDD041;}
	.st4{fill:#6DB54C;}
	.st5{fill:#AEDAE6;}
	.st6{fill:#56B8DE;}
	.st7{fill:#00B1D5;}
	.st8{fill:url(#SVGID_1_);}
	.st9{fill:#221F1F;}
	.st10{fill:#FFFFFF;}
</style>
<g id="Layer_2_1_">
	<g id="Layer_1-2">
		<circle class="st0" cx="15.4" cy="15.4" r="15.3"/>
		<circle class="st1" cx="13.8" cy="13.8" r="13.8"/>
		<circle class="st2" cx="15.7" cy="12.1" r="12"/>
		<circle class="st3" cx="16.6" cy="13" r="11"/>
		<circle class="st4" cx="15.9" cy="13.8" r="10.2"/>
		<circle class="st5" cx="14.2" cy="12.1" r="8.5"/>
		<circle class="st6" cx="15.6" cy="10.7" r="7.2"/>
		<circle class="st7" cx="16.5" cy="11.7" r="6.3"/>
		
			<radialGradient id="SVGID_1_" cx="-115.2939" cy="499.6051" r="3.79" gradientTransform="matrix(1.42 0 0 1.42 179.23 -695.33)" gradientUnits="userSpaceOnUse">
			<stop  offset="0" style="stop-color:#797979"/>
			<stop  offset="1" style="stop-color:#4C4C4C"/>
		</radialGradient>
		<circle class="st8" cx="15.6" cy="12.6" r="5.4"/>
		<circle class="st9" cx="15.6" cy="12.6" r="5.4"/>
		<ellipse transform="matrix(0.4094 -0.9123 0.9123 0.4094 0.79 22.4357)" class="st10" cx="17.7" cy="10.6" rx="1.7" ry="1.1"/>
		<path class="st10" d="M35.2,11.3c0-0.1,0.1-0.1,0.2-0.1h3.4c1.9,0,2.8,0.9,2.8,2.2c0.1,0.8-0.4,1.5-1.1,1.8v0.1
			c0.8,0.3,1.3,1.1,1.2,1.9c0,1.7-1.1,2.5-3.1,2.5h-3.3c-0.1,0-0.1-0.1-0.2-0.1L35.2,11.3z M38.7,14.7c0.8,0,1.3-0.4,1.3-1.1
			c0-0.6-0.5-1.1-1.1-1.1c-0.1,0-0.1,0-0.2,0h-1.8v0.1v2.1l0,0C36.9,14.6,38.7,14.7,38.7,14.7z M36.9,18.2h1.9
			c0.9,0,1.4-0.5,1.4-1.2s-0.5-1.2-1.4-1.2h-1.9 M36.9,15.9v2.2c-0.1,0.2,0,0.2,0,0.2V15.9z M42.9,19.5c-0.1,0-0.1-0.1-0.1-0.1v-5.7
			c0-0.1,0.1-0.1,0.1-0.1h1.2c0.1,0,0.1,0.1,0.2,0.1v0.5h0c0.4-0.5,1-0.8,1.7-0.8c0.5,0,1,0.2,1.3,0.5c0,0,0,0.1,0,0.1l-0.7,0.8
			c-0.1,0-0.1,0-0.2,0c-0.3-0.2-0.6-0.3-1-0.3c-0.8,0-1.2,0.6-1.2,1.5v3.2c0,0.1-0.1,0.1-0.2,0.1L42.9,19.5z M47.5,18
			c-0.2-0.5-0.3-1-0.2-1.5c0-0.5,0-1,0.2-1.5c0.4-1.1,1.5-1.8,2.7-1.6c1.2-0.1,2.2,0.6,2.7,1.6c0.2,0.5,0.3,1,0.2,1.5
			c0,0.5,0,1-0.2,1.5c-0.4,1.1-1.5,1.8-2.7,1.6C49.1,19.8,47.9,19.1,47.5,18z M51.4,17.6c0.1-0.3,0.2-0.7,0.2-1.1
			c0-0.4,0-0.7-0.2-1.1c-0.2-0.5-0.7-0.8-1.2-0.8c-0.5,0-1,0.3-1.2,0.8c-0.1,0.4-0.2,0.7-0.2,1.1c0,0.4,0,0.7,0.2,1.1
			c0.2,0.5,0.7,0.8,1.2,0.8C50.7,18.5,51.2,18.2,51.4,17.6L51.4,17.6z M59.6,19.5c-0.1,0-0.1-0.1-0.2-0.1l-1.2-3.8h0l-1.2,3.8
			c0,0,0,0.1-0.2,0.1h-1.1c-0.1,0-0.1-0.1-0.2-0.1l-2-5.7c0-0.1,0-0.1,0.1-0.1h1.3c0.1,0,0.2,0.1,0.2,0.1l1.2,4h0l1.2-4
			c0-0.1,0.1-0.1,0.2-0.1h1c0.1,0,0.1,0.1,0.2,0.1l1.3,4l0,0l1.2-4c0-0.1,0-0.1,0.2-0.1h1.3c0,0,0.1,0.1,0.1,0.1l-2,5.7
			c0,0,0,0.1-0.2,0.1L59.6,19.5z M63.1,18.7v-0.1l0.8-0.7c0.1-0.1,0.1-0.1,0.2,0c0.5,0.4,1.2,0.7,1.9,0.7c0.8,0,1.2-0.3,1.2-0.7
			s-0.2-0.6-1.1-0.6l-0.7,0c-1.3-0.1-2-0.8-2-1.7s0.9-1.9,2.5-1.9c0.9,0,1.7,0.2,2.4,0.7c0,0,0,0.1,0,0.1L67.7,15
			c-0.1,0-0.1,0.1-0.2,0.1c-0.5-0.3-1.1-0.5-1.7-0.5c-0.6,0-1,0.2-1,0.6s0.2,0.5,1.1,0.6l0.7,0.1c1.3,0.2,2,0.8,2,1.7
			c0,1.2-0.9,2-2.7,2C64.9,19.7,63.8,19.3,63.1,18.7L63.1,18.7z M69.7,18c-0.2-0.5-0.3-1-0.2-1.5c0-0.5,0-1,0.2-1.5
			c0.4-1.1,1.5-1.8,2.7-1.6c1.2-0.1,2.2,0.6,2.7,1.7c0.2,0.6,0.3,1.2,0.2,1.8c0,0.1-0.1,0.1-0.2,0.1H71 M70.9,17
			c0,0.2,0,0.3,0.1,0.5c0.2,0.6,0.8,1,1.4,0.9c0.6,0,1.1-0.2,1.5-0.5c0.1,0,0.2-0.1,0.2,0l0.8,0.6c0,0,0.1,0.1,0.1,0.1
			c-0.7,0.7-1.7,1-2.7,1c-1.2,0.2-2.3-0.5-2.8-1.6 M71,15.9c0,0,2.5,0,2.6,0c0.1-0.2,0-0.6,0-0.6c-0.2-0.5-0.7-0.8-1.2-0.8
			c-0.6,0-1.1,0.3-1.3,0.8C71,15.5,71,15.7,71,15.9 M76.2,19.5c-0.1,0-0.1-0.1-0.2-0.1v-5.7c0-0.1,0.1-0.1,0.2-0.1h1.2
			c0.1,0,0.1,0.1,0.2,0.1v0.5l0,0c0.7-0.9,2.1-1,3-0.3c0,0,0,0.1,0,0.1l-0.7,0.8c-0.1,0-0.1,0-0.2,0c-0.3-0.2-0.6-0.3-1-0.3
			c-0.8,0-1.2,0.6-1.2,1.5v3.2c0,0.1-0.1,0.1-0.1,0.1L76.2,19.5z M80.9,18.6c0-0.1-0.1-0.1-0.1-0.2l0.8-0.9c0.1,0,0.1-0.1,0.2,0
			c0.7,0.6,1.6,0.9,2.5,0.9c1.1,0,1.7-0.5,1.7-1.2s-0.4-1-1.6-1.2H84c-1.7-0.2-2.7-1-2.7-2.4s1.2-2.6,3.1-2.6c1,0,2.1,0.3,2.9,0.8
			c0,0,0,0.1,0,0.1l-0.6,0.9c-0.1,0-0.1,0.1-0.2,0.1c-0.7-0.4-1.4-0.6-2.2-0.6c-0.9,0-1.4,0.4-1.4,1.1s0.4,1,1.7,1.1l0.5,0.1
			c1.7,0.2,2.7,1,2.7,2.5s-1.2,2.6-3.4,2.6c-1.2,0.1-2.4-0.3-3.4-1L80.9,18.6z M88.6,14.7h-0.4c-0.1,0-0.1-0.1-0.2-0.1v-0.8
			c0-0.1,0.1-0.1,0.2-0.1h0.4h0.1v-0.1v-1.6c0-0.1,0.1-0.1,0.2-0.1H90c0.1,0,0.1,0.1,0.2,0.1v1.6v0.1h0.9c0.1,0,0.1,0.1,0.2,0.1v0.8
			c0,0.1-0.1,0.1-0.2,0.1h-0.9l0,0v3.1c0,0.4,0.2,0.5,0.6,0.5h0.3c0.1,0,0.1,0.1,0.2,0.1v0.9c0,0.1-0.1,0.1-0.2,0.1h-0.6
			c-1.3,0-1.8-0.6-1.8-1.7L88.6,14.7L88.6,14.7L88.6,14.7z M95.9,15.9v-0.3c0-0.7-0.3-1-1.4-1c-0.5,0-1,0.1-1.5,0.4c0,0-0.1,0-0.2,0
			c0,0,0,0,0-0.1l-0.5-0.8c0-0.1,0-0.1,0.1-0.1c0.7-0.4,1.5-0.6,2.3-0.6c2,0,2.7,0.6,2.7,2.1v3.9c0,0.1-0.1,0.1-0.2,0.1l-1,0
			c-0.1,0-0.1-0.1-0.2-0.1v-0.5c-0.5,0.5-1.1,0.8-1.8,0.7C93,19.6,92,19.1,92,17.8s1-1.9,2.6-1.9H95.9 M96,17.4V17l0,0h-1.1
			c-1,0-1.4,0.2-1.4,0.8s0.4,0.7,1.1,0.7S96.1,18.2,96,17.4L96,17.4z M98.6,17.9c-0.2-0.5-0.3-1-0.2-1.5c0-0.5,0-1,0.2-1.5
			c0.4-1.1,1.5-1.7,2.7-1.6c0.8-0.1,1.7,0.3,2.2,0.9c0,0.1,0,0.1,0,0.1l-0.8,0.7c0,0.1-0.1,0.1-0.2,0c0,0,0,0,0,0
			c-0.3-0.3-0.7-0.5-1.2-0.5c-0.5-0.1-1.1,0.3-1.2,0.8c-0.1,0.4-0.2,0.7-0.2,1.1c0,0.4,0,0.8,0.2,1.1c0.2,0.5,0.7,0.8,1.2,0.8
			c0.4,0,0.9-0.2,1.2-0.5c0.1,0,0.1-0.1,0.2,0l0.8,0.7c0,0,0,0.1,0,0.1c-0.6,0.6-1.4,0.9-2.2,0.9C100.1,19.8,99,19.1,98.6,17.9
			L98.6,17.9z M108.8,19.4c-0.1,0-0.2,0-0.2-0.1l-1.6-2.5l-0.9,0.9v1.5c0,0.1-0.1,0.1-0.2,0.1h-1.2c-0.1,0-0.1-0.1-0.2-0.1v-8.1
			c0-0.1,0.1-0.1,0.2-0.1h1.2c0.1,0,0.1,0.1,0.2,0.1V16l2.2-2.4c0-0.1,0.1-0.2,0.2-0.1h1.4c0,0,0.2,0.1,0,0.1l-2.1,2.2l2.3,3.6
			c0,0,0,0.1-0.1,0.1L108.8,19.4z"/>
	</g>
</g>
</svg>
