<svg xmlns="http://www.w3.org/2000/svg" viewBox="0 0 635.9 125.6"><title>logo-pas</title><g id="Layer_2" data-name="Layer 2"><g id="logo"><path d="M150.2,56V18.2h15.2c7.6,0,11.8,5.2,11.8,11.4S172.8,41,165.4,41H154.9V56Zm22.2-26.4c0-4.2-3.1-7.2-7.5-7.2H155V36.8h9.9C169.3,36.8,172.4,33.8,172.4,29.6Z" fill="#000005"/><path d="M181.7,21.9a2.85,2.85,0,1,1,5.7,0,2.85,2.85,0,0,1-5.7,0Zm.8,34.1V28.6h4.2V56Z" fill="#000005"/><path d="M201.7,56,190.3,28.6h4.6L204,51l9.1-22.4h4.6L206.3,56Z" fill="#000005"/><path d="M219.7,42.3c0-7.9,5.2-14.3,13.5-14.3s13.5,6.4,13.5,14.3-5.2,14.4-13.5,14.4S219.7,50.2,219.7,42.3Zm22.6,0c0-5.5-3.2-10.5-9.1-10.5s-9.1,5-9.1,10.5,3.3,10.6,9.1,10.6S242.3,47.9,242.3,42.3Z" fill="#000005"/><path d="M253.6,50.3V32.4h-4.5V28.7h4.5V21.2h4.2v7.5h5.5v3.7h-5.5v17c0,2,.9,3.5,2.8,3.5a4.26,4.26,0,0,0,2.9-1.1l1.2,3.2a7.06,7.06,0,0,1-5.1,1.8C255.7,56.7,253.6,54.3,253.6,50.3Z" fill="#000005"/><path d="M285.7,56V52.9a11.92,11.92,0,0,1-9.1,3.8c-4.6,0-9.6-3.1-9.6-9.1s4.9-9,9.6-9a11.69,11.69,0,0,1,9.1,3.7V37.4c0-3.7-2.9-5.8-6.9-5.8a11,11,0,0,0-8.4,3.8l-2-2.9A14.13,14.13,0,0,1,279.3,28c5.8,0,10.6,2.6,10.6,9.2V56Zm0-5.8V45a9,9,0,0,0-7.5-3.4c-4,0-6.7,2.5-6.7,6s2.8,5.9,6.7,5.9A8.62,8.62,0,0,0,285.7,50.2Z" fill="#000005"/><path d="M297.6,56V18.2h4.2V56Z" fill="#000005"/><path d="M175.6,109.4l-2.3-6.4H157.1l-2.4,6.4h-9.2l14.6-37.8h10.1l14.6,37.8ZM165.2,79.7,159.3,96h11.8Z" fill="#000005"/><path d="M194.5,105.9v13.9h-7.2V82h7.2v3.5a10.42,10.42,0,0,1,8.4-4.1c7,0,12.1,5.2,12.1,14.3s-5.1,14.4-12.1,14.4A10.51,10.51,0,0,1,194.5,105.9Zm13.1-10.2c0-4.7-2.8-7.9-6.9-7.9a8.33,8.33,0,0,0-6.2,3.1v9.7a8.33,8.33,0,0,0,6.2,3.1C204.8,103.7,207.6,100.5,207.6,95.7Z" fill="#000005"/><path d="M226.6,105.9v13.9h-7.2V82h7.2v3.5a10.42,10.42,0,0,1,8.4-4.1c7,0,12.1,5.2,12.1,14.3S242,110.1,235,110.1A10.51,10.51,0,0,1,226.6,105.9Zm13.1-10.2c0-4.7-2.8-7.9-6.9-7.9a8.33,8.33,0,0,0-6.2,3.1v9.7a8.33,8.33,0,0,0,6.2,3.1C236.9,103.7,239.7,100.5,239.7,95.7Z" fill="#000005"/><path d="M251.6,109.4V71.6h7.2v37.8Z" fill="#000005"/><path d="M264.4,74.8a4.3,4.3,0,0,1,8.6,0,4.33,4.33,0,0,1-4.3,4.3A4.27,4.27,0,0,1,264.4,74.8Zm.7,34.6V82h7.2v27.4Z" fill="#000005"/><path d="M276.8,95.7c0-8.4,6.1-14.3,14.5-14.3,5.6,0,9,2.4,10.8,4.9l-4.7,4.4a6.68,6.68,0,0,0-5.8-2.9c-4.4,0-7.4,3.2-7.4,7.9s3.1,8,7.4,8a6.93,6.93,0,0,0,5.8-2.9l4.7,4.4c-1.8,2.5-5.2,5-10.8,5C282.9,110.1,276.8,104.2,276.8,95.7Z" fill="#000005"/><path d="M322.4,109.4v-2.8a11.42,11.42,0,0,1-8.7,3.5c-4.4,0-9.5-2.9-9.5-9.1,0-6.4,5.2-8.8,9.5-8.8,3.6,0,6.9,1.2,8.7,3.3V91.8c0-2.8-2.4-4.6-6-4.6a11.79,11.79,0,0,0-8,3.2l-2.7-4.8a18,18,0,0,1,11.9-4.3c6.2,0,11.9,2.5,11.9,10.4v17.7Zm0-6.5V99.5a7.26,7.26,0,0,0-5.8-2.4c-2.8,0-5.2,1.5-5.2,4.1s2.3,4,5.2,4A7.53,7.53,0,0,0,322.4,102.9Z" fill="#000005"/><path d="M337.3,102.6V88.3h-4.5V82h4.5V74.5h7.2V82H350v6.3h-5.5v12.3c0,1.7.9,3,2.5,3a3.89,3.89,0,0,0,2.5-.8l1.5,5.4c-1.1,1-3,1.8-6,1.8C340,110.1,337.3,107.5,337.3,102.6Z" fill="#000005"/><path d="M353.4,74.8a4.3,4.3,0,0,1,8.6,0,4.3,4.3,0,0,1-8.6,0Zm.8,34.6V82h7.2v27.4Z" fill="#000005"/><path d="M365.9,95.7c0-7.8,5.4-14.3,14.4-14.3s14.5,6.6,14.5,14.3-5.4,14.4-14.5,14.4S365.9,103.5,365.9,95.7Zm21.4,0c0-4.2-2.5-7.9-7-7.9s-7,3.7-7,7.9,2.5,8,7,8S387.3,100,387.3,95.7Z" fill="#000005"/><path d="M417.8,109.4V92.9c0-3.8-2-5.1-5-5.1a7.89,7.89,0,0,0-6.2,3.2v18.4h-7.2V82h7.2v3.6a12.59,12.59,0,0,1,9.6-4.2c6,0,8.9,3.4,8.9,8.7v19.3Z" fill="#000005"/><path d="M442.5,104.1l4.4-6.1a16.54,16.54,0,0,0,12,5.1c4.4,0,6.6-2,6.6-4.2,0-6.7-21.7-2.1-21.7-16.3,0-6.3,5.4-11.5,14.3-11.5,6,0,11,1.8,14.7,5.3l-4.5,5.9a16.36,16.36,0,0,0-11-4.1c-3.5,0-5.4,1.5-5.4,3.8,0,6,21.7,2,21.7,16.1,0,6.9-4.9,12.1-15.1,12.1C451.2,110.1,446,107.7,442.5,104.1Z" fill="#000005"/><path d="M476.3,95.7a13.9,13.9,0,0,1,14.2-14.3c8.2,0,13.7,6.1,13.7,15.1v1.6H483.9c.5,3.5,3.2,6.3,7.9,6.3a11.75,11.75,0,0,0,7.3-2.7l3.2,4.6c-2.7,2.5-7,3.8-11.3,3.8C482.5,110.1,476.3,104.5,476.3,95.7Zm14.1-8.6a6.46,6.46,0,0,0-6.7,6.1h13.5A6.42,6.42,0,0,0,490.4,87.1Z" fill="#000005"/><path d="M508.5,109.4V82h7.2v3.7a11.77,11.77,0,0,1,8.7-4.4v7a10.31,10.31,0,0,0-2-.2c-2.4,0-5.5,1.4-6.7,3.1v18.1h-7.2Z" fill="#000005"/><path d="M535.1,109.4,524.1,82h7.7l7.1,19L546,82h7.8l-11,27.4Z" fill="#000005"/><path d="M555.5,74.8a4.3,4.3,0,0,1,8.6,0,4.3,4.3,0,0,1-8.6,0Zm.7,34.6V82h7.2v27.4Z" fill="#000005"/><path d="M567.9,95.7c0-8.4,6.1-14.3,14.5-14.3,5.6,0,9,2.4,10.8,4.9l-4.7,4.4a6.68,6.68,0,0,0-5.8-2.9c-4.4,0-7.4,3.2-7.4,7.9s3.1,8,7.4,8a6.93,6.93,0,0,0,5.8-2.9l4.7,4.4c-1.8,2.5-5.2,5-10.8,5C574,110.1,567.9,104.2,567.9,95.7Z" fill="#000005"/><path d="M595.3,95.7a13.9,13.9,0,0,1,14.2-14.3c8.2,0,13.7,6.1,13.7,15.1v1.6H602.9c.5,3.5,3.2,6.3,7.9,6.3a11.75,11.75,0,0,0,7.3-2.7l3.2,4.6c-2.7,2.5-7,3.8-11.3,3.8C601.6,110.1,595.3,104.5,595.3,95.7Zm14.2-8.6a6.46,6.46,0,0,0-6.7,6.1h13.5A6.42,6.42,0,0,0,609.5,87.1Z" fill="#000005"/><polygon points="79.8 48 12.3 83.2 12.3 100.4 79.8 65.1 79.8 48" fill="#0066ac"/><polygon points="20.9 93.3 67.9 13.9 54.5 6.3 7.5 85.7 20.9 93.3" fill="#008674"/><path d="M56.6,108.2,14.3,86V35.3L0,27.8V91a9.24,9.24,0,0,0,4.4,7.3l52.1,27.3V108.2Z" fill="#0066ac"/><path d="M98.9,35.3V74.2L58.7,6.3,45.3,13.9,90.5,90.4l-34,17.8v17.4l52.1-27.3A9.09,9.09,0,0,0,113,91V27.9Z" fill="#00b5a3"/><path d="M113.2,27.9,62.3,1.2A13.9,13.9,0,0,0,51,1.2L.1,27.9l14.3,7.5L56.7,13.2,99,35.4Z" fill="#009fdf"/><path d="M627.6,82.9v5.2h-.7V82.9h-1.7v-.7h4.1v.7Zm7.6,5.2V83.2l-2,4.9H633l-2-4.9v4.9h-.7V82.2h1.1l1.7,4.3,1.7-4.3h1.1v5.9Z" fill="#000005"/></g></g></svg>