<svg xmlns="http://www.w3.org/2000/svg" xmlns:xlink="http://www.w3.org/1999/xlink" viewBox="0 0 110.16 30.66"><defs><radialGradient id="radial-gradient" cx="16.03" cy="357.24" r="3.79" gradientTransform="matrix(1.42, 0, 0, -1.42, -7.25, 521.39)" gradientUnits="userSpaceOnUse"><stop offset="0" stop-color="#797979"/><stop offset="1" stop-color="#4c4c4c"/></radialGradient></defs><title>logo-browserstack</title><g id="Layer_2" data-name="Layer 2"><g id="Layer_1-2" data-name="Layer 1"><circle cx="15.37" cy="15.37" r="15.29" fill="#f4b960"/><circle cx="13.81" cy="13.81" r="13.81" fill="#e66f32"/><circle cx="15.72" cy="12.05" r="11.98" fill="#e43c41"/><circle cx="16.63" cy="12.97" r="10.99" fill="#bdd041"/><circle cx="15.86" cy="13.81" r="10.22" fill="#6db54c"/><circle cx="14.24" cy="12.12" r="8.53" fill="#aedae6"/><circle cx="15.58" cy="10.71" r="7.19" fill="#56b8de"/><circle cx="16.49" cy="11.7" r="6.27" fill="#00b1d5"/><circle cx="15.58" cy="12.55" r="5.36" fill="url(#radial-gradient)"/><circle cx="15.58" cy="12.55" r="5.36" fill="#221f1f"/><ellipse cx="17.72" cy="10.61" rx="1.69" ry="1.06" transform="translate(0.79 22.43) rotate(-65.83)" fill="#fff"/><path d="M35.22,11.3a.16.16,0,0,1,.15-.15h3.41c1.93,0,2.82.9,2.82,2.23a1.8,1.8,0,0,1-1.1,1.78v.05a2.07,2.07,0,0,1,1.24,1.93c0,1.68-1.14,2.47-3.12,2.47H35.37a.16.16,0,0,1-.15-.15Zm3.52,3.36c.79,0,1.28-.44,1.28-1.1a1.13,1.13,0,0,0-1.28-1.14H36.91a0,0,0,0,0,0,.05v2.08a0,0,0,0,0,0,0c0,.05,1.83.05,1.83.05Zm-1.88,3.57h1.93c.9,0,1.38-.45,1.38-1.19s-.49-1.19-1.38-1.19H36.86a0,0,0,0,0,0,.05v2.18C36.76,18.23,36.86,18.23,36.86,18.23Zm6,1.28a.15.15,0,0,1-.14-.15V13.62a.15.15,0,0,1,.14-.14h1.24a.16.16,0,0,1,.15.14v.5h.05A2,2,0,0,1,46,13.33a2,2,0,0,1,1.34.49.25.25,0,0,1,.05.15l-.7.84a.27.27,0,0,1-.19,0,2.14,2.14,0,0,0-1-.3c-.84,0-1.24.55-1.24,1.54v3.21a.16.16,0,0,1-.15.15ZM47.54,18a4,4,0,0,1-.24-1.49,3.15,3.15,0,0,1,.24-1.48,2.57,2.57,0,0,1,2.68-1.64,2.63,2.63,0,0,1,2.67,1.64,3.79,3.79,0,0,1,.24,1.48A3.19,3.19,0,0,1,52.89,18a2.55,2.55,0,0,1-2.67,1.63A2.53,2.53,0,0,1,47.54,18Zm3.9-.35a2.32,2.32,0,0,0,.15-1.1,3.27,3.27,0,0,0-.15-1.1,1.21,1.21,0,0,0-1.23-.79,1.26,1.26,0,0,0-1.24.79,2.45,2.45,0,0,0-.15,1.1,3.23,3.23,0,0,0,.15,1.1,1.21,1.21,0,0,0,1.24.79A1.27,1.27,0,0,0,51.44,17.68Zm8.12,1.83a.16.16,0,0,1-.15-.15L58.17,15.5h-.05l-1.23,3.8c0,.05,0,.15-.15.15h-1.1a.16.16,0,0,1-.15-.15l-2-5.74c-.05-.05,0-.14.1-.14h1.29c.1,0,.15.05.15.14l1.23,4h.05l1.24-4c0-.05.1-.14.15-.14h1a.16.16,0,0,1,.15.14l1.28,4h0l1.19-4c0-.1,0-.14.15-.14h1.29s.14.05.1.14l-2,5.74c0,.05,0,.15-.15.15Zm3.56-.79s0-.15,0-.15l.79-.74a.15.15,0,0,1,.2,0,3.14,3.14,0,0,0,1.93.69c.79,0,1.19-.29,1.19-.69s-.25-.59-1.1-.64l-.69-.05c-1.29-.15-2-.75-2-1.74s.9-1.93,2.47-1.93a4.37,4.37,0,0,1,2.43.7.25.25,0,0,1,0,.15l-.65.69a.27.27,0,0,1-.19.05,3.57,3.57,0,0,0-1.69-.5c-.64,0-1,.25-1,.65s.25.54,1.1.64l.7.05c1.33.15,2,.79,2,1.73,0,1.19-.94,2-2.73,2a3.9,3.9,0,0,1-2.82-.94ZM69.66,18a4,4,0,0,1-.25-1.49,3.13,3.13,0,0,1,.25-1.48,2.54,2.54,0,0,1,2.67-1.64A2.7,2.7,0,0,1,75,15.06a4.73,4.73,0,0,1,.25,1.83.15.15,0,0,1-.15.14H71a0,0,0,0,0-.05,0,1.19,1.19,0,0,0,.1.45,1.4,1.4,0,0,0,1.44.9,2.22,2.22,0,0,0,1.53-.54.37.37,0,0,1,.25-.05l.79.64a.25.25,0,0,1,.05.15,3.63,3.63,0,0,1-2.67,1A2.55,2.55,0,0,1,69.66,18Zm3.9-2.68a1.23,1.23,0,0,0-1.24-.79,1.32,1.32,0,0,0-1.29.79,1.54,1.54,0,0,0,0,.5,0,0,0,0,0,0,.05H73.6a0,0,0,0,0,.05-.05c-.05-.15-.05-.35-.1-.5Zm2.67,4.16a.16.16,0,0,1-.15-.15V13.62a.15.15,0,0,1,.15-.14h1.23a.16.16,0,0,1,.15.14v.5h0a2.14,2.14,0,0,1,3-.3.25.25,0,0,1,0,.15l-.69.84a.3.3,0,0,1-.2,0,2.1,2.1,0,0,0-1-.3c-.84,0-1.24.55-1.24,1.54v3.21a.16.16,0,0,1-.14.15Zm4.7-.9a.3.3,0,0,1-.05-.2l.84-.9a.3.3,0,0,1,.2-.05,4.2,4.2,0,0,0,2.47.9c1.1,0,1.73-.49,1.73-1.23s-.39-1-1.63-1.19l-.5,0c-1.73-.25-2.72-1-2.72-2.38s1.24-2.57,3.07-2.57a5.25,5.25,0,0,1,2.92.84.18.18,0,0,1,0,.15l-.62.9a.3.3,0,0,1-.2.05,4.12,4.12,0,0,0-2.18-.64c-.94,0-1.43.44-1.43,1.14s.44,1,1.68,1.13l.5.05c1.73.25,2.72,1,2.72,2.48s-1.19,2.62-3.42,2.62a5.16,5.16,0,0,1-3.41-1Zm9.55,1c-1.29,0-1.83-.59-1.83-1.73V14.75a0,0,0,0,0-.05-.05h-.4a.16.16,0,0,1-.15-.15v-.84a.16.16,0,0,1,.15-.15h.4a0,0,0,0,0,.05-.05V11.89a.16.16,0,0,1,.15-.15H90a.16.16,0,0,1,.15.15v1.63a0,0,0,0,0,0,.05h.9a.16.16,0,0,1,.15.15v.84a.16.16,0,0,1-.15.15h-.9a0,0,0,0,0,0,0v3.12c0,.39.2.54.59.54h.35a.16.16,0,0,1,.15.15v1a.16.16,0,0,1-.15.15Zm5.7-.15a.16.16,0,0,1-.15-.14v-.43a2.19,2.19,0,0,1-1.83.69C93,19.62,92,19.08,92,17.79s1-1.93,2.57-1.93h1.29a0,0,0,0,0,.05,0v-.29c0-.7-.34-1-1.43-1a2.67,2.67,0,0,0-1.49.39.12.12,0,0,1-.2-.05l-.49-.79c0-.05,0-.15.05-.15a4,4,0,0,1,2.27-.59c2,0,2.68.64,2.68,2.08v3.86a.16.16,0,0,1-.15.15Zm-.15-2v-.44a0,0,0,0,0,0,0h-1.1c-1,0-1.39.25-1.39.79s.4.74,1.14.74,1.39-.34,1.39-1Zm2.57.5a4,4,0,0,1-.24-1.49,3.27,3.27,0,0,1,.24-1.48,2.59,2.59,0,0,1,2.67-1.63,2.73,2.73,0,0,1,2.23.94c0,.05,0,.14,0,.14l-.84.7a.12.12,0,0,1-.2,0,1.44,1.44,0,0,0-1.18-.5,1.2,1.2,0,0,0-1.24.79,2.45,2.45,0,0,0-.15,1.1,4,4,0,0,0,.15,1.14,1.25,1.25,0,0,0,1.24.79,1.51,1.51,0,0,0,1.18-.49.3.3,0,0,1,.2-.05l.84.69a.25.25,0,0,1,0,.15,3,3,0,0,1-2.23.89A2.54,2.54,0,0,1,98.6,18Zm10.15,1.48c-.1,0-.15-.05-.25-.14l-1.63-2.48-.9.94v1.54a.15.15,0,0,1-.15.14h-1.24a.16.16,0,0,1-.15-.14V11.2a.16.16,0,0,1,.15-.15h1.24a.16.16,0,0,1,.15.15v4.85l2.22-2.37a.26.26,0,0,1,.25-.15h1.39s.15.05,0,.15l-2.08,2.17,2.32,3.57s0,.14-.05.14Z" fill="#202020"/></g></g></svg>