<svg xmlns="http://www.w3.org/2000/svg" viewBox="0 0 492.6 97"><defs><style>.cls-1{fill:#6db33f;}.cls-2{fill:#8a8c8e;}</style></defs><title>logo-spring</title><g id="Layer_2" data-name="Layer 2"><g id="logos"><path class="cls-1" d="M88.4,5.6a42.32,42.32,0,0,1-5.2,9.1A48.46,48.46,0,1,0,15.5,84l1.8,1.6A48.41,48.41,0,0,0,96.8,52C98.2,39.8,94.5,24.2,88.4,5.6ZM22.5,84.4a4.12,4.12,0,1,1-.6-5.8A4.21,4.21,0,0,1,22.5,84.4ZM88.1,69.9C76.2,85.8,50.6,80.4,34.3,81.2c0,0-2.9.2-5.8.6,0,0,1.1-.5,2.5-1,11.5-4,16.9-4.8,23.9-8.4C68,65.7,81.1,51,83.7,35.8c-5,14.6-20.2,27.2-34,32.3C40.2,71.6,23.1,75,23.1,75l-.7-.4c-11.6-5.7-12-30.9,9.2-39,9.3-3.6,18.1-1.6,28.2-4,10.7-2.5,23.1-10.5,28.1-21C93.5,27.5,100.3,53.7,88.1,69.9Z"/><path class="cls-1" d="M124.3,67.5a4,4,0,0,1-2-3.7,4.37,4.37,0,0,1,4.4-4.4,5.19,5.19,0,0,1,2.3.6,25,25,0,0,0,13.5,4.5c4.6,0,7.3-2,7.3-5.1v-.2c0-3.7-5-4.9-10.5-6.6-6.9-2-14.7-4.8-14.7-13.8v-.2c0-8.9,7.4-14.3,16.7-14.3a32.56,32.56,0,0,1,14.8,3.8,4.58,4.58,0,0,1,2.6,4.1,4.4,4.4,0,0,1-4.5,4.4,4.65,4.65,0,0,1-2.1-.5,24.79,24.79,0,0,0-11-3.2c-4.2,0-6.6,2-6.6,4.6v.2c0,3.5,5.1,4.9,10.6,6.7,6.9,2.1,14.6,5.3,14.6,13.7v.2c0,9.9-7.7,14.8-17.4,14.8A32.36,32.36,0,0,1,124.3,67.5Z"/><path class="cls-1" d="M163.7,29.8a5.29,5.29,0,0,1,5.3-5.4,5.38,5.38,0,0,1,5.4,5.4V33c3.5-4.9,8.4-8.8,16-8.8,11,0,21.8,8.7,21.8,24.4v.2c0,15.6-10.7,24.4-21.8,24.4-7.8,0-12.7-3.9-16-8.3V81.5a5.38,5.38,0,0,1-5.4,5.4,5.29,5.29,0,0,1-5.3-5.4Zm37.7,19v-.2c0-9.1-6.1-15-13.4-15s-13.7,6.1-13.7,15v.2c0,9,6.4,15,13.7,15S201.4,58.1,201.4,48.8Z"/><path class="cls-1" d="M216.4,29.8a5.29,5.29,0,0,1,5.3-5.4,5.38,5.38,0,0,1,5.4,5.4v2.6c.5-4,7.1-8,11.8-8a4.93,4.93,0,0,1,5.3,5.3,5.2,5.2,0,0,1-4.3,5.2c-7.7,1.3-12.9,8-12.9,17.3V67.7a5.36,5.36,0,0,1-5.4,5.3,5.27,5.27,0,0,1-5.3-5.3V29.8Z"/><path class="cls-1" d="M248.5,29.9a5.29,5.29,0,0,1,5.3-5.4,5.38,5.38,0,0,1,5.4,5.4V67.8a5.35,5.35,0,0,1-10.7,0Z"/><path class="cls-1" d="M264.7,29.9a5.29,5.29,0,0,1,5.3-5.4,5.38,5.38,0,0,1,5.4,5.4v2.2a16.6,16.6,0,0,1,14.7-7.7c10.6,0,16.7,7.1,16.7,18V67.7a5.21,5.21,0,0,1-5.3,5.3,5.29,5.29,0,0,1-5.4-5.3v-22c0-7.3-3.6-11.5-10.1-11.5-6.2,0-10.6,4.4-10.6,11.7V67.8a5.35,5.35,0,0,1-10.7,0V29.9Z"/><path class="cls-1" d="M354.2,24.3a5.38,5.38,0,0,0-5.4,5.4v3.2c-3.5-4.9-8.4-8.8-16-8.8-11,0-21.8,8.7-21.8,24.4v.2c0,15.6,10.7,24.4,21.8,24.4,7.8,0,12.7-3.9,16-8.2-.5,8.5-5.7,12.9-14.8,12.9a28.83,28.83,0,0,1-14.4-3.7,3.81,3.81,0,0,0-1.9-.4,4.55,4.55,0,0,0-4.6,4.4,4.45,4.45,0,0,0,3,4.3,40.23,40.23,0,0,0,18.2,4.2c8.5,0,15.1-2,19.3-6.3,3.9-3.9,6-9.8,6-17.7V29.8A5.4,5.4,0,0,0,354.2,24.3ZM335.3,63.8c-7.4,0-13.4-5.8-13.4-15.1v-.2c0-9.1,6.1-15,13.4-15s13.7,6.1,13.7,15v.2C349.1,57.7,342.7,63.8,335.3,63.8Z"/><path class="cls-1" d="M259.3,11.5a5.4,5.4,0,1,1-5.4-5.4A5.31,5.31,0,0,1,259.3,11.5Z"/><path class="cls-1" d="M371.9,35.6a5.55,5.55,0,0,1-5.5-5.5,5.5,5.5,0,1,1,5.5,5.5Zm0-10.2a4.7,4.7,0,1,0,4.7,4.7A4.63,4.63,0,0,0,371.9,25.4Zm1.5,7.8-1.6-2.5h-1.1v2.5h-.9V26.9h2.6a2,2,0,0,1,2.1,1.9,1.93,1.93,0,0,1-1.6,1.9l1.7,2.5Zm-1.1-5.5h-1.6v2.2h1.7a1.11,1.11,0,0,0,1.1-1.1A1.13,1.13,0,0,0,372.3,27.7Z"/><path class="cls-2" d="M423.7,54.75h-3.1v-3h3.1Zm0,16.9h-3.1V57h3.1Z"/><path class="cls-2" d="M441.5,57l-4.3,12.7a2.88,2.88,0,0,1-3.1,2.3,3,3,0,0,1-3.1-2.3l-3.6-10.6H426v-2.2h3.7l3.7,11.8c.2.5.3.8.7.8s.6-.3.7-.8l3.7-11.8h3V57Z"/><path class="cls-2" d="M449,57c4,0,6.7,2.6,6.7,6.4v2.3c0,3.8-2.8,6.4-6.7,6.4s-6.7-2.6-6.7-6.4v-2.3c0-3.8,2.7-6.4,6.7-6.4m0,12.6a3.73,3.73,0,0,0,3.8-4v-2.3a3.78,3.78,0,0,0-3.8-4,3.67,3.67,0,0,0-3.8,4v2.3a3.73,3.73,0,0,0,3.8,4"/><path class="cls-2" d="M480.3,57.35a25.41,25.41,0,0,0-5.7-.7c-4,0-6.5,2.5-6.5,6.6v1.6c0,4.1,2.5,6.7,6.5,6.7h1.1v-2.5h-1.1c-2.2,0-3.7-1.7-3.7-4.2v-1.6c0-2.5,1.5-4.2,3.7-4.2a22.33,22.33,0,0,1,3,.2h.2v12.3h3.1V57.85c-.1-.2-.1-.3-.6-.5"/><rect class="cls-2" x="483.8" y="51.75" width="3.1" height="19.9"/><path class="cls-2" d="M410,51.75h-5.4v19.9h3.2V54.55h3c2.8.1,4.1,1.2,4.1,3.3v.2c0,2-1.1,3.3-4.1,3.3h-.9v2.7h.9c4.3,0,7.4-1.7,7.4-6v-.3c-.1-4.3-3.4-6-8.2-6"/><path class="cls-2" d="M461.2,53.75V57h5v2.4h-5V68c0,1.3.9,1.4,2.1,1.4h2.9v2.4h-3.9c-2.9,0-4.2-1.2-4.2-3.8V54.25Z"/><path class="cls-2" d="M488.6,69.65a2,2,0,1,1,2,2A2,2,0,0,1,488.6,69.65Zm2.1-1.8a1.69,1.69,0,0,0-1.7,1.7,1.75,1.75,0,0,0,1.7,1.7,1.69,1.69,0,0,0,1.7-1.7A1.75,1.75,0,0,0,490.7,67.85Zm-.5,2.9H490v-2.2h.6c.6,0,.8.3.8.7a.63.63,0,0,1-.5.6l.6.9h-.2l-.5-.9h-.5l-.1.9Zm.4-1.1c.4,0,.6-.2.6-.5s-.2-.5-.6-.5h-.4v1Z"/><path class="cls-2" d="M377.4,71.65V57.35H379v5.5a4.36,4.36,0,0,1,3.5-1.8c2.7,0,4.6,2.1,4.6,5.4s-1.9,5.4-4.6,5.4a4.22,4.22,0,0,1-3.5-1.8v1.5h-1.6Zm4.7-1.2c2.1,0,3.3-1.7,3.3-4s-1.2-4-3.3-4a3.91,3.91,0,0,0-3.1,1.7v4.7A3.82,3.82,0,0,0,382.1,70.45Z"/><path class="cls-2" d="M389.1,74.25a2.39,2.39,0,0,0,.9.2,1.37,1.37,0,0,0,1.5-1.1l.7-1.6-4.3-10.5h1.7l3.5,8.5,3.4-8.5h1.8l-5.2,12.5a3,3,0,0,1-3,2.1,5,5,0,0,1-1.2-.2Z"/></g></g></svg>