<svg xmlns="http://www.w3.org/2000/svg" xmlns:xlink="http://www.w3.org/1999/xlink" viewBox="0 0 469.86 110.33"><defs><linearGradient id="linear-gradient" x1="60.32" y1="-282.24" x2="60.32" y2="-355.87" gradientTransform="translate(0 393)" gradientUnits="userSpaceOnUse"><stop offset="0.3" stop-color="#473788"/><stop offset="0.87" stop-color="#2c2255"/></linearGradient><linearGradient id="linear-gradient-2" x1="60.32" y1="-282.24" x2="60.32" y2="-355.87" xlink:href="#linear-gradient"/><linearGradient id="linear-gradient-3" x1="60.32" y1="-282.24" x2="60.32" y2="-355.87" gradientTransform="translate(0 393)" gradientUnits="userSpaceOnUse"><stop offset="0.3" stop-color="#473788"/><stop offset="0.86" stop-color="#2c2255"/></linearGradient></defs><title>logo-eclipse-ide</title><g id="Layer_2" data-name="Layer 2"><g id="Layer_1-2" data-name="Layer 1"><path d="M30.05,69.27H13.31A47.49,47.49,0,0,0,25.66,89.72a47.25,47.25,0,0,0,34.65,14.4,51.73,51.73,0,0,0,7.86-.59,46.67,46.67,0,0,0,26.7-13.81,47.35,47.35,0,0,0,12.44-20.45H30.05Z" fill="#2c2255"/><path d="M20.82,46.53H12.07a51.44,51.44,0,0,0-.63,5.9h97.75a49.29,49.29,0,0,0-.64-5.9" fill="#2c2255"/><path d="M11.44,57.9a51.2,51.2,0,0,0,.63,5.9h96.49a51.19,51.19,0,0,0,.64-5.9" fill="#2c2255"/><path d="M107.31,41.05A47.77,47.77,0,0,0,94.87,20.51,46.91,46.91,0,0,0,68.25,6.8a54.13,54.13,0,0,0-7.94-.59A47.4,47.4,0,0,0,25.66,20.52,47.74,47.74,0,0,0,13.31,41.06" fill="#2c2255"/><path d="M8.53,55.17c0-25.83,19.4-47.28,44.63-51.06-.63,0-1.26-.05-1.89-.05a51.11,51.11,0,1,0,0,102.21c.63,0,1.26,0,1.89,0C27.93,102.45,8.53,81,8.53,55.17Z" fill="#f7941e"/><rect x="279.59" width="10.2" height="12.91" fill="#f7941e"/><path d="M194.46,53.14v5H147.57q.68,10.55,6.35,16.05t15.82,5.51a44.9,44.9,0,0,0,11.39-1.44,50.83,50.83,0,0,0,11-4.32v9.64a60.3,60.3,0,0,1-11.26,3.55,56.51,56.51,0,0,1-11.69,1.22q-14.85,0-23.52-8.65T136.93,56.3q0-15.24,8.23-24.19t22.2-8.95q12.52,0,19.81,8.06t7.29,21.92m-10.2-3q-.1-8.36-4.68-13.35a15.64,15.64,0,0,0-12.11-5q-8.53,0-13.66,4.82t-5.9,13.58Z" fill="#2c2255"/><path d="M247.35,27v9.53A39.87,39.87,0,0,0,238.68,33a33.31,33.31,0,0,0-8.79-1.19q-9.91,0-15.4,6.29T209,55.74q0,11.35,5.49,17.65t15.4,6.29a32.9,32.9,0,0,0,8.79-1.19,39.33,39.33,0,0,0,8.67-3.57v9.42a41.48,41.48,0,0,1-8.84,3,45.87,45.87,0,0,1-9.72,1q-14,0-22.28-8.82t-8.26-23.77q0-15.18,8.34-23.89t22.86-8.7a43.86,43.86,0,0,1,9.2,1,41.81,41.81,0,0,1,8.7,2.92" fill="#2c2255"/><rect x="256.57" y="0.49" width="10.2" height="86.23" fill="#2c2255"/><path d="M279.59,24.65h10.2V86.72h-10.2Z" fill="#2c2255"/><path d="M312.48,77.41v32.92H302.23V24.65h10.25v9.42a21.21,21.21,0,0,1,8.12-8.23,24.08,24.08,0,0,1,11.72-2.69,22.31,22.31,0,0,1,18.37,9q7.06,9,7.07,23.61t-7.07,23.61a22.31,22.31,0,0,1-18.37,9,24.08,24.08,0,0,1-11.72-2.69,21.14,21.14,0,0,1-8.12-8.23m34.69-21.67q0-11.25-4.63-17.65a15.83,15.83,0,0,0-25.43,0q-4.64,6.4-4.63,17.65t4.63,17.65a15.83,15.83,0,0,0,25.43,0q4.63-6.39,4.63-17.65" fill="#2c2255"/><path d="M405.72,26.48v9.64a40.48,40.48,0,0,0-9-3.32,41.48,41.48,0,0,0-9.64-1.11q-7.61,0-11.39,2.33a7.64,7.64,0,0,0-3.8,7,6.55,6.55,0,0,0,2.72,5.57q2.72,2,10.91,3.85l3.49.78q10.86,2.32,15.44,6.57T409,69.6a16.09,16.09,0,0,1-6.85,13.68q-6.84,5-18.81,5a59.47,59.47,0,0,1-10.39-1,88,88,0,0,1-11.39-2.91V73.92a54.44,54.44,0,0,0,11.14,4.4,41.86,41.86,0,0,0,10.86,1.47q7.22,0,11.09-2.46a7.82,7.82,0,0,0,3.87-7A7.66,7.66,0,0,0,395.77,64q-2.81-2.22-12.28-4.27l-3.55-.83q-9.46-2-13.68-6.12C363.45,50,362,46.25,362,41.44q0-8.76,6.21-13.52t17.62-4.77a65.36,65.36,0,0,1,10.65.83,45.68,45.68,0,0,1,9.2,2.5" fill="#2c2255"/><path d="M469.86,53.14v5H423q.67,10.55,6.35,16.05t15.82,5.51a44.9,44.9,0,0,0,11.39-1.44,50.83,50.83,0,0,0,11-4.32v9.64a60.43,60.43,0,0,1-11.25,3.55,56.58,56.58,0,0,1-11.69,1.22q-14.87,0-23.53-8.65T412.34,56.3q0-15.24,8.22-24.19t22.2-8.95q12.53,0,19.81,8.06t7.29,21.92m-10.2-3q-.11-8.36-4.68-13.35a15.64,15.64,0,0,0-12.11-5q-8.53,0-13.66,4.82t-5.9,13.58Z" fill="#2c2255"/><path d="M93.58,52.43a32.62,32.62,0,0,0-1-5.9H28.06a32.62,32.62,0,0,0-1,5.9Z" fill="url(#linear-gradient)"/><path d="M93.58,57.9H27.05a32.92,32.92,0,0,0,1,5.9H92.57A32.92,32.92,0,0,0,93.58,57.9Z" fill="url(#linear-gradient-2)"/><path d="M60.32,88.55A33.39,33.39,0,0,0,90.58,69.27H30.05A33.39,33.39,0,0,0,60.32,88.55Z" fill="url(#linear-gradient-3)"/><path d="M22.12,57.9h87c0-.87.07-1.75.07-2.63s0-1.9-.09-2.84H11.44c-.06.94-.09,1.89-.09,2.84s0,1.76.07,2.63Z" fill="#fff"/><path d="M29.86,41.05H13.31a47.81,47.81,0,0,0-1.24,5.48h96.17a48,48,0,0,0-1.31-5.48" fill="#fff"/><path d="M102,63.8H12.07a47.17,47.17,0,0,0,1.24,5.47h93.94a49.46,49.46,0,0,0,1.29-5.47Z" fill="#fff"/></g></g></svg>