<svg xmlns="http://www.w3.org/2000/svg" xmlns:xlink="http://www.w3.org/1999/xlink" viewBox="0 0 451.24 71.34"><defs><linearGradient id="linear-gradient" x1="25.97" y1="232.96" x2="25.09" y2="234.03" gradientTransform="matrix(64.13, 0, 0, -64.59, -1613.49, 15101.8)" gradientUnits="userSpaceOnUse"><stop offset="0.25" stop-color="#086c38"/><stop offset="0.37" stop-color="#277a3b"/><stop offset="0.64" stop-color="#519b41"/><stop offset="0.86" stop-color="#69b343"/><stop offset="1" stop-color="#73bf44"/></linearGradient></defs><title>Asset 1</title><g id="Layer_2" data-name="Layer 2"><g id="Layer_1-2" data-name="Layer 1"><path id="Shape" d="M437.74,56V47.7H418.69V41.06l15.78-24.83h11.65V40.3h5.12v7.4h-5.12V56Zm0-32.24L427.07,40.3h10.78Z" fill="#77bc1f"/><path id="Shape-2" data-name="Shape" d="M406.22,3.59V68.94" fill="none" stroke="#000" stroke-width="0.75"/><g id="Shape-3" data-name="Shape"><path d="M86,50l3.81-5.33a16.87,16.87,0,0,0,12.52,5.44c5.66,0,8-2.83,8-5.44,0-8.28-23.08-3.16-23.08-17.76,0-6.53,5.77-11.54,14.48-11.65,6.21,0,11.21,2,14.92,5.55l-4,5.23a16.13,16.13,0,0,0-11.44-4.46c-4.13,0-6.75,2-6.75,4.9,0,7.4,23.09,2.83,23.09,17.64,0,6.64-4.69,12.2-15.36,12.31C94.83,56.31,89.5,53.7,86,50Z"/><path d="M127.49,51.52V66.44h-6.2V26.79h6.2v3.92A11.61,11.61,0,0,1,136.75,26c7.4,0,12.74,5.56,12.74,15S144.15,56.2,136.75,56.2A11,11,0,0,1,127.49,51.52ZM143,41.17c0-5.55-3.15-9.48-8-9.48a9.38,9.38,0,0,0-7.41,3.93V46.94a9.59,9.59,0,0,0,7.41,3.81C139.8,50.75,143,46.72,143,41.17Z"/><path d="M153.3,55.55V26.79h6.2V31a12.35,12.35,0,0,1,9.37-4.9v6.21a9.74,9.74,0,0,0-2-.22c-2.62,0-6.1,1.74-7.41,3.81V55.55Z"/><path d="M173.11,19.39a3.94,3.94,0,0,1,3.81-3.92,3.78,3.78,0,0,1,3.81,3.81,4,4,0,0,1-3.81,3.92A3.72,3.72,0,0,1,173.11,19.39Zm.76,36.16V26.79h6.21V55.55Z"/><path d="M206.43,55.55v-18c0-4.47-2.29-6-5.77-6a9.34,9.34,0,0,0-7.41,3.92v20h-6.2V26.79h6.2v3.92A13.41,13.41,0,0,1,203.38,26c6.2,0,9.25,3.38,9.25,9.26V55.55Z"/><path d="M219.17,62.84l2.94-4.57c2.28,2.72,5.33,3.7,9.14,3.7,4.14,0,8.49-1.85,8.49-7.84V50.65a11.68,11.68,0,0,1-9.25,4.79c-7.3,0-12.74-5.34-12.74-14.71S223.08,26,230.49,26a11.58,11.58,0,0,1,9.25,4.68v-4H246V53.91c0,10.35-7.62,13.18-14.7,13.18C226.35,67.2,222.65,66.11,219.17,62.84Zm20.57-16.66V35.51a9.25,9.25,0,0,0-7.4-3.82c-4.9,0-8.06,3.71-8.06,9.26s3.16,9.26,8.06,9.26A10.1,10.1,0,0,0,239.74,46.18Z"/><polygon points="270.94 55.55 270.94 22 258.96 22 258.96 15.9 289.88 15.9 289.88 22 277.91 22 277.91 55.55 270.94 55.55"/><path d="M285.2,41.06c0-8.17,5.66-15,14.7-15,9.25,0,14.81,6.86,14.81,15S309.15,56.2,299.9,56.2C290.86,56.2,285.2,49.34,285.2,41.06Zm23.08,0c0-5-2.94-9.47-8.27-9.47s-8.28,4.46-8.28,9.47,2.94,9.59,8.28,9.59S308.28,46.18,308.28,41.06Z"/><path d="M316.88,41.06c0-8.17,5.66-15,14.7-15,9.26,0,14.81,6.86,14.81,15S340.84,56.2,331.58,56.2C322.54,56.2,316.88,49.34,316.88,41.06Zm23.08,0c0-5-2.94-9.47-8.27-9.47s-8.27,4.46-8.27,9.47,2.94,9.59,8.27,9.59S340,46.18,340,41.06Z"/><polygon points="350.31 55.44 350.31 15.79 356.51 15.79 356.51 55.44 350.31 55.44"/></g><g id="Shape-4" data-name="Shape"><path d="M58.79,19,63,13.4a.68.68,0,0,0-.11-1L59,8.5a.8.8,0,0,0-1-.11l-5.55,4.35-2-1.3,1.85-6.76a.74.74,0,0,0-.44-.87L46.71,1.63a.87.87,0,0,0-1,.33l-3.27,6.1a16.51,16.51,0,0,0-2.29-.44l-.87-7A.73.73,0,0,0,38.54,0H33a.93.93,0,0,0-.76.65l-.87,7c-.77.11-1.53.33-2.29.44L25.69,2a.87.87,0,0,0-1-.33L19.49,3.81a.74.74,0,0,0-.44.87l1.85,6.76-2,1.3L13.39,8.5a.69.69,0,0,0-1,.1L8.49,12.53a.82.82,0,0,0-.11,1l4.36,5.55-1.31,2L4.68,19.17a.75.75,0,0,0-.87.43L1.63,24.83a.87.87,0,0,0,.33,1l6.1,3.49a16.51,16.51,0,0,0-.44,2.29l-7,.87a.73.73,0,0,0-.65.76v5.55a1,1,0,0,0,.65.77l7,.87c.11.76.33,1.52.44,2.28L2,46.18a.87.87,0,0,0-.33,1l2.18,5.23a.75.75,0,0,0,.87.43L11.43,51l1.31,2L8.49,58.49a.69.69,0,0,0,.11,1l3.92,3.92a1.91,1.91,0,0,0,1.09.43l13.06-.65a27.61,27.61,0,0,0,9,1.42A28.45,28.45,0,0,0,64.13,36.16,28.12,28.12,0,0,0,58.79,19Z" fill="url(#linear-gradient)"/><path d="M63.15,12.63a26.07,26.07,0,0,1-4.58,6.21A30.66,30.66,0,0,1,46,26.68C39.09,29,32.66,28.43,26.67,30.93c-10.77,4.69-11.75,17.65-7.4,24l2.29-.43a123,123,0,0,0,16.33-4C47,47.05,57.05,38.66,60.43,29c-1.75,10.13-10,19.93-19.17,24.62C36.58,56,26.67,60.12,11.87,62A35.22,35.22,0,0,0,36,71.34,35.53,35.53,0,0,0,63.15,12.63Z" fill="#77bd43"/></g><path id="Shape-5" data-name="Shape" d="M362.27,52.52l3.1-5.1a15.52,15.52,0,0,0,9.54,3.8c3.11,0,4.61-1.3,4.61-3,0-4.67-16.29-.87-16.29-11.83,0-4.66,4.07-8.79,11.25-8.79a17.7,17.7,0,0,1,11.15,3.8l-2.9,5a11.76,11.76,0,0,0-8.14-3.25c-2.57,0-4.29,1.19-4.29,2.82,0,4.12,16.29.65,16.29,11.93,0,5.1-4.28,8.9-11.89,8.9C369.77,56.75,365.16,55.23,362.27,52.52Z"/></g></g></svg>