<?xml version="1.0" encoding="utf-8"?>
<!-- Generator: Adobe Illustrator 24.1.0, SVG Export Plug-In . SVG Version: 6.00 Build 0)  -->
<svg version="1.1" id="Layer_1" xmlns="http://www.w3.org/2000/svg" xmlns:xlink="http://www.w3.org/1999/xlink" x="0px" y="0px"
	 viewBox="0 0 492.6 97" style="enable-background:new 0 0 492.6 97;" xml:space="preserve">
<style type="text/css">
	.st0{fill:#6DB33F;}
	.st1{fill:#8A8C8E;}
	.st2{fill:#FFFFFF;}
</style>
<g id="Layer_2_1_">
	<g id="logos">
		<path class="st0" d="M88.4,5.6c-1.3,3.2-3.1,6.3-5.2,9.1C64.6-4.5,33.9-5.1,14.7,13.5s-19.8,49.3-1.2,68.5c0.6,0.7,1.3,1.3,2,1.9
			l1.8,1.6c20.4,17.2,51,14.6,68.2-5.8C92.1,72,96.1,62.2,96.8,52C98.2,39.8,94.5,24.2,88.4,5.6z M22.5,84.4c-1.4,1.8-4,2-5.8,0.6
			c-1.8-1.4-2-4-0.6-5.8c1.4-1.8,4-2,5.8-0.6C23.6,80.1,23.9,82.6,22.5,84.4z M88.1,69.9C76.2,85.8,50.6,80.4,34.3,81.2
			c0,0-2.9,0.2-5.8,0.6c0,0,1.1-0.5,2.5-1c11.5-4,16.9-4.8,23.9-8.4C68,65.7,81.1,51,83.7,35.8c-5,14.6-20.2,27.2-34,32.3
			C40.2,71.6,23.1,75,23.1,75l-0.7-0.4c-11.6-5.7-12-30.9,9.2-39c9.3-3.6,18.1-1.6,28.2-4c10.7-2.5,23.1-10.5,28.1-21
			C93.5,27.5,100.3,53.7,88.1,69.9z"/>
		<path class="st0" d="M124.3,67.5c-1.3-0.8-2.1-2.2-2-3.7c0-2.4,1.9-4.4,4.3-4.4c0,0,0,0,0.1,0c0.8,0,1.6,0.2,2.3,0.6
			c4,2.8,8.7,4.3,13.5,4.5c4.6,0,7.3-2,7.3-5.1v-0.2c0-3.7-5-4.9-10.5-6.6c-6.9-2-14.7-4.8-14.7-13.8v-0.2c0-8.9,7.4-14.3,16.7-14.3
			c5.2,0.1,10.2,1.4,14.8,3.8c1.6,0.8,2.6,2.3,2.6,4.1c0,2.4-2,4.4-4.4,4.4c0,0-0.1,0-0.1,0c-0.7,0-1.4-0.2-2.1-0.5
			c-3.4-1.9-7.1-3-11-3.2c-4.2,0-6.6,2-6.6,4.6v0.2c0,3.5,5.1,4.9,10.6,6.7c6.9,2.1,14.6,5.3,14.6,13.7v0.2
			c0,9.9-7.7,14.8-17.4,14.8C135.9,73.1,129.6,71.1,124.3,67.5z"/>
		<path class="st0" d="M163.7,29.8c-0.1-2.9,2.3-5.3,5.2-5.4c0,0,0.1,0,0.1,0c3,0,5.4,2.4,5.4,5.4c0,0,0,0,0,0V33
			c3.5-4.9,8.4-8.8,16-8.8c11,0,21.8,8.7,21.8,24.4v0.2c0,15.6-10.7,24.4-21.8,24.4c-7.8,0-12.7-3.9-16-8.3v16.6
			c0,3-2.4,5.4-5.4,5.4c0,0,0,0,0,0c-2.9,0-5.3-2.4-5.3-5.3c0,0,0-0.1,0-0.1V29.8z M201.4,48.8v-0.2c0-9.1-6.1-15-13.4-15
			s-13.7,6.1-13.7,15v0.2c0,9,6.4,15,13.7,15S201.4,58.1,201.4,48.8z"/>
		<path class="st0" d="M216.4,29.8c-0.1-2.9,2.3-5.3,5.2-5.4c0,0,0.1,0,0.1,0c3,0,5.4,2.4,5.4,5.4c0,0,0,0,0,0v2.6
			c0.5-4,7.1-8,11.8-8c2.7-0.2,5.1,1.8,5.3,4.5c0,0.3,0,0.5,0,0.8c0,2.6-1.8,4.8-4.3,5.2c-7.7,1.3-12.9,8-12.9,17.3v15.5
			c0,3-2.4,5.3-5.4,5.3c-2.9,0-5.3-2.3-5.3-5.2c0,0,0,0,0-0.1L216.4,29.8L216.4,29.8z"/>
		<path class="st0" d="M248.5,29.9c-0.1-2.9,2.3-5.3,5.2-5.4c0,0,0.1,0,0.1,0c3,0,5.4,2.4,5.4,5.4c0,0,0,0,0,0v37.9
			c0,3-2.4,5.3-5.4,5.3c-3,0-5.3-2.4-5.3-5.3L248.5,29.9z"/>
		<path class="st0" d="M264.7,29.9c-0.1-2.9,2.3-5.3,5.2-5.4c0,0,0.1,0,0.1,0c3,0,5.4,2.4,5.4,5.4c0,0,0,0,0,0v2.2
			c3.2-5,8.8-7.9,14.7-7.7c10.6,0,16.7,7.1,16.7,18v25.3c0.1,2.9-2.2,5.2-5.1,5.3c-0.1,0-0.1,0-0.2,0c-2.9,0.1-5.3-2.3-5.4-5.2
			c0,0,0-0.1,0-0.1v-22c0-7.3-3.6-11.5-10.1-11.5c-6.2,0-10.6,4.4-10.6,11.7v21.9c0,3-2.4,5.4-5.4,5.4s-5.4-2.4-5.4-5.4V29.9z"/>
		<path class="st0" d="M354.2,24.3c-3,0-5.4,2.4-5.4,5.4c0,0,0,0,0,0v3.2c-3.5-4.9-8.4-8.8-16-8.8c-11,0-21.8,8.7-21.8,24.4v0.2
			c0,15.6,10.7,24.4,21.8,24.4c7.8,0,12.7-3.9,16-8.2c-0.5,8.5-5.7,12.9-14.8,12.9c-5,0-10-1.2-14.4-3.7c-0.6-0.3-1.2-0.4-1.9-0.4
			c-2.5,0-4.5,1.9-4.6,4.4c0,1.9,1.2,3.7,3,4.3c5.7,2.8,11.9,4.2,18.2,4.2c8.5,0,15.1-2,19.3-6.3c3.9-3.9,6-9.8,6-17.7V29.8
			c0.1-3-2.3-5.4-5.3-5.5C354.3,24.3,354.2,24.3,354.2,24.3z M335.3,63.8c-7.4,0-13.4-5.8-13.4-15.1v-0.2c0-9.1,6.1-15,13.4-15
			s13.7,6.1,13.7,15v0.2C349.1,57.7,342.7,63.8,335.3,63.8z"/>
		<path class="st0" d="M259.3,11.5c0,3-2.4,5.4-5.4,5.4c-3,0-5.4-2.4-5.4-5.4s2.4-5.4,5.4-5.4l0,0c2.9-0.1,5.3,2.3,5.4,5.2
			C259.3,11.4,259.3,11.4,259.3,11.5z"/>
		<path class="st0" d="M371.9,35.6c-3,0-5.5-2.5-5.5-5.5c0-3,2.5-5.5,5.5-5.5s5.5,2.5,5.5,5.5S374.9,35.6,371.9,35.6z M371.9,25.4
			c-2.6,0-4.7,2.1-4.7,4.7s2.1,4.7,4.7,4.7c2.6,0,4.7-2.1,4.7-4.7c0-2.6-2-4.7-4.6-4.7C372,25.4,371.9,25.4,371.9,25.4z M373.4,33.2
			l-1.6-2.5h-1.1v2.5h-0.9v-6.3h2.6c1.1-0.1,2,0.8,2.1,1.9c0,0,0,0,0,0c0,0.9-0.7,1.7-1.6,1.9l1.7,2.5H373.4z M372.3,27.7h-1.6v2.2
			h1.7c0.6,0,1.1-0.5,1.1-1.1C373.5,28.2,373,27.7,372.3,27.7C372.3,27.7,372.3,27.7,372.3,27.7z"/>
		<path class="st1" d="M423.7,54.8h-3.1v-3h3.1V54.8z M423.7,71.7h-3.1V57h3.1V71.7z"/>
		<path class="st1" d="M441.5,57l-4.3,12.7c-0.3,1.4-1.6,2.4-3.1,2.3c-1.5,0.1-2.8-0.9-3.1-2.3l-3.6-10.6H426v-2.2h3.7l3.7,11.8
			c0.2,0.5,0.3,0.8,0.7,0.8s0.6-0.3,0.7-0.8l3.7-11.8h3L441.5,57L441.5,57z"/>
		<path class="st1" d="M449,57c4,0,6.7,2.6,6.7,6.4v2.3c0,3.8-2.8,6.4-6.7,6.4s-6.7-2.6-6.7-6.4v-2.3C442.3,59.6,445,57,449,57
			 M449,69.6c2.1,0,3.8-1.6,3.8-3.6c0-0.1,0-0.2,0-0.4v-2.3c0.1-2.1-1.5-3.9-3.6-4c-0.1,0-0.2,0-0.2,0c-2-0.1-3.7,1.5-3.8,3.5
			c0,0.2,0,0.3,0,0.5v2.3c-0.1,2.1,1.4,3.8,3.4,4C448.8,69.6,448.9,69.6,449,69.6"/>
		<path class="st1" d="M480.3,57.3c-1.9-0.4-3.8-0.7-5.7-0.7c-4,0-6.5,2.5-6.5,6.6v1.6c0,4.1,2.5,6.7,6.5,6.7h1.1V69h-1.1
			c-2.2,0-3.7-1.7-3.7-4.2v-1.6c0-2.5,1.5-4.2,3.7-4.2c1,0,2,0.1,3,0.2h0.2v12.3h3.1V57.8C480.8,57.6,480.8,57.5,480.3,57.3"/>
		<rect x="483.8" y="51.8" class="st1" width="3.1" height="19.9"/>
		<path class="st1" d="M410,51.8h-5.4v19.9h3.2V54.5h3c2.8,0.1,4.1,1.2,4.1,3.3V58c0,2-1.1,3.3-4.1,3.3h-0.9V64h0.9
			c4.3,0,7.4-1.7,7.4-6v-0.3C418.1,53.4,414.8,51.7,410,51.8"/>
		<path class="st1" d="M461.2,53.8V57h5v2.4h-5V68c0,1.3,0.9,1.4,2.1,1.4h2.9v2.4h-3.9c-2.9,0-4.2-1.2-4.2-3.8V54.2L461.2,53.8z"/>
		<path class="st1" d="M488.6,69.7c0-1.1,0.9-2,2-2s2,0.9,2,2s-0.9,2-2,2S488.6,70.8,488.6,69.7z M490.7,67.8
			c-0.9,0-1.7,0.7-1.7,1.7c0,0,0,0,0,0c0,0.9,0.8,1.7,1.7,1.7c0.9,0,1.7-0.7,1.7-1.7c0,0,0,0,0,0C492.4,68.6,491.6,67.9,490.7,67.8z
			 M490.2,70.8H490v-2.2h0.6c0.6,0,0.8,0.3,0.8,0.7c0,0.3-0.2,0.5-0.5,0.6l0.6,0.9h-0.2l-0.5-0.9h-0.5L490.2,70.8L490.2,70.8z
			 M490.6,69.7c0.4,0,0.6-0.2,0.6-0.5s-0.2-0.5-0.6-0.5h-0.4v1H490.6z"/>
		<path class="st1" d="M377.4,71.7V57.3h1.6v5.5c0.8-1.1,2.1-1.8,3.5-1.8c2.7,0,4.6,2.1,4.6,5.4c0,3.3-1.9,5.4-4.6,5.4
			c-1.4,0-2.7-0.7-3.5-1.8v1.5h-1.6V71.7z M382.1,70.5c2.1,0,3.3-1.7,3.3-4s-1.2-4-3.3-4c-1.2,0-2.4,0.7-3.1,1.7v4.7
			C379.7,69.9,380.9,70.4,382.1,70.5z"/>
		<path class="st1" d="M389.1,74.2c0.3,0.1,0.6,0.2,0.9,0.2c0.7,0.1,1.4-0.4,1.5-1.1l0.7-1.6l-4.3-10.5h1.7l3.5,8.5l3.4-8.5h1.8
			l-5.2,12.5c-0.4,1.3-1.6,2.2-3,2.1c-0.4,0-0.8-0.1-1.2-0.2L389.1,74.2z"/>
	</g>
</g>
<path class="st2" d="M88.1,69.9C76.2,85.8,50.6,80.4,34.3,81.2c0,0-2.9,0.2-5.8,0.6c0,0,1.1-0.5,2.5-1c11.5-4,16.9-4.8,23.9-8.4
	C68,65.7,81.1,51,83.7,35.8c-5,14.6-20.2,27.2-34,32.3C40.2,71.6,23.1,75,23.1,75l-0.7-0.4c-11.6-5.7-12-30.9,9.2-39
	c9.3-3.6,18.1-1.6,28.2-4c10.7-2.5,23.1-10.5,28.1-21C93.5,27.5,100.3,53.7,88.1,69.9z"/>
<path class="st2" d="M22.5,84.4c-1.4,1.8-4,2-5.8,0.6c-1.8-1.4-2-4-0.6-5.8c1.4-1.8,4-2,5.8-0.6C23.6,80.1,23.9,82.6,22.5,84.4z"/>
</svg>
