<?xml version="1.0" encoding="utf-8"?>
<!-- Generator: Adobe Illustrator 24.0.1, SVG Export Plug-In . SVG Version: 6.00 Build 0)  -->
<svg version="1.1" id="Layer_1" xmlns="http://www.w3.org/2000/svg" xmlns:xlink="http://www.w3.org/1999/xlink" x="0px" y="0px"
	 viewBox="0 0 292.3 304.4" style="enable-background:new 0 0 292.3 304.4;" xml:space="preserve">
<style type="text/css">
	.st0{fill:#191E1E;}
</style>
<title>microservices</title>
<g id="Layer_2_1_">
	<g id="Layer_1-2">
		<path class="st0" d="M273,261.2L273,261.2c-0.9,0-1.7,0.8-1.7,1.7l0,0c0,0.5,0.3,1.1,0.7,1.4l1-0.6l1.4-0.8l0.3-0.2
			C274.6,261.8,273.9,261.2,273,261.2z"/>
		<circle class="st0" cx="277.2" cy="255.6" r="1.7"/>
		<path class="st0" d="M264.5,246.5L264.5,246.5c-0.9,0-1.7,0.8-1.7,1.7l0,0c0,0.9,0.8,1.7,1.7,1.7l0,0c0.9,0,1.7-0.8,1.7-1.7l0,0
			C266.2,247.3,265.5,246.5,264.5,246.5z"/>
		<path class="st0" d="M264.5,261.2L264.5,261.2c-0.9,0-1.7,0.8-1.7,1.7l0,0c0,0.9,0.8,1.7,1.7,1.7l0,0c0.9,0,1.7-0.8,1.7-1.7l0,0
			C266.2,261.9,265.5,261.2,264.5,261.2z"/>
		<circle class="st0" cx="268.8" cy="255.6" r="1.7"/>
		<path class="st0" d="M256.1,246.5L256.1,246.5c-0.9,0-1.7,0.8-1.7,1.7l0,0c0,0.9,0.8,1.7,1.7,1.7l0,0c0.9,0,1.7-0.8,1.7-1.7l0,0
			C257.8,247.3,257,246.5,256.1,246.5z"/>
		<path class="st0" d="M256.1,261.2L256.1,261.2c-0.9,0-1.7,0.8-1.7,1.7l0,0c0,0.9,0.8,1.7,1.7,1.7l0,0c0.9,0,1.7-0.8,1.7-1.7l0,0
			C257.8,261.9,257,261.2,256.1,261.2z"/>
		<circle class="st0" cx="260.3" cy="255.6" r="1.7"/>
		<path class="st0" d="M260.3,268.5c-0.9,0-1.7,0.7-1.7,1.7c0,0.6,0.3,1.1,0.8,1.4l2.6-1.5C261.9,269.2,261.2,268.5,260.3,268.5z"/>
		<path class="st0" d="M247.6,246.5L247.6,246.5c-0.9,0-1.7,0.8-1.7,1.7l0,0c0,0.9,0.8,1.7,1.7,1.7l0,0c0.9,0,1.7-0.8,1.7-1.7l0,0
			C249.3,247.3,248.5,246.5,247.6,246.5z"/>
		<circle class="st0" cx="251.9" cy="240.9" r="1.7"/>
		<path class="st0" d="M247.6,261.2L247.6,261.2c-0.9,0-1.7,0.8-1.7,1.7l0,0c0,0.9,0.8,1.7,1.7,1.7l0,0c0.9,0,1.7-0.8,1.7-1.7l0,0
			C249.3,261.9,248.5,261.2,247.6,261.2z"/>
		<circle class="st0" cx="251.9" cy="255.6" r="1.7"/>
		<path class="st0" d="M247.6,275.9L247.6,275.9c-0.9,0-1.7,0.8-1.7,1.7l0,0c0,0.6,0.3,1.1,0.8,1.4l0.9-0.5l1.5-0.9l0.1-0.1
			C249.3,276.6,248.5,275.8,247.6,275.9z"/>
		<path class="st0" d="M251.9,268.5c-0.9,0-1.7,0.8-1.7,1.7s0.8,1.7,1.7,1.7c0.9,0,1.7-0.8,1.7-1.7l0,0
			C253.5,269.3,252.8,268.5,251.9,268.5z"/>
		<path class="st0" d="M239.2,231.9L239.2,231.9c-0.9,0-1.7,0.8-1.7,1.7l0,0c0,0.9,0.8,1.7,1.7,1.7l0,0c0.9,0,1.7-0.8,1.7-1.7l0,0
			C240.8,232.6,240.1,231.9,239.2,231.9z"/>
		<path class="st0" d="M239.2,246.5L239.2,246.5c-0.9,0-1.7,0.8-1.7,1.7l0,0c0,0.9,0.8,1.7,1.7,1.7l0,0c0.9,0,1.7-0.8,1.7-1.7l0,0
			C240.8,247.3,240.1,246.5,239.2,246.5z"/>
		<circle class="st0" cx="243.4" cy="240.9" r="1.7"/>
		<path class="st0" d="M239.2,261.2L239.2,261.2c-0.9,0-1.7,0.8-1.7,1.7l0,0c0,0.9,0.8,1.7,1.7,1.7l0,0c0.9,0,1.7-0.8,1.7-1.7l0,0
			C240.8,261.9,240.1,261.2,239.2,261.2z"/>
		<circle class="st0" cx="243.4" cy="255.6" r="1.7"/>
		<path class="st0" d="M239.2,275.9L239.2,275.9c-0.9,0-1.7,0.8-1.7,1.7l0,0c0,0.9,0.8,1.7,1.7,1.7l0,0c0.9,0,1.7-0.8,1.7-1.7l0,0
			C240.8,276.6,240.1,275.9,239.2,275.9z"/>
		<path class="st0" d="M243.4,268.5c-0.9,0-1.7,0.8-1.7,1.7s0.8,1.7,1.7,1.7c0.9,0,1.7-0.8,1.7-1.7l0,0
			C245.1,269.3,244.3,268.5,243.4,268.5z"/>
		<path class="st0" d="M230.7,231.9L230.7,231.9c-0.9,0-1.7,0.8-1.7,1.7l0,0c0,0.9,0.8,1.7,1.7,1.7l0,0c0.9,0,1.7-0.8,1.7-1.7l0,0
			C232.4,232.6,231.6,231.9,230.7,231.9z"/>
		<path class="st0" d="M230.7,246.5L230.7,246.5c-0.9,0-1.7,0.8-1.7,1.7l0,0c0,0.9,0.8,1.7,1.7,1.7l0,0c0.9,0,1.7-0.8,1.7-1.7l0,0
			C232.4,247.3,231.6,246.5,230.7,246.5z"/>
		<circle class="st0" cx="234.9" cy="240.9" r="1.7"/>
		<path class="st0" d="M230.7,261.2L230.7,261.2c-0.9,0-1.7,0.8-1.7,1.7l0,0c0,0.9,0.8,1.7,1.7,1.7l0,0c0.9,0,1.7-0.8,1.7-1.7l0,0
			C232.4,261.9,231.6,261.2,230.7,261.2z"/>
		<circle class="st0" cx="234.9" cy="255.6" r="1.7"/>
		<path class="st0" d="M230.7,275.9L230.7,275.9c-0.9,0-1.7,0.8-1.7,1.7l0,0c0,0.9,0.8,1.7,1.7,1.7l0,0c0.9,0,1.7-0.8,1.7-1.7l0,0
			C232.4,276.6,231.6,275.9,230.7,275.9z"/>
		<path class="st0" d="M234.9,268.5c-0.9,0-1.7,0.8-1.7,1.7s0.8,1.7,1.7,1.7c0.9,0,1.7-0.8,1.7-1.7l0,0
			C236.6,269.3,235.9,268.5,234.9,268.5z"/>
		<path class="st0" d="M234.9,283.2c-0.9,0-1.7,0.7-1.7,1.7c0,0.6,0.3,1.2,0.8,1.5l2.5-1.5C236.6,283.9,235.8,283.2,234.9,283.2z"/>
		<path class="st0" d="M222.2,231.9L222.2,231.9c-0.9,0-1.7,0.8-1.7,1.7l0,0l0,0c0,0.9,0.8,1.7,1.7,1.7l0,0c0.9,0,1.7-0.8,1.7-1.7
			l0,0C223.9,232.6,223.2,231.9,222.2,231.9z"/>
		<circle class="st0" cx="226.5" cy="226.2" r="1.7"/>
		<path class="st0" d="M222.2,246.5L222.2,246.5c-0.9,0-1.7,0.8-1.7,1.7l0,0c0,0.9,0.8,1.7,1.7,1.7l0,0c0.9,0,1.7-0.8,1.7-1.7l0,0
			C223.9,247.3,223.2,246.5,222.2,246.5z"/>
		<circle class="st0" cx="226.5" cy="240.9" r="1.7"/>
		<path class="st0" d="M222.2,261.2L222.2,261.2c-0.9,0-1.7,0.8-1.7,1.7l0,0c0,0.9,0.8,1.7,1.7,1.7l0,0l0,0c0.9,0,1.7-0.8,1.7-1.7
			l0,0C223.9,261.9,223.2,261.2,222.2,261.2z"/>
		<circle class="st0" cx="226.5" cy="255.6" r="1.7"/>
		<path class="st0" d="M222.2,275.9L222.2,275.9c-0.9,0-1.7,0.8-1.7,1.7l0,0c0,0.9,0.8,1.7,1.7,1.7l0,0c0.9,0,1.7-0.8,1.7-1.7l0,0
			C223.9,276.6,223.2,275.9,222.2,275.9z"/>
		<path class="st0" d="M226.5,268.5c-0.9,0-1.7,0.8-1.7,1.7s0.8,1.7,1.7,1.7c0.9,0,1.7-0.8,1.7-1.7l0,0
			C228.1,269.3,227.4,268.5,226.5,268.5z"/>
		<path class="st0" d="M222.2,290.5L222.2,290.5c-0.9,0-1.7,0.8-1.7,1.7l0,0c0,0.6,0.3,1.2,0.9,1.5l0.8-0.5l1.7-1l0,0l0,0
			C223.9,291.2,223.2,290.5,222.2,290.5z"/>
		<circle class="st0" cx="226.5" cy="284.9" r="1.7"/>
		<path class="st0" d="M214.3,217.3l-0.5,0.3l-1.6,0.9c0,0.1,0,0.2,0,0.3l0,0c0,0.9,0.8,1.7,1.7,1.7l0,0c0.9,0,1.7-0.8,1.7-1.7l0,0
			C215.5,218.2,215,217.5,214.3,217.3z"/>
		<path class="st0" d="M213.8,231.9L213.8,231.9c-0.9,0-1.7,0.8-1.7,1.7l0,0l0,0c0,0.9,0.8,1.7,1.7,1.7l0,0c0.9,0,1.7-0.8,1.7-1.7
			l0,0C215.5,232.6,214.7,231.9,213.8,231.9z"/>
		<circle class="st0" cx="218" cy="226.2" r="1.7"/>
		<path class="st0" d="M213.8,246.5L213.8,246.5c-0.9,0-1.7,0.8-1.7,1.7l0,0c0,0.9,0.8,1.7,1.7,1.7l0,0c0.9,0,1.7-0.8,1.7-1.7l0,0
			C215.5,247.3,214.7,246.5,213.8,246.5z"/>
		<circle class="st0" cx="218" cy="240.9" r="1.7"/>
		<path class="st0" d="M213.8,261.2L213.8,261.2c-0.9,0-1.7,0.8-1.7,1.7l0,0c0,0.9,0.8,1.7,1.7,1.7l0,0l0,0c0.9,0,1.7-0.8,1.7-1.7
			l0,0C215.5,261.9,214.7,261.2,213.8,261.2z"/>
		<circle class="st0" cx="218" cy="255.6" r="1.7"/>
		<path class="st0" d="M213.8,275.9L213.8,275.9c-0.9,0-1.7,0.8-1.7,1.7l0,0c0,0.9,0.8,1.7,1.7,1.7l0,0c0.9,0,1.7-0.8,1.7-1.7l0,0
			C215.5,276.6,214.7,275.9,213.8,275.9z"/>
		<path class="st0" d="M218,268.5c-0.9,0-1.7,0.8-1.7,1.7s0.8,1.7,1.7,1.7c0.9,0,1.7-0.8,1.7-1.7l0,0
			C219.7,269.3,218.9,268.5,218,268.5z"/>
		<path class="st0" d="M213.8,290.5L213.8,290.5c-0.9,0-1.7,0.8-1.7,1.7l0,0c0,0.9,0.8,1.7,1.7,1.7l0,0c0.9,0,1.7-0.8,1.7-1.7l0,0
			C215.5,291.3,214.7,290.5,213.8,290.5z"/>
		<circle class="st0" cx="218" cy="284.9" r="1.7"/>
		<path class="st0" d="M205.3,231.9L205.3,231.9c-0.9,0-1.7,0.8-1.7,1.7l0,0l0,0c0,0.9,0.8,1.7,1.7,1.7l0,0c0.9,0,1.7-0.8,1.7-1.7
			l0,0C207,232.6,206.2,231.9,205.3,231.9z"/>
		<circle class="st0" cx="209.6" cy="226.2" r="1.7"/>
		<path class="st0" d="M205.3,246.5L205.3,246.5c-0.9,0-1.7,0.8-1.7,1.7l0,0c0,0.9,0.8,1.7,1.7,1.7l0,0c0.9,0,1.7-0.8,1.7-1.7l0,0
			C207,247.3,206.2,246.5,205.3,246.5z"/>
		<circle class="st0" cx="209.6" cy="240.9" r="1.7"/>
		<path class="st0" d="M205.3,261.2L205.3,261.2c-0.9,0-1.7,0.8-1.7,1.7l0,0c0,0.9,0.8,1.7,1.7,1.7l0,0l0,0c0.9,0,1.7-0.8,1.7-1.7
			l0,0C207,261.9,206.2,261.2,205.3,261.2z"/>
		<circle class="st0" cx="209.6" cy="255.6" r="1.7"/>
		<path class="st0" d="M205.3,275.9L205.3,275.9c-0.9,0-1.7,0.8-1.7,1.7l0,0c0,0.9,0.8,1.7,1.7,1.7l0,0c0.9,0,1.7-0.8,1.7-1.7l0,0
			C207,276.6,206.2,275.9,205.3,275.9z"/>
		<path class="st0" d="M209.6,268.5c-0.9,0-1.7,0.8-1.7,1.7s0.8,1.7,1.7,1.7c0.9,0,1.7-0.8,1.7-1.7l0,0
			C211.2,269.3,210.5,268.5,209.6,268.5z"/>
		<circle class="st0" cx="209.6" cy="284.9" r="1.7"/>
		<path class="st0" d="M196.9,231.9L196.9,231.9c-0.9,0-1.7,0.8-1.7,1.7l0,0c0,0.9,0.8,1.7,1.7,1.7l0,0c0.9,0,1.7-0.8,1.7-1.7l0,0
			C198.5,232.6,197.8,231.9,196.9,231.9z"/>
		<path class="st0" d="M201.6,224.7l-2.2,1.3c0,0.1,0,0.2,0,0.3c0,0.9,0.7,1.7,1.7,1.7c0.9,0,1.7-0.7,1.7-1.7
			C202.8,225.6,202.4,224.9,201.6,224.7L201.6,224.7z"/>
		<path class="st0" d="M196.9,246.5L196.9,246.5c-0.9,0-1.7,0.8-1.7,1.7l0,0c0,0.9,0.8,1.7,1.7,1.7l0,0c0.9,0,1.7-0.8,1.7-1.7l0,0
			C198.5,247.3,197.8,246.5,196.9,246.5z"/>
		<circle class="st0" cx="201.1" cy="240.9" r="1.7"/>
		<path class="st0" d="M196.9,261.2L196.9,261.2c-0.9,0-1.7,0.8-1.7,1.7l0,0c0,0.9,0.8,1.7,1.7,1.7l0,0c0.9,0,1.7-0.8,1.7-1.7l0,0
			C198.5,261.9,197.8,261.2,196.9,261.2z"/>
		<circle class="st0" cx="201.1" cy="255.6" r="1.7"/>
		<path class="st0" d="M196.9,275.9L196.9,275.9c-0.9,0-1.7,0.8-1.7,1.7l0,0c0,0.9,0.8,1.7,1.7,1.7l0,0c0.9,0,1.7-0.8,1.7-1.7l0,0
			C198.5,276.6,197.8,275.9,196.9,275.9z"/>
		<path class="st0" d="M201.1,268.5c-0.9,0-1.7,0.8-1.7,1.7s0.8,1.7,1.7,1.7c0.9,0,1.7-0.8,1.7-1.7l0,0
			C202.8,269.3,202,268.5,201.1,268.5z"/>
		<circle class="st0" cx="201.1" cy="284.9" r="1.7"/>
		<path class="st0" d="M189,232l-0.6,0.4l-1.6,1c0,0.1,0,0.2,0,0.2l0,0c0,0.9,0.8,1.7,1.7,1.7l0,0c0.9,0,1.7-0.8,1.7-1.7l0,0
			C190.1,232.9,189.7,232.3,189,232z"/>
		<path class="st0" d="M188.4,246.5L188.4,246.5c-0.9,0-1.7,0.8-1.7,1.7l0,0c0,0.9,0.8,1.7,1.7,1.7l0,0c0.9,0,1.7-0.8,1.7-1.7l0,0
			C190.1,247.3,189.3,246.5,188.4,246.5z"/>
		<path class="st0" d="M192.6,239.2c-0.9,0-1.7,0.8-1.7,1.7s0.8,1.7,1.7,1.7c0.9,0,1.7-0.8,1.7-1.7
			C194.3,240,193.6,239.2,192.6,239.2C192.6,239.2,192.6,239.2,192.6,239.2z"/>
		<path class="st0" d="M188.4,261.2L188.4,261.2c-0.9,0-1.7,0.8-1.7,1.7l0,0c0,0.9,0.8,1.7,1.7,1.7l0,0c0.9,0,1.7-0.8,1.7-1.7l0,0
			l0,0C190.1,261.9,189.3,261.2,188.4,261.2z"/>
		<path class="st0" d="M192.6,253.9c-0.9,0-1.7,0.8-1.7,1.7s0.8,1.7,1.7,1.7c0.9,0,1.7-0.8,1.7-1.7S193.6,253.9,192.6,253.9
			L192.6,253.9z"/>
		<path class="st0" d="M188.4,275.9L188.4,275.9c-0.9,0-1.7,0.8-1.7,1.7l0,0c0,0.9,0.8,1.7,1.7,1.7l0,0c0.9,0,1.7-0.8,1.7-1.7l0,0
			C190.1,276.6,189.3,275.8,188.4,275.9z"/>
		<path class="st0" d="M192.6,268.5c-0.9,0-1.7,0.8-1.7,1.7s0.8,1.7,1.7,1.7c0.9,0,1.7-0.8,1.7-1.7
			C194.3,269.3,193.6,268.5,192.6,268.5C192.6,268.5,192.6,268.5,192.6,268.5z"/>
		<path class="st0" d="M179.9,246.5L179.9,246.5c-0.9,0-1.7,0.8-1.7,1.7l0,0c0,0.9,0.8,1.7,1.7,1.7l0,0c0.9,0,1.7-0.8,1.7-1.7l0,0
			C181.6,247.3,180.9,246.5,179.9,246.5z"/>
		<circle class="st0" cx="184.2" cy="240.9" r="1.7"/>
		<path class="st0" d="M179.9,261.2L179.9,261.2c-0.9,0-1.7,0.8-1.7,1.7l0,0c0,0.9,0.8,1.7,1.7,1.7l0,0c0.9,0,1.7-0.8,1.7-1.7l0,0
			l0,0C181.6,261.9,180.9,261.2,179.9,261.2z"/>
		<circle class="st0" cx="184.2" cy="255.6" r="1.7"/>
		<path class="st0" d="M184.2,268.5c-0.9,0-1.7,0.8-1.7,1.7s0.8,1.7,1.7,1.7c0.9,0,1.7-0.8,1.7-1.7
			C185.9,269.3,185.1,268.5,184.2,268.5C184.2,268.5,184.2,268.5,184.2,268.5z"/>
		<path class="st0" d="M171.5,246.5L171.5,246.5c-0.9,0-1.7,0.8-1.7,1.7l0,0c0,0.9,0.8,1.7,1.7,1.7l0,0c0.9,0,1.7-0.8,1.7-1.7l0,0
			C173.2,247.3,172.4,246.5,171.5,246.5z"/>
		<path class="st0" d="M176.4,239.4l-2.4,1.4c0,0.1,0,0.1,0,0.2c0,0.9,0.7,1.7,1.7,1.7c0.9,0,1.7-0.7,1.7-1.7
			C177.4,240.2,177,239.6,176.4,239.4L176.4,239.4z"/>
		<path class="st0" d="M171.5,261.2L171.5,261.2c-0.9,0-1.7,0.8-1.7,1.7l0,0c0,0.9,0.8,1.7,1.7,1.7l0,0c0.9,0,1.7-0.8,1.7-1.7l0,0
			l0,0C173.2,261.9,172.4,261.2,171.5,261.2z"/>
		<circle class="st0" cx="175.7" cy="255.6" r="1.7"/>
		<path class="st0" d="M175.7,268.5c-0.9,0-1.7,0.8-1.7,1.7s0.8,1.7,1.7,1.7c0.9,0,1.7-0.8,1.7-1.7
			C177.4,269.3,176.6,268.5,175.7,268.5C175.7,268.5,175.7,268.5,175.7,268.5z"/>
		<path class="st0" d="M163.7,246.7l-0.7,0.4l-1.7,1c0,0,0,0.1,0,0.1l0,0c0,0.9,0.8,1.6,1.7,1.6l0,0c0.9,0,1.7-0.8,1.7-1.7l0,0
			C164.7,247.6,164.3,247,163.7,246.7z"/>
		<path class="st0" d="M163,261.2L163,261.2c-0.9,0-1.7,0.8-1.7,1.7l0,0c0,0.9,0.8,1.7,1.7,1.7l0,0c0.9,0,1.7-0.8,1.7-1.7l0,0
			C164.7,261.9,163.9,261.2,163,261.2z"/>
		<circle class="st0" cx="167.2" cy="255.6" r="1.7"/>
		<path class="st0" d="M154.7,261.2l1.2,0.7C155.6,261.5,155.2,261.3,154.7,261.2z"/>
		<circle class="st0" cx="158.8" cy="255.6" r="1.7"/>
		<path class="st0" d="M151.1,254.1l-2.4,1.4c0,0,0,0.1,0,0.1c0,0.9,0.8,1.7,1.7,1.7c0.9,0,1.7-0.8,1.7-1.7
			C152,254.9,151.7,254.3,151.1,254.1L151.1,254.1z"/>
		<path class="st0" d="M249,192.6l11.4-6.6l-21-12.1l-11.4,6.6l-12-6.9l20.5-11.8c0.3-0.2,0.5-0.5,0.5-0.9l-0.1-46.6
			c0-0.4-0.2-0.7-0.5-0.9c-0.2-0.1-0.3-0.1-0.5-0.1L195.5,90c-0.3-0.2-0.7-0.2-1,0l-40.3,23.4l0,0c-0.1,0-0.1,0.1-0.2,0.1
			c0,0-0.1,0.1-0.1,0.2v0.1l-0.1,0.2c0,0,0,0,0,0.1c0,0,0,0.1,0,0.2c0,0,0,0.1,0,0.1l-0.1,23.3l-7.4-4.3l-0.5-0.3l-36.3,21v-16.2
			c0-0.4-0.2-0.7-0.5-0.9c-0.1-0.1-0.3-0.1-0.5-0.1l-40.3-23.3c-0.3-0.2-0.7-0.2-1,0L26.8,137l0,0l0,0c-0.1,0-0.1,0.1-0.2,0.1
			c0,0-0.1,0.1-0.1,0.1l-0.1,0.1l-0.1,0.1c0,0,0,0.1,0,0.1c0,0,0,0.1,0,0.1c0,0,0,0.1,0,0.1l-0.1,46.6c0,0.4,0.2,0.7,0.5,0.9
			l14.5,8.4L0,217.7L76.7,262v18c0,0.4,0.2,0.7,0.5,0.9l40.6,23.4c0.2,0.1,0.3,0.1,0.5,0.1h0.3c0.2,0,0.3,0,0.5-0.1l15.5-8.9
			l11.6,6.6l0.5,0.3l145.7-84.7L249,192.6z M239.3,176.2l17,9.8l-9.3,5.4l-17-9.8L239.3,176.2z M245,192.6l-5.5,3.2l-17-9.8l5.5-3.2
			L245,192.6z M156.7,114.3L195,92l38.6,22.3l-38.3,22.3l0,0L156.7,114.3L156.7,114.3z M155.6,138.7l0.1-22.7l10.6,6.1l27.9,16.1
			l-0.1,22.7v2.3l-0.1,19.3l-38.6-22.3l0.1-19.3L155.6,138.7z M28.3,139.6l3.8,2.2l34.8,20.1v17v2.3l-0.1,25l-21.6-12.5l-2-1.1
			l-15-8.7L28.3,139.6z M67.6,115.6l38.6,22.3l-38.3,22.3l-38.6-22.3L67.6,115.6z M78.7,263.1v-2.3l0.1-25.8l11.4,6.6l27.2,15.7
			l-0.1,25.8v2.3v16.2l-38.6-22.3L78.7,263.1z M79.8,233.3l38.3-22.3l38.6,22.3l-38.3,22.3l0,0L79.8,233.3L79.8,233.3z M146.6,300
			l-10.1-5.9l23.1-13.4c0.3-0.2,0.5-0.5,0.5-0.9l-0.1-46.6c0-0.4-0.2-0.7-0.5-0.9c-0.1-0.1-0.3-0.1-0.5-0.1L118.6,209
			c-0.3-0.2-0.7-0.2-1,0l-40.3,23.4l0,0l0,0c-0.1,0-0.1,0.1-0.2,0.1c0,0-0.1,0.1-0.1,0.1c0,0-0.1,0-0.1,0.1c0,0-0.1,0.1-0.1,0.1
			c0,0,0,0.1,0,0.1c0,0,0,0.1,0,0.1c0,0,0,0.1,0,0.1l-0.1,26.3L4,217.7l39.2-22.8l24.1,13.9c0.2,0.1,0.3,0.1,0.5,0.1H68
			c0.2,0,0.3,0,0.5-0.1l40.6-23.4c0.3-0.2,0.5-0.5,0.5-0.9l-0.1-28.1l36.2-21l7.9,4.6l-0.1,21c0,0.4,0.2,0.7,0.5,0.9l40.6,23.4
			c0.2,0.1,0.3,0.1,0.5,0.1h0.3c0.2,0,0.3,0,0.5-0.1l18.1-10.5l12,6.9l-7.6,4.3l21,12.1l7.6-4.3l41.3,23.9L146.6,300z"/>
		<polygon class="st0" points="126.7,121.6 139.4,114.3 126.6,106.9 114,114.3 		"/>
		<polygon class="st0" points="220.4,53.6 202.5,43.2 184.6,53.6 202.6,64 		"/>
		<polygon class="st0" points="139.2,43.2 133.1,39.7 127,43.2 133.1,46.8 		"/>
		<polygon class="st0" points="67.9,71.8 61.8,68.3 55.7,71.8 61.8,75.3 		"/>
		<polygon class="st0" points="141,199.4 162.3,211.7 183.5,199.4 162.2,187.1 		"/>
		<path class="st0" d="M120.4,79.3l-21-12.2L78.5,79.3l21,12.1L120.4,79.3z M82.4,79.3l16.9-9.8l17,9.8l-16.9,9.8L82.4,79.3z"/>
		<polygon class="st0" points="174.9,69 162.2,61.7 149.6,69 162.3,76.3 		"/>
		<polygon class="st0" points="174.9,7.3 162.2,0 149.6,7.3 162.3,14.7 		"/>
		<polygon class="st0" points="51.3,94 41.5,88.3 31.8,94 41.6,99.6 		"/>
		<polygon class="st0" points="136.4,162 126.7,167.7 136.5,173.3 146.2,167.7 		"/>
	</g>
</g>
</svg>
