<svg xmlns="http://www.w3.org/2000/svg" viewBox="0 0 292.33 304.37"><defs><style>.cls-1{fill:#010101;}</style></defs><title>microservices</title><g id="Layer_2" data-name="Layer 2"><g id="Layer_1-2" data-name="Layer 1"><path class="cls-1" d="M273,261.19h0a1.68,1.68,0,0,0-1.68,1.68h0a1.66,1.66,0,0,0,.71,1.37l1-.57,1.38-.8.29-.16A1.69,1.69,0,0,0,273,261.19Z"/><circle class="cls-1" cx="277.23" cy="255.55" r="1.68"/><path class="cls-1" d="M264.54,246.54h0a1.68,1.68,0,0,0-1.68,1.68h0a1.68,1.68,0,0,0,1.68,1.68h0a1.68,1.68,0,0,0,1.68-1.68h0A1.68,1.68,0,0,0,264.54,246.54Z"/><path class="cls-1" d="M264.54,261.19h0a1.68,1.68,0,0,0-1.68,1.68h0a1.69,1.69,0,0,0,1.68,1.69h0a1.69,1.69,0,0,0,1.68-1.69h0A1.68,1.68,0,0,0,264.54,261.19Z"/><circle class="cls-1" cx="268.77" cy="255.55" r="1.68"/><path class="cls-1" d="M256.08,246.54h0a1.68,1.68,0,0,0-1.68,1.68h0a1.68,1.68,0,0,0,1.68,1.68h0a1.68,1.68,0,0,0,1.68-1.68h0A1.68,1.68,0,0,0,256.08,246.54Z"/><path class="cls-1" d="M256.08,261.19h0a1.68,1.68,0,0,0-1.68,1.68h0a1.69,1.69,0,0,0,1.68,1.69h0a1.69,1.69,0,0,0,1.68-1.69h0A1.68,1.68,0,0,0,256.08,261.19Z"/><circle class="cls-1" cx="260.31" cy="255.55" r="1.68"/><path class="cls-1" d="M260.31,268.52a1.68,1.68,0,0,0-.94,3.08l2.61-1.52A1.67,1.67,0,0,0,260.31,268.52Z"/><path class="cls-1" d="M247.62,246.54h0a1.68,1.68,0,0,0-1.68,1.68h0a1.68,1.68,0,0,0,1.68,1.68h0a1.68,1.68,0,0,0,1.68-1.68h0A1.68,1.68,0,0,0,247.62,246.54Z"/><circle class="cls-1" cx="251.85" cy="240.89" r="1.68"/><path class="cls-1" d="M247.62,261.19h0a1.68,1.68,0,0,0-1.68,1.68h0a1.69,1.69,0,0,0,1.68,1.69h0a1.69,1.69,0,0,0,1.68-1.69h0A1.68,1.68,0,0,0,247.62,261.19Z"/><circle class="cls-1" cx="251.85" cy="255.55" r="1.68"/><path class="cls-1" d="M247.62,275.85h0a1.68,1.68,0,0,0-1.68,1.68h0a1.68,1.68,0,0,0,.78,1.42l.9-.53,1.54-.89.13-.08A1.67,1.67,0,0,0,247.62,275.85Z"/><path class="cls-1" d="M251.85,268.52a1.68,1.68,0,1,0,1.68,1.68A1.68,1.68,0,0,0,251.85,268.52Z"/><path class="cls-1" d="M239.16,231.88h0a1.69,1.69,0,0,0-1.68,1.69h0a1.68,1.68,0,0,0,1.68,1.68h0a1.68,1.68,0,0,0,1.68-1.68h0A1.69,1.69,0,0,0,239.16,231.88Z"/><path class="cls-1" d="M239.16,246.54h0a1.68,1.68,0,0,0-1.68,1.68h0a1.68,1.68,0,0,0,1.68,1.68h0a1.68,1.68,0,0,0,1.68-1.68h0A1.68,1.68,0,0,0,239.16,246.54Z"/><circle class="cls-1" cx="243.39" cy="240.89" r="1.68"/><path class="cls-1" d="M239.16,261.19h0a1.68,1.68,0,0,0-1.68,1.68h0a1.69,1.69,0,0,0,1.68,1.69h0a1.69,1.69,0,0,0,1.68-1.69h0A1.68,1.68,0,0,0,239.16,261.19Z"/><circle class="cls-1" cx="243.39" cy="255.55" r="1.68"/><path class="cls-1" d="M239.16,275.85h0a1.68,1.68,0,0,0-1.68,1.68h0a1.68,1.68,0,0,0,1.68,1.68h0a1.68,1.68,0,0,0,1.68-1.68h0A1.68,1.68,0,0,0,239.16,275.85Z"/><path class="cls-1" d="M243.39,268.52a1.68,1.68,0,1,0,1.68,1.68A1.68,1.68,0,0,0,243.39,268.52Z"/><path class="cls-1" d="M230.7,231.88h0a1.69,1.69,0,0,0-1.68,1.69h0a1.68,1.68,0,0,0,1.68,1.68h0a1.68,1.68,0,0,0,1.68-1.68h0A1.69,1.69,0,0,0,230.7,231.88Z"/><path class="cls-1" d="M230.7,246.54h0a1.68,1.68,0,0,0-1.68,1.68h0a1.68,1.68,0,0,0,1.68,1.68h0a1.68,1.68,0,0,0,1.68-1.68h0A1.68,1.68,0,0,0,230.7,246.54Z"/><circle class="cls-1" cx="234.93" cy="240.89" r="1.68"/><path class="cls-1" d="M230.7,261.19h0a1.68,1.68,0,0,0-1.68,1.68h0a1.69,1.69,0,0,0,1.68,1.69h0a1.69,1.69,0,0,0,1.68-1.69h0A1.68,1.68,0,0,0,230.7,261.19Z"/><circle class="cls-1" cx="234.93" cy="255.55" r="1.68"/><path class="cls-1" d="M230.7,275.85h0a1.68,1.68,0,0,0-1.68,1.68h0a1.68,1.68,0,0,0,1.68,1.68h0a1.68,1.68,0,0,0,1.68-1.68h0A1.68,1.68,0,0,0,230.7,275.85Z"/><path class="cls-1" d="M234.93,268.52a1.68,1.68,0,1,0,1.68,1.68A1.68,1.68,0,0,0,234.93,268.52Z"/><path class="cls-1" d="M234.93,283.17a1.68,1.68,0,0,0-.86,3.13l2.54-1.48A1.68,1.68,0,0,0,234.93,283.17Z"/><path class="cls-1" d="M222.24,231.88h0a1.69,1.69,0,0,0-1.69,1.69h0a1.69,1.69,0,0,0,1.69,1.68h0a1.68,1.68,0,0,0,1.68-1.68h0A1.69,1.69,0,0,0,222.24,231.88Z"/><circle class="cls-1" cx="226.47" cy="226.24" r="1.68"/><path class="cls-1" d="M222.24,246.54h0a1.69,1.69,0,0,0-1.69,1.68h0a1.69,1.69,0,0,0,1.69,1.68h0a1.68,1.68,0,0,0,1.68-1.68h0A1.68,1.68,0,0,0,222.24,246.54Z"/><circle class="cls-1" cx="226.47" cy="240.89" r="1.68"/><path class="cls-1" d="M222.24,261.19h0a1.69,1.69,0,0,0-1.69,1.68h0a1.69,1.69,0,0,0,1.69,1.69h0a1.69,1.69,0,0,0,1.68-1.69h0A1.68,1.68,0,0,0,222.24,261.19Z"/><circle class="cls-1" cx="226.47" cy="255.55" r="1.68"/><path class="cls-1" d="M222.24,275.85h0a1.69,1.69,0,0,0-1.69,1.68h0a1.69,1.69,0,0,0,1.69,1.68h0a1.68,1.68,0,0,0,1.68-1.68h0A1.68,1.68,0,0,0,222.24,275.85Z"/><path class="cls-1" d="M226.47,268.52a1.68,1.68,0,1,0,1.68,1.68A1.69,1.69,0,0,0,226.47,268.52Z"/><path class="cls-1" d="M222.24,290.5h0a1.69,1.69,0,0,0-1.69,1.68h0a1.69,1.69,0,0,0,.88,1.47l.81-.48,1.68-1v0h0A1.68,1.68,0,0,0,222.24,290.5Z"/><circle class="cls-1" cx="226.47" cy="284.85" r="1.68"/><path class="cls-1" d="M214.29,217.32l-.51.3-1.65.95a2,2,0,0,0,0,.34h0a1.69,1.69,0,0,0,1.69,1.68h0a1.68,1.68,0,0,0,1.68-1.68h0A1.67,1.67,0,0,0,214.29,217.32Z"/><path class="cls-1" d="M213.78,231.88h0a1.69,1.69,0,0,0-1.69,1.69h0a1.69,1.69,0,0,0,1.69,1.68h0a1.68,1.68,0,0,0,1.68-1.68h0A1.69,1.69,0,0,0,213.78,231.88Z"/><circle class="cls-1" cx="218.01" cy="226.24" r="1.68"/><path class="cls-1" d="M213.78,246.54h0a1.69,1.69,0,0,0-1.69,1.68h0a1.69,1.69,0,0,0,1.69,1.68h0a1.68,1.68,0,0,0,1.68-1.68h0A1.68,1.68,0,0,0,213.78,246.54Z"/><circle class="cls-1" cx="218.01" cy="240.89" r="1.68"/><path class="cls-1" d="M213.78,261.19h0a1.69,1.69,0,0,0-1.69,1.68h0a1.69,1.69,0,0,0,1.69,1.69h0a1.69,1.69,0,0,0,1.68-1.69h0A1.68,1.68,0,0,0,213.78,261.19Z"/><circle class="cls-1" cx="218.01" cy="255.55" r="1.68"/><path class="cls-1" d="M213.78,275.85h0a1.69,1.69,0,0,0-1.69,1.68h0a1.69,1.69,0,0,0,1.69,1.68h0a1.68,1.68,0,0,0,1.68-1.68h0A1.68,1.68,0,0,0,213.78,275.85Z"/><path class="cls-1" d="M218,268.52a1.68,1.68,0,1,0,1.68,1.68A1.69,1.69,0,0,0,218,268.52Z"/><path class="cls-1" d="M213.78,290.5h0a1.69,1.69,0,0,0-1.69,1.68h0a1.69,1.69,0,0,0,1.69,1.68h0a1.68,1.68,0,0,0,1.68-1.68h0A1.68,1.68,0,0,0,213.78,290.5Z"/><circle class="cls-1" cx="218.01" cy="284.85" r="1.68"/><path class="cls-1" d="M205.32,231.88h0a1.69,1.69,0,0,0-1.69,1.69h0a1.69,1.69,0,0,0,1.69,1.68h0a1.69,1.69,0,0,0,1.68-1.68h0A1.69,1.69,0,0,0,205.32,231.88Z"/><circle class="cls-1" cx="209.55" cy="226.24" r="1.68"/><path class="cls-1" d="M205.32,246.54h0a1.69,1.69,0,0,0-1.69,1.68h0a1.69,1.69,0,0,0,1.69,1.68h0a1.68,1.68,0,0,0,1.68-1.68h0A1.68,1.68,0,0,0,205.32,246.54Z"/><circle class="cls-1" cx="209.55" cy="240.89" r="1.68"/><path class="cls-1" d="M205.32,261.19h0a1.69,1.69,0,0,0-1.69,1.68h0a1.69,1.69,0,0,0,1.69,1.69h0a1.69,1.69,0,0,0,1.68-1.69h0A1.68,1.68,0,0,0,205.32,261.19Z"/><circle class="cls-1" cx="209.55" cy="255.55" r="1.68"/><path class="cls-1" d="M205.32,275.85h0a1.69,1.69,0,0,0-1.69,1.68h0a1.69,1.69,0,0,0,1.69,1.68h0a1.68,1.68,0,0,0,1.68-1.68h0A1.68,1.68,0,0,0,205.32,275.85Z"/><path class="cls-1" d="M209.55,268.52a1.68,1.68,0,1,0,1.68,1.68A1.69,1.69,0,0,0,209.55,268.52Z"/><circle class="cls-1" cx="209.55" cy="284.85" r="1.68"/><path class="cls-1" d="M196.86,231.88h0a1.69,1.69,0,0,0-1.68,1.69h0a1.69,1.69,0,0,0,1.68,1.68h0a1.69,1.69,0,0,0,1.68-1.68h0A1.69,1.69,0,0,0,196.86,231.88Z"/><path class="cls-1" d="M201.65,224.66,199.43,226a2.85,2.85,0,0,0,0,.29,1.69,1.69,0,1,0,2.25-1.58Z"/><path class="cls-1" d="M196.86,246.54h0a1.68,1.68,0,0,0-1.68,1.68h0a1.68,1.68,0,0,0,1.68,1.68h0a1.68,1.68,0,0,0,1.68-1.68h0A1.68,1.68,0,0,0,196.86,246.54Z"/><circle class="cls-1" cx="201.09" cy="240.89" r="1.68"/><path class="cls-1" d="M196.86,261.19h0a1.68,1.68,0,0,0-1.68,1.68h0a1.69,1.69,0,0,0,1.68,1.69h0a1.69,1.69,0,0,0,1.68-1.69h0A1.68,1.68,0,0,0,196.86,261.19Z"/><circle class="cls-1" cx="201.09" cy="255.55" r="1.68"/><path class="cls-1" d="M196.86,275.85h0a1.68,1.68,0,0,0-1.68,1.68h0a1.68,1.68,0,0,0,1.68,1.68h0a1.68,1.68,0,0,0,1.68-1.68h0A1.68,1.68,0,0,0,196.86,275.85Z"/><path class="cls-1" d="M201.09,268.52a1.68,1.68,0,1,0,1.68,1.68A1.69,1.69,0,0,0,201.09,268.52Z"/><circle class="cls-1" cx="201.09" cy="284.85" r="1.68"/><path class="cls-1" d="M189,232l-.63.37-1.65,1a.93.93,0,0,0,0,.24h0a1.69,1.69,0,0,0,1.68,1.68h0a1.69,1.69,0,0,0,1.69-1.68h0A1.7,1.7,0,0,0,189,232Z"/><path class="cls-1" d="M188.39,246.54h0a1.68,1.68,0,0,0-1.68,1.68h0a1.68,1.68,0,0,0,1.68,1.68h0a1.69,1.69,0,0,0,1.69-1.68h0A1.69,1.69,0,0,0,188.39,246.54Z"/><path class="cls-1" d="M192.62,239.21a1.68,1.68,0,1,0,1.69,1.68A1.68,1.68,0,0,0,192.62,239.21Z"/><path class="cls-1" d="M188.39,261.19h0a1.68,1.68,0,0,0-1.68,1.68h0a1.69,1.69,0,0,0,1.68,1.69h0a1.69,1.69,0,0,0,1.69-1.69h0A1.69,1.69,0,0,0,188.39,261.19Z"/><path class="cls-1" d="M192.62,253.86a1.69,1.69,0,1,0,1.69,1.69A1.69,1.69,0,0,0,192.62,253.86Z"/><path class="cls-1" d="M188.39,275.85h0a1.68,1.68,0,0,0-1.68,1.68h0a1.68,1.68,0,0,0,1.68,1.68h0a1.69,1.69,0,0,0,1.69-1.68h0A1.69,1.69,0,0,0,188.39,275.85Z"/><path class="cls-1" d="M192.62,268.52a1.68,1.68,0,1,0,1.69,1.68A1.68,1.68,0,0,0,192.62,268.52Z"/><path class="cls-1" d="M179.93,246.54h0a1.68,1.68,0,0,0-1.68,1.68h0a1.68,1.68,0,0,0,1.68,1.68h0a1.69,1.69,0,0,0,1.69-1.68h0A1.69,1.69,0,0,0,179.93,246.54Z"/><circle class="cls-1" cx="184.16" cy="240.89" r="1.68"/><path class="cls-1" d="M179.93,261.19h0a1.68,1.68,0,0,0-1.68,1.68h0a1.69,1.69,0,0,0,1.68,1.69h0a1.69,1.69,0,0,0,1.69-1.69h0A1.69,1.69,0,0,0,179.93,261.19Z"/><circle class="cls-1" cx="184.16" cy="255.55" r="1.68"/><path class="cls-1" d="M184.16,268.52a1.68,1.68,0,1,0,1.69,1.68A1.68,1.68,0,0,0,184.16,268.52Z"/><path class="cls-1" d="M171.47,246.54h0a1.68,1.68,0,0,0-1.68,1.68h0a1.68,1.68,0,0,0,1.68,1.68h0a1.69,1.69,0,0,0,1.69-1.68h0A1.69,1.69,0,0,0,171.47,246.54Z"/><path class="cls-1" d="M176.37,239.35,174,240.71a1.1,1.1,0,0,0,0,.18,1.69,1.69,0,1,0,2.35-1.54Z"/><path class="cls-1" d="M171.47,261.19h0a1.68,1.68,0,0,0-1.68,1.68h0a1.69,1.69,0,0,0,1.68,1.69h0a1.69,1.69,0,0,0,1.69-1.69h0A1.69,1.69,0,0,0,171.47,261.19Z"/><circle class="cls-1" cx="175.7" cy="255.55" r="1.68"/><path class="cls-1" d="M175.7,268.52a1.68,1.68,0,1,0,1.69,1.68A1.68,1.68,0,0,0,175.7,268.52Z"/><path class="cls-1" d="M163.73,246.7l-.72.42-1.67,1s0,.08,0,.13h0A1.68,1.68,0,0,0,163,249.9h0a1.68,1.68,0,0,0,1.68-1.68h0A1.68,1.68,0,0,0,163.73,246.7Z"/><path class="cls-1" d="M163,261.19h0a1.68,1.68,0,0,0-1.68,1.68h0a1.69,1.69,0,0,0,1.68,1.69h0a1.69,1.69,0,0,0,1.68-1.69h0A1.68,1.68,0,0,0,163,261.19Z"/><circle class="cls-1" cx="167.24" cy="255.55" r="1.68"/><path class="cls-1" d="M154.72,261.21l1.2.69A1.69,1.69,0,0,0,154.72,261.21Z"/><circle class="cls-1" cx="158.78" cy="255.55" r="1.68"/><path class="cls-1" d="M151.08,254.05l-2.43,1.41s0,.06,0,.09a1.68,1.68,0,1,0,2.44-1.5Z"/><path d="M249,192.64l11.36-6.6-21-12.14L228,180.5l-12-6.91,20.46-11.82a1,1,0,0,0,.5-.87l-.13-46.62a1,1,0,0,0-.5-.87,1.05,1.05,0,0,0-.49-.13L195.49,90a1,1,0,0,0-1,0l-40.31,23.42h0a.86.86,0,0,0-.18.14,1.58,1.58,0,0,0-.12.15l0,.06-.08.18a.14.14,0,0,1,0,.06.77.77,0,0,0,0,.15s0,.07,0,.11l-.07,23.29-7.42-4.28-.5-.29L109.5,154l0-16.16a1,1,0,0,0-.5-.87,1,1,0,0,0-.49-.13l-40.35-23.3a1,1,0,0,0-1,0L26.8,137h0s0,0,0,0a1.33,1.33,0,0,0-.19.14,1,1,0,0,0-.09.13l-.07.08-.06.14a1,1,0,0,0,0,.1.61.61,0,0,0,0,.14.5.5,0,0,0,0,.12l-.13,46.62a1,1,0,0,0,.5.87l14.5,8.38L0,217.67,76.73,262l0,18a1,1,0,0,0,.5.87l40.58,23.43a1,1,0,0,0,.5.13h.26a1,1,0,0,0,.5-.13l15.46-8.93L146.14,302l.5.29,145.69-84.67Zm-9.67-16.43,17,9.84L247,191.49l-17-9.84ZM245,192.65l-5.54,3.22-17-9.84,5.54-3.22Zm-88.34-78.37L195,92l38.58,22.27-38.32,22.27h0l-38.58-22.27Zm-1.06,24.44.06-22.71,10.64,6.14,27.94,16.13L194.19,161v2.31l-.06,19.3-38.58-22.27.06-19.3Zm-127.32.88,3.82,2.2,34.76,20.07,0,17v2.32l-.07,25L45.16,193.73l-2-1.15-15-8.66Zm39.32-24,38.58,22.27L67.87,160.14,29.29,137.87ZM78.73,263.12v-2.31l.08-25.76,11.37,6.56,27.21,15.71-.08,25.77v2.3l0,16.25L78.68,279.37Zm1.08-29.8,38.32-22.27,38.58,22.27-38.32,22.27h0L79.81,233.32ZM146.63,300l-10.15-5.86,23.12-13.35a1,1,0,0,0,.5-.87L160,233.32a1,1,0,0,0-.51-.87,1,1,0,0,0-.49-.13L118.62,209a1,1,0,0,0-1,0l-40.3,23.42h0l0,0a1.33,1.33,0,0,0-.19.14,1,1,0,0,0-.09.13s-.05,0-.06.08a.61.61,0,0,0-.07.14.29.29,0,0,0,0,.1.32.32,0,0,0,0,.14.5.5,0,0,0,0,.12l-.07,26.34L4,217.66l39.18-22.77,24.07,13.9a1,1,0,0,0,.5.13H68a1,1,0,0,0,.5-.13l40.58-23.43a1,1,0,0,0,.5-.87l-.08-28.15,36.19-21,7.9,4.56-.06,21a1,1,0,0,0,.5.87l40.58,23.43a1,1,0,0,0,.5.13h.26a1,1,0,0,0,.5-.13L214,174.74l12,6.92L218.44,186l21,12.14L247,193.8l41.33,23.86Z"/><polygon points="126.73 121.61 139.35 114.28 126.64 106.94 114.02 114.28 126.73 121.61"/><polygon points="220.43 53.62 202.47 43.24 184.64 53.61 202.6 63.98 220.43 53.62"/><polygon points="139.21 43.25 133.1 39.72 127.03 43.24 133.14 46.77 139.21 43.25"/><polygon points="67.88 71.83 61.77 68.3 55.7 71.83 61.81 75.35 67.88 71.83"/><polygon points="141 199.38 162.31 211.69 183.47 199.39 162.16 187.08 141 199.38"/><path d="M120.38,79.27l-21-12.15L78.46,79.27l21,12.14Zm-37.93,0,16.9-9.82,17,9.83L99.49,89.1Z"/><polygon points="174.9 68.99 162.19 61.65 149.57 68.98 162.28 76.32 174.9 68.99"/><polygon points="174.9 7.34 162.19 0 149.57 7.33 162.28 14.67 174.9 7.34"/><polygon points="51.26 93.96 41.49 88.32 31.78 93.96 41.56 99.6 51.26 93.96"/><polygon points="136.39 162.03 126.69 167.67 136.46 173.32 146.16 167.68 136.39 162.03"/></g></g></svg>