<svg xmlns="http://www.w3.org/2000/svg" viewBox="0 0 602.76 602.74"><title>pacman2</title><g style="isolation:isolate"><g id="Layer_2" data-name="Layer 2"><g id="Layer_1-2" data-name="Layer 1"><path d="M60.93,483.08c99.72,132,287,158.72,419.66,60.53L298.94,303.23Z" fill="#80ea6e"/><path d="M117.3,62.84C-13.38,163.64-38.8,351.1,60.93,483.08l238-179.85Z" fill="#6db33f" style="mix-blend-mode:multiply"/><path d="M117.28,62.81l0,0c.81-.62,1.57-1.28,2.38-1.9C118.87,61.56,118.08,62.19,117.28,62.81Z" fill="#d7e7e7"/><path d="M537.43,488.86a298.52,298.52,0,0,0,25-36.64q7.33-12.72,13.36-26a301.22,301.22,0,0,0,15.09-40.85q2-7,3.69-14,3.35-14.08,5.35-28.42,1-7.17,1.65-14.37,1.31-14.4,1.24-28.91,0-7.25-.42-14.49a300.94,300.94,0,0,0-5.46-43.31q-1.44-7.17-3.24-14.29-3.58-14.23-8.6-28.2t-11.49-27.52a302.75,302.75,0,0,0-31.73-52.15L298.94,303.23,480.59,543.61c.82-.61,1.66-1.16,2.47-1.77A302,302,0,0,0,537.43,488.86Z" fill="#fff"/><path d="M541.82,119.7C441.47-13.1,252.48-39.4,119.68,60.94c-.81.62-1.57,1.28-2.38,1.9L298.94,303.23Z" fill="#d7e7e7"/></g></g></g></svg>