<svg id="Layer_1" data-name="Layer 1" xmlns="http://www.w3.org/2000/svg" viewBox="0 0 85.8 96"><title>pop-quiz</title><path d="M90.6,2H9.4A2.26,2.26,0,0,0,7.1,4.3V76a2.26,2.26,0,0,0,2.3,2.3H35.5L50,98,64.5,78.3H90.6A2.26,2.26,0,0,0,92.9,76V4.3A2.33,2.33,0,0,0,90.6,2ZM54.8,61.45a2.05,2.05,0,0,1-2.1,2.1H47.3a2.05,2.05,0,0,1-2.1-2.1V55.6a2.05,2.05,0,0,1,2.1-2.1h5.4a2.05,2.05,0,0,1,2.1,2.1ZM63.3,38.3A14.41,14.41,0,0,1,57.9,43a7.61,7.61,0,0,0-2.5,2.6,7.66,7.66,0,0,0-.6,2.4,1.43,1.43,0,0,1-1.5,1.3H46.7a1.44,1.44,0,0,1-1.5-1.6,8.8,8.8,0,0,1,1.4-4.4,19.94,19.94,0,0,1,5.1-4.6,8.61,8.61,0,0,0,3-3,7.84,7.84,0,0,0,1.1-4.1,5.17,5.17,0,0,0-1.3-3.8,4.62,4.62,0,0,0-3.7-1.4,4.54,4.54,0,0,0-3.2,1.2,4,4,0,0,0-1.1,1.9A2.06,2.06,0,0,1,44.3,31h-6A1.28,1.28,0,0,1,37,29.6a9.77,9.77,0,0,1,3.7-7.5q3.9-3,10.2-3c4.5,0,8.1,1.1,10.7,3.4a11.72,11.72,0,0,1,3.9,9.2A10.7,10.7,0,0,1,63.3,38.3Z" transform="translate(-7.1 -2)" fill="#6db33f"/></svg>