<svg id="Layer_1" data-name="Layer 1" xmlns="http://www.w3.org/2000/svg" xmlns:xlink="http://www.w3.org/1999/xlink" viewBox="0 0 251.2 333.08"><defs><style>.cls-1{fill:none;}.cls-2{fill:#010101;}.cls-3{fill:#fff;}.cls-4{isolation:isolate;}.cls-5{clip-path:url(#clip-path);}</style><clipPath id="clip-path"><polygon class="cls-1" points="103.02 33.81 130.37 17.91 157.9 33.81 130.55 49.7 103.02 33.81"/></clipPath></defs><title>topic-reactive</title><path class="cls-2" d="M244.19,217.19h0a1.86,1.86,0,0,0-1.86,1.85h0a1.86,1.86,0,0,0,1.86,1.86h0A1.85,1.85,0,0,0,246,219h0A1.85,1.85,0,0,0,244.19,217.19Z"/><path class="cls-2" d="M244.19,233.33h0a1.86,1.86,0,0,0-1.86,1.85h0a1.85,1.85,0,0,0,1.86,1.85h0a1.85,1.85,0,0,0,1.85-1.85h0A1.85,1.85,0,0,0,244.19,233.33Z"/><path class="cls-2" d="M248.84,229a1.85,1.85,0,1,0-1.85-1.85A1.85,1.85,0,0,0,248.84,229Z"/><path class="cls-2" d="M244.19,249.46h0a1.86,1.86,0,0,0-1.86,1.85h0a1.86,1.86,0,0,0,1.86,1.86h0a1.85,1.85,0,0,0,1.85-1.86h0A1.85,1.85,0,0,0,244.19,249.46Z"/><circle class="cls-2" cx="248.84" cy="243.25" r="1.85"/><path class="cls-2" d="M234.87,217.19h0A1.85,1.85,0,0,0,233,219h0a1.85,1.85,0,0,0,1.85,1.86h0a1.85,1.85,0,0,0,1.85-1.86h0A1.85,1.85,0,0,0,234.87,217.19Z"/><path class="cls-2" d="M234.87,233.33h0a1.85,1.85,0,0,0-1.85,1.85h0a1.85,1.85,0,0,0,1.85,1.85h0a1.85,1.85,0,0,0,1.85-1.85h0A1.85,1.85,0,0,0,234.87,233.33Z"/><path class="cls-2" d="M239.53,225.26a1.85,1.85,0,1,0,1.85,1.85A1.85,1.85,0,0,0,239.53,225.26Z"/><path class="cls-2" d="M234.87,249.46h0a1.85,1.85,0,0,0-1.85,1.85h0a1.85,1.85,0,0,0,1.85,1.86h0a1.85,1.85,0,0,0,1.85-1.86h0A1.85,1.85,0,0,0,234.87,249.46Z"/><path class="cls-2" d="M239.53,241.4a1.85,1.85,0,1,0,1.85,1.85A1.85,1.85,0,0,0,239.53,241.4Z"/><path class="cls-2" d="M234.87,265.6h0a1.85,1.85,0,0,0-1.85,1.85h0a1.85,1.85,0,0,0,1.85,1.85h0a1.85,1.85,0,0,0,1.85-1.85h0A1.85,1.85,0,0,0,234.87,265.6Z"/><path class="cls-2" d="M239.53,257.53a1.85,1.85,0,1,0,1.85,1.85A1.85,1.85,0,0,0,239.53,257.53Z"/><path class="cls-2" d="M225.56,233.33h0a1.85,1.85,0,0,0-1.86,1.85h0a1.85,1.85,0,0,0,1.86,1.85h0a1.85,1.85,0,0,0,1.85-1.85h0A1.85,1.85,0,0,0,225.56,233.33Z"/><path class="cls-2" d="M230.21,225.26a1.69,1.69,0,0,0-.5.08v3.29c-.32-.15-.65-.28-1-.42a1.82,1.82,0,0,0,1.48.75,1.85,1.85,0,1,0,0-3.7Z"/><path class="cls-2" d="M225.56,249.46h0a1.85,1.85,0,0,0-1.86,1.85h0a1.86,1.86,0,0,0,1.86,1.86h0a1.85,1.85,0,0,0,1.85-1.86h0A1.85,1.85,0,0,0,225.56,249.46Z"/><path class="cls-2" d="M230.21,241.4a1.85,1.85,0,1,0,1.86,1.85A1.85,1.85,0,0,0,230.21,241.4Z"/><path class="cls-2" d="M225.56,265.6h0a1.85,1.85,0,0,0-1.86,1.85h0a1.85,1.85,0,0,0,1.86,1.85h0a1.85,1.85,0,0,0,1.85-1.85h0A1.85,1.85,0,0,0,225.56,265.6Z"/><path class="cls-2" d="M230.21,257.53a1.85,1.85,0,1,0,1.86,1.85A1.85,1.85,0,0,0,230.21,257.53Z"/><path class="cls-2" d="M225.56,281.73h0a1.86,1.86,0,0,0-1.86,1.86h0a1.85,1.85,0,0,0,1.86,1.85h0a1.85,1.85,0,0,0,1.85-1.85h0A1.85,1.85,0,0,0,225.56,281.73Z"/><path class="cls-2" d="M230.21,273.67a1.85,1.85,0,1,0,1.86,1.85A1.85,1.85,0,0,0,230.21,273.67Z"/><path class="cls-2" d="M225.56,297.87h0a1.85,1.85,0,0,0-1.86,1.85h0a1.85,1.85,0,0,0,1.86,1.85h0a1.85,1.85,0,0,0,1.85-1.85h0A1.85,1.85,0,0,0,225.56,297.87Z"/><path class="cls-2" d="M230.21,289.8a1.86,1.86,0,1,0,1.86,1.85A1.85,1.85,0,0,0,230.21,289.8Z"/><path class="cls-2" d="M216.24,233.33h0a1.85,1.85,0,0,0-1.85,1.85h0a1.85,1.85,0,0,0,1.85,1.85h0a1.85,1.85,0,0,0,1.85-1.85h0A1.85,1.85,0,0,0,216.24,233.33Z"/><path class="cls-2" d="M222,225.67c-.39-.14-.77-.28-1.17-.41a1.85,1.85,0,1,0,1.88,1.85A1.81,1.81,0,0,0,222,225.67Z"/><path class="cls-2" d="M216.24,249.46h0a1.85,1.85,0,0,0-1.85,1.85h0a1.85,1.85,0,0,0,1.85,1.86h0a1.85,1.85,0,0,0,1.85-1.86h0A1.85,1.85,0,0,0,216.24,249.46Z"/><path class="cls-2" d="M220.9,241.4a1.85,1.85,0,1,0,1.85,1.85A1.84,1.84,0,0,0,220.9,241.4Z"/><path class="cls-2" d="M216.24,265.6h0a1.85,1.85,0,0,0-1.85,1.85h0a1.85,1.85,0,0,0,1.85,1.85h0a1.85,1.85,0,0,0,1.85-1.85h0A1.85,1.85,0,0,0,216.24,265.6Z"/><path class="cls-2" d="M220.9,257.53a1.85,1.85,0,1,0,1.85,1.85A1.85,1.85,0,0,0,220.9,257.53Z"/><path class="cls-2" d="M216.24,281.73h0a1.85,1.85,0,0,0-1.85,1.86h0a1.85,1.85,0,0,0,1.85,1.85h0a1.85,1.85,0,0,0,1.85-1.85h0A1.85,1.85,0,0,0,216.24,281.73Z"/><path class="cls-2" d="M220.9,273.67a1.85,1.85,0,1,0,1.85,1.85A1.84,1.84,0,0,0,220.9,273.67Z"/><path class="cls-2" d="M216.24,297.87h0a1.85,1.85,0,0,0-1.85,1.85h0a1.85,1.85,0,0,0,1.85,1.85h0a1.85,1.85,0,0,0,1.85-1.85h0A1.85,1.85,0,0,0,216.24,297.87Z"/><path class="cls-2" d="M220.9,289.8a1.86,1.86,0,1,0,1.85,1.85A1.85,1.85,0,0,0,220.9,289.8Z"/><path class="cls-2" d="M220.9,305.94a1.85,1.85,0,1,0,1.85,1.85A1.85,1.85,0,0,0,220.9,305.94Z"/><path class="cls-2" d="M206.92,233.33h0a1.85,1.85,0,0,0-1.85,1.85h0a1.85,1.85,0,0,0,1.85,1.85h0a1.85,1.85,0,0,0,1.86-1.85h0A1.85,1.85,0,0,0,206.92,233.33Z"/><path class="cls-2" d="M211.58,225.26a1.85,1.85,0,1,0,1.85,1.85A1.85,1.85,0,0,0,211.58,225.26Z"/><path class="cls-2" d="M206.92,249.46h0a1.85,1.85,0,0,0-1.85,1.85h0a1.85,1.85,0,0,0,1.85,1.86h0a1.86,1.86,0,0,0,1.86-1.86h0A1.85,1.85,0,0,0,206.92,249.46Z"/><circle class="cls-2" cx="211.58" cy="243.25" r="1.85"/><path class="cls-2" d="M206.92,265.6h0a1.85,1.85,0,0,0-1.85,1.85h0a1.85,1.85,0,0,0,1.85,1.85h0a1.85,1.85,0,0,0,1.86-1.85h0A1.85,1.85,0,0,0,206.92,265.6Z"/><path class="cls-2" d="M211.58,257.53a1.85,1.85,0,1,0,1.85,1.85A1.85,1.85,0,0,0,211.58,257.53Z"/><path class="cls-2" d="M206.92,281.73h0a1.85,1.85,0,0,0-1.85,1.86h0a1.85,1.85,0,0,0,1.85,1.85h0a1.85,1.85,0,0,0,1.86-1.85h0A1.86,1.86,0,0,0,206.92,281.73Z"/><path class="cls-2" d="M211.58,273.67a1.85,1.85,0,1,0,1.85,1.85A1.85,1.85,0,0,0,211.58,273.67Z"/><path class="cls-2" d="M206.92,297.87h0a1.85,1.85,0,0,0-1.85,1.85h0a1.85,1.85,0,0,0,1.85,1.85h0a1.85,1.85,0,0,0,1.86-1.85h0A1.85,1.85,0,0,0,206.92,297.87Z"/><path class="cls-2" d="M211.58,289.8a1.86,1.86,0,1,0,1.85,1.85A1.85,1.85,0,0,0,211.58,289.8Z"/><path class="cls-2" d="M206.92,314h0a1.85,1.85,0,0,0-1.85,1.86h0a1.85,1.85,0,0,0,1.85,1.85h0a1.85,1.85,0,0,0,1.86-1.85h0A1.86,1.86,0,0,0,206.92,314Z"/><circle class="cls-2" cx="211.58" cy="307.79" r="1.85"/><path class="cls-2" d="M197.61,217.19h0a1.85,1.85,0,0,0-1.85,1.85h0a1.85,1.85,0,0,0,1.85,1.86h0a1.85,1.85,0,0,0,1.85-1.86h0A1.85,1.85,0,0,0,197.61,217.19Z"/><path class="cls-2" d="M197.61,233.33h0a1.85,1.85,0,0,0-1.85,1.85h0a1.85,1.85,0,0,0,1.85,1.85h0a1.85,1.85,0,0,0,1.85-1.85h0A1.85,1.85,0,0,0,197.61,233.33Z"/><path class="cls-2" d="M202.27,225.26a1.85,1.85,0,1,0,1.85,1.85A1.85,1.85,0,0,0,202.27,225.26Z"/><path class="cls-2" d="M197.61,249.46h0a1.85,1.85,0,0,0-1.85,1.85h0a1.85,1.85,0,0,0,1.85,1.86h0a1.85,1.85,0,0,0,1.85-1.86h0A1.85,1.85,0,0,0,197.61,249.46Z"/><circle class="cls-2" cx="202.27" cy="243.25" r="1.85"/><path class="cls-2" d="M197.61,265.6h0a1.85,1.85,0,0,0-1.85,1.85h0a1.85,1.85,0,0,0,1.85,1.85h0a1.85,1.85,0,0,0,1.85-1.85h0A1.85,1.85,0,0,0,197.61,265.6Z"/><path class="cls-2" d="M202.27,257.53a1.85,1.85,0,1,0,1.85,1.85A1.85,1.85,0,0,0,202.27,257.53Z"/><path class="cls-2" d="M197.61,281.73h0a1.85,1.85,0,0,0-1.85,1.86h0a1.85,1.85,0,0,0,1.85,1.85h0a1.85,1.85,0,0,0,1.85-1.85h0A1.85,1.85,0,0,0,197.61,281.73Z"/><path class="cls-2" d="M202.27,273.67a1.85,1.85,0,1,0,1.85,1.85A1.85,1.85,0,0,0,202.27,273.67Z"/><path class="cls-2" d="M197.61,297.87h0a1.85,1.85,0,0,0-1.85,1.85h0a1.85,1.85,0,0,0,1.85,1.85h0a1.85,1.85,0,0,0,1.85-1.85h0A1.85,1.85,0,0,0,197.61,297.87Z"/><path class="cls-2" d="M202.27,289.8a1.86,1.86,0,1,0,1.85,1.85A1.85,1.85,0,0,0,202.27,289.8Z"/><path class="cls-2" d="M197.61,314h0a1.85,1.85,0,0,0-1.85,1.86h0a1.85,1.85,0,0,0,1.85,1.85h0a1.85,1.85,0,0,0,1.85-1.85h0A1.85,1.85,0,0,0,197.61,314Z"/><circle class="cls-2" cx="202.27" cy="307.79" r="1.85"/><path class="cls-2" d="M188.29,217.19h0a1.85,1.85,0,0,0-1.85,1.85h0a1.85,1.85,0,0,0,1.85,1.86h0a1.86,1.86,0,0,0,1.86-1.86h0A1.86,1.86,0,0,0,188.29,217.19Z"/><path class="cls-2" d="M193,209.12A1.86,1.86,0,1,0,194.8,211,1.85,1.85,0,0,0,193,209.12Z"/><path class="cls-2" d="M188.29,233.33h0a1.85,1.85,0,0,0-1.85,1.85h0a1.85,1.85,0,0,0,1.85,1.85h0a1.85,1.85,0,0,0,1.86-1.85h0A1.86,1.86,0,0,0,188.29,233.33Z"/><path class="cls-2" d="M193,225.26a1.85,1.85,0,1,0,1.85,1.85A1.85,1.85,0,0,0,193,225.26Z"/><path class="cls-2" d="M188.29,249.46h0a1.85,1.85,0,0,0-1.85,1.85h0a1.85,1.85,0,0,0,1.85,1.86h0a1.86,1.86,0,0,0,1.86-1.86h0A1.86,1.86,0,0,0,188.29,249.46Z"/><path class="cls-2" d="M193,241.4a1.85,1.85,0,1,0,1.85,1.85A1.85,1.85,0,0,0,193,241.4Z"/><path class="cls-2" d="M188.29,265.6h0a1.85,1.85,0,0,0-1.85,1.85h0a1.85,1.85,0,0,0,1.85,1.85h0a1.85,1.85,0,0,0,1.86-1.85h0A1.86,1.86,0,0,0,188.29,265.6Z"/><path class="cls-2" d="M193,257.53a1.85,1.85,0,1,0,1.85,1.85A1.85,1.85,0,0,0,193,257.53Z"/><path class="cls-2" d="M188.29,281.73h0a1.85,1.85,0,0,0-1.85,1.86h0a1.85,1.85,0,0,0,1.85,1.85h0a1.85,1.85,0,0,0,1.86-1.85h0A1.86,1.86,0,0,0,188.29,281.73Z"/><path class="cls-2" d="M193,273.67a1.85,1.85,0,1,0,1.85,1.85A1.85,1.85,0,0,0,193,273.67Z"/><path class="cls-2" d="M188.29,297.87h0a1.85,1.85,0,0,0-1.85,1.85h0a1.85,1.85,0,0,0,1.85,1.85h0a1.85,1.85,0,0,0,1.86-1.85h0A1.86,1.86,0,0,0,188.29,297.87Z"/><path class="cls-2" d="M193,289.8a1.86,1.86,0,1,0,1.85,1.85A1.85,1.85,0,0,0,193,289.8Z"/><path class="cls-2" d="M188.29,314h0a1.85,1.85,0,0,0-1.85,1.86h0a1.85,1.85,0,0,0,1.85,1.85h0a1.85,1.85,0,0,0,1.86-1.85h0A1.86,1.86,0,0,0,188.29,314Z"/><path class="cls-2" d="M193,305.94a1.85,1.85,0,1,0,1.85,1.85A1.85,1.85,0,0,0,193,305.94Z"/><path class="cls-2" d="M179,201.06h0a1.85,1.85,0,0,0-1.85,1.85h0a1.85,1.85,0,0,0,1.85,1.85h0a1.85,1.85,0,0,0,1.85-1.85h0A1.85,1.85,0,0,0,179,201.06Z"/><path class="cls-2" d="M179,217.19h0a1.85,1.85,0,0,0-1.85,1.85h0A1.85,1.85,0,0,0,179,220.9h0a1.85,1.85,0,0,0,1.85-1.86h0A1.85,1.85,0,0,0,179,217.19Z"/><path class="cls-2" d="M183.64,209.12a1.86,1.86,0,1,0,1.85,1.86A1.86,1.86,0,0,0,183.64,209.12Z"/><path class="cls-2" d="M188.29,204.76h0a1.84,1.84,0,0,0,.33,0l-.33-.23c-.59-.42-1.19-.82-1.81-1.21A1.85,1.85,0,0,0,188.29,204.76Z"/><path class="cls-2" d="M179,233.33h0a1.85,1.85,0,0,0-1.85,1.85h0A1.85,1.85,0,0,0,179,237h0a1.85,1.85,0,0,0,1.85-1.85h0A1.85,1.85,0,0,0,179,233.33Z"/><path class="cls-2" d="M183.64,225.26a1.85,1.85,0,1,0,1.85,1.85A1.85,1.85,0,0,0,183.64,225.26Z"/><path class="cls-2" d="M179,249.46h0a1.85,1.85,0,0,0-1.85,1.85h0a1.85,1.85,0,0,0,1.85,1.86h0a1.85,1.85,0,0,0,1.85-1.86h0A1.85,1.85,0,0,0,179,249.46Z"/><path class="cls-2" d="M183.64,241.4a1.85,1.85,0,1,0,1.85,1.85A1.85,1.85,0,0,0,183.64,241.4Z"/><path class="cls-2" d="M179,265.6h0a1.85,1.85,0,0,0-1.85,1.85h0A1.85,1.85,0,0,0,179,269.3h0a1.85,1.85,0,0,0,1.85-1.85h0A1.85,1.85,0,0,0,179,265.6Z"/><path class="cls-2" d="M183.64,257.53a1.85,1.85,0,1,0,1.85,1.85A1.85,1.85,0,0,0,183.64,257.53Z"/><path class="cls-2" d="M179,281.73h0a1.85,1.85,0,0,0-1.85,1.86h0a1.85,1.85,0,0,0,1.85,1.85h0a1.85,1.85,0,0,0,1.85-1.85h0A1.85,1.85,0,0,0,179,281.73Z"/><path class="cls-2" d="M183.64,273.67a1.85,1.85,0,1,0,1.85,1.85A1.85,1.85,0,0,0,183.64,273.67Z"/><path class="cls-2" d="M179,297.87h0a1.85,1.85,0,0,0-1.85,1.85h0a1.85,1.85,0,0,0,1.85,1.85h0a1.85,1.85,0,0,0,1.85-1.85h0A1.85,1.85,0,0,0,179,297.87Z"/><path class="cls-2" d="M183.64,289.8a1.86,1.86,0,1,0,1.85,1.85A1.85,1.85,0,0,0,183.64,289.8Z"/><path class="cls-2" d="M179,314h0a1.85,1.85,0,0,0-1.85,1.86h0a1.85,1.85,0,0,0,1.85,1.85h0a1.85,1.85,0,0,0,1.85-1.85h0A1.85,1.85,0,0,0,179,314Z"/><path class="cls-2" d="M183.64,305.94a1.85,1.85,0,1,0,1.85,1.85A1.85,1.85,0,0,0,183.64,305.94Z"/><path class="cls-2" d="M169.66,201.06h0a1.85,1.85,0,0,0-1.85,1.85h0a1.85,1.85,0,0,0,1.85,1.85h0a1.85,1.85,0,0,0,1.85-1.85h0A1.85,1.85,0,0,0,169.66,201.06Z"/><path class="cls-2" d="M169.66,217.19h0a1.85,1.85,0,0,0-1.85,1.85h0a1.85,1.85,0,0,0,1.85,1.86h0a1.85,1.85,0,0,0,1.85-1.86h0A1.85,1.85,0,0,0,169.66,217.19Z"/><path class="cls-2" d="M174.32,209.12a1.86,1.86,0,1,0,1.85,1.86A1.85,1.85,0,0,0,174.32,209.12Z"/><path class="cls-2" d="M169.66,233.33h0a1.85,1.85,0,0,0-1.85,1.85h0a1.85,1.85,0,0,0,1.85,1.85h0a1.85,1.85,0,0,0,1.85-1.85h0A1.85,1.85,0,0,0,169.66,233.33Z"/><path class="cls-2" d="M174.32,225.26a1.85,1.85,0,1,0,1.85,1.85A1.85,1.85,0,0,0,174.32,225.26Z"/><path class="cls-2" d="M169.66,249.46h0a1.85,1.85,0,0,0-1.85,1.85h0a1.85,1.85,0,0,0,1.85,1.86h0a1.85,1.85,0,0,0,1.85-1.86h0A1.85,1.85,0,0,0,169.66,249.46Z"/><path class="cls-2" d="M174.32,241.4a1.85,1.85,0,1,0,1.85,1.85A1.85,1.85,0,0,0,174.32,241.4Z"/><path class="cls-2" d="M169.66,265.6h0a1.85,1.85,0,0,0-1.85,1.85h0a1.85,1.85,0,0,0,1.85,1.85h0a1.85,1.85,0,0,0,1.85-1.85h0A1.85,1.85,0,0,0,169.66,265.6Z"/><path class="cls-2" d="M174.32,257.53a1.85,1.85,0,1,0,1.85,1.85A1.85,1.85,0,0,0,174.32,257.53Z"/><path class="cls-2" d="M169.66,281.73h0a1.85,1.85,0,0,0-1.85,1.86h0a1.85,1.85,0,0,0,1.85,1.85h0a1.85,1.85,0,0,0,1.85-1.85h0A1.85,1.85,0,0,0,169.66,281.73Z"/><path class="cls-2" d="M174.32,273.67a1.85,1.85,0,1,0,1.85,1.85A1.85,1.85,0,0,0,174.32,273.67Z"/><path class="cls-2" d="M169.66,297.87h0a1.85,1.85,0,0,0-1.85,1.85h0a1.85,1.85,0,0,0,1.85,1.85h0a1.85,1.85,0,0,0,1.85-1.85h0A1.85,1.85,0,0,0,169.66,297.87Z"/><path class="cls-2" d="M174.32,289.8a1.86,1.86,0,1,0,1.85,1.85A1.85,1.85,0,0,0,174.32,289.8Z"/><path class="cls-2" d="M169.66,314h0a1.85,1.85,0,0,0-1.85,1.86h0a1.85,1.85,0,0,0,1.85,1.85h0a1.85,1.85,0,0,0,1.85-1.85h0A1.85,1.85,0,0,0,169.66,314Z"/><path class="cls-2" d="M174.32,305.94a1.85,1.85,0,1,0,1.85,1.85A1.85,1.85,0,0,0,174.32,305.94Z"/><path class="cls-2" d="M160.35,201.06h0a1.85,1.85,0,0,0-1.86,1.85h0a1.85,1.85,0,0,0,1.86,1.85h0a1.85,1.85,0,0,0,1.85-1.85h0A1.85,1.85,0,0,0,160.35,201.06Z"/><path class="cls-2" d="M165,196.69a1.86,1.86,0,0,0,1.8-1.4c-1.19-.27-2.39-.51-3.62-.72a2.48,2.48,0,0,0,0,.27A1.85,1.85,0,0,0,165,196.69Z"/><path class="cls-2" d="M160.35,217.19h0a1.85,1.85,0,0,0-1.86,1.85h0a1.86,1.86,0,0,0,1.86,1.86h0A1.85,1.85,0,0,0,162.2,219h0A1.85,1.85,0,0,0,160.35,217.19Z"/><path class="cls-2" d="M165,209.12a1.86,1.86,0,1,0,1.86,1.86A1.85,1.85,0,0,0,165,209.12Z"/><path class="cls-2" d="M160.35,233.33h0a1.85,1.85,0,0,0-1.86,1.85h0a1.85,1.85,0,0,0,1.86,1.85h0a1.85,1.85,0,0,0,1.85-1.85h0A1.85,1.85,0,0,0,160.35,233.33Z"/><path class="cls-2" d="M165,225.26a1.85,1.85,0,1,0,1.86,1.85A1.85,1.85,0,0,0,165,225.26Z"/><path class="cls-2" d="M160.35,249.46h0a1.85,1.85,0,0,0-1.86,1.85h0a1.86,1.86,0,0,0,1.86,1.86h0a1.85,1.85,0,0,0,1.85-1.86h0A1.85,1.85,0,0,0,160.35,249.46Z"/><circle class="cls-2" cx="165" cy="243.25" r="1.85"/><path class="cls-2" d="M160.35,265.6h0a1.85,1.85,0,0,0-1.86,1.85h0a1.85,1.85,0,0,0,1.86,1.85h0a1.85,1.85,0,0,0,1.85-1.85h0A1.85,1.85,0,0,0,160.35,265.6Z"/><path class="cls-2" d="M165,257.53a1.85,1.85,0,1,0,1.86,1.85A1.85,1.85,0,0,0,165,257.53Z"/><path class="cls-2" d="M160.35,281.73h0a1.86,1.86,0,0,0-1.86,1.86h0a1.85,1.85,0,0,0,1.86,1.85h0a1.85,1.85,0,0,0,1.85-1.85h0A1.85,1.85,0,0,0,160.35,281.73Z"/><path class="cls-2" d="M165,273.67a1.85,1.85,0,1,0,1.86,1.85A1.85,1.85,0,0,0,165,273.67Z"/><path class="cls-2" d="M160.35,297.87h0a1.85,1.85,0,0,0-1.86,1.85h0a1.85,1.85,0,0,0,1.86,1.85h0a1.85,1.85,0,0,0,1.85-1.85h0A1.85,1.85,0,0,0,160.35,297.87Z"/><path class="cls-2" d="M165,289.8a1.86,1.86,0,1,0,1.86,1.85A1.85,1.85,0,0,0,165,289.8Z"/><path class="cls-2" d="M160.35,314h0a1.86,1.86,0,0,0-1.86,1.86h0a1.85,1.85,0,0,0,1.86,1.85h0a1.85,1.85,0,0,0,1.85-1.85h0A1.85,1.85,0,0,0,160.35,314Z"/><circle class="cls-2" cx="165" cy="307.79" r="1.85"/><path class="cls-2" d="M151,201.06h0a1.85,1.85,0,0,0-1.85,1.85h0a1.85,1.85,0,0,0,1.85,1.85h0a1.85,1.85,0,0,0,1.85-1.85h0A1.85,1.85,0,0,0,151,201.06Z"/><path class="cls-2" d="M154.35,193.56a1.85,1.85,0,1,0,3.19,1.28,1.82,1.82,0,0,0-.33-1.05C156.26,193.7,155.31,193.62,154.35,193.56Z"/><path class="cls-2" d="M151,217.19h0a1.85,1.85,0,0,0-1.85,1.85h0A1.85,1.85,0,0,0,151,220.9h0a1.85,1.85,0,0,0,1.85-1.86h0A1.85,1.85,0,0,0,151,217.19Z"/><path class="cls-2" d="M155.69,209.12a1.86,1.86,0,1,0,1.85,1.86A1.85,1.85,0,0,0,155.69,209.12Z"/><path class="cls-2" d="M151,233.33h0a1.85,1.85,0,0,0-1.85,1.85h0A1.85,1.85,0,0,0,151,237h0a1.85,1.85,0,0,0,1.85-1.85h0A1.85,1.85,0,0,0,151,233.33Z"/><path class="cls-2" d="M155.69,225.26a1.85,1.85,0,1,0,1.85,1.85A1.85,1.85,0,0,0,155.69,225.26Z"/><path class="cls-2" d="M151,249.46h0a1.85,1.85,0,0,0-1.85,1.85h0a1.85,1.85,0,0,0,1.85,1.86h0a1.85,1.85,0,0,0,1.85-1.86h0A1.85,1.85,0,0,0,151,249.46Z"/><circle class="cls-2" cx="155.69" cy="243.25" r="1.85"/><path class="cls-2" d="M151,265.6h0a1.85,1.85,0,0,0-1.85,1.85h0A1.85,1.85,0,0,0,151,269.3h0a1.85,1.85,0,0,0,1.85-1.85h0A1.85,1.85,0,0,0,151,265.6Z"/><path class="cls-2" d="M155.69,257.53a1.85,1.85,0,1,0,1.85,1.85A1.85,1.85,0,0,0,155.69,257.53Z"/><path class="cls-2" d="M151,281.73h0a1.85,1.85,0,0,0-1.85,1.86h0a1.85,1.85,0,0,0,1.85,1.85h0a1.85,1.85,0,0,0,1.85-1.85h0A1.85,1.85,0,0,0,151,281.73Z"/><path class="cls-2" d="M155.69,273.67a1.85,1.85,0,1,0,1.85,1.85A1.85,1.85,0,0,0,155.69,273.67Z"/><path class="cls-2" d="M151,297.87h0a1.85,1.85,0,0,0-1.85,1.85h0a1.85,1.85,0,0,0,1.85,1.85h0a1.85,1.85,0,0,0,1.85-1.85h0A1.85,1.85,0,0,0,151,297.87Z"/><path class="cls-2" d="M155.69,289.8a1.86,1.86,0,1,0,1.85,1.85A1.85,1.85,0,0,0,155.69,289.8Z"/><path class="cls-2" d="M151,314h0a1.85,1.85,0,0,0-1.85,1.86h0a1.85,1.85,0,0,0,1.85,1.85h0a1.85,1.85,0,0,0,1.85-1.85h0A1.85,1.85,0,0,0,151,314Z"/><circle class="cls-2" cx="155.69" cy="307.79" r="1.85"/><path class="cls-2" d="M141.71,201.06h0a1.85,1.85,0,0,0-1.85,1.85h0a1.85,1.85,0,0,0,1.85,1.85h0a1.85,1.85,0,0,0,1.86-1.85h0A1.85,1.85,0,0,0,141.71,201.06Z"/><path class="cls-2" d="M145,193.57a1.85,1.85,0,1,0,3.19,1.27,1.82,1.82,0,0,0-.63-1.38C146.74,193.48,145.89,193.52,145,193.57Z"/><path class="cls-2" d="M141.71,217.19h0a1.85,1.85,0,0,0-1.85,1.85h0a1.85,1.85,0,0,0,1.85,1.86h0a1.86,1.86,0,0,0,1.86-1.86h0A1.85,1.85,0,0,0,141.71,217.19Z"/><path class="cls-2" d="M146.37,209.12a1.86,1.86,0,1,0,1.85,1.86A1.85,1.85,0,0,0,146.37,209.12Z"/><path class="cls-2" d="M141.71,233.33h0a1.85,1.85,0,0,0-1.85,1.85h0a1.85,1.85,0,0,0,1.85,1.85h0a1.85,1.85,0,0,0,1.86-1.85h0A1.85,1.85,0,0,0,141.71,233.33Z"/><path class="cls-2" d="M146.37,225.26a1.85,1.85,0,1,0,1.85,1.85A1.85,1.85,0,0,0,146.37,225.26Z"/><path class="cls-2" d="M141.71,249.46h0a1.85,1.85,0,0,0-1.85,1.85h0a1.85,1.85,0,0,0,1.85,1.86h0a1.86,1.86,0,0,0,1.86-1.86h0A1.85,1.85,0,0,0,141.71,249.46Z"/><path class="cls-2" d="M146.37,241.4a1.85,1.85,0,1,0,1.85,1.85A1.85,1.85,0,0,0,146.37,241.4Z"/><path class="cls-2" d="M141.71,265.6h0a1.85,1.85,0,0,0-1.85,1.85h0a1.85,1.85,0,0,0,1.85,1.85h0a1.85,1.85,0,0,0,1.86-1.85h0A1.85,1.85,0,0,0,141.71,265.6Z"/><path class="cls-2" d="M146.37,257.53a1.85,1.85,0,1,0,1.85,1.85A1.85,1.85,0,0,0,146.37,257.53Z"/><path class="cls-2" d="M141.71,281.73h0a1.85,1.85,0,0,0-1.85,1.86h0a1.85,1.85,0,0,0,1.85,1.85h0a1.85,1.85,0,0,0,1.86-1.85h0A1.86,1.86,0,0,0,141.71,281.73Z"/><path class="cls-2" d="M146.37,273.67a1.85,1.85,0,1,0,1.85,1.85A1.85,1.85,0,0,0,146.37,273.67Z"/><path class="cls-2" d="M141.71,297.87h0a1.85,1.85,0,0,0-1.85,1.85h0a1.85,1.85,0,0,0,1.85,1.85h0a1.85,1.85,0,0,0,1.86-1.85h0A1.85,1.85,0,0,0,141.71,297.87Z"/><path class="cls-2" d="M146.37,289.8a1.86,1.86,0,1,0,1.85,1.85A1.85,1.85,0,0,0,146.37,289.8Z"/><path class="cls-2" d="M141.71,314h0a1.85,1.85,0,0,0-1.85,1.86h0a1.85,1.85,0,0,0,1.85,1.85h0a1.85,1.85,0,0,0,1.86-1.85h0A1.86,1.86,0,0,0,141.71,314Z"/><path class="cls-2" d="M146.37,305.94a1.85,1.85,0,1,0,1.85,1.85A1.85,1.85,0,0,0,146.37,305.94Z"/><path class="cls-2" d="M146.37,322.07a1.86,1.86,0,1,0,1.85,1.85A1.85,1.85,0,0,0,146.37,322.07Z"/><path class="cls-2" d="M132.4,201.06h0a1.85,1.85,0,0,0-1.85,1.85h0a1.85,1.85,0,0,0,1.85,1.85h0a1.85,1.85,0,0,0,1.85-1.85h0A1.85,1.85,0,0,0,132.4,201.06Z"/><path class="cls-2" d="M135.23,194.62a1.92,1.92,0,0,0,0,.22,1.86,1.86,0,0,0,3.71,0,1.75,1.75,0,0,0-.15-.72C137.58,194.27,136.4,194.43,135.23,194.62Z"/><path class="cls-2" d="M132.4,217.19h0a1.85,1.85,0,0,0-1.85,1.85h0a1.85,1.85,0,0,0,1.85,1.86h0a1.85,1.85,0,0,0,1.85-1.86h0A1.85,1.85,0,0,0,132.4,217.19Z"/><path class="cls-2" d="M137.06,209.12a1.86,1.86,0,1,0,1.85,1.86A1.86,1.86,0,0,0,137.06,209.12Z"/><path class="cls-2" d="M132.4,233.33h0a1.85,1.85,0,0,0-1.85,1.85h0A1.85,1.85,0,0,0,132.4,237h0a1.85,1.85,0,0,0,1.85-1.85h0A1.85,1.85,0,0,0,132.4,233.33Z"/><path class="cls-2" d="M137.06,225.26a1.85,1.85,0,1,0,1.85,1.85A1.85,1.85,0,0,0,137.06,225.26Z"/><path class="cls-2" d="M132.4,249.46h0a1.85,1.85,0,0,0-1.85,1.85h0a1.85,1.85,0,0,0,1.85,1.86h0a1.85,1.85,0,0,0,1.85-1.86h0A1.85,1.85,0,0,0,132.4,249.46Z"/><path class="cls-2" d="M137.06,241.4a1.85,1.85,0,1,0,1.85,1.85A1.85,1.85,0,0,0,137.06,241.4Z"/><path class="cls-2" d="M132.4,265.6h0a1.85,1.85,0,0,0-1.85,1.85h0a1.85,1.85,0,0,0,1.85,1.85h0a1.85,1.85,0,0,0,1.85-1.85h0A1.85,1.85,0,0,0,132.4,265.6Z"/><path class="cls-2" d="M137.06,257.53a1.85,1.85,0,1,0,1.85,1.85A1.85,1.85,0,0,0,137.06,257.53Z"/><path class="cls-2" d="M132.4,281.73h0a1.85,1.85,0,0,0-1.85,1.86h0a1.85,1.85,0,0,0,1.85,1.85h0a1.85,1.85,0,0,0,1.85-1.85h0A1.85,1.85,0,0,0,132.4,281.73Z"/><path class="cls-2" d="M137.06,273.67a1.85,1.85,0,1,0,1.85,1.85A1.85,1.85,0,0,0,137.06,273.67Z"/><path class="cls-2" d="M132.4,297.87h0a1.85,1.85,0,0,0-1.85,1.85h0a1.85,1.85,0,0,0,1.85,1.85h0a1.85,1.85,0,0,0,1.85-1.85h0A1.85,1.85,0,0,0,132.4,297.87Z"/><path class="cls-2" d="M137.06,289.8a1.86,1.86,0,1,0,1.85,1.85A1.85,1.85,0,0,0,137.06,289.8Z"/><path class="cls-2" d="M132.4,314h0a1.85,1.85,0,0,0-1.85,1.86h0a1.85,1.85,0,0,0,1.85,1.85h0a1.85,1.85,0,0,0,1.85-1.85h0A1.85,1.85,0,0,0,132.4,314Z"/><path class="cls-2" d="M137.06,305.94a1.85,1.85,0,1,0,1.85,1.85A1.85,1.85,0,0,0,137.06,305.94Z"/><path class="cls-2" d="M137.06,322.07a1.86,1.86,0,1,0,1.85,1.85A1.85,1.85,0,0,0,137.06,322.07Z"/><path class="cls-2" d="M123.08,201.06h0a1.85,1.85,0,0,0-1.85,1.85h0a1.85,1.85,0,0,0,1.85,1.85h0a1.85,1.85,0,0,0,1.86-1.85h0A1.85,1.85,0,0,0,123.08,201.06Z"/><path class="cls-2" d="M129.34,195.77c-.87.19-1.74.41-2.6.63a1.89,1.89,0,0,0,1,.29A1.84,1.84,0,0,0,129.34,195.77Z"/><path class="cls-2" d="M123.08,217.19h0a1.85,1.85,0,0,0-1.85,1.85h0a1.85,1.85,0,0,0,1.85,1.86h0a1.86,1.86,0,0,0,1.86-1.86h0A1.85,1.85,0,0,0,123.08,217.19Z"/><path class="cls-2" d="M127.74,209.12a1.86,1.86,0,1,0,1.85,1.86A1.85,1.85,0,0,0,127.74,209.12Z"/><path class="cls-2" d="M123.08,233.33h0a1.85,1.85,0,0,0-1.85,1.85h0a1.85,1.85,0,0,0,1.85,1.85h0a1.85,1.85,0,0,0,1.86-1.85h0A1.85,1.85,0,0,0,123.08,233.33Z"/><path class="cls-2" d="M127.74,225.26a1.85,1.85,0,1,0,1.85,1.85A1.85,1.85,0,0,0,127.74,225.26Z"/><path class="cls-2" d="M123.08,249.46h0a1.85,1.85,0,0,0-1.85,1.85h0a1.85,1.85,0,0,0,1.85,1.86h0a1.86,1.86,0,0,0,1.86-1.86h0A1.85,1.85,0,0,0,123.08,249.46Z"/><path class="cls-2" d="M127.74,241.4a1.85,1.85,0,1,0,1.85,1.85A1.85,1.85,0,0,0,127.74,241.4Z"/><path class="cls-2" d="M123.08,265.6h0a1.85,1.85,0,0,0-1.85,1.85h0a1.85,1.85,0,0,0,1.85,1.85h0a1.85,1.85,0,0,0,1.86-1.85h0A1.85,1.85,0,0,0,123.08,265.6Z"/><path class="cls-2" d="M127.74,257.53a1.85,1.85,0,1,0,1.85,1.85A1.85,1.85,0,0,0,127.74,257.53Z"/><path class="cls-2" d="M123.08,281.73h0a1.85,1.85,0,0,0-1.85,1.86h0a1.85,1.85,0,0,0,1.85,1.85h0a1.85,1.85,0,0,0,1.86-1.85h0A1.86,1.86,0,0,0,123.08,281.73Z"/><path class="cls-2" d="M127.74,273.67a1.85,1.85,0,1,0,1.85,1.85A1.85,1.85,0,0,0,127.74,273.67Z"/><path class="cls-2" d="M123.08,297.87h0a1.85,1.85,0,0,0-1.85,1.85h0a1.85,1.85,0,0,0,1.85,1.85h0a1.85,1.85,0,0,0,1.86-1.85h0A1.85,1.85,0,0,0,123.08,297.87Z"/><path class="cls-2" d="M127.74,289.8a1.86,1.86,0,1,0,1.85,1.85A1.85,1.85,0,0,0,127.74,289.8Z"/><path class="cls-2" d="M123.08,314h0a1.85,1.85,0,0,0-1.85,1.86h0a1.85,1.85,0,0,0,1.85,1.85h0a1.85,1.85,0,0,0,1.86-1.85h0A1.86,1.86,0,0,0,123.08,314Z"/><path class="cls-2" d="M127.74,305.94a1.85,1.85,0,1,0,1.85,1.85A1.85,1.85,0,0,0,127.74,305.94Z"/><path class="cls-2" d="M127.74,322.07a1.86,1.86,0,1,0,1.85,1.85A1.85,1.85,0,0,0,127.74,322.07Z"/><path class="cls-2" d="M113.77,201.06h0a1.85,1.85,0,0,0-1.85,1.85h0a1.85,1.85,0,0,0,1.85,1.85h0a1.85,1.85,0,0,0,1.85-1.85h0A1.85,1.85,0,0,0,113.77,201.06Z"/><path class="cls-2" d="M113.77,217.19h0a1.85,1.85,0,0,0-1.85,1.85h0a1.85,1.85,0,0,0,1.85,1.86h0a1.85,1.85,0,0,0,1.85-1.86h0A1.85,1.85,0,0,0,113.77,217.19Z"/><path class="cls-2" d="M118.43,209.12a1.86,1.86,0,1,0,1.85,1.86A1.86,1.86,0,0,0,118.43,209.12Z"/><path class="cls-2" d="M113.77,233.33h0a1.85,1.85,0,0,0-1.85,1.85h0a1.85,1.85,0,0,0,1.85,1.85h0a1.85,1.85,0,0,0,1.85-1.85h0A1.85,1.85,0,0,0,113.77,233.33Z"/><path class="cls-2" d="M118.43,225.26a1.85,1.85,0,1,0,1.85,1.85A1.85,1.85,0,0,0,118.43,225.26Z"/><path class="cls-2" d="M113.77,249.46h0a1.85,1.85,0,0,0-1.85,1.85h0a1.85,1.85,0,0,0,1.85,1.86h0a1.85,1.85,0,0,0,1.85-1.86h0A1.85,1.85,0,0,0,113.77,249.46Z"/><path class="cls-2" d="M118.43,241.4a1.85,1.85,0,1,0,1.85,1.85A1.85,1.85,0,0,0,118.43,241.4Z"/><path class="cls-2" d="M113.77,265.6h0a1.85,1.85,0,0,0-1.85,1.85h0a1.85,1.85,0,0,0,1.85,1.85h0a1.85,1.85,0,0,0,1.85-1.85h0A1.85,1.85,0,0,0,113.77,265.6Z"/><path class="cls-2" d="M118.43,257.53a1.85,1.85,0,1,0,1.85,1.85A1.85,1.85,0,0,0,118.43,257.53Z"/><path class="cls-2" d="M113.77,281.73h0a1.85,1.85,0,0,0-1.85,1.86h0a1.85,1.85,0,0,0,1.85,1.85h0a1.85,1.85,0,0,0,1.85-1.85h0A1.85,1.85,0,0,0,113.77,281.73Z"/><path class="cls-2" d="M118.43,273.67a1.85,1.85,0,1,0,1.85,1.85A1.85,1.85,0,0,0,118.43,273.67Z"/><path class="cls-2" d="M113.77,297.87h0a1.85,1.85,0,0,0-1.85,1.85h0a1.85,1.85,0,0,0,1.85,1.85h0a1.85,1.85,0,0,0,1.85-1.85h0A1.85,1.85,0,0,0,113.77,297.87Z"/><path class="cls-2" d="M118.43,289.8a1.86,1.86,0,1,0,1.85,1.85A1.85,1.85,0,0,0,118.43,289.8Z"/><path class="cls-2" d="M113.77,314h0a1.85,1.85,0,0,0-1.85,1.86h0a1.85,1.85,0,0,0,1.85,1.85h0a1.85,1.85,0,0,0,1.85-1.85h0A1.85,1.85,0,0,0,113.77,314Z"/><path class="cls-2" d="M118.43,305.94a1.85,1.85,0,1,0,1.85,1.85A1.85,1.85,0,0,0,118.43,305.94Z"/><path class="cls-2" d="M118.43,322.07a1.86,1.86,0,1,0,1.85,1.85A1.85,1.85,0,0,0,118.43,322.07Z"/><path class="cls-2" d="M104.45,217.19h0A1.85,1.85,0,0,0,102.6,219h0a1.85,1.85,0,0,0,1.85,1.86h0A1.85,1.85,0,0,0,106.3,219h0A1.85,1.85,0,0,0,104.45,217.19Z"/><path class="cls-2" d="M109.11,209.12A1.86,1.86,0,1,0,111,211,1.85,1.85,0,0,0,109.11,209.12Z"/><path class="cls-2" d="M104.62,204.74a1.83,1.83,0,0,0,1.21-.6Z"/><path class="cls-2" d="M104.45,233.33h0a1.85,1.85,0,0,0-1.85,1.85h0a1.85,1.85,0,0,0,1.85,1.85h0a1.85,1.85,0,0,0,1.85-1.85h0A1.85,1.85,0,0,0,104.45,233.33Z"/><path class="cls-2" d="M109.11,225.26a1.85,1.85,0,1,0,1.85,1.85A1.85,1.85,0,0,0,109.11,225.26Z"/><path class="cls-2" d="M104.45,249.46h0a1.85,1.85,0,0,0-1.85,1.85h0a1.85,1.85,0,0,0,1.85,1.86h0a1.85,1.85,0,0,0,1.85-1.86h0A1.85,1.85,0,0,0,104.45,249.46Z"/><circle class="cls-2" cx="109.11" cy="243.25" r="1.85"/><path class="cls-2" d="M104.45,265.6h0a1.85,1.85,0,0,0-1.85,1.85h0a1.85,1.85,0,0,0,1.85,1.85h0a1.85,1.85,0,0,0,1.85-1.85h0A1.85,1.85,0,0,0,104.45,265.6Z"/><path class="cls-2" d="M109.11,257.53a1.85,1.85,0,1,0,1.85,1.85A1.85,1.85,0,0,0,109.11,257.53Z"/><path class="cls-2" d="M104.45,281.73h0a1.85,1.85,0,0,0-1.85,1.86h0a1.85,1.85,0,0,0,1.85,1.85h0a1.85,1.85,0,0,0,1.85-1.85h0A1.85,1.85,0,0,0,104.45,281.73Z"/><path class="cls-2" d="M109.11,273.67a1.85,1.85,0,1,0,1.85,1.85A1.85,1.85,0,0,0,109.11,273.67Z"/><path class="cls-2" d="M104.45,297.87h0a1.85,1.85,0,0,0-1.85,1.85h0a1.85,1.85,0,0,0,1.85,1.85h0a1.85,1.85,0,0,0,1.85-1.85h0A1.85,1.85,0,0,0,104.45,297.87Z"/><path class="cls-2" d="M109.11,289.8a1.86,1.86,0,1,0,1.85,1.85A1.85,1.85,0,0,0,109.11,289.8Z"/><path class="cls-2" d="M104.45,314h0a1.85,1.85,0,0,0-1.85,1.86h0a1.85,1.85,0,0,0,1.85,1.85h0a1.85,1.85,0,0,0,1.85-1.85h0A1.85,1.85,0,0,0,104.45,314Z"/><circle class="cls-2" cx="109.11" cy="307.79" r="1.85"/><circle class="cls-2" cx="109.11" cy="323.92" r="1.85"/><path class="cls-2" d="M95.14,217.19h0A1.85,1.85,0,0,0,93.28,219h0a1.86,1.86,0,0,0,1.86,1.86h0A1.85,1.85,0,0,0,97,219h0A1.85,1.85,0,0,0,95.14,217.19Z"/><path class="cls-2" d="M99.79,209.12a1.86,1.86,0,1,0,1.86,1.86A1.85,1.85,0,0,0,99.79,209.12Z"/><path class="cls-2" d="M95.14,233.33h0a1.85,1.85,0,0,0-1.86,1.85h0A1.85,1.85,0,0,0,95.14,237h0A1.85,1.85,0,0,0,97,235.18h0A1.85,1.85,0,0,0,95.14,233.33Z"/><path class="cls-2" d="M99.79,225.26a1.85,1.85,0,1,0,1.86,1.85A1.85,1.85,0,0,0,99.79,225.26Z"/><path class="cls-2" d="M95.14,249.46h0a1.85,1.85,0,0,0-1.86,1.85h0a1.86,1.86,0,0,0,1.86,1.86h0A1.85,1.85,0,0,0,97,251.31h0A1.85,1.85,0,0,0,95.14,249.46Z"/><path class="cls-2" d="M99.79,241.4a1.85,1.85,0,1,0,1.86,1.85A1.85,1.85,0,0,0,99.79,241.4Z"/><path class="cls-2" d="M95.14,265.6h0a1.85,1.85,0,0,0-1.86,1.85h0a1.85,1.85,0,0,0,1.86,1.85h0A1.85,1.85,0,0,0,97,267.45h0A1.85,1.85,0,0,0,95.14,265.6Z"/><path class="cls-2" d="M99.79,257.53a1.85,1.85,0,1,0,1.86,1.85A1.85,1.85,0,0,0,99.79,257.53Z"/><path class="cls-2" d="M95.14,281.73h0a1.86,1.86,0,0,0-1.86,1.86h0a1.85,1.85,0,0,0,1.86,1.85h0A1.85,1.85,0,0,0,97,283.59h0A1.85,1.85,0,0,0,95.14,281.73Z"/><path class="cls-2" d="M99.79,273.67a1.85,1.85,0,1,0,1.86,1.85A1.85,1.85,0,0,0,99.79,273.67Z"/><path class="cls-2" d="M95.14,297.87h0a1.85,1.85,0,0,0-1.86,1.85h0a1.85,1.85,0,0,0,1.86,1.85h0A1.85,1.85,0,0,0,97,299.72h0A1.85,1.85,0,0,0,95.14,297.87Z"/><path class="cls-2" d="M99.79,289.8a1.86,1.86,0,1,0,1.86,1.85A1.85,1.85,0,0,0,99.79,289.8Z"/><path class="cls-2" d="M95.14,314h0a1.86,1.86,0,0,0-1.86,1.86h0a1.85,1.85,0,0,0,1.86,1.85h0A1.85,1.85,0,0,0,97,315.86h0A1.85,1.85,0,0,0,95.14,314Z"/><path class="cls-2" d="M99.79,305.94a1.85,1.85,0,1,0,1.86,1.85A1.85,1.85,0,0,0,99.79,305.94Z"/><path class="cls-2" d="M99.79,322.07a1.86,1.86,0,1,0,1.86,1.85A1.85,1.85,0,0,0,99.79,322.07Z"/><path class="cls-2" d="M85.82,217.19h0A1.85,1.85,0,0,0,84,219h0a1.85,1.85,0,0,0,1.85,1.86h0A1.85,1.85,0,0,0,87.67,219h0A1.85,1.85,0,0,0,85.82,217.19Z"/><path class="cls-2" d="M90.48,209.12A1.86,1.86,0,1,0,92.33,211,1.85,1.85,0,0,0,90.48,209.12Z"/><path class="cls-2" d="M95.14,204.76a1.78,1.78,0,0,0,.7-.14l-.7-.06-1-.08a1.8,1.8,0,0,0,1,.28Z"/><path class="cls-2" d="M85.82,233.33h0A1.85,1.85,0,0,0,84,235.18h0A1.85,1.85,0,0,0,85.82,237h0a1.85,1.85,0,0,0,1.85-1.85h0A1.85,1.85,0,0,0,85.82,233.33Z"/><path class="cls-2" d="M90.48,225.26a1.85,1.85,0,1,0,1.85,1.85A1.85,1.85,0,0,0,90.48,225.26Z"/><path class="cls-2" d="M85.82,249.46h0A1.85,1.85,0,0,0,84,251.31h0a1.85,1.85,0,0,0,1.85,1.86h0a1.85,1.85,0,0,0,1.85-1.86h0A1.85,1.85,0,0,0,85.82,249.46Z"/><path class="cls-2" d="M90.48,241.4a1.85,1.85,0,1,0,1.85,1.85A1.85,1.85,0,0,0,90.48,241.4Z"/><path class="cls-2" d="M85.82,265.6h0A1.85,1.85,0,0,0,84,267.45h0a1.85,1.85,0,0,0,1.85,1.85h0a1.85,1.85,0,0,0,1.85-1.85h0A1.85,1.85,0,0,0,85.82,265.6Z"/><path class="cls-2" d="M90.48,257.53a1.85,1.85,0,1,0,1.85,1.85A1.85,1.85,0,0,0,90.48,257.53Z"/><path class="cls-2" d="M85.82,281.73h0A1.85,1.85,0,0,0,84,283.59h0a1.85,1.85,0,0,0,1.85,1.85h0a1.85,1.85,0,0,0,1.85-1.85h0A1.85,1.85,0,0,0,85.82,281.73Z"/><path class="cls-2" d="M90.48,273.67a1.85,1.85,0,1,0,1.85,1.85A1.85,1.85,0,0,0,90.48,273.67Z"/><path class="cls-2" d="M85.82,297.87h0A1.85,1.85,0,0,0,84,299.72h0a1.85,1.85,0,0,0,1.85,1.85h0a1.85,1.85,0,0,0,1.85-1.85h0A1.85,1.85,0,0,0,85.82,297.87Z"/><path class="cls-2" d="M90.48,289.8a1.86,1.86,0,1,0,1.85,1.85A1.85,1.85,0,0,0,90.48,289.8Z"/><path class="cls-2" d="M85.82,314h0A1.85,1.85,0,0,0,84,315.86h0a1.85,1.85,0,0,0,1.85,1.85h0a1.85,1.85,0,0,0,1.85-1.85h0A1.85,1.85,0,0,0,85.82,314Z"/><path class="cls-2" d="M90.48,305.94a1.85,1.85,0,1,0,1.85,1.85A1.85,1.85,0,0,0,90.48,305.94Z"/><path class="cls-2" d="M90.48,322.07a1.86,1.86,0,1,0,1.85,1.85A1.85,1.85,0,0,0,90.48,322.07Z"/><path class="cls-2" d="M76.51,217.19h0A1.85,1.85,0,0,0,74.65,219h0a1.85,1.85,0,0,0,1.85,1.86h0A1.85,1.85,0,0,0,78.36,219h0A1.85,1.85,0,0,0,76.51,217.19Z"/><path class="cls-2" d="M81.16,209.12A1.86,1.86,0,1,0,83,211,1.85,1.85,0,0,0,81.16,209.12Z"/><path class="cls-2" d="M85.82,204.76a1.83,1.83,0,0,0,1.36-.6l-1.36,0H84.43a1.83,1.83,0,0,0,1.39.64Z"/><path class="cls-2" d="M76.51,233.33h0a1.85,1.85,0,0,0-1.85,1.85h0A1.85,1.85,0,0,0,76.5,237h0a1.85,1.85,0,0,0,1.85-1.85h0A1.85,1.85,0,0,0,76.51,233.33Z"/><path class="cls-2" d="M81.16,225.26A1.85,1.85,0,1,0,83,227.11,1.85,1.85,0,0,0,81.16,225.26Z"/><path class="cls-2" d="M76.51,249.46h0a1.85,1.85,0,0,0-1.85,1.85h0a1.85,1.85,0,0,0,1.85,1.86h0a1.85,1.85,0,0,0,1.85-1.86h0A1.85,1.85,0,0,0,76.51,249.46Z"/><path class="cls-2" d="M81.16,241.4A1.85,1.85,0,1,0,83,243.25,1.85,1.85,0,0,0,81.16,241.4Z"/><path class="cls-2" d="M76.51,265.6h0a1.85,1.85,0,0,0-1.85,1.85h0a1.85,1.85,0,0,0,1.85,1.85h0a1.85,1.85,0,0,0,1.85-1.85h0A1.85,1.85,0,0,0,76.51,265.6Z"/><path class="cls-2" d="M81.16,257.53A1.85,1.85,0,1,0,83,259.38,1.85,1.85,0,0,0,81.16,257.53Z"/><path class="cls-2" d="M76.51,281.73h0a1.85,1.85,0,0,0-1.85,1.86h0a1.85,1.85,0,0,0,1.85,1.85h0a1.85,1.85,0,0,0,1.85-1.85h0A1.85,1.85,0,0,0,76.51,281.73Z"/><path class="cls-2" d="M81.16,273.67A1.85,1.85,0,1,0,83,275.52,1.85,1.85,0,0,0,81.16,273.67Z"/><path class="cls-2" d="M76.51,297.87h0a1.85,1.85,0,0,0-1.85,1.85h0a1.85,1.85,0,0,0,1.85,1.85h0a1.85,1.85,0,0,0,1.85-1.85h0A1.85,1.85,0,0,0,76.51,297.87Z"/><path class="cls-2" d="M81.16,289.8A1.86,1.86,0,1,0,83,291.65,1.85,1.85,0,0,0,81.16,289.8Z"/><path class="cls-2" d="M76.51,314h0a1.85,1.85,0,0,0-1.85,1.86h0a1.85,1.85,0,0,0,1.85,1.85h0a1.85,1.85,0,0,0,1.85-1.85h0A1.85,1.85,0,0,0,76.51,314Z"/><path class="cls-2" d="M81.16,305.94A1.85,1.85,0,1,0,83,307.79,1.85,1.85,0,0,0,81.16,305.94Z"/><path class="cls-2" d="M81.16,322.07A1.86,1.86,0,1,0,83,323.92,1.85,1.85,0,0,0,81.16,322.07Z"/><path class="cls-2" d="M67.19,217.19h0A1.85,1.85,0,0,0,65.34,219h0a1.85,1.85,0,0,0,1.85,1.86h0A1.85,1.85,0,0,0,69,219h0A1.85,1.85,0,0,0,67.19,217.19Z"/><path class="cls-2" d="M71.85,209.12A1.86,1.86,0,1,0,73.7,211,1.86,1.86,0,0,0,71.85,209.12Z"/><path class="cls-2" d="M76.51,204.76a1.83,1.83,0,0,0,1.28-.52c-.43,0-.86,0-1.28.06l-1.13.08a1.91,1.91,0,0,0,1.12.38Z"/><path class="cls-2" d="M67.19,233.33h0a1.85,1.85,0,0,0-1.85,1.85h0A1.85,1.85,0,0,0,67.19,237h0A1.85,1.85,0,0,0,69,235.18h0A1.85,1.85,0,0,0,67.19,233.33Z"/><path class="cls-2" d="M71.85,225.26a1.85,1.85,0,1,0,1.85,1.85A1.85,1.85,0,0,0,71.85,225.26Z"/><path class="cls-2" d="M67.19,249.46h0a1.85,1.85,0,0,0-1.85,1.85h0a1.85,1.85,0,0,0,1.85,1.86h0A1.85,1.85,0,0,0,69,251.31h0A1.85,1.85,0,0,0,67.19,249.46Z"/><path class="cls-2" d="M71.85,241.4a1.85,1.85,0,1,0,1.85,1.85A1.85,1.85,0,0,0,71.85,241.4Z"/><path class="cls-2" d="M67.19,265.6h0a1.85,1.85,0,0,0-1.85,1.85h0a1.85,1.85,0,0,0,1.85,1.85h0A1.85,1.85,0,0,0,69,267.45h0A1.85,1.85,0,0,0,67.19,265.6Z"/><path class="cls-2" d="M71.85,257.53a1.85,1.85,0,1,0,1.85,1.85A1.85,1.85,0,0,0,71.85,257.53Z"/><path class="cls-2" d="M67.19,281.73h0a1.85,1.85,0,0,0-1.85,1.86h0a1.85,1.85,0,0,0,1.85,1.85h0A1.85,1.85,0,0,0,69,283.59h0A1.85,1.85,0,0,0,67.19,281.73Z"/><path class="cls-2" d="M71.85,273.67a1.85,1.85,0,1,0,1.85,1.85A1.85,1.85,0,0,0,71.85,273.67Z"/><path class="cls-2" d="M67.19,297.87h0a1.85,1.85,0,0,0-1.85,1.85h0a1.85,1.85,0,0,0,1.85,1.85h0A1.85,1.85,0,0,0,69,299.72h0A1.85,1.85,0,0,0,67.19,297.87Z"/><path class="cls-2" d="M71.85,289.8a1.86,1.86,0,1,0,1.85,1.85A1.85,1.85,0,0,0,71.85,289.8Z"/><path class="cls-2" d="M67.19,314h0a1.85,1.85,0,0,0-1.85,1.86h0v.05c.6.61,1.22,1.18,1.85,1.76l0,0A1.84,1.84,0,0,0,69,315.86h0A1.85,1.85,0,0,0,67.19,314Z"/><path class="cls-2" d="M71.85,305.94a1.85,1.85,0,1,0,1.85,1.85A1.85,1.85,0,0,0,71.85,305.94Z"/><path class="cls-2" d="M57.87,217.19h0A1.85,1.85,0,0,0,56,219h0a1.85,1.85,0,0,0,1.85,1.86h0A1.86,1.86,0,0,0,59.73,219h0A1.85,1.85,0,0,0,57.87,217.19Z"/><path class="cls-2" d="M62.53,209.12A1.86,1.86,0,1,0,64.38,211,1.85,1.85,0,0,0,62.53,209.12Z"/><path class="cls-2" d="M57.87,233.33h0A1.85,1.85,0,0,0,56,235.18h0A1.85,1.85,0,0,0,57.87,237h0a1.85,1.85,0,0,0,1.86-1.85h0A1.85,1.85,0,0,0,57.87,233.33Z"/><path class="cls-2" d="M62.53,225.26a1.85,1.85,0,1,0,1.85,1.85A1.85,1.85,0,0,0,62.53,225.26Z"/><path class="cls-2" d="M57.87,249.46h0A1.85,1.85,0,0,0,56,251.31h0a1.85,1.85,0,0,0,1.85,1.86h0a1.86,1.86,0,0,0,1.86-1.86h0A1.85,1.85,0,0,0,57.87,249.46Z"/><circle class="cls-2" cx="62.53" cy="243.25" r="1.85"/><path class="cls-2" d="M57.87,265.6h0A1.85,1.85,0,0,0,56,267.45h0a1.85,1.85,0,0,0,1.85,1.85h0a1.85,1.85,0,0,0,1.86-1.85h0A1.85,1.85,0,0,0,57.87,265.6Z"/><path class="cls-2" d="M62.53,257.53a1.85,1.85,0,1,0,1.85,1.85A1.85,1.85,0,0,0,62.53,257.53Z"/><path class="cls-2" d="M57.87,281.73h0A1.85,1.85,0,0,0,56,283.59h0a1.85,1.85,0,0,0,1.85,1.85h0a1.85,1.85,0,0,0,1.86-1.85h0A1.86,1.86,0,0,0,57.87,281.73Z"/><path class="cls-2" d="M62.53,273.67a1.85,1.85,0,1,0,1.85,1.85A1.85,1.85,0,0,0,62.53,273.67Z"/><path class="cls-2" d="M57.87,297.87h0A1.85,1.85,0,0,0,56,299.72h0a1.85,1.85,0,0,0,1.85,1.85h0a1.85,1.85,0,0,0,1.86-1.85h0A1.85,1.85,0,0,0,57.87,297.87Z"/><path class="cls-2" d="M62.53,289.8a1.86,1.86,0,1,0,1.85,1.85A1.85,1.85,0,0,0,62.53,289.8Z"/><circle class="cls-2" cx="62.53" cy="307.79" r="1.85"/><path class="cls-2" d="M48.56,217.19h0A1.85,1.85,0,0,0,46.71,219h0a1.85,1.85,0,0,0,1.85,1.86h0A1.85,1.85,0,0,0,50.41,219h0A1.85,1.85,0,0,0,48.56,217.19Z"/><path class="cls-2" d="M53.22,209.12A1.86,1.86,0,1,0,55.07,211,1.86,1.86,0,0,0,53.22,209.12Z"/><path class="cls-2" d="M48.56,233.33h0a1.85,1.85,0,0,0-1.85,1.85h0A1.85,1.85,0,0,0,48.56,237h0a1.85,1.85,0,0,0,1.85-1.85h0A1.85,1.85,0,0,0,48.56,233.33Z"/><path class="cls-2" d="M53.22,225.26a1.85,1.85,0,1,0,1.85,1.85A1.85,1.85,0,0,0,53.22,225.26Z"/><path class="cls-2" d="M48.56,249.46h0a1.85,1.85,0,0,0-1.85,1.85h0a1.85,1.85,0,0,0,1.85,1.86h0a1.85,1.85,0,0,0,1.85-1.86h0A1.85,1.85,0,0,0,48.56,249.46Z"/><path class="cls-2" d="M53.22,241.4a1.85,1.85,0,1,0,1.85,1.85A1.85,1.85,0,0,0,53.22,241.4Z"/><path class="cls-2" d="M48.56,265.6h0a1.85,1.85,0,0,0-1.85,1.85h0a1.85,1.85,0,0,0,1.85,1.85h0a1.85,1.85,0,0,0,1.85-1.85h0A1.85,1.85,0,0,0,48.56,265.6Z"/><path class="cls-2" d="M53.22,257.53a1.85,1.85,0,1,0,1.85,1.85A1.85,1.85,0,0,0,53.22,257.53Z"/><path class="cls-2" d="M48.56,281.73h0a1.85,1.85,0,0,0-1.85,1.86h0a1.85,1.85,0,0,0,1.85,1.85h0a1.85,1.85,0,0,0,1.85-1.85h0A1.85,1.85,0,0,0,48.56,281.73Z"/><path class="cls-2" d="M53.22,273.67a1.85,1.85,0,1,0,1.85,1.85A1.85,1.85,0,0,0,53.22,273.67Z"/><path class="cls-2" d="M48.56,297.87h0a1.85,1.85,0,0,0-1.85,1.85h0a1.85,1.85,0,0,0,1.85,1.85h0a1.85,1.85,0,0,0,1.85-1.85h0A1.85,1.85,0,0,0,48.56,297.87Z"/><path class="cls-2" d="M53.22,289.8a1.86,1.86,0,1,0,1.85,1.85A1.85,1.85,0,0,0,53.22,289.8Z"/><path class="cls-2" d="M39.24,217.19h0A1.85,1.85,0,0,0,37.39,219h0a1.85,1.85,0,0,0,1.85,1.86h0A1.85,1.85,0,0,0,41.09,219h0A1.85,1.85,0,0,0,39.24,217.19Z"/><path class="cls-2" d="M45.69,211.42c-.83.41-1.63.85-2.41,1.29a1.8,1.8,0,0,0,.62.12A1.84,1.84,0,0,0,45.69,211.42Z"/><path class="cls-2" d="M39.24,233.33h0a1.85,1.85,0,0,0-1.85,1.85h0A1.85,1.85,0,0,0,39.24,237h0a1.85,1.85,0,0,0,1.85-1.85h0A1.85,1.85,0,0,0,39.24,233.33Z"/><path class="cls-2" d="M43.9,225.26a1.85,1.85,0,1,0,1.85,1.85A1.85,1.85,0,0,0,43.9,225.26Z"/><path class="cls-2" d="M39.24,249.46h0a1.85,1.85,0,0,0-1.85,1.85h0a1.85,1.85,0,0,0,1.85,1.86h0a1.85,1.85,0,0,0,1.85-1.86h0A1.85,1.85,0,0,0,39.24,249.46Z"/><path class="cls-2" d="M43.9,241.4a1.85,1.85,0,1,0,1.85,1.85A1.85,1.85,0,0,0,43.9,241.4Z"/><path class="cls-2" d="M39.24,265.6h0a1.85,1.85,0,0,0-1.85,1.85h0a1.85,1.85,0,0,0,1.85,1.85h0a1.85,1.85,0,0,0,1.85-1.85h0A1.85,1.85,0,0,0,39.24,265.6Z"/><path class="cls-2" d="M43.9,257.53a1.85,1.85,0,1,0,1.85,1.85A1.85,1.85,0,0,0,43.9,257.53Z"/><path class="cls-2" d="M39.24,281.73h0a1.85,1.85,0,0,0-1.85,1.86h0a1.85,1.85,0,0,0,1.85,1.85h0a1.85,1.85,0,0,0,1.85-1.85h0A1.85,1.85,0,0,0,39.24,281.73Z"/><path class="cls-2" d="M43.9,273.67a1.85,1.85,0,1,0,1.85,1.85A1.85,1.85,0,0,0,43.9,273.67Z"/><path class="cls-2" d="M39.24,297.87h0a1.85,1.85,0,0,0-1.85,1.85h0a1.86,1.86,0,0,0,.13.67l1.72.59,1,.32a1.85,1.85,0,0,0,.88-1.58h0A1.85,1.85,0,0,0,39.24,297.87Z"/><path class="cls-2" d="M43.9,289.8a1.86,1.86,0,1,0,1.85,1.85A1.85,1.85,0,0,0,43.9,289.8Z"/><path class="cls-2" d="M29.93,233.33h0a1.85,1.85,0,0,0-1.86,1.85h0A1.85,1.85,0,0,0,29.93,237h0a1.85,1.85,0,0,0,1.85-1.85h0A1.85,1.85,0,0,0,29.93,233.33Z"/><path class="cls-2" d="M34.58,225.26a1.85,1.85,0,1,0,1.86,1.85A1.85,1.85,0,0,0,34.58,225.26Z"/><path class="cls-2" d="M29.93,249.46h0a1.85,1.85,0,0,0-1.86,1.85h0a1.86,1.86,0,0,0,1.86,1.86h0a1.85,1.85,0,0,0,1.85-1.86h0A1.85,1.85,0,0,0,29.93,249.46Z"/><path class="cls-2" d="M34.58,241.4a1.85,1.85,0,1,0,1.86,1.85A1.85,1.85,0,0,0,34.58,241.4Z"/><path class="cls-2" d="M29.93,265.6h0a1.85,1.85,0,0,0-1.86,1.85h0a1.85,1.85,0,0,0,1.86,1.85h0a1.85,1.85,0,0,0,1.85-1.85h0A1.85,1.85,0,0,0,29.93,265.6Z"/><path class="cls-2" d="M34.58,257.53a1.85,1.85,0,1,0,1.86,1.85A1.85,1.85,0,0,0,34.58,257.53Z"/><path class="cls-2" d="M29.93,281.73h0a1.86,1.86,0,0,0-1.86,1.86h0a1.85,1.85,0,0,0,1.86,1.85h0a1.85,1.85,0,0,0,1.85-1.85h0A1.85,1.85,0,0,0,29.93,281.73Z"/><path class="cls-2" d="M34.58,273.67a1.85,1.85,0,1,0,1.86,1.85A1.85,1.85,0,0,0,34.58,273.67Z"/><path class="cls-2" d="M34.58,289.8a1.86,1.86,0,1,0,1.86,1.85A1.85,1.85,0,0,0,34.58,289.8Z"/><path class="cls-2" d="M20.61,233.33h0a1.85,1.85,0,0,0-1.85,1.85h0A1.85,1.85,0,0,0,20.61,237h0a1.85,1.85,0,0,0,1.85-1.85h0A1.85,1.85,0,0,0,20.61,233.33Z"/><path class="cls-2" d="M26.56,228.44H24a1.86,1.86,0,0,0,2.58,0Z"/><path class="cls-2" d="M20.61,249.46h0a1.85,1.85,0,0,0-1.85,1.85h0a1.85,1.85,0,0,0,1.85,1.86h0a1.85,1.85,0,0,0,1.85-1.86h0A1.85,1.85,0,0,0,20.61,249.46Z"/><path class="cls-2" d="M25.27,241.4a1.85,1.85,0,1,0,1.85,1.85A1.85,1.85,0,0,0,25.27,241.4Z"/><path class="cls-2" d="M20.61,265.6h0a1.85,1.85,0,0,0-1.85,1.85h0a1.85,1.85,0,0,0,1.85,1.85h0a1.85,1.85,0,0,0,1.85-1.85h0A1.85,1.85,0,0,0,20.61,265.6Z"/><path class="cls-2" d="M25.27,257.53a1.85,1.85,0,1,0,1.85,1.85A1.85,1.85,0,0,0,25.27,257.53Z"/><path class="cls-2" d="M20.61,281.73h0a1.85,1.85,0,0,0-1.85,1.86h0a1.85,1.85,0,0,0,1.85,1.85h0a1.85,1.85,0,0,0,1.85-1.85h0A1.85,1.85,0,0,0,20.61,281.73Z"/><path class="cls-2" d="M25.27,273.67a1.85,1.85,0,1,0,1.85,1.85A1.85,1.85,0,0,0,25.27,273.67Z"/><path class="cls-2" d="M25.27,289.8a1.86,1.86,0,1,0,1.85,1.85A1.85,1.85,0,0,0,25.27,289.8Z"/><path class="cls-2" d="M11.3,233.33h0a1.85,1.85,0,0,0-1.85,1.85h0A1.85,1.85,0,0,0,11.29,237h0a1.85,1.85,0,0,0,1.85-1.85h0A1.85,1.85,0,0,0,11.3,233.33Z"/><path class="cls-2" d="M17.24,228.44H14.66a1.86,1.86,0,0,0,2.58,0Z"/><path class="cls-2" d="M11.3,249.46h0a1.85,1.85,0,0,0-1.85,1.85h0a1.85,1.85,0,0,0,1.85,1.86h0a1.85,1.85,0,0,0,1.85-1.86h0A1.85,1.85,0,0,0,11.3,249.46Z"/><circle class="cls-2" cx="15.95" cy="243.25" r="1.85"/><path class="cls-2" d="M11.3,265.6h0a1.85,1.85,0,0,0-1.85,1.85h0a1.85,1.85,0,0,0,1.85,1.85h0a1.85,1.85,0,0,0,1.85-1.85h0A1.85,1.85,0,0,0,11.3,265.6Z"/><path class="cls-2" d="M16,257.53a1.85,1.85,0,1,0,1.85,1.85A1.85,1.85,0,0,0,16,257.53Z"/><path class="cls-2" d="M16,273.67a1.85,1.85,0,1,0,1.85,1.85A1.85,1.85,0,0,0,16,273.67Z"/><path class="cls-3" d="M248.61,209.14c-2.31-4.94-6.91-9.3-13.35-13h0c-8.19-4.73-19.36-8.42-32.59-10.9a50.36,50.36,0,0,0-18.91-18.84,64.54,64.54,0,0,0-22.51-7.69c-19.37-3-40.22,1.41-58.59,11-24.28-3-46.16-.76-60.28,7.44h0c-14.1,8.2-17.88,20.87-12.63,34.92-16.55,10.68-24.09,22.78-18.84,34,2.3,4.92,6.9,9.28,13.33,13,8.2,4.74,19.38,8.42,32.61,10.91a50.4,50.4,0,0,0,18.94,18.85,64.38,64.38,0,0,0,22.48,7.69c19.36,3,40.21-1.41,58.59-11,24.28,3,46.17.77,60.28-7.43h0c14.13-8.21,17.91-20.9,12.65-35C246.3,232.42,253.84,220.33,248.61,209.14Z"/><path d="M250.19,172.56h0a1,1,0,0,0-1,1h0c0,6.51-4.3,13.51-12.41,20.27a1,1,0,0,0-.62.23,80.9,80.9,0,0,1-7.29,5.28,1,1,0,0,0-.46.83l-.12,43.25a1,1,0,0,0,.52.88.76.76,0,0,0,.33.11.93.93,0,0,0,.46.12,1,1,0,0,0,.55-.16c13.66-8.83,20.89-18.36,20.92-27.56l.12-43.25A1,1,0,0,0,250.19,172.56Z"/><path class="cls-3" d="M229.71,199.72c-10.58,6.83-24.83,13.07-41.79,18.13a109.34,109.34,0,0,1-31.14,24.26c24.29,3,46.17.77,60.29-7.43h0C231.19,226.47,235,213.78,229.71,199.72Z"/><path d="M176.59,244.39a163.09,163.09,0,0,1-19.94-1.29l-3.17-.39,2.83-1.49a108.64,108.64,0,0,0,30.86-24l.19-.21.27-.09c16.58-4.94,30.94-11.17,41.54-18l1-.67.44,1.16c5.66,15.14,1,28-13.08,36.17C207.54,241.37,193.36,244.39,176.59,244.39ZM160,241.48c23.68,2.5,43.66-.19,56.52-7.66s17.25-19,12.63-32.58c-10.58,6.63-24.62,12.67-40.71,17.49A110.39,110.39,0,0,1,160,241.48Z"/><path class="cls-3" d="M29.67,168.71c10.58-6.82,24.82-13.06,41.76-18.11a109.25,109.25,0,0,1,31.16-24.26c-24.28-3-46.16-.76-60.28,7.44h0C28.2,142,24.42,154.66,29.67,168.71Z"/><path d="M29.17,170.22l-.43-1.16c-5.65-15.12-1-28,13.06-36.14,13.81-8,35.44-10.72,60.91-7.57l3.18.39-2.84,1.48a108.68,108.68,0,0,0-30.87,24l-.19.21-.27.09c-16.57,4.94-30.92,11.16-41.5,18Zm53.62-44.16c-16.41,0-30.23,2.93-40,8.59C30,142.07,25.59,153.6,30.19,167.19c10.58-6.62,24.6-12.65,40.68-17.47A110.4,110.4,0,0,1,99.32,127,159.54,159.54,0,0,0,82.79,126.06Z"/><path class="cls-3" d="M208.92,171.91c10.39,9.29,17.43,18.83,20.79,27.81,16.54-10.67,24.07-22.76,18.84-34-2.31-4.93-6.91-9.29-13.35-13h0c-8.2-4.73-19.37-8.42-32.59-10.9A52.17,52.17,0,0,1,208.92,171.91Z"/><path d="M229.21,201.23l-.43-1.16c-3.34-8.91-10.43-18.39-20.53-27.42l-.36-.33,0-.49a51.46,51.46,0,0,0-6.18-29.49l-1.06-1.87,2.11.4c13.59,2.55,24.66,6.25,32.91,11,6.78,3.92,11.4,8.44,13.75,13.46,5.29,11.31-1.53,23.82-19.2,35.22ZM210,171.49c9.7,8.76,16.67,18,20.24,26.72,16-10.6,22.15-21.94,17.44-32-2.17-4.64-6.52-8.87-12.94-12.58-7.63-4.4-17.79-7.89-30.22-10.38A53.7,53.7,0,0,1,210,171.49Z"/><path class="cls-3" d="M50.45,196.52C40.07,187.23,33,177.69,29.67,168.71c-16.55,10.68-24.09,22.78-18.84,34,2.3,4.92,6.9,9.28,13.33,13,8.2,4.74,19.38,8.42,32.61,10.91A52.32,52.32,0,0,1,50.45,196.52Z"/><path d="M58.7,228l-2.11-.4C43,225,31.9,221.32,23.66,216.56c-6.77-3.91-11.39-8.43-13.74-13.44-5.3-11.32,1.52-23.84,19.21-35.25l1.05-.67.43,1.16c3.33,8.91,10.42,18.39,20.51,27.42l.37.33,0,.49a51.48,51.48,0,0,0,6.19,29.5ZM29.19,170.22c-16,10.61-22.18,22-17.46,32.05,2.17,4.63,6.52,8.86,12.93,12.56,7.63,4.4,17.8,7.89,30.24,10.38a53.71,53.71,0,0,1-5.48-28.27C39.71,188.18,32.75,179,29.19,170.22Z"/><path class="cls-3" d="M187.92,217.85c17-5.06,31.21-11.3,41.79-18.13-3.36-9-10.4-18.52-20.79-27.81a70.28,70.28,0,0,1-6.35,23.62A91.29,91.29,0,0,1,187.92,217.85Z"/><path d="M184.86,219.81l2.31-2.62a90.16,90.16,0,0,0,14.49-22.08,69,69,0,0,0,6.26-23.28l.16-2,1.51,1.34c10.33,9.24,17.61,19,21.06,28.21l.28.75-.68.44c-10.75,6.94-25.29,13.25-42,18.25ZM209.73,174a72.11,72.11,0,0,1-6.25,21.94,90.94,90.94,0,0,1-12.58,19.95c14.85-4.66,27.77-10.36,37.59-16.57C225.22,191.07,218.76,182.36,209.73,174Z"/><path class="cls-3" d="M50.45,196.52a70.36,70.36,0,0,1,6.33-23.6A91.58,91.58,0,0,1,71.43,150.6c-16.94,5.05-31.18,11.29-41.76,18.11C33,177.69,40.07,187.23,50.45,196.52Z"/><path d="M51.29,198.62l-1.51-1.35c-10.32-9.24-17.6-19-21-28.21l-.29-.75.68-.44c10.75-6.93,25.27-13.23,42-18.23l3.34-1-2.31,2.62a90.45,90.45,0,0,0-14.49,22.08,69.19,69.19,0,0,0-6.24,23.26ZM30.9,169.11c3.26,8.25,9.71,17,18.75,25.33a71.89,71.89,0,0,1,6.22-21.93,90.94,90.94,0,0,1,12.58-19.95C53.61,157.22,40.7,162.91,30.9,169.11Z"/><path class="cls-3" d="M102.59,126.34a214.69,214.69,0,0,1,48.1,11.95c19.05-.54,36.82.73,51.92,3.56A50.46,50.46,0,0,0,183.69,123h0a64.54,64.54,0,0,0-22.51-7.69C141.82,112.32,121,116.73,102.59,126.34Z"/><path d="M204.54,143.23l-2.12-.4c-15.16-2.84-33-4.07-51.7-3.54h-.2l-.18-.06a214.93,214.93,0,0,0-47.87-11.9l-3.19-.39,2.84-1.49c19.3-10.1,40.33-14,59.21-11.12a65.61,65.61,0,0,1,22.86,7.81,51.22,51.22,0,0,1,19.29,19.22Zm-45.43-6.06a244.62,244.62,0,0,1,41.51,3.3,49.37,49.37,0,0,0-17.43-16.6A63.73,63.73,0,0,0,161,116.31c-17.54-2.72-37,.64-55.1,9.46a219.17,219.17,0,0,1,44.92,11.51C153.62,137.21,156.38,137.17,159.11,137.17Z"/><path class="cls-3" d="M56.77,226.6a50.47,50.47,0,0,0,18.94,18.85,64.38,64.38,0,0,0,22.48,7.69c19.36,3,40.22-1.41,58.59-11a215.54,215.54,0,0,1-48.07-12C89.65,230.7,71.88,229.43,56.77,226.6Z"/><path d="M110.48,255.07A81.14,81.14,0,0,1,98,254.13a65.66,65.66,0,0,1-22.83-7.81A51.23,51.23,0,0,1,55.9,227.09l-1.06-1.87,2.12.39c15.17,2.85,33.05,4.08,51.72,3.55h.2l.18.07a215.1,215.1,0,0,0,47.84,11.9l3.18.39L157.24,243C142.09,250.93,125.88,255.07,110.48,255.07ZM58.76,228a49.48,49.48,0,0,0,17.45,16.62,63.49,63.49,0,0,0,22.14,7.56c17.53,2.72,37-.65,55.09-9.48a218.26,218.26,0,0,1-44.89-11.51A253,253,0,0,1,58.76,228Z"/><path class="cls-3" d="M150.69,138.29a214.69,214.69,0,0,0-48.1-11.95A109.25,109.25,0,0,0,71.43,150.6a292.84,292.84,0,0,1,38.5-8.56A326.45,326.45,0,0,1,150.69,138.29Z"/><path d="M68.37,152.55l2.31-2.61a110.74,110.74,0,0,1,31.44-24.49l.28-.14.31,0a217.09,217.09,0,0,1,48.33,12l4.81,1.79-5.13.15A325.18,325.18,0,0,0,110.08,143a289.51,289.51,0,0,0-38.36,8.53Zm34.4-25.18a109.33,109.33,0,0,0-28.19,21.27,298,298,0,0,1,35.2-7.59,331.25,331.25,0,0,1,35.69-3.57A213.22,213.22,0,0,0,102.77,127.37Z"/><path class="cls-3" d="M187.92,217.85a292.48,292.48,0,0,1-38.5,8.56,325.51,325.51,0,0,1-40.71,3.75,215.54,215.54,0,0,0,48.07,12A109.34,109.34,0,0,0,187.92,217.85Z"/><path d="M157,243.14l-.32,0a216.9,216.9,0,0,1-48.29-12l-4.81-1.8,5.13-.14a325.94,325.94,0,0,0,40.59-3.74,290.39,290.39,0,0,0,38.36-8.53l3.35-1-2.31,2.61A110.52,110.52,0,0,1,157.24,243Zm-43-12.17a213.79,213.79,0,0,0,42.67,10.11,109.78,109.78,0,0,0,28.19-21.27,298,298,0,0,1-35.2,7.59A330.45,330.45,0,0,1,113.92,231Z"/><path class="cls-3" d="M108.71,230.16A214.46,214.46,0,0,1,76.55,215.1a156.8,156.8,0,0,1-26.1-18.58,52.32,52.32,0,0,0,6.32,30.08C71.88,229.43,89.65,230.7,108.71,230.16Z"/><path d="M100.27,231.28a240.63,240.63,0,0,1-43.68-3.7l-.46-.09-.23-.4a53.57,53.57,0,0,1-6.45-30.65l.16-2,1.51,1.35a155.76,155.76,0,0,0,25.93,18.45,212.49,212.49,0,0,0,32,15l4.81,1.79-5.13.15C105.9,231.24,103.07,231.28,100.27,231.28ZM57.42,225.7a244.17,244.17,0,0,0,46.18,3.56A212.46,212.46,0,0,1,76.05,216a159.45,159.45,0,0,1-24.72-17.34A51,51,0,0,0,57.42,225.7Z"/><path class="cls-3" d="M208.92,171.91a52.17,52.17,0,0,0-6.31-30.06c-15.1-2.83-32.87-4.1-51.92-3.56a214.08,214.08,0,0,1,32.13,15.05A156.78,156.78,0,0,1,208.92,171.91Z"/><path d="M209.76,174l-1.51-1.35a155.73,155.73,0,0,0-25.93-18.44,212.11,212.11,0,0,0-32-15l-4.82-1.8,5.14-.14c18.81-.53,36.83.71,52.13,3.58l.46.08.23.41A53.4,53.4,0,0,1,209.92,172Zm-54-34.81a212,212,0,0,1,27.52,13.28,161.42,161.42,0,0,1,24.73,17.34A51.14,51.14,0,0,0,202,142.75,243.06,243.06,0,0,0,155.8,139.19Z"/><path class="cls-3" d="M50.45,196.52a156.8,156.8,0,0,0,26.1,18.58,214.46,214.46,0,0,0,32.16,15.06,325.51,325.51,0,0,0,40.71-3.75,292.48,292.48,0,0,0,38.5-8.56,91.29,91.29,0,0,0,14.65-22.32,70.28,70.28,0,0,0,6.35-23.62,156.78,156.78,0,0,0-26.1-18.57,214.08,214.08,0,0,0-32.13-15.05A326.45,326.45,0,0,0,109.93,142a292.84,292.84,0,0,0-38.5,8.56,91.58,91.58,0,0,0-14.65,22.32A70.36,70.36,0,0,0,50.45,196.52Z"/><path d="M108.55,231.16l-.19-.06A215.53,215.53,0,0,1,76.05,216a157.68,157.68,0,0,1-26.27-18.69l-.36-.33,0-.5a71.15,71.15,0,0,1,6.42-23.93,92.23,92.23,0,0,1,14.81-22.57l.19-.22.28-.08a293.24,293.24,0,0,1,38.63-8.59,327.12,327.12,0,0,1,40.88-3.76h.19l.19.07a215.11,215.11,0,0,1,32.28,15.12,158.84,158.84,0,0,1,26.27,18.69l.37.33,0,.5a71,71,0,0,1-6.44,23.95,92.23,92.23,0,0,1-14.81,22.57l-.19.22-.27.08a293.24,293.24,0,0,1-38.63,8.59,328.22,328.22,0,0,1-40.84,3.76Zm-57.06-35a156.53,156.53,0,0,0,25.56,18.12,213,213,0,0,0,31.83,14.92,324.84,324.84,0,0,0,40.39-3.73A292.27,292.27,0,0,0,187.36,217a90.54,90.54,0,0,0,14.3-21.87,69.19,69.19,0,0,0,6.22-22.79,156.07,156.07,0,0,0-25.56-18.11,212.69,212.69,0,0,0-31.8-14.92A326,326,0,0,0,110.08,143,293.37,293.37,0,0,0,72,151.47a90.54,90.54,0,0,0-14.3,21.87A69.53,69.53,0,0,0,51.49,196.11Z"/><g class="cls-4"><path d="M144.13,175c-7.6-4.39-19.88-4.39-27.43,0s-7.51,11.5.09,15.89,19.89,4.39,27.44,0,7.51-11.5-.1-15.89"/></g><g class="cls-4"><g class="cls-5"><path d="M144.14,25.86c-7.61-4.39-19.9-4.39-27.44,0s-7.52,11.51.09,15.9,19.88,4.39,27.44,0,7.51-11.51-.09-15.9"/></g></g><path d="M130.58,108.11c-9.83,0-19.67-2.16-27.18-6.5S91.79,91.48,91.78,85.26s4.06-12,11.45-16.25c14.92-8.67,39.27-8.67,54.29,0,7.49,4.32,11.62,10.13,11.63,16.35s-4.06,12-11.45,16.25S140.41,108.11,130.58,108.11Zm-.24-43.63c-9.47,0-18.93,2.09-26.11,6.26-6.75,3.92-10.46,9.08-10.45,14.52s3.78,10.67,10.62,14.62c14.46,8.35,37.92,8.35,52.29,0,6.75-3.92,10.46-9.08,10.46-14.51s-3.79-10.68-10.63-14.63C149.29,66.57,139.81,64.48,130.34,64.48Z"/><path d="M38.8,141.37c-9.83,0-19.67-2.16-27.18-6.5S0,124.74,0,118.52s4.06-12,11.45-16.25c14.92-8.67,39.28-8.67,54.29,0h0c7.49,4.32,11.62,10.13,11.63,16.35s-4.06,11.95-11.45,16.25S48.63,141.37,38.8,141.37Zm-.24-43.63c-9.47,0-18.92,2.09-26.11,6.26C5.7,107.92,2,113.08,2,118.51s3.78,10.68,10.62,14.63c14.47,8.35,37.92,8.35,52.29,0,6.75-3.92,10.47-9.08,10.46-14.51S71.59,108,64.74,104h0C57.51,99.83,48,97.74,38.56,97.74Z"/><path d="M229.34,98a14.41,14.41,0,0,0-13.07,0c-3.6,2.09-3.58,5.48,0,7.57a14.41,14.41,0,0,0,13.07,0c3.6-2.09,3.58-5.48,0-7.57"/><path d="M59.73,75.6a14.41,14.41,0,0,0-13.07,0c-3.6,2.09-3.58,5.48,0,7.57a14.41,14.41,0,0,0,13.07,0c3.6-2.09,3.58-5.48,0-7.57"/><path d="M172.54,97.73a20.61,20.61,0,0,1-10.12-2.43c-2.91-1.67-4.51-4-4.52-6.45s1.58-4.75,4.45-6.41c5.56-3.24,14.63-3.23,20.23,0h0c2.91,1.68,4.51,4,4.51,6.46s-1.57,4.74-4.44,6.41A20.58,20.58,0,0,1,172.54,97.73ZM172.45,82a18.42,18.42,0,0,0-9.09,2.19c-2.23,1.29-3.46,3-3.46,4.68s1.25,3.41,3.52,4.72c5,2.91,13.21,2.91,18.22,0,2.23-1.29,3.46-3,3.45-4.68s-1.25-3.42-3.51-4.72A18.63,18.63,0,0,0,172.45,82Z"/><path d="M71.47,54.23a17.6,17.6,0,0,1-8.7-2.12c-2.53-1.45-3.92-3.45-3.93-5.62s1.37-4.15,3.87-5.6c4.78-2.78,12.58-2.78,17.39,0h0C82.63,42.35,84,44.35,84,46.52s-1.37,4.14-3.86,5.59A17.64,17.64,0,0,1,71.47,54.23Zm-.08-13.45a15.64,15.64,0,0,0-7.68,1.84c-1.85,1.08-2.87,2.45-2.87,3.86s1,2.82,2.93,3.9a17,17,0,0,0,15.38,0C81,49.31,82,47.93,82,46.52s-1-2.81-2.92-3.9A15.75,15.75,0,0,0,71.39,40.78Z"/><path d="M188,15.42a17.77,17.77,0,0,1-8.71-2.11c-2.52-1.46-3.92-3.46-3.92-5.63s1.37-4.15,3.87-5.6c4.78-2.77,12.58-2.77,17.39,0,2.52,1.46,3.91,3.46,3.92,5.63s-1.37,4.14-3.87,5.6A17.6,17.6,0,0,1,188,15.42ZM187.88,2a15.61,15.61,0,0,0-7.68,1.84c-1.85,1.08-2.87,2.45-2.87,3.87s1,2.81,2.92,3.89a17,17,0,0,0,15.39,0c1.85-1.08,2.87-2.45,2.87-3.87s-1-2.81-2.92-3.9h0A15.86,15.86,0,0,0,187.88,2Z"/><path class="cls-3" d="M11.18,246.43a16.77,16.77,0,0,1-1.63-7.22L9.67,196a16.63,16.63,0,0,0,1.64,7.22c2.25,4.82,6.76,9.18,13.27,12.93l-.12,43.25.12-43.25c7.9,4.57,18.74,8.24,32.14,10.83l-.12,43.25c-13.4-2.59-24.24-6.26-32.15-10.83C18,255.61,13.43,251.25,11.18,246.43Z"/><path class="cls-3" d="M56.6,270.19l.12-43.25.33.06-.12,43.1.12-43.1.11,0L57,270.27Z"/><path d="M57,226.14c-13.37-2.51-24.2-6.13-32.21-10.75-6.42-3.71-10.79-7.95-13-12.59A16,16,0,0,1,10.3,196v0a1,1,0,0,0-1-1h0a1,1,0,0,0-1,1h0l-.12,43.25a17.89,17.89,0,0,0,1.74,7.68c2.36,5,7,9.55,13.78,13.47,8.2,4.73,19.25,8.43,32.84,11l.18,0a1,1,0,0,0,.64-.23,1,1,0,0,0,.36-.77l.12-43.25A1,1,0,0,0,57,226.14Z"/><path class="cls-3" d="M75.87,289.05A50.22,50.22,0,0,1,57,270.27L57.16,227A50.22,50.22,0,0,0,76,245.8l-.12,43.25L76,245.8a64.35,64.35,0,0,0,22.38,7.64q-.06,21.63-.13,43.25.08-21.63.13-43.25c18.49,2.88,39.09-1,58.24-10.89l-.12,43.08.12-43.08.13-.07-.12,43.1.12-43.1.09,0-.12,43.25c-19.22,10-39.9,13.9-58.47,11A64.29,64.29,0,0,1,75.87,289.05Z"/><path d="M156.83,242.64l-.12,43.25c-19.12,10-39.9,13.9-58.56,11a64.81,64.81,0,0,1-22.53-7.71,50.34,50.34,0,0,1-18.9-18.81l.12-43.25a50.41,50.41,0,0,0,18.9,18.81,64.79,64.79,0,0,0,22.54,7.71C116.93,256.54,137.71,252.63,156.83,242.64Z"/><path d="M110.44,298.83A82.42,82.42,0,0,1,98,297.89a65.81,65.81,0,0,1-22.88-7.83,51.09,51.09,0,0,1-19.27-19.19,1.06,1.06,0,0,1-.13-.5l.12-43.25a1,1,0,0,1,1.87-.49,49.14,49.14,0,0,0,18.53,18.45,63.92,63.92,0,0,0,22.19,7.58c18.43,2.86,39-1,57.94-10.9a1,1,0,0,1,1.46.88l-.12,43.25a1,1,0,0,1-.54.89C142,294.69,125.82,298.83,110.44,298.83ZM57.72,270.11a49.14,49.14,0,0,0,18.4,18.22,63.84,63.84,0,0,0,22.19,7.58c18.25,2.83,38.61-.94,57.4-10.63l.12-41c-18.91,9.53-39.33,13.21-57.71,10.36a65.81,65.81,0,0,1-22.88-7.83,51.63,51.63,0,0,1-17.41-16.16Z"/><path class="cls-3" d="M216.82,235c-13.53,7.86-34.83,10.48-60,7.39l-.12,43.25h0v.21c25.25,3.09,46.64.45,60.24-7.46,9.8-5.69,14.88-13.73,14.9-23.25l.13-43.25c0,1.35.2-1.29,0,0h0c0,9.52-5.4,17.44-15.16,23.11"/><path d="M176.39,288.15a162.58,162.58,0,0,1-19.8-1.27,1,1,0,0,1-.88-1v-.21l.12-43.25a1,1,0,0,1,.34-.75,1,1,0,0,1,.78-.24c25,3.06,46,.48,59.37-7.26l1,1.72c-13.5,7.85-34.6,10.57-59.49,7.66L157.71,285c24.65,2.9,45.49.27,58.74-7.43,9.4-5.46,14.38-13.21,14.4-22.39l.1-33.48c-2.43,5.55-7,10.37-13.62,14.2l-1-1.72c9.56-5.56,14.63-13.26,14.66-22.25h0a1,1,0,0,1,0-.17c.15-.86.54-1.25,1.19-1.18s.94.57.87,1.47a3,3,0,0,1-.07.46l-.13,42.68c0,9.94-5.35,18.28-15.4,24.12S193.21,288.15,176.39,288.15Z"/><path d="M207.41,238.58a1,1,0,0,0-.9-.14c-13.09,4.34-30.22,5.38-49.56,3a1,1,0,0,0-.78.24,1,1,0,0,0-.34.75l-.12,43.25v.21a1,1,0,0,0,.88,1,161.59,161.59,0,0,0,19.64,1.26c11.69,0,22.16-1.46,30.91-4.36a1,1,0,0,0,.68-.94V239.39A1,1,0,0,0,207.41,238.58Z"/><path d="M111.91,253.82a1,1,0,0,0-.71-.29h0a79.31,79.31,0,0,1-12.76-.87,63.92,63.92,0,0,1-22.19-7.58,49.14,49.14,0,0,1-18.53-18.45,1,1,0,0,0-1.87.49l-.12,43.25a1.06,1.06,0,0,0,.13.5,51.09,51.09,0,0,0,19.27,19.19A65.81,65.81,0,0,0,98,297.89a81.75,81.75,0,0,0,12.36.89h.85a1,1,0,0,0,1-1V254.53A1,1,0,0,0,111.91,253.82Z"/><path class="cls-3" d="M111.2,254.53v43.25c15-.13,30.74-4.18,45.51-11.89l.12-43.25C142,250.37,126.24,254.42,111.2,254.53Z"/><path d="M111.2,298.78a1,1,0,0,1-.7-.29,1,1,0,0,1-.3-.71V254.53a1,1,0,0,1,1-1c15-.11,30.63-4.18,45.17-11.77a1,1,0,0,1,1.46.88l-.12,43.25a1,1,0,0,1-.54.89,102.1,102.1,0,0,1-46,12Zm1-43.27v41.25a100.05,100.05,0,0,0,43.51-11.48l.12-41A101.94,101.94,0,0,1,112.2,255.51Z"/></svg>