<svg xmlns="http://www.w3.org/2000/svg" xmlns:xlink="http://www.w3.org/1999/xlink" viewBox="0 0 229.25 301.62"><defs><pattern id="New_Pattern_2" data-name="New Pattern 2" width="9.32" height="16.14" patternTransform="translate(5.95 11.9) scale(0.8)" patternUnits="userSpaceOnUse" viewBox="0 0 9.32 16.14"><rect width="9.32" height="16.14" fill="none"/><circle cx="9.32" cy="16.14" r="2.1" fill="#010101"/><circle cy="16.14" r="2.1" fill="#010101"/><circle cx="4.66" cy="8.07" r="2.1" fill="#010101"/><circle cx="9.32" r="2.1" fill="#010101"/><circle r="2.1" fill="#010101"/></pattern></defs><title>serverless</title><g id="Layer_2" data-name="Layer 2"><g id="Layer_1-2" data-name="Layer 1"><path d="M137.8,238.73c-24.92-14.39-65.19-14.39-90,0s-24.63,37.71.29,52.1,65.19,14.39,90,0,24.63-37.72-.29-52.1" fill="url(#New_Pattern_2)"/><polygon points="149.62 22.73 88.3 58.13 130.92 82.9 192.24 47.5 149.62 22.73" stroke="#000" stroke-linejoin="round" stroke-width="2"/><polygon points="143.48 174.83 97.64 211.67 97.8 211.05 83.53 202.76 66.83 253.54 109.45 278.32 143.48 174.83" stroke="#000" stroke-linejoin="round" stroke-width="2"/><polygon points="166.67 134.77 124.05 110 166.14 85.7 208.76 110.47 166.67 134.77" stroke="#000" stroke-linejoin="round" stroke-width="2"/><polygon points="97.97 211.15 55.34 186.38 101.24 149.5 143.87 174.27 97.97 211.15"/><polygon points="97.97 211.15 55.34 186.38 88.45 58.29 131.08 83.06 97.97 211.15" fill="#fff" stroke="#000" stroke-linejoin="round" stroke-width="2"/><path d="M166.67,134.77l42.09-24.3L109.2,279.06l.25-.74,34-103.49L97.64,211.67,130.92,82.9l61.32-35.4ZM109.89,277.55,208.22,111l-41.87,24.18,25.57-87.28L131.08,83.06,98,211.15l45.9-36.88-34,103.28" fill="#fff" stroke="#000" stroke-linejoin="round" stroke-width="2"/><polygon points="97.64 211.67 55.01 186.9 88.3 58.13 130.92 82.9 97.64 211.67" fill="#fff" stroke="#000" stroke-linejoin="round" stroke-width="2"/><polygon points="207.9 111.57 166.08 135.56 192.24 47.5 130.92 82.9 97.64 211.69 143.45 175.09 109.57 278.09 207.9 111.57" fill="#fff" stroke="#000" stroke-linejoin="round" stroke-width="2"/><circle cx="3.22" cy="78.47" r="3.22" fill="#231f20"/><circle cx="25.41" cy="78.47" r="3.22" fill="#231f20"/><circle cx="69.8" cy="78.47" r="3.22" fill="#231f20"/><circle cx="92" cy="78.47" r="3.22" fill="#231f20"/><circle cx="47.61" cy="78.47" r="3.22" fill="#231f20"/><circle cx="3.22" cy="100.67" r="3.22" fill="#231f20"/><circle cx="25.41" cy="100.67" r="3.22" fill="#231f20"/><circle cx="69.8" cy="100.67" r="3.22" fill="#231f20"/><circle cx="92" cy="100.67" r="3.22" fill="#231f20"/><circle cx="47.61" cy="100.67" r="3.22" fill="#231f20"/><circle cx="3.22" cy="122.86" r="3.22" fill="#231f20"/><circle cx="25.41" cy="122.86" r="3.22" fill="#231f20"/><circle cx="69.8" cy="122.86" r="3.22" fill="#231f20"/><circle cx="92" cy="122.86" r="3.22" fill="#231f20"/><circle cx="47.61" cy="122.86" r="3.22" fill="#231f20"/><circle cx="3.22" cy="145.06" r="3.22" fill="#231f20"/><circle cx="25.41" cy="145.06" r="3.22" fill="#231f20"/><circle cx="69.8" cy="145.06" r="3.22" fill="#231f20"/><circle cx="92" cy="145.06" r="3.22" fill="#231f20"/><circle cx="47.61" cy="145.06" r="3.22" fill="#231f20"/><circle cx="3.22" cy="167.26" r="3.22" fill="#231f20"/><circle cx="25.41" cy="167.26" r="3.22" fill="#231f20"/><circle cx="69.8" cy="167.26" r="3.22" fill="#231f20"/><circle cx="92" cy="167.26" r="3.22" fill="#231f20"/><circle cx="47.61" cy="167.26" r="3.22" fill="#231f20"/><polygon points="206.22 165.71 186.11 177.25 198.69 134.9 169.21 151.93 153.2 213.85 175.23 196.25 158.94 245.78 206.22 165.71" fill="none" stroke="#000" stroke-linejoin="round" stroke-width="2"/><line x1="194.81" y1="88.34" x2="220.98" y2="0.28" fill="#fff" stroke="#000" stroke-linejoin="round" stroke-width="2"/><line x1="216.15" y1="60.55" x2="228.29" y2="19.71" fill="#fff" stroke="#000" stroke-linejoin="round" stroke-width="2"/></g></g></svg>