<?xml version="1.0" encoding="utf-8"?>
<!-- Generator: Adobe Illustrator 26.5.0, SVG Export Plug-In . SVG Version: 6.00 Build 0)  -->
<svg version="1.1" id="Layer_1" xmlns="http://www.w3.org/2000/svg" xmlns:xlink="http://www.w3.org/1999/xlink" x="0px" y="0px"
	 viewBox="0 0 2674.9 417" style="enable-background:new 0 0 2674.9 417;" xml:space="preserve">
<style type="text/css">
	.st0{fill:#6CB52D;}
</style>
<g>
	<path class="st0" d="M367.6,29.3c-5.8,14.1-13.3,26.6-21.6,37.8C309.4,29.7,258.2,6,201.7,6C90.6,6,0,96.2,0,207.6
		c0,58.2,24.9,110.6,64.4,147.6l7.5,6.7c34.9,29.5,80.3,47.4,129.7,47.4c106,0,193.3-82.7,200.8-187.1
		C408.3,171.5,392.9,106.6,367.6,29.3z M93.6,356.9c-5.8,7.5-16.6,8.3-24.1,2.5c-7.5-5.8-8.3-16.6-2.5-24.1
		c5.8-7.5,16.6-8.3,24.1-2.5C98.1,338.6,99.4,349.4,93.6,356.9z M366.3,296.6c-49.5,66.1-155.9,43.7-223.7,47c0,0-12.1,0.8-24.1,2.5
		c0,0,4.6-2.1,10.4-4.2c47.8-16.6,70.3-20,99.4-34.9c54.5-27.9,108.9-89,119.8-152.2c-20.8,60.7-84,113.1-141.4,134.3
		c-39.5,14.6-110.6,28.7-110.6,28.7l-2.9-1.7C44.9,292.5,43.2,187.7,131.4,154c38.7-15,75.3-6.7,117.3-16.6
		C293.1,127,344.7,93.7,365.5,50C388.8,120.3,417.1,229.3,366.3,296.6z"/>
	<g>
		<path class="st0" d="M516.8,286.6c-5-2.5-8.3-8.3-8.3-15.4c0-10,7.9-18.3,18.3-18.3c3.7,0,7.1,1.2,9.6,2.5
			c18.7,12.5,38.7,18.7,56.1,18.7c19.1,0,30.4-8.3,30.4-21.2v-0.8c0-15.4-20.8-20.4-43.7-27.4c-28.7-8.3-61.1-20-61.1-57.4v-0.8
			c0-37,30.8-59.5,69.4-59.5c20.8,0,42.4,5.8,61.5,15.8c6.2,3.3,10.8,9.1,10.8,17c0,10.4-8.3,18.3-18.7,18.3c-3.7,0-5.8-0.8-8.7-2.1
			c-15.8-8.3-32-13.3-45.7-13.3c-17.5,0-27.4,8.3-27.4,19.1v0.8c0,14.6,21.2,20.4,44.1,27.9c28.7,8.7,60.7,22,60.7,57v0.8
			c0,41.2-32,61.5-72.3,61.5C566.3,309.9,539.3,302,516.8,286.6z"/>
		<path class="st0" d="M680.7,129.9c0-12.5,9.6-22.5,22-22.5s22.5,10,22.5,22.5v13.3c14.6-20.4,34.9-36.6,66.5-36.6
			c45.7,0,90.6,36.2,90.6,101.5v0.8c0,64.9-44.5,101.5-90.6,101.5c-32.4,0-52.8-16.2-66.5-34.5v69c0,12.5-10,22.5-22.5,22.5
			c-12.1,0-22-9.6-22-22.5V129.9z M837.4,208.9V208c0-37.8-25.4-62.4-55.7-62.4s-57,25.4-57,62.4v0.8c0,37.4,26.6,62.4,57,62.4
			C812.1,271.7,837.4,247.5,837.4,208.9z"/>
		<path class="st0" d="M899.8,129.9c0-12.5,9.6-22.5,22-22.5c12.5,0,22.5,10,22.5,22.5v10.8c2.1-16.6,29.5-33.3,49.1-33.3
			c14.1,0,22,9.1,22,22c0,11.6-7.9,19.5-17.9,21.6c-32,5.4-53.6,33.3-53.6,71.9v64.4c0,12.1-10,22-22.5,22c-12.1,0-22-9.6-22-22
			V129.9H899.8z"/>
		<path class="st0" d="M1033.3,130.3c0-12.5,9.6-22.5,22-22.5s22.5,10,22.5,22.5v157.6c0,12.5-10,22-22.5,22c-12.1,0-22-9.6-22-22
			V130.3z"/>
		<path class="st0" d="M1100.6,130.3c0-12.5,9.6-22.5,22-22.5s22.5,10,22.5,22.5v9.1c12.5-18.3,30.8-32,61.1-32
			c44.1,0,69.4,29.5,69.4,74.8v105.2c0,12.5-9.6,22-22,22s-22.5-9.6-22.5-22V196c0-30.4-15-47.8-42-47.8
			c-25.8,0-44.1,18.3-44.1,48.6v91.1c0,12.5-10,22-22.5,22c-12.1,0-22-9.6-22-22L1100.6,130.3L1100.6,130.3z"/>
		<path class="st0" d="M1472.8,107c-12.5,0-22.5,10-22.5,22.5v13.3c-14.6-20.4-34.9-36.6-66.5-36.6c-45.7,0-90.6,36.2-90.6,101.5
			v0.8c0,64.9,44.5,101.5,90.6,101.5c32.4,0,52.8-16.2,66.5-34.1c-2.1,35.3-23.7,53.6-61.5,53.6c-22.5,0-42-5.4-59.9-15.4
			c-2.1-1.2-5-1.7-7.9-1.7c-10.4,0-19.1,8.3-19.1,18.3c0,8.7,5,15,12.5,17.9c23.7,11.6,48.2,17.5,75.7,17.5
			c35.3,0,62.8-8.3,80.3-26.2c16.2-16.2,24.9-40.7,24.9-73.6V129.9C1495.2,117,1485.3,107,1472.8,107z M1394.2,271.2
			c-30.8,0-55.7-24.1-55.7-62.8v-0.8c0-37.8,25.4-62.4,55.7-62.4s57,25.4,57,62.4v0.8C1451.6,245.9,1425,271.2,1394.2,271.2z"/>
		<path class="st0" d="M1078.2,53.8c0,12.5-10,22.5-22.5,22.5c-12.5,0-22.5-10-22.5-22.5s10-22.5,22.5-22.5
			C1067.8,30.9,1078.2,40.9,1078.2,53.8z"/>
	</g>
	<g>
		<path class="st0" d="M1546.4,154c-12.5,0-22.9-10.4-22.9-22.9c0-12.9,10.4-22.9,22.9-22.9c12.9,0,22.9,10.4,22.9,22.9
			S1559.3,154,1546.4,154z M1546.4,111.6c-10.8,0-19.5,8.7-19.5,19.5c0,10.8,8.7,19.5,19.5,19.5c10.8,0,19.5-8.7,19.5-19.5
			C1565.9,119.9,1557.2,111.6,1546.4,111.6z M1552.6,144l-6.7-10.4h-4.6V144h-3.7v-26.2h10.8c4.6,0,8.7,3.3,8.7,7.9
			c0,5.8-5.4,7.9-6.7,7.9l7.1,10.4L1552.6,144L1552.6,144z M1548,121.1h-6.7v9.1h7.1c2.1,0,4.6-1.7,4.6-4.6
			C1553,122.8,1550.5,121.1,1548,121.1z"/>
	</g>
	<line class="st0" x1="829.5" y1="526.1" x2="830.4" y2="527.4"/>
	<g>
		<path class="st0" d="M1652.9,260.3c0,20-12.8,34.1-30,34.1c-10.4,0-18.8-5.2-23.7-13.7v12.2h-9.4v-88h9.4v35.1
			c4.9-8.6,13.2-13.7,23.7-13.7C1640.1,226.3,1652.9,240.4,1652.9,260.3z M1643,260.3c0-15-9.1-25.6-21.8-25.6
			c-12.8,0-21.9,10.6-21.9,25.6c0,15,9.1,25.7,21.9,25.7C1633.9,286,1643,275.3,1643,260.3z"/>
		<path class="st0" d="M1668.7,313.5l2.3-8.1c2.3,1.1,4.9,1.6,7.7,1.6c4.2,0,6.9-1.4,9.4-5.8l3.8-8.1l-28.3-65.3h10.4l22.8,54.1
			l21.5-54.1h10.2l-29.7,72.4c-4.5,11.1-10.8,15.2-19.8,15.4C1675.2,315.6,1671.7,314.8,1668.7,313.5z"/>
		<path class="st0" d="M1861.9,206.4l-38.1,86.5h-10.7l-38.1-86.5h10.7l32.9,74.4l32.7-74.4H1861.9z"/>
		<path class="st0" d="M1877.8,206.4h9.8l32.1,60.3l32.1-60.3h9.8v86.5h-9.8v-65.3l-32.1,60.3l-32.1-60.3v65.3h-9.8V206.4z"/>
		<path class="st0" d="M1977.9,227.8h10.1l16.2,52.5l17.8-52.5h8.2l17.8,52.5l16.2-52.5h10.1l-21.9,65.1h-8.9l-17.2-52l-17.5,52
			h-8.9L1977.9,227.8z"/>
		<path class="st0" d="M2140.8,253.3v39.7h-9.4v-10.2c-4.7,7.7-14.4,11.7-22.9,11.7c-13.7,0-23.8-7.9-23.8-20.8
			c0-13,11.6-21.7,25.6-21.7c7,0,14.5,1.5,21.2,3.7v-2.4c0-8.8-3.5-18.9-17.6-18.9c-6.5,0-13.1,2.9-19,5.9l-3.8-7.7
			c9.3-4.7,17.1-6.3,23.4-6.3C2132.1,226.3,2140.8,237.5,2140.8,253.3z M2131.4,272.5v-9.9c-5.9-1.6-12.6-2.6-19.6-2.6
			c-9.7,0-17.9,5.5-17.9,13.3c0,8.1,7,12.8,16.2,12.8C2118.6,286.1,2128.8,281.7,2131.4,272.5z"/>
		<path class="st0" d="M2195.6,226.3v8.4c-14.7,0-25.2,9.1-25.2,21.8v36.4h-9.4v-65.1h9.4v12.7
			C2174.3,231.9,2183.6,226.3,2195.6,226.3z"/>
		<path class="st0" d="M2258.5,278.2l5.8,6.2c-5.7,6.2-17.1,10.1-26.2,10.1c-17.4,0-33-14.2-33-34.2c0-19.4,14.6-33.9,32.1-33.9
			c19.6,0,30.8,14.9,30.8,37.6h-53.3c1.4,12.7,10.3,22,23.2,22C2245.7,286,2254.5,282.6,2258.5,278.2z M2215,255.5h43.8
			c-1.3-11.7-8.2-20.8-21.2-20.8C2226,234.8,2216.7,243,2215,255.5z"/>
		<path class="st0" d="M2345.3,215.8h-29.1v-9.3h68v9.3h-29.1v77.2h-9.8V215.8z"/>
		<path class="st0" d="M2452.3,253.3v39.7h-9.4v-10.2c-4.7,7.7-14.4,11.7-22.9,11.7c-13.7,0-23.8-7.9-23.8-20.8
			c0-13,11.6-21.7,25.6-21.7c7,0,14.5,1.5,21.2,3.7v-2.4c0-8.8-3.5-18.9-17.6-18.9c-6.5,0-13.1,2.9-19,5.9l-3.8-7.7
			c9.3-4.7,17.1-6.3,23.4-6.3C2443.6,226.3,2452.3,237.5,2452.3,253.3z M2442.8,272.5v-9.9c-5.9-1.6-12.6-2.6-19.6-2.6
			c-9.7,0-17.9,5.5-17.9,13.3c0,8.1,7,12.8,16.2,12.8C2430.1,286.1,2440.3,281.7,2442.8,272.5z"/>
		<path class="st0" d="M2526.9,251.5v41.4h-9.4v-40.2c0-10.6-6.7-18-16.2-18c-11,0-20.1,7.7-20.1,16.7v41.4h-9.4v-65.1h9.4v10.4
			c3.8-6.9,12.2-12,21.4-12C2516.9,226.3,2526.9,236.8,2526.9,251.5z"/>
		<path class="st0" d="M2543.3,285.5l38.4-48.7h-37.6v-8.9h50.4v7.4l-38.5,48.7h38.8v8.9h-51.4V285.5z"/>
		<path class="st0" d="M2666.1,227.8v65.1h-9.4v-10.4c-3.8,6.9-12.2,12-21.4,12c-14.4,0-24.4-10.4-24.4-25.2v-41.4h9.4V268
			c0,10.6,6.7,18,16.2,18c11,0,20.1-7.7,20.1-16.7v-41.4H2666.1z"/>
	</g>
</g>
</svg>
