<?xml version="1.0" encoding="utf-8"?>
<!-- Generator: Adobe Illustrator 24.1.0, SVG Export Plug-In . SVG Version: 6.00 Build 0)  -->
<svg version="1.1" id="Layer_1" xmlns="http://www.w3.org/2000/svg" xmlns:xlink="http://www.w3.org/1999/xlink" x="0px" y="0px"
	 viewBox="0 0 157.8 141.6" style="enable-background:new 0 0 157.8 141.6;" xml:space="preserve">
<style type="text/css">
	.st0{fill:#6DB33F;}
	.st1{fill:#FFFFFF;}
</style>
<path class="st0" d="M153.4,62.6l-30.2-52.3c-2.6-4.5-9.1-8.3-14.3-8.3H48.5c-5.2,0-11.7,3.7-14.3,8.3L4,62.6
	c-2.6,4.5-2.6,12,0,16.5l30.2,52.3c2.6,4.5,9.1,8.3,14.3,8.3h60.4c5.2,0,11.7-3.7,14.3-8.3l30.2-52.3
	C156.1,74.5,156.1,67.1,153.4,62.6z"/>
<g>
	<circle class="st1" cx="36.7" cy="115.2" r="6.1"/>
</g>
<g>
	<path class="st1" d="M139,97.4C121.3,121,83.5,113,59.3,114.2c0,0-4.3,0.2-8.6,0.9c0,0,1.6-0.7,3.7-1.4c17-5.9,25-7.1,35.4-12.4
		c19.4-9.9,38.7-31.6,42.7-54.1c-7.4,21.6-29.9,40.3-50.3,47.8c-14,5.2-39.3,10.2-39.3,10.2l-1-0.5C24.5,96.4,24,59,55.3,47
		C69,41.7,82.2,44.6,97,41.1c15.8-3.8,34.1-15.6,41.6-31.1C146.9,34.8,156.9,73.5,139,97.4z"/>
	<path class="st0" d="M138.6,10c8.3,24.8,18.4,63.5,0.4,87.4c-11.1,14.8-30.1,17.2-48.7,17.2c-8.8,0-17.5-0.5-25.2-0.5
		c-2,0-3.9,0-5.7,0.1c0,0-4.3,0.2-8.6,0.9c0,0,1.6-0.7,3.7-1.4c17-5.9,25-7.1,35.4-12.4c19.4-9.9,38.7-31.6,42.7-54.1
		c-7.4,21.6-29.9,40.3-50.3,47.8c-14,5.2-39.3,10.2-39.3,10.2l0,0l-1-0.5C24.5,96.4,24,59,55.3,47C69,41.7,82.2,44.6,97,41.1
		C112.8,37.4,131.1,25.5,138.6,10 M139.1,2.1l-3.2,6.6c-7.5,15.6-25.8,26.2-39.6,29.5C90.1,39.7,84,40,78.2,40.3
		c-7.7,0.4-15.7,0.8-23.9,3.9C35,51.6,27.6,67.8,27.1,80.5c-0.5,12.1,4.7,22.6,13.2,26.9c0.5,0.3,1.6,0.9,2.5,0.9h1.3l0.2-0.2
		c5.8-1.2,26.5-5.6,38.9-10.1c8.6-3.2,18.3-8.6,27.1-15.8c-6.5,6.9-14.1,12.7-21.8,16.6c-6.3,3.2-11.7,4.9-19.2,7.2
		c-4.4,1.3-9.5,2.9-15.7,5c-2.2,0.7-3.8,1.5-3.9,1.5l-2.2,4.5l3.9,1.2c4.1-0.7,8.2-0.9,8.3-0.9c1.7-0.1,3.5-0.1,5.5-0.1
		c3.7,0,7.6,0.1,11.7,0.3c4.4,0.1,8.9,0.3,13.5,0.3c18.5,0,39-2.2,51.1-18.4c14.1-18.8,14.2-48.3,0.1-90.2L139.1,2.1L139.1,2.1z"/>
</g>
</svg>
