<?xml version="1.0" encoding="utf-8"?>
<!-- Generator: Adobe Illustrator 24.0.1, SVG Export Plug-In . SVG Version: 6.00 Build 0)  -->
<svg version="1.1" id="Layer_1" xmlns="http://www.w3.org/2000/svg" xmlns:xlink="http://www.w3.org/1999/xlink" x="0px" y="0px"
	 viewBox="0 0 305.2 255.7" style="enable-background:new 0 0 305.2 255.7;" xml:space="preserve">
<style type="text/css">
	.st0{fill:none;}
	.st1{fill:#191E1E;}
</style>
<title>topic-streams</title>
<g id="Layer_2_1_">
	<g id="Layer_1-2">
		<polygon class="st0" points="39.5,245 68,228.4 39.3,211.8 10.7,228.4 		"/>
		<polygon class="st0" points="292.6,2.3 284.1,7.3 292.7,12.2 301.3,7.3 		"/>
		<path class="st1" d="M274.5,155.2L274.5,155.2c-1,0-1.9,0.8-1.9,1.8v0l0,0c0,1,0.8,1.9,1.8,1.9c0,0,0,0,0,0l0,0
			c1,0,1.9-0.8,1.9-1.9l0,0C276.3,156,275.5,155.2,274.5,155.2L274.5,155.2z"/>
		<path class="st1" d="M265.2,171.4L265.2,171.4c-1,0-1.9,0.8-1.9,1.8v0l0,0c0,1,0.8,1.9,1.9,1.9l0,0l0,0c1,0,1.8-0.8,1.8-1.9l0,0
			C267,172.2,266.2,171.4,265.2,171.4z"/>
		<path class="st1" d="M269.8,163.3c-1,0-1.9,0.8-1.9,1.9c0,1,0.8,1.8,1.9,1.8s1.9-0.8,1.9-1.8S270.9,163.3,269.8,163.3L269.8,163.3
			z"/>
		<path class="st1" d="M255.9,171.4L255.9,171.4c-1,0-1.9,0.8-1.9,1.8c0,0,0,0,0,0l0,0c0,1,0.8,1.9,1.8,1.9h0l0,0
			c1,0,1.9-0.8,1.9-1.8v0l0,0C257.7,172.2,256.9,171.4,255.9,171.4z"/>
		<path class="st1" d="M260.5,163.3c-1,0-1.9,0.8-1.9,1.9c0,1,0.8,1.8,1.9,1.8s1.9-0.8,1.9-1.8S261.5,163.3,260.5,163.3L260.5,163.3
			z"/>
		<path class="st1" d="M260.5,179.4c-1,0-1.9,0.7-1.9,1.8c0,1,0.7,1.9,1.8,1.9c0.2,0,0.3,0,0.5,0l0-0.1c0.5-0.3,0.9-0.6,1.4-0.9
			c0.4-0.9,0-2-0.9-2.5C261.1,179.5,260.8,179.4,260.5,179.4z"/>
		<path class="st1" d="M246.5,171.4L246.5,171.4c-1,0-1.9,0.8-1.9,1.8v0l0,0c0,1,0.8,1.9,1.8,1.9h0l0,0c1,0,1.9-0.8,1.9-1.8
			c0,0,0,0,0,0l0,0C248.4,172.2,247.6,171.3,246.5,171.4C246.5,171.3,246.5,171.3,246.5,171.4z"/>
		<path class="st1" d="M246.5,187.5L246.5,187.5c-1,0-1.9,0.8-1.9,1.8v0l0,0c0,1,0.8,1.9,1.8,1.9c0,0,0,0,0,0l0,0
			c1,0,1.9-0.8,1.9-1.9l0,0l0,0C248.4,188.3,247.6,187.5,246.5,187.5C246.5,187.5,246.5,187.5,246.5,187.5z"/>
		<path class="st1" d="M251.2,179.4c-1,0-1.9,0.8-1.9,1.8s0.8,1.9,1.8,1.9c1,0,1.9-0.8,1.9-1.8c0,0,0,0,0,0
			C253.1,180.2,252.2,179.4,251.2,179.4C251.2,179.4,251.2,179.4,251.2,179.4z"/>
		<path class="st1" d="M237.2,187.5L237.2,187.5c-1,0-1.9,0.8-1.9,1.8v0l0,0c0,1,0.8,1.9,1.8,1.9c0,0,0,0,0,0l0,0
			c1,0,1.9-0.8,1.9-1.8c0,0,0,0,0,0l0,0C239.1,188.3,238.3,187.5,237.2,187.5L237.2,187.5z"/>
		<path class="st1" d="M241.9,179.4c-1,0-1.9,0.8-1.9,1.8s0.8,1.9,1.8,1.9c1,0,1.9-0.8,1.9-1.8c0,0,0,0,0,0
			C243.7,180.2,242.9,179.4,241.9,179.4z"/>
		<path class="st1" d="M227.9,187.5L227.9,187.5c-1,0-1.9,0.8-1.9,1.8v0l0,0c0,1,0.8,1.9,1.8,1.9c0,0,0,0,0,0l0,0
			c1,0,1.9-0.8,1.9-1.8c0,0,0,0,0,0l0,0C229.8,188.3,228.9,187.5,227.9,187.5L227.9,187.5z"/>
		<path class="st1" d="M232.6,179.4c-1,0-1.9,0.8-1.9,1.8s0.8,1.9,1.8,1.9c1,0,1.9-0.8,1.9-1.8c0,0,0,0,0,0
			C234.4,180.2,233.6,179.4,232.6,179.4C232.6,179.4,232.6,179.4,232.6,179.4z"/>
		<path class="st1" d="M232.6,195.6c-1,0-1.8,0.8-1.8,1.9s0.8,1.8,1.9,1.8c1,0,1.8-0.8,1.8-1.8S233.6,195.6,232.6,195.6L232.6,195.6
			z"/>
		<path class="st1" d="M218.6,187.5L218.6,187.5c-1,0-1.9,0.8-1.9,1.8c0,0,0,0,0,0l0,0c0,1,0.8,1.9,1.9,1.9l0,0l0,0
			c1,0,1.9-0.8,1.9-1.8c0,0,0,0,0,0l0,0C220.5,188.3,219.6,187.5,218.6,187.5L218.6,187.5z"/>
		<path class="st1" d="M218.6,203.6L218.6,203.6c-1,0-1.9,0.8-1.9,1.8c0,0,0,0,0,0l0,0c0,1,0.8,1.9,1.8,1.9c0,0,0,0,0,0l0,0
			c1,0,1.9-0.8,1.9-1.8v0l0,0C220.5,204.4,219.6,203.6,218.6,203.6L218.6,203.6z"/>
		<path class="st1" d="M223.2,195.6c-1,0-1.8,0.8-1.8,1.9s0.8,1.8,1.9,1.8c1,0,1.8-0.8,1.8-1.8C225.1,196.4,224.3,195.5,223.2,195.6
			C223.3,195.5,223.3,195.5,223.2,195.6z"/>
		<path class="st1" d="M209.3,203.6L209.3,203.6c-1,0-1.9,0.8-1.9,1.8v0l0,0c0,1,0.8,1.9,1.8,1.9h0l0,0c1,0,1.9-0.8,1.9-1.8v0l0,0
			C211.1,204.4,210.3,203.6,209.3,203.6L209.3,203.6z"/>
		<path class="st1" d="M213.9,195.6c-1,0-1.8,0.8-1.8,1.9s0.8,1.8,1.9,1.8c1,0,1.8-0.8,1.8-1.8S215,195.6,213.9,195.6L213.9,195.6z"
			/>
		<path class="st1" d="M200,203.6L200,203.6c-1,0-1.9,0.8-1.9,1.8v0l0,0c0,1,0.8,1.9,1.8,1.9h0l0,0c1,0,1.9-0.8,1.9-1.8v0l0,0
			C201.9,204.4,201,203.6,200,203.6L200,203.6z"/>
		<path class="st1" d="M204.6,195.6c-1,0-1.8,0.8-1.8,1.9s0.8,1.8,1.9,1.8c1,0,1.8-0.8,1.8-1.8S205.6,195.6,204.6,195.6L204.6,195.6
			z"/>
		<path class="st1" d="M204.6,211.7c-1,0-1.9,0.8-1.9,1.8s0.8,1.9,1.8,1.9c1,0,1.9-0.8,1.9-1.8c0,0,0,0,0,0
			C206.5,212.5,205.7,211.7,204.6,211.7C204.6,211.7,204.6,211.7,204.6,211.7z"/>
		<path class="st1" d="M190.6,203.6L190.6,203.6c-1,0-1.9,0.8-1.9,1.8v0l0,0c0,1,0.8,1.9,1.8,1.9h0l0,0c1,0,1.9-0.8,1.9-1.8v0l0,0
			C192.5,204.4,191.7,203.6,190.6,203.6L190.6,203.6z"/>
		<path class="st1" d="M190.6,219.8L190.6,219.8c-1,0-1.9,0.8-1.9,1.8v0l0,0c0,1,0.8,1.9,1.8,1.9c0,0,0,0,0,0l0,0
			c1,0,1.9-0.8,1.9-1.8c0,0,0,0,0,0l0,0C192.5,220.6,191.7,219.8,190.6,219.8L190.6,219.8z"/>
		<path class="st1" d="M195.3,211.7c-1,0-1.9,0.8-1.9,1.8s0.8,1.9,1.8,1.9c1,0,1.9-0.8,1.9-1.8c0,0,0,0,0,0
			C197.2,212.5,196.3,211.7,195.3,211.7z"/>
		<path class="st1" d="M181.3,219.8L181.3,219.8c-1,0-1.9,0.8-1.9,1.8v0l0,0c0,1,0.8,1.9,1.8,1.9c0,0,0,0,0,0l0,0
			c1,0,1.9-0.8,1.9-1.9l0,0l0,0C183.2,220.6,182.4,219.7,181.3,219.8C181.3,219.7,181.3,219.7,181.3,219.8z"/>
		<path class="st1" d="M186,211.7c-1,0-1.9,0.8-1.9,1.8s0.8,1.9,1.8,1.9c1,0,1.9-0.8,1.9-1.8c0,0,0,0,0,0
			C187.9,212.5,187,211.7,186,211.7C186,211.7,186,211.7,186,211.7z"/>
		<path class="st1" d="M172,219.8L172,219.8c-1,0-1.9,0.8-1.9,1.8v0l0,0c0,1,0.8,1.9,1.8,1.9c0,0,0,0,0,0l0,0c1,0,1.9-0.8,1.9-1.8
			c0,0,0,0,0,0l0,0C173.9,220.6,173,219.8,172,219.8L172,219.8z"/>
		<path class="st1" d="M176.7,211.7c-1,0-1.9,0.8-1.9,1.8s0.8,1.9,1.8,1.9c1,0,1.9-0.8,1.9-1.8c0,0,0,0,0,0
			C178.5,212.5,177.7,211.7,176.7,211.7z"/>
		<path class="st1" d="M176.7,227.8c-1,0-1.8,0.8-1.8,1.9s0.8,1.8,1.9,1.8c1,0,1.8-0.8,1.8-1.8S177.7,227.8,176.7,227.8L176.7,227.8
			z"/>
		<path class="st1" d="M162.7,219.8L162.7,219.8c-1,0-1.9,0.8-1.9,1.8v0l0,0c0,1,0.8,1.9,1.8,1.9c0,0,0,0,0,0l0,0
			c1,0,1.9-0.8,1.9-1.8c0,0,0,0,0,0l0,0C164.6,220.6,163.7,219.8,162.7,219.8L162.7,219.8z"/>
		<path class="st1" d="M162.7,235.9L162.7,235.9c-1,0-1.9,0.8-1.9,1.8v0l0,0c0,1,0.8,1.9,1.8,1.9h0l0,0c1,0,1.9-0.8,1.9-1.8v0l0,0
			C164.6,236.7,163.7,235.9,162.7,235.9L162.7,235.9z"/>
		<path class="st1" d="M167.4,227.8c-1,0-1.8,0.8-1.8,1.9s0.8,1.8,1.9,1.8c1,0,1.8-0.8,1.8-1.8S168.4,227.8,167.4,227.8L167.4,227.8
			z"/>
		<path class="st1" d="M153.4,235.9L153.4,235.9c-1,0-1.9,0.8-1.9,1.8c0,0,0,0,0,0l0,0c0,1,0.8,1.9,1.8,1.9c0,0,0,0,0,0l0,0
			c1,0,1.9-0.8,1.9-1.8v0l0,0C155.2,236.7,154.4,235.9,153.4,235.9L153.4,235.9z"/>
		<path class="st1" d="M158,227.8c-1,0-1.8,0.8-1.8,1.9s0.8,1.8,1.9,1.8c1,0,1.8-0.8,1.8-1.8C159.9,228.6,159,227.8,158,227.8
			C158,227.8,158,227.8,158,227.8z"/>
		<path class="st1" d="M144.1,235.9L144.1,235.9c-1,0-1.9,0.8-1.9,1.8v0l0,0c0,1,0.8,1.9,1.8,1.9h0l0,0c1,0,1.9-0.8,1.9-1.8v0l0,0
			C145.9,236.7,145.1,235.9,144.1,235.9L144.1,235.9z"/>
		<path class="st1" d="M148.7,227.8c-1,0-1.8,0.8-1.8,1.9s0.8,1.8,1.9,1.8c1,0,1.8-0.8,1.8-1.8S149.8,227.8,148.7,227.8L148.7,227.8
			z"/>
		<path class="st1" d="M148.7,244c-1,0-1.9,0.8-1.9,1.8s0.8,1.9,1.8,1.9c1,0,1.9-0.8,1.9-1.8c0,0,0,0,0,0
			C150.6,244.8,149.8,244,148.7,244C148.7,244,148.7,244,148.7,244z"/>
		<path class="st1" d="M134.8,235.9L134.8,235.9c-1,0-1.9,0.8-1.9,1.8c0,0,0,0,0,0l0,0c0,1,0.8,1.9,1.8,1.9c0,0,0,0,0,0l0,0
			c1,0,1.9-0.8,1.9-1.8v0l0,0C136.6,236.7,135.8,235.9,134.8,235.9L134.8,235.9z"/>
		<path class="st1" d="M134.8,252L134.8,252c-1,0-1.9,0.8-1.9,1.8c0,0,0,0,0,0l0,0c0,1,0.8,1.9,1.9,1.9l0,0l0,0c1,0,1.9-0.8,1.9-1.8
			c0,0,0,0,0,0l0,0C136.6,252.8,135.8,252,134.8,252L134.8,252z"/>
		<path class="st1" d="M139.4,244c-1,0-1.9,0.8-1.9,1.9s0.8,1.9,1.9,1.9s1.9-0.8,1.9-1.9C141.3,244.8,140.5,244,139.4,244
			C139.4,244,139.4,244,139.4,244z"/>
		<path class="st1" d="M125.4,235.9L125.4,235.9c-1,0-1.8,0.8-1.8,1.9l0,0l0,0c0,1,0.8,1.9,1.8,1.9c0,0,0,0,0,0l0,0
			c1,0,1.8-0.8,1.8-1.9l0,0l0,0C127.3,236.7,126.5,235.9,125.4,235.9C125.4,235.9,125.4,235.9,125.4,235.9z"/>
		<path class="st1" d="M125.4,252L125.4,252c-1,0-1.8,0.8-1.8,1.9l0,0l0,0c0,1,0.8,1.9,1.8,1.9c0,0,0,0,0,0l0,0c1,0,1.9-0.8,1.9-1.8
			c0,0,0,0,0,0l0,0C127.3,252.8,126.5,252,125.4,252C125.4,252,125.4,252,125.4,252z"/>
		<path class="st1" d="M130.1,244c-1,0-1.9,0.8-1.9,1.8s0.8,1.9,1.8,1.9c1,0,1.9-0.8,1.9-1.8c0,0,0,0,0,0
			C132,244.8,131.1,244,130.1,244z"/>
		<path class="st1" d="M116.1,235.9L116.1,235.9c-1,0-1.8,0.8-1.8,1.9l0,0l0,0c0,1,0.8,1.9,1.8,1.9c0,0,0,0,0,0l0,0
			c1,0,1.9-0.8,1.9-1.8c0,0,0,0,0,0l0,0C118,236.7,117.2,235.9,116.1,235.9C116.1,235.9,116.1,235.9,116.1,235.9z"/>
		<path class="st1" d="M116.1,252L116.1,252c-1,0-1.8,0.8-1.8,1.9l0,0l0,0c0,1,0.8,1.9,1.8,1.9c0,0,0,0,0,0l0,0c1,0,1.9-0.8,1.9-1.9
			l0,0l0,0C118,252.8,117.2,252,116.1,252C116.1,252,116.1,252,116.1,252z"/>
		<path class="st1" d="M120.8,244c-1,0-1.9,0.8-1.9,1.8s0.8,1.9,1.8,1.9s1.9-0.8,1.9-1.8c0,0,0,0,0,0
			C122.6,244.8,121.8,244,120.8,244C120.8,244,120.8,244,120.8,244z"/>
		<path class="st1" d="M106.8,235.9L106.8,235.9c-1,0-1.8,0.8-1.8,1.9l0,0l0,0c0,1,0.8,1.9,1.8,1.9c0,0,0,0,0,0l0,0
			c1,0,1.8-0.8,1.8-1.9l0,0l0,0C108.7,236.7,107.8,235.9,106.8,235.9C106.8,235.9,106.8,235.9,106.8,235.9z"/>
		<path class="st1" d="M106.8,252L106.8,252c-1,0-1.8,0.8-1.8,1.9l0,0l0,0c0,1,0.8,1.9,1.8,1.9c0,0,0,0,0,0l0,0c1,0,1.9-0.8,1.9-1.8
			c0,0,0,0,0,0l0,0C108.7,252.8,107.8,252,106.8,252C106.8,252,106.8,252,106.8,252z"/>
		<path class="st1" d="M111.5,244c-1,0-1.9,0.8-1.9,1.8s0.8,1.9,1.8,1.9s1.9-0.8,1.9-1.8c0,0,0,0,0,0
			C113.3,244.8,112.5,244,111.5,244z"/>
		<path class="st1" d="M97.5,235.9L97.5,235.9c-1,0-1.8,0.8-1.8,1.9l0,0l0,0c0,1,0.8,1.9,1.8,1.9c0,0,0,0,0,0l0,0
			c1,0,1.8-0.8,1.8-1.9l0,0l0,0C99.3,236.7,98.5,235.9,97.5,235.9C97.5,235.9,97.5,235.9,97.5,235.9z"/>
		<path class="st1" d="M102.2,244c-1,0-1.9,0.8-1.9,1.8s0.8,1.9,1.8,1.9s1.9-0.8,1.9-1.8c0,0,0,0,0,0C104,244.8,103.2,244,102.2,244
			C102.2,244,102.2,244,102.2,244z"/>
		<path class="st1" d="M88.2,235.9L88.2,235.9c-1,0-1.9,0.8-1.9,1.8c0,0,0,0,0,0l0,0c0,1,0.8,1.9,1.8,1.9c0,0,0,0,0,0l0,0
			c1,0,1.8-0.8,1.8-1.9l0,0C90,236.7,89.2,235.9,88.2,235.9z"/>
		<circle class="st1" cx="92.8" cy="229.7" r="1.9"/>
		<path class="st1" d="M92.8,244c-1,0-1.9,0.8-1.9,1.9s0.8,1.9,1.9,1.9s1.9-0.8,1.9-1.9C94.7,244.8,93.9,244,92.8,244
			C92.8,244,92.8,244,92.8,244z"/>
		<path class="st1" d="M78.9,219.8L78.9,219.8c-1,0-1.9,0.8-1.9,1.8c0,0,0,0,0,0l0,0c0,1,0.8,1.9,1.8,1.9c0,0,0,0,0,0l0,0
			c1,0,1.9-0.8,1.9-1.8c0,0,0,0,0,0l0,0C80.7,220.6,79.9,219.8,78.9,219.8z"/>
		<path class="st1" d="M78.9,235.9L78.9,235.9c-0.7,0-1.3,0.4-1.6,0.9l0.9,0.9l0.7,0.6c0.3,0.3,0.7,0.6,1,0.9
			c0.5-0.3,0.8-0.9,0.8-1.5l0,0C80.7,236.7,79.9,235.9,78.9,235.9z"/>
		<circle class="st1" cx="83.5" cy="229.7" r="1.9"/>
		<path class="st1" d="M69.6,207.3c1,0,1.8-0.8,1.8-1.9l0,0l0,0c0-1-0.8-1.9-1.8-1.9c0,0,0,0,0,0l0,0c-1,0-1.9,0.8-1.9,1.8
			c0,0,0,0,0,0l0,0C67.7,206.5,68.5,207.3,69.6,207.3C69.5,207.3,69.5,207.3,69.6,207.3z"/>
		<path class="st1" d="M67.7,221.6c0,1,0.8,1.9,1.9,1.9l0,0l0,0c1,0,1.9-0.8,1.9-1.8c0,0,0,0,0,0l0,0c0-1-0.8-1.9-1.8-1.9
			c0,0,0,0,0,0l0,0C68.5,219.7,67.7,220.6,67.7,221.6C67.7,221.6,67.7,221.6,67.7,221.6z"/>
		<path class="st1" d="M74.2,211.7c-1,0-1.9,0.8-1.9,1.9s0.8,1.9,1.9,1.9s1.9-0.8,1.9-1.9C76.1,212.5,75.2,211.7,74.2,211.7
			C74.2,211.7,74.2,211.7,74.2,211.7z"/>
		<path class="st1" d="M74.2,227.8c-1,0-1.8,0.8-1.8,1.9s0.8,1.8,1.9,1.8c1,0,1.8-0.8,1.8-1.8C76.1,228.6,75.2,227.8,74.2,227.8
			C74.2,227.8,74.2,227.8,74.2,227.8z"/>
		<path class="st1" d="M60.2,207.3c1,0,1.8-0.8,1.8-1.9l0,0l0,0c0-1-0.8-1.9-1.8-1.9h0l0,0c-1,0-1.8,0.8-1.8,1.9l0,0l0,0
			C58.4,206.5,59.2,207.3,60.2,207.3L60.2,207.3z"/>
		<path class="st1" d="M66.7,213.5c0-1-0.8-1.8-1.9-1.8s-1.8,0.8-1.8,1.9s0.8,1.8,1.9,1.8C65.9,215.4,66.7,214.6,66.7,213.5
			L66.7,213.5z"/>
		<path class="st1" d="M50.9,191.2c1,0,1.9-0.8,1.9-1.9l0,0l0,0c0-1-0.8-1.9-1.8-1.9c0,0,0,0,0,0l0,0c-1,0-1.8,0.8-1.8,1.9l0,0l0,0
			C49.1,190.4,49.9,191.2,50.9,191.2C50.9,191.2,50.9,191.2,50.9,191.2z"/>
		<path class="st1" d="M57.4,197.4c0-1-0.8-1.8-1.9-1.8s-1.8,0.8-1.8,1.9s0.8,1.8,1.9,1.8C56.6,199.2,57.4,198.4,57.4,197.4
			L57.4,197.4z"/>
		<path class="st1" d="M43.5,157.1c0-1-0.8-1.9-1.8-1.9h0l0,0c-1,0-1.8,0.8-1.8,1.9l0,0l0,0c0,1,0.8,1.9,1.8,1.9c0,0,0,0,0,0l0,0
			C42.6,158.9,43.5,158.1,43.5,157.1z"/>
		<path class="st1" d="M41.6,171.4L41.6,171.4c-0.9,0-1.6,0.6-1.8,1.4c0,0.1,0.1,0.3,0.1,0.4c0.1,0.4,0.2,0.8,0.3,1.3
			c0.3,0.4,0.8,0.6,1.3,0.6l0,0c1,0,1.8-0.8,1.8-1.9l0,0l0,0C43.4,172.2,42.6,171.4,41.6,171.4z"/>
		<path class="st1" d="M48.1,181.3c0-1-0.8-1.9-1.9-1.9c-1,0-1.9,0.8-1.9,1.9c0,1,0.8,1.9,1.9,1.9c0,0,0,0,0,0
			C47.3,183.1,48.1,182.3,48.1,181.3L48.1,181.3z"/>
		<path class="st1" d="M36.9,150.9c1-0.1,1.8-1,1.7-2c-0.1-0.9-0.8-1.7-1.7-1.7c-0.2,0-0.3,0-0.5,0.1c0,0.2,0,0.4,0,0.6c0,1,0,2,0,3
			C36.6,150.8,36.8,150.9,36.9,150.9z"/>
		<path class="st1" d="M220.1,14.6c-11.7-6.8-22.9-9.4-32.6-8c-3.9,0.5-7.6,1.8-10.9,3.7c-1,0.6-1.9,1.2-2.8,1.9L56,82
			c-0.3,0.1-0.5,0.2-0.8,0.4c-0.5,0.3-0.9,0.6-1.4,0.9l-0.3,0.2l0,0c-10.5,7-16.3,20.5-16.3,38.3c0,3.9,0.3,7.9,0.9,11.8
			c-0.1,0.3-0.2,0.7-0.2,1c0.1-0.1,0.2-0.1,0.3-0.2c1.5,10,4.1,19.7,8,29c-1,0.1-1.7,1.1-1.6,2.1c0.1,0.9,0.9,1.6,1.8,1.6
			c0.4,0,0.8-0.1,1.1-0.4c0.8,1.7,1.6,3.4,2.4,5.2c-0.5,0.3-0.7,0.9-0.7,1.5l0,0c0,1,0.8,1.9,1.8,1.9h0l0,0c0.2,0,0.3,0,0.5-0.1
			c0.9,1.7,1.8,3.4,2.8,5.1c-0.7,0.8-0.6,1.9,0.2,2.6c0.3,0.3,0.8,0.5,1.2,0.5c0.1,0,0.2,0,0.4,0c1,1.6,2,3.3,3,4.9
			c-0.4,0.3-0.6,0.8-0.6,1.4l0,0c0,1,0.8,1.9,1.8,1.9c0,0,0,0,0,0l0,0c0.3,0,0.5-0.1,0.7-0.2c1.1,1.6,2.2,3.1,3.3,4.6
			c-1,0.3-1.5,1.3-1.2,2.3s1.3,1.5,2.3,1.2c0.4-0.1,0.8-0.4,1-0.8c6.2,8,13.4,15.2,21.5,21.4c-0.9,0.1-1.6,0.9-1.6,1.8l0,0
			c0,1,0.8,1.9,1.9,1.9l0,0l0,0c1,0,1.8-0.8,1.8-1.9l0,0c0-0.1,0-0.2,0-0.3c2.4,1.7,4.9,3.4,7.4,4.8c1.2,0.7,2.4,1.4,3.7,2
			c-0.8,0.6-1.1,1.7-0.5,2.6c0.6,0.8,1.7,1.1,2.6,0.5c0.5-0.3,0.8-0.9,0.8-1.5c0,0,0-0.1,0-0.1c6.5,3.1,13.6,4.8,20.8,5
			c4.9,0.1,9.7-1,14.1-3.1c0.1,0,0.3,0.1,0.4,0.1c0.8,0,1.5-0.5,1.7-1.2l11.7-6.9c0.2,0.1,0.3,0.1,0.5,0.1l0,0
			c0.9,0,1.6-0.6,1.8-1.5l11.4-6.8c0.9,0.4,2,0,2.4-0.9c0.1-0.2,0.1-0.4,0.2-0.6l11.2-6.6c0.3,0.2,0.6,0.3,0.9,0.3l0,0
			c1,0,1.9-0.8,1.9-1.8c0,0,0,0,0,0l0,0c0,0,0,0,0-0.1l11-6.5c0.3,0.2,0.7,0.4,1.1,0.4c1,0,1.9-0.8,1.9-1.8v0c0-0.1,0-0.2,0-0.2
			l10.9-6.5c0.3,0.3,0.8,0.5,1.2,0.5l0,0c1,0,1.9-0.8,1.9-1.8c0,0,0,0,0,0l0,0c0-0.1,0-0.3-0.1-0.4l10.8-6.4
			c0.3,0.4,0.8,0.6,1.4,0.6c1,0,1.9-0.8,1.9-1.8c0,0,0,0,0,0c0-0.2,0-0.4-0.1-0.6l10.8-6.4c0.3,0.5,0.9,0.8,1.5,0.8l0,0
			c1,0,1.9-0.8,1.9-1.8v0l0,0c0-0.3-0.1-0.5-0.2-0.8l10.7-6.4c0.5,0.9,1.7,1.2,2.5,0.6c0.6-0.3,0.9-0.9,0.9-1.6
			c0-0.3-0.1-0.7-0.3-0.9l10.4-6.1l-0.1-0.2l0.4-0.2c0.2,0.8,1,1.3,1.8,1.3l0,0c1,0,1.9-0.8,1.9-1.9l0,0c0-0.6-0.3-1.1-0.7-1.5
			c9-7.4,14-20.2,14-36.6c-0.1-10.2-1.7-20.4-4.8-30.1C266.4,58.8,245,29,220.1,14.6z M192.7,8.3c8.1,0,17.1,2.7,26.4,8.1
			c32.8,18.9,59.4,65,59.2,102.6c0.1,6.9-1,13.7-3.2,20.2c-0.4,1.2-0.9,2.3-1.4,3.4c-0.8,1.7-1.7,3.4-2.8,4.9c-0.7,1-1.4,2-2.2,2.9
			c-2.1,2.5-4.6,4.6-7.4,6.2c-8.7,5-19.6,5.1-31.5,0.6c-1.1-0.4-2.1-0.9-3.2-1.3c-2.3-1-4.6-2.2-6.8-3.5c-1.4-0.8-2.8-1.7-4.1-2.6
			c-1-0.7-2-1.4-3-2.1c-3.4-2.5-6.7-5.2-9.9-8.1l9.8-5.7l3.2-1.8l10.8-6.3l2.1-1.2l-2-1.2l-10.9-6.3l-3.1-1.8l-10.9-6.3l-3.1-1.8
			l-8.3-4.8l-7.9,4.6l-2.9,1.7l-1,0.6c-4.4-7.4-8-15.1-11-23.1c-0.4-1.1-0.8-2.2-1.2-3.3c-0.7-2-1.3-4-1.9-6c-0.2-0.7-0.4-1.3-0.6-2
			c-1.2-4.5-2.1-9.1-2.7-13.7l-0.3-1.7c-0.4-3.2-0.5-6.5-0.6-9.8c0-16.4,5.1-29,14.4-35.8l5-3C183.9,9.1,188.3,8.2,192.7,8.3z
			 M236.6,171.5l-0.5,0.3l-12.9,7.6l-1.4,0.9l-12.2,7.2l-1.9,1.1l-11.8,7l-2.3,1.4l-11.5,6.8l-2.6,1.5l-11.2,6.7l-2.8,1.6l-11,6.5
			l-2.9,1.7l-2,1.2c4.8-6,7.9-14.1,9-23.8c0.1-1.1,0.2-2.2,0.3-3.4c0.1-1.6,0.2-3.1,0.2-4.7c0-2.6-0.1-5.3-0.4-8
			c-0.1-1.2-0.2-2.4-0.4-3.6c-0.9-7-2.5-13.9-4.7-20.6c-0.4-1.1-0.8-2.3-1.2-3.4c-0.7-1.9-1.4-3.8-2.1-5.6c-0.4-0.9-0.7-1.8-1.1-2.6
			c-4.6-10.6-10.4-20.7-17.3-30l11.6-6.8l2.3-1.3l11.6-6.8l2.4-1.4l1.6-0.9l-44.7-25.9l-0.5,0.3l-1.8,1.1l-12,7l-2,1.1l-3.4,1.9
			c-11.4-6.2-22.3-8.5-31.7-6.9l102.2-60.6c-5.9,7.6-9.1,18.4-9.2,31.6c0,0.2,0,0.4,0,0.6c0,1.2,0,2.4,0.1,3.6
			c0.4,7,1.5,14,3.3,20.8c0.3,1.2,0.6,2.3,0.9,3.4c3.3,11.3,8.1,22.1,14.1,32.2l-8.3,4.8l-2.9,1.7l-11,6.4l-2.2,1.3l2.4,1.4
			l10.9,6.3l3.1,1.8l10.9,6.3l3.1,1.8l7.9,4.6l8-4.6l2.3-1.4l0.8,0.8c3.4,3.1,7,6.1,10.9,8.7c0.2,0.2,0.5,0.3,0.8,0.5
			c1.8,1.2,3.6,2.4,5.4,3.4c2.5,1.4,5,2.7,7.6,3.9c0.7,0.3,1.4,0.6,2.1,0.9c5.6,2.3,11.6,3.6,17.7,3.7c2.2,0,4.5-0.2,6.6-0.6
			L236.6,171.5z M99.1,86.8l1.8-1L104,84l10.9-6.3l2-1.1l1,0.6l10.8,6.2l3.2,1.8l10.8,6.2l3.2,1.8l10.8,6.2l0.9,0.5l-1.2,0.7
			l-11,6.4l-2.9,1.7l-11,6.4l-0.5,0.3l-0.5-0.7c-1.2-1.6-2.5-3.1-3.8-4.6c-0.8-0.9-1.6-1.8-2.4-2.7c-2.3-2.5-4.7-4.9-7-7.2l-0.4-0.4
			c-0.8-0.7-1.6-1.4-2.4-2.2l-0.4-0.3c-0.9-0.8-1.7-1.5-2.6-2.2l-0.6-0.5c-0.7-0.6-1.4-1.1-2-1.6l-0.1-0.1l-0.7-0.5
			c-0.7-0.5-1.4-1-2.1-1.5l-0.5-0.3l-0.6-0.4c-0.7-0.5-1.5-1-2.2-1.5l-0.7-0.4C100.8,87.9,100,87.3,99.1,86.8z M114,188.1l-10.3-5.9
			l-3.2-1.8l-3.9-2.3l8.3-4.8l2.8-1.6l6.2-3.6l9.7,5.6l2.4,1.4l5.3,3.1L114,188.1z M89,139.3l-2.7,1.6l-3.9,2.3l-2-1.2l-3.2-1.8
			l-9.2-5.3l4.4-2.6l2.1-1.2l7.8-4.6l9,5.2l3.2,1.8l2.2,1.3L89,139.3z M97.6,88.3L97.6,88.3c-0.3,0.3-0.4,0.8-0.4,1.2l0,0
			c0,0.4,0.2,0.9,0.5,1.2c0.3,0.4,0.8,0.6,1.3,0.6H99c0.8,0,1.4-0.5,1.7-1.2l0,0l0.6,0.4c0.7,0.4,1.4,0.9,2.1,1.4l0.7,0.5l1,0.7
			l1.4,1l0.3,0.2l0.8,0.6c0.2,0.2,0.5,0.4,0.7,0.6l0.7,0.6l1.2,1l0.9,0.8c0.1,0.3,0.2,0.7,0.4,0.9c0.3,0.4,0.8,0.6,1.3,0.6h0.1
			l0.8,0.7l1,0.9l1.4,1.3l0.8,0.8l0.6,0.6l0,0c-1,0-1.8,0.8-1.8,1.8l0,0c0,0.4,0.2,0.9,0.5,1.2c0.3,0.4,0.8,0.6,1.3,0.6h0.1
			c1,0,1.8-0.8,1.8-1.8l0,0l0.5,0.5l0.4,0.5c0.5,0.5,1,1.1,1.5,1.6l0.7,0.8c0.5,0.6,1,1.1,1.5,1.7l0.4,0.5c0.8,0.9,1.6,1.9,2.4,2.8
			l0.5,0.6l0.6,0.8l0.4,0.6c0.3,0.4,0.6,0.8,0.9,1.2l0.2,0.3l-0.9,0.5l-1.8,1l-4.8,2.8l-4.2,2.5l-0.2,0.2l-0.5,0.3l-2.2-1.3l-3-1.6
			l-3.7-2.2l-4.3-2.5l-3-1.8l-2-1.1l-9-5.2l-0.3-0.2l-2.7-1.6l-2.9-1.7l-3.7-2.2L76,101l-1.6-1l1.1-0.7h0.1c0.7,0,1.4-0.4,1.7-1.1
			l3-1.7l6-3.5l3-1.8h0.2c0.8,0,1.4-0.4,1.7-1.1l1.2-0.7l3.5-2l0,0C96.6,87.7,97.1,88,97.6,88.3L97.6,88.3z M180.7,110.4l2.4-1.4
			l7.2-4.2l8,4.6l1.7,1l12.2,7.1l1.7,1l10.6,6.1l-11,6.4l-1.1,0.6l-11.4,6.6c-1.5-1.4-2.9-2.9-4.3-4.4c-0.8-0.9-1.6-1.8-2.4-2.6
			c-1.3-1.5-2.6-3.1-3.9-4.6c-0.6-0.7-1.1-1.4-1.6-2.1c-3.3-4.3-6.4-8.8-9.3-13.4L180.7,110.4z M193.5,133.2c0.4,0.5,0.9,1,1.3,1.4
			c1.5,1.6,3,3.1,4.5,4.6l0.1,0.1l-0.9,0.5l-7.9,4.6l-7.6-4.4l-1.7-1L169,132l-1.7-1l-11-6.4l10.6-6.2l2.3-1.3l8.7-5
			C182.4,119.6,187.6,126.7,193.5,133.2L193.5,133.2z"/>
		<path class="st1" d="M6.8,228.4l32.8,18.9L72,228.4l-32.7-18.9L6.8,228.4z M68,228.4L39.5,245l-28.8-16.6l28.5-16.6L68,228.4z"/>
		<polygon class="st1" points="117.9,172.6 115.8,171.4 113.9,170.3 108.6,173.4 106.1,174.9 100.6,178 114,185.8 119.5,182.6 
			122.6,180.8 127.3,178.1 		"/>
		<polygon class="st1" points="37.3,167.2 18.6,156.4 0,167.2 18.7,178 		"/>
		<polygon class="st1" points="179.7,156.2 177.8,155.1 173.8,157.4 171.4,158.8 166.8,161.5 175.3,166.4 176.3,166.9 177.9,167.9 
			184.5,164 185.8,163.3 188.9,161.5 182.9,158 		"/>
		<polygon class="st1" points="224.9,101.4 224,101.9 224.3,102.1 235.4,108.5 236.7,109.3 238.9,108 249.3,102 236.6,94.6 		"/>
		<polygon class="st1" points="152.1,61.6 141.9,55.7 129.3,63 137.6,67.8 140.7,69.6 142,70.4 147.1,67.4 148.7,66.5 154.6,63 
			152.9,62 		"/>
		<path class="st1" d="M240.2,83.7l3.2,1.8l3.9,2.3l3-1.7l2.8-1.6l6.8-3.9l-4.9-2.8l-0.6-0.3l-7.1-4.1l-12.5,7.3L240.2,83.7z
			 M255.8,80.5l-3.8,2.2l-2.6,1.5l-2.1,1.2l-4.1-2.4l-0.7-0.4l-3.8-2.2l6.1-3.5l2.4-1.4l1.2,0.7L255.8,80.5z"/>
		<path class="st1" d="M305.2,7.3L292.6,0l-12.5,7.3l12.6,7.3L305.2,7.3z M284.1,7.3l8.5-5l8.6,5l-8.5,5L284.1,7.3z"/>
		<polygon class="st1" points="165.7,59.5 171.8,63 177.9,59.5 171.8,56 		"/>
		<polygon class="st1" points="245.6,52.9 239.5,49.3 233.5,52.8 239.6,56.4 		"/>
		<polygon class="st1" points="255.4,17.9 249.3,14.3 243.2,17.9 249.4,21.4 		"/>
		<polygon class="st1" points="289.8,87.9 295.9,91.4 301.9,87.9 295.8,84.4 		"/>
		<path class="st1" d="M230.4,67l-10.1-5.9l-3.2-1.8l-7.7-4.5l-7.8,4.5l-3.2,1.8l-9.9,5.8l21,12.2L230.4,67z M193.6,67.7l-1.2-0.7
			l16.9-9.8l17,9.8l-1.4,0.8l-3.1,1.8L211,75.9l-1.6,0.9l-1.9-1.1l-10.8-6.2L193.6,67.7z"/>
		<polygon class="st1" points="292.7,56.7 280,49.3 267.4,56.7 280.1,64 		"/>
		<path class="st1" d="M122.2,115.5h0.1c1,0,1.8-0.8,1.8-1.8c0-1-0.8-1.8-1.8-1.8c-1,0-1.8,0.8-1.8,1.8l0,0c0,0.4,0.2,0.9,0.5,1.2
			C121.2,115.2,121.7,115.5,122.2,115.5z"/>
		<path class="st1" d="M112.9,115.5L112.9,115.5c1.1,0,2-0.8,2-1.9s-0.8-1.9-1.9-1.9s-1.9,0.8-1.9,1.9c0,0.5,0.2,0.9,0.5,1.2
			C111.9,115.3,112.4,115.5,112.9,115.5z"/>
		<path class="st1" d="M117.5,123.6h0.1c1,0,1.8-0.8,1.8-1.8l0,0c0-1-0.8-1.8-1.8-1.8l0,0c-1,0-1.8,0.8-1.8,1.8l0,0
			C115.8,122.7,116.5,123.5,117.5,123.6L117.5,123.6z"/>
		<path class="st1" d="M103.5,99.4h0.1c1,0,1.8-0.8,1.8-1.8c0-1-0.8-1.8-1.8-1.8c-1,0-1.8,0.8-1.8,1.8l0,0
			C101.8,98.5,102.6,99.3,103.5,99.4L103.5,99.4z"/>
		<path class="st1" d="M103.5,115.5h0.1c1,0,1.8-0.8,1.8-1.8c0-1-0.8-1.8-1.8-1.8c-1,0-1.8,0.8-1.8,1.8l0,0
			C101.8,114.6,102.6,115.4,103.5,115.5L103.5,115.5z"/>
		<path class="st1" d="M108.2,107.4h0.1c1,0,1.9-0.8,1.9-1.8c0,0,0,0,0,0l0,0c0-1-0.8-1.8-1.8-1.8l0,0c-1,0-1.9,0.8-1.9,1.8
			c0,0,0,0,0,0l0,0C106.5,106.6,107.2,107.4,108.2,107.4L108.2,107.4z"/>
		<path class="st1" d="M89.7,103.8L89.7,103.8c-1,0-1.8,0.8-1.8,1.8l0,0c0,1,0.8,1.8,1.8,1.8h0.1c1,0,1.9-0.8,1.9-1.9l0,0l0,0
			C91.5,104.6,90.7,103.7,89.7,103.8C89.7,103.8,89.7,103.8,89.7,103.8z"/>
		<path class="st1" d="M94.3,95.7c-1,0-1.8,0.8-1.8,1.8c0,1,0.8,1.8,1.8,1.8h0.1c1,0,1.8-0.8,1.8-1.9C96.2,96.5,95.3,95.7,94.3,95.7
			L94.3,95.7z"/>
		<path class="st1" d="M98.9,107.4H99c1,0,1.9-0.8,1.9-1.8c0,0,0,0,0,0l0,0c0-1-0.8-1.8-1.8-1.8l0,0c-1,0-1.8,0.8-1.8,1.8l0,0
			c0,0.4,0.2,0.9,0.5,1.2C97.9,107.2,98.4,107.4,98.9,107.4z"/>
		<path class="st1" d="M85,95.7c-1,0-1.9,0.8-1.9,1.8c0,0,0,0,0,0c0,1,0.8,1.8,1.8,1.8H85c1,0,1.9-0.8,1.9-1.8S86,95.7,85,95.7
			C85,95.7,85,95.7,85,95.7L85,95.7z"/>
	</g>
</g>
</svg>
