<svg xmlns="http://www.w3.org/2000/svg" viewBox="0 0 305.25 255.73"><defs><style>.cls-1{fill:none;}</style></defs><title>topic-streams</title><g id="Layer_2" data-name="Layer 2"><g id="Layer_1-2" data-name="Layer 1"><polygon class="cls-1" points="39.5 244.98 68.04 228.39 39.28 211.79 10.74 228.38 39.5 244.98"/><polygon class="cls-1" points="292.65 2.31 284.11 7.28 292.72 12.25 301.26 7.29 292.65 2.31"/><path d="M274.49,155.21h0a1.85,1.85,0,0,0-1.85,1.85h0a1.85,1.85,0,0,0,1.85,1.86h0a1.86,1.86,0,0,0,1.85-1.86h0A1.85,1.85,0,0,0,274.49,155.21Z"/><path d="M265.17,171.35h0a1.85,1.85,0,0,0-1.85,1.85h0a1.85,1.85,0,0,0,1.85,1.85h0A1.85,1.85,0,0,0,267,173.2h0A1.85,1.85,0,0,0,265.17,171.35Z"/><path d="M269.83,163.28a1.85,1.85,0,1,0,1.85,1.85A1.85,1.85,0,0,0,269.83,163.28Z"/><path d="M255.86,171.35h0A1.85,1.85,0,0,0,254,173.2h0a1.85,1.85,0,0,0,1.85,1.85h0a1.85,1.85,0,0,0,1.85-1.85h0A1.85,1.85,0,0,0,255.86,171.35Z"/><path d="M260.52,163.28a1.85,1.85,0,1,0,1.85,1.85A1.85,1.85,0,0,0,260.52,163.28Z"/><path d="M260.52,179.41a1.86,1.86,0,1,0,.33,3.67l-.05-.09c.47-.29.93-.62,1.39-.94a1.85,1.85,0,0,0-1.67-2.64Z"/><path d="M246.54,171.35h0a1.85,1.85,0,0,0-1.85,1.85h0a1.85,1.85,0,0,0,1.85,1.85h0a1.85,1.85,0,0,0,1.86-1.85h0A1.85,1.85,0,0,0,246.54,171.35Z"/><path d="M246.54,187.48h0a1.85,1.85,0,0,0-1.85,1.85h0a1.85,1.85,0,0,0,1.85,1.86h0a1.86,1.86,0,0,0,1.86-1.86h0A1.85,1.85,0,0,0,246.54,187.48Z"/><path d="M251.2,179.41a1.86,1.86,0,1,0,1.85,1.86A1.85,1.85,0,0,0,251.2,179.41Z"/><path d="M237.23,187.48h0a1.85,1.85,0,0,0-1.85,1.85h0a1.85,1.85,0,0,0,1.85,1.86h0a1.85,1.85,0,0,0,1.85-1.86h0A1.85,1.85,0,0,0,237.23,187.48Z"/><path d="M241.89,179.41a1.86,1.86,0,1,0,1.85,1.86A1.86,1.86,0,0,0,241.89,179.41Z"/><path d="M227.91,187.48h0a1.85,1.85,0,0,0-1.85,1.85h0a1.85,1.85,0,0,0,1.85,1.86h0a1.85,1.85,0,0,0,1.85-1.86h0A1.85,1.85,0,0,0,227.91,187.48Z"/><path d="M232.57,179.41a1.86,1.86,0,1,0,1.85,1.86A1.85,1.85,0,0,0,232.57,179.41Z"/><path d="M232.57,195.55a1.85,1.85,0,1,0,1.85,1.85A1.85,1.85,0,0,0,232.57,195.55Z"/><path d="M218.6,187.48h0a1.85,1.85,0,0,0-1.86,1.85h0a1.86,1.86,0,0,0,1.86,1.86h0a1.85,1.85,0,0,0,1.85-1.86h0A1.85,1.85,0,0,0,218.6,187.48Z"/><path d="M218.6,203.62h0a1.85,1.85,0,0,0-1.86,1.85h0a1.85,1.85,0,0,0,1.86,1.85h0a1.85,1.85,0,0,0,1.85-1.85h0A1.85,1.85,0,0,0,218.6,203.62Z"/><path d="M223.25,195.55a1.85,1.85,0,1,0,1.86,1.85A1.85,1.85,0,0,0,223.25,195.55Z"/><path d="M209.28,203.62h0a1.85,1.85,0,0,0-1.85,1.85h0a1.85,1.85,0,0,0,1.85,1.85h0a1.85,1.85,0,0,0,1.85-1.85h0A1.85,1.85,0,0,0,209.28,203.62Z"/><path d="M213.94,195.55a1.85,1.85,0,1,0,1.85,1.85A1.85,1.85,0,0,0,213.94,195.55Z"/><path d="M200,203.62h0a1.85,1.85,0,0,0-1.85,1.85h0a1.85,1.85,0,0,0,1.85,1.85h0a1.85,1.85,0,0,0,1.85-1.85h0A1.85,1.85,0,0,0,200,203.62Z"/><path d="M204.62,195.55a1.85,1.85,0,1,0,1.85,1.85A1.85,1.85,0,0,0,204.62,195.55Z"/><path d="M204.62,211.68a1.86,1.86,0,1,0,1.85,1.86A1.85,1.85,0,0,0,204.62,211.68Z"/><path d="M190.65,203.62h0a1.85,1.85,0,0,0-1.85,1.85h0a1.85,1.85,0,0,0,1.85,1.85h0a1.85,1.85,0,0,0,1.85-1.85h0A1.85,1.85,0,0,0,190.65,203.62Z"/><path d="M190.65,219.75h0a1.85,1.85,0,0,0-1.85,1.85h0a1.85,1.85,0,0,0,1.85,1.86h0a1.85,1.85,0,0,0,1.85-1.86h0A1.85,1.85,0,0,0,190.65,219.75Z"/><path d="M195.31,211.68a1.86,1.86,0,1,0,1.85,1.86A1.86,1.86,0,0,0,195.31,211.68Z"/><path d="M181.33,219.75h0a1.85,1.85,0,0,0-1.85,1.85h0a1.85,1.85,0,0,0,1.85,1.86h0a1.86,1.86,0,0,0,1.86-1.86h0A1.85,1.85,0,0,0,181.33,219.75Z"/><path d="M186,211.68a1.86,1.86,0,1,0,1.85,1.86A1.85,1.85,0,0,0,186,211.68Z"/><path d="M172,219.75h0a1.85,1.85,0,0,0-1.85,1.85h0a1.85,1.85,0,0,0,1.85,1.86h0a1.85,1.85,0,0,0,1.85-1.86h0A1.85,1.85,0,0,0,172,219.75Z"/><path d="M176.68,211.68a1.86,1.86,0,1,0,1.85,1.86A1.86,1.86,0,0,0,176.68,211.68Z"/><path d="M176.68,227.82a1.85,1.85,0,1,0,1.85,1.85A1.85,1.85,0,0,0,176.68,227.82Z"/><path d="M162.7,219.75h0a1.85,1.85,0,0,0-1.85,1.85h0a1.85,1.85,0,0,0,1.85,1.86h0a1.85,1.85,0,0,0,1.85-1.86h0A1.85,1.85,0,0,0,162.7,219.75Z"/><path d="M162.7,235.89h0a1.85,1.85,0,0,0-1.85,1.85h0a1.85,1.85,0,0,0,1.85,1.85h0a1.85,1.85,0,0,0,1.85-1.85h0A1.85,1.85,0,0,0,162.7,235.89Z"/><path d="M167.36,227.82a1.85,1.85,0,1,0,1.85,1.85A1.85,1.85,0,0,0,167.36,227.82Z"/><path d="M153.39,235.89h0a1.85,1.85,0,0,0-1.86,1.85h0a1.85,1.85,0,0,0,1.86,1.85h0a1.85,1.85,0,0,0,1.85-1.85h0A1.85,1.85,0,0,0,153.39,235.89Z"/><path d="M158,227.82a1.85,1.85,0,1,0,1.86,1.85A1.85,1.85,0,0,0,158,227.82Z"/><path d="M144.07,235.89h0a1.85,1.85,0,0,0-1.85,1.85h0a1.85,1.85,0,0,0,1.85,1.85h0a1.85,1.85,0,0,0,1.85-1.85h0A1.85,1.85,0,0,0,144.07,235.89Z"/><path d="M148.73,227.82a1.85,1.85,0,1,0,1.85,1.85A1.85,1.85,0,0,0,148.73,227.82Z"/><path d="M148.73,244a1.86,1.86,0,1,0,1.85,1.86A1.85,1.85,0,0,0,148.73,244Z"/><path d="M134.76,235.89h0a1.85,1.85,0,0,0-1.86,1.85h0a1.85,1.85,0,0,0,1.86,1.85h0a1.85,1.85,0,0,0,1.85-1.85h0A1.85,1.85,0,0,0,134.76,235.89Z"/><path d="M134.76,252h0a1.85,1.85,0,0,0-1.86,1.85h0a1.86,1.86,0,0,0,1.86,1.86h0a1.85,1.85,0,0,0,1.85-1.86h0A1.85,1.85,0,0,0,134.76,252Z"/><path d="M139.41,244a1.86,1.86,0,1,0,1.86,1.86A1.85,1.85,0,0,0,139.41,244Z"/><path d="M125.44,235.89h0a1.85,1.85,0,0,0-1.85,1.85h0a1.85,1.85,0,0,0,1.85,1.85h0a1.85,1.85,0,0,0,1.85-1.85h0A1.85,1.85,0,0,0,125.44,235.89Z"/><path d="M125.44,252h0a1.85,1.85,0,0,0-1.85,1.85h0a1.85,1.85,0,0,0,1.85,1.86h0a1.85,1.85,0,0,0,1.85-1.86h0A1.85,1.85,0,0,0,125.44,252Z"/><path d="M130.1,244a1.86,1.86,0,1,0,1.85,1.86A1.86,1.86,0,0,0,130.1,244Z"/><path d="M116.12,235.89h0a1.85,1.85,0,0,0-1.85,1.85h0a1.85,1.85,0,0,0,1.85,1.85h0a1.85,1.85,0,0,0,1.86-1.85h0A1.85,1.85,0,0,0,116.12,235.89Z"/><path d="M116.12,252h0a1.85,1.85,0,0,0-1.85,1.85h0a1.85,1.85,0,0,0,1.85,1.86h0a1.86,1.86,0,0,0,1.86-1.86h0A1.85,1.85,0,0,0,116.12,252Z"/><path d="M120.78,244a1.86,1.86,0,1,0,1.85,1.86A1.85,1.85,0,0,0,120.78,244Z"/><path d="M106.81,235.89h0a1.85,1.85,0,0,0-1.85,1.85h0a1.85,1.85,0,0,0,1.85,1.85h0a1.85,1.85,0,0,0,1.85-1.85h0A1.85,1.85,0,0,0,106.81,235.89Z"/><path d="M106.81,252h0a1.85,1.85,0,0,0-1.85,1.85h0a1.85,1.85,0,0,0,1.85,1.86h0a1.85,1.85,0,0,0,1.85-1.86h0A1.85,1.85,0,0,0,106.81,252Z"/><path d="M111.47,244a1.86,1.86,0,1,0,1.85,1.86A1.86,1.86,0,0,0,111.47,244Z"/><path d="M97.49,235.89h0a1.85,1.85,0,0,0-1.85,1.85h0a1.85,1.85,0,0,0,1.85,1.85h0a1.85,1.85,0,0,0,1.85-1.85h0A1.85,1.85,0,0,0,97.49,235.89Z"/><path d="M102.15,244a1.86,1.86,0,1,0,1.85,1.86A1.85,1.85,0,0,0,102.15,244Z"/><path d="M88.18,235.89h0a1.85,1.85,0,0,0-1.86,1.85h0a1.85,1.85,0,0,0,1.86,1.85h0A1.85,1.85,0,0,0,90,237.74h0A1.85,1.85,0,0,0,88.18,235.89Z"/><circle cx="92.83" cy="229.67" r="1.85"/><path d="M92.83,244a1.86,1.86,0,1,0,1.86,1.86A1.85,1.85,0,0,0,92.83,244Z"/><path d="M78.86,219.75h0A1.85,1.85,0,0,0,77,221.6h0a1.85,1.85,0,0,0,1.85,1.86h0a1.85,1.85,0,0,0,1.85-1.86h0A1.85,1.85,0,0,0,78.86,219.75Z"/><path d="M78.86,235.89h0a1.83,1.83,0,0,0-1.6.93l.95.92.65.59c.34.32.69.63,1,.94a1.84,1.84,0,0,0,.81-1.53h0A1.85,1.85,0,0,0,78.86,235.89Z"/><circle cx="83.52" cy="229.67" r="1.85"/><path d="M69.55,207.32a1.85,1.85,0,0,0,1.85-1.85h0a1.85,1.85,0,0,0-1.85-1.85h0a1.85,1.85,0,0,0-1.86,1.85h0a1.85,1.85,0,0,0,1.86,1.85Z"/><path d="M67.69,221.6a1.86,1.86,0,0,0,1.86,1.86h0a1.85,1.85,0,0,0,1.85-1.86h0a1.85,1.85,0,0,0-1.85-1.85h0a1.85,1.85,0,0,0-1.86,1.85Z"/><path d="M74.2,211.68a1.86,1.86,0,1,0,1.86,1.86A1.85,1.85,0,0,0,74.2,211.68Z"/><path d="M74.2,227.82a1.85,1.85,0,1,0,1.86,1.85A1.85,1.85,0,0,0,74.2,227.82Z"/><path d="M60.23,207.32a1.85,1.85,0,0,0,1.85-1.85h0a1.85,1.85,0,0,0-1.85-1.85h0a1.85,1.85,0,0,0-1.85,1.85h0a1.85,1.85,0,0,0,1.85,1.85Z"/><path d="M66.74,213.54a1.85,1.85,0,1,0-1.85,1.85A1.85,1.85,0,0,0,66.74,213.54Z"/><path d="M50.91,191.19a1.86,1.86,0,0,0,1.86-1.86h0a1.85,1.85,0,0,0-1.86-1.85h0a1.85,1.85,0,0,0-1.85,1.85h0a1.85,1.85,0,0,0,1.85,1.86Z"/><path d="M57.42,197.4a1.85,1.85,0,1,0-1.85,1.85A1.85,1.85,0,0,0,57.42,197.4Z"/><path d="M43.45,157.06a1.85,1.85,0,0,0-1.85-1.85h0a1.85,1.85,0,0,0-1.85,1.85h0a1.85,1.85,0,0,0,1.85,1.86h0a1.86,1.86,0,0,0,1.85-1.86Z"/><path d="M41.6,171.35h0a1.85,1.85,0,0,0-1.8,1.43c0,.14.07.28.1.42.11.42.23.84.35,1.26a1.84,1.84,0,0,0,1.35.59h0a1.85,1.85,0,0,0,1.85-1.85h0A1.85,1.85,0,0,0,41.6,171.35Z"/><path d="M48.11,181.27a1.86,1.86,0,1,0-1.85,1.85A1.85,1.85,0,0,0,48.11,181.27Z"/><path d="M36.94,150.85a1.86,1.86,0,0,0,0-3.71,2.09,2.09,0,0,0-.5.08c0,.19,0,.37,0,.56,0,1,0,2,0,3A1.77,1.77,0,0,0,36.94,150.85Z"/><path d="M220.09,14.64c-11.69-6.75-22.89-9.43-32.61-8a30.94,30.94,0,0,0-10.95,3.74,29.7,29.7,0,0,0-2.81,1.86L56,82c-.26.13-.52.25-.78.4-.48.28-.94.59-1.41.89l-.34.21h0c-10.51,7-16.3,20.52-16.35,38.26A90.34,90.34,0,0,0,38,133.52c-.08.34-.17.67-.24,1a2.07,2.07,0,0,0,.35-.22,121.05,121.05,0,0,0,8,29,1.85,1.85,0,0,0,.23,3.68,1.77,1.77,0,0,0,1.14-.41c.76,1.73,1.57,3.45,2.4,5.16a1.84,1.84,0,0,0-.74,1.47h0a1.85,1.85,0,0,0,1.85,1.85h0a1.7,1.7,0,0,0,.51-.08c.88,1.72,1.8,3.41,2.75,5.09a1.85,1.85,0,0,0,1.4,3.06,2.2,2.2,0,0,0,.36,0c1,1.65,2,3.29,3,4.9a1.83,1.83,0,0,0-.6,1.35h0a1.85,1.85,0,0,0,1.85,1.86h0A1.86,1.86,0,0,0,61,191c1.08,1.57,2.2,3.11,3.33,4.63a1.85,1.85,0,1,0,2.11,2.75A120.88,120.88,0,0,0,87.9,219.78a1.85,1.85,0,0,0-1.58,1.82h0a1.86,1.86,0,0,0,1.86,1.86h0A1.85,1.85,0,0,0,90,221.6h0a2.66,2.66,0,0,0,0-.28,86.58,86.58,0,0,0,7.44,4.84c1.22.71,2.44,1.37,3.66,2a1.85,1.85,0,1,0,2.9,1.52s0-.09,0-.13a50.86,50.86,0,0,0,20.85,5A32.33,32.33,0,0,0,139,231.46a1.74,1.74,0,0,0,.45.06,1.86,1.86,0,0,0,1.74-1.21l11.71-6.94a1.84,1.84,0,0,0,.53.09h0A1.85,1.85,0,0,0,155.2,222l11.41-6.76a1.84,1.84,0,0,0,2.59-1.53l11.2-6.64a1.86,1.86,0,0,0,.93.26h0a1.85,1.85,0,0,0,1.86-1.85h0s0,0,0-.06l11-6.53a1.82,1.82,0,0,0,1.1.37,1.85,1.85,0,0,0,1.85-1.85,1.07,1.07,0,0,0,0-.25L208,190.7a1.86,1.86,0,0,0,1.25.49h0a1.85,1.85,0,0,0,1.85-1.86h0a1.67,1.67,0,0,0-.06-.44l10.81-6.39a1.87,1.87,0,0,0,1.37.62,1.85,1.85,0,0,0,1.86-1.85,1.8,1.8,0,0,0-.12-.62l10.75-6.36a1.82,1.82,0,0,0,1.49.76h0a1.85,1.85,0,0,0,1.85-1.85h0a1.82,1.82,0,0,0-.18-.78l10.71-6.35a1.85,1.85,0,0,0,3.44-.94,1.89,1.89,0,0,0-.26-.94l10.37-6.14-.11-.18.37-.23a1.84,1.84,0,0,0,1.75,1.28h0a1.86,1.86,0,0,0,1.86-1.86h0a1.87,1.87,0,0,0-.74-1.47c9-7.4,14-20.18,14-36.59a103.14,103.14,0,0,0-4.79-30.12C266.37,58.78,245,29,220.09,14.64Zm-27.4-6.38c8.07,0,17.07,2.72,26.4,8.12,32.78,18.92,59.36,65,59.25,102.61a59.71,59.71,0,0,1-3.24,20.2c-.43,1.17-.9,2.31-1.41,3.4a35.31,35.31,0,0,1-2.78,4.91,31,31,0,0,1-2.22,2.94,28.59,28.59,0,0,1-7.43,6.2c-8.66,5-19.6,5.11-31.51.57-1.07-.41-2.15-.86-3.24-1.34a75.53,75.53,0,0,1-6.81-3.47c-1.38-.8-2.76-1.67-4.12-2.56-1-.67-2-1.36-3-2.07a105.15,105.15,0,0,1-9.87-8.06l9.81-5.7,3.16-1.83,10.78-6.27,2.15-1.25-2-1.16-10.87-6.27-3.1-1.79-10.87-6.28-3.1-1.79-8.34-4.81-7.9,4.59-2.9,1.69-1,.57a142.13,142.13,0,0,1-11-23.12c-.41-1.11-.81-2.23-1.18-3.35-.68-2-1.28-4-1.85-6-.18-.66-.37-1.31-.55-2a108.78,108.78,0,0,1-2.7-13.66L161,59.54a87.8,87.8,0,0,1-.55-9.77c0-16.42,5.13-29,14.39-35.84l5-3A30.58,30.58,0,0,1,192.69,8.26Zm43.88,163.21-.52.31-12.91,7.65-1.45.85L209.5,187.5l-1.94,1.15-11.77,7L193.51,197l-11.46,6.79-2.55,1.51-11.24,6.66-2.75,1.63-11,6.54-2.9,1.72-2,1.17c4.84-6,7.92-14.1,9-23.83q.19-1.66.3-3.39c.1-1.55.17-3.12.18-4.74,0-2.64-.13-5.33-.37-8-.11-1.18-.24-2.36-.39-3.55a114,114,0,0,0-4.68-20.55c-.37-1.15-.76-2.29-1.16-3.43-.67-1.88-1.36-3.75-2.12-5.61-.35-.88-.73-1.75-1.1-2.62a147.54,147.54,0,0,0-17.34-30l11.64-6.76,2.31-1.34,11.6-6.75,2.39-1.38,1.57-.92L116.78,74.26l-.5.29-1.84,1.07-12,7-2,1.13-3.36,1.95C85.69,79.5,74.8,77.17,65.37,78.82L167.62,18.2c-5.94,7.59-9.14,18.4-9.18,31.57,0,.2,0,.41,0,.61,0,1.19,0,2.38.09,3.58a103.51,103.51,0,0,0,3.26,20.82c.3,1.15.62,2.3.95,3.45a141.19,141.19,0,0,0,14.06,32.17l-8.34,4.85-2.94,1.7-11,6.4-2.25,1.3,2.45,1.41,10.86,6.28,3.11,1.79,10.87,6.27,3.1,1.8,7.9,4.56,8-4.65,2.34-1.35.83.75a103.31,103.31,0,0,0,10.85,8.72c.25.18.5.33.75.5,1.78,1.21,3.57,2.35,5.38,3.4a76.65,76.65,0,0,0,7.61,3.85c.7.3,1.39.59,2.09.86a48.48,48.48,0,0,0,17.71,3.68,35.26,35.26,0,0,0,6.64-.63ZM99.12,86.84l1.77-1L104,84l10.88-6.32,2-1.14,1,.59,10.79,6.23,3.18,1.84,10.79,6.23,3.19,1.84,10.78,6.22.91.53-1.23.71-11,6.42-2.93,1.7-11,6.4-.52.3-.54-.7c-1.24-1.59-2.51-3.13-3.8-4.64-.79-.92-1.59-1.83-2.39-2.72-2.29-2.54-4.65-4.94-7-7.2l-.4-.37c-.79-.73-1.58-1.45-2.37-2.15l-.36-.31c-.86-.75-1.73-1.48-2.6-2.2l-.64-.51c-.68-.55-1.36-1.08-2-1.6l-.06-.05-.69-.52c-.7-.53-1.4-1-2.11-1.54l-.49-.35-.61-.41c-.73-.5-1.46-1-2.2-1.47l-.71-.45C100.81,87.86,100,87.33,99.12,86.84ZM114,188.07l-10.26-5.92-3.2-1.84L96.65,178l8.31-4.83,2.77-1.61,6.18-3.59,9.73,5.62L126,175l5.33,3.07ZM89,139.3l-2.71,1.57-3.89,2.26-2-1.18-3.19-1.84L68,134.81l4.44-2.57,2.06-1.2,7.82-4.55,9,5.22,3.16,1.83,2.21,1.27Zm8.55-51h0a1.84,1.84,0,0,0-.45,1.2h0a1.83,1.83,0,0,0,.46,1.21,1.86,1.86,0,0,0,1.28.63H99a1.86,1.86,0,0,0,1.72-1.16h0l.61.4c.69.44,1.38.9,2.06,1.37l.69.46,1,.72,1.43,1,.32.23.76.6c.25.18.49.38.74.57l.7.55,1.21,1,.92.78a1.84,1.84,0,0,0,.43.91,1.86,1.86,0,0,0,1.29.63H113l.78.7,1,.91,1.45,1.35.83.81.61.59h0a1.86,1.86,0,0,0-1.85,1.85h0a1.88,1.88,0,0,0,.46,1.22,1.86,1.86,0,0,0,1.28.63h.11a1.85,1.85,0,0,0,1.85-1.84h0l.48.49.44.46c.51.53,1,1.08,1.51,1.62l.72.79c.5.55,1,1.11,1.48,1.67l.45.52c.8.94,1.6,1.89,2.39,2.85l.46.57.6.76.45.55c.31.39.61.8.92,1.2l.22.29-.9.52-1.75,1-4.83,2.81-4.24,2.46-.25.15-.53.31-2.18-1.26L112,121.74l-3.72-2.15L104,117.08l-3-1.75-2-1.12L90,109l-.32-.18L87,107.27l-2.88-1.67-3.73-2.15L76,101,74.43,100l1.13-.66h.14a1.84,1.84,0,0,0,1.67-1.07l3-1.74,6-3.51,3-1.77h.22a1.86,1.86,0,0,0,1.72-1.14l1.21-.71,3.49-2h0C96.6,87.7,97.09,88,97.59,88.27Zm83.18,22.14,2.38-1.38,7.16-4.16,8,4.63,1.74,1,12.24,7.06,1.73,1,10.57,6.1-11,6.37-1.11.65-11.35,6.59c-1.47-1.41-2.92-2.86-4.34-4.37-.82-.87-1.63-1.75-2.43-2.65q-2-2.26-3.93-4.63c-.56-.68-1.11-1.36-1.65-2.06a141.72,141.72,0,0,1-9.28-13.44Zm12.72,22.79c.43.48.86,1,1.3,1.43,1.47,1.58,3,3.1,4.49,4.58l.11.11-.93.54-7.9,4.58-7.6-4.39-1.69-1L169,132l-1.68-1-11-6.36,10.59-6.15,2.29-1.34,8.68-5A141.42,141.42,0,0,0,193.49,133.2Z"/><path d="M6.75,228.38,39.5,247.29,72,228.39,39.28,209.48Zm61.29,0L39.5,245l-28.76-16.6,28.54-16.59Z"/><polygon points="117.87 172.6 115.75 171.38 113.92 170.32 108.64 173.39 106.06 174.89 100.64 178.03 114.02 185.76 119.48 182.59 122.57 180.79 127.3 178.05 117.87 172.6"/><polygon points="37.33 167.23 18.6 156.42 0 167.22 18.73 178.04 37.33 167.23"/><polygon points="179.71 156.2 177.82 155.11 173.83 157.43 171.44 158.81 166.84 161.49 175.32 166.38 176.28 166.94 177.9 167.87 184.51 164.03 185.76 163.3 188.88 161.49 182.9 158.04 179.71 156.2"/><polygon points="224.89 101.44 224.01 101.95 224.29 102.12 235.39 108.53 236.72 109.29 238.95 107.99 249.33 101.96 236.62 94.62 224.89 101.44"/><polygon points="152.1 61.58 141.91 55.7 129.29 63.03 137.63 67.84 140.72 69.63 142 70.36 147.14 67.38 148.7 66.47 154.62 63.03 152.86 62.02 152.1 61.58"/><path d="M240.19,83.71l3.19,1.83,3.9,2.26,3-1.74,2.76-1.61,6.76-3.93-4.94-2.85-.59-.35-7.08-4.08-12.53,7.28Zm15.63-3.19L252,82.77l-2.59,1.51-2.09,1.21-4.14-2.39-.7-.4-3.78-2.18L244.79,77l2.42-1.41,1.17.68Z"/><path d="M305.25,7.28,292.65,0,280.11,7.28l12.61,7.28Zm-21.14,0,8.54-5,8.61,5-8.54,5Z"/><polygon points="165.69 59.5 171.79 63.03 177.86 59.51 171.75 55.98 165.69 59.5"/><polygon points="245.64 52.86 239.53 49.33 233.47 52.85 239.57 56.38 245.64 52.86"/><polygon points="255.42 17.86 249.31 14.33 243.24 17.86 249.35 21.39 255.42 17.86"/><polygon points="289.75 87.91 295.86 91.44 301.92 87.91 295.81 84.39 289.75 87.91"/><path d="M230.37,67,220.24,61.1,217,59.25l-7.71-4.45-7.77,4.52-3.19,1.85-9.93,5.77,21,12.15Zm-36.77.66-1.17-.67,16.91-9.83,17,9.84-1.37.8-3.12,1.81-10.84,6.3-1.58.92-1.9-1.1-10.8-6.24Z"/><polygon points="292.69 56.67 279.98 49.33 267.36 56.66 280.07 64 292.69 56.67"/><path d="M122.17,115.51h.11a1.85,1.85,0,1,0-1.85-1.85,1.78,1.78,0,0,0,.46,1.21A1.82,1.82,0,0,0,122.17,115.51Z"/><path d="M112.86,115.51h.1a1.87,1.87,0,1,0-1.39-.64A1.82,1.82,0,0,0,112.86,115.51Z"/><path d="M117.51,123.58h.11a1.85,1.85,0,0,0,1.85-1.85h0a1.85,1.85,0,0,0-1.85-1.85h0a1.85,1.85,0,0,0-1.85,1.85h0a1.86,1.86,0,0,0,1.74,1.84Z"/><path d="M103.54,99.38h.11a1.85,1.85,0,1,0-1.85-1.85,1.86,1.86,0,0,0,1.74,1.84Z"/><path d="M103.54,115.51h.11a1.85,1.85,0,1,0-1.85-1.85,1.86,1.86,0,0,0,1.74,1.84Z"/><path d="M108.2,107.45h.11a1.85,1.85,0,0,0,1.85-1.86h0a1.85,1.85,0,0,0-1.85-1.85h0a1.85,1.85,0,0,0-1.86,1.85h0a1.86,1.86,0,0,0,1.75,1.85Z"/><path d="M89.67,103.75h0a1.85,1.85,0,0,0-1.85,1.85h0a1.86,1.86,0,0,0,1.75,1.85h.1a1.86,1.86,0,0,0,1.86-1.86h0A1.85,1.85,0,0,0,89.67,103.75Z"/><path d="M94.33,95.69a1.85,1.85,0,0,0-1.85,1.85,1.86,1.86,0,0,0,1.75,1.84h.1a1.85,1.85,0,0,0,0-3.7Z"/><path d="M98.88,107.45H99a1.85,1.85,0,0,0,1.85-1.86h0A1.85,1.85,0,0,0,99,103.75h0a1.85,1.85,0,0,0-1.85,1.85h0a1.88,1.88,0,0,0,.46,1.22A1.86,1.86,0,0,0,98.88,107.45Z"/><path d="M85,95.69a1.85,1.85,0,0,0-1.86,1.85,1.88,1.88,0,0,0,1.75,1.84H85a1.85,1.85,0,1,0,0-3.7Z"/></g></g></svg>