<svg xmlns="http://www.w3.org/2000/svg" viewBox="0 0 1205.8 600.6">
  <title>Theia-Logo</title>
  <path d="M90,600.6a90.1,90.1,0,0,1-90-90V90A90.1,90.1,0,0,1,90,0H905.5a300.29,300.29,0,0,1,212.34,512.64,298.31,298.31,0,0,1-212.34,88Z" style="fill: #fff"/>
  <g>
    <path d="M908.1,32.8c147.9,0,267.7,119.8,267.7,267.7S1056,568.2,908.1,568.2H318a38.2,38.2,0,1,1,0-76.4H455.5a38.2,38.2,0,0,0,0-76.4H424.9a38.2,38.2,0,1,1,0-76.4h91.7c21.22-.06,37.67-17.35,38.2-38.2a38.2,38.2,0,0,0-38.2-38.2H195.7a38.2,38.2,0,1,1,0-76.4H432.5c21.22-.06,37.67-17.35,38.2-38.2a38.2,38.2,0,0,0-38.2-38.2H379.1a38.2,38.2,0,0,1-38.2-38.2c0-21.1,17.1-39.2,38.2-39.2ZM865.3,122h0A148.67,148.67,0,0,0,716.6,270.7v59.5a148.7,148.7,0,0,0,297.4,0V270.7A148.73,148.73,0,0,0,865.3,122Zm50.8,140.6A35.93,35.93,0,0,1,952,298.5v4.6A35.93,35.93,0,0,1,916.1,339H804.5a35.93,35.93,0,0,1-35.9-35.9v-4.6a35.93,35.93,0,0,1,35.9-35.9Z"/>
    <path d="M198,491.8a35.81,35.81,0,0,1,35.9,35.9v4.6A35.87,35.87,0,0,1,198,568.2H65.9A35.93,35.93,0,0,1,30,532.3v-4.6a35.87,35.87,0,0,1,35.9-35.9Z"/>
    <path d="M259.2,33.4A35.85,35.85,0,0,1,295,69.3V74a35.76,35.76,0,0,1-35.8,35.8H111.7A35.85,35.85,0,0,1,75.8,74V69.3a35.93,35.93,0,0,1,35.9-35.9Z"/>
    <path d="M305,339a35.93,35.93,0,0,1,35.9,35.9v4.6A35.93,35.93,0,0,1,305,415.4H224a35.93,35.93,0,0,1-35.9-35.9v-4.6A35.93,35.93,0,0,1,224,339Z"/>
  </g>
</svg>
