<svg id="Layer_1" data-name="Layer 1" xmlns="http://www.w3.org/2000/svg" viewBox="0 0 229.25 301.09"><title>topic-serverless</title><path d="M143.58,259h0a1.68,1.68,0,0,0-1.68,1.68h0a1.68,1.68,0,0,0,1.68,1.68h0a1.69,1.69,0,0,0,1.69-1.68h0A1.69,1.69,0,0,0,143.58,259Z"/><path d="M143.58,271.9h0a1.68,1.68,0,0,0-1.68,1.68h0a1.68,1.68,0,0,0,1.68,1.68h0a1.69,1.69,0,0,0,1.69-1.68h0A1.69,1.69,0,0,0,143.58,271.9Z"/><circle cx="147.31" cy="267.13" r="1.68"/><path d="M136.13,246.08h0a1.68,1.68,0,0,0-1.68,1.68h0a1.68,1.68,0,0,0,1.68,1.68h0a1.68,1.68,0,0,0,1.68-1.68h0A1.68,1.68,0,0,0,136.13,246.08Z"/><path d="M136.13,259h0a1.68,1.68,0,0,0-1.68,1.68h0a1.68,1.68,0,0,0,1.68,1.68h0a1.68,1.68,0,0,0,1.68-1.68h0A1.68,1.68,0,0,0,136.13,259Z"/><path d="M139.86,252.53a1.69,1.69,0,1,0,1.68,1.68A1.69,1.69,0,0,0,139.86,252.53Z"/><path d="M136.13,271.9h0a1.68,1.68,0,0,0-1.68,1.68h0a1.68,1.68,0,0,0,1.68,1.68h0a1.68,1.68,0,0,0,1.68-1.68h0A1.68,1.68,0,0,0,136.13,271.9Z"/><circle cx="139.86" cy="267.13" r="1.68"/><path d="M136.13,284.81h0a1.68,1.68,0,0,0-1.68,1.68h0a1.69,1.69,0,0,0,1.68,1.69h0a1.69,1.69,0,0,0,1.68-1.69h0A1.68,1.68,0,0,0,136.13,284.81Z"/><path d="M139.86,278.36a1.68,1.68,0,1,0,1.68,1.68A1.69,1.69,0,0,0,139.86,278.36Z"/><path d="M128.67,259h0a1.68,1.68,0,0,0-1.68,1.68h0a1.68,1.68,0,0,0,1.68,1.68h0a1.69,1.69,0,0,0,1.69-1.68h0A1.69,1.69,0,0,0,128.67,259Z"/><path d="M132.4,252.53a1.69,1.69,0,1,0,1.68,1.68A1.68,1.68,0,0,0,132.4,252.53Z"/><path d="M128.67,271.9h0a1.68,1.68,0,0,0-1.68,1.68h0a1.68,1.68,0,0,0,1.68,1.68h0a1.69,1.69,0,0,0,1.69-1.68h0A1.69,1.69,0,0,0,128.67,271.9Z"/><circle cx="132.4" cy="267.13" r="1.68"/><path d="M128.67,284.81h0a1.68,1.68,0,0,0-1.68,1.68h0a1.69,1.69,0,0,0,1.68,1.69h0a1.69,1.69,0,0,0,1.69-1.69h0A1.69,1.69,0,0,0,128.67,284.81Z"/><path d="M132.4,278.36a1.68,1.68,0,1,0,1.68,1.68A1.68,1.68,0,0,0,132.4,278.36Z"/><path d="M121.22,271.9h0a1.68,1.68,0,0,0-1.68,1.68h0a1.68,1.68,0,0,0,1.68,1.68h0a1.68,1.68,0,0,0,1.68-1.68h0A1.68,1.68,0,0,0,121.22,271.9Z"/><circle cx="124.95" cy="267.13" r="1.68"/><path d="M121.22,284.81h0a1.68,1.68,0,0,0-1.68,1.68h0a1.69,1.69,0,0,0,1.68,1.69h0a1.69,1.69,0,0,0,1.68-1.69h0A1.68,1.68,0,0,0,121.22,284.81Z"/><path d="M125,278.36a1.68,1.68,0,1,0,1.68,1.68A1.69,1.69,0,0,0,125,278.36Z"/><circle cx="124.95" cy="292.95" r="1.68"/><path d="M113.76,284.81h0a1.68,1.68,0,0,0-1.68,1.68h0a1.69,1.69,0,0,0,1.68,1.69h0a1.69,1.69,0,0,0,1.69-1.69h0A1.69,1.69,0,0,0,113.76,284.81Z"/><path d="M117.49,278.36a1.68,1.68,0,1,0,1.68,1.68A1.68,1.68,0,0,0,117.49,278.36Z"/><path d="M113.76,297.72h0a1.69,1.69,0,0,0-1.68,1.69h0a1.69,1.69,0,0,0,1.68,1.68h0a1.69,1.69,0,0,0,1.69-1.68h0A1.69,1.69,0,0,0,113.76,297.72Z"/><path d="M117.49,291.27a1.68,1.68,0,1,0,1.68,1.68A1.68,1.68,0,0,0,117.49,291.27Z"/><path d="M106.31,284.81h0a1.68,1.68,0,0,0-1.68,1.68h0a1.69,1.69,0,0,0,1.68,1.69h0a1.69,1.69,0,0,0,1.68-1.69h0A1.68,1.68,0,0,0,106.31,284.81Z"/><path d="M106.31,297.72h0a1.69,1.69,0,0,0-1.68,1.69h0a1.68,1.68,0,0,0,1.68,1.68h0a1.68,1.68,0,0,0,1.68-1.68h0A1.69,1.69,0,0,0,106.31,297.72Z"/><circle cx="110.04" cy="292.95" r="1.68"/><path d="M98.86,284.81h0a1.68,1.68,0,0,0-1.68,1.68h0a1.69,1.69,0,0,0,1.68,1.69h0a1.69,1.69,0,0,0,1.68-1.69h0A1.69,1.69,0,0,0,98.86,284.81Z"/><path d="M102.58,278.36a1.68,1.68,0,1,0,1.68,1.68A1.68,1.68,0,0,0,102.58,278.36Z"/><path d="M98.86,297.72h0a1.69,1.69,0,0,0-1.68,1.69h0a1.69,1.69,0,0,0,1.68,1.68h0a1.69,1.69,0,0,0,1.68-1.68h0A1.69,1.69,0,0,0,98.86,297.72Z"/><circle cx="102.58" cy="292.95" r="1.68"/><path d="M91.4,271.9h0a1.68,1.68,0,0,0-1.68,1.68h0a1.68,1.68,0,0,0,1.68,1.68h0a1.68,1.68,0,0,0,1.68-1.68h0A1.68,1.68,0,0,0,91.4,271.9Z"/><path d="M91.4,284.81h0a1.68,1.68,0,0,0-1.68,1.68h0a1.69,1.69,0,0,0,1.68,1.69h0a1.69,1.69,0,0,0,1.68-1.69h0A1.68,1.68,0,0,0,91.4,284.81Z"/><path d="M95.13,278.36A1.68,1.68,0,1,0,96.81,280,1.68,1.68,0,0,0,95.13,278.36Z"/><path d="M91.4,297.72h0a1.69,1.69,0,0,0-1.68,1.69h0a1.68,1.68,0,0,0,1.68,1.68h0a1.68,1.68,0,0,0,1.68-1.68h0A1.69,1.69,0,0,0,91.4,297.72Z"/><circle cx="95.13" cy="292.95" r="1.68"/><path d="M84,271.9h0a1.69,1.69,0,0,0-1.69,1.68h0A1.69,1.69,0,0,0,84,275.26h0a1.68,1.68,0,0,0,1.68-1.68h0A1.68,1.68,0,0,0,84,271.9Z"/><path d="M84,284.81h0a1.69,1.69,0,0,0-1.69,1.68h0A1.69,1.69,0,0,0,84,288.18h0a1.69,1.69,0,0,0,1.68-1.69h0A1.69,1.69,0,0,0,84,284.81Z"/><path d="M87.67,278.36A1.68,1.68,0,1,0,89.35,280,1.68,1.68,0,0,0,87.67,278.36Z"/><path d="M84,297.72h0a1.69,1.69,0,0,0-1.69,1.69h0A1.69,1.69,0,0,0,84,301.09h0a1.69,1.69,0,0,0,1.68-1.68h0A1.69,1.69,0,0,0,84,297.72Z"/><circle cx="87.67" cy="292.95" r="1.68"/><path d="M76.49,271.9h0a1.68,1.68,0,0,0-1.68,1.68h0a1.68,1.68,0,0,0,1.68,1.68h0a1.68,1.68,0,0,0,1.68-1.68h0A1.68,1.68,0,0,0,76.49,271.9Z"/><circle cx="80.22" cy="267.13" r="1.68"/><path d="M76.49,284.81h0a1.68,1.68,0,0,0-1.68,1.68h0a1.69,1.69,0,0,0,1.68,1.69h0a1.69,1.69,0,0,0,1.68-1.69h0A1.68,1.68,0,0,0,76.49,284.81Z"/><path d="M80.22,278.36A1.68,1.68,0,1,0,81.9,280,1.68,1.68,0,0,0,80.22,278.36Z"/><path d="M76.49,297.72h0a1.69,1.69,0,0,0-1.68,1.69h0a1.68,1.68,0,0,0,1.68,1.68h0a1.68,1.68,0,0,0,1.68-1.68h0A1.69,1.69,0,0,0,76.49,297.72Z"/><circle cx="80.22" cy="292.95" r="1.68"/><path d="M69,236.53h0a1.68,1.68,0,0,0,1.68-1.68h0A1.69,1.69,0,0,0,69,233.16h0a1.69,1.69,0,0,0-1.69,1.69h0A1.69,1.69,0,0,0,69,236.53Z"/><path d="M69,259h0a1.69,1.69,0,0,0-1.69,1.68h0A1.69,1.69,0,0,0,69,262.35h0a1.68,1.68,0,0,0,1.68-1.68h0A1.68,1.68,0,0,0,69,259Z"/><path d="M69,271.9h0a1.69,1.69,0,0,0-1.69,1.68h0A1.69,1.69,0,0,0,69,275.26h0a1.68,1.68,0,0,0,1.68-1.68h0A1.68,1.68,0,0,0,69,271.9Z"/><circle cx="72.76" cy="267.13" r="1.68"/><path d="M69,284.81h0a1.69,1.69,0,0,0-1.69,1.68h0A1.69,1.69,0,0,0,69,288.18h0a1.69,1.69,0,0,0,1.68-1.69h0A1.68,1.68,0,0,0,69,284.81Z"/><path d="M72.76,278.36A1.68,1.68,0,1,0,74.45,280,1.68,1.68,0,0,0,72.76,278.36Z"/><path d="M69,297.72h0a1.69,1.69,0,0,0-1.69,1.69h0A1.69,1.69,0,0,0,69,301.09h0a1.68,1.68,0,0,0,1.68-1.68h0A1.69,1.69,0,0,0,69,297.72Z"/><circle cx="72.76" cy="292.95" r="1.68"/><path d="M61.58,246.08h0a1.68,1.68,0,0,0-1.68,1.68h0a1.68,1.68,0,0,0,1.68,1.68h0a1.68,1.68,0,0,0,1.68-1.68h0A1.68,1.68,0,0,0,61.58,246.08Z"/><path d="M65.31,243a1.68,1.68,0,1,0-1.68-1.68A1.68,1.68,0,0,0,65.31,243Z"/><path d="M61.58,259h0a1.68,1.68,0,0,0-1.68,1.68h0a1.68,1.68,0,0,0,1.68,1.68h0a1.68,1.68,0,0,0,1.68-1.68h0A1.68,1.68,0,0,0,61.58,259Z"/><path d="M61.58,271.9h0a1.68,1.68,0,0,0-1.68,1.68h0a1.68,1.68,0,0,0,1.68,1.68h0a1.68,1.68,0,0,0,1.68-1.68h0A1.68,1.68,0,0,0,61.58,271.9Z"/><path d="M65.31,265.44A1.69,1.69,0,1,0,67,267.13,1.69,1.69,0,0,0,65.31,265.44Z"/><path d="M61.58,284.81h0a1.68,1.68,0,0,0-1.68,1.68h0a1.69,1.69,0,0,0,1.68,1.69h0a1.69,1.69,0,0,0,1.68-1.69h0A1.68,1.68,0,0,0,61.58,284.81Z"/><path d="M65.31,278.36A1.68,1.68,0,1,0,67,280,1.68,1.68,0,0,0,65.31,278.36Z"/><path d="M61.58,297.72h0a1.69,1.69,0,0,0-1.68,1.69h0a1.68,1.68,0,0,0,1.68,1.68h0a1.68,1.68,0,0,0,1.68-1.68h0A1.69,1.69,0,0,0,61.58,297.72Z"/><path d="M65.31,291.27A1.68,1.68,0,1,0,67,293,1.68,1.68,0,0,0,65.31,291.27Z"/><path d="M54.13,246.08h0a1.69,1.69,0,0,0-1.69,1.68h0a1.69,1.69,0,0,0,1.69,1.68h0a1.68,1.68,0,0,0,1.68-1.68h0A1.68,1.68,0,0,0,54.13,246.08Z"/><circle cx="57.85" cy="241.3" r="1.68"/><path d="M54.13,259h0a1.69,1.69,0,0,0-1.69,1.68h0a1.69,1.69,0,0,0,1.69,1.68h0a1.68,1.68,0,0,0,1.68-1.68h0A1.68,1.68,0,0,0,54.13,259Z"/><path d="M57.85,252.53a1.69,1.69,0,1,0,1.69,1.68A1.68,1.68,0,0,0,57.85,252.53Z"/><path d="M54.13,271.9h0a1.69,1.69,0,0,0-1.69,1.68h0a1.69,1.69,0,0,0,1.69,1.68h0a1.68,1.68,0,0,0,1.68-1.68h0A1.68,1.68,0,0,0,54.13,271.9Z"/><circle cx="57.85" cy="267.13" r="1.68"/><path d="M54.13,284.81h0a1.69,1.69,0,0,0-1.69,1.68h0a1.69,1.69,0,0,0,1.69,1.69h0a1.69,1.69,0,0,0,1.68-1.69h0A1.68,1.68,0,0,0,54.13,284.81Z"/><path d="M57.85,278.36A1.68,1.68,0,1,0,59.54,280,1.68,1.68,0,0,0,57.85,278.36Z"/><circle cx="57.85" cy="292.95" r="1.68"/><path d="M46.67,246.08h0A1.68,1.68,0,0,0,45,247.76h0a1.68,1.68,0,0,0,1.68,1.68h0a1.68,1.68,0,0,0,1.68-1.68h0A1.68,1.68,0,0,0,46.67,246.08Z"/><circle cx="50.4" cy="241.3" r="1.68"/><path d="M46.67,259h0A1.68,1.68,0,0,0,45,260.67h0a1.68,1.68,0,0,0,1.68,1.68h0a1.68,1.68,0,0,0,1.68-1.68h0A1.68,1.68,0,0,0,46.67,259Z"/><path d="M50.4,252.53a1.69,1.69,0,1,0,1.68,1.68A1.68,1.68,0,0,0,50.4,252.53Z"/><path d="M46.67,271.9h0A1.68,1.68,0,0,0,45,273.58h0a1.68,1.68,0,0,0,1.68,1.68h0a1.68,1.68,0,0,0,1.68-1.68h0A1.68,1.68,0,0,0,46.67,271.9Z"/><circle cx="50.4" cy="267.13" r="1.68"/><path d="M46.67,284.81h0A1.68,1.68,0,0,0,45,286.49h0a1.69,1.69,0,0,0,1.68,1.69h0a1.69,1.69,0,0,0,1.68-1.69h0A1.68,1.68,0,0,0,46.67,284.81Z"/><path d="M50.4,278.36A1.68,1.68,0,1,0,52.08,280,1.68,1.68,0,0,0,50.4,278.36Z"/><circle cx="50.4" cy="292.95" r="1.68"/><path d="M39.22,246.08h0a1.69,1.69,0,0,0-1.69,1.68h0a1.69,1.69,0,0,0,1.69,1.68h0a1.68,1.68,0,0,0,1.68-1.68h0A1.68,1.68,0,0,0,39.22,246.08Z"/><path d="M39.22,259h0a1.69,1.69,0,0,0-1.69,1.68h0a1.69,1.69,0,0,0,1.69,1.68h0a1.68,1.68,0,0,0,1.68-1.68h0A1.68,1.68,0,0,0,39.22,259Z"/><path d="M42.94,252.53a1.69,1.69,0,1,0,1.69,1.68A1.69,1.69,0,0,0,42.94,252.53Z"/><path d="M39.22,271.9h0a1.69,1.69,0,0,0-1.69,1.68h0a1.69,1.69,0,0,0,1.69,1.68h0a1.68,1.68,0,0,0,1.68-1.68h0A1.68,1.68,0,0,0,39.22,271.9Z"/><circle cx="42.94" cy="267.13" r="1.68"/><path d="M39.22,284.81h0a1.69,1.69,0,0,0-1.69,1.68h0a1.69,1.69,0,0,0,1.69,1.69h0a1.69,1.69,0,0,0,1.68-1.69h0A1.68,1.68,0,0,0,39.22,284.81Z"/><path d="M42.94,278.36A1.68,1.68,0,1,0,44.63,280,1.68,1.68,0,0,0,42.94,278.36Z"/><path d="M31.76,259h0a1.68,1.68,0,0,0-1.68,1.68h0a1.68,1.68,0,0,0,1.68,1.68h0a1.68,1.68,0,0,0,1.68-1.68h0A1.68,1.68,0,0,0,31.76,259Z"/><path d="M35.49,252.53a1.69,1.69,0,1,0,1.68,1.68A1.68,1.68,0,0,0,35.49,252.53Z"/><path d="M31.76,271.9h0a1.68,1.68,0,0,0-1.68,1.68h0a1.68,1.68,0,0,0,1.68,1.68h0a1.68,1.68,0,0,0,1.68-1.68h0A1.68,1.68,0,0,0,31.76,271.9Z"/><circle cx="35.49" cy="267.13" r="1.68"/><path d="M35.49,278.36A1.68,1.68,0,1,0,37.17,280,1.68,1.68,0,0,0,35.49,278.36Z"/><circle cx="28.03" cy="267.13" r="1.68"/><path d="M209.74,110.3a.76.76,0,0,0-.06-.2l0-.09a1.24,1.24,0,0,0-.17-.23h0a1,1,0,0,0-.2-.15l-29.21-17,13.13-44.81v0h0a.84.84,0,0,0,0-.27h0s0-.05,0-.07a.64.64,0,0,0,0-.2v0a.43.43,0,0,0,0-.07.8.8,0,0,0-.08-.16h0l0,0,0,0-.12-.12,0,0h0s0,0-.05,0l-.06,0L150.12,21.87a1,1,0,0,0-1,0L87.8,57.27a1.12,1.12,0,0,0-.24.19.1.1,0,0,1,0,0,1.18,1.18,0,0,0-.19.37h0L71.27,120a3.14,3.14,0,0,0-1.47-.37,3.21,3.21,0,0,0-.1,6.42L54.05,186.65a1,1,0,0,0,.46,1.12l27.62,16-14,42.53a1.67,1.67,0,0,0-.79,1.42h0a1.74,1.74,0,0,0,.12.61l-1.42,4.34a1.72,1.72,0,0,0-.74-.18,1.69,1.69,0,1,0,1.59,2.21l8.32,4.84a1.67,1.67,0,0,0-.41,1.09h0a1.68,1.68,0,0,0,1.68,1.68h0a1.68,1.68,0,0,0,1.58-1.11l8.31,4.82a1.68,1.68,0,1,0,2.86,1.67l8.3,4.82a1.64,1.64,0,0,0-.37,1h0a1.68,1.68,0,0,0,1.68,1.68h0a1.68,1.68,0,0,0,1.55-1l8.28,4.81a1.69,1.69,0,1,0,1.83-.59l.21-.35,0,0,1.9-3.22a1.65,1.65,0,0,0,1.1.42h0a1.69,1.69,0,0,0,1.69-1.68h0a1.69,1.69,0,0,0-1.12-1.58l2.11-3.57a1.68,1.68,0,1,0,1.69-2.86l2.1-3.55a1.62,1.62,0,0,0,1,.33h0a1.68,1.68,0,0,0,1.68-1.68h0a1.66,1.66,0,0,0-1-1.52l2.09-3.54a1.68,1.68,0,1,0,1.7-2.88l2.09-3.54a1.64,1.64,0,0,0,.87.25h0a1.69,1.69,0,0,0,1.69-1.68h0a1.69,1.69,0,0,0-.85-1.46l25.38-43-2.66,10.3a1,1,0,0,0,.43,1.08,1,1,0,0,0,1.16-.05l19.41-15.51L158,245.47a1,1,0,0,0,.53,1.23,1,1,0,0,0,.41.09,1,1,0,0,0,.87-.5l47.28-80.07a1,1,0,0,0-1.36-1.38l-17.94,10.29,11.87-39.94a1,1,0,0,0-.34-1.07,1,1,0,0,0-1.12-.08l-3.45,2,14.88-25h0a1,1,0,0,0,.11-.28.28.28,0,0,0,0-.09.68.68,0,0,0,0-.14s0,0,0-.07A.34.34,0,0,0,209.74,110.3ZM56.4,185.53l10.28-39.75a1.91,1.91,0,0,0,.1.34,3.23,3.23,0,1,0,.89-3.45l-.26.26L72,125.21a2.44,2.44,0,0,0,.27-.29,3.18,3.18,0,0,0,.76-2,3.31,3.31,0,0,0-.06-.64c0-.12-.07-.23-.11-.35L88.94,59.66l32.33,18.79,8.5,4.94h0l0,0-18.57,71.84-14,54.25h0l-.16.61L82.94,202,56.17,186.42Zm104,4.54.05-.21,9.64-37.28L189,141.68,171.5,171.23ZM190.57,49.62h0L178.12,91.51l-.29,1-.29,1-.49,1.63-11.28,38-.3,1-.29,1-.06.21a1,1,0,0,0,1.45,1.15l38.54-22.1L191,138.18l-22.31,12.88a1,1,0,0,0-.47.62L156.78,196l-.07.27L113.4,269.62l4.54-13.79.87-2.65,1.36-4.12,1-3L144.4,175.4a.93.93,0,0,0,0-.33,1,1,0,0,0-.42-.8,1,1,0,0,0-.43-.16l-.14,0a1,1,0,0,0-.63.22L99.6,208.85l-.24.19v0L113,156.32l11.59-44.86.26-1,.28-1.07.35-1.36,6.33-24.47h0l.23-.13ZM197,137,185.15,177a1,1,0,0,0,1.46,1.15l16.82-9.65-40.66,68.86,13.41-40.75a1,1,0,0,0-.38-1.14,1,1,0,0,0-.57-.18,1.07,1.07,0,0,0-.63.22L154.92,211.2l3.65-14.11,16.05-27.18,18-30.37Z"/><path d="M3.22,75.26a3.22,3.22,0,1,0,3.21,3.21A3.22,3.22,0,0,0,3.22,75.26Z"/><circle cx="25.41" cy="78.47" r="3.22"/><circle cx="69.8" cy="78.47" r="3.22"/><path d="M92,81.69a3.22,3.22,0,1,0-3.22-3.22A3.22,3.22,0,0,0,92,81.69Z"/><circle cx="47.61" cy="78.47" r="3.22"/><path d="M3.22,97.45a3.22,3.22,0,1,0,3.21,3.22A3.22,3.22,0,0,0,3.22,97.45Z"/><circle cx="25.41" cy="100.67" r="3.22"/><circle cx="69.8" cy="100.67" r="3.22"/><path d="M92,103.89a3.22,3.22,0,1,0-3.22-3.22A3.22,3.22,0,0,0,92,103.89Z"/><circle cx="47.61" cy="100.67" r="3.22"/><path d="M3.22,119.65a3.22,3.22,0,1,0,3.21,3.22A3.22,3.22,0,0,0,3.22,119.65Z"/><circle cx="25.41" cy="122.87" r="3.22"/><path d="M92,126.08a3.22,3.22,0,1,0-3.22-3.21A3.22,3.22,0,0,0,92,126.08Z"/><circle cx="47.61" cy="122.87" r="3.22"/><path d="M3.22,141.84a3.22,3.22,0,1,0,3.21,3.22A3.22,3.22,0,0,0,3.22,141.84Z"/><circle cx="25.41" cy="145.06" r="3.22"/><path d="M92,148.28a3.22,3.22,0,1,0-3.22-3.22A3.22,3.22,0,0,0,92,148.28Z"/><circle cx="47.61" cy="145.06" r="3.22"/><path d="M3.22,164a3.22,3.22,0,1,0,3.21,3.22A3.22,3.22,0,0,0,3.22,164Z"/><path d="M28.63,167.26a3.22,3.22,0,1,0-3.22,3.21A3.22,3.22,0,0,0,28.63,167.26Z"/><path d="M69.8,164A3.22,3.22,0,1,0,73,167.26,3.22,3.22,0,0,0,69.8,164Z"/><path d="M92,170.47a3.22,3.22,0,1,0-3.22-3.21A3.22,3.22,0,0,0,92,170.47Z"/><path d="M47.61,170.47a3.22,3.22,0,1,0-3.22-3.21A3.22,3.22,0,0,0,47.61,170.47Z"/><polygon points="195.77 88.63 221.94 0.57 220.02 0 193.85 88.06 194.81 88.34 195.77 88.63"/><polygon points="228.29 19.71 227.33 19.42 215.19 60.26 217.11 60.83 229.25 19.99 228.29 19.71"/></svg>