<?xml version="1.0" encoding="utf-8"?>
<!-- Generator: Adobe Illustrator 24.0.1, SVG Export Plug-In . SVG Version: 6.00 Build 0)  -->
<svg version="1.1" id="Layer_1" xmlns="http://www.w3.org/2000/svg" xmlns:xlink="http://www.w3.org/1999/xlink" x="0px" y="0px"
	 viewBox="0 0 251.2 333.1" style="enable-background:new 0 0 251.2 333.1;" xml:space="preserve">
<style type="text/css">
	.st0{fill:#191E1E;}
	.st1{fill:#FFFFFF;}
	.st2{clip-path:url(#SVGID_2_);}
</style>
<title>topic-reactive</title>
<path class="st0" d="M244.2,217.2L244.2,217.2c-1,0-1.9,0.8-1.9,1.9l0,0c0,1,0.8,1.9,1.9,1.9l0,0l0,0c1,0,1.8-0.9,1.8-1.9
	c0,0,0,0,0,0l0,0C246,218,245.2,217.2,244.2,217.2z"/>
<path class="st0" d="M244.2,233.3L244.2,233.3c-1,0-1.9,0.8-1.9,1.9l0,0c0,1,0.8,1.9,1.8,1.9c0,0,0,0,0,0l0,0c1,0,1.9-0.8,1.9-1.8v0
	l0,0C246,234.2,245.2,233.3,244.2,233.3L244.2,233.3z"/>
<path class="st0" d="M248.8,229c1,0,1.8-0.8,1.8-1.9s-0.8-1.8-1.9-1.8c-1,0-1.8,0.8-1.8,1.8S247.8,229,248.8,229L248.8,229z"/>
<path class="st0" d="M244.2,249.5L244.2,249.5c-1,0-1.9,0.8-1.9,1.9l0,0c0,1,0.8,1.9,1.9,1.9l0,0l0,0c1,0,1.9-0.8,1.9-1.8
	c0,0,0,0,0,0l0,0C246,250.3,245.2,249.5,244.2,249.5L244.2,249.5z"/>
<circle class="st0" cx="248.8" cy="243.2" r="1.9"/>
<path class="st0" d="M234.9,217.2L234.9,217.2c-1,0-1.8,0.8-1.9,1.8l0,0c0,1,0.8,1.9,1.8,1.9c0,0,0,0,0,0l0,0c1,0,1.9-0.8,1.9-1.8
	c0,0,0,0,0,0l0,0C236.7,218,235.9,217.2,234.9,217.2z"/>
<path class="st0" d="M234.9,233.3L234.9,233.3c-1,0-1.9,0.8-1.9,1.8v0l0,0c0,1,0.8,1.9,1.8,1.9h0l0,0c1,0,1.9-0.8,1.9-1.8v0l0,0
	C236.7,234.2,235.9,233.3,234.9,233.3L234.9,233.3z"/>
<path class="st0" d="M239.5,225.3c-1,0-1.8,0.8-1.8,1.9s0.8,1.8,1.9,1.8c1,0,1.8-0.8,1.8-1.8S240.6,225.3,239.5,225.3L239.5,225.3z"
	/>
<path class="st0" d="M234.9,249.5L234.9,249.5c-1,0-1.9,0.8-1.9,1.8v0l0,0c0,1,0.8,1.9,1.8,1.9c0,0,0,0,0,0l0,0c1,0,1.9-0.8,1.9-1.8
	c0,0,0,0,0,0l0,0C236.7,250.3,235.9,249.5,234.9,249.5L234.9,249.5z"/>
<path class="st0" d="M239.5,241.4c-1,0-1.8,0.8-1.8,1.9s0.8,1.8,1.9,1.8c1,0,1.8-0.8,1.8-1.8S240.6,241.4,239.5,241.4L239.5,241.4z"
	/>
<path class="st0" d="M234.9,265.6L234.9,265.6c-1,0-1.9,0.8-1.9,1.9l0,0l0,0c0,1,0.8,1.9,1.8,1.9h0l0,0c1,0,1.9-0.8,1.9-1.9l0,0l0,0
	C236.7,266.4,235.9,265.6,234.9,265.6L234.9,265.6z"/>
<path class="st0" d="M239.5,257.5c-1,0-1.8,0.8-1.8,1.9s0.8,1.9,1.9,1.9c1,0,1.8-0.8,1.8-1.9S240.6,257.5,239.5,257.5L239.5,257.5z"
	/>
<path class="st0" d="M225.6,233.3L225.6,233.3c-1,0-1.9,0.8-1.9,1.8c0,0,0,0,0,0l0,0c0,1,0.8,1.9,1.8,1.9c0,0,0,0,0,0l0,0
	c1,0,1.9-0.8,1.9-1.8v0l0,0C227.4,234.2,226.6,233.3,225.6,233.3L225.6,233.3z"/>
<path class="st0" d="M230.2,225.3c-0.2,0-0.3,0-0.5,0.1v3.3c-0.3-0.1-0.6-0.3-1-0.4c0.3,0.5,0.9,0.8,1.5,0.8c1,0,1.9-0.8,1.9-1.8
	S231.2,225.3,230.2,225.3C230.2,225.3,230.2,225.3,230.2,225.3L230.2,225.3z"/>
<path class="st0" d="M225.6,249.5L225.6,249.5c-1,0-1.9,0.8-1.9,1.8c0,0,0,0,0,0l0,0c0,1,0.8,1.9,1.9,1.9l0,0l0,0
	c1,0,1.9-0.8,1.9-1.8c0,0,0,0,0,0l0,0C227.4,250.3,226.6,249.5,225.6,249.5L225.6,249.5z"/>
<path class="st0" d="M230.2,241.4c-1,0-1.8,0.8-1.8,1.9s0.8,1.8,1.9,1.8c1,0,1.8-0.8,1.8-1.8C232.1,242.2,231.2,241.4,230.2,241.4
	C230.2,241.4,230.2,241.4,230.2,241.4z"/>
<path class="st0" d="M225.6,265.6L225.6,265.6c-1,0-1.9,0.8-1.9,1.8c0,0,0,0,0,0l0,0c0,1,0.8,1.9,1.8,1.9c0,0,0,0,0,0l0,0
	c1,0,1.9-0.8,1.9-1.9l0,0l0,0C227.4,266.4,226.6,265.6,225.6,265.6L225.6,265.6z"/>
<path class="st0" d="M230.2,257.5c-1,0-1.8,0.8-1.8,1.9c0,1,0.8,1.8,1.9,1.8c1,0,1.8-0.8,1.8-1.8
	C232.1,258.4,231.2,257.5,230.2,257.5C230.2,257.5,230.2,257.5,230.2,257.5z"/>
<path class="st0" d="M225.6,281.7L225.6,281.7c-1,0-1.9,0.8-1.9,1.9l0,0c0,1,0.8,1.9,1.8,1.9c0,0,0,0,0,0l0,0c1,0,1.9-0.8,1.9-1.9
	l0,0l0,0C227.4,282.6,226.6,281.7,225.6,281.7C225.6,281.7,225.6,281.7,225.6,281.7z"/>
<path class="st0" d="M230.2,273.7c-1,0-1.8,0.8-1.8,1.9c0,1,0.8,1.8,1.9,1.8c1,0,1.8-0.8,1.8-1.8
	C232.1,274.5,231.2,273.7,230.2,273.7C230.2,273.7,230.2,273.7,230.2,273.7z"/>
<path class="st0" d="M225.6,297.9L225.6,297.9c-1,0-1.9,0.8-1.9,1.8c0,0,0,0,0,0l0,0c0,1,0.8,1.9,1.8,1.9c0,0,0,0,0,0l0,0
	c1,0,1.9-0.8,1.9-1.9l0,0l0,0C227.4,298.7,226.6,297.9,225.6,297.9L225.6,297.9z"/>
<path class="st0" d="M230.2,289.8c-1,0-1.9,0.8-1.9,1.9s0.8,1.9,1.9,1.9c1,0,1.9-0.8,1.9-1.9c0,0,0,0,0,0
	C232.1,290.6,231.2,289.8,230.2,289.8C230.2,289.8,230.2,289.8,230.2,289.8z"/>
<path class="st0" d="M216.2,233.3L216.2,233.3c-1,0-1.9,0.8-1.9,1.8v0l0,0c0,1,0.8,1.9,1.8,1.9h0l0,0c1,0,1.9-0.8,1.9-1.8v0l0,0
	C218.1,234.2,217.3,233.3,216.2,233.3L216.2,233.3z"/>
<path class="st0" d="M222,225.7c-0.4-0.1-0.8-0.3-1.2-0.4c-1,0-1.8,0.9-1.8,1.9s0.9,1.8,1.9,1.8c1,0,1.8-0.8,1.8-1.8
	C222.7,226.5,222.4,226,222,225.7z"/>
<path class="st0" d="M216.2,249.5L216.2,249.5c-1,0-1.9,0.8-1.9,1.8v0l0,0c0,1,0.8,1.9,1.8,1.9c0,0,0,0,0,0l0,0c1,0,1.9-0.8,1.9-1.8
	c0,0,0,0,0,0l0,0C218.1,250.3,217.3,249.5,216.2,249.5L216.2,249.5z"/>
<path class="st0" d="M220.9,241.4c-1,0-1.8,0.8-1.8,1.9s0.8,1.8,1.9,1.8c1,0,1.8-0.8,1.8-1.8C222.8,242.2,221.9,241.4,220.9,241.4
	C220.9,241.4,220.9,241.4,220.9,241.4z"/>
<path class="st0" d="M216.2,265.6L216.2,265.6c-1,0-1.9,0.8-1.9,1.9l0,0l0,0c0,1,0.8,1.9,1.8,1.9h0l0,0c1,0,1.9-0.8,1.9-1.9l0,0l0,0
	C218.1,266.4,217.3,265.6,216.2,265.6L216.2,265.6z"/>
<path class="st0" d="M220.9,257.5c-1,0-1.8,0.8-1.8,1.9s0.8,1.9,1.9,1.9c1,0,1.8-0.8,1.8-1.9S221.9,257.5,220.9,257.5L220.9,257.5z"
	/>
<path class="st0" d="M216.2,281.7L216.2,281.7c-1,0-1.9,0.8-1.9,1.8c0,0,0,0,0,0l0,0c0,1,0.8,1.9,1.8,1.9h0l0,0c1,0,1.9-0.8,1.9-1.9
	l0,0l0,0C218.1,282.6,217.3,281.7,216.2,281.7C216.2,281.7,216.2,281.7,216.2,281.7z"/>
<path class="st0" d="M220.9,273.7c-1,0-1.8,0.8-1.8,1.9s0.8,1.9,1.9,1.9c1,0,1.8-0.8,1.8-1.9C222.8,274.5,221.9,273.7,220.9,273.7
	C220.9,273.7,220.9,273.7,220.9,273.7z"/>
<path class="st0" d="M216.2,297.9L216.2,297.9c-1,0-1.9,0.8-1.9,1.9l0,0l0,0c0,1,0.8,1.9,1.8,1.9h0l0,0c1,0,1.9-0.8,1.9-1.9l0,0l0,0
	C218.1,298.7,217.3,297.9,216.2,297.9L216.2,297.9z"/>
<path class="st0" d="M220.9,289.8c-1,0-1.9,0.8-1.9,1.9c0,1,0.8,1.9,1.9,1.9c1,0,1.9-0.8,1.9-1.9c0,0,0,0,0,0
	C222.8,290.6,221.9,289.8,220.9,289.8L220.9,289.8z"/>
<path class="st0" d="M220.9,305.9c-1,0-1.8,0.8-1.8,1.9s0.8,1.9,1.9,1.9c1,0,1.8-0.8,1.8-1.9S221.9,305.9,220.9,305.9L220.9,305.9z"
	/>
<path class="st0" d="M206.9,233.3L206.9,233.3c-1,0-1.9,0.8-1.9,1.8v0l0,0c0,1,0.8,1.9,1.8,1.9h0l0,0c1,0,1.9-0.8,1.9-1.8
	c0,0,0,0,0,0l0,0C208.8,234.2,208,233.3,206.9,233.3C206.9,233.3,206.9,233.3,206.9,233.3z"/>
<path class="st0" d="M211.6,225.3c-1,0-1.8,0.8-1.8,1.9s0.8,1.8,1.9,1.8c1,0,1.8-0.8,1.8-1.8S212.6,225.3,211.6,225.3L211.6,225.3z"
	/>
<path class="st0" d="M206.9,249.5L206.9,249.5c-1,0-1.9,0.8-1.9,1.8v0l0,0c0,1,0.8,1.9,1.8,1.9c0,0,0,0,0,0l0,0c1,0,1.9-0.8,1.9-1.9
	l0,0l0,0C208.8,250.3,208,249.5,206.9,249.5C206.9,249.5,206.9,249.5,206.9,249.5z"/>
<circle class="st0" cx="211.6" cy="243.2" r="1.9"/>
<path class="st0" d="M206.9,265.6L206.9,265.6c-1,0-1.9,0.8-1.9,1.9l0,0l0,0c0,1,0.8,1.9,1.8,1.9h0l0,0c1,0,1.9-0.8,1.9-1.8
	c0,0,0,0,0,0l0,0C208.8,266.4,208,265.6,206.9,265.6C206.9,265.6,206.9,265.6,206.9,265.6z"/>
<path class="st0" d="M211.6,257.5c-1,0-1.8,0.8-1.8,1.9s0.8,1.9,1.9,1.9c1,0,1.8-0.8,1.8-1.9S212.6,257.5,211.6,257.5L211.6,257.5z"
	/>
<path class="st0" d="M206.9,281.7L206.9,281.7c-1,0-1.9,0.8-1.9,1.8c0,0,0,0,0,0l0,0c0,1,0.8,1.9,1.8,1.9h0l0,0c1,0,1.9-0.8,1.9-1.8
	c0,0,0,0,0,0l0,0C208.8,282.6,207.9,281.7,206.9,281.7z"/>
<path class="st0" d="M211.6,273.7c-1,0-1.8,0.8-1.8,1.9s0.8,1.9,1.9,1.9c1,0,1.8-0.8,1.8-1.9S212.6,273.7,211.6,273.7L211.6,273.7z"
	/>
<path class="st0" d="M206.9,297.9L206.9,297.9c-1,0-1.9,0.8-1.9,1.9l0,0l0,0c0,1,0.8,1.9,1.8,1.9h0l0,0c1,0,1.9-0.8,1.9-1.8
	c0,0,0,0,0,0l0,0C208.8,298.7,208,297.9,206.9,297.9C206.9,297.9,206.9,297.9,206.9,297.9z"/>
<path class="st0" d="M211.6,289.8c-1,0-1.9,0.8-1.9,1.9c0,1,0.8,1.9,1.9,1.9c1,0,1.9-0.8,1.9-1.9c0,0,0,0,0,0
	C213.4,290.6,212.6,289.8,211.6,289.8L211.6,289.8z"/>
<path class="st0" d="M206.9,314L206.9,314c-1,0-1.9,0.8-1.9,1.8c0,0,0,0,0,0l0,0c0,1,0.8,1.9,1.8,1.9h0l0,0c1,0,1.9-0.8,1.9-1.8
	c0,0,0,0,0,0l0,0C208.8,314.8,207.9,314,206.9,314z"/>
<circle class="st0" cx="211.6" cy="307.8" r="1.9"/>
<path class="st0" d="M197.6,217.2L197.6,217.2c-1,0-1.9,0.8-1.9,1.8v0l0,0c0,1,0.8,1.9,1.8,1.9c0,0,0,0,0,0l0,0c1,0,1.9-0.8,1.9-1.8
	c0,0,0,0,0,0l0,0C199.5,218,198.6,217.2,197.6,217.2L197.6,217.2z"/>
<path class="st0" d="M197.6,233.3L197.6,233.3c-1,0-1.9,0.8-1.9,1.8v0l0,0c0,1,0.8,1.9,1.8,1.9h0l0,0c1,0,1.9-0.8,1.9-1.8v0l0,0
	C199.5,234.2,198.6,233.3,197.6,233.3L197.6,233.3z"/>
<path class="st0" d="M202.3,225.3c-1,0-1.8,0.8-1.8,1.9s0.8,1.8,1.9,1.8c1,0,1.8-0.8,1.8-1.8S203.3,225.3,202.3,225.3L202.3,225.3z"
	/>
<path class="st0" d="M197.6,249.5L197.6,249.5c-1,0-1.9,0.8-1.9,1.8v0l0,0c0,1,0.8,1.9,1.8,1.9c0,0,0,0,0,0l0,0c1,0,1.9-0.8,1.9-1.8
	c0,0,0,0,0,0l0,0C199.5,250.3,198.6,249.5,197.6,249.5L197.6,249.5z"/>
<circle class="st0" cx="202.3" cy="243.2" r="1.9"/>
<path class="st0" d="M197.6,265.6L197.6,265.6c-1,0-1.9,0.8-1.9,1.9l0,0l0,0c0,1,0.8,1.9,1.8,1.9h0l0,0c1,0,1.9-0.8,1.9-1.9l0,0l0,0
	C199.5,266.4,198.6,265.6,197.6,265.6L197.6,265.6z"/>
<path class="st0" d="M202.3,257.5c-1,0-1.8,0.8-1.8,1.9s0.8,1.9,1.9,1.9c1,0,1.8-0.8,1.8-1.9S203.3,257.5,202.3,257.5L202.3,257.5z"
	/>
<path class="st0" d="M197.6,281.7L197.6,281.7c-1,0-1.9,0.8-1.9,1.8c0,0,0,0,0,0l0,0c0,1,0.8,1.9,1.8,1.9h0l0,0c1,0,1.9-0.8,1.9-1.9
	l0,0l0,0C199.5,282.6,198.6,281.7,197.6,281.7C197.6,281.7,197.6,281.7,197.6,281.7z"/>
<path class="st0" d="M202.3,273.7c-1,0-1.8,0.8-1.8,1.9s0.8,1.9,1.9,1.9c1,0,1.8-0.8,1.8-1.9S203.3,273.7,202.3,273.7L202.3,273.7z"
	/>
<path class="st0" d="M197.6,297.9L197.6,297.9c-1,0-1.9,0.8-1.9,1.9l0,0l0,0c0,1,0.8,1.9,1.8,1.9h0l0,0c1,0,1.9-0.8,1.9-1.9l0,0l0,0
	C199.5,298.7,198.6,297.9,197.6,297.9L197.6,297.9z"/>
<path class="st0" d="M202.3,289.8c-1,0-1.9,0.8-1.9,1.9c0,1,0.8,1.9,1.9,1.9c1,0,1.9-0.8,1.9-1.9c0,0,0,0,0,0
	C204.1,290.6,203.3,289.8,202.3,289.8L202.3,289.8z"/>
<path class="st0" d="M197.6,314L197.6,314c-1,0-1.9,0.8-1.9,1.8c0,0,0,0,0,0l0,0c0,1,0.8,1.9,1.8,1.9h0l0,0c1,0,1.9-0.8,1.9-1.9l0,0
	l0,0C199.5,314.8,198.6,314,197.6,314C197.6,314,197.6,314,197.6,314z"/>
<circle class="st0" cx="202.3" cy="307.8" r="1.9"/>
<path class="st0" d="M188.3,217.2L188.3,217.2c-1,0-1.9,0.8-1.9,1.8v0l0,0c0,1,0.8,1.9,1.8,1.9c0,0,0,0,0,0l0,0c1,0,1.9-0.8,1.9-1.9
	l0,0l0,0C190.1,218,189.3,217.2,188.3,217.2z"/>
<path class="st0" d="M193,209.1c-1,0-1.9,0.8-1.9,1.8s0.8,1.9,1.8,1.9c1,0,1.9-0.8,1.9-1.8c0,0,0,0,0,0
	C194.8,210,194,209.1,193,209.1z"/>
<path class="st0" d="M188.3,233.3L188.3,233.3c-1,0-1.9,0.8-1.9,1.8v0l0,0c0,1,0.8,1.9,1.8,1.9h0l0,0c1,0,1.9-0.8,1.9-1.8
	c0,0,0,0,0,0l0,0C190.1,234.2,189.3,233.3,188.3,233.3z"/>
<path class="st0" d="M193,225.3c-1,0-1.8,0.8-1.8,1.9s0.8,1.8,1.9,1.8c1,0,1.8-0.8,1.8-1.8S194,225.3,193,225.3L193,225.3z"/>
<path class="st0" d="M188.3,249.5L188.3,249.5c-1,0-1.9,0.8-1.9,1.8v0l0,0c0,1,0.8,1.9,1.8,1.9c0,0,0,0,0,0l0,0c1,0,1.9-0.8,1.9-1.9
	l0,0l0,0C190.1,250.3,189.3,249.5,188.3,249.5z"/>
<path class="st0" d="M193,241.4c-1,0-1.8,0.8-1.8,1.9s0.8,1.8,1.9,1.8c1,0,1.8-0.8,1.8-1.8S194,241.4,193,241.4L193,241.4z"/>
<path class="st0" d="M188.3,265.6L188.3,265.6c-1,0-1.9,0.8-1.9,1.9l0,0l0,0c0,1,0.8,1.9,1.8,1.9h0l0,0c1,0,1.9-0.8,1.9-1.8
	c0,0,0,0,0,0l0,0C190.1,266.4,189.3,265.6,188.3,265.6z"/>
<path class="st0" d="M193,257.5c-1,0-1.8,0.8-1.8,1.9s0.8,1.9,1.9,1.9c1,0,1.8-0.8,1.8-1.9S194,257.5,193,257.5L193,257.5z"/>
<path class="st0" d="M188.3,281.7L188.3,281.7c-1,0-1.9,0.8-1.9,1.8c0,0,0,0,0,0l0,0c0,1,0.8,1.9,1.8,1.9h0l0,0c1,0,1.9-0.8,1.9-1.8
	c0,0,0,0,0,0l0,0C190.1,282.6,189.3,281.7,188.3,281.7z"/>
<path class="st0" d="M193,273.7c-1,0-1.8,0.8-1.8,1.9s0.8,1.9,1.9,1.9c1,0,1.8-0.8,1.8-1.9S194,273.7,193,273.7L193,273.7z"/>
<path class="st0" d="M188.3,297.9L188.3,297.9c-1,0-1.9,0.8-1.9,1.9l0,0l0,0c0,1,0.8,1.9,1.8,1.9h0l0,0c1,0,1.9-0.8,1.9-1.8
	c0,0,0,0,0,0l0,0C190.1,298.7,189.3,297.9,188.3,297.9z"/>
<path class="st0" d="M193,289.8c-1,0-1.9,0.8-1.9,1.9c0,1,0.8,1.9,1.9,1.9c1,0,1.9-0.8,1.9-1.9c0,0,0,0,0,0
	C194.9,290.6,194,289.8,193,289.8L193,289.8z"/>
<path class="st0" d="M188.3,314L188.3,314c-1,0-1.9,0.8-1.9,1.8c0,0,0,0,0,0l0,0c0,1,0.8,1.9,1.8,1.9h0l0,0c1,0,1.9-0.8,1.9-1.8
	c0,0,0,0,0,0l0,0C190.1,314.8,189.3,314,188.3,314z"/>
<path class="st0" d="M193,305.9c-1,0-1.8,0.8-1.8,1.9s0.8,1.9,1.9,1.9c1,0,1.8-0.8,1.8-1.9S194,305.9,193,305.9L193,305.9z"/>
<path class="st0" d="M179,201.1L179,201.1c-1,0-1.9,0.8-1.9,1.8v0l0,0c0,1,0.8,1.9,1.8,1.9h0l0,0c1,0,1.9-0.8,1.9-1.8v0l0,0
	C180.9,201.9,180,201.1,179,201.1L179,201.1z"/>
<path class="st0" d="M179,217.2L179,217.2c-1,0-1.9,0.8-1.9,1.8v0l0,0c0,1,0.8,1.9,1.8,1.9c0,0,0,0,0,0l0,0c1,0,1.9-0.8,1.9-1.8
	c0,0,0,0,0,0l0,0C180.9,218,180,217.2,179,217.2z"/>
<path class="st0" d="M183.6,209.1c-1,0-1.9,0.8-1.9,1.8s0.8,1.9,1.8,1.9c1,0,1.9-0.8,1.9-1.8c0,0,0,0,0,0
	C185.5,210,184.7,209.1,183.6,209.1z"/>
<path class="st0" d="M188.3,204.8L188.3,204.8c0.1,0,0.2,0,0.3,0l-0.3-0.2c-0.6-0.4-1.2-0.8-1.8-1.2
	C186.7,204.2,187.4,204.8,188.3,204.8z"/>
<path class="st0" d="M179,233.3L179,233.3c-1,0-1.9,0.8-1.9,1.8v0l0,0c0,1,0.8,1.8,1.9,1.8l0,0c1,0,1.9-0.8,1.9-1.8v0l0,0
	C180.8,234.1,180,233.3,179,233.3z"/>
<path class="st0" d="M183.6,225.3c-1,0-1.8,0.8-1.8,1.9s0.8,1.8,1.9,1.8c1,0,1.8-0.8,1.8-1.8S184.7,225.3,183.6,225.3L183.6,225.3z"
	/>
<path class="st0" d="M179,249.5L179,249.5c-1,0-1.9,0.8-1.9,1.8v0l0,0c0,1,0.8,1.9,1.8,1.9c0,0,0,0,0,0l0,0c1,0,1.9-0.8,1.9-1.8
	c0,0,0,0,0,0l0,0C180.9,250.3,180,249.5,179,249.5L179,249.5z"/>
<path class="st0" d="M183.6,241.4c-1,0-1.8,0.8-1.8,1.9s0.8,1.8,1.9,1.8c1,0,1.8-0.8,1.8-1.8S184.7,241.4,183.6,241.4L183.6,241.4z"
	/>
<path class="st0" d="M179,265.6L179,265.6c-1,0-1.9,0.8-1.9,1.9l0,0l0,0c0,1,0.8,1.8,1.9,1.8l0,0c1,0,1.9-0.8,1.9-1.9l0,0l0,0
	C180.8,266.4,180,265.6,179,265.6z"/>
<path class="st0" d="M183.6,257.5c-1,0-1.8,0.8-1.8,1.9s0.8,1.9,1.9,1.9c1,0,1.8-0.8,1.8-1.9S184.7,257.5,183.6,257.5L183.6,257.5z"
	/>
<path class="st0" d="M179,281.7L179,281.7c-1,0-1.9,0.8-1.9,1.8c0,0,0,0,0,0l0,0c0,1,0.8,1.9,1.8,1.9h0l0,0c1,0,1.9-0.8,1.9-1.9l0,0
	l0,0C180.9,282.6,180,281.7,179,281.7C179,281.7,179,281.7,179,281.7z"/>
<path class="st0" d="M183.6,273.7c-1,0-1.8,0.8-1.8,1.9s0.8,1.9,1.9,1.9c1,0,1.8-0.8,1.8-1.9S184.7,273.7,183.6,273.7L183.6,273.7z"
	/>
<path class="st0" d="M179,297.9L179,297.9c-1,0-1.9,0.8-1.9,1.9l0,0l0,0c0,1,0.8,1.9,1.8,1.9h0l0,0c1,0,1.9-0.8,1.9-1.9l0,0l0,0
	C180.9,298.7,180,297.9,179,297.9L179,297.9z"/>
<path class="st0" d="M183.6,289.8c-1,0-1.9,0.8-1.9,1.9c0,1,0.8,1.9,1.9,1.9c1,0,1.9-0.8,1.9-1.9c0,0,0,0,0,0
	C185.5,290.6,184.7,289.8,183.6,289.8L183.6,289.8z"/>
<path class="st0" d="M179,314L179,314c-1,0-1.9,0.8-1.9,1.8c0,0,0,0,0,0l0,0c0,1,0.8,1.9,1.8,1.9h0l0,0c1,0,1.9-0.8,1.9-1.9l0,0l0,0
	C180.9,314.8,180,314,179,314C179,314,179,314,179,314z"/>
<path class="st0" d="M183.6,305.9c-1,0-1.8,0.8-1.8,1.9s0.8,1.9,1.9,1.9c1,0,1.8-0.8,1.8-1.9S184.7,305.9,183.6,305.9L183.6,305.9z"
	/>
<path class="st0" d="M169.7,201.1L169.7,201.1c-1,0-1.9,0.8-1.9,1.8v0l0,0c0,1,0.8,1.9,1.8,1.9h0l0,0c1,0,1.9-0.8,1.9-1.8v0l0,0
	C171.5,201.9,170.7,201.1,169.7,201.1L169.7,201.1z"/>
<path class="st0" d="M169.7,217.2L169.7,217.2c-1,0-1.9,0.8-1.9,1.8v0l0,0c0,1,0.8,1.9,1.8,1.9c0,0,0,0,0,0l0,0c1,0,1.9-0.8,1.9-1.8
	c0,0,0,0,0,0l0,0C171.5,218,170.7,217.2,169.7,217.2L169.7,217.2z"/>
<path class="st0" d="M174.3,209.1c-1,0-1.9,0.8-1.9,1.8s0.8,1.9,1.8,1.9c1,0,1.9-0.8,1.9-1.8c0,0,0,0,0,0
	C176.2,210,175.4,209.1,174.3,209.1C174.3,209.1,174.3,209.1,174.3,209.1z"/>
<path class="st0" d="M169.7,233.3L169.7,233.3c-1,0-1.9,0.8-1.9,1.8v0l0,0c0,1,0.8,1.9,1.8,1.9h0l0,0c1,0,1.9-0.8,1.9-1.8v0l0,0
	C171.5,234.2,170.7,233.3,169.7,233.3L169.7,233.3z"/>
<path class="st0" d="M174.3,225.3c-1,0-1.8,0.8-1.8,1.9s0.8,1.8,1.9,1.8c1,0,1.8-0.8,1.8-1.8S175.3,225.3,174.3,225.3L174.3,225.3z"
	/>
<path class="st0" d="M169.7,249.5L169.7,249.5c-1,0-1.9,0.8-1.9,1.8v0l0,0c0,1,0.8,1.9,1.8,1.9c0,0,0,0,0,0l0,0c1,0,1.9-0.8,1.9-1.8
	c0,0,0,0,0,0l0,0C171.5,250.3,170.7,249.5,169.7,249.5L169.7,249.5z"/>
<path class="st0" d="M174.3,241.4c-1,0-1.8,0.8-1.8,1.9s0.8,1.8,1.9,1.8c1,0,1.8-0.8,1.8-1.8S175.3,241.4,174.3,241.4L174.3,241.4z"
	/>
<path class="st0" d="M169.7,265.6L169.7,265.6c-1,0-1.9,0.8-1.9,1.9l0,0l0,0c0,1,0.8,1.9,1.8,1.9h0l0,0c1,0,1.9-0.8,1.9-1.9l0,0l0,0
	C171.5,266.4,170.7,265.6,169.7,265.6L169.7,265.6z"/>
<path class="st0" d="M174.3,257.5c-1,0-1.8,0.8-1.8,1.9s0.8,1.9,1.9,1.9c1,0,1.8-0.8,1.8-1.9S175.3,257.5,174.3,257.5L174.3,257.5z"
	/>
<path class="st0" d="M169.7,281.7L169.7,281.7c-1,0-1.9,0.8-1.9,1.8c0,0,0,0,0,0l0,0c0,1,0.8,1.9,1.8,1.9h0l0,0c1,0,1.9-0.8,1.9-1.9
	l0,0l0,0C171.5,282.6,170.7,281.7,169.7,281.7C169.7,281.7,169.7,281.7,169.7,281.7z"/>
<path class="st0" d="M174.3,273.7c-1,0-1.8,0.8-1.8,1.9s0.8,1.9,1.9,1.9c1,0,1.8-0.8,1.8-1.9S175.3,273.7,174.3,273.7L174.3,273.7z"
	/>
<path class="st0" d="M169.7,297.9L169.7,297.9c-1,0-1.9,0.8-1.9,1.9l0,0l0,0c0,1,0.8,1.9,1.8,1.9h0l0,0c1,0,1.9-0.8,1.9-1.9l0,0l0,0
	C171.5,298.7,170.7,297.9,169.7,297.9L169.7,297.9z"/>
<path class="st0" d="M174.3,289.8c-1,0-1.9,0.8-1.9,1.9c0,1,0.8,1.9,1.9,1.9c1,0,1.9-0.8,1.9-1.9c0,0,0,0,0,0
	C176.2,290.6,175.3,289.8,174.3,289.8L174.3,289.8z"/>
<path class="st0" d="M169.7,314L169.7,314c-1,0-1.9,0.8-1.9,1.8c0,0,0,0,0,0l0,0c0,1,0.8,1.9,1.8,1.9h0l0,0c1,0,1.9-0.8,1.9-1.9l0,0
	l0,0C171.5,314.8,170.7,314,169.7,314C169.7,314,169.7,314,169.7,314z"/>
<path class="st0" d="M174.3,305.9c-1,0-1.8,0.8-1.8,1.9s0.8,1.9,1.9,1.9c1,0,1.8-0.8,1.8-1.9S175.3,305.9,174.3,305.9L174.3,305.9z"
	/>
<path class="st0" d="M160.4,201.1L160.4,201.1c-1,0-1.9,0.8-1.9,1.8c0,0,0,0,0,0l0,0c0,1,0.8,1.9,1.8,1.9c0,0,0,0,0,0l0,0
	c1,0,1.9-0.8,1.9-1.8v0l0,0C162.2,201.9,161.4,201.1,160.4,201.1L160.4,201.1z"/>
<path class="st0" d="M165,196.7c0.8,0,1.6-0.6,1.8-1.4c-1.2-0.3-2.4-0.5-3.6-0.7c0,0.1,0,0.2,0,0.3C163.2,195.9,164,196.7,165,196.7
	z"/>
<path class="st0" d="M160.4,217.2L160.4,217.2c-1,0-1.9,0.8-1.9,1.8c0,0,0,0,0,0l0,0c0,1,0.8,1.9,1.9,1.9l0,0l0,0
	c1,0,1.9-0.8,1.9-1.8c0,0,0,0,0-0.1l0,0C162.2,218,161.4,217.2,160.4,217.2z"/>
<path class="st0" d="M165,209.1c-1,0-1.9,0.8-1.9,1.9s0.8,1.9,1.9,1.9s1.9-0.8,1.9-1.9C166.9,210,166,209.1,165,209.1
	C165,209.1,165,209.1,165,209.1z"/>
<path class="st0" d="M160.4,233.3L160.4,233.3c-1,0-1.9,0.8-1.9,1.8c0,0,0,0,0,0l0,0c0,1,0.8,1.9,1.8,1.9c0,0,0,0,0,0l0,0
	c1,0,1.9-0.8,1.9-1.8v0l0,0C162.2,234.2,161.4,233.3,160.4,233.3L160.4,233.3z"/>
<path class="st0" d="M165,225.3c-1,0-1.8,0.8-1.8,1.9s0.8,1.8,1.9,1.8c1,0,1.8-0.8,1.8-1.8C166.9,226.1,166,225.3,165,225.3
	C165,225.3,165,225.3,165,225.3z"/>
<path class="st0" d="M160.4,249.5L160.4,249.5c-1,0-1.9,0.8-1.9,1.8c0,0,0,0,0,0l0,0c0,1,0.8,1.9,1.9,1.9l0,0l0,0
	c1,0,1.9-0.8,1.9-1.8c0,0,0,0,0,0l0,0C162.2,250.3,161.4,249.5,160.4,249.5L160.4,249.5z"/>
<circle class="st0" cx="165" cy="243.2" r="1.9"/>
<path class="st0" d="M160.4,265.6L160.4,265.6c-1,0-1.9,0.8-1.9,1.8c0,0,0,0,0,0l0,0c0,1,0.8,1.9,1.8,1.9c0,0,0,0,0,0l0,0
	c1,0,1.9-0.8,1.9-1.9l0,0l0,0C162.2,266.4,161.4,265.6,160.4,265.6L160.4,265.6z"/>
<path class="st0" d="M165,257.5c-1,0-1.8,0.8-1.8,1.9c0,1,0.8,1.8,1.9,1.8c1,0,1.8-0.8,1.8-1.8C166.9,258.4,166,257.5,165,257.5
	C165,257.5,165,257.5,165,257.5z"/>
<path class="st0" d="M160.4,281.7L160.4,281.7c-1,0-1.9,0.8-1.9,1.9l0,0c0,1,0.8,1.9,1.8,1.9c0,0,0,0,0,0l0,0c1,0,1.9-0.8,1.9-1.9
	l0,0l0,0C162.2,282.6,161.4,281.7,160.4,281.7C160.4,281.7,160.4,281.7,160.4,281.7z"/>
<path class="st0" d="M165,273.7c-1,0-1.8,0.8-1.8,1.9c0,1,0.8,1.8,1.9,1.8c1,0,1.8-0.8,1.8-1.8C166.9,274.5,166,273.7,165,273.7
	C165,273.7,165,273.7,165,273.7z"/>
<path class="st0" d="M160.4,297.9L160.4,297.9c-1,0-1.9,0.8-1.9,1.8c0,0,0,0,0,0l0,0c0,1,0.8,1.9,1.8,1.9c0,0,0,0,0,0l0,0
	c1,0,1.9-0.8,1.9-1.9l0,0l0,0C162.2,298.7,161.4,297.9,160.4,297.9L160.4,297.9z"/>
<path class="st0" d="M165,289.8c-1,0-1.9,0.8-1.9,1.9s0.8,1.9,1.9,1.9c1,0,1.9-0.8,1.9-1.9c0,0,0,0,0,0
	C166.9,290.6,166,289.8,165,289.8C165,289.8,165,289.8,165,289.8z"/>
<path class="st0" d="M160.4,314L160.4,314c-1,0-1.9,0.8-1.9,1.9l0,0c0,1,0.8,1.9,1.8,1.9c0,0,0,0,0,0l0,0c1,0,1.9-0.8,1.9-1.9l0,0
	l0,0C162.2,314.8,161.4,314,160.4,314C160.4,314,160.4,314,160.4,314z"/>
<circle class="st0" cx="165" cy="307.8" r="1.9"/>
<path class="st0" d="M151,201.1L151,201.1c-1,0-1.9,0.8-1.9,1.8v0l0,0c0,1,0.8,1.9,1.8,1.9h0l0,0c1,0,1.9-0.8,1.9-1.8v0l0,0
	C152.9,201.9,152,201.1,151,201.1L151,201.1z"/>
<path class="st0" d="M154.4,193.6c-0.7,0.7-0.7,1.9,0.1,2.6c0.7,0.7,1.9,0.7,2.6-0.1c0.3-0.3,0.5-0.8,0.5-1.3c0-0.4-0.1-0.7-0.3-1.1
	C156.3,193.7,155.3,193.6,154.4,193.6z"/>
<path class="st0" d="M151,217.2L151,217.2c-1,0-1.9,0.8-1.9,1.8v0l0,0c0,1,0.8,1.9,1.8,1.9c0,0,0,0,0,0l0,0c1,0,1.9-0.8,1.9-1.8
	c0,0,0,0,0,0l0,0C152.9,218,152,217.2,151,217.2z"/>
<path class="st0" d="M155.7,209.1c-1,0-1.9,0.8-1.9,1.8s0.8,1.9,1.8,1.9c1,0,1.9-0.8,1.9-1.8c0,0,0,0,0,0
	C157.5,210,156.7,209.1,155.7,209.1C155.7,209.1,155.7,209.1,155.7,209.1z"/>
<path class="st0" d="M151,233.3L151,233.3c-1,0-1.9,0.8-1.9,1.8v0l0,0c0,1,0.8,1.8,1.9,1.8l0,0c1,0,1.9-0.8,1.9-1.8v0l0,0
	C152.8,234.1,152,233.3,151,233.3z"/>
<path class="st0" d="M155.7,225.3c-1,0-1.8,0.8-1.8,1.9s0.8,1.8,1.9,1.8c1,0,1.8-0.8,1.8-1.8S156.7,225.3,155.7,225.3L155.7,225.3z"
	/>
<path class="st0" d="M151,249.5L151,249.5c-1,0-1.9,0.8-1.9,1.8v0l0,0c0,1,0.8,1.9,1.8,1.9c0,0,0,0,0,0l0,0c1,0,1.9-0.8,1.9-1.8
	c0,0,0,0,0,0l0,0C152.9,250.3,152,249.5,151,249.5L151,249.5z"/>
<circle class="st0" cx="155.7" cy="243.2" r="1.9"/>
<path class="st0" d="M151,265.6L151,265.6c-1,0-1.9,0.8-1.9,1.9l0,0l0,0c0,1,0.8,1.8,1.9,1.8l0,0c1,0,1.9-0.8,1.9-1.9l0,0l0,0
	C152.8,266.4,152,265.6,151,265.6z"/>
<path class="st0" d="M155.7,257.5c-1,0-1.8,0.8-1.8,1.9s0.8,1.9,1.9,1.9c1,0,1.8-0.8,1.8-1.9S156.7,257.5,155.7,257.5L155.7,257.5z"
	/>
<path class="st0" d="M151,281.7L151,281.7c-1,0-1.9,0.8-1.9,1.8c0,0,0,0,0,0l0,0c0,1,0.8,1.9,1.8,1.9h0l0,0c1,0,1.9-0.8,1.9-1.9l0,0
	l0,0C152.9,282.6,152,281.7,151,281.7C151,281.7,151,281.7,151,281.7z"/>
<path class="st0" d="M155.7,273.7c-1,0-1.8,0.8-1.8,1.9s0.8,1.9,1.9,1.9c1,0,1.8-0.8,1.8-1.9S156.7,273.7,155.7,273.7L155.7,273.7z"
	/>
<path class="st0" d="M151,297.9L151,297.9c-1,0-1.9,0.8-1.9,1.9l0,0l0,0c0,1,0.8,1.9,1.8,1.9h0l0,0c1,0,1.9-0.8,1.9-1.9l0,0l0,0
	C152.9,298.7,152,297.9,151,297.9L151,297.9z"/>
<path class="st0" d="M155.7,289.8c-1,0-1.9,0.8-1.9,1.9c0,1,0.8,1.9,1.9,1.9c1,0,1.9-0.8,1.9-1.9c0,0,0,0,0,0
	C157.5,290.6,156.7,289.8,155.7,289.8L155.7,289.8z"/>
<path class="st0" d="M151,314L151,314c-1,0-1.9,0.8-1.9,1.8c0,0,0,0,0,0l0,0c0,1,0.8,1.9,1.8,1.9h0l0,0c1,0,1.9-0.8,1.9-1.9l0,0l0,0
	C152.9,314.8,152,314,151,314C151,314,151,314,151,314z"/>
<circle class="st0" cx="155.7" cy="307.8" r="1.9"/>
<path class="st0" d="M141.7,201.1L141.7,201.1c-1,0-1.9,0.8-1.9,1.8v0l0,0c0,1,0.8,1.9,1.8,1.9h0l0,0c1,0,1.9-0.8,1.9-1.8
	c0,0,0,0,0,0l0,0C143.6,201.9,142.7,201.1,141.7,201.1C141.7,201.1,141.7,201.1,141.7,201.1z"/>
<path class="st0" d="M145,193.6c-0.7,0.7-0.7,1.9,0.1,2.6c0.7,0.7,1.9,0.7,2.6-0.1c0.3-0.3,0.5-0.8,0.5-1.3c0-0.5-0.2-1-0.6-1.4
	C146.7,193.5,145.9,193.5,145,193.6z"/>
<path class="st0" d="M141.7,217.2L141.7,217.2c-1,0-1.9,0.8-1.9,1.8v0l0,0c0,1,0.8,1.9,1.8,1.9c0,0,0,0,0,0l0,0c1,0,1.9-0.8,1.9-1.9
	l0,0l0,0C143.6,218,142.7,217.2,141.7,217.2C141.7,217.2,141.7,217.2,141.7,217.2z"/>
<path class="st0" d="M146.4,209.1c-1,0-1.9,0.8-1.9,1.8s0.8,1.9,1.8,1.9c1,0,1.9-0.8,1.9-1.8c0,0,0,0,0,0
	C148.2,210,147.4,209.1,146.4,209.1C146.4,209.1,146.4,209.1,146.4,209.1z"/>
<path class="st0" d="M141.7,233.3L141.7,233.3c-1,0-1.9,0.8-1.9,1.8v0l0,0c0,1,0.8,1.9,1.8,1.9h0l0,0c1,0,1.9-0.8,1.9-1.8
	c0,0,0,0,0,0l0,0C143.6,234.2,142.7,233.3,141.7,233.3C141.7,233.3,141.7,233.3,141.7,233.3z"/>
<path class="st0" d="M146.4,225.3c-1,0-1.8,0.8-1.8,1.9s0.8,1.8,1.9,1.8c1,0,1.8-0.8,1.8-1.8S147.4,225.3,146.4,225.3L146.4,225.3z"
	/>
<path class="st0" d="M141.7,249.5L141.7,249.5c-1,0-1.9,0.8-1.9,1.8v0l0,0c0,1,0.8,1.9,1.8,1.9c0,0,0,0,0,0l0,0c1,0,1.9-0.8,1.9-1.9
	l0,0l0,0C143.6,250.3,142.7,249.5,141.7,249.5C141.7,249.5,141.7,249.5,141.7,249.5z"/>
<path class="st0" d="M146.4,241.4c-1,0-1.8,0.8-1.8,1.9s0.8,1.8,1.9,1.8c1,0,1.8-0.8,1.8-1.8S147.4,241.4,146.4,241.4L146.4,241.4z"
	/>
<path class="st0" d="M141.7,265.6L141.7,265.6c-1,0-1.9,0.8-1.9,1.9l0,0l0,0c0,1,0.8,1.9,1.8,1.9h0l0,0c1,0,1.9-0.8,1.9-1.8
	c0,0,0,0,0,0l0,0C143.6,266.4,142.7,265.6,141.7,265.6C141.7,265.6,141.7,265.6,141.7,265.6z"/>
<path class="st0" d="M146.4,257.5c-1,0-1.8,0.8-1.8,1.9s0.8,1.9,1.9,1.9c1,0,1.8-0.8,1.8-1.9S147.4,257.5,146.4,257.5L146.4,257.5z"
	/>
<path class="st0" d="M141.7,281.7L141.7,281.7c-1,0-1.9,0.8-1.9,1.8c0,0,0,0,0,0l0,0c0,1,0.8,1.9,1.8,1.9h0l0,0c1,0,1.9-0.8,1.9-1.8
	c0,0,0,0,0,0l0,0C143.6,282.6,142.7,281.7,141.7,281.7z"/>
<path class="st0" d="M146.4,273.7c-1,0-1.8,0.8-1.8,1.9s0.8,1.9,1.9,1.9c1,0,1.8-0.8,1.8-1.9S147.4,273.7,146.4,273.7L146.4,273.7z"
	/>
<path class="st0" d="M141.7,297.9L141.7,297.9c-1,0-1.9,0.8-1.9,1.9l0,0l0,0c0,1,0.8,1.9,1.8,1.9h0l0,0c1,0,1.9-0.8,1.9-1.8
	c0,0,0,0,0,0l0,0C143.6,298.7,142.7,297.9,141.7,297.9C141.7,297.9,141.7,297.9,141.7,297.9z"/>
<path class="st0" d="M146.4,289.8c-1,0-1.9,0.8-1.9,1.9c0,1,0.8,1.9,1.9,1.9c1,0,1.9-0.8,1.9-1.9c0,0,0,0,0,0
	C148.2,290.6,147.4,289.8,146.4,289.8L146.4,289.8z"/>
<path class="st0" d="M141.7,314L141.7,314c-1,0-1.9,0.8-1.9,1.8c0,0,0,0,0,0l0,0c0,1,0.8,1.9,1.8,1.9h0l0,0c1,0,1.9-0.8,1.9-1.8
	c0,0,0,0,0,0l0,0C143.6,314.8,142.7,314,141.7,314z"/>
<path class="st0" d="M146.4,305.9c-1,0-1.8,0.8-1.8,1.9s0.8,1.9,1.9,1.9c1,0,1.8-0.8,1.8-1.9S147.4,305.9,146.4,305.9L146.4,305.9z"
	/>
<path class="st0" d="M146.4,322.1c-1,0-1.9,0.8-1.9,1.9c0,1,0.8,1.9,1.9,1.9c1,0,1.9-0.8,1.9-1.9c0,0,0,0,0,0
	C148.2,322.9,147.4,322.1,146.4,322.1L146.4,322.1z"/>
<path class="st0" d="M132.4,201.1L132.4,201.1c-1,0-1.9,0.8-1.9,1.8v0l0,0c0,1,0.8,1.9,1.8,1.9h0l0,0c1,0,1.9-0.8,1.9-1.8v0l0,0
	C134.2,201.9,133.4,201.1,132.4,201.1L132.4,201.1z"/>
<path class="st0" d="M135.2,194.6c0,0.1,0,0.1,0,0.2c0.1,1,1,1.8,2,1.7c0.9-0.1,1.7-0.8,1.7-1.7c0-0.2,0-0.5-0.1-0.7
	C137.6,194.3,136.4,194.4,135.2,194.6z"/>
<path class="st0" d="M132.4,217.2L132.4,217.2c-1,0-1.9,0.8-1.9,1.8v0l0,0c0,1,0.8,1.9,1.8,1.9c0,0,0,0,0,0l0,0c1,0,1.9-0.8,1.9-1.8
	c0,0,0,0,0,0l0,0C134.2,218,133.4,217.2,132.4,217.2L132.4,217.2z"/>
<path class="st0" d="M137.1,209.1c-1,0-1.9,0.8-1.9,1.8s0.8,1.9,1.8,1.9c1,0,1.9-0.8,1.9-1.8c0,0,0,0,0,0
	C138.9,210,138.1,209.1,137.1,209.1z"/>
<path class="st0" d="M132.4,233.3L132.4,233.3c-1,0-1.9,0.8-1.9,1.8v0l0,0c0,1,0.8,1.8,1.9,1.8l0,0c1,0,1.9-0.8,1.9-1.8v0l0,0
	C134.2,234.1,133.4,233.3,132.4,233.3z"/>
<path class="st0" d="M137.1,225.3c-1,0-1.8,0.8-1.8,1.9s0.8,1.8,1.9,1.8c1,0,1.8-0.8,1.8-1.8S138.1,225.3,137.1,225.3L137.1,225.3z"
	/>
<path class="st0" d="M132.4,249.5L132.4,249.5c-1,0-1.9,0.8-1.9,1.8v0l0,0c0,1,0.8,1.9,1.8,1.9c0,0,0,0,0,0l0,0c1,0,1.9-0.8,1.9-1.8
	c0,0,0,0,0,0l0,0C134.2,250.3,133.4,249.5,132.4,249.5L132.4,249.5z"/>
<path class="st0" d="M137.1,241.4c-1,0-1.8,0.8-1.8,1.9s0.8,1.8,1.9,1.8c1,0,1.8-0.8,1.8-1.8S138.1,241.4,137.1,241.4L137.1,241.4z"
	/>
<path class="st0" d="M132.4,265.6L132.4,265.6c-1,0-1.9,0.8-1.9,1.9l0,0l0,0c0,1,0.8,1.9,1.8,1.9h0l0,0c1,0,1.9-0.8,1.9-1.9l0,0l0,0
	C134.2,266.4,133.4,265.6,132.4,265.6L132.4,265.6z"/>
<path class="st0" d="M137.1,257.5c-1,0-1.8,0.8-1.8,1.9s0.8,1.9,1.9,1.9c1,0,1.8-0.8,1.8-1.9S138.1,257.5,137.1,257.5L137.1,257.5z"
	/>
<path class="st0" d="M132.4,281.7L132.4,281.7c-1,0-1.9,0.8-1.9,1.8c0,0,0,0,0,0l0,0c0,1,0.8,1.9,1.8,1.9h0l0,0c1,0,1.9-0.8,1.9-1.9
	l0,0l0,0C134.3,282.6,133.4,281.7,132.4,281.7C132.4,281.7,132.4,281.7,132.4,281.7z"/>
<path class="st0" d="M137.1,273.7c-1,0-1.8,0.8-1.8,1.9s0.8,1.9,1.9,1.9c1,0,1.8-0.8,1.8-1.9S138.1,273.7,137.1,273.7L137.1,273.7z"
	/>
<path class="st0" d="M132.4,297.9L132.4,297.9c-1,0-1.9,0.8-1.9,1.9l0,0l0,0c0,1,0.8,1.9,1.8,1.9h0l0,0c1,0,1.9-0.8,1.9-1.9l0,0l0,0
	C134.2,298.7,133.4,297.9,132.4,297.9L132.4,297.9z"/>
<path class="st0" d="M137.1,289.8c-1,0-1.9,0.8-1.9,1.9c0,1,0.8,1.9,1.9,1.9c1,0,1.9-0.8,1.9-1.9c0,0,0,0,0,0
	C138.9,290.6,138.1,289.8,137.1,289.8L137.1,289.8z"/>
<path class="st0" d="M132.4,314L132.4,314c-1,0-1.9,0.8-1.9,1.8c0,0,0,0,0,0l0,0c0,1,0.8,1.9,1.8,1.9h0l0,0c1,0,1.9-0.8,1.9-1.9l0,0
	l0,0C134.3,314.8,133.4,314,132.4,314C132.4,314,132.4,314,132.4,314z"/>
<path class="st0" d="M137.1,305.9c-1,0-1.8,0.8-1.8,1.9s0.8,1.9,1.9,1.9c1,0,1.8-0.8,1.8-1.9S138.1,305.9,137.1,305.9L137.1,305.9z"
	/>
<path class="st0" d="M137.1,322.1c-1,0-1.9,0.8-1.9,1.9c0,1,0.8,1.9,1.9,1.9c1,0,1.9-0.8,1.9-1.9c0,0,0,0,0,0
	C138.9,322.9,138.1,322.1,137.1,322.1L137.1,322.1z"/>
<path class="st0" d="M123.1,201.1L123.1,201.1c-1,0-1.8,0.8-1.8,1.9l0,0l0,0c0,1,0.8,1.9,1.8,1.9c0,0,0,0,0,0l0,0
	c1,0,1.9-0.8,1.9-1.8c0,0,0,0,0,0l0,0C124.9,201.9,124.1,201.1,123.1,201.1C123.1,201.1,123.1,201.1,123.1,201.1z"/>
<path class="st0" d="M129.3,195.8c-0.9,0.2-1.7,0.4-2.6,0.6c0.3,0.2,0.6,0.3,1,0.3C128.4,196.7,129,196.3,129.3,195.8z"/>
<path class="st0" d="M123.1,217.2L123.1,217.2c-1,0-1.8,0.8-1.8,1.9l0,0l0,0c0,1,0.8,1.9,1.8,1.9c0,0,0,0,0,0l0,0
	c1,0,1.9-0.8,1.9-1.9l0,0l0,0C124.9,218,124.1,217.2,123.1,217.2C123.1,217.2,123.1,217.2,123.1,217.2z"/>
<path class="st0" d="M127.7,209.1c-1,0-1.9,0.8-1.9,1.8s0.8,1.9,1.8,1.9c1,0,1.9-0.8,1.9-1.8c0,0,0,0,0,0
	C129.6,210,128.8,209.1,127.7,209.1C127.7,209.1,127.7,209.1,127.7,209.1z"/>
<path class="st0" d="M123.1,233.3L123.1,233.3c-1,0-1.8,0.8-1.8,1.9l0,0l0,0c0,1,0.8,1.9,1.8,1.9c0,0,0,0,0,0l0,0
	c1,0,1.9-0.8,1.9-1.8c0,0,0,0,0,0l0,0C124.9,234.2,124.1,233.3,123.1,233.3C123.1,233.3,123.1,233.3,123.1,233.3z"/>
<path class="st0" d="M127.7,225.3c-1,0-1.8,0.8-1.8,1.9c0,1,0.8,1.8,1.8,1.8c1,0,1.8-0.8,1.8-1.8S128.8,225.3,127.7,225.3
	C127.7,225.3,127.7,225.3,127.7,225.3z"/>
<path class="st0" d="M123.1,249.5L123.1,249.5c-1,0-1.8,0.8-1.8,1.9l0,0l0,0c0,1,0.8,1.9,1.8,1.9c0,0,0,0,0,0l0,0
	c1,0,1.9-0.8,1.9-1.9l0,0l0,0C124.9,250.3,124.1,249.5,123.1,249.5C123.1,249.5,123.1,249.5,123.1,249.5z"/>
<path class="st0" d="M127.7,241.4c-1,0-1.8,0.8-1.8,1.9c0,1,0.8,1.8,1.8,1.8c1,0,1.8-0.8,1.8-1.8S128.8,241.4,127.7,241.4
	C127.7,241.4,127.7,241.4,127.7,241.4z"/>
<path class="st0" d="M123.1,265.6L123.1,265.6c-1,0-1.8,0.8-1.8,1.9l0,0l0,0c0,1,0.8,1.9,1.8,1.9c0,0,0,0,0,0l0,0
	c1,0,1.9-0.8,1.9-1.8c0,0,0,0,0,0l0,0C124.9,266.4,124.1,265.6,123.1,265.6C123.1,265.6,123.1,265.6,123.1,265.6z"/>
<path class="st0" d="M127.7,257.5c-1,0-1.8,0.8-1.8,1.9c0,1,0.8,1.9,1.8,1.9c1,0,1.8-0.8,1.8-1.9S128.8,257.5,127.7,257.5
	C127.7,257.5,127.7,257.5,127.7,257.5z"/>
<path class="st0" d="M123.1,281.7L123.1,281.7c-1,0-1.9,0.8-1.9,1.8c0,0,0,0,0,0l0,0c0,1,0.8,1.9,1.8,1.9c0,0,0,0,0,0l0,0
	c1,0,1.9-0.8,1.9-1.8c0,0,0,0,0,0l0,0C124.9,282.6,124.1,281.7,123.1,281.7z"/>
<path class="st0" d="M127.7,273.7c-1,0-1.8,0.8-1.8,1.9c0,1,0.8,1.9,1.8,1.9c1,0,1.8-0.8,1.8-1.9S128.8,273.7,127.7,273.7
	C127.7,273.7,127.7,273.7,127.7,273.7z"/>
<path class="st0" d="M123.1,297.9L123.1,297.9c-1,0-1.8,0.8-1.8,1.9l0,0l0,0c0,1,0.8,1.9,1.8,1.9c0,0,0,0,0,0l0,0
	c1,0,1.9-0.8,1.9-1.8c0,0,0,0,0,0l0,0C124.9,298.7,124.1,297.9,123.1,297.9C123.1,297.9,123.1,297.9,123.1,297.9z"/>
<path class="st0" d="M127.7,289.8c-1,0-1.9,0.8-1.9,1.9c0,1,0.8,1.9,1.8,1.9c1,0,1.9-0.8,1.9-1.9c0,0,0,0,0,0
	C129.6,290.6,128.8,289.8,127.7,289.8C127.7,289.8,127.7,289.8,127.7,289.8z"/>
<path class="st0" d="M123.1,314L123.1,314c-1,0-1.9,0.8-1.9,1.8c0,0,0,0,0,0l0,0c0,1,0.8,1.9,1.8,1.9c0,0,0,0,0,0l0,0
	c1,0,1.9-0.8,1.9-1.8c0,0,0,0,0,0l0,0C124.9,314.8,124.1,314,123.1,314z"/>
<path class="st0" d="M127.7,305.9c-1,0-1.8,0.8-1.8,1.9c0,1,0.8,1.9,1.8,1.9c1,0,1.8-0.8,1.8-1.9S128.8,305.9,127.7,305.9
	C127.7,305.9,127.7,305.9,127.7,305.9z"/>
<path class="st0" d="M127.7,322.1c-1,0-1.9,0.8-1.9,1.9c0,1,0.8,1.9,1.8,1.9c1,0,1.9-0.8,1.9-1.9c0,0,0,0,0,0
	C129.6,322.9,128.8,322.1,127.7,322.1C127.7,322.1,127.7,322.1,127.7,322.1z"/>
<path class="st0" d="M113.8,201.1L113.8,201.1c-1,0-1.8,0.8-1.8,1.9l0,0l0,0c0,1,0.8,1.9,1.8,1.9c0,0,0,0,0,0l0,0
	c1,0,1.8-0.8,1.8-1.9l0,0l0,0C115.6,201.9,114.8,201.1,113.8,201.1C113.8,201.1,113.8,201.1,113.8,201.1z"/>
<path class="st0" d="M113.8,217.2L113.8,217.2c-1,0-1.8,0.8-1.8,1.9l0,0l0,0c0,1,0.8,1.9,1.8,1.9c0,0,0,0,0,0l0,0
	c1,0,1.9-0.8,1.9-1.8c0,0,0,0,0,0l0,0C115.6,218,114.8,217.2,113.8,217.2C113.8,217.2,113.8,217.2,113.8,217.2z"/>
<path class="st0" d="M118.4,209.1c-1,0-1.9,0.8-1.9,1.8s0.8,1.9,1.8,1.9s1.9-0.8,1.9-1.8c0,0,0,0,0,0
	C120.3,210,119.5,209.1,118.4,209.1z"/>
<path class="st0" d="M113.8,233.3L113.8,233.3c-1,0-1.8,0.8-1.8,1.9l0,0l0,0c0,1,0.8,1.9,1.8,1.9c0,0,0,0,0,0l0,0
	c1,0,1.8-0.8,1.8-1.9l0,0l0,0C115.6,234.2,114.8,233.3,113.8,233.3C113.8,233.3,113.8,233.3,113.8,233.3z"/>
<path class="st0" d="M118.4,225.3c-1,0-1.8,0.8-1.8,1.9c0,1,0.8,1.8,1.8,1.8c1,0,1.8-0.8,1.8-1.8S119.5,225.3,118.4,225.3
	C118.4,225.3,118.4,225.3,118.4,225.3z"/>
<path class="st0" d="M113.8,249.5L113.8,249.5c-1,0-1.8,0.8-1.8,1.9l0,0l0,0c0,1,0.8,1.9,1.8,1.9c0,0,0,0,0,0l0,0
	c1,0,1.9-0.8,1.9-1.8c0,0,0,0,0,0l0,0C115.6,250.3,114.8,249.5,113.8,249.5C113.8,249.5,113.8,249.5,113.8,249.5z"/>
<path class="st0" d="M118.4,241.4c-1,0-1.8,0.8-1.8,1.9c0,1,0.8,1.8,1.8,1.8c1,0,1.8-0.8,1.8-1.8S119.5,241.4,118.4,241.4
	C118.4,241.4,118.4,241.4,118.4,241.4z"/>
<path class="st0" d="M113.8,265.6L113.8,265.6c-1,0-1.8,0.8-1.8,1.9l0,0l0,0c0,1,0.8,1.9,1.8,1.9c0,0,0,0,0,0l0,0
	c1,0,1.8-0.8,1.8-1.9l0,0l0,0C115.6,266.4,114.8,265.6,113.8,265.6C113.8,265.6,113.8,265.6,113.8,265.6z"/>
<path class="st0" d="M118.4,257.5c-1,0-1.8,0.8-1.8,1.9c0,1,0.8,1.9,1.8,1.9c1,0,1.8-0.8,1.8-1.9S119.5,257.5,118.4,257.5
	C118.4,257.5,118.4,257.5,118.4,257.5z"/>
<path class="st0" d="M113.8,281.7L113.8,281.7c-1,0-1.9,0.8-1.9,1.8c0,0,0,0,0,0l0,0c0,1,0.8,1.9,1.8,1.9c0,0,0,0,0,0l0,0
	c1,0,1.8-0.8,1.8-1.9l0,0l0,0C115.6,282.6,114.8,281.7,113.8,281.7C113.8,281.7,113.8,281.7,113.8,281.7z"/>
<path class="st0" d="M118.4,273.7c-1,0-1.8,0.8-1.8,1.9c0,1,0.8,1.9,1.8,1.9c1,0,1.8-0.8,1.8-1.9S119.5,273.7,118.4,273.7
	C118.4,273.7,118.4,273.7,118.4,273.7z"/>
<path class="st0" d="M113.8,297.9L113.8,297.9c-1,0-1.8,0.8-1.8,1.9l0,0l0,0c0,1,0.8,1.9,1.8,1.9c0,0,0,0,0,0l0,0
	c1,0,1.8-0.8,1.8-1.9l0,0l0,0C115.6,298.7,114.8,297.9,113.8,297.9C113.8,297.9,113.8,297.9,113.8,297.9z"/>
<path class="st0" d="M118.4,289.8c-1,0-1.9,0.8-1.9,1.9c0,1,0.8,1.9,1.8,1.9c1,0,1.9-0.8,1.9-1.9c0,0,0,0,0,0
	C120.3,290.6,119.5,289.8,118.4,289.8C118.4,289.8,118.4,289.8,118.4,289.8z"/>
<path class="st0" d="M113.8,314L113.8,314c-1,0-1.9,0.8-1.9,1.8c0,0,0,0,0,0l0,0c0,1,0.8,1.9,1.8,1.9c0,0,0,0,0,0l0,0
	c1,0,1.8-0.8,1.8-1.9l0,0l0,0C115.6,314.8,114.8,314,113.8,314C113.8,314,113.8,314,113.8,314z"/>
<path class="st0" d="M118.4,305.9c-1,0-1.8,0.8-1.8,1.9c0,1,0.8,1.9,1.8,1.9c1,0,1.8-0.8,1.8-1.9S119.5,305.9,118.4,305.9
	C118.4,305.9,118.4,305.9,118.4,305.9z"/>
<path class="st0" d="M118.4,322.1c-1,0-1.9,0.8-1.9,1.9c0,1,0.8,1.9,1.8,1.9c1,0,1.9-0.8,1.9-1.9c0,0,0,0,0,0
	C120.3,322.9,119.5,322.1,118.4,322.1C118.4,322.1,118.4,322.1,118.4,322.1z"/>
<path class="st0" d="M104.4,217.2L104.4,217.2c-1,0-1.8,0.8-1.8,1.8l0,0c0,1,0.8,1.9,1.8,1.9c0,0,0,0,0,0l0,0c1,0,1.9-0.8,1.9-1.8
	c0,0,0,0,0,0l0,0C106.3,218,105.5,217.2,104.4,217.2z"/>
<path class="st0" d="M109.1,209.1c-1,0-1.8,0.9-1.8,1.9c0,1,0.9,1.8,1.9,1.8c1,0,1.8-0.8,1.8-1.8C111,210,110.2,209.1,109.1,209.1
	C109.2,209.1,109.1,209.1,109.1,209.1z"/>
<path class="st0" d="M104.6,204.7c0.5,0,0.9-0.3,1.2-0.6L104.6,204.7z"/>
<path class="st0" d="M104.4,233.3L104.4,233.3c-1,0-1.8,0.8-1.8,1.9l0,0l0,0c0,1,0.8,1.9,1.8,1.9c0,0,0,0,0,0l0,0
	c1,0,1.8-0.8,1.8-1.9l0,0l0,0C106.3,234.2,105.5,233.3,104.4,233.3C104.4,233.3,104.4,233.3,104.4,233.3z"/>
<path class="st0" d="M109.1,225.3c-1,0-1.8,0.8-1.8,1.9c0,1,0.8,1.8,1.8,1.8c1,0,1.8-0.8,1.8-1.8S110.1,225.3,109.1,225.3
	C109.1,225.3,109.1,225.3,109.1,225.3z"/>
<path class="st0" d="M104.4,249.5L104.4,249.5c-1,0-1.8,0.8-1.8,1.9l0,0l0,0c0,1,0.8,1.9,1.8,1.9c0,0,0,0,0,0l0,0
	c1,0,1.9-0.8,1.9-1.8c0,0,0,0,0,0l0,0C106.3,250.3,105.5,249.5,104.4,249.5C104.4,249.5,104.4,249.5,104.4,249.5z"/>
<circle class="st0" cx="109.1" cy="243.2" r="1.9"/>
<path class="st0" d="M104.4,265.6L104.4,265.6c-1,0-1.8,0.8-1.8,1.9l0,0l0,0c0,1,0.8,1.9,1.8,1.9c0,0,0,0,0,0l0,0
	c1,0,1.8-0.8,1.8-1.9l0,0l0,0C106.3,266.4,105.5,265.6,104.4,265.6C104.4,265.6,104.4,265.6,104.4,265.6z"/>
<path class="st0" d="M109.1,257.5c-1,0-1.8,0.8-1.8,1.9c0,1,0.8,1.9,1.8,1.9c1,0,1.8-0.8,1.8-1.9S110.1,257.5,109.1,257.5
	C109.1,257.5,109.1,257.5,109.1,257.5z"/>
<path class="st0" d="M104.4,281.7L104.4,281.7c-1,0-1.9,0.8-1.9,1.8c0,0,0,0,0,0l0,0c0,1,0.8,1.9,1.8,1.9c0,0,0,0,0,0l0,0
	c1,0,1.8-0.8,1.8-1.9l0,0l0,0C106.3,282.6,105.5,281.7,104.4,281.7C104.5,281.7,104.5,281.7,104.4,281.7z"/>
<path class="st0" d="M109.1,273.7c-1,0-1.8,0.8-1.8,1.9c0,1,0.8,1.9,1.8,1.9c1,0,1.8-0.8,1.8-1.9S110.1,273.7,109.1,273.7
	C109.1,273.7,109.1,273.7,109.1,273.7z"/>
<path class="st0" d="M104.4,297.9L104.4,297.9c-1,0-1.8,0.8-1.8,1.9l0,0l0,0c0,1,0.8,1.9,1.8,1.9c0,0,0,0,0,0l0,0
	c1,0,1.8-0.8,1.8-1.9l0,0l0,0C106.3,298.7,105.5,297.9,104.4,297.9C104.4,297.9,104.4,297.9,104.4,297.9z"/>
<path class="st0" d="M109.1,289.8c-1,0-1.9,0.8-1.9,1.9c0,1,0.8,1.9,1.8,1.9c1,0,1.9-0.8,1.9-1.9c0,0,0,0,0,0
	C111,290.6,110.1,289.8,109.1,289.8C109.1,289.8,109.1,289.8,109.1,289.8z"/>
<path class="st0" d="M104.4,314L104.4,314c-1,0-1.9,0.8-1.9,1.8c0,0,0,0,0,0l0,0c0,1,0.8,1.9,1.8,1.9c0,0,0,0,0,0l0,0
	c1,0,1.8-0.8,1.8-1.9l0,0l0,0C106.3,314.8,105.5,314,104.4,314C104.5,314,104.5,314,104.4,314z"/>
<circle class="st0" cx="109.1" cy="307.8" r="1.9"/>
<circle class="st0" cx="109.1" cy="323.9" r="1.9"/>
<path class="st0" d="M95.1,217.2L95.1,217.2c-1,0-1.8,0.8-1.9,1.8l0,0c0,1,0.8,1.9,1.9,1.9l0,0l0,0c1,0,1.9-0.8,1.9-1.8c0,0,0,0,0,0
	l0,0C97,218,96.2,217.2,95.1,217.2z"/>
<path class="st0" d="M99.8,209.1c-1,0-1.9,0.8-1.9,1.9s0.8,1.9,1.9,1.9s1.9-0.8,1.9-1.9C101.7,210,100.8,209.1,99.8,209.1
	C99.8,209.1,99.8,209.1,99.8,209.1z"/>
<path class="st0" d="M95.1,233.3L95.1,233.3c-1,0-1.9,0.8-1.9,1.8c0,0,0,0,0,0l0,0c0,1,0.8,1.8,1.9,1.8l0,0c1,0,1.8-0.8,1.9-1.8l0,0
	C97,234.2,96.2,233.3,95.1,233.3C95.1,233.3,95.1,233.3,95.1,233.3z"/>
<path class="st0" d="M99.8,225.3c-1,0-1.8,0.8-1.8,1.9s0.8,1.8,1.9,1.8c1,0,1.8-0.8,1.8-1.8C101.7,226.1,100.8,225.3,99.8,225.3
	C99.8,225.3,99.8,225.3,99.8,225.3z"/>
<path class="st0" d="M95.1,249.5L95.1,249.5c-1,0-1.9,0.8-1.9,1.8c0,0,0,0,0,0l0,0c0,1,0.8,1.9,1.9,1.9l0,0l0,0c1,0,1.9-0.8,1.9-1.8
	c0,0,0,0,0,0l0,0C97,250.3,96.2,249.5,95.1,249.5C95.1,249.5,95.1,249.5,95.1,249.5z"/>
<path class="st0" d="M99.8,241.4c-1,0-1.8,0.8-1.8,1.9s0.8,1.8,1.9,1.8c1,0,1.8-0.8,1.8-1.8C101.7,242.2,100.8,241.4,99.8,241.4
	C99.8,241.4,99.8,241.4,99.8,241.4z"/>
<path class="st0" d="M95.1,265.6L95.1,265.6c-1,0-1.9,0.8-1.9,1.8c0,0,0,0,0,0l0,0c0,1,0.8,1.9,1.8,1.9c0,0,0,0,0,0l0,0
	c1,0,1.9-0.8,1.9-1.8c0,0,0,0,0,0l0,0C97,266.4,96.2,265.6,95.1,265.6C95.1,265.6,95.1,265.6,95.1,265.6z"/>
<path class="st0" d="M99.8,257.5c-1,0-1.8,0.8-1.8,1.9c0,1,0.8,1.8,1.9,1.8c1,0,1.8-0.8,1.8-1.8C101.7,258.4,100.8,257.5,99.8,257.5
	C99.8,257.5,99.8,257.5,99.8,257.5z"/>
<path class="st0" d="M95.1,281.7L95.1,281.7c-1,0-1.9,0.8-1.9,1.9l0,0c0,1,0.8,1.9,1.8,1.9c0,0,0,0,0,0l0,0c1,0,1.9-0.8,1.9-1.8
	c0,0,0,0,0,0l0,0C97,282.6,96.2,281.7,95.1,281.7C95.2,281.7,95.1,281.7,95.1,281.7z"/>
<path class="st0" d="M99.8,273.7c-1,0-1.8,0.8-1.8,1.9c0,1,0.8,1.8,1.9,1.8c1,0,1.8-0.8,1.8-1.8C101.7,274.5,100.8,273.7,99.8,273.7
	C99.8,273.7,99.8,273.7,99.8,273.7z"/>
<path class="st0" d="M95.1,297.9L95.1,297.9c-1,0-1.9,0.8-1.9,1.8c0,0,0,0,0,0l0,0c0,1,0.8,1.9,1.8,1.9c0,0,0,0,0,0l0,0
	c1,0,1.9-0.8,1.9-1.8c0,0,0,0,0,0l0,0C97,298.7,96.2,297.9,95.1,297.9C95.1,297.9,95.1,297.9,95.1,297.9z"/>
<path class="st0" d="M99.8,289.8c-1,0-1.9,0.8-1.9,1.9s0.8,1.9,1.9,1.9c1,0,1.9-0.8,1.9-1.9c0,0,0,0,0,0
	C101.7,290.6,100.8,289.8,99.8,289.8C99.8,289.8,99.8,289.8,99.8,289.8z"/>
<path class="st0" d="M95.1,314L95.1,314c-1,0-1.9,0.8-1.9,1.9l0,0c0,1,0.8,1.9,1.8,1.9c0,0,0,0,0,0l0,0c1,0,1.9-0.8,1.9-1.8
	c0,0,0,0,0,0l0,0C97,314.8,96.2,314,95.1,314C95.2,314,95.1,314,95.1,314z"/>
<path class="st0" d="M99.8,305.9c-1,0-1.8,0.8-1.8,1.9c0,1,0.8,1.8,1.9,1.8c1,0,1.8-0.8,1.8-1.8C101.7,306.8,100.8,305.9,99.8,305.9
	C99.8,305.9,99.8,305.9,99.8,305.9z"/>
<path class="st0" d="M99.8,322.1c-1,0-1.9,0.8-1.9,1.9s0.8,1.9,1.9,1.9c1,0,1.9-0.8,1.9-1.9c0,0,0,0,0,0
	C101.7,322.9,100.8,322.1,99.8,322.1C99.8,322.1,99.8,322.1,99.8,322.1z"/>
<path class="st0" d="M85.8,217.2L85.8,217.2c-1,0-1.8,0.8-1.8,1.8l0,0c0,1,0.8,1.9,1.8,1.9c0,0,0,0,0,0l0,0c1,0,1.8-0.8,1.8-1.9l0,0
	C87.6,218,86.8,217.2,85.8,217.2z"/>
<path class="st0" d="M90.5,209.1c-1,0-1.9,0.8-1.9,1.9s0.8,1.9,1.9,1.9c1,0,1.9-0.8,1.9-1.8C92.3,210,91.5,209.1,90.5,209.1
	C90.5,209.1,90.5,209.1,90.5,209.1z"/>
<path class="st0" d="M95.1,204.8c0.2,0,0.5,0,0.7-0.1l-0.7-0.1l-1-0.1C94.4,204.7,94.8,204.8,95.1,204.8z"/>
<path class="st0" d="M85.8,233.3L85.8,233.3c-1,0-1.8,0.8-1.8,1.8l0,0c0,1,0.8,1.8,1.8,1.8l0,0c1,0,1.8-0.8,1.8-1.9l0,0l0,0
	C87.7,234.1,86.8,233.3,85.8,233.3z"/>
<path class="st0" d="M90.5,225.3c-1,0-1.8,0.8-1.8,1.9c0,1,0.8,1.8,1.8,1.8c1,0,1.8-0.8,1.8-1.8S91.5,225.3,90.5,225.3
	C90.5,225.3,90.5,225.3,90.5,225.3z"/>
<path class="st0" d="M85.8,249.5L85.8,249.5c-1,0-1.8,0.8-1.8,1.8l0,0c0,1,0.8,1.9,1.8,1.9c0,0,0,0,0,0l0,0c1,0,1.9-0.8,1.9-1.8
	c0,0,0,0,0,0l0,0C87.7,250.3,86.9,249.5,85.8,249.5C85.8,249.5,85.8,249.5,85.8,249.5z"/>
<path class="st0" d="M90.5,241.4c-1,0-1.8,0.8-1.8,1.9c0,1,0.8,1.8,1.8,1.8c1,0,1.8-0.8,1.8-1.8S91.5,241.4,90.5,241.4
	C90.5,241.4,90.5,241.4,90.5,241.4z"/>
<path class="st0" d="M85.8,265.6L85.8,265.6c-1,0-1.8,0.8-1.8,1.9l0,0c0,1,0.8,1.9,1.8,1.9c0,0,0,0,0,0l0,0c1,0,1.8-0.8,1.8-1.9l0,0
	l0,0C87.7,266.4,86.9,265.6,85.8,265.6C85.8,265.6,85.8,265.6,85.8,265.6z"/>
<path class="st0" d="M90.5,257.5c-1,0-1.8,0.8-1.8,1.9c0,1,0.8,1.9,1.8,1.9c1,0,1.8-0.8,1.8-1.9S91.5,257.5,90.5,257.5
	C90.5,257.5,90.5,257.5,90.5,257.5z"/>
<path class="st0" d="M85.8,281.7L85.8,281.7c-1,0-1.8,0.8-1.8,1.9l0,0c0,1,0.8,1.9,1.8,1.9c0,0,0,0,0,0l0,0c1,0,1.8-0.8,1.8-1.9l0,0
	l0,0C87.7,282.6,86.9,281.7,85.8,281.7C85.8,281.7,85.8,281.7,85.8,281.7z"/>
<path class="st0" d="M90.5,273.7c-1,0-1.8,0.8-1.8,1.9c0,1,0.8,1.9,1.8,1.9c1,0,1.8-0.8,1.8-1.9S91.5,273.7,90.5,273.7
	C90.5,273.7,90.5,273.7,90.5,273.7z"/>
<path class="st0" d="M85.8,297.9L85.8,297.9c-1,0-1.8,0.8-1.8,1.9l0,0c0,1,0.8,1.9,1.8,1.9c0,0,0,0,0,0l0,0c1,0,1.8-0.8,1.8-1.9l0,0
	l0,0C87.7,298.7,86.9,297.9,85.8,297.9C85.8,297.9,85.8,297.9,85.8,297.9z"/>
<path class="st0" d="M90.5,289.8c-1,0-1.9,0.8-1.9,1.9c0,1,0.8,1.9,1.8,1.9c1,0,1.9-0.8,1.9-1.9c0,0,0,0,0,0
	C92.3,290.6,91.5,289.8,90.5,289.8C90.5,289.8,90.5,289.8,90.5,289.8z"/>
<path class="st0" d="M85.8,314L85.8,314c-1,0-1.8,0.8-1.8,1.9l0,0c0,1,0.8,1.9,1.8,1.9c0,0,0,0,0,0l0,0c1,0,1.8-0.8,1.8-1.9l0,0l0,0
	C87.7,314.8,86.9,314,85.8,314C85.8,314,85.8,314,85.8,314z"/>
<path class="st0" d="M90.5,305.9c-1,0-1.8,0.8-1.8,1.9c0,1,0.8,1.9,1.8,1.9c1,0,1.8-0.8,1.8-1.9S91.5,305.9,90.5,305.9
	C90.5,305.9,90.5,305.9,90.5,305.9z"/>
<path class="st0" d="M90.5,322.1c-1,0-1.9,0.8-1.9,1.9c0,1,0.8,1.9,1.8,1.9c1,0,1.9-0.8,1.9-1.9c0,0,0,0,0,0
	C92.3,322.9,91.5,322.1,90.5,322.1C90.5,322.1,90.5,322.1,90.5,322.1z"/>
<path class="st0" d="M76.5,217.2L76.5,217.2c-1,0-1.8,0.8-1.9,1.8l0,0c0,1,0.8,1.9,1.8,1.9c0,0,0,0,0,0l0,0c1,0,1.9-0.8,1.9-1.8
	c0,0,0,0,0,0l0,0C78.3,218,77.5,217.2,76.5,217.2z"/>
<path class="st0" d="M81.2,209.1c-1,0-1.9,0.8-1.9,1.8c0,1,0.8,1.9,1.8,1.9c1,0,1.9-0.8,1.9-1.8C83,210,82.2,209.1,81.2,209.1
	C81.2,209.1,81.2,209.1,81.2,209.1z"/>
<path class="st0" d="M85.8,204.8c0.5,0,1-0.2,1.4-0.6h-1.4h-1.4C84.8,204.6,85.3,204.8,85.8,204.8L85.8,204.8z"/>
<path class="st0" d="M76.5,233.3L76.5,233.3c-1,0-1.8,0.8-1.8,1.9l0,0l0,0c0,1,0.8,1.8,1.8,1.8l0,0c1,0,1.8-0.8,1.8-1.9l0,0l0,0
	C78.3,234.1,77.5,233.3,76.5,233.3z"/>
<path class="st0" d="M81.2,225.3c-1,0-1.9,0.8-1.9,1.8s0.8,1.9,1.8,1.9c1,0,1.9-0.8,1.9-1.8c0,0,0,0,0,0
	C83,226.1,82.2,225.3,81.2,225.3z"/>
<path class="st0" d="M76.5,249.5L76.5,249.5c-1,0-1.8,0.8-1.8,1.9l0,0l0,0c0,1,0.8,1.9,1.8,1.9c0,0,0,0,0,0l0,0c1,0,1.9-0.8,1.9-1.8
	c0,0,0,0,0,0l0,0C78.4,250.3,77.5,249.5,76.5,249.5C76.5,249.5,76.5,249.5,76.5,249.5z"/>
<path class="st0" d="M81.2,241.4c-1,0-1.9,0.8-1.9,1.8s0.8,1.9,1.8,1.9c1,0,1.9-0.8,1.9-1.8c0,0,0,0,0,0
	C83,242.2,82.2,241.4,81.2,241.4z"/>
<path class="st0" d="M76.5,265.6L76.5,265.6c-1,0-1.8,0.8-1.8,1.9l0,0l0,0c0,1,0.8,1.9,1.8,1.9c0,0,0,0,0,0l0,0c1,0,1.8-0.8,1.8-1.9
	l0,0l0,0C78.4,266.4,77.5,265.6,76.5,265.6C76.5,265.6,76.5,265.6,76.5,265.6z"/>
<path class="st0" d="M81.2,257.5c-1,0-1.9,0.8-1.9,1.8c0,1,0.8,1.9,1.8,1.9c1,0,1.9-0.8,1.9-1.8c0,0,0,0,0,0
	C83,258.4,82.2,257.5,81.2,257.5z"/>
<path class="st0" d="M76.5,281.7L76.5,281.7c-1,0-1.9,0.8-1.9,1.8c0,0,0,0,0,0l0,0c0,1,0.8,1.9,1.8,1.9c0,0,0,0,0,0l0,0
	c1,0,1.8-0.8,1.8-1.9l0,0l0,0C78.4,282.6,77.5,281.7,76.5,281.7C76.5,281.7,76.5,281.7,76.5,281.7z"/>
<path class="st0" d="M81.2,273.7c-1,0-1.9,0.8-1.9,1.8c0,1,0.8,1.9,1.8,1.9c1,0,1.9-0.8,1.9-1.8c0,0,0,0,0,0
	C83,274.5,82.2,273.7,81.2,273.7z"/>
<path class="st0" d="M76.5,297.9L76.5,297.9c-1,0-1.8,0.8-1.8,1.9l0,0l0,0c0,1,0.8,1.9,1.8,1.9c0,0,0,0,0,0l0,0c1,0,1.8-0.8,1.8-1.9
	l0,0l0,0C78.4,298.7,77.5,297.9,76.5,297.9C76.5,297.9,76.5,297.9,76.5,297.9z"/>
<path class="st0" d="M81.2,289.8c-1,0-1.9,0.8-1.9,1.8s0.8,1.9,1.8,1.9c1,0,1.9-0.8,1.9-1.8c0,0,0,0,0,0
	C83,290.6,82.2,289.8,81.2,289.8z"/>
<path class="st0" d="M76.5,314L76.5,314c-1,0-1.9,0.8-1.9,1.8c0,0,0,0,0,0l0,0c0,1,0.8,1.9,1.8,1.9c0,0,0,0,0,0l0,0
	c1,0,1.8-0.8,1.8-1.9l0,0l0,0C78.4,314.8,77.5,314,76.5,314C76.5,314,76.5,314,76.5,314z"/>
<path class="st0" d="M81.2,305.9c-1,0-1.9,0.8-1.9,1.8c0,1,0.8,1.9,1.8,1.9c1,0,1.9-0.8,1.9-1.8c0,0,0,0,0,0
	C83,306.8,82.2,305.9,81.2,305.9z"/>
<path class="st0" d="M81.2,322.1c-1,0-1.9,0.8-1.9,1.8s0.8,1.9,1.8,1.9c1,0,1.9-0.8,1.9-1.8c0,0,0,0,0,0
	C83,322.9,82.2,322.1,81.2,322.1z"/>
<path class="st0" d="M67.2,217.2L67.2,217.2c-1,0-1.8,0.8-1.9,1.8l0,0c0,1,0.8,1.9,1.8,1.9c0,0,0,0,0,0l0,0c1,0,1.8-0.8,1.8-1.9l0,0
	C69,218,68.2,217.2,67.2,217.2z"/>
<path class="st0" d="M71.8,209.1c-1,0-1.9,0.8-1.9,1.9s0.8,1.9,1.9,1.9c1,0,1.9-0.8,1.9-1.8C73.7,210,72.9,209.1,71.8,209.1
	C71.9,209.1,71.9,209.1,71.8,209.1z"/>
<path class="st0" d="M76.5,204.8c0.5,0,0.9-0.2,1.3-0.5c-0.4,0-0.9,0-1.3,0.1l-1.1,0.1C75.7,204.6,76.1,204.8,76.5,204.8L76.5,204.8
	z"/>
<path class="st0" d="M67.2,233.3L67.2,233.3c-1,0-1.8,0.8-1.8,1.9l0,0l0,0c0,1,0.8,1.8,1.8,1.8l0,0c1,0,1.8-0.8,1.8-1.8l0,0
	C69,234.2,68.2,233.4,67.2,233.3z"/>
<path class="st0" d="M71.8,225.3c-1,0-1.8,0.8-1.8,1.9c0,1,0.8,1.8,1.8,1.8c1,0,1.8-0.8,1.8-1.8S72.9,225.3,71.8,225.3
	C71.8,225.3,71.8,225.3,71.8,225.3z"/>
<path class="st0" d="M67.2,249.5L67.2,249.5c-1,0-1.8,0.8-1.8,1.9l0,0l0,0c0,1,0.8,1.9,1.8,1.9c0,0,0,0,0,0l0,0c1,0,1.8-0.8,1.8-1.9
	l0,0C69,250.3,68.2,249.5,67.2,249.5z"/>
<path class="st0" d="M71.8,241.4c-1,0-1.8,0.8-1.8,1.9c0,1,0.8,1.8,1.8,1.8c1,0,1.8-0.8,1.8-1.8S72.9,241.4,71.8,241.4
	C71.8,241.4,71.8,241.4,71.8,241.4z"/>
<path class="st0" d="M67.2,265.6L67.2,265.6c-1,0-1.8,0.8-1.8,1.9l0,0l0,0c0,1,0.8,1.9,1.8,1.9c0,0,0,0,0,0l0,0c1,0,1.8-0.8,1.8-1.9
	l0,0C69,266.4,68.2,265.6,67.2,265.6z"/>
<path class="st0" d="M71.8,257.5c-1,0-1.8,0.8-1.8,1.9c0,1,0.8,1.9,1.8,1.9c1,0,1.8-0.8,1.8-1.9S72.9,257.5,71.8,257.5
	C71.8,257.5,71.8,257.5,71.8,257.5z"/>
<path class="st0" d="M67.2,281.7L67.2,281.7c-1,0-1.9,0.8-1.9,1.8c0,0,0,0,0,0l0,0c0,1,0.8,1.9,1.8,1.9c0,0,0,0,0,0l0,0
	c1,0,1.8-0.8,1.8-1.9l0,0C69,282.6,68.2,281.8,67.2,281.7z"/>
<path class="st0" d="M71.8,273.7c-1,0-1.8,0.8-1.8,1.9c0,1,0.8,1.9,1.8,1.9c1,0,1.8-0.8,1.8-1.9S72.9,273.7,71.8,273.7
	C71.8,273.7,71.8,273.7,71.8,273.7z"/>
<path class="st0" d="M67.2,297.9L67.2,297.9c-1,0-1.8,0.8-1.8,1.9l0,0l0,0c0,1,0.8,1.9,1.8,1.9c0,0,0,0,0,0l0,0c1,0,1.8-0.8,1.8-1.9
	l0,0C69,298.7,68.2,297.9,67.2,297.9z"/>
<path class="st0" d="M71.8,289.8c-1,0-1.9,0.8-1.9,1.9c0,1,0.8,1.9,1.8,1.9c1,0,1.9-0.8,1.9-1.9c0,0,0,0,0,0
	C73.7,290.6,72.9,289.8,71.8,289.8C71.8,289.8,71.8,289.8,71.8,289.8z"/>
<path class="st0" d="M67.2,314L67.2,314c-1,0-1.9,0.8-1.9,1.8c0,0,0,0,0,0l0,0v0c0.6,0.6,1.2,1.2,1.8,1.8l0,0c1,0,1.8-0.8,1.8-1.8
	l0,0C69,314.8,68.2,314,67.2,314z"/>
<path class="st0" d="M71.8,305.9c-1,0-1.8,0.8-1.8,1.9c0,1,0.8,1.9,1.8,1.9c1,0,1.8-0.8,1.8-1.9S72.9,305.9,71.8,305.9
	C71.8,305.9,71.8,305.9,71.8,305.9z"/>
<path class="st0" d="M57.9,217.2L57.9,217.2c-1,0-1.8,0.8-1.9,1.8l0,0c0,1,0.8,1.9,1.8,1.9c0,0,0,0,0,0l0,0c1,0,1.9-0.8,1.9-1.8
	c0,0,0,0,0,0l0,0C59.7,218,58.9,217.2,57.9,217.2z"/>
<path class="st0" d="M62.5,209.1c-1,0-1.9,0.8-1.9,1.9c0,1,0.8,1.9,1.9,1.9c1,0,1.9-0.8,1.9-1.8C64.4,210,63.6,209.1,62.5,209.1
	C62.6,209.1,62.5,209.1,62.5,209.1z"/>
<path class="st0" d="M57.9,233.3L57.9,233.3c-1,0-1.9,0.8-1.9,1.8c0,0,0,0,0,0l0,0c0,1,0.9,1.8,1.9,1.8l0,0c1,0,1.9-0.8,1.9-1.8
	c0,0,0,0,0,0l0,0C59.7,234.1,58.9,233.3,57.9,233.3z"/>
<path class="st0" d="M62.5,225.3c-1,0-1.9,0.8-1.9,1.9c0,1,0.8,1.8,1.8,1.8s1.9-0.8,1.9-1.8S63.6,225.3,62.5,225.3L62.5,225.3z"/>
<path class="st0" d="M57.9,249.5L57.9,249.5c-1,0-1.9,0.8-1.9,1.8c0,0,0,0,0,0l0,0c0,1,0.8,1.9,1.8,1.9c0,0,0,0,0,0l0,0
	c1,0,1.9-0.8,1.9-1.9l0,0l0,0C59.7,250.3,58.9,249.5,57.9,249.5z"/>
<circle class="st0" cx="62.5" cy="243.2" r="1.9"/>
<path class="st0" d="M57.9,265.6L57.9,265.6c-1,0-1.9,0.8-1.9,1.8c0,0,0,0,0,0l0,0c0,1,0.8,1.9,1.8,1.9h0l0,0c1,0,1.9-0.8,1.9-1.8
	c0,0,0,0,0,0l0,0C59.7,266.4,58.9,265.6,57.9,265.6z"/>
<path class="st0" d="M62.5,257.5c-1,0-1.9,0.8-1.9,1.9s0.8,1.9,1.8,1.9s1.9-0.8,1.9-1.9S63.6,257.5,62.5,257.5L62.5,257.5z"/>
<path class="st0" d="M57.9,281.7L57.9,281.7c-1,0-1.9,0.8-1.9,1.8c0,0,0,0,0,0l0,0c0,1,0.8,1.9,1.8,1.9h0l0,0c1,0,1.9-0.8,1.9-1.8
	c0,0,0,0,0,0l0,0C59.7,282.6,58.9,281.7,57.9,281.7z"/>
<path class="st0" d="M62.5,273.7c-1,0-1.9,0.8-1.9,1.9s0.8,1.9,1.8,1.9s1.9-0.8,1.9-1.9S63.6,273.7,62.5,273.7L62.5,273.7z"/>
<path class="st0" d="M57.9,297.9L57.9,297.9c-1,0-1.9,0.8-1.9,1.8c0,0,0,0,0,0l0,0c0,1,0.8,1.9,1.8,1.9h0l0,0c1,0,1.9-0.8,1.9-1.8
	c0,0,0,0,0,0l0,0C59.7,298.7,58.9,297.9,57.9,297.9z"/>
<path class="st0" d="M62.5,289.8c-1,0-1.9,0.8-1.9,1.9c0,1,0.8,1.9,1.8,1.9c1,0,1.9-0.8,1.9-1.9c0,0,0,0,0,0
	C64.4,290.6,63.6,289.8,62.5,289.8L62.5,289.8z"/>
<circle class="st0" cx="62.5" cy="307.8" r="1.9"/>
<path class="st0" d="M48.6,217.2L48.6,217.2c-1,0-1.8,0.8-1.9,1.8l0,0c0,1,0.8,1.9,1.8,1.9c0,0,0,0,0,0l0,0c1,0,1.9-0.8,1.9-1.8
	c0,0,0,0,0,0l0,0C50.4,218,49.6,217.2,48.6,217.2z"/>
<path class="st0" d="M53.2,209.1c-1,0-1.9,0.8-1.9,1.9c0,1,0.8,1.9,1.9,1.9c1,0,1.9-0.8,1.9-1.8C55.1,210,54.3,209.1,53.2,209.1
	C53.2,209.1,53.2,209.1,53.2,209.1z"/>
<path class="st0" d="M48.6,233.3L48.6,233.3c-1,0-1.8,0.8-1.8,1.9l0,0l0,0c0,1,0.8,1.8,1.8,1.8l0,0c1,0,1.8-0.8,1.8-1.9l0,0l0,0
	C50.4,234.1,49.6,233.3,48.6,233.3z"/>
<path class="st0" d="M53.2,225.3c-1,0-1.9,0.8-1.9,1.9c0,1,0.8,1.8,1.8,1.8s1.8-0.8,1.9-1.8S54.2,225.3,53.2,225.3L53.2,225.3z"/>
<path class="st0" d="M48.6,249.5L48.6,249.5c-1,0-1.8,0.8-1.8,1.9l0,0l0,0c0,1,0.8,1.9,1.8,1.9c0,0,0,0,0,0l0,0c1,0,1.9-0.8,1.9-1.8
	c0,0,0,0,0,0l0,0C50.4,250.3,49.6,249.5,48.6,249.5L48.6,249.5z"/>
<path class="st0" d="M53.2,241.4c-1,0-1.9,0.8-1.9,1.9c0,1,0.8,1.8,1.8,1.8s1.8-0.8,1.9-1.8S54.2,241.4,53.2,241.4L53.2,241.4z"/>
<path class="st0" d="M48.6,265.6L48.6,265.6c-1,0-1.8,0.8-1.8,1.9l0,0l0,0c0,1,0.8,1.9,1.8,1.9h0l0,0c1,0,1.8-0.8,1.8-1.9l0,0l0,0
	C50.4,266.4,49.6,265.6,48.6,265.6L48.6,265.6z"/>
<path class="st0" d="M53.2,257.5c-1,0-1.9,0.8-1.9,1.9s0.8,1.9,1.8,1.9s1.8-0.8,1.9-1.9S54.2,257.5,53.2,257.5L53.2,257.5z"/>
<path class="st0" d="M48.6,281.7L48.6,281.7c-1,0-1.9,0.8-1.9,1.8c0,0,0,0,0,0l0,0c0,1,0.8,1.9,1.8,1.9h0l0,0c1,0,1.8-0.8,1.8-1.9
	l0,0l0,0C50.4,282.6,49.6,281.7,48.6,281.7C48.6,281.7,48.6,281.7,48.6,281.7z"/>
<path class="st0" d="M53.2,273.7c-1,0-1.9,0.8-1.9,1.9s0.8,1.9,1.8,1.9s1.8-0.8,1.9-1.9S54.2,273.7,53.2,273.7L53.2,273.7z"/>
<path class="st0" d="M48.6,297.9L48.6,297.9c-1,0-1.8,0.8-1.8,1.9l0,0l0,0c0,1,0.8,1.9,1.8,1.9h0l0,0c1,0,1.8-0.8,1.8-1.9l0,0l0,0
	C50.4,298.7,49.6,297.9,48.6,297.9L48.6,297.9z"/>
<path class="st0" d="M53.2,289.8c-1,0-1.9,0.8-1.9,1.9c0,1,0.8,1.9,1.8,1.9c1,0,1.9-0.8,1.9-1.9c0,0,0,0,0,0
	C55.1,290.6,54.2,289.8,53.2,289.8L53.2,289.8z"/>
<path class="st0" d="M39.2,217.2L39.2,217.2c-1,0-1.8,0.8-1.9,1.8l0,0c0,1,0.8,1.9,1.8,1.9c0,0,0,0,0,0l0,0c1,0,1.9-0.8,1.9-1.8
	c0,0,0,0,0,0l0,0C41.1,218,40.2,217.2,39.2,217.2z"/>
<path class="st0" d="M45.7,211.4c-0.8,0.4-1.6,0.9-2.4,1.3c0.2,0.1,0.4,0.1,0.6,0.1C44.8,212.8,45.5,212.2,45.7,211.4z"/>
<path class="st0" d="M39.2,233.3L39.2,233.3c-1,0-1.8,0.8-1.8,1.9l0,0l0,0c0,1,0.8,1.8,1.8,1.8l0,0c1,0,1.8-0.8,1.8-1.9l0,0l0,0
	C41.1,234.1,40.3,233.3,39.2,233.3z"/>
<path class="st0" d="M43.9,225.3c-1,0-1.9,0.8-1.9,1.9c0,1,0.8,1.8,1.8,1.8s1.8-0.8,1.9-1.8S44.9,225.3,43.9,225.3L43.9,225.3z"/>
<path class="st0" d="M39.2,249.5L39.2,249.5c-1,0-1.8,0.8-1.8,1.9l0,0l0,0c0,1,0.8,1.9,1.8,1.9c0,0,0,0,0,0l0,0c1,0,1.9-0.8,1.9-1.8
	c0,0,0,0,0,0l0,0C41.1,250.3,40.3,249.5,39.2,249.5L39.2,249.5z"/>
<path class="st0" d="M43.9,241.4c-1,0-1.9,0.8-1.9,1.9c0,1,0.8,1.8,1.8,1.8s1.8-0.8,1.9-1.8S44.9,241.4,43.9,241.4L43.9,241.4z"/>
<path class="st0" d="M39.2,265.6L39.2,265.6c-1,0-1.8,0.8-1.8,1.9l0,0l0,0c0,1,0.8,1.9,1.8,1.9h0l0,0c1,0,1.8-0.8,1.8-1.9l0,0l0,0
	C41.1,266.4,40.3,265.6,39.2,265.6L39.2,265.6z"/>
<path class="st0" d="M43.9,257.5c-1,0-1.9,0.8-1.9,1.9s0.8,1.9,1.8,1.9s1.8-0.8,1.9-1.9S44.9,257.5,43.9,257.5L43.9,257.5z"/>
<path class="st0" d="M39.2,281.7L39.2,281.7c-1,0-1.9,0.8-1.9,1.8c0,0,0,0,0,0l0,0c0,1,0.8,1.9,1.8,1.9h0l0,0c1,0,1.8-0.8,1.8-1.9
	l0,0l0,0C41.1,282.6,40.3,281.7,39.2,281.7C39.2,281.7,39.2,281.7,39.2,281.7z"/>
<path class="st0" d="M43.9,273.7c-1,0-1.9,0.8-1.9,1.9s0.8,1.9,1.8,1.9s1.8-0.8,1.9-1.9S44.9,273.7,43.9,273.7L43.9,273.7z"/>
<path class="st0" d="M39.2,297.9L39.2,297.9c-1,0-1.8,0.8-1.8,1.9l0,0l0,0c0,0.2,0,0.5,0.1,0.7l1.7,0.6l1,0.3
	c0.5-0.3,0.9-0.9,0.9-1.6l0,0C41.1,298.7,40.3,297.9,39.2,297.9C39.3,297.9,39.3,297.9,39.2,297.9z"/>
<path class="st0" d="M43.9,289.8c-1,0-1.9,0.8-1.9,1.9c0,1,0.8,1.9,1.8,1.9c1,0,1.9-0.8,1.9-1.9c0,0,0,0,0,0
	C45.8,290.6,44.9,289.8,43.9,289.8L43.9,289.8z"/>
<path class="st0" d="M29.9,233.3L29.9,233.3c-1,0-1.9,0.8-1.9,1.8c0,0,0,0,0,0l0,0c0,1,0.8,1.8,1.9,1.8l0,0c1,0,1.9-0.8,1.9-1.9l0,0
	l0,0C31.8,234.1,30.9,233.3,29.9,233.3z"/>
<path class="st0" d="M34.6,225.3c-1,0-1.8,0.8-1.8,1.9s0.8,1.8,1.9,1.8c1,0,1.8-0.8,1.8-1.8C36.4,226.1,35.6,225.3,34.6,225.3
	C34.6,225.3,34.6,225.3,34.6,225.3z"/>
<path class="st0" d="M29.9,249.5L29.9,249.5c-1,0-1.9,0.8-1.9,1.8c0,0,0,0,0,0l0,0c0,1,0.8,1.9,1.9,1.9c0,0,0,0,0,0l0,0
	c1,0,1.9-0.8,1.9-1.8c0,0,0,0,0,0l0,0C31.8,250.3,31,249.5,29.9,249.5C29.9,249.5,29.9,249.5,29.9,249.5z"/>
<path class="st0" d="M34.6,241.4c-1,0-1.8,0.8-1.8,1.9s0.8,1.8,1.9,1.8c1,0,1.8-0.8,1.8-1.8C36.4,242.2,35.6,241.4,34.6,241.4
	C34.6,241.4,34.6,241.4,34.6,241.4z"/>
<path class="st0" d="M29.9,265.6L29.9,265.6c-1,0-1.9,0.8-1.9,1.8c0,0,0,0,0,0l0,0c0,1,0.8,1.9,1.8,1.9c0,0,0,0,0,0l0,0
	c1,0,1.9-0.8,1.9-1.9l0,0l0,0C31.8,266.4,31,265.6,29.9,265.6C29.9,265.6,29.9,265.6,29.9,265.6z"/>
<path class="st0" d="M34.6,257.5c-1,0-1.8,0.8-1.8,1.9c0,1,0.8,1.8,1.9,1.8c1,0,1.8-0.8,1.8-1.8C36.4,258.4,35.6,257.5,34.6,257.5
	C34.6,257.5,34.6,257.5,34.6,257.5z"/>
<path class="st0" d="M29.9,281.7L29.9,281.7c-1,0-1.9,0.8-1.9,1.9l0,0c0,1,0.8,1.9,1.8,1.9c0,0,0,0,0,0l0,0c1,0,1.9-0.8,1.9-1.9l0,0
	l0,0C31.8,282.6,31,281.7,29.9,281.7C29.9,281.7,29.9,281.7,29.9,281.7z"/>
<path class="st0" d="M34.6,273.7c-1,0-1.8,0.8-1.8,1.9c0,1,0.8,1.8,1.9,1.8c1,0,1.8-0.8,1.8-1.8C36.4,274.5,35.6,273.7,34.6,273.7
	C34.6,273.7,34.6,273.7,34.6,273.7z"/>
<path class="st0" d="M34.6,289.8c-1,0-1.9,0.8-1.9,1.9s0.8,1.9,1.9,1.9c1,0,1.9-0.8,1.9-1.9c0,0,0,0,0,0
	C36.4,290.6,35.6,289.8,34.6,289.8C34.6,289.8,34.6,289.8,34.6,289.8z"/>
<path class="st0" d="M20.6,233.3L20.6,233.3c-1,0-1.9,0.8-1.9,1.9l0,0l0,0c0,1,0.8,1.8,1.9,1.8l0,0c1,0,1.9-0.8,1.9-1.9l0,0l0,0
	C22.4,234.1,21.6,233.3,20.6,233.3z"/>
<path class="st0" d="M26.6,228.4H24C24.7,229.1,25.9,229.1,26.6,228.4L26.6,228.4z"/>
<path class="st0" d="M20.6,249.5L20.6,249.5c-1,0-1.9,0.8-1.9,1.9l0,0l0,0c0,1,0.8,1.9,1.8,1.9c0,0,0,0,0,0l0,0c1,0,1.9-0.8,1.9-1.8
	c0,0,0,0,0,0l0,0C22.5,250.3,21.6,249.5,20.6,249.5C20.6,249.5,20.6,249.5,20.6,249.5z"/>
<path class="st0" d="M25.3,241.4c-1,0-1.9,0.8-1.9,1.9c0,1,0.8,1.8,1.9,1.8c1,0,1.8-0.8,1.9-1.8S26.3,241.4,25.3,241.4
	C25.3,241.4,25.3,241.4,25.3,241.4z"/>
<path class="st0" d="M20.6,265.6L20.6,265.6c-1,0-1.9,0.8-1.9,1.9l0,0l0,0c0,1,0.8,1.9,1.8,1.9c0,0,0,0,0,0l0,0c1,0,1.9-0.8,1.9-1.9
	l0,0l0,0C22.5,266.4,21.6,265.6,20.6,265.6C20.6,265.6,20.6,265.6,20.6,265.6z"/>
<path class="st0" d="M25.3,257.5c-1,0-1.9,0.8-1.9,1.9s0.8,1.9,1.9,1.9c1,0,1.8-0.8,1.9-1.9S26.3,257.5,25.3,257.5
	C25.3,257.5,25.3,257.5,25.3,257.5z"/>
<path class="st0" d="M20.6,281.7L20.6,281.7c-1,0-1.9,0.8-1.9,1.8c0,0,0,0,0,0l0,0c0,1,0.8,1.9,1.8,1.9c0,0,0,0,0,0l0,0
	c1,0,1.9-0.8,1.9-1.9l0,0l0,0C22.5,282.6,21.6,281.7,20.6,281.7C20.6,281.7,20.6,281.7,20.6,281.7z"/>
<path class="st0" d="M25.3,273.7c-1,0-1.9,0.8-1.9,1.9s0.8,1.9,1.9,1.9c1,0,1.8-0.8,1.9-1.9S26.3,273.7,25.3,273.7
	C25.3,273.7,25.3,273.7,25.3,273.7z"/>
<path class="st0" d="M25.3,289.8c-1,0-1.9,0.8-1.9,1.9c0,1,0.8,1.9,1.9,1.9c1,0,1.9-0.8,1.9-1.9c0,0,0,0,0,0
	C27.1,290.6,26.3,289.8,25.3,289.8C25.3,289.8,25.3,289.8,25.3,289.8z"/>
<path class="st0" d="M11.3,233.3L11.3,233.3c-1,0-1.9,0.8-1.9,1.9l0,0l0,0c0,1,0.8,1.8,1.8,1.8l0,0c1,0,1.9-0.8,1.9-1.9l0,0l0,0
	C13.1,234.1,12.3,233.3,11.3,233.3z"/>
<path class="st0" d="M17.2,228.4h-2.6C15.4,229.1,16.5,229.1,17.2,228.4z"/>
<path class="st0" d="M11.3,249.5L11.3,249.5c-1,0-1.9,0.8-1.9,1.9l0,0l0,0c0,1,0.8,1.9,1.8,1.9c0,0,0,0,0,0l0,0c1,0,1.9-0.8,1.9-1.8
	c0,0,0,0,0,0l0,0C13.2,250.3,12.3,249.5,11.3,249.5C11.3,249.5,11.3,249.5,11.3,249.5z"/>
<circle class="st0" cx="15.9" cy="243.2" r="1.9"/>
<path class="st0" d="M11.3,265.6L11.3,265.6c-1,0-1.9,0.8-1.9,1.9l0,0l0,0c0,1,0.8,1.9,1.8,1.9c0,0,0,0,0,0l0,0c1,0,1.9-0.8,1.9-1.9
	l0,0l0,0C13.2,266.4,12.3,265.6,11.3,265.6C11.3,265.6,11.3,265.6,11.3,265.6z"/>
<path class="st0" d="M16,257.5c-1,0-1.8,0.8-1.8,1.9s0.8,1.9,1.8,1.9c1,0,1.8-0.8,1.9-1.9S17,257.5,16,257.5
	C16,257.5,16,257.5,16,257.5z"/>
<path class="st0" d="M16,273.7c-1,0-1.8,0.8-1.8,1.9s0.8,1.9,1.8,1.9c1,0,1.8-0.8,1.9-1.9S17,273.7,16,273.7
	C16,273.7,16,273.7,16,273.7z"/>
<path class="st1" d="M248.6,209.1c-2.3-4.9-6.9-9.3-13.4-13l0,0c-8.2-4.7-19.4-8.4-32.6-10.9c-4.5-7.9-11-14.4-18.9-18.8
	c-7-3.9-14.6-6.5-22.5-7.7c-19.4-3-40.2,1.4-58.6,11c-24.3-3-46.2-0.8-60.3,7.4l0,0c-14.1,8.2-17.9,20.9-12.6,34.9
	c-16.5,10.7-24.1,22.8-18.8,34c2.3,4.9,6.9,9.3,13.3,13c8.2,4.7,19.4,8.4,32.6,10.9c4.5,7.9,11,14.4,18.9,18.9
	c7,3.9,14.6,6.5,22.5,7.7c19.4,3,40.2-1.4,58.6-11c24.3,3,46.2,0.8,60.3-7.4l0,0c14.1-8.2,17.9-20.9,12.6-35
	C246.3,232.4,253.8,220.3,248.6,209.1z"/>
<path class="st0" d="M250.2,172.6L250.2,172.6c-0.6,0-1,0.4-1,1l0,0c0,6.5-4.3,13.5-12.4,20.3c-0.2,0-0.4,0.1-0.6,0.2
	c-2.3,1.9-4.8,3.7-7.3,5.3c-0.3,0.2-0.5,0.5-0.5,0.8l-0.1,43.2c0,0.4,0.2,0.7,0.5,0.9c0.1,0.1,0.2,0.1,0.3,0.1
	c0.1,0.1,0.3,0.1,0.5,0.1c0.2,0,0.4-0.1,0.6-0.2c13.7-8.8,20.9-18.4,20.9-27.6l0.1-43.2C251.2,173,250.7,172.6,250.2,172.6
	L250.2,172.6z"/>
<path class="st1" d="M229.7,199.7c-10.6,6.8-24.8,13.1-41.8,18.1c-8.8,9.9-19.4,18.1-31.1,24.3c24.3,3,46.2,0.8,60.3-7.4l0,0
	C231.2,226.5,235,213.8,229.7,199.7z"/>
<path class="st0" d="M176.6,244.4c-6.7,0-13.3-0.5-19.9-1.3l-3.2-0.4l2.8-1.5c11.7-6.1,22.1-14.2,30.9-24l0.2-0.2l0.3-0.1
	c16.6-4.9,30.9-11.2,41.5-18l1-0.7l0.4,1.2c5.7,15.1,1,28-13.1,36.2C207.5,241.4,193.4,244.4,176.6,244.4z M160,241.5
	c23.7,2.5,43.7-0.2,56.5-7.7s17.2-19,12.6-32.6c-10.6,6.6-24.6,12.7-40.7,17.5C180.3,227.8,170.7,235.5,160,241.5z"/>
<path class="st1" d="M29.7,168.7c10.6-6.8,24.8-13.1,41.8-18.1c8.8-9.9,19.4-18.1,31.2-24.3c-24.3-3-46.2-0.8-60.3,7.4l0,0
	C28.2,142,24.4,154.7,29.7,168.7z"/>
<path class="st0" d="M29.2,170.2l-0.4-1.2c-5.6-15.1-1-28,13.1-36.1c13.8-8,35.4-10.7,60.9-7.6l3.2,0.4l-2.8,1.5
	c-11.7,6.1-22.1,14.2-30.9,24l-0.2,0.2l-0.3,0.1c-16.6,4.9-30.9,11.2-41.5,18L29.2,170.2z M82.8,126.1c-16.4,0-30.2,2.9-40,8.6
	c-12.8,7.4-17.2,19-12.6,32.5c10.6-6.6,24.6-12.6,40.7-17.5c8.2-9.1,17.8-16.8,28.4-22.7C93.8,126.4,88.3,126.1,82.8,126.1z"/>
<path class="st1" d="M208.9,171.9c10.4,9.3,17.4,18.8,20.8,27.8c16.5-10.7,24.1-22.8,18.8-34c-2.3-4.9-6.9-9.3-13.4-13l0,0
	c-8.2-4.7-19.4-8.4-32.6-10.9C207.7,151,209.9,161.5,208.9,171.9z"/>
<path class="st0" d="M229.2,201.2l-0.4-1.2c-3.3-8.9-10.4-18.4-20.5-27.4l-0.4-0.3v-0.5c0.9-10.2-1.2-20.5-6.2-29.5l-1.1-1.9
	l2.1,0.4c13.6,2.6,24.7,6.2,32.9,11c6.8,3.9,11.4,8.4,13.8,13.5c5.3,11.3-1.5,23.8-19.2,35.2L229.2,201.2z M210,171.5
	c9.7,8.8,16.7,18,20.2,26.7c16-10.6,22.1-21.9,17.4-32c-2.2-4.6-6.5-8.9-12.9-12.6c-7.6-4.4-17.8-7.9-30.2-10.4
	C208.9,152,210.8,161.8,210,171.5z"/>
<path class="st1" d="M50.5,196.5c-10.4-9.3-17.5-18.8-20.8-27.8c-16.5,10.7-24.1,22.8-18.8,34c2.3,4.9,6.9,9.3,13.3,13
	c8.2,4.7,19.4,8.4,32.6,10.9C51.7,217.4,49.5,207,50.5,196.5z"/>
<path class="st0" d="M58.7,228l-2.1-0.4c-13.6-2.6-24.7-6.3-32.9-11c-6.8-3.9-11.4-8.4-13.7-13.4c-5.3-11.3,1.5-23.8,19.2-35.2
	l1-0.7l0.4,1.2c3.3,8.9,10.4,18.4,20.5,27.4l0.4,0.3v0.5c-0.9,10.2,1.2,20.5,6.2,29.5L58.7,228z M29.2,170.2
	c-16,10.6-22.2,22-17.5,32.1c2.2,4.6,6.5,8.9,12.9,12.6c7.6,4.4,17.8,7.9,30.2,10.4c-4.4-8.7-6.3-18.5-5.5-28.3
	C39.7,188.2,32.8,179,29.2,170.2z"/>
<path class="st1" d="M187.9,217.9c17-5.1,31.2-11.3,41.8-18.1c-3.4-9-10.4-18.5-20.8-27.8c-0.7,8.2-2.9,16.2-6.4,23.6
	C198.8,203.6,193.9,211.2,187.9,217.9z"/>
<path class="st0" d="M184.9,219.8l2.3-2.6c5.9-6.6,10.8-14,14.5-22.1c3.4-7.3,5.6-15.2,6.3-23.3l0.2-2l1.5,1.3
	c10.3,9.2,17.6,19,21.1,28.2l0.3,0.8l-0.7,0.4c-10.8,6.9-25.3,13.2-42,18.2L184.9,219.8z M209.7,174c-0.9,7.6-3,15-6.2,21.9
	c-3.3,7.2-7.5,13.9-12.6,19.9c14.9-4.7,27.8-10.4,37.6-16.6C225.2,191.1,218.8,182.4,209.7,174z"/>
<path class="st1" d="M50.5,196.5c0.7-8.2,2.9-16.2,6.3-23.6c3.8-8.1,8.7-15.6,14.7-22.3c-16.9,5.1-31.2,11.3-41.8,18.1
	C33,177.7,40.1,187.2,50.5,196.5z"/>
<path class="st0" d="M51.3,198.6l-1.5-1.4c-10.3-9.2-17.6-19-21-28.2l-0.3-0.8l0.7-0.4c10.8-6.9,25.3-13.2,42-18.2l3.3-1l-2.3,2.6
	c-5.9,6.6-10.8,14.1-14.5,22.1c-3.4,7.3-5.5,15.2-6.2,23.3L51.3,198.6z M30.9,169.1c3.3,8.2,9.7,17,18.8,25.3c0.9-7.6,3-15,6.2-21.9
	c3.3-7.2,7.5-13.9,12.6-19.9C53.6,157.2,40.7,162.9,30.9,169.1z"/>
<path class="st1" d="M102.6,126.3c16.4,2.1,32.6,6.1,48.1,11.9c19.1-0.5,36.8,0.7,51.9,3.6c-4.5-7.9-11-14.4-18.9-18.8l0,0
	c-7-3.9-14.6-6.5-22.5-7.7C141.8,112.3,121,116.7,102.6,126.3z"/>
<path class="st0" d="M204.5,143.2l-2.1-0.4c-15.2-2.8-33-4.1-51.7-3.5h-0.2l-0.2-0.1c-15.4-5.8-31.5-9.8-47.9-11.9l-3.2-0.4l2.8-1.5
	c19.3-10.1,40.3-14,59.2-11.1c8,1.2,15.8,3.8,22.9,7.8c8,4.5,14.7,11.2,19.3,19.2L204.5,143.2z M159.1,137.2
	c13.9-0.1,27.8,1,41.5,3.3c-4.4-6.9-10.3-12.6-17.4-16.6c-6.9-3.9-14.4-6.4-22.2-7.6c-17.5-2.7-37,0.6-55.1,9.5
	c15.3,2.2,30.4,6.1,44.9,11.5C153.6,137.2,156.4,137.2,159.1,137.2L159.1,137.2z"/>
<path class="st1" d="M56.8,226.6c4.5,7.9,11,14.4,18.9,18.9c7,3.9,14.6,6.5,22.5,7.7c19.4,3,40.2-1.4,58.6-11
	c-16.4-2.1-32.6-6.2-48.1-12C89.7,230.7,71.9,229.4,56.8,226.6z"/>
<path class="st0" d="M110.5,255.1c-4.2,0-8.4-0.3-12.5-0.9c-8-1.2-15.8-3.8-22.8-7.8c-8-4.6-14.7-11.2-19.3-19.2l-1.1-1.9l2.1,0.4
	c15.2,2.9,33,4.1,51.7,3.6h0.2l0.2,0.1c15.4,5.8,31.5,9.8,47.8,11.9l3.2,0.4l-2.8,1.5C142.1,250.9,125.9,255.1,110.5,255.1z
	 M58.8,228c4.4,6.9,10.4,12.6,17.5,16.6c6.8,3.9,14.4,6.4,22.1,7.6c17.5,2.7,37-0.6,55.1-9.5c-15.3-2.2-30.4-6.1-44.9-11.5
	C91.9,231.8,75.2,230.7,58.8,228z"/>
<path class="st1" d="M150.7,138.3c-15.5-5.8-31.7-9.8-48.1-11.9c-11.8,6.1-22.3,14.3-31.2,24.3c12.6-3.7,25.5-6.6,38.5-8.6
	C123.4,139.9,137,138.7,150.7,138.3z"/>
<path class="st0" d="M68.4,152.6l2.3-2.6c8.9-10,19.6-18.3,31.4-24.5l0.3-0.1h0.3c16.5,2.1,32.7,6.2,48.3,12l4.8,1.8l-5.1,0.1
	c-13.6,0.4-27.2,1.7-40.6,3.8c-13,2-25.8,4.8-38.4,8.5L68.4,152.6z M102.8,127.4c-10.5,5.5-20,12.7-28.2,21.3
	c11.6-3.2,23.3-5.8,35.2-7.6c11.8-1.8,23.7-3,35.7-3.6C131.6,132.7,117.3,129.3,102.8,127.4z"/>
<path class="st1" d="M187.9,217.9c-12.6,3.7-25.5,6.6-38.5,8.6c-13.5,2.1-27.1,3.4-40.7,3.8c15.5,5.8,31.6,9.9,48.1,12
	C168.5,236,179.1,227.8,187.9,217.9z"/>
<path class="st0" d="M157,243.1h-0.3c-16.5-2.1-32.7-6.2-48.3-12l-4.8-1.8l5.1-0.1c13.6-0.4,27.2-1.6,40.6-3.7
	c13-2,25.8-4.8,38.4-8.5l3.4-1l-2.3,2.6c-8.9,10-19.6,18.3-31.5,24.5L157,243.1z M114,231c13.8,4.8,28.1,8.2,42.7,10.1
	c10.5-5.5,20-12.7,28.2-21.3c-11.6,3.2-23.3,5.8-35.2,7.6C137.8,229.2,125.9,230.4,114,231L114,231z"/>
<path class="st1" d="M108.7,230.2c-11.1-4.1-21.9-9.2-32.2-15.1c-9.3-5.3-18.1-11.5-26.1-18.6c-1,10.4,1.2,20.9,6.3,30.1
	C71.9,229.4,89.7,230.7,108.7,230.2z"/>
<path class="st0" d="M100.3,231.3c-14.6,0.1-29.3-1.1-43.7-3.7l-0.5-0.1l-0.2-0.4c-5.2-9.3-7.4-20-6.5-30.6l0.2-2l1.5,1.4
	c8,7,16.7,13.2,25.9,18.4c10.2,5.9,20.9,10.9,32,15l4.8,1.8l-5.1,0.1C105.9,231.2,103.1,231.3,100.3,231.3z M57.4,225.7
	c15.2,2.6,30.7,3.8,46.2,3.6c-9.5-3.8-18.7-8.2-27.5-13.3c-8.8-5-17-10.8-24.7-17.3C50.8,208.1,52.9,217.4,57.4,225.7z"/>
<path class="st1" d="M208.9,171.9c1-10.4-1.2-20.9-6.3-30.1c-15.1-2.8-32.9-4.1-51.9-3.6c11.1,4.1,21.9,9.2,32.1,15.1
	C192.1,158.6,200.9,164.8,208.9,171.9z"/>
<path class="st0" d="M209.8,174l-1.5-1.4c-8-7-16.7-13.2-25.9-18.4c-10.2-5.9-20.9-10.9-32-15l-4.8-1.8l5.1-0.1
	c18.8-0.5,36.8,0.7,52.1,3.6l0.5,0.1l0.2,0.4c5.2,9.3,7.4,20,6.5,30.7L209.8,174z M155.8,139.2c9.5,3.8,18.7,8.2,27.5,13.3
	c8.8,5,17,10.8,24.7,17.3c0.5-9.4-1.6-18.8-6-27.1C186.7,140.1,171.3,138.9,155.8,139.2L155.8,139.2z"/>
<path class="st1" d="M50.5,196.5c8,7.1,16.8,13.3,26.1,18.6c10.3,5.9,21,10.9,32.2,15.1c13.6-0.4,27.2-1.6,40.7-3.8
	c13-2,25.9-4.8,38.5-8.6c6-6.7,10.9-14.2,14.6-22.3c3.5-7.4,5.6-15.4,6.4-23.6c-8-7.1-16.8-13.3-26.1-18.6
	c-10.3-5.9-21-10.9-32.1-15.1c-13.7,0.4-27.3,1.6-40.8,3.7c-13,2-25.9,4.8-38.5,8.6c-5.9,6.7-10.9,14.2-14.7,22.3
	C53.3,180.3,51.2,188.3,50.5,196.5z"/>
<path class="st0" d="M108.6,231.2l-0.2-0.1c-11.2-4.1-22-9.2-32.3-15.1c-9.4-5.3-18.2-11.6-26.3-18.7l-0.4-0.3v-0.5
	c0.7-8.3,2.9-16.4,6.4-23.9c3.8-8.2,8.8-15.8,14.8-22.6l0.2-0.2l0.3-0.1c12.7-3.7,25.6-6.6,38.6-8.6c13.5-2.1,27.2-3.4,40.9-3.8h0.2
	l0.2,0.1c11.2,4.1,22,9.2,32.3,15.1c9.4,5.3,18.2,11.6,26.3,18.7l0.4,0.3v0.5c-0.7,8.3-2.9,16.4-6.4,23.9
	c-3.8,8.2-8.8,15.8-14.8,22.6l-0.2,0.2l-0.3,0.1c-12.7,3.7-25.6,6.6-38.6,8.6c-13.5,2.1-27.2,3.4-40.8,3.8L108.6,231.2z M51.5,196.2
	c7.9,6.9,16.5,13,25.6,18.1c10.2,5.8,20.8,10.8,31.8,14.9c13.5-0.4,27-1.6,40.4-3.7c12.9-2,25.6-4.8,38.1-8.5
	c5.8-6.6,10.6-13.9,14.3-21.9c3.4-7.2,5.5-14.9,6.2-22.8c-7.9-6.9-16.5-12.9-25.6-18.1c-10.2-5.8-20.8-10.8-31.8-14.9
	c-13.5,0.4-27,1.6-40.4,3.7c-12.9,2-25.6,4.8-38.1,8.5c-5.8,6.6-10.6,13.9-14.3,21.9C54.3,180.5,52.2,188.2,51.5,196.2L51.5,196.2z"
	/>
<g>
	<path class="st0" d="M144.1,175c-7.6-4.4-19.9-4.4-27.4,0s-7.5,11.5,0.1,15.9s19.9,4.4,27.4,0S151.7,179.4,144.1,175"/>
</g>
<g>
	<g>
		<defs>
			<polygon id="SVGID_1_" points="103,33.8 130.4,17.9 157.9,33.8 130.6,49.7 			"/>
		</defs>
		<clipPath id="SVGID_2_">
			<use xlink:href="#SVGID_1_"  style="overflow:visible;"/>
		</clipPath>
		<g class="st2">
			<path class="st0" d="M144.1,25.9c-7.6-4.4-19.9-4.4-27.4,0s-7.5,11.5,0.1,15.9s19.9,4.4,27.4,0S151.7,30.3,144.1,25.9"/>
		</g>
	</g>
</g>
<path class="st0" d="M130.6,108.1c-9.8,0-19.7-2.2-27.2-6.5S91.8,91.5,91.8,85.3s4.1-12,11.4-16.2c14.9-8.7,39.3-8.7,54.3,0
	c7.5,4.3,11.6,10.1,11.6,16.3s-4.1,12-11.4,16.2S140.4,108.1,130.6,108.1z M130.3,64.5c-9.5,0-18.9,2.1-26.1,6.3
	c-6.8,3.9-10.5,9.1-10.4,14.5s3.8,10.7,10.6,14.6c14.5,8.3,37.9,8.3,52.3,0c6.8-3.9,10.5-9.1,10.5-14.5s-3.8-10.7-10.6-14.6
	C149.3,66.6,139.8,64.5,130.3,64.5z"/>
<path class="st0" d="M38.8,141.4c-9.8,0-19.7-2.2-27.2-6.5S0,124.7,0,118.5s4.1-12,11.4-16.2c14.9-8.7,39.3-8.7,54.3,0l0,0
	c7.5,4.3,11.6,10.1,11.6,16.3s-4.1,11.9-11.4,16.2S48.6,141.4,38.8,141.4z M38.6,97.7c-9.5,0-18.9,2.1-26.1,6.3
	C5.7,107.9,2,113.1,2,118.5s3.8,10.7,10.6,14.6c14.5,8.4,37.9,8.4,52.3,0c6.8-3.9,10.5-9.1,10.5-14.5S71.6,108,64.7,104l0,0
	C57.5,99.8,48,97.7,38.6,97.7z"/>
<path class="st0" d="M229.3,98c-4.1-2.1-9-2.1-13.1,0c-3.6,2.1-3.6,5.5,0,7.6c4.1,2.1,9,2.1,13.1,0
	C232.9,103.5,232.9,100.1,229.3,98"/>
<path class="st0" d="M59.7,75.6c-4.1-2.1-9-2.1-13.1,0c-3.6,2.1-3.6,5.5,0,7.6c4.1,2.1,9,2.1,13.1,0C63.3,81.1,63.3,77.7,59.7,75.6"
	/>
<path class="st0" d="M172.5,97.7c-3.5,0.1-7-0.8-10.1-2.4c-2.9-1.7-4.5-4-4.5-6.4s1.6-4.8,4.4-6.4c5.6-3.2,14.6-3.2,20.2,0l0,0
	c2.9,1.7,4.5,4,4.5,6.5s-1.6,4.7-4.4,6.4C179.5,97,176.1,97.8,172.5,97.7z M172.4,82c-3.2-0.1-6.3,0.7-9.1,2.2
	c-2.2,1.3-3.5,3-3.5,4.7s1.2,3.4,3.5,4.7c5,2.9,13.2,2.9,18.2,0c2.2-1.3,3.5-3,3.4-4.7s-1.2-3.4-3.5-4.7
	C178.8,82.7,175.6,81.9,172.4,82z"/>
<path class="st0" d="M71.5,54.2c-3,0.1-6-0.7-8.7-2.1c-2.5-1.5-3.9-3.5-3.9-5.6s1.4-4.2,3.9-5.6c4.8-2.8,12.6-2.8,17.4,0l0,0
	c2.5,1.5,3.9,3.5,3.9,5.6s-1.4,4.1-3.9,5.6C77.5,53.5,74.5,54.3,71.5,54.2z M71.4,40.8c-2.7-0.1-5.3,0.6-7.7,1.8
	c-1.8,1.1-2.9,2.5-2.9,3.9s1,2.8,2.9,3.9c4.8,2.5,10.5,2.5,15.4,0c1.8-1.1,2.8-2.5,2.8-3.9s-1-2.8-2.9-3.9
	C76.7,41.4,74.1,40.7,71.4,40.8z"/>
<path class="st0" d="M188,15.4c-3,0.1-6-0.7-8.7-2.1c-2.5-1.5-3.9-3.5-3.9-5.6s1.4-4.2,3.9-5.6c4.8-2.8,12.6-2.8,17.4,0
	c2.5,1.5,3.9,3.5,3.9,5.6s-1.4,4.1-3.9,5.6C194,14.7,191,15.5,188,15.4z M187.9,2c-2.7-0.1-5.3,0.6-7.7,1.8
	c-1.9,1.1-2.9,2.4-2.9,3.9s1,2.8,2.9,3.9c4.8,2.5,10.6,2.5,15.4,0c1.9-1.1,2.9-2.4,2.9-3.9s-1-2.8-2.9-3.9l0,0
	C193.2,2.6,190.6,1.9,187.9,2z"/>
<path class="st1" d="M11.2,246.4c-1.1-2.3-1.6-4.7-1.6-7.2L9.7,196c0,2.5,0.6,5,1.6,7.2c2.2,4.8,6.8,9.2,13.3,12.9l-0.1,43.2
	l0.1-43.2c7.9,4.6,18.7,8.2,32.1,10.8l-0.1,43.2c-13.4-2.6-24.2-6.3-32.2-10.8C18,255.6,13.4,251.2,11.2,246.4z"/>
<path class="st1" d="M56.6,270.2l0.1-43.2L57,227l-0.1,43.1L57,227h0.1L57,270.3L56.6,270.2z"/>
<path class="st0" d="M57,226.1c-13.4-2.5-24.2-6.1-32.2-10.8c-6.4-3.7-10.8-7.9-13-12.6c-1-2.1-1.5-4.5-1.5-6.8l0,0c0-0.6-0.4-1-1-1
	l0,0c-0.6,0-1,0.4-1,1l0,0l-0.1,43.2c0,2.7,0.6,5.3,1.7,7.7c2.4,5,7,9.5,13.8,13.5c8.2,4.7,19.2,8.4,32.8,11h0.2
	c0.2,0,0.5-0.1,0.6-0.2c0.2-0.2,0.4-0.5,0.4-0.8l0.1-43.2C57.9,226.7,57.5,226.2,57,226.1z"/>
<path class="st1" d="M75.9,289c-7.9-4.4-14.4-10.9-18.9-18.8l0.2-43.3c4.5,7.8,11,14.3,18.8,18.8L75.9,289l0.1-43.2
	c6.9,3.9,14.5,6.5,22.4,7.6c0,14.4-0.1,28.8-0.1,43.2c0.1-14.4,0.1-28.8,0.1-43.2c18.5,2.9,39.1-1,58.2-10.9l-0.1,43.1l0.1-43.1
	l0.1-0.1l-0.1,43.1l0.1-43.1h0.1l-0.1,43.2c-19.2,10-39.9,13.9-58.5,11C90.4,295.6,82.8,293,75.9,289z"/>
<path class="st0" d="M156.8,242.6l-0.1,43.3c-19.1,10-39.9,13.9-58.6,11c-7.9-1.2-15.6-3.8-22.5-7.7c-7.9-4.5-14.4-11-18.9-18.8
	l0.1-43.2c4.5,7.9,11,14.4,18.9,18.8c7,3.9,14.6,6.6,22.5,7.7C116.9,256.5,137.7,252.6,156.8,242.6z"/>
<path class="st0" d="M110.4,298.8c-4.2,0-8.3-0.3-12.4-0.9c-8-1.2-15.8-3.8-22.9-7.8c-8-4.5-14.7-11.2-19.3-19.2
	c-0.1-0.2-0.1-0.3-0.1-0.5l0.1-43.2c0-0.6,0.5-1,1-1c0.4,0,0.7,0.2,0.9,0.5c4.4,7.7,10.8,14.1,18.5,18.4c6.9,3.9,14.4,6.4,22.2,7.6
	c18.4,2.9,39-1,57.9-10.9c0.5-0.3,1.1-0.1,1.3,0.4c0.1,0.1,0.1,0.3,0.1,0.5l-0.1,43.2c0,0.4-0.2,0.7-0.5,0.9
	C142,294.7,125.8,298.8,110.4,298.8z M57.7,270.1c4.4,7.6,10.7,13.9,18.4,18.2c6.9,3.9,14.4,6.4,22.2,7.6
	c18.2,2.8,38.6-0.9,57.4-10.6l0.1-41c-18.9,9.5-39.3,13.2-57.7,10.4c-8-1.2-15.8-3.8-22.9-7.8c-7-4-12.9-9.5-17.4-16.2L57.7,270.1z"
	/>
<path class="st1" d="M216.8,235c-13.5,7.9-34.8,10.5-60,7.4l-0.1,43.3l0,0v0.2c25.2,3.1,46.6,0.5,60.2-7.5
	c9.8-5.7,14.9-13.7,14.9-23.2l0.1-43.2c0,1.4,0.2-1.3,0,0l0,0C232,221.4,226.6,229.3,216.8,235"/>
<path class="st0" d="M176.4,288.1c-6.6,0-13.2-0.4-19.8-1.3c-0.5-0.1-0.9-0.5-0.9-1v-0.2l0.1-43.2c0-0.3,0.1-0.6,0.3-0.8
	c0.2-0.2,0.5-0.3,0.8-0.2c25,3.1,46,0.5,59.4-7.3l1,1.7c-13.5,7.9-34.6,10.6-59.5,7.7l-0.1,41.4c24.6,2.9,45.5,0.3,58.7-7.4
	c9.4-5.5,14.4-13.2,14.4-22.4l0.1-33.5c-2.4,5.6-7,10.4-13.6,14.2l-1-1.7c9.6-5.6,14.6-13.3,14.7-22.2l0,0c0-0.1,0-0.1,0-0.2
	c0.1-0.9,0.5-1.2,1.2-1.2s0.9,0.6,0.9,1.5c0,0.2,0,0.3-0.1,0.5l-0.1,42.7c0,9.9-5.4,18.3-15.4,24.1S193.2,288.1,176.4,288.1z"/>
<path class="st0" d="M207.4,238.6c-0.3-0.2-0.6-0.2-0.9-0.1c-13.1,4.3-30.2,5.4-49.6,3c-0.3,0-0.6,0.1-0.8,0.2
	c-0.2,0.2-0.3,0.5-0.3,0.8l-0.1,43.2v0.2c0,0.5,0.4,0.9,0.9,1c6.5,0.8,13.1,1.2,19.6,1.3c11.7,0,22.2-1.5,30.9-4.4
	c0.4-0.1,0.7-0.5,0.7-0.9v-43.5C207.8,239.1,207.7,238.8,207.4,238.6z"/>
<path class="st0" d="M111.9,253.8c-0.2-0.2-0.4-0.3-0.7-0.3l0,0c-4.3,0.1-8.5-0.2-12.8-0.9c-7.8-1.1-15.3-3.7-22.2-7.6
	c-7.7-4.4-14.1-10.7-18.5-18.4c-0.3-0.5-0.9-0.6-1.4-0.4c-0.3,0.2-0.5,0.5-0.5,0.9l-0.1,43.2c0,0.2,0,0.3,0.1,0.5
	c4.6,8,11.2,14.7,19.3,19.2c7.1,4,14.8,6.7,22.9,7.8c4.1,0.6,8.2,0.9,12.4,0.9h0.8c0.6,0,1-0.4,1-1v-43.3
	C112.2,254.3,112.1,254,111.9,253.8z"/>
<path class="st1" d="M111.2,254.5v43.2c15-0.1,30.7-4.2,45.5-11.9l0.1-43.2C142,250.4,126.2,254.4,111.2,254.5z"/>
<path class="st0" d="M111.2,298.8c-0.3,0-0.5-0.1-0.7-0.3c-0.2-0.2-0.3-0.4-0.3-0.7v-43.2c0-0.6,0.4-1,1-1
	c15-0.1,30.6-4.2,45.2-11.8c0.5-0.3,1.1-0.1,1.3,0.4c0.1,0.1,0.1,0.3,0.1,0.5l-0.1,43.3c0,0.4-0.2,0.7-0.5,0.9
	C143,294.3,127.2,298.5,111.2,298.8L111.2,298.8z M112.2,255.5v41.3c15.2-0.5,30.1-4.4,43.5-11.5l0.1-41
	C142.3,251.2,127.4,255.1,112.2,255.5z"/>
</svg>
