<?xml version="1.0" encoding="utf-8"?>
<!-- Generator: Adobe Illustrator 24.0.1, SVG Export Plug-In . SVG Version: 6.00 Build 0)  -->
<svg version="1.1" id="Layer_1" xmlns="http://www.w3.org/2000/svg" xmlns:xlink="http://www.w3.org/1999/xlink" x="0px" y="0px"
	 viewBox="0 0 229.2 301.1" style="enable-background:new 0 0 229.2 301.1;" xml:space="preserve">
<style type="text/css">
	.st0{fill:#191E1E;}
</style>
<title>topic-serverless</title>
<path class="st0" d="M143.6,259L143.6,259c-0.9,0-1.7,0.8-1.7,1.7l0,0c0,0.9,0.8,1.7,1.7,1.7l0,0c0.9,0,1.7-0.8,1.7-1.7l0,0
	C145.3,259.8,144.5,259,143.6,259z"/>
<path class="st0" d="M143.6,271.9L143.6,271.9c-0.9,0-1.7,0.8-1.7,1.7l0,0c0,0.9,0.8,1.7,1.7,1.7l0,0c0.9,0,1.7-0.8,1.7-1.7l0,0
	C145.3,272.7,144.5,271.9,143.6,271.9z"/>
<circle class="st0" cx="147.3" cy="267.1" r="1.7"/>
<path class="st0" d="M136.1,246.1L136.1,246.1c-0.9,0-1.7,0.8-1.7,1.7l0,0c0,0.9,0.8,1.7,1.7,1.7l0,0c0.9,0,1.7-0.8,1.7-1.7l0,0
	C137.8,246.8,137.1,246.1,136.1,246.1z"/>
<path class="st0" d="M136.1,259L136.1,259c-0.9,0-1.7,0.8-1.7,1.7l0,0c0,0.9,0.8,1.7,1.7,1.7l0,0c0.9,0,1.7-0.8,1.7-1.7l0,0
	C137.8,259.8,137.1,259,136.1,259z"/>
<path class="st0" d="M139.9,252.5c-0.9,0-1.7,0.7-1.7,1.7s0.7,1.7,1.7,1.7s1.7-0.7,1.7-1.7c0,0,0,0,0,0
	C141.5,253.3,140.8,252.5,139.9,252.5z"/>
<path class="st0" d="M136.1,271.9L136.1,271.9c-0.9,0-1.7,0.8-1.7,1.7l0,0c0,0.9,0.8,1.7,1.7,1.7l0,0c0.9,0,1.7-0.8,1.7-1.7l0,0
	C137.8,272.7,137.1,271.9,136.1,271.9z"/>
<circle class="st0" cx="139.9" cy="267.1" r="1.7"/>
<path class="st0" d="M136.1,284.8L136.1,284.8c-0.9,0-1.7,0.8-1.7,1.7l0,0c0,0.9,0.8,1.7,1.7,1.7l0,0c0.9,0,1.7-0.8,1.7-1.7l0,0
	C137.8,285.6,137.1,284.8,136.1,284.8z"/>
<path class="st0" d="M139.9,278.4c-0.9,0-1.7,0.8-1.7,1.7s0.8,1.7,1.7,1.7c0.9,0,1.7-0.8,1.7-1.7l0,0
	C141.5,279.1,140.8,278.4,139.9,278.4z"/>
<path class="st0" d="M128.7,259L128.7,259c-0.9,0-1.7,0.8-1.7,1.7l0,0c0,0.9,0.8,1.7,1.7,1.7l0,0c0.9,0,1.7-0.8,1.7-1.7l0,0
	C130.4,259.8,129.6,259,128.7,259z"/>
<path class="st0" d="M132.4,252.5c-0.9,0-1.7,0.7-1.7,1.7s0.7,1.7,1.7,1.7s1.7-0.7,1.7-1.7c0,0,0,0,0,0
	C134.1,253.3,133.3,252.5,132.4,252.5z"/>
<path class="st0" d="M128.7,271.9L128.7,271.9c-0.9,0-1.7,0.8-1.7,1.7l0,0c0,0.9,0.8,1.7,1.7,1.7l0,0c0.9,0,1.7-0.8,1.7-1.7l0,0
	C130.4,272.7,129.6,271.9,128.7,271.9z"/>
<circle class="st0" cx="132.4" cy="267.1" r="1.7"/>
<path class="st0" d="M128.7,284.8L128.7,284.8c-0.9,0-1.7,0.8-1.7,1.7l0,0c0,0.9,0.8,1.7,1.7,1.7l0,0c0.9,0,1.7-0.8,1.7-1.7l0,0l0,0
	C130.4,285.6,129.6,284.8,128.7,284.8z"/>
<path class="st0" d="M132.4,278.4c-0.9,0-1.7,0.8-1.7,1.7s0.8,1.7,1.7,1.7c0.9,0,1.7-0.8,1.7-1.7l0,0
	C134.1,279.1,133.3,278.4,132.4,278.4z"/>
<path class="st0" d="M121.2,271.9L121.2,271.9c-0.9,0-1.7,0.8-1.7,1.7l0,0c0,0.9,0.8,1.7,1.7,1.7l0,0c0.9,0,1.7-0.8,1.7-1.7l0,0
	C122.9,272.7,122.1,271.9,121.2,271.9z"/>
<circle class="st0" cx="124.9" cy="267.1" r="1.7"/>
<path class="st0" d="M121.2,284.8L121.2,284.8c-0.9,0-1.7,0.8-1.7,1.7l0,0c0,0.9,0.8,1.7,1.7,1.7l0,0c0.9,0,1.7-0.8,1.7-1.7l0,0
	C122.9,285.6,122.1,284.8,121.2,284.8z"/>
<path class="st0" d="M125,278.4c-0.9,0-1.7,0.8-1.7,1.7c0,0.9,0.8,1.7,1.7,1.7s1.7-0.8,1.7-1.7l0,0
	C126.7,279.1,125.9,278.4,125,278.4z"/>
<circle class="st0" cx="124.9" cy="293" r="1.7"/>
<path class="st0" d="M113.8,284.8L113.8,284.8c-0.9,0-1.7,0.8-1.7,1.7l0,0c0,0.9,0.8,1.7,1.7,1.7l0,0c0.9,0,1.7-0.8,1.7-1.7l0,0l0,0
	C115.4,285.6,114.7,284.8,113.8,284.8z"/>
<path class="st0" d="M117.5,278.4c-0.9,0-1.7,0.8-1.7,1.7c0,0.9,0.8,1.7,1.7,1.7s1.7-0.8,1.7-1.7l0,0
	C119.2,279.1,118.4,278.4,117.5,278.4z"/>
<path class="st0" d="M113.8,297.7L113.8,297.7c-0.9,0-1.7,0.8-1.7,1.7l0,0c0,0.9,0.8,1.7,1.7,1.7l0,0c0.9,0,1.7-0.8,1.7-1.7l0,0
	C115.5,298.5,114.7,297.7,113.8,297.7C113.8,297.7,113.8,297.7,113.8,297.7z"/>
<path class="st0" d="M117.5,291.3c-0.9,0-1.7,0.8-1.7,1.7c0,0.9,0.8,1.7,1.7,1.7s1.7-0.8,1.7-1.7l0,0
	C119.2,292,118.4,291.3,117.5,291.3z"/>
<path class="st0" d="M106.3,284.8L106.3,284.8c-0.9,0-1.7,0.8-1.7,1.7l0,0c0,0.9,0.8,1.7,1.7,1.7l0,0c0.9,0,1.7-0.8,1.7-1.7l0,0
	C108,285.6,107.2,284.8,106.3,284.8z"/>
<path class="st0" d="M106.3,297.7L106.3,297.7c-0.9,0-1.7,0.8-1.7,1.7l0,0c0,0.9,0.8,1.7,1.7,1.7l0,0c0.9,0,1.7-0.8,1.7-1.7l0,0
	C108,298.5,107.2,297.7,106.3,297.7z"/>
<circle class="st0" cx="110" cy="293" r="1.7"/>
<path class="st0" d="M98.9,284.8L98.9,284.8c-0.9,0-1.7,0.8-1.7,1.7l0,0c0,0.9,0.8,1.7,1.7,1.7l0,0c0.9,0,1.7-0.8,1.7-1.7l0,0
	C100.5,285.6,99.8,284.8,98.9,284.8z"/>
<path class="st0" d="M102.6,278.4c-0.9,0-1.7,0.8-1.7,1.7c0,0.9,0.8,1.7,1.7,1.7s1.7-0.8,1.7-1.7l0,0
	C104.3,279.1,103.5,278.4,102.6,278.4z"/>
<path class="st0" d="M98.9,297.7L98.9,297.7c-0.9,0-1.7,0.8-1.7,1.7l0,0c0,0.9,0.8,1.7,1.7,1.7l0,0c0.9,0,1.7-0.8,1.7-1.7l0,0
	C100.5,298.5,99.8,297.7,98.9,297.7z"/>
<circle class="st0" cx="102.6" cy="293" r="1.7"/>
<path class="st0" d="M91.4,271.9L91.4,271.9c-0.9,0-1.7,0.8-1.7,1.7l0,0c0,0.9,0.8,1.7,1.7,1.7l0,0c0.9,0,1.7-0.8,1.7-1.7l0,0
	C93.1,272.7,92.3,271.9,91.4,271.9z"/>
<path class="st0" d="M91.4,284.8L91.4,284.8c-0.9,0-1.7,0.8-1.7,1.7l0,0c0,0.9,0.8,1.7,1.7,1.7l0,0c0.9,0,1.7-0.8,1.7-1.7l0,0
	C93.1,285.6,92.3,284.8,91.4,284.8z"/>
<path class="st0" d="M95.1,278.4c-0.9,0-1.7,0.8-1.7,1.7c0,0.9,0.8,1.7,1.7,1.7c0.9,0,1.7-0.8,1.7-1.7c0,0,0,0,0,0
	C96.8,279.1,96,278.4,95.1,278.4z"/>
<path class="st0" d="M91.4,297.7L91.4,297.7c-0.9,0-1.7,0.8-1.7,1.7l0,0c0,0.9,0.8,1.7,1.7,1.7l0,0c0.9,0,1.7-0.8,1.7-1.7l0,0
	C93.1,298.5,92.3,297.7,91.4,297.7z"/>
<circle class="st0" cx="95.1" cy="293" r="1.7"/>
<path class="st0" d="M84,271.9L84,271.9c-0.9,0-1.7,0.8-1.7,1.7l0,0c0,0.9,0.8,1.7,1.7,1.7l0,0c0.9,0,1.7-0.8,1.7-1.7l0,0
	C85.7,272.7,84.9,271.9,84,271.9C84,271.9,84,271.9,84,271.9z"/>
<path class="st0" d="M84,284.8L84,284.8c-0.9,0-1.7,0.8-1.7,1.7l0,0c0,0.9,0.8,1.7,1.7,1.7c0,0,0,0,0,0l0,0c0.9,0,1.7-0.8,1.7-1.7
	l0,0C85.7,285.6,84.9,284.8,84,284.8z"/>
<path class="st0" d="M87.7,278.4c-0.9,0-1.7,0.8-1.7,1.7c0,0.9,0.8,1.7,1.7,1.7c0.9,0,1.7-0.8,1.7-1.7c0,0,0,0,0,0
	C89.3,279.1,88.6,278.4,87.7,278.4z"/>
<path class="st0" d="M84,297.7L84,297.7c-0.9,0-1.7,0.8-1.7,1.7l0,0l0,0c0,0.9,0.8,1.7,1.7,1.7l0,0c0.9,0,1.7-0.8,1.7-1.7l0,0
	C85.7,298.5,84.9,297.7,84,297.7z"/>
<circle class="st0" cx="87.7" cy="293" r="1.7"/>
<path class="st0" d="M76.5,271.9L76.5,271.9c-0.9,0-1.7,0.8-1.7,1.7l0,0c0,0.9,0.8,1.7,1.7,1.7l0,0c0.9,0,1.7-0.8,1.7-1.7l0,0
	C78.2,272.7,77.4,271.9,76.5,271.9z"/>
<circle class="st0" cx="80.2" cy="267.1" r="1.7"/>
<path class="st0" d="M76.5,284.8L76.5,284.8c-0.9,0-1.7,0.8-1.7,1.7l0,0c0,0.9,0.8,1.7,1.7,1.7l0,0c0.9,0,1.7-0.8,1.7-1.7l0,0
	C78.2,285.6,77.4,284.8,76.5,284.8z"/>
<path class="st0" d="M80.2,278.4c-0.9,0-1.7,0.8-1.7,1.7c0,0.9,0.8,1.7,1.7,1.7c0.9,0,1.7-0.8,1.7-1.7c0,0,0,0,0,0
	C81.9,279.1,81.1,278.4,80.2,278.4z"/>
<path class="st0" d="M76.5,297.7L76.5,297.7c-0.9,0-1.7,0.8-1.7,1.7l0,0c0,0.9,0.8,1.7,1.7,1.7l0,0c0.9,0,1.7-0.8,1.7-1.7l0,0
	C78.2,298.5,77.4,297.7,76.5,297.7z"/>
<circle class="st0" cx="80.2" cy="293" r="1.7"/>
<path class="st0" d="M69,236.5L69,236.5c0.9,0,1.7-0.8,1.7-1.7l0,0c0-0.9-0.8-1.7-1.7-1.7l0,0c-0.9,0-1.7,0.8-1.7,1.7l0,0l0,0
	C67.3,235.8,68.1,236.5,69,236.5z"/>
<path class="st0" d="M69,259L69,259c-0.9,0-1.7,0.8-1.7,1.7l0,0c0,0.9,0.8,1.7,1.7,1.7l0,0c0.9,0,1.7-0.8,1.7-1.7l0,0
	C70.7,259.7,69.9,259,69,259z"/>
<path class="st0" d="M69,271.9L69,271.9c-0.9,0-1.7,0.8-1.7,1.7l0,0c0,0.9,0.8,1.7,1.7,1.7l0,0c0.9,0,1.7-0.8,1.7-1.7l0,0
	C70.7,272.7,69.9,271.9,69,271.9C69,271.9,69,271.9,69,271.9z"/>
<circle class="st0" cx="72.8" cy="267.1" r="1.7"/>
<path class="st0" d="M69,284.8L69,284.8c-0.9,0-1.7,0.8-1.7,1.7l0,0c0,0.9,0.8,1.7,1.7,1.7c0,0,0,0,0,0l0,0c0.9,0,1.7-0.8,1.7-1.7
	l0,0C70.7,285.6,69.9,284.8,69,284.8z"/>
<path class="st0" d="M72.8,278.4c-0.9,0-1.7,0.8-1.7,1.7s0.8,1.7,1.7,1.7c0.9,0,1.7-0.8,1.7-1.7c0,0,0,0,0,0
	C74.4,279.1,73.7,278.4,72.8,278.4z"/>
<path class="st0" d="M69,297.7L69,297.7c-0.9,0-1.7,0.8-1.7,1.7l0,0l0,0c0,0.9,0.8,1.7,1.7,1.7l0,0c0.9,0,1.7-0.8,1.7-1.7l0,0
	C70.7,298.5,69.9,297.7,69,297.7z"/>
<circle class="st0" cx="72.8" cy="293" r="1.7"/>
<path class="st0" d="M61.6,246.1L61.6,246.1c-0.9,0-1.7,0.8-1.7,1.7l0,0c0,0.9,0.8,1.7,1.7,1.7l0,0c0.9,0,1.7-0.8,1.7-1.7l0,0
	C63.3,246.8,62.5,246.1,61.6,246.1z"/>
<path class="st0" d="M65.3,243c0.9,0,1.7-0.8,1.7-1.7c0-0.9-0.8-1.7-1.7-1.7s-1.7,0.8-1.7,1.7l0,0C63.6,242.2,64.4,243,65.3,243z"/>
<path class="st0" d="M61.6,259L61.6,259c-0.9,0-1.7,0.8-1.7,1.7l0,0c0,0.9,0.8,1.7,1.7,1.7l0,0c0.9,0,1.7-0.8,1.7-1.7l0,0
	C63.3,259.8,62.5,259,61.6,259z"/>
<path class="st0" d="M61.6,271.9L61.6,271.9c-0.9,0-1.7,0.8-1.7,1.7l0,0c0,0.9,0.8,1.7,1.7,1.7l0,0c0.9,0,1.7-0.8,1.7-1.7l0,0
	C63.3,272.7,62.5,271.9,61.6,271.9z"/>
<path class="st0" d="M65.3,265.4c-0.9,0-1.7,0.8-1.7,1.7c0,0.9,0.8,1.7,1.7,1.7c0.9,0,1.7-0.8,1.7-1.7S66.2,265.4,65.3,265.4
	C65.3,265.4,65.3,265.4,65.3,265.4z"/>
<path class="st0" d="M61.6,284.8L61.6,284.8c-0.9,0-1.7,0.8-1.7,1.7l0,0c0,0.9,0.8,1.7,1.7,1.7l0,0c0.9,0,1.7-0.8,1.7-1.7l0,0
	C63.3,285.6,62.5,284.8,61.6,284.8z"/>
<path class="st0" d="M65.3,278.4c-0.9,0-1.7,0.8-1.7,1.7c0,0.9,0.8,1.7,1.7,1.7c0.9,0,1.7-0.8,1.7-1.7c0,0,0,0,0,0
	C67,279.1,66.2,278.4,65.3,278.4z"/>
<path class="st0" d="M61.6,297.7L61.6,297.7c-0.9,0-1.7,0.8-1.7,1.7l0,0c0,0.9,0.8,1.7,1.7,1.7l0,0c0.9,0,1.7-0.8,1.7-1.7l0,0
	C63.3,298.5,62.5,297.7,61.6,297.7z"/>
<path class="st0" d="M65.3,291.3c-0.9,0-1.7,0.8-1.7,1.7c0,0.9,0.8,1.7,1.7,1.7c0.9,0,1.6-0.7,1.7-1.6
	C67,292.1,66.3,291.3,65.3,291.3C65.4,291.3,65.3,291.3,65.3,291.3z"/>
<path class="st0" d="M54.1,246.1L54.1,246.1c-0.9,0-1.7,0.8-1.7,1.7l0,0c0,0.9,0.8,1.7,1.7,1.7l0,0c0.9,0,1.7-0.8,1.7-1.7l0,0
	C55.8,246.8,55.1,246.1,54.1,246.1z"/>
<circle class="st0" cx="57.8" cy="241.3" r="1.7"/>
<path class="st0" d="M54.1,259L54.1,259c-0.9,0-1.7,0.8-1.7,1.7l0,0c0,0.9,0.8,1.7,1.7,1.7l0,0c0.9,0,1.7-0.8,1.7-1.7l0,0
	C55.8,259.8,55.1,259,54.1,259z"/>
<path class="st0" d="M57.8,252.5c-0.9,0-1.7,0.8-1.7,1.7c0,0.9,0.8,1.7,1.7,1.7s1.7-0.8,1.7-1.7c0,0,0,0,0,0
	C59.5,253.3,58.8,252.5,57.8,252.5C57.9,252.5,57.9,252.5,57.8,252.5z"/>
<path class="st0" d="M54.1,271.9L54.1,271.9c-0.9,0-1.7,0.8-1.7,1.7l0,0c0,0.9,0.8,1.7,1.7,1.7l0,0c0.9,0,1.7-0.8,1.7-1.7l0,0
	C55.8,272.7,55.1,271.9,54.1,271.9z"/>
<circle class="st0" cx="57.8" cy="267.1" r="1.7"/>
<path class="st0" d="M54.1,284.8L54.1,284.8c-0.9,0-1.7,0.8-1.7,1.7l0,0c0,0.9,0.8,1.7,1.7,1.7l0,0l0,0c0.9,0,1.7-0.8,1.7-1.7l0,0
	C55.8,285.6,55.1,284.8,54.1,284.8z"/>
<path class="st0" d="M57.8,278.4c-0.9,0-1.7,0.8-1.7,1.7c0,0.9,0.8,1.7,1.7,1.7c0.9,0,1.7-0.8,1.7-1.7c0,0,0,0,0,0
	C59.5,279.1,58.8,278.4,57.8,278.4z"/>
<circle class="st0" cx="57.8" cy="293" r="1.7"/>
<path class="st0" d="M46.7,246.1L46.7,246.1c-0.9,0-1.7,0.8-1.7,1.7l0,0c0,0.9,0.8,1.7,1.7,1.7l0,0c0.9,0,1.7-0.8,1.7-1.7l0,0
	C48.4,246.8,47.6,246.1,46.7,246.1C46.7,246.1,46.7,246.1,46.7,246.1z"/>
<circle class="st0" cx="50.4" cy="241.3" r="1.7"/>
<path class="st0" d="M46.7,259L46.7,259c-0.9,0-1.7,0.7-1.7,1.7l0,0c0,0.9,0.8,1.7,1.7,1.7l0,0c0.9,0,1.7-0.8,1.7-1.7l0,0
	C48.4,259.7,47.6,259,46.7,259C46.7,259,46.7,259,46.7,259z"/>
<path class="st0" d="M50.4,252.5c-0.9,0-1.7,0.7-1.7,1.7c0,0.9,0.7,1.7,1.7,1.7s1.7-0.7,1.7-1.7c0,0,0,0,0,0
	C52.1,253.3,51.3,252.5,50.4,252.5z"/>
<path class="st0" d="M46.7,271.9L46.7,271.9c-0.9,0-1.7,0.8-1.7,1.7l0,0c0,0.9,0.8,1.7,1.7,1.7l0,0c0.9,0,1.7-0.8,1.7-1.7l0,0
	C48.4,272.7,47.6,271.9,46.7,271.9C46.7,271.9,46.7,271.9,46.7,271.9z"/>
<circle class="st0" cx="50.4" cy="267.1" r="1.7"/>
<path class="st0" d="M46.7,284.8L46.7,284.8c-0.9,0-1.7,0.8-1.7,1.7l0,0c0,0.9,0.8,1.7,1.7,1.7l0,0c0.9,0,1.7-0.8,1.7-1.7l0,0
	C48.4,285.6,47.6,284.8,46.7,284.8C46.7,284.8,46.7,284.8,46.7,284.8z"/>
<path class="st0" d="M50.4,278.4c-0.9,0-1.7,0.8-1.7,1.7c0,0.9,0.8,1.7,1.7,1.7c0.9,0,1.7-0.8,1.7-1.7c0,0,0,0,0,0
	C52.1,279.1,51.3,278.4,50.4,278.4z"/>
<circle class="st0" cx="50.4" cy="293" r="1.7"/>
<path class="st0" d="M39.2,246.1L39.2,246.1c-0.9,0-1.7,0.8-1.7,1.7l0,0c0,0.9,0.8,1.7,1.7,1.7l0,0c0.9,0,1.7-0.8,1.7-1.7l0,0
	C40.9,246.8,40.1,246.1,39.2,246.1z"/>
<path class="st0" d="M39.2,259L39.2,259c-0.9,0-1.7,0.8-1.7,1.7l0,0c0,0.9,0.8,1.7,1.7,1.7l0,0c0.9,0,1.7-0.8,1.7-1.7l0,0
	C40.9,259.8,40.1,259,39.2,259z"/>
<path class="st0" d="M42.9,252.5c-0.9,0-1.7,0.8-1.7,1.7c0,0.9,0.8,1.7,1.7,1.7s1.7-0.8,1.7-1.7c0,0,0,0,0,0
	C44.6,253.3,43.9,252.5,42.9,252.5z"/>
<path class="st0" d="M39.2,271.9L39.2,271.9c-0.9,0-1.7,0.8-1.7,1.7l0,0c0,0.9,0.8,1.7,1.7,1.7l0,0c0.9,0,1.7-0.8,1.7-1.7l0,0
	C40.9,272.7,40.1,271.9,39.2,271.9z"/>
<circle class="st0" cx="42.9" cy="267.1" r="1.7"/>
<path class="st0" d="M39.2,284.8L39.2,284.8c-0.9,0-1.7,0.8-1.7,1.7l0,0c0,0.9,0.8,1.7,1.7,1.7l0,0l0,0c0.9,0,1.7-0.8,1.7-1.7l0,0
	C40.9,285.6,40.1,284.8,39.2,284.8z"/>
<path class="st0" d="M42.9,278.4c-0.9,0-1.7,0.8-1.7,1.7c0,0.9,0.8,1.7,1.7,1.7c0.9,0,1.7-0.8,1.7-1.7c0,0,0,0,0,0
	C44.6,279.1,43.9,278.4,42.9,278.4z"/>
<path class="st0" d="M31.8,259L31.8,259c-0.9,0-1.7,0.8-1.7,1.7l0,0c0,0.9,0.8,1.7,1.7,1.7l0,0c0.9,0,1.7-0.8,1.7-1.7l0,0
	C33.4,259.8,32.7,259,31.8,259z"/>
<path class="st0" d="M35.5,252.5c-0.9,0-1.7,0.7-1.7,1.7c0,0.9,0.7,1.7,1.7,1.7s1.7-0.7,1.7-1.7c0,0,0,0,0,0
	C37.2,253.3,36.4,252.5,35.5,252.5z"/>
<path class="st0" d="M31.8,271.9L31.8,271.9c-0.9,0-1.7,0.8-1.7,1.7l0,0c0,0.9,0.8,1.7,1.7,1.7l0,0c0.9,0,1.7-0.8,1.7-1.7l0,0
	C33.4,272.7,32.7,271.9,31.8,271.9z"/>
<circle class="st0" cx="35.5" cy="267.1" r="1.7"/>
<path class="st0" d="M35.5,278.4c-0.9,0-1.7,0.8-1.7,1.7c0,0.9,0.8,1.7,1.7,1.7c0.9,0,1.7-0.8,1.7-1.7c0,0,0,0,0,0
	C37.1,279.1,36.4,278.4,35.5,278.4z"/>
<circle class="st0" cx="28" cy="267.1" r="1.7"/>
<path class="st0" d="M209.7,110.3c0-0.1,0-0.1-0.1-0.2V110c0-0.1-0.1-0.2-0.2-0.2l0,0c-0.1-0.1-0.1-0.1-0.2-0.2l-29.2-17l13.1-44.8
	l0,0l0,0c0-0.1,0-0.2,0-0.3l0,0c0,0,0,0,0-0.1c0-0.1,0-0.1,0-0.2l0,0c0,0,0,0,0-0.1c0-0.1,0-0.1-0.1-0.2l0,0l0,0l0,0l-0.1-0.1l0,0
	l0,0c0,0,0,0-0.1,0h-0.1l-42.8-25.1c-0.3-0.2-0.7-0.2-1,0L87.8,57.3c-0.1,0.1-0.2,0.1-0.2,0.2l0,0c-0.1,0.1-0.1,0.2-0.2,0.4l0,0
	L71.3,120c-0.5-0.2-1-0.4-1.5-0.4c-1.8,0-3.2,1.4-3.3,3.2c0,1.8,1.4,3.2,3.2,3.3L54,186.6c-0.1,0.4,0.1,0.9,0.5,1.1l27.6,16
	l-14,42.5c-0.5,0.3-0.8,0.8-0.8,1.4l0,0c0,0.2,0,0.4,0.1,0.6l-1.4,4.3c-0.2-0.1-0.5-0.2-0.7-0.2c-0.9,0-1.7,0.7-1.7,1.7
	s0.7,1.7,1.7,1.7c0.7,0,1.4-0.5,1.6-1.2l8.3,4.8c-0.3,0.3-0.4,0.7-0.4,1.1l0,0c0,0.9,0.8,1.7,1.7,1.7l0,0c0.7,0,1.3-0.4,1.6-1.1
	l8.3,4.8c-0.6,0.7-0.5,1.8,0.2,2.4s1.8,0.5,2.4-0.2c0.1-0.1,0.2-0.3,0.3-0.5l8.3,4.8c-0.2,0.3-0.4,0.6-0.4,1l0,0
	c0,0.9,0.8,1.7,1.7,1.7l0,0c0.7,0,1.3-0.4,1.6-1l8.3,4.8c-0.6,0.7-0.4,1.8,0.3,2.4c0.7,0.6,1.8,0.4,2.4-0.3c0.6-0.7,0.4-1.8-0.3-2.4
	c-0.2-0.1-0.3-0.2-0.5-0.3l0.2-0.4l0,0l1.9-3.2c0.3,0.3,0.7,0.4,1.1,0.4l0,0c0.9,0,1.7-0.8,1.7-1.7l0,0c0-0.7-0.5-1.3-1.1-1.6
	l2.1-3.6c0.7,0.6,1.8,0.5,2.4-0.2s0.5-1.8-0.2-2.4c-0.1-0.1-0.3-0.2-0.4-0.3l2.1-3.5c0.3,0.2,0.6,0.3,1,0.3l0,0
	c0.9,0,1.7-0.8,1.7-1.7l0,0c0-0.7-0.4-1.3-1-1.5l2.1-3.5c0.7,0.5,1.8,0.4,2.3-0.4c0.5-0.7,0.4-1.8-0.4-2.3c-0.1-0.1-0.2-0.1-0.3-0.2
	l2.1-3.5c0.3,0.2,0.6,0.2,0.9,0.2l0,0c0.9,0,1.7-0.8,1.7-1.7l0,0c0-0.6-0.3-1.2-0.9-1.5l25.4-43l-2.7,10.3c-0.1,0.4,0.1,0.8,0.4,1.1
	c0.4,0.2,0.8,0.2,1.2-0.1l19.4-15.5L158,245.5c-0.2,0.5,0.1,1,0.5,1.2c0.1,0.1,0.3,0.1,0.4,0.1c0.4,0,0.7-0.2,0.9-0.5l47.3-80.1
	c0.3-0.5,0.1-1.1-0.3-1.4c-0.3-0.2-0.7-0.2-1,0l-17.9,10.3l11.9-39.9c0.1-0.4,0-0.8-0.3-1.1c-0.3-0.3-0.8-0.3-1.1-0.1l-3.4,2
	l14.9-25l0,0c0.1-0.1,0.1-0.2,0.1-0.3c0,0,0-0.1,0-0.1c0,0,0-0.1,0-0.1c0,0,0,0,0-0.1C209.8,110.4,209.8,110.4,209.7,110.3z
	 M56.4,185.5l10.3-39.8c0,0.1,0.1,0.2,0.1,0.3c0.6,1.7,2.4,2.6,4.1,2c1.7-0.6,2.6-2.4,2-4.1s-2.4-2.6-4.1-2
	c-0.4,0.1-0.8,0.4-1.1,0.7l-0.3,0.3l4.6-17.7c0.1-0.1,0.2-0.2,0.3-0.3c0.5-0.6,0.7-1.3,0.8-2c0-0.2,0-0.4-0.1-0.6
	c0-0.1-0.1-0.2-0.1-0.3l16.1-62.3l32.3,18.8l8.5,4.9l0,0l0,0l-18.6,71.8l-14,54.2l0,0l-0.2,0.6L82.9,202l-26.8-15.6L56.4,185.5z
	 M160.4,190.1l0.1-0.2l9.6-37.3l18.9-10.9l-17.5,29.6L160.4,190.1z M190.6,49.6L190.6,49.6l-12.5,41.9l-0.3,1l-0.3,1l-0.5,1.6
	l-11.3,38l-0.3,1l-0.3,1l-0.1,0.2c-0.2,0.5,0.2,1.1,0.7,1.2c0.3,0.1,0.5,0,0.8-0.1l38.5-22.1L191,138.2l-22.3,12.9
	c-0.2,0.1-0.4,0.4-0.5,0.6L156.8,196l-0.1,0.3l-43.3,73.3l4.5-13.8l0.9-2.6l1.4-4.1l1-3l23.2-70.7c0-0.1,0-0.2,0-0.3
	c0-0.3-0.2-0.6-0.4-0.8c-0.1-0.1-0.3-0.1-0.4-0.2h-0.1c-0.2,0-0.5,0.1-0.6,0.2l-43.2,34.5l-0.2,0.2l0,0l13.6-52.7l11.6-44.9l0.3-1
	l0.3-1.1l0.3-1.4l6.3-24.5l0,0l0.2-0.1L190.6,49.6z M197,137l-11.9,40c-0.2,0.5,0.1,1.1,0.7,1.2c0.3,0.1,0.5,0,0.8-0.1l16.8-9.6
	l-40.7,68.9l13.4-40.8c0.1-0.4,0-0.9-0.4-1.1c-0.2-0.1-0.4-0.2-0.6-0.2c-0.2,0-0.4,0.1-0.6,0.2l-19.7,15.7l3.6-14.1l16.1-27.2
	l18-30.4L197,137z"/>
<path class="st0" d="M3.2,75.3c-1.8,0-3.2,1.4-3.2,3.2s1.4,3.2,3.2,3.2c1.8,0,3.2-1.4,3.2-3.2c0,0,0,0,0,0C6.4,76.7,5,75.3,3.2,75.3
	z"/>
<circle class="st0" cx="25.4" cy="78.5" r="3.2"/>
<circle class="st0" cx="69.8" cy="78.5" r="3.2"/>
<path class="st0" d="M92,81.7c1.8,0,3.2-1.4,3.2-3.2s-1.4-3.2-3.2-3.2s-3.2,1.4-3.2,3.2S90.2,81.7,92,81.7L92,81.7z"/>
<circle class="st0" cx="47.6" cy="78.5" r="3.2"/>
<path class="st0" d="M3.2,97.4c-1.8,0-3.2,1.4-3.2,3.2s1.4,3.2,3.2,3.2s3.2-1.4,3.2-3.2c0,0,0,0,0,0C6.4,98.9,5,97.5,3.2,97.4z"/>
<circle class="st0" cx="25.4" cy="100.7" r="3.2"/>
<circle class="st0" cx="69.8" cy="100.7" r="3.2"/>
<path class="st0" d="M92,103.9c1.8,0,3.2-1.4,3.2-3.2s-1.4-3.2-3.2-3.2s-3.2,1.4-3.2,3.2S90.2,103.9,92,103.9L92,103.9z"/>
<circle class="st0" cx="47.6" cy="100.7" r="3.2"/>
<path class="st0" d="M3.2,119.7c-1.8,0-3.2,1.4-3.2,3.2s1.4,3.2,3.2,3.2s3.2-1.4,3.2-3.2c0,0,0,0,0,0C6.4,121.1,5,119.7,3.2,119.7z"
	/>
<circle class="st0" cx="25.4" cy="122.9" r="3.2"/>
<path class="st0" d="M92,126.1c1.8,0,3.2-1.4,3.2-3.2c0-1.8-1.4-3.2-3.2-3.2c-1.8,0-3.2,1.4-3.2,3.2c0,0,0,0,0,0
	C88.8,124.6,90.2,126.1,92,126.1z"/>
<circle class="st0" cx="47.6" cy="122.9" r="3.2"/>
<path class="st0" d="M3.2,141.8c-1.8,0-3.2,1.4-3.2,3.2c0,1.8,1.4,3.2,3.2,3.2s3.2-1.4,3.2-3.2c0,0,0,0,0,0
	C6.4,143.3,5,141.8,3.2,141.8z"/>
<circle class="st0" cx="25.4" cy="145.1" r="3.2"/>
<path class="st0" d="M92,148.3c1.8,0,3.2-1.4,3.2-3.2s-1.4-3.2-3.2-3.2s-3.2,1.4-3.2,3.2S90.2,148.3,92,148.3L92,148.3z"/>
<circle class="st0" cx="47.6" cy="145.1" r="3.2"/>
<path class="st0" d="M3.2,164c-1.8,0-3.2,1.4-3.2,3.2c0,1.8,1.4,3.2,3.2,3.2s3.2-1.4,3.2-3.2c0,0,0,0,0,0C6.4,165.4,5,164,3.2,164z"
	/>
<path class="st0" d="M28.6,167.3c0-1.8-1.4-3.2-3.2-3.2s-3.2,1.4-3.2,3.2c0,1.8,1.4,3.2,3.2,3.2c0,0,0,0,0,0
	C27.2,170.5,28.6,169,28.6,167.3z"/>
<path class="st0" d="M69.8,164c-1.8,0-3.2,1.4-3.2,3.2c0,1.8,1.4,3.2,3.2,3.2c1.8,0,3.2-1.4,3.2-3.2C73,165.5,71.6,164,69.8,164
	C69.8,164,69.8,164,69.8,164z"/>
<path class="st0" d="M92,170.5c1.8,0,3.2-1.4,3.2-3.2c0-1.8-1.4-3.2-3.2-3.2c-1.8,0-3.2,1.4-3.2,3.2c0,0,0,0,0,0
	C88.8,169,90.2,170.5,92,170.5z"/>
<path class="st0" d="M47.6,170.5c1.8,0,3.2-1.4,3.2-3.2c0-1.8-1.4-3.2-3.2-3.2c-1.8,0-3.2,1.4-3.2,3.2c0,0,0,0,0,0
	C44.4,169,45.8,170.5,47.6,170.5z"/>
<polygon class="st0" points="195.8,88.6 221.9,0.6 220,0 193.9,88.1 194.8,88.3 "/>
<polygon class="st0" points="228.3,19.7 227.3,19.4 215.2,60.3 217.1,60.8 229.2,20 "/>
</svg>
