<svg id="Layer_1" data-name="Layer 1" xmlns="http://www.w3.org/2000/svg" viewBox="0 0 228.68 262.39"><title>test</title><path d="M227,226.91h0a1.68,1.68,0,0,0-1.68,1.68h0a1.68,1.68,0,0,0,1.68,1.68h0a1.68,1.68,0,0,0,1.68-1.68h0A1.68,1.68,0,0,0,227,226.91Z"/><path d="M219.55,226.91h0a1.68,1.68,0,0,0-1.68,1.68h0a1.68,1.68,0,0,0,1.68,1.68h0a1.68,1.68,0,0,0,1.68-1.68h0A1.68,1.68,0,0,0,219.55,226.91Z"/><circle cx="223.27" cy="235.05" r="1.68"/><path d="M212.09,226.91h0a1.68,1.68,0,0,0-1.68,1.68h0a1.68,1.68,0,0,0,1.68,1.68h0a1.68,1.68,0,0,0,1.68-1.68h0A1.68,1.68,0,0,0,212.09,226.91Z"/><path d="M215.82,220.45a1.69,1.69,0,1,0,1.68,1.69A1.69,1.69,0,0,0,215.82,220.45Z"/><path d="M212.09,239.82h0a1.68,1.68,0,0,0-1.68,1.68h0a1.69,1.69,0,0,0,1.68,1.69h0a1.69,1.69,0,0,0,1.68-1.69h0A1.68,1.68,0,0,0,212.09,239.82Z"/><path d="M215.82,233.36a1.69,1.69,0,1,0,1.68,1.69A1.69,1.69,0,0,0,215.82,233.36Z"/><path d="M204.64,239.82h0A1.68,1.68,0,0,0,203,241.5h0a1.69,1.69,0,0,0,1.68,1.69h0a1.69,1.69,0,0,0,1.68-1.69h0A1.68,1.68,0,0,0,204.64,239.82Z"/><path d="M208.37,233.36a1.69,1.69,0,1,0,1.68,1.69A1.69,1.69,0,0,0,208.37,233.36Z"/><path d="M197.18,239.82h0a1.68,1.68,0,0,0-1.68,1.68h0a1.69,1.69,0,0,0,1.68,1.69h0a1.7,1.7,0,0,0,1.69-1.69h0A1.69,1.69,0,0,0,197.18,239.82Z"/><circle cx="200.91" cy="235.05" r="1.68"/><path d="M200.91,246.28a1.68,1.68,0,1,0,1.68,1.68A1.68,1.68,0,0,0,200.91,246.28Z"/><path d="M189.73,239.82h0a1.68,1.68,0,0,0-1.68,1.68h0a1.69,1.69,0,0,0,1.68,1.69h0a1.69,1.69,0,0,0,1.68-1.69h0A1.68,1.68,0,0,0,189.73,239.82Z"/><path d="M189.73,252.73h0a1.68,1.68,0,0,0-1.68,1.68h0a1.69,1.69,0,0,0,1.68,1.69h0a1.69,1.69,0,0,0,1.68-1.69h0A1.68,1.68,0,0,0,189.73,252.73Z"/><path d="M193.46,246.28a1.68,1.68,0,1,0,1.68,1.68A1.69,1.69,0,0,0,193.46,246.28Z"/><path d="M182.27,252.73h0a1.68,1.68,0,0,0-1.68,1.68h0a1.69,1.69,0,0,0,1.68,1.69h0a1.69,1.69,0,0,0,1.69-1.69h0A1.69,1.69,0,0,0,182.27,252.73Z"/><path d="M186,246.28a1.68,1.68,0,1,0,1.68,1.68A1.68,1.68,0,0,0,186,246.28Z"/><path d="M174.82,252.73h0a1.68,1.68,0,0,0-1.68,1.68h0a1.69,1.69,0,0,0,1.68,1.69h0a1.69,1.69,0,0,0,1.68-1.69h0A1.68,1.68,0,0,0,174.82,252.73Z"/><path d="M178.55,246.28a1.68,1.68,0,1,0,1.68,1.68A1.69,1.69,0,0,0,178.55,246.28Z"/><path d="M178.55,259.19a1.68,1.68,0,0,0-.71,3.2c.56,0,1.12-.08,1.67-.14a1.7,1.7,0,0,0,.72-1.38A1.68,1.68,0,0,0,178.55,259.19Z"/><path d="M167.36,252.73h0a1.69,1.69,0,0,0-1.68,1.68h0a1.69,1.69,0,0,0,1.68,1.69h0a1.69,1.69,0,0,0,1.69-1.69h0A1.69,1.69,0,0,0,167.36,252.73Z"/><path d="M159.91,252.73h0a1.68,1.68,0,0,0-1.68,1.68h0a1.69,1.69,0,0,0,1.68,1.69h0a1.69,1.69,0,0,0,1.68-1.69h0A1.68,1.68,0,0,0,159.91,252.73Z"/><path d="M163.64,246.28a1.68,1.68,0,1,0,1.68,1.68A1.69,1.69,0,0,0,163.64,246.28Z"/><path d="M152.46,239.82h0a1.68,1.68,0,0,0-1.68,1.68h0a1.69,1.69,0,0,0,1.68,1.69h0a1.7,1.7,0,0,0,1.68-1.69h0A1.68,1.68,0,0,0,152.46,239.82Z"/><path d="M156.18,246.28a1.68,1.68,0,1,0,1.68,1.68A1.68,1.68,0,0,0,156.18,246.28Z"/><path d="M145,239.82h0a1.68,1.68,0,0,0-1.68,1.68h0a1.69,1.69,0,0,0,1.68,1.69h0a1.69,1.69,0,0,0,1.68-1.69h0A1.68,1.68,0,0,0,145,239.82Z"/><path d="M148.73,246.28a1.68,1.68,0,1,0,1.68,1.68A1.68,1.68,0,0,0,148.73,246.28Z"/><path d="M137.55,239.82h0a1.69,1.69,0,0,0-1.69,1.68h0a1.69,1.69,0,0,0,1.69,1.69h0a1.7,1.7,0,0,0,1.68-1.69h0A1.68,1.68,0,0,0,137.55,239.82Z"/><circle cx="141.27" cy="235.05" r="1.68"/><path d="M130.09,226.91h0a1.68,1.68,0,0,0-1.68,1.68h0a1.68,1.68,0,0,0,1.68,1.68h0a1.68,1.68,0,0,0,1.68-1.68h0A1.68,1.68,0,0,0,130.09,226.91Z"/><circle cx="133.82" cy="235.05" r="1.68"/><path d="M122.64,226.91h0a1.69,1.69,0,0,0-1.69,1.68h0a1.69,1.69,0,0,0,1.69,1.68h0a1.68,1.68,0,0,0,1.68-1.68h0A1.68,1.68,0,0,0,122.64,226.91Z"/><circle cx="126.36" cy="235.05" r="1.68"/><path d="M115.18,226.91h0a1.68,1.68,0,0,0-1.68,1.68h0a1.68,1.68,0,0,0,1.68,1.68h0a1.68,1.68,0,0,0,1.68-1.68h0A1.68,1.68,0,0,0,115.18,226.91Z"/><circle cx="118.91" cy="222.14" r="1.68"/><path d="M107.73,214h0a1.69,1.69,0,0,0-1.69,1.68h0a1.69,1.69,0,0,0,1.69,1.68h0a1.68,1.68,0,0,0,1.68-1.68h0A1.68,1.68,0,0,0,107.73,214Z"/><path d="M111.45,220.45a1.69,1.69,0,1,0,1.69,1.69A1.69,1.69,0,0,0,111.45,220.45Z"/><path d="M100.27,214h0a1.68,1.68,0,0,0-1.68,1.68h0a1.68,1.68,0,0,0,1.68,1.68h0a1.68,1.68,0,0,0,1.68-1.68h0A1.68,1.68,0,0,0,100.27,214Z"/><path d="M104,220.45a1.69,1.69,0,1,0,1.68,1.69A1.69,1.69,0,0,0,104,220.45Z"/><path d="M92.82,214h0a1.68,1.68,0,0,0-1.68,1.68h0a1.68,1.68,0,0,0,1.68,1.68h0a1.68,1.68,0,0,0,1.68-1.68h0A1.68,1.68,0,0,0,92.82,214Z"/><circle cx="96.54" cy="209.22" r="1.68"/><path d="M85.36,201.08h0a1.69,1.69,0,0,0-1.68,1.69h0a1.68,1.68,0,0,0,1.68,1.68h0A1.68,1.68,0,0,0,87,202.77h0A1.69,1.69,0,0,0,85.36,201.08Z"/><circle cx="89.09" cy="209.22" r="1.68"/><path d="M77.91,201.08h0a1.69,1.69,0,0,0-1.68,1.69h0a1.68,1.68,0,0,0,1.68,1.68h0a1.68,1.68,0,0,0,1.68-1.68h0A1.69,1.69,0,0,0,77.91,201.08Z"/><circle cx="81.64" cy="209.22" r="1.68"/><path d="M70.45,201.08h0a1.69,1.69,0,0,0-1.68,1.69h0a1.68,1.68,0,0,0,1.68,1.68h0a1.69,1.69,0,0,0,1.69-1.68h0A1.7,1.7,0,0,0,70.45,201.08Z"/><circle cx="74.18" cy="196.31" r="1.68"/><path d="M63,188.17h0a1.68,1.68,0,0,0-1.68,1.68h0A1.68,1.68,0,0,0,63,191.54h0a1.68,1.68,0,0,0,1.68-1.68h0A1.68,1.68,0,0,0,63,188.17Z"/><circle cx="66.73" cy="196.31" r="1.68"/><path d="M55.54,188.17h0a1.68,1.68,0,0,0-1.68,1.68h0a1.68,1.68,0,0,0,1.68,1.68h0a1.69,1.69,0,0,0,1.69-1.68h0A1.69,1.69,0,0,0,55.54,188.17Z"/><path d="M59.27,194.63A1.68,1.68,0,1,0,61,196.31,1.68,1.68,0,0,0,59.27,194.63Z"/><path d="M48.09,188.17h0a1.68,1.68,0,0,0-1.68,1.68h0a1.68,1.68,0,0,0,1.68,1.68h0a1.68,1.68,0,0,0,1.68-1.68h0A1.68,1.68,0,0,0,48.09,188.17Z"/><circle cx="51.82" cy="183.4" r="1.68"/><path d="M40.63,175.26h0A1.68,1.68,0,0,0,39,176.94h0a1.69,1.69,0,0,0,1.68,1.69h0a1.69,1.69,0,0,0,1.69-1.69h0A1.69,1.69,0,0,0,40.63,175.26Z"/><circle cx="44.36" cy="183.4" r="1.68"/><path d="M33.18,162.35h0A1.68,1.68,0,0,0,31.5,164h0a1.68,1.68,0,0,0,1.68,1.68h0A1.68,1.68,0,0,0,34.86,164h0A1.68,1.68,0,0,0,33.18,162.35Z"/><path d="M33.18,175.26h0a1.68,1.68,0,0,0-1.68,1.68h0a1.69,1.69,0,0,0,1.68,1.69h0a1.69,1.69,0,0,0,1.68-1.69h0A1.68,1.68,0,0,0,33.18,175.26Z"/><circle cx="36.91" cy="170.49" r="1.68"/><circle cx="36.91" cy="183.4" r="1.68"/><path d="M25.73,162.35h0A1.68,1.68,0,0,0,24,164h0a1.68,1.68,0,0,0,1.68,1.68h0A1.68,1.68,0,0,0,27.41,164h0A1.68,1.68,0,0,0,25.73,162.35Z"/><path d="M25.73,175.26h0A1.68,1.68,0,0,0,24,176.94h0a1.69,1.69,0,0,0,1.68,1.69h0a1.69,1.69,0,0,0,1.68-1.69h0A1.68,1.68,0,0,0,25.73,175.26Z"/><circle cx="29.45" cy="170.49" r="1.68"/><circle cx="22" cy="170.49" r="1.68"/><path d="M215,95.36,205.72,90s0,0,0,0A2.94,2.94,0,0,0,202.78,87a3,3,0,0,0-1.51.42L64.64,8.63l-15.58,9L18.44,0l-.1,60.78,17.17,9.89-.11,41.45L0,76.64v69L18.32,128l1-.85h16l0,16.88a38.23,38.23,0,0,0,2,11.94,1.76,1.76,0,0,0-.45-.07,1.69,1.69,0,1,0,0,3.37,1.67,1.67,0,0,0,1.37-.72c.52,1.32,1.1,2.64,1.73,3.93A1.68,1.68,0,0,0,39,164h0a1.68,1.68,0,0,0,1.68,1.68h0a1.71,1.71,0,0,0,.95-.28c.68,1.19,1.4,2.36,2.17,3.49a1.68,1.68,0,1,0,1.9,2.64,49.27,49.27,0,0,0,3.57,4.15,1.64,1.64,0,0,0-1.13-.45h0a1.68,1.68,0,0,0-1.68,1.68h0a1.69,1.69,0,0,0,1.68,1.69h0a1.69,1.69,0,0,0,1.68-1.69h0a1.66,1.66,0,0,0-.43-1.11,37.26,37.26,0,0,0,8,6.33l.55.32a1.61,1.61,0,0,0-.28.92,1.68,1.68,0,0,0,3.18.75l8.28,4.78a1.64,1.64,0,0,0-.28.92h0a1.68,1.68,0,0,0,1.68,1.68h0a1.68,1.68,0,0,0,1.5-.93l8.28,4.78a1.72,1.72,0,0,0-.28.92,1.68,1.68,0,0,0,3.18.76l8.28,4.78a1.68,1.68,0,0,0-.27.92h0a1.68,1.68,0,0,0,1.68,1.68h0a1.66,1.66,0,0,0,1.49-.93l8.28,4.78a1.71,1.71,0,0,0-.27.92,1.68,1.68,0,0,0,3.18.76l8.28,4.78a1.61,1.61,0,0,0-.28.92h0a1.68,1.68,0,0,0,1.68,1.68h0a1.68,1.68,0,0,0,1.5-.93l8.28,4.78a1.65,1.65,0,0,0-.28.93,1.68,1.68,0,0,0,3.18.75l8.28,4.78a1.72,1.72,0,0,0-.28.92h0a1.69,1.69,0,0,0,1.69,1.68h0a1.69,1.69,0,0,0,1.49-.92l8.28,4.78a1.69,1.69,0,0,0,1.41,2.6,1.66,1.66,0,0,0,1.49-.93l8.28,4.78a1.71,1.71,0,0,0-.27.92h0a1.69,1.69,0,0,0,1.68,1.69h0a1.7,1.7,0,0,0,1.5-.93l2.25,1.3a23.09,23.09,0,0,0,7.12,2.75,1.68,1.68,0,1,0,1.1.17,15.77,15.77,0,0,0,1.91.14A12.29,12.29,0,0,0,180,245v0l28-16.21c4.37-2.54,6.79-7.76,6.81-14.71ZM64.64,10.94l96.78,55.81a2.94,2.94,0,1,0,3.64,2.86,2.9,2.9,0,0,0-.14-.84L200,89a2.91,2.91,0,0,0,2.78,3.89,2.92,2.92,0,0,0,2.21-1l7.3,4.22L186.2,111.3l-17.4-10,0-14.62L143.46,72a2.94,2.94,0,1,0-4.61-2.66L51.06,18.8ZM49.07,20,166.82,87.79v12.3L38.64,26Zm92.7,72.94a3,3,0,0,0,2.95-3c0-.11,0-.22,0-.33a3.1,3.1,0,0,0-.08-.42L166.8,102v.4L166.74,144,37.52,69.52l-.25-.15.12-42.09L141,87.11a2.59,2.59,0,0,0-.42.14,2.94,2.94,0,0,0,1.18,5.64ZM35.52,68.37,20.34,59.62l.09-56.16L47.06,18.8,35.64,25.41ZM182.46,239.84a11.21,11.21,0,0,1-1.78,2.18,11.91,11.91,0,0,1-1,.85c-.24.17-.48.32-.74.47-3.26,1.88-7.45,1.78-12-.22a1.82,1.82,0,0,1-.47-.21c-.67-.31-1.34-.66-2-1L58.1,180.47a30.57,30.57,0,0,1-2.82-1.87c-.42-.31-.84-.62-1.26-.95-9.69-7.79-17-21.86-17-33.63l0-16.88H50.38l-13-13-.25-.25.12-42.19.25.14,131.22,75.59.07-43.86v-.39l16.4,9.46-.27,95.32v2.56l0,10.38v9.34a24.51,24.51,0,0,1-.35,4c-.05.3-.13.59-.19.88A14.82,14.82,0,0,1,182.46,239.84Zm30.47-91.5-.05,31.09-26.16,15.15.08-31.12v-.32L212.94,148Z"/><path d="M52.67,51.38c-2.68-1.55-4.86-.3-4.87,2.78a10.64,10.64,0,0,0,4.84,8.38h0c2.68,1.54,4.86.3,4.86-2.78A10.66,10.66,0,0,0,52.67,51.38Z"/><path d="M67.82,60.13C65.14,58.58,63,59.82,63,62.91a10.67,10.67,0,0,0,4.84,8.38c2.68,1.55,4.86.3,4.87-2.78A10.64,10.64,0,0,0,67.82,60.13Z"/><path d="M83,68.88h0c-2.69-1.55-4.86-.3-4.87,2.78A10.62,10.62,0,0,0,82.94,80h0c2.69,1.55,4.87.32,4.88-2.77h0A10.65,10.65,0,0,0,83,68.88Z"/><polygon points="104.56 140.24 52.08 109.94 52.06 115.9 104.54 146.2 104.56 140.24"/><polygon points="110.03 143.4 110.01 149.36 125.17 158.11 125.19 152.15 110.03 143.4"/><polygon points="145.74 164.02 130.58 155.27 130.57 161.23 145.72 169.98 145.74 164.02"/><polygon points="129.05 139.51 121.81 135.33 89.37 116.6 89.35 122.56 129.03 145.47 129.05 139.51"/><polygon points="83.88 113.43 64.95 102.5 64.94 108.46 83.86 119.39 83.88 113.43"/><polygon points="59.76 99.51 52.12 95.09 52.1 101.05 59.75 105.46 59.76 99.51"/><polygon points="147.06 209.4 138.24 204.3 135.88 202.94 127.05 197.84 124.7 196.48 115.87 191.39 114.38 190.52 114.37 191.32 114.36 196.49 122.37 201.11 124.2 202.17 133.55 207.57 135.39 208.63 144.73 214.02 146.57 215.09 154.04 219.4 154.05 216.19 154.05 215.17 154.06 213.43 149.42 210.75 147.06 209.4"/><polygon points="102.33 183.57 93.51 178.47 91.15 177.12 89.95 176.42 89.94 181.95 89.94 182.39 90.66 182.81 93.38 184.38 100 188.2 101.84 189.26 108.86 193.31 108.87 191.09 108.87 188.63 108.88 187.35 104.69 184.93 102.33 183.57"/><polygon points="79.97 170.66 77.12 169.01 77.1 174.98 77.64 175.29 79.48 176.35 83.36 178.59 84.75 179.39 84.75 178.51 84.76 175.38 84.76 173.43 82.32 172.02 79.97 170.66"/><polygon points="68.79 164.2 59.96 159.11 57.61 157.75 51.95 154.48 51.95 155.91 51.94 159.25 51.94 160.45 55.27 162.38 57.11 163.44 66.46 168.83 68.29 169.89 71.77 171.9 71.79 165.94 71.14 165.56 68.79 164.2"/><polygon points="131.76 176.79 140.57 181.88 142.94 183.24 145.68 184.83 145.7 178.86 93.22 148.56 93.22 149.49 93.21 152.75 93.2 154.53 95.84 156.05 98.21 157.42 107.02 162.51 109.39 163.88 118.21 168.96 120.58 170.33 129.39 175.42 131.76 176.79"/><polygon points="73.48 143.14 75.85 144.51 84.66 149.59 87.03 150.96 87.73 151.37 87.75 145.4 72.59 136.65 72.57 142.62 73.48 143.14"/><polygon points="67.19 133.54 52.04 124.78 52.02 130.75 67.18 139.5 67.19 133.54"/><polygon points="91.67 165.25 91.67 162.8 91.67 162.54 83.3 157.71 80.68 156.19 72.12 151.25 69.5 149.74 60.94 144.8 58.31 143.28 51.99 139.63 51.98 145.6 61.33 151 63.95 152.51 72.51 157.45 75.13 158.97 83.69 163.91 86.31 165.42 91.66 168.51 91.67 165.25"/><polygon points="103.04 169.11 97.17 165.72 97.16 168.93 97.16 171.68 97.49 171.88 106.06 176.82 108.67 178.33 116.08 182.61 116.09 178.35 116.1 176.64 114.22 175.56 105.67 170.62 103.04 169.11"/><polygon points="121.28 179.64 121.26 185.6 128.42 189.73 128.91 190.01 128.91 188.66 128.92 184.05 128.03 183.53 125.41 182.02 121.28 179.64"/><circle cx="121.44" cy="8.6" r="2.95"/><circle cx="141.77" cy="8.6" r="2.95"/><path d="M182.45,11.55a2.95,2.95,0,1,0-2.95-3A2.95,2.95,0,0,0,182.45,11.55Z"/><path d="M202.78,11.55a2.95,2.95,0,1,0-2.95-3A2.95,2.95,0,0,0,202.78,11.55Z"/><path d="M162.11,11.55a2.95,2.95,0,1,0-3-3A2.95,2.95,0,0,0,162.11,11.55Z"/><path d="M121.44,31.88a2.95,2.95,0,1,0-3-2.95A2.94,2.94,0,0,0,121.44,31.88Z"/><path d="M141.77,31.88a2.95,2.95,0,1,0-2.94-2.95A2.95,2.95,0,0,0,141.77,31.88Z"/><path d="M182.45,31.88a2.95,2.95,0,1,0-2.95-2.95A2.95,2.95,0,0,0,182.45,31.88Z"/><path d="M202.78,31.88a2.95,2.95,0,1,0-2.95-2.95A2.95,2.95,0,0,0,202.78,31.88Z"/><path d="M162.11,31.88a2.95,2.95,0,1,0-3-2.95A2.95,2.95,0,0,0,162.11,31.88Z"/><path d="M121.44,46.32a3,3,0,1,0,2.94,3A2.95,2.95,0,0,0,121.44,46.32Z"/><path d="M141.77,52.22a3,3,0,1,0-2.94-2.95A2.95,2.95,0,0,0,141.77,52.22Z"/><path d="M182.45,52.22a3,3,0,1,0-2.95-2.95A2.95,2.95,0,0,0,182.45,52.22Z"/><path d="M202.78,52.22a3,3,0,1,0-2.95-2.95A2.95,2.95,0,0,0,202.78,52.22Z"/><path d="M162.11,52.22a3,3,0,1,0-3-2.95A2.95,2.95,0,0,0,162.11,52.22Z"/><path d="M121.44,72.55a2.95,2.95,0,1,0-3-2.94A2.94,2.94,0,0,0,121.44,72.55Z"/><path d="M182.45,72.55a2.95,2.95,0,1,0-2.95-2.94A2.94,2.94,0,0,0,182.45,72.55Z"/><path d="M202.78,72.55a2.95,2.95,0,1,0-2.95-2.94A2.95,2.95,0,0,0,202.78,72.55Z"/><path d="M121.44,87a2.95,2.95,0,1,0,2.94,2.94A2.94,2.94,0,0,0,121.44,87Z"/><path d="M182.45,92.89a2.95,2.95,0,1,0-2.95-3A2.95,2.95,0,0,0,182.45,92.89Z"/><path d="M162.11,92.89a2.95,2.95,0,1,0-3-3A2.95,2.95,0,0,0,162.11,92.89Z"/></svg>