<?xml version="1.0" encoding="utf-8"?>
<!-- Generator: Adobe Illustrator 24.0.1, SVG Export Plug-In . SVG Version: 6.00 Build 0)  -->
<svg version="1.1" id="Layer_1" xmlns="http://www.w3.org/2000/svg" xmlns:xlink="http://www.w3.org/1999/xlink" x="0px" y="0px"
	 viewBox="0 0 228.7 262.4" style="enable-background:new 0 0 228.7 262.4;" xml:space="preserve">
<style type="text/css">
	.st0{fill:#191E1E;}
</style>
<title>test</title>
<path class="st0" d="M227,226.9L227,226.9c-0.9,0-1.7,0.8-1.7,1.7l0,0c0,0.9,0.8,1.7,1.7,1.7l0,0c0.9,0,1.7-0.8,1.7-1.7l0,0
	C228.7,227.7,227.9,226.9,227,226.9z"/>
<path class="st0" d="M219.6,226.9L219.6,226.9c-0.9,0-1.7,0.8-1.7,1.7l0,0c0,0.9,0.8,1.7,1.7,1.7l0,0c0.9,0,1.7-0.8,1.7-1.7l0,0
	C221.2,227.7,220.5,226.9,219.6,226.9z"/>
<circle class="st0" cx="223.3" cy="235.1" r="1.7"/>
<path class="st0" d="M212.1,226.9L212.1,226.9c-0.9,0-1.7,0.8-1.7,1.7l0,0c0,0.9,0.8,1.7,1.7,1.7l0,0c0.9,0,1.7-0.8,1.7-1.7l0,0
	C213.8,227.7,213,226.9,212.1,226.9z"/>
<path class="st0" d="M215.8,220.4c-0.9,0-1.7,0.7-1.7,1.7s0.7,1.7,1.7,1.7c0.9,0,1.7-0.7,1.7-1.7c0,0,0,0,0,0
	C217.5,221.2,216.7,220.5,215.8,220.4z"/>
<path class="st0" d="M212.1,239.8L212.1,239.8c-0.9,0-1.7,0.8-1.7,1.7l0,0c0,0.9,0.8,1.7,1.7,1.7l0,0c0.9,0,1.7-0.8,1.7-1.7l0,0
	C213.8,240.6,213,239.8,212.1,239.8z"/>
<path class="st0" d="M215.8,233.4c-0.9,0-1.7,0.7-1.7,1.7s0.7,1.7,1.7,1.7c0.9,0,1.7-0.7,1.7-1.7c0,0,0,0,0,0
	C217.5,234.1,216.7,233.4,215.8,233.4z"/>
<path class="st0" d="M204.6,239.8L204.6,239.8c-0.9,0-1.6,0.8-1.6,1.7l0,0c0,0.9,0.8,1.7,1.7,1.7l0,0c0.9,0,1.7-0.8,1.7-1.7l0,0
	C206.4,240.6,205.6,239.8,204.6,239.8C204.7,239.8,204.7,239.8,204.6,239.8z"/>
<path class="st0" d="M208.4,233.4c-0.9,0-1.7,0.7-1.7,1.7s0.7,1.7,1.7,1.7c0.9,0,1.7-0.7,1.7-1.7c0,0,0,0,0,0
	C210.1,234.1,209.3,233.4,208.4,233.4z"/>
<path class="st0" d="M197.2,239.8L197.2,239.8c-0.9,0-1.7,0.8-1.7,1.7l0,0c0,0.9,0.8,1.7,1.7,1.7l0,0c0.9,0,1.7-0.8,1.7-1.7l0,0
	C198.9,240.6,198.1,239.8,197.2,239.8z"/>
<circle class="st0" cx="200.9" cy="235.1" r="1.7"/>
<path class="st0" d="M200.9,246.3c-0.9,0-1.7,0.8-1.7,1.7s0.8,1.7,1.7,1.7s1.7-0.8,1.7-1.7v0C202.6,247,201.8,246.3,200.9,246.3z"/>
<path class="st0" d="M189.7,239.8L189.7,239.8c-0.9,0-1.7,0.8-1.7,1.7l0,0c0,0.9,0.8,1.7,1.7,1.7l0,0c0.9,0,1.7-0.8,1.7-1.7l0,0
	C191.4,240.6,190.7,239.8,189.7,239.8z"/>
<path class="st0" d="M189.7,252.7L189.7,252.7c-0.9,0-1.7,0.8-1.7,1.7l0,0c0,0.9,0.8,1.7,1.7,1.7l0,0c0.9,0,1.7-0.8,1.7-1.7l0,0
	C191.4,253.5,190.7,252.7,189.7,252.7z"/>
<path class="st0" d="M193.5,246.3c-0.9,0-1.7,0.8-1.7,1.7s0.8,1.7,1.7,1.7s1.7-0.8,1.7-1.7v0C195.1,247,194.4,246.3,193.5,246.3z"/>
<path class="st0" d="M182.3,252.7L182.3,252.7c-0.9,0-1.7,0.8-1.7,1.7l0,0c0,0.9,0.8,1.7,1.7,1.7l0,0c0.9,0,1.7-0.8,1.7-1.7l0,0l0,0
	C184,253.5,183.2,252.7,182.3,252.7z"/>
<path class="st0" d="M186,246.3c-0.9,0-1.7,0.8-1.7,1.7s0.8,1.7,1.7,1.7s1.7-0.8,1.7-1.7v0C187.7,247,186.9,246.3,186,246.3z"/>
<path class="st0" d="M174.8,252.7L174.8,252.7c-0.9,0-1.7,0.8-1.7,1.7l0,0c0,0.9,0.8,1.7,1.7,1.7l0,0c0.9,0,1.7-0.8,1.7-1.7l0,0
	C176.5,253.5,175.7,252.7,174.8,252.7z"/>
<path class="st0" d="M178.6,246.3c-0.9,0-1.7,0.8-1.7,1.7s0.8,1.7,1.7,1.7s1.7-0.8,1.7-1.7v0C180.2,247,179.5,246.3,178.6,246.3z"/>
<path class="st0" d="M178.6,259.2c-0.9,0-1.7,0.8-1.7,1.7c0,0.6,0.4,1.2,1,1.5c0.6,0,1.1-0.1,1.7-0.1c0.4-0.3,0.7-0.8,0.7-1.4
	C180.2,259.9,179.5,259.2,178.6,259.2z"/>
<path class="st0" d="M167.4,252.7L167.4,252.7c-0.9,0-1.7,0.8-1.7,1.7l0,0c0,0.9,0.8,1.7,1.7,1.7l0,0c0.9,0,1.7-0.8,1.7-1.7l0,0l0,0
	C169,253.5,168.3,252.7,167.4,252.7z"/>
<path class="st0" d="M159.9,252.7L159.9,252.7c-0.9,0-1.7,0.8-1.7,1.7l0,0c0,0.9,0.8,1.7,1.7,1.7l0,0c0.9,0,1.7-0.8,1.7-1.7l0,0
	C161.6,253.5,160.8,252.7,159.9,252.7z"/>
<path class="st0" d="M163.6,246.3c-0.9,0-1.7,0.8-1.7,1.7s0.8,1.7,1.7,1.7s1.7-0.8,1.7-1.7v0C165.3,247,164.6,246.3,163.6,246.3z"/>
<path class="st0" d="M152.5,239.8L152.5,239.8c-0.9,0-1.7,0.8-1.7,1.7l0,0c0,0.9,0.8,1.7,1.7,1.7l0,0c0.9,0,1.7-0.8,1.7-1.7l0,0
	C154.1,240.6,153.4,239.8,152.5,239.8z"/>
<path class="st0" d="M156.2,246.3c-0.9,0-1.7,0.8-1.7,1.7s0.8,1.7,1.7,1.7s1.7-0.8,1.7-1.7v0C157.9,247,157.1,246.3,156.2,246.3z"/>
<path class="st0" d="M145,239.8L145,239.8c-0.9,0-1.7,0.8-1.7,1.7l0,0c0,0.9,0.8,1.7,1.7,1.7l0,0c0.9,0,1.7-0.8,1.7-1.7l0,0
	C146.7,240.6,145.9,239.8,145,239.8z"/>
<path class="st0" d="M148.7,246.3c-0.9,0-1.7,0.8-1.7,1.7s0.8,1.7,1.7,1.7s1.7-0.8,1.7-1.7v0C150.4,247,149.7,246.3,148.7,246.3z"/>
<path class="st0" d="M137.6,239.8L137.6,239.8c-0.9,0-1.7,0.8-1.7,1.7l0,0c0,0.9,0.8,1.7,1.7,1.7l0,0l0,0c0.9,0,1.7-0.8,1.7-1.7l0,0
	C139.2,240.6,138.5,239.8,137.6,239.8z"/>
<circle class="st0" cx="141.3" cy="235.1" r="1.7"/>
<path class="st0" d="M130.1,226.9L130.1,226.9c-0.9,0-1.7,0.8-1.7,1.7l0,0c0,0.9,0.8,1.7,1.7,1.7l0,0c0.9,0,1.7-0.8,1.7-1.7l0,0
	C131.8,227.7,131,226.9,130.1,226.9z"/>
<circle class="st0" cx="133.8" cy="235.1" r="1.7"/>
<path class="st0" d="M122.6,226.9L122.6,226.9c-0.9,0-1.7,0.8-1.7,1.7l0,0c0,0.9,0.8,1.7,1.7,1.7l0,0c0.9,0,1.7-0.8,1.7-1.7l0,0
	C124.3,227.7,123.6,226.9,122.6,226.9z"/>
<circle class="st0" cx="126.4" cy="235.1" r="1.7"/>
<path class="st0" d="M115.2,226.9L115.2,226.9c-0.9,0-1.7,0.8-1.7,1.7l0,0c0,0.9,0.8,1.7,1.7,1.7l0,0c0.9,0,1.7-0.8,1.7-1.7l0,0
	C116.9,227.7,116.1,226.9,115.2,226.9z"/>
<circle class="st0" cx="118.9" cy="222.1" r="1.7"/>
<path class="st0" d="M107.7,214L107.7,214c-0.9,0-1.7,0.8-1.7,1.7l0,0c0,0.9,0.8,1.7,1.7,1.7l0,0c0.9,0,1.7-0.8,1.7-1.7l0,0
	C109.4,214.8,108.7,214,107.7,214z"/>
<path class="st0" d="M111.4,220.4c-0.9,0-1.7,0.8-1.7,1.7c0,0.9,0.8,1.7,1.7,1.7c0.9,0,1.7-0.8,1.7-1.7S112.4,220.4,111.4,220.4
	C111.4,220.4,111.4,220.4,111.4,220.4z"/>
<path class="st0" d="M100.3,214L100.3,214c-0.9,0-1.7,0.8-1.7,1.7l0,0c0,0.9,0.8,1.7,1.7,1.7l0,0c0.9,0,1.7-0.8,1.7-1.7l0,0
	C101.9,214.8,101.2,214,100.3,214z"/>
<path class="st0" d="M104,220.4c-0.9,0-1.7,0.7-1.7,1.7c0,0.9,0.7,1.7,1.7,1.7c0.9,0,1.7-0.7,1.7-1.7c0,0,0,0,0,0
	C105.7,221.2,104.9,220.5,104,220.4z"/>
<path class="st0" d="M92.8,214L92.8,214c-0.9,0-1.7,0.8-1.7,1.7l0,0c0,0.9,0.8,1.7,1.7,1.7l0,0c0.9,0,1.7-0.8,1.7-1.7l0,0
	C94.5,214.8,93.7,214,92.8,214z"/>
<circle class="st0" cx="96.5" cy="209.2" r="1.7"/>
<path class="st0" d="M85.4,201.1L85.4,201.1c-0.9,0-1.7,0.8-1.7,1.7l0,0c0,0.9,0.8,1.7,1.7,1.7l0,0c0.9,0,1.6-0.8,1.6-1.7l0,0
	C87,201.9,86.3,201.1,85.4,201.1z"/>
<circle class="st0" cx="89.1" cy="209.2" r="1.7"/>
<path class="st0" d="M77.9,201.1L77.9,201.1c-0.9,0-1.7,0.8-1.7,1.7l0,0c0,0.9,0.8,1.7,1.7,1.7l0,0c0.9,0,1.7-0.8,1.7-1.7l0,0
	C79.6,201.8,78.8,201.1,77.9,201.1z"/>
<circle class="st0" cx="81.6" cy="209.2" r="1.7"/>
<path class="st0" d="M70.4,201.1L70.4,201.1c-0.9,0-1.7,0.8-1.7,1.7l0,0c0,0.9,0.8,1.7,1.7,1.7l0,0c0.9,0,1.7-0.8,1.7-1.7l0,0
	C72.1,201.8,71.4,201.1,70.4,201.1z"/>
<circle class="st0" cx="74.2" cy="196.3" r="1.7"/>
<path class="st0" d="M63,188.2L63,188.2c-0.9,0-1.7,0.8-1.7,1.7l0,0c0,0.9,0.7,1.7,1.7,1.7c0,0,0,0,0,0l0,0c0.9,0,1.7-0.8,1.7-1.7
	l0,0C64.7,188.9,63.9,188.2,63,188.2C63,188.2,63,188.2,63,188.2z"/>
<circle class="st0" cx="66.7" cy="196.3" r="1.7"/>
<path class="st0" d="M55.5,188.2L55.5,188.2c-0.9,0-1.7,0.8-1.7,1.7l0,0c0,0.9,0.8,1.7,1.7,1.7l0,0c0.9,0,1.7-0.8,1.7-1.7l0,0
	C57.2,188.9,56.5,188.2,55.5,188.2z"/>
<path class="st0" d="M59.3,194.6c-0.9,0-1.7,0.8-1.6,1.7c0,0.9,0.8,1.7,1.7,1.6c0.9,0,1.6-0.8,1.6-1.7
	C61,195.4,60.2,194.6,59.3,194.6C59.3,194.6,59.3,194.6,59.3,194.6z"/>
<path class="st0" d="M48.1,188.2L48.1,188.2c-0.9,0-1.7,0.8-1.7,1.7l0,0c0,0.9,0.8,1.7,1.7,1.7l0,0c0.9,0,1.7-0.8,1.7-1.7l0,0
	C49.8,188.9,49,188.2,48.1,188.2z"/>
<circle class="st0" cx="51.8" cy="183.4" r="1.7"/>
<path class="st0" d="M40.6,175.3L40.6,175.3c-0.9,0-1.6,0.8-1.6,1.7l0,0c0,0.9,0.8,1.7,1.7,1.7l0,0c0.9,0,1.7-0.8,1.7-1.7l0,0l0,0
	C42.4,176,41.6,175.3,40.6,175.3C40.7,175.3,40.6,175.3,40.6,175.3z"/>
<circle class="st0" cx="44.4" cy="183.4" r="1.7"/>
<path class="st0" d="M33.2,162.4L33.2,162.4c-0.9,0-1.7,0.7-1.7,1.6l0,0c0,0.9,0.8,1.7,1.7,1.7l0,0c0.9,0,1.7-0.8,1.7-1.7l0,0
	C34.8,163.1,34.1,162.3,33.2,162.4z"/>
<path class="st0" d="M33.2,175.3L33.2,175.3c-0.9,0-1.7,0.8-1.7,1.7l0,0c0,0.9,0.8,1.7,1.7,1.7l0,0c0.9,0,1.7-0.8,1.7-1.7l0,0
	C34.9,176,34.1,175.3,33.2,175.3z"/>
<circle class="st0" cx="36.9" cy="170.5" r="1.7"/>
<circle class="st0" cx="36.9" cy="183.4" r="1.7"/>
<path class="st0" d="M25.7,162.4L25.7,162.4c-0.9,0-1.7,0.7-1.7,1.6c0,0,0,0,0,0l0,0c0,0.9,0.8,1.7,1.7,1.7l0,0
	c0.9,0,1.7-0.7,1.7-1.6c0,0,0,0,0-0.1l0,0C27.4,163.1,26.6,162.3,25.7,162.4z"/>
<path class="st0" d="M25.7,175.3L25.7,175.3c-0.9,0-1.7,0.7-1.7,1.6c0,0,0,0,0,0.1l0,0c0,0.9,0.8,1.7,1.7,1.7l0,0
	c0.9,0,1.7-0.8,1.7-1.7l0,0C27.4,176,26.6,175.3,25.7,175.3z"/>
<circle class="st0" cx="29.5" cy="170.5" r="1.7"/>
<circle class="st0" cx="22" cy="170.5" r="1.7"/>
<path class="st0" d="M215,95.4l-9.3-5.4l0,0c0-1.6-1.3-3-2.9-3c0,0,0,0-0.1,0c-0.5,0-1.1,0.1-1.5,0.4L64.6,8.6l-15.6,9L18.4,0
	l-0.1,60.8l17.2,9.9l-0.1,41.4L0,76.6v69L18.3,128l1-0.8h16V144c0,4.1,0.7,8.1,2,11.9c-0.1,0-0.3-0.1-0.5-0.1
	c-0.9-0.1-1.7,0.6-1.8,1.6c-0.1,0.9,0.6,1.7,1.6,1.8c0.1,0,0.2,0,0.3,0c0.5,0,1.1-0.3,1.4-0.7c0.5,1.3,1.1,2.6,1.7,3.9
	c-0.6,0.3-1,0.9-1,1.5l0,0c0,0.9,0.8,1.7,1.7,1.7l0,0c0.3,0,0.7-0.1,1-0.3c0.7,1.2,1.4,2.4,2.2,3.5c-0.9,0.3-1.3,1.3-1,2.2
	s1.3,1.3,2.2,1c0.3-0.1,0.5-0.3,0.7-0.5c1.1,1.4,2.3,2.8,3.6,4.1c-0.3-0.3-0.7-0.5-1.1-0.4l0,0c-0.9,0-1.7,0.8-1.7,1.7l0,0
	c0,0.9,0.8,1.7,1.7,1.7l0,0c0.9,0,1.7-0.8,1.7-1.7l0,0c0-0.4-0.2-0.8-0.4-1.1c2.4,2.5,5.1,4.6,8,6.3l0.5,0.3
	c-0.2,0.3-0.3,0.6-0.3,0.9c0,0.9,0.8,1.7,1.7,1.7c0.6,0,1.2-0.4,1.5-0.9l8.3,4.8c-0.2,0.3-0.3,0.6-0.3,0.9l0,0
	c0,0.9,0.8,1.7,1.7,1.7l0,0c0.6,0,1.2-0.4,1.5-0.9l8.3,4.8c-0.2,0.3-0.3,0.6-0.3,0.9c0,0.9,0.7,1.7,1.7,1.7c0.6,0,1.2-0.4,1.5-0.9
	l8.3,4.8c-0.2,0.3-0.3,0.6-0.3,0.9l0,0c0,0.9,0.8,1.7,1.7,1.7l0,0c0.6,0,1.2-0.4,1.5-0.9l8.3,4.8c-0.2,0.3-0.3,0.6-0.3,0.9
	c0,0.9,0.7,1.7,1.7,1.7c0.6,0,1.2-0.4,1.5-0.9l8.3,4.8c-0.2,0.3-0.3,0.6-0.3,0.9l0,0c0,0.9,0.8,1.7,1.7,1.7l0,0
	c0.6,0,1.2-0.4,1.5-0.9l8.3,4.8c-0.2,0.3-0.3,0.6-0.3,0.9c0,0.9,0.8,1.7,1.7,1.7c0.6,0,1.2-0.4,1.5-0.9l8.3,4.8
	c-0.2,0.3-0.3,0.6-0.3,0.9l0,0c0,0.9,0.8,1.7,1.7,1.7l0,0c0.6,0,1.2-0.4,1.5-0.9l8.3,4.8c-0.5,0.8-0.3,1.8,0.5,2.3
	c0.3,0.2,0.6,0.3,0.9,0.3c0.6,0,1.2-0.4,1.5-0.9l8.3,4.8c-0.2,0.3-0.3,0.6-0.3,0.9l0,0c0,0.9,0.8,1.7,1.7,1.7l0,0
	c0.6,0,1.2-0.4,1.5-0.9l2.2,1.3c2.2,1.3,4.6,2.2,7.1,2.8c-0.9,0.2-1.5,1-1.3,2c0.2,0.9,1,1.5,2,1.3c0.9-0.2,1.5-1,1.3-2
	c-0.1-0.5-0.4-0.9-0.9-1.2c0.6,0.1,1.3,0.1,1.9,0.1c2.1,0,4.3-0.5,6.1-1.6l0,0l28-16.2c4.4-2.5,6.8-7.8,6.8-14.7L215,95.4z
	 M64.6,10.9l96.8,55.8c-1.6,0.4-2.5,2-2.2,3.6c0.4,1.6,2,2.5,3.6,2.2c1.3-0.3,2.2-1.5,2.2-2.9c0-0.3-0.1-0.6-0.1-0.8L200,89
	c-0.5,1.5,0.2,3.2,1.8,3.7c0.3,0.1,0.7,0.2,1,0.2c0.8,0,1.7-0.4,2.2-1l7.3,4.2l-26.1,15.2l-17.4-10V86.7L143.5,72
	c1.3-0.9,1.7-2.8,0.7-4.1s-2.8-1.7-4.1-0.7c-0.7,0.5-1.2,1.3-1.2,2.2L51.1,18.8L64.6,10.9z M49.1,20l117.8,67.8v12.3L38.6,26
	L49.1,20z M141.8,92.9c1.6,0,3-1.4,2.9-3c0-0.1,0-0.2,0-0.3c0-0.1,0-0.3-0.1-0.4l22.2,12.8v0.4l-0.1,41.6L37.5,69.5l-0.2-0.2
	l0.1-42.1L141,87.1c-0.1,0-0.3,0.1-0.4,0.1c-1.5,0.6-2.2,2.4-1.5,3.9C139.5,92.2,140.6,92.9,141.8,92.9L141.8,92.9z M35.5,68.4
	l-15.2-8.8l0.1-56.2l26.6,15.3l-11.4,6.6L35.5,68.4z M182.5,239.8c-0.5,0.8-1.1,1.5-1.8,2.2c-0.3,0.3-0.7,0.6-1,0.9
	c-0.2,0.2-0.5,0.3-0.7,0.5c-3.3,1.9-7.4,1.8-12-0.2c-0.2,0-0.3-0.1-0.5-0.2c-0.7-0.3-1.3-0.7-2-1L58.1,180.5c-1-0.6-1.9-1.2-2.8-1.9
	c-0.4-0.3-0.8-0.6-1.3-0.9c-9.7-7.8-17-21.9-17-33.6v-16.9h13.4l-13-13l-0.2-0.2l0.1-42.2l0.2,0.1l131.2,75.6l0.1-43.9v-0.4
	l16.4,9.5l-0.3,95.3v2.6v10.4v9.3c0,1.3-0.1,2.7-0.4,4c-0.1,0.3-0.1,0.6-0.2,0.9C184,236.8,183.4,238.4,182.5,239.8z M212.9,148.3
	l-0.1,31.1l-26.2,15.1l0.1-31.1v-0.3l26.1-15.1L212.9,148.3z"/>
<path class="st0" d="M52.7,51.4c-2.7-1.5-4.9-0.3-4.9,2.8c0.2,3.4,2,6.5,4.8,8.4l0,0c2.7,1.5,4.9,0.3,4.9-2.8
	C57.3,56.4,55.5,53.2,52.7,51.4z"/>
<path class="st0" d="M67.8,60.1c-2.7-1.5-4.8-0.3-4.8,2.8c0.2,3.4,2,6.5,4.8,8.4c2.7,1.6,4.9,0.3,4.9-2.8
	C72.5,65.1,70.7,62,67.8,60.1z"/>
<path class="st0" d="M83,68.9L83,68.9c-2.7-1.6-4.9-0.3-4.9,2.8c0.2,3.4,2,6.5,4.8,8.3l0,0c2.7,1.6,4.9,0.3,4.9-2.8l0,0
	C87.6,73.8,85.8,70.7,83,68.9z"/>
<polygon class="st0" points="104.6,140.2 52.1,109.9 52.1,115.9 104.5,146.2 "/>
<polygon class="st0" points="110,143.4 110,149.4 125.2,158.1 125.2,152.1 "/>
<polygon class="st0" points="145.7,164 130.6,155.3 130.6,161.2 145.7,170 "/>
<polygon class="st0" points="129.1,139.5 121.8,135.3 89.4,116.6 89.3,122.6 129,145.5 "/>
<polygon class="st0" points="83.9,113.4 64.9,102.5 64.9,108.5 83.9,119.4 "/>
<polygon class="st0" points="59.8,99.5 52.1,95.1 52.1,101.1 59.8,105.5 "/>
<polygon class="st0" points="147.1,209.4 138.2,204.3 135.9,202.9 127.1,197.8 124.7,196.5 115.9,191.4 114.4,190.5 114.4,191.3 
	114.4,196.5 122.4,201.1 124.2,202.2 133.6,207.6 135.4,208.6 144.7,214 146.6,215.1 154,219.4 154.1,216.2 154.1,215.2 
	154.1,213.4 149.4,210.8 "/>
<polygon class="st0" points="102.3,183.6 93.5,178.5 91.2,177.1 89.9,176.4 89.9,181.9 89.9,182.4 90.7,182.8 93.4,184.4 100,188.2 
	101.8,189.3 108.9,193.3 108.9,191.1 108.9,188.6 108.9,187.4 104.7,184.9 "/>
<polygon class="st0" points="80,170.7 77.1,169 77.1,175 77.6,175.3 79.5,176.4 83.4,178.6 84.8,179.4 84.8,178.5 84.8,175.4 
	84.8,173.4 82.3,172 "/>
<polygon class="st0" points="68.8,164.2 60,159.1 57.6,157.8 52,154.5 52,155.9 51.9,159.2 51.9,160.4 55.3,162.4 57.1,163.4 
	66.5,168.8 68.3,169.9 71.8,171.9 71.8,165.9 71.1,165.6 "/>
<polygon class="st0" points="131.8,176.8 140.6,181.9 142.9,183.2 145.7,184.8 145.7,178.9 93.2,148.6 93.2,149.5 93.2,152.8 
	93.2,154.5 95.8,156.1 98.2,157.4 107,162.5 109.4,163.9 118.2,169 120.6,170.3 129.4,175.4 "/>
<polygon class="st0" points="73.5,143.1 75.8,144.5 84.7,149.6 87,151 87.7,151.4 87.8,145.4 72.6,136.6 72.6,142.6 "/>
<polygon class="st0" points="67.2,133.5 52,124.8 52,130.8 67.2,139.5 "/>
<polygon class="st0" points="91.7,165.2 91.7,162.8 91.7,162.5 83.3,157.7 80.7,156.2 72.1,151.2 69.5,149.7 60.9,144.8 58.3,143.3 
	52,139.6 52,145.6 61.3,151 64,152.5 72.5,157.4 75.1,159 83.7,163.9 86.3,165.4 91.7,168.5 "/>
<polygon class="st0" points="103,169.1 97.2,165.7 97.2,168.9 97.2,171.7 97.5,171.9 106.1,176.8 108.7,178.3 116.1,182.6 
	116.1,178.4 116.1,176.6 114.2,175.6 105.7,170.6 "/>
<polygon class="st0" points="121.3,179.6 121.3,185.6 128.4,189.7 128.9,190 128.9,188.7 128.9,184.1 128,183.5 125.4,182 "/>
<circle class="st0" cx="121.4" cy="8.6" r="2.9"/>
<circle class="st0" cx="141.8" cy="8.6" r="2.9"/>
<path class="st0" d="M182.4,11.6c1.6,0,2.9-1.3,2.9-3c0-1.6-1.3-2.9-3-2.9c-1.6,0-2.9,1.3-2.9,2.9C179.5,10.2,180.8,11.5,182.4,11.6
	C182.4,11.5,182.4,11.6,182.4,11.6z"/>
<path class="st0" d="M202.8,11.6c1.6,0,2.9-1.3,2.9-3c0-1.6-1.3-2.9-3-2.9c-1.6,0-2.9,1.3-2.9,2.9C199.8,10.2,201.1,11.5,202.8,11.6
	C202.7,11.5,202.8,11.6,202.8,11.6z"/>
<path class="st0" d="M162.1,11.6c1.6,0,2.9-1.4,2.9-3s-1.4-2.9-3-2.9c-1.6,0-2.9,1.3-2.9,2.9c0,1.6,1.3,3,2.9,3
	C162,11.6,162.1,11.6,162.1,11.6z"/>
<path class="st0" d="M121.4,31.9c1.6,0,2.9-1.4,2.9-3c0-1.6-1.4-2.9-3-2.9c-1.6,0-2.9,1.3-2.9,2.9C118.4,30.6,119.7,31.9,121.4,31.9
	C121.4,31.9,121.4,31.9,121.4,31.9z"/>
<path class="st0" d="M141.8,31.9c1.6,0,3-1.3,3-2.9s-1.3-3-2.9-3c-1.6,0-3,1.3-3,2.9c0,0,0,0,0,0C138.8,30.6,140.1,31.9,141.8,31.9z
	"/>
<path class="st0" d="M182.4,31.9c1.6,0,2.9-1.3,2.9-2.9c0-1.6-1.3-3-2.9-3c-1.6,0-2.9,1.3-2.9,2.9v0
	C179.5,30.6,180.8,31.9,182.4,31.9z"/>
<path class="st0" d="M202.8,31.9c1.6,0,2.9-1.3,2.9-2.9c0-1.6-1.3-3-2.9-3c-1.6,0-2.9,1.3-2.9,2.9v0
	C199.8,30.6,201.2,31.9,202.8,31.9z"/>
<path class="st0" d="M162.1,31.9c1.6,0,2.9-1.4,2.9-3c0-1.6-1.4-2.9-3-2.9c-1.6,0-2.9,1.3-2.9,2.9C159.1,30.6,160.4,31.9,162.1,31.9
	C162.1,31.9,162.1,31.9,162.1,31.9z"/>
<path class="st0" d="M121.4,46.3c-1.7,0-3,1.3-3.1,2.9c0,1.7,1.3,3,2.9,3.1c1.7,0,3-1.3,3.1-2.9c0,0,0,0,0-0.1
	C124.4,47.7,123.1,46.3,121.4,46.3C121.5,46.3,121.5,46.3,121.4,46.3z"/>
<path class="st0" d="M141.8,52.2c1.7,0,3-1.3,3.1-2.9c0-1.7-1.3-3-2.9-3.1c-1.7,0-3,1.3-3.1,2.9c0,0,0,0.1,0,0.1
	C138.8,50.9,140.1,52.2,141.8,52.2z"/>
<path class="st0" d="M182.4,52.2c1.7,0,3-1.3,3-2.9s-1.3-3-2.9-3c-1.7,0-3,1.3-3,2.9c0,0,0,0.1,0,0.1
	C179.5,50.9,180.8,52.2,182.4,52.2z"/>
<path class="st0" d="M202.8,52.2c1.7,0,3-1.3,3-2.9s-1.3-3-2.9-3c-1.7,0-3,1.3-3,2.9c0,0,0,0.1,0,0.1
	C199.8,50.9,201.2,52.2,202.8,52.2z"/>
<path class="st0" d="M162.1,52.2c1.7,0,3-1.3,3-3c0-1.7-1.3-3-3-3c-1.7,0-3,1.3-3,3c0,0,0,0,0,0C159.1,50.9,160.4,52.2,162.1,52.2
	C162.1,52.2,162.1,52.2,162.1,52.2z"/>
<path class="st0" d="M121.4,72.6c1.6,0,2.9-1.4,2.9-3c0-1.6-1.4-2.9-3-2.9c-1.6,0-2.9,1.3-2.9,3C118.4,71.2,119.8,72.6,121.4,72.6
	C121.4,72.6,121.4,72.6,121.4,72.6z"/>
<path class="st0" d="M182.4,72.6c1.6,0,2.9-1.3,2.9-3c0-1.6-1.3-2.9-3-2.9s-2.9,1.3-2.9,3c0,0,0,0,0,0
	C179.5,71.2,180.8,72.6,182.4,72.6C182.4,72.6,182.4,72.6,182.4,72.6z"/>
<path class="st0" d="M202.8,72.6c1.6,0,2.9-1.3,2.9-3c0-1.6-1.3-2.9-3-2.9s-2.9,1.3-2.9,3c0,0,0,0,0,0
	C199.8,71.2,201.2,72.6,202.8,72.6z"/>
<path class="st0" d="M121.4,87c-1.6,0-3,1.3-3,2.9c0,1.6,1.3,3,2.9,3c1.6,0,3-1.3,3-2.9c0,0,0,0,0,0C124.4,88.3,123.1,87,121.4,87
	C121.4,87,121.4,87,121.4,87z"/>
<path class="st0" d="M182.4,92.9c1.6,0,2.9-1.3,2.9-3c0-1.6-1.3-2.9-3-2.9c-1.6,0-2.9,1.3-2.9,2.9C179.5,91.5,180.8,92.9,182.4,92.9
	C182.4,92.9,182.4,92.9,182.4,92.9z"/>
<path class="st0" d="M162.1,92.9c1.6,0,2.9-1.4,2.9-3s-1.4-2.9-3-2.9c-1.6,0-2.9,1.3-2.9,2.9c0,1.6,1.3,3,2.9,3
	C162,92.9,162.1,92.9,162.1,92.9z"/>
</svg>
