<svg xmlns="http://www.w3.org/2000/svg" xmlns:xlink="http://www.w3.org/1999/xlink" viewBox="0 0 276.15 274.66">
  <defs>
    <mask id="a" x="9.99" y="9.99" width="256.16" height="254.68" maskUnits="userSpaceOnUse">
      <path d="M191.68,263.58a15.93,15.93,0,0,0,12.7-.48l52.71-25.36a16,16,0,0,0,9.06-14.42v-172a16,16,0,0,0-9.06-14.42L204.38,11.57A15.94,15.94,0,0,0,188.1,13a14.62,14.62,0,0,0-1.9,1.63L85.3,106.72,41.35,73.36a10.67,10.67,0,0,0-13.62.6L13.64,86.78a10.68,10.68,0,0,0,0,15.78l38.12,34.77L13.62,172.11a10.67,10.67,0,0,0,0,15.77L27.73,200.7a10.67,10.67,0,0,0,13.62.61L85.3,168,186.2,260A15.76,15.76,0,0,0,191.68,263.58ZM202.19,79.22l-76.56,58.11,76.56,58.12Z" style="fill: #fff;fill-rule: evenodd"/>
    </mask>
    <linearGradient id="b" x1="137.99" y1="266.67" x2="137.99" y2="11.99" gradientTransform="matrix(1, 0, 0, -1, 0, 276.66)" gradientUnits="userSpaceOnUse">
      <stop offset="0" stop-color="#fff"/>
      <stop offset="1" stop-color="#fff" stop-opacity="0"/>
    </linearGradient>
  </defs>
  <title>Visual-Studio-Logo</title>
  <path d="M197.42,274.66l-1.2,0q-.56,0-1.11-.06l-.21,0-.18,0a26.11,26.11,0,0,1-6.83-1.63,25.83,25.83,0,0,1-8.74-5.65L84.57,181,47.25,209.27a20.54,20.54,0,0,1-11.68,4.19l-.82,0a20.61,20.61,0,0,1-13.9-5.38L6.75,195.28A20.64,20.64,0,0,1,.1,182.09,20.1,20.1,0,0,1,0,179a20.5,20.5,0,0,1,6.7-14.24l30-27.39L6.73,110A20.54,20.54,0,0,1,0,95.65a19.1,19.1,0,0,1,.09-3.23,20.63,20.63,0,0,1,6.63-13l14.1-12.83a20.74,20.74,0,0,1,13-5.35c.29,0,.6,0,.9,0a20.76,20.76,0,0,1,12.49,4.2L84.57,93.7,179.15,7.41A27.23,27.23,0,0,1,182.06,5,25.82,25.82,0,0,1,196.93,0h.75c.35,0,.62,0,.89,0a25.65,25.65,0,0,1,10.11,2.53l52.73,25.36a26.14,26.14,0,0,1,14.74,23.43v172a26.15,26.15,0,0,1-14.74,23.43l-52.73,25.36a26,26,0,0,1-10.34,2.54Z" style="fill: #fff;fill-rule: evenodd"/>
  <g style="mask: url(#a)">
    <g>
      <path d="M257.09,37l-52.75-25.4a15.93,15.93,0,0,0-18.19,3.1L13.47,172.11a10.67,10.67,0,0,0,0,15.77L27.59,200.7a10.67,10.67,0,0,0,13.62.61L249.15,43.56a10.6,10.6,0,0,1,17,8.44v-.61A16,16,0,0,0,257.09,37Z" style="fill: #0065a9"/>
      <path d="M257.09,237.69l-52.75,25.4A15.94,15.94,0,0,1,186.15,260L13.47,102.56a10.68,10.68,0,0,1,0-15.78L27.59,74a10.67,10.67,0,0,1,13.62-.6L249.15,231.11a10.6,10.6,0,0,0,17-8.44v.61A16,16,0,0,1,257.09,237.69Z" style="fill: #007acc"/>
      <path d="M204.34,263.1a16,16,0,0,1-18.19-3.1,9.37,9.37,0,0,0,16-6.63V21.29a9.37,9.37,0,0,0-16-6.62,15.93,15.93,0,0,1,18.19-3.1l52.74,25.36a16,16,0,0,1,9.07,14.42v172a16,16,0,0,1-9.07,14.41Z" style="fill: #1f9cf0"/>
      <g style="opacity: 0.25">
        <path d="M191.52,263.58a16,16,0,0,0,12.7-.48l52.71-25.37A16,16,0,0,0,266,223.32v-172a16,16,0,0,0-9.06-14.42L204.22,11.57A15.89,15.89,0,0,0,186,14.67L85.14,106.72,41.19,73.36a10.65,10.65,0,0,0-13.61.6L13.48,86.78a10.68,10.68,0,0,0,0,15.78l38.11,34.77L13.47,172.11a10.67,10.67,0,0,0,0,15.77l14.1,12.82a10.65,10.65,0,0,0,13.61.61l44-33.36L186,260A15.76,15.76,0,0,0,191.52,263.58ZM202,79.22l-76.56,58.11L202,195.45Z" style="fill-rule: evenodd;fill: url(#b)"/>
      </g>
    </g>
  </g>
</svg>
