<svg id="Layer_1" data-name="Layer 1" xmlns="http://www.w3.org/2000/svg" xmlns:xlink="http://www.w3.org/1999/xlink" viewBox="0 0 228.56 261.75"><defs><style>.cls-1{fill:none;}.cls-2{fill:#010101;}.cls-3{fill:#fff;}.cls-4{fill-rule:evenodd;}.cls-5{isolation:isolate;}.cls-6{clip-path:url(#clip-path);}</style><clipPath id="clip-path"><polygon class="cls-1" points="51.94 160.45 52.12 95.09 154.22 154.04 154.04 219.4 51.94 160.45"/></clipPath></defs><title>web-applications</title><path class="cls-2" d="M223.58,234.62a2.63,2.63,0,0,0-2.38,0,.73.73,0,0,0,0,1.38,2.63,2.63,0,0,0,2.38,0A.73.73,0,0,0,223.58,234.62Z"/><path class="cls-2" d="M228.39,233.5a.76.76,0,0,0-.46.84l.16-.2c.12-.16.23-.33.34-.5l.13-.22Z"/><path class="cls-2" d="M214.48,239.91a2.63,2.63,0,0,0-2.38,0,.73.73,0,0,0,0,1.38,2.63,2.63,0,0,0,2.38,0l-1.19-.69,1.19.69A.73.73,0,0,0,214.48,239.91Z"/><path class="cls-2" d="M219.29,238.79c-.66.38-.65,1,0,1.38l.11.06,2.36-1.38-.1-.06A2.63,2.63,0,0,0,219.29,238.79Z"/><path class="cls-2" d="M205.38,245.2a2.63,2.63,0,0,0-2.38,0c-.66.38-.65,1,0,1.38a2.63,2.63,0,0,0,2.38,0A.73.73,0,0,0,205.38,245.2Z"/><path class="cls-2" d="M210.19,244.08a.73.73,0,0,0,0,1.38l.11.06,2.09-1.22.27-.16-.1-.06A2.63,2.63,0,0,0,210.19,244.08Z"/><path class="cls-2" d="M196.28,250.49a2.63,2.63,0,0,0-2.38,0c-.66.38-.65,1,0,1.38a2.63,2.63,0,0,0,2.38,0A.73.73,0,0,0,196.28,250.49Z"/><path class="cls-2" d="M201.09,249.37a.73.73,0,0,0,0,1.38l.1.05,2.37-1.37-.1-.06A2.63,2.63,0,0,0,201.09,249.37Z"/><path class="cls-2" d="M187.18,255.78a2.6,2.6,0,0,0-2.38,0,.73.73,0,0,0,0,1.38l1.19-.69-1.19.69a2.63,2.63,0,0,0,2.38,0A.73.73,0,0,0,187.18,255.78Z"/><path class="cls-2" d="M192,254.66a.72.72,0,0,0,0,1.37l.11.06,2.36-1.37-.1-.06A2.63,2.63,0,0,0,192,254.66Z"/><path class="cls-2" d="M178.08,261.06l-.82.48.82-.48a2.63,2.63,0,0,0-2.38,0l1.09.63H177l.83-.07.57-.06h.11A1,1,0,0,0,178.08,261.06Z"/><path class="cls-2" d="M182.89,260c-.39.23-.55.54-.46.84l.45-.12.63-.19.86-.29L185,260l.19-.08A2.63,2.63,0,0,0,182.89,260Z"/><path class="cls-2" d="M227.39,226.28a2.63,2.63,0,0,0-2.38,0c-.66.38-.65,1,0,1.38a2.63,2.63,0,0,0,2.38,0C228.06,227.28,228.05,226.66,227.39,226.28Z"/><path class="cls-2" d="M218.29,231.57a2.63,2.63,0,0,0-2.38,0,.73.73,0,0,0,0,1.38l1.19-.69-1.19.69a2.63,2.63,0,0,0,2.38,0A.73.73,0,0,0,218.29,231.57Z"/><path class="cls-2" d="M225.48,230.45a2.63,2.63,0,0,0-2.38,0,.73.73,0,0,0,0,1.38,2.63,2.63,0,0,0,2.38,0C226.15,231.45,226.14,230.83,225.48,230.45Z"/><path class="cls-2" d="M209.19,236.86a2.63,2.63,0,0,0-2.38,0,.73.73,0,0,0,0,1.38,2.63,2.63,0,0,0,2.38,0A.73.73,0,0,0,209.19,236.86Z"/><path class="cls-2" d="M216.39,235.74a2.63,2.63,0,0,0-2.38,0c-.66.38-.65,1,0,1.38a2.63,2.63,0,0,0,2.38,0A.73.73,0,0,0,216.39,235.74Z"/><path class="cls-2" d="M200.09,242.15a2.63,2.63,0,0,0-2.38,0c-.66.38-.65,1,0,1.37a2.6,2.6,0,0,0,2.38,0A.72.72,0,0,0,200.09,242.15Z"/><path class="cls-2" d="M207.29,241a2.63,2.63,0,0,0-2.38,0,.73.73,0,0,0,0,1.38,2.63,2.63,0,0,0,2.38,0A.73.73,0,0,0,207.29,241Z"/><path class="cls-2" d="M191,247.43a2.69,2.69,0,0,0-2.38,0l1.2.69-1.2-.69a.73.73,0,0,0,0,1.38,2.63,2.63,0,0,0,2.38,0A.73.73,0,0,0,191,247.43Z"/><path class="cls-2" d="M198.18,246.32a2.6,2.6,0,0,0-2.38,0,.73.73,0,0,0,0,1.38,2.63,2.63,0,0,0,2.38,0A.73.73,0,0,0,198.18,246.32Z"/><path class="cls-2" d="M181.89,252.72a2.63,2.63,0,0,0-2.38,0,.73.73,0,0,0,0,1.38,2.63,2.63,0,0,0,2.38,0C182.56,253.72,182.55,253.1,181.89,252.72Z"/><path class="cls-2" d="M189.09,251.6a2.63,2.63,0,0,0-2.38,0,.73.73,0,0,0,0,1.38,2.6,2.6,0,0,0,2.38,0A.73.73,0,0,0,189.09,251.6Z"/><path class="cls-2" d="M172.79,258a2.63,2.63,0,0,0-2.38,0c-.66.38-.65,1,0,1.38a2.63,2.63,0,0,0,2.38,0A.73.73,0,0,0,172.79,258Z"/><path class="cls-2" d="M180,256.89a2.63,2.63,0,0,0-2.38,0,.73.73,0,0,0,0,1.38,2.63,2.63,0,0,0,2.38,0C180.65,257.89,180.64,257.27,180,256.89Z"/><path class="cls-2" d="M175.21,261.75l.86,0,.63,0h.09l-1.09-.63A.83.83,0,0,0,175.21,261.75Z"/><path class="cls-2" d="M213,228.52h0a2.61,2.61,0,0,0-2.37,0l1.19.69,1.19.68A.73.73,0,0,0,213,228.52Z"/><path class="cls-2" d="M217.82,228.78a2.63,2.63,0,0,0,2.38,0,.73.73,0,0,0,0-1.38,2.63,2.63,0,0,0-2.38,0A.73.73,0,0,0,217.82,228.78Z"/><path class="cls-2" d="M208.72,232.69c-.66.38-.66,1,0,1.37a2.6,2.6,0,0,0,2.38,0c.65-.37.65-1,0-1.37A2.6,2.6,0,0,0,208.72,232.69Z"/><path class="cls-2" d="M199.63,239.35a2.63,2.63,0,0,0,2.38,0,.72.72,0,0,0,0-1.37,2.6,2.6,0,0,0-2.38,0A.72.72,0,0,0,199.63,239.35Z"/><path class="cls-2" d="M203.9,235.18a.72.72,0,0,0,0-1.37h0a2.6,2.6,0,0,0-2.38,0l1.2.69-1.19.69A2.61,2.61,0,0,0,203.9,235.18Z"/><path class="cls-2" d="M190.52,244.64a2.63,2.63,0,0,0,2.38,0,.72.72,0,0,0,0-1.37,2.57,2.57,0,0,0-2.38,0A.72.72,0,0,0,190.52,244.64Z"/><path class="cls-2" d="M194.81,240.47a.73.73,0,0,0,0-1.38l-1.19.69-1.19-.69c-.66.39-.66,1,0,1.38h0A2.61,2.61,0,0,0,194.81,240.47Z"/><path class="cls-2" d="M181.43,249.93a2.63,2.63,0,0,0,2.38,0,.73.73,0,0,0,0-1.38,2.63,2.63,0,0,0-2.38,0C180.76,248.94,180.76,249.55,181.43,249.93Z"/><path class="cls-2" d="M185.71,245.76c.65-.38.65-1,0-1.38h0a2.63,2.63,0,0,0-2.38,0,.73.73,0,0,0,0,1.38h0l1.19-.69-1.19.69A2.63,2.63,0,0,0,185.71,245.76Z"/><path class="cls-2" d="M167.51,255l-1.19.69-1.19-.69a.72.72,0,0,0,0,1.37h0a2.6,2.6,0,0,0,2.38,0A.73.73,0,0,0,167.51,255Z"/><path class="cls-2" d="M174.7,253.84a2.63,2.63,0,0,0-2.38,0,.73.73,0,0,0,0,1.38,2.63,2.63,0,0,0,2.38,0A.73.73,0,0,0,174.7,253.84Z"/><path class="cls-2" d="M176.6,251.05c.66-.38.66-1,0-1.38h0a2.63,2.63,0,0,0-2.38,0l1.2.69-1.19.69A2.61,2.61,0,0,0,176.6,251.05Z"/><path class="cls-2" d="M165.6,259.13a2.63,2.63,0,0,0-2.38,0l-.13.09.21.11c.2.1.42.19.63.28s.51.23.77.33l.67.25.46.16C166.25,260,166.17,259.46,165.6,259.13Z"/><path class="cls-2" d="M212.53,225.72a2.6,2.6,0,0,0,2.38,0c.66-.38.66-1,0-1.38a2.63,2.63,0,0,0-2.38,0A.73.73,0,0,0,212.53,225.72Z"/><path class="cls-2" d="M219.73,224.6h0l1.18-.69-1.18.69a2.61,2.61,0,0,0,2.37,0,.72.72,0,0,0,0-1.37h0a2.61,2.61,0,0,0-2.37,0A.72.72,0,0,0,219.73,224.6Z"/><path class="cls-2" d="M205.82,231a.73.73,0,0,0,0-1.38,2.63,2.63,0,0,0-2.38,0c-.66.38-.65,1,0,1.38A2.63,2.63,0,0,0,205.82,231Z"/><path class="cls-2" d="M210.63,229.89h0a2.63,2.63,0,0,0,2.38,0l-1.19-.68-1.19-.69A.72.72,0,0,0,210.63,229.89Z"/><path class="cls-2" d="M207.72,226.84a.73.73,0,0,0,0-1.38,2.63,2.63,0,0,0-2.38,0l1.2.69-1.2-.69a.73.73,0,0,0,0,1.38A2.63,2.63,0,0,0,207.72,226.84Z"/><path class="cls-2" d="M194.8,239.09a2.61,2.61,0,0,0-2.37,0l1.19.69,1.19-.69Z"/><path class="cls-2" d="M196.71,236.3a.73.73,0,0,0,0-1.38,2.63,2.63,0,0,0-2.38,0,.73.73,0,0,0,0,1.38A2.63,2.63,0,0,0,196.71,236.3Z"/><path class="cls-2" d="M201.52,235.18h0l1.19-.69-1.2-.69A.73.73,0,0,0,201.52,235.18Z"/><path class="cls-2" d="M198.62,232.13c.66-.38.65-1,0-1.38l-1.19.69,1.19-.69a2.63,2.63,0,0,0-2.38,0,.73.73,0,0,0,0,1.38A2.63,2.63,0,0,0,198.62,232.13Z"/><path class="cls-2" d="M187.61,241.59a.73.73,0,0,0,0-1.38,2.63,2.63,0,0,0-2.38,0,.73.73,0,0,0,0,1.38A2.63,2.63,0,0,0,187.61,241.59Z"/><path class="cls-2" d="M189.52,237.42c.66-.38.65-1,0-1.38l-1.18.69-1.19.69A2.63,2.63,0,0,0,189.52,237.42Z"/><path class="cls-2" d="M178.51,246.87a.72.72,0,0,0,0-1.37,2.63,2.63,0,0,0-2.38,0,.72.72,0,0,0,0,1.37A2.57,2.57,0,0,0,178.51,246.87Z"/><path class="cls-2" d="M180.42,242.71a.73.73,0,0,0,0-1.38,2.63,2.63,0,0,0-2.38,0,.73.73,0,0,0,0,1.38A2.63,2.63,0,0,0,180.42,242.71Z"/><path class="cls-2" d="M167.5,255a2.64,2.64,0,0,0-2.37,0l1.19.69,1.19-.69Z"/><path class="cls-2" d="M162.21,251.9a2.63,2.63,0,0,0-2.38,0l1.2.69-1.2-.69a.73.73,0,0,0,0,1.38,2.63,2.63,0,0,0,2.38,0A.73.73,0,0,0,162.21,251.9Z"/><path class="cls-2" d="M169.4,250.79a2.63,2.63,0,0,0-2.38,0,.72.72,0,0,0,0,1.37,2.6,2.6,0,0,0,2.38,0C170.07,251.78,170.07,251.17,169.4,250.79Z"/><path class="cls-2" d="M174.22,251.05h0l1.19-.69-1.2-.69A.73.73,0,0,0,174.22,251.05Z"/><path class="cls-2" d="M160.3,256.08a2.6,2.6,0,0,0-2.38,0l-.17.11.29.16,2.07,1.2.2-.1C161,257.07,161,256.46,160.3,256.08Z"/><path class="cls-2" d="M207.25,222.67a2.63,2.63,0,0,0,2.38,0c.66-.38.65-1,0-1.38a2.63,2.63,0,0,0-2.38,0C206.58,221.67,206.59,222.29,207.25,222.67Z"/><path class="cls-2" d="M214.44,221.55a2.63,2.63,0,0,0,2.38,0l-1.19-.69,1.19.69a.73.73,0,0,0,0-1.38,2.63,2.63,0,0,0-2.38,0A.73.73,0,0,0,214.44,221.55Z"/><path class="cls-2" d="M200.53,228a.73.73,0,0,0,0-1.38,2.63,2.63,0,0,0-2.38,0c-.66.38-.65,1,0,1.38A2.63,2.63,0,0,0,200.53,228Z"/><path class="cls-2" d="M202.43,223.79a.73.73,0,0,0,0-1.38,2.63,2.63,0,0,0-2.38,0,.73.73,0,0,0,0,1.38A2.63,2.63,0,0,0,202.43,223.79Z"/><path class="cls-2" d="M187.13,236c-.66.38-.65,1,0,1.38l1.19-.69,1.18-.69A2.63,2.63,0,0,0,187.13,236Z"/><path class="cls-2" d="M191.43,233.25a.73.73,0,0,0,0-1.38,2.63,2.63,0,0,0-2.38,0,.73.73,0,0,0,0,1.38A2.63,2.63,0,0,0,191.43,233.25Z"/><path class="cls-2" d="M182.32,238.54a.73.73,0,0,0,0-1.38,2.6,2.6,0,0,0-2.38,0,.73.73,0,0,0,0,1.38A2.63,2.63,0,0,0,182.32,238.54Z"/><path class="cls-2" d="M173.23,243.82a.73.73,0,0,0,0-1.38,2.63,2.63,0,0,0-2.38,0,.73.73,0,0,0,0,1.38A2.6,2.6,0,0,0,173.23,243.82Z"/><path class="cls-2" d="M175.13,239.65a.73.73,0,0,0,0-1.38,2.66,2.66,0,0,0-2.38,0,.73.73,0,0,0,0,1.38A2.63,2.63,0,0,0,175.13,239.65Z"/><path class="cls-2" d="M156.93,248.85l-1.19.69,1.19.69A.73.73,0,0,0,156.93,248.85Z"/><path class="cls-2" d="M164.12,247.73a2.63,2.63,0,0,0-2.38,0c-.66.38-.65,1,0,1.38a2.63,2.63,0,0,0,2.38,0A.73.73,0,0,0,164.12,247.73Z"/><path class="cls-2" d="M168.94,248a2.69,2.69,0,0,0,2.38,0,.73.73,0,0,0,0-1.38,2.6,2.6,0,0,0-2.38,0l1.19.69-1.19-.69A.73.73,0,0,0,168.94,248Z"/><path class="cls-2" d="M166,244.94c.66-.38.65-1,0-1.38a2.63,2.63,0,0,0-2.38,0,.73.73,0,0,0,0,1.38l1.19-.69-1.19.69A2.63,2.63,0,0,0,166,244.94Z"/><path class="cls-2" d="M155,253a2.63,2.63,0,0,0-2.38,0l-.17.12,2.36,1.36.19-.1A.73.73,0,0,0,155,253Z"/><path class="cls-2" d="M156.93,250.23l-1.19-.69-1.19.69A2.63,2.63,0,0,0,156.93,250.23Z"/><path class="cls-2" d="M202,219.62a2.63,2.63,0,0,0,2.38,0c.66-.38.65-1,0-1.38a2.63,2.63,0,0,0-2.38,0A.73.73,0,0,0,202,219.62Z"/><path class="cls-2" d="M209.16,218.5a2.63,2.63,0,0,0,2.38,0,.73.73,0,0,0,0-1.38,2.63,2.63,0,0,0-2.38,0C208.49,217.5,208.5,218.12,209.16,218.5Z"/><path class="cls-2" d="M190.94,227.7a.73.73,0,0,0,0,1.38,2.63,2.63,0,0,0,2.38,0,.73.73,0,0,0,0-1.38A2.63,2.63,0,0,0,190.94,227.7Z"/><path class="cls-2" d="M192.86,223.53a.72.72,0,0,0,0,1.37,2.6,2.6,0,0,0,2.38,0c.66-.37.65-1,0-1.37A2.63,2.63,0,0,0,192.86,223.53Z"/><path class="cls-2" d="M197.14,220.73a.72.72,0,0,0,0-1.37,2.6,2.6,0,0,0-2.38,0c-.65.38-.66,1,0,1.38A2.61,2.61,0,0,0,197.14,220.73Z"/><path class="cls-2" d="M181.85,233a.73.73,0,0,0,0,1.38,2.6,2.6,0,0,0,2.38,0,.73.73,0,0,0,0-1.38A2.69,2.69,0,0,0,181.85,233Z"/><path class="cls-2" d="M186.14,230.19a.72.72,0,0,0,0-1.37,2.63,2.63,0,0,0-2.38,0,.72.72,0,0,0,0,1.37A2.63,2.63,0,0,0,186.14,230.19Z"/><path class="cls-2" d="M174.66,235.48a2.63,2.63,0,0,0,2.38,0c.66-.38.65-1,0-1.37a2.6,2.6,0,0,0-2.38,0A.72.72,0,0,0,174.66,235.48Z"/><path class="cls-2" d="M178.94,231.31a.73.73,0,0,0,0-1.38l-1.18.69,1.18-.69a2.63,2.63,0,0,0-2.38,0,.73.73,0,0,0,0,1.38A2.61,2.61,0,0,0,178.94,231.31Z"/><path class="cls-2" d="M167.94,240.77c.66-.38.65-1,0-1.38a2.63,2.63,0,0,0-2.38,0,.73.73,0,0,0,0,1.38A2.63,2.63,0,0,0,167.94,240.77Z"/><path class="cls-2" d="M169.84,236.6a.73.73,0,0,0,0-1.38,2.63,2.63,0,0,0-2.38,0,.73.73,0,0,0,0,1.38A2.61,2.61,0,0,0,169.84,236.6Z"/><path class="cls-2" d="M154.55,248.85l1.19.69,1.19-.69A2.63,2.63,0,0,0,154.55,248.85Z"/><path class="cls-2" d="M151.64,245.8a2.6,2.6,0,0,0-2.38,0c-.66.38-.66,1,0,1.38a2.58,2.58,0,0,0,2.37,0A.72.72,0,0,0,151.64,245.8Z"/><path class="cls-2" d="M158.83,244.68a2.63,2.63,0,0,0-2.38,0,.73.73,0,0,0,0,1.38,2.63,2.63,0,0,0,2.38,0A.73.73,0,0,0,158.83,244.68Z"/><path class="cls-2" d="M149.73,250a2.63,2.63,0,0,0-2.38,0l-.17.12,2.36,1.36.2-.1C150.4,251,150.39,250.35,149.73,250Z"/><path class="cls-2" d="M154.55,250.23l1.19-.69-1.19-.69A.73.73,0,0,0,154.55,250.23Z"/><path class="cls-2" d="M191.85,216.3a2.63,2.63,0,0,0-2.38,0,.73.73,0,0,0,0,1.38,2.63,2.63,0,0,0,2.38,0A.73.73,0,0,0,191.85,216.3Z"/><path class="cls-2" d="M196.67,216.56a2.6,2.6,0,0,0,2.38,0c.66-.38.65-1,0-1.38a2.6,2.6,0,0,0-2.38,0A.72.72,0,0,0,196.67,216.56Z"/><path class="cls-2" d="M203.87,215.45a2.58,2.58,0,0,0,2.37,0l-1.18-.68,1.18.68a.72.72,0,0,0,0-1.37,2.6,2.6,0,0,0-2.38,0C203.2,214.45,203.21,215.06,203.87,215.45Z"/><path class="cls-2" d="M185.66,224.65c-.66.38-.66,1,0,1.38a2.61,2.61,0,0,0,2.37,0,.72.72,0,0,0,0-1.37A2.57,2.57,0,0,0,185.66,224.65Z"/><path class="cls-2" d="M187.57,220.47c-.66.39-.66,1,0,1.38a2.63,2.63,0,0,0,2.38,0,.73.73,0,0,0,0-1.38A2.61,2.61,0,0,0,187.57,220.47Z"/><path class="cls-2" d="M180.85,227.14a.73.73,0,0,0,0-1.38,2.61,2.61,0,0,0-2.37,0,.73.73,0,0,0,0,1.38A2.63,2.63,0,0,0,180.85,227.14Z"/><path class="cls-2" d="M169.37,232.43a2.63,2.63,0,0,0,2.38,0,.73.73,0,0,0,0-1.38,2.63,2.63,0,0,0-2.38,0A.73.73,0,0,0,169.37,232.43Z"/><path class="cls-2" d="M173.66,228.26a.73.73,0,0,0,0-1.38l-1.19.69,1.19-.69a2.63,2.63,0,0,0-2.38,0c-.66.38-.65,1,0,1.38A2.63,2.63,0,0,0,173.66,228.26Z"/><path class="cls-2" d="M162.65,237.71a.72.72,0,0,0,0-1.37,2.61,2.61,0,0,0-2.37,0,.72.72,0,0,0,0,1.37A2.57,2.57,0,0,0,162.65,237.71Z"/><path class="cls-2" d="M164.55,233.55l-1.19-.69,1.19.69a.73.73,0,0,0,0-1.38,2.63,2.63,0,0,0-2.38,0,.73.73,0,0,0,0,1.38A2.69,2.69,0,0,0,164.55,233.55Z"/><path class="cls-2" d="M146.35,242.74a2.63,2.63,0,0,0-2.38,0,.73.73,0,0,0,0,1.38,2.63,2.63,0,0,0,2.38,0A.73.73,0,0,0,146.35,242.74Z"/><path class="cls-2" d="M153.54,241.63a2.61,2.61,0,0,0-2.37,0,.72.72,0,0,0,0,1.37,2.6,2.6,0,0,0,2.38,0A.72.72,0,0,0,153.54,241.63Z"/><path class="cls-2" d="M158.36,241.89a2.63,2.63,0,0,0,2.38,0,.73.73,0,0,0,0-1.38,2.63,2.63,0,0,0-2.38,0A.73.73,0,0,0,158.36,241.89Z"/><path class="cls-2" d="M144.44,246.92a2.63,2.63,0,0,0-2.38,0l-.17.11,1.49.86.87.5.19-.1A.72.72,0,0,0,144.44,246.92Z"/><path class="cls-2" d="M191.38,213.51a2.63,2.63,0,0,0,2.38,0c.66-.38.65-1,0-1.38a2.63,2.63,0,0,0-2.38,0A.73.73,0,0,0,191.38,213.51Z"/><path class="cls-2" d="M198.58,212.39a2.63,2.63,0,0,0,2.38,0l-1.2-.69,1.2.69a.73.73,0,0,0,0-1.38,2.63,2.63,0,0,0-2.38,0C197.91,211.39,197.92,212,198.58,212.39Z"/><path class="cls-2" d="M180.36,221.59a.73.73,0,0,0,0,1.38,2.63,2.63,0,0,0,2.38,0c.66-.38.65-1,0-1.38A2.63,2.63,0,0,0,180.36,221.59Z"/><path class="cls-2" d="M182.28,217.42a.73.73,0,0,0,0,1.38,2.63,2.63,0,0,0,2.38,0,.73.73,0,0,0,0-1.38A2.63,2.63,0,0,0,182.28,217.42Z"/><path class="cls-2" d="M175.56,224.09a.73.73,0,0,0,0-1.38,2.63,2.63,0,0,0-2.38,0,.73.73,0,0,0,0,1.38A2.63,2.63,0,0,0,175.56,224.09Z"/><path class="cls-2" d="M164.08,229.38a2.63,2.63,0,0,0,2.38,0,.73.73,0,0,0,0-1.38,2.6,2.6,0,0,0-2.38,0A.73.73,0,0,0,164.08,229.38Z"/><path class="cls-2" d="M168.37,225.2a.73.73,0,0,0,0-1.38,2.69,2.69,0,0,0-2.38,0,.73.73,0,0,0,0,1.38A2.6,2.6,0,0,0,168.37,225.2Z"/><path class="cls-2" d="M157.36,234.66c.66-.38.65-1,0-1.38a2.63,2.63,0,0,0-2.38,0,.73.73,0,0,0,0,1.38A2.6,2.6,0,0,0,157.36,234.66Z"/><path class="cls-2" d="M159.27,230.49a.73.73,0,0,0,0-1.38,2.63,2.63,0,0,0-2.38,0,.73.73,0,0,0,0,1.38A2.63,2.63,0,0,0,159.27,230.49Z"/><path class="cls-2" d="M141.06,239.69l-1.19.69,1.19-.69a2.63,2.63,0,0,0-2.38,0c-.66.38-.65,1,0,1.38a2.63,2.63,0,0,0,2.38,0A.73.73,0,0,0,141.06,239.69Z"/><path class="cls-2" d="M148.25,238.57a2.63,2.63,0,0,0-2.38,0,.73.73,0,0,0,0,1.38,2.63,2.63,0,0,0,2.38,0A.73.73,0,0,0,148.25,238.57Z"/><path class="cls-2" d="M153.07,238.84a2.69,2.69,0,0,0,2.38,0,.73.73,0,0,0,0-1.38,2.6,2.6,0,0,0-2.38,0A.73.73,0,0,0,153.07,238.84Z"/><path class="cls-2" d="M150.16,235.78a.73.73,0,0,0,0-1.38l-1.19.69-1.19.69A2.63,2.63,0,0,0,150.16,235.78Z"/><path class="cls-2" d="M139.15,243.86a2.63,2.63,0,0,0-2.38,0l-.17.12,2.36,1.36.2-.1C139.82,244.86,139.81,244.24,139.15,243.86Z"/><path class="cls-2" d="M181.27,210.2a2.6,2.6,0,0,0-2.38,0c-.65.38-.65,1,0,1.38a2.63,2.63,0,0,0,2.38,0C181.94,211.2,181.93,210.58,181.27,210.2Z"/><path class="cls-2" d="M186.09,210.46a2.63,2.63,0,0,0,2.38,0,.73.73,0,0,0,0-1.38,2.63,2.63,0,0,0-2.38,0A.73.73,0,0,0,186.09,210.46Z"/><path class="cls-2" d="M193.29,209.34a2.63,2.63,0,0,0,2.38,0l-1.19-.69,1.19.69a.73.73,0,0,0,0-1.38,2.63,2.63,0,0,0-2.38,0C192.62,208.34,192.63,209,193.29,209.34Z"/><path class="cls-2" d="M175.08,218.54c-.66.38-.65,1,0,1.38a2.63,2.63,0,0,0,2.38,0,.73.73,0,0,0,0-1.38A2.63,2.63,0,0,0,175.08,218.54Z"/><path class="cls-2" d="M177,214.37c-.66.38-.65,1,0,1.37a2.6,2.6,0,0,0,2.38,0,.72.72,0,0,0,0-1.37A2.63,2.63,0,0,0,177,214.37Z"/><path class="cls-2" d="M184.19,214.63a2.63,2.63,0,0,0,2.38,0,.73.73,0,0,0,0-1.38,2.63,2.63,0,0,0-2.38,0l1.19.69-1.19-.69A.73.73,0,0,0,184.19,214.63Z"/><path class="cls-2" d="M170.27,221a.72.72,0,0,0,0-1.37,2.63,2.63,0,0,0-2.38,0,.72.72,0,0,0,0,1.37A2.63,2.63,0,0,0,170.27,221Z"/><path class="cls-2" d="M158.79,226.32a2.63,2.63,0,0,0,2.38,0c.66-.38.65-1,0-1.37a2.6,2.6,0,0,0-2.38,0A.72.72,0,0,0,158.79,226.32Z"/><path class="cls-2" d="M163.08,222.15a.73.73,0,0,0,0-1.38,2.63,2.63,0,0,0-2.38,0c-.66.39-.66,1,0,1.38A2.63,2.63,0,0,0,163.08,222.15Z"/><path class="cls-2" d="M147.78,234.4a.73.73,0,0,0,0,1.38l1.19-.69,1.19-.69A2.63,2.63,0,0,0,147.78,234.4Z"/><path class="cls-2" d="M152.08,231.61a.73.73,0,0,0,0-1.38,2.63,2.63,0,0,0-2.38,0c-.66.38-.65,1,0,1.38A2.63,2.63,0,0,0,152.08,231.61Z"/><path class="cls-2" d="M154,227.44l-1.19-.69,1.19.69a.73.73,0,0,0,0-1.38,2.63,2.63,0,0,0-2.38,0,.73.73,0,0,0,0,1.38A2.63,2.63,0,0,0,154,227.44Z"/><path class="cls-2" d="M135.77,236.64a2.6,2.6,0,0,0-2.38,0c-.66.38-.65,1,0,1.38a2.63,2.63,0,0,0,2.38,0C136.44,237.64,136.43,237,135.77,236.64Z"/><path class="cls-2" d="M143,235.52a2.63,2.63,0,0,0-2.38,0,.73.73,0,0,0,0,1.38,2.63,2.63,0,0,0,2.38,0A.73.73,0,0,0,143,235.52Z"/><path class="cls-2" d="M133.86,240.81a2.63,2.63,0,0,0-2.38,0l-.17.12.84.48,1.52.88.2-.1C134.53,241.81,134.52,241.19,133.86,240.81Z"/><path class="cls-2" d="M176,207.14a2.63,2.63,0,0,0-2.38,0,.73.73,0,0,0,0,1.38,2.63,2.63,0,0,0,2.38,0A.73.73,0,0,0,176,207.14Z"/><path class="cls-2" d="M180.8,207.4a2.6,2.6,0,0,0,2.38,0c.66-.38.66-1,0-1.38a2.58,2.58,0,0,0-2.37,0A.72.72,0,0,0,180.8,207.4Z"/><path class="cls-2" d="M188,206.29a2.63,2.63,0,0,0,2.38,0,.73.73,0,0,0,0-1.38,2.6,2.6,0,0,0-2.38,0C187.34,205.29,187.34,205.9,188,206.29Z"/><path class="cls-2" d="M169.79,215.49c-.65.38-.65,1,0,1.38a2.69,2.69,0,0,0,2.38,0,.73.73,0,0,0,0-1.38A2.57,2.57,0,0,0,169.79,215.49Z"/><path class="cls-2" d="M171.7,211.31a.73.73,0,0,0,0,1.38,2.63,2.63,0,0,0,2.38,0,.73.73,0,0,0,0-1.38A2.63,2.63,0,0,0,171.7,211.31Z"/><path class="cls-2" d="M165,218a.73.73,0,0,0,0-1.38,2.61,2.61,0,0,0-2.37,0,.73.73,0,0,0,0,1.38A2.63,2.63,0,0,0,165,218Z"/><path class="cls-2" d="M153.5,223.27a2.63,2.63,0,0,0,2.38,0c.66-.39.66-1,0-1.38a2.61,2.61,0,0,0-2.37,0A.73.73,0,0,0,153.5,223.27Z"/><path class="cls-2" d="M157.79,219.1a.73.73,0,0,0,0-1.38,2.63,2.63,0,0,0-2.38,0c-.66.38-.65,1,0,1.38A2.63,2.63,0,0,0,157.79,219.1Z"/><path class="cls-2" d="M146.78,228.55a.72.72,0,0,0,0-1.37,2.63,2.63,0,0,0-2.38,0,.72.72,0,0,0,0,1.37A2.57,2.57,0,0,0,146.78,228.55Z"/><path class="cls-2" d="M148.69,224.39l-1.2-.69,1.2.69a.73.73,0,0,0,0-1.38,2.63,2.63,0,0,0-2.38,0,.73.73,0,0,0,0,1.38A2.66,2.66,0,0,0,148.69,224.39Z"/><path class="cls-2" d="M130.48,233.58a2.63,2.63,0,0,0-2.38,0,.73.73,0,0,0,0,1.38,2.63,2.63,0,0,0,2.38,0C131.14,234.58,131.15,234,130.48,233.58Z"/><path class="cls-2" d="M137.67,232.47a2.61,2.61,0,0,0-2.37,0,.72.72,0,0,0,0,1.37,2.6,2.6,0,0,0,2.38,0A.72.72,0,0,0,137.67,232.47Z"/><path class="cls-2" d="M142.5,232.73a2.63,2.63,0,0,0,2.38,0c.66-.38.65-1,0-1.38a2.63,2.63,0,0,0-2.38,0A.73.73,0,0,0,142.5,232.73Z"/><path class="cls-2" d="M128.57,237.76a2.61,2.61,0,0,0-2.37,0l-.17.11,2.35,1.36.2-.1C129.24,238.75,129.23,238.14,128.57,237.76Z"/><path class="cls-2" d="M170.69,204.09a2.63,2.63,0,0,0-2.38,0,.73.73,0,0,0,0,1.38,2.63,2.63,0,0,0,2.38,0C171.36,205.09,171.35,204.47,170.69,204.09Z"/><path class="cls-2" d="M175.51,204.35a2.63,2.63,0,0,0,2.38,0,.73.73,0,0,0,0-1.38,2.63,2.63,0,0,0-2.38,0A.73.73,0,0,0,175.51,204.35Z"/><path class="cls-2" d="M182.71,203.23a2.63,2.63,0,0,0,2.38,0,.73.73,0,0,0,0-1.38,2.63,2.63,0,0,0-2.38,0C182,202.23,182.05,202.85,182.71,203.23Z"/><path class="cls-2" d="M164.5,212.43a.73.73,0,0,0,0,1.38,2.63,2.63,0,0,0,2.38,0c.66-.38.65-1,0-1.38A2.63,2.63,0,0,0,164.5,212.43Z"/><path class="cls-2" d="M166.41,208.26c-.66.38-.65,1,0,1.38a2.63,2.63,0,0,0,2.38,0,.73.73,0,0,0,0-1.38A2.63,2.63,0,0,0,166.41,208.26Z"/><path class="cls-2" d="M159.7,214.93a.73.73,0,0,0,0-1.38,2.63,2.63,0,0,0-2.38,0c-.66.38-.65,1,0,1.38A2.63,2.63,0,0,0,159.7,214.93Z"/><path class="cls-2" d="M148.21,220.22a2.63,2.63,0,0,0,2.38,0,.73.73,0,0,0,0-1.38,2.62,2.62,0,0,0-2.39,0A.73.73,0,0,0,148.21,220.22Z"/><path class="cls-2" d="M152.5,216a.73.73,0,0,0,0-1.38l-1.19.69,1.19-.69a2.63,2.63,0,0,0-2.38,0,.73.73,0,0,0,0,1.38A2.6,2.6,0,0,0,152.5,216Z"/><path class="cls-2" d="M141.5,225.5a.73.73,0,0,0,0-1.38,2.63,2.63,0,0,0-2.38,0,.73.73,0,0,0,0,1.38A2.6,2.6,0,0,0,141.5,225.5Z"/><path class="cls-2" d="M143.4,221.33a.73.73,0,0,0,0-1.38,2.63,2.63,0,0,0-2.38,0,.73.73,0,0,0,0,1.38A2.63,2.63,0,0,0,143.4,221.33Z"/><path class="cls-2" d="M125.2,230.53a2.63,2.63,0,0,0-2.38,0l1.19.69-1.19-.69a.73.73,0,0,0,0,1.38,2.63,2.63,0,0,0,2.38,0A.73.73,0,0,0,125.2,230.53Z"/><path class="cls-2" d="M132.39,229.41a2.63,2.63,0,0,0-2.38,0,.73.73,0,0,0,0,1.38,2.63,2.63,0,0,0,2.38,0A.73.73,0,0,0,132.39,229.41Z"/><path class="cls-2" d="M137.21,229.67a2.6,2.6,0,0,0,2.38,0c.66-.38.65-1,0-1.37a2.6,2.6,0,0,0-2.38,0A.72.72,0,0,0,137.21,229.67Z"/><path class="cls-2" d="M123.28,234.7a2.63,2.63,0,0,0-2.38,0l-.17.12,2.36,1.36.2-.1C124,235.7,123.94,235.08,123.28,234.7Z"/><path class="cls-2" d="M170.23,201.3a2.63,2.63,0,0,0,2.38,0,.73.73,0,0,0,0-1.38,2.63,2.63,0,0,0-2.38,0A.73.73,0,0,0,170.23,201.3Z"/><path class="cls-2" d="M177.42,200.18a2.63,2.63,0,0,0,2.38,0l-1.19-.69,1.19.69a.73.73,0,0,0,0-1.38,2.63,2.63,0,0,0-2.38,0A.73.73,0,0,0,177.42,200.18Z"/><path class="cls-2" d="M159.21,209.38a.73.73,0,0,0,0,1.38,2.63,2.63,0,0,0,2.38,0,.73.73,0,0,0,0-1.38l-1.18.69,1.18-.69A2.63,2.63,0,0,0,159.21,209.38Z"/><path class="cls-2" d="M161.12,205.21c-.66.38-.65,1,0,1.37a2.6,2.6,0,0,0,2.38,0,.72.72,0,0,0,0-1.37A2.63,2.63,0,0,0,161.12,205.21Z"/><path class="cls-2" d="M154.41,211.87a.72.72,0,0,0,0-1.37,2.63,2.63,0,0,0-2.38,0,.72.72,0,0,0,0,1.37A2.63,2.63,0,0,0,154.41,211.87Z"/><path class="cls-2" d="M142.93,217.16a2.63,2.63,0,0,0,2.38,0,.72.72,0,0,0,0-1.37,2.6,2.6,0,0,0-2.38,0C142.27,216.16,142.27,216.78,142.93,217.16Z"/><path class="cls-2" d="M147.22,213a.73.73,0,0,0,0-1.38,2.63,2.63,0,0,0-2.38,0,.73.73,0,0,0,0,1.38A2.63,2.63,0,0,0,147.22,213Z"/><path class="cls-2" d="M136.21,222.45a.73.73,0,0,0,0-1.38,2.63,2.63,0,0,0-2.38,0c-.66.38-.65,1,0,1.38A2.63,2.63,0,0,0,136.21,222.45Z"/><path class="cls-2" d="M138.12,218.28a.73.73,0,0,0,0-1.38,2.63,2.63,0,0,0-2.38,0,.73.73,0,0,0,0,1.38A2.65,2.65,0,0,0,138.12,218.28Z"/><path class="cls-2" d="M119.91,227.48l-1.19.69,1.2.69A.73.73,0,0,0,119.91,227.48Z"/><path class="cls-2" d="M127.1,226.36a2.63,2.63,0,0,0-2.38,0,.73.73,0,0,0,0,1.38,2.63,2.63,0,0,0,2.38,0A.73.73,0,0,0,127.1,226.36Z"/><path class="cls-2" d="M131.92,226.62a2.63,2.63,0,0,0,2.38,0c.66-.38.65-1,0-1.38a2.63,2.63,0,0,0-2.38,0l1.2.69-1.2-.69A.73.73,0,0,0,131.92,226.62Z"/><path class="cls-2" d="M129,223.57c.66-.38.65-1,0-1.38a2.63,2.63,0,0,0-2.38,0,.73.73,0,0,0,0,1.38l1.19-.69-1.19.69A2.63,2.63,0,0,0,129,223.57Z"/><path class="cls-2" d="M118,231.65a2.63,2.63,0,0,0-2.38,0l-.17.12,1.82,1,.54.31.2-.1C118.67,232.65,118.66,232,118,231.65Z"/><path class="cls-2" d="M160.12,198h0a2.63,2.63,0,0,0-2.38,0,.73.73,0,0,0,0,1.38h0a2.61,2.61,0,0,0,2.37,0A.73.73,0,0,0,160.12,198Z"/><path class="cls-2" d="M164.94,198.25a2.63,2.63,0,0,0,2.38,0,.73.73,0,0,0,0-1.38,2.57,2.57,0,0,0-2.38,0C164.28,197.25,164.28,197.86,164.94,198.25Z"/><path class="cls-2" d="M172.14,197.13a2.63,2.63,0,0,0,2.38,0,.73.73,0,0,0,0-1.38,2.63,2.63,0,0,0-2.38,0C171.47,196.13,171.48,196.75,172.14,197.13Z"/><path class="cls-2" d="M169.23,194.07c.65-.38.65-1,0-1.38l-1.18.69-1.19.69A2.63,2.63,0,0,0,169.23,194.07Z"/><path class="cls-2" d="M153.93,206.33a.73.73,0,0,0,0,1.38,2.69,2.69,0,0,0,2.38,0,.73.73,0,0,0,0-1.38A2.6,2.6,0,0,0,153.93,206.33Z"/><path class="cls-2" d="M155.84,202.15c-.66.39-.66,1,0,1.38a2.6,2.6,0,0,0,2.38,0,.73.73,0,0,0,0-1.38A2.63,2.63,0,0,0,155.84,202.15Z"/><path class="cls-2" d="M163,202.42a2.69,2.69,0,0,0,2.38,0,.73.73,0,0,0,0-1.38,2.63,2.63,0,0,0-2.38,0l1.19.69L163,201C162.37,201.42,162.38,202,163,202.42Z"/><path class="cls-2" d="M141.92,208.56h0a2.63,2.63,0,0,0-2.38,0l1.2.69,1.18.69A.73.73,0,0,0,141.92,208.56Z"/><path class="cls-2" d="M149.12,208.82c.66-.38.65-1,0-1.38a2.63,2.63,0,0,0-2.38,0,.73.73,0,0,0,0,1.38A2.63,2.63,0,0,0,149.12,208.82Z"/><path class="cls-2" d="M137.64,214.11a2.63,2.63,0,0,0,2.38,0c.66-.38.65-1,0-1.38a2.63,2.63,0,0,0-2.38,0A.73.73,0,0,0,137.64,214.11Z"/><path class="cls-2" d="M130.92,219.4a.73.73,0,0,0,0-1.38,2.63,2.63,0,0,0-2.38,0c-.66.38-.66,1,0,1.38A2.63,2.63,0,0,0,130.92,219.4Z"/><path class="cls-2" d="M132.82,215.22a.72.72,0,0,0,0-1.37h0a2.61,2.61,0,0,0-2.37,0c-.65.38-.66,1,0,1.37h0A2.61,2.61,0,0,0,132.82,215.22Z"/><path class="cls-2" d="M117.53,227.48l1.19.69,1.19-.69A2.63,2.63,0,0,0,117.53,227.48Z"/><path class="cls-2" d="M114.62,224.43h0a2.63,2.63,0,0,0-2.38,0,.72.72,0,0,0,0,1.37h0l1.19-.68,1.18.68A.72.72,0,0,0,114.62,224.43Z"/><path class="cls-2" d="M121.81,223.31a2.63,2.63,0,0,0-2.38,0c-.65.38-.65,1,0,1.38a2.63,2.63,0,0,0,2.38,0A.73.73,0,0,0,121.81,223.31Z"/><path class="cls-2" d="M112.71,228.6a2.63,2.63,0,0,0-2.38,0l-.17.11,2.36,1.37.2-.1A.73.73,0,0,0,112.71,228.6Z"/><path class="cls-2" d="M117.54,228.86a2.63,2.63,0,0,0,2.38,0l-1.2-.69-1.19-.69C116.87,227.86,116.88,228.48,117.54,228.86Z"/><path class="cls-2" d="M114.62,225.8l-1.18-.68-1.19.68A2.61,2.61,0,0,0,114.62,225.8Z"/><path class="cls-2" d="M154.83,194.93a2.63,2.63,0,0,0-2.38,0,.73.73,0,0,0,0,1.38,2.63,2.63,0,0,0,2.38,0A.73.73,0,0,0,154.83,194.93Z"/><path class="cls-2" d="M159.65,195.19a2.63,2.63,0,0,0,2.38,0c.66-.38.65-1,0-1.38a2.63,2.63,0,0,0-2.38,0A.73.73,0,0,0,159.65,195.19Z"/><path class="cls-2" d="M166.85,194.07h0l1.19-.69,1.18-.69h0a2.66,2.66,0,0,0-2.38,0A.73.73,0,0,0,166.85,194.07Z"/><path class="cls-2" d="M148.64,203.27l1.19.69,1.19-.69h0A2.61,2.61,0,0,0,148.64,203.27Z"/><path class="cls-2" d="M150.54,199.1c-.66.38-.65,1,0,1.38a2.63,2.63,0,0,0,2.38,0,.73.73,0,0,0,0-1.38A2.63,2.63,0,0,0,150.54,199.1Z"/><path class="cls-2" d="M143.83,205.77a.73.73,0,0,0,0-1.38,2.63,2.63,0,0,0-2.38,0,.73.73,0,0,0,0,1.38A2.63,2.63,0,0,0,143.83,205.77Z"/><path class="cls-2" d="M148.64,204.65h0a2.61,2.61,0,0,0,2.37,0c.66-.38.66-1,0-1.38l-1.19.69-1.19-.69A.73.73,0,0,0,148.64,204.65Z"/><path class="cls-2" d="M132.35,211.06a2.63,2.63,0,0,0,2.38,0,.73.73,0,0,0,0-1.38,2.6,2.6,0,0,0-2.38,0A.73.73,0,0,0,132.35,211.06Z"/><path class="cls-2" d="M139.54,209.94h0a2.61,2.61,0,0,0,2.37,0l-1.18-.69-1.2-.69A.73.73,0,0,0,139.54,209.94Z"/><path class="cls-2" d="M136.64,206.88a.73.73,0,0,0,0-1.38,2.63,2.63,0,0,0-2.38,0,.73.73,0,0,0,0,1.38A2.6,2.6,0,0,0,136.64,206.88Z"/><path class="cls-2" d="M123.71,219.14a2.61,2.61,0,0,0-2.37,0l1.19.69,1.19-.69Z"/><path class="cls-2" d="M125.63,216.34c.65-.38.66-1,0-1.38a2.63,2.63,0,0,0-2.38,0,.73.73,0,0,0,0,1.38A2.57,2.57,0,0,0,125.63,216.34Z"/><path class="cls-2" d="M127.54,212.17l-1.2-.69,1.2.69a.73.73,0,0,0,0-1.38,2.63,2.63,0,0,0-2.38,0c-.66.38-.65,1,0,1.38A2.63,2.63,0,0,0,127.54,212.17Z"/><path class="cls-2" d="M109.33,221.37a2.63,2.63,0,0,0-2.38,0c-.66.38-.65,1,0,1.38a2.63,2.63,0,0,0,2.38,0A.73.73,0,0,0,109.33,221.37Z"/><path class="cls-2" d="M116.52,220.25a2.63,2.63,0,0,0-2.38,0,.73.73,0,0,0,0,1.38,2.6,2.6,0,0,0,2.38,0C117.18,221.25,117.18,220.64,116.52,220.25Z"/><path class="cls-2" d="M121.34,220.51h0a2.61,2.61,0,0,0,2.37,0,.72.72,0,0,0,0-1.37l-1.19.69-1.19-.69A.72.72,0,0,0,121.34,220.51Z"/><path class="cls-2" d="M107.42,225.54a2.63,2.63,0,0,0-2.38,0l-.17.12,2.36,1.36.2-.1C108.09,226.54,108.08,225.93,107.42,225.54Z"/><path class="cls-2" d="M154.36,192.14a2.63,2.63,0,0,0,2.38,0,.73.73,0,0,0,0-1.38,2.63,2.63,0,0,0-2.38,0A.73.73,0,0,0,154.36,192.14Z"/><path class="cls-2" d="M161.56,191a2.63,2.63,0,0,0,2.38,0l-1.19-.69,1.19.69a.73.73,0,0,0,0-1.38,2.63,2.63,0,0,0-2.38,0C160.89,190,160.9,190.64,161.56,191Z"/><path class="cls-2" d="M143.35,200.22l1.19.69-1.19-.69a.73.73,0,0,0,0,1.38,2.63,2.63,0,0,0,2.38,0,.73.73,0,0,0,0-1.38A2.63,2.63,0,0,0,143.35,200.22Z"/><path class="cls-2" d="M140.44,197.17l-1.19.69,1.2.68C141.11,198.16,141.1,197.55,140.44,197.17Z"/><path class="cls-2" d="M145.26,196.05c-.66.38-.65,1,0,1.37a2.6,2.6,0,0,0,2.38,0,.72.72,0,0,0,0-1.37A2.63,2.63,0,0,0,145.26,196.05Z"/><path class="cls-2" d="M138.54,202.71a.72.72,0,0,0,0-1.37,2.63,2.63,0,0,0-2.38,0c-.66.37-.65,1,0,1.37A2.63,2.63,0,0,0,138.54,202.71Z"/><path class="cls-2" d="M140.45,198.54l-1.2-.68-1.18.68A2.63,2.63,0,0,0,140.45,198.54Z"/><path class="cls-2" d="M127.06,208a2.63,2.63,0,0,0,2.38,0,.72.72,0,0,0,0-1.37,2.6,2.6,0,0,0-2.38,0C126.4,207,126.4,207.62,127.06,208Z"/><path class="cls-2" d="M131.35,203.83a.73.73,0,0,0,0-1.38,2.63,2.63,0,0,0-2.38,0,.73.73,0,0,0,0,1.38A2.63,2.63,0,0,0,131.35,203.83Z"/><path class="cls-2" d="M113.14,213a2.63,2.63,0,0,0-2.38,0,.73.73,0,0,0,0,1.38,2.63,2.63,0,0,0,2.38,0l-1.2-.69,1.2.69C113.81,214,113.8,213.41,113.14,213Z"/><path class="cls-2" d="M120.34,213.29a.73.73,0,0,0,0-1.38,2.63,2.63,0,0,0-2.38,0,.73.73,0,0,0,0,1.38A2.63,2.63,0,0,0,120.34,213.29Z"/><path class="cls-2" d="M122.25,209.12a.73.73,0,0,0,0-1.38,2.63,2.63,0,0,0-2.38,0,.73.73,0,0,0,0,1.38A2.63,2.63,0,0,0,122.25,209.12Z"/><path class="cls-2" d="M104,218.32a2.63,2.63,0,0,0-2.38,0c-.66.38-.65,1,0,1.38a2.63,2.63,0,0,0,2.38,0A.73.73,0,0,0,104,218.32Z"/><path class="cls-2" d="M111.23,217.2a2.63,2.63,0,0,0-2.38,0,.73.73,0,0,0,0,1.38,2.63,2.63,0,0,0,2.38,0C111.9,218.2,111.89,217.58,111.23,217.2Z"/><path class="cls-2" d="M116.05,217.46a2.63,2.63,0,0,0,2.38,0,.73.73,0,0,0,0-1.38,2.63,2.63,0,0,0-2.38,0l1.19.69-1.19-.69A.73.73,0,0,0,116.05,217.46Z"/><path class="cls-2" d="M102.13,222.49a2.63,2.63,0,0,0-2.38,0l-.17.12,2.36,1.36.2-.1C102.8,223.49,102.79,222.87,102.13,222.49Z"/><path class="cls-2" d="M144.26,188.82a2.63,2.63,0,0,0-2.38,0,.73.73,0,0,0,0,1.38,2.63,2.63,0,0,0,2.38,0l-1.19-.69,1.19.69A.73.73,0,0,0,144.26,188.82Z"/><path class="cls-2" d="M149.07,189.09a2.63,2.63,0,0,0,2.38,0,.73.73,0,0,0,0-1.38,2.57,2.57,0,0,0-2.38,0C148.41,188.09,148.41,188.7,149.07,189.09Z"/><path class="cls-2" d="M156.27,188a2.66,2.66,0,0,0,2.38,0c.66-.38.65-1,0-1.38a2.63,2.63,0,0,0-2.38,0C155.6,187,155.61,187.59,156.27,188Z"/><path class="cls-2" d="M138.06,197.17l1.19.69,1.19-.69A2.6,2.6,0,0,0,138.06,197.17Z"/><path class="cls-2" d="M140,193c-.66.39-.66,1,0,1.38a2.6,2.6,0,0,0,2.38,0,.73.73,0,0,0,0-1.38A2.63,2.63,0,0,0,140,193Z"/><path class="cls-2" d="M147.17,193.26a2.69,2.69,0,0,0,2.38,0,.73.73,0,0,0,0-1.38,2.63,2.63,0,0,0-2.38,0l1.2.69-1.2-.69A.73.73,0,0,0,147.17,193.26Z"/><path class="cls-2" d="M133.26,199.66a.73.73,0,0,0,0-1.38,2.63,2.63,0,0,0-2.38,0,.73.73,0,0,0,0,1.38A2.63,2.63,0,0,0,133.26,199.66Z"/><path class="cls-2" d="M138.07,198.54l1.18-.68-1.19-.69A.72.72,0,0,0,138.07,198.54Z"/><path class="cls-2" d="M117,204.69a2.63,2.63,0,0,0-2.38,0,.73.73,0,0,0,0,1.38l1.19-.69,1.19.68C117.61,205.69,117.61,205.07,117,204.69Z"/><path class="cls-2" d="M121.77,205a2.63,2.63,0,0,0,2.38,0,.73.73,0,0,0,0-1.38,2.63,2.63,0,0,0-2.38,0A.73.73,0,0,0,121.77,205Z"/><path class="cls-2" d="M126.06,200.78a.73.73,0,0,0,0-1.38,2.63,2.63,0,0,0-2.38,0,.73.73,0,0,0,0,1.38A2.61,2.61,0,0,0,126.06,200.78Z"/><path class="cls-2" d="M115.06,210.24a.73.73,0,0,0,0-1.38,2.63,2.63,0,0,0-2.38,0c-.66.38-.66,1,0,1.38A2.63,2.63,0,0,0,115.06,210.24Z"/><path class="cls-2" d="M117,206.06l-1.19-.68-1.19.69A2.63,2.63,0,0,0,117,206.06Z"/><path class="cls-2" d="M98.76,215.27a2.6,2.6,0,0,0-2.38,0,.72.72,0,0,0,0,1.37,2.63,2.63,0,0,0,2.38,0A.73.73,0,0,0,98.76,215.27Z"/><path class="cls-2" d="M106,214.15a2.63,2.63,0,0,0-2.38,0c-.66.38-.66,1,0,1.38a2.63,2.63,0,0,0,2.38,0A.73.73,0,0,0,106,214.15Z"/><path class="cls-2" d="M96.85,219.44a2.63,2.63,0,0,0-2.38,0,.71.71,0,0,0-.17.11l.87.51,1.48.86.2-.1A.73.73,0,0,0,96.85,219.44Z"/><path class="cls-2" d="M139,185.77a2.63,2.63,0,0,0-2.38,0,.73.73,0,0,0,0,1.38,2.63,2.63,0,0,0,2.38,0A.73.73,0,0,0,139,185.77Z"/><path class="cls-2" d="M143.78,186a2.63,2.63,0,0,0,2.38,0,.73.73,0,0,0,0-1.38,2.63,2.63,0,0,0-2.38,0A.73.73,0,0,0,143.78,186Z"/><path class="cls-2" d="M151,184.91a2.61,2.61,0,0,0,2.37,0,.73.73,0,0,0,0-1.38,2.63,2.63,0,0,0-2.38,0C150.32,183.92,150.32,184.53,151,184.91Z"/><path class="cls-2" d="M132.77,194.11a.73.73,0,0,0,0,1.38,2.61,2.61,0,0,0,2.37,0,.73.73,0,0,0,0-1.38A2.63,2.63,0,0,0,132.77,194.11Z"/><path class="cls-2" d="M134.68,189.94c-.66.38-.65,1,0,1.38a2.63,2.63,0,0,0,2.38,0,.73.73,0,0,0,0-1.38A2.63,2.63,0,0,0,134.68,189.94Z"/><path class="cls-2" d="M128,196.61a.73.73,0,0,0,0-1.38,2.63,2.63,0,0,0-2.38,0,.73.73,0,0,0,0,1.38A2.63,2.63,0,0,0,128,196.61Z"/><path class="cls-2" d="M111.66,201.63a2.63,2.63,0,0,0-2.38,0,.73.73,0,0,0,0,1.38l1.19-.69,1.19.69A.73.73,0,0,0,111.66,201.63Z"/><path class="cls-2" d="M116.48,201.9a2.63,2.63,0,0,0,2.38,0c.66-.39.66-1,0-1.38a2.6,2.6,0,0,0-2.38,0A.73.73,0,0,0,116.48,201.9Z"/><path class="cls-2" d="M120.77,197.72c.66-.38.65-1,0-1.38a2.63,2.63,0,0,0-2.38,0,.73.73,0,0,0,0,1.38A2.6,2.6,0,0,0,120.77,197.72Z"/><path class="cls-2" d="M109.76,207.18c.66-.38.66-1,0-1.38a2.63,2.63,0,0,0-2.38,0,.73.73,0,0,0,0,1.38A2.57,2.57,0,0,0,109.76,207.18Z"/><path class="cls-2" d="M111.67,203l-1.19-.69-1.19.69A2.63,2.63,0,0,0,111.67,203Z"/><path class="cls-2" d="M93.46,212.21a2.63,2.63,0,0,0-2.38,0c-.66.38-.65,1,0,1.38a2.63,2.63,0,0,0,2.38,0A.73.73,0,0,0,93.46,212.21Z"/><path class="cls-2" d="M100.65,211.09a2.63,2.63,0,0,0-2.38,0,.73.73,0,0,0,0,1.38,2.63,2.63,0,0,0,2.38,0C101.32,212.09,101.32,211.48,100.65,211.09Z"/><path class="cls-2" d="M105.48,211.36a2.61,2.61,0,0,0,2.37,0,.72.72,0,0,0,0-1.37,2.63,2.63,0,0,0-2.38,0C104.82,210.36,104.82,211,105.48,211.36Z"/><path class="cls-2" d="M91.55,216.38a2.63,2.63,0,0,0-2.38,0l-.17.12,2.36,1.36a1.24,1.24,0,0,0,.2-.1C92.22,217.38,92.22,216.77,91.55,216.38Z"/><path class="cls-2" d="M133.68,182.72a2.63,2.63,0,0,0-2.38,0,.72.72,0,0,0,0,1.37,2.63,2.63,0,0,0,2.38,0C134.34,183.72,134.33,183.1,133.68,182.72Z"/><path class="cls-2" d="M138.5,183a2.63,2.63,0,0,0,2.38,0,.73.73,0,0,0,0-1.38,2.63,2.63,0,0,0-2.38,0C137.83,182,137.84,182.6,138.5,183Z"/><path class="cls-2" d="M145.69,181.86a2.63,2.63,0,0,0,2.38,0,.73.73,0,0,0,0-1.38,2.63,2.63,0,0,0-2.38,0A.73.73,0,0,0,145.69,181.86Z"/><path class="cls-2" d="M127.48,191.06a.73.73,0,0,0,0,1.38,2.63,2.63,0,0,0,2.38,0,.73.73,0,0,0,0-1.38A2.6,2.6,0,0,0,127.48,191.06Z"/><path class="cls-2" d="M129.39,186.89c-.66.38-.65,1,0,1.37a2.6,2.6,0,0,0,2.38,0,.72.72,0,0,0,0-1.37A2.63,2.63,0,0,0,129.39,186.89Z"/><path class="cls-2" d="M122.68,193.55a.72.72,0,0,0,0-1.37,2.63,2.63,0,0,0-2.38,0c-.65.37-.65,1,0,1.37A2.63,2.63,0,0,0,122.68,193.55Z"/><path class="cls-2" d="M111.19,198.84a2.63,2.63,0,0,0,2.38,0,.73.73,0,0,0,0-1.38,2.66,2.66,0,0,0-2.38,0A.73.73,0,0,0,111.19,198.84Z"/><path class="cls-2" d="M115.49,194.67a.73.73,0,0,0,0-1.38l-1.19.69-1.19-.69a.73.73,0,0,0,0,1.38A2.63,2.63,0,0,0,115.49,194.67Z"/><path class="cls-2" d="M104.48,204.13a.73.73,0,0,0,0-1.38,2.63,2.63,0,0,0-2.38,0c-.66.38-.65,1,0,1.38A2.63,2.63,0,0,0,104.48,204.13Z"/><path class="cls-2" d="M106.38,200a.73.73,0,0,0,0-1.38,2.63,2.63,0,0,0-2.38,0,.73.73,0,0,0,0,1.38A2.63,2.63,0,0,0,106.38,200Z"/><path class="cls-2" d="M88.18,209.16a2.63,2.63,0,0,0-2.38,0l1.19.69-1.19-.69a.73.73,0,0,0,0,1.38,2.63,2.63,0,0,0,2.38,0A.73.73,0,0,0,88.18,209.16Z"/><path class="cls-2" d="M95.37,208A2.63,2.63,0,0,0,93,208c-.66.38-.65,1,0,1.38a2.63,2.63,0,0,0,2.38,0A.73.73,0,0,0,95.37,208Z"/><path class="cls-2" d="M100.19,208.3a2.63,2.63,0,0,0,2.38,0c.66-.38.65-1,0-1.38a2.63,2.63,0,0,0-2.38,0A.73.73,0,0,0,100.19,208.3Z"/><path class="cls-2" d="M86.27,213.33a2.63,2.63,0,0,0-2.38,0l-.17.12,2.36,1.36.19-.1A.73.73,0,0,0,86.27,213.33Z"/><path class="cls-2" d="M128.39,179.66a2.63,2.63,0,0,0-2.38,0,.73.73,0,0,0,0,1.38,2.63,2.63,0,0,0,2.38,0A.73.73,0,0,0,128.39,179.66Z"/><path class="cls-2" d="M133.21,179.93a2.63,2.63,0,0,0,2.38,0,.73.73,0,0,0,0-1.38,2.6,2.6,0,0,0-2.38,0A.73.73,0,0,0,133.21,179.93Z"/><path class="cls-2" d="M140.41,178.81a2.66,2.66,0,0,0,2.38,0,.73.73,0,0,0,0-1.38,2.63,2.63,0,0,0-2.38,0C139.74,177.81,139.75,178.43,140.41,178.81Z"/><path class="cls-2" d="M122.19,188a.72.72,0,0,0,0,1.37,2.63,2.63,0,0,0,2.38,0c.66-.38.65-1,0-1.37l-1.18.69,1.18-.69A2.6,2.6,0,0,0,122.19,188Z"/><path class="cls-2" d="M124.11,183.83a.73.73,0,0,0,0,1.38,2.6,2.6,0,0,0,2.38,0,.73.73,0,0,0,0-1.38A2.63,2.63,0,0,0,124.11,183.83Z"/><path class="cls-2" d="M113.1,193.29l1.19.69,1.19-.69A2.63,2.63,0,0,0,113.1,193.29Z"/><path class="cls-2" d="M117.39,190.5a.73.73,0,0,0,0-1.38,2.63,2.63,0,0,0-2.38,0,.73.73,0,0,0,0,1.38A2.63,2.63,0,0,0,117.39,190.5Z"/><path class="cls-2" d="M105.91,195.79a2.63,2.63,0,0,0,2.38,0c.66-.38.65-1,0-1.38a2.63,2.63,0,0,0-2.38,0A.73.73,0,0,0,105.91,195.79Z"/><path class="cls-2" d="M110.2,191.62a.73.73,0,0,0,0-1.38,2.63,2.63,0,0,0-2.38,0c-.66.38-.65,1,0,1.38A2.63,2.63,0,0,0,110.2,191.62Z"/><path class="cls-2" d="M99.19,201.08c.66-.38.65-1,0-1.38a2.63,2.63,0,0,0-2.38,0c-.66.38-.65,1,0,1.38A2.63,2.63,0,0,0,99.19,201.08Z"/><path class="cls-2" d="M101.1,196.91a.73.73,0,0,0,0-1.38,2.63,2.63,0,0,0-2.38,0l1.19.69-1.18.69A2.63,2.63,0,0,0,101.1,196.91Z"/><path class="cls-2" d="M82.89,206.11a2.6,2.6,0,0,0-2.38,0c-.66.38-.66,1,0,1.37a2.6,2.6,0,0,0,2.38,0l-1.2-.69,1.2.69A.72.72,0,0,0,82.89,206.11Z"/><path class="cls-2" d="M90.08,205a2.63,2.63,0,0,0-2.38,0,.73.73,0,0,0,0,1.38,2.63,2.63,0,0,0,2.38,0A.73.73,0,0,0,90.08,205Z"/><path class="cls-2" d="M94.9,205.25a2.63,2.63,0,0,0,2.38,0c.66-.38.65-1,0-1.38a2.63,2.63,0,0,0-2.38,0l1.2.69-1.2-.69A.73.73,0,0,0,94.9,205.25Z"/><path class="cls-2" d="M81,210.28a2.6,2.6,0,0,0-2.38,0l-.17.11,2,1.16.35.21.2-.1A.73.73,0,0,0,81,210.28Z"/><path class="cls-2" d="M123.1,176.61a2.63,2.63,0,0,0-2.38,0,.73.73,0,0,0,0,1.38,2.63,2.63,0,0,0,2.38,0l-1.19-.69,1.19.69A.73.73,0,0,0,123.1,176.61Z"/><path class="cls-2" d="M127.92,176.87a2.63,2.63,0,0,0,2.38,0c.66-.38.65-1,0-1.38a2.63,2.63,0,0,0-2.38,0A.73.73,0,0,0,127.92,176.87Z"/><path class="cls-2" d="M135.12,175.75a2.6,2.6,0,0,0,2.38,0,.73.73,0,0,0,0-1.38,2.63,2.63,0,0,0-2.38,0A.73.73,0,0,0,135.12,175.75Z"/><path class="cls-2" d="M116.91,185a.73.73,0,0,0,0,1.38,2.63,2.63,0,0,0,2.38,0,.73.73,0,0,0,0-1.38A2.63,2.63,0,0,0,116.91,185Z"/><path class="cls-2" d="M118.82,180.78a.73.73,0,0,0,0,1.38,2.61,2.61,0,0,0,2.37,0,.73.73,0,0,0,0-1.38A2.63,2.63,0,0,0,118.82,180.78Z"/><path class="cls-2" d="M112.1,187.45a.73.73,0,0,0,0-1.38,2.63,2.63,0,0,0-2.38,0,.73.73,0,0,0,0,1.38A2.63,2.63,0,0,0,112.1,187.45Z"/><path class="cls-2" d="M95.8,192.47l-1.19.69,1.19.69C96.46,193.47,96.46,192.86,95.8,192.47Z"/><path class="cls-2" d="M100.62,192.74a2.63,2.63,0,0,0,2.38,0,.73.73,0,0,0,0-1.38,2.63,2.63,0,0,0-2.38,0A.73.73,0,0,0,100.62,192.74Z"/><path class="cls-2" d="M104.91,188.56c.65-.38.65-1,0-1.38a2.63,2.63,0,0,0-2.38,0,.73.73,0,0,0,0,1.38A2.57,2.57,0,0,0,104.91,188.56Z"/><path class="cls-2" d="M93.9,198a.72.72,0,0,0,0-1.37,2.6,2.6,0,0,0-2.38,0c-.66.38-.66,1,0,1.38A2.64,2.64,0,0,0,93.9,198Z"/><path class="cls-2" d="M98.72,196.91l1.18-.69-1.19-.69C98.06,195.91,98.05,196.52,98.72,196.91Z"/><path class="cls-2" d="M95.8,193.85l-1.19-.69-1.19.69A2.6,2.6,0,0,0,95.8,193.85Z"/><path class="cls-2" d="M77.6,203.05a2.63,2.63,0,0,0-2.38,0c-.66.38-.65,1,0,1.38a2.63,2.63,0,0,0,2.38,0l-1.2-.69,1.2.69A.73.73,0,0,0,77.6,203.05Z"/><path class="cls-2" d="M84.8,201.94a2.6,2.6,0,0,0-2.38,0c-.66.38-.66,1,0,1.38a2.66,2.66,0,0,0,2.38,0A.73.73,0,0,0,84.8,201.94Z"/><path class="cls-2" d="M89.61,202.2a2.63,2.63,0,0,0,2.38,0,.73.73,0,0,0,0-1.38,2.63,2.63,0,0,0-2.38,0C89,201.2,89,201.81,89.61,202.2Z"/><path class="cls-2" d="M75.69,207.23a2.57,2.57,0,0,0-2.38,0l-.17.11.31.18,2,1.18.19-.1A.72.72,0,0,0,75.69,207.23Z"/><path class="cls-2" d="M117.81,173.56a2.63,2.63,0,0,0-2.38,0,.72.72,0,0,0,0,1.37,2.63,2.63,0,0,0,2.38,0C118.47,174.56,118.47,173.94,117.81,173.56Z"/><path class="cls-2" d="M122.63,173.82a2.63,2.63,0,0,0,2.38,0,.73.73,0,0,0,0-1.38,2.63,2.63,0,0,0-2.38,0A.73.73,0,0,0,122.63,173.82Z"/><path class="cls-2" d="M129.83,172.7a2.63,2.63,0,0,0,2.38,0,.73.73,0,0,0,0-1.38,2.63,2.63,0,0,0-2.38,0C129.16,171.7,129.17,172.32,129.83,172.7Z"/><path class="cls-2" d="M111.61,181.9a.73.73,0,0,0,0,1.38,2.63,2.63,0,0,0,2.38,0c.66-.39.66-1,0-1.38A2.6,2.6,0,0,0,111.61,181.9Z"/><path class="cls-2" d="M113.53,177.73a.72.72,0,0,0,0,1.37,2.6,2.6,0,0,0,2.38,0,.72.72,0,0,0,0-1.37A2.63,2.63,0,0,0,113.53,177.73Z"/><path class="cls-2" d="M106.81,184.39a.73.73,0,0,0,0-1.38,2.66,2.66,0,0,0-2.38,0c-.65.37-.65,1,0,1.37A2.63,2.63,0,0,0,106.81,184.39Z"/><path class="cls-2" d="M93.42,192.47l1.19.69,1.19-.69A2.63,2.63,0,0,0,93.42,192.47Z"/><path class="cls-2" d="M95.33,189.68a2.63,2.63,0,0,0,2.38,0c.66-.38.65-1,0-1.38a2.66,2.66,0,0,0-2.38,0A.73.73,0,0,0,95.33,189.68Z"/><path class="cls-2" d="M99.62,185.51a.73.73,0,0,0,0-1.38,2.63,2.63,0,0,0-2.38,0,.73.73,0,0,0,0,1.38A2.63,2.63,0,0,0,99.62,185.51Z"/><path class="cls-2" d="M88.61,195c.66-.38.65-1,0-1.38a2.63,2.63,0,0,0-2.38,0,.73.73,0,0,0,0,1.38A2.63,2.63,0,0,0,88.61,195Z"/><path class="cls-2" d="M93.42,193.85l1.19-.69-1.19-.69A.73.73,0,0,0,93.42,193.85Z"/><path class="cls-2" d="M90.52,190.8l-1.2-.69,1.2.69a.73.73,0,0,0,0-1.38,2.63,2.63,0,0,0-2.38,0,.73.73,0,0,0,0,1.38A2.63,2.63,0,0,0,90.52,190.8Z"/><path class="cls-2" d="M72.31,200a2.63,2.63,0,0,0-2.38,0c-.66.38-.65,1,0,1.38a2.63,2.63,0,0,0,2.38,0A.73.73,0,0,0,72.31,200Z"/><path class="cls-2" d="M79.5,198.88a2.63,2.63,0,0,0-2.38,0,.73.73,0,0,0,0,1.38,2.63,2.63,0,0,0,2.38,0A.73.73,0,0,0,79.5,198.88Z"/><path class="cls-2" d="M84.32,199.14a2.6,2.6,0,0,0,2.38,0c.66-.38.66-1,0-1.38a2.63,2.63,0,0,0-2.38,0A.73.73,0,0,0,84.32,199.14Z"/><path class="cls-2" d="M70.4,204.17a2.63,2.63,0,0,0-2.38,0l-.17.12,2.34,1.34,0,0,.2-.1C71.07,205.17,71.06,204.55,70.4,204.17Z"/><path class="cls-2" d="M117.34,170.77a2.63,2.63,0,0,0,2.38,0,.73.73,0,0,0,0-1.38,2.6,2.6,0,0,0-2.38,0A.73.73,0,0,0,117.34,170.77Z"/><path class="cls-2" d="M124.54,169.65a2.63,2.63,0,0,0,2.38,0c.65-.37.65-1,0-1.37l-1.18.69,1.18-.69a2.63,2.63,0,0,0-2.38,0C123.87,168.65,123.88,169.27,124.54,169.65Z"/><path class="cls-2" d="M106.33,178.85l1.19.69-1.19-.69c-.66.38-.65,1,0,1.37a2.63,2.63,0,0,0,2.38,0c.66-.38.65-1,0-1.37A2.6,2.6,0,0,0,106.33,178.85Z"/><path class="cls-2" d="M103.42,175.79l-1.18.69,1.19.69C104.09,176.79,104.08,176.17,103.42,175.79Z"/><path class="cls-2" d="M108.24,174.67a.73.73,0,0,0,0,1.38,2.6,2.6,0,0,0,2.38,0,.73.73,0,0,0,0-1.38A2.63,2.63,0,0,0,108.24,174.67Z"/><path class="cls-2" d="M101.52,181.34a.73.73,0,0,0,0-1.38,2.63,2.63,0,0,0-2.38,0,.73.73,0,0,0,0,1.38A2.63,2.63,0,0,0,101.52,181.34Z"/><path class="cls-2" d="M90,186.63a2.63,2.63,0,0,0,2.38,0c.66-.38.65-1,0-1.38a2.63,2.63,0,0,0-2.38,0A.73.73,0,0,0,90,186.63Z"/><path class="cls-2" d="M94.33,182.46a.73.73,0,0,0,0-1.38,2.63,2.63,0,0,0-2.38,0,.73.73,0,0,0,0,1.38A2.63,2.63,0,0,0,94.33,182.46Z"/><path class="cls-2" d="M83.33,191.92a.73.73,0,0,0,0-1.38,2.63,2.63,0,0,0-2.38,0c-.66.38-.65,1,0,1.38A2.63,2.63,0,0,0,83.33,191.92Z"/><path class="cls-2" d="M85.23,187.75a.73.73,0,0,0,0-1.38,2.63,2.63,0,0,0-2.38,0,.73.73,0,0,0,0,1.38A2.63,2.63,0,0,0,85.23,187.75Z"/><path class="cls-2" d="M67,197a2.63,2.63,0,0,0-2.38,0l1.2.68-1.2-.68c-.66.38-.65,1,0,1.37a2.6,2.6,0,0,0,2.38,0C67.69,197.94,67.68,197.33,67,197Z"/><path class="cls-2" d="M74.22,195.83a2.63,2.63,0,0,0-2.38,0,.73.73,0,0,0,0,1.38,2.63,2.63,0,0,0,2.38,0A.73.73,0,0,0,74.22,195.83Z"/><path class="cls-2" d="M79,196.09a2.63,2.63,0,0,0,2.38,0,.73.73,0,0,0,0-1.38,2.63,2.63,0,0,0-2.38,0l1.19.69L79,194.71A.73.73,0,0,0,79,196.09Z"/><path class="cls-2" d="M65.11,201.12a2.6,2.6,0,0,0-2.38,0l-.17.11,2.36,1.37.2-.1A.73.73,0,0,0,65.11,201.12Z"/><path class="cls-2" d="M107.23,167.45a2.61,2.61,0,0,0-2.37,0,.73.73,0,0,0,0,1.38,2.63,2.63,0,0,0,2.38,0A.73.73,0,0,0,107.23,167.45Z"/><path class="cls-2" d="M112.06,167.71a2.61,2.61,0,0,0,2.37,0,.73.73,0,0,0,0-1.38,2.63,2.63,0,0,0-2.38,0A.73.73,0,0,0,112.06,167.71Z"/><path class="cls-2" d="M119.25,166.59a2.6,2.6,0,0,0,2.38,0,.73.73,0,0,0,0-1.38,2.63,2.63,0,0,0-2.38,0A.73.73,0,0,0,119.25,166.59Z"/><path class="cls-2" d="M101,175.79l1.2.69,1.18-.69A2.63,2.63,0,0,0,101,175.79Z"/><path class="cls-2" d="M98.13,172.74l-1.19.69,1.2.69A.73.73,0,0,0,98.13,172.74Z"/><path class="cls-2" d="M103,171.62c-.66.38-.65,1,0,1.38a2.61,2.61,0,0,0,2.37,0,.73.73,0,0,0,0-1.38A2.63,2.63,0,0,0,103,171.62Z"/><path class="cls-2" d="M110.15,171.88a2.63,2.63,0,0,0,2.38,0c.66-.38.65-1,0-1.38a2.63,2.63,0,0,0-2.38,0l1.2.69-1.2-.69A.73.73,0,0,0,110.15,171.88Z"/><path class="cls-2" d="M96.23,178.29a.73.73,0,0,0,0-1.38,2.63,2.63,0,0,0-2.38,0,.73.73,0,0,0,0,1.38A2.61,2.61,0,0,0,96.23,178.29Z"/><path class="cls-2" d="M101.05,177.17a2.63,2.63,0,0,0,2.38,0l-1.19-.69-1.2-.69A.73.73,0,0,0,101.05,177.17Z"/><path class="cls-2" d="M84.76,183.58a2.61,2.61,0,0,0,2.37,0c.66-.39.66-1,0-1.38a2.63,2.63,0,0,0-2.38,0A.73.73,0,0,0,84.76,183.58Z"/><path class="cls-2" d="M89,179.4c.65-.38.66-1,0-1.38a2.61,2.61,0,0,0-2.37,0l1.19.68L86.66,178a.72.72,0,0,0,0,1.37A2.57,2.57,0,0,0,89,179.4Z"/><path class="cls-2" d="M70.83,188.6a2.6,2.6,0,0,0-2.38,0,.72.72,0,0,0,0,1.37,2.6,2.6,0,0,0,2.38,0l-1.2-.69,1.2.69C71.5,189.6,71.49,189,70.83,188.6Z"/><path class="cls-2" d="M78,188.86a.72.72,0,0,0,0-1.37,2.6,2.6,0,0,0-2.38,0c-.66.38-.65,1,0,1.38A2.64,2.64,0,0,0,78,188.86Z"/><path class="cls-2" d="M79.94,184.69c.65-.38.65-1,0-1.38a2.61,2.61,0,0,0-2.37,0,.72.72,0,0,0,0,1.37A2.6,2.6,0,0,0,79.94,184.69Z"/><path class="cls-2" d="M61.73,193.89a2.61,2.61,0,0,0-2.37,0c-.66.39-.66,1,0,1.38a2.63,2.63,0,0,0,2.38,0A.73.73,0,0,0,61.73,193.89Z"/><path class="cls-2" d="M68.93,192.78a2.6,2.6,0,0,0-2.38,0,.72.72,0,0,0,0,1.37,2.61,2.61,0,0,0,2.37,0A.72.72,0,0,0,68.93,192.78Z"/><path class="cls-2" d="M73.75,193a2.63,2.63,0,0,0,2.38,0,.73.73,0,0,0,0-1.38,2.63,2.63,0,0,0-2.38,0l1.19.69-1.19-.69A.73.73,0,0,0,73.75,193Z"/><path class="cls-2" d="M59.83,198.07a2.57,2.57,0,0,0-2.38,0,.71.71,0,0,0-.17.11l2.35,1.36.2-.1A.72.72,0,0,0,59.83,198.07Z"/><path class="cls-2" d="M101.94,164.4a2.63,2.63,0,0,0-2.38,0,.72.72,0,0,0,0,1.37,2.63,2.63,0,0,0,2.38,0C102.61,165.39,102.6,164.78,101.94,164.4Z"/><path class="cls-2" d="M106.76,164.66a2.63,2.63,0,0,0,2.38,0,.73.73,0,0,0,0-1.38,2.63,2.63,0,0,0-2.38,0A.73.73,0,0,0,106.76,164.66Z"/><path class="cls-2" d="M114,163.54a2.63,2.63,0,0,0,2.38,0,.73.73,0,0,0,0-1.38,2.61,2.61,0,0,0-2.37,0C113.3,162.55,113.3,163.16,114,163.54Z"/><path class="cls-2" d="M95.76,172.74a.73.73,0,0,0,0,1.38,2.63,2.63,0,0,0,2.38,0l-1.2-.69,1.19-.69A2.61,2.61,0,0,0,95.76,172.74Z"/><path class="cls-2" d="M97.66,168.57c-.66.38-.65,1,0,1.37a2.6,2.6,0,0,0,2.38,0,.72.72,0,0,0,0-1.37A2.63,2.63,0,0,0,97.66,168.57Z"/><path class="cls-2" d="M91,175.23a.73.73,0,0,0,0-1.38,2.69,2.69,0,0,0-2.38,0c-.66.38-.65,1,0,1.38A2.63,2.63,0,0,0,91,175.23Z"/><path class="cls-2" d="M79.46,180.52a2.63,2.63,0,0,0,2.38,0,.73.73,0,0,0,0-1.38,2.65,2.65,0,0,0-2.39,0A.73.73,0,0,0,79.46,180.52Z"/><path class="cls-2" d="M83.75,176.35a.73.73,0,0,0,0-1.38,2.63,2.63,0,0,0-2.38,0l1.19.69L81.37,175a.73.73,0,0,0,0,1.38A2.63,2.63,0,0,0,83.75,176.35Z"/><path class="cls-2" d="M72.75,185.81a.73.73,0,0,0,0-1.38,2.63,2.63,0,0,0-2.38,0c-.66.38-.65,1,0,1.38A2.63,2.63,0,0,0,72.75,185.81Z"/><path class="cls-2" d="M74.65,181.64a.73.73,0,0,0,0-1.38,2.63,2.63,0,0,0-2.38,0,.73.73,0,0,0,0,1.38l1.19-.69-1.19.69A2.63,2.63,0,0,0,74.65,181.64Z"/><path class="cls-2" d="M56.45,190.84a2.63,2.63,0,0,0-2.38,0,.73.73,0,0,0,0,1.38,2.63,2.63,0,0,0,2.38,0A.73.73,0,0,0,56.45,190.84Z"/><path class="cls-2" d="M63.64,189.72a2.63,2.63,0,0,0-2.38,0,.73.73,0,0,0,0,1.38,2.63,2.63,0,0,0,2.38,0A.73.73,0,0,0,63.64,189.72Z"/><path class="cls-2" d="M54.53,195a2.63,2.63,0,0,0-2.38,0l-.17.12,2.31,1.33.05,0a1.24,1.24,0,0,0,.2-.1C55.2,196,55.19,195.39,54.53,195Z"/><path class="cls-2" d="M96.66,161.34a2.63,2.63,0,0,0-2.38,0c-.66.38-.65,1,0,1.38a2.63,2.63,0,0,0,2.38,0A.73.73,0,0,0,96.66,161.34Z"/><path class="cls-2" d="M101.48,161.61a2.63,2.63,0,0,0,2.38,0,.73.73,0,0,0,0-1.38,2.6,2.6,0,0,0-2.38,0A.73.73,0,0,0,101.48,161.61Z"/><path class="cls-2" d="M108.67,160.48a2.6,2.6,0,0,0,2.38,0c.66-.37.65-1,0-1.37a2.63,2.63,0,0,0-2.38,0l1.19.69-1.19-.69A.72.72,0,0,0,108.67,160.48Z"/><path class="cls-2" d="M90.46,169.69a.72.72,0,0,0,0,1.37,2.63,2.63,0,0,0,2.38,0c.66-.38.65-1,0-1.37A2.6,2.6,0,0,0,90.46,169.69Z"/><path class="cls-2" d="M92.37,165.51a.73.73,0,0,0,0,1.38,2.63,2.63,0,0,0,2.38,0,.73.73,0,0,0,0-1.38A2.63,2.63,0,0,0,92.37,165.51Z"/><path class="cls-2" d="M85.66,172.18a.73.73,0,0,0,0-1.38,2.63,2.63,0,0,0-2.38,0,.73.73,0,0,0,0,1.38A2.63,2.63,0,0,0,85.66,172.18Z"/><path class="cls-2" d="M74.18,177.47a2.63,2.63,0,0,0,2.38,0c.66-.38.65-1,0-1.38a2.63,2.63,0,0,0-2.38,0A.73.73,0,0,0,74.18,177.47Z"/><path class="cls-2" d="M78.47,173.3a.73.73,0,0,0,0-1.38l-1.19.69-1.19-.69c-.66.38-.65,1,0,1.38A2.63,2.63,0,0,0,78.47,173.3Z"/><path class="cls-2" d="M67.46,182.76a.73.73,0,0,0,0-1.38,2.63,2.63,0,0,0-2.38,0c-.66.38-.65,1,0,1.38A2.63,2.63,0,0,0,67.46,182.76Z"/><path class="cls-2" d="M69.37,178.59a.73.73,0,0,0,0-1.38,2.63,2.63,0,0,0-2.38,0,.73.73,0,0,0,0,1.38A2.65,2.65,0,0,0,69.37,178.59Z"/><path class="cls-2" d="M51.16,187.79a2.63,2.63,0,0,0-2.38,0l1.19.68-1.19-.68c-.66.38-.65,1,0,1.37a2.6,2.6,0,0,0,2.38,0A.72.72,0,0,0,51.16,187.79Z"/><path class="cls-2" d="M58.35,186.67a2.63,2.63,0,0,0-2.38,0,.73.73,0,0,0,0,1.38,2.63,2.63,0,0,0,2.38,0A.73.73,0,0,0,58.35,186.67Z"/><path class="cls-2" d="M63.17,186.93a2.63,2.63,0,0,0,2.38,0c.66-.38.65-1,0-1.38a2.63,2.63,0,0,0-2.38,0A.73.73,0,0,0,63.17,186.93Z"/><path class="cls-2" d="M49.25,192a2.6,2.6,0,0,0-2.38,0,.71.71,0,0,0-.17.11l2.36,1.37.2-.1A.73.73,0,0,0,49.25,192Z"/><path class="cls-2" d="M91.37,158.29a2.63,2.63,0,0,0-2.38,0,.73.73,0,0,0,0,1.38,2.61,2.61,0,0,0,2.37,0A.73.73,0,0,0,91.37,158.29Z"/><path class="cls-2" d="M96.19,158.55a2.63,2.63,0,0,0,2.38,0c.66-.38.65-1,0-1.38a2.63,2.63,0,0,0-2.38,0A.73.73,0,0,0,96.19,158.55Z"/><path class="cls-2" d="M103.39,157.43a2.6,2.6,0,0,0,2.38,0,.73.73,0,0,0,0-1.38,2.63,2.63,0,0,0-2.38,0A.73.73,0,0,0,103.39,157.43Z"/><path class="cls-2" d="M85.18,166.63a.73.73,0,0,0,0,1.38,2.63,2.63,0,0,0,2.38,0,.73.73,0,0,0,0-1.38l-1.19.69,1.19-.69A2.63,2.63,0,0,0,85.18,166.63Z"/><path class="cls-2" d="M87.09,162.46a.73.73,0,0,0,0,1.38,2.63,2.63,0,0,0,2.38,0,.73.73,0,0,0,0-1.38A2.63,2.63,0,0,0,87.09,162.46Z"/><path class="cls-2" d="M76.08,171.92l1.19.69,1.19-.69A2.63,2.63,0,0,0,76.08,171.92Z"/><path class="cls-2" d="M73.17,168.87a2.6,2.6,0,0,0-2.38,0c-.66.38-.65,1,0,1.38a2.58,2.58,0,0,0,2.37,0L72,169.56l1.18.68A.72.72,0,0,0,73.17,168.87Z"/><path class="cls-2" d="M80.37,169.13c.66-.38.65-1,0-1.38a2.63,2.63,0,0,0-2.38,0,.73.73,0,0,0,0,1.38A2.63,2.63,0,0,0,80.37,169.13Z"/><path class="cls-2" d="M68.88,173a.73.73,0,0,0,0,1.38,2.63,2.63,0,0,0,2.38,0c.66-.38.65-1,0-1.38A2.63,2.63,0,0,0,68.88,173Z"/><path class="cls-2" d="M55,179.45a2.57,2.57,0,0,0-2.38,0c-.66.38-.66,1,0,1.38a2.61,2.61,0,0,0,2.37,0l-1.19-.68,1.19.68A.72.72,0,0,0,55,179.45Z"/><path class="cls-2" d="M62.17,179.7c.66-.37.65-1,0-1.37a2.6,2.6,0,0,0-2.38,0,.72.72,0,0,0,0,1.37A2.6,2.6,0,0,0,62.17,179.7Z"/><path class="cls-2" d="M64.07,175.53a.72.72,0,0,0,0-1.37,2.6,2.6,0,0,0-2.38,0c-.65.38-.66,1,0,1.38A2.61,2.61,0,0,0,64.07,175.53Z"/><path class="cls-2" d="M45.87,184.73a2.63,2.63,0,0,0-2.38,0,.73.73,0,0,0,0,1.38,2.61,2.61,0,0,0,2.37,0l-1.18-.69,1.18.69A.73.73,0,0,0,45.87,184.73Z"/><path class="cls-2" d="M53.06,183.62a2.6,2.6,0,0,0-2.38,0,.72.72,0,0,0,0,1.37,2.63,2.63,0,0,0,2.38,0C53.72,184.62,53.72,184,53.06,183.62Z"/><path class="cls-2" d="M57.88,183.88a2.63,2.63,0,0,0,2.38,0,.73.73,0,0,0,0-1.38,2.63,2.63,0,0,0-2.38,0l1.2.69-1.2-.69A.73.73,0,0,0,57.88,183.88Z"/><path class="cls-2" d="M44,188.91a2.57,2.57,0,0,0-2.38,0l-.17.11,2.36,1.36.2-.1C44.63,189.9,44.62,189.29,44,188.91Z"/><path class="cls-2" d="M86.08,155.24a2.63,2.63,0,0,0-2.38,0,.72.72,0,0,0,0,1.37,2.63,2.63,0,0,0,2.38,0l-1.2-.68,1.2.68A.72.72,0,0,0,86.08,155.24Z"/><path class="cls-2" d="M90.9,155.5a2.63,2.63,0,0,0,2.38,0,.73.73,0,0,0,0-1.38,2.63,2.63,0,0,0-2.38,0A.73.73,0,0,0,90.9,155.5Z"/><path class="cls-2" d="M98.1,154.38a2.63,2.63,0,0,0,2.38,0,.73.73,0,0,0,0-1.38,2.63,2.63,0,0,0-2.38,0A.73.73,0,0,0,98.1,154.38Z"/><path class="cls-2" d="M79.89,163.58a.73.73,0,0,0,0,1.38,2.61,2.61,0,0,0,2.37,0c.66-.39.66-1,0-1.38A2.63,2.63,0,0,0,79.89,163.58Z"/><path class="cls-2" d="M81.79,159.4a.73.73,0,0,0,0,1.38,2.57,2.57,0,0,0,2.38,0c.66-.38.66-1,0-1.38A2.69,2.69,0,0,0,81.79,159.4Z"/><path class="cls-2" d="M75.08,166.07c.65-.38.66-1,0-1.38a2.63,2.63,0,0,0-2.38,0,.73.73,0,0,0,0,1.38A2.6,2.6,0,0,0,75.08,166.07Z"/><path class="cls-2" d="M63.59,170a.73.73,0,0,0,0,1.38,2.6,2.6,0,0,0,2.38,0c.66-.38.65-1,0-1.38A2.63,2.63,0,0,0,63.59,170Z"/><path class="cls-2" d="M67.89,167.19a.73.73,0,0,0,0-1.38,2.63,2.63,0,0,0-2.38,0c-.66.38-.65,1,0,1.38A2.63,2.63,0,0,0,67.89,167.19Z"/><path class="cls-2" d="M56.88,176.65a.73.73,0,0,0,0-1.38,2.63,2.63,0,0,0-2.38,0c-.66.38-.65,1,0,1.38A2.63,2.63,0,0,0,56.88,176.65Z"/><path class="cls-2" d="M58.79,172.48a.73.73,0,0,0,0-1.38,2.63,2.63,0,0,0-2.38,0c-.66.38-.65,1,0,1.38A2.63,2.63,0,0,0,58.79,172.48Z"/><path class="cls-2" d="M40.58,181.68a2.63,2.63,0,0,0-2.38,0c-.66.38-.65,1,0,1.38a2.63,2.63,0,0,0,2.38,0l-1.2-.69,1.2.69A.73.73,0,0,0,40.58,181.68Z"/><path class="cls-2" d="M47.77,180.56a2.63,2.63,0,0,0-2.38,0,.73.73,0,0,0,0,1.38,2.63,2.63,0,0,0,2.38,0A.73.73,0,0,0,47.77,180.56Z"/><path class="cls-2" d="M38.67,185.85a2.63,2.63,0,0,0-2.38,0,1,1,0,0,0-.17.12l.05,0,2.31,1.33.2-.1C39.34,186.85,39.33,186.23,38.67,185.85Z"/><path class="cls-2" d="M80.79,152.18a2.63,2.63,0,0,0-2.38,0,.73.73,0,0,0,0,1.38,2.63,2.63,0,0,0,2.38,0A.73.73,0,0,0,80.79,152.18Z"/><path class="cls-2" d="M85.61,152.45a2.69,2.69,0,0,0,2.38,0,.73.73,0,0,0,0-1.38,2.6,2.6,0,0,0-2.38,0A.73.73,0,0,0,85.61,152.45Z"/><path class="cls-2" d="M92.81,151.32a2.6,2.6,0,0,0,2.38,0,.72.72,0,0,0,0-1.37,2.63,2.63,0,0,0-2.38,0A.72.72,0,0,0,92.81,151.32Z"/><path class="cls-2" d="M74.6,160.53a.72.72,0,0,0,0,1.37,2.63,2.63,0,0,0,2.38,0,.72.72,0,0,0,0-1.37A2.6,2.6,0,0,0,74.6,160.53Z"/><path class="cls-2" d="M76.51,156.35a.73.73,0,0,0,0,1.38,2.63,2.63,0,0,0,2.38,0,.73.73,0,0,0,0-1.38A2.63,2.63,0,0,0,76.51,156.35Z"/><path class="cls-2" d="M67.41,161.64a.73.73,0,0,0,0,1.38,2.63,2.63,0,0,0,2.38,0,.73.73,0,0,0,0-1.38A2.63,2.63,0,0,0,67.41,161.64Z"/><path class="cls-2" d="M58.3,166.93a.73.73,0,0,0,0,1.38,2.63,2.63,0,0,0,2.38,0c.66-.38.65-1,0-1.38A2.63,2.63,0,0,0,58.3,166.93Z"/><path class="cls-2" d="M51.59,173.6a.73.73,0,0,0,0-1.38,2.63,2.63,0,0,0-2.38,0,.73.73,0,0,0,0,1.38A2.63,2.63,0,0,0,51.59,173.6Z"/><path class="cls-2" d="M53.5,169.43l-1.19-.69,1.19.69a.73.73,0,0,0,0-1.38,2.63,2.63,0,0,0-2.38,0,.73.73,0,0,0,0,1.38A2.63,2.63,0,0,0,53.5,169.43Z"/><path class="cls-2" d="M35.29,178.62a2.69,2.69,0,0,0-2.38,0,.73.73,0,0,0,0,1.38,2.6,2.6,0,0,0,2.38,0A.73.73,0,0,0,35.29,178.62Z"/><path class="cls-2" d="M42.48,177.51a2.63,2.63,0,0,0-2.38,0,.73.73,0,0,0,0,1.38,2.63,2.63,0,0,0,2.38,0C43.15,178.51,43.14,177.89,42.48,177.51Z"/><path class="cls-2" d="M47.3,177.77a2.63,2.63,0,0,0,2.38,0,.73.73,0,0,0,0-1.38,2.63,2.63,0,0,0-2.38,0A.73.73,0,0,0,47.3,177.77Z"/><path class="cls-2" d="M33.38,182.8a2.6,2.6,0,0,0-2.38,0l-.17.11,2.36,1.37.2-.1A.73.73,0,0,0,33.38,182.8Z"/><path class="cls-2" d="M75.51,149.13a2.63,2.63,0,0,0-2.38,0,.73.73,0,0,0,0,1.38l1.19-.69,1.19.69A.73.73,0,0,0,75.51,149.13Z"/><path class="cls-2" d="M80.32,149.39a2.63,2.63,0,0,0,2.38,0,.73.73,0,0,0,0-1.38,2.63,2.63,0,0,0-2.38,0A.73.73,0,0,0,80.32,149.39Z"/><path class="cls-2" d="M87.52,148.27a2.6,2.6,0,0,0,2.38,0c.66-.38.65-1,0-1.38a2.63,2.63,0,0,0-2.38,0A.73.73,0,0,0,87.52,148.27Z"/><path class="cls-2" d="M71.22,153.3c-.66.38-.65,1,0,1.38a2.63,2.63,0,0,0,2.38,0,.73.73,0,0,0,0-1.38A2.63,2.63,0,0,0,71.22,153.3Z"/><path class="cls-2" d="M75.51,150.51l-1.19-.69-1.19.69A2.63,2.63,0,0,0,75.51,150.51Z"/><path class="cls-2" d="M60.21,162.76c-.66.38-.65,1,0,1.38a2.63,2.63,0,0,0,2.38,0,.73.73,0,0,0,0-1.38A2.63,2.63,0,0,0,60.21,162.76Z"/><path class="cls-2" d="M62.12,158.59a.73.73,0,0,0,0,1.38,2.63,2.63,0,0,0,2.38,0,.73.73,0,0,0,0-1.38A2.63,2.63,0,0,0,62.12,158.59Z"/><path class="cls-2" d="M69.32,158.85a2.63,2.63,0,0,0,2.38,0c.66-.38.65-1,0-1.38a2.63,2.63,0,0,0-2.38,0l1.19.69-1.19-.69A.73.73,0,0,0,69.32,158.85Z"/><path class="cls-2" d="M53,163.88a.73.73,0,0,0,0,1.38,2.63,2.63,0,0,0,2.38,0,.73.73,0,0,0,0-1.38A2.63,2.63,0,0,0,53,163.88Z"/><path class="cls-2" d="M39.1,170.29a2.57,2.57,0,0,0-2.38,0c-.65.38-.65,1,0,1.38a2.63,2.63,0,0,0,2.38,0L37.92,171l1.19.69A.73.73,0,0,0,39.1,170.29Z"/><path class="cls-2" d="M46.31,170.54c.65-.37.65-1,0-1.37a2.63,2.63,0,0,0-2.38,0,.72.72,0,0,0,0,1.37A2.6,2.6,0,0,0,46.31,170.54Z"/><path class="cls-2" d="M48.21,166.38c.66-.38.65-1,0-1.38a2.6,2.6,0,0,0-2.38,0c-.65.38-.65,1,0,1.38A2.63,2.63,0,0,0,48.21,166.38Z"/><path class="cls-2" d="M30,175.57a2.63,2.63,0,0,0-2.38,0c-.66.39-.66,1,0,1.38A2.63,2.63,0,0,0,30,177,.73.73,0,0,0,30,175.57Z"/><path class="cls-2" d="M37.2,174.46a2.63,2.63,0,0,0-2.38,0c-.66.38-.65,1,0,1.37a2.63,2.63,0,0,0,2.38,0A.72.72,0,0,0,37.2,174.46Z"/><path class="cls-2" d="M42,174.72a2.63,2.63,0,0,0,2.38,0,.73.73,0,0,0,0-1.38,2.63,2.63,0,0,0-2.38,0A.73.73,0,0,0,42,174.72Z"/><path class="cls-2" d="M28.1,179.75a2.6,2.6,0,0,0-2.38,0,.71.71,0,0,0-.17.11l2.35,1.36.2-.1A.72.72,0,0,0,28.1,179.75Z"/><path class="cls-2" d="M75,146.34a2.63,2.63,0,0,0,2.38,0c.66-.39.66-1,0-1.38A2.61,2.61,0,0,0,75,145,.73.73,0,0,0,75,146.34Z"/><path class="cls-2" d="M82.24,145.22a2.63,2.63,0,0,0,2.38,0,.73.73,0,0,0,0-1.38,2.63,2.63,0,0,0-2.38,0C81.57,144.23,81.57,144.84,82.24,145.22Z"/><path class="cls-2" d="M64,154.42a.73.73,0,0,0,0,1.38,2.63,2.63,0,0,0,2.38,0l-1.19-.69,1.19.69c.66-.38.65-1,0-1.38A2.63,2.63,0,0,0,64,154.42Z"/><path class="cls-2" d="M61.11,151.37a2.6,2.6,0,0,0-2.38,0,.72.72,0,0,0,0,1.37,2.6,2.6,0,0,0,2.38,0C61.78,152.36,61.77,151.75,61.11,151.37Z"/><path class="cls-2" d="M68.31,150.24a2.63,2.63,0,0,0-2.38,0c-.66.38-.65,1,0,1.37a2.57,2.57,0,0,0,2.38,0C69,151.24,69,150.63,68.31,150.24Z"/><path class="cls-2" d="M70.22,147.45,69,146.76l-1.19.69A2.6,2.6,0,0,0,70.22,147.45Z"/><path class="cls-2" d="M54.93,159.71c-.66.38-.66,1,0,1.38a2.63,2.63,0,0,0,2.38,0,.73.73,0,0,0,0-1.38A2.6,2.6,0,0,0,54.93,159.71Z"/><path class="cls-2" d="M56.83,155.54a.73.73,0,0,0,0,1.37,2.6,2.6,0,0,0,2.38,0c.66-.38.66-1,0-1.38A2.63,2.63,0,0,0,56.83,155.54Z"/><path class="cls-2" d="M47.73,160.83a.72.72,0,0,0,0,1.37,2.6,2.6,0,0,0,2.38,0c.66-.38.66-1,0-1.38A2.58,2.58,0,0,0,47.73,160.83Z"/><path class="cls-2" d="M33.81,167.23a2.63,2.63,0,0,0-2.38,0,.73.73,0,0,0,0,1.38,2.63,2.63,0,0,0,2.38,0l-1.2-.69,1.2.69C34.48,168.23,34.47,167.61,33.81,167.23Z"/><path class="cls-2" d="M41,167.49a.73.73,0,0,0,0-1.38,2.63,2.63,0,0,0-2.38,0,.73.73,0,0,0,0,1.38A2.63,2.63,0,0,0,41,167.49Z"/><path class="cls-2" d="M42.92,163.32a.73.73,0,0,0,0-1.38,2.63,2.63,0,0,0-2.38,0,.73.73,0,0,0,0,1.38A2.63,2.63,0,0,0,42.92,163.32Z"/><path class="cls-2" d="M24.71,172.52a2.63,2.63,0,0,0-2.38,0c-.66.38-.65,1,0,1.38a2.63,2.63,0,0,0,2.38,0l-1.19-.69,1.19.69A.73.73,0,0,0,24.71,172.52Z"/><path class="cls-2" d="M31.9,171.4a2.61,2.61,0,0,0-2.37,0,.73.73,0,0,0,0,1.38,2.63,2.63,0,0,0,2.38,0A.73.73,0,0,0,31.9,171.4Z"/><path class="cls-2" d="M22.8,176.69a2.61,2.61,0,0,0-2.37,0l-.17.12,2.35,1.36.2-.1A.73.73,0,0,0,22.8,176.69Z"/><path class="cls-2" d="M69.75,143.29a2.69,2.69,0,0,0,2.38,0,.73.73,0,0,0,0-1.38,2.6,2.6,0,0,0-2.38,0C69.08,142.29,69.09,142.91,69.75,143.29Z"/><path class="cls-2" d="M76.94,142.16a2.57,2.57,0,0,0,2.38,0,.72.72,0,0,0,0-1.37,2.63,2.63,0,0,0-2.38,0A.72.72,0,0,0,76.94,142.16Z"/><path class="cls-2" d="M60.65,148.57a2.63,2.63,0,0,0,2.38,0,.73.73,0,0,0,0-1.38,2.63,2.63,0,0,0-2.38,0A.73.73,0,0,0,60.65,148.57Z"/><path class="cls-2" d="M67.84,147.45l1.19-.69,1.19.69a.72.72,0,0,0,0-1.37,2.63,2.63,0,0,0-2.38,0A.72.72,0,0,0,67.84,147.45Z"/><path class="cls-2" d="M49.63,156.65c-.66.38-.65,1,0,1.38A2.63,2.63,0,0,0,52,158a.73.73,0,0,0,0-1.38A2.63,2.63,0,0,0,49.63,156.65Z"/><path class="cls-2" d="M53.92,152.48a2.63,2.63,0,0,0-2.38,0,.73.73,0,0,0,0,1.38,2.63,2.63,0,0,0,2.38,0A.73.73,0,0,0,53.92,152.48Z"/><path class="cls-2" d="M44.82,159.15a.73.73,0,0,0,0-1.38,2.63,2.63,0,0,0-2.38,0,.73.73,0,0,0,0,1.38A2.63,2.63,0,0,0,44.82,159.15Z"/><path class="cls-2" d="M35.73,164.44a.73.73,0,0,0,0-1.38,2.63,2.63,0,0,0-2.38,0c-.66.38-.65,1,0,1.38A2.63,2.63,0,0,0,35.73,164.44Z"/><path class="cls-2" d="M19.43,169.46a2.69,2.69,0,0,0-2.38,0,.73.73,0,0,0,0,1.38,2.6,2.6,0,0,0,2.38,0A.73.73,0,0,0,19.43,169.46Z"/><path class="cls-2" d="M26.62,168.35a2.63,2.63,0,0,0-2.38,0c-.66.38-.65,1,0,1.38a2.63,2.63,0,0,0,2.38,0A.73.73,0,0,0,26.62,168.35Z"/><path class="cls-2" d="M17.52,173.64a2.67,2.67,0,0,0-2-.17L16,174c.11.1.21.21.33.31s.56.45.86.67l.18.15h0l.12-.06A.73.73,0,0,0,17.52,173.64Z"/><path class="cls-2" d="M64.46,140.23a2.63,2.63,0,0,0,2.38,0c.66-.38.65-1,0-1.38a2.63,2.63,0,0,0-2.38,0A.73.73,0,0,0,64.46,140.23Z"/><path class="cls-2" d="M71.66,139.11a2.6,2.6,0,0,0,2.38,0,.73.73,0,0,0,0-1.38,2.63,2.63,0,0,0-2.38,0A.73.73,0,0,0,71.66,139.11Z"/><path class="cls-2" d="M55.36,145.52a2.63,2.63,0,0,0,2.38,0,.73.73,0,0,0,0-1.38,2.63,2.63,0,0,0-2.38,0A.73.73,0,0,0,55.36,145.52Z"/><path class="cls-2" d="M62.55,144.4a2.63,2.63,0,0,0,2.38,0l-1.19-.69,1.19.69a.73.73,0,0,0,0-1.38,2.63,2.63,0,0,0-2.38,0A.73.73,0,0,0,62.55,144.4Z"/><path class="cls-2" d="M46.26,150.81a2.63,2.63,0,0,0,2.38,0,.73.73,0,0,0,0-1.38,2.63,2.63,0,0,0-2.38,0A.73.73,0,0,0,46.26,150.81Z"/><path class="cls-2" d="M53.45,149.69a2.63,2.63,0,0,0,2.38,0c.66-.38.65-1,0-1.38a2.63,2.63,0,0,0-2.38,0A.73.73,0,0,0,53.45,149.69Z"/><path class="cls-2" d="M37.16,156.1a2.63,2.63,0,0,0,2.38,0c.66-.38.65-1,0-1.38a2.63,2.63,0,0,0-2.38,0A.73.73,0,0,0,37.16,156.1Z"/><path class="cls-2" d="M44.36,155a2.63,2.63,0,0,0,2.38,0,.73.73,0,0,0,0-1.38,2.63,2.63,0,0,0-2.38,0C43.69,154,43.7,154.6,44.36,155Z"/><path class="cls-2" d="M28.06,161.38a2.6,2.6,0,0,0,2.38,0c.66-.38.65-1,0-1.37a2.63,2.63,0,0,0-2.38,0C27.39,160.39,27.4,161,28.06,161.38Z"/><path class="cls-2" d="M35.25,160.27l1.19-.69-1.19.69a2.63,2.63,0,0,0,2.38,0,.73.73,0,0,0,0-1.38,2.63,2.63,0,0,0-2.38,0A.73.73,0,0,0,35.25,160.27Z"/><path class="cls-2" d="M14.14,166.41a2.3,2.3,0,0,0-.39-.17c0,.07-.06.13-.08.19s0,.08,0,.13a1.16,1.16,0,0,0,0,.18l.37-.23-.37.23a4.61,4.61,0,0,0-.16.64l.5.29-.5-.29a.14.14,0,0,1,0,.06,1,1,0,0,1,0,.17c0,.14,0,.29,0,.44a2.23,2.23,0,0,0,.79-.26A.73.73,0,0,0,14.14,166.41Z"/><path class="cls-2" d="M21.33,165.3a2.63,2.63,0,0,0-2.38,0,.72.72,0,0,0,0,1.37,2.63,2.63,0,0,0,2.38,0A.72.72,0,0,0,21.33,165.3Z"/><path class="cls-2" d="M26.15,165.56a2.63,2.63,0,0,0,2.38,0,.73.73,0,0,0,0-1.38,2.63,2.63,0,0,0-2.38,0A.73.73,0,0,0,26.15,165.56Z"/><path class="cls-2" d="M52.45,142.46c.56-.32.64-.82.24-1.19l-1.79,1-.52.3A2.65,2.65,0,0,0,52.45,142.46Z"/><path class="cls-2" d="M57.27,141.35a2.63,2.63,0,0,0,2.38,0,.73.73,0,0,0,0-1.38,2.63,2.63,0,0,0-2.38,0A.73.73,0,0,0,57.27,141.35Z"/><path class="cls-2" d="M39.06,150.55l1.2.69,1.18-.69A2.6,2.6,0,0,0,39.06,150.55Z"/><path class="cls-2" d="M43.35,147.75c.56-.32.64-.82.24-1.19l-2.31,1.34A2.65,2.65,0,0,0,43.35,147.75Z"/><path class="cls-2" d="M48.17,146.64a2.63,2.63,0,0,0,2.38,0c.66-.38.65-1,0-1.38a2.63,2.63,0,0,0-2.38,0l1.19.69-1.19-.69A.73.73,0,0,0,48.17,146.64Z"/><path class="cls-2" d="M34.25,153c.56-.33.64-.82.24-1.2l-2.31,1.35A2.65,2.65,0,0,0,34.25,153Z"/><path class="cls-2" d="M39.07,151.93a2.63,2.63,0,0,0,2.38,0,.73.73,0,0,0,0-1.38l-1.18.69-1.2-.69C38.4,150.93,38.41,151.54,39.07,151.93Z"/><path class="cls-2" d="M25.15,158.33c.56-.33.64-.82.24-1.2l-1.9,1.1-.41.24A2.65,2.65,0,0,0,25.15,158.33Z"/><path class="cls-2" d="M30,157.22a2.63,2.63,0,0,0,2.38,0,.73.73,0,0,0,0-1.38,2.6,2.6,0,0,0-2.38,0C29.31,156.22,29.3,156.83,30,157.22Z"/><path class="cls-2" d="M16.43,162.6l-.1.08-.23.21c-.22.2-.42.4-.61.61l-.22.24-.12.15a2.37,2.37,0,0,0,.9-.27C16.52,163.34,16.65,162.94,16.43,162.6Z"/><path class="cls-2" d="M20.86,162.51a2.69,2.69,0,0,0,2.38,0,.73.73,0,0,0,0-1.38,2.57,2.57,0,0,0-2.38,0l1.19.69-1.19-.69C20.2,161.51,20.2,162.12,20.86,162.51Z"/><path d="M207.5,228l-28,16.2c3.88-2.25,6.29-7.05,6.31-13.84l28-16.21C213.79,220.93,211.38,225.72,207.5,228Z"/><polygon points="185.95 112.42 213.94 96.21 213.72 147.88 185.72 164.09 185.95 112.42"/><polygon class="cls-3" points="185.95 163.64 213.94 147.43 213.72 214.23 185.72 230.43 185.95 163.64"/><path d="M173.79,246.62a20.61,20.61,0,0,1-10.13-3.06L57.32,182.16c-12.18-7-22-24.14-22-38.14l.33-118.61,29-16.78L215,95.36l-.23,118.77c0,7-2.44,12.17-6.81,14.71l-28,16.21v0A12.29,12.29,0,0,1,173.79,246.62Zm-1.21-2.06.78.05v-.26h.3c.23,0,.45,0,.66,0v.23c.26,0,.52,0,.77-.06l0-.26.3,0a3.55,3.55,0,0,0,.57-.07l.05.23c.24-.05.49-.1.72-.17l-.07-.26.28-.08a4.44,4.44,0,0,0,.52-.15l.09.23.67-.28-.11-.25.25-.12a5.24,5.24,0,0,0,.48-.23l.12.22a8.18,8.18,0,0,0,.69-.45h0l0,.06.61-.36-.08-.09h0l0,0,.16-.16.21-.21.16-.11.17.22,26-15.07c3.73-2.16,5.79-6.77,5.81-13L213,96.51,64.64,10.94,38.64,26,187,111.74l-.27,97h-2l.27-95.81L37.64,27.72,37.31,144c0,13.37,9.38,29.7,21,36.41l106.25,61.34.09-.17a23.52,23.52,0,0,0,2.11,1.09l-.08.19.68.31.09-.22.25.11c.37.15.74.31,1.1.43l-.07.2.73.23.07-.23.26.08c.32.1.64.19.95.26l-.05.21.79.16,0-.25.3.05.77.12Z"/><path d="M173.64,246.19a20.27,20.27,0,0,1-10-3L57.35,181.77c-12.06-7-21.83-23.9-21.79-37.75l.33-118A.76.76,0,0,1,37,25.34l149.3,86.2a.74.74,0,0,1,.38.65l-.33,118c0,6.82-2.41,11.94-6.71,14.42A11.87,11.87,0,0,1,173.64,246.19ZM37.39,27.28,37.06,144c0,13.38,9.4,29.73,21,36.45l106.33,61.39c5.49,3.17,10.63,3.69,14.48,1.48s5.94-6.86,6-13.12l.33-117.6Z"/><path class="cls-3" d="M186,112.19,36.64,26l-.33,118c0,13.57,9.59,30.27,21.42,37.1l106.33,61.39c11.81,6.82,21.52,1.28,21.56-12.29l.33-118"/><path d="M173.64,246.19a20.27,20.27,0,0,1-10-3L57.35,181.77c-12.06-7-21.83-23.9-21.79-37.75l.33-118A.76.76,0,0,1,37,25.34l149.3,86.2a.74.74,0,0,1,.38.65l-.33,118c0,6.82-2.41,11.94-6.71,14.42A11.87,11.87,0,0,1,173.64,246.19ZM37.39,27.28,37.06,144c0,13.38,9.4,29.73,21,36.45l106.33,61.39c5.49,3.17,10.63,3.69,14.48,1.48s5.94-6.86,6-13.12l.33-117.6Z"/><rect x="183.74" y="103.38" width="32.51" height="1.5" transform="translate(-25.22 114.94) rotate(-30.25)"/><path d="M52.67,51.38c-2.68-1.55-4.86-.3-4.87,2.78a10.64,10.64,0,0,0,4.84,8.38c2.68,1.54,4.86.3,4.86-2.78a10.66,10.66,0,0,0-4.83-8.38"/><path d="M67.82,60.13C65.14,58.58,63,59.82,63,62.91a10.67,10.67,0,0,0,4.84,8.38c2.68,1.55,4.86.3,4.87-2.78a10.64,10.64,0,0,0-4.84-8.38"/><path d="M83,68.88c-2.69-1.55-4.86-.3-4.87,2.78A10.62,10.62,0,0,0,82.94,80c2.69,1.55,4.87.32,4.88-2.77A10.65,10.65,0,0,0,83,68.88"/><g id="bundle-os-x-cursors"><g id="busybutclickable"><path class="cls-4" d="M0,76.64v69L18.32,128l1-.85H50.38Z"/></g></g><path d="M168.73,147.41,18.34,60.78,18.44,0,168.83,86.63ZM20.34,59.62,166.74,144l.08-56.16L20.43,3.46Z"/><g class="cls-5"><g class="cls-6"><polyline points="104.56 140.24 52.08 109.94 52.06 115.9 104.54 146.2 104.56 140.24"/><polyline points="125.19 152.15 110.03 143.4 110.01 149.36 125.17 158.11 125.19 152.15"/><polyline points="145.74 164.02 130.58 155.27 130.57 161.23 145.72 169.98 145.74 164.02"/><polyline points="129.05 139.51 89.37 116.6 89.35 122.56 129.03 145.47 129.05 139.51"/><polyline points="83.88 113.43 64.95 102.5 64.94 108.46 83.86 119.39 83.88 113.43"/><polyline points="59.76 99.51 52.12 95.09 52.1 101.05 59.75 105.46 59.76 99.51"/><polyline points="154.06 213.43 114.38 190.52 114.36 196.49 154.04 219.4 154.06 213.43"/><polyline points="108.88 187.35 89.95 176.42 89.94 182.39 108.86 193.31 108.88 187.35"/><polyline points="84.76 173.43 77.12 169.01 77.1 174.98 84.75 179.39 84.76 173.43"/><polyline points="71.79 165.94 51.95 154.48 51.94 160.45 71.77 171.9 71.79 165.94"/><polyline points="145.7 178.86 93.22 148.56 93.2 154.53 145.68 184.83 145.7 178.86"/><polyline points="87.75 145.4 72.59 136.65 72.57 142.62 87.73 151.37 87.75 145.4"/><polyline points="67.19 133.54 52.04 124.79 52.02 130.75 67.18 139.5 67.19 133.54"/><polyline points="91.67 162.54 51.99 139.63 51.98 145.6 91.66 168.51 91.67 162.54"/><polyline points="116.1 176.64 97.17 165.72 97.16 171.68 116.08 182.61 116.1 176.64"/><polyline points="128.92 184.05 121.28 179.64 121.26 185.6 128.91 190.01 128.92 184.05"/></g></g><circle cx="121.44" cy="8.6" r="2.95"/><circle cx="141.77" cy="8.6" r="2.95"/><circle cx="182.45" cy="8.6" r="2.95"/><circle cx="202.78" cy="8.6" r="2.95"/><circle cx="162.11" cy="8.6" r="2.95"/><circle cx="121.44" cy="28.94" r="2.95"/><circle cx="141.77" cy="28.94" r="2.95"/><circle cx="182.45" cy="28.94" r="2.95"/><circle cx="202.78" cy="28.94" r="2.95"/><circle cx="162.11" cy="28.94" r="2.95"/><circle cx="121.44" cy="49.27" r="2.95"/><circle cx="141.77" cy="49.27" r="2.95"/><circle cx="182.45" cy="49.27" r="2.95"/><circle cx="202.78" cy="49.27" r="2.95"/><circle cx="162.11" cy="49.27" r="2.95"/><circle cx="121.44" cy="69.61" r="2.95"/><circle cx="141.77" cy="69.61" r="2.95"/><circle cx="182.45" cy="69.61" r="2.95"/><circle cx="202.78" cy="69.61" r="2.95"/><circle cx="162.11" cy="69.61" r="2.95"/><circle cx="121.44" cy="89.94" r="2.95"/><circle cx="141.77" cy="89.94" r="2.95"/><circle cx="182.45" cy="89.94" r="2.95"/><circle cx="202.78" cy="89.94" r="2.95"/><circle cx="162.11" cy="89.94" r="2.95"/><polygon points="185.95 195.02 213.94 178.82 213.72 215.07 185.72 231.27 185.95 195.02"/></svg>