<?xml version="1.0" encoding="utf-8"?>
<!-- Generator: Adobe Illustrator 24.0.1, SVG Export Plug-In . SVG Version: 6.00 Build 0)  -->
<svg version="1.1" id="Layer_1" xmlns="http://www.w3.org/2000/svg" xmlns:xlink="http://www.w3.org/1999/xlink" x="0px" y="0px"
	 viewBox="0 0 121.4 85" style="enable-background:new 0 0 121.4 85;" xml:space="preserve">
<style type="text/css">
	.st0{fill:#191E1E;}
</style>
<title>youtube</title>
<g id="Layer_2_1_">
	<g id="Layer_1-2">
		<path class="st0" d="M118.9,13.3c-1.4-5.2-5.5-9.3-10.7-10.7C98.7,0,60.7,0,60.7,0s-38,0-47.5,2.5C8,4,3.9,8.1,2.5,13.3
			C0,22.8,0,42.5,0,42.5s0,19.8,2.5,29.2C3.9,76.9,8,81,13.2,82.4C22.8,85,60.7,85,60.7,85s38,0,47.5-2.5c5.2-1.4,9.3-5.5,10.7-10.7
			c2.5-9.5,2.5-29.2,2.5-29.2S121.5,22.8,118.9,13.3z M48.6,60.7V24.3l31.6,18.2L48.6,60.7z"/>
	</g>
</g>
</svg>
