<?xml version="1.0" standalone="no"?>
<!DOCTYPE svg PUBLIC "-//W3C//DTD SVG 1.1//EN" "http://www.w3.org/Graphics/SVG/1.1/DTD/svg11.dtd">
<svg xmlns="http://www.w3.org/2000/svg">
<defs >
<font id="WorkSans" horiz-adv-x="597" ><font-face
    font-family="Work Sans"
    units-per-em="1000"
    panose-1="0 0 8 0 0 0 0 0 0 0"
    ascent="930"
    descent="-243"
    alphabetic="0" />
<glyph unicode=" " glyph-name="space" horiz-adv-x="286" />
<glyph unicode="!" glyph-name="exclam" horiz-adv-x="301" d="M239 447L220 215H81L62 447V660H239V447ZM195 159T221 137T247 75Q247 36 221 14T150 -8Q105 -8 80 14T54 75Q54 115 79 137T150 159Q195 159 221 137Z" />
<glyph unicode="&quot;" glyph-name="quotedbl" horiz-adv-x="447" d="M374 401H261V678H403L374 401ZM176 401H63V678H205L176 401Z" />
<glyph unicode="#" glyph-name="numbersign" horiz-adv-x="689" d="M530 400L508 262H619V160H491L465 0H350L376 160H246L221 0H105L130 160H26V262H147L169 400H69V502H186L211 660H327L302 502H431L456 660H572L547 502H662V400H530ZM415 400H285L263 262H392L415
400Z" />
<glyph unicode="$" glyph-name="dollar" horiz-adv-x="638" d="M279 2Q188 8 127 39T25 126L110 225Q132 181 176 154T279 118V270Q209 284 161 302T80 357T47 458Q47 538 108 593T279 658V748H376V658Q460 652 513 623T611 539L526 443Q498 489 462 512T376 541V384Q444
370 492 351T572 294T605 191Q605 111 542 61T376 2V-88H279V2ZM279 538Q242 532 222 514T202 468Q202 443 222 429T279 404V538ZM451 131T451 184Q451 210 432 224T376 249V120Q451 131 451 184Z" />
<glyph unicode="%" glyph-name="percent" horiz-adv-x="938" d="M300 670T351 619T402 482Q402 397 351 346T216 294Q132 294 81 345T30 482Q30 567 81 618T216 670Q300 670 351 619ZM634 661H764L305 0H175L634 661ZM188 556T173 537T157 482Q157 447 172 428T216
408Q245 408 260 427T276 482Q276 517 261 536T216 556Q188 556 173 537ZM805 366T856 315T907 178Q907 93 856 42T721 -10Q637 -10 586 41T535 178Q535 263 586 314T721 366Q805 366 856 315ZM692 252T677 233T661 178Q661 143 676 124T721 104Q750 104 765 123T781
178Q781 213 766 232T721 252Q692 252 677 233Z" />
<glyph unicode="&amp;" glyph-name="ampersand" horiz-adv-x="646" d="M627 -10Q571 -10 533 2T447 52Q413 22 365 6T257 -10Q153 -10 90 37T25 169Q25 223 56 271T160 347Q120 395 106 428T92 502Q92 545 114 583T182 646T293 670Q388 670 439 626T491 514Q491
391 348 333Q379 299 395 281L462 209Q488 265 485 339L598 336Q598 219 534 140Q556 123 576 116T619 108Q634 108 642 109L627 -10ZM269 558T253 542T237 496Q237 476 247 456T290 398Q330 426 343 450T356 504Q356 530 341 544T297 558Q269 558 253 542ZM326
102T371 122L313 182Q253 244 226 273Q194 249 183 229T171 181Q171 146 199 124T274 102Q326 102 371 122Z" />
<glyph unicode="&apos;" glyph-name="quotesingle" horiz-adv-x="250" d="M176 401H63V678H205L176 401Z" />
<glyph unicode="(" glyph-name="parenleft" horiz-adv-x="391" d="M381 658Q295 581 258 492T220 273Q220 142 257 53T381 -113L301 -191Q67 -35 67 273Q67 427 126 543T301 736L381 658Z" />
<glyph unicode=")" glyph-name="parenright" horiz-adv-x="391" d="M205 659T264 543T324 273Q324 -34 90 -191L10 -113Q96 -36 133 52T170 273Q170 403 133 492T10 658L90 736Q205 659 264 543Z" />
<glyph unicode="*" glyph-name="asterisk" horiz-adv-x="588" d="M406 424L489 315L391 244L313 357L294 399L274 357L196 244L99 315L182 424L216 456L169 461L39 500L76 615L205 570L246 547L237 593L233 730H354L351 593L342 547L383 570L513 615L550 500L418
461L372 456L406 424Z" />
<glyph unicode="+" glyph-name="plus" horiz-adv-x="604" d="M553 264H370V60H235V264H51V386H235V589H370V386H553V264Z" />
<glyph unicode="," glyph-name="comma" horiz-adv-x="290" d="M195 172T222 136T250 43Q250 -23 215 -76T111 -158L36 -105Q83 -87 115 -60T160 2L156 5Q145 -6 125 -6Q92 -6 67 16T42 78Q42 123 69 147T142 172Q195 172 222 136Z" />
<glyph unicode="-" glyph-name="hyphen" horiz-adv-x="528" d="M447 198H81V337H447V198Z" />
<glyph unicode="." glyph-name="period" horiz-adv-x="290" d="M192 172T218 148T245 81Q245 39 219 15T145 -9Q98 -9 72 15T45 81Q45 124 71 148T145 172Q192 172 218 148Z" />
<glyph unicode="/" glyph-name="slash" horiz-adv-x="468" d="M173 -70H15L295 712H453L173 -70Z" />
<glyph unicode="0" glyph-name="zero" horiz-adv-x="644" d="M48 -10T48 330Q48 670 322 670Q596 670 596 330Q596 -10 322 -10Q48 -10 48 330ZM377 124T401 172T426 330Q426 440 402 488T322 536Q267 536 243 488T218 330Q218 220 242 172T322 124Q377 124 401 172Z" />
<glyph unicode="1" glyph-name="one" horiz-adv-x="439" d="M365 660V0H199V491Q122 421 43 407L27 549Q78 555 140 589T228 660H365Z" />
<glyph unicode="2" glyph-name="two" horiz-adv-x="596" d="M60 110Q227 214 301 294T376 446Q376 486 353 510T287 535Q240 535 214 501T186 400L39 445Q41 552 112 611T298 670Q381 670 437 640T520 561T547 458Q547 365 478 287T267 128V127Q333 131 400 131H555V0H60V110Z"
/>
<glyph unicode="3" glyph-name="three" horiz-adv-x="593" d="M410 670T472 620T534 485Q534 434 513 400T462 349T410 333V330Q438 330 469 316T524 268T547 180Q547 124 514 81T423 14T291 -10Q185 -10 122 29T31 154L187 221Q192 169 217 146T289 123Q332 123
356 143T381 201Q381 240 358 257T283 274H246V383H275Q323 383 345 402T367 462Q367 498 347 517T289 537Q205 537 197 448L46 499Q62 587 129 628T299 670Q410 670 472 620Z" />
<glyph unicode="4" glyph-name="four" horiz-adv-x="646" d="M618 145H517V0H365V145H33V226L316 660H517V263H618V145ZM193 263H365V439L369 547H367Q349 502 309 439L193 263Z" />
<glyph unicode="5" glyph-name="five" horiz-adv-x="583" d="M402 426T448 401T520 330T545 226Q545 148 511 95T419 16T288 -10Q198 -10 135 21T30 122L181 208Q191 164 215 142T289 120Q336 120 363 144T390 214Q389 259 364 283T289 307Q217 307 184 268L54
287L96 660H508V527H221L206 403Q203 386 201 379H202Q222 401 258 413T338 426Q402 426 448 401Z" />
<glyph unicode="6" glyph-name="six" horiz-adv-x="616" d="M520 670T570 524L429 458Q408 534 329 534Q273 534 238 482T203 340V324H205Q222 366 264 388T365 411Q426 411 475 386T551 314T579 206Q579 106 512 48T325 -10Q192 -10 121 77T50 330Q50 443 87
519T190 633T340 670Q520 670 570 524ZM285 295T260 272T234 207Q234 166 259 143T328 119Q373 119 397 142T422 207Q422 249 398 272T328 295Q285 295 260 272Z" />
<glyph unicode="7" glyph-name="seven" horiz-adv-x="614" d="M585 660V538Q467 424 418 293T369 0H199Q199 151 251 280T417 525H42V660H585Z" />
<glyph unicode="8" glyph-name="eight" horiz-adv-x="627" d="M428 668T494 619T561 483Q561 432 534 395T456 338V337Q517 317 549 276T582 175Q582 89 511 40T313 -10Q189 -10 117 39T45 175Q45 235 77 276T171 337V338Q121 357 94 394T66 483Q66 569 132 618T313
668Q428 668 494 619ZM272 543T249 523T226 467Q226 432 249 412T313 391Q354 391 377 411T401 467Q401 503 378 523T313 543Q272 543 249 523ZM361 115T388 137T415 197Q415 236 388 257T313 279Q266 279 239 258T212 197Q212 159 239 137T313 115Q361 115 388
137Z" />
<glyph unicode="9" glyph-name="nine" horiz-adv-x="615" d="M430 670T500 582T571 326Q571 154 499 72T291 -10Q200 -10 140 25T49 134L203 195Q212 158 232 139T294 120Q416 120 416 307V323H413Q400 281 356 259T255 236Q196 236 147 262T70 336T41 446Q41
551 108 610T298 670Q430 670 500 582ZM248 535T224 512T199 447Q199 405 223 382T293 359Q337 359 362 382T387 447Q387 488 362 511T293 535Q248 535 224 512Z" />
<glyph unicode=":" glyph-name="colon" horiz-adv-x="302" d="M198 510T224 486T251 419Q251 377 225 353T151 329Q104 329 78 353T51 419Q51 462 77 486T151 510Q198 510 224 486ZM198 172T224 148T251 81Q251 39 225 15T151 -9Q104 -9 78 15T51 81Q51 124 77
148T151 172Q198 172 224 148Z" />
<glyph unicode=";" glyph-name="semicolon" horiz-adv-x="302" d="M105 330T79 353T52 420Q52 462 78 486T152 510Q199 510 225 486T252 420Q252 377 226 354T152 330Q105 330 79 353ZM202 172T229 136T257 43Q257 -23 222 -76T118 -158L43 -105Q90 -87 122 -60T167
2L163 5Q152 -6 132 -6Q99 -6 74 16T49 78Q49 123 76 147T149 172Q202 172 229 136Z" />
<glyph unicode="&lt;" glyph-name="less" horiz-adv-x="604" d="M553 427L182 297L553 166V5L63 223V370L553 588V427Z" />
<glyph unicode="=" glyph-name="equal" horiz-adv-x="604" d="M539 366H65V483H539V366ZM539 150H65V267H539V150Z" />
<glyph unicode="&gt;" glyph-name="greater" horiz-adv-x="604" d="M541 370V223L51 5V166L421 297L51 427V588L541 370Z" />
<glyph unicode="?" glyph-name="question" horiz-adv-x="607" d="M426 670T495 625T565 489Q565 321 375 300L365 214H219L210 366Q302 373 342 397T382 463Q382 496 361 514T296 532Q252 532 226 507T196 431L32 494Q44 574 111 622T308 670Q426 670 495 625ZM338
161T363 139T389 77Q389 37 364 15T293 -8Q247 -8 222 14T196 77Q196 117 221 139T293 161Q338 161 363 139Z" />
<glyph unicode="@" glyph-name="at" horiz-adv-x="946" d="M617 660T707 612T846 474T895 260Q895 174 866 115T789 28T685 0Q633 0 598 22T546 85Q491 2 392 2Q318 2 274 54T230 191Q230 280 261 342T344 435T461 467Q510 467 537 444T573 390L594 458H716L671
171Q669 160 669 142Q669 113 681 100T723 86Q765 86 791 131T817 260Q817 417 731 501T493 585Q386 585 305 542T179 416T134 223Q134 118 178 43T297 -71T458 -110Q534 -110 578 -96T659 -53L702 -113Q652 -148 598 -166T455 -184Q338 -184 246 -135T101 6T49
223Q49 352 105 451T263 605T493 660Q617 660 707 612ZM435 357T406 318T376 211Q376 166 393 142T445 118Q476 118 500 137T529 193L540 274Q541 281 541 294Q541 357 480 357Q435 357 406 318Z" />
<glyph unicode="A" glyph-name="A" horiz-adv-x="677" d="M451 149H223L177 0H4L236 660H442L673 0H496L451 149ZM415 266L367 424L338 528H336L309 425L259 266H415Z" />
<glyph unicode="B" glyph-name="B" horiz-adv-x="684" d="M73 660H394Q632 659 632 482Q632 424 598 384T498 334V333Q572 323 610 282T649 178Q649 92 588 46T409 0H73V660ZM363 390Q456 390 456 462Q456 534 363 534H239V390H363ZM380 121Q426 121 449 140T473
195Q473 230 450 248T380 267H239V121H380Z" />
<glyph unicode="C" glyph-name="C" horiz-adv-x="681" d="M630 89T554 40T369 -10Q269 -10 196 30T84 147T45 330Q45 435 84 512T196 629T368 670Q476 670 551 625T650 488L499 427Q485 487 456 511T374 535Q301 535 261 483T221 330Q221 230 259 178T371 125Q426
125 458 151T502 233L658 189Q630 89 554 40Z" />
<glyph unicode="D" glyph-name="D" horiz-adv-x="718" d="M508 660T590 575T673 330Q673 171 591 86T353 0H73V660H353Q508 660 590 575ZM419 130T458 180T497 330Q497 430 458 480T336 530H245V130H336Q419 130 458 180Z" />
<glyph unicode="E" glyph-name="E" horiz-adv-x="631" d="M600 133V0H73V660H587V527H245V393H517V268H245V133H600Z" />
<glyph unicode="F" glyph-name="F" horiz-adv-x="612" d="M245 527V387H517V254H245V0H73V660H586V527H245Z" />
<glyph unicode="G" glyph-name="G" horiz-adv-x="723" d="M665 357V0H545L540 78Q483 -10 351 -10Q261 -10 192 29T83 145T44 329Q44 435 84 511T198 629T373 670Q486 670 555 630T664 501L505 438Q493 487 460 511T378 535Q302 535 262 483T221 330Q221 122 383
122Q444 122 481 150T519 231V241H355V357H665Z" />
<glyph unicode="H" glyph-name="H" horiz-adv-x="742" d="M669 660V0H497V266H245V0H73V660H245V399H497V660H669Z" />
<glyph unicode="I" glyph-name="I" horiz-adv-x="318" d="M245 0H73V660H245V0Z" />
<glyph unicode="J" glyph-name="J" horiz-adv-x="621" d="M559 254Q559 129 487 60T281 -10Q157 -10 94 46T30 199Q30 228 36 261L206 291Q201 253 201 229Q201 174 222 150T289 125Q342 125 364 160T387 272V660H559V254Z" />
<glyph unicode="K" glyph-name="K" horiz-adv-x="693" d="M325 283L245 186V0H73V660H245V367L481 660H672L448 392L684 0H489L325 283Z" />
<glyph unicode="L" glyph-name="L" horiz-adv-x="602" d="M576 133V0H73V660H245V133H576Z" />
<glyph unicode="M" glyph-name="M" horiz-adv-x="910" d="M837 0H685V303L690 506H688L525 0H386L223 506H221L226 303V0H73V660H318L422 324L459 184H461L499 323L602 660H837V0Z" />
<glyph unicode="N" glyph-name="N" horiz-adv-x="741" d="M668 0H477L272 357L222 457H221L225 333V0H73V660H264L469 303L519 203H520L516 327V660H668V0Z" />
<glyph unicode="O" glyph-name="O" horiz-adv-x="737" d="M469 670T541 630T653 513T692 330Q692 224 653 148T542 31T369 -10Q269 -10 196 30T84 147T45 330Q45 436 84 512T196 629T369 670Q469 670 541 630ZM297 535T259 483T221 330Q221 229 259 177T369 125Q441
125 478 177T516 330Q516 431 479 483T369 535Q297 535 259 483Z" />
<glyph unicode="P" glyph-name="P" horiz-adv-x="668" d="M499 660T565 604T631 441Q631 340 565 285T376 229H245V0H73V660H376Q499 660 565 604ZM405 355T431 376T458 443Q458 487 432 508T349 530H245V355H349Q405 355 431 376Z" />
<glyph unicode="Q" glyph-name="Q" horiz-adv-x="737" d="M604 -70T646 -31L687 -156Q661 -179 617 -191T517 -204Q418 -204 364 -157T310 -26L311 -6Q186 11 116 99T45 330Q45 436 84 512T196 629T369 670Q469 670 541 630T653 513T692 330Q692 185 621 97T422
-7Q426 -42 451 -56T523 -70Q604 -70 646 -31ZM221 229T259 177T369 125Q441 125 478 177T516 330Q516 431 479 483T369 535Q297 535 259 483T221 330Q221 229 259 177Z" />
<glyph unicode="R" glyph-name="R" horiz-adv-x="689" d="M345 241H242V0H73V660H388Q508 660 572 606T637 450Q637 378 604 330T508 259L676 0H486L345 241ZM242 363H359Q414 363 439 383T464 447Q464 490 439 510T359 530H242V363Z" />
<glyph unicode="S" glyph-name="S" horiz-adv-x="644" d="M425 670T491 642T615 551L518 439Q485 489 441 512T334 536Q282 536 254 518T226 470Q226 445 255 430T356 401Q493 376 551 328T610 193Q610 130 574 84T475 14T331 -10Q219 -10 149 17T28 102L116 222Q155
168 204 146T322 124Q377 124 404 139T432 184Q432 207 403 221T304 249Q219 266 164 289T78 353T47 455Q47 517 80 566T178 642T331 670Q425 670 491 642Z" />
<glyph unicode="T" glyph-name="T" horiz-adv-x="653" d="M628 527H413V0H241V527H25V660H628V527Z" />
<glyph unicode="U" glyph-name="U" horiz-adv-x="713" d="M651 269Q651 130 577 60T356 -10Q210 -10 136 60T61 269V660H234V266Q234 195 264 160T356 125Q480 125 480 266V660H651V269Z" />
<glyph unicode="V" glyph-name="V" horiz-adv-x="683" d="M443 0H241L6 660H187L308 261L344 131L379 259L502 660H677L443 0Z" />
<glyph unicode="W" glyph-name="W" horiz-adv-x="997" d="M393 0H200L10 660H195L304 135L423 660H579L700 136L809 660H987L796 0H609L531 320L501 481H499L470 320L393 0Z" />
<glyph unicode="X" glyph-name="X" horiz-adv-x="663" d="M450 0L326 217L206 0H11L235 332L24 660H227L341 450L455 660H641L430 337L655 0H450Z" />
<glyph unicode="Y" glyph-name="Y" horiz-adv-x="657" d="M414 241V0H242V241L9 660H187L280 479L329 369L379 479L472 660H647L414 241Z" />
<glyph unicode="Z" glyph-name="Z" horiz-adv-x="634" d="M603 130V0H37V124L406 530H44V660H591V536L224 130H603Z" />
<glyph unicode="[" glyph-name="bracketleft" horiz-adv-x="391" d="M232 594V-49H365V-168H85V713H365V594H232Z" />
<glyph unicode="\" glyph-name="backslash" horiz-adv-x="468" d="M173 712L453 -70H295L15 712H173Z" />
<glyph unicode="]" glyph-name="bracketright" horiz-adv-x="391" d="M306 -168H26V-49H159V594H26V713H306V-168Z" />
<glyph unicode="^" glyph-name="asciicircum" horiz-adv-x="612" d="M438 355L306 615L175 355H25L234 724H378L588 355H438Z" />
<glyph unicode="_" glyph-name="underscore" horiz-adv-x="539" d="M539 -201H0V-66H539V-201Z" />
<glyph unicode="`" glyph-name="grave" horiz-adv-x="500" d="M317 565H193L92 738H250L317 565Z" />
<glyph unicode="a" glyph-name="a" horiz-adv-x="581" d="M563 97T575 101L562 6Q533 -10 494 -10Q386 -10 365 67Q320 -10 187 -10Q112 -10 72 22T32 115Q32 179 77 218T227 279L340 301V319Q340 353 321 373T269 393Q231 393 207 375T176 316L38 356Q51 429
110 469T269 510Q386 510 447 462T508 318V136Q508 97 544 97Q563 97 575 101ZM284 100T312 119T340 171V214L259 195Q227 187 214 176T200 143Q200 122 213 111T249 100Q284 100 312 119Z" />
<glyph unicode="b" glyph-name="b" horiz-adv-x="628" d="M478 510T533 441T588 248Q588 126 534 58T382 -10Q323 -10 280 21T215 106L210 0H61V712H231V416Q252 460 290 485T382 510Q478 510 533 441ZM368 115T392 148T417 250Q417 319 393 352T323 385Q279 385
255 351T231 255V245Q231 181 255 148T323 115Q368 115 392 148Z" />
<glyph unicode="c" glyph-name="c" horiz-adv-x="571" d="M413 510T470 467T541 355L383 303Q373 389 306 389Q207 389 207 248Q207 111 306 111Q377 111 389 192L542 143Q531 75 470 33T307 -10Q177 -10 107 58T37 250Q37 373 106 441T300 510Q413 510 470 467Z" />
<glyph unicode="d" glyph-name="d" horiz-adv-x="628" d="M568 712V0H415L409 95Q387 46 345 18T246 -10Q149 -10 95 58T40 248Q40 372 95 441T247 510Q300 510 338 485T398 416V712H568ZM346 115T370 144T398 230V270Q395 325 371 355T305 385Q260 385 236 352T211
250Q211 181 235 148T305 115Q346 115 370 144Z" />
<glyph unicode="e" glyph-name="e" horiz-adv-x="582" d="M548 223T543 201H202Q210 154 236 132T307 110Q344 110 367 124T399 165L537 121Q516 57 456 24T307 -10Q176 -10 107 58T37 250Q37 374 105 442T298 510Q419 510 483 444T548 257Q548 223 543 201ZM216
391T201 293H389Q377 391 297 391Q216 391 201 293Z" />
<glyph unicode="f" glyph-name="f" horiz-adv-x="415" d="M255 500H407V379H265V0H95V379H15V500H95V546Q95 636 151 681T297 726Q375 726 412 697L395 591Q373 607 338 607Q255 607 255 535V500Z" />
<glyph unicode="g" glyph-name="g" horiz-adv-x="566" d="M465 111T512 73T560 -39Q560 -124 485 -169T279 -215Q148 -215 86 -184T23 -97Q23 -64 46 -39T116 -3Q39 30 39 101Q39 136 61 163T121 203Q39 247 39 340Q39 421 103 465T283 510Q337 510 383 499Q393
559 428 597T525 635L541 634L560 521Q540 523 532 523Q498 523 476 511T443 478Q527 434 527 340Q527 259 463 215T283 171Q229 171 187 180Q156 172 156 145Q156 111 208 111H378Q465 111 512 73ZM250 413T230 393T209 340Q209 307 229 288T283 268Q316 268 336
287T357 340Q357 373 337 393T283 413Q250 413 230 393ZM357 -105T391 -92T426 -56Q426 -40 412 -32T365 -24H228Q187 -24 170 -32T152 -59Q152 -105 291 -105Q357 -105 391 -92Z" />
<glyph unicode="h" glyph-name="h" horiz-adv-x="620" d="M468 510T515 464T562 333V0H392V286Q392 381 321 381Q281 381 256 352T231 263V0H61V712H231V409Q253 459 293 484T389 510Q468 510 515 464Z" />
<glyph unicode="i" glyph-name="i" horiz-adv-x="291" d="M94 558T71 577T47 639Q47 682 70 701T146 721Q198 721 221 702T245 639Q245 597 222 578T146 558Q94 558 71 577ZM231 0H61V500H231V0Z" />
<glyph unicode="j" glyph-name="j" horiz-adv-x="290" d="M196 721T220 701T245 639Q245 598 221 578T145 558Q94 558 71 578T47 639Q47 681 70 701T145 721Q196 721 220 701ZM231 -28Q231 -126 181 -170T37 -215Q-42 -215 -94 -183L-70 -73Q-47 -93 -7 -93Q26
-93 43 -75T61 -13V500H231V-28Z" />
<glyph unicode="k" glyph-name="k" horiz-adv-x="622" d="M312 205L231 115V0H61V712H231V290L422 500H610L426 304L621 0H433L312 205Z" />
<glyph unicode="l" glyph-name="l" horiz-adv-x="327" d="M229 173Q229 139 239 125T275 111Q299 111 326 120L315 15Q297 4 268 -3T211 -10Q131 -10 95 27T59 148V712H229V173Z" />
<glyph unicode="m" glyph-name="m" horiz-adv-x="941" d="M788 510T835 464T883 333V0H713V294Q713 380 645 380Q605 380 581 351T557 267V0H387V294Q387 380 319 380Q281 380 256 351T231 264V0H61V500H213L218 404Q242 456 285 483T386 510Q443 510 484 484T544
409Q568 458 612 484T712 510Q788 510 835 464Z" />
<glyph unicode="n" glyph-name="n" horiz-adv-x="620" d="M468 510T515 464T562 333V0H392V286Q392 337 374 358T321 380Q281 380 256 352T231 264V0H61V500H213L218 404Q242 457 286 483T389 510Q468 510 515 464Z" />
<glyph unicode="o" glyph-name="o" horiz-adv-x="602" d="M426 510T495 442T565 250Q565 127 496 59T301 -10Q176 -10 107 58T37 250Q37 373 106 441T301 510Q426 510 495 442ZM253 389T230 356T207 250Q207 177 230 144T301 111Q349 111 372 144T395 250Q395
323 372 356T301 389Q253 389 230 356Z" />
<glyph unicode="p" glyph-name="p" horiz-adv-x="628" d="M480 510T534 442T588 252Q588 128 533 59T382 -10Q329 -10 291 15T231 84V-210H61V500H210L215 394Q236 447 279 478T382 510Q480 510 534 442ZM368 115T392 148T417 250Q417 319 393 352T323 385Q280
385 256 352T231 255V245Q231 183 255 149T323 115Q368 115 392 148Z" />
<glyph unicode="q" glyph-name="q" horiz-adv-x="629" d="M568 500V-210H398V83Q376 39 338 15T247 -10Q150 -10 96 59T41 252Q41 374 95 442T246 510Q305 510 348 479T413 395L419 500H568ZM350 115T374 149T398 245V255Q398 318 374 351T306 385Q212 385 212
250Q212 115 306 115Q350 115 374 149Z" />
<glyph unicode="r" glyph-name="r" horiz-adv-x="430" d="M404 510T424 499L406 355Q396 361 379 365T343 370Q295 370 263 340T231 252V0H61V500H211L218 392Q236 449 274 479T370 510Q404 510 424 499Z" />
<glyph unicode="s" glyph-name="s" horiz-adv-x="533" d="M96 -10T24 78L112 174Q155 103 260 103Q295 103 315 112T335 138Q335 152 315 162T244 183Q132 205 85 243T37 344Q37 387 64 425T145 486T278 510Q364 510 418 487T507 416L419 330Q395 365 362 381T283
397Q247 397 227 386T207 359Q207 344 227 334T299 313Q409 294 457 257T506 154Q506 81 445 36T268 -10Q96 -10 24 78Z" />
<glyph unicode="t" glyph-name="t" horiz-adv-x="435" d="M424 28Q399 11 361 1T283 -10Q194 -10 147 28T99 150V379H13V500H99V612L269 659V500H419V379H269V178Q269 111 335 111Q376 111 407 133L424 28Z" />
<glyph unicode="u" glyph-name="u" horiz-adv-x="620" d="M559 500V0H407L402 93Q355 -10 229 -10Q149 -10 104 32T58 166V500H228V209Q228 160 245 140T297 120Q339 120 364 148T389 235V500H559Z" />
<glyph unicode="v" glyph-name="v" horiz-adv-x="561" d="M562 500L382 0H179L-1 500H178L281 108L386 500H562Z" />
<glyph unicode="w" glyph-name="w" horiz-adv-x="908" d="M898 500L747 0H543L453 321L364 0H161L9 500H188L272 123L370 500H538L635 123L720 500H898Z" />
<glyph unicode="x" glyph-name="x" horiz-adv-x="589" d="M391 0L293 174L193 0H5L185 253L12 500H205L297 333L391 500H579L405 252L583 0H391Z" />
<glyph unicode="y" glyph-name="y" horiz-adv-x="570" d="M387 0Q359 -80 326 -127T248 -194T139 -215Q54 -215 3 -178L39 -64Q55 -79 74 -84T125 -90Q156 -90 174 -80T203 -42L215 -11L157 125L8 500H195L272 215L296 109L323 219L400 500H570L387 0Z" />
<glyph unicode="z" glyph-name="z" horiz-adv-x="515" d="M36 104L234 330L288 383L208 381H37V500H476V396L279 172L225 117L313 119H485V0H36V104Z" />
<glyph unicode="{" glyph-name="braceleft" horiz-adv-x="420" d="M289 -44T314 -63T396 -83L391 -191Q304 -191 252 -175T177 -121T153 -21V113Q153 169 128 193T41 217V327Q102 327 127 351T153 431V566Q153 628 176 665T252 719T391 736L396 628Q340 628 315
609T289 547V396Q289 347 264 317T189 272Q239 258 264 228T289 149V-1Q289 -44 314 -63Z" />
<glyph unicode="|" glyph-name="bar" horiz-adv-x="320" d="M235 -168H85V713H235V-168Z" />
<glyph unicode="}" glyph-name="braceright" horiz-adv-x="420" d="M267 375T292 351T379 327V217Q318 217 293 193T267 113V-21Q267 -84 244 -121T168 -174T29 -191L24 -83Q80 -83 105 -64T131 -1V149Q131 198 156 228T232 272Q181 287 156 316T131 396V547Q131
590 106 609T24 628L29 736Q116 736 168 719T243 665T267 566V431Q267 375 292 351Z" />
<glyph unicode="~" glyph-name="asciitilde" d="M549 329T509 280T393 231Q357 231 332 241T280 271Q262 283 250 289T223 295Q202 295 191 281T175 236H43Q48 331 88 380T204 430Q240 430 265 420T318 390Q336 378 348 372T374 366Q395 366 406 380T422 425H554Q549
329 509 280Z" />
<glyph unicode="&#xa0;" glyph-name="uni00A0" horiz-adv-x="286" />
<glyph unicode="&#xa1;" glyph-name="exclamdown" horiz-adv-x="298" d="M104 341T79 363T53 425Q53 464 78 486T149 508Q194 508 220 486T246 425Q246 385 220 363T149 341Q104 341 79 363ZM61 53L80 285H219L238 53V-160H61V53Z" />
<glyph unicode="&#xa2;" glyph-name="cent" horiz-adv-x="575" d="M541 81T491 40T353 -8V-100H265V-7Q158 6 102 72T45 250Q45 362 102 429T265 508V600H353V508Q444 500 490 459T546 355L419 309Q407 376 353 397V102Q409 119 423 187L548 144Q541 81 491 40ZM193
127T265 104V397Q229 384 211 348T193 248Q193 127 265 104Z" />
<glyph unicode="&#xa3;" glyph-name="sterling" horiz-adv-x="624" d="M596 158T596 140Q596 75 559 33T456 -10Q410 -10 374 5T296 50Q241 -10 155 -10Q102 -10 68 15T34 83Q34 126 70 151T161 176Q198 176 235 169Q233 215 213 256H53V355H144Q120 390 111 417T101
474Q101 528 128 572T210 643T339 670Q536 670 575 495L437 431Q423 494 400 520T334 547Q296 547 273 527T250 472Q250 451 259 428T293 370Q297 365 303 355H498V256H349Q354 229 354 205Q354 162 341 127Q364 116 383 111T425 105Q460 105 475 125T490 188L593
176Q596 158 596 140ZM206 54T224 95Q192 111 159 111Q119 111 119 83Q119 70 130 62T159 54Q206 54 224 95Z" />
<glyph unicode="&#xa4;" glyph-name="currency" horiz-adv-x="646" d="M536 271T512 227L610 140L512 43L423 142Q380 121 324 121Q269 121 222 143L134 43L36 140L134 227Q110 272 110 330Q110 387 134 432L36 518L134 616L223 516Q268 537 324 537Q381 537 424
516L512 616L610 518L513 430Q536 386 536 330Q536 271 512 227ZM361 242T384 266T407 330Q407 369 384 393T324 417Q286 417 263 393T240 330Q240 290 263 266T324 242Q361 242 384 266Z" />
<glyph unicode="&#xa5;" glyph-name="yen" horiz-adv-x="678" d="M495 305H613V245H421V179H613V121H421V0H257V121H66V179H257V245H66V305H183L243 301L19 660H195L295 454L338 352H340L384 455L483 660H659L435 301L495 305Z" />
<glyph unicode="&#xa6;" glyph-name="brokenbar" horiz-adv-x="272" d="M211 333H61V713H211V333ZM211 -168H61V212H211V-168Z" />
<glyph unicode="&#xa7;" glyph-name="section" horiz-adv-x="623" d="M600 187T525 132Q541 103 541 60Q541 -19 479 -64T309 -110Q223 -110 170 -87T76 -14L164 68Q189 32 221 17T307 1Q361 1 387 11T414 45Q414 71 385 85T278 108Q144 121 84 161T24 274Q24
367 99 419Q83 450 83 491Q83 544 111 584T192 647T318 670Q405 670 456 647T548 574L461 493Q434 528 402 543T318 559Q266 559 238 545T210 507Q210 481 239 467T346 444Q480 431 540 391T600 278Q600 187 525 132ZM145 272T175 258T285 236Q387 225 439 203Q479
222 479 253Q479 279 449 293T339 316Q243 325 184 349Q145 330 145 299Q145 272 175 258Z" />
<glyph unicode="&#xa8;" glyph-name="dieresis" horiz-adv-x="500" d="M180 710T203 690T226 633Q226 597 203 577T140 556Q101 556 79 576T56 633Q56 669 78 689T140 710Q180 710 203 690ZM400 710T423 690T446 633Q446 597 423 577T360 556Q321 556 299 576T276
633Q276 669 298 689T360 710Q400 710 423 690Z" />
<glyph unicode="&#xa9;" glyph-name="copyright" horiz-adv-x="772" d="M489 670T567 628T687 509T730 330Q730 228 688 151T567 32T386 -10Q283 -10 205 32T85 151T42 330Q42 432 84 509T205 628T386 670Q489 670 567 628ZM309 586T252 555T163 465T131 330Q131
253 162 195T251 106T386 74Q463 74 520 105T609 195T641 330Q641 407 610 465T521 554T386 586Q309 586 252 555ZM524 520T562 410L466 363Q456 385 439 394T393 404Q359 404 341 385T323 329Q323 293 341 274T393 254Q424 254 442 264T470 299L561 254Q536 192
496 165T382 138Q300 138 252 189T204 329Q204 417 252 468T382 520Q524 520 562 410Z" />
<glyph unicode="&#xaa;" glyph-name="ordfeminine" horiz-adv-x="438" d="M406 382T412 385L403 318Q377 306 347 306Q314 306 291 320T260 362Q243 336 211 321T133 306Q79 306 51 327T23 390Q23 434 55 460T159 501L239 517V529Q239 552 227 564T190 577Q166
577 151 566T130 526L28 550Q36 603 79 632T197 662Q365 662 365 527V412Q365 382 392 382Q406 382 412 385ZM205 381T222 393T239 429V465L196 455Q144 443 144 411Q144 381 182 381Q205 381 222 393ZM34 240H399V151H34V240Z" />
<glyph unicode="&#xab;" glyph-name="guillemotleft" horiz-adv-x="585" d="M187 265L308 69H160L35 265L160 461H308L187 265ZM429 265L550 69H402L277 265L402 461H550L429 265Z" />
<glyph unicode="&#xac;" glyph-name="logicalnot" horiz-adv-x="604" d="M544 386V97H407V264H60V386H544Z" />
<glyph unicode="&#xad;" glyph-name="uni00AD" horiz-adv-x="528" d="M447 198H81V337H447V198Z" />
<glyph unicode="&#xae;" glyph-name="registered" horiz-adv-x="772" d="M489 670T567 628T687 509T730 330Q730 228 688 151T567 32T386 -10Q283 -10 205 32T85 151T42 330Q42 432 84 509T205 628T386 670Q489 670 567 628ZM463 74T520 105T609 195T641 330Q641
407 610 465T521 554T386 586Q309 586 252 555T163 465T131 330Q131 253 162 195T251 106T386 74Q463 74 520 105ZM550 355T529 327T471 286L558 151H437L372 276H344V151H243V515H419Q475 515 512 482T550 396Q550 355 529 327ZM344 345H395Q447 345 447 388Q447
431 395 431H344V345Z" />
<glyph unicode="&#xaf;" glyph-name="overscore" horiz-adv-x="500" d="M436 569H64V674H436V569Z" />
<glyph unicode="&#xb0;" glyph-name="degree" horiz-adv-x="495" d="M155 298T101 348T46 484Q46 569 100 619T248 670Q340 670 395 620T450 484Q450 399 395 349T248 298Q155 298 101 348ZM283 407T304 429T326 485Q326 519 304 540T248 562Q213 562 191 541T169
485Q169 450 191 429T248 407Q283 407 304 429Z" />
<glyph unicode="&#xb1;" glyph-name="plusminus" horiz-adv-x="604" d="M553 477V360H364V185H241V360H51V477H241V652H364V477H553ZM51 115H553V1H51V115Z" />
<glyph unicode="&#xb2;" glyph-name="uni00B2" horiz-adv-x="392" d="M29 410Q94 447 118 462Q180 504 207 536T235 595Q235 616 223 628T188 640Q162 640 148 621T134 564L15 596Q16 662 63 698T191 735Q279 735 322 697T365 605Q365 531 268 466Q232 443 191
428V426Q233 430 282 430H370V333H29V410Z" />
<glyph unicode="&#xb3;" glyph-name="uni00B3" horiz-adv-x="379" d="M265 735T306 706T347 622Q347 582 324 559T263 533V530Q306 529 330 507T355 445Q355 391 311 359T192 327Q118 327 73 351T9 428L124 470Q128 416 183 416Q206 416 219 427T233 459Q233 495
183 495H160V560H179Q226 560 226 600Q226 620 215 630T182 641Q135 641 129 589L19 626Q28 681 74 708T188 735Q265 735 306 706Z" />
<glyph unicode="&#xb4;" glyph-name="acute" horiz-adv-x="500" d="M408 738L307 565H183L250 738H408Z" />
<glyph unicode="&#xb5;" glyph-name="uni00B5" horiz-adv-x="617" d="M559 500V0H409L403 92Q361 -10 250 -10Q235 -10 228 -9V-210H58V500H228V209Q228 160 245 140T298 120Q338 120 361 144T389 217V500H559Z" />
<glyph unicode="&#xb6;" glyph-name="paragraph" horiz-adv-x="740" d="M674 -100H536V530H428V-100H289V231Q165 232 100 286T34 445Q34 551 103 605T310 660H674V-100Z" />
<glyph unicode="&#xb7;" glyph-name="middot" horiz-adv-x="274" d="M184 443T210 420T237 353Q237 311 211 287T137 263Q90 263 64 287T37 353Q37 396 63 419T137 443Q184 443 210 420Z" />
<glyph unicode="&#xb8;" glyph-name="cedilla" horiz-adv-x="500" d="M224 37Q304 26 347 -10T391 -97Q391 -154 352 -184T248 -215Q167 -215 124 -175L163 -96Q191 -124 235 -124Q260 -124 275 -111T290 -75Q290 -48 267 -30T182 2L224 37Z" />
<glyph unicode="&#xb9;" glyph-name="uni00B9" horiz-adv-x="298" d="M256 730V333H133V549Q133 575 136 614Q77 569 19 565V666Q52 671 94 690T152 730H256Z" />
<glyph unicode="&#xba;" glyph-name="ordmasculine" horiz-adv-x="422" d="M126 306T78 353T30 484Q30 568 78 615T211 662Q297 662 345 615T393 484Q393 400 345 353T211 306Q126 306 78 353ZM240 388T253 411T266 484Q266 534 253 557T211 580Q182 580 169 557T156
484Q156 434 169 411T211 388Q240 388 253 411ZM36 240H386V151H36V240Z" />
<glyph unicode="&#xbb;" glyph-name="guillemotright" horiz-adv-x="585" d="M183 461L308 265L183 69H35L156 265L35 461H183ZM425 461L550 265L425 69H277L398 265L277 461H425Z" />
<glyph unicode="&#xbc;" glyph-name="onequarter" horiz-adv-x="885" d="M256 665V268H133V484Q133 511 136 548Q76 504 19 500V601Q52 606 94 625T152 665H256ZM608 661H728L251 0H131L608 661ZM868 81H808V-4H701V81H500V137L661 394H808V162H868V81ZM701 162V240Q701
284 704 320H701Q685 285 670 261L606 162H701Z" />
<glyph unicode="&#xbd;" glyph-name="onehalf" horiz-adv-x="953" d="M256 665V268H133V484Q133 511 136 548Q76 504 19 500V601Q52 606 94 625T152 665H256ZM608 661H728L251 0H131L608 661ZM590 73Q655 110 679 125Q741 167 768 199T796 258Q796 279 784 291T749
303Q723 303 709 284T695 227L576 259Q577 325 624 361T752 398Q840 398 883 360T926 268Q926 194 829 129Q793 106 752 91V89Q794 93 843 93H931V-4H590V73Z" />
<glyph unicode="&#xbe;" glyph-name="threequarters" horiz-adv-x="966" d="M265 670T306 641T347 557Q347 517 324 494T263 468V465Q306 464 330 442T355 380Q355 326 311 294T192 262Q118 262 73 286T9 363L124 405Q128 351 183 351Q206 351 219 362T233 394Q233
430 183 430H160V495H179Q226 495 226 535Q226 555 215 565T182 576Q135 576 129 524L19 561Q28 616 74 643T188 670Q265 670 306 641ZM689 661H809L332 0H212L689 661ZM950 81H890V-4H783V81H582V137L743 394H890V162H950V81ZM783 162V240Q783 284 786 320H783Q767
285 752 261L688 162H783Z" />
<glyph unicode="&#xbf;" glyph-name="questiondown" horiz-adv-x="605" d="M268 340T243 362T217 424Q217 464 242 486T313 509Q359 509 384 487T410 424Q410 384 385 362T313 340Q268 340 243 362ZM180 -169T111 -124T41 12Q41 180 231 201L242 287H387L397 134Q304
127 265 103T225 38Q225 -31 310 -31Q354 -31 380 -6T410 69L574 7Q563 -73 495 -121T298 -169Q180 -169 111 -124Z" />
<glyph unicode="&#xc0;" glyph-name="Agrave" horiz-adv-x="677" d="M270 723L178 882H339L394 723H270ZM451 149H223L177 0H4L236 660H442L673 0H496L451 149ZM415 266L367 424L338 528H336L309 425L259 266H415Z" />
<glyph unicode="&#xc1;" glyph-name="Aacute" horiz-adv-x="677" d="M391 723H267L322 882H483L391 723ZM451 149H223L177 0H4L236 660H442L673 0H496L451 149ZM415 266L367 424L338 528H336L309 425L259 266H415Z" />
<glyph unicode="&#xc2;" glyph-name="Acircumflex" horiz-adv-x="677" d="M271 719H145L256 886H420L531 719H405L338 807L271 719ZM451 149H223L177 0H4L236 660H442L673 0H496L451 149ZM415 266L367 424L338 528H336L309 425L259 266H415Z" />
<glyph unicode="&#xc3;" glyph-name="Atilde" horiz-adv-x="677" d="M451 149H223L177 0H4L236 660H442L673 0H496L451 149ZM415 266L367 424L338 528H336L309 425L259 266H415ZM530 719T404 719Q374 719 356 728T316 754Q303 765 294 770T273 776Q257 776 248
762T236 720H140Q146 879 272 879Q302 879 320 870T361 843Q376 831 383 827T402 822Q419 822 428 836T440 878H536Q530 719 404 719Z" />
<glyph unicode="&#xc4;" glyph-name="Adieresis" horiz-adv-x="677" d="M451 149H223L177 0H4L236 660H442L673 0H496L451 149ZM415 266L367 424L338 528H336L309 425L259 266H415ZM267 870T290 850T313 793Q313 757 290 737T227 716Q188 716 166 736T143 793Q143
829 165 849T227 870Q267 870 290 850ZM487 870T510 850T533 793Q533 757 510 737T447 716Q408 716 386 736T363 793Q363 829 385 849T447 870Q487 870 510 850Z" />
<glyph unicode="&#xc5;" glyph-name="Aring" horiz-adv-x="677" d="M451 149H223L177 0H4L234 638Q189 671 189 732Q189 790 229 825T339 861Q409 861 449 826T489 732Q489 671 443 638L673 0H496L451 149ZM312 782T297 767T281 726Q281 700 296 685T339 670Q366
670 381 685T397 726Q397 752 382 767T339 782Q312 782 297 767ZM415 266L367 424L339 528H335L309 425L259 266H415Z" />
<glyph unicode="&#xc6;" glyph-name="AE" horiz-adv-x="924" d="M894 127V0H421V196H243L169 0H-4L279 660H880V533H581V391H810V271H581V127H894ZM421 308V538H373L286 308H421Z" />
<glyph unicode="&#xc7;" glyph-name="Ccedilla" horiz-adv-x="681" d="M635 107T581 60T446 -3Q499 -41 499 -97Q499 -154 460 -184T356 -215Q275 -215 232 -175L271 -96Q299 -124 343 -124Q368 -124 383 -111T398 -75Q398 -53 383 -37T327 -8Q194 4 120 93T45
330Q45 435 84 512T196 629T368 670Q476 670 551 625T650 488L499 427Q485 487 456 511T374 535Q301 535 261 483T221 330Q221 230 259 178T371 125Q426 125 458 151T502 233L658 189Q635 107 581 60Z" />
<glyph unicode="&#xc8;" glyph-name="Egrave" horiz-adv-x="631" d="M280 723L188 882H349L404 723H280ZM600 133V0H73V660H587V527H245V393H517V268H245V133H600Z" />
<glyph unicode="&#xc9;" glyph-name="Eacute" horiz-adv-x="631" d="M376 723H252L307 882H468L376 723ZM600 133V0H73V660H587V527H245V393H517V268H245V133H600Z" />
<glyph unicode="&#xca;" glyph-name="Ecircumflex" horiz-adv-x="631" d="M256 719H130L241 886H405L516 719H390L323 807L256 719ZM600 133V0H73V660H587V527H245V393H517V268H245V133H600Z" />
<glyph unicode="&#xcb;" glyph-name="Edieresis" horiz-adv-x="631" d="M600 133V0H73V660H587V527H245V393H517V268H245V133H600ZM252 870T275 850T298 793Q298 757 275 737T212 716Q173 716 151 736T128 793Q128 829 150 849T212 870Q252 870 275 850ZM472 870T495
850T518 793Q518 757 495 737T432 716Q393 716 371 736T348 793Q348 829 370 849T432 870Q472 870 495 850Z" />
<glyph unicode="&#xcc;" glyph-name="Igrave" horiz-adv-x="318" d="M215 723H91L-1 882H160L215 723ZM245 0H73V660H245V0Z" />
<glyph unicode="&#xcd;" glyph-name="Iacute" horiz-adv-x="318" d="M303 882L211 723H87L142 882H303ZM245 0H73V660H245V0Z" />
<glyph unicode="&#xce;" glyph-name="Icircumflex" horiz-adv-x="318" d="M226 719L159 807L92 719H-34L77 886H241L352 719H226ZM245 0H73V660H245V0Z" />
<glyph unicode="&#xcf;" glyph-name="Idieresis" horiz-adv-x="318" d="M95 870T117 850T140 793Q140 757 118 737T56 716Q18 716 -4 736T-26 793Q-26 829 -4 849T56 870Q95 870 117 850ZM299 870T321 850T344 793Q344 757 322 737T260 716Q222 716 200 736T178
793Q178 829 200 849T260 870Q299 870 321 850ZM245 0H73V660H245V0Z" />
<glyph unicode="&#xd0;" glyph-name="Eth" horiz-adv-x="741" d="M531 660T614 575T697 330Q697 171 614 86T376 0H96V273H13V387H96V660H376Q531 660 614 575ZM442 130T481 180T520 330Q520 430 481 480T359 530H268V387H399V273H268V130H359Q442 130 481 180Z" />
<glyph unicode="&#xd1;" glyph-name="Ntilde" horiz-adv-x="741" d="M668 0H477L272 357L222 457H221L225 333V0H73V660H264L469 303L519 203H520L516 327V660H668V0ZM564 719T438 719Q408 719 390 728T350 754Q337 765 328 770T307 776Q291 776 282 762T270 720H174Q180
879 306 879Q336 879 354 870T395 843Q410 831 417 827T436 822Q453 822 462 836T474 878H570Q564 719 438 719Z" />
<glyph unicode="&#xd2;" glyph-name="Ograve" horiz-adv-x="737" d="M425 723H301L209 882H370L425 723ZM469 670T541 630T653 513T692 330Q692 224 653 148T542 31T369 -10Q269 -10 196 30T84 147T45 330Q45 436 84 512T196 629T369 670Q469 670 541 630ZM297
535T259 483T221 330Q221 229 259 177T369 125Q441 125 478 177T516 330Q516 431 479 483T369 535Q297 535 259 483Z" />
<glyph unicode="&#xd3;" glyph-name="Oacute" horiz-adv-x="737" d="M513 882L421 723H297L352 882H513ZM469 670T541 630T653 513T692 330Q692 224 653 148T542 31T369 -10Q269 -10 196 30T84 147T45 330Q45 436 84 512T196 629T369 670Q469 670 541 630ZM297
535T259 483T221 330Q221 229 259 177T369 125Q441 125 478 177T516 330Q516 431 479 483T369 535Q297 535 259 483Z" />
<glyph unicode="&#xd4;" glyph-name="Ocircumflex" horiz-adv-x="737" d="M436 719L369 807L302 719H176L287 886H451L562 719H436ZM469 670T541 630T653 513T692 330Q692 224 653 148T542 31T369 -10Q269 -10 196 30T84 147T45 330Q45 436 84 512T196 629T369
670Q469 670 541 630ZM297 535T259 483T221 330Q221 229 259 177T369 125Q441 125 478 177T516 330Q516 431 479 483T369 535Q297 535 259 483Z" />
<glyph unicode="&#xd5;" glyph-name="Otilde" horiz-adv-x="737" d="M469 670T541 630T653 513T692 330Q692 224 653 148T542 31T369 -10Q269 -10 196 30T84 147T45 330Q45 436 84 512T196 629T369 670Q469 670 541 630ZM297 535T259 483T221 330Q221 229 259
177T369 125Q441 125 478 177T516 330Q516 431 479 483T369 535Q297 535 259 483ZM560 719T434 719Q404 719 386 728T346 754Q333 765 324 770T303 776Q287 776 278 762T266 720H170Q176 879 302 879Q332 879 350 870T391 843Q406 831 413 827T432 822Q449 822
458 836T470 878H566Q560 719 434 719Z" />
<glyph unicode="&#xd6;" glyph-name="Odieresis" horiz-adv-x="737" d="M469 670T541 630T653 513T692 330Q692 224 653 148T542 31T369 -10Q269 -10 196 30T84 147T45 330Q45 436 84 512T196 629T369 670Q469 670 541 630ZM297 535T259 483T221 330Q221 229 259
177T369 125Q441 125 478 177T516 330Q516 431 479 483T369 535Q297 535 259 483ZM297 870T320 850T343 793Q343 757 320 737T257 716Q218 716 196 736T173 793Q173 829 195 849T257 870Q297 870 320 850ZM517 870T540 850T563 793Q563 757 540 737T477 716Q438
716 416 736T393 793Q393 829 415 849T477 870Q517 870 540 850Z" />
<glyph unicode="&#xd7;" glyph-name="multiply" horiz-adv-x="604" d="M394 326L550 170L458 78L302 234L146 78L54 170L210 326L54 482L146 574L302 418L458 574L550 482L394 326Z" />
<glyph unicode="&#xd8;" glyph-name="Oslash" horiz-adv-x="737" d="M645 540T668 476T692 330Q692 224 653 148T542 31T369 -10Q268 -10 193 32L150 -27H64L137 74Q92 119 69 183T45 330Q45 436 84 512T196 629T369 670Q473 670 547 626L586 681H672L601 584Q645
540 668 476ZM297 535T259 483T221 330Q221 255 242 207L454 508Q421 535 369 535Q297 535 259 483ZM441 125T478 177T516 330Q516 400 498 446L288 148Q320 125 369 125Q441 125 478 177Z" />
<glyph unicode="&#xd9;" glyph-name="Ugrave" horiz-adv-x="713" d="M412 723H288L196 882H357L412 723ZM651 269Q651 130 577 60T356 -10Q210 -10 136 60T61 269V660H234V266Q234 195 264 160T356 125Q480 125 480 266V660H651V269Z" />
<glyph unicode="&#xda;" glyph-name="Uacute" horiz-adv-x="713" d="M501 882L409 723H285L340 882H501ZM651 269Q651 130 577 60T356 -10Q210 -10 136 60T61 269V660H234V266Q234 195 264 160T356 125Q480 125 480 266V660H651V269Z" />
<glyph unicode="&#xdb;" glyph-name="Ucircumflex" horiz-adv-x="713" d="M423 719L356 807L289 719H163L274 886H438L549 719H423ZM651 269Q651 130 577 60T356 -10Q210 -10 136 60T61 269V660H234V266Q234 195 264 160T356 125Q480 125 480 266V660H651V269Z" />
<glyph unicode="&#xdc;" glyph-name="Udieresis" horiz-adv-x="713" d="M651 269Q651 130 577 60T356 -10Q210 -10 136 60T61 269V660H234V266Q234 195 264 160T356 125Q480 125 480 266V660H651V269ZM285 870T308 850T331 793Q331 757 308 737T245 716Q206 716
184 736T161 793Q161 829 183 849T245 870Q285 870 308 850ZM505 870T528 850T551 793Q551 757 528 737T465 716Q426 716 404 736T381 793Q381 829 403 849T465 870Q505 870 528 850Z" />
<glyph unicode="&#xdd;" glyph-name="Yacute" horiz-adv-x="657" d="M472 882L380 723H256L311 882H472ZM414 241V0H242V241L9 660H187L280 479L329 369L379 479L472 660H647L414 241Z" />
<glyph unicode="&#xde;" glyph-name="Thorn" horiz-adv-x="666" d="M493 559T560 503T627 337Q628 229 561 172T366 115H245V0H73V660H245V559H366Q493 559 560 503ZM400 243T427 266T454 337Q454 430 346 430H245V243H346Q400 243 427 266Z" />
<glyph unicode="&#xdf;" glyph-name="germandbls" horiz-adv-x="648" d="M517 363T565 313T613 184Q613 131 589 87T516 17T393 -10Q354 -10 322 -2T269 22L297 135Q310 123 325 118T363 112Q404 112 427 138T450 207Q450 252 423 275T343 298H294L311 419H342Q384
420 407 444T431 509Q431 550 407 572T340 594Q280 594 256 560T231 448V0H61V461Q61 586 127 651T344 717Q426 717 483 692T568 622T596 524Q596 484 577 448T522 388T433 365V363Q517 363 565 313Z" />
<glyph unicode="&#xe0;" glyph-name="agrave" horiz-adv-x="581" d="M563 97T575 101L562 6Q533 -10 494 -10Q386 -10 365 67Q320 -10 187 -10Q112 -10 72 22T32 115Q32 179 77 218T227 279L340 301V319Q340 353 321 373T269 393Q231 393 207 375T176 316L38 356Q51
429 110 469T269 510Q386 510 447 462T508 318V136Q508 97 544 97Q563 97 575 101ZM284 100T312 119T340 171V214L259 195Q227 187 214 176T200 143Q200 122 213 111T249 100Q284 100 312 119ZM343 565H219L118 738H276L343 565Z" />
<glyph unicode="&#xe1;" glyph-name="aacute" horiz-adv-x="581" d="M563 97T575 101L562 6Q533 -10 494 -10Q386 -10 365 67Q320 -10 187 -10Q112 -10 72 22T32 115Q32 179 77 218T227 279L340 301V319Q340 353 321 373T269 393Q231 393 207 375T176 316L38 356Q51
429 110 469T269 510Q386 510 447 462T508 318V136Q508 97 544 97Q563 97 575 101ZM284 100T312 119T340 171V214L259 195Q227 187 214 176T200 143Q200 122 213 111T249 100Q284 100 312 119ZM424 738L323 565H199L266 738H424Z" />
<glyph unicode="&#xe2;" glyph-name="acircumflex" horiz-adv-x="581" d="M563 97T575 101L562 6Q533 -10 494 -10Q386 -10 365 67Q320 -10 187 -10Q112 -10 72 22T32 115Q32 179 77 218T227 279L340 301V319Q340 353 321 373T269 393Q231 393 207 375T176 316L38
356Q51 429 110 469T269 510Q386 510 447 462T508 318V136Q508 97 544 97Q563 97 575 101ZM284 100T312 119T340 171V214L259 195Q227 187 214 176T200 143Q200 122 213 111T249 100Q284 100 312 119ZM344 559L276 646L208 559H85L193 732H359L467 559H344Z" />
<glyph unicode="&#xe3;" glyph-name="atilde" horiz-adv-x="581" d="M563 97T575 101L562 6Q533 -10 494 -10Q386 -10 365 67Q320 -10 187 -10Q112 -10 72 22T32 115Q32 179 77 218T227 279L340 301V319Q340 353 321 373T269 393Q231 393 207 375T176 316L38 356Q51
429 110 469T269 510Q386 510 447 462T508 318V136Q508 97 544 97Q563 97 575 101ZM284 100T312 119T340 171V214L259 195Q227 187 214 176T200 143Q200 122 213 111T249 100Q284 100 312 119ZM468 559T342 559Q312 559 294 568T254 594Q241 605 232 610T211 616Q195
616 186 602T174 560H78Q84 719 210 719Q240 719 258 710T299 683Q314 671 321 667T340 662Q357 662 366 676T378 718H474Q468 559 342 559Z" />
<glyph unicode="&#xe4;" glyph-name="adieresis" horiz-adv-x="581" d="M563 97T575 101L562 6Q533 -10 494 -10Q386 -10 365 67Q320 -10 187 -10Q112 -10 72 22T32 115Q32 179 77 218T227 279L340 301V319Q340 353 321 373T269 393Q231 393 207 375T176 316L38
356Q51 429 110 469T269 510Q386 510 447 462T508 318V136Q508 97 544 97Q563 97 575 101ZM284 100T312 119T340 171V214L259 195Q227 187 214 176T200 143Q200 122 213 111T249 100Q284 100 312 119ZM205 710T228 690T251 633Q251 597 228 577T165 556Q126 556
104 576T81 633Q81 669 103 689T165 710Q205 710 228 690ZM425 710T448 690T471 633Q471 597 448 577T385 556Q346 556 324 576T301 633Q301 669 323 689T385 710Q425 710 448 690Z" />
<glyph unicode="&#xe5;" glyph-name="aring" horiz-adv-x="581" d="M563 97T575 101L562 6Q533 -10 494 -10Q386 -10 365 67Q320 -10 187 -10Q112 -10 72 22T32 115Q32 179 77 218T227 279L340 301V319Q340 353 321 373T269 393Q231 393 207 375T176 316L38 356Q51
429 110 469T269 510Q386 510 447 462T508 318V136Q508 97 544 97Q563 97 575 101ZM284 100T312 119T340 171V214L259 195Q227 187 214 176T200 143Q200 122 213 111T249 100Q284 100 312 119ZM340 793T375 761T411 672Q411 616 376 584T277 551Q214 551 178 583T142
672Q142 728 178 760T277 793Q340 793 375 761ZM253 723T239 709T224 672Q224 649 238 635T277 621Q300 621 314 635T329 672Q329 695 315 709T277 723Q253 723 239 709Z" />
<glyph unicode="&#xe6;" glyph-name="ae" horiz-adv-x="879" d="M842 237T838 207H509Q516 157 543 134T612 110Q648 110 667 123T695 165L832 121Q811 56 753 23T607 -10Q476 -10 420 85Q393 39 336 15T195 -10Q115 -10 74 23T32 114Q32 177 76 213T218 269L343
294V319Q343 355 324 374T266 393Q230 393 209 376T177 318L39 353Q52 427 109 468T267 510Q324 510 368 491T441 437Q470 472 511 491T603 510Q717 510 779 444T842 270Q842 237 838 207ZM521 391T508 290H686Q681 340 662 365T602 391Q521 391 508 290ZM290 91T316
113T343 176V216L272 199Q232 189 215 176T198 137Q198 91 252 91Q290 91 316 113Z" />
<glyph unicode="&#xe7;" glyph-name="ccedilla" horiz-adv-x="571" d="M534 89T493 51T383 -3Q410 -21 423 -45T437 -97Q437 -154 398 -184T294 -215Q213 -215 170 -175L209 -96Q237 -124 281 -124Q306 -124 321 -111T336 -75Q336 -53 321 -37T265 -8Q154 2 96
69T37 250Q37 373 106 441T300 510Q413 510 470 467T541 355L383 303Q373 389 306 389Q207 389 207 248Q207 111 306 111Q377 111 389 192L542 143Q534 89 493 51Z" />
<glyph unicode="&#xe8;" glyph-name="egrave" horiz-adv-x="582" d="M548 223T543 201H202Q210 154 236 132T307 110Q344 110 367 124T399 165L537 121Q516 57 456 24T307 -10Q176 -10 107 58T37 250Q37 374 105 442T298 510Q419 510 483 444T548 257Q548 223
543 201ZM216 391T201 293H389Q377 391 297 391Q216 391 201 293ZM362 565H238L137 738H295L362 565Z" />
<glyph unicode="&#xe9;" glyph-name="eacute" horiz-adv-x="582" d="M548 223T543 201H202Q210 154 236 132T307 110Q344 110 367 124T399 165L537 121Q516 57 456 24T307 -10Q176 -10 107 58T37 250Q37 374 105 442T298 510Q419 510 483 444T548 257Q548 223
543 201ZM216 391T201 293H389Q377 391 297 391Q216 391 201 293ZM443 738L342 565H218L285 738H443Z" />
<glyph unicode="&#xea;" glyph-name="ecircumflex" horiz-adv-x="582" d="M548 223T543 201H202Q210 154 236 132T307 110Q344 110 367 124T399 165L537 121Q516 57 456 24T307 -10Q176 -10 107 58T37 250Q37 374 105 442T298 510Q419 510 483 444T548 257Q548
223 543 201ZM216 391T201 293H389Q377 391 297 391Q216 391 201 293ZM363 559L295 646L227 559H104L212 732H378L486 559H363Z" />
<glyph unicode="&#xeb;" glyph-name="edieresis" horiz-adv-x="582" d="M548 223T543 201H202Q210 154 236 132T307 110Q344 110 367 124T399 165L537 121Q516 57 456 24T307 -10Q176 -10 107 58T37 250Q37 374 105 442T298 510Q419 510 483 444T548 257Q548 223
543 201ZM216 391T201 293H389Q377 391 297 391Q216 391 201 293ZM224 710T247 690T270 633Q270 597 247 577T184 556Q145 556 123 576T100 633Q100 669 122 689T184 710Q224 710 247 690ZM444 710T467 690T490 633Q490 597 467 577T404 556Q365 556 343 576T320
633Q320 669 342 689T404 710Q444 710 467 690Z" />
<glyph unicode="&#xec;" glyph-name="igrave" horiz-adv-x="291" d="M231 0H61V500H231V0ZM469 565H345L244 738H402L469 565Z" />
<glyph unicode="&#xed;" glyph-name="iacute" horiz-adv-x="291" d="M231 0H61V500H231V0ZM554 738L453 565H329L396 738H554Z" />
<glyph unicode="&#xee;" glyph-name="icircumflex" horiz-adv-x="291" d="M231 0H61V500H231V0ZM470 559L402 646L334 559H211L319 732H485L593 559H470Z" />
<glyph unicode="&#xef;" glyph-name="idieresis" horiz-adv-x="291" d="M10 554T-10 574T-31 633Q-31 671 -11 691T49 712Q89 712 109 692T130 633Q130 595 110 575T49 554Q10 554 -10 574ZM202 554T182 574T161 633Q161 671 181 691T242 712Q281 712 301 692T322
633Q322 595 302 575T242 554Q202 554 182 574ZM231 0H61V500H231V0Z" />
<glyph unicode="&#xf0;" glyph-name="eth" horiz-adv-x="604" d="M467 605Q562 481 562 303Q562 143 498 67T293 -10Q175 -10 108 57T41 243Q41 321 71 378T157 465T285 495Q385 495 428 425Q407 515 352 579L189 544L178 600L313 620Q266 663 176 722H331Q387
692 433 645L553 673L567 617L467 605ZM353 111T377 145T401 243Q401 315 378 349T306 383Q259 383 236 349T213 243Q213 111 304 111Q353 111 377 145Z" />
<glyph unicode="&#xf1;" glyph-name="ntilde" horiz-adv-x="620" d="M468 510T515 464T562 333V0H392V286Q392 337 374 358T321 380Q281 380 256 352T231 264V0H61V500H213L218 404Q242 457 286 483T389 510Q468 510 515 464ZM504 559T378 559Q348 559 330 568T290
594Q277 605 268 610T247 616Q231 616 222 602T210 560H114Q120 719 246 719Q276 719 294 710T335 683Q350 671 357 667T376 662Q393 662 402 676T414 718H510Q504 559 378 559Z" />
<glyph unicode="&#xf2;" glyph-name="ograve" horiz-adv-x="602" d="M426 510T495 442T565 250Q565 127 496 59T301 -10Q176 -10 107 58T37 250Q37 373 106 441T301 510Q426 510 495 442ZM253 389T230 356T207 250Q207 177 230 144T301 111Q349 111 372 144T395
250Q395 323 372 356T301 389Q253 389 230 356ZM368 565H244L143 738H301L368 565Z" />
<glyph unicode="&#xf3;" glyph-name="oacute" horiz-adv-x="602" d="M426 510T495 442T565 250Q565 127 496 59T301 -10Q176 -10 107 58T37 250Q37 373 106 441T301 510Q426 510 495 442ZM253 389T230 356T207 250Q207 177 230 144T301 111Q349 111 372 144T395
250Q395 323 372 356T301 389Q253 389 230 356ZM449 738L348 565H224L291 738H449Z" />
<glyph unicode="&#xf4;" glyph-name="ocircumflex" horiz-adv-x="602" d="M426 510T495 442T565 250Q565 127 496 59T301 -10Q176 -10 107 58T37 250Q37 373 106 441T301 510Q426 510 495 442ZM253 389T230 356T207 250Q207 177 230 144T301 111Q349 111 372 144T395
250Q395 323 372 356T301 389Q253 389 230 356ZM369 559L301 646L233 559H110L218 732H384L492 559H369Z" />
<glyph unicode="&#xf5;" glyph-name="otilde" horiz-adv-x="602" d="M426 510T495 442T565 250Q565 127 496 59T301 -10Q176 -10 107 58T37 250Q37 373 106 441T301 510Q426 510 495 442ZM253 389T230 356T207 250Q207 177 230 144T301 111Q349 111 372 144T395
250Q395 323 372 356T301 389Q253 389 230 356ZM493 559T367 559Q337 559 319 568T279 594Q266 605 257 610T236 616Q220 616 211 602T199 560H103Q109 719 235 719Q265 719 283 710T324 683Q339 671 346 667T365 662Q382 662 391 676T403 718H499Q493 559 367
559Z" />
<glyph unicode="&#xf6;" glyph-name="odieresis" horiz-adv-x="602" d="M426 510T495 442T565 250Q565 127 496 59T301 -10Q176 -10 107 58T37 250Q37 373 106 441T301 510Q426 510 495 442ZM253 389T230 356T207 250Q207 177 230 144T301 111Q349 111 372 144T395
250Q395 323 372 356T301 389Q253 389 230 356ZM230 710T253 690T276 633Q276 597 253 577T190 556Q151 556 129 576T106 633Q106 669 128 689T190 710Q230 710 253 690ZM450 710T473 690T496 633Q496 597 473 577T410 556Q371 556 349 576T326 633Q326 669 348
689T410 710Q450 710 473 690Z" />
<glyph unicode="&#xf7;" glyph-name="divide" horiz-adv-x="604" d="M343 624T366 602T389 541Q389 502 366 480T303 458Q263 458 240 480T217 541Q217 580 240 602T303 624Q343 624 366 602ZM554 264H50V386H554V264ZM343 194T366 172T389 111Q389 72 366 50T303
28Q263 28 240 50T217 111Q217 150 240 172T303 194Q343 194 366 172Z" />
<glyph unicode="&#xf8;" glyph-name="oslash" horiz-adv-x="602" d="M392 510T455 473L493 521H560L496 441Q565 372 565 250Q565 127 496 59T301 -10Q215 -10 156 23L118 -27H51L112 53Q37 122 37 250Q37 373 106 441T301 510Q392 510 455 473ZM223 178L246 213L362
366Q340 389 301 389Q253 389 230 356T207 250Q207 211 222 178H223ZM349 111T372 144T395 250Q395 286 383 310H382L360 278L247 128Q265 111 301 111Q349 111 372 144Z" />
<glyph unicode="&#xf9;" glyph-name="ugrave" horiz-adv-x="620" d="M559 500V0H407L402 93Q355 -10 229 -10Q149 -10 104 32T58 166V500H228V209Q228 160 245 140T297 120Q339 120 364 148T389 235V500H559ZM373 565H249L148 738H306L373 565Z" />
<glyph unicode="&#xfa;" glyph-name="uacute" horiz-adv-x="620" d="M559 500V0H407L402 93Q355 -10 229 -10Q149 -10 104 32T58 166V500H228V209Q228 160 245 140T297 120Q339 120 364 148T389 235V500H559ZM454 738L353 565H229L296 738H454Z" />
<glyph unicode="&#xfb;" glyph-name="ucircumflex" horiz-adv-x="620" d="M559 500V0H407L402 93Q355 -10 229 -10Q149 -10 104 32T58 166V500H228V209Q228 160 245 140T297 120Q339 120 364 148T389 235V500H559ZM374 559L306 646L238 559H115L223 732H389L497 559H374Z" />
<glyph unicode="&#xfc;" glyph-name="udieresis" horiz-adv-x="620" d="M559 500V0H407L402 93Q355 -10 229 -10Q149 -10 104 32T58 166V500H228V209Q228 160 245 140T297 120Q339 120 364 148T389 235V500H559ZM234 710T257 690T280 633Q280 597 257 577T194
556Q155 556 133 576T110 633Q110 669 132 689T194 710Q234 710 257 690ZM454 710T477 690T500 633Q500 597 477 577T414 556Q375 556 353 576T330 633Q330 669 352 689T414 710Q454 710 477 690Z" />
<glyph unicode="&#xfd;" glyph-name="yacute" horiz-adv-x="570" d="M387 0Q359 -80 326 -127T248 -194T139 -215Q54 -215 3 -178L39 -64Q55 -79 74 -84T125 -90Q156 -90 174 -80T203 -42L215 -11L157 125L8 500H195L272 215L296 109L323 219L400 500H570L387
0ZM451 738L350 565H226L293 738H451Z" />
<glyph unicode="&#xfe;" glyph-name="thorn" horiz-adv-x="628" d="M476 510T532 445T588 255Q588 161 559 102T482 16T381 -10Q328 -10 291 12T231 75V-210H61V712H231V413Q252 458 291 484T386 510Q476 510 532 445ZM370 115T393 147T417 250Q417 320 394 352T323
385Q280 385 256 352T231 255V245Q231 183 255 149T323 115Q370 115 393 147Z" />
<glyph unicode="&#xff;" glyph-name="ydieresis" horiz-adv-x="570" d="M387 0Q359 -80 326 -127T248 -194T139 -215Q54 -215 3 -178L39 -64Q55 -79 74 -84T125 -90Q156 -90 174 -80T203 -42L215 -11L157 125L8 500H195L272 215L296 109L323 219L400 500H570L387
0ZM232 710T255 690T278 633Q278 597 255 577T192 556Q153 556 131 576T108 633Q108 669 130 689T192 710Q232 710 255 690ZM452 710T475 690T498 633Q498 597 475 577T412 556Q373 556 351 576T328 633Q328 669 350 689T412 710Q452 710 475 690Z" />
<glyph unicode="&#x2013;" glyph-name="endash" horiz-adv-x="692" d="M614 200H78V335H614V200Z" />
<glyph unicode="&#x2014;" glyph-name="emdash" horiz-adv-x="1006" d="M928 200H78V335H928V200Z" />
<glyph unicode="&#x2018;" glyph-name="quoteleft" horiz-adv-x="294" d="M97 362T69 398T41 490Q41 556 76 609T180 692L255 639Q155 600 131 532L135 529Q148 540 166 540Q199 540 224 518T249 455Q249 411 222 387T149 362Q97 362 69 398Z" />
<glyph unicode="&#x2019;" glyph-name="quoteright" horiz-adv-x="294" d="M203 690T230 654T258 562Q258 496 223 443T119 360L44 413Q143 450 169 520L164 523Q154 512 134 512Q101 512 76 533T50 596Q50 641 77 665T150 690Q203 690 230 654Z" />
<glyph unicode="&#x201a;" glyph-name="quotesinglbase" horiz-adv-x="290" d="M450 172T477 136T505 43Q505 -23 470 -76T366 -158L291 -105Q338 -87 370 -60T415 2L411 5Q400 -6 380 -6Q347 -6 322 16T297 78Q297 123 324 147T397 172Q450 172 477 136Z" />
<glyph unicode="&#x201c;" glyph-name="quotedblleft" horiz-adv-x="539" d="M97 362T69 398T41 490Q41 556 76 609T180 692L255 639Q155 600 131 532L135 529Q148 540 166 540Q199 540 224 518T249 455Q249 411 222 387T149 362Q97 362 69 398ZM342 362T314 398T286
490Q286 556 321 609T425 692L500 639Q400 600 376 532L380 529Q393 540 411 540Q444 540 469 518T494 455Q494 411 467 387T394 362Q342 362 314 398Z" />
<glyph unicode="&#x201d;" glyph-name="quotedblright" horiz-adv-x="534" d="M203 690T230 654T258 562Q258 496 223 443T119 360L44 413Q143 450 169 520L164 523Q154 512 134 512Q101 512 76 533T50 596Q50 641 77 665T150 690Q203 690 230 654ZM443 690T470
654T498 562Q498 496 463 443T359 360L284 413Q383 450 409 520L404 523Q394 512 374 512Q341 512 316 533T290 596Q290 641 317 665T390 690Q443 690 470 654Z" />
<glyph unicode="&#x201e;" glyph-name="quotedblbase" horiz-adv-x="530" d="M450 172T477 136T505 43Q505 -23 470 -76T366 -158L291 -105Q338 -87 370 -60T415 2L411 5Q400 -6 380 -6Q347 -6 322 16T297 78Q297 123 324 147T397 172Q450 172 477 136ZM434 172T461
136T489 43Q489 -23 454 -76T350 -158L275 -105Q322 -87 354 -60T399 2L395 5Q384 -6 364 -6Q331 -6 306 16T281 78Q281 123 308 147T381 172Q434 172 461 136Z" />
<glyph unicode="&#x2022;" glyph-name="bullet" horiz-adv-x="430" d="M286 481T327 441T369 333Q369 264 328 224T215 184Q144 184 103 224T61 333Q61 401 102 441T215 481Q286 481 327 441Z" />
<glyph unicode="&#x2039;" glyph-name="guilsinglleft" horiz-adv-x="343" d="M187 265L308 69H160L35 265L160 461H308L187 265Z" />
<glyph unicode="&#x203a;" glyph-name="guilsinglright" horiz-adv-x="343" d="M183 461L308 265L183 69H35L156 265L35 461H183Z" />
</font>
</defs>
</svg>
